<?xml version="1.0" encoding="utf-8" standalone="no"?>
<!DOCTYPE svg PUBLIC "-//W3C//DTD SVG 1.1//EN"
  "http://www.w3.org/Graphics/SVG/1.1/DTD/svg11.dtd">
<!-- Created with matplotlib (https://matplotlib.org/) -->
<svg height="345.6pt" version="1.1" viewBox="0 0 460.8 345.6" width="460.8pt" xmlns="http://www.w3.org/2000/svg" xmlns:xlink="http://www.w3.org/1999/xlink">
 <metadata>
  <rdf:RDF xmlns:cc="http://creativecommons.org/ns#" xmlns:dc="http://purl.org/dc/elements/1.1/" xmlns:rdf="http://www.w3.org/1999/02/22-rdf-syntax-ns#">
   <cc:Work>
    <dc:type rdf:resource="http://purl.org/dc/dcmitype/StillImage"/>
    <dc:date>2021-06-03T14:38:05.552117</dc:date>
    <dc:format>image/svg+xml</dc:format>
    <dc:creator>
     <cc:Agent>
      <dc:title>Matplotlib v3.3.3, https://matplotlib.org/</dc:title>
     </cc:Agent>
    </dc:creator>
   </cc:Work>
  </rdf:RDF>
 </metadata>
 <defs>
  <style type="text/css">*{stroke-linecap:butt;stroke-linejoin:round;}</style>
 </defs>
 <g id="figure_1">
  <g id="patch_1">
   <path d="M 0 345.6 
L 460.8 345.6 
L 460.8 0 
L 0 0 
z
" style="fill:#ffffff;"/>
  </g>
  <g id="axes_1">
   <g id="patch_2">
    <path d="M 57.6 307.584 
L 414.72 307.584 
L 414.72 41.472 
L 57.6 41.472 
z
" style="fill:#7d9051;"/>
   </g>
   <g id="matplotlib.axis_1">
    <g id="xtick_1">
     <g id="line2d_1">
      <defs>
       <path d="M 0 0 
L 0 3.5 
" id="m94e4bb1e49" style="stroke:#000000;stroke-width:0.8;"/>
      </defs>
      <g>
       <use style="stroke:#000000;stroke-width:0.8;" x="98.009988" xlink:href="#m94e4bb1e49" y="307.584"/>
      </g>
     </g>
     <g id="text_1">
      <!-- −140 -->
      <g transform="translate(84.276394 322.182437)scale(0.1 -0.1)">
       <defs>
        <path d="M 10.59375 35.5 
L 73.1875 35.5 
L 73.1875 27.203125 
L 10.59375 27.203125 
z
" id="DejaVuSans-8722"/>
        <path d="M 12.40625 8.296875 
L 28.515625 8.296875 
L 28.515625 63.921875 
L 10.984375 60.40625 
L 10.984375 69.390625 
L 28.421875 72.90625 
L 38.28125 72.90625 
L 38.28125 8.296875 
L 54.390625 8.296875 
L 54.390625 0 
L 12.40625 0 
z
" id="DejaVuSans-49"/>
        <path d="M 37.796875 64.3125 
L 12.890625 25.390625 
L 37.796875 25.390625 
z
M 35.203125 72.90625 
L 47.609375 72.90625 
L 47.609375 25.390625 
L 58.015625 25.390625 
L 58.015625 17.1875 
L 47.609375 17.1875 
L 47.609375 0 
L 37.796875 0 
L 37.796875 17.1875 
L 4.890625 17.1875 
L 4.890625 26.703125 
z
" id="DejaVuSans-52"/>
        <path d="M 31.78125 66.40625 
Q 24.171875 66.40625 20.328125 58.90625 
Q 16.5 51.421875 16.5 36.375 
Q 16.5 21.390625 20.328125 13.890625 
Q 24.171875 6.390625 31.78125 6.390625 
Q 39.453125 6.390625 43.28125 13.890625 
Q 47.125 21.390625 47.125 36.375 
Q 47.125 51.421875 43.28125 58.90625 
Q 39.453125 66.40625 31.78125 66.40625 
z
M 31.78125 74.21875 
Q 44.046875 74.21875 50.515625 64.515625 
Q 56.984375 54.828125 56.984375 36.375 
Q 56.984375 17.96875 50.515625 8.265625 
Q 44.046875 -1.421875 31.78125 -1.421875 
Q 19.53125 -1.421875 13.0625 8.265625 
Q 6.59375 17.96875 6.59375 36.375 
Q 6.59375 54.828125 13.0625 64.515625 
Q 19.53125 74.21875 31.78125 74.21875 
z
" id="DejaVuSans-48"/>
       </defs>
       <use xlink:href="#DejaVuSans-8722"/>
       <use x="83.789062" xlink:href="#DejaVuSans-49"/>
       <use x="147.412109" xlink:href="#DejaVuSans-52"/>
       <use x="211.035156" xlink:href="#DejaVuSans-48"/>
      </g>
     </g>
    </g>
    <g id="xtick_2">
     <g id="line2d_2">
      <g>
       <use style="stroke:#000000;stroke-width:0.8;" x="139.250711" xlink:href="#m94e4bb1e49" y="307.584"/>
      </g>
     </g>
     <g id="text_2">
      <!-- −120 -->
      <g transform="translate(125.517117 322.182437)scale(0.1 -0.1)">
       <defs>
        <path d="M 19.1875 8.296875 
L 53.609375 8.296875 
L 53.609375 0 
L 7.328125 0 
L 7.328125 8.296875 
Q 12.9375 14.109375 22.625 23.890625 
Q 32.328125 33.6875 34.8125 36.53125 
Q 39.546875 41.84375 41.421875 45.53125 
Q 43.3125 49.21875 43.3125 52.78125 
Q 43.3125 58.59375 39.234375 62.25 
Q 35.15625 65.921875 28.609375 65.921875 
Q 23.96875 65.921875 18.8125 64.3125 
Q 13.671875 62.703125 7.8125 59.421875 
L 7.8125 69.390625 
Q 13.765625 71.78125 18.9375 73 
Q 24.125 74.21875 28.421875 74.21875 
Q 39.75 74.21875 46.484375 68.546875 
Q 53.21875 62.890625 53.21875 53.421875 
Q 53.21875 48.921875 51.53125 44.890625 
Q 49.859375 40.875 45.40625 35.40625 
Q 44.1875 33.984375 37.640625 27.21875 
Q 31.109375 20.453125 19.1875 8.296875 
z
" id="DejaVuSans-50"/>
       </defs>
       <use xlink:href="#DejaVuSans-8722"/>
       <use x="83.789062" xlink:href="#DejaVuSans-49"/>
       <use x="147.412109" xlink:href="#DejaVuSans-50"/>
       <use x="211.035156" xlink:href="#DejaVuSans-48"/>
      </g>
     </g>
    </g>
    <g id="xtick_3">
     <g id="line2d_3">
      <g>
       <use style="stroke:#000000;stroke-width:0.8;" x="180.491433" xlink:href="#m94e4bb1e49" y="307.584"/>
      </g>
     </g>
     <g id="text_3">
      <!-- −100 -->
      <g transform="translate(166.757839 322.182437)scale(0.1 -0.1)">
       <use xlink:href="#DejaVuSans-8722"/>
       <use x="83.789062" xlink:href="#DejaVuSans-49"/>
       <use x="147.412109" xlink:href="#DejaVuSans-48"/>
       <use x="211.035156" xlink:href="#DejaVuSans-48"/>
      </g>
     </g>
    </g>
    <g id="xtick_4">
     <g id="line2d_4">
      <g>
       <use style="stroke:#000000;stroke-width:0.8;" x="221.732156" xlink:href="#m94e4bb1e49" y="307.584"/>
      </g>
     </g>
     <g id="text_4">
      <!-- −80 -->
      <g transform="translate(211.179812 322.182437)scale(0.1 -0.1)">
       <defs>
        <path d="M 31.78125 34.625 
Q 24.75 34.625 20.71875 30.859375 
Q 16.703125 27.09375 16.703125 20.515625 
Q 16.703125 13.921875 20.71875 10.15625 
Q 24.75 6.390625 31.78125 6.390625 
Q 38.8125 6.390625 42.859375 10.171875 
Q 46.921875 13.96875 46.921875 20.515625 
Q 46.921875 27.09375 42.890625 30.859375 
Q 38.875 34.625 31.78125 34.625 
z
M 21.921875 38.8125 
Q 15.578125 40.375 12.03125 44.71875 
Q 8.5 49.078125 8.5 55.328125 
Q 8.5 64.0625 14.71875 69.140625 
Q 20.953125 74.21875 31.78125 74.21875 
Q 42.671875 74.21875 48.875 69.140625 
Q 55.078125 64.0625 55.078125 55.328125 
Q 55.078125 49.078125 51.53125 44.71875 
Q 48 40.375 41.703125 38.8125 
Q 48.828125 37.15625 52.796875 32.3125 
Q 56.78125 27.484375 56.78125 20.515625 
Q 56.78125 9.90625 50.3125 4.234375 
Q 43.84375 -1.421875 31.78125 -1.421875 
Q 19.734375 -1.421875 13.25 4.234375 
Q 6.78125 9.90625 6.78125 20.515625 
Q 6.78125 27.484375 10.78125 32.3125 
Q 14.796875 37.15625 21.921875 38.8125 
z
M 18.3125 54.390625 
Q 18.3125 48.734375 21.84375 45.5625 
Q 25.390625 42.390625 31.78125 42.390625 
Q 38.140625 42.390625 41.71875 45.5625 
Q 45.3125 48.734375 45.3125 54.390625 
Q 45.3125 60.0625 41.71875 63.234375 
Q 38.140625 66.40625 31.78125 66.40625 
Q 25.390625 66.40625 21.84375 63.234375 
Q 18.3125 60.0625 18.3125 54.390625 
z
" id="DejaVuSans-56"/>
       </defs>
       <use xlink:href="#DejaVuSans-8722"/>
       <use x="83.789062" xlink:href="#DejaVuSans-56"/>
       <use x="147.412109" xlink:href="#DejaVuSans-48"/>
      </g>
     </g>
    </g>
    <g id="xtick_5">
     <g id="line2d_5">
      <g>
       <use style="stroke:#000000;stroke-width:0.8;" x="262.972879" xlink:href="#m94e4bb1e49" y="307.584"/>
      </g>
     </g>
     <g id="text_5">
      <!-- −60 -->
      <g transform="translate(252.420535 322.182437)scale(0.1 -0.1)">
       <defs>
        <path d="M 33.015625 40.375 
Q 26.375 40.375 22.484375 35.828125 
Q 18.609375 31.296875 18.609375 23.390625 
Q 18.609375 15.53125 22.484375 10.953125 
Q 26.375 6.390625 33.015625 6.390625 
Q 39.65625 6.390625 43.53125 10.953125 
Q 47.40625 15.53125 47.40625 23.390625 
Q 47.40625 31.296875 43.53125 35.828125 
Q 39.65625 40.375 33.015625 40.375 
z
M 52.59375 71.296875 
L 52.59375 62.3125 
Q 48.875 64.0625 45.09375 64.984375 
Q 41.3125 65.921875 37.59375 65.921875 
Q 27.828125 65.921875 22.671875 59.328125 
Q 17.53125 52.734375 16.796875 39.40625 
Q 19.671875 43.65625 24.015625 45.921875 
Q 28.375 48.1875 33.59375 48.1875 
Q 44.578125 48.1875 50.953125 41.515625 
Q 57.328125 34.859375 57.328125 23.390625 
Q 57.328125 12.15625 50.6875 5.359375 
Q 44.046875 -1.421875 33.015625 -1.421875 
Q 20.359375 -1.421875 13.671875 8.265625 
Q 6.984375 17.96875 6.984375 36.375 
Q 6.984375 53.65625 15.1875 63.9375 
Q 23.390625 74.21875 37.203125 74.21875 
Q 40.921875 74.21875 44.703125 73.484375 
Q 48.484375 72.75 52.59375 71.296875 
z
" id="DejaVuSans-54"/>
       </defs>
       <use xlink:href="#DejaVuSans-8722"/>
       <use x="83.789062" xlink:href="#DejaVuSans-54"/>
       <use x="147.412109" xlink:href="#DejaVuSans-48"/>
      </g>
     </g>
    </g>
    <g id="xtick_6">
     <g id="line2d_6">
      <g>
       <use style="stroke:#000000;stroke-width:0.8;" x="304.213601" xlink:href="#m94e4bb1e49" y="307.584"/>
      </g>
     </g>
     <g id="text_6">
      <!-- −40 -->
      <g transform="translate(293.661257 322.182437)scale(0.1 -0.1)">
       <use xlink:href="#DejaVuSans-8722"/>
       <use x="83.789062" xlink:href="#DejaVuSans-52"/>
       <use x="147.412109" xlink:href="#DejaVuSans-48"/>
      </g>
     </g>
    </g>
    <g id="xtick_7">
     <g id="line2d_7">
      <g>
       <use style="stroke:#000000;stroke-width:0.8;" x="345.454324" xlink:href="#m94e4bb1e49" y="307.584"/>
      </g>
     </g>
     <g id="text_7">
      <!-- −20 -->
      <g transform="translate(334.90198 322.182437)scale(0.1 -0.1)">
       <use xlink:href="#DejaVuSans-8722"/>
       <use x="83.789062" xlink:href="#DejaVuSans-50"/>
       <use x="147.412109" xlink:href="#DejaVuSans-48"/>
      </g>
     </g>
    </g>
    <g id="xtick_8">
     <g id="line2d_8">
      <g>
       <use style="stroke:#000000;stroke-width:0.8;" x="386.695046" xlink:href="#m94e4bb1e49" y="307.584"/>
      </g>
     </g>
     <g id="text_8">
      <!-- 0 -->
      <g transform="translate(383.513796 322.182437)scale(0.1 -0.1)">
       <use xlink:href="#DejaVuSans-48"/>
      </g>
     </g>
    </g>
   </g>
   <g id="matplotlib.axis_2">
    <g id="ytick_1">
     <g id="line2d_9">
      <defs>
       <path d="M 0 0 
L -3.5 0 
" id="m6890a3bd5a" style="stroke:#000000;stroke-width:0.8;"/>
      </defs>
      <g>
       <use style="stroke:#000000;stroke-width:0.8;" x="57.6" xlink:href="#m6890a3bd5a" y="266.774241"/>
      </g>
     </g>
     <g id="text_9">
      <!-- 0 -->
      <g transform="translate(44.2375 270.57346)scale(0.1 -0.1)">
       <use xlink:href="#DejaVuSans-48"/>
      </g>
     </g>
    </g>
    <g id="ytick_2">
     <g id="line2d_10">
      <g>
       <use style="stroke:#000000;stroke-width:0.8;" x="57.6" xlink:href="#m6890a3bd5a" y="225.533518"/>
      </g>
     </g>
     <g id="text_10">
      <!-- 20 -->
      <g transform="translate(37.875 229.332737)scale(0.1 -0.1)">
       <use xlink:href="#DejaVuSans-50"/>
       <use x="63.623047" xlink:href="#DejaVuSans-48"/>
      </g>
     </g>
    </g>
    <g id="ytick_3">
     <g id="line2d_11">
      <g>
       <use style="stroke:#000000;stroke-width:0.8;" x="57.6" xlink:href="#m6890a3bd5a" y="184.292796"/>
      </g>
     </g>
     <g id="text_11">
      <!-- 40 -->
      <g transform="translate(37.875 188.092015)scale(0.1 -0.1)">
       <use xlink:href="#DejaVuSans-52"/>
       <use x="63.623047" xlink:href="#DejaVuSans-48"/>
      </g>
     </g>
    </g>
    <g id="ytick_4">
     <g id="line2d_12">
      <g>
       <use style="stroke:#000000;stroke-width:0.8;" x="57.6" xlink:href="#m6890a3bd5a" y="143.052073"/>
      </g>
     </g>
     <g id="text_12">
      <!-- 60 -->
      <g transform="translate(37.875 146.851292)scale(0.1 -0.1)">
       <use xlink:href="#DejaVuSans-54"/>
       <use x="63.623047" xlink:href="#DejaVuSans-48"/>
      </g>
     </g>
    </g>
    <g id="ytick_5">
     <g id="line2d_13">
      <g>
       <use style="stroke:#000000;stroke-width:0.8;" x="57.6" xlink:href="#m6890a3bd5a" y="101.81135"/>
      </g>
     </g>
     <g id="text_13">
      <!-- 80 -->
      <g transform="translate(37.875 105.610569)scale(0.1 -0.1)">
       <use xlink:href="#DejaVuSans-56"/>
       <use x="63.623047" xlink:href="#DejaVuSans-48"/>
      </g>
     </g>
    </g>
    <g id="ytick_6">
     <g id="line2d_14">
      <g>
       <use style="stroke:#000000;stroke-width:0.8;" x="57.6" xlink:href="#m6890a3bd5a" y="60.570628"/>
      </g>
     </g>
     <g id="text_14">
      <!-- 100 -->
      <g transform="translate(31.5125 64.369847)scale(0.1 -0.1)">
       <use xlink:href="#DejaVuSans-49"/>
       <use x="63.623047" xlink:href="#DejaVuSans-48"/>
       <use x="127.246094" xlink:href="#DejaVuSans-48"/>
      </g>
     </g>
    </g>
   </g>
   <g id="line2d_15">
    <path clip-path="url(#p73c60cee89)" d="M 386.695046 266.774241 
L 387.010376 245.071349 
L 387.678105 212.508746 
L 388.02494 207.015603 
L 388.815336 198.703504 
L 389.869196 187.620706 
L 390.180013 182.137214 
L 390.218688 176.726643 
L 389.889169 171.414729 
L 389.556322 168.80381 
L 389.095408 166.227208 
L 388.494421 163.688137 
L 386.936457 158.65074 
L 384.988942 153.63415 
L 382.691289 148.666379 
L 380.082907 143.775438 
L 377.20321 138.98934 
L 374.091607 134.336096 
L 370.78751 129.843717 
L 367.33033 125.540217 
L 363.759479 121.453607 
L 360.085316 117.56278 
L 356.170789 113.627984 
L 352.020767 109.696965 
L 347.668933 105.869579 
L 343.14897 102.245681 
L 338.49456 98.925128 
L 333.739386 96.007776 
L 331.334539 94.731505 
L 328.917131 93.593481 
L 326.491374 92.606186 
L 324.061477 91.7821 
L 321.631652 91.133708 
L 319.206107 90.673489 
L 316.769367 90.449699 
L 314.304404 90.485074 
L 311.813101 90.753822 
L 309.297343 91.23015 
L 306.759014 91.888264 
L 304.2 92.702372 
L 299.027449 94.6954 
L 291.160585 98.210077 
L 283.209298 101.735889 
L 277.886664 103.748712 
L 275.224466 104.57643 
L 272.564195 105.250629 
L 269.907733 105.745515 
L 267.239249 106.068701 
L 264.544192 106.256679 
L 259.089614 106.297101 
L 253.574496 106.006967 
L 242.484633 104.995785 
L 236.970883 104.555111 
L 231.518585 104.344632 
L 226.158235 104.504534 
L 223.522072 104.767188 
L 220.920333 105.175007 
L 218.35683 105.745515 
L 215.834253 106.529842 
L 213.350175 107.546985 
L 210.900735 108.766273 
L 208.482072 110.157034 
L 203.721627 113.330282 
L 199.037949 116.821351 
L 192.08879 122.1171 
L 187.461872 125.329186 
L 185.138584 126.747687 
L 182.803595 128.000265 
L 180.453043 129.056247 
L 178.083066 129.884959 
L 175.689804 130.455731 
L 173.269394 130.737889 
L 170.831111 130.733713 
L 168.386746 130.481328 
L 165.936209 130.003832 
L 163.479414 129.32432 
L 161.016272 128.465889 
L 158.546695 127.451635 
L 153.587883 125.048044 
L 148.602274 122.29832 
L 136.016394 115.122239 
L 130.931449 112.616123 
L 128.377783 111.533519 
L 123.244549 109.757778 
L 115.454489 107.466521 
L 107.576862 105.436975 
L 96.989534 102.98144 
L 78.432896 98.770372 
L 75.796916 98.124054 
L 75.796916 98.124054 
" style="fill:none;stroke:#fea952;stroke-linecap:square;"/>
   </g>
   <g id="line2d_16">
    <path clip-path="url(#p73c60cee89)" d="M 378.447284 266.694886 
L 378.763736 244.913844 
L 379.441873 212.065595 
L 379.807569 206.303779 
L 380.611031 197.854228 
L 381.639347 187.071631 
L 381.933838 181.956995 
L 381.977886 177.074597 
L 381.707243 172.457783 
L 381.069038 168.127016 
L 380.570274 165.977196 
L 379.198682 161.507088 
L 377.451786 156.984249 
L 375.361543 152.4488 
L 372.963211 147.939789 
L 370.294398 143.494915 
L 367.394393 139.150575 
L 364.303768 134.942049 
L 361.064193 130.903743 
L 357.71843 127.069443 
L 354.199375 123.34098 
L 348.500452 117.690463 
L 344.484427 114.013024 
L 340.350142 110.525848 
L 336.151738 107.329854 
L 331.951501 104.522702 
L 327.821441 102.194081 
L 323.842267 100.417339 
L 321.934894 99.751387 
L 318.451773 98.887068 
L 316.887726 98.696995 
L 315.189034 98.685643 
L 313.347523 98.857984 
L 311.367401 99.214306 
L 309.259537 99.748243 
L 304.712949 101.293842 
L 299.802058 103.344561 
L 286.255736 109.400816 
L 280.335506 111.624946 
L 277.250752 112.571807 
L 274.074795 113.359265 
L 270.899439 113.933824 
L 267.813154 114.296856 
L 264.757446 114.502066 
L 258.752677 114.53836 
L 252.906257 114.227998 
L 241.769747 113.212891 
L 236.541004 112.792046 
L 231.594804 112.592424 
L 226.975988 112.712041 
L 224.799361 112.915833 
L 220.805725 113.621732 
L 218.959719 114.162885 
L 217.025753 114.930888 
L 215.012261 115.916605 
L 212.929997 117.103101 
L 208.595915 119.984093 
L 204.069298 123.357206 
L 196.896897 128.81889 
L 191.760031 132.36891 
L 189.037623 134.01607 
L 186.183638 135.524041 
L 183.17554 136.842124 
L 179.996511 137.908089 
L 176.64486 138.648396 
L 173.255268 138.986021 
L 169.983981 138.93824 
L 166.809231 138.577212 
L 163.73745 137.953508 
L 160.764973 137.11301 
L 157.882743 136.095626 
L 155.079868 134.935818 
L 149.671356 132.307018 
L 144.474413 129.439234 
L 132.252072 122.461297 
L 127.712077 120.210037 
L 125.540855 119.278435 
L 120.810499 117.638596 
L 113.320492 115.433826 
L 105.650841 113.457096 
L 95.195442 111.0321 
L 76.468707 106.78123 
L 73.832727 106.134912 
L 73.832727 106.134912 
" style="fill:none;stroke:#ffffff;stroke-linecap:square;"/>
   </g>
   <g id="line2d_17">
    <path clip-path="url(#p73c60cee89)" d="M 394.942809 266.853596 
L 395.257017 245.228855 
L 395.914336 212.951896 
L 396.242312 207.727427 
L 397.019641 199.552781 
L 398.099044 188.169781 
L 398.426188 182.317434 
L 398.459489 176.378689 
L 398.326473 173.382224 
L 398.071096 170.371674 
L 397.675583 167.351401 
L 397.121779 164.327399 
L 396.418568 161.399079 
L 394.674232 155.794392 
L 392.526099 150.284051 
L 390.021035 144.883958 
L 387.202603 139.611087 
L 384.112021 134.483764 
L 380.788821 129.521616 
L 377.271252 124.745386 
L 373.596468 120.176692 
L 369.800528 115.837771 
L 365.971256 111.78458 
L 361.892623 107.687235 
L 357.531192 103.559612 
L 352.909016 99.499852 
L 348.042664 95.606129 
L 342.941534 91.978451 
L 340.303426 90.296919 
L 337.605963 88.722072 
L 334.847637 87.26893 
L 332.026495 85.953864 
L 329.140481 84.795032 
L 326.188061 83.812814 
L 323.169208 83.03014 
L 319.960442 82.459911 
L 316.651009 82.202404 
L 313.419773 82.284506 
L 310.278679 82.64966 
L 307.227285 83.245993 
L 304.258492 84.028285 
L 301.362894 84.957521 
L 295.756637 87.123499 
L 287.731482 90.708534 
L 280.16286 94.070962 
L 275.437822 95.872478 
L 273.198181 96.581053 
L 271.053595 97.141993 
L 268.916028 97.557206 
L 266.665343 97.840547 
L 261.916395 98.079318 
L 256.866829 97.953436 
L 251.559513 97.568303 
L 237.400761 96.318176 
L 231.442365 96.096839 
L 228.407965 96.131929 
L 225.340483 96.297027 
L 222.244783 96.618542 
L 219.128542 97.123834 
L 215.907935 97.869298 
L 212.708786 98.896798 
L 209.674598 100.163083 
L 206.789209 101.615942 
L 204.034146 103.210967 
L 198.847339 106.676471 
L 194.006599 110.285495 
L 187.280683 115.415309 
L 183.163713 118.289461 
L 179.423551 120.47649 
L 177.730545 121.270369 
L 176.169622 121.861829 
L 174.734748 122.263066 
L 173.28352 122.489756 
L 171.678241 122.529186 
L 169.96426 122.385444 
L 168.134968 122.054156 
L 166.193855 121.53563 
L 164.1498 120.836152 
L 162.013521 119.967451 
L 157.50441 117.78907 
L 152.730136 115.157406 
L 139.780717 107.783182 
L 134.150822 105.02221 
L 131.214712 103.788603 
L 125.678599 101.87696 
L 120.286303 100.254042 
L 112.195598 98.084277 
L 101.453435 95.531777 
L 77.761105 90.113196 
L 77.761105 90.113196 
" style="fill:none;stroke:#ffffff;stroke-linecap:square;"/>
   </g>
   <g id="patch_3">
    <path d="M 57.6 307.584 
L 57.6 41.472 
" style="fill:none;stroke:#000000;stroke-linecap:square;stroke-linejoin:miter;stroke-width:0.8;"/>
   </g>
   <g id="patch_4">
    <path d="M 414.72 307.584 
L 414.72 41.472 
" style="fill:none;stroke:#000000;stroke-linecap:square;stroke-linejoin:miter;stroke-width:0.8;"/>
   </g>
   <g id="patch_5">
    <path d="M 57.6 307.584 
L 414.72 307.584 
" style="fill:none;stroke:#000000;stroke-linecap:square;stroke-linejoin:miter;stroke-width:0.8;"/>
   </g>
   <g id="patch_6">
    <path d="M 57.6 41.472 
L 414.72 41.472 
" style="fill:none;stroke:#000000;stroke-linecap:square;stroke-linejoin:miter;stroke-width:0.8;"/>
   </g>
  </g>
 </g>
 <defs>
  <clipPath id="p73c60cee89">
   <rect height="266.112" width="357.12" x="57.6" y="41.472"/>
  </clipPath>
 </defs>
</svg>
