<?xml version="1.0" encoding="utf-8" standalone="no"?>
<!DOCTYPE svg PUBLIC "-//W3C//DTD SVG 1.1//EN"
  "http://www.w3.org/Graphics/SVG/1.1/DTD/svg11.dtd">
<svg height="345.6pt" version="1.1" viewBox="0 0 460.8 345.6" width="460.8pt" xmlns="http://www.w3.org/2000/svg" xmlns:xlink="http://www.w3.org/1999/xlink">
 <metadata>
  <rdf:RDF xmlns:cc="http://creativecommons.org/ns#" xmlns:dc="http://purl.org/dc/elements/1.1/" xmlns:rdf="http://www.w3.org/1999/02/22-rdf-syntax-ns#">
   <cc:Work>
    <dc:type rdf:resource="http://purl.org/dc/dcmitype/StillImage"/>
    <dc:date>2021-05-13T11:14:54.784175</dc:date>
    <dc:format>image/svg+xml</dc:format>
    <dc:creator>
     <cc:Agent>
      <dc:title>Matplotlib v3.4.2, https://matplotlib.org/</dc:title>
     </cc:Agent>
    </dc:creator>
   </cc:Work>
  </rdf:RDF>
 </metadata>
 <defs>
  <style type="text/css">*{stroke-linecap:butt;stroke-linejoin:round;}</style>
 </defs>
 <g id="figure_1">
  <g id="patch_1">
   <path d="M 0 345.6 
L 460.8 345.6 
L 460.8 0 
L 0 0 
z
" style="fill:#ffffff;"/>
  </g>
  <g id="axes_1">
   <g id="patch_2">
    <path d="M 57.6 307.584 
L 414.72 307.584 
L 414.72 41.472 
L 57.6 41.472 
z
" style="fill:#7d9051;"/>
   </g>
   <g id="matplotlib.axis_1">
    <g id="xtick_1">
     <g id="line2d_1">
      <defs>
       <path d="M 0 0 
L 0 3.5 
" id="mc21ab48c3c" style="stroke:#000000;stroke-width:0.8;"/>
      </defs>
      <g>
       <use style="stroke:#000000;stroke-width:0.8;" x="87.584009" xlink:href="#mc21ab48c3c" y="307.584"/>
      </g>
     </g>
     <g id="text_1">
      <!-- −60 -->
      <g transform="translate(77.031666 322.182437)scale(0.1 -0.1)">
       <defs>
        <path d="M 678 2272 
L 4684 2272 
L 4684 1741 
L 678 1741 
L 678 2272 
z
" id="DejaVuSans-2212" transform="scale(0.015625)"/>
        <path d="M 2113 2584 
Q 1688 2584 1439 2293 
Q 1191 2003 1191 1497 
Q 1191 994 1439 701 
Q 1688 409 2113 409 
Q 2538 409 2786 701 
Q 3034 994 3034 1497 
Q 3034 2003 2786 2293 
Q 2538 2584 2113 2584 
z
M 3366 4563 
L 3366 3988 
Q 3128 4100 2886 4159 
Q 2644 4219 2406 4219 
Q 1781 4219 1451 3797 
Q 1122 3375 1075 2522 
Q 1259 2794 1537 2939 
Q 1816 3084 2150 3084 
Q 2853 3084 3261 2657 
Q 3669 2231 3669 1497 
Q 3669 778 3244 343 
Q 2819 -91 2113 -91 
Q 1303 -91 875 529 
Q 447 1150 447 2328 
Q 447 3434 972 4092 
Q 1497 4750 2381 4750 
Q 2619 4750 2861 4703 
Q 3103 4656 3366 4563 
z
" id="DejaVuSans-36" transform="scale(0.015625)"/>
        <path d="M 2034 4250 
Q 1547 4250 1301 3770 
Q 1056 3291 1056 2328 
Q 1056 1369 1301 889 
Q 1547 409 2034 409 
Q 2525 409 2770 889 
Q 3016 1369 3016 2328 
Q 3016 3291 2770 3770 
Q 2525 4250 2034 4250 
z
M 2034 4750 
Q 2819 4750 3233 4129 
Q 3647 3509 3647 2328 
Q 3647 1150 3233 529 
Q 2819 -91 2034 -91 
Q 1250 -91 836 529 
Q 422 1150 422 2328 
Q 422 3509 836 4129 
Q 1250 4750 2034 4750 
z
" id="DejaVuSans-30" transform="scale(0.015625)"/>
       </defs>
       <use xlink:href="#DejaVuSans-2212"/>
       <use x="83.789062" xlink:href="#DejaVuSans-36"/>
       <use x="147.412109" xlink:href="#DejaVuSans-30"/>
      </g>
     </g>
    </g>
    <g id="xtick_2">
     <g id="line2d_2">
      <g>
       <use style="stroke:#000000;stroke-width:0.8;" x="128.728705" xlink:href="#mc21ab48c3c" y="307.584"/>
      </g>
     </g>
     <g id="text_2">
      <!-- −40 -->
      <g transform="translate(118.176361 322.182437)scale(0.1 -0.1)">
       <defs>
        <path d="M 2419 4116 
L 825 1625 
L 2419 1625 
L 2419 4116 
z
M 2253 4666 
L 3047 4666 
L 3047 1625 
L 3713 1625 
L 3713 1100 
L 3047 1100 
L 3047 0 
L 2419 0 
L 2419 1100 
L 313 1100 
L 313 1709 
L 2253 4666 
z
" id="DejaVuSans-34" transform="scale(0.015625)"/>
       </defs>
       <use xlink:href="#DejaVuSans-2212"/>
       <use x="83.789062" xlink:href="#DejaVuSans-34"/>
       <use x="147.412109" xlink:href="#DejaVuSans-30"/>
      </g>
     </g>
    </g>
    <g id="xtick_3">
     <g id="line2d_3">
      <g>
       <use style="stroke:#000000;stroke-width:0.8;" x="169.8734" xlink:href="#mc21ab48c3c" y="307.584"/>
      </g>
     </g>
     <g id="text_3">
      <!-- −20 -->
      <g transform="translate(159.321056 322.182437)scale(0.1 -0.1)">
       <defs>
        <path d="M 1228 531 
L 3431 531 
L 3431 0 
L 469 0 
L 469 531 
Q 828 903 1448 1529 
Q 2069 2156 2228 2338 
Q 2531 2678 2651 2914 
Q 2772 3150 2772 3378 
Q 2772 3750 2511 3984 
Q 2250 4219 1831 4219 
Q 1534 4219 1204 4116 
Q 875 4013 500 3803 
L 500 4441 
Q 881 4594 1212 4672 
Q 1544 4750 1819 4750 
Q 2544 4750 2975 4387 
Q 3406 4025 3406 3419 
Q 3406 3131 3298 2873 
Q 3191 2616 2906 2266 
Q 2828 2175 2409 1742 
Q 1991 1309 1228 531 
z
" id="DejaVuSans-32" transform="scale(0.015625)"/>
       </defs>
       <use xlink:href="#DejaVuSans-2212"/>
       <use x="83.789062" xlink:href="#DejaVuSans-32"/>
       <use x="147.412109" xlink:href="#DejaVuSans-30"/>
      </g>
     </g>
    </g>
    <g id="xtick_4">
     <g id="line2d_4">
      <g>
       <use style="stroke:#000000;stroke-width:0.8;" x="211.018095" xlink:href="#mc21ab48c3c" y="307.584"/>
      </g>
     </g>
     <g id="text_4">
      <!-- 0 -->
      <g transform="translate(207.836845 322.182437)scale(0.1 -0.1)">
       <use xlink:href="#DejaVuSans-30"/>
      </g>
     </g>
    </g>
    <g id="xtick_5">
     <g id="line2d_5">
      <g>
       <use style="stroke:#000000;stroke-width:0.8;" x="252.16279" xlink:href="#mc21ab48c3c" y="307.584"/>
      </g>
     </g>
     <g id="text_5">
      <!-- 20 -->
      <g transform="translate(245.80029 322.182437)scale(0.1 -0.1)">
       <use xlink:href="#DejaVuSans-32"/>
       <use x="63.623047" xlink:href="#DejaVuSans-30"/>
      </g>
     </g>
    </g>
    <g id="xtick_6">
     <g id="line2d_6">
      <g>
       <use style="stroke:#000000;stroke-width:0.8;" x="293.307485" xlink:href="#mc21ab48c3c" y="307.584"/>
      </g>
     </g>
     <g id="text_6">
      <!-- 40 -->
      <g transform="translate(286.944985 322.182437)scale(0.1 -0.1)">
       <use xlink:href="#DejaVuSans-34"/>
       <use x="63.623047" xlink:href="#DejaVuSans-30"/>
      </g>
     </g>
    </g>
    <g id="xtick_7">
     <g id="line2d_7">
      <g>
       <use style="stroke:#000000;stroke-width:0.8;" x="334.452181" xlink:href="#mc21ab48c3c" y="307.584"/>
      </g>
     </g>
     <g id="text_7">
      <!-- 60 -->
      <g transform="translate(328.089681 322.182437)scale(0.1 -0.1)">
       <use xlink:href="#DejaVuSans-36"/>
       <use x="63.623047" xlink:href="#DejaVuSans-30"/>
      </g>
     </g>
    </g>
    <g id="xtick_8">
     <g id="line2d_8">
      <g>
       <use style="stroke:#000000;stroke-width:0.8;" x="375.596876" xlink:href="#mc21ab48c3c" y="307.584"/>
      </g>
     </g>
     <g id="text_8">
      <!-- 80 -->
      <g transform="translate(369.234376 322.182437)scale(0.1 -0.1)">
       <defs>
        <path d="M 2034 2216 
Q 1584 2216 1326 1975 
Q 1069 1734 1069 1313 
Q 1069 891 1326 650 
Q 1584 409 2034 409 
Q 2484 409 2743 651 
Q 3003 894 3003 1313 
Q 3003 1734 2745 1975 
Q 2488 2216 2034 2216 
z
M 1403 2484 
Q 997 2584 770 2862 
Q 544 3141 544 3541 
Q 544 4100 942 4425 
Q 1341 4750 2034 4750 
Q 2731 4750 3128 4425 
Q 3525 4100 3525 3541 
Q 3525 3141 3298 2862 
Q 3072 2584 2669 2484 
Q 3125 2378 3379 2068 
Q 3634 1759 3634 1313 
Q 3634 634 3220 271 
Q 2806 -91 2034 -91 
Q 1263 -91 848 271 
Q 434 634 434 1313 
Q 434 1759 690 2068 
Q 947 2378 1403 2484 
z
M 1172 3481 
Q 1172 3119 1398 2916 
Q 1625 2713 2034 2713 
Q 2441 2713 2670 2916 
Q 2900 3119 2900 3481 
Q 2900 3844 2670 4047 
Q 2441 4250 2034 4250 
Q 1625 4250 1398 4047 
Q 1172 3844 1172 3481 
z
" id="DejaVuSans-38" transform="scale(0.015625)"/>
       </defs>
       <use xlink:href="#DejaVuSans-38"/>
       <use x="63.623047" xlink:href="#DejaVuSans-30"/>
      </g>
     </g>
    </g>
   </g>
   <g id="matplotlib.axis_2">
    <g id="ytick_1">
     <g id="line2d_9">
      <defs>
       <path d="M 0 0 
L -3.5 0 
" id="m0fe60a7b31" style="stroke:#000000;stroke-width:0.8;"/>
      </defs>
      <g>
       <use style="stroke:#000000;stroke-width:0.8;" x="57.6" xlink:href="#m0fe60a7b31" y="295.40883"/>
      </g>
     </g>
     <g id="text_9">
      <!-- 0 -->
      <g transform="translate(44.2375 299.208049)scale(0.1 -0.1)">
       <use xlink:href="#DejaVuSans-30"/>
      </g>
     </g>
    </g>
    <g id="ytick_2">
     <g id="line2d_10">
      <g>
       <use style="stroke:#000000;stroke-width:0.8;" x="57.6" xlink:href="#m0fe60a7b31" y="254.264135"/>
      </g>
     </g>
     <g id="text_10">
      <!-- 20 -->
      <g transform="translate(37.875 258.063353)scale(0.1 -0.1)">
       <use xlink:href="#DejaVuSans-32"/>
       <use x="63.623047" xlink:href="#DejaVuSans-30"/>
      </g>
     </g>
    </g>
    <g id="ytick_3">
     <g id="line2d_11">
      <g>
       <use style="stroke:#000000;stroke-width:0.8;" x="57.6" xlink:href="#m0fe60a7b31" y="213.119439"/>
      </g>
     </g>
     <g id="text_11">
      <!-- 40 -->
      <g transform="translate(37.875 216.918658)scale(0.1 -0.1)">
       <use xlink:href="#DejaVuSans-34"/>
       <use x="63.623047" xlink:href="#DejaVuSans-30"/>
      </g>
     </g>
    </g>
    <g id="ytick_4">
     <g id="line2d_12">
      <g>
       <use style="stroke:#000000;stroke-width:0.8;" x="57.6" xlink:href="#m0fe60a7b31" y="171.974744"/>
      </g>
     </g>
     <g id="text_12">
      <!-- 60 -->
      <g transform="translate(37.875 175.773963)scale(0.1 -0.1)">
       <use xlink:href="#DejaVuSans-36"/>
       <use x="63.623047" xlink:href="#DejaVuSans-30"/>
      </g>
     </g>
    </g>
    <g id="ytick_5">
     <g id="line2d_13">
      <g>
       <use style="stroke:#000000;stroke-width:0.8;" x="57.6" xlink:href="#m0fe60a7b31" y="130.830049"/>
      </g>
     </g>
     <g id="text_13">
      <!-- 80 -->
      <g transform="translate(37.875 134.629268)scale(0.1 -0.1)">
       <use xlink:href="#DejaVuSans-38"/>
       <use x="63.623047" xlink:href="#DejaVuSans-30"/>
      </g>
     </g>
    </g>
    <g id="ytick_6">
     <g id="line2d_14">
      <g>
       <use style="stroke:#000000;stroke-width:0.8;" x="57.6" xlink:href="#m0fe60a7b31" y="89.685354"/>
      </g>
     </g>
     <g id="text_14">
      <!-- 100 -->
      <g transform="translate(31.5125 93.484573)scale(0.1 -0.1)">
       <defs>
        <path d="M 794 531 
L 1825 531 
L 1825 4091 
L 703 3866 
L 703 4441 
L 1819 4666 
L 2450 4666 
L 2450 531 
L 3481 531 
L 3481 0 
L 794 0 
L 794 531 
z
" id="DejaVuSans-31" transform="scale(0.015625)"/>
       </defs>
       <use xlink:href="#DejaVuSans-31"/>
       <use x="63.623047" xlink:href="#DejaVuSans-30"/>
       <use x="127.246094" xlink:href="#DejaVuSans-30"/>
      </g>
     </g>
    </g>
    <g id="ytick_7">
     <g id="line2d_15">
      <g>
       <use style="stroke:#000000;stroke-width:0.8;" x="57.6" xlink:href="#m0fe60a7b31" y="48.540659"/>
      </g>
     </g>
     <g id="text_15">
      <!-- 120 -->
      <g transform="translate(31.5125 52.339877)scale(0.1 -0.1)">
       <use xlink:href="#DejaVuSans-31"/>
       <use x="63.623047" xlink:href="#DejaVuSans-32"/>
       <use x="127.246094" xlink:href="#DejaVuSans-30"/>
      </g>
     </g>
    </g>
   </g>
   <g id="line2d_16">
    <path clip-path="url(#p3c45009fee)" d="M 211.018095 295.40883 
L 211.332691 273.756473 
L 212.008381 241.262775 
L 212.421027 235.734023 
L 213.380883 227.31682 
L 214.386191 218.883075 
L 214.87964 213.324913 
L 215.090278 207.869685 
L 215.051666 205.194457 
L 214.8969 202.561506 
L 214.610829 199.976347 
L 214.178302 197.444493 
L 213.58417 194.971458 
L 212.81328 192.562758 
L 211.840842 190.231792 
L 210.665532 187.982446 
L 209.307395 185.805965 
L 207.786479 183.693594 
L 206.122833 181.636576 
L 202.447537 177.653581 
L 198.441886 173.786934 
L 188.034947 164.169679 
L 184.136043 160.158656 
L 182.323325 158.082953 
L 180.628493 155.948783 
L 177.556201 151.486668 
L 167.840777 137.169596 
L 164.762144 132.210739 
L 161.984098 127.214333 
L 159.639039 122.213799 
L 158.670255 119.722428 
L 157.859368 117.242557 
L 157.222927 114.778364 
L 156.777483 112.334027 
L 156.539585 109.913723 
L 156.525785 107.52163 
L 156.731082 105.076637 
L 157.131974 102.510708 
L 157.717254 99.847631 
L 158.475718 97.111192 
L 159.396159 94.325179 
L 160.467371 91.51338 
L 161.678149 88.699582 
L 163.017286 85.907573 
L 164.473577 83.161141 
L 166.035815 80.484072 
L 167.692795 77.900155 
L 169.433312 75.433177 
L 171.246158 73.106925 
L 173.120129 70.945187 
L 175.044018 68.971751 
L 177.00662 67.210403 
L 178.996728 65.684932 
L 181.003137 64.419126 
L 183.014641 63.436771 
L 185.118832 62.715015 
L 187.397121 62.207892 
L 189.829024 61.904518 
L 192.39406 61.794009 
L 195.071746 61.865481 
L 197.841602 62.10805 
L 200.683144 62.510831 
L 203.575891 63.062942 
L 206.499361 63.753497 
L 209.433072 64.571613 
L 215.24929 66.54699 
L 220.860688 68.902003 
L 226.10341 71.549577 
L 228.535313 72.955866 
L 230.813601 74.402643 
L 232.917793 75.879024 
L 234.84069 77.477054 
L 236.600969 79.281222 
L 238.216959 81.269313 
L 239.706991 83.419109 
L 241.089394 85.708396 
L 243.604632 90.616575 
L 245.909311 95.816123 
L 250.473544 106.378407 
L 253.026373 111.385687 
L 254.434621 113.743106 
L 255.955196 115.973422 
L 257.606429 118.05442 
L 259.406649 119.963883 
L 261.381196 121.695483 
L 263.528055 123.270627 
L 265.824522 124.708704 
L 268.247895 126.029102 
L 273.384544 128.39442 
L 278.75638 130.521691 
L 286.857804 133.60556 
L 292.022999 135.816319 
L 294.466761 137.026318 
L 296.787696 138.331915 
L 298.963101 139.7525 
L 300.970271 141.30746 
L 302.786506 143.016185 
L 304.3891 144.898063 
L 305.787187 146.940892 
L 307.014773 149.112202 
L 308.086475 151.400979 
L 309.016905 153.796212 
L 309.820679 156.286888 
L 310.512411 158.861993 
L 311.618203 164.221444 
L 312.451196 169.786464 
L 314.906322 189.610932 
L 315.958529 195.010762 
L 315.958529 195.010762 
" style="fill:none;stroke:#fea952;stroke-linecap:square;"/>
   </g>
   <g id="line2d_17">
    <path clip-path="url(#p3c45009fee)" d="M 202.789537 295.32966 
L 203.105252 273.599334 
L 203.795741 240.7451 
L 204.235931 234.885697 
L 205.214833 226.301404 
L 206.457358 215.44523 
L 206.801123 210.392409 
L 206.836907 205.677324 
L 206.499402 201.362054 
L 206.177031 199.366754 
L 205.746829 197.479751 
L 205.218727 195.73107 
L 204.547504 194.042651 
L 203.684288 192.338783 
L 202.62934 190.61419 
L 201.388209 188.868299 
L 199.97137 187.102373 
L 196.670659 183.513881 
L 192.868663 179.84124 
L 182.221063 169.993269 
L 177.937927 165.571492 
L 175.879227 163.200476 
L 173.909993 160.700329 
L 169.206775 153.851189 
L 162.571178 144.138637 
L 159.238837 138.968691 
L 156.077802 133.608805 
L 153.229024 128.053577 
L 151.969544 125.196127 
L 150.848836 122.279936 
L 149.891879 119.300364 
L 149.127316 116.253668 
L 148.588009 113.138989 
L 148.310783 109.961197 
L 148.325702 106.833099 
L 148.600774 103.806386 
L 149.094848 100.744341 
L 149.787286 97.649667 
L 150.662164 94.529755 
L 151.706363 91.395594 
L 152.908522 88.260806 
L 154.258506 85.140883 
L 155.747165 82.052605 
L 157.366303 79.013599 
L 159.108802 76.042009 
L 160.968887 73.156265 
L 162.942569 70.374946 
L 165.0283 67.716778 
L 167.227892 65.200887 
L 169.547763 62.847485 
L 172.00045 60.679423 
L 174.606001 58.725266 
L 177.392009 57.024858 
L 180.344741 55.653001 
L 183.330915 54.682656 
L 186.378476 54.042244 
L 189.474826 53.683206 
L 192.613625 53.568 
L 195.789644 53.667917 
L 198.996489 53.960555 
L 202.225873 54.427798 
L 205.467597 55.054391 
L 208.709802 55.826998 
L 211.939307 56.733614 
L 215.14194 57.763214 
L 218.302837 58.905571 
L 221.406725 60.151197 
L 224.438173 61.491399 
L 227.381847 62.918457 
L 230.222774 64.425935 
L 232.946623 66.009227 
L 235.539992 67.666422 
L 238.177311 69.550287 
L 240.730629 71.730398 
L 242.986515 74.090824 
L 244.980209 76.58168 
L 246.751232 79.165392 
L 248.338175 81.813449 
L 249.776273 84.502821 
L 252.327103 89.924849 
L 258.971704 105.0486 
L 261.23373 109.107639 
L 262.401364 110.858508 
L 263.593922 112.409479 
L 264.832309 113.77699 
L 266.249061 115.060776 
L 267.895464 116.296304 
L 269.761655 117.482749 
L 271.829935 118.6207 
L 276.481419 120.770458 
L 281.65527 122.820271 
L 289.985028 125.993996 
L 295.67438 128.441845 
L 298.501259 129.85427 
L 301.286994 131.44194 
L 304.002706 133.247286 
L 306.60892 135.31404 
L 309.05153 137.680933 
L 311.179944 140.250496 
L 312.950536 142.890971 
L 314.467194 145.622666 
L 315.757019 148.421349 
L 316.848154 151.268965 
L 317.767885 154.15209 
L 318.541691 157.0603 
L 319.743186 162.91757 
L 320.617747 168.775092 
L 323.00724 188.165051 
L 324.009217 193.307277 
L 324.009217 193.307277 
" style="fill:none;stroke:#ffffff;stroke-linecap:square;"/>
   </g>
   <g id="line2d_18">
    <path clip-path="url(#p3c45009fee)" d="M 219.246653 295.488 
L 219.560129 273.913611 
L 220.221021 241.780451 
L 220.606122 236.582349 
L 221.546933 228.332236 
L 222.575566 219.689039 
L 223.09659 213.76896 
L 223.31836 207.750929 
L 223.266426 204.71159 
L 223.075914 201.656425 
L 222.722256 198.590639 
L 222.179574 195.522231 
L 221.42151 192.463166 
L 220.407833 189.394446 
L 219.134181 186.420933 
L 217.646775 183.626109 
L 215.98545 180.997741 
L 214.18475 178.518889 
L 212.274296 176.170779 
L 208.224414 171.79328 
L 204.015109 167.732628 
L 193.84883 158.346089 
L 190.33416 154.74582 
L 187.346993 151.197236 
L 184.352347 146.846858 
L 174.78943 132.76146 
L 171.895984 128.10906 
L 169.363055 123.572022 
L 167.308535 119.231471 
L 165.826856 115.184749 
L 165.318538 113.303059 
L 164.966956 111.529064 
L 164.768388 109.866249 
L 164.725868 108.210161 
L 164.861389 106.346888 
L 165.169099 104.277076 
L 165.647223 102.045594 
L 166.289272 99.692628 
L 167.085956 97.254764 
L 168.02622 94.765954 
L 169.097792 92.258281 
L 170.287407 89.762541 
L 171.58085 87.308683 
L 172.962828 84.926136 
L 174.416704 82.644045 
L 175.924054 80.491408 
L 177.464016 78.497071 
L 179.012366 76.689487 
L 180.540273 75.096016 
L 182.012789 73.741383 
L 183.387454 72.644599 
L 185.68454 71.22054 
L 186.90675 70.747374 
L 188.415765 70.37354 
L 190.183221 70.125831 
L 192.174494 70.020019 
L 194.353849 70.063045 
L 196.686715 70.255545 
L 199.140415 70.593864 
L 201.684185 71.071493 
L 206.926838 72.409611 
L 212.195742 74.188409 
L 217.283203 76.312606 
L 221.984046 78.67322 
L 226.087211 81.138864 
L 227.658275 82.207761 
L 228.950751 83.22371 
L 230.215423 84.471621 
L 231.45371 85.956945 
L 232.66275 87.672827 
L 233.840613 89.603342 
L 236.112498 94.02001 
L 238.327216 99.014134 
L 241.797656 107.170877 
L 244.452544 112.798165 
L 245.961927 115.605764 
L 247.635511 118.378573 
L 249.509027 121.088337 
L 251.618935 123.699361 
L 253.980989 126.150776 
L 256.513331 128.330189 
L 259.160645 130.244949 
L 261.887389 131.934658 
L 264.665854 133.437504 
L 267.472941 134.788369 
L 273.089528 137.155144 
L 286.129196 142.198745 
L 290.432264 144.198365 
L 292.288399 145.22189 
L 293.923495 146.257714 
L 295.331623 147.30088 
L 296.521482 148.351437 
L 297.598257 149.54563 
L 298.623837 150.990813 
L 299.562352 152.601737 
L 300.415931 154.38061 
L 301.185657 156.323459 
L 301.873474 158.421686 
L 303.020447 163.036207 
L 303.910966 168.117061 
L 304.626407 173.554634 
L 306.347765 188.075388 
L 307.342766 194.043699 
L 307.907841 196.714247 
L 307.907841 196.714247 
" style="fill:none;stroke:#ffffff;stroke-linecap:square;"/>
   </g>
   <g id="patch_3">
    <path d="M 57.6 307.584 
L 57.6 41.472 
" style="fill:none;stroke:#000000;stroke-linecap:square;stroke-linejoin:miter;stroke-width:0.8;"/>
   </g>
   <g id="patch_4">
    <path d="M 414.72 307.584 
L 414.72 41.472 
" style="fill:none;stroke:#000000;stroke-linecap:square;stroke-linejoin:miter;stroke-width:0.8;"/>
   </g>
   <g id="patch_5">
    <path d="M 57.6 307.584 
L 414.72 307.584 
" style="fill:none;stroke:#000000;stroke-linecap:square;stroke-linejoin:miter;stroke-width:0.8;"/>
   </g>
   <g id="patch_6">
    <path d="M 57.6 41.472 
L 414.72 41.472 
" style="fill:none;stroke:#000000;stroke-linecap:square;stroke-linejoin:miter;stroke-width:0.8;"/>
   </g>
  </g>
 </g>
 <defs>
  <clipPath id="p3c45009fee">
   <rect height="266.112" width="357.12" x="57.6" y="41.472"/>
  </clipPath>
 </defs>
</svg>
