<?xml version="1.0" encoding="utf-8" standalone="no"?>
<!DOCTYPE svg PUBLIC "-//W3C//DTD SVG 1.1//EN"
  "http://www.w3.org/Graphics/SVG/1.1/DTD/svg11.dtd">
<!-- Created with matplotlib (https://matplotlib.org/) -->
<svg height="345.6pt" version="1.1" viewBox="0 0 460.8 345.6" width="460.8pt" xmlns="http://www.w3.org/2000/svg" xmlns:xlink="http://www.w3.org/1999/xlink">
 <metadata>
  <rdf:RDF xmlns:cc="http://creativecommons.org/ns#" xmlns:dc="http://purl.org/dc/elements/1.1/" xmlns:rdf="http://www.w3.org/1999/02/22-rdf-syntax-ns#">
   <cc:Work>
    <dc:type rdf:resource="http://purl.org/dc/dcmitype/StillImage"/>
    <dc:date>2021-06-17T12:43:46.195504</dc:date>
    <dc:format>image/svg+xml</dc:format>
    <dc:creator>
     <cc:Agent>
      <dc:title>Matplotlib v3.3.3, https://matplotlib.org/</dc:title>
     </cc:Agent>
    </dc:creator>
   </cc:Work>
  </rdf:RDF>
 </metadata>
 <defs>
  <style type="text/css">*{stroke-linecap:butt;stroke-linejoin:round;}</style>
 </defs>
 <g id="figure_1">
  <g id="patch_1">
   <path d="M 0 345.6 
L 460.8 345.6 
L 460.8 0 
L 0 0 
z
" style="fill:#ffffff;"/>
  </g>
  <g id="axes_1">
   <g id="patch_2">
    <path d="M 57.6 307.584 
L 414.72 307.584 
L 414.72 41.472 
L 57.6 41.472 
z
" style="fill:#7d9051;"/>
   </g>
   <g id="matplotlib.axis_1">
    <g id="xtick_1">
     <g id="line2d_1">
      <defs>
       <path d="M 0 0 
L 0 3.5 
" id="m0787677185" style="stroke:#000000;stroke-width:0.8;"/>
      </defs>
      <g>
       <use style="stroke:#000000;stroke-width:0.8;" x="84.057153" xlink:href="#m0787677185" y="307.584"/>
      </g>
     </g>
     <g id="text_1">
      <!-- −150 -->
      <g transform="translate(70.323559 322.182437)scale(0.1 -0.1)">
       <defs>
        <path d="M 10.59375 35.5 
L 73.1875 35.5 
L 73.1875 27.203125 
L 10.59375 27.203125 
z
" id="DejaVuSans-8722"/>
        <path d="M 12.40625 8.296875 
L 28.515625 8.296875 
L 28.515625 63.921875 
L 10.984375 60.40625 
L 10.984375 69.390625 
L 28.421875 72.90625 
L 38.28125 72.90625 
L 38.28125 8.296875 
L 54.390625 8.296875 
L 54.390625 0 
L 12.40625 0 
z
" id="DejaVuSans-49"/>
        <path d="M 10.796875 72.90625 
L 49.515625 72.90625 
L 49.515625 64.59375 
L 19.828125 64.59375 
L 19.828125 46.734375 
Q 21.96875 47.46875 24.109375 47.828125 
Q 26.265625 48.1875 28.421875 48.1875 
Q 40.625 48.1875 47.75 41.5 
Q 54.890625 34.8125 54.890625 23.390625 
Q 54.890625 11.625 47.5625 5.09375 
Q 40.234375 -1.421875 26.90625 -1.421875 
Q 22.3125 -1.421875 17.546875 -0.640625 
Q 12.796875 0.140625 7.71875 1.703125 
L 7.71875 11.625 
Q 12.109375 9.234375 16.796875 8.0625 
Q 21.484375 6.890625 26.703125 6.890625 
Q 35.15625 6.890625 40.078125 11.328125 
Q 45.015625 15.765625 45.015625 23.390625 
Q 45.015625 31 40.078125 35.4375 
Q 35.15625 39.890625 26.703125 39.890625 
Q 22.75 39.890625 18.8125 39.015625 
Q 14.890625 38.140625 10.796875 36.28125 
z
" id="DejaVuSans-53"/>
        <path d="M 31.78125 66.40625 
Q 24.171875 66.40625 20.328125 58.90625 
Q 16.5 51.421875 16.5 36.375 
Q 16.5 21.390625 20.328125 13.890625 
Q 24.171875 6.390625 31.78125 6.390625 
Q 39.453125 6.390625 43.28125 13.890625 
Q 47.125 21.390625 47.125 36.375 
Q 47.125 51.421875 43.28125 58.90625 
Q 39.453125 66.40625 31.78125 66.40625 
z
M 31.78125 74.21875 
Q 44.046875 74.21875 50.515625 64.515625 
Q 56.984375 54.828125 56.984375 36.375 
Q 56.984375 17.96875 50.515625 8.265625 
Q 44.046875 -1.421875 31.78125 -1.421875 
Q 19.53125 -1.421875 13.0625 8.265625 
Q 6.59375 17.96875 6.59375 36.375 
Q 6.59375 54.828125 13.0625 64.515625 
Q 19.53125 74.21875 31.78125 74.21875 
z
" id="DejaVuSans-48"/>
       </defs>
       <use xlink:href="#DejaVuSans-8722"/>
       <use x="83.789062" xlink:href="#DejaVuSans-49"/>
       <use x="147.412109" xlink:href="#DejaVuSans-53"/>
       <use x="211.035156" xlink:href="#DejaVuSans-48"/>
      </g>
     </g>
    </g>
    <g id="xtick_2">
     <g id="line2d_2">
      <g>
       <use style="stroke:#000000;stroke-width:0.8;" x="145.792499" xlink:href="#m0787677185" y="307.584"/>
      </g>
     </g>
     <g id="text_2">
      <!-- −100 -->
      <g transform="translate(132.058905 322.182437)scale(0.1 -0.1)">
       <use xlink:href="#DejaVuSans-8722"/>
       <use x="83.789062" xlink:href="#DejaVuSans-49"/>
       <use x="147.412109" xlink:href="#DejaVuSans-48"/>
       <use x="211.035156" xlink:href="#DejaVuSans-48"/>
      </g>
     </g>
    </g>
    <g id="xtick_3">
     <g id="line2d_3">
      <g>
       <use style="stroke:#000000;stroke-width:0.8;" x="207.527845" xlink:href="#m0787677185" y="307.584"/>
      </g>
     </g>
     <g id="text_3">
      <!-- −50 -->
      <g transform="translate(196.975502 322.182437)scale(0.1 -0.1)">
       <use xlink:href="#DejaVuSans-8722"/>
       <use x="83.789062" xlink:href="#DejaVuSans-53"/>
       <use x="147.412109" xlink:href="#DejaVuSans-48"/>
      </g>
     </g>
    </g>
    <g id="xtick_4">
     <g id="line2d_4">
      <g>
       <use style="stroke:#000000;stroke-width:0.8;" x="269.263191" xlink:href="#m0787677185" y="307.584"/>
      </g>
     </g>
     <g id="text_4">
      <!-- 0 -->
      <g transform="translate(266.081941 322.182437)scale(0.1 -0.1)">
       <use xlink:href="#DejaVuSans-48"/>
      </g>
     </g>
    </g>
    <g id="xtick_5">
     <g id="line2d_5">
      <g>
       <use style="stroke:#000000;stroke-width:0.8;" x="330.998538" xlink:href="#m0787677185" y="307.584"/>
      </g>
     </g>
     <g id="text_5">
      <!-- 50 -->
      <g transform="translate(324.636038 322.182437)scale(0.1 -0.1)">
       <use xlink:href="#DejaVuSans-53"/>
       <use x="63.623047" xlink:href="#DejaVuSans-48"/>
      </g>
     </g>
    </g>
    <g id="xtick_6">
     <g id="line2d_6">
      <g>
       <use style="stroke:#000000;stroke-width:0.8;" x="392.733884" xlink:href="#m0787677185" y="307.584"/>
      </g>
     </g>
     <g id="text_6">
      <!-- 100 -->
      <g transform="translate(383.190134 322.182437)scale(0.1 -0.1)">
       <use xlink:href="#DejaVuSans-49"/>
       <use x="63.623047" xlink:href="#DejaVuSans-48"/>
       <use x="127.246094" xlink:href="#DejaVuSans-48"/>
      </g>
     </g>
    </g>
   </g>
   <g id="matplotlib.axis_2">
    <g id="ytick_1">
     <g id="line2d_7">
      <defs>
       <path d="M 0 0 
L -3.5 0 
" id="mfef58b6cfe" style="stroke:#000000;stroke-width:0.8;"/>
      </defs>
      <g>
       <use style="stroke:#000000;stroke-width:0.8;" x="57.6" xlink:href="#mfef58b6cfe" y="295.440484"/>
      </g>
     </g>
     <g id="text_7">
      <!-- 0 -->
      <g transform="translate(44.2375 299.239703)scale(0.1 -0.1)">
       <use xlink:href="#DejaVuSans-48"/>
      </g>
     </g>
    </g>
    <g id="ytick_2">
     <g id="line2d_8">
      <g>
       <use style="stroke:#000000;stroke-width:0.8;" x="57.6" xlink:href="#mfef58b6cfe" y="264.572811"/>
      </g>
     </g>
     <g id="text_8">
      <!-- 25 -->
      <g transform="translate(37.875 268.372029)scale(0.1 -0.1)">
       <defs>
        <path d="M 19.1875 8.296875 
L 53.609375 8.296875 
L 53.609375 0 
L 7.328125 0 
L 7.328125 8.296875 
Q 12.9375 14.109375 22.625 23.890625 
Q 32.328125 33.6875 34.8125 36.53125 
Q 39.546875 41.84375 41.421875 45.53125 
Q 43.3125 49.21875 43.3125 52.78125 
Q 43.3125 58.59375 39.234375 62.25 
Q 35.15625 65.921875 28.609375 65.921875 
Q 23.96875 65.921875 18.8125 64.3125 
Q 13.671875 62.703125 7.8125 59.421875 
L 7.8125 69.390625 
Q 13.765625 71.78125 18.9375 73 
Q 24.125 74.21875 28.421875 74.21875 
Q 39.75 74.21875 46.484375 68.546875 
Q 53.21875 62.890625 53.21875 53.421875 
Q 53.21875 48.921875 51.53125 44.890625 
Q 49.859375 40.875 45.40625 35.40625 
Q 44.1875 33.984375 37.640625 27.21875 
Q 31.109375 20.453125 19.1875 8.296875 
z
" id="DejaVuSans-50"/>
       </defs>
       <use xlink:href="#DejaVuSans-50"/>
       <use x="63.623047" xlink:href="#DejaVuSans-53"/>
      </g>
     </g>
    </g>
    <g id="ytick_3">
     <g id="line2d_9">
      <g>
       <use style="stroke:#000000;stroke-width:0.8;" x="57.6" xlink:href="#mfef58b6cfe" y="233.705138"/>
      </g>
     </g>
     <g id="text_9">
      <!-- 50 -->
      <g transform="translate(37.875 237.504356)scale(0.1 -0.1)">
       <use xlink:href="#DejaVuSans-53"/>
       <use x="63.623047" xlink:href="#DejaVuSans-48"/>
      </g>
     </g>
    </g>
    <g id="ytick_4">
     <g id="line2d_10">
      <g>
       <use style="stroke:#000000;stroke-width:0.8;" x="57.6" xlink:href="#mfef58b6cfe" y="202.837465"/>
      </g>
     </g>
     <g id="text_10">
      <!-- 75 -->
      <g transform="translate(37.875 206.636683)scale(0.1 -0.1)">
       <defs>
        <path d="M 8.203125 72.90625 
L 55.078125 72.90625 
L 55.078125 68.703125 
L 28.609375 0 
L 18.3125 0 
L 43.21875 64.59375 
L 8.203125 64.59375 
z
" id="DejaVuSans-55"/>
       </defs>
       <use xlink:href="#DejaVuSans-55"/>
       <use x="63.623047" xlink:href="#DejaVuSans-53"/>
      </g>
     </g>
    </g>
    <g id="ytick_5">
     <g id="line2d_11">
      <g>
       <use style="stroke:#000000;stroke-width:0.8;" x="57.6" xlink:href="#mfef58b6cfe" y="171.969791"/>
      </g>
     </g>
     <g id="text_11">
      <!-- 100 -->
      <g transform="translate(31.5125 175.76901)scale(0.1 -0.1)">
       <use xlink:href="#DejaVuSans-49"/>
       <use x="63.623047" xlink:href="#DejaVuSans-48"/>
       <use x="127.246094" xlink:href="#DejaVuSans-48"/>
      </g>
     </g>
    </g>
    <g id="ytick_6">
     <g id="line2d_12">
      <g>
       <use style="stroke:#000000;stroke-width:0.8;" x="57.6" xlink:href="#mfef58b6cfe" y="141.102118"/>
      </g>
     </g>
     <g id="text_12">
      <!-- 125 -->
      <g transform="translate(31.5125 144.901337)scale(0.1 -0.1)">
       <use xlink:href="#DejaVuSans-49"/>
       <use x="63.623047" xlink:href="#DejaVuSans-50"/>
       <use x="127.246094" xlink:href="#DejaVuSans-53"/>
      </g>
     </g>
    </g>
    <g id="ytick_7">
     <g id="line2d_13">
      <g>
       <use style="stroke:#000000;stroke-width:0.8;" x="57.6" xlink:href="#mfef58b6cfe" y="110.234445"/>
      </g>
     </g>
     <g id="text_13">
      <!-- 150 -->
      <g transform="translate(31.5125 114.033664)scale(0.1 -0.1)">
       <use xlink:href="#DejaVuSans-49"/>
       <use x="63.623047" xlink:href="#DejaVuSans-53"/>
       <use x="127.246094" xlink:href="#DejaVuSans-48"/>
      </g>
     </g>
    </g>
    <g id="ytick_8">
     <g id="line2d_14">
      <g>
       <use style="stroke:#000000;stroke-width:0.8;" x="57.6" xlink:href="#mfef58b6cfe" y="79.366772"/>
      </g>
     </g>
     <g id="text_14">
      <!-- 175 -->
      <g transform="translate(31.5125 83.165991)scale(0.1 -0.1)">
       <use xlink:href="#DejaVuSans-49"/>
       <use x="63.623047" xlink:href="#DejaVuSans-55"/>
       <use x="127.246094" xlink:href="#DejaVuSans-53"/>
      </g>
     </g>
    </g>
    <g id="ytick_9">
     <g id="line2d_15">
      <g>
       <use style="stroke:#000000;stroke-width:0.8;" x="57.6" xlink:href="#mfef58b6cfe" y="48.499099"/>
      </g>
     </g>
     <g id="text_15">
      <!-- 200 -->
      <g transform="translate(31.5125 52.298318)scale(0.1 -0.1)">
       <use xlink:href="#DejaVuSans-50"/>
       <use x="63.623047" xlink:href="#DejaVuSans-48"/>
       <use x="127.246094" xlink:href="#DejaVuSans-48"/>
      </g>
     </g>
    </g>
   </g>
   <g id="line2d_16">
    <path clip-path="url(#pdbdf0e1990)" d="M 269.263191 295.440484 
L 269.514916 279.196537 
L 270.531155 230.391625 
L 271.1712 225.210891 
L 272.395386 216.489062 
L 272.66464 213.122511 
L 272.666242 209.904323 
L 272.305726 206.886859 
L 271.960153 205.469763 
L 271.488626 204.122484 
L 270.879337 202.851568 
L 270.091815 201.680966 
L 269.108579 200.621547 
L 267.952304 199.660238 
L 266.645662 198.783965 
L 263.671977 197.234226 
L 260.36892 195.867735 
L 251.860662 192.566822 
L 248.833272 191.018021 
L 247.490826 190.142372 
L 246.292779 189.181792 
L 245.261805 188.123207 
L 244.420577 186.953542 
L 243.768728 185.677238 
L 243.279096 184.313245 
L 242.934171 182.870252 
L 242.716438 181.356948 
L 242.592502 178.154157 
L 242.767188 174.774382 
L 243.681972 164.268232 
L 243.650141 160.875601 
L 243.492277 159.238901 
L 243.21643 157.653528 
L 242.805088 156.128172 
L 242.242599 154.652881 
L 241.537546 153.20962 
L 239.7751 150.405422 
L 237.668453 147.688049 
L 234.19277 143.714571 
L 230.790346 139.781607 
L 228.813935 137.136258 
L 227.969806 135.79625 
L 227.246845 134.440097 
L 226.663889 133.064359 
L 226.239778 131.665594 
L 225.993348 130.240363 
L 225.964912 128.778267 
L 226.163498 127.275301 
L 226.561015 125.737604 
L 227.129375 124.17132 
L 228.666267 120.977555 
L 230.549461 117.743139 
L 234.455906 111.348892 
L 236.029731 108.28733 
L 236.623482 106.811935 
L 237.051007 105.381654 
L 237.284216 104.002628 
L 237.295021 102.680998 
L 237.055333 101.422907 
L 236.566295 100.242375 
L 235.862089 99.143027 
L 234.96418 98.115413 
L 233.894034 97.150082 
L 232.673116 96.237584 
L 229.864829 94.533288 
L 226.711043 92.92692 
L 220.053876 89.705563 
L 216.893946 87.939369 
L 214.075417 85.968695 
L 212.847842 84.883051 
L 211.770015 83.717937 
L 209.912051 81.19178 
L 208.291655 78.469787 
L 206.864282 75.588677 
L 205.58539 72.585169 
L 203.848011 67.930736 
L 200.473478 58.539252 
L 199.215002 55.518915 
L 199.215002 55.518915 
" style="fill:none;stroke:#fea952;stroke-linecap:square;"/>
   </g>
   <g id="line2d_17">
    <path clip-path="url(#pdbdf0e1990)" d="M 264.324592 295.392968 
L 264.577078 279.09769 
L 265.61893 229.879697 
L 266.286045 224.484757 
L 267.478918 216.019631 
L 267.727309 213.000928 
L 267.74474 210.317643 
L 267.507507 208.056952 
L 267.035134 206.257531 
L 266.471806 205.040661 
L 265.951191 204.419299 
L 265.201489 203.762072 
L 264.230051 203.09173 
L 261.715611 201.769052 
L 258.628114 200.489598 
L 249.735855 197.025209 
L 247.920738 196.151165 
L 246.135045 195.154637 
L 244.401366 193.995585 
L 242.754663 192.627624 
L 241.252263 191.006884 
L 240.022198 189.199935 
L 239.120322 187.345872 
L 238.475593 185.46145 
L 238.045682 183.573602 
L 237.789193 181.694994 
L 237.656722 177.980674 
L 237.848099 174.333262 
L 238.743694 164.19455 
L 238.734127 161.349764 
L 238.447945 158.939442 
L 238.190306 157.887663 
L 237.804977 156.82072 
L 236.609405 154.549442 
L 234.908958 152.135511 
L 232.825915 149.616514 
L 226.898759 142.822588 
L 224.635128 139.768669 
L 223.61159 138.119603 
L 222.699429 136.367019 
L 221.937539 134.497409 
L 221.373161 132.507057 
L 221.055454 130.336398 
L 221.068639 128.131329 
L 221.381864 126.039178 
L 221.918398 124.052931 
L 222.62151 122.153605 
L 224.366041 118.548547 
L 226.350354 115.143231 
L 230.117789 108.988223 
L 231.448002 106.44348 
L 232.181322 104.558133 
L 232.492513 103.313064 
L 232.407533 102.906341 
L 232.142995 102.392697 
L 231.656117 101.782665 
L 230.937358 101.106101 
L 228.868112 99.654035 
L 226.131522 98.149875 
L 215.951548 93.108254 
L 212.470346 90.937155 
L 210.803566 89.66829 
L 209.222401 88.236885 
L 207.871376 86.749872 
L 205.724429 83.810147 
L 203.903663 80.736404 
L 202.343892 77.578173 
L 200.982666 74.375967 
L 199.18889 69.569214 
L 195.893543 60.387552 
L 194.677827 57.469829 
L 194.677827 57.469829 
" style="fill:none;stroke:#ffffff;stroke-linecap:square;"/>
   </g>
   <g id="line2d_18">
    <path clip-path="url(#pdbdf0e1990)" d="M 274.201791 295.488 
L 274.452755 279.295383 
L 275.443379 230.903553 
L 276.056356 225.937025 
L 277.311853 216.958493 
L 277.601971 213.244094 
L 277.587744 209.491002 
L 277.416714 207.604403 
L 277.103945 205.716767 
L 276.621729 203.838283 
L 275.942119 201.987437 
L 274.97715 200.094769 
L 273.711825 198.321271 
L 272.265968 196.823796 
L 270.703118 195.558405 
L 269.061272 194.476199 
L 267.363843 193.534576 
L 263.871165 191.943707 
L 257.002844 189.337305 
L 253.985469 188.108435 
L 251.531499 186.881405 
L 249.830895 185.73596 
L 248.818956 184.707148 
L 248.417134 184.008603 
L 248.0826 183.16504 
L 247.822659 182.166902 
L 247.546979 179.733831 
L 247.578763 176.81652 
L 248.013015 171.79525 
L 248.523039 166.264964 
L 248.643481 162.386247 
L 248.566154 160.401438 
L 248.358 158.392289 
L 247.984914 156.367614 
L 247.419869 154.36868 
L 246.680222 152.485042 
L 245.798936 150.713106 
L 244.80813 149.040452 
L 242.601807 145.939694 
L 240.240382 143.090125 
L 233.781598 135.596171 
L 232.328022 133.472897 
L 231.390239 131.631308 
L 230.931242 130.144327 
L 230.861185 129.425206 
L 230.945131 128.511423 
L 231.203632 127.422278 
L 231.63724 126.189035 
L 232.966492 123.406563 
L 234.748568 120.343047 
L 238.794023 113.709562 
L 240.611459 110.13118 
L 241.355438 108.226363 
L 241.920692 106.205175 
L 242.222879 104.043004 
L 242.146585 101.75669 
L 241.618153 99.53275 
L 240.725057 97.578409 
L 239.581183 95.893356 
L 238.272243 94.448161 
L 236.85071 93.194063 
L 235.346248 92.084708 
L 232.160274 90.160308 
L 228.841095 88.471037 
L 220.932389 84.578348 
L 218.3922 83.031479 
L 216.473283 81.529218 
L 215.668655 80.686002 
L 214.099673 78.573413 
L 212.679646 76.20317 
L 211.384672 73.599181 
L 209.617058 69.328209 
L 207.406774 63.149714 
L 205.053413 56.690952 
L 203.752176 53.568 
L 203.752176 53.568 
" style="fill:none;stroke:#ffffff;stroke-linecap:square;"/>
   </g>
   <g id="patch_3">
    <path d="M 57.6 307.584 
L 57.6 41.472 
" style="fill:none;stroke:#000000;stroke-linecap:square;stroke-linejoin:miter;stroke-width:0.8;"/>
   </g>
   <g id="patch_4">
    <path d="M 414.72 307.584 
L 414.72 41.472 
" style="fill:none;stroke:#000000;stroke-linecap:square;stroke-linejoin:miter;stroke-width:0.8;"/>
   </g>
   <g id="patch_5">
    <path d="M 57.6 307.584 
L 414.72 307.584 
" style="fill:none;stroke:#000000;stroke-linecap:square;stroke-linejoin:miter;stroke-width:0.8;"/>
   </g>
   <g id="patch_6">
    <path d="M 57.6 41.472 
L 414.72 41.472 
" style="fill:none;stroke:#000000;stroke-linecap:square;stroke-linejoin:miter;stroke-width:0.8;"/>
   </g>
  </g>
 </g>
 <defs>
  <clipPath id="pdbdf0e1990">
   <rect height="266.112" width="357.12" x="57.6" y="41.472"/>
  </clipPath>
 </defs>
</svg>
