<?xml version="1.0" encoding="utf-8" standalone="no"?>
<!DOCTYPE svg PUBLIC "-//W3C//DTD SVG 1.1//EN"
  "http://www.w3.org/Graphics/SVG/1.1/DTD/svg11.dtd">
<!-- Created with matplotlib (https://matplotlib.org/) -->
<svg height="345.6pt" version="1.1" viewBox="0 0 460.8 345.6" width="460.8pt" xmlns="http://www.w3.org/2000/svg" xmlns:xlink="http://www.w3.org/1999/xlink">
 <metadata>
  <rdf:RDF xmlns:cc="http://creativecommons.org/ns#" xmlns:dc="http://purl.org/dc/elements/1.1/" xmlns:rdf="http://www.w3.org/1999/02/22-rdf-syntax-ns#">
   <cc:Work>
    <dc:type rdf:resource="http://purl.org/dc/dcmitype/StillImage"/>
    <dc:date>2021-06-19T15:02:17.718468</dc:date>
    <dc:format>image/svg+xml</dc:format>
    <dc:creator>
     <cc:Agent>
      <dc:title>Matplotlib v3.3.3, https://matplotlib.org/</dc:title>
     </cc:Agent>
    </dc:creator>
   </cc:Work>
  </rdf:RDF>
 </metadata>
 <defs>
  <style type="text/css">*{stroke-linecap:butt;stroke-linejoin:round;}</style>
 </defs>
 <g id="figure_1">
  <g id="patch_1">
   <path d="M 0 345.6 
L 460.8 345.6 
L 460.8 0 
L 0 0 
z
" style="fill:#ffffff;"/>
  </g>
  <g id="axes_1">
   <g id="patch_2">
    <path d="M 57.6 307.584 
L 414.72 307.584 
L 414.72 41.472 
L 57.6 41.472 
z
" style="fill:#7d9051;"/>
   </g>
   <g id="matplotlib.axis_1">
    <g id="xtick_1">
     <g id="line2d_1">
      <defs>
       <path d="M 0 0 
L 0 3.5 
" id="m25b9f0ee40" style="stroke:#000000;stroke-width:0.8;"/>
      </defs>
      <g>
       <use style="stroke:#000000;stroke-width:0.8;" x="102.620302" xlink:href="#m25b9f0ee40" y="307.584"/>
      </g>
     </g>
     <g id="text_1">
      <!-- −60 -->
      <g transform="translate(92.067958 322.182437)scale(0.1 -0.1)">
       <defs>
        <path d="M 10.59375 35.5 
L 73.1875 35.5 
L 73.1875 27.203125 
L 10.59375 27.203125 
z
" id="DejaVuSans-8722"/>
        <path d="M 33.015625 40.375 
Q 26.375 40.375 22.484375 35.828125 
Q 18.609375 31.296875 18.609375 23.390625 
Q 18.609375 15.53125 22.484375 10.953125 
Q 26.375 6.390625 33.015625 6.390625 
Q 39.65625 6.390625 43.53125 10.953125 
Q 47.40625 15.53125 47.40625 23.390625 
Q 47.40625 31.296875 43.53125 35.828125 
Q 39.65625 40.375 33.015625 40.375 
z
M 52.59375 71.296875 
L 52.59375 62.3125 
Q 48.875 64.0625 45.09375 64.984375 
Q 41.3125 65.921875 37.59375 65.921875 
Q 27.828125 65.921875 22.671875 59.328125 
Q 17.53125 52.734375 16.796875 39.40625 
Q 19.671875 43.65625 24.015625 45.921875 
Q 28.375 48.1875 33.59375 48.1875 
Q 44.578125 48.1875 50.953125 41.515625 
Q 57.328125 34.859375 57.328125 23.390625 
Q 57.328125 12.15625 50.6875 5.359375 
Q 44.046875 -1.421875 33.015625 -1.421875 
Q 20.359375 -1.421875 13.671875 8.265625 
Q 6.984375 17.96875 6.984375 36.375 
Q 6.984375 53.65625 15.1875 63.9375 
Q 23.390625 74.21875 37.203125 74.21875 
Q 40.921875 74.21875 44.703125 73.484375 
Q 48.484375 72.75 52.59375 71.296875 
z
" id="DejaVuSans-54"/>
        <path d="M 31.78125 66.40625 
Q 24.171875 66.40625 20.328125 58.90625 
Q 16.5 51.421875 16.5 36.375 
Q 16.5 21.390625 20.328125 13.890625 
Q 24.171875 6.390625 31.78125 6.390625 
Q 39.453125 6.390625 43.28125 13.890625 
Q 47.125 21.390625 47.125 36.375 
Q 47.125 51.421875 43.28125 58.90625 
Q 39.453125 66.40625 31.78125 66.40625 
z
M 31.78125 74.21875 
Q 44.046875 74.21875 50.515625 64.515625 
Q 56.984375 54.828125 56.984375 36.375 
Q 56.984375 17.96875 50.515625 8.265625 
Q 44.046875 -1.421875 31.78125 -1.421875 
Q 19.53125 -1.421875 13.0625 8.265625 
Q 6.59375 17.96875 6.59375 36.375 
Q 6.59375 54.828125 13.0625 64.515625 
Q 19.53125 74.21875 31.78125 74.21875 
z
" id="DejaVuSans-48"/>
       </defs>
       <use xlink:href="#DejaVuSans-8722"/>
       <use x="83.789062" xlink:href="#DejaVuSans-54"/>
       <use x="147.412109" xlink:href="#DejaVuSans-48"/>
      </g>
     </g>
    </g>
    <g id="xtick_2">
     <g id="line2d_2">
      <g>
       <use style="stroke:#000000;stroke-width:0.8;" x="152.700722" xlink:href="#m25b9f0ee40" y="307.584"/>
      </g>
     </g>
     <g id="text_2">
      <!-- −40 -->
      <g transform="translate(142.148378 322.182437)scale(0.1 -0.1)">
       <defs>
        <path d="M 37.796875 64.3125 
L 12.890625 25.390625 
L 37.796875 25.390625 
z
M 35.203125 72.90625 
L 47.609375 72.90625 
L 47.609375 25.390625 
L 58.015625 25.390625 
L 58.015625 17.1875 
L 47.609375 17.1875 
L 47.609375 0 
L 37.796875 0 
L 37.796875 17.1875 
L 4.890625 17.1875 
L 4.890625 26.703125 
z
" id="DejaVuSans-52"/>
       </defs>
       <use xlink:href="#DejaVuSans-8722"/>
       <use x="83.789062" xlink:href="#DejaVuSans-52"/>
       <use x="147.412109" xlink:href="#DejaVuSans-48"/>
      </g>
     </g>
    </g>
    <g id="xtick_3">
     <g id="line2d_3">
      <g>
       <use style="stroke:#000000;stroke-width:0.8;" x="202.781141" xlink:href="#m25b9f0ee40" y="307.584"/>
      </g>
     </g>
     <g id="text_3">
      <!-- −20 -->
      <g transform="translate(192.228798 322.182437)scale(0.1 -0.1)">
       <defs>
        <path d="M 19.1875 8.296875 
L 53.609375 8.296875 
L 53.609375 0 
L 7.328125 0 
L 7.328125 8.296875 
Q 12.9375 14.109375 22.625 23.890625 
Q 32.328125 33.6875 34.8125 36.53125 
Q 39.546875 41.84375 41.421875 45.53125 
Q 43.3125 49.21875 43.3125 52.78125 
Q 43.3125 58.59375 39.234375 62.25 
Q 35.15625 65.921875 28.609375 65.921875 
Q 23.96875 65.921875 18.8125 64.3125 
Q 13.671875 62.703125 7.8125 59.421875 
L 7.8125 69.390625 
Q 13.765625 71.78125 18.9375 73 
Q 24.125 74.21875 28.421875 74.21875 
Q 39.75 74.21875 46.484375 68.546875 
Q 53.21875 62.890625 53.21875 53.421875 
Q 53.21875 48.921875 51.53125 44.890625 
Q 49.859375 40.875 45.40625 35.40625 
Q 44.1875 33.984375 37.640625 27.21875 
Q 31.109375 20.453125 19.1875 8.296875 
z
" id="DejaVuSans-50"/>
       </defs>
       <use xlink:href="#DejaVuSans-8722"/>
       <use x="83.789062" xlink:href="#DejaVuSans-50"/>
       <use x="147.412109" xlink:href="#DejaVuSans-48"/>
      </g>
     </g>
    </g>
    <g id="xtick_4">
     <g id="line2d_4">
      <g>
       <use style="stroke:#000000;stroke-width:0.8;" x="252.861561" xlink:href="#m25b9f0ee40" y="307.584"/>
      </g>
     </g>
     <g id="text_4">
      <!-- 0 -->
      <g transform="translate(249.680311 322.182437)scale(0.1 -0.1)">
       <use xlink:href="#DejaVuSans-48"/>
      </g>
     </g>
    </g>
    <g id="xtick_5">
     <g id="line2d_5">
      <g>
       <use style="stroke:#000000;stroke-width:0.8;" x="302.941981" xlink:href="#m25b9f0ee40" y="307.584"/>
      </g>
     </g>
     <g id="text_5">
      <!-- 20 -->
      <g transform="translate(296.579481 322.182437)scale(0.1 -0.1)">
       <use xlink:href="#DejaVuSans-50"/>
       <use x="63.623047" xlink:href="#DejaVuSans-48"/>
      </g>
     </g>
    </g>
    <g id="xtick_6">
     <g id="line2d_6">
      <g>
       <use style="stroke:#000000;stroke-width:0.8;" x="353.022401" xlink:href="#m25b9f0ee40" y="307.584"/>
      </g>
     </g>
     <g id="text_6">
      <!-- 40 -->
      <g transform="translate(346.659901 322.182437)scale(0.1 -0.1)">
       <use xlink:href="#DejaVuSans-52"/>
       <use x="63.623047" xlink:href="#DejaVuSans-48"/>
      </g>
     </g>
    </g>
    <g id="xtick_7">
     <g id="line2d_7">
      <g>
       <use style="stroke:#000000;stroke-width:0.8;" x="403.102821" xlink:href="#m25b9f0ee40" y="307.584"/>
      </g>
     </g>
     <g id="text_7">
      <!-- 60 -->
      <g transform="translate(396.740321 322.182437)scale(0.1 -0.1)">
       <use xlink:href="#DejaVuSans-54"/>
       <use x="63.623047" xlink:href="#DejaVuSans-48"/>
      </g>
     </g>
    </g>
   </g>
   <g id="matplotlib.axis_2">
    <g id="ytick_1">
     <g id="line2d_8">
      <defs>
       <path d="M 0 0 
L -3.5 0 
" id="mff4ae1bcfc" style="stroke:#000000;stroke-width:0.8;"/>
      </defs>
      <g>
       <use style="stroke:#000000;stroke-width:0.8;" x="57.6" xlink:href="#mff4ae1bcfc" y="295.391636"/>
      </g>
     </g>
     <g id="text_8">
      <!-- 0 -->
      <g transform="translate(44.2375 299.190855)scale(0.1 -0.1)">
       <use xlink:href="#DejaVuSans-48"/>
      </g>
     </g>
    </g>
    <g id="ytick_2">
     <g id="line2d_9">
      <g>
       <use style="stroke:#000000;stroke-width:0.8;" x="57.6" xlink:href="#mff4ae1bcfc" y="245.311216"/>
      </g>
     </g>
     <g id="text_9">
      <!-- 20 -->
      <g transform="translate(37.875 249.110435)scale(0.1 -0.1)">
       <use xlink:href="#DejaVuSans-50"/>
       <use x="63.623047" xlink:href="#DejaVuSans-48"/>
      </g>
     </g>
    </g>
    <g id="ytick_3">
     <g id="line2d_10">
      <g>
       <use style="stroke:#000000;stroke-width:0.8;" x="57.6" xlink:href="#mff4ae1bcfc" y="195.230796"/>
      </g>
     </g>
     <g id="text_10">
      <!-- 40 -->
      <g transform="translate(37.875 199.030015)scale(0.1 -0.1)">
       <use xlink:href="#DejaVuSans-52"/>
       <use x="63.623047" xlink:href="#DejaVuSans-48"/>
      </g>
     </g>
    </g>
    <g id="ytick_4">
     <g id="line2d_11">
      <g>
       <use style="stroke:#000000;stroke-width:0.8;" x="57.6" xlink:href="#mff4ae1bcfc" y="145.150376"/>
      </g>
     </g>
     <g id="text_11">
      <!-- 60 -->
      <g transform="translate(37.875 148.949595)scale(0.1 -0.1)">
       <use xlink:href="#DejaVuSans-54"/>
       <use x="63.623047" xlink:href="#DejaVuSans-48"/>
      </g>
     </g>
    </g>
    <g id="ytick_5">
     <g id="line2d_12">
      <g>
       <use style="stroke:#000000;stroke-width:0.8;" x="57.6" xlink:href="#mff4ae1bcfc" y="95.069956"/>
      </g>
     </g>
     <g id="text_12">
      <!-- 80 -->
      <g transform="translate(37.875 98.869175)scale(0.1 -0.1)">
       <defs>
        <path d="M 31.78125 34.625 
Q 24.75 34.625 20.71875 30.859375 
Q 16.703125 27.09375 16.703125 20.515625 
Q 16.703125 13.921875 20.71875 10.15625 
Q 24.75 6.390625 31.78125 6.390625 
Q 38.8125 6.390625 42.859375 10.171875 
Q 46.921875 13.96875 46.921875 20.515625 
Q 46.921875 27.09375 42.890625 30.859375 
Q 38.875 34.625 31.78125 34.625 
z
M 21.921875 38.8125 
Q 15.578125 40.375 12.03125 44.71875 
Q 8.5 49.078125 8.5 55.328125 
Q 8.5 64.0625 14.71875 69.140625 
Q 20.953125 74.21875 31.78125 74.21875 
Q 42.671875 74.21875 48.875 69.140625 
Q 55.078125 64.0625 55.078125 55.328125 
Q 55.078125 49.078125 51.53125 44.71875 
Q 48 40.375 41.703125 38.8125 
Q 48.828125 37.15625 52.796875 32.3125 
Q 56.78125 27.484375 56.78125 20.515625 
Q 56.78125 9.90625 50.3125 4.234375 
Q 43.84375 -1.421875 31.78125 -1.421875 
Q 19.734375 -1.421875 13.25 4.234375 
Q 6.78125 9.90625 6.78125 20.515625 
Q 6.78125 27.484375 10.78125 32.3125 
Q 14.796875 37.15625 21.921875 38.8125 
z
M 18.3125 54.390625 
Q 18.3125 48.734375 21.84375 45.5625 
Q 25.390625 42.390625 31.78125 42.390625 
Q 38.140625 42.390625 41.71875 45.5625 
Q 45.3125 48.734375 45.3125 54.390625 
Q 45.3125 60.0625 41.71875 63.234375 
Q 38.140625 66.40625 31.78125 66.40625 
Q 25.390625 66.40625 21.84375 63.234375 
Q 18.3125 60.0625 18.3125 54.390625 
z
" id="DejaVuSans-56"/>
       </defs>
       <use xlink:href="#DejaVuSans-56"/>
       <use x="63.623047" xlink:href="#DejaVuSans-48"/>
      </g>
     </g>
    </g>
    <g id="ytick_6">
     <g id="line2d_13">
      <g>
       <use style="stroke:#000000;stroke-width:0.8;" x="57.6" xlink:href="#mff4ae1bcfc" y="44.989537"/>
      </g>
     </g>
     <g id="text_13">
      <!-- 100 -->
      <g transform="translate(31.5125 48.788755)scale(0.1 -0.1)">
       <defs>
        <path d="M 12.40625 8.296875 
L 28.515625 8.296875 
L 28.515625 63.921875 
L 10.984375 60.40625 
L 10.984375 69.390625 
L 28.421875 72.90625 
L 38.28125 72.90625 
L 38.28125 8.296875 
L 54.390625 8.296875 
L 54.390625 0 
L 12.40625 0 
z
" id="DejaVuSans-49"/>
       </defs>
       <use xlink:href="#DejaVuSans-49"/>
       <use x="63.623047" xlink:href="#DejaVuSans-48"/>
       <use x="127.246094" xlink:href="#DejaVuSans-48"/>
      </g>
     </g>
    </g>
   </g>
   <g id="line2d_14">
    <path clip-path="url(#pc62a026ddd)" d="M 252.861561 295.391636 
L 253.183793 272.331097 
L 253.932394 229.439928 
L 253.49301 222.386216 
L 252.701633 215.037148 
L 250.907685 200.161797 
L 250.327504 192.989943 
L 250.209009 189.548002 
L 250.240112 186.231588 
L 250.44721 183.062852 
L 250.856703 180.063946 
L 251.494992 177.257021 
L 252.388475 174.66423 
L 253.563551 172.307724 
L 255.046621 170.209655 
L 256.921651 168.45001 
L 259.222663 167.064749 
L 261.901133 166.009979 
L 264.90854 165.24181 
L 268.196361 164.716348 
L 271.716075 164.389703 
L 275.419159 164.217982 
L 283.18135 164.16375 
L 294.98686 164.147046 
L 298.771201 163.98315 
L 302.399258 163.666937 
L 305.822508 163.154515 
L 308.992429 162.401994 
L 311.860499 161.365481 
L 314.378196 160.001084 
L 316.496998 158.264912 
L 318.350544 156.151828 
L 320.100285 153.709859 
L 321.739414 150.974853 
L 323.261122 147.982661 
L 324.658603 144.769133 
L 325.92505 141.370118 
L 327.053656 137.821467 
L 328.037613 134.15903 
L 328.870114 130.418657 
L 329.544352 126.636197 
L 330.05352 122.847501 
L 330.39081 119.088419 
L 330.549415 115.394801 
L 330.522528 111.802496 
L 330.303343 108.347355 
L 329.885051 105.065228 
L 329.260845 101.991965 
L 328.423919 99.163415 
L 327.367465 96.61543 
L 326.030179 94.266691 
L 324.372447 92.011466 
L 322.42 89.848975 
L 320.198566 87.778441 
L 317.733875 85.799087 
L 315.051655 83.910133 
L 312.177636 82.110802 
L 309.137547 80.400316 
L 305.957117 78.777898 
L 302.662075 77.242769 
L 295.831073 74.431266 
L 288.850374 71.959586 
L 281.925811 69.821504 
L 275.263217 68.010796 
L 268.956533 66.51583 
L 262.48917 65.308254 
L 255.824587 64.402855 
L 249.032465 63.820973 
L 242.182483 63.583953 
L 235.344323 63.713139 
L 228.587663 64.229872 
L 221.982185 65.155497 
L 218.757914 65.778313 
L 215.597568 66.511356 
L 212.509857 67.357293 
L 209.503492 68.318793 
L 203.331168 70.648647 
L 196.814308 73.516659 
L 190.176344 76.861526 
L 183.64071 80.621944 
L 180.481089 82.638828 
L 177.430837 84.73661 
L 174.517884 86.907629 
L 171.770158 89.144221 
L 169.215589 91.438723 
L 166.882105 93.783473 
L 164.797636 96.170807 
L 162.990111 98.593063 
L 161.487459 101.042577 
L 160.317609 103.511687 
L 159.50849 105.992729 
L 159.192886 108.550242 
L 159.440975 111.243502 
L 160.186772 114.056958 
L 161.364292 116.975057 
L 162.907551 119.982246 
L 164.750565 123.062973 
L 166.827351 126.201686 
L 171.418296 132.59086 
L 178.408388 142.220706 
L 180.502127 145.380734 
L 182.367748 148.489881 
L 183.939265 151.532595 
L 185.150695 154.493324 
L 185.936052 157.356514 
L 186.229354 160.106615 
L 185.964615 162.728073 
L 185.19816 165.235531 
L 184.052003 167.658811 
L 182.558689 170.005128 
L 180.750764 172.281697 
L 178.660774 174.495735 
L 176.321266 176.654455 
L 173.764784 178.765074 
L 171.023874 180.834806 
L 165.118959 184.880471 
L 155.692031 190.822702 
L 149.407413 194.78419 
L 143.426557 198.81302 
L 140.631404 200.870726 
L 138.00983 202.966914 
L 138.00983 202.966914 
" style="fill:none;stroke:#fea952;stroke-linecap:square;"/>
   </g>
   <g id="line2d_15">
    <path clip-path="url(#pc62a026ddd)" d="M 242.845941 295.295272 
L 243.169408 272.146609 
L 243.927219 229.907258 
L 243.526639 223.382907 
L 242.761409 216.267544 
L 240.934947 201.092621 
L 240.31735 193.334559 
L 240.193366 189.454073 
L 240.245351 185.578363 
L 240.523216 181.707753 
L 241.089955 177.843008 
L 242.025401 173.993774 
L 243.424989 170.194569 
L 245.384554 166.526207 
L 248.192471 162.906055 
L 251.755661 159.868957 
L 255.552683 157.745244 
L 259.422348 156.305467 
L 263.327824 155.351245 
L 267.270801 154.74312 
L 271.252106 154.384371 
L 275.2608 154.20315 
L 283.25644 154.147947 
L 294.55348 154.140342 
L 297.90152 154.004894 
L 300.916485 153.761215 
L 303.509041 153.40927 
L 305.588135 152.982189 
L 308.029925 152.253736 
L 308.967253 151.659998 
L 310.208767 150.318013 
L 311.508966 148.560958 
L 312.811532 146.434492 
L 314.07598 143.988277 
L 315.272843 141.27207 
L 316.380069 138.334452 
L 317.380587 135.222683 
L 318.260765 131.982981 
L 319.009463 128.660958 
L 319.617511 125.302116 
L 320.077513 121.952387 
L 320.383947 118.658721 
L 320.533612 115.469764 
L 320.526538 112.436617 
L 320.367623 109.613617 
L 320.069384 107.058872 
L 319.656368 104.833789 
L 319.171605 102.99964 
L 318.663337 101.571244 
L 317.959818 100.198909 
L 316.938168 98.723651 
L 315.590789 97.175898 
L 313.926893 95.587926 
L 311.966692 93.988197 
L 309.736624 92.399678 
L 307.266189 90.840041 
L 304.58609 89.322546 
L 301.727247 87.857002 
L 295.595447 85.108636 
L 289.11011 82.632117 
L 282.502875 80.446723 
L 275.999418 78.561796 
L 269.882809 76.995114 
L 264.03591 75.743606 
L 257.950832 74.757174 
L 251.709688 74.059555 
L 245.393978 73.671768 
L 239.085182 73.612161 
L 232.865161 73.896049 
L 226.816281 74.534941 
L 221.021064 75.535366 
L 215.56097 76.897348 
L 212.905325 77.739487 
L 207.244278 79.868707 
L 201.201682 82.520707 
L 195.044195 85.615152 
L 189.029916 89.064598 
L 186.156838 90.891573 
L 183.416293 92.767566 
L 180.840872 94.675625 
L 178.463132 96.5958 
L 176.315065 98.504088 
L 174.42694 100.371144 
L 172.825062 102.160997 
L 171.52776 103.830475 
L 170.538988 105.33114 
L 169.166745 107.631504 
L 169.122674 108.677058 
L 169.475145 110.308885 
L 170.275441 112.401944 
L 171.502939 114.840141 
L 173.103673 117.535991 
L 175.011313 120.427199 
L 179.469802 126.633076 
L 184.334935 133.24868 
L 186.758027 136.688485 
L 189.090687 140.227232 
L 191.266955 143.893571 
L 193.209377 147.73958 
L 194.809997 151.84383 
L 195.895654 156.294312 
L 196.194749 161.113013 
L 195.543206 165.655959 
L 194.252548 169.518053 
L 192.501856 173.036721 
L 190.402291 176.23408 
L 188.034306 179.157159 
L 185.453081 181.856884 
L 182.698064 184.378338 
L 179.800625 186.75823 
L 176.78881 189.025499 
L 170.531777 193.308005 
L 160.997512 199.318219 
L 152.052028 205.029998 
L 146.886453 208.693533 
L 144.264879 210.789721 
L 144.264879 210.789721 
" style="fill:none;stroke:#ffffff;stroke-linecap:square;"/>
   </g>
   <g id="line2d_16">
    <path clip-path="url(#pc62a026ddd)" d="M 262.877182 295.488 
L 263.198178 272.515584 
L 263.93757 228.972598 
L 263.756075 225.187586 
L 263.078335 217.590712 
L 260.562086 195.854022 
L 260.224653 189.641931 
L 260.234872 186.884813 
L 260.371203 184.41795 
L 260.623452 182.284883 
L 260.964583 180.520268 
L 261.900771 177.513255 
L 262.087641 177.031064 
L 262.892643 176.384255 
L 264.379918 175.714492 
L 266.489256 175.132374 
L 269.121921 174.689576 
L 272.180045 174.395035 
L 275.577518 174.232815 
L 283.10626 174.179552 
L 291.237493 174.217584 
L 295.420241 174.15375 
L 299.640883 173.961406 
L 303.882031 173.572659 
L 308.135975 172.899761 
L 312.396723 171.821799 
L 316.632733 170.171599 
L 320.726467 167.748431 
L 324.026743 164.869825 
L 326.492321 161.985644 
L 328.691604 158.85876 
L 330.667295 155.515214 
L 332.446264 151.977045 
L 334.044363 148.266196 
L 335.470032 144.405784 
L 336.726725 140.420251 
L 337.814461 136.335079 
L 338.730765 132.176356 
L 339.471193 127.970278 
L 340.029526 123.742616 
L 340.397672 119.518118 
L 340.565218 115.319838 
L 340.518519 111.168375 
L 340.239062 107.081094 
L 339.700718 103.071584 
L 338.865322 99.150141 
L 337.676233 95.327191 
L 336.071593 91.659615 
L 334.10054 88.334473 
L 331.806727 85.299281 
L 329.249212 82.522052 
L 326.47024 79.968957 
L 323.501058 77.609976 
L 320.366686 75.420587 
L 317.089084 73.381563 
L 313.689004 71.478087 
L 310.186987 69.698793 
L 306.603844 68.034924 
L 299.279819 65.027645 
L 291.893236 62.416896 
L 284.62738 60.176637 
L 277.670374 58.288269 
L 270.918758 56.693834 
L 263.96035 55.400805 
L 256.804506 54.434821 
L 249.508863 53.816225 
L 242.131355 53.568 
L 234.729708 53.71593 
L 227.361161 54.289166 
L 223.707062 54.745537 
L 220.082544 55.321205 
L 216.494763 56.02126 
L 212.950998 56.851252 
L 209.458744 57.817239 
L 206.101658 58.8981 
L 199.418057 61.428587 
L 192.426933 64.512611 
L 185.308494 68.1079 
L 181.760435 70.085844 
L 178.251504 72.179291 
L 174.805339 74.386082 
L 171.44538 76.705655 
L 168.194895 79.139633 
L 165.077183 81.692642 
L 162.116112 84.373359 
L 159.337271 87.195802 
L 156.770211 90.180617 
L 154.452462 93.35565 
L 152.435931 96.754014 
L 150.795114 100.406204 
L 149.567809 104.766025 
L 149.219028 109.468981 
L 149.759276 113.809947 
L 150.898398 117.805031 
L 152.453143 121.548169 
L 154.312163 125.124351 
L 156.397458 128.589955 
L 158.643388 131.976173 
L 163.36679 138.548645 
L 170.058748 147.752926 
L 171.913568 150.534235 
L 173.468542 153.086191 
L 174.669153 155.32561 
L 176.263959 159.100217 
L 176.386023 159.800186 
L 176.143773 160.953008 
L 175.60215 162.2809 
L 174.715087 163.776176 
L 173.467223 165.406236 
L 171.868468 167.134586 
L 169.944467 168.930572 
L 167.728942 170.771917 
L 165.258939 172.644112 
L 159.706141 176.452937 
L 150.38655 182.327185 
L 143.903719 186.415719 
L 137.488541 190.746924 
L 134.376355 193.04792 
L 131.754782 195.144108 
L 131.754782 195.144108 
" style="fill:none;stroke:#ffffff;stroke-linecap:square;"/>
   </g>
   <g id="patch_3">
    <path d="M 57.6 307.584 
L 57.6 41.472 
" style="fill:none;stroke:#000000;stroke-linecap:square;stroke-linejoin:miter;stroke-width:0.8;"/>
   </g>
   <g id="patch_4">
    <path d="M 414.72 307.584 
L 414.72 41.472 
" style="fill:none;stroke:#000000;stroke-linecap:square;stroke-linejoin:miter;stroke-width:0.8;"/>
   </g>
   <g id="patch_5">
    <path d="M 57.6 307.584 
L 414.72 307.584 
" style="fill:none;stroke:#000000;stroke-linecap:square;stroke-linejoin:miter;stroke-width:0.8;"/>
   </g>
   <g id="patch_6">
    <path d="M 57.6 41.472 
L 414.72 41.472 
" style="fill:none;stroke:#000000;stroke-linecap:square;stroke-linejoin:miter;stroke-width:0.8;"/>
   </g>
  </g>
 </g>
 <defs>
  <clipPath id="pc62a026ddd">
   <rect height="266.112" width="357.12" x="57.6" y="41.472"/>
  </clipPath>
 </defs>
</svg>
