<?xml version="1.0" encoding="utf-8" standalone="no"?>
<!DOCTYPE svg PUBLIC "-//W3C//DTD SVG 1.1//EN"
  "http://www.w3.org/Graphics/SVG/1.1/DTD/svg11.dtd">
<!-- Created with matplotlib (https://matplotlib.org/) -->
<svg height="345.6pt" version="1.1" viewBox="0 0 460.8 345.6" width="460.8pt" xmlns="http://www.w3.org/2000/svg" xmlns:xlink="http://www.w3.org/1999/xlink">
 <metadata>
  <rdf:RDF xmlns:cc="http://creativecommons.org/ns#" xmlns:dc="http://purl.org/dc/elements/1.1/" xmlns:rdf="http://www.w3.org/1999/02/22-rdf-syntax-ns#">
   <cc:Work>
    <dc:type rdf:resource="http://purl.org/dc/dcmitype/StillImage"/>
    <dc:date>2021-06-27T12:41:45.326283</dc:date>
    <dc:format>image/svg+xml</dc:format>
    <dc:creator>
     <cc:Agent>
      <dc:title>Matplotlib v3.3.3, https://matplotlib.org/</dc:title>
     </cc:Agent>
    </dc:creator>
   </cc:Work>
  </rdf:RDF>
 </metadata>
 <defs>
  <style type="text/css">*{stroke-linecap:butt;stroke-linejoin:round;}</style>
 </defs>
 <g id="figure_1">
  <g id="patch_1">
   <path d="M 0 345.6 
L 460.8 345.6 
L 460.8 0 
L 0 0 
z
" style="fill:#ffffff;"/>
  </g>
  <g id="axes_1">
   <g id="patch_2">
    <path d="M 57.6 307.584 
L 414.72 307.584 
L 414.72 41.472 
L 57.6 41.472 
z
" style="fill:#7d9051;"/>
   </g>
   <g id="matplotlib.axis_1">
    <g id="xtick_1">
     <g id="line2d_1">
      <defs>
       <path d="M 0 0 
L 0 3.5 
" id="m1562d085a4" style="stroke:#000000;stroke-width:0.8;"/>
      </defs>
      <g>
       <use style="stroke:#000000;stroke-width:0.8;" x="108.184034" xlink:href="#m1562d085a4" y="307.584"/>
      </g>
     </g>
     <g id="text_1">
      <!-- −50 -->
      <g transform="translate(97.63169 322.182437)scale(0.1 -0.1)">
       <defs>
        <path d="M 10.59375 35.5 
L 73.1875 35.5 
L 73.1875 27.203125 
L 10.59375 27.203125 
z
" id="DejaVuSans-8722"/>
        <path d="M 10.796875 72.90625 
L 49.515625 72.90625 
L 49.515625 64.59375 
L 19.828125 64.59375 
L 19.828125 46.734375 
Q 21.96875 47.46875 24.109375 47.828125 
Q 26.265625 48.1875 28.421875 48.1875 
Q 40.625 48.1875 47.75 41.5 
Q 54.890625 34.8125 54.890625 23.390625 
Q 54.890625 11.625 47.5625 5.09375 
Q 40.234375 -1.421875 26.90625 -1.421875 
Q 22.3125 -1.421875 17.546875 -0.640625 
Q 12.796875 0.140625 7.71875 1.703125 
L 7.71875 11.625 
Q 12.109375 9.234375 16.796875 8.0625 
Q 21.484375 6.890625 26.703125 6.890625 
Q 35.15625 6.890625 40.078125 11.328125 
Q 45.015625 15.765625 45.015625 23.390625 
Q 45.015625 31 40.078125 35.4375 
Q 35.15625 39.890625 26.703125 39.890625 
Q 22.75 39.890625 18.8125 39.015625 
Q 14.890625 38.140625 10.796875 36.28125 
z
" id="DejaVuSans-53"/>
        <path d="M 31.78125 66.40625 
Q 24.171875 66.40625 20.328125 58.90625 
Q 16.5 51.421875 16.5 36.375 
Q 16.5 21.390625 20.328125 13.890625 
Q 24.171875 6.390625 31.78125 6.390625 
Q 39.453125 6.390625 43.28125 13.890625 
Q 47.125 21.390625 47.125 36.375 
Q 47.125 51.421875 43.28125 58.90625 
Q 39.453125 66.40625 31.78125 66.40625 
z
M 31.78125 74.21875 
Q 44.046875 74.21875 50.515625 64.515625 
Q 56.984375 54.828125 56.984375 36.375 
Q 56.984375 17.96875 50.515625 8.265625 
Q 44.046875 -1.421875 31.78125 -1.421875 
Q 19.53125 -1.421875 13.0625 8.265625 
Q 6.59375 17.96875 6.59375 36.375 
Q 6.59375 54.828125 13.0625 64.515625 
Q 19.53125 74.21875 31.78125 74.21875 
z
" id="DejaVuSans-48"/>
       </defs>
       <use xlink:href="#DejaVuSans-8722"/>
       <use x="83.789062" xlink:href="#DejaVuSans-53"/>
       <use x="147.412109" xlink:href="#DejaVuSans-48"/>
      </g>
     </g>
    </g>
    <g id="xtick_2">
     <g id="line2d_2">
      <g>
       <use style="stroke:#000000;stroke-width:0.8;" x="186.903906" xlink:href="#m1562d085a4" y="307.584"/>
      </g>
     </g>
     <g id="text_2">
      <!-- 0 -->
      <g transform="translate(183.722656 322.182437)scale(0.1 -0.1)">
       <use xlink:href="#DejaVuSans-48"/>
      </g>
     </g>
    </g>
    <g id="xtick_3">
     <g id="line2d_3">
      <g>
       <use style="stroke:#000000;stroke-width:0.8;" x="265.623779" xlink:href="#m1562d085a4" y="307.584"/>
      </g>
     </g>
     <g id="text_3">
      <!-- 50 -->
      <g transform="translate(259.261279 322.182437)scale(0.1 -0.1)">
       <use xlink:href="#DejaVuSans-53"/>
       <use x="63.623047" xlink:href="#DejaVuSans-48"/>
      </g>
     </g>
    </g>
    <g id="xtick_4">
     <g id="line2d_4">
      <g>
       <use style="stroke:#000000;stroke-width:0.8;" x="344.343651" xlink:href="#m1562d085a4" y="307.584"/>
      </g>
     </g>
     <g id="text_4">
      <!-- 100 -->
      <g transform="translate(334.799901 322.182437)scale(0.1 -0.1)">
       <defs>
        <path d="M 12.40625 8.296875 
L 28.515625 8.296875 
L 28.515625 63.921875 
L 10.984375 60.40625 
L 10.984375 69.390625 
L 28.421875 72.90625 
L 38.28125 72.90625 
L 38.28125 8.296875 
L 54.390625 8.296875 
L 54.390625 0 
L 12.40625 0 
z
" id="DejaVuSans-49"/>
       </defs>
       <use xlink:href="#DejaVuSans-49"/>
       <use x="63.623047" xlink:href="#DejaVuSans-48"/>
       <use x="127.246094" xlink:href="#DejaVuSans-48"/>
      </g>
     </g>
    </g>
   </g>
   <g id="matplotlib.axis_2">
    <g id="ytick_1">
     <g id="line2d_5">
      <defs>
       <path d="M 0 0 
L -3.5 0 
" id="m4f7f64c2fa" style="stroke:#000000;stroke-width:0.8;"/>
      </defs>
      <g>
       <use style="stroke:#000000;stroke-width:0.8;" x="57.6" xlink:href="#m4f7f64c2fa" y="295.427411"/>
      </g>
     </g>
     <g id="text_5">
      <!-- 0 -->
      <g transform="translate(44.2375 299.22663)scale(0.1 -0.1)">
       <use xlink:href="#DejaVuSans-48"/>
      </g>
     </g>
    </g>
    <g id="ytick_2">
     <g id="line2d_6">
      <g>
       <use style="stroke:#000000;stroke-width:0.8;" x="57.6" xlink:href="#m4f7f64c2fa" y="263.939462"/>
      </g>
     </g>
     <g id="text_6">
      <!-- 20 -->
      <g transform="translate(37.875 267.738681)scale(0.1 -0.1)">
       <defs>
        <path d="M 19.1875 8.296875 
L 53.609375 8.296875 
L 53.609375 0 
L 7.328125 0 
L 7.328125 8.296875 
Q 12.9375 14.109375 22.625 23.890625 
Q 32.328125 33.6875 34.8125 36.53125 
Q 39.546875 41.84375 41.421875 45.53125 
Q 43.3125 49.21875 43.3125 52.78125 
Q 43.3125 58.59375 39.234375 62.25 
Q 35.15625 65.921875 28.609375 65.921875 
Q 23.96875 65.921875 18.8125 64.3125 
Q 13.671875 62.703125 7.8125 59.421875 
L 7.8125 69.390625 
Q 13.765625 71.78125 18.9375 73 
Q 24.125 74.21875 28.421875 74.21875 
Q 39.75 74.21875 46.484375 68.546875 
Q 53.21875 62.890625 53.21875 53.421875 
Q 53.21875 48.921875 51.53125 44.890625 
Q 49.859375 40.875 45.40625 35.40625 
Q 44.1875 33.984375 37.640625 27.21875 
Q 31.109375 20.453125 19.1875 8.296875 
z
" id="DejaVuSans-50"/>
       </defs>
       <use xlink:href="#DejaVuSans-50"/>
       <use x="63.623047" xlink:href="#DejaVuSans-48"/>
      </g>
     </g>
    </g>
    <g id="ytick_3">
     <g id="line2d_7">
      <g>
       <use style="stroke:#000000;stroke-width:0.8;" x="57.6" xlink:href="#m4f7f64c2fa" y="232.451514"/>
      </g>
     </g>
     <g id="text_7">
      <!-- 40 -->
      <g transform="translate(37.875 236.250732)scale(0.1 -0.1)">
       <defs>
        <path d="M 37.796875 64.3125 
L 12.890625 25.390625 
L 37.796875 25.390625 
z
M 35.203125 72.90625 
L 47.609375 72.90625 
L 47.609375 25.390625 
L 58.015625 25.390625 
L 58.015625 17.1875 
L 47.609375 17.1875 
L 47.609375 0 
L 37.796875 0 
L 37.796875 17.1875 
L 4.890625 17.1875 
L 4.890625 26.703125 
z
" id="DejaVuSans-52"/>
       </defs>
       <use xlink:href="#DejaVuSans-52"/>
       <use x="63.623047" xlink:href="#DejaVuSans-48"/>
      </g>
     </g>
    </g>
    <g id="ytick_4">
     <g id="line2d_8">
      <g>
       <use style="stroke:#000000;stroke-width:0.8;" x="57.6" xlink:href="#m4f7f64c2fa" y="200.963565"/>
      </g>
     </g>
     <g id="text_8">
      <!-- 60 -->
      <g transform="translate(37.875 204.762783)scale(0.1 -0.1)">
       <defs>
        <path d="M 33.015625 40.375 
Q 26.375 40.375 22.484375 35.828125 
Q 18.609375 31.296875 18.609375 23.390625 
Q 18.609375 15.53125 22.484375 10.953125 
Q 26.375 6.390625 33.015625 6.390625 
Q 39.65625 6.390625 43.53125 10.953125 
Q 47.40625 15.53125 47.40625 23.390625 
Q 47.40625 31.296875 43.53125 35.828125 
Q 39.65625 40.375 33.015625 40.375 
z
M 52.59375 71.296875 
L 52.59375 62.3125 
Q 48.875 64.0625 45.09375 64.984375 
Q 41.3125 65.921875 37.59375 65.921875 
Q 27.828125 65.921875 22.671875 59.328125 
Q 17.53125 52.734375 16.796875 39.40625 
Q 19.671875 43.65625 24.015625 45.921875 
Q 28.375 48.1875 33.59375 48.1875 
Q 44.578125 48.1875 50.953125 41.515625 
Q 57.328125 34.859375 57.328125 23.390625 
Q 57.328125 12.15625 50.6875 5.359375 
Q 44.046875 -1.421875 33.015625 -1.421875 
Q 20.359375 -1.421875 13.671875 8.265625 
Q 6.984375 17.96875 6.984375 36.375 
Q 6.984375 53.65625 15.1875 63.9375 
Q 23.390625 74.21875 37.203125 74.21875 
Q 40.921875 74.21875 44.703125 73.484375 
Q 48.484375 72.75 52.59375 71.296875 
z
" id="DejaVuSans-54"/>
       </defs>
       <use xlink:href="#DejaVuSans-54"/>
       <use x="63.623047" xlink:href="#DejaVuSans-48"/>
      </g>
     </g>
    </g>
    <g id="ytick_5">
     <g id="line2d_9">
      <g>
       <use style="stroke:#000000;stroke-width:0.8;" x="57.6" xlink:href="#m4f7f64c2fa" y="169.475616"/>
      </g>
     </g>
     <g id="text_9">
      <!-- 80 -->
      <g transform="translate(37.875 173.274835)scale(0.1 -0.1)">
       <defs>
        <path d="M 31.78125 34.625 
Q 24.75 34.625 20.71875 30.859375 
Q 16.703125 27.09375 16.703125 20.515625 
Q 16.703125 13.921875 20.71875 10.15625 
Q 24.75 6.390625 31.78125 6.390625 
Q 38.8125 6.390625 42.859375 10.171875 
Q 46.921875 13.96875 46.921875 20.515625 
Q 46.921875 27.09375 42.890625 30.859375 
Q 38.875 34.625 31.78125 34.625 
z
M 21.921875 38.8125 
Q 15.578125 40.375 12.03125 44.71875 
Q 8.5 49.078125 8.5 55.328125 
Q 8.5 64.0625 14.71875 69.140625 
Q 20.953125 74.21875 31.78125 74.21875 
Q 42.671875 74.21875 48.875 69.140625 
Q 55.078125 64.0625 55.078125 55.328125 
Q 55.078125 49.078125 51.53125 44.71875 
Q 48 40.375 41.703125 38.8125 
Q 48.828125 37.15625 52.796875 32.3125 
Q 56.78125 27.484375 56.78125 20.515625 
Q 56.78125 9.90625 50.3125 4.234375 
Q 43.84375 -1.421875 31.78125 -1.421875 
Q 19.734375 -1.421875 13.25 4.234375 
Q 6.78125 9.90625 6.78125 20.515625 
Q 6.78125 27.484375 10.78125 32.3125 
Q 14.796875 37.15625 21.921875 38.8125 
z
M 18.3125 54.390625 
Q 18.3125 48.734375 21.84375 45.5625 
Q 25.390625 42.390625 31.78125 42.390625 
Q 38.140625 42.390625 41.71875 45.5625 
Q 45.3125 48.734375 45.3125 54.390625 
Q 45.3125 60.0625 41.71875 63.234375 
Q 38.140625 66.40625 31.78125 66.40625 
Q 25.390625 66.40625 21.84375 63.234375 
Q 18.3125 60.0625 18.3125 54.390625 
z
" id="DejaVuSans-56"/>
       </defs>
       <use xlink:href="#DejaVuSans-56"/>
       <use x="63.623047" xlink:href="#DejaVuSans-48"/>
      </g>
     </g>
    </g>
    <g id="ytick_6">
     <g id="line2d_10">
      <g>
       <use style="stroke:#000000;stroke-width:0.8;" x="57.6" xlink:href="#m4f7f64c2fa" y="137.987667"/>
      </g>
     </g>
     <g id="text_10">
      <!-- 100 -->
      <g transform="translate(31.5125 141.786886)scale(0.1 -0.1)">
       <use xlink:href="#DejaVuSans-49"/>
       <use x="63.623047" xlink:href="#DejaVuSans-48"/>
       <use x="127.246094" xlink:href="#DejaVuSans-48"/>
      </g>
     </g>
    </g>
    <g id="ytick_7">
     <g id="line2d_11">
      <g>
       <use style="stroke:#000000;stroke-width:0.8;" x="57.6" xlink:href="#m4f7f64c2fa" y="106.499718"/>
      </g>
     </g>
     <g id="text_11">
      <!-- 120 -->
      <g transform="translate(31.5125 110.298937)scale(0.1 -0.1)">
       <use xlink:href="#DejaVuSans-49"/>
       <use x="63.623047" xlink:href="#DejaVuSans-50"/>
       <use x="127.246094" xlink:href="#DejaVuSans-48"/>
      </g>
     </g>
    </g>
    <g id="ytick_8">
     <g id="line2d_12">
      <g>
       <use style="stroke:#000000;stroke-width:0.8;" x="57.6" xlink:href="#m4f7f64c2fa" y="75.011769"/>
      </g>
     </g>
     <g id="text_12">
      <!-- 140 -->
      <g transform="translate(31.5125 78.810988)scale(0.1 -0.1)">
       <use xlink:href="#DejaVuSans-49"/>
       <use x="63.623047" xlink:href="#DejaVuSans-52"/>
       <use x="127.246094" xlink:href="#DejaVuSans-48"/>
      </g>
     </g>
    </g>
    <g id="ytick_9">
     <g id="line2d_13">
      <g>
       <use style="stroke:#000000;stroke-width:0.8;" x="57.6" xlink:href="#m4f7f64c2fa" y="43.52382"/>
      </g>
     </g>
     <g id="text_13">
      <!-- 160 -->
      <g transform="translate(31.5125 47.323039)scale(0.1 -0.1)">
       <use xlink:href="#DejaVuSans-49"/>
       <use x="63.623047" xlink:href="#DejaVuSans-54"/>
       <use x="127.246094" xlink:href="#DejaVuSans-48"/>
      </g>
     </g>
    </g>
   </g>
   <g id="line2d_14">
    <path clip-path="url(#p98d20f8edd)" d="M 186.903906 295.427411 
L 187.184225 276.785677 
L 187.749001 251.912699 
L 188.213532 245.623234 
L 189.210779 233.029811 
L 189.34117 228.874945 
L 189.269535 224.763021 
L 188.935266 220.706921 
L 188.277758 216.719529 
L 187.780579 214.75914 
L 187.140267 212.824747 
L 185.501611 209.022096 
L 183.504516 205.287884 
L 180.149016 199.763054 
L 176.789868 194.258932 
L 174.786287 190.561531 
L 173.137901 186.814099 
L 172.491509 184.914217 
L 171.987438 182.992942 
L 171.64353 181.047312 
L 171.270046 177.043108 
L 171.175348 172.898379 
L 171.350787 168.662181 
L 171.787711 164.383572 
L 172.477472 160.111608 
L 173.411418 155.895346 
L 174.580901 151.783843 
L 175.977269 147.826156 
L 177.591874 144.071341 
L 179.443602 140.558341 
L 181.668341 137.246797 
L 184.232105 134.102252 
L 187.07107 131.097173 
L 190.121413 128.204028 
L 194.953649 124.013959 
L 206.309989 114.453664 
L 209.415834 111.469096 
L 214.173782 106.439033 
L 220.644177 99.56317 
L 223.90843 96.422852 
L 227.177155 93.700256 
L 228.809702 92.547006 
L 230.439175 91.559868 
L 232.064179 90.759403 
L 233.683317 90.166172 
L 235.295191 89.800736 
L 236.898404 89.683654 
L 238.491892 89.893977 
L 240.076483 90.468821 
L 241.653617 91.365843 
L 243.224736 92.542703 
L 244.791281 93.957058 
L 247.916417 97.328888 
L 252.605852 103.109308 
L 255.750114 106.950719 
L 258.922205 110.387179 
L 260.522291 111.847699 
L 262.133658 113.079955 
L 263.757749 114.041608 
L 265.396004 114.690314 
L 267.049864 114.983733 
L 268.772887 114.981904 
L 270.605018 114.781708 
L 272.527284 114.396065 
L 274.520712 113.837892 
L 276.56633 113.12011 
L 278.645163 112.255636 
L 280.738239 111.257391 
L 284.891227 108.911262 
L 288.873509 106.185073 
L 292.5333 103.182178 
L 294.194829 101.609263 
L 295.718817 100.005929 
L 297.086289 98.385094 
L 298.278273 96.759677 
L 299.275796 95.142598 
L 300.059884 93.546775 
L 300.621641 91.919496 
L 300.976631 90.20445 
L 301.142578 88.40916 
L 301.137205 86.541149 
L 300.978234 84.607939 
L 300.27039 80.576016 
L 299.160828 76.373574 
L 297.053417 69.881839 
L 294.160828 61.191086 
L 292.998098 56.966076 
L 292.549654 54.909992 
L 292.549654 54.909992 
" style="fill:none;stroke:#fea952;stroke-linecap:square;"/>
   </g>
   <g id="line2d_15">
    <path clip-path="url(#p98d20f8edd)" d="M 180.606608 295.366823 
L 180.887848 276.662071 
L 181.463936 251.515714 
L 181.94021 245.070914 
L 182.918638 232.767909 
L 183.043614 228.89564 
L 182.984847 225.165932 
L 182.700278 221.592671 
L 182.173422 218.267664 
L 181.802013 216.738129 
L 180.656882 213.552817 
L 179.035222 210.208739 
L 177.042047 206.722112 
L 170.168364 195.326355 
L 168.08135 191.083177 
L 167.175928 188.842526 
L 166.400079 186.51238 
L 165.785982 184.089107 
L 165.385143 181.748903 
L 164.977408 177.292801 
L 164.879858 172.735771 
L 165.076995 168.11521 
L 165.556768 163.469795 
L 166.309771 158.83917 
L 167.328908 154.263567 
L 168.60946 149.78346 
L 170.149524 145.439312 
L 171.950872 141.271567 
L 172.981145 139.212753 
L 174.127629 137.181942 
L 175.373442 135.235872 
L 178.113636 131.57653 
L 181.112461 128.187282 
L 184.293032 125.019391 
L 187.586047 122.027804 
L 192.593099 117.785752 
L 200.579214 111.115554 
L 203.427617 108.533725 
L 206.40672 105.526665 
L 217.972473 93.352434 
L 221.624655 90.068872 
L 223.543623 88.556611 
L 225.54667 87.160703 
L 227.656335 85.910493 
L 229.897662 84.846211 
L 232.290892 84.024447 
L 234.836502 83.519872 
L 237.722471 83.440213 
L 240.639526 83.9739 
L 243.189975 84.994717 
L 245.429132 86.325494 
L 247.444956 87.868371 
L 249.308567 89.569146 
L 251.067922 91.389831 
L 254.383217 95.252326 
L 261.86166 104.365644 
L 264.34783 106.845211 
L 266.496108 108.489555 
L 267.04318 108.686147 
L 268.088825 108.721577 
L 269.366283 108.60715 
L 270.82923 108.331722 
L 272.435601 107.895507 
L 274.148249 107.305256 
L 277.763677 105.70657 
L 281.44489 103.640361 
L 284.988567 101.228576 
L 288.203857 98.608825 
L 290.905465 95.944982 
L 292.918428 93.453365 
L 294.107019 91.491774 
L 294.45477 90.643041 
L 294.705774 89.624806 
L 294.845014 88.427275 
L 294.8608 87.057268 
L 294.748591 85.530536 
L 294.155694 82.082711 
L 293.142276 78.227398 
L 291.097025 71.926597 
L 288.114274 62.951434 
L 286.845156 58.308068 
L 286.396713 56.251984 
L 286.396713 56.251984 
" style="fill:none;stroke:#ffffff;stroke-linecap:square;"/>
   </g>
   <g id="line2d_16">
    <path clip-path="url(#p98d20f8edd)" d="M 193.201205 295.488 
L 193.480602 276.909283 
L 194.034066 252.309685 
L 194.486855 246.175555 
L 195.375645 235.486437 
L 195.593629 231.080642 
L 195.628833 226.613644 
L 195.404822 222.095259 
L 194.839927 217.540574 
L 194.382093 215.171393 
L 193.759144 212.780152 
L 192.986316 210.48309 
L 192.092447 208.273955 
L 190.042675 204.087094 
L 187.790266 200.155962 
L 181.336833 189.503654 
L 179.736198 186.307922 
L 178.582938 183.316054 
L 178.188894 181.896776 
L 177.901917 180.345721 
L 177.562684 176.793415 
L 177.470838 173.060987 
L 177.624578 169.209152 
L 178.018654 165.297349 
L 178.645173 161.384046 
L 179.493929 157.527124 
L 180.552342 153.784226 
L 181.805015 150.212999 
L 183.232876 146.871115 
L 184.759574 143.934741 
L 186.630706 141.12424 
L 188.878451 138.353264 
L 191.457655 135.615747 
L 194.313189 132.903885 
L 198.981462 128.855071 
L 210.605901 119.058528 
L 213.937064 115.852943 
L 218.802765 110.708945 
L 225.071389 104.041945 
L 228.044888 101.171468 
L 230.810687 98.843901 
L 233.222015 97.209243 
L 235.075741 96.307898 
L 236.344259 95.814054 
L 236.962991 95.942924 
L 237.878102 96.406193 
L 239.004516 97.217035 
L 240.273996 98.34497 
L 243.079507 101.361746 
L 247.699633 107.057555 
L 251.031105 111.120923 
L 252.802261 113.115834 
L 254.676613 115.038478 
L 256.696752 116.850187 
L 258.925038 118.498847 
L 261.439218 119.896866 
L 264.295899 120.891073 
L 267.056548 121.281319 
L 269.456949 121.242231 
L 271.843754 120.956267 
L 274.225339 120.460407 
L 276.605824 119.780278 
L 278.98441 118.934964 
L 281.356122 117.939855 
L 283.7128 116.808213 
L 286.043978 115.551981 
L 288.337564 114.182163 
L 290.580361 112.708933 
L 292.758451 111.141571 
L 294.857461 109.488228 
L 296.862743 107.755531 
L 298.759414 105.947951 
L 300.532168 104.066875 
L 302.164679 102.109283 
L 303.638118 100.065989 
L 304.927978 97.919731 
L 306.01275 95.601777 
L 306.788512 93.195952 
L 307.247488 90.784095 
L 307.440142 88.391045 
L 307.41361 86.025029 
L 307.207877 83.685342 
L 306.855881 81.368068 
L 305.819172 76.786698 
L 304.485438 72.269996 
L 299.15104 55.624084 
L 298.702596 53.568 
L 298.702596 53.568 
" style="fill:none;stroke:#ffffff;stroke-linecap:square;"/>
   </g>
   <g id="patch_3">
    <path d="M 57.6 307.584 
L 57.6 41.472 
" style="fill:none;stroke:#000000;stroke-linecap:square;stroke-linejoin:miter;stroke-width:0.8;"/>
   </g>
   <g id="patch_4">
    <path d="M 414.72 307.584 
L 414.72 41.472 
" style="fill:none;stroke:#000000;stroke-linecap:square;stroke-linejoin:miter;stroke-width:0.8;"/>
   </g>
   <g id="patch_5">
    <path d="M 57.6 307.584 
L 414.72 307.584 
" style="fill:none;stroke:#000000;stroke-linecap:square;stroke-linejoin:miter;stroke-width:0.8;"/>
   </g>
   <g id="patch_6">
    <path d="M 57.6 41.472 
L 414.72 41.472 
" style="fill:none;stroke:#000000;stroke-linecap:square;stroke-linejoin:miter;stroke-width:0.8;"/>
   </g>
  </g>
 </g>
 <defs>
  <clipPath id="p98d20f8edd">
   <rect height="266.112" width="357.12" x="57.6" y="41.472"/>
  </clipPath>
 </defs>
</svg>
