<?xml version="1.0" encoding="utf-8" standalone="no"?>
<!DOCTYPE svg PUBLIC "-//W3C//DTD SVG 1.1//EN"
  "http://www.w3.org/Graphics/SVG/1.1/DTD/svg11.dtd">
<!-- Created with matplotlib (https://matplotlib.org/) -->
<svg height="345.6pt" version="1.1" viewBox="0 0 460.8 345.6" width="460.8pt" xmlns="http://www.w3.org/2000/svg" xmlns:xlink="http://www.w3.org/1999/xlink">
 <metadata>
  <rdf:RDF xmlns:cc="http://creativecommons.org/ns#" xmlns:dc="http://purl.org/dc/elements/1.1/" xmlns:rdf="http://www.w3.org/1999/02/22-rdf-syntax-ns#">
   <cc:Work>
    <dc:type rdf:resource="http://purl.org/dc/dcmitype/StillImage"/>
    <dc:date>2021-06-19T13:24:23.717212</dc:date>
    <dc:format>image/svg+xml</dc:format>
    <dc:creator>
     <cc:Agent>
      <dc:title>Matplotlib v3.3.3, https://matplotlib.org/</dc:title>
     </cc:Agent>
    </dc:creator>
   </cc:Work>
  </rdf:RDF>
 </metadata>
 <defs>
  <style type="text/css">*{stroke-linecap:butt;stroke-linejoin:round;}</style>
 </defs>
 <g id="figure_1">
  <g id="patch_1">
   <path d="M 0 345.6 
L 460.8 345.6 
L 460.8 0 
L 0 0 
z
" style="fill:#ffffff;"/>
  </g>
  <g id="axes_1">
   <g id="patch_2">
    <path d="M 57.6 307.584 
L 414.72 307.584 
L 414.72 41.472 
L 57.6 41.472 
z
" style="fill:#7d9051;"/>
   </g>
   <g id="matplotlib.axis_1">
    <g id="xtick_1">
     <g id="line2d_1">
      <defs>
       <path d="M 0 0 
L 0 3.5 
" id="mb8f75cd1d8" style="stroke:#000000;stroke-width:0.8;"/>
      </defs>
      <g>
       <use style="stroke:#000000;stroke-width:0.8;" x="78.463306" xlink:href="#mb8f75cd1d8" y="307.584"/>
      </g>
     </g>
     <g id="text_1">
      <!-- −150 -->
      <g transform="translate(64.729712 322.182437)scale(0.1 -0.1)">
       <defs>
        <path d="M 10.59375 35.5 
L 73.1875 35.5 
L 73.1875 27.203125 
L 10.59375 27.203125 
z
" id="DejaVuSans-8722"/>
        <path d="M 12.40625 8.296875 
L 28.515625 8.296875 
L 28.515625 63.921875 
L 10.984375 60.40625 
L 10.984375 69.390625 
L 28.421875 72.90625 
L 38.28125 72.90625 
L 38.28125 8.296875 
L 54.390625 8.296875 
L 54.390625 0 
L 12.40625 0 
z
" id="DejaVuSans-49"/>
        <path d="M 10.796875 72.90625 
L 49.515625 72.90625 
L 49.515625 64.59375 
L 19.828125 64.59375 
L 19.828125 46.734375 
Q 21.96875 47.46875 24.109375 47.828125 
Q 26.265625 48.1875 28.421875 48.1875 
Q 40.625 48.1875 47.75 41.5 
Q 54.890625 34.8125 54.890625 23.390625 
Q 54.890625 11.625 47.5625 5.09375 
Q 40.234375 -1.421875 26.90625 -1.421875 
Q 22.3125 -1.421875 17.546875 -0.640625 
Q 12.796875 0.140625 7.71875 1.703125 
L 7.71875 11.625 
Q 12.109375 9.234375 16.796875 8.0625 
Q 21.484375 6.890625 26.703125 6.890625 
Q 35.15625 6.890625 40.078125 11.328125 
Q 45.015625 15.765625 45.015625 23.390625 
Q 45.015625 31 40.078125 35.4375 
Q 35.15625 39.890625 26.703125 39.890625 
Q 22.75 39.890625 18.8125 39.015625 
Q 14.890625 38.140625 10.796875 36.28125 
z
" id="DejaVuSans-53"/>
        <path d="M 31.78125 66.40625 
Q 24.171875 66.40625 20.328125 58.90625 
Q 16.5 51.421875 16.5 36.375 
Q 16.5 21.390625 20.328125 13.890625 
Q 24.171875 6.390625 31.78125 6.390625 
Q 39.453125 6.390625 43.28125 13.890625 
Q 47.125 21.390625 47.125 36.375 
Q 47.125 51.421875 43.28125 58.90625 
Q 39.453125 66.40625 31.78125 66.40625 
z
M 31.78125 74.21875 
Q 44.046875 74.21875 50.515625 64.515625 
Q 56.984375 54.828125 56.984375 36.375 
Q 56.984375 17.96875 50.515625 8.265625 
Q 44.046875 -1.421875 31.78125 -1.421875 
Q 19.53125 -1.421875 13.0625 8.265625 
Q 6.59375 17.96875 6.59375 36.375 
Q 6.59375 54.828125 13.0625 64.515625 
Q 19.53125 74.21875 31.78125 74.21875 
z
" id="DejaVuSans-48"/>
       </defs>
       <use xlink:href="#DejaVuSans-8722"/>
       <use x="83.789062" xlink:href="#DejaVuSans-49"/>
       <use x="147.412109" xlink:href="#DejaVuSans-53"/>
       <use x="211.035156" xlink:href="#DejaVuSans-48"/>
      </g>
     </g>
    </g>
    <g id="xtick_2">
     <g id="line2d_2">
      <g>
       <use style="stroke:#000000;stroke-width:0.8;" x="123.609891" xlink:href="#mb8f75cd1d8" y="307.584"/>
      </g>
     </g>
     <g id="text_2">
      <!-- −125 -->
      <g transform="translate(109.876297 322.182437)scale(0.1 -0.1)">
       <defs>
        <path d="M 19.1875 8.296875 
L 53.609375 8.296875 
L 53.609375 0 
L 7.328125 0 
L 7.328125 8.296875 
Q 12.9375 14.109375 22.625 23.890625 
Q 32.328125 33.6875 34.8125 36.53125 
Q 39.546875 41.84375 41.421875 45.53125 
Q 43.3125 49.21875 43.3125 52.78125 
Q 43.3125 58.59375 39.234375 62.25 
Q 35.15625 65.921875 28.609375 65.921875 
Q 23.96875 65.921875 18.8125 64.3125 
Q 13.671875 62.703125 7.8125 59.421875 
L 7.8125 69.390625 
Q 13.765625 71.78125 18.9375 73 
Q 24.125 74.21875 28.421875 74.21875 
Q 39.75 74.21875 46.484375 68.546875 
Q 53.21875 62.890625 53.21875 53.421875 
Q 53.21875 48.921875 51.53125 44.890625 
Q 49.859375 40.875 45.40625 35.40625 
Q 44.1875 33.984375 37.640625 27.21875 
Q 31.109375 20.453125 19.1875 8.296875 
z
" id="DejaVuSans-50"/>
       </defs>
       <use xlink:href="#DejaVuSans-8722"/>
       <use x="83.789062" xlink:href="#DejaVuSans-49"/>
       <use x="147.412109" xlink:href="#DejaVuSans-50"/>
       <use x="211.035156" xlink:href="#DejaVuSans-53"/>
      </g>
     </g>
    </g>
    <g id="xtick_3">
     <g id="line2d_3">
      <g>
       <use style="stroke:#000000;stroke-width:0.8;" x="168.756476" xlink:href="#mb8f75cd1d8" y="307.584"/>
      </g>
     </g>
     <g id="text_3">
      <!-- −100 -->
      <g transform="translate(155.022882 322.182437)scale(0.1 -0.1)">
       <use xlink:href="#DejaVuSans-8722"/>
       <use x="83.789062" xlink:href="#DejaVuSans-49"/>
       <use x="147.412109" xlink:href="#DejaVuSans-48"/>
       <use x="211.035156" xlink:href="#DejaVuSans-48"/>
      </g>
     </g>
    </g>
    <g id="xtick_4">
     <g id="line2d_4">
      <g>
       <use style="stroke:#000000;stroke-width:0.8;" x="213.90306" xlink:href="#mb8f75cd1d8" y="307.584"/>
      </g>
     </g>
     <g id="text_4">
      <!-- −75 -->
      <g transform="translate(203.350717 322.182437)scale(0.1 -0.1)">
       <defs>
        <path d="M 8.203125 72.90625 
L 55.078125 72.90625 
L 55.078125 68.703125 
L 28.609375 0 
L 18.3125 0 
L 43.21875 64.59375 
L 8.203125 64.59375 
z
" id="DejaVuSans-55"/>
       </defs>
       <use xlink:href="#DejaVuSans-8722"/>
       <use x="83.789062" xlink:href="#DejaVuSans-55"/>
       <use x="147.412109" xlink:href="#DejaVuSans-53"/>
      </g>
     </g>
    </g>
    <g id="xtick_5">
     <g id="line2d_5">
      <g>
       <use style="stroke:#000000;stroke-width:0.8;" x="259.049645" xlink:href="#mb8f75cd1d8" y="307.584"/>
      </g>
     </g>
     <g id="text_5">
      <!-- −50 -->
      <g transform="translate(248.497302 322.182437)scale(0.1 -0.1)">
       <use xlink:href="#DejaVuSans-8722"/>
       <use x="83.789062" xlink:href="#DejaVuSans-53"/>
       <use x="147.412109" xlink:href="#DejaVuSans-48"/>
      </g>
     </g>
    </g>
    <g id="xtick_6">
     <g id="line2d_6">
      <g>
       <use style="stroke:#000000;stroke-width:0.8;" x="304.19623" xlink:href="#mb8f75cd1d8" y="307.584"/>
      </g>
     </g>
     <g id="text_6">
      <!-- −25 -->
      <g transform="translate(293.643887 322.182437)scale(0.1 -0.1)">
       <use xlink:href="#DejaVuSans-8722"/>
       <use x="83.789062" xlink:href="#DejaVuSans-50"/>
       <use x="147.412109" xlink:href="#DejaVuSans-53"/>
      </g>
     </g>
    </g>
    <g id="xtick_7">
     <g id="line2d_7">
      <g>
       <use style="stroke:#000000;stroke-width:0.8;" x="349.342815" xlink:href="#mb8f75cd1d8" y="307.584"/>
      </g>
     </g>
     <g id="text_7">
      <!-- 0 -->
      <g transform="translate(346.161565 322.182437)scale(0.1 -0.1)">
       <use xlink:href="#DejaVuSans-48"/>
      </g>
     </g>
    </g>
    <g id="xtick_8">
     <g id="line2d_8">
      <g>
       <use style="stroke:#000000;stroke-width:0.8;" x="394.4894" xlink:href="#mb8f75cd1d8" y="307.584"/>
      </g>
     </g>
     <g id="text_8">
      <!-- 25 -->
      <g transform="translate(388.1269 322.182437)scale(0.1 -0.1)">
       <use xlink:href="#DejaVuSans-50"/>
       <use x="63.623047" xlink:href="#DejaVuSans-53"/>
      </g>
     </g>
    </g>
   </g>
   <g id="matplotlib.axis_2">
    <g id="ytick_1">
     <g id="line2d_9">
      <defs>
       <path d="M 0 0 
L -3.5 0 
" id="m4547925044" style="stroke:#000000;stroke-width:0.8;"/>
      </defs>
      <g>
       <use style="stroke:#000000;stroke-width:0.8;" x="57.6" xlink:href="#m4547925044" y="295.418504"/>
      </g>
     </g>
     <g id="text_9">
      <!-- 0 -->
      <g transform="translate(44.2375 299.217722)scale(0.1 -0.1)">
       <use xlink:href="#DejaVuSans-48"/>
      </g>
     </g>
    </g>
    <g id="ytick_2">
     <g id="line2d_10">
      <g>
       <use style="stroke:#000000;stroke-width:0.8;" x="57.6" xlink:href="#m4547925044" y="259.301236"/>
      </g>
     </g>
     <g id="text_10">
      <!-- 20 -->
      <g transform="translate(37.875 263.100454)scale(0.1 -0.1)">
       <use xlink:href="#DejaVuSans-50"/>
       <use x="63.623047" xlink:href="#DejaVuSans-48"/>
      </g>
     </g>
    </g>
    <g id="ytick_3">
     <g id="line2d_11">
      <g>
       <use style="stroke:#000000;stroke-width:0.8;" x="57.6" xlink:href="#m4547925044" y="223.183968"/>
      </g>
     </g>
     <g id="text_11">
      <!-- 40 -->
      <g transform="translate(37.875 226.983186)scale(0.1 -0.1)">
       <defs>
        <path d="M 37.796875 64.3125 
L 12.890625 25.390625 
L 37.796875 25.390625 
z
M 35.203125 72.90625 
L 47.609375 72.90625 
L 47.609375 25.390625 
L 58.015625 25.390625 
L 58.015625 17.1875 
L 47.609375 17.1875 
L 47.609375 0 
L 37.796875 0 
L 37.796875 17.1875 
L 4.890625 17.1875 
L 4.890625 26.703125 
z
" id="DejaVuSans-52"/>
       </defs>
       <use xlink:href="#DejaVuSans-52"/>
       <use x="63.623047" xlink:href="#DejaVuSans-48"/>
      </g>
     </g>
    </g>
    <g id="ytick_4">
     <g id="line2d_12">
      <g>
       <use style="stroke:#000000;stroke-width:0.8;" x="57.6" xlink:href="#m4547925044" y="187.0667"/>
      </g>
     </g>
     <g id="text_12">
      <!-- 60 -->
      <g transform="translate(37.875 190.865918)scale(0.1 -0.1)">
       <defs>
        <path d="M 33.015625 40.375 
Q 26.375 40.375 22.484375 35.828125 
Q 18.609375 31.296875 18.609375 23.390625 
Q 18.609375 15.53125 22.484375 10.953125 
Q 26.375 6.390625 33.015625 6.390625 
Q 39.65625 6.390625 43.53125 10.953125 
Q 47.40625 15.53125 47.40625 23.390625 
Q 47.40625 31.296875 43.53125 35.828125 
Q 39.65625 40.375 33.015625 40.375 
z
M 52.59375 71.296875 
L 52.59375 62.3125 
Q 48.875 64.0625 45.09375 64.984375 
Q 41.3125 65.921875 37.59375 65.921875 
Q 27.828125 65.921875 22.671875 59.328125 
Q 17.53125 52.734375 16.796875 39.40625 
Q 19.671875 43.65625 24.015625 45.921875 
Q 28.375 48.1875 33.59375 48.1875 
Q 44.578125 48.1875 50.953125 41.515625 
Q 57.328125 34.859375 57.328125 23.390625 
Q 57.328125 12.15625 50.6875 5.359375 
Q 44.046875 -1.421875 33.015625 -1.421875 
Q 20.359375 -1.421875 13.671875 8.265625 
Q 6.984375 17.96875 6.984375 36.375 
Q 6.984375 53.65625 15.1875 63.9375 
Q 23.390625 74.21875 37.203125 74.21875 
Q 40.921875 74.21875 44.703125 73.484375 
Q 48.484375 72.75 52.59375 71.296875 
z
" id="DejaVuSans-54"/>
       </defs>
       <use xlink:href="#DejaVuSans-54"/>
       <use x="63.623047" xlink:href="#DejaVuSans-48"/>
      </g>
     </g>
    </g>
    <g id="ytick_5">
     <g id="line2d_13">
      <g>
       <use style="stroke:#000000;stroke-width:0.8;" x="57.6" xlink:href="#m4547925044" y="150.949432"/>
      </g>
     </g>
     <g id="text_13">
      <!-- 80 -->
      <g transform="translate(37.875 154.74865)scale(0.1 -0.1)">
       <defs>
        <path d="M 31.78125 34.625 
Q 24.75 34.625 20.71875 30.859375 
Q 16.703125 27.09375 16.703125 20.515625 
Q 16.703125 13.921875 20.71875 10.15625 
Q 24.75 6.390625 31.78125 6.390625 
Q 38.8125 6.390625 42.859375 10.171875 
Q 46.921875 13.96875 46.921875 20.515625 
Q 46.921875 27.09375 42.890625 30.859375 
Q 38.875 34.625 31.78125 34.625 
z
M 21.921875 38.8125 
Q 15.578125 40.375 12.03125 44.71875 
Q 8.5 49.078125 8.5 55.328125 
Q 8.5 64.0625 14.71875 69.140625 
Q 20.953125 74.21875 31.78125 74.21875 
Q 42.671875 74.21875 48.875 69.140625 
Q 55.078125 64.0625 55.078125 55.328125 
Q 55.078125 49.078125 51.53125 44.71875 
Q 48 40.375 41.703125 38.8125 
Q 48.828125 37.15625 52.796875 32.3125 
Q 56.78125 27.484375 56.78125 20.515625 
Q 56.78125 9.90625 50.3125 4.234375 
Q 43.84375 -1.421875 31.78125 -1.421875 
Q 19.734375 -1.421875 13.25 4.234375 
Q 6.78125 9.90625 6.78125 20.515625 
Q 6.78125 27.484375 10.78125 32.3125 
Q 14.796875 37.15625 21.921875 38.8125 
z
M 18.3125 54.390625 
Q 18.3125 48.734375 21.84375 45.5625 
Q 25.390625 42.390625 31.78125 42.390625 
Q 38.140625 42.390625 41.71875 45.5625 
Q 45.3125 48.734375 45.3125 54.390625 
Q 45.3125 60.0625 41.71875 63.234375 
Q 38.140625 66.40625 31.78125 66.40625 
Q 25.390625 66.40625 21.84375 63.234375 
Q 18.3125 60.0625 18.3125 54.390625 
z
" id="DejaVuSans-56"/>
       </defs>
       <use xlink:href="#DejaVuSans-56"/>
       <use x="63.623047" xlink:href="#DejaVuSans-48"/>
      </g>
     </g>
    </g>
    <g id="ytick_6">
     <g id="line2d_14">
      <g>
       <use style="stroke:#000000;stroke-width:0.8;" x="57.6" xlink:href="#m4547925044" y="114.832164"/>
      </g>
     </g>
     <g id="text_14">
      <!-- 100 -->
      <g transform="translate(31.5125 118.631383)scale(0.1 -0.1)">
       <use xlink:href="#DejaVuSans-49"/>
       <use x="63.623047" xlink:href="#DejaVuSans-48"/>
       <use x="127.246094" xlink:href="#DejaVuSans-48"/>
      </g>
     </g>
    </g>
    <g id="ytick_7">
     <g id="line2d_15">
      <g>
       <use style="stroke:#000000;stroke-width:0.8;" x="57.6" xlink:href="#m4547925044" y="78.714896"/>
      </g>
     </g>
     <g id="text_15">
      <!-- 120 -->
      <g transform="translate(31.5125 82.514115)scale(0.1 -0.1)">
       <use xlink:href="#DejaVuSans-49"/>
       <use x="63.623047" xlink:href="#DejaVuSans-50"/>
       <use x="127.246094" xlink:href="#DejaVuSans-48"/>
      </g>
     </g>
    </g>
    <g id="ytick_8">
     <g id="line2d_16">
      <g>
       <use style="stroke:#000000;stroke-width:0.8;" x="57.6" xlink:href="#m4547925044" y="42.597628"/>
      </g>
     </g>
     <g id="text_16">
      <!-- 140 -->
      <g transform="translate(31.5125 46.396847)scale(0.1 -0.1)">
       <use xlink:href="#DejaVuSans-49"/>
       <use x="63.623047" xlink:href="#DejaVuSans-52"/>
       <use x="127.246094" xlink:href="#DejaVuSans-48"/>
      </g>
     </g>
    </g>
   </g>
   <g id="line2d_17">
    <path clip-path="url(#pcb464b0ef3)" d="M 349.342815 295.418504 
L 349.618971 276.411825 
L 350.207213 247.892316 
L 350.535235 243.065839 
L 351.289856 235.74584 
L 352.296018 225.985843 
L 352.589028 221.17007 
L 352.617504 216.435172 
L 352.28808 211.809696 
L 351.95998 209.54691 
L 351.507393 207.322184 
L 350.918648 205.139086 
L 349.399061 200.642668 
L 347.506837 195.901055 
L 345.277506 191.069133 
L 342.746597 186.301787 
L 339.949641 181.753904 
L 336.922167 177.580371 
L 335.333088 175.682386 
L 333.699703 173.936072 
L 332.026454 172.360787 
L 330.317781 170.975894 
L 328.578125 169.800753 
L 326.811928 168.854724 
L 325.023631 168.157168 
L 323.172198 167.78843 
L 321.220446 167.788051 
L 319.178602 168.114192 
L 317.05689 168.725015 
L 314.865534 169.578679 
L 312.614758 170.633345 
L 307.975848 173.178324 
L 298.43488 178.839369 
L 293.696415 181.286002 
L 291.370973 182.266909 
L 289.088358 183.030422 
L 286.858794 183.534703 
L 284.692506 183.737912 
L 282.599718 183.59821 
L 280.577793 183.126211 
L 278.612559 182.379758 
L 276.696944 181.387856 
L 274.823875 180.179507 
L 272.98628 178.783716 
L 271.177084 177.229485 
L 267.615599 173.761722 
L 256.877156 162.572276 
L 255.005275 160.897258 
L 253.091064 159.353838 
L 251.127451 157.971018 
L 249.107362 156.777803 
L 247.023724 155.803197 
L 244.862294 155.046935 
L 242.620376 154.474437 
L 240.30822 154.063233 
L 237.936074 153.790854 
L 233.052809 153.572683 
L 228.052574 153.640162 
L 218.029161 153.913014 
L 213.169968 153.758859 
L 210.81437 153.53049 
L 208.521772 153.1713 
L 206.302421 152.658817 
L 204.166566 151.970572 
L 202.124457 151.084094 
L 200.18398 149.996392 
L 198.339123 148.731772 
L 196.579286 147.308709 
L 194.893868 145.745675 
L 191.703886 142.273593 
L 188.684375 138.463316 
L 179.800628 126.481228 
L 176.614962 122.796082 
L 174.932349 121.094557 
L 173.175748 119.511696 
L 171.33456 118.065972 
L 169.380873 116.765013 
L 167.305542 115.592856 
L 165.126116 114.53259 
L 160.525172 112.680089 
L 155.718427 111.072221 
L 146.049089 108.049234 
L 141.467269 106.36354 
L 139.300991 105.417954 
L 137.241199 104.381328 
L 135.305441 103.236751 
L 133.511266 101.967311 
L 131.876223 100.556098 
L 130.417858 98.9862 
L 129.134585 97.264634 
L 128.004368 95.416897 
L 127.014089 93.453804 
L 126.150628 91.386171 
L 125.400867 89.224811 
L 124.189965 84.66417 
L 123.276432 79.858398 
L 122.234109 72.379375 
L 120.905569 62.356876 
L 120.031393 57.51866 
L 119.495911 55.180662 
L 119.495911 55.180662 
" style="fill:none;stroke:#fea952;stroke-linecap:square;"/>
   </g>
   <g id="line2d_18">
    <path clip-path="url(#pcb464b0ef3)" d="M 342.119696 295.349007 
L 342.396835 276.273887 
L 342.995741 247.476434 
L 343.34335 242.39125 
L 344.111547 234.939516 
L 345.091166 225.467782 
L 345.367375 221.008782 
L 345.402715 216.788874 
L 345.139385 212.846246 
L 344.533104 209.203031 
L 343.396825 205.337632 
L 341.823475 201.056568 
L 339.913838 196.59969 
L 337.717855 192.148157 
L 335.292507 187.880591 
L 332.707785 183.976618 
L 330.057608 180.616714 
L 327.478134 177.972478 
L 325.16747 176.168305 
L 323.170796 175.011883 
L 322.359798 174.921084 
L 321.177005 175.05571 
L 319.678925 175.455781 
L 317.930495 176.119649 
L 315.98627 177.021708 
L 311.665294 179.388499 
L 301.876895 185.190023 
L 299.235146 186.615027 
L 296.503836 187.941577 
L 293.662363 189.117296 
L 290.681901 190.07591 
L 287.53343 190.726584 
L 284.211381 190.945325 
L 280.957621 190.63254 
L 278.012903 189.87896 
L 275.29112 188.794298 
L 272.781106 187.457822 
L 270.454636 185.931726 
L 268.279227 184.262943 
L 266.224878 182.488187 
L 262.383791 178.742331 
L 252.060311 167.955239 
L 248.931968 165.259784 
L 247.453751 164.19052 
L 246.046888 163.320874 
L 244.638123 162.621348 
L 243.07506 162.045797 
L 241.355573 161.586297 
L 239.484206 161.239534 
L 237.471676 160.999364 
L 233.07969 160.796087 
L 228.295331 160.859535 
L 217.928558 161.135767 
L 212.472941 160.948604 
L 209.696283 160.666887 
L 206.896532 160.209544 
L 204.086958 159.534136 
L 201.290195 158.596639 
L 198.592495 157.385167 
L 196.099846 155.954423 
L 193.797161 154.348609 
L 191.667451 152.605138 
L 189.689834 150.755298 
L 187.842503 148.82517 
L 184.456697 144.81098 
L 181.364839 140.718821 
L 175.637468 132.881171 
L 172.861602 129.426214 
L 170.096871 126.460789 
L 168.714706 125.193014 
L 167.330903 124.078377 
L 165.828487 123.054594 
L 164.145518 122.088434 
L 162.295149 121.178183 
L 158.162333 119.506162 
L 153.581886 117.972473 
L 143.66301 114.867219 
L 138.577516 112.983783 
L 136.053709 111.870353 
L 133.564701 110.599177 
L 131.133299 109.133488 
L 128.791541 107.435626 
L 126.583935 105.472395 
L 124.626362 103.303242 
L 122.972493 101.033839 
L 121.555032 98.670255 
L 120.348516 96.237402 
L 119.326127 93.753545 
L 118.461882 91.231991 
L 117.731694 88.682889 
L 116.58788 83.535209 
L 115.742173 78.373982 
L 112.990256 59.131322 
L 112.454774 56.793324 
L 112.454774 56.793324 
" style="fill:none;stroke:#ffffff;stroke-linecap:square;"/>
   </g>
   <g id="line2d_19">
    <path clip-path="url(#pcb464b0ef3)" d="M 356.565935 295.488 
L 356.841107 276.549763 
L 357.418685 248.308198 
L 357.72712 243.740428 
L 358.468165 236.552165 
L 359.50087 226.503904 
L 359.810681 221.331357 
L 359.832292 216.08147 
L 359.695307 213.432995 
L 359.436776 210.773146 
L 359.038444 208.106903 
L 358.481681 205.441338 
L 357.794385 202.924922 
L 356.14299 198.054677 
L 354.105984 192.963449 
L 351.706715 187.776179 
L 348.963315 182.623378 
L 345.88435 177.635954 
L 344.217211 175.244709 
L 342.460706 172.943253 
L 340.608568 170.748059 
L 338.651172 168.676676 
L 336.574774 166.749097 
L 334.361172 164.990139 
L 331.98878 163.433201 
L 329.436927 162.125113 
L 326.434571 161.072853 
L 323.1736 160.564976 
L 320.081095 160.655018 
L 317.1802 161.172675 
L 314.434855 161.994249 
L 311.800573 163.037708 
L 309.243246 164.244981 
L 304.286403 166.968149 
L 292.87377 173.644058 
L 289.079582 175.416521 
L 286.184158 176.342822 
L 285.173631 176.530499 
L 284.241815 176.56388 
L 283.142682 176.373461 
L 281.933998 175.965218 
L 280.612783 175.31789 
L 279.193115 174.427288 
L 277.693332 173.304488 
L 274.511994 170.453138 
L 271.136983 166.985092 
L 263.737465 159.159428 
L 261.694 157.189313 
L 259.539286 155.274 
L 257.250161 153.447891 
L 254.801151 151.751516 
L 252.167836 150.234732 
L 249.409325 148.985045 
L 246.649528 148.048072 
L 243.885179 147.362577 
L 241.132233 146.886933 
L 238.400472 146.582344 
L 233.025928 146.34928 
L 227.809817 146.420789 
L 218.129764 146.690261 
L 213.866994 146.569114 
L 210.147012 146.133056 
L 208.517883 145.783498 
L 207.042937 145.344504 
L 205.656418 144.78302 
L 204.268114 144.038361 
L 202.881086 143.114935 
L 201.491121 142.01228 
L 200.097901 140.736052 
L 197.303249 137.710106 
L 194.486897 134.161106 
L 185.354311 121.862259 
L 181.751179 117.716953 
L 179.767826 115.728325 
L 177.63679 113.830377 
L 175.338217 112.053567 
L 172.933259 110.475431 
L 170.465566 109.097278 
L 167.957082 107.886997 
L 162.888011 105.854016 
L 157.854969 104.171969 
L 146.326132 100.497096 
L 142.548273 98.965556 
L 139.477584 97.340014 
L 138.230992 96.498996 
L 137.16851 95.639801 
L 136.209355 94.669159 
L 135.296676 93.495429 
L 134.453705 92.163539 
L 133.679662 90.670207 
L 132.97513 89.018797 
L 131.771678 85.278189 
L 130.817294 81.037826 
L 130.054586 76.407266 
L 127.587733 58.536491 
L 126.537047 53.568 
L 126.537047 53.568 
" style="fill:none;stroke:#ffffff;stroke-linecap:square;"/>
   </g>
   <g id="patch_3">
    <path d="M 57.6 307.584 
L 57.6 41.472 
" style="fill:none;stroke:#000000;stroke-linecap:square;stroke-linejoin:miter;stroke-width:0.8;"/>
   </g>
   <g id="patch_4">
    <path d="M 414.72 307.584 
L 414.72 41.472 
" style="fill:none;stroke:#000000;stroke-linecap:square;stroke-linejoin:miter;stroke-width:0.8;"/>
   </g>
   <g id="patch_5">
    <path d="M 57.6 307.584 
L 414.72 307.584 
" style="fill:none;stroke:#000000;stroke-linecap:square;stroke-linejoin:miter;stroke-width:0.8;"/>
   </g>
   <g id="patch_6">
    <path d="M 57.6 41.472 
L 414.72 41.472 
" style="fill:none;stroke:#000000;stroke-linecap:square;stroke-linejoin:miter;stroke-width:0.8;"/>
   </g>
  </g>
 </g>
 <defs>
  <clipPath id="pcb464b0ef3">
   <rect height="266.112" width="357.12" x="57.6" y="41.472"/>
  </clipPath>
 </defs>
</svg>
