<?xml version="1.0" encoding="utf-8" standalone="no"?>
<!DOCTYPE svg PUBLIC "-//W3C//DTD SVG 1.1//EN"
  "http://www.w3.org/Graphics/SVG/1.1/DTD/svg11.dtd">
<!-- Created with matplotlib (https://matplotlib.org/) -->
<svg height="345.6pt" version="1.1" viewBox="0 0 460.8 345.6" width="460.8pt" xmlns="http://www.w3.org/2000/svg" xmlns:xlink="http://www.w3.org/1999/xlink">
 <metadata>
  <rdf:RDF xmlns:cc="http://creativecommons.org/ns#" xmlns:dc="http://purl.org/dc/elements/1.1/" xmlns:rdf="http://www.w3.org/1999/02/22-rdf-syntax-ns#">
   <cc:Work>
    <dc:type rdf:resource="http://purl.org/dc/dcmitype/StillImage"/>
    <dc:date>2021-06-14T14:07:55.206538</dc:date>
    <dc:format>image/svg+xml</dc:format>
    <dc:creator>
     <cc:Agent>
      <dc:title>Matplotlib v3.3.3, https://matplotlib.org/</dc:title>
     </cc:Agent>
    </dc:creator>
   </cc:Work>
  </rdf:RDF>
 </metadata>
 <defs>
  <style type="text/css">*{stroke-linecap:butt;stroke-linejoin:round;}</style>
 </defs>
 <g id="figure_1">
  <g id="patch_1">
   <path d="M 0 345.6 
L 460.8 345.6 
L 460.8 0 
L 0 0 
z
" style="fill:#ffffff;"/>
  </g>
  <g id="axes_1">
   <g id="patch_2">
    <path d="M 57.6 307.584 
L 414.72 307.584 
L 414.72 41.472 
L 57.6 41.472 
z
" style="fill:#7d9051;"/>
   </g>
   <g id="matplotlib.axis_1">
    <g id="xtick_1">
     <g id="line2d_1">
      <defs>
       <path d="M 0 0 
L 0 3.5 
" id="m0de5664820" style="stroke:#000000;stroke-width:0.8;"/>
      </defs>
      <g>
       <use style="stroke:#000000;stroke-width:0.8;" x="114.512256" xlink:href="#m0de5664820" y="307.584"/>
      </g>
     </g>
     <g id="text_1">
      <!-- −100 -->
      <g transform="translate(100.778662 322.182437)scale(0.1 -0.1)">
       <defs>
        <path d="M 10.59375 35.5 
L 73.1875 35.5 
L 73.1875 27.203125 
L 10.59375 27.203125 
z
" id="DejaVuSans-8722"/>
        <path d="M 12.40625 8.296875 
L 28.515625 8.296875 
L 28.515625 63.921875 
L 10.984375 60.40625 
L 10.984375 69.390625 
L 28.421875 72.90625 
L 38.28125 72.90625 
L 38.28125 8.296875 
L 54.390625 8.296875 
L 54.390625 0 
L 12.40625 0 
z
" id="DejaVuSans-49"/>
        <path d="M 31.78125 66.40625 
Q 24.171875 66.40625 20.328125 58.90625 
Q 16.5 51.421875 16.5 36.375 
Q 16.5 21.390625 20.328125 13.890625 
Q 24.171875 6.390625 31.78125 6.390625 
Q 39.453125 6.390625 43.28125 13.890625 
Q 47.125 21.390625 47.125 36.375 
Q 47.125 51.421875 43.28125 58.90625 
Q 39.453125 66.40625 31.78125 66.40625 
z
M 31.78125 74.21875 
Q 44.046875 74.21875 50.515625 64.515625 
Q 56.984375 54.828125 56.984375 36.375 
Q 56.984375 17.96875 50.515625 8.265625 
Q 44.046875 -1.421875 31.78125 -1.421875 
Q 19.53125 -1.421875 13.0625 8.265625 
Q 6.59375 17.96875 6.59375 36.375 
Q 6.59375 54.828125 13.0625 64.515625 
Q 19.53125 74.21875 31.78125 74.21875 
z
" id="DejaVuSans-48"/>
       </defs>
       <use xlink:href="#DejaVuSans-8722"/>
       <use x="83.789062" xlink:href="#DejaVuSans-49"/>
       <use x="147.412109" xlink:href="#DejaVuSans-48"/>
       <use x="211.035156" xlink:href="#DejaVuSans-48"/>
      </g>
     </g>
    </g>
    <g id="xtick_2">
     <g id="line2d_2">
      <g>
       <use style="stroke:#000000;stroke-width:0.8;" x="186.420437" xlink:href="#m0de5664820" y="307.584"/>
      </g>
     </g>
     <g id="text_2">
      <!-- −50 -->
      <g transform="translate(175.868094 322.182437)scale(0.1 -0.1)">
       <defs>
        <path d="M 10.796875 72.90625 
L 49.515625 72.90625 
L 49.515625 64.59375 
L 19.828125 64.59375 
L 19.828125 46.734375 
Q 21.96875 47.46875 24.109375 47.828125 
Q 26.265625 48.1875 28.421875 48.1875 
Q 40.625 48.1875 47.75 41.5 
Q 54.890625 34.8125 54.890625 23.390625 
Q 54.890625 11.625 47.5625 5.09375 
Q 40.234375 -1.421875 26.90625 -1.421875 
Q 22.3125 -1.421875 17.546875 -0.640625 
Q 12.796875 0.140625 7.71875 1.703125 
L 7.71875 11.625 
Q 12.109375 9.234375 16.796875 8.0625 
Q 21.484375 6.890625 26.703125 6.890625 
Q 35.15625 6.890625 40.078125 11.328125 
Q 45.015625 15.765625 45.015625 23.390625 
Q 45.015625 31 40.078125 35.4375 
Q 35.15625 39.890625 26.703125 39.890625 
Q 22.75 39.890625 18.8125 39.015625 
Q 14.890625 38.140625 10.796875 36.28125 
z
" id="DejaVuSans-53"/>
       </defs>
       <use xlink:href="#DejaVuSans-8722"/>
       <use x="83.789062" xlink:href="#DejaVuSans-53"/>
       <use x="147.412109" xlink:href="#DejaVuSans-48"/>
      </g>
     </g>
    </g>
    <g id="xtick_3">
     <g id="line2d_3">
      <g>
       <use style="stroke:#000000;stroke-width:0.8;" x="258.328619" xlink:href="#m0de5664820" y="307.584"/>
      </g>
     </g>
     <g id="text_3">
      <!-- 0 -->
      <g transform="translate(255.147369 322.182437)scale(0.1 -0.1)">
       <use xlink:href="#DejaVuSans-48"/>
      </g>
     </g>
    </g>
    <g id="xtick_4">
     <g id="line2d_4">
      <g>
       <use style="stroke:#000000;stroke-width:0.8;" x="330.236801" xlink:href="#m0de5664820" y="307.584"/>
      </g>
     </g>
     <g id="text_4">
      <!-- 50 -->
      <g transform="translate(323.874301 322.182437)scale(0.1 -0.1)">
       <use xlink:href="#DejaVuSans-53"/>
       <use x="63.623047" xlink:href="#DejaVuSans-48"/>
      </g>
     </g>
    </g>
    <g id="xtick_5">
     <g id="line2d_5">
      <g>
       <use style="stroke:#000000;stroke-width:0.8;" x="402.144983" xlink:href="#m0de5664820" y="307.584"/>
      </g>
     </g>
     <g id="text_5">
      <!-- 100 -->
      <g transform="translate(392.601233 322.182437)scale(0.1 -0.1)">
       <use xlink:href="#DejaVuSans-49"/>
       <use x="63.623047" xlink:href="#DejaVuSans-48"/>
       <use x="127.246094" xlink:href="#DejaVuSans-48"/>
      </g>
     </g>
    </g>
   </g>
   <g id="matplotlib.axis_2">
    <g id="ytick_1">
     <g id="line2d_6">
      <defs>
       <path d="M 0 0 
L -3.5 0 
" id="mc66975a820" style="stroke:#000000;stroke-width:0.8;"/>
      </defs>
      <g>
       <use style="stroke:#000000;stroke-width:0.8;" x="57.6" xlink:href="#mc66975a820" y="295.432654"/>
      </g>
     </g>
     <g id="text_6">
      <!-- 0 -->
      <g transform="translate(44.2375 299.231873)scale(0.1 -0.1)">
       <use xlink:href="#DejaVuSans-48"/>
      </g>
     </g>
    </g>
    <g id="ytick_2">
     <g id="line2d_7">
      <g>
       <use style="stroke:#000000;stroke-width:0.8;" x="57.6" xlink:href="#mc66975a820" y="259.478563"/>
      </g>
     </g>
     <g id="text_7">
      <!-- 25 -->
      <g transform="translate(37.875 263.277782)scale(0.1 -0.1)">
       <defs>
        <path d="M 19.1875 8.296875 
L 53.609375 8.296875 
L 53.609375 0 
L 7.328125 0 
L 7.328125 8.296875 
Q 12.9375 14.109375 22.625 23.890625 
Q 32.328125 33.6875 34.8125 36.53125 
Q 39.546875 41.84375 41.421875 45.53125 
Q 43.3125 49.21875 43.3125 52.78125 
Q 43.3125 58.59375 39.234375 62.25 
Q 35.15625 65.921875 28.609375 65.921875 
Q 23.96875 65.921875 18.8125 64.3125 
Q 13.671875 62.703125 7.8125 59.421875 
L 7.8125 69.390625 
Q 13.765625 71.78125 18.9375 73 
Q 24.125 74.21875 28.421875 74.21875 
Q 39.75 74.21875 46.484375 68.546875 
Q 53.21875 62.890625 53.21875 53.421875 
Q 53.21875 48.921875 51.53125 44.890625 
Q 49.859375 40.875 45.40625 35.40625 
Q 44.1875 33.984375 37.640625 27.21875 
Q 31.109375 20.453125 19.1875 8.296875 
z
" id="DejaVuSans-50"/>
       </defs>
       <use xlink:href="#DejaVuSans-50"/>
       <use x="63.623047" xlink:href="#DejaVuSans-53"/>
      </g>
     </g>
    </g>
    <g id="ytick_3">
     <g id="line2d_8">
      <g>
       <use style="stroke:#000000;stroke-width:0.8;" x="57.6" xlink:href="#mc66975a820" y="223.524472"/>
      </g>
     </g>
     <g id="text_8">
      <!-- 50 -->
      <g transform="translate(37.875 227.323691)scale(0.1 -0.1)">
       <use xlink:href="#DejaVuSans-53"/>
       <use x="63.623047" xlink:href="#DejaVuSans-48"/>
      </g>
     </g>
    </g>
    <g id="ytick_4">
     <g id="line2d_9">
      <g>
       <use style="stroke:#000000;stroke-width:0.8;" x="57.6" xlink:href="#mc66975a820" y="187.570381"/>
      </g>
     </g>
     <g id="text_9">
      <!-- 75 -->
      <g transform="translate(37.875 191.3696)scale(0.1 -0.1)">
       <defs>
        <path d="M 8.203125 72.90625 
L 55.078125 72.90625 
L 55.078125 68.703125 
L 28.609375 0 
L 18.3125 0 
L 43.21875 64.59375 
L 8.203125 64.59375 
z
" id="DejaVuSans-55"/>
       </defs>
       <use xlink:href="#DejaVuSans-55"/>
       <use x="63.623047" xlink:href="#DejaVuSans-53"/>
      </g>
     </g>
    </g>
    <g id="ytick_5">
     <g id="line2d_10">
      <g>
       <use style="stroke:#000000;stroke-width:0.8;" x="57.6" xlink:href="#mc66975a820" y="151.61629"/>
      </g>
     </g>
     <g id="text_10">
      <!-- 100 -->
      <g transform="translate(31.5125 155.415509)scale(0.1 -0.1)">
       <use xlink:href="#DejaVuSans-49"/>
       <use x="63.623047" xlink:href="#DejaVuSans-48"/>
       <use x="127.246094" xlink:href="#DejaVuSans-48"/>
      </g>
     </g>
    </g>
    <g id="ytick_6">
     <g id="line2d_11">
      <g>
       <use style="stroke:#000000;stroke-width:0.8;" x="57.6" xlink:href="#mc66975a820" y="115.662199"/>
      </g>
     </g>
     <g id="text_11">
      <!-- 125 -->
      <g transform="translate(31.5125 119.461418)scale(0.1 -0.1)">
       <use xlink:href="#DejaVuSans-49"/>
       <use x="63.623047" xlink:href="#DejaVuSans-50"/>
       <use x="127.246094" xlink:href="#DejaVuSans-53"/>
      </g>
     </g>
    </g>
    <g id="ytick_7">
     <g id="line2d_12">
      <g>
       <use style="stroke:#000000;stroke-width:0.8;" x="57.6" xlink:href="#mc66975a820" y="79.708108"/>
      </g>
     </g>
     <g id="text_12">
      <!-- 150 -->
      <g transform="translate(31.5125 83.507327)scale(0.1 -0.1)">
       <use xlink:href="#DejaVuSans-49"/>
       <use x="63.623047" xlink:href="#DejaVuSans-53"/>
       <use x="127.246094" xlink:href="#DejaVuSans-48"/>
      </g>
     </g>
    </g>
    <g id="ytick_8">
     <g id="line2d_13">
      <g>
       <use style="stroke:#000000;stroke-width:0.8;" x="57.6" xlink:href="#mc66975a820" y="43.754017"/>
      </g>
     </g>
     <g id="text_13">
      <!-- 175 -->
      <g transform="translate(31.5125 47.553236)scale(0.1 -0.1)">
       <use xlink:href="#DejaVuSans-49"/>
       <use x="63.623047" xlink:href="#DejaVuSans-55"/>
       <use x="127.246094" xlink:href="#DejaVuSans-53"/>
      </g>
     </g>
    </g>
   </g>
   <g id="line2d_14">
    <path clip-path="url(#pc863e9258e)" d="M 258.328619 295.432654 
L 258.584682 278.404003 
L 259.122334 255.671249 
L 259.636856 249.876025 
L 260.612249 240.183523 
L 260.837406 236.353835 
L 260.862208 232.581599 
L 260.615938 228.88709 
L 260.027884 225.290587 
L 259.58359 223.535424 
L 258.971812 221.805892 
L 258.152969 220.095921 
L 257.15539 218.404855 
L 254.737333 215.076803 
L 251.944265 211.816471 
L 244.808145 203.927368 
L 242.487205 200.862598 
L 241.554371 199.347053 
L 240.811064 197.841857 
L 240.285613 196.346353 
L 240.006345 194.859882 
L 240.001589 193.381786 
L 240.312619 191.929626 
L 240.937965 190.517841 
L 241.841835 189.141087 
L 242.988437 187.794025 
L 244.341982 186.471311 
L 247.526731 183.877563 
L 252.961136 180.036015 
L 256.604697 177.445378 
L 259.930706 174.781201 
L 261.385151 173.40818 
L 262.652833 172.000749 
L 263.697963 170.553567 
L 264.484749 169.06129 
L 264.977399 167.518578 
L 265.174446 165.925923 
L 265.117168 164.290042 
L 264.833891 162.614923 
L 264.352942 160.904558 
L 263.702648 159.162936 
L 262.007333 155.601882 
L 258.902446 150.125632 
L 255.803107 144.583542 
L 254.117655 140.90544 
L 253.474141 139.083348 
L 253.001206 137.27788 
L 252.727175 135.493029 
L 252.680376 133.732784 
L 252.866858 131.990984 
L 253.257757 130.258109 
L 253.829022 128.533109 
L 254.556604 126.814934 
L 256.384527 123.39486 
L 258.549134 119.989485 
L 264.17108 111.485235 
L 265.999003 108.06516 
L 266.726585 106.346985 
L 267.29785 104.621986 
L 267.688748 102.889111 
L 267.875231 101.147311 
L 267.853722 97.504959 
L 267.49438 93.6314 
L 266.812535 89.627207 
L 265.823516 85.592951 
L 264.542651 81.629206 
L 262.985272 77.836544 
L 261.166707 74.315537 
L 259.102286 71.166758 
L 257.98267 69.763382 
L 256.807339 68.490778 
L 255.578208 67.361517 
L 254.235439 66.332178 
L 252.730221 65.354089 
L 251.08101 64.431947 
L 247.424429 62.774284 
L 243.413341 61.396756 
L 239.195393 60.336929 
L 234.91823 59.632371 
L 230.729497 59.320647 
L 228.714432 59.323838 
L 226.776841 59.439326 
L 224.935181 59.671805 
L 223.207907 60.025973 
L 221.613475 60.506524 
L 220.17034 61.118155 
L 218.860482 61.900135 
L 217.648011 62.877444 
L 216.52458 64.033338 
L 215.481841 65.351076 
L 214.511446 66.813914 
L 212.7543 70.107922 
L 211.186363 73.781426 
L 209.043143 79.71024 
L 206.224472 87.693457 
L 204.681578 91.417187 
L 203.847524 93.153484 
L 203.847524 93.153484 
" style="fill:none;stroke:#fea952;stroke-linecap:square;"/>
   </g>
   <g id="line2d_15">
    <path clip-path="url(#pc863e9258e)" d="M 252.576231 295.377308 
L 252.833135 278.291093 
L 253.385942 255.238995 
L 253.916567 249.266655 
L 254.873378 239.785535 
L 255.086156 236.226748 
L 255.115538 232.843942 
L 254.915961 229.663809 
L 254.451129 226.702263 
L 253.783364 224.290452 
L 253.198193 223.018801 
L 252.412215 221.659903 
L 250.316123 218.757285 
L 247.695506 215.694755 
L 240.310849 207.514478 
L 238.90539 205.74019 
L 237.588186 203.877998 
L 236.396368 201.894216 
L 235.383668 199.748794 
L 234.631871 197.408538 
L 234.25372 194.878393 
L 234.376513 192.176981 
L 235.052857 189.599833 
L 236.129072 187.360693 
L 237.461229 185.412371 
L 238.967824 183.679696 
L 240.603455 182.099075 
L 244.13974 179.22769 
L 249.665138 175.321205 
L 253.102758 172.881448 
L 255.981743 170.598053 
L 257.989187 168.632747 
L 259.004733 167.3113 
L 259.268274 166.81223 
L 259.425315 166.127222 
L 259.445046 165.249247 
L 259.296015 164.172155 
L 258.963706 162.916812 
L 258.451483 161.512043 
L 256.957458 158.357204 
L 253.927608 153.014233 
L 251.712144 149.137996 
L 249.615323 145.004916 
L 248.693351 142.821156 
L 247.90924 140.541053 
L 247.315176 138.150865 
L 246.976553 135.64592 
L 246.96041 133.120385 
L 247.255208 130.72512 
L 247.796772 128.449605 
L 248.531748 126.289913 
L 249.415666 124.233503 
L 251.489887 120.372355 
L 253.78245 116.768964 
L 259.166632 108.648241 
L 260.701729 105.821964 
L 261.686199 103.356121 
L 261.968783 102.276713 
L 262.123525 101.042863 
L 262.116046 97.91981 
L 261.806532 94.492457 
L 261.201769 90.896987 
L 260.317906 87.260674 
L 259.178199 83.706628 
L 257.81404 80.35674 
L 256.268863 77.332847 
L 254.605401 74.754383 
L 252.915341 72.726978 
L 252.078361 71.927052 
L 251.100992 71.155898 
L 248.568881 69.607103 
L 245.435294 68.172096 
L 241.896423 66.945809 
L 238.141092 65.992147 
L 234.356947 65.357578 
L 230.738607 65.073295 
L 227.497302 65.146687 
L 224.867959 65.5339 
L 223.119141 66.057548 
L 222.470627 66.378962 
L 221.773268 66.886845 
L 221.035706 67.60304 
L 220.275632 68.531107 
L 218.751174 70.976184 
L 217.278076 74.076723 
L 215.866682 77.66271 
L 210.751132 91.875107 
L 209.03294 95.644367 
L 209.03294 95.644367 
" style="fill:none;stroke:#ffffff;stroke-linecap:square;"/>
   </g>
   <g id="line2d_16">
    <path clip-path="url(#pc863e9258e)" d="M 264.081008 295.488 
L 264.373326 276.627142 
L 264.858726 256.103503 
L 265.357144 250.485395 
L 266.35112 240.581511 
L 266.588657 236.480922 
L 266.608877 232.319255 
L 266.315916 228.110372 
L 266.019397 225.995201 
L 265.60464 223.878912 
L 265.006953 221.617048 
L 264.16026 219.321332 
L 263.107745 217.173041 
L 261.898564 215.149808 
L 260.571336 213.230102 
L 257.689651 209.635349 
L 253.230269 204.717104 
L 249.305441 200.340257 
L 247.386225 197.847197 
L 246.23846 195.93492 
L 245.572381 194.25942 
L 245.746858 193.674988 
L 246.222441 192.869804 
L 247.009051 191.908353 
L 248.080509 190.843547 
L 250.913722 188.527437 
L 256.257134 184.750825 
L 260.106636 182.009308 
L 263.87967 178.964348 
L 265.659562 177.258172 
L 267.316479 175.368752 
L 268.786655 173.236521 
L 269.964764 170.81128 
L 270.686524 168.224925 
L 270.923578 165.724624 
L 270.789289 163.330837 
L 270.371766 161.057692 
L 269.742178 158.892303 
L 268.953813 156.813829 
L 267.057208 152.84656 
L 263.877284 147.237031 
L 260.972879 142.060352 
L 259.541958 138.989725 
L 258.687235 136.404896 
L 258.477797 135.340138 
L 258.400341 134.345182 
L 258.478509 133.256848 
L 258.718741 132.066613 
L 259.126295 130.776306 
L 259.697542 129.396366 
L 261.279167 126.417364 
L 263.315818 123.210006 
L 268.013477 116.21174 
L 270.280089 112.358992 
L 271.296276 110.308357 
L 272.187569 108.155489 
L 272.909501 105.88785 
L 273.408714 103.501509 
L 273.626937 101.25176 
L 273.591399 97.090108 
L 273.182228 92.770343 
L 272.423301 88.357427 
L 271.329125 83.925229 
L 269.907104 79.551785 
L 268.156505 75.316348 
L 266.064552 71.298227 
L 264.881567 69.395894 
L 263.599172 67.579132 
L 262.208714 65.860359 
L 260.699336 64.254578 
L 259.078054 62.795982 
L 257.369886 61.508458 
L 255.537705 60.333027 
L 253.593139 59.256791 
L 251.547732 58.272443 
L 247.203337 56.567941 
L 242.607845 55.217906 
L 237.869244 54.243158 
L 233.092804 53.679677 
L 230.720387 53.568 
L 228.37216 53.581375 
L 226.05638 53.731965 
L 223.779673 54.036396 
L 221.547854 54.518046 
L 219.368668 55.209933 
L 217.221539 56.178761 
L 215.250337 57.421309 
L 213.522755 58.868043 
L 212.013454 60.463636 
L 210.688049 62.171044 
L 209.512881 63.966567 
L 208.458922 65.834036 
L 206.623632 69.734494 
L 205.038276 73.774553 
L 199.496162 88.926304 
L 198.662109 90.662602 
L 198.662109 90.662602 
" style="fill:none;stroke:#ffffff;stroke-linecap:square;"/>
   </g>
   <g id="patch_3">
    <path d="M 57.6 307.584 
L 57.6 41.472 
" style="fill:none;stroke:#000000;stroke-linecap:square;stroke-linejoin:miter;stroke-width:0.8;"/>
   </g>
   <g id="patch_4">
    <path d="M 414.72 307.584 
L 414.72 41.472 
" style="fill:none;stroke:#000000;stroke-linecap:square;stroke-linejoin:miter;stroke-width:0.8;"/>
   </g>
   <g id="patch_5">
    <path d="M 57.6 307.584 
L 414.72 307.584 
" style="fill:none;stroke:#000000;stroke-linecap:square;stroke-linejoin:miter;stroke-width:0.8;"/>
   </g>
   <g id="patch_6">
    <path d="M 57.6 41.472 
L 414.72 41.472 
" style="fill:none;stroke:#000000;stroke-linecap:square;stroke-linejoin:miter;stroke-width:0.8;"/>
   </g>
  </g>
 </g>
 <defs>
  <clipPath id="pc863e9258e">
   <rect height="266.112" width="357.12" x="57.6" y="41.472"/>
  </clipPath>
 </defs>
</svg>
