<?xml version="1.0" encoding="utf-8" standalone="no"?>
<!DOCTYPE svg PUBLIC "-//W3C//DTD SVG 1.1//EN"
  "http://www.w3.org/Graphics/SVG/1.1/DTD/svg11.dtd">
<!-- Created with matplotlib (https://matplotlib.org/) -->
<svg height="345.6pt" version="1.1" viewBox="0 0 460.8 345.6" width="460.8pt" xmlns="http://www.w3.org/2000/svg" xmlns:xlink="http://www.w3.org/1999/xlink">
 <metadata>
  <rdf:RDF xmlns:cc="http://creativecommons.org/ns#" xmlns:dc="http://purl.org/dc/elements/1.1/" xmlns:rdf="http://www.w3.org/1999/02/22-rdf-syntax-ns#">
   <cc:Work>
    <dc:type rdf:resource="http://purl.org/dc/dcmitype/StillImage"/>
    <dc:date>2021-05-26T13:08:26.042005</dc:date>
    <dc:format>image/svg+xml</dc:format>
    <dc:creator>
     <cc:Agent>
      <dc:title>Matplotlib v3.3.3, https://matplotlib.org/</dc:title>
     </cc:Agent>
    </dc:creator>
   </cc:Work>
  </rdf:RDF>
 </metadata>
 <defs>
  <style type="text/css">*{stroke-linecap:butt;stroke-linejoin:round;}</style>
 </defs>
 <g id="figure_1">
  <g id="patch_1">
   <path d="M 0 345.6 
L 460.8 345.6 
L 460.8 0 
L 0 0 
z
" style="fill:#ffffff;"/>
  </g>
  <g id="axes_1">
   <g id="patch_2">
    <path d="M 57.6 307.584 
L 414.72 307.584 
L 414.72 41.472 
L 57.6 41.472 
z
" style="fill:#7d9051;"/>
   </g>
   <g id="matplotlib.axis_1">
    <g id="xtick_1">
     <g id="line2d_1">
      <defs>
       <path d="M 0 0 
L 0 3.5 
" id="m6380311ae9" style="stroke:#000000;stroke-width:0.8;"/>
      </defs>
      <g>
       <use style="stroke:#000000;stroke-width:0.8;" x="110.188738" xlink:href="#m6380311ae9" y="307.584"/>
      </g>
     </g>
     <g id="text_1">
      <!-- −100 -->
      <g transform="translate(96.455144 322.182437)scale(0.1 -0.1)">
       <defs>
        <path d="M 10.59375 35.5 
L 73.1875 35.5 
L 73.1875 27.203125 
L 10.59375 27.203125 
z
" id="DejaVuSans-8722"/>
        <path d="M 12.40625 8.296875 
L 28.515625 8.296875 
L 28.515625 63.921875 
L 10.984375 60.40625 
L 10.984375 69.390625 
L 28.421875 72.90625 
L 38.28125 72.90625 
L 38.28125 8.296875 
L 54.390625 8.296875 
L 54.390625 0 
L 12.40625 0 
z
" id="DejaVuSans-49"/>
        <path d="M 31.78125 66.40625 
Q 24.171875 66.40625 20.328125 58.90625 
Q 16.5 51.421875 16.5 36.375 
Q 16.5 21.390625 20.328125 13.890625 
Q 24.171875 6.390625 31.78125 6.390625 
Q 39.453125 6.390625 43.28125 13.890625 
Q 47.125 21.390625 47.125 36.375 
Q 47.125 51.421875 43.28125 58.90625 
Q 39.453125 66.40625 31.78125 66.40625 
z
M 31.78125 74.21875 
Q 44.046875 74.21875 50.515625 64.515625 
Q 56.984375 54.828125 56.984375 36.375 
Q 56.984375 17.96875 50.515625 8.265625 
Q 44.046875 -1.421875 31.78125 -1.421875 
Q 19.53125 -1.421875 13.0625 8.265625 
Q 6.59375 17.96875 6.59375 36.375 
Q 6.59375 54.828125 13.0625 64.515625 
Q 19.53125 74.21875 31.78125 74.21875 
z
" id="DejaVuSans-48"/>
       </defs>
       <use xlink:href="#DejaVuSans-8722"/>
       <use x="83.789062" xlink:href="#DejaVuSans-49"/>
       <use x="147.412109" xlink:href="#DejaVuSans-48"/>
       <use x="211.035156" xlink:href="#DejaVuSans-48"/>
      </g>
     </g>
    </g>
    <g id="xtick_2">
     <g id="line2d_2">
      <g>
       <use style="stroke:#000000;stroke-width:0.8;" x="169.647651" xlink:href="#m6380311ae9" y="307.584"/>
      </g>
     </g>
     <g id="text_2">
      <!-- −50 -->
      <g transform="translate(159.095308 322.182437)scale(0.1 -0.1)">
       <defs>
        <path d="M 10.796875 72.90625 
L 49.515625 72.90625 
L 49.515625 64.59375 
L 19.828125 64.59375 
L 19.828125 46.734375 
Q 21.96875 47.46875 24.109375 47.828125 
Q 26.265625 48.1875 28.421875 48.1875 
Q 40.625 48.1875 47.75 41.5 
Q 54.890625 34.8125 54.890625 23.390625 
Q 54.890625 11.625 47.5625 5.09375 
Q 40.234375 -1.421875 26.90625 -1.421875 
Q 22.3125 -1.421875 17.546875 -0.640625 
Q 12.796875 0.140625 7.71875 1.703125 
L 7.71875 11.625 
Q 12.109375 9.234375 16.796875 8.0625 
Q 21.484375 6.890625 26.703125 6.890625 
Q 35.15625 6.890625 40.078125 11.328125 
Q 45.015625 15.765625 45.015625 23.390625 
Q 45.015625 31 40.078125 35.4375 
Q 35.15625 39.890625 26.703125 39.890625 
Q 22.75 39.890625 18.8125 39.015625 
Q 14.890625 38.140625 10.796875 36.28125 
z
" id="DejaVuSans-53"/>
       </defs>
       <use xlink:href="#DejaVuSans-8722"/>
       <use x="83.789062" xlink:href="#DejaVuSans-53"/>
       <use x="147.412109" xlink:href="#DejaVuSans-48"/>
      </g>
     </g>
    </g>
    <g id="xtick_3">
     <g id="line2d_3">
      <g>
       <use style="stroke:#000000;stroke-width:0.8;" x="229.106565" xlink:href="#m6380311ae9" y="307.584"/>
      </g>
     </g>
     <g id="text_3">
      <!-- 0 -->
      <g transform="translate(225.925315 322.182437)scale(0.1 -0.1)">
       <use xlink:href="#DejaVuSans-48"/>
      </g>
     </g>
    </g>
    <g id="xtick_4">
     <g id="line2d_4">
      <g>
       <use style="stroke:#000000;stroke-width:0.8;" x="288.565479" xlink:href="#m6380311ae9" y="307.584"/>
      </g>
     </g>
     <g id="text_4">
      <!-- 50 -->
      <g transform="translate(282.202979 322.182437)scale(0.1 -0.1)">
       <use xlink:href="#DejaVuSans-53"/>
       <use x="63.623047" xlink:href="#DejaVuSans-48"/>
      </g>
     </g>
    </g>
    <g id="xtick_5">
     <g id="line2d_5">
      <g>
       <use style="stroke:#000000;stroke-width:0.8;" x="348.024393" xlink:href="#m6380311ae9" y="307.584"/>
      </g>
     </g>
     <g id="text_5">
      <!-- 100 -->
      <g transform="translate(338.480643 322.182437)scale(0.1 -0.1)">
       <use xlink:href="#DejaVuSans-49"/>
       <use x="63.623047" xlink:href="#DejaVuSans-48"/>
       <use x="127.246094" xlink:href="#DejaVuSans-48"/>
      </g>
     </g>
    </g>
    <g id="xtick_6">
     <g id="line2d_6">
      <g>
       <use style="stroke:#000000;stroke-width:0.8;" x="407.483306" xlink:href="#m6380311ae9" y="307.584"/>
      </g>
     </g>
     <g id="text_6">
      <!-- 150 -->
      <g transform="translate(397.939556 322.182437)scale(0.1 -0.1)">
       <use xlink:href="#DejaVuSans-49"/>
       <use x="63.623047" xlink:href="#DejaVuSans-53"/>
       <use x="127.246094" xlink:href="#DejaVuSans-48"/>
      </g>
     </g>
    </g>
   </g>
   <g id="matplotlib.axis_2">
    <g id="ytick_1">
     <g id="line2d_7">
      <defs>
       <path d="M 0 0 
L -3.5 0 
" id="mf90609446f" style="stroke:#000000;stroke-width:0.8;"/>
      </defs>
      <g>
       <use style="stroke:#000000;stroke-width:0.8;" x="57.6" xlink:href="#mf90609446f" y="295.442236"/>
      </g>
     </g>
     <g id="text_7">
      <!-- 0 -->
      <g transform="translate(44.2375 299.241455)scale(0.1 -0.1)">
       <use xlink:href="#DejaVuSans-48"/>
      </g>
     </g>
    </g>
    <g id="ytick_2">
     <g id="line2d_8">
      <g>
       <use style="stroke:#000000;stroke-width:0.8;" x="57.6" xlink:href="#mf90609446f" y="265.712779"/>
      </g>
     </g>
     <g id="text_8">
      <!-- 25 -->
      <g transform="translate(37.875 269.511998)scale(0.1 -0.1)">
       <defs>
        <path d="M 19.1875 8.296875 
L 53.609375 8.296875 
L 53.609375 0 
L 7.328125 0 
L 7.328125 8.296875 
Q 12.9375 14.109375 22.625 23.890625 
Q 32.328125 33.6875 34.8125 36.53125 
Q 39.546875 41.84375 41.421875 45.53125 
Q 43.3125 49.21875 43.3125 52.78125 
Q 43.3125 58.59375 39.234375 62.25 
Q 35.15625 65.921875 28.609375 65.921875 
Q 23.96875 65.921875 18.8125 64.3125 
Q 13.671875 62.703125 7.8125 59.421875 
L 7.8125 69.390625 
Q 13.765625 71.78125 18.9375 73 
Q 24.125 74.21875 28.421875 74.21875 
Q 39.75 74.21875 46.484375 68.546875 
Q 53.21875 62.890625 53.21875 53.421875 
Q 53.21875 48.921875 51.53125 44.890625 
Q 49.859375 40.875 45.40625 35.40625 
Q 44.1875 33.984375 37.640625 27.21875 
Q 31.109375 20.453125 19.1875 8.296875 
z
" id="DejaVuSans-50"/>
       </defs>
       <use xlink:href="#DejaVuSans-50"/>
       <use x="63.623047" xlink:href="#DejaVuSans-53"/>
      </g>
     </g>
    </g>
    <g id="ytick_3">
     <g id="line2d_9">
      <g>
       <use style="stroke:#000000;stroke-width:0.8;" x="57.6" xlink:href="#mf90609446f" y="235.983322"/>
      </g>
     </g>
     <g id="text_9">
      <!-- 50 -->
      <g transform="translate(37.875 239.782541)scale(0.1 -0.1)">
       <use xlink:href="#DejaVuSans-53"/>
       <use x="63.623047" xlink:href="#DejaVuSans-48"/>
      </g>
     </g>
    </g>
    <g id="ytick_4">
     <g id="line2d_10">
      <g>
       <use style="stroke:#000000;stroke-width:0.8;" x="57.6" xlink:href="#mf90609446f" y="206.253865"/>
      </g>
     </g>
     <g id="text_10">
      <!-- 75 -->
      <g transform="translate(37.875 210.053084)scale(0.1 -0.1)">
       <defs>
        <path d="M 8.203125 72.90625 
L 55.078125 72.90625 
L 55.078125 68.703125 
L 28.609375 0 
L 18.3125 0 
L 43.21875 64.59375 
L 8.203125 64.59375 
z
" id="DejaVuSans-55"/>
       </defs>
       <use xlink:href="#DejaVuSans-55"/>
       <use x="63.623047" xlink:href="#DejaVuSans-53"/>
      </g>
     </g>
    </g>
    <g id="ytick_5">
     <g id="line2d_11">
      <g>
       <use style="stroke:#000000;stroke-width:0.8;" x="57.6" xlink:href="#mf90609446f" y="176.524409"/>
      </g>
     </g>
     <g id="text_11">
      <!-- 100 -->
      <g transform="translate(31.5125 180.323627)scale(0.1 -0.1)">
       <use xlink:href="#DejaVuSans-49"/>
       <use x="63.623047" xlink:href="#DejaVuSans-48"/>
       <use x="127.246094" xlink:href="#DejaVuSans-48"/>
      </g>
     </g>
    </g>
    <g id="ytick_6">
     <g id="line2d_12">
      <g>
       <use style="stroke:#000000;stroke-width:0.8;" x="57.6" xlink:href="#mf90609446f" y="146.794952"/>
      </g>
     </g>
     <g id="text_12">
      <!-- 125 -->
      <g transform="translate(31.5125 150.59417)scale(0.1 -0.1)">
       <use xlink:href="#DejaVuSans-49"/>
       <use x="63.623047" xlink:href="#DejaVuSans-50"/>
       <use x="127.246094" xlink:href="#DejaVuSans-53"/>
      </g>
     </g>
    </g>
    <g id="ytick_7">
     <g id="line2d_13">
      <g>
       <use style="stroke:#000000;stroke-width:0.8;" x="57.6" xlink:href="#mf90609446f" y="117.065495"/>
      </g>
     </g>
     <g id="text_13">
      <!-- 150 -->
      <g transform="translate(31.5125 120.864714)scale(0.1 -0.1)">
       <use xlink:href="#DejaVuSans-49"/>
       <use x="63.623047" xlink:href="#DejaVuSans-53"/>
       <use x="127.246094" xlink:href="#DejaVuSans-48"/>
      </g>
     </g>
    </g>
    <g id="ytick_8">
     <g id="line2d_14">
      <g>
       <use style="stroke:#000000;stroke-width:0.8;" x="57.6" xlink:href="#mf90609446f" y="87.336038"/>
      </g>
     </g>
     <g id="text_14">
      <!-- 175 -->
      <g transform="translate(31.5125 91.135257)scale(0.1 -0.1)">
       <use xlink:href="#DejaVuSans-49"/>
       <use x="63.623047" xlink:href="#DejaVuSans-55"/>
       <use x="127.246094" xlink:href="#DejaVuSans-53"/>
      </g>
     </g>
    </g>
    <g id="ytick_9">
     <g id="line2d_15">
      <g>
       <use style="stroke:#000000;stroke-width:0.8;" x="57.6" xlink:href="#mf90609446f" y="57.606581"/>
      </g>
     </g>
     <g id="text_15">
      <!-- 200 -->
      <g transform="translate(31.5125 61.4058)scale(0.1 -0.1)">
       <use xlink:href="#DejaVuSans-50"/>
       <use x="63.623047" xlink:href="#DejaVuSans-48"/>
       <use x="127.246094" xlink:href="#DejaVuSans-48"/>
      </g>
     </g>
    </g>
   </g>
   <g id="line2d_16">
    <path clip-path="url(#pa5e011ff85)" d="M 229.106565 295.442236 
L 229.380325 278.232834 
L 229.606703 262.567341 
L 229.284591 256.185775 
L 228.88195 248.208818 
L 228.886961 245.065654 
L 229.06451 241.971964 
L 229.466358 238.942592 
L 230.144266 235.992378 
L 231.170501 233.147246 
L 232.530545 230.405786 
L 234.145983 227.741841 
L 236.876473 223.834051 
L 241.593389 217.338104 
L 243.309582 214.669401 
L 244.810683 211.921277 
L 246.677924 207.617943 
L 249.074952 201.647101 
L 250.684025 197.062081 
L 251.596478 193.982024 
L 252.336914 190.90039 
L 252.867782 187.831857 
L 253.151533 184.791105 
L 253.150618 181.79281 
L 252.862323 178.787877 
L 252.323499 175.735348 
L 251.555938 172.662109 
L 250.581437 169.595044 
L 249.421788 166.561038 
L 248.098786 163.586976 
L 246.634226 160.699743 
L 245.049902 157.926224 
L 243.367609 155.293304 
L 241.544835 152.840786 
L 240.461388 151.710428 
L 237.972881 149.618033 
L 235.178274 147.696468 
L 225.112715 141.387668 
L 222.76303 139.43889 
L 221.767924 138.399924 
L 220.917187 137.307188 
L 220.229226 136.152641 
L 219.722448 134.928244 
L 219.386794 133.637766 
L 219.192622 132.293669 
L 219.128968 130.900949 
L 219.349358 127.989625 
L 219.960258 124.943768 
L 220.873959 121.80335 
L 222.620396 117.00286 
L 228.1396 103.126816 
L 229.698471 100.164832 
L 232.380566 95.73474 
L 235.920856 89.914069 
L 237.385254 87.067243 
L 238.473738 84.278519 
L 238.83668 82.90964 
L 239.057245 81.55972 
L 239.119301 80.230237 
L 239.006715 78.922669 
L 238.71516 77.640214 
L 238.260393 76.38361 
L 237.656404 75.15064 
L 236.917182 73.939089 
L 235.088996 71.57138 
L 232.887754 69.262758 
L 230.425372 66.995496 
L 220.202788 57.985535 
L 219.113825 56.829377 
L 219.113825 56.829377 
" style="fill:none;stroke:#fea952;stroke-linecap:square;"/>
   </g>
   <g id="line2d_17">
    <path clip-path="url(#pa5e011ff85)" d="M 224.350072 295.396472 
L 224.624588 278.136483 
L 224.852804 262.730938 
L 224.537513 256.488386 
L 224.17326 249.932324 
L 224.134274 244.869999 
L 224.337012 241.44558 
L 224.804462 237.997583 
L 225.619928 234.523814 
L 226.19054 232.797946 
L 227.606145 229.546449 
L 229.287551 226.528784 
L 231.131461 223.6982 
L 234.95551 218.431051 
L 237.630115 214.707749 
L 239.18452 212.300819 
L 240.484449 209.943901 
L 242.285869 205.791424 
L 244.613146 199.998283 
L 246.139213 195.658155 
L 247.34975 191.396769 
L 247.930065 188.636548 
L 248.298348 185.967086 
L 248.433865 183.408002 
L 248.314715 180.851184 
L 247.954613 178.178974 
L 247.371593 175.428062 
L 246.581814 172.634031 
L 245.604007 169.831588 
L 244.458741 167.054484 
L 243.16798 164.335658 
L 241.010033 160.437354 
L 238.773005 156.99798 
L 238.110828 156.132278 
L 236.315271 154.370851 
L 233.980467 152.607291 
L 231.25321 150.851461 
L 223.695834 146.205608 
L 220.729711 143.992486 
L 219.327798 142.729103 
L 218.014586 141.322043 
L 216.830915 139.74208 
L 215.834108 137.971778 
L 215.118907 136.125628 
L 214.678953 134.317876 
L 214.440869 132.510848 
L 214.375853 130.715966 
L 214.457461 128.937397 
L 214.972663 125.428527 
L 215.840976 121.975569 
L 216.949601 118.57643 
L 218.851354 113.609966 
L 221.902453 105.970441 
L 223.13592 102.662099 
L 224.715665 99.356855 
L 226.499925 96.211198 
L 232.419305 86.393538 
L 233.498898 84.082088 
L 234.142217 82.142605 
L 234.380123 80.638298 
L 234.368356 79.977157 
L 234.242345 79.258931 
L 233.988684 78.476172 
L 233.059978 76.722665 
L 231.578215 74.780855 
L 229.623011 72.722204 
L 226.050349 69.495991 
L 219.356932 63.753163 
L 216.740168 61.246911 
L 215.651205 60.090754 
L 215.651205 60.090754 
" style="fill:none;stroke:#ffffff;stroke-linecap:square;"/>
   </g>
   <g id="line2d_18">
    <path clip-path="url(#pa5e011ff85)" d="M 233.863058 295.488 
L 234.136062 278.329185 
L 234.360602 262.403743 
L 234.031668 255.883164 
L 233.638423 248.161078 
L 233.694758 243.86162 
L 233.935305 241.173273 
L 234.374286 238.641771 
L 235.030973 236.312491 
L 236.021251 233.983934 
L 237.33493 231.602733 
L 238.91848 229.163327 
L 242.619157 224.067877 
L 245.556664 219.96846 
L 247.434645 217.037983 
L 249.136917 213.898654 
L 251.069978 209.444463 
L 253.536759 203.295919 
L 255.228836 198.466007 
L 256.204995 195.16011 
L 257.008917 191.794093 
L 257.593433 188.374576 
L 257.906773 184.909475 
L 257.894161 181.439087 
L 257.561235 178.048589 
L 256.956969 174.659583 
L 256.110449 171.289974 
L 255.047708 167.958357 
L 253.792613 164.684283 
L 252.367446 161.488199 
L 250.793221 158.391262 
L 249.089772 155.415095 
L 247.275628 152.581533 
L 246.220062 151.077962 
L 244.978842 149.549294 
L 243.634392 148.166649 
L 242.21393 146.906864 
L 239.228805 144.672543 
L 236.171197 142.707833 
L 229.165124 138.421512 
L 227.038481 136.871763 
L 225.521262 135.477806 
L 224.624344 134.333505 
L 224.32599 133.73086 
L 223.944375 132.07649 
L 223.912274 129.991807 
L 224.25029 127.533503 
L 224.928504 124.790193 
L 225.884299 121.843914 
L 227.666495 117.187475 
L 230.859687 109.175632 
L 231.818721 106.549804 
L 233.055057 103.935045 
L 234.625669 101.158679 
L 240.964651 90.574727 
L 242.470205 87.247671 
L 243.071585 85.497584 
L 243.531142 83.676675 
L 243.808785 81.781507 
L 243.858479 79.822177 
L 243.645073 77.86818 
L 243.187975 76.021497 
L 242.532103 74.291047 
L 241.716965 72.673107 
L 240.774385 71.155512 
L 238.599778 68.361904 
L 236.152497 65.803311 
L 233.543966 63.403742 
L 223.665409 54.724158 
L 222.576445 53.568 
L 222.576445 53.568 
" style="fill:none;stroke:#ffffff;stroke-linecap:square;"/>
   </g>
   <g id="patch_3">
    <path d="M 57.6 307.584 
L 57.6 41.472 
" style="fill:none;stroke:#000000;stroke-linecap:square;stroke-linejoin:miter;stroke-width:0.8;"/>
   </g>
   <g id="patch_4">
    <path d="M 414.72 307.584 
L 414.72 41.472 
" style="fill:none;stroke:#000000;stroke-linecap:square;stroke-linejoin:miter;stroke-width:0.8;"/>
   </g>
   <g id="patch_5">
    <path d="M 57.6 307.584 
L 414.72 307.584 
" style="fill:none;stroke:#000000;stroke-linecap:square;stroke-linejoin:miter;stroke-width:0.8;"/>
   </g>
   <g id="patch_6">
    <path d="M 57.6 41.472 
L 414.72 41.472 
" style="fill:none;stroke:#000000;stroke-linecap:square;stroke-linejoin:miter;stroke-width:0.8;"/>
   </g>
  </g>
 </g>
 <defs>
  <clipPath id="pa5e011ff85">
   <rect height="266.112" width="357.12" x="57.6" y="41.472"/>
  </clipPath>
 </defs>
</svg>
