<?xml version="1.0" encoding="utf-8" standalone="no"?>
<!DOCTYPE svg PUBLIC "-//W3C//DTD SVG 1.1//EN"
  "http://www.w3.org/Graphics/SVG/1.1/DTD/svg11.dtd">
<!-- Created with matplotlib (https://matplotlib.org/) -->
<svg height="345.6pt" version="1.1" viewBox="0 0 460.8 345.6" width="460.8pt" xmlns="http://www.w3.org/2000/svg" xmlns:xlink="http://www.w3.org/1999/xlink">
 <metadata>
  <rdf:RDF xmlns:cc="http://creativecommons.org/ns#" xmlns:dc="http://purl.org/dc/elements/1.1/" xmlns:rdf="http://www.w3.org/1999/02/22-rdf-syntax-ns#">
   <cc:Work>
    <dc:type rdf:resource="http://purl.org/dc/dcmitype/StillImage"/>
    <dc:date>2021-06-19T00:03:02.350169</dc:date>
    <dc:format>image/svg+xml</dc:format>
    <dc:creator>
     <cc:Agent>
      <dc:title>Matplotlib v3.3.3, https://matplotlib.org/</dc:title>
     </cc:Agent>
    </dc:creator>
   </cc:Work>
  </rdf:RDF>
 </metadata>
 <defs>
  <style type="text/css">*{stroke-linecap:butt;stroke-linejoin:round;}</style>
 </defs>
 <g id="figure_1">
  <g id="patch_1">
   <path d="M 0 345.6 
L 460.8 345.6 
L 460.8 0 
L 0 0 
z
" style="fill:#ffffff;"/>
  </g>
  <g id="axes_1">
   <g id="patch_2">
    <path d="M 57.6 307.584 
L 414.72 307.584 
L 414.72 41.472 
L 57.6 41.472 
z
" style="fill:#7d9051;"/>
   </g>
   <g id="matplotlib.axis_1">
    <g id="xtick_1">
     <g id="line2d_1">
      <defs>
       <path d="M 0 0 
L 0 3.5 
" id="m1041f6db00" style="stroke:#000000;stroke-width:0.8;"/>
      </defs>
      <g>
       <use style="stroke:#000000;stroke-width:0.8;" x="77.819288" xlink:href="#m1041f6db00" y="307.584"/>
      </g>
     </g>
     <g id="text_1">
      <!-- −100 -->
      <g transform="translate(64.085694 322.182437)scale(0.1 -0.1)">
       <defs>
        <path d="M 10.59375 35.5 
L 73.1875 35.5 
L 73.1875 27.203125 
L 10.59375 27.203125 
z
" id="DejaVuSans-8722"/>
        <path d="M 12.40625 8.296875 
L 28.515625 8.296875 
L 28.515625 63.921875 
L 10.984375 60.40625 
L 10.984375 69.390625 
L 28.421875 72.90625 
L 38.28125 72.90625 
L 38.28125 8.296875 
L 54.390625 8.296875 
L 54.390625 0 
L 12.40625 0 
z
" id="DejaVuSans-49"/>
        <path d="M 31.78125 66.40625 
Q 24.171875 66.40625 20.328125 58.90625 
Q 16.5 51.421875 16.5 36.375 
Q 16.5 21.390625 20.328125 13.890625 
Q 24.171875 6.390625 31.78125 6.390625 
Q 39.453125 6.390625 43.28125 13.890625 
Q 47.125 21.390625 47.125 36.375 
Q 47.125 51.421875 43.28125 58.90625 
Q 39.453125 66.40625 31.78125 66.40625 
z
M 31.78125 74.21875 
Q 44.046875 74.21875 50.515625 64.515625 
Q 56.984375 54.828125 56.984375 36.375 
Q 56.984375 17.96875 50.515625 8.265625 
Q 44.046875 -1.421875 31.78125 -1.421875 
Q 19.53125 -1.421875 13.0625 8.265625 
Q 6.59375 17.96875 6.59375 36.375 
Q 6.59375 54.828125 13.0625 64.515625 
Q 19.53125 74.21875 31.78125 74.21875 
z
" id="DejaVuSans-48"/>
       </defs>
       <use xlink:href="#DejaVuSans-8722"/>
       <use x="83.789062" xlink:href="#DejaVuSans-49"/>
       <use x="147.412109" xlink:href="#DejaVuSans-48"/>
       <use x="211.035156" xlink:href="#DejaVuSans-48"/>
      </g>
     </g>
    </g>
    <g id="xtick_2">
     <g id="line2d_2">
      <g>
       <use style="stroke:#000000;stroke-width:0.8;" x="144.390969" xlink:href="#m1041f6db00" y="307.584"/>
      </g>
     </g>
     <g id="text_2">
      <!-- −50 -->
      <g transform="translate(133.838625 322.182437)scale(0.1 -0.1)">
       <defs>
        <path d="M 10.796875 72.90625 
L 49.515625 72.90625 
L 49.515625 64.59375 
L 19.828125 64.59375 
L 19.828125 46.734375 
Q 21.96875 47.46875 24.109375 47.828125 
Q 26.265625 48.1875 28.421875 48.1875 
Q 40.625 48.1875 47.75 41.5 
Q 54.890625 34.8125 54.890625 23.390625 
Q 54.890625 11.625 47.5625 5.09375 
Q 40.234375 -1.421875 26.90625 -1.421875 
Q 22.3125 -1.421875 17.546875 -0.640625 
Q 12.796875 0.140625 7.71875 1.703125 
L 7.71875 11.625 
Q 12.109375 9.234375 16.796875 8.0625 
Q 21.484375 6.890625 26.703125 6.890625 
Q 35.15625 6.890625 40.078125 11.328125 
Q 45.015625 15.765625 45.015625 23.390625 
Q 45.015625 31 40.078125 35.4375 
Q 35.15625 39.890625 26.703125 39.890625 
Q 22.75 39.890625 18.8125 39.015625 
Q 14.890625 38.140625 10.796875 36.28125 
z
" id="DejaVuSans-53"/>
       </defs>
       <use xlink:href="#DejaVuSans-8722"/>
       <use x="83.789062" xlink:href="#DejaVuSans-53"/>
       <use x="147.412109" xlink:href="#DejaVuSans-48"/>
      </g>
     </g>
    </g>
    <g id="xtick_3">
     <g id="line2d_3">
      <g>
       <use style="stroke:#000000;stroke-width:0.8;" x="210.96265" xlink:href="#m1041f6db00" y="307.584"/>
      </g>
     </g>
     <g id="text_3">
      <!-- 0 -->
      <g transform="translate(207.7814 322.182437)scale(0.1 -0.1)">
       <use xlink:href="#DejaVuSans-48"/>
      </g>
     </g>
    </g>
    <g id="xtick_4">
     <g id="line2d_4">
      <g>
       <use style="stroke:#000000;stroke-width:0.8;" x="277.534331" xlink:href="#m1041f6db00" y="307.584"/>
      </g>
     </g>
     <g id="text_4">
      <!-- 50 -->
      <g transform="translate(271.171831 322.182437)scale(0.1 -0.1)">
       <use xlink:href="#DejaVuSans-53"/>
       <use x="63.623047" xlink:href="#DejaVuSans-48"/>
      </g>
     </g>
    </g>
    <g id="xtick_5">
     <g id="line2d_5">
      <g>
       <use style="stroke:#000000;stroke-width:0.8;" x="344.106012" xlink:href="#m1041f6db00" y="307.584"/>
      </g>
     </g>
     <g id="text_5">
      <!-- 100 -->
      <g transform="translate(334.562262 322.182437)scale(0.1 -0.1)">
       <use xlink:href="#DejaVuSans-49"/>
       <use x="63.623047" xlink:href="#DejaVuSans-48"/>
       <use x="127.246094" xlink:href="#DejaVuSans-48"/>
      </g>
     </g>
    </g>
    <g id="xtick_6">
     <g id="line2d_6">
      <g>
       <use style="stroke:#000000;stroke-width:0.8;" x="410.677693" xlink:href="#m1041f6db00" y="307.584"/>
      </g>
     </g>
     <g id="text_6">
      <!-- 150 -->
      <g transform="translate(401.133943 322.182437)scale(0.1 -0.1)">
       <use xlink:href="#DejaVuSans-49"/>
       <use x="63.623047" xlink:href="#DejaVuSans-53"/>
       <use x="127.246094" xlink:href="#DejaVuSans-48"/>
      </g>
     </g>
    </g>
   </g>
   <g id="matplotlib.axis_2">
    <g id="ytick_1">
     <g id="line2d_7">
      <defs>
       <path d="M 0 0 
L -3.5 0 
" id="m2dca79d309" style="stroke:#000000;stroke-width:0.8;"/>
      </defs>
      <g>
       <use style="stroke:#000000;stroke-width:0.8;" x="57.6" xlink:href="#m2dca79d309" y="295.436761"/>
      </g>
     </g>
     <g id="text_7">
      <!-- 0 -->
      <g transform="translate(44.2375 299.23598)scale(0.1 -0.1)">
       <use xlink:href="#DejaVuSans-48"/>
      </g>
     </g>
    </g>
    <g id="ytick_2">
     <g id="line2d_8">
      <g>
       <use style="stroke:#000000;stroke-width:0.8;" x="57.6" xlink:href="#m2dca79d309" y="262.150921"/>
      </g>
     </g>
     <g id="text_8">
      <!-- 25 -->
      <g transform="translate(37.875 265.95014)scale(0.1 -0.1)">
       <defs>
        <path d="M 19.1875 8.296875 
L 53.609375 8.296875 
L 53.609375 0 
L 7.328125 0 
L 7.328125 8.296875 
Q 12.9375 14.109375 22.625 23.890625 
Q 32.328125 33.6875 34.8125 36.53125 
Q 39.546875 41.84375 41.421875 45.53125 
Q 43.3125 49.21875 43.3125 52.78125 
Q 43.3125 58.59375 39.234375 62.25 
Q 35.15625 65.921875 28.609375 65.921875 
Q 23.96875 65.921875 18.8125 64.3125 
Q 13.671875 62.703125 7.8125 59.421875 
L 7.8125 69.390625 
Q 13.765625 71.78125 18.9375 73 
Q 24.125 74.21875 28.421875 74.21875 
Q 39.75 74.21875 46.484375 68.546875 
Q 53.21875 62.890625 53.21875 53.421875 
Q 53.21875 48.921875 51.53125 44.890625 
Q 49.859375 40.875 45.40625 35.40625 
Q 44.1875 33.984375 37.640625 27.21875 
Q 31.109375 20.453125 19.1875 8.296875 
z
" id="DejaVuSans-50"/>
       </defs>
       <use xlink:href="#DejaVuSans-50"/>
       <use x="63.623047" xlink:href="#DejaVuSans-53"/>
      </g>
     </g>
    </g>
    <g id="ytick_3">
     <g id="line2d_9">
      <g>
       <use style="stroke:#000000;stroke-width:0.8;" x="57.6" xlink:href="#m2dca79d309" y="228.86508"/>
      </g>
     </g>
     <g id="text_9">
      <!-- 50 -->
      <g transform="translate(37.875 232.664299)scale(0.1 -0.1)">
       <use xlink:href="#DejaVuSans-53"/>
       <use x="63.623047" xlink:href="#DejaVuSans-48"/>
      </g>
     </g>
    </g>
    <g id="ytick_4">
     <g id="line2d_10">
      <g>
       <use style="stroke:#000000;stroke-width:0.8;" x="57.6" xlink:href="#m2dca79d309" y="195.57924"/>
      </g>
     </g>
     <g id="text_10">
      <!-- 75 -->
      <g transform="translate(37.875 199.378459)scale(0.1 -0.1)">
       <defs>
        <path d="M 8.203125 72.90625 
L 55.078125 72.90625 
L 55.078125 68.703125 
L 28.609375 0 
L 18.3125 0 
L 43.21875 64.59375 
L 8.203125 64.59375 
z
" id="DejaVuSans-55"/>
       </defs>
       <use xlink:href="#DejaVuSans-55"/>
       <use x="63.623047" xlink:href="#DejaVuSans-53"/>
      </g>
     </g>
    </g>
    <g id="ytick_5">
     <g id="line2d_11">
      <g>
       <use style="stroke:#000000;stroke-width:0.8;" x="57.6" xlink:href="#m2dca79d309" y="162.2934"/>
      </g>
     </g>
     <g id="text_11">
      <!-- 100 -->
      <g transform="translate(31.5125 166.092618)scale(0.1 -0.1)">
       <use xlink:href="#DejaVuSans-49"/>
       <use x="63.623047" xlink:href="#DejaVuSans-48"/>
       <use x="127.246094" xlink:href="#DejaVuSans-48"/>
      </g>
     </g>
    </g>
    <g id="ytick_6">
     <g id="line2d_12">
      <g>
       <use style="stroke:#000000;stroke-width:0.8;" x="57.6" xlink:href="#m2dca79d309" y="129.007559"/>
      </g>
     </g>
     <g id="text_12">
      <!-- 125 -->
      <g transform="translate(31.5125 132.806778)scale(0.1 -0.1)">
       <use xlink:href="#DejaVuSans-49"/>
       <use x="63.623047" xlink:href="#DejaVuSans-50"/>
       <use x="127.246094" xlink:href="#DejaVuSans-53"/>
      </g>
     </g>
    </g>
    <g id="ytick_7">
     <g id="line2d_13">
      <g>
       <use style="stroke:#000000;stroke-width:0.8;" x="57.6" xlink:href="#m2dca79d309" y="95.721719"/>
      </g>
     </g>
     <g id="text_13">
      <!-- 150 -->
      <g transform="translate(31.5125 99.520937)scale(0.1 -0.1)">
       <use xlink:href="#DejaVuSans-49"/>
       <use x="63.623047" xlink:href="#DejaVuSans-53"/>
       <use x="127.246094" xlink:href="#DejaVuSans-48"/>
      </g>
     </g>
    </g>
    <g id="ytick_8">
     <g id="line2d_14">
      <g>
       <use style="stroke:#000000;stroke-width:0.8;" x="57.6" xlink:href="#m2dca79d309" y="62.435878"/>
      </g>
     </g>
     <g id="text_14">
      <!-- 175 -->
      <g transform="translate(31.5125 66.235097)scale(0.1 -0.1)">
       <use xlink:href="#DejaVuSans-49"/>
       <use x="63.623047" xlink:href="#DejaVuSans-55"/>
       <use x="127.246094" xlink:href="#DejaVuSans-53"/>
      </g>
     </g>
    </g>
   </g>
   <g id="line2d_15">
    <path clip-path="url(#p7d029a1dcd)" d="M 210.96265 295.436761 
L 211.234095 277.920267 
L 211.685058 258.633463 
L 212.109962 253.298615 
L 213.023571 242.613602 
L 213.139069 239.097315 
L 213.065528 235.626412 
L 212.746238 232.214509 
L 212.124486 228.87522 
L 211.652284 227.239913 
L 211.039524 225.630544 
L 209.464073 222.478245 
L 207.541627 219.395586 
L 204.321233 214.852439 
L 201.12725 210.338092 
L 199.251756 207.306632 
L 197.746735 204.231131 
L 197.177993 202.66976 
L 196.755679 201.088853 
L 196.49773 199.485567 
L 196.314442 196.138484 
L 196.434841 192.606828 
L 196.845601 188.962456 
L 197.533391 185.277224 
L 198.484884 181.622989 
L 199.686751 178.071607 
L 201.125664 174.694934 
L 202.788294 171.564827 
L 204.661312 168.753142 
L 205.672551 167.489163 
L 206.76303 166.321801 
L 207.958037 165.23967 
L 210.62685 163.304426 
L 213.609425 161.630082 
L 216.836197 160.163292 
L 220.237601 158.850706 
L 227.286042 156.474756 
L 232.513391 154.700806 
L 239.200546 152.214225 
L 242.758144 151.215101 
L 250.123171 149.512435 
L 255.530237 148.168983 
L 258.919707 147.086902 
L 262.037632 145.75934 
L 263.468155 144.977704 
L 264.798858 144.103738 
L 266.019097 143.12712 
L 267.118227 142.037531 
L 268.133118 140.81902 
L 270.030052 138.008048 
L 271.723115 134.787436 
L 273.18022 131.263936 
L 274.369278 127.544301 
L 275.258202 123.735283 
L 275.814903 119.943633 
L 276.007296 116.276105 
L 275.803291 112.839451 
L 275.542611 111.241062 
L 275.1708 109.740423 
L 274.622002 108.332872 
L 273.849751 106.998969 
L 272.879118 105.729888 
L 271.735174 104.516805 
L 269.027638 102.223333 
L 265.927713 100.047958 
L 257.777426 94.662892 
L 254.883617 92.344897 
L 253.61549 91.115465 
L 252.499977 89.82731 
L 251.562149 88.471608 
L 250.827077 87.039534 
L 250.268967 85.537797 
L 249.838041 83.982072 
L 249.523399 82.376989 
L 249.19936 79.037253 
L 249.209635 75.555608 
L 249.467013 71.969075 
L 250.125618 66.47359 
L 251.054634 59.12468 
L 251.344716 55.524265 
L 251.407996 53.758763 
L 251.407996 53.758763 
" style="fill:none;stroke:#fea952;stroke-linecap:square;"/>
   </g>
   <g id="line2d_16">
    <path clip-path="url(#p7d029a1dcd)" d="M 205.637162 295.385523 
L 205.909427 277.813677 
L 206.371552 258.272769 
L 206.808213 252.793741 
L 207.703019 242.378702 
L 207.813415 239.126653 
L 207.753983 236.01492 
L 207.487778 233.058342 
L 207.007793 230.352686 
L 206.675109 229.134951 
L 205.61102 226.561818 
L 204.069933 223.829023 
L 202.159252 220.965787 
L 195.570181 211.541017 
L 193.589823 207.966863 
L 192.742645 206.053911 
L 192.032681 204.044247 
L 191.497563 201.934819 
L 191.18864 199.906295 
L 190.989172 196.068165 
L 191.132355 192.109756 
L 191.593769 188.078313 
L 192.356706 184.026074 
L 193.40982 180.008316 
L 194.746706 176.081782 
L 196.36695 172.303681 
L 198.278673 168.731672 
L 200.502702 165.426069 
L 201.780711 163.853641 
L 203.188226 162.374116 
L 204.689197 161.035133 
L 206.26588 159.824165 
L 209.591597 157.731062 
L 213.078309 155.987755 
L 216.659533 154.500639 
L 222.074284 152.581778 
L 232.228425 149.127387 
L 235.799376 147.736663 
L 239.590071 146.547237 
L 245.261429 145.145492 
L 252.380449 143.49989 
L 255.538988 142.611287 
L 258.290797 141.62127 
L 260.544537 140.526199 
L 262.269686 139.344876 
L 263.026001 138.629139 
L 264.603269 136.625837 
L 266.130965 134.079884 
L 267.519369 131.127068 
L 268.70594 127.902305 
L 269.643446 124.539185 
L 270.295114 121.172948 
L 270.634829 117.944705 
L 270.65315 115.006218 
L 270.373187 112.521883 
L 270.012958 111.001236 
L 269.619468 110.234422 
L 269.004457 109.383714 
L 268.16747 108.470908 
L 265.900137 106.534039 
L 263.019335 104.509436 
L 254.55514 98.903212 
L 252.841576 97.592059 
L 251.176543 96.168645 
L 249.589518 94.601866 
L 248.120089 92.857166 
L 246.824125 90.903598 
L 245.834949 88.894825 
L 245.13649 86.959459 
L 244.611776 85.006569 
L 244.239995 83.047127 
L 244.000647 81.088066 
L 243.843909 77.186116 
L 244.006482 73.319799 
L 244.603721 67.622471 
L 245.909769 56.954051 
L 246.085679 53.568 
L 246.085679 53.568 
" style="fill:none;stroke:#ffffff;stroke-linecap:square;"/>
   </g>
   <g id="line2d_17">
    <path clip-path="url(#p7d029a1dcd)" d="M 216.288138 295.488 
L 216.558763 278.026857 
L 216.998565 258.994158 
L 217.581051 252.025192 
L 218.227974 244.71742 
L 218.425911 240.965014 
L 218.451568 237.158502 
L 218.231478 233.307877 
L 217.686423 229.429323 
L 217.241178 227.397753 
L 216.62946 225.344876 
L 215.871295 223.39058 
L 214.997263 221.526718 
L 213.004579 218.03024 
L 210.830992 214.780748 
L 204.734143 206.111875 
L 203.298113 203.584753 
L 202.323305 201.295274 
L 202.013796 200.242886 
L 201.80682 199.064839 
L 201.639712 196.208802 
L 201.737328 193.1039 
L 202.097433 189.846598 
L 202.710077 186.528374 
L 203.559949 183.237662 
L 204.626796 180.061432 
L 205.884378 177.086187 
L 207.297914 174.397983 
L 208.819921 172.080216 
L 210.337835 170.269487 
L 212.231871 168.648038 
L 214.574933 167.144889 
L 217.314959 165.760399 
L 220.379302 164.481476 
L 225.413857 162.696176 
L 234.366592 159.69371 
L 242.330058 156.840257 
L 247.593379 155.538557 
L 255.140122 153.787649 
L 258.968197 152.695647 
L 262.745073 151.296662 
L 264.591273 150.432922 
L 266.391773 149.42921 
L 268.126704 148.261728 
L 269.768508 146.909364 
L 271.210452 145.445924 
L 272.452599 143.93439 
L 273.606858 142.316986 
L 275.677181 138.804666 
L 277.446966 134.986681 
L 278.91458 130.941622 
L 280.063078 126.7494 
L 280.865057 122.488282 
L 281.282459 118.230659 
L 281.330828 116.122981 
L 281.260547 114.038276 
L 281.059581 111.98221 
L 280.712035 109.96024 
L 280.13272 107.805791 
L 279.231046 105.664509 
L 278.080034 103.763515 
L 276.753779 102.076061 
L 275.302878 100.562701 
L 273.761473 99.185427 
L 270.506119 96.719413 
L 265.523884 93.445331 
L 260.999713 90.422571 
L 258.590691 88.521149 
L 256.879866 86.797454 
L 256.300174 86.039619 
L 255.819206 85.184243 
L 255.064307 82.957576 
L 254.627632 80.366279 
L 254.492409 77.437595 
L 254.619291 74.226479 
L 255.164839 69.006875 
L 256.357402 59.618745 
L 256.667033 55.715028 
L 256.730312 53.949526 
L 256.730312 53.949526 
" style="fill:none;stroke:#ffffff;stroke-linecap:square;"/>
   </g>
   <g id="patch_3">
    <path d="M 57.6 307.584 
L 57.6 41.472 
" style="fill:none;stroke:#000000;stroke-linecap:square;stroke-linejoin:miter;stroke-width:0.8;"/>
   </g>
   <g id="patch_4">
    <path d="M 414.72 307.584 
L 414.72 41.472 
" style="fill:none;stroke:#000000;stroke-linecap:square;stroke-linejoin:miter;stroke-width:0.8;"/>
   </g>
   <g id="patch_5">
    <path d="M 57.6 307.584 
L 414.72 307.584 
" style="fill:none;stroke:#000000;stroke-linecap:square;stroke-linejoin:miter;stroke-width:0.8;"/>
   </g>
   <g id="patch_6">
    <path d="M 57.6 41.472 
L 414.72 41.472 
" style="fill:none;stroke:#000000;stroke-linecap:square;stroke-linejoin:miter;stroke-width:0.8;"/>
   </g>
  </g>
 </g>
 <defs>
  <clipPath id="p7d029a1dcd">
   <rect height="266.112" width="357.12" x="57.6" y="41.472"/>
  </clipPath>
 </defs>
</svg>
