<?xml version="1.0" encoding="utf-8" standalone="no"?>
<!DOCTYPE svg PUBLIC "-//W3C//DTD SVG 1.1//EN"
  "http://www.w3.org/Graphics/SVG/1.1/DTD/svg11.dtd">
<!-- Created with matplotlib (https://matplotlib.org/) -->
<svg height="345.6pt" version="1.1" viewBox="0 0 460.8 345.6" width="460.8pt" xmlns="http://www.w3.org/2000/svg" xmlns:xlink="http://www.w3.org/1999/xlink">
 <metadata>
  <rdf:RDF xmlns:cc="http://creativecommons.org/ns#" xmlns:dc="http://purl.org/dc/elements/1.1/" xmlns:rdf="http://www.w3.org/1999/02/22-rdf-syntax-ns#">
   <cc:Work>
    <dc:type rdf:resource="http://purl.org/dc/dcmitype/StillImage"/>
    <dc:date>2021-06-14T11:02:50.669640</dc:date>
    <dc:format>image/svg+xml</dc:format>
    <dc:creator>
     <cc:Agent>
      <dc:title>Matplotlib v3.3.3, https://matplotlib.org/</dc:title>
     </cc:Agent>
    </dc:creator>
   </cc:Work>
  </rdf:RDF>
 </metadata>
 <defs>
  <style type="text/css">*{stroke-linecap:butt;stroke-linejoin:round;}</style>
 </defs>
 <g id="figure_1">
  <g id="patch_1">
   <path d="M 0 345.6 
L 460.8 345.6 
L 460.8 0 
L 0 0 
z
" style="fill:#ffffff;"/>
  </g>
  <g id="axes_1">
   <g id="patch_2">
    <path d="M 57.6 307.584 
L 414.72 307.584 
L 414.72 41.472 
L 57.6 41.472 
z
" style="fill:#7d9051;"/>
   </g>
   <g id="matplotlib.axis_1">
    <g id="xtick_1">
     <g id="line2d_1">
      <defs>
       <path d="M 0 0 
L 0 3.5 
" id="mb6bcb049b8" style="stroke:#000000;stroke-width:0.8;"/>
      </defs>
      <g>
       <use style="stroke:#000000;stroke-width:0.8;" x="91.35578" xlink:href="#mb6bcb049b8" y="307.584"/>
      </g>
     </g>
     <g id="text_1">
      <!-- −80 -->
      <g transform="translate(80.803436 322.182437)scale(0.1 -0.1)">
       <defs>
        <path d="M 10.59375 35.5 
L 73.1875 35.5 
L 73.1875 27.203125 
L 10.59375 27.203125 
z
" id="DejaVuSans-8722"/>
        <path d="M 31.78125 34.625 
Q 24.75 34.625 20.71875 30.859375 
Q 16.703125 27.09375 16.703125 20.515625 
Q 16.703125 13.921875 20.71875 10.15625 
Q 24.75 6.390625 31.78125 6.390625 
Q 38.8125 6.390625 42.859375 10.171875 
Q 46.921875 13.96875 46.921875 20.515625 
Q 46.921875 27.09375 42.890625 30.859375 
Q 38.875 34.625 31.78125 34.625 
z
M 21.921875 38.8125 
Q 15.578125 40.375 12.03125 44.71875 
Q 8.5 49.078125 8.5 55.328125 
Q 8.5 64.0625 14.71875 69.140625 
Q 20.953125 74.21875 31.78125 74.21875 
Q 42.671875 74.21875 48.875 69.140625 
Q 55.078125 64.0625 55.078125 55.328125 
Q 55.078125 49.078125 51.53125 44.71875 
Q 48 40.375 41.703125 38.8125 
Q 48.828125 37.15625 52.796875 32.3125 
Q 56.78125 27.484375 56.78125 20.515625 
Q 56.78125 9.90625 50.3125 4.234375 
Q 43.84375 -1.421875 31.78125 -1.421875 
Q 19.734375 -1.421875 13.25 4.234375 
Q 6.78125 9.90625 6.78125 20.515625 
Q 6.78125 27.484375 10.78125 32.3125 
Q 14.796875 37.15625 21.921875 38.8125 
z
M 18.3125 54.390625 
Q 18.3125 48.734375 21.84375 45.5625 
Q 25.390625 42.390625 31.78125 42.390625 
Q 38.140625 42.390625 41.71875 45.5625 
Q 45.3125 48.734375 45.3125 54.390625 
Q 45.3125 60.0625 41.71875 63.234375 
Q 38.140625 66.40625 31.78125 66.40625 
Q 25.390625 66.40625 21.84375 63.234375 
Q 18.3125 60.0625 18.3125 54.390625 
z
" id="DejaVuSans-56"/>
        <path d="M 31.78125 66.40625 
Q 24.171875 66.40625 20.328125 58.90625 
Q 16.5 51.421875 16.5 36.375 
Q 16.5 21.390625 20.328125 13.890625 
Q 24.171875 6.390625 31.78125 6.390625 
Q 39.453125 6.390625 43.28125 13.890625 
Q 47.125 21.390625 47.125 36.375 
Q 47.125 51.421875 43.28125 58.90625 
Q 39.453125 66.40625 31.78125 66.40625 
z
M 31.78125 74.21875 
Q 44.046875 74.21875 50.515625 64.515625 
Q 56.984375 54.828125 56.984375 36.375 
Q 56.984375 17.96875 50.515625 8.265625 
Q 44.046875 -1.421875 31.78125 -1.421875 
Q 19.53125 -1.421875 13.0625 8.265625 
Q 6.59375 17.96875 6.59375 36.375 
Q 6.59375 54.828125 13.0625 64.515625 
Q 19.53125 74.21875 31.78125 74.21875 
z
" id="DejaVuSans-48"/>
       </defs>
       <use xlink:href="#DejaVuSans-8722"/>
       <use x="83.789062" xlink:href="#DejaVuSans-56"/>
       <use x="147.412109" xlink:href="#DejaVuSans-48"/>
      </g>
     </g>
    </g>
    <g id="xtick_2">
     <g id="line2d_2">
      <g>
       <use style="stroke:#000000;stroke-width:0.8;" x="143.356542" xlink:href="#mb6bcb049b8" y="307.584"/>
      </g>
     </g>
     <g id="text_2">
      <!-- −60 -->
      <g transform="translate(132.804198 322.182437)scale(0.1 -0.1)">
       <defs>
        <path d="M 33.015625 40.375 
Q 26.375 40.375 22.484375 35.828125 
Q 18.609375 31.296875 18.609375 23.390625 
Q 18.609375 15.53125 22.484375 10.953125 
Q 26.375 6.390625 33.015625 6.390625 
Q 39.65625 6.390625 43.53125 10.953125 
Q 47.40625 15.53125 47.40625 23.390625 
Q 47.40625 31.296875 43.53125 35.828125 
Q 39.65625 40.375 33.015625 40.375 
z
M 52.59375 71.296875 
L 52.59375 62.3125 
Q 48.875 64.0625 45.09375 64.984375 
Q 41.3125 65.921875 37.59375 65.921875 
Q 27.828125 65.921875 22.671875 59.328125 
Q 17.53125 52.734375 16.796875 39.40625 
Q 19.671875 43.65625 24.015625 45.921875 
Q 28.375 48.1875 33.59375 48.1875 
Q 44.578125 48.1875 50.953125 41.515625 
Q 57.328125 34.859375 57.328125 23.390625 
Q 57.328125 12.15625 50.6875 5.359375 
Q 44.046875 -1.421875 33.015625 -1.421875 
Q 20.359375 -1.421875 13.671875 8.265625 
Q 6.984375 17.96875 6.984375 36.375 
Q 6.984375 53.65625 15.1875 63.9375 
Q 23.390625 74.21875 37.203125 74.21875 
Q 40.921875 74.21875 44.703125 73.484375 
Q 48.484375 72.75 52.59375 71.296875 
z
" id="DejaVuSans-54"/>
       </defs>
       <use xlink:href="#DejaVuSans-8722"/>
       <use x="83.789062" xlink:href="#DejaVuSans-54"/>
       <use x="147.412109" xlink:href="#DejaVuSans-48"/>
      </g>
     </g>
    </g>
    <g id="xtick_3">
     <g id="line2d_3">
      <g>
       <use style="stroke:#000000;stroke-width:0.8;" x="195.357304" xlink:href="#mb6bcb049b8" y="307.584"/>
      </g>
     </g>
     <g id="text_3">
      <!-- −40 -->
      <g transform="translate(184.80496 322.182437)scale(0.1 -0.1)">
       <defs>
        <path d="M 37.796875 64.3125 
L 12.890625 25.390625 
L 37.796875 25.390625 
z
M 35.203125 72.90625 
L 47.609375 72.90625 
L 47.609375 25.390625 
L 58.015625 25.390625 
L 58.015625 17.1875 
L 47.609375 17.1875 
L 47.609375 0 
L 37.796875 0 
L 37.796875 17.1875 
L 4.890625 17.1875 
L 4.890625 26.703125 
z
" id="DejaVuSans-52"/>
       </defs>
       <use xlink:href="#DejaVuSans-8722"/>
       <use x="83.789062" xlink:href="#DejaVuSans-52"/>
       <use x="147.412109" xlink:href="#DejaVuSans-48"/>
      </g>
     </g>
    </g>
    <g id="xtick_4">
     <g id="line2d_4">
      <g>
       <use style="stroke:#000000;stroke-width:0.8;" x="247.358066" xlink:href="#mb6bcb049b8" y="307.584"/>
      </g>
     </g>
     <g id="text_4">
      <!-- −20 -->
      <g transform="translate(236.805722 322.182437)scale(0.1 -0.1)">
       <defs>
        <path d="M 19.1875 8.296875 
L 53.609375 8.296875 
L 53.609375 0 
L 7.328125 0 
L 7.328125 8.296875 
Q 12.9375 14.109375 22.625 23.890625 
Q 32.328125 33.6875 34.8125 36.53125 
Q 39.546875 41.84375 41.421875 45.53125 
Q 43.3125 49.21875 43.3125 52.78125 
Q 43.3125 58.59375 39.234375 62.25 
Q 35.15625 65.921875 28.609375 65.921875 
Q 23.96875 65.921875 18.8125 64.3125 
Q 13.671875 62.703125 7.8125 59.421875 
L 7.8125 69.390625 
Q 13.765625 71.78125 18.9375 73 
Q 24.125 74.21875 28.421875 74.21875 
Q 39.75 74.21875 46.484375 68.546875 
Q 53.21875 62.890625 53.21875 53.421875 
Q 53.21875 48.921875 51.53125 44.890625 
Q 49.859375 40.875 45.40625 35.40625 
Q 44.1875 33.984375 37.640625 27.21875 
Q 31.109375 20.453125 19.1875 8.296875 
z
" id="DejaVuSans-50"/>
       </defs>
       <use xlink:href="#DejaVuSans-8722"/>
       <use x="83.789062" xlink:href="#DejaVuSans-50"/>
       <use x="147.412109" xlink:href="#DejaVuSans-48"/>
      </g>
     </g>
    </g>
    <g id="xtick_5">
     <g id="line2d_5">
      <g>
       <use style="stroke:#000000;stroke-width:0.8;" x="299.358828" xlink:href="#mb6bcb049b8" y="307.584"/>
      </g>
     </g>
     <g id="text_5">
      <!-- 0 -->
      <g transform="translate(296.177578 322.182437)scale(0.1 -0.1)">
       <use xlink:href="#DejaVuSans-48"/>
      </g>
     </g>
    </g>
    <g id="xtick_6">
     <g id="line2d_6">
      <g>
       <use style="stroke:#000000;stroke-width:0.8;" x="351.35959" xlink:href="#mb6bcb049b8" y="307.584"/>
      </g>
     </g>
     <g id="text_6">
      <!-- 20 -->
      <g transform="translate(344.99709 322.182437)scale(0.1 -0.1)">
       <use xlink:href="#DejaVuSans-50"/>
       <use x="63.623047" xlink:href="#DejaVuSans-48"/>
      </g>
     </g>
    </g>
    <g id="xtick_7">
     <g id="line2d_7">
      <g>
       <use style="stroke:#000000;stroke-width:0.8;" x="403.360352" xlink:href="#mb6bcb049b8" y="307.584"/>
      </g>
     </g>
     <g id="text_7">
      <!-- 40 -->
      <g transform="translate(396.997852 322.182437)scale(0.1 -0.1)">
       <use xlink:href="#DejaVuSans-52"/>
       <use x="63.623047" xlink:href="#DejaVuSans-48"/>
      </g>
     </g>
    </g>
   </g>
   <g id="matplotlib.axis_2">
    <g id="ytick_1">
     <g id="line2d_8">
      <defs>
       <path d="M 0 0 
L -3.5 0 
" id="m30b212b53f" style="stroke:#000000;stroke-width:0.8;"/>
      </defs>
      <g>
       <use style="stroke:#000000;stroke-width:0.8;" x="57.6" xlink:href="#m30b212b53f" y="295.387941"/>
      </g>
     </g>
     <g id="text_8">
      <!-- 0 -->
      <g transform="translate(44.2375 299.187159)scale(0.1 -0.1)">
       <use xlink:href="#DejaVuSans-48"/>
      </g>
     </g>
    </g>
    <g id="ytick_2">
     <g id="line2d_9">
      <g>
       <use style="stroke:#000000;stroke-width:0.8;" x="57.6" xlink:href="#m30b212b53f" y="243.387179"/>
      </g>
     </g>
     <g id="text_9">
      <!-- 20 -->
      <g transform="translate(37.875 247.186397)scale(0.1 -0.1)">
       <use xlink:href="#DejaVuSans-50"/>
       <use x="63.623047" xlink:href="#DejaVuSans-48"/>
      </g>
     </g>
    </g>
    <g id="ytick_3">
     <g id="line2d_10">
      <g>
       <use style="stroke:#000000;stroke-width:0.8;" x="57.6" xlink:href="#m30b212b53f" y="191.386417"/>
      </g>
     </g>
     <g id="text_10">
      <!-- 40 -->
      <g transform="translate(37.875 195.185635)scale(0.1 -0.1)">
       <use xlink:href="#DejaVuSans-52"/>
       <use x="63.623047" xlink:href="#DejaVuSans-48"/>
      </g>
     </g>
    </g>
    <g id="ytick_4">
     <g id="line2d_11">
      <g>
       <use style="stroke:#000000;stroke-width:0.8;" x="57.6" xlink:href="#m30b212b53f" y="139.385654"/>
      </g>
     </g>
     <g id="text_11">
      <!-- 60 -->
      <g transform="translate(37.875 143.184873)scale(0.1 -0.1)">
       <use xlink:href="#DejaVuSans-54"/>
       <use x="63.623047" xlink:href="#DejaVuSans-48"/>
      </g>
     </g>
    </g>
    <g id="ytick_5">
     <g id="line2d_12">
      <g>
       <use style="stroke:#000000;stroke-width:0.8;" x="57.6" xlink:href="#m30b212b53f" y="87.384892"/>
      </g>
     </g>
     <g id="text_12">
      <!-- 80 -->
      <g transform="translate(37.875 91.184111)scale(0.1 -0.1)">
       <use xlink:href="#DejaVuSans-56"/>
       <use x="63.623047" xlink:href="#DejaVuSans-48"/>
      </g>
     </g>
    </g>
   </g>
   <g id="line2d_13">
    <path clip-path="url(#p4fe01fede2)" d="M 299.358828 295.387941 
L 299.693416 271.443141 
L 300.791612 216.714042 
L 301.572243 182.506622 
L 301.64834 168.825716 
L 301.657206 161.947329 
L 302.008435 154.836828 
L 302.945249 143.88109 
L 303.861315 132.887345 
L 304.175658 125.709276 
L 304.179831 122.204317 
L 304.05352 118.77263 
L 303.775363 115.427129 
L 303.323996 112.180731 
L 302.678057 109.046351 
L 301.816182 106.036906 
L 300.717009 103.16531 
L 299.359174 100.44448 
L 297.735544 97.817425 
L 295.865891 95.224514 
L 293.769208 92.674698 
L 291.464488 90.176927 
L 288.970724 87.740152 
L 286.30691 85.373324 
L 283.49204 83.085394 
L 280.545106 80.885314 
L 277.485103 78.782033 
L 274.331024 76.784503 
L 271.101861 74.901675 
L 267.816609 73.142499 
L 264.494262 71.515928 
L 261.153811 70.03091 
L 257.814251 68.696398 
L 254.494575 67.521343 
L 251.213777 66.514694 
L 247.99085 65.685404 
L 244.844788 65.042423 
L 241.646988 64.565036 
L 238.274915 64.226523 
L 234.756664 64.026826 
L 231.120331 63.965888 
L 227.39401 64.043654 
L 223.605795 64.260067 
L 219.783781 64.615069 
L 215.956063 65.108605 
L 212.150736 65.740617 
L 208.395895 66.511048 
L 204.719634 67.419843 
L 201.150048 68.466943 
L 197.715232 69.652293 
L 194.44328 70.975836 
L 191.362288 72.437515 
L 188.500349 74.037273 
L 185.88556 75.775054 
L 183.546013 77.6508 
L 181.509805 79.664456 
L 179.695187 81.932952 
L 178.005278 84.547299 
L 176.445477 87.468566 
L 175.021181 90.657821 
L 173.73779 94.07613 
L 172.6007 97.68456 
L 171.615311 101.44418 
L 170.78702 105.316057 
L 170.121226 109.261257 
L 169.623326 113.240849 
L 169.298719 117.2159 
L 169.152803 121.147476 
L 169.190976 124.996646 
L 169.418637 128.724477 
L 169.841182 132.292036 
L 170.464012 135.660391 
L 171.292523 138.790608 
L 172.332113 141.643756 
L 173.588182 144.180902 
L 175.228891 146.390644 
L 177.378634 148.310257 
L 179.97716 149.973822 
L 182.964215 151.415422 
L 186.279547 152.669137 
L 189.862904 153.769048 
L 193.654033 154.749237 
L 201.618597 156.486774 
L 209.691219 158.1544 
L 213.61742 159.047199 
L 217.389878 160.024764 
L 220.94834 161.121176 
L 224.232553 162.370518 
L 227.182266 163.806869 
L 229.737226 165.464312 
L 231.837179 167.376927 
L 233.421874 169.578797 
L 234.610132 172.107821 
L 235.565778 174.953082 
L 236.29607 178.075441 
L 236.808263 181.435756 
L 237.109613 184.994887 
L 237.207377 188.713692 
L 237.108811 192.553031 
L 236.82117 196.473764 
L 236.351712 200.436748 
L 235.707692 204.402844 
L 234.896365 208.332911 
L 233.92499 212.187807 
L 232.80082 215.928392 
L 231.531114 219.515525 
L 230.123126 222.910065 
L 228.584113 226.072871 
L 226.921331 228.964803 
L 225.142037 231.54672 
L 223.253485 233.77948 
L 221.168662 235.687905 
L 218.811288 237.33769 
L 216.204725 238.751002 
L 213.372334 239.950012 
L 210.337477 240.956889 
L 207.123515 241.793802 
L 203.75381 242.48292 
L 200.251723 243.046412 
L 192.943851 243.885198 
L 181.573216 244.755414 
L 173.992793 245.335558 
L 166.63041 246.122615 
L 163.089387 246.649159 
L 159.672959 247.293938 
L 159.672959 247.293938 
" style="fill:none;stroke:#fea952;stroke-linecap:square;"/>
   </g>
   <g id="line2d_14">
    <path clip-path="url(#p4fe01fede2)" d="M 288.959157 295.287881 
L 289.295028 271.251579 
L 290.394821 216.449645 
L 291.172797 182.385427 
L 291.248378 168.888561 
L 291.264555 161.552398 
L 291.638925 154.03907 
L 292.588271 142.934423 
L 293.47723 132.309469 
L 293.775513 125.696895 
L 293.68913 119.634364 
L 293.474299 116.85935 
L 293.137895 114.279903 
L 292.679847 111.909737 
L 292.103266 109.754761 
L 291.411302 107.809338 
L 290.512307 105.912213 
L 289.299719 103.90019 
L 287.832808 101.830022 
L 286.125745 99.727403 
L 284.195955 97.615448 
L 282.06288 95.514781 
L 279.747187 93.443839 
L 277.270279 91.419233 
L 274.654017 89.456092 
L 271.920587 87.568348 
L 269.092453 85.768964 
L 266.19238 84.070108 
L 263.24351 82.483266 
L 260.269474 81.019313 
L 257.294562 79.688517 
L 254.34393 78.500481 
L 251.443868 77.463996 
L 248.622137 76.586763 
L 245.908353 75.874927 
L 243.309207 75.328587 
L 240.608164 74.913177 
L 237.685547 74.609962 
L 234.582405 74.425518 
L 231.337329 74.363777 
L 227.987181 74.426877 
L 224.567658 74.615645 
L 221.113739 74.929835 
L 217.660042 75.368216 
L 214.241127 75.928523 
L 210.891746 76.60728 
L 207.647059 77.39949 
L 204.542781 78.298145 
L 201.615221 79.29352 
L 198.901075 80.372177 
L 196.436767 81.515666 
L 194.256898 82.698989 
L 192.391171 83.889251 
L 190.858967 85.045656 
L 189.631271 86.160992 
L 188.429476 87.578778 
L 187.179545 89.44587 
L 185.941672 91.709491 
L 184.757718 94.313368 
L 183.657099 97.201905 
L 182.661042 100.321357 
L 181.785356 103.619806 
L 181.042164 107.046721 
L 180.440923 110.552388 
L 179.988974 114.087319 
L 179.691716 117.601624 
L 179.552444 121.04434 
L 179.571789 124.362685 
L 179.746599 127.501221 
L 180.067976 130.40104 
L 180.517954 132.999297 
L 181.064225 135.23013 
L 182.155957 138.633136 
L 182.986092 139.551285 
L 184.49753 140.607424 
L 186.642859 141.687588 
L 189.331342 142.726817 
L 192.466239 143.699995 
L 195.95746 144.607373 
L 203.694307 146.295867 
L 211.997293 148.013138 
L 216.226265 148.979573 
L 220.452245 150.085696 
L 224.646124 151.400602 
L 228.785739 153.020027 
L 232.84235 155.081812 
L 236.740273 157.775326 
L 240.278444 161.301713 
L 242.834808 165.156146 
L 244.469046 168.796478 
L 245.692624 172.584504 
L 246.577474 176.508307 
L 247.171336 180.558318 
L 247.506174 184.721571 
L 247.604104 188.980604 
L 247.481088 193.313983 
L 247.14911 197.69722 
L 246.617403 202.103706 
L 245.893069 206.505522 
L 244.981268 210.874154 
L 243.885067 215.181139 
L 242.60492 219.398665 
L 241.137676 223.500136 
L 239.4749 227.460613 
L 237.600177 231.256862 
L 235.484942 234.866306 
L 233.082611 238.263151 
L 230.275798 241.450875 
L 227.131842 244.208683 
L 223.768567 246.480367 
L 220.259021 248.328363 
L 216.647266 249.821081 
L 212.95827 251.021412 
L 209.207261 251.98307 
L 205.405964 252.751004 
L 201.566026 253.363184 
L 193.82499 254.247956 
L 182.323553 255.128464 
L 171.49336 256.020404 
L 165.01815 256.868897 
L 161.601722 257.513676 
L 161.601722 257.513676 
" style="fill:none;stroke:#ffffff;stroke-linecap:square;"/>
   </g>
   <g id="line2d_15">
    <path clip-path="url(#p4fe01fede2)" d="M 309.758499 295.488 
L 310.091804 271.634703 
L 311.188403 216.978438 
L 311.97169 182.627818 
L 312.048303 168.76287 
L 312.049857 162.342261 
L 312.377946 155.634586 
L 313.302227 144.827757 
L 314.2454 133.465221 
L 314.575803 125.721657 
L 314.572945 121.821776 
L 314.41791 117.910896 
L 314.076426 113.994909 
L 313.510096 110.081559 
L 312.676266 106.182966 
L 311.529097 102.319051 
L 310.022715 98.521282 
L 308.206041 94.976746 
L 306.171369 91.73466 
L 303.898975 88.619006 
L 301.41267 85.621993 
L 298.73302 82.738405 
L 295.878568 79.965522 
L 292.866633 77.30281 
L 289.713801 74.751556 
L 286.436196 72.314536 
L 283.04962 69.995718 
L 279.569595 67.800042 
L 276.011343 65.733242 
L 272.389709 63.801732 
L 268.719049 62.012542 
L 265.013059 60.373303 
L 261.284573 58.892315 
L 257.545283 57.578689 
L 253.805417 56.442625 
L 250.073348 55.495882 
L 246.380369 54.75626 
L 242.685811 54.216896 
L 238.864282 53.843083 
L 234.930924 53.628133 
L 230.903333 53.568 
L 226.800838 53.660432 
L 222.643931 53.904489 
L 218.453823 54.300304 
L 214.252085 54.848993 
L 210.060346 55.55271 
L 205.900044 56.414816 
L 201.792209 57.440195 
L 197.757315 58.635741 
L 193.815242 60.011066 
L 189.985485 61.579495 
L 186.287808 63.359363 
L 182.743801 65.375557 
L 179.379948 67.660857 
L 176.23306 70.255945 
L 173.38834 73.167921 
L 170.960898 76.287125 
L 168.831011 79.648729 
L 166.949281 83.227642 
L 165.284645 87.002274 
L 163.81848 90.950355 
L 162.540359 95.047764 
L 161.445266 99.268554 
L 160.531876 103.585393 
L 159.801528 107.970126 
L 159.257678 112.394379 
L 158.905722 116.830175 
L 158.753162 121.250612 
L 158.810164 125.630607 
L 159.090674 129.947733 
L 159.614389 134.183032 
L 160.41007 138.321484 
L 161.52082 142.351087 
L 163.011633 146.258061 
L 165.238052 150.38078 
L 168.301825 154.148152 
L 171.771176 157.069228 
L 175.45679 159.340221 
L 179.285571 161.143256 
L 183.227753 162.611456 
L 187.25957 163.8381 
L 191.350607 164.8911 
L 199.542887 166.677682 
L 211.008574 169.114825 
L 214.32751 169.963832 
L 217.250555 170.841751 
L 219.679368 171.721008 
L 223.395915 173.452141 
L 224.008941 174.001449 
L 224.751218 175.419163 
L 225.438933 177.32166 
L 226.014666 179.642574 
L 226.44519 182.313194 
L 226.713053 185.268202 
L 226.810651 188.44678 
L 226.736534 191.79208 
L 226.493231 195.250307 
L 226.08602 198.76979 
L 225.522314 202.300166 
L 224.811463 205.791667 
L 223.964913 209.194475 
L 222.99672 212.458119 
L 221.924551 215.530914 
L 220.771351 218.359517 
L 219.568049 220.888881 
L 218.35772 223.063301 
L 217.201462 224.830289 
L 216.231172 226.108086 
L 215.205482 227.167127 
L 213.854009 228.195012 
L 212.150428 229.173641 
L 210.097402 230.078944 
L 207.716684 230.892367 
L 205.039769 231.604534 
L 202.101656 232.214836 
L 198.937421 232.729641 
L 192.062711 233.522439 
L 180.822878 234.382364 
L 173.00047 234.982855 
L 165.100744 235.83557 
L 161.160625 236.429421 
L 157.744197 237.0742 
L 157.744197 237.0742 
" style="fill:none;stroke:#ffffff;stroke-linecap:square;"/>
   </g>
   <g id="patch_3">
    <path d="M 57.6 307.584 
L 57.6 41.472 
" style="fill:none;stroke:#000000;stroke-linecap:square;stroke-linejoin:miter;stroke-width:0.8;"/>
   </g>
   <g id="patch_4">
    <path d="M 414.72 307.584 
L 414.72 41.472 
" style="fill:none;stroke:#000000;stroke-linecap:square;stroke-linejoin:miter;stroke-width:0.8;"/>
   </g>
   <g id="patch_5">
    <path d="M 57.6 307.584 
L 414.72 307.584 
" style="fill:none;stroke:#000000;stroke-linecap:square;stroke-linejoin:miter;stroke-width:0.8;"/>
   </g>
   <g id="patch_6">
    <path d="M 57.6 41.472 
L 414.72 41.472 
" style="fill:none;stroke:#000000;stroke-linecap:square;stroke-linejoin:miter;stroke-width:0.8;"/>
   </g>
  </g>
 </g>
 <defs>
  <clipPath id="p4fe01fede2">
   <rect height="266.112" width="357.12" x="57.6" y="41.472"/>
  </clipPath>
 </defs>
</svg>
