<?xml version="1.0" encoding="utf-8" standalone="no"?>
<!DOCTYPE svg PUBLIC "-//W3C//DTD SVG 1.1//EN"
  "http://www.w3.org/Graphics/SVG/1.1/DTD/svg11.dtd">
<!-- Created with matplotlib (https://matplotlib.org/) -->
<svg height="345.6pt" version="1.1" viewBox="0 0 460.8 345.6" width="460.8pt" xmlns="http://www.w3.org/2000/svg" xmlns:xlink="http://www.w3.org/1999/xlink">
 <metadata>
  <rdf:RDF xmlns:cc="http://creativecommons.org/ns#" xmlns:dc="http://purl.org/dc/elements/1.1/" xmlns:rdf="http://www.w3.org/1999/02/22-rdf-syntax-ns#">
   <cc:Work>
    <dc:type rdf:resource="http://purl.org/dc/dcmitype/StillImage"/>
    <dc:date>2021-06-17T13:49:05.097038</dc:date>
    <dc:format>image/svg+xml</dc:format>
    <dc:creator>
     <cc:Agent>
      <dc:title>Matplotlib v3.3.3, https://matplotlib.org/</dc:title>
     </cc:Agent>
    </dc:creator>
   </cc:Work>
  </rdf:RDF>
 </metadata>
 <defs>
  <style type="text/css">*{stroke-linecap:butt;stroke-linejoin:round;}</style>
 </defs>
 <g id="figure_1">
  <g id="patch_1">
   <path d="M 0 345.6 
L 460.8 345.6 
L 460.8 0 
L 0 0 
z
" style="fill:#ffffff;"/>
  </g>
  <g id="axes_1">
   <g id="patch_2">
    <path d="M 57.6 307.584 
L 414.72 307.584 
L 414.72 41.472 
L 57.6 41.472 
z
" style="fill:#7d9051;"/>
   </g>
   <g id="matplotlib.axis_1">
    <g id="xtick_1">
     <g id="line2d_1">
      <defs>
       <path d="M 0 0 
L 0 3.5 
" id="mbbbc763805" style="stroke:#000000;stroke-width:0.8;"/>
      </defs>
      <g>
       <use style="stroke:#000000;stroke-width:0.8;" x="61.280916" xlink:href="#mbbbc763805" y="307.584"/>
      </g>
     </g>
     <g id="text_1">
      <!-- −100 -->
      <g transform="translate(47.547322 322.182437)scale(0.1 -0.1)">
       <defs>
        <path d="M 10.59375 35.5 
L 73.1875 35.5 
L 73.1875 27.203125 
L 10.59375 27.203125 
z
" id="DejaVuSans-8722"/>
        <path d="M 12.40625 8.296875 
L 28.515625 8.296875 
L 28.515625 63.921875 
L 10.984375 60.40625 
L 10.984375 69.390625 
L 28.421875 72.90625 
L 38.28125 72.90625 
L 38.28125 8.296875 
L 54.390625 8.296875 
L 54.390625 0 
L 12.40625 0 
z
" id="DejaVuSans-49"/>
        <path d="M 31.78125 66.40625 
Q 24.171875 66.40625 20.328125 58.90625 
Q 16.5 51.421875 16.5 36.375 
Q 16.5 21.390625 20.328125 13.890625 
Q 24.171875 6.390625 31.78125 6.390625 
Q 39.453125 6.390625 43.28125 13.890625 
Q 47.125 21.390625 47.125 36.375 
Q 47.125 51.421875 43.28125 58.90625 
Q 39.453125 66.40625 31.78125 66.40625 
z
M 31.78125 74.21875 
Q 44.046875 74.21875 50.515625 64.515625 
Q 56.984375 54.828125 56.984375 36.375 
Q 56.984375 17.96875 50.515625 8.265625 
Q 44.046875 -1.421875 31.78125 -1.421875 
Q 19.53125 -1.421875 13.0625 8.265625 
Q 6.59375 17.96875 6.59375 36.375 
Q 6.59375 54.828125 13.0625 64.515625 
Q 19.53125 74.21875 31.78125 74.21875 
z
" id="DejaVuSans-48"/>
       </defs>
       <use xlink:href="#DejaVuSans-8722"/>
       <use x="83.789062" xlink:href="#DejaVuSans-49"/>
       <use x="147.412109" xlink:href="#DejaVuSans-48"/>
       <use x="211.035156" xlink:href="#DejaVuSans-48"/>
      </g>
     </g>
    </g>
    <g id="xtick_2">
     <g id="line2d_2">
      <g>
       <use style="stroke:#000000;stroke-width:0.8;" x="128.430651" xlink:href="#mbbbc763805" y="307.584"/>
      </g>
     </g>
     <g id="text_2">
      <!-- −50 -->
      <g transform="translate(117.878307 322.182437)scale(0.1 -0.1)">
       <defs>
        <path d="M 10.796875 72.90625 
L 49.515625 72.90625 
L 49.515625 64.59375 
L 19.828125 64.59375 
L 19.828125 46.734375 
Q 21.96875 47.46875 24.109375 47.828125 
Q 26.265625 48.1875 28.421875 48.1875 
Q 40.625 48.1875 47.75 41.5 
Q 54.890625 34.8125 54.890625 23.390625 
Q 54.890625 11.625 47.5625 5.09375 
Q 40.234375 -1.421875 26.90625 -1.421875 
Q 22.3125 -1.421875 17.546875 -0.640625 
Q 12.796875 0.140625 7.71875 1.703125 
L 7.71875 11.625 
Q 12.109375 9.234375 16.796875 8.0625 
Q 21.484375 6.890625 26.703125 6.890625 
Q 35.15625 6.890625 40.078125 11.328125 
Q 45.015625 15.765625 45.015625 23.390625 
Q 45.015625 31 40.078125 35.4375 
Q 35.15625 39.890625 26.703125 39.890625 
Q 22.75 39.890625 18.8125 39.015625 
Q 14.890625 38.140625 10.796875 36.28125 
z
" id="DejaVuSans-53"/>
       </defs>
       <use xlink:href="#DejaVuSans-8722"/>
       <use x="83.789062" xlink:href="#DejaVuSans-53"/>
       <use x="147.412109" xlink:href="#DejaVuSans-48"/>
      </g>
     </g>
    </g>
    <g id="xtick_3">
     <g id="line2d_3">
      <g>
       <use style="stroke:#000000;stroke-width:0.8;" x="195.580386" xlink:href="#mbbbc763805" y="307.584"/>
      </g>
     </g>
     <g id="text_3">
      <!-- 0 -->
      <g transform="translate(192.399136 322.182437)scale(0.1 -0.1)">
       <use xlink:href="#DejaVuSans-48"/>
      </g>
     </g>
    </g>
    <g id="xtick_4">
     <g id="line2d_4">
      <g>
       <use style="stroke:#000000;stroke-width:0.8;" x="262.730121" xlink:href="#mbbbc763805" y="307.584"/>
      </g>
     </g>
     <g id="text_4">
      <!-- 50 -->
      <g transform="translate(256.367621 322.182437)scale(0.1 -0.1)">
       <use xlink:href="#DejaVuSans-53"/>
       <use x="63.623047" xlink:href="#DejaVuSans-48"/>
      </g>
     </g>
    </g>
    <g id="xtick_5">
     <g id="line2d_5">
      <g>
       <use style="stroke:#000000;stroke-width:0.8;" x="329.879856" xlink:href="#mbbbc763805" y="307.584"/>
      </g>
     </g>
     <g id="text_5">
      <!-- 100 -->
      <g transform="translate(320.336106 322.182437)scale(0.1 -0.1)">
       <use xlink:href="#DejaVuSans-49"/>
       <use x="63.623047" xlink:href="#DejaVuSans-48"/>
       <use x="127.246094" xlink:href="#DejaVuSans-48"/>
      </g>
     </g>
    </g>
    <g id="xtick_6">
     <g id="line2d_6">
      <g>
       <use style="stroke:#000000;stroke-width:0.8;" x="397.02959" xlink:href="#mbbbc763805" y="307.584"/>
      </g>
     </g>
     <g id="text_6">
      <!-- 150 -->
      <g transform="translate(387.48584 322.182437)scale(0.1 -0.1)">
       <use xlink:href="#DejaVuSans-49"/>
       <use x="63.623047" xlink:href="#DejaVuSans-53"/>
       <use x="127.246094" xlink:href="#DejaVuSans-48"/>
      </g>
     </g>
    </g>
   </g>
   <g id="matplotlib.axis_2">
    <g id="ytick_1">
     <g id="line2d_7">
      <defs>
       <path d="M 0 0 
L -3.5 0 
" id="m361e742084" style="stroke:#000000;stroke-width:0.8;"/>
      </defs>
      <g>
       <use style="stroke:#000000;stroke-width:0.8;" x="57.6" xlink:href="#m361e742084" y="295.436317"/>
      </g>
     </g>
     <g id="text_7">
      <!-- 0 -->
      <g transform="translate(44.2375 299.235535)scale(0.1 -0.1)">
       <use xlink:href="#DejaVuSans-48"/>
      </g>
     </g>
    </g>
    <g id="ytick_2">
     <g id="line2d_8">
      <g>
       <use style="stroke:#000000;stroke-width:0.8;" x="57.6" xlink:href="#m361e742084" y="261.861449"/>
      </g>
     </g>
     <g id="text_8">
      <!-- 25 -->
      <g transform="translate(37.875 265.660668)scale(0.1 -0.1)">
       <defs>
        <path d="M 19.1875 8.296875 
L 53.609375 8.296875 
L 53.609375 0 
L 7.328125 0 
L 7.328125 8.296875 
Q 12.9375 14.109375 22.625 23.890625 
Q 32.328125 33.6875 34.8125 36.53125 
Q 39.546875 41.84375 41.421875 45.53125 
Q 43.3125 49.21875 43.3125 52.78125 
Q 43.3125 58.59375 39.234375 62.25 
Q 35.15625 65.921875 28.609375 65.921875 
Q 23.96875 65.921875 18.8125 64.3125 
Q 13.671875 62.703125 7.8125 59.421875 
L 7.8125 69.390625 
Q 13.765625 71.78125 18.9375 73 
Q 24.125 74.21875 28.421875 74.21875 
Q 39.75 74.21875 46.484375 68.546875 
Q 53.21875 62.890625 53.21875 53.421875 
Q 53.21875 48.921875 51.53125 44.890625 
Q 49.859375 40.875 45.40625 35.40625 
Q 44.1875 33.984375 37.640625 27.21875 
Q 31.109375 20.453125 19.1875 8.296875 
z
" id="DejaVuSans-50"/>
       </defs>
       <use xlink:href="#DejaVuSans-50"/>
       <use x="63.623047" xlink:href="#DejaVuSans-53"/>
      </g>
     </g>
    </g>
    <g id="ytick_3">
     <g id="line2d_9">
      <g>
       <use style="stroke:#000000;stroke-width:0.8;" x="57.6" xlink:href="#m361e742084" y="228.286582"/>
      </g>
     </g>
     <g id="text_9">
      <!-- 50 -->
      <g transform="translate(37.875 232.0858)scale(0.1 -0.1)">
       <use xlink:href="#DejaVuSans-53"/>
       <use x="63.623047" xlink:href="#DejaVuSans-48"/>
      </g>
     </g>
    </g>
    <g id="ytick_4">
     <g id="line2d_10">
      <g>
       <use style="stroke:#000000;stroke-width:0.8;" x="57.6" xlink:href="#m361e742084" y="194.711714"/>
      </g>
     </g>
     <g id="text_10">
      <!-- 75 -->
      <g transform="translate(37.875 198.510933)scale(0.1 -0.1)">
       <defs>
        <path d="M 8.203125 72.90625 
L 55.078125 72.90625 
L 55.078125 68.703125 
L 28.609375 0 
L 18.3125 0 
L 43.21875 64.59375 
L 8.203125 64.59375 
z
" id="DejaVuSans-55"/>
       </defs>
       <use xlink:href="#DejaVuSans-55"/>
       <use x="63.623047" xlink:href="#DejaVuSans-53"/>
      </g>
     </g>
    </g>
    <g id="ytick_5">
     <g id="line2d_11">
      <g>
       <use style="stroke:#000000;stroke-width:0.8;" x="57.6" xlink:href="#m361e742084" y="161.136847"/>
      </g>
     </g>
     <g id="text_11">
      <!-- 100 -->
      <g transform="translate(31.5125 164.936066)scale(0.1 -0.1)">
       <use xlink:href="#DejaVuSans-49"/>
       <use x="63.623047" xlink:href="#DejaVuSans-48"/>
       <use x="127.246094" xlink:href="#DejaVuSans-48"/>
      </g>
     </g>
    </g>
    <g id="ytick_6">
     <g id="line2d_12">
      <g>
       <use style="stroke:#000000;stroke-width:0.8;" x="57.6" xlink:href="#m361e742084" y="127.561979"/>
      </g>
     </g>
     <g id="text_12">
      <!-- 125 -->
      <g transform="translate(31.5125 131.361198)scale(0.1 -0.1)">
       <use xlink:href="#DejaVuSans-49"/>
       <use x="63.623047" xlink:href="#DejaVuSans-50"/>
       <use x="127.246094" xlink:href="#DejaVuSans-53"/>
      </g>
     </g>
    </g>
    <g id="ytick_7">
     <g id="line2d_13">
      <g>
       <use style="stroke:#000000;stroke-width:0.8;" x="57.6" xlink:href="#m361e742084" y="93.987112"/>
      </g>
     </g>
     <g id="text_13">
      <!-- 150 -->
      <g transform="translate(31.5125 97.786331)scale(0.1 -0.1)">
       <use xlink:href="#DejaVuSans-49"/>
       <use x="63.623047" xlink:href="#DejaVuSans-53"/>
       <use x="127.246094" xlink:href="#DejaVuSans-48"/>
      </g>
     </g>
    </g>
    <g id="ytick_8">
     <g id="line2d_14">
      <g>
       <use style="stroke:#000000;stroke-width:0.8;" x="57.6" xlink:href="#m361e742084" y="60.412245"/>
      </g>
     </g>
     <g id="text_14">
      <!-- 175 -->
      <g transform="translate(31.5125 64.211463)scale(0.1 -0.1)">
       <use xlink:href="#DejaVuSans-49"/>
       <use x="63.623047" xlink:href="#DejaVuSans-55"/>
       <use x="127.246094" xlink:href="#DejaVuSans-53"/>
      </g>
     </g>
    </g>
   </g>
   <g id="line2d_15">
    <path clip-path="url(#pa11cd7e60c)" d="M 195.580386 295.436317 
L 195.854188 277.767723 
L 196.160596 258.317337 
L 195.887299 251.158444 
L 195.545677 242.209829 
L 195.626297 236.906594 
L 195.898206 233.421471 
L 196.400177 229.989462 
L 197.199517 226.625118 
L 198.404684 223.348541 
L 199.936319 220.142946 
L 201.688981 216.986623 
L 207.218685 207.596188 
L 208.801016 204.419854 
L 210.077156 201.184243 
L 210.567454 199.537425 
L 210.941662 197.867645 
L 211.183744 196.171422 
L 211.296846 194.449262 
L 211.198501 190.940219 
L 210.771406 187.366691 
L 209.787314 181.942744 
L 208.765419 176.520933 
L 208.27112 172.951203 
L 208.071969 169.447857 
L 208.122067 167.729257 
L 208.292744 166.037069 
L 209.009368 162.699445 
L 210.003546 159.212589 
L 211.223613 155.620609 
L 212.661211 152.015939 
L 214.307985 148.491017 
L 216.155578 145.138278 
L 218.195636 142.050158 
L 220.419801 139.319094 
L 221.598313 138.116344 
L 222.819719 137.037521 
L 224.082973 136.094181 
L 225.387032 135.297876 
L 226.776948 134.701773 
L 228.289002 134.333526 
L 229.908988 134.166428 
L 231.622701 134.17377 
L 233.415934 134.328843 
L 237.184143 134.975353 
L 243.077728 136.385397 
L 247.001904 137.307349 
L 250.789591 137.965563 
L 252.596738 138.128996 
L 254.327146 138.14637 
L 255.96661 137.990975 
L 257.500926 137.636105 
L 258.915886 137.055049 
L 260.279554 136.263146 
L 261.661704 135.30398 
L 264.43489 132.946499 
L 267.142336 130.10789 
L 269.69093 126.913439 
L 271.987563 123.488431 
L 273.939122 119.95815 
L 275.4525 116.447882 
L 276.015773 114.739404 
L 276.434583 113.082911 
L 276.697293 111.494063 
L 276.792263 109.988521 
L 276.707855 108.581947 
L 276.362082 107.253598 
L 275.70497 105.968785 
L 274.772902 104.722239 
L 273.602258 103.508693 
L 272.22942 102.322881 
L 269.022685 100.013389 
L 263.605654 96.625473 
L 260.01413 94.356295 
L 256.778027 92.029503 
L 255.384211 90.831334 
L 254.188395 89.602961 
L 253.226959 88.339116 
L 252.536284 87.034532 
L 252.152752 85.683942 
L 252.044381 84.290772 
L 252.143181 82.863927 
L 252.431514 81.406363 
L 252.891745 79.921035 
L 253.506236 78.410898 
L 255.127457 75.328014 
L 257.154084 72.181351 
L 260.64553 67.393479 
L 265.402873 61.007051 
L 267.50784 57.865911 
L 268.43017 56.318701 
L 268.43017 56.318701 
" style="fill:none;stroke:#fea952;stroke-linecap:square;"/>
   </g>
   <g id="line2d_16">
    <path clip-path="url(#pa11cd7e60c)" d="M 190.208656 295.384633 
L 190.483285 277.660207 
L 190.79029 258.451351 
L 190.521792 251.422061 
L 190.173764 242.236524 
L 190.193377 238.468623 
L 190.387638 234.659922 
L 190.817539 230.821215 
L 191.562818 226.908529 
L 192.108496 224.910574 
L 193.513801 221.12651 
L 195.210101 217.589318 
L 197.064908 214.252376 
L 203.191776 203.703663 
L 204.437121 200.970252 
L 205.325498 198.362667 
L 205.823313 195.819378 
L 205.932867 193.002581 
L 205.696455 189.892454 
L 205.190471 186.537068 
L 203.157136 175.383255 
L 202.757539 171.358787 
L 202.702271 169.291327 
L 202.777206 167.190165 
L 203.009996 165.062016 
L 203.825162 161.291552 
L 204.895465 157.549562 
L 206.207203 153.698684 
L 207.759883 149.817042 
L 209.557155 145.983474 
L 211.60943 142.276339 
L 213.938267 138.774038 
L 215.217733 137.125136 
L 216.582773 135.559391 
L 218.042035 134.09005 
L 219.605479 132.733242 
L 221.283343 131.509398 
L 223.269631 130.360795 
L 225.505807 129.482352 
L 227.737818 128.989899 
L 229.932003 128.794498 
L 232.085526 128.821766 
L 234.205307 129.015177 
L 238.363465 129.734422 
L 244.349659 131.166168 
L 249.723275 132.371209 
L 252.650671 132.757288 
L 254.756085 132.757164 
L 255.460277 132.666808 
L 256.218181 132.409562 
L 257.216821 131.849778 
L 259.45554 130.201593 
L 261.8302 127.963181 
L 264.174011 125.285446 
L 266.353753 122.323242 
L 268.253007 119.23717 
L 269.766849 116.20208 
L 270.807674 113.422641 
L 271.335971 111.155869 
L 271.579333 109.699711 
L 271.402685 109.185693 
L 270.906613 108.451846 
L 270.090722 107.574068 
L 268.989579 106.607923 
L 266.114015 104.529781 
L 260.774255 101.190704 
L 256.97415 98.785366 
L 253.276147 96.103198 
L 251.534981 94.578544 
L 249.912919 92.855415 
L 248.479288 90.852635 
L 247.368628 88.502011 
L 246.796952 86.100552 
L 246.685235 83.919685 
L 246.873324 81.821451 
L 247.300213 79.816424 
L 247.915934 77.896323 
L 248.682799 76.046029 
L 250.56182 72.497269 
L 252.764044 69.085272 
L 256.363381 64.149816 
L 260.983404 57.953128 
L 262.893536 55.11521 
L 263.815867 53.568 
L 263.815867 53.568 
" style="fill:none;stroke:#ffffff;stroke-linecap:square;"/>
   </g>
   <g id="line2d_17">
    <path clip-path="url(#pa11cd7e60c)" d="M 200.952116 295.488 
L 201.225091 277.875239 
L 201.530903 258.183322 
L 201.252806 250.894827 
L 200.917589 242.183133 
L 200.987644 237.244406 
L 201.227229 234.099462 
L 201.659551 231.083602 
L 202.290538 228.339662 
L 203.295566 225.570573 
L 204.662538 222.696574 
L 207.215686 218.193977 
L 211.98461 210.07492 
L 213.746018 206.518691 
L 215.225793 202.717116 
L 215.80941 200.712182 
L 216.259754 198.626633 
L 216.544175 196.523466 
L 216.668825 194.448399 
L 216.543156 190.399094 
L 216.07154 186.491057 
L 215.057832 180.90361 
L 213.821214 174.075557 
L 213.496166 171.020405 
L 213.466928 168.26835 
L 213.575492 167.012123 
L 214.193574 164.107337 
L 215.111628 160.875616 
L 216.240022 157.542533 
L 217.562538 154.214837 
L 219.058814 150.99856 
L 220.701726 148.000217 
L 222.453005 145.326278 
L 224.25683 143.078797 
L 226.033958 141.341801 
L 227.504433 140.234957 
L 228.04809 139.921194 
L 228.840187 139.677153 
L 229.885974 139.538357 
L 231.159875 139.525774 
L 234.251558 139.878628 
L 237.861263 140.633206 
L 245.969983 142.579284 
L 250.305738 143.315707 
L 252.542804 143.500704 
L 254.83405 143.494379 
L 257.177136 143.224787 
L 259.541575 142.605401 
L 261.613591 141.700536 
L 263.342288 140.676515 
L 265.016771 139.499415 
L 266.645851 138.184828 
L 268.232388 136.746125 
L 271.269863 133.546156 
L 274.089907 129.996807 
L 276.629857 126.191626 
L 278.814083 122.214898 
L 279.745958 120.183288 
L 280.554351 118.129926 
L 281.223871 116.056166 
L 281.734601 113.959248 
L 282.058616 111.832257 
L 282.154596 109.666729 
L 281.906593 107.228698 
L 281.144831 104.807486 
L 280.007256 102.751877 
L 278.639191 100.992632 
L 277.113794 99.443318 
L 275.469261 98.037839 
L 271.931354 95.496997 
L 266.437053 92.060241 
L 261.568381 88.913976 
L 259.233442 87.084124 
L 257.703939 85.567053 
L 257.508551 85.267332 
L 257.403528 84.661858 
L 257.413039 83.906403 
L 257.562815 82.996302 
L 257.867556 81.945747 
L 258.942368 79.507362 
L 260.566117 76.744839 
L 262.609133 73.765816 
L 272.122144 60.616612 
L 273.044474 59.069403 
L 273.044474 59.069403 
" style="fill:none;stroke:#ffffff;stroke-linecap:square;"/>
   </g>
   <g id="patch_3">
    <path d="M 57.6 307.584 
L 57.6 41.472 
" style="fill:none;stroke:#000000;stroke-linecap:square;stroke-linejoin:miter;stroke-width:0.8;"/>
   </g>
   <g id="patch_4">
    <path d="M 414.72 307.584 
L 414.72 41.472 
" style="fill:none;stroke:#000000;stroke-linecap:square;stroke-linejoin:miter;stroke-width:0.8;"/>
   </g>
   <g id="patch_5">
    <path d="M 57.6 307.584 
L 414.72 307.584 
" style="fill:none;stroke:#000000;stroke-linecap:square;stroke-linejoin:miter;stroke-width:0.8;"/>
   </g>
   <g id="patch_6">
    <path d="M 57.6 41.472 
L 414.72 41.472 
" style="fill:none;stroke:#000000;stroke-linecap:square;stroke-linejoin:miter;stroke-width:0.8;"/>
   </g>
  </g>
 </g>
 <defs>
  <clipPath id="pa11cd7e60c">
   <rect height="266.112" width="357.12" x="57.6" y="41.472"/>
  </clipPath>
 </defs>
</svg>
