<?xml version="1.0" encoding="utf-8" standalone="no"?>
<!DOCTYPE svg PUBLIC "-//W3C//DTD SVG 1.1//EN"
  "http://www.w3.org/Graphics/SVG/1.1/DTD/svg11.dtd">
<!-- Created with matplotlib (https://matplotlib.org/) -->
<svg height="345.6pt" version="1.1" viewBox="0 0 460.8 345.6" width="460.8pt" xmlns="http://www.w3.org/2000/svg" xmlns:xlink="http://www.w3.org/1999/xlink">
 <metadata>
  <rdf:RDF xmlns:cc="http://creativecommons.org/ns#" xmlns:dc="http://purl.org/dc/elements/1.1/" xmlns:rdf="http://www.w3.org/1999/02/22-rdf-syntax-ns#">
   <cc:Work>
    <dc:type rdf:resource="http://purl.org/dc/dcmitype/StillImage"/>
    <dc:date>2021-06-19T19:29:27.456016</dc:date>
    <dc:format>image/svg+xml</dc:format>
    <dc:creator>
     <cc:Agent>
      <dc:title>Matplotlib v3.3.3, https://matplotlib.org/</dc:title>
     </cc:Agent>
    </dc:creator>
   </cc:Work>
  </rdf:RDF>
 </metadata>
 <defs>
  <style type="text/css">*{stroke-linecap:butt;stroke-linejoin:round;}</style>
 </defs>
 <g id="figure_1">
  <g id="patch_1">
   <path d="M 0 345.6 
L 460.8 345.6 
L 460.8 0 
L 0 0 
z
" style="fill:#ffffff;"/>
  </g>
  <g id="axes_1">
   <g id="patch_2">
    <path d="M 57.6 307.584 
L 414.72 307.584 
L 414.72 41.472 
L 57.6 41.472 
z
" style="fill:#7d9051;"/>
   </g>
   <g id="matplotlib.axis_1">
    <g id="xtick_1">
     <g id="line2d_1">
      <defs>
       <path d="M 0 0 
L 0 3.5 
" id="m726abac037" style="stroke:#000000;stroke-width:0.8;"/>
      </defs>
      <g>
       <use style="stroke:#000000;stroke-width:0.8;" x="74.589644" xlink:href="#m726abac037" y="307.584"/>
      </g>
     </g>
     <g id="text_1">
      <!-- −140 -->
      <g transform="translate(60.85605 322.182437)scale(0.1 -0.1)">
       <defs>
        <path d="M 10.59375 35.5 
L 73.1875 35.5 
L 73.1875 27.203125 
L 10.59375 27.203125 
z
" id="DejaVuSans-8722"/>
        <path d="M 12.40625 8.296875 
L 28.515625 8.296875 
L 28.515625 63.921875 
L 10.984375 60.40625 
L 10.984375 69.390625 
L 28.421875 72.90625 
L 38.28125 72.90625 
L 38.28125 8.296875 
L 54.390625 8.296875 
L 54.390625 0 
L 12.40625 0 
z
" id="DejaVuSans-49"/>
        <path d="M 37.796875 64.3125 
L 12.890625 25.390625 
L 37.796875 25.390625 
z
M 35.203125 72.90625 
L 47.609375 72.90625 
L 47.609375 25.390625 
L 58.015625 25.390625 
L 58.015625 17.1875 
L 47.609375 17.1875 
L 47.609375 0 
L 37.796875 0 
L 37.796875 17.1875 
L 4.890625 17.1875 
L 4.890625 26.703125 
z
" id="DejaVuSans-52"/>
        <path d="M 31.78125 66.40625 
Q 24.171875 66.40625 20.328125 58.90625 
Q 16.5 51.421875 16.5 36.375 
Q 16.5 21.390625 20.328125 13.890625 
Q 24.171875 6.390625 31.78125 6.390625 
Q 39.453125 6.390625 43.28125 13.890625 
Q 47.125 21.390625 47.125 36.375 
Q 47.125 51.421875 43.28125 58.90625 
Q 39.453125 66.40625 31.78125 66.40625 
z
M 31.78125 74.21875 
Q 44.046875 74.21875 50.515625 64.515625 
Q 56.984375 54.828125 56.984375 36.375 
Q 56.984375 17.96875 50.515625 8.265625 
Q 44.046875 -1.421875 31.78125 -1.421875 
Q 19.53125 -1.421875 13.0625 8.265625 
Q 6.59375 17.96875 6.59375 36.375 
Q 6.59375 54.828125 13.0625 64.515625 
Q 19.53125 74.21875 31.78125 74.21875 
z
" id="DejaVuSans-48"/>
       </defs>
       <use xlink:href="#DejaVuSans-8722"/>
       <use x="83.789062" xlink:href="#DejaVuSans-49"/>
       <use x="147.412109" xlink:href="#DejaVuSans-52"/>
       <use x="211.035156" xlink:href="#DejaVuSans-48"/>
      </g>
     </g>
    </g>
    <g id="xtick_2">
     <g id="line2d_2">
      <g>
       <use style="stroke:#000000;stroke-width:0.8;" x="118.863415" xlink:href="#m726abac037" y="307.584"/>
      </g>
     </g>
     <g id="text_2">
      <!-- −120 -->
      <g transform="translate(105.129821 322.182437)scale(0.1 -0.1)">
       <defs>
        <path d="M 19.1875 8.296875 
L 53.609375 8.296875 
L 53.609375 0 
L 7.328125 0 
L 7.328125 8.296875 
Q 12.9375 14.109375 22.625 23.890625 
Q 32.328125 33.6875 34.8125 36.53125 
Q 39.546875 41.84375 41.421875 45.53125 
Q 43.3125 49.21875 43.3125 52.78125 
Q 43.3125 58.59375 39.234375 62.25 
Q 35.15625 65.921875 28.609375 65.921875 
Q 23.96875 65.921875 18.8125 64.3125 
Q 13.671875 62.703125 7.8125 59.421875 
L 7.8125 69.390625 
Q 13.765625 71.78125 18.9375 73 
Q 24.125 74.21875 28.421875 74.21875 
Q 39.75 74.21875 46.484375 68.546875 
Q 53.21875 62.890625 53.21875 53.421875 
Q 53.21875 48.921875 51.53125 44.890625 
Q 49.859375 40.875 45.40625 35.40625 
Q 44.1875 33.984375 37.640625 27.21875 
Q 31.109375 20.453125 19.1875 8.296875 
z
" id="DejaVuSans-50"/>
       </defs>
       <use xlink:href="#DejaVuSans-8722"/>
       <use x="83.789062" xlink:href="#DejaVuSans-49"/>
       <use x="147.412109" xlink:href="#DejaVuSans-50"/>
       <use x="211.035156" xlink:href="#DejaVuSans-48"/>
      </g>
     </g>
    </g>
    <g id="xtick_3">
     <g id="line2d_3">
      <g>
       <use style="stroke:#000000;stroke-width:0.8;" x="163.137186" xlink:href="#m726abac037" y="307.584"/>
      </g>
     </g>
     <g id="text_3">
      <!-- −100 -->
      <g transform="translate(149.403592 322.182437)scale(0.1 -0.1)">
       <use xlink:href="#DejaVuSans-8722"/>
       <use x="83.789062" xlink:href="#DejaVuSans-49"/>
       <use x="147.412109" xlink:href="#DejaVuSans-48"/>
       <use x="211.035156" xlink:href="#DejaVuSans-48"/>
      </g>
     </g>
    </g>
    <g id="xtick_4">
     <g id="line2d_4">
      <g>
       <use style="stroke:#000000;stroke-width:0.8;" x="207.410957" xlink:href="#m726abac037" y="307.584"/>
      </g>
     </g>
     <g id="text_4">
      <!-- −80 -->
      <g transform="translate(196.858613 322.182437)scale(0.1 -0.1)">
       <defs>
        <path d="M 31.78125 34.625 
Q 24.75 34.625 20.71875 30.859375 
Q 16.703125 27.09375 16.703125 20.515625 
Q 16.703125 13.921875 20.71875 10.15625 
Q 24.75 6.390625 31.78125 6.390625 
Q 38.8125 6.390625 42.859375 10.171875 
Q 46.921875 13.96875 46.921875 20.515625 
Q 46.921875 27.09375 42.890625 30.859375 
Q 38.875 34.625 31.78125 34.625 
z
M 21.921875 38.8125 
Q 15.578125 40.375 12.03125 44.71875 
Q 8.5 49.078125 8.5 55.328125 
Q 8.5 64.0625 14.71875 69.140625 
Q 20.953125 74.21875 31.78125 74.21875 
Q 42.671875 74.21875 48.875 69.140625 
Q 55.078125 64.0625 55.078125 55.328125 
Q 55.078125 49.078125 51.53125 44.71875 
Q 48 40.375 41.703125 38.8125 
Q 48.828125 37.15625 52.796875 32.3125 
Q 56.78125 27.484375 56.78125 20.515625 
Q 56.78125 9.90625 50.3125 4.234375 
Q 43.84375 -1.421875 31.78125 -1.421875 
Q 19.734375 -1.421875 13.25 4.234375 
Q 6.78125 9.90625 6.78125 20.515625 
Q 6.78125 27.484375 10.78125 32.3125 
Q 14.796875 37.15625 21.921875 38.8125 
z
M 18.3125 54.390625 
Q 18.3125 48.734375 21.84375 45.5625 
Q 25.390625 42.390625 31.78125 42.390625 
Q 38.140625 42.390625 41.71875 45.5625 
Q 45.3125 48.734375 45.3125 54.390625 
Q 45.3125 60.0625 41.71875 63.234375 
Q 38.140625 66.40625 31.78125 66.40625 
Q 25.390625 66.40625 21.84375 63.234375 
Q 18.3125 60.0625 18.3125 54.390625 
z
" id="DejaVuSans-56"/>
       </defs>
       <use xlink:href="#DejaVuSans-8722"/>
       <use x="83.789062" xlink:href="#DejaVuSans-56"/>
       <use x="147.412109" xlink:href="#DejaVuSans-48"/>
      </g>
     </g>
    </g>
    <g id="xtick_5">
     <g id="line2d_5">
      <g>
       <use style="stroke:#000000;stroke-width:0.8;" x="251.684728" xlink:href="#m726abac037" y="307.584"/>
      </g>
     </g>
     <g id="text_5">
      <!-- −60 -->
      <g transform="translate(241.132384 322.182437)scale(0.1 -0.1)">
       <defs>
        <path d="M 33.015625 40.375 
Q 26.375 40.375 22.484375 35.828125 
Q 18.609375 31.296875 18.609375 23.390625 
Q 18.609375 15.53125 22.484375 10.953125 
Q 26.375 6.390625 33.015625 6.390625 
Q 39.65625 6.390625 43.53125 10.953125 
Q 47.40625 15.53125 47.40625 23.390625 
Q 47.40625 31.296875 43.53125 35.828125 
Q 39.65625 40.375 33.015625 40.375 
z
M 52.59375 71.296875 
L 52.59375 62.3125 
Q 48.875 64.0625 45.09375 64.984375 
Q 41.3125 65.921875 37.59375 65.921875 
Q 27.828125 65.921875 22.671875 59.328125 
Q 17.53125 52.734375 16.796875 39.40625 
Q 19.671875 43.65625 24.015625 45.921875 
Q 28.375 48.1875 33.59375 48.1875 
Q 44.578125 48.1875 50.953125 41.515625 
Q 57.328125 34.859375 57.328125 23.390625 
Q 57.328125 12.15625 50.6875 5.359375 
Q 44.046875 -1.421875 33.015625 -1.421875 
Q 20.359375 -1.421875 13.671875 8.265625 
Q 6.984375 17.96875 6.984375 36.375 
Q 6.984375 53.65625 15.1875 63.9375 
Q 23.390625 74.21875 37.203125 74.21875 
Q 40.921875 74.21875 44.703125 73.484375 
Q 48.484375 72.75 52.59375 71.296875 
z
" id="DejaVuSans-54"/>
       </defs>
       <use xlink:href="#DejaVuSans-8722"/>
       <use x="83.789062" xlink:href="#DejaVuSans-54"/>
       <use x="147.412109" xlink:href="#DejaVuSans-48"/>
      </g>
     </g>
    </g>
    <g id="xtick_6">
     <g id="line2d_6">
      <g>
       <use style="stroke:#000000;stroke-width:0.8;" x="295.958499" xlink:href="#m726abac037" y="307.584"/>
      </g>
     </g>
     <g id="text_6">
      <!-- −40 -->
      <g transform="translate(285.406155 322.182437)scale(0.1 -0.1)">
       <use xlink:href="#DejaVuSans-8722"/>
       <use x="83.789062" xlink:href="#DejaVuSans-52"/>
       <use x="147.412109" xlink:href="#DejaVuSans-48"/>
      </g>
     </g>
    </g>
    <g id="xtick_7">
     <g id="line2d_7">
      <g>
       <use style="stroke:#000000;stroke-width:0.8;" x="340.23227" xlink:href="#m726abac037" y="307.584"/>
      </g>
     </g>
     <g id="text_7">
      <!-- −20 -->
      <g transform="translate(329.679926 322.182437)scale(0.1 -0.1)">
       <use xlink:href="#DejaVuSans-8722"/>
       <use x="83.789062" xlink:href="#DejaVuSans-50"/>
       <use x="147.412109" xlink:href="#DejaVuSans-48"/>
      </g>
     </g>
    </g>
    <g id="xtick_8">
     <g id="line2d_8">
      <g>
       <use style="stroke:#000000;stroke-width:0.8;" x="384.506041" xlink:href="#m726abac037" y="307.584"/>
      </g>
     </g>
     <g id="text_8">
      <!-- 0 -->
      <g transform="translate(381.324791 322.182437)scale(0.1 -0.1)">
       <use xlink:href="#DejaVuSans-48"/>
      </g>
     </g>
    </g>
   </g>
   <g id="matplotlib.axis_2">
    <g id="ytick_1">
     <g id="line2d_9">
      <defs>
       <path d="M 0 0 
L -3.5 0 
" id="m9927da2dd3" style="stroke:#000000;stroke-width:0.8;"/>
      </defs>
      <g>
       <use style="stroke:#000000;stroke-width:0.8;" x="57.6" xlink:href="#m9927da2dd3" y="293.589787"/>
      </g>
     </g>
     <g id="text_9">
      <!-- −20 -->
      <g transform="translate(29.495313 297.389006)scale(0.1 -0.1)">
       <use xlink:href="#DejaVuSans-8722"/>
       <use x="83.789062" xlink:href="#DejaVuSans-50"/>
       <use x="147.412109" xlink:href="#DejaVuSans-48"/>
      </g>
     </g>
    </g>
    <g id="ytick_2">
     <g id="line2d_10">
      <g>
       <use style="stroke:#000000;stroke-width:0.8;" x="57.6" xlink:href="#m9927da2dd3" y="249.316016"/>
      </g>
     </g>
     <g id="text_10">
      <!-- 0 -->
      <g transform="translate(44.2375 253.115235)scale(0.1 -0.1)">
       <use xlink:href="#DejaVuSans-48"/>
      </g>
     </g>
    </g>
    <g id="ytick_3">
     <g id="line2d_11">
      <g>
       <use style="stroke:#000000;stroke-width:0.8;" x="57.6" xlink:href="#m9927da2dd3" y="205.042245"/>
      </g>
     </g>
     <g id="text_11">
      <!-- 20 -->
      <g transform="translate(37.875 208.841464)scale(0.1 -0.1)">
       <use xlink:href="#DejaVuSans-50"/>
       <use x="63.623047" xlink:href="#DejaVuSans-48"/>
      </g>
     </g>
    </g>
    <g id="ytick_4">
     <g id="line2d_12">
      <g>
       <use style="stroke:#000000;stroke-width:0.8;" x="57.6" xlink:href="#m9927da2dd3" y="160.768474"/>
      </g>
     </g>
     <g id="text_12">
      <!-- 40 -->
      <g transform="translate(37.875 164.567693)scale(0.1 -0.1)">
       <use xlink:href="#DejaVuSans-52"/>
       <use x="63.623047" xlink:href="#DejaVuSans-48"/>
      </g>
     </g>
    </g>
    <g id="ytick_5">
     <g id="line2d_13">
      <g>
       <use style="stroke:#000000;stroke-width:0.8;" x="57.6" xlink:href="#m9927da2dd3" y="116.494703"/>
      </g>
     </g>
     <g id="text_13">
      <!-- 60 -->
      <g transform="translate(37.875 120.293922)scale(0.1 -0.1)">
       <use xlink:href="#DejaVuSans-54"/>
       <use x="63.623047" xlink:href="#DejaVuSans-48"/>
      </g>
     </g>
    </g>
    <g id="ytick_6">
     <g id="line2d_14">
      <g>
       <use style="stroke:#000000;stroke-width:0.8;" x="57.6" xlink:href="#m9927da2dd3" y="72.220932"/>
      </g>
     </g>
     <g id="text_14">
      <!-- 80 -->
      <g transform="translate(37.875 76.020151)scale(0.1 -0.1)">
       <use xlink:href="#DejaVuSans-56"/>
       <use x="63.623047" xlink:href="#DejaVuSans-48"/>
      </g>
     </g>
    </g>
   </g>
   <g id="line2d_15">
    <path clip-path="url(#paf670e87fe)" d="M 384.506041 249.316016 
L 384.790911 228.929265 
L 385.5849 191.036871 
L 386.121752 184.980871 
L 386.934911 178.777956 
L 388.727015 166.283976 
L 389.37439 160.16921 
L 389.563378 157.183448 
L 389.634935 154.260125 
L 389.568339 151.410259 
L 389.342867 148.64487 
L 388.937795 145.974975 
L 388.3324 143.411594 
L 387.50596 140.965745 
L 386.437751 138.648446 
L 385.115945 136.391186 
L 383.555901 134.127616 
L 381.777681 131.872005 
L 379.801346 129.63862 
L 377.646956 127.441728 
L 375.334572 125.295598 
L 372.884256 123.214497 
L 370.316068 121.212692 
L 367.650069 119.304451 
L 364.906319 117.504041 
L 362.104881 115.825731 
L 359.265814 114.283787 
L 356.409179 112.892477 
L 353.555038 111.666069 
L 350.723452 110.618829 
L 347.93448 109.765027 
L 345.208184 109.118929 
L 342.564626 108.694803 
L 340.023865 108.506916 
L 337.504908 108.568332 
L 334.920983 108.8723 
L 332.283487 109.403369 
L 329.603812 110.146088 
L 326.893356 111.085005 
L 324.163513 112.20467 
L 321.425677 113.489631 
L 318.691245 114.924438 
L 315.971612 116.493638 
L 310.622319 119.973414 
L 305.468961 123.80535 
L 300.602698 127.865837 
L 296.114692 132.031265 
L 292.096102 136.178023 
L 290.32012 138.320762 
L 288.730828 140.638652 
L 287.305969 143.11053 
L 286.023281 145.715235 
L 284.860507 148.431605 
L 282.805663 154.114694 
L 280.066269 162.947775 
L 278.208898 168.795242 
L 276.118889 174.412196 
L 274.930998 177.081327 
L 273.618169 179.629345 
L 272.158145 182.035088 
L 270.528666 184.277394 
L 268.707472 186.335103 
L 266.718566 188.26555 
L 264.606997 190.138411 
L 262.382078 191.951033 
L 257.629434 195.384947 
L 252.535131 198.546068 
L 247.173664 201.413171 
L 241.619529 203.96503 
L 235.947221 206.180421 
L 230.231236 208.038118 
L 224.546071 209.516897 
L 218.966219 210.595532 
L 216.200504 210.919863 
L 213.407392 211.036289 
L 210.58939 210.967189 
L 207.749007 210.734947 
L 204.888749 210.361943 
L 199.118642 209.283173 
L 193.299128 207.909931 
L 181.592126 204.99623 
L 175.744758 203.813871 
L 172.831384 203.369648 
L 169.928227 203.053239 
L 167.037794 202.887024 
L 164.162592 202.893385 
L 161.264022 203.122645 
L 158.309089 203.587421 
L 155.308709 204.253529 
L 152.2738 205.086787 
L 146.144055 207.118025 
L 128.061411 213.668377 
L 125.206971 214.467781 
L 122.427166 215.092511 
L 119.732913 215.508385 
L 117.135126 215.681222 
L 114.644724 215.576837 
L 112.272623 215.16105 
L 110.029739 214.399678 
L 107.924229 213.295137 
L 105.949502 211.889817 
L 104.094346 210.209501 
L 102.347553 208.27997 
L 100.697912 206.127003 
L 99.134213 203.776383 
L 97.645247 201.25389 
L 94.846672 195.796408 
L 92.212509 189.960805 
L 85.757883 175.071022 
L 82.992938 169.536197 
L 81.526391 166.962142 
L 81.526391 166.962142 
" style="fill:none;stroke:#fea952;stroke-linecap:square;"/>
   </g>
   <g id="line2d_16">
    <path clip-path="url(#paf670e87fe)" d="M 375.651697 249.230825 
L 375.937659 228.766169 
L 376.754555 190.379836 
L 377.334095 183.892862 
L 378.173671 177.494467 
L 379.932781 165.250472 
L 380.53732 159.609856 
L 380.782598 154.466988 
L 380.742871 152.129833 
L 380.588298 149.973099 
L 380.320111 148.010217 
L 379.943593 146.24613 
L 379.464469 144.672644 
L 378.796683 143.122902 
L 377.825034 141.416053 
L 376.602172 139.609616 
L 375.146456 137.740014 
L 373.479233 135.838423 
L 371.623361 133.93195 
L 369.602472 132.04465 
L 367.440637 130.198313 
L 365.162274 128.413045 
L 362.792183 126.707667 
L 360.355676 125.099982 
L 357.878791 123.606916 
L 355.388567 122.244542 
L 352.913405 121.027969 
L 350.483516 119.971032 
L 348.13144 119.085715 
L 345.892571 118.381133 
L 343.805487 117.861876 
L 341.911609 117.525445 
L 340.239691 117.35904 
L 338.53943 117.362446 
L 336.668839 117.552834 
L 334.648573 117.936424 
L 332.502178 118.513055 
L 330.253539 119.277431 
L 327.925613 120.220484 
L 325.539935 121.330521 
L 323.116547 122.594078 
L 318.230141 125.522398 
L 313.402883 128.880338 
L 308.75877 132.53613 
L 304.414615 136.353153 
L 300.48442 140.188359 
L 297.623065 143.328123 
L 296.402332 145.060722 
L 295.249746 147.022444 
L 294.163586 149.199787 
L 293.139247 151.573124 
L 291.23849 156.815453 
L 288.524988 165.566314 
L 286.559155 171.741406 
L 285.448351 174.874066 
L 284.208653 178.01253 
L 282.802381 181.136941 
L 281.187948 184.223377 
L 279.321262 187.24051 
L 277.159385 190.145974 
L 274.874653 192.689042 
L 272.594175 194.890041 
L 270.199795 197.003342 
L 267.700786 199.03044 
L 265.106 200.972287 
L 262.423992 202.829333 
L 256.831587 206.288622 
L 250.988885 209.403839 
L 244.959732 212.165623 
L 238.80664 214.560779 
L 232.590347 216.572828 
L 226.368936 218.18199 
L 223.273423 218.828233 
L 219.997535 219.390023 
L 216.569277 219.766935 
L 213.190333 219.888382 
L 209.867794 219.792492 
L 206.60396 219.515354 
L 203.39828 219.090355 
L 197.153944 217.917213 
L 191.122267 216.492935 
L 179.72084 213.650995 
L 174.410038 212.567452 
L 169.419872 211.893389 
L 167.057383 211.741757 
L 164.860773 211.720571 
L 162.639854 211.86986 
L 160.22819 212.23171 
L 157.653095 212.792295 
L 154.941189 213.530229 
L 149.199132 215.429052 
L 133.694219 221.156848 
L 130.449363 222.195062 
L 127.148551 223.107048 
L 123.777954 223.843628 
L 120.320739 224.343606 
L 116.764309 224.528208 
L 113.115951 224.298622 
L 109.426303 223.545866 
L 105.916233 222.240963 
L 102.790096 220.509522 
L 100.005147 218.452692 
L 97.529967 216.152194 
L 95.31884 213.665494 
L 93.32542 211.031392 
L 91.508805 208.277475 
L 89.834901 205.425841 
L 86.808205 199.509859 
L 84.073527 193.448448 
L 77.778444 178.909672 
L 75.299274 173.919598 
L 73.832727 171.345543 
L 73.832727 171.345543 
" style="fill:none;stroke:#ffffff;stroke-linecap:square;"/>
   </g>
   <g id="line2d_17">
    <path clip-path="url(#paf670e87fe)" d="M 393.360386 249.401207 
L 393.644163 229.092362 
L 394.415244 191.693905 
L 394.909409 186.068879 
L 395.696152 180.061444 
L 397.521248 167.317481 
L 398.211459 160.728565 
L 398.41548 157.400131 
L 398.487273 154.053263 
L 398.393807 150.690686 
L 398.097436 147.316641 
L 397.555478 143.939734 
L 396.721207 140.577058 
L 395.54745 137.258846 
L 394.078819 134.173991 
L 392.406855 131.366318 
L 390.50963 128.645616 
L 388.408906 126.003996 
L 386.123458 123.438816 
L 383.67055 120.951506 
L 381.066673 118.546547 
L 378.327875 116.230681 
L 375.469861 114.012339 
L 372.507955 111.901235 
L 369.456963 109.908101 
L 366.330971 108.044546 
L 363.143061 106.323031 
L 359.904954 104.756985 
L 356.626561 103.361105 
L 353.315463 102.151944 
L 349.976389 101.148921 
L 346.610882 100.375983 
L 343.217643 99.864161 
L 339.808039 99.654793 
L 336.470386 99.774218 
L 333.173128 100.191765 
L 329.9184 100.870313 
L 326.705447 101.77912 
L 323.533173 102.892579 
L 320.401413 104.188856 
L 317.31142 105.648741 
L 314.265944 107.254797 
L 311.269106 108.990764 
L 308.326201 110.841162 
L 302.628019 114.825837 
L 297.229721 119.093372 
L 292.196816 123.533166 
L 287.597624 128.041047 
L 285.278641 130.527457 
L 283.017174 133.313402 
L 281.059325 136.216582 
L 279.362191 139.198615 
L 277.882976 142.230682 
L 276.581768 145.290085 
L 274.372836 151.413935 
L 271.60755 160.329237 
L 269.858641 165.849078 
L 268.029126 170.811863 
L 267.059615 173.025713 
L 266.048391 175.035312 
L 264.995028 176.829665 
L 263.897946 178.408815 
L 262.540291 179.981163 
L 260.842957 181.641058 
L 257.063369 184.871625 
L 252.834876 187.940561 
L 248.238675 190.803515 
L 243.358444 193.422504 
L 238.279326 195.764438 
L 233.087802 197.800063 
L 227.872126 199.503409 
L 222.723206 200.851804 
L 217.934904 201.801042 
L 215.831732 202.072792 
L 213.624451 202.184195 
L 211.310986 202.141887 
L 208.894054 201.954541 
L 203.773316 201.192922 
L 198.315734 200.02051 
L 180.303286 195.661488 
L 177.079478 195.060289 
L 173.790765 194.56702 
L 170.436581 194.213089 
L 167.018204 194.032291 
L 163.464411 194.066199 
L 159.88819 194.375431 
L 156.389989 194.943132 
L 152.964324 195.714763 
L 149.60641 196.643346 
L 143.088977 198.806998 
L 125.67346 205.141692 
L 121.076378 206.341394 
L 119.145086 206.673164 
L 116.173498 206.855053 
L 115.118943 206.776235 
L 114.143244 206.558393 
L 113.058362 206.080752 
L 111.893856 205.326943 
L 110.658726 204.266809 
L 109.376266 202.894446 
L 108.070404 201.222614 
L 106.759621 199.275291 
L 105.455592 197.081938 
L 102.885139 192.082957 
L 100.351491 186.473163 
L 93.737321 171.232372 
L 90.686602 165.152796 
L 89.220055 162.578741 
L 89.220055 162.578741 
" style="fill:none;stroke:#ffffff;stroke-linecap:square;"/>
   </g>
   <g id="patch_3">
    <path d="M 57.6 307.584 
L 57.6 41.472 
" style="fill:none;stroke:#000000;stroke-linecap:square;stroke-linejoin:miter;stroke-width:0.8;"/>
   </g>
   <g id="patch_4">
    <path d="M 414.72 307.584 
L 414.72 41.472 
" style="fill:none;stroke:#000000;stroke-linecap:square;stroke-linejoin:miter;stroke-width:0.8;"/>
   </g>
   <g id="patch_5">
    <path d="M 57.6 307.584 
L 414.72 307.584 
" style="fill:none;stroke:#000000;stroke-linecap:square;stroke-linejoin:miter;stroke-width:0.8;"/>
   </g>
   <g id="patch_6">
    <path d="M 57.6 41.472 
L 414.72 41.472 
" style="fill:none;stroke:#000000;stroke-linecap:square;stroke-linejoin:miter;stroke-width:0.8;"/>
   </g>
  </g>
 </g>
 <defs>
  <clipPath id="paf670e87fe">
   <rect height="266.112" width="357.12" x="57.6" y="41.472"/>
  </clipPath>
 </defs>
</svg>
