<?xml version="1.0" encoding="utf-8" standalone="no"?>
<!DOCTYPE svg PUBLIC "-//W3C//DTD SVG 1.1//EN"
  "http://www.w3.org/Graphics/SVG/1.1/DTD/svg11.dtd">
<!-- Created with matplotlib (https://matplotlib.org/) -->
<svg height="345.6pt" version="1.1" viewBox="0 0 460.8 345.6" width="460.8pt" xmlns="http://www.w3.org/2000/svg" xmlns:xlink="http://www.w3.org/1999/xlink">
 <metadata>
  <rdf:RDF xmlns:cc="http://creativecommons.org/ns#" xmlns:dc="http://purl.org/dc/elements/1.1/" xmlns:rdf="http://www.w3.org/1999/02/22-rdf-syntax-ns#">
   <cc:Work>
    <dc:type rdf:resource="http://purl.org/dc/dcmitype/StillImage"/>
    <dc:date>2021-05-28T12:47:42.046540</dc:date>
    <dc:format>image/svg+xml</dc:format>
    <dc:creator>
     <cc:Agent>
      <dc:title>Matplotlib v3.3.3, https://matplotlib.org/</dc:title>
     </cc:Agent>
    </dc:creator>
   </cc:Work>
  </rdf:RDF>
 </metadata>
 <defs>
  <style type="text/css">*{stroke-linecap:butt;stroke-linejoin:round;}</style>
 </defs>
 <g id="figure_1">
  <g id="patch_1">
   <path d="M 0 345.6 
L 460.8 345.6 
L 460.8 0 
L 0 0 
z
" style="fill:#ffffff;"/>
  </g>
  <g id="axes_1">
   <g id="patch_2">
    <path d="M 57.6 307.584 
L 414.72 307.584 
L 414.72 41.472 
L 57.6 41.472 
z
" style="fill:#7d9051;"/>
   </g>
   <g id="matplotlib.axis_1">
    <g id="xtick_1">
     <g id="line2d_1">
      <defs>
       <path d="M 0 0 
L 0 3.5 
" id="m7b3f6fb706" style="stroke:#000000;stroke-width:0.8;"/>
      </defs>
      <g>
       <use style="stroke:#000000;stroke-width:0.8;" x="84.252939" xlink:href="#m7b3f6fb706" y="307.584"/>
      </g>
     </g>
     <g id="text_1">
      <!-- 0 -->
      <g transform="translate(81.071689 322.182437)scale(0.1 -0.1)">
       <defs>
        <path d="M 31.78125 66.40625 
Q 24.171875 66.40625 20.328125 58.90625 
Q 16.5 51.421875 16.5 36.375 
Q 16.5 21.390625 20.328125 13.890625 
Q 24.171875 6.390625 31.78125 6.390625 
Q 39.453125 6.390625 43.28125 13.890625 
Q 47.125 21.390625 47.125 36.375 
Q 47.125 51.421875 43.28125 58.90625 
Q 39.453125 66.40625 31.78125 66.40625 
z
M 31.78125 74.21875 
Q 44.046875 74.21875 50.515625 64.515625 
Q 56.984375 54.828125 56.984375 36.375 
Q 56.984375 17.96875 50.515625 8.265625 
Q 44.046875 -1.421875 31.78125 -1.421875 
Q 19.53125 -1.421875 13.0625 8.265625 
Q 6.59375 17.96875 6.59375 36.375 
Q 6.59375 54.828125 13.0625 64.515625 
Q 19.53125 74.21875 31.78125 74.21875 
z
" id="DejaVuSans-48"/>
       </defs>
       <use xlink:href="#DejaVuSans-48"/>
      </g>
     </g>
    </g>
    <g id="xtick_2">
     <g id="line2d_2">
      <g>
       <use style="stroke:#000000;stroke-width:0.8;" x="134.515709" xlink:href="#m7b3f6fb706" y="307.584"/>
      </g>
     </g>
     <g id="text_2">
      <!-- 20 -->
      <g transform="translate(128.153209 322.182437)scale(0.1 -0.1)">
       <defs>
        <path d="M 19.1875 8.296875 
L 53.609375 8.296875 
L 53.609375 0 
L 7.328125 0 
L 7.328125 8.296875 
Q 12.9375 14.109375 22.625 23.890625 
Q 32.328125 33.6875 34.8125 36.53125 
Q 39.546875 41.84375 41.421875 45.53125 
Q 43.3125 49.21875 43.3125 52.78125 
Q 43.3125 58.59375 39.234375 62.25 
Q 35.15625 65.921875 28.609375 65.921875 
Q 23.96875 65.921875 18.8125 64.3125 
Q 13.671875 62.703125 7.8125 59.421875 
L 7.8125 69.390625 
Q 13.765625 71.78125 18.9375 73 
Q 24.125 74.21875 28.421875 74.21875 
Q 39.75 74.21875 46.484375 68.546875 
Q 53.21875 62.890625 53.21875 53.421875 
Q 53.21875 48.921875 51.53125 44.890625 
Q 49.859375 40.875 45.40625 35.40625 
Q 44.1875 33.984375 37.640625 27.21875 
Q 31.109375 20.453125 19.1875 8.296875 
z
" id="DejaVuSans-50"/>
       </defs>
       <use xlink:href="#DejaVuSans-50"/>
       <use x="63.623047" xlink:href="#DejaVuSans-48"/>
      </g>
     </g>
    </g>
    <g id="xtick_3">
     <g id="line2d_3">
      <g>
       <use style="stroke:#000000;stroke-width:0.8;" x="184.778479" xlink:href="#m7b3f6fb706" y="307.584"/>
      </g>
     </g>
     <g id="text_3">
      <!-- 40 -->
      <g transform="translate(178.415979 322.182437)scale(0.1 -0.1)">
       <defs>
        <path d="M 37.796875 64.3125 
L 12.890625 25.390625 
L 37.796875 25.390625 
z
M 35.203125 72.90625 
L 47.609375 72.90625 
L 47.609375 25.390625 
L 58.015625 25.390625 
L 58.015625 17.1875 
L 47.609375 17.1875 
L 47.609375 0 
L 37.796875 0 
L 37.796875 17.1875 
L 4.890625 17.1875 
L 4.890625 26.703125 
z
" id="DejaVuSans-52"/>
       </defs>
       <use xlink:href="#DejaVuSans-52"/>
       <use x="63.623047" xlink:href="#DejaVuSans-48"/>
      </g>
     </g>
    </g>
    <g id="xtick_4">
     <g id="line2d_4">
      <g>
       <use style="stroke:#000000;stroke-width:0.8;" x="235.041249" xlink:href="#m7b3f6fb706" y="307.584"/>
      </g>
     </g>
     <g id="text_4">
      <!-- 60 -->
      <g transform="translate(228.678749 322.182437)scale(0.1 -0.1)">
       <defs>
        <path d="M 33.015625 40.375 
Q 26.375 40.375 22.484375 35.828125 
Q 18.609375 31.296875 18.609375 23.390625 
Q 18.609375 15.53125 22.484375 10.953125 
Q 26.375 6.390625 33.015625 6.390625 
Q 39.65625 6.390625 43.53125 10.953125 
Q 47.40625 15.53125 47.40625 23.390625 
Q 47.40625 31.296875 43.53125 35.828125 
Q 39.65625 40.375 33.015625 40.375 
z
M 52.59375 71.296875 
L 52.59375 62.3125 
Q 48.875 64.0625 45.09375 64.984375 
Q 41.3125 65.921875 37.59375 65.921875 
Q 27.828125 65.921875 22.671875 59.328125 
Q 17.53125 52.734375 16.796875 39.40625 
Q 19.671875 43.65625 24.015625 45.921875 
Q 28.375 48.1875 33.59375 48.1875 
Q 44.578125 48.1875 50.953125 41.515625 
Q 57.328125 34.859375 57.328125 23.390625 
Q 57.328125 12.15625 50.6875 5.359375 
Q 44.046875 -1.421875 33.015625 -1.421875 
Q 20.359375 -1.421875 13.671875 8.265625 
Q 6.984375 17.96875 6.984375 36.375 
Q 6.984375 53.65625 15.1875 63.9375 
Q 23.390625 74.21875 37.203125 74.21875 
Q 40.921875 74.21875 44.703125 73.484375 
Q 48.484375 72.75 52.59375 71.296875 
z
" id="DejaVuSans-54"/>
       </defs>
       <use xlink:href="#DejaVuSans-54"/>
       <use x="63.623047" xlink:href="#DejaVuSans-48"/>
      </g>
     </g>
    </g>
    <g id="xtick_5">
     <g id="line2d_5">
      <g>
       <use style="stroke:#000000;stroke-width:0.8;" x="285.304018" xlink:href="#m7b3f6fb706" y="307.584"/>
      </g>
     </g>
     <g id="text_5">
      <!-- 80 -->
      <g transform="translate(278.941518 322.182437)scale(0.1 -0.1)">
       <defs>
        <path d="M 31.78125 34.625 
Q 24.75 34.625 20.71875 30.859375 
Q 16.703125 27.09375 16.703125 20.515625 
Q 16.703125 13.921875 20.71875 10.15625 
Q 24.75 6.390625 31.78125 6.390625 
Q 38.8125 6.390625 42.859375 10.171875 
Q 46.921875 13.96875 46.921875 20.515625 
Q 46.921875 27.09375 42.890625 30.859375 
Q 38.875 34.625 31.78125 34.625 
z
M 21.921875 38.8125 
Q 15.578125 40.375 12.03125 44.71875 
Q 8.5 49.078125 8.5 55.328125 
Q 8.5 64.0625 14.71875 69.140625 
Q 20.953125 74.21875 31.78125 74.21875 
Q 42.671875 74.21875 48.875 69.140625 
Q 55.078125 64.0625 55.078125 55.328125 
Q 55.078125 49.078125 51.53125 44.71875 
Q 48 40.375 41.703125 38.8125 
Q 48.828125 37.15625 52.796875 32.3125 
Q 56.78125 27.484375 56.78125 20.515625 
Q 56.78125 9.90625 50.3125 4.234375 
Q 43.84375 -1.421875 31.78125 -1.421875 
Q 19.734375 -1.421875 13.25 4.234375 
Q 6.78125 9.90625 6.78125 20.515625 
Q 6.78125 27.484375 10.78125 32.3125 
Q 14.796875 37.15625 21.921875 38.8125 
z
M 18.3125 54.390625 
Q 18.3125 48.734375 21.84375 45.5625 
Q 25.390625 42.390625 31.78125 42.390625 
Q 38.140625 42.390625 41.71875 45.5625 
Q 45.3125 48.734375 45.3125 54.390625 
Q 45.3125 60.0625 41.71875 63.234375 
Q 38.140625 66.40625 31.78125 66.40625 
Q 25.390625 66.40625 21.84375 63.234375 
Q 18.3125 60.0625 18.3125 54.390625 
z
" id="DejaVuSans-56"/>
       </defs>
       <use xlink:href="#DejaVuSans-56"/>
       <use x="63.623047" xlink:href="#DejaVuSans-48"/>
      </g>
     </g>
    </g>
    <g id="xtick_6">
     <g id="line2d_6">
      <g>
       <use style="stroke:#000000;stroke-width:0.8;" x="335.566788" xlink:href="#m7b3f6fb706" y="307.584"/>
      </g>
     </g>
     <g id="text_6">
      <!-- 100 -->
      <g transform="translate(326.023038 322.182437)scale(0.1 -0.1)">
       <defs>
        <path d="M 12.40625 8.296875 
L 28.515625 8.296875 
L 28.515625 63.921875 
L 10.984375 60.40625 
L 10.984375 69.390625 
L 28.421875 72.90625 
L 38.28125 72.90625 
L 38.28125 8.296875 
L 54.390625 8.296875 
L 54.390625 0 
L 12.40625 0 
z
" id="DejaVuSans-49"/>
       </defs>
       <use xlink:href="#DejaVuSans-49"/>
       <use x="63.623047" xlink:href="#DejaVuSans-48"/>
       <use x="127.246094" xlink:href="#DejaVuSans-48"/>
      </g>
     </g>
    </g>
    <g id="xtick_7">
     <g id="line2d_7">
      <g>
       <use style="stroke:#000000;stroke-width:0.8;" x="385.829558" xlink:href="#m7b3f6fb706" y="307.584"/>
      </g>
     </g>
     <g id="text_7">
      <!-- 120 -->
      <g transform="translate(376.285808 322.182437)scale(0.1 -0.1)">
       <use xlink:href="#DejaVuSans-49"/>
       <use x="63.623047" xlink:href="#DejaVuSans-50"/>
       <use x="127.246094" xlink:href="#DejaVuSans-48"/>
      </g>
     </g>
    </g>
   </g>
   <g id="matplotlib.axis_2">
    <g id="ytick_1">
     <g id="line2d_8">
      <defs>
       <path d="M 0 0 
L -3.5 0 
" id="m426745307e" style="stroke:#000000;stroke-width:0.8;"/>
      </defs>
      <g>
       <use style="stroke:#000000;stroke-width:0.8;" x="57.6" xlink:href="#m426745307e" y="275.208686"/>
      </g>
     </g>
     <g id="text_8">
      <!-- 0 -->
      <g transform="translate(44.2375 279.007905)scale(0.1 -0.1)">
       <use xlink:href="#DejaVuSans-48"/>
      </g>
     </g>
    </g>
    <g id="ytick_2">
     <g id="line2d_9">
      <g>
       <use style="stroke:#000000;stroke-width:0.8;" x="57.6" xlink:href="#m426745307e" y="224.945916"/>
      </g>
     </g>
     <g id="text_9">
      <!-- 20 -->
      <g transform="translate(37.875 228.745135)scale(0.1 -0.1)">
       <use xlink:href="#DejaVuSans-50"/>
       <use x="63.623047" xlink:href="#DejaVuSans-48"/>
      </g>
     </g>
    </g>
    <g id="ytick_3">
     <g id="line2d_10">
      <g>
       <use style="stroke:#000000;stroke-width:0.8;" x="57.6" xlink:href="#m426745307e" y="174.683147"/>
      </g>
     </g>
     <g id="text_10">
      <!-- 40 -->
      <g transform="translate(37.875 178.482365)scale(0.1 -0.1)">
       <use xlink:href="#DejaVuSans-52"/>
       <use x="63.623047" xlink:href="#DejaVuSans-48"/>
      </g>
     </g>
    </g>
    <g id="ytick_4">
     <g id="line2d_11">
      <g>
       <use style="stroke:#000000;stroke-width:0.8;" x="57.6" xlink:href="#m426745307e" y="124.420377"/>
      </g>
     </g>
     <g id="text_11">
      <!-- 60 -->
      <g transform="translate(37.875 128.219596)scale(0.1 -0.1)">
       <use xlink:href="#DejaVuSans-54"/>
       <use x="63.623047" xlink:href="#DejaVuSans-48"/>
      </g>
     </g>
    </g>
    <g id="ytick_5">
     <g id="line2d_12">
      <g>
       <use style="stroke:#000000;stroke-width:0.8;" x="57.6" xlink:href="#m426745307e" y="74.157607"/>
      </g>
     </g>
     <g id="text_12">
      <!-- 80 -->
      <g transform="translate(37.875 77.956826)scale(0.1 -0.1)">
       <use xlink:href="#DejaVuSans-56"/>
       <use x="63.623047" xlink:href="#DejaVuSans-48"/>
      </g>
     </g>
    </g>
   </g>
   <g id="line2d_13">
    <path clip-path="url(#p5859231f46)" d="M 84.252939 275.208686 
L 84.576344 252.06418 
L 85.319315 205.738277 
L 85.066572 199.027112 
L 83.912267 175.465769 
L 83.929226 168.826871 
L 84.288664 162.27974 
L 84.628921 159.04919 
L 85.093326 155.851906 
L 85.694723 152.691329 
L 87.313563 146.429427 
L 89.275337 139.946052 
L 91.546947 133.313577 
L 94.137706 126.673771 
L 97.056923 120.168398 
L 98.642614 117.010427 
L 100.313912 113.939227 
L 102.071979 110.972519 
L 103.917982 108.128023 
L 105.853082 105.423462 
L 107.878445 102.876555 
L 109.995234 100.505023 
L 112.204614 98.326588 
L 114.507747 96.358969 
L 116.905798 94.619889 
L 119.482633 93.049412 
L 122.302103 91.579921 
L 125.335345 90.217611 
L 128.553501 88.968676 
L 131.927709 87.839313 
L 135.429107 86.835717 
L 139.028837 85.964082 
L 142.698036 85.230604 
L 146.407845 84.641478 
L 150.129402 84.2029 
L 153.833846 83.921064 
L 157.492318 83.802165 
L 161.075956 83.8524 
L 164.5559 84.077962 
L 167.903289 84.485047 
L 171.089262 85.079852 
L 174.084958 85.868569 
L 176.861518 86.857396 
L 179.390079 88.052526 
L 181.66501 89.545418 
L 183.716136 91.399863 
L 185.567781 93.580555 
L 187.244269 96.052192 
L 188.769926 98.779468 
L 190.169076 101.72708 
L 191.466043 104.859723 
L 193.850729 111.538884 
L 198.464199 125.564191 
L 199.72698 129.003531 
L 201.082177 132.345468 
L 202.554113 135.554697 
L 204.167113 138.595914 
L 205.945502 141.433815 
L 207.913604 144.033096 
L 210.086191 146.422659 
L 212.445922 148.666826 
L 214.968954 150.783423 
L 217.631444 152.790274 
L 220.40955 154.705203 
L 226.217235 158.330595 
L 241.090719 167.033167 
L 246.68112 170.744149 
L 249.304023 172.720214 
L 251.780269 174.800428 
L 254.086017 177.002615 
L 256.197423 179.3446 
L 258.090645 181.844208 
L 259.722086 184.544624 
L 261.086094 187.458311 
L 262.215747 190.557011 
L 263.144122 193.812464 
L 263.904295 197.196413 
L 264.529343 200.680597 
L 265.506372 207.836641 
L 266.785396 218.616013 
L 267.899628 225.502779 
L 268.63444 228.771542 
L 269.531816 231.886213 
L 270.624836 234.818533 
L 271.946575 237.540244 
L 273.530109 240.023086 
L 275.408516 242.238802 
L 277.561164 244.247764 
L 279.932803 246.130419 
L 282.504584 247.888622 
L 285.257659 249.524228 
L 288.173178 251.039093 
L 291.232292 252.43507 
L 294.416153 253.714016 
L 297.705911 254.877785 
L 301.082717 255.928231 
L 304.527723 256.86721 
L 308.02208 257.696578 
L 315.083448 259.033895 
L 322.116031 259.955023 
L 328.969037 260.4748 
L 335.491674 260.608067 
L 338.644378 260.478635 
L 341.7954 260.156397 
L 344.944884 259.65788 
L 348.092974 258.999611 
L 351.239814 258.198114 
L 357.53032 256.231545 
L 363.817558 253.890384 
L 373.244808 249.965487 
L 385.813803 244.655169 
L 392.100608 242.264428 
L 395.245092 241.193004 
L 395.245092 241.193004 
" style="fill:none;stroke:#fea952;stroke-linecap:square;"/>
   </g>
   <g id="line2d_14">
    <path clip-path="url(#p5859231f46)" d="M 74.200851 275.111971 
L 74.525496 251.879021 
L 75.271693 206.053117 
L 75.027976 199.55668 
L 73.860066 175.550038 
L 73.884585 168.428088 
L 74.031854 164.835936 
L 74.291408 161.226783 
L 74.68076 157.604221 
L 75.21796 153.972814 
L 75.921405 150.338439 
L 77.667371 143.600146 
L 79.733758 136.781858 
L 82.140932 129.766647 
L 84.91121 122.683079 
L 88.073289 115.657506 
L 89.812809 112.20539 
L 91.665808 108.81437 
L 93.639527 105.50008 
L 95.742561 102.27855 
L 97.985061 99.166619 
L 100.378846 96.182539 
L 102.937309 93.346843 
L 105.674934 90.683478 
L 108.606126 88.221112 
L 111.67422 86.035925 
L 114.836482 84.134979 
L 118.183551 82.409786 
L 121.698339 80.846057 
L 125.362842 79.435915 
L 129.157904 78.175876 
L 133.063358 77.065504 
L 137.058304 76.106555 
L 141.121424 75.302456 
L 145.231312 74.658012 
L 149.366802 74.179314 
L 153.507316 73.873814 
L 157.633218 73.750599 
L 161.726177 73.820896 
L 165.769479 74.09893 
L 169.748171 74.603233 
L 173.648712 75.358583 
L 177.457522 76.398635 
L 181.157218 77.768897 
L 184.905396 79.648056 
L 188.406732 82.088674 
L 191.378942 84.893309 
L 193.88711 87.937631 
L 196.017401 91.144443 
L 197.851325 94.46878 
L 199.45707 97.881693 
L 200.889614 101.359701 
L 203.405624 108.415133 
L 207.900804 122.099466 
L 210.219479 128.154579 
L 211.434881 130.844517 
L 212.685314 133.257929 
L 213.959871 135.365559 
L 215.351493 137.270578 
L 217.013813 139.138299 
L 218.906722 140.965404 
L 221.019733 142.755851 
L 223.33658 144.513483 
L 228.498387 147.954393 
L 234.208421 151.361154 
L 243.383277 156.66696 
L 249.634687 160.573585 
L 252.730052 162.715184 
L 255.77005 165.02318 
L 258.72337 167.53082 
L 261.552282 170.271438 
L 264.210884 173.275145 
L 266.694868 176.646018 
L 268.8264 180.282546 
L 270.530622 184.015241 
L 271.882894 187.80018 
L 272.952246 191.609159 
L 273.798892 195.421363 
L 274.474915 199.217916 
L 275.492361 206.681708 
L 276.732878 217.166378 
L 277.707422 223.298007 
L 278.294067 225.988478 
L 278.951269 228.375121 
L 279.667497 230.427164 
L 280.422044 232.134666 
L 281.197994 233.522519 
L 282.267235 234.889529 
L 283.811231 236.374359 
L 285.606161 237.831813 
L 287.63905 239.24622 
L 289.892529 240.603924 
L 292.346505 241.893756 
L 294.979355 243.106975 
L 297.768703 244.236978 
L 300.691889 245.278942 
L 303.726231 246.229485 
L 310.038226 247.848279 
L 316.525733 249.085345 
L 323.01102 249.942389 
L 329.3149 250.428198 
L 335.079319 250.563974 
L 337.621693 250.478237 
L 340.223796 250.227455 
L 342.887381 249.818138 
L 345.611814 249.258066 
L 348.394913 248.556518 
L 354.124803 246.773412 
L 360.051848 244.5698 
L 369.270559 240.731897 
L 382.147374 235.295087 
L 388.858427 232.749067 
L 392.002911 231.677643 
L 392.002911 231.677643 
" style="fill:none;stroke:#ffffff;stroke-linecap:square;"/>
   </g>
   <g id="line2d_15">
    <path clip-path="url(#p5859231f46)" d="M 94.305028 275.305401 
L 94.627193 252.24934 
L 95.420084 208.92458 
L 95.257201 201.946907 
L 94.72906 191.691702 
L 94.049199 178.54715 
L 93.935988 172.272835 
L 94.087573 166.244293 
L 94.577081 160.49416 
L 94.968692 157.730999 
L 95.468041 155.04422 
L 96.959755 149.258707 
L 98.816915 143.110245 
L 100.952962 136.860508 
L 103.364201 130.664463 
L 106.040558 124.67929 
L 108.962015 119.064083 
L 110.504432 116.444958 
L 112.093402 113.977497 
L 113.721104 111.680305 
L 115.378045 109.570571 
L 117.05316 107.663203 
L 118.734294 105.969697 
L 120.409368 104.496826 
L 122.137376 103.203852 
L 124.128784 101.963845 
L 126.420655 100.750055 
L 128.972352 99.589164 
L 131.74416 98.501437 
L 134.697513 97.502751 
L 137.794857 96.60593 
L 140.99937 95.821609 
L 144.274648 95.158753 
L 147.584378 94.624945 
L 150.892002 94.226486 
L 154.160377 93.968313 
L 157.351419 93.853732 
L 160.425736 93.883903 
L 163.342321 94.056993 
L 166.058407 94.366862 
L 168.529812 94.80112 
L 170.712395 95.338504 
L 173.874763 96.456997 
L 174.923289 97.002162 
L 176.05333 97.906416 
L 177.248451 99.22348 
L 178.471137 100.959941 
L 179.688527 103.090157 
L 180.881081 105.572468 
L 182.042472 108.359745 
L 184.295834 114.662636 
L 189.027594 129.028917 
L 190.41123 132.781182 
L 191.944875 136.536357 
L 193.673344 140.264877 
L 195.648912 143.9339 
L 197.931133 147.502071 
L 200.475715 150.795614 
L 203.158569 153.707018 
L 205.985122 156.368248 
L 208.918175 158.810996 
L 211.926309 161.067065 
L 214.982089 163.166675 
L 221.137567 167.005317 
L 238.236122 177.13523 
L 240.632189 178.773113 
L 242.837996 180.417248 
L 244.837169 182.070036 
L 246.619753 183.733792 
L 248.183963 185.414056 
L 249.486422 187.042399 
L 250.617772 188.806702 
L 251.641566 190.901382 
L 252.548601 193.313842 
L 253.335999 196.01577 
L 254.009699 198.971462 
L 255.078801 205.494655 
L 257.397863 223.872911 
L 258.091834 227.707551 
L 258.974812 231.554606 
L 260.112364 235.397304 
L 261.582175 239.209901 
L 263.471105 242.945821 
L 265.862224 246.523654 
L 268.549797 249.588075 
L 271.311097 252.121169 
L 274.259446 254.429024 
L 277.370119 256.531023 
L 280.622789 258.444532 
L 283.99985 260.184429 
L 287.485229 261.763166 
L 291.063602 263.191054 
L 294.719932 264.476627 
L 298.439203 265.626977 
L 302.206293 266.648049 
L 306.005933 267.544877 
L 309.822721 268.321769 
L 317.445748 269.530139 
L 324.951811 270.297408 
L 332.220813 270.641193 
L 335.904028 270.65216 
L 339.667064 270.479032 
L 343.367005 270.08534 
L 347.002387 269.497622 
L 350.574134 268.741155 
L 354.084715 267.83971 
L 357.537424 266.815571 
L 364.283419 264.481845 
L 370.83796 261.895217 
L 392.435688 252.85542 
L 398.487273 250.708366 
L 398.487273 250.708366 
" style="fill:none;stroke:#ffffff;stroke-linecap:square;"/>
   </g>
   <g id="patch_3">
    <path d="M 57.6 307.584 
L 57.6 41.472 
" style="fill:none;stroke:#000000;stroke-linecap:square;stroke-linejoin:miter;stroke-width:0.8;"/>
   </g>
   <g id="patch_4">
    <path d="M 414.72 307.584 
L 414.72 41.472 
" style="fill:none;stroke:#000000;stroke-linecap:square;stroke-linejoin:miter;stroke-width:0.8;"/>
   </g>
   <g id="patch_5">
    <path d="M 57.6 307.584 
L 414.72 307.584 
" style="fill:none;stroke:#000000;stroke-linecap:square;stroke-linejoin:miter;stroke-width:0.8;"/>
   </g>
   <g id="patch_6">
    <path d="M 57.6 41.472 
L 414.72 41.472 
" style="fill:none;stroke:#000000;stroke-linecap:square;stroke-linejoin:miter;stroke-width:0.8;"/>
   </g>
  </g>
 </g>
 <defs>
  <clipPath id="p5859231f46">
   <rect height="266.112" width="357.12" x="57.6" y="41.472"/>
  </clipPath>
 </defs>
</svg>
