<?xml version="1.0" encoding="utf-8" standalone="no"?>
<!DOCTYPE svg PUBLIC "-//W3C//DTD SVG 1.1//EN"
  "http://www.w3.org/Graphics/SVG/1.1/DTD/svg11.dtd">
<!-- Created with matplotlib (https://matplotlib.org/) -->
<svg height="345.6pt" version="1.1" viewBox="0 0 460.8 345.6" width="460.8pt" xmlns="http://www.w3.org/2000/svg" xmlns:xlink="http://www.w3.org/1999/xlink">
 <metadata>
  <rdf:RDF xmlns:cc="http://creativecommons.org/ns#" xmlns:dc="http://purl.org/dc/elements/1.1/" xmlns:rdf="http://www.w3.org/1999/02/22-rdf-syntax-ns#">
   <cc:Work>
    <dc:type rdf:resource="http://purl.org/dc/dcmitype/StillImage"/>
    <dc:date>2021-06-14T15:10:18.327896</dc:date>
    <dc:format>image/svg+xml</dc:format>
    <dc:creator>
     <cc:Agent>
      <dc:title>Matplotlib v3.3.3, https://matplotlib.org/</dc:title>
     </cc:Agent>
    </dc:creator>
   </cc:Work>
  </rdf:RDF>
 </metadata>
 <defs>
  <style type="text/css">*{stroke-linecap:butt;stroke-linejoin:round;}</style>
 </defs>
 <g id="figure_1">
  <g id="patch_1">
   <path d="M 0 345.6 
L 460.8 345.6 
L 460.8 0 
L 0 0 
z
" style="fill:#ffffff;"/>
  </g>
  <g id="axes_1">
   <g id="patch_2">
    <path d="M 57.6 307.584 
L 414.72 307.584 
L 414.72 41.472 
L 57.6 41.472 
z
" style="fill:#7d9051;"/>
   </g>
   <g id="matplotlib.axis_1">
    <g id="xtick_1">
     <g id="line2d_1">
      <defs>
       <path d="M 0 0 
L 0 3.5 
" id="m9d950e0687" style="stroke:#000000;stroke-width:0.8;"/>
      </defs>
      <g>
       <use style="stroke:#000000;stroke-width:0.8;" x="96.022586" xlink:href="#m9d950e0687" y="307.584"/>
      </g>
     </g>
     <g id="text_1">
      <!-- −20 -->
      <g transform="translate(85.470242 322.182437)scale(0.1 -0.1)">
       <defs>
        <path d="M 10.59375 35.5 
L 73.1875 35.5 
L 73.1875 27.203125 
L 10.59375 27.203125 
z
" id="DejaVuSans-8722"/>
        <path d="M 19.1875 8.296875 
L 53.609375 8.296875 
L 53.609375 0 
L 7.328125 0 
L 7.328125 8.296875 
Q 12.9375 14.109375 22.625 23.890625 
Q 32.328125 33.6875 34.8125 36.53125 
Q 39.546875 41.84375 41.421875 45.53125 
Q 43.3125 49.21875 43.3125 52.78125 
Q 43.3125 58.59375 39.234375 62.25 
Q 35.15625 65.921875 28.609375 65.921875 
Q 23.96875 65.921875 18.8125 64.3125 
Q 13.671875 62.703125 7.8125 59.421875 
L 7.8125 69.390625 
Q 13.765625 71.78125 18.9375 73 
Q 24.125 74.21875 28.421875 74.21875 
Q 39.75 74.21875 46.484375 68.546875 
Q 53.21875 62.890625 53.21875 53.421875 
Q 53.21875 48.921875 51.53125 44.890625 
Q 49.859375 40.875 45.40625 35.40625 
Q 44.1875 33.984375 37.640625 27.21875 
Q 31.109375 20.453125 19.1875 8.296875 
z
" id="DejaVuSans-50"/>
        <path d="M 31.78125 66.40625 
Q 24.171875 66.40625 20.328125 58.90625 
Q 16.5 51.421875 16.5 36.375 
Q 16.5 21.390625 20.328125 13.890625 
Q 24.171875 6.390625 31.78125 6.390625 
Q 39.453125 6.390625 43.28125 13.890625 
Q 47.125 21.390625 47.125 36.375 
Q 47.125 51.421875 43.28125 58.90625 
Q 39.453125 66.40625 31.78125 66.40625 
z
M 31.78125 74.21875 
Q 44.046875 74.21875 50.515625 64.515625 
Q 56.984375 54.828125 56.984375 36.375 
Q 56.984375 17.96875 50.515625 8.265625 
Q 44.046875 -1.421875 31.78125 -1.421875 
Q 19.53125 -1.421875 13.0625 8.265625 
Q 6.59375 17.96875 6.59375 36.375 
Q 6.59375 54.828125 13.0625 64.515625 
Q 19.53125 74.21875 31.78125 74.21875 
z
" id="DejaVuSans-48"/>
       </defs>
       <use xlink:href="#DejaVuSans-8722"/>
       <use x="83.789062" xlink:href="#DejaVuSans-50"/>
       <use x="147.412109" xlink:href="#DejaVuSans-48"/>
      </g>
     </g>
    </g>
    <g id="xtick_2">
     <g id="line2d_2">
      <g>
       <use style="stroke:#000000;stroke-width:0.8;" x="144.37648" xlink:href="#m9d950e0687" y="307.584"/>
      </g>
     </g>
     <g id="text_2">
      <!-- 0 -->
      <g transform="translate(141.19523 322.182437)scale(0.1 -0.1)">
       <use xlink:href="#DejaVuSans-48"/>
      </g>
     </g>
    </g>
    <g id="xtick_3">
     <g id="line2d_3">
      <g>
       <use style="stroke:#000000;stroke-width:0.8;" x="192.730375" xlink:href="#m9d950e0687" y="307.584"/>
      </g>
     </g>
     <g id="text_3">
      <!-- 20 -->
      <g transform="translate(186.367875 322.182437)scale(0.1 -0.1)">
       <use xlink:href="#DejaVuSans-50"/>
       <use x="63.623047" xlink:href="#DejaVuSans-48"/>
      </g>
     </g>
    </g>
    <g id="xtick_4">
     <g id="line2d_4">
      <g>
       <use style="stroke:#000000;stroke-width:0.8;" x="241.084269" xlink:href="#m9d950e0687" y="307.584"/>
      </g>
     </g>
     <g id="text_4">
      <!-- 40 -->
      <g transform="translate(234.721769 322.182437)scale(0.1 -0.1)">
       <defs>
        <path d="M 37.796875 64.3125 
L 12.890625 25.390625 
L 37.796875 25.390625 
z
M 35.203125 72.90625 
L 47.609375 72.90625 
L 47.609375 25.390625 
L 58.015625 25.390625 
L 58.015625 17.1875 
L 47.609375 17.1875 
L 47.609375 0 
L 37.796875 0 
L 37.796875 17.1875 
L 4.890625 17.1875 
L 4.890625 26.703125 
z
" id="DejaVuSans-52"/>
       </defs>
       <use xlink:href="#DejaVuSans-52"/>
       <use x="63.623047" xlink:href="#DejaVuSans-48"/>
      </g>
     </g>
    </g>
    <g id="xtick_5">
     <g id="line2d_5">
      <g>
       <use style="stroke:#000000;stroke-width:0.8;" x="289.438164" xlink:href="#m9d950e0687" y="307.584"/>
      </g>
     </g>
     <g id="text_5">
      <!-- 60 -->
      <g transform="translate(283.075664 322.182437)scale(0.1 -0.1)">
       <defs>
        <path d="M 33.015625 40.375 
Q 26.375 40.375 22.484375 35.828125 
Q 18.609375 31.296875 18.609375 23.390625 
Q 18.609375 15.53125 22.484375 10.953125 
Q 26.375 6.390625 33.015625 6.390625 
Q 39.65625 6.390625 43.53125 10.953125 
Q 47.40625 15.53125 47.40625 23.390625 
Q 47.40625 31.296875 43.53125 35.828125 
Q 39.65625 40.375 33.015625 40.375 
z
M 52.59375 71.296875 
L 52.59375 62.3125 
Q 48.875 64.0625 45.09375 64.984375 
Q 41.3125 65.921875 37.59375 65.921875 
Q 27.828125 65.921875 22.671875 59.328125 
Q 17.53125 52.734375 16.796875 39.40625 
Q 19.671875 43.65625 24.015625 45.921875 
Q 28.375 48.1875 33.59375 48.1875 
Q 44.578125 48.1875 50.953125 41.515625 
Q 57.328125 34.859375 57.328125 23.390625 
Q 57.328125 12.15625 50.6875 5.359375 
Q 44.046875 -1.421875 33.015625 -1.421875 
Q 20.359375 -1.421875 13.671875 8.265625 
Q 6.984375 17.96875 6.984375 36.375 
Q 6.984375 53.65625 15.1875 63.9375 
Q 23.390625 74.21875 37.203125 74.21875 
Q 40.921875 74.21875 44.703125 73.484375 
Q 48.484375 72.75 52.59375 71.296875 
z
" id="DejaVuSans-54"/>
       </defs>
       <use xlink:href="#DejaVuSans-54"/>
       <use x="63.623047" xlink:href="#DejaVuSans-48"/>
      </g>
     </g>
    </g>
    <g id="xtick_6">
     <g id="line2d_6">
      <g>
       <use style="stroke:#000000;stroke-width:0.8;" x="337.792058" xlink:href="#m9d950e0687" y="307.584"/>
      </g>
     </g>
     <g id="text_6">
      <!-- 80 -->
      <g transform="translate(331.429558 322.182437)scale(0.1 -0.1)">
       <defs>
        <path d="M 31.78125 34.625 
Q 24.75 34.625 20.71875 30.859375 
Q 16.703125 27.09375 16.703125 20.515625 
Q 16.703125 13.921875 20.71875 10.15625 
Q 24.75 6.390625 31.78125 6.390625 
Q 38.8125 6.390625 42.859375 10.171875 
Q 46.921875 13.96875 46.921875 20.515625 
Q 46.921875 27.09375 42.890625 30.859375 
Q 38.875 34.625 31.78125 34.625 
z
M 21.921875 38.8125 
Q 15.578125 40.375 12.03125 44.71875 
Q 8.5 49.078125 8.5 55.328125 
Q 8.5 64.0625 14.71875 69.140625 
Q 20.953125 74.21875 31.78125 74.21875 
Q 42.671875 74.21875 48.875 69.140625 
Q 55.078125 64.0625 55.078125 55.328125 
Q 55.078125 49.078125 51.53125 44.71875 
Q 48 40.375 41.703125 38.8125 
Q 48.828125 37.15625 52.796875 32.3125 
Q 56.78125 27.484375 56.78125 20.515625 
Q 56.78125 9.90625 50.3125 4.234375 
Q 43.84375 -1.421875 31.78125 -1.421875 
Q 19.734375 -1.421875 13.25 4.234375 
Q 6.78125 9.90625 6.78125 20.515625 
Q 6.78125 27.484375 10.78125 32.3125 
Q 14.796875 37.15625 21.921875 38.8125 
z
M 18.3125 54.390625 
Q 18.3125 48.734375 21.84375 45.5625 
Q 25.390625 42.390625 31.78125 42.390625 
Q 38.140625 42.390625 41.71875 45.5625 
Q 45.3125 48.734375 45.3125 54.390625 
Q 45.3125 60.0625 41.71875 63.234375 
Q 38.140625 66.40625 31.78125 66.40625 
Q 25.390625 66.40625 21.84375 63.234375 
Q 18.3125 60.0625 18.3125 54.390625 
z
" id="DejaVuSans-56"/>
       </defs>
       <use xlink:href="#DejaVuSans-56"/>
       <use x="63.623047" xlink:href="#DejaVuSans-48"/>
      </g>
     </g>
    </g>
    <g id="xtick_7">
     <g id="line2d_7">
      <g>
       <use style="stroke:#000000;stroke-width:0.8;" x="386.145952" xlink:href="#m9d950e0687" y="307.584"/>
      </g>
     </g>
     <g id="text_7">
      <!-- 100 -->
      <g transform="translate(376.602202 322.182437)scale(0.1 -0.1)">
       <defs>
        <path d="M 12.40625 8.296875 
L 28.515625 8.296875 
L 28.515625 63.921875 
L 10.984375 60.40625 
L 10.984375 69.390625 
L 28.421875 72.90625 
L 38.28125 72.90625 
L 38.28125 8.296875 
L 54.390625 8.296875 
L 54.390625 0 
L 12.40625 0 
z
" id="DejaVuSans-49"/>
       </defs>
       <use xlink:href="#DejaVuSans-49"/>
       <use x="63.623047" xlink:href="#DejaVuSans-48"/>
       <use x="127.246094" xlink:href="#DejaVuSans-48"/>
      </g>
     </g>
    </g>
   </g>
   <g id="matplotlib.axis_2">
    <g id="ytick_1">
     <g id="line2d_8">
      <defs>
       <path d="M 0 0 
L -3.5 0 
" id="m3cf18b7e18" style="stroke:#000000;stroke-width:0.8;"/>
      </defs>
      <g>
       <use style="stroke:#000000;stroke-width:0.8;" x="57.6" xlink:href="#m3cf18b7e18" y="295.394958"/>
      </g>
     </g>
     <g id="text_8">
      <!-- 0 -->
      <g transform="translate(44.2375 299.194177)scale(0.1 -0.1)">
       <use xlink:href="#DejaVuSans-48"/>
      </g>
     </g>
    </g>
    <g id="ytick_2">
     <g id="line2d_9">
      <g>
       <use style="stroke:#000000;stroke-width:0.8;" x="57.6" xlink:href="#m3cf18b7e18" y="247.041064"/>
      </g>
     </g>
     <g id="text_9">
      <!-- 20 -->
      <g transform="translate(37.875 250.840282)scale(0.1 -0.1)">
       <use xlink:href="#DejaVuSans-50"/>
       <use x="63.623047" xlink:href="#DejaVuSans-48"/>
      </g>
     </g>
    </g>
    <g id="ytick_3">
     <g id="line2d_10">
      <g>
       <use style="stroke:#000000;stroke-width:0.8;" x="57.6" xlink:href="#m3cf18b7e18" y="198.687169"/>
      </g>
     </g>
     <g id="text_10">
      <!-- 40 -->
      <g transform="translate(37.875 202.486388)scale(0.1 -0.1)">
       <use xlink:href="#DejaVuSans-52"/>
       <use x="63.623047" xlink:href="#DejaVuSans-48"/>
      </g>
     </g>
    </g>
    <g id="ytick_4">
     <g id="line2d_11">
      <g>
       <use style="stroke:#000000;stroke-width:0.8;" x="57.6" xlink:href="#m3cf18b7e18" y="150.333275"/>
      </g>
     </g>
     <g id="text_11">
      <!-- 60 -->
      <g transform="translate(37.875 154.132494)scale(0.1 -0.1)">
       <use xlink:href="#DejaVuSans-54"/>
       <use x="63.623047" xlink:href="#DejaVuSans-48"/>
      </g>
     </g>
    </g>
    <g id="ytick_5">
     <g id="line2d_12">
      <g>
       <use style="stroke:#000000;stroke-width:0.8;" x="57.6" xlink:href="#m3cf18b7e18" y="101.97938"/>
      </g>
     </g>
     <g id="text_12">
      <!-- 80 -->
      <g transform="translate(37.875 105.778599)scale(0.1 -0.1)">
       <use xlink:href="#DejaVuSans-56"/>
       <use x="63.623047" xlink:href="#DejaVuSans-48"/>
      </g>
     </g>
    </g>
    <g id="ytick_6">
     <g id="line2d_13">
      <g>
       <use style="stroke:#000000;stroke-width:0.8;" x="57.6" xlink:href="#m3cf18b7e18" y="53.625486"/>
      </g>
     </g>
     <g id="text_13">
      <!-- 100 -->
      <g transform="translate(31.5125 57.424705)scale(0.1 -0.1)">
       <use xlink:href="#DejaVuSans-49"/>
       <use x="63.623047" xlink:href="#DejaVuSans-48"/>
       <use x="127.246094" xlink:href="#DejaVuSans-48"/>
      </g>
     </g>
    </g>
   </g>
   <g id="line2d_14">
    <path clip-path="url(#p62c67ca810)" d="M 144.37648 295.394958 
L 144.687603 273.129432 
L 145.531443 231.76832 
L 145.954535 225.317455 
L 146.923514 215.545286 
L 147.937072 205.760334 
L 148.439415 199.286744 
L 148.664377 192.892691 
L 148.635692 189.736144 
L 148.493082 186.612264 
L 148.221689 183.525311 
L 147.806652 180.479548 
L 147.233112 177.479235 
L 146.48621 174.528633 
L 145.471996 171.63205 
L 144.135012 168.787785 
L 142.51813 165.99109 
L 140.664225 163.237213 
L 138.61617 160.521405 
L 134.109106 155.184998 
L 122.444981 142.177694 
L 120.387181 139.595442 
L 118.521093 137.00851 
L 116.889593 134.412148 
L 115.535554 131.801605 
L 114.501849 129.172133 
L 113.831352 126.51898 
L 113.566937 123.837398 
L 113.654447 121.075933 
L 114.000947 118.200197 
L 114.591143 115.231034 
L 115.409742 112.189289 
L 116.441448 109.095809 
L 117.670969 105.971438 
L 119.083009 102.837021 
L 120.662276 99.713405 
L 122.393475 96.621434 
L 124.261312 93.581953 
L 126.250494 90.615808 
L 128.345725 87.743844 
L 130.531713 84.986907 
L 132.793163 82.365842 
L 135.114782 79.901494 
L 137.481274 77.614708 
L 139.877347 75.526329 
L 142.287706 73.657204 
L 144.697058 72.028177 
L 147.201205 70.589673 
L 149.892787 69.278428 
L 152.751766 68.094755 
L 155.758102 67.038965 
L 158.891755 66.11137 
L 162.132688 65.312283 
L 165.460861 64.642014 
L 168.856235 64.100877 
L 172.29877 63.689184 
L 175.768428 63.407246 
L 179.24517 63.255375 
L 182.708956 63.233884 
L 186.139748 63.343084 
L 189.517506 63.583287 
L 192.822191 63.954806 
L 196.033765 64.457953 
L 199.132188 65.093039 
L 202.097421 65.860376 
L 204.909424 66.760277 
L 207.575524 67.881986 
L 210.125166 69.294546 
L 212.571496 70.967965 
L 214.927657 72.872252 
L 217.206794 74.977418 
L 219.422051 77.253471 
L 223.713503 82.198275 
L 230.000193 90.147365 
L 234.244345 95.451454 
L 238.653598 100.479387 
L 240.952998 102.814817 
L 243.333106 104.991236 
L 245.807067 106.978652 
L 248.388025 108.747074 
L 251.079309 110.311551 
L 253.86793 111.719331 
L 256.742555 112.988724 
L 259.69185 114.138041 
L 265.76912 116.149685 
L 272.009076 117.900747 
L 287.72573 122.099638 
L 293.821103 124.092205 
L 296.782467 125.228804 
L 299.671172 126.483359 
L 302.475885 127.874182 
L 305.185272 129.419582 
L 310.541234 132.801285 
L 315.925646 136.42639 
L 321.260978 140.287647 
L 326.469702 144.377803 
L 331.47429 148.689606 
L 336.197214 153.215806 
L 340.560945 157.94915 
L 342.583885 160.391235 
L 344.487954 162.882386 
L 346.263461 165.421698 
L 347.900714 168.008264 
L 349.390022 170.641177 
L 350.708402 173.346797 
L 351.849463 176.146699 
L 352.828403 179.032802 
L 353.660422 181.997024 
L 354.360718 185.031284 
L 355.426938 191.277595 
L 356.148651 197.707082 
L 356.851252 207.553347 
L 357.717125 220.719412 
L 358.393242 227.173144 
L 358.845292 230.3394 
L 358.845292 230.3394 
" style="fill:none;stroke:#fea952;stroke-linecap:square;"/>
   </g>
   <g id="line2d_15">
    <path clip-path="url(#p62c67ca810)" d="M 134.706149 295.301916 
L 135.018465 272.951305 
L 135.875666 231.229871 
L 136.322918 224.448013 
L 137.308645 214.506898 
L 138.567879 201.84667 
L 138.92558 195.863999 
L 138.974975 190.177169 
L 138.639465 184.831051 
L 138.307869 182.295336 
L 137.358767 177.724529 
L 136.719926 175.746077 
L 135.762736 173.628133 
L 134.495822 171.391694 
L 132.942912 169.060038 
L 131.137645 166.652933 
L 126.929257 161.663712 
L 114.881954 148.204682 
L 112.544041 145.253102 
L 110.332749 142.153895 
L 108.304886 138.864874 
L 106.535275 135.339818 
L 105.12584 131.54161 
L 104.207247 127.467957 
L 103.90101 123.531088 
L 104.053113 119.91906 
L 104.515741 116.314772 
L 105.25263 112.717841 
L 106.235721 109.129662 
L 107.442406 105.554454 
L 108.853613 101.999258 
L 110.452583 98.473571 
L 112.224109 94.988863 
L 114.154117 91.558141 
L 116.229455 88.19556 
L 118.437845 84.916116 
L 120.767959 81.735399 
L 123.20961 78.669411 
L 125.754084 75.734452 
L 128.394628 72.947107 
L 131.127139 70.324376 
L 133.951129 67.884084 
L 136.870968 65.64578 
L 139.879929 63.642521 
L 142.965801 61.895691 
L 146.193419 60.343181 
L 149.547362 58.970296 
L 153.013181 57.765919 
L 156.576651 56.721788 
L 160.223403 55.83185 
L 163.938792 55.091765 
L 167.707887 54.49852 
L 171.515522 54.050175 
L 175.346392 53.74568 
L 179.185168 53.584782 
L 183.016615 53.568 
L 186.825736 53.696666 
L 190.597907 53.973048 
L 194.319022 54.400569 
L 197.97562 54.984138 
L 201.554966 55.730662 
L 205.045017 56.64975 
L 208.659797 57.846318 
L 212.262156 59.422705 
L 215.585243 61.312596 
L 218.65039 63.446594 
L 221.48942 65.768224 
L 224.136997 68.232328 
L 226.626169 70.801755 
L 231.243285 76.129803 
L 237.592173 84.156888 
L 241.61508 89.190765 
L 245.544822 93.694478 
L 247.479063 95.677981 
L 249.389706 97.451902 
L 251.273271 99.000896 
L 253.248239 100.386315 
L 255.43754 101.678488 
L 257.774476 102.872701 
L 260.253977 103.97796 
L 265.606567 105.960523 
L 271.411245 107.71651 
L 280.758036 110.179017 
L 287.281191 111.911236 
L 293.936509 113.907777 
L 297.286368 115.063589 
L 300.634835 116.358447 
L 303.967549 117.819347 
L 307.267339 119.473828 
L 310.291926 121.207027 
L 315.878469 124.736677 
L 321.523731 128.540618 
L 327.153064 132.619056 
L 332.691957 136.974593 
L 338.065495 141.612885 
L 343.197406 146.543379 
L 345.648157 149.122351 
L 348.008404 151.779927 
L 350.267327 154.518528 
L 352.413514 157.340774 
L 354.434812 160.24937 
L 356.318173 163.246925 
L 358.083628 166.405003 
L 359.664034 169.697054 
L 361.007748 173.04029 
L 362.139352 176.419338 
L 363.083488 179.822215 
L 363.864057 183.23949 
L 364.503808 186.663461 
L 365.445442 193.505215 
L 366.065651 200.297352 
L 367.629059 222.853278 
L 368.41899 228.972553 
L 368.41899 228.972553 
" style="fill:none;stroke:#ffffff;stroke-linecap:square;"/>
   </g>
   <g id="line2d_16">
    <path clip-path="url(#p62c67ca810)" d="M 154.046812 295.488 
L 154.356742 273.30756 
L 155.187221 232.306769 
L 155.586151 226.186896 
L 156.538383 216.583674 
L 157.572443 206.587129 
L 158.098993 199.75205 
L 158.334757 192.80481 
L 158.296409 189.295118 
L 158.126702 185.765311 
L 157.803912 182.219571 
L 157.305435 178.663761 
L 156.608188 175.10607 
L 155.613653 171.332738 
L 154.224067 167.518022 
L 152.507287 163.947438 
L 150.540439 160.590485 
L 148.385538 157.414388 
L 146.094695 154.389878 
L 141.288954 148.706284 
L 130.008008 136.150706 
L 128.230321 133.937782 
L 126.709437 131.863125 
L 125.4743 129.959421 
L 124.535833 128.263393 
L 123.877858 126.802655 
L 123.455458 125.570004 
L 123.232864 124.143709 
L 123.255781 122.232807 
L 123.486154 120.085621 
L 123.929656 117.744227 
L 124.583762 115.248916 
L 125.440491 112.637164 
L 126.488324 109.943617 
L 127.713436 107.200472 
L 129.100444 104.437947 
L 130.632834 101.684726 
L 132.29317 98.968346 
L 134.063142 96.3155 
L 135.923492 93.75229 
L 137.853817 91.304404 
L 139.832242 88.997232 
L 141.834936 86.85588 
L 143.835409 84.905039 
L 145.803565 83.168574 
L 147.704445 81.668628 
L 149.514187 80.413833 
L 151.436608 79.283655 
L 153.592155 78.213675 
L 155.95617 77.219214 
L 158.503022 76.312011 
L 161.20686 75.500952 
L 164.041974 74.792715 
L 166.98293 74.192264 
L 170.004582 73.703235 
L 173.082018 73.328193 
L 176.190464 73.068811 
L 179.305172 72.925968 
L 182.401297 72.899768 
L 185.453759 72.989502 
L 188.437104 73.193527 
L 191.325361 73.509044 
L 194.09191 73.931768 
L 196.709409 74.455416 
L 201.159052 75.674237 
L 202.888891 76.341268 
L 204.66509 77.276496 
L 206.492602 78.489335 
L 208.365893 79.976281 
L 210.27659 81.722508 
L 212.217933 83.705187 
L 216.183722 88.266747 
L 222.408214 96.137842 
L 226.87361 101.712144 
L 229.253565 104.506539 
L 231.762373 107.264296 
L 234.426932 109.951653 
L 237.276506 112.53057 
L 240.340863 114.956407 
L 243.527812 117.107833 
L 246.721078 118.944615 
L 249.961385 120.565962 
L 253.231133 121.999489 
L 256.515671 123.272364 
L 263.079962 125.439055 
L 269.564745 127.25752 
L 284.85377 131.334128 
L 290.355838 133.120821 
L 292.930099 134.09916 
L 295.374795 135.147371 
L 297.684431 136.274535 
L 300.078619 137.632136 
L 305.204 140.865892 
L 310.327561 144.312163 
L 315.368892 147.956237 
L 320.247447 151.781012 
L 324.883085 155.766327 
L 329.197022 159.888232 
L 333.113485 164.118373 
L 336.562394 168.423999 
L 338.09211 170.594027 
L 339.483255 172.769603 
L 340.696416 174.877352 
L 341.75277 176.99654 
L 342.691178 179.253108 
L 343.517454 181.646265 
L 344.237356 184.171833 
L 344.85738 186.823079 
L 345.829672 192.467748 
L 346.510724 198.503533 
L 347.197048 208.119308 
L 348.088834 221.624937 
L 348.819544 228.53999 
L 349.271593 231.706246 
L 349.271593 231.706246 
" style="fill:none;stroke:#ffffff;stroke-linecap:square;"/>
   </g>
   <g id="patch_3">
    <path d="M 57.6 307.584 
L 57.6 41.472 
" style="fill:none;stroke:#000000;stroke-linecap:square;stroke-linejoin:miter;stroke-width:0.8;"/>
   </g>
   <g id="patch_4">
    <path d="M 414.72 307.584 
L 414.72 41.472 
" style="fill:none;stroke:#000000;stroke-linecap:square;stroke-linejoin:miter;stroke-width:0.8;"/>
   </g>
   <g id="patch_5">
    <path d="M 57.6 307.584 
L 414.72 307.584 
" style="fill:none;stroke:#000000;stroke-linecap:square;stroke-linejoin:miter;stroke-width:0.8;"/>
   </g>
   <g id="patch_6">
    <path d="M 57.6 41.472 
L 414.72 41.472 
" style="fill:none;stroke:#000000;stroke-linecap:square;stroke-linejoin:miter;stroke-width:0.8;"/>
   </g>
  </g>
 </g>
 <defs>
  <clipPath id="p62c67ca810">
   <rect height="266.112" width="357.12" x="57.6" y="41.472"/>
  </clipPath>
 </defs>
</svg>
