<?xml version="1.0" encoding="utf-8" standalone="no"?>
<!DOCTYPE svg PUBLIC "-//W3C//DTD SVG 1.1//EN"
  "http://www.w3.org/Graphics/SVG/1.1/DTD/svg11.dtd">
<!-- Created with matplotlib (https://matplotlib.org/) -->
<svg height="345.6pt" version="1.1" viewBox="0 0 460.8 345.6" width="460.8pt" xmlns="http://www.w3.org/2000/svg" xmlns:xlink="http://www.w3.org/1999/xlink">
 <metadata>
  <rdf:RDF xmlns:cc="http://creativecommons.org/ns#" xmlns:dc="http://purl.org/dc/elements/1.1/" xmlns:rdf="http://www.w3.org/1999/02/22-rdf-syntax-ns#">
   <cc:Work>
    <dc:type rdf:resource="http://purl.org/dc/dcmitype/StillImage"/>
    <dc:date>2021-05-05T15:55:46.720681</dc:date>
    <dc:format>image/svg+xml</dc:format>
    <dc:creator>
     <cc:Agent>
      <dc:title>Matplotlib v3.3.4, https://matplotlib.org/</dc:title>
     </cc:Agent>
    </dc:creator>
   </cc:Work>
  </rdf:RDF>
 </metadata>
 <defs>
  <style type="text/css">*{stroke-linecap:butt;stroke-linejoin:round;}</style>
 </defs>
 <g id="figure_1">
  <g id="patch_1">
   <path d="M 0 345.6 
L 460.8 345.6 
L 460.8 0 
L 0 0 
z
" style="fill:#ffffff;"/>
  </g>
  <g id="axes_1">
   <g id="patch_2">
    <path d="M 57.6 307.584 
L 414.72 307.584 
L 414.72 41.472 
L 57.6 41.472 
z
" style="fill:#7d9051;"/>
   </g>
   <g id="matplotlib.axis_1">
    <g id="xtick_1">
     <g id="line2d_1">
      <defs>
       <path d="M 0 0 
L 0 3.5 
" id="m0de5cd2584" style="stroke:#000000;stroke-width:0.8;"/>
      </defs>
      <g>
       <use style="stroke:#000000;stroke-width:0.8;" x="67.146243" xlink:href="#m0de5cd2584" y="307.584"/>
      </g>
     </g>
     <g id="text_1">
      <!-- −125 -->
      <g transform="translate(53.412649 322.182437)scale(0.1 -0.1)">
       <defs>
        <path d="M 10.59375 35.5 
L 73.1875 35.5 
L 73.1875 27.203125 
L 10.59375 27.203125 
z
" id="DejaVuSans-8722"/>
        <path d="M 12.40625 8.296875 
L 28.515625 8.296875 
L 28.515625 63.921875 
L 10.984375 60.40625 
L 10.984375 69.390625 
L 28.421875 72.90625 
L 38.28125 72.90625 
L 38.28125 8.296875 
L 54.390625 8.296875 
L 54.390625 0 
L 12.40625 0 
z
" id="DejaVuSans-49"/>
        <path d="M 19.1875 8.296875 
L 53.609375 8.296875 
L 53.609375 0 
L 7.328125 0 
L 7.328125 8.296875 
Q 12.9375 14.109375 22.625 23.890625 
Q 32.328125 33.6875 34.8125 36.53125 
Q 39.546875 41.84375 41.421875 45.53125 
Q 43.3125 49.21875 43.3125 52.78125 
Q 43.3125 58.59375 39.234375 62.25 
Q 35.15625 65.921875 28.609375 65.921875 
Q 23.96875 65.921875 18.8125 64.3125 
Q 13.671875 62.703125 7.8125 59.421875 
L 7.8125 69.390625 
Q 13.765625 71.78125 18.9375 73 
Q 24.125 74.21875 28.421875 74.21875 
Q 39.75 74.21875 46.484375 68.546875 
Q 53.21875 62.890625 53.21875 53.421875 
Q 53.21875 48.921875 51.53125 44.890625 
Q 49.859375 40.875 45.40625 35.40625 
Q 44.1875 33.984375 37.640625 27.21875 
Q 31.109375 20.453125 19.1875 8.296875 
z
" id="DejaVuSans-50"/>
        <path d="M 10.796875 72.90625 
L 49.515625 72.90625 
L 49.515625 64.59375 
L 19.828125 64.59375 
L 19.828125 46.734375 
Q 21.96875 47.46875 24.109375 47.828125 
Q 26.265625 48.1875 28.421875 48.1875 
Q 40.625 48.1875 47.75 41.5 
Q 54.890625 34.8125 54.890625 23.390625 
Q 54.890625 11.625 47.5625 5.09375 
Q 40.234375 -1.421875 26.90625 -1.421875 
Q 22.3125 -1.421875 17.546875 -0.640625 
Q 12.796875 0.140625 7.71875 1.703125 
L 7.71875 11.625 
Q 12.109375 9.234375 16.796875 8.0625 
Q 21.484375 6.890625 26.703125 6.890625 
Q 35.15625 6.890625 40.078125 11.328125 
Q 45.015625 15.765625 45.015625 23.390625 
Q 45.015625 31 40.078125 35.4375 
Q 35.15625 39.890625 26.703125 39.890625 
Q 22.75 39.890625 18.8125 39.015625 
Q 14.890625 38.140625 10.796875 36.28125 
z
" id="DejaVuSans-53"/>
       </defs>
       <use xlink:href="#DejaVuSans-8722"/>
       <use x="83.789062" xlink:href="#DejaVuSans-49"/>
       <use x="147.412109" xlink:href="#DejaVuSans-50"/>
       <use x="211.035156" xlink:href="#DejaVuSans-53"/>
      </g>
     </g>
    </g>
    <g id="xtick_2">
     <g id="line2d_2">
      <g>
       <use style="stroke:#000000;stroke-width:0.8;" x="109.493491" xlink:href="#m0de5cd2584" y="307.584"/>
      </g>
     </g>
     <g id="text_2">
      <!-- −100 -->
      <g transform="translate(95.759897 322.182437)scale(0.1 -0.1)">
       <defs>
        <path d="M 31.78125 66.40625 
Q 24.171875 66.40625 20.328125 58.90625 
Q 16.5 51.421875 16.5 36.375 
Q 16.5 21.390625 20.328125 13.890625 
Q 24.171875 6.390625 31.78125 6.390625 
Q 39.453125 6.390625 43.28125 13.890625 
Q 47.125 21.390625 47.125 36.375 
Q 47.125 51.421875 43.28125 58.90625 
Q 39.453125 66.40625 31.78125 66.40625 
z
M 31.78125 74.21875 
Q 44.046875 74.21875 50.515625 64.515625 
Q 56.984375 54.828125 56.984375 36.375 
Q 56.984375 17.96875 50.515625 8.265625 
Q 44.046875 -1.421875 31.78125 -1.421875 
Q 19.53125 -1.421875 13.0625 8.265625 
Q 6.59375 17.96875 6.59375 36.375 
Q 6.59375 54.828125 13.0625 64.515625 
Q 19.53125 74.21875 31.78125 74.21875 
z
" id="DejaVuSans-48"/>
       </defs>
       <use xlink:href="#DejaVuSans-8722"/>
       <use x="83.789062" xlink:href="#DejaVuSans-49"/>
       <use x="147.412109" xlink:href="#DejaVuSans-48"/>
       <use x="211.035156" xlink:href="#DejaVuSans-48"/>
      </g>
     </g>
    </g>
    <g id="xtick_3">
     <g id="line2d_3">
      <g>
       <use style="stroke:#000000;stroke-width:0.8;" x="151.840738" xlink:href="#m0de5cd2584" y="307.584"/>
      </g>
     </g>
     <g id="text_3">
      <!-- −75 -->
      <g transform="translate(141.288395 322.182437)scale(0.1 -0.1)">
       <defs>
        <path d="M 8.203125 72.90625 
L 55.078125 72.90625 
L 55.078125 68.703125 
L 28.609375 0 
L 18.3125 0 
L 43.21875 64.59375 
L 8.203125 64.59375 
z
" id="DejaVuSans-55"/>
       </defs>
       <use xlink:href="#DejaVuSans-8722"/>
       <use x="83.789062" xlink:href="#DejaVuSans-55"/>
       <use x="147.412109" xlink:href="#DejaVuSans-53"/>
      </g>
     </g>
    </g>
    <g id="xtick_4">
     <g id="line2d_4">
      <g>
       <use style="stroke:#000000;stroke-width:0.8;" x="194.187986" xlink:href="#m0de5cd2584" y="307.584"/>
      </g>
     </g>
     <g id="text_4">
      <!-- −50 -->
      <g transform="translate(183.635642 322.182437)scale(0.1 -0.1)">
       <use xlink:href="#DejaVuSans-8722"/>
       <use x="83.789062" xlink:href="#DejaVuSans-53"/>
       <use x="147.412109" xlink:href="#DejaVuSans-48"/>
      </g>
     </g>
    </g>
    <g id="xtick_5">
     <g id="line2d_5">
      <g>
       <use style="stroke:#000000;stroke-width:0.8;" x="236.535234" xlink:href="#m0de5cd2584" y="307.584"/>
      </g>
     </g>
     <g id="text_5">
      <!-- −25 -->
      <g transform="translate(225.98289 322.182437)scale(0.1 -0.1)">
       <use xlink:href="#DejaVuSans-8722"/>
       <use x="83.789062" xlink:href="#DejaVuSans-50"/>
       <use x="147.412109" xlink:href="#DejaVuSans-53"/>
      </g>
     </g>
    </g>
    <g id="xtick_6">
     <g id="line2d_6">
      <g>
       <use style="stroke:#000000;stroke-width:0.8;" x="278.882482" xlink:href="#m0de5cd2584" y="307.584"/>
      </g>
     </g>
     <g id="text_6">
      <!-- 0 -->
      <g transform="translate(275.701232 322.182437)scale(0.1 -0.1)">
       <use xlink:href="#DejaVuSans-48"/>
      </g>
     </g>
    </g>
    <g id="xtick_7">
     <g id="line2d_7">
      <g>
       <use style="stroke:#000000;stroke-width:0.8;" x="321.22973" xlink:href="#m0de5cd2584" y="307.584"/>
      </g>
     </g>
     <g id="text_7">
      <!-- 25 -->
      <g transform="translate(314.86723 322.182437)scale(0.1 -0.1)">
       <use xlink:href="#DejaVuSans-50"/>
       <use x="63.623047" xlink:href="#DejaVuSans-53"/>
      </g>
     </g>
    </g>
    <g id="xtick_8">
     <g id="line2d_8">
      <g>
       <use style="stroke:#000000;stroke-width:0.8;" x="363.576977" xlink:href="#m0de5cd2584" y="307.584"/>
      </g>
     </g>
     <g id="text_8">
      <!-- 50 -->
      <g transform="translate(357.214477 322.182437)scale(0.1 -0.1)">
       <use xlink:href="#DejaVuSans-53"/>
       <use x="63.623047" xlink:href="#DejaVuSans-48"/>
      </g>
     </g>
    </g>
    <g id="xtick_9">
     <g id="line2d_9">
      <g>
       <use style="stroke:#000000;stroke-width:0.8;" x="405.924225" xlink:href="#m0de5cd2584" y="307.584"/>
      </g>
     </g>
     <g id="text_9">
      <!-- 75 -->
      <g transform="translate(399.561725 322.182437)scale(0.1 -0.1)">
       <use xlink:href="#DejaVuSans-55"/>
       <use x="63.623047" xlink:href="#DejaVuSans-53"/>
      </g>
     </g>
    </g>
   </g>
   <g id="matplotlib.axis_2">
    <g id="ytick_1">
     <g id="line2d_10">
      <defs>
       <path d="M 0 0 
L -3.5 0 
" id="me8fe157e27" style="stroke:#000000;stroke-width:0.8;"/>
      </defs>
      <g>
       <use style="stroke:#000000;stroke-width:0.8;" x="57.6" xlink:href="#me8fe157e27" y="295.422813"/>
      </g>
     </g>
     <g id="text_10">
      <!-- 0 -->
      <g transform="translate(44.2375 299.222031)scale(0.1 -0.1)">
       <use xlink:href="#DejaVuSans-48"/>
      </g>
     </g>
    </g>
    <g id="ytick_2">
     <g id="line2d_11">
      <g>
       <use style="stroke:#000000;stroke-width:0.8;" x="57.6" xlink:href="#me8fe157e27" y="261.545015"/>
      </g>
     </g>
     <g id="text_11">
      <!-- 20 -->
      <g transform="translate(37.875 265.344233)scale(0.1 -0.1)">
       <use xlink:href="#DejaVuSans-50"/>
       <use x="63.623047" xlink:href="#DejaVuSans-48"/>
      </g>
     </g>
    </g>
    <g id="ytick_3">
     <g id="line2d_12">
      <g>
       <use style="stroke:#000000;stroke-width:0.8;" x="57.6" xlink:href="#me8fe157e27" y="227.667216"/>
      </g>
     </g>
     <g id="text_12">
      <!-- 40 -->
      <g transform="translate(37.875 231.466435)scale(0.1 -0.1)">
       <defs>
        <path d="M 37.796875 64.3125 
L 12.890625 25.390625 
L 37.796875 25.390625 
z
M 35.203125 72.90625 
L 47.609375 72.90625 
L 47.609375 25.390625 
L 58.015625 25.390625 
L 58.015625 17.1875 
L 47.609375 17.1875 
L 47.609375 0 
L 37.796875 0 
L 37.796875 17.1875 
L 4.890625 17.1875 
L 4.890625 26.703125 
z
" id="DejaVuSans-52"/>
       </defs>
       <use xlink:href="#DejaVuSans-52"/>
       <use x="63.623047" xlink:href="#DejaVuSans-48"/>
      </g>
     </g>
    </g>
    <g id="ytick_4">
     <g id="line2d_13">
      <g>
       <use style="stroke:#000000;stroke-width:0.8;" x="57.6" xlink:href="#me8fe157e27" y="193.789418"/>
      </g>
     </g>
     <g id="text_13">
      <!-- 60 -->
      <g transform="translate(37.875 197.588637)scale(0.1 -0.1)">
       <defs>
        <path d="M 33.015625 40.375 
Q 26.375 40.375 22.484375 35.828125 
Q 18.609375 31.296875 18.609375 23.390625 
Q 18.609375 15.53125 22.484375 10.953125 
Q 26.375 6.390625 33.015625 6.390625 
Q 39.65625 6.390625 43.53125 10.953125 
Q 47.40625 15.53125 47.40625 23.390625 
Q 47.40625 31.296875 43.53125 35.828125 
Q 39.65625 40.375 33.015625 40.375 
z
M 52.59375 71.296875 
L 52.59375 62.3125 
Q 48.875 64.0625 45.09375 64.984375 
Q 41.3125 65.921875 37.59375 65.921875 
Q 27.828125 65.921875 22.671875 59.328125 
Q 17.53125 52.734375 16.796875 39.40625 
Q 19.671875 43.65625 24.015625 45.921875 
Q 28.375 48.1875 33.59375 48.1875 
Q 44.578125 48.1875 50.953125 41.515625 
Q 57.328125 34.859375 57.328125 23.390625 
Q 57.328125 12.15625 50.6875 5.359375 
Q 44.046875 -1.421875 33.015625 -1.421875 
Q 20.359375 -1.421875 13.671875 8.265625 
Q 6.984375 17.96875 6.984375 36.375 
Q 6.984375 53.65625 15.1875 63.9375 
Q 23.390625 74.21875 37.203125 74.21875 
Q 40.921875 74.21875 44.703125 73.484375 
Q 48.484375 72.75 52.59375 71.296875 
z
" id="DejaVuSans-54"/>
       </defs>
       <use xlink:href="#DejaVuSans-54"/>
       <use x="63.623047" xlink:href="#DejaVuSans-48"/>
      </g>
     </g>
    </g>
    <g id="ytick_5">
     <g id="line2d_14">
      <g>
       <use style="stroke:#000000;stroke-width:0.8;" x="57.6" xlink:href="#me8fe157e27" y="159.91162"/>
      </g>
     </g>
     <g id="text_14">
      <!-- 80 -->
      <g transform="translate(37.875 163.710839)scale(0.1 -0.1)">
       <defs>
        <path d="M 31.78125 34.625 
Q 24.75 34.625 20.71875 30.859375 
Q 16.703125 27.09375 16.703125 20.515625 
Q 16.703125 13.921875 20.71875 10.15625 
Q 24.75 6.390625 31.78125 6.390625 
Q 38.8125 6.390625 42.859375 10.171875 
Q 46.921875 13.96875 46.921875 20.515625 
Q 46.921875 27.09375 42.890625 30.859375 
Q 38.875 34.625 31.78125 34.625 
z
M 21.921875 38.8125 
Q 15.578125 40.375 12.03125 44.71875 
Q 8.5 49.078125 8.5 55.328125 
Q 8.5 64.0625 14.71875 69.140625 
Q 20.953125 74.21875 31.78125 74.21875 
Q 42.671875 74.21875 48.875 69.140625 
Q 55.078125 64.0625 55.078125 55.328125 
Q 55.078125 49.078125 51.53125 44.71875 
Q 48 40.375 41.703125 38.8125 
Q 48.828125 37.15625 52.796875 32.3125 
Q 56.78125 27.484375 56.78125 20.515625 
Q 56.78125 9.90625 50.3125 4.234375 
Q 43.84375 -1.421875 31.78125 -1.421875 
Q 19.734375 -1.421875 13.25 4.234375 
Q 6.78125 9.90625 6.78125 20.515625 
Q 6.78125 27.484375 10.78125 32.3125 
Q 14.796875 37.15625 21.921875 38.8125 
z
M 18.3125 54.390625 
Q 18.3125 48.734375 21.84375 45.5625 
Q 25.390625 42.390625 31.78125 42.390625 
Q 38.140625 42.390625 41.71875 45.5625 
Q 45.3125 48.734375 45.3125 54.390625 
Q 45.3125 60.0625 41.71875 63.234375 
Q 38.140625 66.40625 31.78125 66.40625 
Q 25.390625 66.40625 21.84375 63.234375 
Q 18.3125 60.0625 18.3125 54.390625 
z
" id="DejaVuSans-56"/>
       </defs>
       <use xlink:href="#DejaVuSans-56"/>
       <use x="63.623047" xlink:href="#DejaVuSans-48"/>
      </g>
     </g>
    </g>
    <g id="ytick_6">
     <g id="line2d_15">
      <g>
       <use style="stroke:#000000;stroke-width:0.8;" x="57.6" xlink:href="#me8fe157e27" y="126.033822"/>
      </g>
     </g>
     <g id="text_15">
      <!-- 100 -->
      <g transform="translate(31.5125 129.83304)scale(0.1 -0.1)">
       <use xlink:href="#DejaVuSans-49"/>
       <use x="63.623047" xlink:href="#DejaVuSans-48"/>
       <use x="127.246094" xlink:href="#DejaVuSans-48"/>
      </g>
     </g>
    </g>
    <g id="ytick_7">
     <g id="line2d_16">
      <g>
       <use style="stroke:#000000;stroke-width:0.8;" x="57.6" xlink:href="#me8fe157e27" y="92.156023"/>
      </g>
     </g>
     <g id="text_16">
      <!-- 120 -->
      <g transform="translate(31.5125 95.955242)scale(0.1 -0.1)">
       <use xlink:href="#DejaVuSans-49"/>
       <use x="63.623047" xlink:href="#DejaVuSans-50"/>
       <use x="127.246094" xlink:href="#DejaVuSans-48"/>
      </g>
     </g>
    </g>
    <g id="ytick_8">
     <g id="line2d_17">
      <g>
       <use style="stroke:#000000;stroke-width:0.8;" x="57.6" xlink:href="#me8fe157e27" y="58.278225"/>
      </g>
     </g>
     <g id="text_17">
      <!-- 140 -->
      <g transform="translate(31.5125 62.077444)scale(0.1 -0.1)">
       <use xlink:href="#DejaVuSans-49"/>
       <use x="63.623047" xlink:href="#DejaVuSans-52"/>
       <use x="127.246094" xlink:href="#DejaVuSans-48"/>
      </g>
     </g>
    </g>
   </g>
   <g id="line2d_18">
    <path clip-path="url(#p1f151c9c89)" d="M 278.882482 295.422813 
L 279.184076 275.366222 
L 279.705197 250.832204 
L 280.096286 246.225845 
L 281.018591 239.156199 
L 282.24833 229.730005 
L 282.594662 225.144993 
L 282.602838 220.721275 
L 282.442819 218.58769 
L 282.153506 216.515776 
L 281.719978 214.512648 
L 281.127317 212.585423 
L 280.360605 210.741217 
L 279.385113 209.002777 
L 278.191513 207.379365 
L 276.802984 205.857863 
L 275.242706 204.425153 
L 273.533858 203.068118 
L 269.763167 200.528601 
L 265.676348 198.134373 
L 257.296059 193.36202 
L 253.373458 190.774016 
L 251.560172 189.383645 
L 249.876467 187.911538 
L 248.345522 186.344578 
L 246.990518 184.669648 
L 244.41657 180.966732 
L 241.807235 176.866584 
L 239.275431 172.482367 
L 236.934077 167.927247 
L 234.896088 163.314389 
L 233.274384 158.756958 
L 232.654925 156.534391 
L 232.181882 154.368118 
L 231.869368 152.272284 
L 231.731499 150.261034 
L 231.782389 148.348515 
L 232.036153 146.548873 
L 232.506906 144.876251 
L 233.281804 143.349648 
L 234.411905 141.967074 
L 235.85718 140.711194 
L 237.577598 139.564673 
L 239.53313 138.510178 
L 241.683746 137.530374 
L 246.410109 135.7255 
L 256.442516 132.249329 
L 261.10808 130.30068 
L 263.213097 129.213045 
L 265.112898 128.026757 
L 266.767452 126.724481 
L 268.136728 125.288882 
L 269.180699 123.702627 
L 269.983079 121.95102 
L 270.656428 120.043175 
L 271.203973 117.997473 
L 271.628942 115.832294 
L 271.934565 113.566021 
L 272.12407 111.217033 
L 272.16764 106.344438 
L 271.78548 101.361558 
L 271.00342 96.415439 
L 269.847288 91.65313 
L 268.342912 87.221678 
L 267.468205 85.175976 
L 266.516122 83.268131 
L 265.489893 81.516524 
L 264.340093 79.852828 
L 263.024456 78.202116 
L 261.556946 76.572866 
L 259.951525 74.973559 
L 256.382805 71.898688 
L 252.430005 69.045337 
L 248.204832 66.481339 
L 243.818993 64.274529 
L 239.384198 62.492741 
L 237.183349 61.782428 
L 235.012152 61.203808 
L 232.884569 60.76536 
L 230.814564 60.475565 
L 228.8161 60.3429 
L 226.79605 60.371095 
L 224.665432 60.553001 
L 222.444427 60.880779 
L 220.153217 61.346592 
L 217.811986 61.942603 
L 213.060186 63.493862 
L 208.350483 65.471852 
L 203.844335 67.813871 
L 201.718049 69.101796 
L 199.703198 70.457214 
L 197.819964 71.872286 
L 196.08853 73.339176 
L 194.529076 74.850046 
L 193.161787 76.397056 
L 192.006843 77.972369 
L 191.084426 79.568148 
L 190.405651 81.232352 
L 189.95524 83.011575 
L 189.713793 84.895924 
L 189.661907 86.87551 
L 189.780182 88.940442 
L 190.049215 91.08083 
L 190.96195 95.548408 
L 192.2449 100.199119 
L 195.300595 109.733439 
L 196.762915 114.458798 
L 197.974599 119.05079 
L 198.437949 121.272046 
L 198.437949 121.272046 
" style="fill:none;stroke:#fea952;stroke-linecap:square;"/>
   </g>
   <g id="line2d_19">
    <path clip-path="url(#p1f151c9c89)" d="M 272.107236 295.357625 
L 272.409821 275.233235 
L 272.946816 250.350027 
L 273.367814 245.428427 
L 274.310571 238.201902 
L 275.500086 229.122205 
L 275.821065 224.981934 
L 275.846254 221.228016 
L 275.531264 217.948998 
L 274.8709 215.186473 
L 274.451739 214.056863 
L 273.926239 213.016368 
L 273.186765 211.946717 
L 272.220306 210.848582 
L 271.02909 209.731154 
L 269.627068 208.603929 
L 266.278387 206.339325 
L 262.371825 204.049467 
L 253.675392 199.08906 
L 249.25065 196.150879 
L 247.100383 194.484477 
L 245.03005 192.646563 
L 243.077882 190.606053 
L 241.467636 188.594693 
L 238.738789 184.664165 
L 235.978839 180.321726 
L 233.290929 175.659463 
L 230.78167 170.765574 
L 228.561226 165.718079 
L 227.595609 163.156252 
L 226.747588 160.576062 
L 226.035353 157.97989 
L 225.480414 155.367386 
L 225.109672 152.735654 
L 224.958337 150.080807 
L 225.073202 147.402466 
L 225.513988 144.713234 
L 226.46513 141.80947 
L 228.035772 139.0616 
L 229.967701 136.852657 
L 232.09974 135.072944 
L 234.361722 133.60092 
L 236.724035 132.34437 
L 239.166943 131.239594 
L 244.203274 129.319402 
L 256.09213 125.112718 
L 259.624422 123.465905 
L 261.864493 122.048028 
L 262.476935 121.563973 
L 263.020691 120.880835 
L 263.593783 119.696003 
L 264.111261 118.291321 
L 264.555269 116.692501 
L 264.914166 114.92676 
L 265.351922 111.002038 
L 265.402712 106.723858 
L 265.073338 102.286409 
L 264.387254 97.876454 
L 263.381828 93.679467 
L 262.112963 89.885499 
L 260.670023 86.693235 
L 259.915962 85.368732 
L 259.041555 84.075824 
L 257.990046 82.736751 
L 255.411761 80.003346 
L 252.304818 77.309625 
L 248.801639 74.767502 
L 245.03834 72.47146 
L 241.155716 70.504711 
L 237.303122 68.940789 
L 233.644597 67.839921 
L 230.365767 67.236244 
L 228.910661 67.1178 
L 227.37243 67.122094 
L 225.654662 67.255957 
L 221.824767 67.912728 
L 217.67835 69.056446 
L 213.438792 70.626354 
L 209.312618 72.546096 
L 205.499956 74.723663 
L 202.199768 77.041961 
L 199.605933 79.337109 
L 197.872909 81.363162 
L 196.974012 82.895135 
L 196.675855 83.872707 
L 196.487026 85.073453 
L 196.42638 86.488057 
L 196.502844 88.095447 
L 197.057722 91.789789 
L 198.075412 95.972517 
L 199.427693 100.496485 
L 203.289038 112.637282 
L 204.607388 117.667203 
L 205.070738 119.888459 
L 205.070738 119.888459 
" style="fill:none;stroke:#ffffff;stroke-linecap:square;"/>
   </g>
   <g id="line2d_20">
    <path clip-path="url(#p1f151c9c89)" d="M 285.657728 295.488 
L 285.95833 275.499209 
L 286.463578 251.314381 
L 286.824758 247.023263 
L 287.72661 240.110496 
L 288.718747 232.822589 
L 289.219381 227.832035 
L 289.422565 222.768117 
L 289.359421 220.214533 
L 289.153274 217.650669 
L 288.775747 215.082554 
L 288.196229 212.521069 
L 287.383734 209.984374 
L 286.269471 207.42557 
L 284.843986 204.989187 
L 283.196261 202.812013 
L 281.385662 200.867144 
L 279.456322 199.119152 
L 277.440647 197.532307 
L 273.247948 194.717877 
L 268.98087 192.219279 
L 260.916726 187.634981 
L 257.496267 185.397152 
L 254.722883 183.176513 
L 253.613163 182.083103 
L 252.5134 180.744602 
L 250.094351 177.269299 
L 247.635631 173.411442 
L 245.259934 169.305272 
L 243.086483 165.08892 
L 241.230951 160.910699 
L 239.80118 156.937853 
L 238.88335 153.368849 
L 238.504661 150.441261 
L 238.527835 147.637697 
L 238.856108 147.081491 
L 239.614619 146.349443 
L 240.793474 145.528426 
L 242.342226 144.675986 
L 244.20055 143.821154 
L 248.616943 142.131598 
L 258.922974 138.554528 
L 261.583623 137.501275 
L 264.218295 136.320213 
L 266.801773 134.960185 
L 269.303499 133.350953 
L 271.67041 131.400933 
L 273.796522 129.013791 
L 275.340706 126.52442 
L 276.372376 124.206037 
L 277.201595 121.795029 
L 277.852676 119.302444 
L 278.343718 116.737829 
L 278.688183 114.110869 
L 278.896218 111.432027 
L 278.975633 108.712676 
L 278.932568 105.965018 
L 278.771922 103.201919 
L 278.497623 100.436707 
L 277.619585 94.954425 
L 277.019487 92.264604 
L 276.312747 89.626794 
L 275.498234 87.053808 
L 274.572861 84.557858 
L 273.530786 82.150532 
L 272.362221 79.843027 
L 271.063823 77.664316 
L 269.638632 75.629831 
L 268.058867 73.66748 
L 266.338841 71.77269 
L 264.491288 69.943772 
L 262.528115 68.181332 
L 260.460791 66.487752 
L 256.05837 63.323172 
L 251.371323 60.491219 
L 246.482271 58.044348 
L 243.985625 56.984304 
L 241.465274 56.044692 
L 238.928127 55.235371 
L 236.379707 54.567695 
L 233.82397 54.055239 
L 231.263361 53.714885 
L 228.721539 53.568 
L 226.21967 53.620095 
L 223.676201 53.850044 
L 221.094539 54.241049 
L 218.481668 54.780457 
L 215.847368 55.458122 
L 213.20348 56.265497 
L 210.563312 57.195145 
L 207.941171 58.240515 
L 205.352006 59.395888 
L 202.81113 60.656458 
L 200.334013 62.018541 
L 197.936142 63.479929 
L 195.63299 65.040423 
L 193.440161 66.702612 
L 191.373888 68.472929 
L 189.45222 70.362982 
L 187.697469 72.390881 
L 186.140776 74.581576 
L 184.810642 77.009273 
L 183.83729 79.56957 
L 183.234626 82.150442 
L 182.940559 84.718395 
L 182.897435 87.262963 
L 183.057519 89.785438 
L 183.382578 92.290854 
L 184.407864 97.266594 
L 185.771105 102.198666 
L 188.841868 111.781133 
L 190.833963 118.409429 
L 191.805159 122.655633 
L 191.805159 122.655633 
" style="fill:none;stroke:#ffffff;stroke-linecap:square;"/>
   </g>
   <g id="patch_3">
    <path d="M 57.6 307.584 
L 57.6 41.472 
" style="fill:none;stroke:#000000;stroke-linecap:square;stroke-linejoin:miter;stroke-width:0.8;"/>
   </g>
   <g id="patch_4">
    <path d="M 414.72 307.584 
L 414.72 41.472 
" style="fill:none;stroke:#000000;stroke-linecap:square;stroke-linejoin:miter;stroke-width:0.8;"/>
   </g>
   <g id="patch_5">
    <path d="M 57.6 307.584 
L 414.72 307.584 
" style="fill:none;stroke:#000000;stroke-linecap:square;stroke-linejoin:miter;stroke-width:0.8;"/>
   </g>
   <g id="patch_6">
    <path d="M 57.6 41.472 
L 414.72 41.472 
" style="fill:none;stroke:#000000;stroke-linecap:square;stroke-linejoin:miter;stroke-width:0.8;"/>
   </g>
  </g>
 </g>
 <defs>
  <clipPath id="p1f151c9c89">
   <rect height="266.112" width="357.12" x="57.6" y="41.472"/>
  </clipPath>
 </defs>
</svg>
