<?xml version="1.0" encoding="utf-8" standalone="no"?>
<!DOCTYPE svg PUBLIC "-//W3C//DTD SVG 1.1//EN"
  "http://www.w3.org/Graphics/SVG/1.1/DTD/svg11.dtd">
<!-- Created with matplotlib (https://matplotlib.org/) -->
<svg height="345.6pt" version="1.1" viewBox="0 0 460.8 345.6" width="460.8pt" xmlns="http://www.w3.org/2000/svg" xmlns:xlink="http://www.w3.org/1999/xlink">
 <metadata>
  <rdf:RDF xmlns:cc="http://creativecommons.org/ns#" xmlns:dc="http://purl.org/dc/elements/1.1/" xmlns:rdf="http://www.w3.org/1999/02/22-rdf-syntax-ns#">
   <cc:Work>
    <dc:type rdf:resource="http://purl.org/dc/dcmitype/StillImage"/>
    <dc:date>2021-06-17T14:02:51.232364</dc:date>
    <dc:format>image/svg+xml</dc:format>
    <dc:creator>
     <cc:Agent>
      <dc:title>Matplotlib v3.3.3, https://matplotlib.org/</dc:title>
     </cc:Agent>
    </dc:creator>
   </cc:Work>
  </rdf:RDF>
 </metadata>
 <defs>
  <style type="text/css">*{stroke-linecap:butt;stroke-linejoin:round;}</style>
 </defs>
 <g id="figure_1">
  <g id="patch_1">
   <path d="M 0 345.6 
L 460.8 345.6 
L 460.8 0 
L 0 0 
z
" style="fill:#ffffff;"/>
  </g>
  <g id="axes_1">
   <g id="patch_2">
    <path d="M 57.6 307.584 
L 414.72 307.584 
L 414.72 41.472 
L 57.6 41.472 
z
" style="fill:#7d9051;"/>
   </g>
   <g id="matplotlib.axis_1">
    <g id="xtick_1">
     <g id="line2d_1">
      <defs>
       <path d="M 0 0 
L 0 3.5 
" id="m41a206b819" style="stroke:#000000;stroke-width:0.8;"/>
      </defs>
      <g>
       <use style="stroke:#000000;stroke-width:0.8;" x="83.236983" xlink:href="#m41a206b819" y="307.584"/>
      </g>
     </g>
     <g id="text_1">
      <!-- 0 -->
      <g transform="translate(80.055733 322.182437)scale(0.1 -0.1)">
       <defs>
        <path d="M 31.78125 66.40625 
Q 24.171875 66.40625 20.328125 58.90625 
Q 16.5 51.421875 16.5 36.375 
Q 16.5 21.390625 20.328125 13.890625 
Q 24.171875 6.390625 31.78125 6.390625 
Q 39.453125 6.390625 43.28125 13.890625 
Q 47.125 21.390625 47.125 36.375 
Q 47.125 51.421875 43.28125 58.90625 
Q 39.453125 66.40625 31.78125 66.40625 
z
M 31.78125 74.21875 
Q 44.046875 74.21875 50.515625 64.515625 
Q 56.984375 54.828125 56.984375 36.375 
Q 56.984375 17.96875 50.515625 8.265625 
Q 44.046875 -1.421875 31.78125 -1.421875 
Q 19.53125 -1.421875 13.0625 8.265625 
Q 6.59375 17.96875 6.59375 36.375 
Q 6.59375 54.828125 13.0625 64.515625 
Q 19.53125 74.21875 31.78125 74.21875 
z
" id="DejaVuSans-48"/>
       </defs>
       <use xlink:href="#DejaVuSans-48"/>
      </g>
     </g>
    </g>
    <g id="xtick_2">
     <g id="line2d_2">
      <g>
       <use style="stroke:#000000;stroke-width:0.8;" x="123.93955" xlink:href="#m41a206b819" y="307.584"/>
      </g>
     </g>
     <g id="text_2">
      <!-- 20 -->
      <g transform="translate(117.57705 322.182437)scale(0.1 -0.1)">
       <defs>
        <path d="M 19.1875 8.296875 
L 53.609375 8.296875 
L 53.609375 0 
L 7.328125 0 
L 7.328125 8.296875 
Q 12.9375 14.109375 22.625 23.890625 
Q 32.328125 33.6875 34.8125 36.53125 
Q 39.546875 41.84375 41.421875 45.53125 
Q 43.3125 49.21875 43.3125 52.78125 
Q 43.3125 58.59375 39.234375 62.25 
Q 35.15625 65.921875 28.609375 65.921875 
Q 23.96875 65.921875 18.8125 64.3125 
Q 13.671875 62.703125 7.8125 59.421875 
L 7.8125 69.390625 
Q 13.765625 71.78125 18.9375 73 
Q 24.125 74.21875 28.421875 74.21875 
Q 39.75 74.21875 46.484375 68.546875 
Q 53.21875 62.890625 53.21875 53.421875 
Q 53.21875 48.921875 51.53125 44.890625 
Q 49.859375 40.875 45.40625 35.40625 
Q 44.1875 33.984375 37.640625 27.21875 
Q 31.109375 20.453125 19.1875 8.296875 
z
" id="DejaVuSans-50"/>
       </defs>
       <use xlink:href="#DejaVuSans-50"/>
       <use x="63.623047" xlink:href="#DejaVuSans-48"/>
      </g>
     </g>
    </g>
    <g id="xtick_3">
     <g id="line2d_3">
      <g>
       <use style="stroke:#000000;stroke-width:0.8;" x="164.642116" xlink:href="#m41a206b819" y="307.584"/>
      </g>
     </g>
     <g id="text_3">
      <!-- 40 -->
      <g transform="translate(158.279616 322.182437)scale(0.1 -0.1)">
       <defs>
        <path d="M 37.796875 64.3125 
L 12.890625 25.390625 
L 37.796875 25.390625 
z
M 35.203125 72.90625 
L 47.609375 72.90625 
L 47.609375 25.390625 
L 58.015625 25.390625 
L 58.015625 17.1875 
L 47.609375 17.1875 
L 47.609375 0 
L 37.796875 0 
L 37.796875 17.1875 
L 4.890625 17.1875 
L 4.890625 26.703125 
z
" id="DejaVuSans-52"/>
       </defs>
       <use xlink:href="#DejaVuSans-52"/>
       <use x="63.623047" xlink:href="#DejaVuSans-48"/>
      </g>
     </g>
    </g>
    <g id="xtick_4">
     <g id="line2d_4">
      <g>
       <use style="stroke:#000000;stroke-width:0.8;" x="205.344682" xlink:href="#m41a206b819" y="307.584"/>
      </g>
     </g>
     <g id="text_4">
      <!-- 60 -->
      <g transform="translate(198.982182 322.182437)scale(0.1 -0.1)">
       <defs>
        <path d="M 33.015625 40.375 
Q 26.375 40.375 22.484375 35.828125 
Q 18.609375 31.296875 18.609375 23.390625 
Q 18.609375 15.53125 22.484375 10.953125 
Q 26.375 6.390625 33.015625 6.390625 
Q 39.65625 6.390625 43.53125 10.953125 
Q 47.40625 15.53125 47.40625 23.390625 
Q 47.40625 31.296875 43.53125 35.828125 
Q 39.65625 40.375 33.015625 40.375 
z
M 52.59375 71.296875 
L 52.59375 62.3125 
Q 48.875 64.0625 45.09375 64.984375 
Q 41.3125 65.921875 37.59375 65.921875 
Q 27.828125 65.921875 22.671875 59.328125 
Q 17.53125 52.734375 16.796875 39.40625 
Q 19.671875 43.65625 24.015625 45.921875 
Q 28.375 48.1875 33.59375 48.1875 
Q 44.578125 48.1875 50.953125 41.515625 
Q 57.328125 34.859375 57.328125 23.390625 
Q 57.328125 12.15625 50.6875 5.359375 
Q 44.046875 -1.421875 33.015625 -1.421875 
Q 20.359375 -1.421875 13.671875 8.265625 
Q 6.984375 17.96875 6.984375 36.375 
Q 6.984375 53.65625 15.1875 63.9375 
Q 23.390625 74.21875 37.203125 74.21875 
Q 40.921875 74.21875 44.703125 73.484375 
Q 48.484375 72.75 52.59375 71.296875 
z
" id="DejaVuSans-54"/>
       </defs>
       <use xlink:href="#DejaVuSans-54"/>
       <use x="63.623047" xlink:href="#DejaVuSans-48"/>
      </g>
     </g>
    </g>
    <g id="xtick_5">
     <g id="line2d_5">
      <g>
       <use style="stroke:#000000;stroke-width:0.8;" x="246.047248" xlink:href="#m41a206b819" y="307.584"/>
      </g>
     </g>
     <g id="text_5">
      <!-- 80 -->
      <g transform="translate(239.684748 322.182437)scale(0.1 -0.1)">
       <defs>
        <path d="M 31.78125 34.625 
Q 24.75 34.625 20.71875 30.859375 
Q 16.703125 27.09375 16.703125 20.515625 
Q 16.703125 13.921875 20.71875 10.15625 
Q 24.75 6.390625 31.78125 6.390625 
Q 38.8125 6.390625 42.859375 10.171875 
Q 46.921875 13.96875 46.921875 20.515625 
Q 46.921875 27.09375 42.890625 30.859375 
Q 38.875 34.625 31.78125 34.625 
z
M 21.921875 38.8125 
Q 15.578125 40.375 12.03125 44.71875 
Q 8.5 49.078125 8.5 55.328125 
Q 8.5 64.0625 14.71875 69.140625 
Q 20.953125 74.21875 31.78125 74.21875 
Q 42.671875 74.21875 48.875 69.140625 
Q 55.078125 64.0625 55.078125 55.328125 
Q 55.078125 49.078125 51.53125 44.71875 
Q 48 40.375 41.703125 38.8125 
Q 48.828125 37.15625 52.796875 32.3125 
Q 56.78125 27.484375 56.78125 20.515625 
Q 56.78125 9.90625 50.3125 4.234375 
Q 43.84375 -1.421875 31.78125 -1.421875 
Q 19.734375 -1.421875 13.25 4.234375 
Q 6.78125 9.90625 6.78125 20.515625 
Q 6.78125 27.484375 10.78125 32.3125 
Q 14.796875 37.15625 21.921875 38.8125 
z
M 18.3125 54.390625 
Q 18.3125 48.734375 21.84375 45.5625 
Q 25.390625 42.390625 31.78125 42.390625 
Q 38.140625 42.390625 41.71875 45.5625 
Q 45.3125 48.734375 45.3125 54.390625 
Q 45.3125 60.0625 41.71875 63.234375 
Q 38.140625 66.40625 31.78125 66.40625 
Q 25.390625 66.40625 21.84375 63.234375 
Q 18.3125 60.0625 18.3125 54.390625 
z
" id="DejaVuSans-56"/>
       </defs>
       <use xlink:href="#DejaVuSans-56"/>
       <use x="63.623047" xlink:href="#DejaVuSans-48"/>
      </g>
     </g>
    </g>
    <g id="xtick_6">
     <g id="line2d_6">
      <g>
       <use style="stroke:#000000;stroke-width:0.8;" x="286.749814" xlink:href="#m41a206b819" y="307.584"/>
      </g>
     </g>
     <g id="text_6">
      <!-- 100 -->
      <g transform="translate(277.206064 322.182437)scale(0.1 -0.1)">
       <defs>
        <path d="M 12.40625 8.296875 
L 28.515625 8.296875 
L 28.515625 63.921875 
L 10.984375 60.40625 
L 10.984375 69.390625 
L 28.421875 72.90625 
L 38.28125 72.90625 
L 38.28125 8.296875 
L 54.390625 8.296875 
L 54.390625 0 
L 12.40625 0 
z
" id="DejaVuSans-49"/>
       </defs>
       <use xlink:href="#DejaVuSans-49"/>
       <use x="63.623047" xlink:href="#DejaVuSans-48"/>
       <use x="127.246094" xlink:href="#DejaVuSans-48"/>
      </g>
     </g>
    </g>
    <g id="xtick_7">
     <g id="line2d_7">
      <g>
       <use style="stroke:#000000;stroke-width:0.8;" x="327.45238" xlink:href="#m41a206b819" y="307.584"/>
      </g>
     </g>
     <g id="text_7">
      <!-- 120 -->
      <g transform="translate(317.90863 322.182437)scale(0.1 -0.1)">
       <use xlink:href="#DejaVuSans-49"/>
       <use x="63.623047" xlink:href="#DejaVuSans-50"/>
       <use x="127.246094" xlink:href="#DejaVuSans-48"/>
      </g>
     </g>
    </g>
    <g id="xtick_8">
     <g id="line2d_8">
      <g>
       <use style="stroke:#000000;stroke-width:0.8;" x="368.154946" xlink:href="#m41a206b819" y="307.584"/>
      </g>
     </g>
     <g id="text_8">
      <!-- 140 -->
      <g transform="translate(358.611196 322.182437)scale(0.1 -0.1)">
       <use xlink:href="#DejaVuSans-49"/>
       <use x="63.623047" xlink:href="#DejaVuSans-52"/>
       <use x="127.246094" xlink:href="#DejaVuSans-48"/>
      </g>
     </g>
    </g>
    <g id="xtick_9">
     <g id="line2d_9">
      <g>
       <use style="stroke:#000000;stroke-width:0.8;" x="408.857512" xlink:href="#m41a206b819" y="307.584"/>
      </g>
     </g>
     <g id="text_9">
      <!-- 160 -->
      <g transform="translate(399.313762 322.182437)scale(0.1 -0.1)">
       <use xlink:href="#DejaVuSans-49"/>
       <use x="63.623047" xlink:href="#DejaVuSans-54"/>
       <use x="127.246094" xlink:href="#DejaVuSans-48"/>
      </g>
     </g>
    </g>
   </g>
   <g id="matplotlib.axis_2">
    <g id="ytick_1">
     <g id="line2d_10">
      <defs>
       <path d="M 0 0 
L -3.5 0 
" id="m53ffb23e13" style="stroke:#000000;stroke-width:0.8;"/>
      </defs>
      <g>
       <use style="stroke:#000000;stroke-width:0.8;" x="57.6" xlink:href="#m53ffb23e13" y="290.782388"/>
      </g>
     </g>
     <g id="text_10">
      <!-- −20 -->
      <g transform="translate(29.495313 294.581607)scale(0.1 -0.1)">
       <defs>
        <path d="M 10.59375 35.5 
L 73.1875 35.5 
L 73.1875 27.203125 
L 10.59375 27.203125 
z
" id="DejaVuSans-8722"/>
       </defs>
       <use xlink:href="#DejaVuSans-8722"/>
       <use x="83.789062" xlink:href="#DejaVuSans-50"/>
       <use x="147.412109" xlink:href="#DejaVuSans-48"/>
      </g>
     </g>
    </g>
    <g id="ytick_2">
     <g id="line2d_11">
      <g>
       <use style="stroke:#000000;stroke-width:0.8;" x="57.6" xlink:href="#m53ffb23e13" y="250.079822"/>
      </g>
     </g>
     <g id="text_11">
      <!-- 0 -->
      <g transform="translate(44.2375 253.879041)scale(0.1 -0.1)">
       <use xlink:href="#DejaVuSans-48"/>
      </g>
     </g>
    </g>
    <g id="ytick_3">
     <g id="line2d_12">
      <g>
       <use style="stroke:#000000;stroke-width:0.8;" x="57.6" xlink:href="#m53ffb23e13" y="209.377256"/>
      </g>
     </g>
     <g id="text_12">
      <!-- 20 -->
      <g transform="translate(37.875 213.176475)scale(0.1 -0.1)">
       <use xlink:href="#DejaVuSans-50"/>
       <use x="63.623047" xlink:href="#DejaVuSans-48"/>
      </g>
     </g>
    </g>
    <g id="ytick_4">
     <g id="line2d_13">
      <g>
       <use style="stroke:#000000;stroke-width:0.8;" x="57.6" xlink:href="#m53ffb23e13" y="168.67469"/>
      </g>
     </g>
     <g id="text_13">
      <!-- 40 -->
      <g transform="translate(37.875 172.473908)scale(0.1 -0.1)">
       <use xlink:href="#DejaVuSans-52"/>
       <use x="63.623047" xlink:href="#DejaVuSans-48"/>
      </g>
     </g>
    </g>
    <g id="ytick_5">
     <g id="line2d_14">
      <g>
       <use style="stroke:#000000;stroke-width:0.8;" x="57.6" xlink:href="#m53ffb23e13" y="127.972124"/>
      </g>
     </g>
     <g id="text_14">
      <!-- 60 -->
      <g transform="translate(37.875 131.771342)scale(0.1 -0.1)">
       <use xlink:href="#DejaVuSans-54"/>
       <use x="63.623047" xlink:href="#DejaVuSans-48"/>
      </g>
     </g>
    </g>
    <g id="ytick_6">
     <g id="line2d_15">
      <g>
       <use style="stroke:#000000;stroke-width:0.8;" x="57.6" xlink:href="#m53ffb23e13" y="87.269558"/>
      </g>
     </g>
     <g id="text_15">
      <!-- 80 -->
      <g transform="translate(37.875 91.068776)scale(0.1 -0.1)">
       <use xlink:href="#DejaVuSans-56"/>
       <use x="63.623047" xlink:href="#DejaVuSans-48"/>
      </g>
     </g>
    </g>
    <g id="ytick_7">
     <g id="line2d_16">
      <g>
       <use style="stroke:#000000;stroke-width:0.8;" x="57.6" xlink:href="#m53ffb23e13" y="46.566991"/>
      </g>
     </g>
     <g id="text_16">
      <!-- 100 -->
      <g transform="translate(31.5125 50.36621)scale(0.1 -0.1)">
       <use xlink:href="#DejaVuSans-49"/>
       <use x="63.623047" xlink:href="#DejaVuSans-48"/>
       <use x="127.246094" xlink:href="#DejaVuSans-48"/>
      </g>
     </g>
    </g>
   </g>
   <g id="line2d_17">
    <path clip-path="url(#p859a91a58f)" d="M 83.236983 250.079822 
L 83.548199 228.660135 
L 84.123218 196.509892 
L 83.877557 191.000557 
L 83.145715 182.570966 
L 82.365426 174.119296 
L 82.033638 168.570711 
L 82.003297 163.159503 
L 82.141542 160.523814 
L 82.403596 157.944548 
L 82.805607 155.429065 
L 83.363725 152.984724 
L 84.094099 150.618884 
L 85.012878 148.338905 
L 86.114177 146.113158 
L 87.374281 143.908321 
L 88.782591 141.729213 
L 90.328507 139.580653 
L 92.001432 137.467459 
L 95.685908 133.366445 
L 99.751227 129.464723 
L 104.112598 125.800842 
L 108.685228 122.413352 
L 113.384325 119.340805 
L 118.125098 116.62175 
L 122.822754 114.294739 
L 127.625537 112.331557 
L 132.698383 110.677962 
L 137.98154 109.33346 
L 143.415254 108.297558 
L 148.939774 107.569762 
L 154.495348 107.149577 
L 160.022222 107.03651 
L 165.460645 107.230068 
L 170.750863 107.729756 
L 173.321724 108.094245 
L 175.852265 108.571637 
L 178.360418 109.190389 
L 180.8481 109.938384 
L 185.76973 111.773639 
L 190.632508 113.98047 
L 195.451788 116.461943 
L 202.63273 120.487068 
L 212.198363 125.910445 
L 217.011885 128.428268 
L 221.880279 130.702889 
L 226.876396 132.790545 
L 237.08546 136.698093 
L 244.718543 139.658041 
L 249.694333 141.770799 
L 254.516534 144.073222 
L 259.130941 146.632252 
L 261.343281 148.028912 
L 263.483344 149.514827 
L 265.544355 151.098364 
L 267.495224 152.837253 
L 269.3198 154.766477 
L 271.033716 156.860285 
L 272.652608 159.092925 
L 275.667846 163.871699 
L 278.490584 168.896787 
L 282.637334 176.445608 
L 285.525988 181.185182 
L 287.054461 183.389823 
L 288.659876 185.450031 
L 290.357866 187.340054 
L 292.164066 189.034143 
L 294.094107 190.506544 
L 296.163625 191.731508 
L 298.364413 192.73315 
L 300.671563 193.560751 
L 303.07565 194.2263 
L 305.567249 194.741786 
L 308.136936 195.119199 
L 310.775286 195.370528 
L 316.220279 195.542894 
L 321.826832 195.354801 
L 327.51955 194.902164 
L 336.055257 193.937009 
L 354.93416 191.502797 
L 360.172529 190.488645 
L 367.998901 188.670735 
L 378.399668 185.919603 
L 391.396374 182.440231 
L 396.608286 181.174348 
L 396.608286 181.174348 
" style="fill:none;stroke:#fea952;stroke-linecap:square;"/>
   </g>
   <g id="line2d_18">
    <path clip-path="url(#p859a91a58f)" d="M 75.096847 250.001502 
L 75.40917 228.504685 
L 75.986888 196.770854 
L 75.760282 191.615201 
L 75.043857 183.363331 
L 74.244856 174.688772 
L 73.895157 168.752574 
L 73.873959 162.73311 
L 74.042722 159.700973 
L 74.36509 156.659876 
L 74.869344 153.616973 
L 75.585436 150.583438 
L 76.543598 147.576207 
L 77.716668 144.728741 
L 79.046505 142.073856 
L 80.537315 139.48974 
L 82.174758 136.974794 
L 83.945941 134.527851 
L 85.839044 132.148348 
L 87.843022 129.836365 
L 89.947377 127.592606 
L 94.41709 123.315338 
L 99.170371 119.332275 
L 104.13242 115.665027 
L 109.23122 112.3394 
L 114.398523 109.384307 
L 119.596773 106.820717 
L 122.251286 105.681555 
L 127.74221 103.684244 
L 133.433788 102.047513 
L 139.276297 100.758969 
L 145.220051 99.810269 
L 151.215302 99.196235 
L 157.212428 98.914348 
L 163.162308 98.964614 
L 169.016779 99.349826 
L 174.830828 100.094835 
L 177.802045 100.668073 
L 180.704437 101.394651 
L 183.53989 102.255792 
L 186.311605 103.233719 
L 191.680261 105.474058 
L 196.845385 107.993117 
L 201.840171 110.679902 
L 220.549011 121.096372 
L 225.081006 123.218018 
L 229.857613 125.215566 
L 239.971673 129.086409 
L 247.833234 132.13696 
L 253.10588 134.379635 
L 258.340387 136.8867 
L 263.476568 139.748686 
L 265.986089 141.342188 
L 268.44305 143.059653 
L 270.960936 145.021473 
L 273.409609 147.243685 
L 275.619028 149.610152 
L 277.624043 152.081629 
L 279.458308 154.626339 
L 282.733214 159.828366 
L 287.015554 167.539558 
L 290.9418 174.5153 
L 293.475612 178.386147 
L 294.715498 180.009682 
L 295.926856 181.402521 
L 297.101585 182.561983 
L 298.240609 183.501226 
L 299.535776 184.322287 
L 301.113021 185.070702 
L 302.843495 185.715328 
L 304.724911 186.254607 
L 306.750165 186.687678 
L 308.908906 187.015372 
L 313.576959 187.367916 
L 318.624084 187.356458 
L 323.946816 187.046974 
L 329.44981 186.51881 
L 348.529074 184.248755 
L 353.457141 183.4974 
L 358.431916 182.536399 
L 365.98798 180.782506 
L 376.252806 178.067282 
L 389.432817 174.540079 
L 394.729299 173.253656 
L 394.729299 173.253656 
" style="fill:none;stroke:#ffffff;stroke-linecap:square;"/>
   </g>
   <g id="line2d_19">
    <path clip-path="url(#p859a91a58f)" d="M 91.37712 250.158141 
L 91.687227 228.815584 
L 92.259547 196.248931 
L 91.994833 190.385914 
L 91.247574 181.778601 
L 90.485996 173.549821 
L 90.17212 168.388847 
L 90.132636 163.585896 
L 90.442102 159.22922 
L 90.741871 157.241157 
L 91.142015 155.38601 
L 91.644601 153.66156 
L 92.309087 151.949068 
L 93.181849 150.15246 
L 94.211246 148.326902 
L 95.390423 146.483633 
L 98.163819 142.78657 
L 101.424438 139.140285 
L 105.085365 135.614108 
L 109.054825 132.269408 
L 113.238036 129.161677 
L 117.537431 126.34221 
L 121.851674 123.859194 
L 126.048736 121.76876 
L 130.282532 120.026252 
L 134.830736 118.534235 
L 139.6238 117.306599 
L 144.591881 116.352588 
L 149.665201 115.677888 
L 154.773979 115.28532 
L 159.848132 115.175162 
L 164.816862 115.345085 
L 169.608154 115.789668 
L 173.902485 116.4752 
L 176.016398 116.986126 
L 180.322857 118.373294 
L 184.734771 120.199274 
L 189.247866 122.392753 
L 193.859655 124.870857 
L 210.895148 134.443703 
L 216.079039 137.013759 
L 221.287149 139.301627 
L 229.08613 142.381905 
L 241.603852 147.179121 
L 246.282785 149.161962 
L 250.692682 151.259745 
L 254.785313 153.515817 
L 258.523639 155.970002 
L 260.127774 157.175256 
L 261.580838 158.430821 
L 263.020571 159.922801 
L 264.44339 161.63894 
L 265.846907 163.559511 
L 268.602479 167.915032 
L 271.335224 172.77864 
L 275.620956 180.573367 
L 278.836023 185.823321 
L 280.633309 188.393498 
L 282.604253 190.890379 
L 284.788876 193.277588 
L 287.226546 195.506303 
L 289.947606 197.511862 
L 292.791473 199.140728 
L 295.615806 200.395599 
L 298.499632 201.406175 
L 301.426389 202.197993 
L 304.384333 202.795895 
L 307.364965 203.223026 
L 310.361686 203.500528 
L 313.368792 203.647611 
L 319.392062 203.619362 
L 325.38745 203.264137 
L 331.299509 202.694422 
L 350.818662 200.367986 
L 356.411179 199.508193 
L 361.913143 198.440892 
L 370.009822 196.558964 
L 380.54653 193.771924 
L 393.359931 190.340383 
L 398.487273 189.09504 
L 398.487273 189.09504 
" style="fill:none;stroke:#ffffff;stroke-linecap:square;"/>
   </g>
   <g id="patch_3">
    <path d="M 57.6 307.584 
L 57.6 41.472 
" style="fill:none;stroke:#000000;stroke-linecap:square;stroke-linejoin:miter;stroke-width:0.8;"/>
   </g>
   <g id="patch_4">
    <path d="M 414.72 307.584 
L 414.72 41.472 
" style="fill:none;stroke:#000000;stroke-linecap:square;stroke-linejoin:miter;stroke-width:0.8;"/>
   </g>
   <g id="patch_5">
    <path d="M 57.6 307.584 
L 414.72 307.584 
" style="fill:none;stroke:#000000;stroke-linecap:square;stroke-linejoin:miter;stroke-width:0.8;"/>
   </g>
   <g id="patch_6">
    <path d="M 57.6 41.472 
L 414.72 41.472 
" style="fill:none;stroke:#000000;stroke-linecap:square;stroke-linejoin:miter;stroke-width:0.8;"/>
   </g>
  </g>
 </g>
 <defs>
  <clipPath id="p859a91a58f">
   <rect height="266.112" width="357.12" x="57.6" y="41.472"/>
  </clipPath>
 </defs>
</svg>
