<?xml version="1.0" encoding="utf-8" standalone="no"?>
<!DOCTYPE svg PUBLIC "-//W3C//DTD SVG 1.1//EN"
  "http://www.w3.org/Graphics/SVG/1.1/DTD/svg11.dtd">
<!-- Created with matplotlib (https://matplotlib.org/) -->
<svg height="345.6pt" version="1.1" viewBox="0 0 460.8 345.6" width="460.8pt" xmlns="http://www.w3.org/2000/svg" xmlns:xlink="http://www.w3.org/1999/xlink">
 <metadata>
  <rdf:RDF xmlns:cc="http://creativecommons.org/ns#" xmlns:dc="http://purl.org/dc/elements/1.1/" xmlns:rdf="http://www.w3.org/1999/02/22-rdf-syntax-ns#">
   <cc:Work>
    <dc:type rdf:resource="http://purl.org/dc/dcmitype/StillImage"/>
    <dc:date>2021-06-30T14:38:16.196115</dc:date>
    <dc:format>image/svg+xml</dc:format>
    <dc:creator>
     <cc:Agent>
      <dc:title>Matplotlib v3.3.3, https://matplotlib.org/</dc:title>
     </cc:Agent>
    </dc:creator>
   </cc:Work>
  </rdf:RDF>
 </metadata>
 <defs>
  <style type="text/css">*{stroke-linecap:butt;stroke-linejoin:round;}</style>
 </defs>
 <g id="figure_1">
  <g id="patch_1">
   <path d="M 0 345.6 
L 460.8 345.6 
L 460.8 0 
L 0 0 
z
" style="fill:#ffffff;"/>
  </g>
  <g id="axes_1">
   <g id="patch_2">
    <path d="M 57.6 307.584 
L 414.72 307.584 
L 414.72 41.472 
L 57.6 41.472 
z
" style="fill:#7d9051;"/>
   </g>
   <g id="matplotlib.axis_1">
    <g id="xtick_1">
     <g id="line2d_1">
      <defs>
       <path d="M 0 0 
L 0 3.5 
" id="m2ead000b25" style="stroke:#000000;stroke-width:0.8;"/>
      </defs>
      <g>
       <use style="stroke:#000000;stroke-width:0.8;" x="79.98493" xlink:href="#m2ead000b25" y="307.584"/>
      </g>
     </g>
     <g id="text_1">
      <!-- −125 -->
      <g transform="translate(66.251336 322.182437)scale(0.1 -0.1)">
       <defs>
        <path d="M 10.59375 35.5 
L 73.1875 35.5 
L 73.1875 27.203125 
L 10.59375 27.203125 
z
" id="DejaVuSans-8722"/>
        <path d="M 12.40625 8.296875 
L 28.515625 8.296875 
L 28.515625 63.921875 
L 10.984375 60.40625 
L 10.984375 69.390625 
L 28.421875 72.90625 
L 38.28125 72.90625 
L 38.28125 8.296875 
L 54.390625 8.296875 
L 54.390625 0 
L 12.40625 0 
z
" id="DejaVuSans-49"/>
        <path d="M 19.1875 8.296875 
L 53.609375 8.296875 
L 53.609375 0 
L 7.328125 0 
L 7.328125 8.296875 
Q 12.9375 14.109375 22.625 23.890625 
Q 32.328125 33.6875 34.8125 36.53125 
Q 39.546875 41.84375 41.421875 45.53125 
Q 43.3125 49.21875 43.3125 52.78125 
Q 43.3125 58.59375 39.234375 62.25 
Q 35.15625 65.921875 28.609375 65.921875 
Q 23.96875 65.921875 18.8125 64.3125 
Q 13.671875 62.703125 7.8125 59.421875 
L 7.8125 69.390625 
Q 13.765625 71.78125 18.9375 73 
Q 24.125 74.21875 28.421875 74.21875 
Q 39.75 74.21875 46.484375 68.546875 
Q 53.21875 62.890625 53.21875 53.421875 
Q 53.21875 48.921875 51.53125 44.890625 
Q 49.859375 40.875 45.40625 35.40625 
Q 44.1875 33.984375 37.640625 27.21875 
Q 31.109375 20.453125 19.1875 8.296875 
z
" id="DejaVuSans-50"/>
        <path d="M 10.796875 72.90625 
L 49.515625 72.90625 
L 49.515625 64.59375 
L 19.828125 64.59375 
L 19.828125 46.734375 
Q 21.96875 47.46875 24.109375 47.828125 
Q 26.265625 48.1875 28.421875 48.1875 
Q 40.625 48.1875 47.75 41.5 
Q 54.890625 34.8125 54.890625 23.390625 
Q 54.890625 11.625 47.5625 5.09375 
Q 40.234375 -1.421875 26.90625 -1.421875 
Q 22.3125 -1.421875 17.546875 -0.640625 
Q 12.796875 0.140625 7.71875 1.703125 
L 7.71875 11.625 
Q 12.109375 9.234375 16.796875 8.0625 
Q 21.484375 6.890625 26.703125 6.890625 
Q 35.15625 6.890625 40.078125 11.328125 
Q 45.015625 15.765625 45.015625 23.390625 
Q 45.015625 31 40.078125 35.4375 
Q 35.15625 39.890625 26.703125 39.890625 
Q 22.75 39.890625 18.8125 39.015625 
Q 14.890625 38.140625 10.796875 36.28125 
z
" id="DejaVuSans-53"/>
       </defs>
       <use xlink:href="#DejaVuSans-8722"/>
       <use x="83.789062" xlink:href="#DejaVuSans-49"/>
       <use x="147.412109" xlink:href="#DejaVuSans-50"/>
       <use x="211.035156" xlink:href="#DejaVuSans-53"/>
      </g>
     </g>
    </g>
    <g id="xtick_2">
     <g id="line2d_2">
      <g>
       <use style="stroke:#000000;stroke-width:0.8;" x="121.139333" xlink:href="#m2ead000b25" y="307.584"/>
      </g>
     </g>
     <g id="text_2">
      <!-- −100 -->
      <g transform="translate(107.40574 322.182437)scale(0.1 -0.1)">
       <defs>
        <path d="M 31.78125 66.40625 
Q 24.171875 66.40625 20.328125 58.90625 
Q 16.5 51.421875 16.5 36.375 
Q 16.5 21.390625 20.328125 13.890625 
Q 24.171875 6.390625 31.78125 6.390625 
Q 39.453125 6.390625 43.28125 13.890625 
Q 47.125 21.390625 47.125 36.375 
Q 47.125 51.421875 43.28125 58.90625 
Q 39.453125 66.40625 31.78125 66.40625 
z
M 31.78125 74.21875 
Q 44.046875 74.21875 50.515625 64.515625 
Q 56.984375 54.828125 56.984375 36.375 
Q 56.984375 17.96875 50.515625 8.265625 
Q 44.046875 -1.421875 31.78125 -1.421875 
Q 19.53125 -1.421875 13.0625 8.265625 
Q 6.59375 17.96875 6.59375 36.375 
Q 6.59375 54.828125 13.0625 64.515625 
Q 19.53125 74.21875 31.78125 74.21875 
z
" id="DejaVuSans-48"/>
       </defs>
       <use xlink:href="#DejaVuSans-8722"/>
       <use x="83.789062" xlink:href="#DejaVuSans-49"/>
       <use x="147.412109" xlink:href="#DejaVuSans-48"/>
       <use x="211.035156" xlink:href="#DejaVuSans-48"/>
      </g>
     </g>
    </g>
    <g id="xtick_3">
     <g id="line2d_3">
      <g>
       <use style="stroke:#000000;stroke-width:0.8;" x="162.293736" xlink:href="#m2ead000b25" y="307.584"/>
      </g>
     </g>
     <g id="text_3">
      <!-- −75 -->
      <g transform="translate(151.741393 322.182437)scale(0.1 -0.1)">
       <defs>
        <path d="M 8.203125 72.90625 
L 55.078125 72.90625 
L 55.078125 68.703125 
L 28.609375 0 
L 18.3125 0 
L 43.21875 64.59375 
L 8.203125 64.59375 
z
" id="DejaVuSans-55"/>
       </defs>
       <use xlink:href="#DejaVuSans-8722"/>
       <use x="83.789062" xlink:href="#DejaVuSans-55"/>
       <use x="147.412109" xlink:href="#DejaVuSans-53"/>
      </g>
     </g>
    </g>
    <g id="xtick_4">
     <g id="line2d_4">
      <g>
       <use style="stroke:#000000;stroke-width:0.8;" x="203.448139" xlink:href="#m2ead000b25" y="307.584"/>
      </g>
     </g>
     <g id="text_4">
      <!-- −50 -->
      <g transform="translate(192.895796 322.182437)scale(0.1 -0.1)">
       <use xlink:href="#DejaVuSans-8722"/>
       <use x="83.789062" xlink:href="#DejaVuSans-53"/>
       <use x="147.412109" xlink:href="#DejaVuSans-48"/>
      </g>
     </g>
    </g>
    <g id="xtick_5">
     <g id="line2d_5">
      <g>
       <use style="stroke:#000000;stroke-width:0.8;" x="244.602542" xlink:href="#m2ead000b25" y="307.584"/>
      </g>
     </g>
     <g id="text_5">
      <!-- −25 -->
      <g transform="translate(234.050199 322.182437)scale(0.1 -0.1)">
       <use xlink:href="#DejaVuSans-8722"/>
       <use x="83.789062" xlink:href="#DejaVuSans-50"/>
       <use x="147.412109" xlink:href="#DejaVuSans-53"/>
      </g>
     </g>
    </g>
    <g id="xtick_6">
     <g id="line2d_6">
      <g>
       <use style="stroke:#000000;stroke-width:0.8;" x="285.756945" xlink:href="#m2ead000b25" y="307.584"/>
      </g>
     </g>
     <g id="text_6">
      <!-- 0 -->
      <g transform="translate(282.575695 322.182437)scale(0.1 -0.1)">
       <use xlink:href="#DejaVuSans-48"/>
      </g>
     </g>
    </g>
    <g id="xtick_7">
     <g id="line2d_7">
      <g>
       <use style="stroke:#000000;stroke-width:0.8;" x="326.911348" xlink:href="#m2ead000b25" y="307.584"/>
      </g>
     </g>
     <g id="text_7">
      <!-- 25 -->
      <g transform="translate(320.548848 322.182437)scale(0.1 -0.1)">
       <use xlink:href="#DejaVuSans-50"/>
       <use x="63.623047" xlink:href="#DejaVuSans-53"/>
      </g>
     </g>
    </g>
    <g id="xtick_8">
     <g id="line2d_8">
      <g>
       <use style="stroke:#000000;stroke-width:0.8;" x="368.065751" xlink:href="#m2ead000b25" y="307.584"/>
      </g>
     </g>
     <g id="text_8">
      <!-- 50 -->
      <g transform="translate(361.703251 322.182437)scale(0.1 -0.1)">
       <use xlink:href="#DejaVuSans-53"/>
       <use x="63.623047" xlink:href="#DejaVuSans-48"/>
      </g>
     </g>
    </g>
    <g id="xtick_9">
     <g id="line2d_9">
      <g>
       <use style="stroke:#000000;stroke-width:0.8;" x="409.220154" xlink:href="#m2ead000b25" y="307.584"/>
      </g>
     </g>
     <g id="text_9">
      <!-- 75 -->
      <g transform="translate(402.857654 322.182437)scale(0.1 -0.1)">
       <use xlink:href="#DejaVuSans-55"/>
       <use x="63.623047" xlink:href="#DejaVuSans-53"/>
      </g>
     </g>
    </g>
   </g>
   <g id="matplotlib.axis_2">
    <g id="ytick_1">
     <g id="line2d_10">
      <defs>
       <path d="M 0 0 
L -3.5 0 
" id="m42607fefe1" style="stroke:#000000;stroke-width:0.8;"/>
      </defs>
      <g>
       <use style="stroke:#000000;stroke-width:0.8;" x="57.6" xlink:href="#m42607fefe1" y="295.424649"/>
      </g>
     </g>
     <g id="text_10">
      <!-- 0 -->
      <g transform="translate(44.2375 299.223868)scale(0.1 -0.1)">
       <use xlink:href="#DejaVuSans-48"/>
      </g>
     </g>
    </g>
    <g id="ytick_2">
     <g id="line2d_11">
      <g>
       <use style="stroke:#000000;stroke-width:0.8;" x="57.6" xlink:href="#m42607fefe1" y="262.501127"/>
      </g>
     </g>
     <g id="text_11">
      <!-- 20 -->
      <g transform="translate(37.875 266.300345)scale(0.1 -0.1)">
       <use xlink:href="#DejaVuSans-50"/>
       <use x="63.623047" xlink:href="#DejaVuSans-48"/>
      </g>
     </g>
    </g>
    <g id="ytick_3">
     <g id="line2d_12">
      <g>
       <use style="stroke:#000000;stroke-width:0.8;" x="57.6" xlink:href="#m42607fefe1" y="229.577604"/>
      </g>
     </g>
     <g id="text_12">
      <!-- 40 -->
      <g transform="translate(37.875 233.376823)scale(0.1 -0.1)">
       <defs>
        <path d="M 37.796875 64.3125 
L 12.890625 25.390625 
L 37.796875 25.390625 
z
M 35.203125 72.90625 
L 47.609375 72.90625 
L 47.609375 25.390625 
L 58.015625 25.390625 
L 58.015625 17.1875 
L 47.609375 17.1875 
L 47.609375 0 
L 37.796875 0 
L 37.796875 17.1875 
L 4.890625 17.1875 
L 4.890625 26.703125 
z
" id="DejaVuSans-52"/>
       </defs>
       <use xlink:href="#DejaVuSans-52"/>
       <use x="63.623047" xlink:href="#DejaVuSans-48"/>
      </g>
     </g>
    </g>
    <g id="ytick_4">
     <g id="line2d_13">
      <g>
       <use style="stroke:#000000;stroke-width:0.8;" x="57.6" xlink:href="#m42607fefe1" y="196.654082"/>
      </g>
     </g>
     <g id="text_13">
      <!-- 60 -->
      <g transform="translate(37.875 200.4533)scale(0.1 -0.1)">
       <defs>
        <path d="M 33.015625 40.375 
Q 26.375 40.375 22.484375 35.828125 
Q 18.609375 31.296875 18.609375 23.390625 
Q 18.609375 15.53125 22.484375 10.953125 
Q 26.375 6.390625 33.015625 6.390625 
Q 39.65625 6.390625 43.53125 10.953125 
Q 47.40625 15.53125 47.40625 23.390625 
Q 47.40625 31.296875 43.53125 35.828125 
Q 39.65625 40.375 33.015625 40.375 
z
M 52.59375 71.296875 
L 52.59375 62.3125 
Q 48.875 64.0625 45.09375 64.984375 
Q 41.3125 65.921875 37.59375 65.921875 
Q 27.828125 65.921875 22.671875 59.328125 
Q 17.53125 52.734375 16.796875 39.40625 
Q 19.671875 43.65625 24.015625 45.921875 
Q 28.375 48.1875 33.59375 48.1875 
Q 44.578125 48.1875 50.953125 41.515625 
Q 57.328125 34.859375 57.328125 23.390625 
Q 57.328125 12.15625 50.6875 5.359375 
Q 44.046875 -1.421875 33.015625 -1.421875 
Q 20.359375 -1.421875 13.671875 8.265625 
Q 6.984375 17.96875 6.984375 36.375 
Q 6.984375 53.65625 15.1875 63.9375 
Q 23.390625 74.21875 37.203125 74.21875 
Q 40.921875 74.21875 44.703125 73.484375 
Q 48.484375 72.75 52.59375 71.296875 
z
" id="DejaVuSans-54"/>
       </defs>
       <use xlink:href="#DejaVuSans-54"/>
       <use x="63.623047" xlink:href="#DejaVuSans-48"/>
      </g>
     </g>
    </g>
    <g id="ytick_5">
     <g id="line2d_14">
      <g>
       <use style="stroke:#000000;stroke-width:0.8;" x="57.6" xlink:href="#m42607fefe1" y="163.730559"/>
      </g>
     </g>
     <g id="text_14">
      <!-- 80 -->
      <g transform="translate(37.875 167.529778)scale(0.1 -0.1)">
       <defs>
        <path d="M 31.78125 34.625 
Q 24.75 34.625 20.71875 30.859375 
Q 16.703125 27.09375 16.703125 20.515625 
Q 16.703125 13.921875 20.71875 10.15625 
Q 24.75 6.390625 31.78125 6.390625 
Q 38.8125 6.390625 42.859375 10.171875 
Q 46.921875 13.96875 46.921875 20.515625 
Q 46.921875 27.09375 42.890625 30.859375 
Q 38.875 34.625 31.78125 34.625 
z
M 21.921875 38.8125 
Q 15.578125 40.375 12.03125 44.71875 
Q 8.5 49.078125 8.5 55.328125 
Q 8.5 64.0625 14.71875 69.140625 
Q 20.953125 74.21875 31.78125 74.21875 
Q 42.671875 74.21875 48.875 69.140625 
Q 55.078125 64.0625 55.078125 55.328125 
Q 55.078125 49.078125 51.53125 44.71875 
Q 48 40.375 41.703125 38.8125 
Q 48.828125 37.15625 52.796875 32.3125 
Q 56.78125 27.484375 56.78125 20.515625 
Q 56.78125 9.90625 50.3125 4.234375 
Q 43.84375 -1.421875 31.78125 -1.421875 
Q 19.734375 -1.421875 13.25 4.234375 
Q 6.78125 9.90625 6.78125 20.515625 
Q 6.78125 27.484375 10.78125 32.3125 
Q 14.796875 37.15625 21.921875 38.8125 
z
M 18.3125 54.390625 
Q 18.3125 48.734375 21.84375 45.5625 
Q 25.390625 42.390625 31.78125 42.390625 
Q 38.140625 42.390625 41.71875 45.5625 
Q 45.3125 48.734375 45.3125 54.390625 
Q 45.3125 60.0625 41.71875 63.234375 
Q 38.140625 66.40625 31.78125 66.40625 
Q 25.390625 66.40625 21.84375 63.234375 
Q 18.3125 60.0625 18.3125 54.390625 
z
" id="DejaVuSans-56"/>
       </defs>
       <use xlink:href="#DejaVuSans-56"/>
       <use x="63.623047" xlink:href="#DejaVuSans-48"/>
      </g>
     </g>
    </g>
    <g id="ytick_6">
     <g id="line2d_15">
      <g>
       <use style="stroke:#000000;stroke-width:0.8;" x="57.6" xlink:href="#m42607fefe1" y="130.807037"/>
      </g>
     </g>
     <g id="text_15">
      <!-- 100 -->
      <g transform="translate(31.5125 134.606256)scale(0.1 -0.1)">
       <use xlink:href="#DejaVuSans-49"/>
       <use x="63.623047" xlink:href="#DejaVuSans-48"/>
       <use x="127.246094" xlink:href="#DejaVuSans-48"/>
      </g>
     </g>
    </g>
    <g id="ytick_7">
     <g id="line2d_16">
      <g>
       <use style="stroke:#000000;stroke-width:0.8;" x="57.6" xlink:href="#m42607fefe1" y="97.883514"/>
      </g>
     </g>
     <g id="text_16">
      <!-- 120 -->
      <g transform="translate(31.5125 101.682733)scale(0.1 -0.1)">
       <use xlink:href="#DejaVuSans-49"/>
       <use x="63.623047" xlink:href="#DejaVuSans-50"/>
       <use x="127.246094" xlink:href="#DejaVuSans-48"/>
      </g>
     </g>
    </g>
    <g id="ytick_8">
     <g id="line2d_17">
      <g>
       <use style="stroke:#000000;stroke-width:0.8;" x="57.6" xlink:href="#m42607fefe1" y="64.959992"/>
      </g>
     </g>
     <g id="text_17">
      <!-- 140 -->
      <g transform="translate(31.5125 68.759211)scale(0.1 -0.1)">
       <use xlink:href="#DejaVuSans-49"/>
       <use x="63.623047" xlink:href="#DejaVuSans-52"/>
       <use x="127.246094" xlink:href="#DejaVuSans-48"/>
      </g>
     </g>
    </g>
   </g>
   <g id="line2d_18">
    <path clip-path="url(#p3d26202540)" d="M 285.756945 295.424649 
L 286.050044 275.933016 
L 286.475749 252.095014 
L 286.290662 247.652975 
L 285.733718 240.871354 
L 284.991127 231.829193 
L 284.843281 227.402961 
L 284.976817 223.096169 
L 285.180138 221.000736 
L 285.491046 218.950971 
L 285.921955 216.952144 
L 286.485279 215.009523 
L 287.193432 213.128379 
L 288.110455 211.325098 
L 289.271444 209.606181 
L 290.645398 207.962067 
L 292.201313 206.383196 
L 293.908189 204.860006 
L 297.650811 201.942426 
L 309.277484 193.531715 
L 310.947898 192.079419 
L 312.45925 190.587197 
L 313.780537 189.045487 
L 314.880758 187.444728 
L 315.728909 185.77536 
L 316.29399 184.027821 
L 316.618678 182.192229 
L 316.772915 180.272227 
L 316.766585 178.278545 
L 316.609576 176.221916 
L 316.311772 174.113069 
L 315.883061 171.962735 
L 314.672461 167.58053 
L 313.056864 163.161145 
L 311.115359 158.790428 
L 308.927037 154.554224 
L 306.570986 150.538378 
L 304.126296 146.828736 
L 301.616074 143.435952 
L 298.776888 140.001949 
L 295.6149 136.55586 
L 292.191518 133.202814 
L 288.568151 130.047938 
L 284.806207 127.196361 
L 280.967093 124.753212 
L 279.037788 123.717651 
L 277.112218 122.82362 
L 275.19806 122.08426 
L 273.302989 121.512712 
L 271.434682 121.122118 
L 269.600815 120.925618 
L 267.783701 120.99852 
L 265.960486 121.383822 
L 264.131096 122.046202 
L 262.295456 122.950334 
L 260.453491 124.060897 
L 256.750289 126.760018 
L 253.020891 129.860979 
L 247.376371 134.647709 
L 243.578871 137.516949 
L 241.66955 138.749025 
L 239.753083 139.798973 
L 237.829395 140.63147 
L 235.898411 141.211194 
L 233.960057 141.502819 
L 231.977822 141.572668 
L 229.923399 141.514187 
L 227.809017 141.332744 
L 223.449283 140.622437 
L 218.996445 139.484682 
L 214.548327 137.962415 
L 210.202751 136.098569 
L 206.057543 133.936081 
L 202.210526 131.517885 
L 198.759523 128.886916 
L 197.213097 127.505058 
L 195.802359 126.086109 
L 194.554315 124.572569 
L 193.475479 122.91336 
L 192.547337 121.123471 
L 191.751378 119.217896 
L 191.069087 117.211624 
L 189.971459 112.956959 
L 189.10635 108.479408 
L 187.481272 99.33537 
L 186.425096 94.908746 
L 185.771303 92.784253 
L 185.009023 90.738961 
L 184.119742 88.787861 
L 183.084949 86.945945 
L 180.680245 83.492057 
L 177.96041 80.235085 
L 174.984531 77.138106 
L 171.811696 74.1642 
L 166.812401 69.853335 
L 156.680866 61.314679 
L 153.480949 58.357695 
L 153.480949 58.357695 
" style="fill:none;stroke:#fea952;stroke-linecap:square;"/>
   </g>
   <g id="line2d_19">
    <path clip-path="url(#p3d26202540)" d="M 279.172546 295.361298 
L 279.466608 275.803775 
L 279.893949 252.290559 
L 279.722713 248.122423 
L 279.177111 241.478997 
L 278.413448 232.133302 
L 278.259027 227.325961 
L 278.422893 222.460238 
L 278.669897 220.013263 
L 279.054219 217.563314 
L 279.597782 215.11825 
L 280.322767 212.689658 
L 281.324056 210.143624 
L 282.653792 207.639564 
L 284.218771 205.383761 
L 285.955338 203.340198 
L 287.817087 201.470264 
L 289.768146 199.739618 
L 293.816896 196.588976 
L 304.957146 188.562508 
L 307.459484 186.302262 
L 309.010285 184.462133 
L 309.463613 183.749428 
L 309.809941 182.88089 
L 310.055118 181.664969 
L 310.188244 180.293132 
L 310.200986 178.779784 
L 310.089561 177.142648 
L 309.498043 173.572046 
L 308.447378 169.726847 
L 306.998062 165.73976 
L 305.223742 161.731037 
L 303.204861 157.812297 
L 301.02646 154.090358 
L 298.77872 150.67084 
L 296.486413 147.564501 
L 293.867271 144.389887 
L 290.942477 141.195558 
L 287.790652 138.100845 
L 284.494912 135.221626 
L 281.147007 132.670718 
L 277.852971 130.554986 
L 274.739657 128.966037 
L 271.955502 127.958068 
L 269.86478 127.505029 
L 269.145185 127.440934 
L 268.202232 127.57518 
L 267.040576 127.953253 
L 265.69537 128.589387 
L 264.205592 129.472003 
L 260.911689 131.863065 
L 257.315314 134.852599 
L 251.446627 139.823746 
L 247.149139 143.049716 
L 244.833333 144.523868 
L 242.368299 145.842066 
L 239.722778 146.938089 
L 236.878055 147.722617 
L 234.19194 148.08344 
L 231.790459 148.154706 
L 229.36041 148.07478 
L 226.906883 147.855358 
L 224.435652 147.506047 
L 221.95326 147.034944 
L 216.984721 145.754555 
L 212.066358 144.061445 
L 207.269836 141.99402 
L 202.670416 139.582824 
L 198.345005 136.848559 
L 196.309435 135.362864 
L 194.372028 133.796928 
L 192.543516 132.147617 
L 190.722062 130.275251 
L 189.033943 128.161975 
L 187.629946 125.944544 
L 186.471381 123.661401 
L 185.517309 121.337972 
L 184.729342 118.990941 
L 183.519525 114.272593 
L 182.616294 109.591843 
L 181.050366 100.750212 
L 180.131659 96.845493 
L 179.017328 93.469881 
L 178.378966 92.013046 
L 177.591764 90.576821 
L 175.543899 87.612286 
L 173.143342 84.724426 
L 170.428907 81.892538 
L 167.448898 79.09617 
L 162.600487 74.914768 
L 152.261802 66.196298 
L 148.962414 63.14739 
L 148.962414 63.14739 
" style="fill:none;stroke:#ffffff;stroke-linecap:square;"/>
   </g>
   <g id="line2d_20">
    <path clip-path="url(#p3d26202540)" d="M 292.341345 295.488 
L 292.63348 276.062257 
L 293.05755 251.89947 
L 292.858611 247.183527 
L 292.290326 240.26371 
L 291.568805 231.525083 
L 291.427535 227.479961 
L 291.530741 223.7321 
L 291.927873 220.338629 
L 292.647792 217.329388 
L 293.062808 216.113133 
L 293.567118 215.010632 
L 294.324117 213.828601 
L 295.335457 212.583936 
L 296.585539 211.296127 
L 299.692292 208.645859 
L 303.392637 205.928904 
L 311.562864 200.118957 
L 313.597821 198.500921 
L 315.574239 196.765068 
L 317.459016 194.872133 
L 319.207086 192.775219 
L 320.751231 190.427324 
L 321.994205 187.801292 
L 322.778038 185.174753 
L 323.182239 182.719489 
L 323.357586 180.251321 
L 323.332184 177.777307 
L 323.12959 175.301184 
L 322.769388 172.825617 
L 322.268079 170.353424 
L 321.639911 167.888142 
L 320.052532 162.996966 
L 318.097195 158.197705 
L 315.854556 153.546621 
L 313.39996 149.106641 
L 310.804206 144.943694 
L 308.133643 141.125654 
L 305.261459 137.46675 
L 302.026581 133.760064 
L 298.474194 130.093829 
L 294.646693 126.560905 
L 290.580061 123.257083 
L 286.299032 120.28213 
L 284.081215 118.951438 
L 281.810723 117.745284 
L 279.484779 116.681203 
L 277.099395 115.780034 
L 274.650476 115.067356 
L 272.136221 114.574891 
L 269.336851 114.346206 
L 266.422217 114.556106 
L 263.718741 115.192465 
L 261.221616 116.13915 
L 258.895542 117.311281 
L 256.701391 118.64979 
L 254.606945 120.110657 
L 250.631765 123.254473 
L 241.616572 130.80669 
L 238.505767 132.974182 
L 235.936012 134.324852 
L 234.918767 134.699771 
L 233.728173 134.922199 
L 230.486389 134.953595 
L 226.858152 134.561363 
L 222.989796 133.759563 
L 219.016461 132.58085 
L 215.064996 131.068593 
L 211.257269 129.274119 
L 207.712682 127.257245 
L 204.549382 125.089763 
L 201.882678 122.8625 
L 200.074686 120.983164 
L 199.321012 119.882175 
L 198.623294 118.585542 
L 197.985446 117.097819 
L 196.890541 113.606931 
L 195.99658 109.555109 
L 193.365445 95.454829 
L 192.718533 92.971999 
L 191.941407 90.484655 
L 191.000718 88.008041 
L 189.860519 85.562676 
L 188.578133 83.31507 
L 187.237477 81.300658 
L 184.326507 77.522393 
L 181.179046 74.035094 
L 177.869271 70.784853 
L 174.463659 67.719684 
L 167.611286 61.958901 
L 161.09993 56.433059 
L 157.999483 53.568 
L 157.999483 53.568 
" style="fill:none;stroke:#ffffff;stroke-linecap:square;"/>
   </g>
   <g id="patch_3">
    <path d="M 57.6 307.584 
L 57.6 41.472 
" style="fill:none;stroke:#000000;stroke-linecap:square;stroke-linejoin:miter;stroke-width:0.8;"/>
   </g>
   <g id="patch_4">
    <path d="M 414.72 307.584 
L 414.72 41.472 
" style="fill:none;stroke:#000000;stroke-linecap:square;stroke-linejoin:miter;stroke-width:0.8;"/>
   </g>
   <g id="patch_5">
    <path d="M 57.6 307.584 
L 414.72 307.584 
" style="fill:none;stroke:#000000;stroke-linecap:square;stroke-linejoin:miter;stroke-width:0.8;"/>
   </g>
   <g id="patch_6">
    <path d="M 57.6 41.472 
L 414.72 41.472 
" style="fill:none;stroke:#000000;stroke-linecap:square;stroke-linejoin:miter;stroke-width:0.8;"/>
   </g>
  </g>
 </g>
 <defs>
  <clipPath id="p3d26202540">
   <rect height="266.112" width="357.12" x="57.6" y="41.472"/>
  </clipPath>
 </defs>
</svg>
