<?xml version="1.0" encoding="utf-8" standalone="no"?>
<!DOCTYPE svg PUBLIC "-//W3C//DTD SVG 1.1//EN"
  "http://www.w3.org/Graphics/SVG/1.1/DTD/svg11.dtd">
<!-- Created with matplotlib (https://matplotlib.org/) -->
<svg height="345.6pt" version="1.1" viewBox="0 0 460.8 345.6" width="460.8pt" xmlns="http://www.w3.org/2000/svg" xmlns:xlink="http://www.w3.org/1999/xlink">
 <metadata>
  <rdf:RDF xmlns:cc="http://creativecommons.org/ns#" xmlns:dc="http://purl.org/dc/elements/1.1/" xmlns:rdf="http://www.w3.org/1999/02/22-rdf-syntax-ns#">
   <cc:Work>
    <dc:type rdf:resource="http://purl.org/dc/dcmitype/StillImage"/>
    <dc:date>2021-05-28T14:18:29.088281</dc:date>
    <dc:format>image/svg+xml</dc:format>
    <dc:creator>
     <cc:Agent>
      <dc:title>Matplotlib v3.3.3, https://matplotlib.org/</dc:title>
     </cc:Agent>
    </dc:creator>
   </cc:Work>
  </rdf:RDF>
 </metadata>
 <defs>
  <style type="text/css">*{stroke-linecap:butt;stroke-linejoin:round;}</style>
 </defs>
 <g id="figure_1">
  <g id="patch_1">
   <path d="M 0 345.6 
L 460.8 345.6 
L 460.8 0 
L 0 0 
z
" style="fill:#ffffff;"/>
  </g>
  <g id="axes_1">
   <g id="patch_2">
    <path d="M 57.6 307.584 
L 414.72 307.584 
L 414.72 41.472 
L 57.6 41.472 
z
" style="fill:#7d9051;"/>
   </g>
   <g id="matplotlib.axis_1">
    <g id="xtick_1">
     <g id="line2d_1">
      <defs>
       <path d="M 0 0 
L 0 3.5 
" id="m0406590899" style="stroke:#000000;stroke-width:0.8;"/>
      </defs>
      <g>
       <use style="stroke:#000000;stroke-width:0.8;" x="82.964704" xlink:href="#m0406590899" y="307.584"/>
      </g>
     </g>
     <g id="text_1">
      <!-- −150 -->
      <g transform="translate(69.23111 322.182437)scale(0.1 -0.1)">
       <defs>
        <path d="M 10.59375 35.5 
L 73.1875 35.5 
L 73.1875 27.203125 
L 10.59375 27.203125 
z
" id="DejaVuSans-8722"/>
        <path d="M 12.40625 8.296875 
L 28.515625 8.296875 
L 28.515625 63.921875 
L 10.984375 60.40625 
L 10.984375 69.390625 
L 28.421875 72.90625 
L 38.28125 72.90625 
L 38.28125 8.296875 
L 54.390625 8.296875 
L 54.390625 0 
L 12.40625 0 
z
" id="DejaVuSans-49"/>
        <path d="M 10.796875 72.90625 
L 49.515625 72.90625 
L 49.515625 64.59375 
L 19.828125 64.59375 
L 19.828125 46.734375 
Q 21.96875 47.46875 24.109375 47.828125 
Q 26.265625 48.1875 28.421875 48.1875 
Q 40.625 48.1875 47.75 41.5 
Q 54.890625 34.8125 54.890625 23.390625 
Q 54.890625 11.625 47.5625 5.09375 
Q 40.234375 -1.421875 26.90625 -1.421875 
Q 22.3125 -1.421875 17.546875 -0.640625 
Q 12.796875 0.140625 7.71875 1.703125 
L 7.71875 11.625 
Q 12.109375 9.234375 16.796875 8.0625 
Q 21.484375 6.890625 26.703125 6.890625 
Q 35.15625 6.890625 40.078125 11.328125 
Q 45.015625 15.765625 45.015625 23.390625 
Q 45.015625 31 40.078125 35.4375 
Q 35.15625 39.890625 26.703125 39.890625 
Q 22.75 39.890625 18.8125 39.015625 
Q 14.890625 38.140625 10.796875 36.28125 
z
" id="DejaVuSans-53"/>
        <path d="M 31.78125 66.40625 
Q 24.171875 66.40625 20.328125 58.90625 
Q 16.5 51.421875 16.5 36.375 
Q 16.5 21.390625 20.328125 13.890625 
Q 24.171875 6.390625 31.78125 6.390625 
Q 39.453125 6.390625 43.28125 13.890625 
Q 47.125 21.390625 47.125 36.375 
Q 47.125 51.421875 43.28125 58.90625 
Q 39.453125 66.40625 31.78125 66.40625 
z
M 31.78125 74.21875 
Q 44.046875 74.21875 50.515625 64.515625 
Q 56.984375 54.828125 56.984375 36.375 
Q 56.984375 17.96875 50.515625 8.265625 
Q 44.046875 -1.421875 31.78125 -1.421875 
Q 19.53125 -1.421875 13.0625 8.265625 
Q 6.59375 17.96875 6.59375 36.375 
Q 6.59375 54.828125 13.0625 64.515625 
Q 19.53125 74.21875 31.78125 74.21875 
z
" id="DejaVuSans-48"/>
       </defs>
       <use xlink:href="#DejaVuSans-8722"/>
       <use x="83.789062" xlink:href="#DejaVuSans-49"/>
       <use x="147.412109" xlink:href="#DejaVuSans-53"/>
       <use x="211.035156" xlink:href="#DejaVuSans-48"/>
      </g>
     </g>
    </g>
    <g id="xtick_2">
     <g id="line2d_2">
      <g>
       <use style="stroke:#000000;stroke-width:0.8;" x="154.060812" xlink:href="#m0406590899" y="307.584"/>
      </g>
     </g>
     <g id="text_2">
      <!-- −100 -->
      <g transform="translate(140.327218 322.182437)scale(0.1 -0.1)">
       <use xlink:href="#DejaVuSans-8722"/>
       <use x="83.789062" xlink:href="#DejaVuSans-49"/>
       <use x="147.412109" xlink:href="#DejaVuSans-48"/>
       <use x="211.035156" xlink:href="#DejaVuSans-48"/>
      </g>
     </g>
    </g>
    <g id="xtick_3">
     <g id="line2d_3">
      <g>
       <use style="stroke:#000000;stroke-width:0.8;" x="225.15692" xlink:href="#m0406590899" y="307.584"/>
      </g>
     </g>
     <g id="text_3">
      <!-- −50 -->
      <g transform="translate(214.604576 322.182437)scale(0.1 -0.1)">
       <use xlink:href="#DejaVuSans-8722"/>
       <use x="83.789062" xlink:href="#DejaVuSans-53"/>
       <use x="147.412109" xlink:href="#DejaVuSans-48"/>
      </g>
     </g>
    </g>
    <g id="xtick_4">
     <g id="line2d_4">
      <g>
       <use style="stroke:#000000;stroke-width:0.8;" x="296.253028" xlink:href="#m0406590899" y="307.584"/>
      </g>
     </g>
     <g id="text_4">
      <!-- 0 -->
      <g transform="translate(293.071778 322.182437)scale(0.1 -0.1)">
       <use xlink:href="#DejaVuSans-48"/>
      </g>
     </g>
    </g>
    <g id="xtick_5">
     <g id="line2d_5">
      <g>
       <use style="stroke:#000000;stroke-width:0.8;" x="367.349136" xlink:href="#m0406590899" y="307.584"/>
      </g>
     </g>
     <g id="text_5">
      <!-- 50 -->
      <g transform="translate(360.986636 322.182437)scale(0.1 -0.1)">
       <use xlink:href="#DejaVuSans-53"/>
       <use x="63.623047" xlink:href="#DejaVuSans-48"/>
      </g>
     </g>
    </g>
   </g>
   <g id="matplotlib.axis_2">
    <g id="ytick_1">
     <g id="line2d_6">
      <defs>
       <path d="M 0 0 
L -3.5 0 
" id="m91808ee4ff" style="stroke:#000000;stroke-width:0.8;"/>
      </defs>
      <g>
       <use style="stroke:#000000;stroke-width:0.8;" x="57.6" xlink:href="#m91808ee4ff" y="295.433279"/>
      </g>
     </g>
     <g id="text_6">
      <!-- 0 -->
      <g transform="translate(44.2375 299.232498)scale(0.1 -0.1)">
       <use xlink:href="#DejaVuSans-48"/>
      </g>
     </g>
    </g>
    <g id="ytick_2">
     <g id="line2d_7">
      <g>
       <use style="stroke:#000000;stroke-width:0.8;" x="57.6" xlink:href="#m91808ee4ff" y="259.885225"/>
      </g>
     </g>
     <g id="text_7">
      <!-- 25 -->
      <g transform="translate(37.875 263.684444)scale(0.1 -0.1)">
       <defs>
        <path d="M 19.1875 8.296875 
L 53.609375 8.296875 
L 53.609375 0 
L 7.328125 0 
L 7.328125 8.296875 
Q 12.9375 14.109375 22.625 23.890625 
Q 32.328125 33.6875 34.8125 36.53125 
Q 39.546875 41.84375 41.421875 45.53125 
Q 43.3125 49.21875 43.3125 52.78125 
Q 43.3125 58.59375 39.234375 62.25 
Q 35.15625 65.921875 28.609375 65.921875 
Q 23.96875 65.921875 18.8125 64.3125 
Q 13.671875 62.703125 7.8125 59.421875 
L 7.8125 69.390625 
Q 13.765625 71.78125 18.9375 73 
Q 24.125 74.21875 28.421875 74.21875 
Q 39.75 74.21875 46.484375 68.546875 
Q 53.21875 62.890625 53.21875 53.421875 
Q 53.21875 48.921875 51.53125 44.890625 
Q 49.859375 40.875 45.40625 35.40625 
Q 44.1875 33.984375 37.640625 27.21875 
Q 31.109375 20.453125 19.1875 8.296875 
z
" id="DejaVuSans-50"/>
       </defs>
       <use xlink:href="#DejaVuSans-50"/>
       <use x="63.623047" xlink:href="#DejaVuSans-53"/>
      </g>
     </g>
    </g>
    <g id="ytick_3">
     <g id="line2d_8">
      <g>
       <use style="stroke:#000000;stroke-width:0.8;" x="57.6" xlink:href="#m91808ee4ff" y="224.337171"/>
      </g>
     </g>
     <g id="text_8">
      <!-- 50 -->
      <g transform="translate(37.875 228.13639)scale(0.1 -0.1)">
       <use xlink:href="#DejaVuSans-53"/>
       <use x="63.623047" xlink:href="#DejaVuSans-48"/>
      </g>
     </g>
    </g>
    <g id="ytick_4">
     <g id="line2d_9">
      <g>
       <use style="stroke:#000000;stroke-width:0.8;" x="57.6" xlink:href="#m91808ee4ff" y="188.789117"/>
      </g>
     </g>
     <g id="text_9">
      <!-- 75 -->
      <g transform="translate(37.875 192.588336)scale(0.1 -0.1)">
       <defs>
        <path d="M 8.203125 72.90625 
L 55.078125 72.90625 
L 55.078125 68.703125 
L 28.609375 0 
L 18.3125 0 
L 43.21875 64.59375 
L 8.203125 64.59375 
z
" id="DejaVuSans-55"/>
       </defs>
       <use xlink:href="#DejaVuSans-55"/>
       <use x="63.623047" xlink:href="#DejaVuSans-53"/>
      </g>
     </g>
    </g>
    <g id="ytick_5">
     <g id="line2d_10">
      <g>
       <use style="stroke:#000000;stroke-width:0.8;" x="57.6" xlink:href="#m91808ee4ff" y="153.241063"/>
      </g>
     </g>
     <g id="text_10">
      <!-- 100 -->
      <g transform="translate(31.5125 157.040282)scale(0.1 -0.1)">
       <use xlink:href="#DejaVuSans-49"/>
       <use x="63.623047" xlink:href="#DejaVuSans-48"/>
       <use x="127.246094" xlink:href="#DejaVuSans-48"/>
      </g>
     </g>
    </g>
    <g id="ytick_6">
     <g id="line2d_11">
      <g>
       <use style="stroke:#000000;stroke-width:0.8;" x="57.6" xlink:href="#m91808ee4ff" y="117.693009"/>
      </g>
     </g>
     <g id="text_11">
      <!-- 125 -->
      <g transform="translate(31.5125 121.492228)scale(0.1 -0.1)">
       <use xlink:href="#DejaVuSans-49"/>
       <use x="63.623047" xlink:href="#DejaVuSans-50"/>
       <use x="127.246094" xlink:href="#DejaVuSans-53"/>
      </g>
     </g>
    </g>
    <g id="ytick_7">
     <g id="line2d_12">
      <g>
       <use style="stroke:#000000;stroke-width:0.8;" x="57.6" xlink:href="#m91808ee4ff" y="82.144955"/>
      </g>
     </g>
     <g id="text_12">
      <!-- 150 -->
      <g transform="translate(31.5125 85.944174)scale(0.1 -0.1)">
       <use xlink:href="#DejaVuSans-49"/>
       <use x="63.623047" xlink:href="#DejaVuSans-53"/>
       <use x="127.246094" xlink:href="#DejaVuSans-48"/>
      </g>
     </g>
    </g>
    <g id="ytick_8">
     <g id="line2d_13">
      <g>
       <use style="stroke:#000000;stroke-width:0.8;" x="57.6" xlink:href="#m91808ee4ff" y="46.596901"/>
      </g>
     </g>
     <g id="text_13">
      <!-- 175 -->
      <g transform="translate(31.5125 50.39612)scale(0.1 -0.1)">
       <use xlink:href="#DejaVuSans-49"/>
       <use x="63.623047" xlink:href="#DejaVuSans-55"/>
       <use x="127.246094" xlink:href="#DejaVuSans-53"/>
      </g>
     </g>
    </g>
   </g>
   <g id="line2d_14">
    <path clip-path="url(#p8857c1a7ba)" d="M 296.253028 295.433279 
L 296.542921 276.726307 
L 296.943143 258.002691 
L 297.267892 254.14038 
L 298.032991 248.217291 
L 299.053123 240.319839 
L 299.340808 236.474811 
L 299.348459 232.760365 
L 298.97724 229.222589 
L 298.618668 227.534355 
L 298.128315 225.907572 
L 297.493826 224.347999 
L 296.701318 222.865328 
L 295.754633 221.460266 
L 294.668009 220.125102 
L 293.455684 218.852126 
L 290.710874 216.461896 
L 287.634102 214.227892 
L 282.645664 211.034875 
L 275.895584 206.748587 
L 272.734456 204.454255 
L 269.867799 201.976884 
L 267.019952 199.355438 
L 254.538822 188.315649 
L 251.81754 185.442965 
L 249.524431 182.535492 
L 248.580407 181.07032 
L 247.793783 179.598384 
L 247.181347 178.120327 
L 246.759883 176.636793 
L 246.546178 175.148427 
L 246.606497 173.650672 
L 246.972488 172.139221 
L 247.609006 170.615092 
L 248.480905 169.079302 
L 249.553043 167.532869 
L 252.157453 164.412147 
L 256.68724 159.67669 
L 259.712528 156.495344 
L 262.414143 153.303998 
L 263.555713 151.70712 
L 264.510932 150.110795 
L 265.244655 148.516042 
L 265.721737 146.923878 
L 265.907035 145.335321 
L 265.85549 143.712027 
L 265.651486 142.022967 
L 265.304043 140.28013 
L 264.822184 138.495506 
L 263.491297 134.848857 
L 261.730992 131.178936 
L 259.613436 127.58166 
L 257.210797 124.152947 
L 254.59524 120.988715 
L 251.838934 118.18488 
L 249.014045 115.837359 
L 247.598434 114.864691 
L 246.10987 114.076167 
L 244.480223 113.493421 
L 242.727094 113.091767 
L 240.868082 112.846517 
L 236.90281 112.726479 
L 232.725211 112.935811 
L 224.296234 113.552588 
L 220.326459 113.565038 
L 218.464351 113.410873 
L 216.707562 113.116864 
L 215.073694 112.658325 
L 213.580345 112.010569 
L 212.245116 111.148908 
L 211.080542 110.073563 
L 210.075511 108.813965 
L 209.212157 107.389241 
L 208.472613 105.81852 
L 207.839011 104.120929 
L 206.818166 100.421645 
L 206.006685 96.444409 
L 204.440071 88.268165 
L 203.399064 84.375196 
L 202.7516 82.544446 
L 201.995674 80.816355 
L 201.113418 79.210052 
L 200.086966 77.744664 
L 198.93484 76.393986 
L 196.368043 73.901469 
L 193.502663 71.646456 
L 190.400477 69.579807 
L 187.123261 67.652383 
L 180.290836 64.01866 
L 173.499596 60.352178 
L 170.273859 58.383806 
L 170.273859 58.383806 
" style="fill:none;stroke:#fea952;stroke-linecap:square;"/>
   </g>
   <g id="line2d_15">
    <path clip-path="url(#p8857c1a7ba)" d="M 290.565602 295.378558 
L 290.856372 276.612473 
L 291.269607 257.601701 
L 291.618961 253.477522 
L 292.400906 247.423927 
L 293.387923 239.814555 
L 293.654755 236.338428 
L 293.676124 233.177995 
L 293.413658 230.404265 
L 292.859936 228.050932 
L 292.477738 227.029167 
L 291.984389 226.043439 
L 291.343256 225.050468 
L 290.549287 224.047591 
L 288.513464 222.021882 
L 285.944404 219.988207 
L 282.952023 217.947906 
L 270.867024 210.166322 
L 267.42739 207.447343 
L 260.234987 200.998393 
L 253.706055 195.33685 
L 250.480475 192.300573 
L 247.448696 189.084806 
L 246.045908 187.388449 
L 244.743232 185.616066 
L 243.564111 183.751099 
L 242.539302 181.775591 
L 241.710163 179.67466 
L 241.129933 177.445163 
L 240.863096 174.91955 
L 241.078564 172.312109 
L 241.724105 169.947355 
L 242.662828 167.807045 
L 243.806698 165.838687 
L 245.101096 163.993099 
L 247.99224 160.53906 
L 252.597318 155.724179 
L 256.701238 151.32099 
L 258.675089 148.786622 
L 259.796304 146.883475 
L 260.072352 146.264902 
L 260.222212 145.515834 
L 260.208838 144.394028 
L 260.073557 143.134952 
L 259.428556 140.300662 
L 258.308657 137.191942 
L 256.771895 133.964103 
L 254.892595 130.753956 
L 252.754395 127.687108 
L 250.450016 124.883187 
L 248.085905 122.458587 
L 245.793075 120.525125 
L 244.194769 119.431743 
L 243.210044 119.037467 
L 241.983191 118.730598 
L 240.537033 118.524563 
L 237.110943 118.410359 
L 233.169513 118.606119 
L 224.441084 119.238432 
L 219.857177 119.233334 
L 217.525541 119.020546 
L 215.170711 118.592984 
L 212.810348 117.876282 
L 210.496331 116.78955 
L 208.386585 115.327609 
L 206.634648 113.620932 
L 205.211239 111.761617 
L 204.066312 109.812066 
L 203.14398 107.807357 
L 202.394463 105.766134 
L 201.258033 101.619447 
L 200.038428 95.414537 
L 198.915352 89.619937 
L 198.036839 86.271601 
L 197.010445 83.554473 
L 196.454899 82.47318 
L 195.759701 81.435812 
L 193.850521 79.308778 
L 191.553668 77.295595 
L 188.903428 75.378161 
L 185.951861 73.536545 
L 181.093372 70.85323 
L 170.600376 65.245472 
L 167.247671 63.199612 
L 167.247671 63.199612 
" style="fill:none;stroke:#ffffff;stroke-linecap:square;"/>
   </g>
   <g id="line2d_16">
    <path clip-path="url(#p8857c1a7ba)" d="M 301.940453 295.488 
L 302.229471 276.840141 
L 302.739697 256.634905 
L 303.39095 250.983905 
L 304.718322 240.825124 
L 305.026861 236.611194 
L 305.020794 232.342736 
L 304.851339 230.193787 
L 304.540822 228.040914 
L 304.064345 225.892893 
L 303.396693 223.764211 
L 302.509914 221.666831 
L 301.418246 219.687217 
L 300.166011 217.870064 
L 298.786732 216.202612 
L 297.307616 214.667342 
L 294.132506 211.918523 
L 290.774607 209.485843 
L 285.633913 206.195436 
L 279.15913 202.090361 
L 276.341972 200.057025 
L 273.764649 197.833894 
L 270.766363 195.075929 
L 258.597169 184.330724 
L 256.186384 181.801124 
L 254.305631 179.454918 
L 253.048264 177.421177 
L 252.389833 175.828424 
L 252.134431 174.989236 
L 252.220871 174.331087 
L 252.555183 173.423139 
L 253.155113 172.319917 
L 254.00499 171.072639 
L 256.322666 168.285234 
L 260.777163 163.6292 
L 263.975321 160.260765 
L 267.041114 156.611708 
L 268.436337 154.627618 
L 269.677975 152.488077 
L 270.693006 150.148608 
L 271.371123 147.582853 
L 271.591859 145.154807 
L 271.502142 143.030025 
L 271.229415 140.910981 
L 270.795095 138.797512 
L 270.215811 136.690351 
L 269.504984 134.5918 
L 267.732627 130.437599 
L 265.554694 126.381667 
L 263.036177 122.48543 
L 260.233508 118.818608 
L 257.192344 115.455191 
L 255.591962 113.911172 
L 253.940143 112.472309 
L 252.235015 111.149593 
L 250.260849 109.838624 
L 248.024971 108.720591 
L 245.750403 107.949376 
L 243.470997 107.452937 
L 241.19913 107.168471 
L 238.939119 107.045324 
L 234.47204 107.126015 
L 220.795742 107.896742 
L 218.244414 107.640744 
L 216.664358 107.231588 
L 216.103647 106.970207 
L 215.526436 106.526193 
L 214.939784 105.866312 
L 214.358003 104.966417 
L 213.801246 103.829683 
L 212.810095 100.931108 
L 211.979899 97.380801 
L 209.964789 86.916393 
L 208.761288 82.478791 
L 207.962543 80.265 
L 206.980903 78.078237 
L 205.771937 75.946925 
L 204.414231 74.053515 
L 203.014915 72.431311 
L 201.53473 70.92116 
L 198.383962 68.199096 
L 195.051193 65.807153 
L 191.607912 63.666981 
L 186.372205 60.776865 
L 176.398816 55.458884 
L 173.300047 53.568 
L 173.300047 53.568 
" style="fill:none;stroke:#ffffff;stroke-linecap:square;"/>
   </g>
   <g id="patch_3">
    <path d="M 57.6 307.584 
L 57.6 41.472 
" style="fill:none;stroke:#000000;stroke-linecap:square;stroke-linejoin:miter;stroke-width:0.8;"/>
   </g>
   <g id="patch_4">
    <path d="M 414.72 307.584 
L 414.72 41.472 
" style="fill:none;stroke:#000000;stroke-linecap:square;stroke-linejoin:miter;stroke-width:0.8;"/>
   </g>
   <g id="patch_5">
    <path d="M 57.6 307.584 
L 414.72 307.584 
" style="fill:none;stroke:#000000;stroke-linecap:square;stroke-linejoin:miter;stroke-width:0.8;"/>
   </g>
   <g id="patch_6">
    <path d="M 57.6 41.472 
L 414.72 41.472 
" style="fill:none;stroke:#000000;stroke-linecap:square;stroke-linejoin:miter;stroke-width:0.8;"/>
   </g>
  </g>
 </g>
 <defs>
  <clipPath id="p8857c1a7ba">
   <rect height="266.112" width="357.12" x="57.6" y="41.472"/>
  </clipPath>
 </defs>
</svg>
