<?xml version="1.0" encoding="utf-8" standalone="no"?>
<!DOCTYPE svg PUBLIC "-//W3C//DTD SVG 1.1//EN"
  "http://www.w3.org/Graphics/SVG/1.1/DTD/svg11.dtd">
<!-- Created with matplotlib (https://matplotlib.org/) -->
<svg height="345.6pt" version="1.1" viewBox="0 0 460.8 345.6" width="460.8pt" xmlns="http://www.w3.org/2000/svg" xmlns:xlink="http://www.w3.org/1999/xlink">
 <metadata>
  <rdf:RDF xmlns:cc="http://creativecommons.org/ns#" xmlns:dc="http://purl.org/dc/elements/1.1/" xmlns:rdf="http://www.w3.org/1999/02/22-rdf-syntax-ns#">
   <cc:Work>
    <dc:type rdf:resource="http://purl.org/dc/dcmitype/StillImage"/>
    <dc:date>2021-06-14T10:09:02.329090</dc:date>
    <dc:format>image/svg+xml</dc:format>
    <dc:creator>
     <cc:Agent>
      <dc:title>Matplotlib v3.3.3, https://matplotlib.org/</dc:title>
     </cc:Agent>
    </dc:creator>
   </cc:Work>
  </rdf:RDF>
 </metadata>
 <defs>
  <style type="text/css">*{stroke-linecap:butt;stroke-linejoin:round;}</style>
 </defs>
 <g id="figure_1">
  <g id="patch_1">
   <path d="M 0 345.6 
L 460.8 345.6 
L 460.8 0 
L 0 0 
z
" style="fill:#ffffff;"/>
  </g>
  <g id="axes_1">
   <g id="patch_2">
    <path d="M 57.6 307.584 
L 414.72 307.584 
L 414.72 41.472 
L 57.6 41.472 
z
" style="fill:#7d9051;"/>
   </g>
   <g id="matplotlib.axis_1">
    <g id="xtick_1">
     <g id="line2d_1">
      <defs>
       <path d="M 0 0 
L 0 3.5 
" id="ma93d77870a" style="stroke:#000000;stroke-width:0.8;"/>
      </defs>
      <g>
       <use style="stroke:#000000;stroke-width:0.8;" x="95.253005" xlink:href="#ma93d77870a" y="307.584"/>
      </g>
     </g>
     <g id="text_1">
      <!-- −120 -->
      <g transform="translate(81.519411 322.182437)scale(0.1 -0.1)">
       <defs>
        <path d="M 10.59375 35.5 
L 73.1875 35.5 
L 73.1875 27.203125 
L 10.59375 27.203125 
z
" id="DejaVuSans-8722"/>
        <path d="M 12.40625 8.296875 
L 28.515625 8.296875 
L 28.515625 63.921875 
L 10.984375 60.40625 
L 10.984375 69.390625 
L 28.421875 72.90625 
L 38.28125 72.90625 
L 38.28125 8.296875 
L 54.390625 8.296875 
L 54.390625 0 
L 12.40625 0 
z
" id="DejaVuSans-49"/>
        <path d="M 19.1875 8.296875 
L 53.609375 8.296875 
L 53.609375 0 
L 7.328125 0 
L 7.328125 8.296875 
Q 12.9375 14.109375 22.625 23.890625 
Q 32.328125 33.6875 34.8125 36.53125 
Q 39.546875 41.84375 41.421875 45.53125 
Q 43.3125 49.21875 43.3125 52.78125 
Q 43.3125 58.59375 39.234375 62.25 
Q 35.15625 65.921875 28.609375 65.921875 
Q 23.96875 65.921875 18.8125 64.3125 
Q 13.671875 62.703125 7.8125 59.421875 
L 7.8125 69.390625 
Q 13.765625 71.78125 18.9375 73 
Q 24.125 74.21875 28.421875 74.21875 
Q 39.75 74.21875 46.484375 68.546875 
Q 53.21875 62.890625 53.21875 53.421875 
Q 53.21875 48.921875 51.53125 44.890625 
Q 49.859375 40.875 45.40625 35.40625 
Q 44.1875 33.984375 37.640625 27.21875 
Q 31.109375 20.453125 19.1875 8.296875 
z
" id="DejaVuSans-50"/>
        <path d="M 31.78125 66.40625 
Q 24.171875 66.40625 20.328125 58.90625 
Q 16.5 51.421875 16.5 36.375 
Q 16.5 21.390625 20.328125 13.890625 
Q 24.171875 6.390625 31.78125 6.390625 
Q 39.453125 6.390625 43.28125 13.890625 
Q 47.125 21.390625 47.125 36.375 
Q 47.125 51.421875 43.28125 58.90625 
Q 39.453125 66.40625 31.78125 66.40625 
z
M 31.78125 74.21875 
Q 44.046875 74.21875 50.515625 64.515625 
Q 56.984375 54.828125 56.984375 36.375 
Q 56.984375 17.96875 50.515625 8.265625 
Q 44.046875 -1.421875 31.78125 -1.421875 
Q 19.53125 -1.421875 13.0625 8.265625 
Q 6.59375 17.96875 6.59375 36.375 
Q 6.59375 54.828125 13.0625 64.515625 
Q 19.53125 74.21875 31.78125 74.21875 
z
" id="DejaVuSans-48"/>
       </defs>
       <use xlink:href="#DejaVuSans-8722"/>
       <use x="83.789062" xlink:href="#DejaVuSans-49"/>
       <use x="147.412109" xlink:href="#DejaVuSans-50"/>
       <use x="211.035156" xlink:href="#DejaVuSans-48"/>
      </g>
     </g>
    </g>
    <g id="xtick_2">
     <g id="line2d_2">
      <g>
       <use style="stroke:#000000;stroke-width:0.8;" x="143.472153" xlink:href="#ma93d77870a" y="307.584"/>
      </g>
     </g>
     <g id="text_2">
      <!-- −100 -->
      <g transform="translate(129.738559 322.182437)scale(0.1 -0.1)">
       <use xlink:href="#DejaVuSans-8722"/>
       <use x="83.789062" xlink:href="#DejaVuSans-49"/>
       <use x="147.412109" xlink:href="#DejaVuSans-48"/>
       <use x="211.035156" xlink:href="#DejaVuSans-48"/>
      </g>
     </g>
    </g>
    <g id="xtick_3">
     <g id="line2d_3">
      <g>
       <use style="stroke:#000000;stroke-width:0.8;" x="191.691301" xlink:href="#ma93d77870a" y="307.584"/>
      </g>
     </g>
     <g id="text_3">
      <!-- −80 -->
      <g transform="translate(181.138957 322.182437)scale(0.1 -0.1)">
       <defs>
        <path d="M 31.78125 34.625 
Q 24.75 34.625 20.71875 30.859375 
Q 16.703125 27.09375 16.703125 20.515625 
Q 16.703125 13.921875 20.71875 10.15625 
Q 24.75 6.390625 31.78125 6.390625 
Q 38.8125 6.390625 42.859375 10.171875 
Q 46.921875 13.96875 46.921875 20.515625 
Q 46.921875 27.09375 42.890625 30.859375 
Q 38.875 34.625 31.78125 34.625 
z
M 21.921875 38.8125 
Q 15.578125 40.375 12.03125 44.71875 
Q 8.5 49.078125 8.5 55.328125 
Q 8.5 64.0625 14.71875 69.140625 
Q 20.953125 74.21875 31.78125 74.21875 
Q 42.671875 74.21875 48.875 69.140625 
Q 55.078125 64.0625 55.078125 55.328125 
Q 55.078125 49.078125 51.53125 44.71875 
Q 48 40.375 41.703125 38.8125 
Q 48.828125 37.15625 52.796875 32.3125 
Q 56.78125 27.484375 56.78125 20.515625 
Q 56.78125 9.90625 50.3125 4.234375 
Q 43.84375 -1.421875 31.78125 -1.421875 
Q 19.734375 -1.421875 13.25 4.234375 
Q 6.78125 9.90625 6.78125 20.515625 
Q 6.78125 27.484375 10.78125 32.3125 
Q 14.796875 37.15625 21.921875 38.8125 
z
M 18.3125 54.390625 
Q 18.3125 48.734375 21.84375 45.5625 
Q 25.390625 42.390625 31.78125 42.390625 
Q 38.140625 42.390625 41.71875 45.5625 
Q 45.3125 48.734375 45.3125 54.390625 
Q 45.3125 60.0625 41.71875 63.234375 
Q 38.140625 66.40625 31.78125 66.40625 
Q 25.390625 66.40625 21.84375 63.234375 
Q 18.3125 60.0625 18.3125 54.390625 
z
" id="DejaVuSans-56"/>
       </defs>
       <use xlink:href="#DejaVuSans-8722"/>
       <use x="83.789062" xlink:href="#DejaVuSans-56"/>
       <use x="147.412109" xlink:href="#DejaVuSans-48"/>
      </g>
     </g>
    </g>
    <g id="xtick_4">
     <g id="line2d_4">
      <g>
       <use style="stroke:#000000;stroke-width:0.8;" x="239.910449" xlink:href="#ma93d77870a" y="307.584"/>
      </g>
     </g>
     <g id="text_4">
      <!-- −60 -->
      <g transform="translate(229.358105 322.182437)scale(0.1 -0.1)">
       <defs>
        <path d="M 33.015625 40.375 
Q 26.375 40.375 22.484375 35.828125 
Q 18.609375 31.296875 18.609375 23.390625 
Q 18.609375 15.53125 22.484375 10.953125 
Q 26.375 6.390625 33.015625 6.390625 
Q 39.65625 6.390625 43.53125 10.953125 
Q 47.40625 15.53125 47.40625 23.390625 
Q 47.40625 31.296875 43.53125 35.828125 
Q 39.65625 40.375 33.015625 40.375 
z
M 52.59375 71.296875 
L 52.59375 62.3125 
Q 48.875 64.0625 45.09375 64.984375 
Q 41.3125 65.921875 37.59375 65.921875 
Q 27.828125 65.921875 22.671875 59.328125 
Q 17.53125 52.734375 16.796875 39.40625 
Q 19.671875 43.65625 24.015625 45.921875 
Q 28.375 48.1875 33.59375 48.1875 
Q 44.578125 48.1875 50.953125 41.515625 
Q 57.328125 34.859375 57.328125 23.390625 
Q 57.328125 12.15625 50.6875 5.359375 
Q 44.046875 -1.421875 33.015625 -1.421875 
Q 20.359375 -1.421875 13.671875 8.265625 
Q 6.984375 17.96875 6.984375 36.375 
Q 6.984375 53.65625 15.1875 63.9375 
Q 23.390625 74.21875 37.203125 74.21875 
Q 40.921875 74.21875 44.703125 73.484375 
Q 48.484375 72.75 52.59375 71.296875 
z
" id="DejaVuSans-54"/>
       </defs>
       <use xlink:href="#DejaVuSans-8722"/>
       <use x="83.789062" xlink:href="#DejaVuSans-54"/>
       <use x="147.412109" xlink:href="#DejaVuSans-48"/>
      </g>
     </g>
    </g>
    <g id="xtick_5">
     <g id="line2d_5">
      <g>
       <use style="stroke:#000000;stroke-width:0.8;" x="288.129597" xlink:href="#ma93d77870a" y="307.584"/>
      </g>
     </g>
     <g id="text_5">
      <!-- −40 -->
      <g transform="translate(277.577253 322.182437)scale(0.1 -0.1)">
       <defs>
        <path d="M 37.796875 64.3125 
L 12.890625 25.390625 
L 37.796875 25.390625 
z
M 35.203125 72.90625 
L 47.609375 72.90625 
L 47.609375 25.390625 
L 58.015625 25.390625 
L 58.015625 17.1875 
L 47.609375 17.1875 
L 47.609375 0 
L 37.796875 0 
L 37.796875 17.1875 
L 4.890625 17.1875 
L 4.890625 26.703125 
z
" id="DejaVuSans-52"/>
       </defs>
       <use xlink:href="#DejaVuSans-8722"/>
       <use x="83.789062" xlink:href="#DejaVuSans-52"/>
       <use x="147.412109" xlink:href="#DejaVuSans-48"/>
      </g>
     </g>
    </g>
    <g id="xtick_6">
     <g id="line2d_6">
      <g>
       <use style="stroke:#000000;stroke-width:0.8;" x="336.348745" xlink:href="#ma93d77870a" y="307.584"/>
      </g>
     </g>
     <g id="text_6">
      <!-- −20 -->
      <g transform="translate(325.796401 322.182437)scale(0.1 -0.1)">
       <use xlink:href="#DejaVuSans-8722"/>
       <use x="83.789062" xlink:href="#DejaVuSans-50"/>
       <use x="147.412109" xlink:href="#DejaVuSans-48"/>
      </g>
     </g>
    </g>
    <g id="xtick_7">
     <g id="line2d_7">
      <g>
       <use style="stroke:#000000;stroke-width:0.8;" x="384.567893" xlink:href="#ma93d77870a" y="307.584"/>
      </g>
     </g>
     <g id="text_7">
      <!-- 0 -->
      <g transform="translate(381.386643 322.182437)scale(0.1 -0.1)">
       <use xlink:href="#DejaVuSans-48"/>
      </g>
     </g>
    </g>
   </g>
   <g id="matplotlib.axis_2">
    <g id="ytick_1">
     <g id="line2d_8">
      <defs>
       <path d="M 0 0 
L -3.5 0 
" id="m79b1cad009" style="stroke:#000000;stroke-width:0.8;"/>
      </defs>
      <g>
       <use style="stroke:#000000;stroke-width:0.8;" x="57.6" xlink:href="#m79b1cad009" y="283.855194"/>
      </g>
     </g>
     <g id="text_8">
      <!-- 0 -->
      <g transform="translate(44.2375 287.654413)scale(0.1 -0.1)">
       <use xlink:href="#DejaVuSans-48"/>
      </g>
     </g>
    </g>
    <g id="ytick_2">
     <g id="line2d_9">
      <g>
       <use style="stroke:#000000;stroke-width:0.8;" x="57.6" xlink:href="#m79b1cad009" y="235.636046"/>
      </g>
     </g>
     <g id="text_9">
      <!-- 20 -->
      <g transform="translate(37.875 239.435265)scale(0.1 -0.1)">
       <use xlink:href="#DejaVuSans-50"/>
       <use x="63.623047" xlink:href="#DejaVuSans-48"/>
      </g>
     </g>
    </g>
    <g id="ytick_3">
     <g id="line2d_10">
      <g>
       <use style="stroke:#000000;stroke-width:0.8;" x="57.6" xlink:href="#m79b1cad009" y="187.416898"/>
      </g>
     </g>
     <g id="text_10">
      <!-- 40 -->
      <g transform="translate(37.875 191.216117)scale(0.1 -0.1)">
       <use xlink:href="#DejaVuSans-52"/>
       <use x="63.623047" xlink:href="#DejaVuSans-48"/>
      </g>
     </g>
    </g>
    <g id="ytick_4">
     <g id="line2d_11">
      <g>
       <use style="stroke:#000000;stroke-width:0.8;" x="57.6" xlink:href="#m79b1cad009" y="139.19775"/>
      </g>
     </g>
     <g id="text_11">
      <!-- 60 -->
      <g transform="translate(37.875 142.996969)scale(0.1 -0.1)">
       <use xlink:href="#DejaVuSans-54"/>
       <use x="63.623047" xlink:href="#DejaVuSans-48"/>
      </g>
     </g>
    </g>
    <g id="ytick_5">
     <g id="line2d_12">
      <g>
       <use style="stroke:#000000;stroke-width:0.8;" x="57.6" xlink:href="#m79b1cad009" y="90.978602"/>
      </g>
     </g>
     <g id="text_12">
      <!-- 80 -->
      <g transform="translate(37.875 94.777821)scale(0.1 -0.1)">
       <use xlink:href="#DejaVuSans-56"/>
       <use x="63.623047" xlink:href="#DejaVuSans-48"/>
      </g>
     </g>
    </g>
    <g id="ytick_6">
     <g id="line2d_13">
      <g>
       <use style="stroke:#000000;stroke-width:0.8;" x="57.6" xlink:href="#m79b1cad009" y="42.759454"/>
      </g>
     </g>
     <g id="text_13">
      <!-- 100 -->
      <g transform="translate(31.5125 46.558673)scale(0.1 -0.1)">
       <use xlink:href="#DejaVuSans-49"/>
       <use x="63.623047" xlink:href="#DejaVuSans-48"/>
       <use x="127.246094" xlink:href="#DejaVuSans-48"/>
      </g>
     </g>
    </g>
   </g>
   <g id="line2d_14">
    <path clip-path="url(#p7bb7751500)" d="M 384.567893 283.855194 
L 384.878149 261.651715 
L 385.719638 220.405863 
L 386.14155 213.972974 
L 387.107829 204.228037 
L 388.118563 194.470353 
L 388.619506 188.014802 
L 388.843841 181.638567 
L 388.815236 178.490816 
L 388.673023 175.375641 
L 388.402386 172.297291 
L 387.988506 169.260016 
L 387.416565 166.268064 
L 386.671744 163.325684 
L 384.77862 157.370772 
L 382.45959 151.253746 
L 379.737967 145.099109 
L 376.637063 139.031364 
L 373.180191 133.175015 
L 371.325551 130.365022 
L 369.390661 127.654565 
L 367.378435 125.05921 
L 365.291787 122.594517 
L 363.133631 120.276052 
L 360.906881 118.119375 
L 358.61445 116.14005 
L 356.259254 114.35364 
L 353.844206 112.775709 
L 351.314335 111.465559 
L 348.623434 110.450871 
L 345.787559 109.699773 
L 342.822767 109.180393 
L 339.745115 108.860857 
L 336.57066 108.709294 
L 329.995571 108.782595 
L 309.616964 109.719099 
L 306.293849 109.645026 
L 303.034501 109.420201 
L 299.854978 109.012752 
L 296.771335 108.390805 
L 293.799631 107.522489 
L 290.908217 106.35103 
L 288.053446 104.870045 
L 285.23338 103.12325 
L 282.446079 101.154357 
L 279.689604 99.007082 
L 274.261375 94.352239 
L 263.689497 84.825382 
L 261.094502 82.653423 
L 258.514819 80.652794 
L 255.948508 78.86721 
L 253.393629 77.340384 
L 250.848244 76.116031 
L 248.310413 75.237866 
L 245.778197 74.749601 
L 243.249656 74.694951 
L 240.685905 75.040266 
L 238.059 75.707563 
L 235.383411 76.674059 
L 232.673606 77.916972 
L 229.944057 79.413518 
L 227.209234 81.140914 
L 224.483605 83.076377 
L 221.781641 85.197126 
L 219.117813 87.480375 
L 216.506589 89.903344 
L 213.96244 92.443247 
L 211.499836 95.077304 
L 209.133247 97.782731 
L 206.877143 100.536744 
L 204.745993 103.316561 
L 202.754268 106.099399 
L 200.916437 108.862476 
L 199.246971 111.583007 
L 197.760339 114.238211 
L 196.541689 116.976719 
L 195.640097 119.941137 
L 195.015925 123.09964 
L 194.629538 126.420406 
L 194.441297 129.871608 
L 194.411567 133.421424 
L 194.669092 140.689599 
L 195.253287 151.53586 
L 195.342247 155.009049 
L 195.312261 158.358083 
L 195.12369 161.551138 
L 194.736899 164.556388 
L 194.112251 167.342012 
L 193.210109 169.876183 
L 191.990835 172.127078 
L 190.414795 174.062873 
L 188.494905 175.739336 
L 186.288191 177.237559 
L 183.821175 178.563705 
L 181.12038 179.723937 
L 178.212328 180.724418 
L 175.123542 181.57131 
L 171.880543 182.270776 
L 168.509854 182.82898 
L 165.037998 183.252083 
L 161.491496 183.546248 
L 157.896871 183.71764 
L 150.669343 183.716749 
L 143.567591 183.298714 
L 136.803794 182.512836 
L 130.590132 181.408418 
L 127.678206 180.681249 
L 124.807918 179.758189 
L 121.975699 178.65603 
L 119.17798 177.391562 
L 116.411191 175.981575 
L 110.956131 172.792208 
L 105.581967 169.222254 
L 97.609946 163.447557 
L 86.997238 155.669606 
L 81.633781 152.04928 
L 78.925286 150.365046 
L 78.925286 150.365046 
" style="fill:none;stroke:#fea952;stroke-linecap:square;"/>
   </g>
   <g id="line2d_15">
    <path clip-path="url(#p7bb7751500)" d="M 374.92451 283.762412 
L 375.235955 261.474084 
L 376.090768 219.868914 
L 376.536774 213.105955 
L 377.519753 203.192542 
L 378.775478 190.567594 
L 379.132183 184.601595 
L 379.18144 178.930613 
L 378.846865 173.599393 
L 378.516193 171.070743 
L 378.067614 168.634616 
L 377.44072 166.117037 
L 375.715494 160.66671 
L 373.586955 155.032608 
L 371.087741 149.362562 
L 368.25488 143.800269 
L 365.131417 138.487331 
L 361.769207 133.563616 
L 360.018146 131.290549 
L 358.232895 129.165324 
L 356.424283 127.203396 
L 354.604397 125.418837 
L 352.786453 123.823662 
L 349.409348 121.339323 
L 347.911704 120.48917 
L 346.154344 119.773266 
L 344.123467 119.198945 
L 341.826854 118.772661 
L 339.285197 118.493714 
L 336.524849 118.353015 
L 330.456317 118.415412 
L 320.335017 118.984965 
L 313.11597 119.317269 
L 309.402055 119.360534 
L 305.63021 119.265995 
L 301.808688 118.985808 
L 297.948288 118.466216 
L 294.066559 117.647567 
L 290.178349 116.460597 
L 286.467264 114.911485 
L 282.975185 113.068504 
L 279.669331 111.000103 
L 276.51958 108.762252 
L 273.501457 106.403722 
L 267.792189 101.504377 
L 257.499765 92.220696 
L 253.006897 88.568995 
L 251.001343 87.145435 
L 249.21332 86.031096 
L 246.484513 84.707266 
L 245.569813 84.391179 
L 244.536971 84.252476 
L 243.060261 84.387238 
L 241.335407 84.777768 
L 239.404014 85.4398 
L 237.309951 86.373198 
L 235.094091 87.567082 
L 232.79277 89.003965 
L 230.43791 90.662529 
L 228.057712 92.51931 
L 225.677438 94.549658 
L 223.32011 96.728252 
L 221.007072 99.029339 
L 216.593413 103.894144 
L 212.588187 108.929354 
L 209.136026 113.906463 
L 206.571148 118.159065 
L 205.768228 119.782861 
L 205.100962 121.810758 
L 204.595129 124.214229 
L 204.259054 126.945633 
L 204.084789 129.952373 
L 204.052469 133.183791 
L 204.297343 140.141679 
L 204.893955 151.288929 
L 204.98569 155.095395 
L 204.939317 158.926623 
L 204.688624 162.782193 
L 204.147043 166.666519 
L 203.197559 170.5763 
L 201.68979 174.469488 
L 199.469479 178.215867 
L 196.757924 181.327042 
L 193.911934 183.71801 
L 190.85433 185.7319 
L 187.627682 187.424515 
L 184.257744 188.84317 
L 180.762385 190.024991 
L 177.156815 190.998359 
L 173.456151 191.785024 
L 169.676483 192.401985 
L 165.835171 192.862908 
L 161.95079 193.179135 
L 158.042941 193.360363 
L 154.132 193.415103 
L 150.238865 193.350966 
L 142.590587 192.892926 
L 135.264865 192.033085 
L 131.771842 191.463432 
L 128.253617 190.764921 
L 124.725753 189.862015 
L 121.310507 188.74549 
L 118.003864 187.443975 
L 114.799186 185.983978 
L 111.688355 184.389801 
L 108.662672 182.68376 
L 102.832606 179.017545 
L 97.246474 175.137592 
L 79.013644 161.873629 
L 73.832727 158.554631 
L 73.832727 158.554631 
" style="fill:none;stroke:#ffffff;stroke-linecap:square;"/>
   </g>
   <g id="line2d_16">
    <path clip-path="url(#p7bb7751500)" d="M 394.211277 283.947977 
L 394.520343 261.829346 
L 395.348508 220.942812 
L 395.746326 214.839993 
L 396.695905 205.263531 
L 397.727083 195.294843 
L 398.252166 188.478811 
L 398.487273 181.550931 
L 398.449032 178.05102 
L 398.279798 174.531049 
L 397.957907 170.99519 
L 397.460819 167.449289 
L 396.765515 163.901511 
L 395.902767 160.534332 
L 393.841745 154.074833 
L 391.332225 147.474883 
L 388.388194 140.835656 
L 385.019247 134.26246 
L 383.176852 131.034128 
L 381.228964 127.8627 
L 379.174633 124.761865 
L 377.012116 121.745515 
L 374.738725 118.82787 
L 372.350679 116.023711 
L 369.842979 113.348707 
L 367.209365 110.819913 
L 364.442448 108.456438 
L 361.534168 106.280306 
L 358.279064 104.212095 
L 354.716967 102.441948 
L 351.092524 101.128476 
L 347.45165 100.200602 
L 343.818679 99.588125 
L 340.205032 99.228001 
L 336.616471 99.065573 
L 329.534826 99.149778 
L 309.831872 100.077664 
L 306.957489 100.024058 
L 304.260314 99.854595 
L 301.761668 99.559288 
L 299.476112 99.134044 
L 297.420914 98.584382 
L 295.349169 97.790575 
L 293.131707 96.671587 
L 290.797429 95.246397 
L 288.372578 93.546463 
L 285.877752 91.610442 
L 280.730561 87.200101 
L 269.879229 77.430068 
L 267.004575 75.032761 
L 264.022742 72.736593 
L 260.895673 70.588985 
L 257.573939 68.649673 
L 254.001835 67.002398 
L 250.136313 65.768465 
L 245.986581 65.108023 
L 241.96234 65.137427 
L 238.31155 65.693294 
L 234.782594 66.637359 
L 231.362808 67.908319 
L 228.037262 69.460746 
L 224.794024 71.259954 
L 221.625697 73.277863 
L 218.529299 75.490226 
L 215.505571 77.874941 
L 212.558187 80.411092 
L 209.693067 83.078435 
L 206.917808 85.857156 
L 204.241239 88.727799 
L 201.673081 91.671317 
L 199.22368 94.669209 
L 196.903799 97.703768 
L 194.72446 100.758459 
L 192.696848 103.818489 
L 190.83229 106.871681 
L 188.949531 110.317356 
L 187.315151 114.170577 
L 186.179232 118.071516 
L 185.436722 121.985052 
L 185.000021 125.895179 
L 184.797806 129.790843 
L 184.770666 133.659057 
L 185.04084 141.23752 
L 185.612619 151.78279 
L 185.685204 157.789544 
L 185.558757 160.320082 
L 185.326756 162.446257 
L 184.730427 165.282877 
L 184.512192 166.038289 
L 184.071665 166.798704 
L 183.077875 167.760662 
L 181.722051 168.743219 
L 180.014668 169.702895 
L 177.983017 170.604705 
L 175.662271 171.423845 
L 173.090268 172.144261 
L 170.304935 172.756529 
L 167.343225 173.255975 
L 164.240825 173.641257 
L 161.032201 173.913362 
L 154.429292 174.129735 
L 147.79428 173.938752 
L 141.383053 173.386573 
L 135.458029 172.531294 
L 132.926648 172.051915 
L 130.63066 171.500483 
L 128.305329 170.770889 
L 125.947534 169.868085 
L 123.556773 168.799145 
L 121.134027 167.573349 
L 116.198774 164.69788 
L 111.151427 161.349226 
L 103.365912 155.709838 
L 92.477199 147.734023 
L 86.72634 143.859695 
L 84.017845 142.175462 
L 84.017845 142.175462 
" style="fill:none;stroke:#ffffff;stroke-linecap:square;"/>
   </g>
   <g id="patch_3">
    <path d="M 57.6 307.584 
L 57.6 41.472 
" style="fill:none;stroke:#000000;stroke-linecap:square;stroke-linejoin:miter;stroke-width:0.8;"/>
   </g>
   <g id="patch_4">
    <path d="M 414.72 307.584 
L 414.72 41.472 
" style="fill:none;stroke:#000000;stroke-linecap:square;stroke-linejoin:miter;stroke-width:0.8;"/>
   </g>
   <g id="patch_5">
    <path d="M 57.6 307.584 
L 414.72 307.584 
" style="fill:none;stroke:#000000;stroke-linecap:square;stroke-linejoin:miter;stroke-width:0.8;"/>
   </g>
   <g id="patch_6">
    <path d="M 57.6 41.472 
L 414.72 41.472 
" style="fill:none;stroke:#000000;stroke-linecap:square;stroke-linejoin:miter;stroke-width:0.8;"/>
   </g>
  </g>
 </g>
 <defs>
  <clipPath id="p7bb7751500">
   <rect height="266.112" width="357.12" x="57.6" y="41.472"/>
  </clipPath>
 </defs>
</svg>
