<?xml version="1.0" encoding="utf-8" standalone="no"?>
<!DOCTYPE svg PUBLIC "-//W3C//DTD SVG 1.1//EN"
  "http://www.w3.org/Graphics/SVG/1.1/DTD/svg11.dtd">
<!-- Created with matplotlib (https://matplotlib.org/) -->
<svg height="345.6pt" version="1.1" viewBox="0 0 460.8 345.6" width="460.8pt" xmlns="http://www.w3.org/2000/svg" xmlns:xlink="http://www.w3.org/1999/xlink">
 <metadata>
  <rdf:RDF xmlns:cc="http://creativecommons.org/ns#" xmlns:dc="http://purl.org/dc/elements/1.1/" xmlns:rdf="http://www.w3.org/1999/02/22-rdf-syntax-ns#">
   <cc:Work>
    <dc:type rdf:resource="http://purl.org/dc/dcmitype/StillImage"/>
    <dc:date>2021-06-14T08:18:52.505009</dc:date>
    <dc:format>image/svg+xml</dc:format>
    <dc:creator>
     <cc:Agent>
      <dc:title>Matplotlib v3.3.3, https://matplotlib.org/</dc:title>
     </cc:Agent>
    </dc:creator>
   </cc:Work>
  </rdf:RDF>
 </metadata>
 <defs>
  <style type="text/css">*{stroke-linecap:butt;stroke-linejoin:round;}</style>
 </defs>
 <g id="figure_1">
  <g id="patch_1">
   <path d="M 0 345.6 
L 460.8 345.6 
L 460.8 0 
L 0 0 
z
" style="fill:#ffffff;"/>
  </g>
  <g id="axes_1">
   <g id="patch_2">
    <path d="M 57.6 307.584 
L 414.72 307.584 
L 414.72 41.472 
L 57.6 41.472 
z
" style="fill:#7d9051;"/>
   </g>
   <g id="matplotlib.axis_1">
    <g id="xtick_1">
     <g id="line2d_1">
      <defs>
       <path d="M 0 0 
L 0 3.5 
" id="m753d778910" style="stroke:#000000;stroke-width:0.8;"/>
      </defs>
      <g>
       <use style="stroke:#000000;stroke-width:0.8;" x="85.315519" xlink:href="#m753d778910" y="307.584"/>
      </g>
     </g>
     <g id="text_1">
      <!-- −25 -->
      <g transform="translate(74.763175 322.182437)scale(0.1 -0.1)">
       <defs>
        <path d="M 10.59375 35.5 
L 73.1875 35.5 
L 73.1875 27.203125 
L 10.59375 27.203125 
z
" id="DejaVuSans-8722"/>
        <path d="M 19.1875 8.296875 
L 53.609375 8.296875 
L 53.609375 0 
L 7.328125 0 
L 7.328125 8.296875 
Q 12.9375 14.109375 22.625 23.890625 
Q 32.328125 33.6875 34.8125 36.53125 
Q 39.546875 41.84375 41.421875 45.53125 
Q 43.3125 49.21875 43.3125 52.78125 
Q 43.3125 58.59375 39.234375 62.25 
Q 35.15625 65.921875 28.609375 65.921875 
Q 23.96875 65.921875 18.8125 64.3125 
Q 13.671875 62.703125 7.8125 59.421875 
L 7.8125 69.390625 
Q 13.765625 71.78125 18.9375 73 
Q 24.125 74.21875 28.421875 74.21875 
Q 39.75 74.21875 46.484375 68.546875 
Q 53.21875 62.890625 53.21875 53.421875 
Q 53.21875 48.921875 51.53125 44.890625 
Q 49.859375 40.875 45.40625 35.40625 
Q 44.1875 33.984375 37.640625 27.21875 
Q 31.109375 20.453125 19.1875 8.296875 
z
" id="DejaVuSans-50"/>
        <path d="M 10.796875 72.90625 
L 49.515625 72.90625 
L 49.515625 64.59375 
L 19.828125 64.59375 
L 19.828125 46.734375 
Q 21.96875 47.46875 24.109375 47.828125 
Q 26.265625 48.1875 28.421875 48.1875 
Q 40.625 48.1875 47.75 41.5 
Q 54.890625 34.8125 54.890625 23.390625 
Q 54.890625 11.625 47.5625 5.09375 
Q 40.234375 -1.421875 26.90625 -1.421875 
Q 22.3125 -1.421875 17.546875 -0.640625 
Q 12.796875 0.140625 7.71875 1.703125 
L 7.71875 11.625 
Q 12.109375 9.234375 16.796875 8.0625 
Q 21.484375 6.890625 26.703125 6.890625 
Q 35.15625 6.890625 40.078125 11.328125 
Q 45.015625 15.765625 45.015625 23.390625 
Q 45.015625 31 40.078125 35.4375 
Q 35.15625 39.890625 26.703125 39.890625 
Q 22.75 39.890625 18.8125 39.015625 
Q 14.890625 38.140625 10.796875 36.28125 
z
" id="DejaVuSans-53"/>
       </defs>
       <use xlink:href="#DejaVuSans-8722"/>
       <use x="83.789062" xlink:href="#DejaVuSans-50"/>
       <use x="147.412109" xlink:href="#DejaVuSans-53"/>
      </g>
     </g>
    </g>
    <g id="xtick_2">
     <g id="line2d_2">
      <g>
       <use style="stroke:#000000;stroke-width:0.8;" x="133.435591" xlink:href="#m753d778910" y="307.584"/>
      </g>
     </g>
     <g id="text_2">
      <!-- 0 -->
      <g transform="translate(130.254341 322.182437)scale(0.1 -0.1)">
       <defs>
        <path d="M 31.78125 66.40625 
Q 24.171875 66.40625 20.328125 58.90625 
Q 16.5 51.421875 16.5 36.375 
Q 16.5 21.390625 20.328125 13.890625 
Q 24.171875 6.390625 31.78125 6.390625 
Q 39.453125 6.390625 43.28125 13.890625 
Q 47.125 21.390625 47.125 36.375 
Q 47.125 51.421875 43.28125 58.90625 
Q 39.453125 66.40625 31.78125 66.40625 
z
M 31.78125 74.21875 
Q 44.046875 74.21875 50.515625 64.515625 
Q 56.984375 54.828125 56.984375 36.375 
Q 56.984375 17.96875 50.515625 8.265625 
Q 44.046875 -1.421875 31.78125 -1.421875 
Q 19.53125 -1.421875 13.0625 8.265625 
Q 6.59375 17.96875 6.59375 36.375 
Q 6.59375 54.828125 13.0625 64.515625 
Q 19.53125 74.21875 31.78125 74.21875 
z
" id="DejaVuSans-48"/>
       </defs>
       <use xlink:href="#DejaVuSans-48"/>
      </g>
     </g>
    </g>
    <g id="xtick_3">
     <g id="line2d_3">
      <g>
       <use style="stroke:#000000;stroke-width:0.8;" x="181.555664" xlink:href="#m753d778910" y="307.584"/>
      </g>
     </g>
     <g id="text_3">
      <!-- 25 -->
      <g transform="translate(175.193164 322.182437)scale(0.1 -0.1)">
       <use xlink:href="#DejaVuSans-50"/>
       <use x="63.623047" xlink:href="#DejaVuSans-53"/>
      </g>
     </g>
    </g>
    <g id="xtick_4">
     <g id="line2d_4">
      <g>
       <use style="stroke:#000000;stroke-width:0.8;" x="229.675736" xlink:href="#m753d778910" y="307.584"/>
      </g>
     </g>
     <g id="text_4">
      <!-- 50 -->
      <g transform="translate(223.313236 322.182437)scale(0.1 -0.1)">
       <use xlink:href="#DejaVuSans-53"/>
       <use x="63.623047" xlink:href="#DejaVuSans-48"/>
      </g>
     </g>
    </g>
    <g id="xtick_5">
     <g id="line2d_5">
      <g>
       <use style="stroke:#000000;stroke-width:0.8;" x="277.795808" xlink:href="#m753d778910" y="307.584"/>
      </g>
     </g>
     <g id="text_5">
      <!-- 75 -->
      <g transform="translate(271.433308 322.182437)scale(0.1 -0.1)">
       <defs>
        <path d="M 8.203125 72.90625 
L 55.078125 72.90625 
L 55.078125 68.703125 
L 28.609375 0 
L 18.3125 0 
L 43.21875 64.59375 
L 8.203125 64.59375 
z
" id="DejaVuSans-55"/>
       </defs>
       <use xlink:href="#DejaVuSans-55"/>
       <use x="63.623047" xlink:href="#DejaVuSans-53"/>
      </g>
     </g>
    </g>
    <g id="xtick_6">
     <g id="line2d_6">
      <g>
       <use style="stroke:#000000;stroke-width:0.8;" x="325.915881" xlink:href="#m753d778910" y="307.584"/>
      </g>
     </g>
     <g id="text_6">
      <!-- 100 -->
      <g transform="translate(316.372131 322.182437)scale(0.1 -0.1)">
       <defs>
        <path d="M 12.40625 8.296875 
L 28.515625 8.296875 
L 28.515625 63.921875 
L 10.984375 60.40625 
L 10.984375 69.390625 
L 28.421875 72.90625 
L 38.28125 72.90625 
L 38.28125 8.296875 
L 54.390625 8.296875 
L 54.390625 0 
L 12.40625 0 
z
" id="DejaVuSans-49"/>
       </defs>
       <use xlink:href="#DejaVuSans-49"/>
       <use x="63.623047" xlink:href="#DejaVuSans-48"/>
       <use x="127.246094" xlink:href="#DejaVuSans-48"/>
      </g>
     </g>
    </g>
    <g id="xtick_7">
     <g id="line2d_7">
      <g>
       <use style="stroke:#000000;stroke-width:0.8;" x="374.035953" xlink:href="#m753d778910" y="307.584"/>
      </g>
     </g>
     <g id="text_7">
      <!-- 125 -->
      <g transform="translate(364.492203 322.182437)scale(0.1 -0.1)">
       <use xlink:href="#DejaVuSans-49"/>
       <use x="63.623047" xlink:href="#DejaVuSans-50"/>
       <use x="127.246094" xlink:href="#DejaVuSans-53"/>
      </g>
     </g>
    </g>
   </g>
   <g id="matplotlib.axis_2">
    <g id="ytick_1">
     <g id="line2d_8">
      <defs>
       <path d="M 0 0 
L -3.5 0 
" id="m31d694cb57" style="stroke:#000000;stroke-width:0.8;"/>
      </defs>
      <g>
       <use style="stroke:#000000;stroke-width:0.8;" x="57.6" xlink:href="#m31d694cb57" y="295.413926"/>
      </g>
     </g>
     <g id="text_8">
      <!-- 0 -->
      <g transform="translate(44.2375 299.213145)scale(0.1 -0.1)">
       <use xlink:href="#DejaVuSans-48"/>
      </g>
     </g>
    </g>
    <g id="ytick_2">
     <g id="line2d_9">
      <g>
       <use style="stroke:#000000;stroke-width:0.8;" x="57.6" xlink:href="#m31d694cb57" y="256.917869"/>
      </g>
     </g>
     <g id="text_9">
      <!-- 20 -->
      <g transform="translate(37.875 260.717087)scale(0.1 -0.1)">
       <use xlink:href="#DejaVuSans-50"/>
       <use x="63.623047" xlink:href="#DejaVuSans-48"/>
      </g>
     </g>
    </g>
    <g id="ytick_3">
     <g id="line2d_10">
      <g>
       <use style="stroke:#000000;stroke-width:0.8;" x="57.6" xlink:href="#m31d694cb57" y="218.421811"/>
      </g>
     </g>
     <g id="text_10">
      <!-- 40 -->
      <g transform="translate(37.875 222.221029)scale(0.1 -0.1)">
       <defs>
        <path d="M 37.796875 64.3125 
L 12.890625 25.390625 
L 37.796875 25.390625 
z
M 35.203125 72.90625 
L 47.609375 72.90625 
L 47.609375 25.390625 
L 58.015625 25.390625 
L 58.015625 17.1875 
L 47.609375 17.1875 
L 47.609375 0 
L 37.796875 0 
L 37.796875 17.1875 
L 4.890625 17.1875 
L 4.890625 26.703125 
z
" id="DejaVuSans-52"/>
       </defs>
       <use xlink:href="#DejaVuSans-52"/>
       <use x="63.623047" xlink:href="#DejaVuSans-48"/>
      </g>
     </g>
    </g>
    <g id="ytick_4">
     <g id="line2d_11">
      <g>
       <use style="stroke:#000000;stroke-width:0.8;" x="57.6" xlink:href="#m31d694cb57" y="179.925753"/>
      </g>
     </g>
     <g id="text_11">
      <!-- 60 -->
      <g transform="translate(37.875 183.724972)scale(0.1 -0.1)">
       <defs>
        <path d="M 33.015625 40.375 
Q 26.375 40.375 22.484375 35.828125 
Q 18.609375 31.296875 18.609375 23.390625 
Q 18.609375 15.53125 22.484375 10.953125 
Q 26.375 6.390625 33.015625 6.390625 
Q 39.65625 6.390625 43.53125 10.953125 
Q 47.40625 15.53125 47.40625 23.390625 
Q 47.40625 31.296875 43.53125 35.828125 
Q 39.65625 40.375 33.015625 40.375 
z
M 52.59375 71.296875 
L 52.59375 62.3125 
Q 48.875 64.0625 45.09375 64.984375 
Q 41.3125 65.921875 37.59375 65.921875 
Q 27.828125 65.921875 22.671875 59.328125 
Q 17.53125 52.734375 16.796875 39.40625 
Q 19.671875 43.65625 24.015625 45.921875 
Q 28.375 48.1875 33.59375 48.1875 
Q 44.578125 48.1875 50.953125 41.515625 
Q 57.328125 34.859375 57.328125 23.390625 
Q 57.328125 12.15625 50.6875 5.359375 
Q 44.046875 -1.421875 33.015625 -1.421875 
Q 20.359375 -1.421875 13.671875 8.265625 
Q 6.984375 17.96875 6.984375 36.375 
Q 6.984375 53.65625 15.1875 63.9375 
Q 23.390625 74.21875 37.203125 74.21875 
Q 40.921875 74.21875 44.703125 73.484375 
Q 48.484375 72.75 52.59375 71.296875 
z
" id="DejaVuSans-54"/>
       </defs>
       <use xlink:href="#DejaVuSans-54"/>
       <use x="63.623047" xlink:href="#DejaVuSans-48"/>
      </g>
     </g>
    </g>
    <g id="ytick_5">
     <g id="line2d_12">
      <g>
       <use style="stroke:#000000;stroke-width:0.8;" x="57.6" xlink:href="#m31d694cb57" y="141.429695"/>
      </g>
     </g>
     <g id="text_12">
      <!-- 80 -->
      <g transform="translate(37.875 145.228914)scale(0.1 -0.1)">
       <defs>
        <path d="M 31.78125 34.625 
Q 24.75 34.625 20.71875 30.859375 
Q 16.703125 27.09375 16.703125 20.515625 
Q 16.703125 13.921875 20.71875 10.15625 
Q 24.75 6.390625 31.78125 6.390625 
Q 38.8125 6.390625 42.859375 10.171875 
Q 46.921875 13.96875 46.921875 20.515625 
Q 46.921875 27.09375 42.890625 30.859375 
Q 38.875 34.625 31.78125 34.625 
z
M 21.921875 38.8125 
Q 15.578125 40.375 12.03125 44.71875 
Q 8.5 49.078125 8.5 55.328125 
Q 8.5 64.0625 14.71875 69.140625 
Q 20.953125 74.21875 31.78125 74.21875 
Q 42.671875 74.21875 48.875 69.140625 
Q 55.078125 64.0625 55.078125 55.328125 
Q 55.078125 49.078125 51.53125 44.71875 
Q 48 40.375 41.703125 38.8125 
Q 48.828125 37.15625 52.796875 32.3125 
Q 56.78125 27.484375 56.78125 20.515625 
Q 56.78125 9.90625 50.3125 4.234375 
Q 43.84375 -1.421875 31.78125 -1.421875 
Q 19.734375 -1.421875 13.25 4.234375 
Q 6.78125 9.90625 6.78125 20.515625 
Q 6.78125 27.484375 10.78125 32.3125 
Q 14.796875 37.15625 21.921875 38.8125 
z
M 18.3125 54.390625 
Q 18.3125 48.734375 21.84375 45.5625 
Q 25.390625 42.390625 31.78125 42.390625 
Q 38.140625 42.390625 41.71875 45.5625 
Q 45.3125 48.734375 45.3125 54.390625 
Q 45.3125 60.0625 41.71875 63.234375 
Q 38.140625 66.40625 31.78125 66.40625 
Q 25.390625 66.40625 21.84375 63.234375 
Q 18.3125 60.0625 18.3125 54.390625 
z
" id="DejaVuSans-56"/>
       </defs>
       <use xlink:href="#DejaVuSans-56"/>
       <use x="63.623047" xlink:href="#DejaVuSans-48"/>
      </g>
     </g>
    </g>
    <g id="ytick_6">
     <g id="line2d_13">
      <g>
       <use style="stroke:#000000;stroke-width:0.8;" x="57.6" xlink:href="#m31d694cb57" y="102.933637"/>
      </g>
     </g>
     <g id="text_13">
      <!-- 100 -->
      <g transform="translate(31.5125 106.732856)scale(0.1 -0.1)">
       <use xlink:href="#DejaVuSans-49"/>
       <use x="63.623047" xlink:href="#DejaVuSans-48"/>
       <use x="127.246094" xlink:href="#DejaVuSans-48"/>
      </g>
     </g>
    </g>
    <g id="ytick_7">
     <g id="line2d_14">
      <g>
       <use style="stroke:#000000;stroke-width:0.8;" x="57.6" xlink:href="#m31d694cb57" y="64.437579"/>
      </g>
     </g>
     <g id="text_14">
      <!-- 120 -->
      <g transform="translate(31.5125 68.236798)scale(0.1 -0.1)">
       <use xlink:href="#DejaVuSans-49"/>
       <use x="63.623047" xlink:href="#DejaVuSans-50"/>
       <use x="127.246094" xlink:href="#DejaVuSans-48"/>
      </g>
     </g>
    </g>
   </g>
   <g id="line2d_15">
    <path clip-path="url(#p41955f9113)" d="M 133.435591 295.413926 
L 133.729935 275.155412 
L 134.258524 244.716767 
L 133.91937 239.287101 
L 133.308752 233.625583 
L 131.924639 222.163437 
L 131.4769 216.641031 
L 131.385369 213.992855 
L 131.40921 211.443216 
L 131.568782 209.009504 
L 131.884446 206.709106 
L 132.376562 204.559412 
L 133.065488 202.57781 
L 133.971586 200.78169 
L 135.115213 199.18844 
L 136.510146 197.810736 
L 138.142966 196.637829 
L 139.993247 195.651969 
L 142.040562 194.835404 
L 144.264485 194.170387 
L 146.644588 193.639166 
L 149.160446 193.223991 
L 154.517716 192.670779 
L 160.172883 192.368752 
L 174.541691 191.780737 
L 179.95261 191.239601 
L 184.993263 190.348988 
L 192.449497 188.69042 
L 212.305431 183.963288 
L 217.276055 183.013173 
L 222.254085 182.266798 
L 227.241892 181.779699 
L 229.740205 181.650734 
L 232.24489 181.633307 
L 234.758189 181.744728 
L 239.805259 182.288739 
L 244.870679 183.152013 
L 252.479725 184.759516 
L 260.069657 186.349866 
L 265.101096 187.182647 
L 270.097197 187.680918 
L 272.578639 187.763752 
L 275.04722 187.713926 
L 279.977245 187.213055 
L 285.069119 186.461755 
L 290.276557 185.497148 
L 295.513312 184.298814 
L 300.693138 182.846334 
L 305.729786 181.119289 
L 310.537011 179.097258 
L 312.827638 177.969243 
L 315.028566 176.759823 
L 317.129014 175.466448 
L 319.118202 174.086564 
L 320.985349 172.61762 
L 322.719674 171.057062 
L 324.371419 169.366437 
L 325.992436 167.518864 
L 327.574366 165.529145 
L 329.108844 163.412082 
L 332.002002 158.855138 
L 334.605012 153.966456 
L 336.85098 148.864458 
L 338.673008 143.667568 
L 339.40414 141.070546 
L 340.004201 138.494209 
L 340.464829 135.95336 
L 340.777662 133.462803 
L 340.934338 131.03734 
L 340.926495 128.691774 
L 340.745771 126.440908 
L 340.36552 124.242797 
L 339.774928 122.047273 
L 338.989381 119.856805 
L 338.024264 117.673861 
L 336.894964 115.500908 
L 335.616866 113.340416 
L 332.675819 109.066686 
L 329.324209 104.872415 
L 325.685123 100.77735 
L 321.881647 96.801237 
L 314.273868 89.28485 
L 310.649843 85.790706 
L 306.860962 82.518696 
L 302.883792 79.438289 
L 298.75729 76.509845 
L 292.372755 72.315389 
L 275.133068 61.348206 
L 273.043846 59.910412 
L 273.043846 59.910412 
" style="fill:none;stroke:#fea952;stroke-linecap:square;"/>
   </g>
   <g id="line2d_16">
    <path clip-path="url(#p41955f9113)" d="M 125.736736 295.339853 
L 126.032128 275.008389 
L 126.567753 245.077192 
L 126.258505 240.054573 
L 125.667995 234.572515 
L 124.258874 222.880303 
L 123.782283 216.906986 
L 123.686494 213.920865 
L 123.726495 210.93948 
L 123.94105 207.962815 
L 124.379379 204.99102 
L 125.10431 202.03113 
L 126.191452 199.110032 
L 127.71688 196.292089 
L 129.704983 193.710551 
L 132.018332 191.55762 
L 134.522541 189.84295 
L 137.140946 188.500588 
L 139.834781 187.458929 
L 142.587344 186.656063 
L 145.390994 186.042695 
L 148.239867 185.580013 
L 154.041548 184.986306 
L 159.903292 184.674262 
L 173.897305 184.108539 
L 178.739506 183.63656 
L 183.409417 182.814448 
L 190.643546 181.20601 
L 210.795061 176.413676 
L 216.047574 175.412601 
L 221.396324 174.615516 
L 226.84498 174.090725 
L 229.686636 173.951709 
L 232.585882 173.94165 
L 235.439498 174.075721 
L 241.006798 174.683862 
L 246.389925 175.604182 
L 254.123681 177.237863 
L 261.423476 178.770616 
L 266.014641 179.537825 
L 270.354064 179.985993 
L 274.425539 180.039855 
L 278.919809 179.586805 
L 283.741082 178.877945 
L 288.64352 177.973116 
L 293.531603 176.85901 
L 298.308465 175.525734 
L 302.875952 173.968521 
L 307.135609 172.190137 
L 310.991637 170.203829 
L 314.357656 168.035527 
L 315.835458 166.894292 
L 317.212553 165.67659 
L 318.583993 164.288685 
L 321.340455 161.010713 
L 324.008156 157.183735 
L 326.481943 152.953353 
L 328.673016 148.46588 
L 330.503506 143.87069 
L 331.905632 139.32405 
L 332.825644 134.99382 
L 333.235169 131.063084 
L 333.159238 127.753301 
L 332.930606 126.242775 
L 332.527656 124.646294 
L 331.947682 122.970058 
L 331.192577 121.224341 
L 330.268448 119.421004 
L 327.953361 115.688229 
L 325.10259 111.855502 
L 321.834261 107.988437 
L 318.272331 104.136424 
L 312.6493 98.464002 
L 305.532064 91.542766 
L 302.074346 88.549132 
L 298.371297 85.676498 
L 294.455313 82.895051 
L 288.260351 78.824306 
L 270.768246 67.690618 
L 268.679024 66.252824 
L 268.679024 66.252824 
" style="fill:none;stroke:#ffffff;stroke-linecap:square;"/>
   </g>
   <g id="line2d_17">
    <path clip-path="url(#p41955f9113)" d="M 141.134447 295.488 
L 141.427743 275.302435 
L 141.949294 244.356341 
L 141.580234 238.519628 
L 140.591321 229.788571 
L 139.590405 221.446571 
L 139.171517 216.375075 
L 139.091925 211.946953 
L 139.389514 208.427192 
L 139.939525 206.045588 
L 140.525444 204.666328 
L 141.00196 204.063852 
L 141.763391 203.432708 
L 142.845548 202.803349 
L 144.246343 202.21188 
L 145.941626 201.68471 
L 147.898183 201.235636 
L 152.456605 200.577553 
L 157.66448 200.188666 
L 178.18302 199.197207 
L 181.165715 198.842643 
L 186.577109 197.883528 
L 194.255449 196.17483 
L 213.8158 191.5129 
L 218.504537 190.613745 
L 223.111845 189.918079 
L 227.638804 189.468673 
L 231.903898 189.324964 
L 236.311071 189.606811 
L 240.951593 190.2623 
L 245.800281 191.192226 
L 258.715837 193.929116 
L 264.187551 194.827468 
L 266.991137 195.15653 
L 269.840329 195.375844 
L 272.734009 195.461396 
L 275.668901 195.387998 
L 281.034682 194.839305 
L 286.397156 194.045565 
L 291.909595 193.021179 
L 297.495021 191.738618 
L 303.077811 190.166935 
L 308.583621 188.270057 
L 313.938413 186.00438 
L 316.535464 184.716826 
L 319.065495 183.315818 
L 321.5174 181.792579 
L 323.878748 180.137602 
L 326.13524 178.340947 
L 328.226795 176.437534 
L 330.158844 174.44419 
L 332.019031 172.310317 
L 333.808276 170.047576 
L 335.525232 167.667411 
L 337.166865 165.181223 
L 338.728869 162.600416 
L 340.205969 159.936373 
L 341.592113 157.200383 
L 342.880598 154.40356 
L 344.064133 151.55672 
L 345.134828 148.670257 
L 346.084126 145.753998 
L 346.902647 142.817041 
L 347.579928 139.867605 
L 348.104013 136.9129 
L 348.46086 133.959109 
L 348.633506 131.011596 
L 348.601009 128.07558 
L 348.332303 125.128514 
L 347.800433 122.242818 
L 347.022199 119.448252 
L 346.031079 116.743551 
L 344.855951 114.12338 
L 343.521479 111.580812 
L 342.04898 109.108896 
L 340.457349 106.701476 
L 336.984693 102.061266 
L 333.231555 97.634059 
L 329.320152 93.409958 
L 323.424434 87.463642 
L 315.767623 80.038647 
L 311.647578 76.488259 
L 307.396287 73.200081 
L 303.059267 70.124639 
L 296.485158 65.806472 
L 279.49789 55.005794 
L 277.408668 53.568 
L 277.408668 53.568 
" style="fill:none;stroke:#ffffff;stroke-linecap:square;"/>
   </g>
   <g id="patch_3">
    <path d="M 57.6 307.584 
L 57.6 41.472 
" style="fill:none;stroke:#000000;stroke-linecap:square;stroke-linejoin:miter;stroke-width:0.8;"/>
   </g>
   <g id="patch_4">
    <path d="M 414.72 307.584 
L 414.72 41.472 
" style="fill:none;stroke:#000000;stroke-linecap:square;stroke-linejoin:miter;stroke-width:0.8;"/>
   </g>
   <g id="patch_5">
    <path d="M 57.6 307.584 
L 414.72 307.584 
" style="fill:none;stroke:#000000;stroke-linecap:square;stroke-linejoin:miter;stroke-width:0.8;"/>
   </g>
   <g id="patch_6">
    <path d="M 57.6 41.472 
L 414.72 41.472 
" style="fill:none;stroke:#000000;stroke-linecap:square;stroke-linejoin:miter;stroke-width:0.8;"/>
   </g>
  </g>
 </g>
 <defs>
  <clipPath id="p41955f9113">
   <rect height="266.112" width="357.12" x="57.6" y="41.472"/>
  </clipPath>
 </defs>
</svg>
