<?xml version="1.0" encoding="utf-8" standalone="no"?>
<!DOCTYPE svg PUBLIC "-//W3C//DTD SVG 1.1//EN"
  "http://www.w3.org/Graphics/SVG/1.1/DTD/svg11.dtd">
<!-- Created with matplotlib (https://matplotlib.org/) -->
<svg height="345.6pt" version="1.1" viewBox="0 0 460.8 345.6" width="460.8pt" xmlns="http://www.w3.org/2000/svg" xmlns:xlink="http://www.w3.org/1999/xlink">
 <metadata>
  <rdf:RDF xmlns:cc="http://creativecommons.org/ns#" xmlns:dc="http://purl.org/dc/elements/1.1/" xmlns:rdf="http://www.w3.org/1999/02/22-rdf-syntax-ns#">
   <cc:Work>
    <dc:type rdf:resource="http://purl.org/dc/dcmitype/StillImage"/>
    <dc:date>2021-06-14T08:18:49.410010</dc:date>
    <dc:format>image/svg+xml</dc:format>
    <dc:creator>
     <cc:Agent>
      <dc:title>Matplotlib v3.3.3, https://matplotlib.org/</dc:title>
     </cc:Agent>
    </dc:creator>
   </cc:Work>
  </rdf:RDF>
 </metadata>
 <defs>
  <style type="text/css">*{stroke-linecap:butt;stroke-linejoin:round;}</style>
 </defs>
 <g id="figure_1">
  <g id="patch_1">
   <path d="M 0 345.6 
L 460.8 345.6 
L 460.8 0 
L 0 0 
z
" style="fill:#ffffff;"/>
  </g>
  <g id="axes_1">
   <g id="patch_2">
    <path d="M 57.6 307.584 
L 414.72 307.584 
L 414.72 41.472 
L 57.6 41.472 
z
" style="fill:#7d9051;"/>
   </g>
   <g id="matplotlib.axis_1">
    <g id="xtick_1">
     <g id="line2d_1">
      <defs>
       <path d="M 0 0 
L 0 3.5 
" id="m25a0c7b9c4" style="stroke:#000000;stroke-width:0.8;"/>
      </defs>
      <g>
       <use style="stroke:#000000;stroke-width:0.8;" x="70.148324" xlink:href="#m25a0c7b9c4" y="307.584"/>
      </g>
     </g>
     <g id="text_1">
      <!-- −100 -->
      <g transform="translate(56.41473 322.182437)scale(0.1 -0.1)">
       <defs>
        <path d="M 10.59375 35.5 
L 73.1875 35.5 
L 73.1875 27.203125 
L 10.59375 27.203125 
z
" id="DejaVuSans-8722"/>
        <path d="M 12.40625 8.296875 
L 28.515625 8.296875 
L 28.515625 63.921875 
L 10.984375 60.40625 
L 10.984375 69.390625 
L 28.421875 72.90625 
L 38.28125 72.90625 
L 38.28125 8.296875 
L 54.390625 8.296875 
L 54.390625 0 
L 12.40625 0 
z
" id="DejaVuSans-49"/>
        <path d="M 31.78125 66.40625 
Q 24.171875 66.40625 20.328125 58.90625 
Q 16.5 51.421875 16.5 36.375 
Q 16.5 21.390625 20.328125 13.890625 
Q 24.171875 6.390625 31.78125 6.390625 
Q 39.453125 6.390625 43.28125 13.890625 
Q 47.125 21.390625 47.125 36.375 
Q 47.125 51.421875 43.28125 58.90625 
Q 39.453125 66.40625 31.78125 66.40625 
z
M 31.78125 74.21875 
Q 44.046875 74.21875 50.515625 64.515625 
Q 56.984375 54.828125 56.984375 36.375 
Q 56.984375 17.96875 50.515625 8.265625 
Q 44.046875 -1.421875 31.78125 -1.421875 
Q 19.53125 -1.421875 13.0625 8.265625 
Q 6.59375 17.96875 6.59375 36.375 
Q 6.59375 54.828125 13.0625 64.515625 
Q 19.53125 74.21875 31.78125 74.21875 
z
" id="DejaVuSans-48"/>
       </defs>
       <use xlink:href="#DejaVuSans-8722"/>
       <use x="83.789062" xlink:href="#DejaVuSans-49"/>
       <use x="147.412109" xlink:href="#DejaVuSans-48"/>
       <use x="211.035156" xlink:href="#DejaVuSans-48"/>
      </g>
     </g>
    </g>
    <g id="xtick_2">
     <g id="line2d_2">
      <g>
       <use style="stroke:#000000;stroke-width:0.8;" x="148.109237" xlink:href="#m25a0c7b9c4" y="307.584"/>
      </g>
     </g>
     <g id="text_2">
      <!-- −50 -->
      <g transform="translate(137.556893 322.182437)scale(0.1 -0.1)">
       <defs>
        <path d="M 10.796875 72.90625 
L 49.515625 72.90625 
L 49.515625 64.59375 
L 19.828125 64.59375 
L 19.828125 46.734375 
Q 21.96875 47.46875 24.109375 47.828125 
Q 26.265625 48.1875 28.421875 48.1875 
Q 40.625 48.1875 47.75 41.5 
Q 54.890625 34.8125 54.890625 23.390625 
Q 54.890625 11.625 47.5625 5.09375 
Q 40.234375 -1.421875 26.90625 -1.421875 
Q 22.3125 -1.421875 17.546875 -0.640625 
Q 12.796875 0.140625 7.71875 1.703125 
L 7.71875 11.625 
Q 12.109375 9.234375 16.796875 8.0625 
Q 21.484375 6.890625 26.703125 6.890625 
Q 35.15625 6.890625 40.078125 11.328125 
Q 45.015625 15.765625 45.015625 23.390625 
Q 45.015625 31 40.078125 35.4375 
Q 35.15625 39.890625 26.703125 39.890625 
Q 22.75 39.890625 18.8125 39.015625 
Q 14.890625 38.140625 10.796875 36.28125 
z
" id="DejaVuSans-53"/>
       </defs>
       <use xlink:href="#DejaVuSans-8722"/>
       <use x="83.789062" xlink:href="#DejaVuSans-53"/>
       <use x="147.412109" xlink:href="#DejaVuSans-48"/>
      </g>
     </g>
    </g>
    <g id="xtick_3">
     <g id="line2d_3">
      <g>
       <use style="stroke:#000000;stroke-width:0.8;" x="226.07015" xlink:href="#m25a0c7b9c4" y="307.584"/>
      </g>
     </g>
     <g id="text_3">
      <!-- 0 -->
      <g transform="translate(222.8889 322.182437)scale(0.1 -0.1)">
       <use xlink:href="#DejaVuSans-48"/>
      </g>
     </g>
    </g>
    <g id="xtick_4">
     <g id="line2d_4">
      <g>
       <use style="stroke:#000000;stroke-width:0.8;" x="304.031063" xlink:href="#m25a0c7b9c4" y="307.584"/>
      </g>
     </g>
     <g id="text_4">
      <!-- 50 -->
      <g transform="translate(297.668563 322.182437)scale(0.1 -0.1)">
       <use xlink:href="#DejaVuSans-53"/>
       <use x="63.623047" xlink:href="#DejaVuSans-48"/>
      </g>
     </g>
    </g>
    <g id="xtick_5">
     <g id="line2d_5">
      <g>
       <use style="stroke:#000000;stroke-width:0.8;" x="381.991977" xlink:href="#m25a0c7b9c4" y="307.584"/>
      </g>
     </g>
     <g id="text_5">
      <!-- 100 -->
      <g transform="translate(372.448227 322.182437)scale(0.1 -0.1)">
       <use xlink:href="#DejaVuSans-49"/>
       <use x="63.623047" xlink:href="#DejaVuSans-48"/>
       <use x="127.246094" xlink:href="#DejaVuSans-48"/>
      </g>
     </g>
    </g>
   </g>
   <g id="matplotlib.axis_2">
    <g id="ytick_1">
     <g id="line2d_6">
      <defs>
       <path d="M 0 0 
L -3.5 0 
" id="mfe2d98087f" style="stroke:#000000;stroke-width:0.8;"/>
      </defs>
      <g>
       <use style="stroke:#000000;stroke-width:0.8;" x="57.6" xlink:href="#mfe2d98087f" y="295.427995"/>
      </g>
     </g>
     <g id="text_6">
      <!-- 0 -->
      <g transform="translate(44.2375 299.227214)scale(0.1 -0.1)">
       <use xlink:href="#DejaVuSans-48"/>
      </g>
     </g>
    </g>
    <g id="ytick_2">
     <g id="line2d_7">
      <g>
       <use style="stroke:#000000;stroke-width:0.8;" x="57.6" xlink:href="#mfe2d98087f" y="264.24363"/>
      </g>
     </g>
     <g id="text_7">
      <!-- 20 -->
      <g transform="translate(37.875 268.042849)scale(0.1 -0.1)">
       <defs>
        <path d="M 19.1875 8.296875 
L 53.609375 8.296875 
L 53.609375 0 
L 7.328125 0 
L 7.328125 8.296875 
Q 12.9375 14.109375 22.625 23.890625 
Q 32.328125 33.6875 34.8125 36.53125 
Q 39.546875 41.84375 41.421875 45.53125 
Q 43.3125 49.21875 43.3125 52.78125 
Q 43.3125 58.59375 39.234375 62.25 
Q 35.15625 65.921875 28.609375 65.921875 
Q 23.96875 65.921875 18.8125 64.3125 
Q 13.671875 62.703125 7.8125 59.421875 
L 7.8125 69.390625 
Q 13.765625 71.78125 18.9375 73 
Q 24.125 74.21875 28.421875 74.21875 
Q 39.75 74.21875 46.484375 68.546875 
Q 53.21875 62.890625 53.21875 53.421875 
Q 53.21875 48.921875 51.53125 44.890625 
Q 49.859375 40.875 45.40625 35.40625 
Q 44.1875 33.984375 37.640625 27.21875 
Q 31.109375 20.453125 19.1875 8.296875 
z
" id="DejaVuSans-50"/>
       </defs>
       <use xlink:href="#DejaVuSans-50"/>
       <use x="63.623047" xlink:href="#DejaVuSans-48"/>
      </g>
     </g>
    </g>
    <g id="ytick_3">
     <g id="line2d_8">
      <g>
       <use style="stroke:#000000;stroke-width:0.8;" x="57.6" xlink:href="#mfe2d98087f" y="233.059265"/>
      </g>
     </g>
     <g id="text_8">
      <!-- 40 -->
      <g transform="translate(37.875 236.858484)scale(0.1 -0.1)">
       <defs>
        <path d="M 37.796875 64.3125 
L 12.890625 25.390625 
L 37.796875 25.390625 
z
M 35.203125 72.90625 
L 47.609375 72.90625 
L 47.609375 25.390625 
L 58.015625 25.390625 
L 58.015625 17.1875 
L 47.609375 17.1875 
L 47.609375 0 
L 37.796875 0 
L 37.796875 17.1875 
L 4.890625 17.1875 
L 4.890625 26.703125 
z
" id="DejaVuSans-52"/>
       </defs>
       <use xlink:href="#DejaVuSans-52"/>
       <use x="63.623047" xlink:href="#DejaVuSans-48"/>
      </g>
     </g>
    </g>
    <g id="ytick_4">
     <g id="line2d_9">
      <g>
       <use style="stroke:#000000;stroke-width:0.8;" x="57.6" xlink:href="#mfe2d98087f" y="201.8749"/>
      </g>
     </g>
     <g id="text_9">
      <!-- 60 -->
      <g transform="translate(37.875 205.674118)scale(0.1 -0.1)">
       <defs>
        <path d="M 33.015625 40.375 
Q 26.375 40.375 22.484375 35.828125 
Q 18.609375 31.296875 18.609375 23.390625 
Q 18.609375 15.53125 22.484375 10.953125 
Q 26.375 6.390625 33.015625 6.390625 
Q 39.65625 6.390625 43.53125 10.953125 
Q 47.40625 15.53125 47.40625 23.390625 
Q 47.40625 31.296875 43.53125 35.828125 
Q 39.65625 40.375 33.015625 40.375 
z
M 52.59375 71.296875 
L 52.59375 62.3125 
Q 48.875 64.0625 45.09375 64.984375 
Q 41.3125 65.921875 37.59375 65.921875 
Q 27.828125 65.921875 22.671875 59.328125 
Q 17.53125 52.734375 16.796875 39.40625 
Q 19.671875 43.65625 24.015625 45.921875 
Q 28.375 48.1875 33.59375 48.1875 
Q 44.578125 48.1875 50.953125 41.515625 
Q 57.328125 34.859375 57.328125 23.390625 
Q 57.328125 12.15625 50.6875 5.359375 
Q 44.046875 -1.421875 33.015625 -1.421875 
Q 20.359375 -1.421875 13.671875 8.265625 
Q 6.984375 17.96875 6.984375 36.375 
Q 6.984375 53.65625 15.1875 63.9375 
Q 23.390625 74.21875 37.203125 74.21875 
Q 40.921875 74.21875 44.703125 73.484375 
Q 48.484375 72.75 52.59375 71.296875 
z
" id="DejaVuSans-54"/>
       </defs>
       <use xlink:href="#DejaVuSans-54"/>
       <use x="63.623047" xlink:href="#DejaVuSans-48"/>
      </g>
     </g>
    </g>
    <g id="ytick_5">
     <g id="line2d_10">
      <g>
       <use style="stroke:#000000;stroke-width:0.8;" x="57.6" xlink:href="#mfe2d98087f" y="170.690534"/>
      </g>
     </g>
     <g id="text_10">
      <!-- 80 -->
      <g transform="translate(37.875 174.489753)scale(0.1 -0.1)">
       <defs>
        <path d="M 31.78125 34.625 
Q 24.75 34.625 20.71875 30.859375 
Q 16.703125 27.09375 16.703125 20.515625 
Q 16.703125 13.921875 20.71875 10.15625 
Q 24.75 6.390625 31.78125 6.390625 
Q 38.8125 6.390625 42.859375 10.171875 
Q 46.921875 13.96875 46.921875 20.515625 
Q 46.921875 27.09375 42.890625 30.859375 
Q 38.875 34.625 31.78125 34.625 
z
M 21.921875 38.8125 
Q 15.578125 40.375 12.03125 44.71875 
Q 8.5 49.078125 8.5 55.328125 
Q 8.5 64.0625 14.71875 69.140625 
Q 20.953125 74.21875 31.78125 74.21875 
Q 42.671875 74.21875 48.875 69.140625 
Q 55.078125 64.0625 55.078125 55.328125 
Q 55.078125 49.078125 51.53125 44.71875 
Q 48 40.375 41.703125 38.8125 
Q 48.828125 37.15625 52.796875 32.3125 
Q 56.78125 27.484375 56.78125 20.515625 
Q 56.78125 9.90625 50.3125 4.234375 
Q 43.84375 -1.421875 31.78125 -1.421875 
Q 19.734375 -1.421875 13.25 4.234375 
Q 6.78125 9.90625 6.78125 20.515625 
Q 6.78125 27.484375 10.78125 32.3125 
Q 14.796875 37.15625 21.921875 38.8125 
z
M 18.3125 54.390625 
Q 18.3125 48.734375 21.84375 45.5625 
Q 25.390625 42.390625 31.78125 42.390625 
Q 38.140625 42.390625 41.71875 45.5625 
Q 45.3125 48.734375 45.3125 54.390625 
Q 45.3125 60.0625 41.71875 63.234375 
Q 38.140625 66.40625 31.78125 66.40625 
Q 25.390625 66.40625 21.84375 63.234375 
Q 18.3125 60.0625 18.3125 54.390625 
z
" id="DejaVuSans-56"/>
       </defs>
       <use xlink:href="#DejaVuSans-56"/>
       <use x="63.623047" xlink:href="#DejaVuSans-48"/>
      </g>
     </g>
    </g>
    <g id="ytick_6">
     <g id="line2d_11">
      <g>
       <use style="stroke:#000000;stroke-width:0.8;" x="57.6" xlink:href="#mfe2d98087f" y="139.506169"/>
      </g>
     </g>
     <g id="text_11">
      <!-- 100 -->
      <g transform="translate(31.5125 143.305388)scale(0.1 -0.1)">
       <use xlink:href="#DejaVuSans-49"/>
       <use x="63.623047" xlink:href="#DejaVuSans-48"/>
       <use x="127.246094" xlink:href="#DejaVuSans-48"/>
      </g>
     </g>
    </g>
    <g id="ytick_7">
     <g id="line2d_12">
      <g>
       <use style="stroke:#000000;stroke-width:0.8;" x="57.6" xlink:href="#mfe2d98087f" y="108.321804"/>
      </g>
     </g>
     <g id="text_12">
      <!-- 120 -->
      <g transform="translate(31.5125 112.121022)scale(0.1 -0.1)">
       <use xlink:href="#DejaVuSans-49"/>
       <use x="63.623047" xlink:href="#DejaVuSans-50"/>
       <use x="127.246094" xlink:href="#DejaVuSans-48"/>
      </g>
     </g>
    </g>
    <g id="ytick_8">
     <g id="line2d_13">
      <g>
       <use style="stroke:#000000;stroke-width:0.8;" x="57.6" xlink:href="#mfe2d98087f" y="77.137438"/>
      </g>
     </g>
     <g id="text_13">
      <!-- 140 -->
      <g transform="translate(31.5125 80.936657)scale(0.1 -0.1)">
       <use xlink:href="#DejaVuSans-49"/>
       <use x="63.623047" xlink:href="#DejaVuSans-52"/>
       <use x="127.246094" xlink:href="#DejaVuSans-48"/>
      </g>
     </g>
    </g>
    <g id="ytick_9">
     <g id="line2d_14">
      <g>
       <use style="stroke:#000000;stroke-width:0.8;" x="57.6" xlink:href="#mfe2d98087f" y="45.953073"/>
      </g>
     </g>
     <g id="text_14">
      <!-- 160 -->
      <g transform="translate(31.5125 49.752292)scale(0.1 -0.1)">
       <use xlink:href="#DejaVuSans-49"/>
       <use x="63.623047" xlink:href="#DejaVuSans-54"/>
       <use x="127.246094" xlink:href="#DejaVuSans-48"/>
      </g>
     </g>
    </g>
   </g>
   <g id="line2d_15">
    <path clip-path="url(#p1b760d4abe)" d="M 226.07015 295.427995 
L 226.347766 276.965991 
L 226.900935 252.335564 
L 227.508108 244.040219 
L 228.152396 235.737659 
L 228.392038 229.558086 
L 228.331423 225.481207 
L 228.029553 221.451223 
L 227.430756 217.478956 
L 226.568244 213.520523 
L 225.516367 209.541658 
L 224.281155 205.567607 
L 222.868637 201.623618 
L 221.284842 197.734937 
L 219.5358 193.926812 
L 217.62754 190.22449 
L 215.566091 186.653218 
L 213.357483 183.238243 
L 212.199878 181.597257 
L 210.94178 180.025029 
L 209.531577 178.535998 
L 207.990418 177.11992 
L 204.599839 174.465636 
L 200.939248 171.980213 
L 191.716878 165.967535 
L 188.443738 163.42766 
L 186.980872 162.087854 
L 185.66201 160.687808 
L 184.508303 159.217276 
L 183.540901 157.666014 
L 182.780954 156.023776 
L 182.191578 154.280046 
L 181.719018 152.43879 
L 181.359118 150.51148 
L 181.107721 148.50959 
L 180.913818 144.327968 
L 181.104065 139.985714 
L 181.645217 135.574616 
L 182.504029 131.186467 
L 183.647257 126.913055 
L 185.041656 122.84617 
L 186.653981 119.077604 
L 187.531477 117.333874 
L 188.505746 115.685933 
L 189.621071 114.118831 
L 190.863816 112.624223 
L 193.677027 109.81911 
L 196.836294 107.203837 
L 200.232534 104.711645 
L 210.752255 97.305983 
L 214.00555 94.638542 
L 216.950401 91.760393 
L 218.293322 90.179251 
L 219.573419 88.457136 
L 221.978741 84.68333 
L 224.233566 80.625659 
L 229.653203 70.464697 
L 231.910485 66.883646 
L 233.09189 65.290035 
L 234.319669 63.858813 
L 235.602224 62.613318 
L 236.947954 61.576883 
L 238.365258 60.772846 
L 239.862538 60.224542 
L 241.461965 59.914151 
L 243.170828 59.800159 
L 244.975204 59.870354 
L 246.861169 60.112528 
L 248.814798 60.514468 
L 250.822167 61.063964 
L 254.942432 62.556786 
L 259.110572 64.493308 
L 263.215195 66.775848 
L 267.144908 69.306722 
L 270.788321 71.988247 
L 274.034042 74.722739 
L 275.472957 76.079322 
L 276.791981 77.478768 
L 278.013355 78.977584 
L 279.145449 80.567251 
L 281.175279 83.985072 
L 282.948428 87.664092 
L 284.531858 91.536172 
L 286.697754 97.557226 
L 289.546555 105.625045 
L 291.104875 109.522677 
L 291.94681 111.407613 
L 291.94681 111.407613 
" style="fill:none;stroke:#fea952;stroke-linecap:square;"/>
   </g>
   <g id="line2d_16">
    <path clip-path="url(#p1b760d4abe)" d="M 219.833566 295.367991 
L 220.112095 276.843577 
L 220.675232 251.962471 
L 221.293225 243.516944 
L 222.035158 233.422402 
L 222.155175 229.569165 
L 222.105022 225.84249 
L 221.844557 222.25397 
L 221.322357 218.738341 
L 220.521566 215.04901 
L 219.541126 211.329137 
L 218.387408 207.607786 
L 217.067387 203.913614 
L 215.588627 200.27496 
L 213.959312 196.719905 
L 212.188326 193.276299 
L 210.285363 189.971726 
L 208.261077 186.833412 
L 206.413412 184.313673 
L 205.311746 183.128559 
L 202.604319 180.761279 
L 199.350475 178.407857 
L 193.819258 174.837013 
L 189.941478 172.320648 
L 186.09393 169.555882 
L 184.231301 168.027004 
L 182.441078 166.364401 
L 180.755072 164.537553 
L 179.216172 162.51757 
L 177.880686 160.285281 
L 176.872455 158.020831 
L 176.150495 155.830496 
L 175.588124 153.583656 
L 175.170849 151.2886 
L 174.886601 148.952595 
L 174.725328 146.582625 
L 174.73908 141.769451 
L 175.157448 136.909576 
L 175.937833 132.068543 
L 177.045519 127.315397 
L 178.45241 122.720381 
L 180.13831 118.352384 
L 182.162681 114.15982 
L 183.424415 112.06949 
L 184.825418 110.131313 
L 186.338289 108.332582 
L 187.939773 106.657767 
L 191.332878 103.614708 
L 194.875491 100.879259 
L 200.22975 97.1319 
L 205.312402 93.584197 
L 208.37097 91.242624 
L 211.048939 88.885068 
L 212.196725 87.722925 
L 213.28784 86.458534 
L 215.474499 83.369724 
L 217.637794 79.705834 
L 221.986606 71.463269 
L 224.311287 67.24561 
L 226.900232 63.169357 
L 228.358167 61.22919 
L 229.974649 59.38451 
L 231.796635 57.672055 
L 233.870496 56.15214 
L 236.220593 54.916312 
L 238.674355 54.101894 
L 241.046848 53.691108 
L 243.413278 53.568 
L 245.769547 53.684273 
L 248.11802 54.003607 
L 250.461495 54.498907 
L 252.800802 55.149272 
L 255.134221 55.937701 
L 259.765079 57.87175 
L 264.30043 60.198572 
L 268.667889 62.826568 
L 272.785811 65.671188 
L 276.570358 68.657313 
L 280.011576 71.801527 
L 281.626839 73.538878 
L 283.093615 75.359637 
L 284.425513 77.247686 
L 285.637033 79.189558 
L 287.756537 83.191168 
L 289.560818 87.289995 
L 291.882145 93.481099 
L 296.072111 105.211398 
L 297.641434 108.864024 
L 297.641434 108.864024 
" style="fill:none;stroke:#ffffff;stroke-linecap:square;"/>
   </g>
   <g id="line2d_17">
    <path clip-path="url(#p1b760d4abe)" d="M 232.306735 295.488 
L 232.583438 277.088406 
L 233.126639 252.708656 
L 233.72299 244.563494 
L 234.379689 236.083212 
L 234.628901 229.547006 
L 234.557823 225.119923 
L 234.21455 220.648476 
L 233.539155 216.219571 
L 232.614922 211.992036 
L 231.491608 207.754179 
L 230.174902 203.527427 
L 228.669887 199.333621 
L 226.981058 195.194914 
L 225.112288 191.133719 
L 223.066754 187.172682 
L 220.846819 183.33471 
L 218.453888 179.643075 
L 217.069581 177.700517 
L 215.470149 175.736385 
L 213.751407 173.943437 
L 211.944363 172.296549 
L 208.164491 169.347839 
L 204.306511 166.73044 
L 195.42947 160.956024 
L 192.656175 158.828316 
L 190.568949 156.838062 
L 189.201115 155.046747 
L 188.689453 154.026721 
L 188.232662 152.729596 
L 187.547386 149.73436 
L 187.196019 146.306566 
L 187.186922 142.572915 
L 187.508263 138.656491 
L 188.136153 134.675329 
L 189.038819 130.743966 
L 190.177865 126.975738 
L 191.507001 123.485337 
L 192.900273 120.507927 
L 193.587077 119.302376 
L 194.416724 118.106349 
L 196.500921 115.729761 
L 199.107564 113.369123 
L 202.14773 111.013798 
L 207.283576 107.419655 
L 212.775656 103.578905 
L 216.450311 100.746233 
L 219.997759 97.574888 
L 221.704076 95.797862 
L 223.298804 93.899968 
L 224.76389 91.915112 
L 227.398167 87.770141 
L 229.753951 83.528061 
L 234.995118 73.683785 
L 236.920739 70.597936 
L 238.664689 68.333117 
L 240.025411 67.001627 
L 241.050721 66.347189 
L 241.877082 66.137194 
L 242.928379 66.032318 
L 244.180861 66.056436 
L 245.604318 66.221448 
L 247.1681 66.530029 
L 250.604486 67.559914 
L 254.28988 69.079629 
L 258.05514 70.99629 
L 261.749865 73.206129 
L 265.232918 75.598329 
L 268.365352 78.052642 
L 270.934339 80.357117 
L 271.957123 81.418659 
L 273.865386 83.886817 
L 275.607855 86.79619 
L 277.205074 90.095649 
L 278.688538 93.716585 
L 280.801348 99.589708 
L 283.72975 107.875237 
L 285.410251 112.066266 
L 286.252186 113.951202 
L 286.252186 113.951202 
" style="fill:none;stroke:#ffffff;stroke-linecap:square;"/>
   </g>
   <g id="patch_3">
    <path d="M 57.6 307.584 
L 57.6 41.472 
" style="fill:none;stroke:#000000;stroke-linecap:square;stroke-linejoin:miter;stroke-width:0.8;"/>
   </g>
   <g id="patch_4">
    <path d="M 414.72 307.584 
L 414.72 41.472 
" style="fill:none;stroke:#000000;stroke-linecap:square;stroke-linejoin:miter;stroke-width:0.8;"/>
   </g>
   <g id="patch_5">
    <path d="M 57.6 307.584 
L 414.72 307.584 
" style="fill:none;stroke:#000000;stroke-linecap:square;stroke-linejoin:miter;stroke-width:0.8;"/>
   </g>
   <g id="patch_6">
    <path d="M 57.6 41.472 
L 414.72 41.472 
" style="fill:none;stroke:#000000;stroke-linecap:square;stroke-linejoin:miter;stroke-width:0.8;"/>
   </g>
  </g>
 </g>
 <defs>
  <clipPath id="p1b760d4abe">
   <rect height="266.112" width="357.12" x="57.6" y="41.472"/>
  </clipPath>
 </defs>
</svg>
