<?xml version="1.0" encoding="utf-8" standalone="no"?>
<!DOCTYPE svg PUBLIC "-//W3C//DTD SVG 1.1//EN"
  "http://www.w3.org/Graphics/SVG/1.1/DTD/svg11.dtd">
<!-- Created with matplotlib (https://matplotlib.org/) -->
<svg height="345.6pt" version="1.1" viewBox="0 0 460.8 345.6" width="460.8pt" xmlns="http://www.w3.org/2000/svg" xmlns:xlink="http://www.w3.org/1999/xlink">
 <metadata>
  <rdf:RDF xmlns:cc="http://creativecommons.org/ns#" xmlns:dc="http://purl.org/dc/elements/1.1/" xmlns:rdf="http://www.w3.org/1999/02/22-rdf-syntax-ns#">
   <cc:Work>
    <dc:type rdf:resource="http://purl.org/dc/dcmitype/StillImage"/>
    <dc:date>2021-05-30T10:46:41.635068</dc:date>
    <dc:format>image/svg+xml</dc:format>
    <dc:creator>
     <cc:Agent>
      <dc:title>Matplotlib v3.3.3, https://matplotlib.org/</dc:title>
     </cc:Agent>
    </dc:creator>
   </cc:Work>
  </rdf:RDF>
 </metadata>
 <defs>
  <style type="text/css">*{stroke-linecap:butt;stroke-linejoin:round;}</style>
 </defs>
 <g id="figure_1">
  <g id="patch_1">
   <path d="M 0 345.6 
L 460.8 345.6 
L 460.8 0 
L 0 0 
z
" style="fill:#ffffff;"/>
  </g>
  <g id="axes_1">
   <g id="patch_2">
    <path d="M 57.6 307.584 
L 414.72 307.584 
L 414.72 41.472 
L 57.6 41.472 
z
" style="fill:#7d9051;"/>
   </g>
   <g id="matplotlib.axis_1">
    <g id="xtick_1">
     <g id="line2d_1">
      <defs>
       <path d="M 0 0 
L 0 3.5 
" id="m23d2cb4ff8" style="stroke:#000000;stroke-width:0.8;"/>
      </defs>
      <g>
       <use style="stroke:#000000;stroke-width:0.8;" x="71.667853" xlink:href="#m23d2cb4ff8" y="307.584"/>
      </g>
     </g>
     <g id="text_1">
      <!-- −150 -->
      <g transform="translate(57.93426 322.182437)scale(0.1 -0.1)">
       <defs>
        <path d="M 10.59375 35.5 
L 73.1875 35.5 
L 73.1875 27.203125 
L 10.59375 27.203125 
z
" id="DejaVuSans-8722"/>
        <path d="M 12.40625 8.296875 
L 28.515625 8.296875 
L 28.515625 63.921875 
L 10.984375 60.40625 
L 10.984375 69.390625 
L 28.421875 72.90625 
L 38.28125 72.90625 
L 38.28125 8.296875 
L 54.390625 8.296875 
L 54.390625 0 
L 12.40625 0 
z
" id="DejaVuSans-49"/>
        <path d="M 10.796875 72.90625 
L 49.515625 72.90625 
L 49.515625 64.59375 
L 19.828125 64.59375 
L 19.828125 46.734375 
Q 21.96875 47.46875 24.109375 47.828125 
Q 26.265625 48.1875 28.421875 48.1875 
Q 40.625 48.1875 47.75 41.5 
Q 54.890625 34.8125 54.890625 23.390625 
Q 54.890625 11.625 47.5625 5.09375 
Q 40.234375 -1.421875 26.90625 -1.421875 
Q 22.3125 -1.421875 17.546875 -0.640625 
Q 12.796875 0.140625 7.71875 1.703125 
L 7.71875 11.625 
Q 12.109375 9.234375 16.796875 8.0625 
Q 21.484375 6.890625 26.703125 6.890625 
Q 35.15625 6.890625 40.078125 11.328125 
Q 45.015625 15.765625 45.015625 23.390625 
Q 45.015625 31 40.078125 35.4375 
Q 35.15625 39.890625 26.703125 39.890625 
Q 22.75 39.890625 18.8125 39.015625 
Q 14.890625 38.140625 10.796875 36.28125 
z
" id="DejaVuSans-53"/>
        <path d="M 31.78125 66.40625 
Q 24.171875 66.40625 20.328125 58.90625 
Q 16.5 51.421875 16.5 36.375 
Q 16.5 21.390625 20.328125 13.890625 
Q 24.171875 6.390625 31.78125 6.390625 
Q 39.453125 6.390625 43.28125 13.890625 
Q 47.125 21.390625 47.125 36.375 
Q 47.125 51.421875 43.28125 58.90625 
Q 39.453125 66.40625 31.78125 66.40625 
z
M 31.78125 74.21875 
Q 44.046875 74.21875 50.515625 64.515625 
Q 56.984375 54.828125 56.984375 36.375 
Q 56.984375 17.96875 50.515625 8.265625 
Q 44.046875 -1.421875 31.78125 -1.421875 
Q 19.53125 -1.421875 13.0625 8.265625 
Q 6.59375 17.96875 6.59375 36.375 
Q 6.59375 54.828125 13.0625 64.515625 
Q 19.53125 74.21875 31.78125 74.21875 
z
" id="DejaVuSans-48"/>
       </defs>
       <use xlink:href="#DejaVuSans-8722"/>
       <use x="83.789062" xlink:href="#DejaVuSans-49"/>
       <use x="147.412109" xlink:href="#DejaVuSans-53"/>
       <use x="211.035156" xlink:href="#DejaVuSans-48"/>
      </g>
     </g>
    </g>
    <g id="xtick_2">
     <g id="line2d_2">
      <g>
       <use style="stroke:#000000;stroke-width:0.8;" x="142.066344" xlink:href="#m23d2cb4ff8" y="307.584"/>
      </g>
     </g>
     <g id="text_2">
      <!-- −100 -->
      <g transform="translate(128.33275 322.182437)scale(0.1 -0.1)">
       <use xlink:href="#DejaVuSans-8722"/>
       <use x="83.789062" xlink:href="#DejaVuSans-49"/>
       <use x="147.412109" xlink:href="#DejaVuSans-48"/>
       <use x="211.035156" xlink:href="#DejaVuSans-48"/>
      </g>
     </g>
    </g>
    <g id="xtick_3">
     <g id="line2d_3">
      <g>
       <use style="stroke:#000000;stroke-width:0.8;" x="212.464834" xlink:href="#m23d2cb4ff8" y="307.584"/>
      </g>
     </g>
     <g id="text_3">
      <!-- −50 -->
      <g transform="translate(201.912491 322.182437)scale(0.1 -0.1)">
       <use xlink:href="#DejaVuSans-8722"/>
       <use x="83.789062" xlink:href="#DejaVuSans-53"/>
       <use x="147.412109" xlink:href="#DejaVuSans-48"/>
      </g>
     </g>
    </g>
    <g id="xtick_4">
     <g id="line2d_4">
      <g>
       <use style="stroke:#000000;stroke-width:0.8;" x="282.863325" xlink:href="#m23d2cb4ff8" y="307.584"/>
      </g>
     </g>
     <g id="text_4">
      <!-- 0 -->
      <g transform="translate(279.682075 322.182437)scale(0.1 -0.1)">
       <use xlink:href="#DejaVuSans-48"/>
      </g>
     </g>
    </g>
    <g id="xtick_5">
     <g id="line2d_5">
      <g>
       <use style="stroke:#000000;stroke-width:0.8;" x="353.261815" xlink:href="#m23d2cb4ff8" y="307.584"/>
      </g>
     </g>
     <g id="text_5">
      <!-- 50 -->
      <g transform="translate(346.899315 322.182437)scale(0.1 -0.1)">
       <use xlink:href="#DejaVuSans-53"/>
       <use x="63.623047" xlink:href="#DejaVuSans-48"/>
      </g>
     </g>
    </g>
   </g>
   <g id="matplotlib.axis_2">
    <g id="ytick_1">
     <g id="line2d_6">
      <defs>
       <path d="M 0 0 
L -3.5 0 
" id="m3dc69ecb49" style="stroke:#000000;stroke-width:0.8;"/>
      </defs>
      <g>
       <use style="stroke:#000000;stroke-width:0.8;" x="57.6" xlink:href="#m3dc69ecb49" y="295.433816"/>
      </g>
     </g>
     <g id="text_6">
      <!-- 0 -->
      <g transform="translate(44.2375 299.233035)scale(0.1 -0.1)">
       <use xlink:href="#DejaVuSans-48"/>
      </g>
     </g>
    </g>
    <g id="ytick_2">
     <g id="line2d_7">
      <g>
       <use style="stroke:#000000;stroke-width:0.8;" x="57.6" xlink:href="#m3dc69ecb49" y="260.234571"/>
      </g>
     </g>
     <g id="text_7">
      <!-- 25 -->
      <g transform="translate(37.875 264.03379)scale(0.1 -0.1)">
       <defs>
        <path d="M 19.1875 8.296875 
L 53.609375 8.296875 
L 53.609375 0 
L 7.328125 0 
L 7.328125 8.296875 
Q 12.9375 14.109375 22.625 23.890625 
Q 32.328125 33.6875 34.8125 36.53125 
Q 39.546875 41.84375 41.421875 45.53125 
Q 43.3125 49.21875 43.3125 52.78125 
Q 43.3125 58.59375 39.234375 62.25 
Q 35.15625 65.921875 28.609375 65.921875 
Q 23.96875 65.921875 18.8125 64.3125 
Q 13.671875 62.703125 7.8125 59.421875 
L 7.8125 69.390625 
Q 13.765625 71.78125 18.9375 73 
Q 24.125 74.21875 28.421875 74.21875 
Q 39.75 74.21875 46.484375 68.546875 
Q 53.21875 62.890625 53.21875 53.421875 
Q 53.21875 48.921875 51.53125 44.890625 
Q 49.859375 40.875 45.40625 35.40625 
Q 44.1875 33.984375 37.640625 27.21875 
Q 31.109375 20.453125 19.1875 8.296875 
z
" id="DejaVuSans-50"/>
       </defs>
       <use xlink:href="#DejaVuSans-50"/>
       <use x="63.623047" xlink:href="#DejaVuSans-53"/>
      </g>
     </g>
    </g>
    <g id="ytick_3">
     <g id="line2d_8">
      <g>
       <use style="stroke:#000000;stroke-width:0.8;" x="57.6" xlink:href="#m3dc69ecb49" y="225.035326"/>
      </g>
     </g>
     <g id="text_8">
      <!-- 50 -->
      <g transform="translate(37.875 228.834544)scale(0.1 -0.1)">
       <use xlink:href="#DejaVuSans-53"/>
       <use x="63.623047" xlink:href="#DejaVuSans-48"/>
      </g>
     </g>
    </g>
    <g id="ytick_4">
     <g id="line2d_9">
      <g>
       <use style="stroke:#000000;stroke-width:0.8;" x="57.6" xlink:href="#m3dc69ecb49" y="189.83608"/>
      </g>
     </g>
     <g id="text_9">
      <!-- 75 -->
      <g transform="translate(37.875 193.635299)scale(0.1 -0.1)">
       <defs>
        <path d="M 8.203125 72.90625 
L 55.078125 72.90625 
L 55.078125 68.703125 
L 28.609375 0 
L 18.3125 0 
L 43.21875 64.59375 
L 8.203125 64.59375 
z
" id="DejaVuSans-55"/>
       </defs>
       <use xlink:href="#DejaVuSans-55"/>
       <use x="63.623047" xlink:href="#DejaVuSans-53"/>
      </g>
     </g>
    </g>
    <g id="ytick_5">
     <g id="line2d_10">
      <g>
       <use style="stroke:#000000;stroke-width:0.8;" x="57.6" xlink:href="#m3dc69ecb49" y="154.636835"/>
      </g>
     </g>
     <g id="text_10">
      <!-- 100 -->
      <g transform="translate(31.5125 158.436054)scale(0.1 -0.1)">
       <use xlink:href="#DejaVuSans-49"/>
       <use x="63.623047" xlink:href="#DejaVuSans-48"/>
       <use x="127.246094" xlink:href="#DejaVuSans-48"/>
      </g>
     </g>
    </g>
    <g id="ytick_6">
     <g id="line2d_11">
      <g>
       <use style="stroke:#000000;stroke-width:0.8;" x="57.6" xlink:href="#m3dc69ecb49" y="119.43759"/>
      </g>
     </g>
     <g id="text_11">
      <!-- 125 -->
      <g transform="translate(31.5125 123.236809)scale(0.1 -0.1)">
       <use xlink:href="#DejaVuSans-49"/>
       <use x="63.623047" xlink:href="#DejaVuSans-50"/>
       <use x="127.246094" xlink:href="#DejaVuSans-53"/>
      </g>
     </g>
    </g>
    <g id="ytick_7">
     <g id="line2d_12">
      <g>
       <use style="stroke:#000000;stroke-width:0.8;" x="57.6" xlink:href="#m3dc69ecb49" y="84.238345"/>
      </g>
     </g>
     <g id="text_12">
      <!-- 150 -->
      <g transform="translate(31.5125 88.037563)scale(0.1 -0.1)">
       <use xlink:href="#DejaVuSans-49"/>
       <use x="63.623047" xlink:href="#DejaVuSans-53"/>
       <use x="127.246094" xlink:href="#DejaVuSans-48"/>
      </g>
     </g>
    </g>
    <g id="ytick_8">
     <g id="line2d_13">
      <g>
       <use style="stroke:#000000;stroke-width:0.8;" x="57.6" xlink:href="#m3dc69ecb49" y="49.039099"/>
      </g>
     </g>
     <g id="text_13">
      <!-- 175 -->
      <g transform="translate(31.5125 52.838318)scale(0.1 -0.1)">
       <use xlink:href="#DejaVuSans-49"/>
       <use x="63.623047" xlink:href="#DejaVuSans-55"/>
       <use x="127.246094" xlink:href="#DejaVuSans-53"/>
      </g>
     </g>
    </g>
   </g>
   <g id="line2d_14">
    <path clip-path="url(#pa16774d23f)" d="M 282.863325 295.433816 
L 283.150374 276.910403 
L 283.543998 258.373526 
L 283.846872 254.570238 
L 284.815604 246.813307 
L 285.502451 241.012053 
L 285.771294 237.22286 
L 285.783023 233.540167 
L 285.446892 230.001563 
L 285.12002 228.298041 
L 284.672153 226.644636 
L 284.091948 225.046048 
L 283.329016 223.518501 
L 282.357609 222.069048 
L 281.203347 220.688626 
L 279.891848 219.368171 
L 276.899616 216.870911 
L 273.585861 214.504765 
L 266.813589 209.875798 
L 263.764972 207.467969 
L 262.414708 206.208998 
L 261.214634 204.901238 
L 260.190367 203.535627 
L 259.367526 202.103101 
L 258.77173 200.594597 
L 258.398853 199.019066 
L 258.215323 197.394211 
L 258.202588 195.724097 
L 258.3421 194.01279 
L 259.003661 190.482857 
L 260.051601 186.836938 
L 262.023343 181.221729 
L 264.029673 175.528499 
L 265.139105 171.743874 
L 265.892904 168.005884 
L 266.195679 164.332147 
L 266.28158 160.654916 
L 266.141218 155.114725 
L 265.748369 149.556142 
L 264.969031 142.137134 
L 262.696789 123.705366 
L 261.298018 114.547584 
L 258.774037 99.934009 
L 257.840774 94.416223 
L 257.434569 90.454843 
L 256.963658 82.058557 
L 256.533531 75.820115 
L 256.03121 71.914431 
L 255.245099 68.351549 
L 254.7158 66.736208 
L 254.079767 65.251624 
L 253.325073 63.912819 
L 252.439787 62.73481 
L 251.411982 61.732618 
L 250.232109 60.917342 
L 248.906882 60.279812 
L 247.448761 59.804649 
L 245.870205 59.47647 
L 244.183676 59.279894 
L 240.536536 59.220026 
L 236.607023 59.501995 
L 230.40136 60.296719 
L 222.069201 61.404307 
L 218.102575 61.701789 
L 212.507811 61.696882 
L 192.131339 61.378652 
L 181.018852 61.118307 
L 181.018852 61.118307 
" style="fill:none;stroke:#fea952;stroke-linecap:square;"/>
   </g>
   <g id="line2d_15">
    <path clip-path="url(#pa16774d23f)" d="M 277.231706 295.379632 
L 277.519623 276.797685 
L 277.924744 257.996646 
L 278.24933 253.949277 
L 279.230362 246.090024 
L 279.890539 240.538231 
L 280.140972 237.090439 
L 280.163535 233.913547 
L 279.915912 231.062847 
L 279.378181 228.566075 
L 278.650627 226.653903 
L 278.037104 225.681707 
L 277.207479 224.657391 
L 276.171919 223.596669 
L 273.569187 221.412531 
L 270.434945 219.172719 
L 263.419412 214.369975 
L 259.924316 211.587123 
L 258.265192 210.016829 
L 256.709223 208.280489 
L 255.306786 206.340748 
L 254.1294 204.171942 
L 253.291245 201.89165 
L 252.80256 199.651178 
L 252.583607 197.437151 
L 252.589331 195.266484 
L 252.777743 193.143313 
L 253.112656 191.064819 
L 254.104333 187.020808 
L 255.365364 183.100349 
L 259.189424 172.138539 
L 260.020886 168.903507 
L 260.467517 165.840471 
L 260.627099 162.424952 
L 260.593201 157.203736 
L 260.289944 151.876766 
L 259.587474 144.635241 
L 257.369275 126.306327 
L 256.033803 117.275461 
L 253.874489 104.564985 
L 252.246821 95.068717 
L 251.81609 90.843106 
L 251.340294 82.368136 
L 250.936327 76.444115 
L 250.500304 72.976099 
L 249.893205 70.105203 
L 249.173693 68.017215 
L 248.508007 66.767076 
L 248.210397 66.365967 
L 247.7906 65.992487 
L 247.161915 65.634544 
L 246.302414 65.318627 
L 245.218187 65.070479 
L 243.929987 64.906056 
L 240.844323 64.843488 
L 237.240097 65.098179 
L 231.20373 65.871149 
L 222.579536 67.013016 
L 218.194435 67.33292 
L 212.44573 67.328419 
L 192.012361 67.009274 
L 180.874013 66.748323 
L 180.874013 66.748323 
" style="fill:none;stroke:#ffffff;stroke-linecap:square;"/>
   </g>
   <g id="line2d_16">
    <path clip-path="url(#pa16774d23f)" d="M 288.494943 295.488 
L 288.781125 277.02312 
L 289.27902 256.998383 
L 289.884913 251.437689 
L 291.114363 241.485876 
L 291.401617 237.355281 
L 291.402512 233.166788 
L 291.253049 231.056354 
L 290.977872 228.940279 
L 290.556 226.825567 
L 289.966125 224.723197 
L 289.130363 222.529614 
L 288.007404 220.3831 
L 286.678114 218.45639 
L 285.199215 216.71986 
L 283.611777 215.139673 
L 280.230044 212.329291 
L 276.736777 209.836811 
L 270.207766 205.381621 
L 267.605627 203.348816 
L 265.720044 201.521987 
L 264.605652 200.03426 
L 264.252215 199.297544 
L 263.995146 198.386955 
L 263.847038 197.351271 
L 263.815845 196.18171 
L 263.906458 194.882267 
L 264.443768 191.940011 
L 265.391249 188.62753 
L 267.315463 183.14826 
L 269.407316 177.201528 
L 270.628352 173.003334 
L 271.118582 170.830527 
L 271.492774 168.605486 
L 271.824263 164.524778 
L 271.913301 160.612669 
L 271.763747 154.790338 
L 271.355816 149.032123 
L 270.561329 141.470607 
L 268.271902 122.907758 
L 266.854706 113.63037 
L 264.319515 98.951289 
L 263.434728 93.763728 
L 263.053049 90.06658 
L 262.587022 81.748977 
L 262.130735 75.196115 
L 261.562116 70.852764 
L 261.142036 68.711581 
L 260.596992 66.597896 
L 259.892588 64.518343 
L 258.985842 62.486033 
L 257.82731 60.52934 
L 256.371567 58.702544 
L 254.613566 57.099269 
L 252.673619 55.842197 
L 250.651849 54.92508 
L 248.595108 54.290671 
L 246.522223 53.882461 
L 244.437365 53.653731 
L 242.339775 53.568 
L 238.105565 53.715913 
L 233.839948 54.148031 
L 219.729637 55.964978 
L 216.26447 56.100977 
L 195.944554 55.820994 
L 181.163691 55.48829 
L 181.163691 55.48829 
" style="fill:none;stroke:#ffffff;stroke-linecap:square;"/>
   </g>
   <g id="patch_3">
    <path d="M 57.6 307.584 
L 57.6 41.472 
" style="fill:none;stroke:#000000;stroke-linecap:square;stroke-linejoin:miter;stroke-width:0.8;"/>
   </g>
   <g id="patch_4">
    <path d="M 414.72 307.584 
L 414.72 41.472 
" style="fill:none;stroke:#000000;stroke-linecap:square;stroke-linejoin:miter;stroke-width:0.8;"/>
   </g>
   <g id="patch_5">
    <path d="M 57.6 307.584 
L 414.72 307.584 
" style="fill:none;stroke:#000000;stroke-linecap:square;stroke-linejoin:miter;stroke-width:0.8;"/>
   </g>
   <g id="patch_6">
    <path d="M 57.6 41.472 
L 414.72 41.472 
" style="fill:none;stroke:#000000;stroke-linecap:square;stroke-linejoin:miter;stroke-width:0.8;"/>
   </g>
  </g>
 </g>
 <defs>
  <clipPath id="pa16774d23f">
   <rect height="266.112" width="357.12" x="57.6" y="41.472"/>
  </clipPath>
 </defs>
</svg>
