<?xml version="1.0" encoding="utf-8" standalone="no"?>
<!DOCTYPE svg PUBLIC "-//W3C//DTD SVG 1.1//EN"
  "http://www.w3.org/Graphics/SVG/1.1/DTD/svg11.dtd">
<!-- Created with matplotlib (https://matplotlib.org/) -->
<svg height="345.6pt" version="1.1" viewBox="0 0 460.8 345.6" width="460.8pt" xmlns="http://www.w3.org/2000/svg" xmlns:xlink="http://www.w3.org/1999/xlink">
 <metadata>
  <rdf:RDF xmlns:cc="http://creativecommons.org/ns#" xmlns:dc="http://purl.org/dc/elements/1.1/" xmlns:rdf="http://www.w3.org/1999/02/22-rdf-syntax-ns#">
   <cc:Work>
    <dc:type rdf:resource="http://purl.org/dc/dcmitype/StillImage"/>
    <dc:date>2021-06-19T19:13:43.068918</dc:date>
    <dc:format>image/svg+xml</dc:format>
    <dc:creator>
     <cc:Agent>
      <dc:title>Matplotlib v3.3.3, https://matplotlib.org/</dc:title>
     </cc:Agent>
    </dc:creator>
   </cc:Work>
  </rdf:RDF>
 </metadata>
 <defs>
  <style type="text/css">*{stroke-linecap:butt;stroke-linejoin:round;}</style>
 </defs>
 <g id="figure_1">
  <g id="patch_1">
   <path d="M 0 345.6 
L 460.8 345.6 
L 460.8 0 
L 0 0 
z
" style="fill:#ffffff;"/>
  </g>
  <g id="axes_1">
   <g id="patch_2">
    <path d="M 57.6 307.584 
L 414.72 307.584 
L 414.72 41.472 
L 57.6 41.472 
z
" style="fill:#7d9051;"/>
   </g>
   <g id="matplotlib.axis_1">
    <g id="xtick_1">
     <g id="line2d_1">
      <defs>
       <path d="M 0 0 
L 0 3.5 
" id="m19223047e6" style="stroke:#000000;stroke-width:0.8;"/>
      </defs>
      <g>
       <use style="stroke:#000000;stroke-width:0.8;" x="65.51924" xlink:href="#m19223047e6" y="307.584"/>
      </g>
     </g>
     <g id="text_1">
      <!-- −140 -->
      <g transform="translate(51.785646 322.182437)scale(0.1 -0.1)">
       <defs>
        <path d="M 10.59375 35.5 
L 73.1875 35.5 
L 73.1875 27.203125 
L 10.59375 27.203125 
z
" id="DejaVuSans-8722"/>
        <path d="M 12.40625 8.296875 
L 28.515625 8.296875 
L 28.515625 63.921875 
L 10.984375 60.40625 
L 10.984375 69.390625 
L 28.421875 72.90625 
L 38.28125 72.90625 
L 38.28125 8.296875 
L 54.390625 8.296875 
L 54.390625 0 
L 12.40625 0 
z
" id="DejaVuSans-49"/>
        <path d="M 37.796875 64.3125 
L 12.890625 25.390625 
L 37.796875 25.390625 
z
M 35.203125 72.90625 
L 47.609375 72.90625 
L 47.609375 25.390625 
L 58.015625 25.390625 
L 58.015625 17.1875 
L 47.609375 17.1875 
L 47.609375 0 
L 37.796875 0 
L 37.796875 17.1875 
L 4.890625 17.1875 
L 4.890625 26.703125 
z
" id="DejaVuSans-52"/>
        <path d="M 31.78125 66.40625 
Q 24.171875 66.40625 20.328125 58.90625 
Q 16.5 51.421875 16.5 36.375 
Q 16.5 21.390625 20.328125 13.890625 
Q 24.171875 6.390625 31.78125 6.390625 
Q 39.453125 6.390625 43.28125 13.890625 
Q 47.125 21.390625 47.125 36.375 
Q 47.125 51.421875 43.28125 58.90625 
Q 39.453125 66.40625 31.78125 66.40625 
z
M 31.78125 74.21875 
Q 44.046875 74.21875 50.515625 64.515625 
Q 56.984375 54.828125 56.984375 36.375 
Q 56.984375 17.96875 50.515625 8.265625 
Q 44.046875 -1.421875 31.78125 -1.421875 
Q 19.53125 -1.421875 13.0625 8.265625 
Q 6.59375 17.96875 6.59375 36.375 
Q 6.59375 54.828125 13.0625 64.515625 
Q 19.53125 74.21875 31.78125 74.21875 
z
" id="DejaVuSans-48"/>
       </defs>
       <use xlink:href="#DejaVuSans-8722"/>
       <use x="83.789062" xlink:href="#DejaVuSans-49"/>
       <use x="147.412109" xlink:href="#DejaVuSans-52"/>
       <use x="211.035156" xlink:href="#DejaVuSans-48"/>
      </g>
     </g>
    </g>
    <g id="xtick_2">
     <g id="line2d_2">
      <g>
       <use style="stroke:#000000;stroke-width:0.8;" x="110.955213" xlink:href="#m19223047e6" y="307.584"/>
      </g>
     </g>
     <g id="text_2">
      <!-- −120 -->
      <g transform="translate(97.221619 322.182437)scale(0.1 -0.1)">
       <defs>
        <path d="M 19.1875 8.296875 
L 53.609375 8.296875 
L 53.609375 0 
L 7.328125 0 
L 7.328125 8.296875 
Q 12.9375 14.109375 22.625 23.890625 
Q 32.328125 33.6875 34.8125 36.53125 
Q 39.546875 41.84375 41.421875 45.53125 
Q 43.3125 49.21875 43.3125 52.78125 
Q 43.3125 58.59375 39.234375 62.25 
Q 35.15625 65.921875 28.609375 65.921875 
Q 23.96875 65.921875 18.8125 64.3125 
Q 13.671875 62.703125 7.8125 59.421875 
L 7.8125 69.390625 
Q 13.765625 71.78125 18.9375 73 
Q 24.125 74.21875 28.421875 74.21875 
Q 39.75 74.21875 46.484375 68.546875 
Q 53.21875 62.890625 53.21875 53.421875 
Q 53.21875 48.921875 51.53125 44.890625 
Q 49.859375 40.875 45.40625 35.40625 
Q 44.1875 33.984375 37.640625 27.21875 
Q 31.109375 20.453125 19.1875 8.296875 
z
" id="DejaVuSans-50"/>
       </defs>
       <use xlink:href="#DejaVuSans-8722"/>
       <use x="83.789062" xlink:href="#DejaVuSans-49"/>
       <use x="147.412109" xlink:href="#DejaVuSans-50"/>
       <use x="211.035156" xlink:href="#DejaVuSans-48"/>
      </g>
     </g>
    </g>
    <g id="xtick_3">
     <g id="line2d_3">
      <g>
       <use style="stroke:#000000;stroke-width:0.8;" x="156.391186" xlink:href="#m19223047e6" y="307.584"/>
      </g>
     </g>
     <g id="text_3">
      <!-- −100 -->
      <g transform="translate(142.657592 322.182437)scale(0.1 -0.1)">
       <use xlink:href="#DejaVuSans-8722"/>
       <use x="83.789062" xlink:href="#DejaVuSans-49"/>
       <use x="147.412109" xlink:href="#DejaVuSans-48"/>
       <use x="211.035156" xlink:href="#DejaVuSans-48"/>
      </g>
     </g>
    </g>
    <g id="xtick_4">
     <g id="line2d_4">
      <g>
       <use style="stroke:#000000;stroke-width:0.8;" x="201.827159" xlink:href="#m19223047e6" y="307.584"/>
      </g>
     </g>
     <g id="text_4">
      <!-- −80 -->
      <g transform="translate(191.274815 322.182437)scale(0.1 -0.1)">
       <defs>
        <path d="M 31.78125 34.625 
Q 24.75 34.625 20.71875 30.859375 
Q 16.703125 27.09375 16.703125 20.515625 
Q 16.703125 13.921875 20.71875 10.15625 
Q 24.75 6.390625 31.78125 6.390625 
Q 38.8125 6.390625 42.859375 10.171875 
Q 46.921875 13.96875 46.921875 20.515625 
Q 46.921875 27.09375 42.890625 30.859375 
Q 38.875 34.625 31.78125 34.625 
z
M 21.921875 38.8125 
Q 15.578125 40.375 12.03125 44.71875 
Q 8.5 49.078125 8.5 55.328125 
Q 8.5 64.0625 14.71875 69.140625 
Q 20.953125 74.21875 31.78125 74.21875 
Q 42.671875 74.21875 48.875 69.140625 
Q 55.078125 64.0625 55.078125 55.328125 
Q 55.078125 49.078125 51.53125 44.71875 
Q 48 40.375 41.703125 38.8125 
Q 48.828125 37.15625 52.796875 32.3125 
Q 56.78125 27.484375 56.78125 20.515625 
Q 56.78125 9.90625 50.3125 4.234375 
Q 43.84375 -1.421875 31.78125 -1.421875 
Q 19.734375 -1.421875 13.25 4.234375 
Q 6.78125 9.90625 6.78125 20.515625 
Q 6.78125 27.484375 10.78125 32.3125 
Q 14.796875 37.15625 21.921875 38.8125 
z
M 18.3125 54.390625 
Q 18.3125 48.734375 21.84375 45.5625 
Q 25.390625 42.390625 31.78125 42.390625 
Q 38.140625 42.390625 41.71875 45.5625 
Q 45.3125 48.734375 45.3125 54.390625 
Q 45.3125 60.0625 41.71875 63.234375 
Q 38.140625 66.40625 31.78125 66.40625 
Q 25.390625 66.40625 21.84375 63.234375 
Q 18.3125 60.0625 18.3125 54.390625 
z
" id="DejaVuSans-56"/>
       </defs>
       <use xlink:href="#DejaVuSans-8722"/>
       <use x="83.789062" xlink:href="#DejaVuSans-56"/>
       <use x="147.412109" xlink:href="#DejaVuSans-48"/>
      </g>
     </g>
    </g>
    <g id="xtick_5">
     <g id="line2d_5">
      <g>
       <use style="stroke:#000000;stroke-width:0.8;" x="247.263132" xlink:href="#m19223047e6" y="307.584"/>
      </g>
     </g>
     <g id="text_5">
      <!-- −60 -->
      <g transform="translate(236.710788 322.182437)scale(0.1 -0.1)">
       <defs>
        <path d="M 33.015625 40.375 
Q 26.375 40.375 22.484375 35.828125 
Q 18.609375 31.296875 18.609375 23.390625 
Q 18.609375 15.53125 22.484375 10.953125 
Q 26.375 6.390625 33.015625 6.390625 
Q 39.65625 6.390625 43.53125 10.953125 
Q 47.40625 15.53125 47.40625 23.390625 
Q 47.40625 31.296875 43.53125 35.828125 
Q 39.65625 40.375 33.015625 40.375 
z
M 52.59375 71.296875 
L 52.59375 62.3125 
Q 48.875 64.0625 45.09375 64.984375 
Q 41.3125 65.921875 37.59375 65.921875 
Q 27.828125 65.921875 22.671875 59.328125 
Q 17.53125 52.734375 16.796875 39.40625 
Q 19.671875 43.65625 24.015625 45.921875 
Q 28.375 48.1875 33.59375 48.1875 
Q 44.578125 48.1875 50.953125 41.515625 
Q 57.328125 34.859375 57.328125 23.390625 
Q 57.328125 12.15625 50.6875 5.359375 
Q 44.046875 -1.421875 33.015625 -1.421875 
Q 20.359375 -1.421875 13.671875 8.265625 
Q 6.984375 17.96875 6.984375 36.375 
Q 6.984375 53.65625 15.1875 63.9375 
Q 23.390625 74.21875 37.203125 74.21875 
Q 40.921875 74.21875 44.703125 73.484375 
Q 48.484375 72.75 52.59375 71.296875 
z
" id="DejaVuSans-54"/>
       </defs>
       <use xlink:href="#DejaVuSans-8722"/>
       <use x="83.789062" xlink:href="#DejaVuSans-54"/>
       <use x="147.412109" xlink:href="#DejaVuSans-48"/>
      </g>
     </g>
    </g>
    <g id="xtick_6">
     <g id="line2d_6">
      <g>
       <use style="stroke:#000000;stroke-width:0.8;" x="292.699105" xlink:href="#m19223047e6" y="307.584"/>
      </g>
     </g>
     <g id="text_6">
      <!-- −40 -->
      <g transform="translate(282.146761 322.182437)scale(0.1 -0.1)">
       <use xlink:href="#DejaVuSans-8722"/>
       <use x="83.789062" xlink:href="#DejaVuSans-52"/>
       <use x="147.412109" xlink:href="#DejaVuSans-48"/>
      </g>
     </g>
    </g>
    <g id="xtick_7">
     <g id="line2d_7">
      <g>
       <use style="stroke:#000000;stroke-width:0.8;" x="338.135077" xlink:href="#m19223047e6" y="307.584"/>
      </g>
     </g>
     <g id="text_7">
      <!-- −20 -->
      <g transform="translate(327.582734 322.182437)scale(0.1 -0.1)">
       <use xlink:href="#DejaVuSans-8722"/>
       <use x="83.789062" xlink:href="#DejaVuSans-50"/>
       <use x="147.412109" xlink:href="#DejaVuSans-48"/>
      </g>
     </g>
    </g>
    <g id="xtick_8">
     <g id="line2d_8">
      <g>
       <use style="stroke:#000000;stroke-width:0.8;" x="383.57105" xlink:href="#m19223047e6" y="307.584"/>
      </g>
     </g>
     <g id="text_8">
      <!-- 0 -->
      <g transform="translate(380.3898 322.182437)scale(0.1 -0.1)">
       <use xlink:href="#DejaVuSans-48"/>
      </g>
     </g>
    </g>
   </g>
   <g id="matplotlib.axis_2">
    <g id="ytick_1">
     <g id="line2d_9">
      <defs>
       <path d="M 0 0 
L -3.5 0 
" id="mbd0c2628a4" style="stroke:#000000;stroke-width:0.8;"/>
      </defs>
      <g>
       <use style="stroke:#000000;stroke-width:0.8;" x="57.6" xlink:href="#mbd0c2628a4" y="288.656611"/>
      </g>
     </g>
     <g id="text_9">
      <!-- −20 -->
      <g transform="translate(29.495313 292.45583)scale(0.1 -0.1)">
       <use xlink:href="#DejaVuSans-8722"/>
       <use x="83.789062" xlink:href="#DejaVuSans-50"/>
       <use x="147.412109" xlink:href="#DejaVuSans-48"/>
      </g>
     </g>
    </g>
    <g id="ytick_2">
     <g id="line2d_10">
      <g>
       <use style="stroke:#000000;stroke-width:0.8;" x="57.6" xlink:href="#mbd0c2628a4" y="243.220639"/>
      </g>
     </g>
     <g id="text_10">
      <!-- 0 -->
      <g transform="translate(44.2375 247.019857)scale(0.1 -0.1)">
       <use xlink:href="#DejaVuSans-48"/>
      </g>
     </g>
    </g>
    <g id="ytick_3">
     <g id="line2d_11">
      <g>
       <use style="stroke:#000000;stroke-width:0.8;" x="57.6" xlink:href="#mbd0c2628a4" y="197.784666"/>
      </g>
     </g>
     <g id="text_11">
      <!-- 20 -->
      <g transform="translate(37.875 201.583884)scale(0.1 -0.1)">
       <use xlink:href="#DejaVuSans-50"/>
       <use x="63.623047" xlink:href="#DejaVuSans-48"/>
      </g>
     </g>
    </g>
    <g id="ytick_4">
     <g id="line2d_12">
      <g>
       <use style="stroke:#000000;stroke-width:0.8;" x="57.6" xlink:href="#mbd0c2628a4" y="152.348693"/>
      </g>
     </g>
     <g id="text_12">
      <!-- 40 -->
      <g transform="translate(37.875 156.147912)scale(0.1 -0.1)">
       <use xlink:href="#DejaVuSans-52"/>
       <use x="63.623047" xlink:href="#DejaVuSans-48"/>
      </g>
     </g>
    </g>
    <g id="ytick_5">
     <g id="line2d_13">
      <g>
       <use style="stroke:#000000;stroke-width:0.8;" x="57.6" xlink:href="#mbd0c2628a4" y="106.91272"/>
      </g>
     </g>
     <g id="text_13">
      <!-- 60 -->
      <g transform="translate(37.875 110.711939)scale(0.1 -0.1)">
       <use xlink:href="#DejaVuSans-54"/>
       <use x="63.623047" xlink:href="#DejaVuSans-48"/>
      </g>
     </g>
    </g>
    <g id="ytick_6">
     <g id="line2d_14">
      <g>
       <use style="stroke:#000000;stroke-width:0.8;" x="57.6" xlink:href="#mbd0c2628a4" y="61.476747"/>
      </g>
     </g>
     <g id="text_14">
      <!-- 80 -->
      <g transform="translate(37.875 65.275966)scale(0.1 -0.1)">
       <use xlink:href="#DejaVuSans-56"/>
       <use x="63.623047" xlink:href="#DejaVuSans-48"/>
      </g>
     </g>
    </g>
   </g>
   <g id="line2d_15">
    <path clip-path="url(#p7847dd43e2)" d="M 383.57105 243.220639 
L 383.863398 222.298729 
L 384.688342 183.387821 
L 385.310076 177.00608 
L 386.260316 170.367682 
L 388.3579 156.936891 
L 389.111036 150.452487 
L 389.327458 147.335405 
L 389.404265 144.327402 
L 389.316819 141.447728 
L 389.040482 138.715631 
L 388.550617 136.150362 
L 387.822584 133.771168 
L 386.831747 131.5973 
L 385.553468 129.648007 
L 383.94038 127.857574 
L 381.984845 126.152078 
L 379.721814 124.538451 
L 377.186238 123.023627 
L 374.413068 121.614537 
L 371.437257 120.318115 
L 368.293754 119.141295 
L 365.017513 118.091008 
L 361.643483 117.174189 
L 358.206617 116.397769 
L 354.741865 115.768682 
L 351.28418 115.293861 
L 347.868513 114.980238 
L 344.529814 114.834747 
L 341.303036 114.864321 
L 338.223129 115.075892 
L 335.325046 115.476393 
L 332.643736 116.072758 
L 330.214153 116.871919 
L 328.015277 118.019817 
L 325.989336 119.621746 
L 324.116152 121.623664 
L 322.375547 123.971534 
L 320.747342 126.611316 
L 319.21136 129.488971 
L 316.335352 135.741743 
L 310.802171 148.724036 
L 309.34676 151.753704 
L 307.822147 154.588931 
L 306.208153 157.175677 
L 304.484601 159.459905 
L 302.631312 161.387574 
L 300.628108 162.904645 
L 298.454811 163.95708 
L 296.122822 164.52948 
L 293.664923 164.673917 
L 291.093008 164.437552 
L 288.41897 163.86755 
L 285.654703 163.011073 
L 282.812102 161.915284 
L 276.939471 159.194424 
L 261.719602 151.505729 
L 258.678501 150.193315 
L 255.666109 149.066057 
L 252.694321 148.171117 
L 249.77503 147.555659 
L 246.92013 147.266845 
L 244.141515 147.351839 
L 241.39924 147.736725 
L 238.648139 148.308118 
L 235.892278 149.053974 
L 233.13572 149.962247 
L 230.38253 151.020895 
L 227.636772 152.217873 
L 222.183809 154.978644 
L 216.809347 158.148206 
L 211.545901 161.630208 
L 206.425985 165.328297 
L 201.482114 169.14612 
L 194.467518 174.886585 
L 192.276201 176.910393 
L 190.189576 179.184083 
L 188.19525 181.669426 
L 186.280829 184.328191 
L 182.642126 190.013075 
L 172.354778 207.254041 
L 170.601778 209.753298 
L 168.804745 212.043687 
L 166.951284 214.086976 
L 165.029002 215.844938 
L 163.025504 217.279343 
L 160.928398 218.351961 
L 158.725288 219.024563 
L 156.39538 219.324263 
L 153.937188 219.317458 
L 151.367283 219.024842 
L 148.702238 218.467114 
L 145.958623 217.664968 
L 143.15301 216.639101 
L 140.301971 215.410209 
L 137.422078 213.998988 
L 134.529902 212.426134 
L 131.642013 210.712344 
L 125.945389 206.944738 
L 120.464777 202.861738 
L 115.33275 198.628915 
L 110.681881 194.411836 
L 108.578309 192.360942 
L 106.620317 190.276271 
L 104.782155 188.07177 
L 103.053552 185.75771 
L 101.424237 183.344361 
L 98.422388 178.260885 
L 95.694437 172.903509 
L 93.158214 167.354406 
L 84.604978 147.608999 
L 81.914688 142.213963 
L 81.914688 142.213963 
" style="fill:none;stroke:#fea952;stroke-linecap:square;"/>
   </g>
   <g id="line2d_16">
    <path clip-path="url(#p7847dd43e2)" d="M 374.484276 243.133211 
L 374.777745 222.13135 
L 375.482837 186.058561 
L 375.631371 182.647297 
L 376.305051 175.786808 
L 377.286398 168.937336 
L 379.345016 155.77714 
L 380.045666 149.82307 
L 380.321257 144.603223 
L 380.275753 142.362183 
L 380.114576 140.420128 
L 379.553802 137.540033 
L 379.232729 136.580474 
L 378.802195 135.730557 
L 377.967531 134.70609 
L 376.709136 133.550997 
L 375.061251 132.339494 
L 373.069811 131.124993 
L 370.783669 129.945477 
L 368.25126 128.828493 
L 365.519672 127.794709 
L 362.634667 126.860225 
L 359.641063 126.038015 
L 356.583218 125.33878 
L 353.505583 124.771388 
L 350.4533 124.34299 
L 347.472894 124.058817 
L 344.613095 123.92156 
L 341.925804 123.93015 
L 339.467114 124.077536 
L 337.297969 124.346832 
L 333.651524 125.147918 
L 332.624757 125.830472 
L 331.416087 127.035508 
L 330.109858 128.742019 
L 328.764029 130.890316 
L 327.409493 133.40914 
L 324.706039 139.278509 
L 318.993251 152.658919 
L 317.350183 156.05746 
L 315.531718 159.399297 
L 313.462053 162.649071 
L 311.035357 165.757897 
L 308.117519 168.631788 
L 304.588694 171.083329 
L 300.621015 172.782309 
L 296.655904 173.601025 
L 292.833295 173.722977 
L 289.198529 173.325075 
L 285.729539 172.547646 
L 282.386146 171.490085 
L 279.133302 170.224528 
L 275.947431 168.808429 
L 269.736306 165.723638 
L 260.883208 161.166582 
L 255.493691 158.704137 
L 253.045782 157.767264 
L 250.819724 157.062855 
L 248.860399 156.596707 
L 247.197964 156.349791 
L 245.40455 156.35083 
L 243.247178 156.634041 
L 241.022119 157.079739 
L 238.736074 157.684729 
L 236.397104 158.444021 
L 234.013918 159.350968 
L 229.150128 161.574496 
L 224.212475 164.278861 
L 219.262252 167.37692 
L 214.353619 170.776073 
L 209.534348 174.381481 
L 202.564024 179.968517 
L 198.971329 183.054688 
L 197.277056 184.871326 
L 195.569676 186.979317 
L 193.861472 189.339275 
L 190.458458 194.64795 
L 179.794373 212.472233 
L 177.751082 215.362626 
L 175.535402 218.149042 
L 173.083891 220.792812 
L 170.318967 223.233671 
L 167.163523 225.369702 
L 163.581788 227.043142 
L 159.884637 228.037499 
L 156.370221 228.411423 
L 152.909142 228.346313 
L 149.505881 227.919351 
L 146.152184 227.189174 
L 142.837977 226.199526 
L 139.556042 224.984095 
L 136.3033 223.570339 
L 133.080651 221.98204 
L 129.892324 220.240862 
L 126.74517 218.367279 
L 120.611295 214.301676 
L 114.76544 209.939496 
L 109.306705 205.430671 
L 104.338249 200.918405 
L 101.954595 198.582157 
L 99.641019 196.095765 
L 97.501928 193.510098 
L 95.522083 190.842401 
L 93.685578 188.10779 
L 91.976463 185.319597 
L 88.878704 179.629348 
L 86.112106 173.857724 
L 82.356619 165.222442 
L 77.621821 154.17432 
L 75.205262 149.038489 
L 73.832727 146.368361 
L 73.832727 146.368361 
" style="fill:none;stroke:#ffffff;stroke-linecap:square;"/>
   </g>
   <g id="line2d_17">
    <path clip-path="url(#p7847dd43e2)" d="M 392.657824 243.308066 
L 392.949051 222.466107 
L 393.745313 184.128346 
L 394.315101 178.225352 
L 395.234235 171.798028 
L 397.370784 158.096642 
L 398.176407 151.081904 
L 398.411692 147.567363 
L 398.487273 144.051582 
L 398.357885 140.533273 
L 397.966388 137.011134 
L 397.24009 133.491386 
L 396.091367 130.002303 
L 394.430766 126.614126 
L 392.304741 123.565457 
L 389.91323 121.009058 
L 387.260554 118.753159 
L 384.382377 116.737409 
L 381.302665 114.92226 
L 378.042468 113.283597 
L 374.623253 111.807738 
L 371.067837 110.487881 
L 367.400358 109.321792 
L 363.645903 108.310362 
L 359.830016 107.456758 
L 355.978148 106.765976 
L 352.115061 106.244731 
L 348.264131 105.901659 
L 344.446533 105.747934 
L 340.680268 105.798491 
L 336.979144 106.074247 
L 333.352122 106.605955 
L 329.80435 107.440551 
L 326.00883 108.81634 
L 322.37903 110.891717 
L 319.353914 113.413019 
L 316.816216 116.211821 
L 314.641235 119.201049 
L 312.730655 122.332317 
L 311.013227 125.568803 
L 307.964666 132.204977 
L 302.61109 144.789154 
L 300.112576 149.778565 
L 298.954253 151.702284 
L 297.145105 154.14336 
L 296.288608 155.131851 
L 295.58974 155.457935 
L 294.496551 155.624856 
L 292.987486 155.55003 
L 291.1084 155.187454 
L 288.923261 154.532062 
L 286.490903 153.606041 
L 281.062808 151.096573 
L 265.320268 143.16233 
L 261.86331 141.682493 
L 258.286435 140.364851 
L 254.568917 139.27938 
L 250.68966 138.514611 
L 246.642296 138.183899 
L 242.87848 138.352847 
L 239.551302 138.83941 
L 236.274159 139.536498 
L 233.048482 140.423219 
L 229.874336 141.480474 
L 226.751141 142.690822 
L 223.678177 144.038226 
L 220.654892 145.507779 
L 214.756991 148.757835 
L 209.061177 152.335428 
L 203.57832 156.140454 
L 198.325675 160.075046 
L 190.929582 166.006132 
L 188.302123 168.210883 
L 185.581072 170.766098 
L 183.102096 173.49684 
L 180.820823 176.359534 
L 178.700185 179.317108 
L 174.825795 185.3782 
L 164.915183 202.035848 
L 162.074088 205.938332 
L 159.739036 208.456205 
L 158.275007 209.66078 
L 157.565939 210.011627 
L 156.420538 210.237104 
L 154.965234 210.288602 
L 153.228686 210.130334 
L 151.252291 209.745054 
L 149.079268 209.13041 
L 146.749979 208.294107 
L 144.300643 207.250078 
L 141.763505 206.015936 
L 139.167479 204.611406 
L 133.901926 201.375541 
L 128.693233 197.716446 
L 123.712572 193.81317 
L 119.122963 189.84966 
L 115.202024 186.139727 
L 113.599615 184.456778 
L 112.062381 182.633442 
L 110.585021 180.673019 
L 109.162897 178.580933 
L 106.465615 174.031983 
L 103.928024 169.058365 
L 101.496699 163.742374 
L 92.785781 143.652794 
L 89.996649 138.059566 
L 89.996649 138.059566 
" style="fill:none;stroke:#ffffff;stroke-linecap:square;"/>
   </g>
   <g id="patch_3">
    <path d="M 57.6 307.584 
L 57.6 41.472 
" style="fill:none;stroke:#000000;stroke-linecap:square;stroke-linejoin:miter;stroke-width:0.8;"/>
   </g>
   <g id="patch_4">
    <path d="M 414.72 307.584 
L 414.72 41.472 
" style="fill:none;stroke:#000000;stroke-linecap:square;stroke-linejoin:miter;stroke-width:0.8;"/>
   </g>
   <g id="patch_5">
    <path d="M 57.6 307.584 
L 414.72 307.584 
" style="fill:none;stroke:#000000;stroke-linecap:square;stroke-linejoin:miter;stroke-width:0.8;"/>
   </g>
   <g id="patch_6">
    <path d="M 57.6 41.472 
L 414.72 41.472 
" style="fill:none;stroke:#000000;stroke-linecap:square;stroke-linejoin:miter;stroke-width:0.8;"/>
   </g>
  </g>
 </g>
 <defs>
  <clipPath id="p7847dd43e2">
   <rect height="266.112" width="357.12" x="57.6" y="41.472"/>
  </clipPath>
 </defs>
</svg>
