<?xml version="1.0" encoding="utf-8" standalone="no"?>
<!DOCTYPE svg PUBLIC "-//W3C//DTD SVG 1.1//EN"
  "http://www.w3.org/Graphics/SVG/1.1/DTD/svg11.dtd">
<!-- Created with matplotlib (https://matplotlib.org/) -->
<svg height="345.6pt" version="1.1" viewBox="0 0 460.8 345.6" width="460.8pt" xmlns="http://www.w3.org/2000/svg" xmlns:xlink="http://www.w3.org/1999/xlink">
 <metadata>
  <rdf:RDF xmlns:cc="http://creativecommons.org/ns#" xmlns:dc="http://purl.org/dc/elements/1.1/" xmlns:rdf="http://www.w3.org/1999/02/22-rdf-syntax-ns#">
   <cc:Work>
    <dc:type rdf:resource="http://purl.org/dc/dcmitype/StillImage"/>
    <dc:date>2021-06-20T09:02:24.479581</dc:date>
    <dc:format>image/svg+xml</dc:format>
    <dc:creator>
     <cc:Agent>
      <dc:title>Matplotlib v3.3.3, https://matplotlib.org/</dc:title>
     </cc:Agent>
    </dc:creator>
   </cc:Work>
  </rdf:RDF>
 </metadata>
 <defs>
  <style type="text/css">*{stroke-linecap:butt;stroke-linejoin:round;}</style>
 </defs>
 <g id="figure_1">
  <g id="patch_1">
   <path d="M 0 345.6 
L 460.8 345.6 
L 460.8 0 
L 0 0 
z
" style="fill:#ffffff;"/>
  </g>
  <g id="axes_1">
   <g id="patch_2">
    <path d="M 57.6 307.584 
L 414.72 307.584 
L 414.72 41.472 
L 57.6 41.472 
z
" style="fill:#7d9051;"/>
   </g>
   <g id="matplotlib.axis_1">
    <g id="xtick_1">
     <g id="line2d_1">
      <defs>
       <path d="M 0 0 
L 0 3.5 
" id="mdd9729c18c" style="stroke:#000000;stroke-width:0.8;"/>
      </defs>
      <g>
       <use style="stroke:#000000;stroke-width:0.8;" x="82.456587" xlink:href="#mdd9729c18c" y="307.584"/>
      </g>
     </g>
     <g id="text_1">
      <!-- 0 -->
      <g transform="translate(79.275337 322.182437)scale(0.1 -0.1)">
       <defs>
        <path d="M 31.78125 66.40625 
Q 24.171875 66.40625 20.328125 58.90625 
Q 16.5 51.421875 16.5 36.375 
Q 16.5 21.390625 20.328125 13.890625 
Q 24.171875 6.390625 31.78125 6.390625 
Q 39.453125 6.390625 43.28125 13.890625 
Q 47.125 21.390625 47.125 36.375 
Q 47.125 51.421875 43.28125 58.90625 
Q 39.453125 66.40625 31.78125 66.40625 
z
M 31.78125 74.21875 
Q 44.046875 74.21875 50.515625 64.515625 
Q 56.984375 54.828125 56.984375 36.375 
Q 56.984375 17.96875 50.515625 8.265625 
Q 44.046875 -1.421875 31.78125 -1.421875 
Q 19.53125 -1.421875 13.0625 8.265625 
Q 6.59375 17.96875 6.59375 36.375 
Q 6.59375 54.828125 13.0625 64.515625 
Q 19.53125 74.21875 31.78125 74.21875 
z
" id="DejaVuSans-48"/>
       </defs>
       <use xlink:href="#DejaVuSans-48"/>
      </g>
     </g>
    </g>
    <g id="xtick_2">
     <g id="line2d_2">
      <g>
       <use style="stroke:#000000;stroke-width:0.8;" x="124.928552" xlink:href="#mdd9729c18c" y="307.584"/>
      </g>
     </g>
     <g id="text_2">
      <!-- 20 -->
      <g transform="translate(118.566052 322.182437)scale(0.1 -0.1)">
       <defs>
        <path d="M 19.1875 8.296875 
L 53.609375 8.296875 
L 53.609375 0 
L 7.328125 0 
L 7.328125 8.296875 
Q 12.9375 14.109375 22.625 23.890625 
Q 32.328125 33.6875 34.8125 36.53125 
Q 39.546875 41.84375 41.421875 45.53125 
Q 43.3125 49.21875 43.3125 52.78125 
Q 43.3125 58.59375 39.234375 62.25 
Q 35.15625 65.921875 28.609375 65.921875 
Q 23.96875 65.921875 18.8125 64.3125 
Q 13.671875 62.703125 7.8125 59.421875 
L 7.8125 69.390625 
Q 13.765625 71.78125 18.9375 73 
Q 24.125 74.21875 28.421875 74.21875 
Q 39.75 74.21875 46.484375 68.546875 
Q 53.21875 62.890625 53.21875 53.421875 
Q 53.21875 48.921875 51.53125 44.890625 
Q 49.859375 40.875 45.40625 35.40625 
Q 44.1875 33.984375 37.640625 27.21875 
Q 31.109375 20.453125 19.1875 8.296875 
z
" id="DejaVuSans-50"/>
       </defs>
       <use xlink:href="#DejaVuSans-50"/>
       <use x="63.623047" xlink:href="#DejaVuSans-48"/>
      </g>
     </g>
    </g>
    <g id="xtick_3">
     <g id="line2d_3">
      <g>
       <use style="stroke:#000000;stroke-width:0.8;" x="167.400518" xlink:href="#mdd9729c18c" y="307.584"/>
      </g>
     </g>
     <g id="text_3">
      <!-- 40 -->
      <g transform="translate(161.038018 322.182437)scale(0.1 -0.1)">
       <defs>
        <path d="M 37.796875 64.3125 
L 12.890625 25.390625 
L 37.796875 25.390625 
z
M 35.203125 72.90625 
L 47.609375 72.90625 
L 47.609375 25.390625 
L 58.015625 25.390625 
L 58.015625 17.1875 
L 47.609375 17.1875 
L 47.609375 0 
L 37.796875 0 
L 37.796875 17.1875 
L 4.890625 17.1875 
L 4.890625 26.703125 
z
" id="DejaVuSans-52"/>
       </defs>
       <use xlink:href="#DejaVuSans-52"/>
       <use x="63.623047" xlink:href="#DejaVuSans-48"/>
      </g>
     </g>
    </g>
    <g id="xtick_4">
     <g id="line2d_4">
      <g>
       <use style="stroke:#000000;stroke-width:0.8;" x="209.872484" xlink:href="#mdd9729c18c" y="307.584"/>
      </g>
     </g>
     <g id="text_4">
      <!-- 60 -->
      <g transform="translate(203.509984 322.182437)scale(0.1 -0.1)">
       <defs>
        <path d="M 33.015625 40.375 
Q 26.375 40.375 22.484375 35.828125 
Q 18.609375 31.296875 18.609375 23.390625 
Q 18.609375 15.53125 22.484375 10.953125 
Q 26.375 6.390625 33.015625 6.390625 
Q 39.65625 6.390625 43.53125 10.953125 
Q 47.40625 15.53125 47.40625 23.390625 
Q 47.40625 31.296875 43.53125 35.828125 
Q 39.65625 40.375 33.015625 40.375 
z
M 52.59375 71.296875 
L 52.59375 62.3125 
Q 48.875 64.0625 45.09375 64.984375 
Q 41.3125 65.921875 37.59375 65.921875 
Q 27.828125 65.921875 22.671875 59.328125 
Q 17.53125 52.734375 16.796875 39.40625 
Q 19.671875 43.65625 24.015625 45.921875 
Q 28.375 48.1875 33.59375 48.1875 
Q 44.578125 48.1875 50.953125 41.515625 
Q 57.328125 34.859375 57.328125 23.390625 
Q 57.328125 12.15625 50.6875 5.359375 
Q 44.046875 -1.421875 33.015625 -1.421875 
Q 20.359375 -1.421875 13.671875 8.265625 
Q 6.984375 17.96875 6.984375 36.375 
Q 6.984375 53.65625 15.1875 63.9375 
Q 23.390625 74.21875 37.203125 74.21875 
Q 40.921875 74.21875 44.703125 73.484375 
Q 48.484375 72.75 52.59375 71.296875 
z
" id="DejaVuSans-54"/>
       </defs>
       <use xlink:href="#DejaVuSans-54"/>
       <use x="63.623047" xlink:href="#DejaVuSans-48"/>
      </g>
     </g>
    </g>
    <g id="xtick_5">
     <g id="line2d_5">
      <g>
       <use style="stroke:#000000;stroke-width:0.8;" x="252.34445" xlink:href="#mdd9729c18c" y="307.584"/>
      </g>
     </g>
     <g id="text_5">
      <!-- 80 -->
      <g transform="translate(245.98195 322.182437)scale(0.1 -0.1)">
       <defs>
        <path d="M 31.78125 34.625 
Q 24.75 34.625 20.71875 30.859375 
Q 16.703125 27.09375 16.703125 20.515625 
Q 16.703125 13.921875 20.71875 10.15625 
Q 24.75 6.390625 31.78125 6.390625 
Q 38.8125 6.390625 42.859375 10.171875 
Q 46.921875 13.96875 46.921875 20.515625 
Q 46.921875 27.09375 42.890625 30.859375 
Q 38.875 34.625 31.78125 34.625 
z
M 21.921875 38.8125 
Q 15.578125 40.375 12.03125 44.71875 
Q 8.5 49.078125 8.5 55.328125 
Q 8.5 64.0625 14.71875 69.140625 
Q 20.953125 74.21875 31.78125 74.21875 
Q 42.671875 74.21875 48.875 69.140625 
Q 55.078125 64.0625 55.078125 55.328125 
Q 55.078125 49.078125 51.53125 44.71875 
Q 48 40.375 41.703125 38.8125 
Q 48.828125 37.15625 52.796875 32.3125 
Q 56.78125 27.484375 56.78125 20.515625 
Q 56.78125 9.90625 50.3125 4.234375 
Q 43.84375 -1.421875 31.78125 -1.421875 
Q 19.734375 -1.421875 13.25 4.234375 
Q 6.78125 9.90625 6.78125 20.515625 
Q 6.78125 27.484375 10.78125 32.3125 
Q 14.796875 37.15625 21.921875 38.8125 
z
M 18.3125 54.390625 
Q 18.3125 48.734375 21.84375 45.5625 
Q 25.390625 42.390625 31.78125 42.390625 
Q 38.140625 42.390625 41.71875 45.5625 
Q 45.3125 48.734375 45.3125 54.390625 
Q 45.3125 60.0625 41.71875 63.234375 
Q 38.140625 66.40625 31.78125 66.40625 
Q 25.390625 66.40625 21.84375 63.234375 
Q 18.3125 60.0625 18.3125 54.390625 
z
" id="DejaVuSans-56"/>
       </defs>
       <use xlink:href="#DejaVuSans-56"/>
       <use x="63.623047" xlink:href="#DejaVuSans-48"/>
      </g>
     </g>
    </g>
    <g id="xtick_6">
     <g id="line2d_6">
      <g>
       <use style="stroke:#000000;stroke-width:0.8;" x="294.816416" xlink:href="#mdd9729c18c" y="307.584"/>
      </g>
     </g>
     <g id="text_6">
      <!-- 100 -->
      <g transform="translate(285.272666 322.182437)scale(0.1 -0.1)">
       <defs>
        <path d="M 12.40625 8.296875 
L 28.515625 8.296875 
L 28.515625 63.921875 
L 10.984375 60.40625 
L 10.984375 69.390625 
L 28.421875 72.90625 
L 38.28125 72.90625 
L 38.28125 8.296875 
L 54.390625 8.296875 
L 54.390625 0 
L 12.40625 0 
z
" id="DejaVuSans-49"/>
       </defs>
       <use xlink:href="#DejaVuSans-49"/>
       <use x="63.623047" xlink:href="#DejaVuSans-48"/>
       <use x="127.246094" xlink:href="#DejaVuSans-48"/>
      </g>
     </g>
    </g>
    <g id="xtick_7">
     <g id="line2d_7">
      <g>
       <use style="stroke:#000000;stroke-width:0.8;" x="337.288381" xlink:href="#mdd9729c18c" y="307.584"/>
      </g>
     </g>
     <g id="text_7">
      <!-- 120 -->
      <g transform="translate(327.744631 322.182437)scale(0.1 -0.1)">
       <use xlink:href="#DejaVuSans-49"/>
       <use x="63.623047" xlink:href="#DejaVuSans-50"/>
       <use x="127.246094" xlink:href="#DejaVuSans-48"/>
      </g>
     </g>
    </g>
    <g id="xtick_8">
     <g id="line2d_8">
      <g>
       <use style="stroke:#000000;stroke-width:0.8;" x="379.760347" xlink:href="#mdd9729c18c" y="307.584"/>
      </g>
     </g>
     <g id="text_8">
      <!-- 140 -->
      <g transform="translate(370.216597 322.182437)scale(0.1 -0.1)">
       <use xlink:href="#DejaVuSans-49"/>
       <use x="63.623047" xlink:href="#DejaVuSans-52"/>
       <use x="127.246094" xlink:href="#DejaVuSans-48"/>
      </g>
     </g>
    </g>
   </g>
   <g id="matplotlib.axis_2">
    <g id="ytick_1">
     <g id="line2d_9">
      <defs>
       <path d="M 0 0 
L -3.5 0 
" id="mfc6cdc00cd" style="stroke:#000000;stroke-width:0.8;"/>
      </defs>
      <g>
       <use style="stroke:#000000;stroke-width:0.8;" x="57.6" xlink:href="#mfc6cdc00cd" y="295.406463"/>
      </g>
     </g>
     <g id="text_9">
      <!-- 0 -->
      <g transform="translate(44.2375 299.205681)scale(0.1 -0.1)">
       <use xlink:href="#DejaVuSans-48"/>
      </g>
     </g>
    </g>
    <g id="ytick_2">
     <g id="line2d_10">
      <g>
       <use style="stroke:#000000;stroke-width:0.8;" x="57.6" xlink:href="#mfc6cdc00cd" y="253.031474"/>
      </g>
     </g>
     <g id="text_10">
      <!-- 20 -->
      <g transform="translate(37.875 256.830693)scale(0.1 -0.1)">
       <use xlink:href="#DejaVuSans-50"/>
       <use x="63.623047" xlink:href="#DejaVuSans-48"/>
      </g>
     </g>
    </g>
    <g id="ytick_3">
     <g id="line2d_11">
      <g>
       <use style="stroke:#000000;stroke-width:0.8;" x="57.6" xlink:href="#mfc6cdc00cd" y="210.656485"/>
      </g>
     </g>
     <g id="text_11">
      <!-- 40 -->
      <g transform="translate(37.875 214.455704)scale(0.1 -0.1)">
       <use xlink:href="#DejaVuSans-52"/>
       <use x="63.623047" xlink:href="#DejaVuSans-48"/>
      </g>
     </g>
    </g>
    <g id="ytick_4">
     <g id="line2d_12">
      <g>
       <use style="stroke:#000000;stroke-width:0.8;" x="57.6" xlink:href="#mfc6cdc00cd" y="168.281497"/>
      </g>
     </g>
     <g id="text_12">
      <!-- 60 -->
      <g transform="translate(37.875 172.080716)scale(0.1 -0.1)">
       <use xlink:href="#DejaVuSans-54"/>
       <use x="63.623047" xlink:href="#DejaVuSans-48"/>
      </g>
     </g>
    </g>
    <g id="ytick_5">
     <g id="line2d_13">
      <g>
       <use style="stroke:#000000;stroke-width:0.8;" x="57.6" xlink:href="#mfc6cdc00cd" y="125.906508"/>
      </g>
     </g>
     <g id="text_13">
      <!-- 80 -->
      <g transform="translate(37.875 129.705727)scale(0.1 -0.1)">
       <use xlink:href="#DejaVuSans-56"/>
       <use x="63.623047" xlink:href="#DejaVuSans-48"/>
      </g>
     </g>
    </g>
    <g id="ytick_6">
     <g id="line2d_14">
      <g>
       <use style="stroke:#000000;stroke-width:0.8;" x="57.6" xlink:href="#mfc6cdc00cd" y="83.53152"/>
      </g>
     </g>
     <g id="text_14">
      <!-- 100 -->
      <g transform="translate(31.5125 87.330739)scale(0.1 -0.1)">
       <use xlink:href="#DejaVuSans-49"/>
       <use x="63.623047" xlink:href="#DejaVuSans-48"/>
       <use x="127.246094" xlink:href="#DejaVuSans-48"/>
      </g>
     </g>
    </g>
   </g>
   <g id="line2d_15">
    <path clip-path="url(#pdbcb7f09e3)" d="M 82.456587 295.406463 
L 82.781331 273.106665 
L 83.369894 236.844454 
L 83.056814 228.372208 
L 82.404695 214.220584 
L 82.326295 208.603635 
L 82.469438 203.039754 
L 82.912316 197.547668 
L 83.733121 192.146107 
L 84.969186 186.805002 
L 86.4325 181.284262 
L 88.106622 175.640633 
L 90.013633 169.983434 
L 92.17561 164.421984 
L 94.614634 159.065603 
L 95.944938 156.498475 
L 97.352784 154.023609 
L 98.840931 151.654669 
L 100.41214 149.405321 
L 102.06917 147.28923 
L 103.814781 145.320059 
L 105.651733 143.511475 
L 107.582787 141.877142 
L 109.642654 140.444779 
L 111.855061 139.21975 
L 114.206292 138.182187 
L 116.682628 137.312222 
L 119.270354 136.589988 
L 121.95575 135.995616 
L 127.564687 135.110987 
L 133.399701 134.499391 
L 148.256163 133.121855 
L 154.018256 132.214195 
L 156.805755 131.60447 
L 162.169228 130.032959 
L 170.079461 127.325345 
L 177.911232 124.347524 
L 185.678693 121.163882 
L 195.959734 116.710144 
L 211.277576 109.838213 
L 216.305847 107.21394 
L 221.281105 104.34881 
L 236.106677 95.528876 
L 241.087758 92.920915 
L 246.124762 90.682396 
L 248.671044 89.73982 
L 251.239477 88.935377 
L 253.832785 88.284324 
L 256.45369 87.801919 
L 259.117472 87.54945 
L 261.832784 87.556501 
L 264.592417 87.790777 
L 267.389159 88.219981 
L 270.2158 88.811818 
L 275.929933 90.354204 
L 293.039966 95.525733 
L 295.811204 96.127931 
L 298.540232 96.5698 
L 301.219838 96.819043 
L 303.842813 96.843364 
L 306.401944 96.610467 
L 308.890022 96.088055 
L 311.304043 95.212398 
L 313.650218 93.972203 
L 315.935157 92.413834 
L 318.165468 90.583654 
L 320.347761 88.528026 
L 322.488647 86.293312 
L 326.67263 81.47208 
L 334.834511 71.720562 
L 336.870602 69.530413 
L 338.91816 67.532083 
L 340.983795 65.771933 
L 343.074116 64.296328 
L 345.195732 63.151631 
L 347.355253 62.384203 
L 349.559289 62.040408 
L 351.796805 62.095607 
L 354.051386 62.475687 
L 356.321569 63.152801 
L 358.605893 64.099102 
L 360.902893 65.286743 
L 363.211108 66.687878 
L 365.529075 68.274658 
L 370.188411 71.893771 
L 374.869201 75.921305 
L 386.588241 86.315021 
L 391.251966 90.017675 
L 393.572858 91.660149 
L 393.572858 91.660149 
" style="fill:none;stroke:#fea952;stroke-linecap:square;"/>
   </g>
   <g id="line2d_16">
    <path clip-path="url(#pdbcb7f09e3)" d="M 73.962587 295.324925 
L 74.288486 272.944827 
L 74.878499 237.069607 
L 74.573237 228.799768 
L 73.912354 214.406861 
L 73.832727 208.485464 
L 73.992838 202.491493 
L 74.490694 196.440702 
L 74.898652 193.40055 
L 75.430515 190.35537 
L 76.743129 184.691652 
L 78.26777 178.946134 
L 80.028117 173.021277 
L 82.055908 167.018797 
L 84.388024 161.037352 
L 87.069095 155.173285 
L 88.557455 152.31522 
L 90.155242 149.5228 
L 91.871992 146.808949 
L 93.718427 144.187642 
L 95.706364 141.67452 
L 97.848344 139.28768 
L 100.156826 137.048557 
L 102.725809 134.924232 
L 105.520703 133.034474 
L 108.419111 131.469028 
L 111.385073 130.188276 
L 114.394267 129.150551 
L 117.43067 128.316139 
L 120.483117 127.64895 
L 126.600854 126.690723 
L 132.676365 126.055177 
L 147.071766 124.729646 
L 152.199179 123.935811 
L 154.560564 123.430872 
L 159.514874 121.982361 
L 167.134271 119.376067 
L 174.741664 116.484621 
L 182.348552 113.367323 
L 192.510995 108.965079 
L 207.439745 102.277537 
L 212.116493 99.841359 
L 216.903411 97.085974 
L 232.061846 88.07639 
L 237.484659 85.24612 
L 240.291211 83.941361 
L 243.169957 82.736671 
L 246.126892 81.653881 
L 249.166683 80.716575 
L 252.291729 79.949964 
L 255.650377 79.364905 
L 259.139581 79.074481 
L 262.552954 79.112017 
L 265.883812 79.414293 
L 269.133768 79.925657 
L 272.307235 80.597718 
L 278.438237 82.257125 
L 294.84767 87.244869 
L 299.328725 88.131394 
L 301.298777 88.344412 
L 303.071203 88.403405 
L 304.652645 88.317126 
L 305.987602 88.123134 
L 307.327272 87.723538 
L 308.856589 86.975666 
L 310.539344 85.868332 
L 312.334098 84.421201 
L 314.207223 82.672143 
L 316.135715 80.667483 
L 320.112854 76.087731 
L 328.606661 65.957195 
L 330.930739 63.471986 
L 333.401568 61.08758 
L 336.07756 58.853534 
L 339.03353 56.84155 
L 342.345574 55.167945 
L 346.043168 54.01092 
L 349.769259 53.568 
L 353.212017 53.739059 
L 356.484365 54.355761 
L 359.578883 55.325676 
L 362.514253 56.574477 
L 365.318015 58.046494 
L 368.01688 59.699638 
L 370.632958 61.500089 
L 375.679299 65.427453 
L 380.539424 69.610931 
L 391.976566 79.763382 
L 396.166381 83.105057 
L 398.487273 84.747532 
L 398.487273 84.747532 
" style="fill:none;stroke:#ffffff;stroke-linecap:square;"/>
   </g>
   <g id="line2d_17">
    <path clip-path="url(#pdbcb7f09e3)" d="M 90.950587 295.488 
L 91.274175 273.268502 
L 91.896398 239.552915 
L 91.783119 233.705496 
L 91.2507 222.286547 
L 90.897036 214.034306 
L 90.819862 208.721807 
L 90.946038 203.588014 
L 91.333939 198.654633 
L 92.035728 193.936844 
L 93.195242 188.918351 
L 94.59723 183.622389 
L 96.185128 178.259988 
L 97.971357 172.94807 
L 99.963195 167.806616 
L 102.160173 162.95792 
L 104.550325 158.524418 
L 107.105852 154.623001 
L 108.431975 152.903939 
L 109.781217 151.352439 
L 111.146641 149.974392 
L 112.439765 148.830052 
L 113.764605 147.855083 
L 115.291011 146.970471 
L 117.027511 146.176098 
L 118.97099 145.473894 
L 121.110037 144.863838 
L 123.428382 144.342282 
L 128.528519 143.531251 
L 134.123037 142.943606 
L 146.278107 141.879188 
L 152.630328 141.061107 
L 155.837332 140.492579 
L 159.050947 139.778067 
L 164.823582 138.083557 
L 173.02465 135.274622 
L 181.0808 132.210427 
L 189.008834 128.960442 
L 199.408474 124.45521 
L 215.115407 117.39889 
L 220.495201 114.586522 
L 225.658799 111.611647 
L 240.151508 102.981363 
L 244.690856 100.595711 
L 249.079566 98.62812 
L 253.312271 97.154179 
L 257.257003 96.238934 
L 259.095362 96.024419 
L 261.112614 96.000985 
L 263.301022 96.167261 
L 265.644551 96.514306 
L 268.124366 97.025918 
L 273.42163 98.451284 
L 288.089993 102.996168 
L 291.232263 103.806596 
L 294.450493 104.493486 
L 297.751738 105.008207 
L 301.140899 105.293675 
L 304.614422 105.283324 
L 308.151243 104.903807 
L 311.792441 104.052977 
L 315.280814 102.701257 
L 318.443847 100.96874 
L 321.330969 98.959336 
L 323.996838 96.746107 
L 326.4883 94.383909 
L 328.841578 91.91914 
L 333.232405 86.856429 
L 341.062361 77.483928 
L 344.434753 73.976585 
L 347.114702 71.751107 
L 348.667338 70.757486 
L 349.349319 70.512816 
L 350.381592 70.452155 
L 351.618407 70.595613 
L 353.064256 70.979926 
L 354.697533 71.623727 
L 356.487772 72.526992 
L 358.405337 73.676117 
L 360.425191 75.049227 
L 364.697523 78.360088 
L 369.198978 82.231679 
L 381.199916 92.866661 
L 386.337551 96.930292 
L 388.658443 98.572767 
L 388.658443 98.572767 
" style="fill:none;stroke:#ffffff;stroke-linecap:square;"/>
   </g>
   <g id="patch_3">
    <path d="M 57.6 307.584 
L 57.6 41.472 
" style="fill:none;stroke:#000000;stroke-linecap:square;stroke-linejoin:miter;stroke-width:0.8;"/>
   </g>
   <g id="patch_4">
    <path d="M 414.72 307.584 
L 414.72 41.472 
" style="fill:none;stroke:#000000;stroke-linecap:square;stroke-linejoin:miter;stroke-width:0.8;"/>
   </g>
   <g id="patch_5">
    <path d="M 57.6 307.584 
L 414.72 307.584 
" style="fill:none;stroke:#000000;stroke-linecap:square;stroke-linejoin:miter;stroke-width:0.8;"/>
   </g>
   <g id="patch_6">
    <path d="M 57.6 41.472 
L 414.72 41.472 
" style="fill:none;stroke:#000000;stroke-linecap:square;stroke-linejoin:miter;stroke-width:0.8;"/>
   </g>
  </g>
 </g>
 <defs>
  <clipPath id="pdbcb7f09e3">
   <rect height="266.112" width="357.12" x="57.6" y="41.472"/>
  </clipPath>
 </defs>
</svg>
