<?xml version="1.0" encoding="utf-8" standalone="no"?>
<!DOCTYPE svg PUBLIC "-//W3C//DTD SVG 1.1//EN"
  "http://www.w3.org/Graphics/SVG/1.1/DTD/svg11.dtd">
<!-- Created with matplotlib (https://matplotlib.org/) -->
<svg height="345.6pt" version="1.1" viewBox="0 0 460.8 345.6" width="460.8pt" xmlns="http://www.w3.org/2000/svg" xmlns:xlink="http://www.w3.org/1999/xlink">
 <metadata>
  <rdf:RDF xmlns:cc="http://creativecommons.org/ns#" xmlns:dc="http://purl.org/dc/elements/1.1/" xmlns:rdf="http://www.w3.org/1999/02/22-rdf-syntax-ns#">
   <cc:Work>
    <dc:type rdf:resource="http://purl.org/dc/dcmitype/StillImage"/>
    <dc:date>2021-06-18T04:55:12.708495</dc:date>
    <dc:format>image/svg+xml</dc:format>
    <dc:creator>
     <cc:Agent>
      <dc:title>Matplotlib v3.3.3, https://matplotlib.org/</dc:title>
     </cc:Agent>
    </dc:creator>
   </cc:Work>
  </rdf:RDF>
 </metadata>
 <defs>
  <style type="text/css">*{stroke-linecap:butt;stroke-linejoin:round;}</style>
 </defs>
 <g id="figure_1">
  <g id="patch_1">
   <path d="M 0 345.6 
L 460.8 345.6 
L 460.8 0 
L 0 0 
z
" style="fill:#ffffff;"/>
  </g>
  <g id="axes_1">
   <g id="patch_2">
    <path d="M 57.6 307.584 
L 414.72 307.584 
L 414.72 41.472 
L 57.6 41.472 
z
" style="fill:#7d9051;"/>
   </g>
   <g id="matplotlib.axis_1">
    <g id="xtick_1">
     <g id="line2d_1">
      <defs>
       <path d="M 0 0 
L 0 3.5 
" id="m3b354e81c8" style="stroke:#000000;stroke-width:0.8;"/>
      </defs>
      <g>
       <use style="stroke:#000000;stroke-width:0.8;" x="113.294819" xlink:href="#m3b354e81c8" y="307.584"/>
      </g>
     </g>
     <g id="text_1">
      <!-- −50 -->
      <g transform="translate(102.742475 322.182437)scale(0.1 -0.1)">
       <defs>
        <path d="M 10.59375 35.5 
L 73.1875 35.5 
L 73.1875 27.203125 
L 10.59375 27.203125 
z
" id="DejaVuSans-8722"/>
        <path d="M 10.796875 72.90625 
L 49.515625 72.90625 
L 49.515625 64.59375 
L 19.828125 64.59375 
L 19.828125 46.734375 
Q 21.96875 47.46875 24.109375 47.828125 
Q 26.265625 48.1875 28.421875 48.1875 
Q 40.625 48.1875 47.75 41.5 
Q 54.890625 34.8125 54.890625 23.390625 
Q 54.890625 11.625 47.5625 5.09375 
Q 40.234375 -1.421875 26.90625 -1.421875 
Q 22.3125 -1.421875 17.546875 -0.640625 
Q 12.796875 0.140625 7.71875 1.703125 
L 7.71875 11.625 
Q 12.109375 9.234375 16.796875 8.0625 
Q 21.484375 6.890625 26.703125 6.890625 
Q 35.15625 6.890625 40.078125 11.328125 
Q 45.015625 15.765625 45.015625 23.390625 
Q 45.015625 31 40.078125 35.4375 
Q 35.15625 39.890625 26.703125 39.890625 
Q 22.75 39.890625 18.8125 39.015625 
Q 14.890625 38.140625 10.796875 36.28125 
z
" id="DejaVuSans-53"/>
        <path d="M 31.78125 66.40625 
Q 24.171875 66.40625 20.328125 58.90625 
Q 16.5 51.421875 16.5 36.375 
Q 16.5 21.390625 20.328125 13.890625 
Q 24.171875 6.390625 31.78125 6.390625 
Q 39.453125 6.390625 43.28125 13.890625 
Q 47.125 21.390625 47.125 36.375 
Q 47.125 51.421875 43.28125 58.90625 
Q 39.453125 66.40625 31.78125 66.40625 
z
M 31.78125 74.21875 
Q 44.046875 74.21875 50.515625 64.515625 
Q 56.984375 54.828125 56.984375 36.375 
Q 56.984375 17.96875 50.515625 8.265625 
Q 44.046875 -1.421875 31.78125 -1.421875 
Q 19.53125 -1.421875 13.0625 8.265625 
Q 6.59375 17.96875 6.59375 36.375 
Q 6.59375 54.828125 13.0625 64.515625 
Q 19.53125 74.21875 31.78125 74.21875 
z
" id="DejaVuSans-48"/>
       </defs>
       <use xlink:href="#DejaVuSans-8722"/>
       <use x="83.789062" xlink:href="#DejaVuSans-53"/>
       <use x="147.412109" xlink:href="#DejaVuSans-48"/>
      </g>
     </g>
    </g>
    <g id="xtick_2">
     <g id="line2d_2">
      <g>
       <use style="stroke:#000000;stroke-width:0.8;" x="190.70601" xlink:href="#m3b354e81c8" y="307.584"/>
      </g>
     </g>
     <g id="text_2">
      <!-- 0 -->
      <g transform="translate(187.52476 322.182437)scale(0.1 -0.1)">
       <use xlink:href="#DejaVuSans-48"/>
      </g>
     </g>
    </g>
    <g id="xtick_3">
     <g id="line2d_3">
      <g>
       <use style="stroke:#000000;stroke-width:0.8;" x="268.117202" xlink:href="#m3b354e81c8" y="307.584"/>
      </g>
     </g>
     <g id="text_3">
      <!-- 50 -->
      <g transform="translate(261.754702 322.182437)scale(0.1 -0.1)">
       <use xlink:href="#DejaVuSans-53"/>
       <use x="63.623047" xlink:href="#DejaVuSans-48"/>
      </g>
     </g>
    </g>
    <g id="xtick_4">
     <g id="line2d_4">
      <g>
       <use style="stroke:#000000;stroke-width:0.8;" x="345.528393" xlink:href="#m3b354e81c8" y="307.584"/>
      </g>
     </g>
     <g id="text_4">
      <!-- 100 -->
      <g transform="translate(335.984643 322.182437)scale(0.1 -0.1)">
       <defs>
        <path d="M 12.40625 8.296875 
L 28.515625 8.296875 
L 28.515625 63.921875 
L 10.984375 60.40625 
L 10.984375 69.390625 
L 28.421875 72.90625 
L 38.28125 72.90625 
L 38.28125 8.296875 
L 54.390625 8.296875 
L 54.390625 0 
L 12.40625 0 
z
" id="DejaVuSans-49"/>
       </defs>
       <use xlink:href="#DejaVuSans-49"/>
       <use x="63.623047" xlink:href="#DejaVuSans-48"/>
       <use x="127.246094" xlink:href="#DejaVuSans-48"/>
      </g>
     </g>
    </g>
   </g>
   <g id="matplotlib.axis_2">
    <g id="ytick_1">
     <g id="line2d_5">
      <defs>
       <path d="M 0 0 
L -3.5 0 
" id="mc4cc13f3af" style="stroke:#000000;stroke-width:0.8;"/>
      </defs>
      <g>
       <use style="stroke:#000000;stroke-width:0.8;" x="57.6" xlink:href="#mc4cc13f3af" y="295.428419"/>
      </g>
     </g>
     <g id="text_5">
      <!-- 0 -->
      <g transform="translate(44.2375 299.227637)scale(0.1 -0.1)">
       <use xlink:href="#DejaVuSans-48"/>
      </g>
     </g>
    </g>
    <g id="ytick_2">
     <g id="line2d_6">
      <g>
       <use style="stroke:#000000;stroke-width:0.8;" x="57.6" xlink:href="#mc4cc13f3af" y="264.463942"/>
      </g>
     </g>
     <g id="text_6">
      <!-- 20 -->
      <g transform="translate(37.875 268.263161)scale(0.1 -0.1)">
       <defs>
        <path d="M 19.1875 8.296875 
L 53.609375 8.296875 
L 53.609375 0 
L 7.328125 0 
L 7.328125 8.296875 
Q 12.9375 14.109375 22.625 23.890625 
Q 32.328125 33.6875 34.8125 36.53125 
Q 39.546875 41.84375 41.421875 45.53125 
Q 43.3125 49.21875 43.3125 52.78125 
Q 43.3125 58.59375 39.234375 62.25 
Q 35.15625 65.921875 28.609375 65.921875 
Q 23.96875 65.921875 18.8125 64.3125 
Q 13.671875 62.703125 7.8125 59.421875 
L 7.8125 69.390625 
Q 13.765625 71.78125 18.9375 73 
Q 24.125 74.21875 28.421875 74.21875 
Q 39.75 74.21875 46.484375 68.546875 
Q 53.21875 62.890625 53.21875 53.421875 
Q 53.21875 48.921875 51.53125 44.890625 
Q 49.859375 40.875 45.40625 35.40625 
Q 44.1875 33.984375 37.640625 27.21875 
Q 31.109375 20.453125 19.1875 8.296875 
z
" id="DejaVuSans-50"/>
       </defs>
       <use xlink:href="#DejaVuSans-50"/>
       <use x="63.623047" xlink:href="#DejaVuSans-48"/>
      </g>
     </g>
    </g>
    <g id="ytick_3">
     <g id="line2d_7">
      <g>
       <use style="stroke:#000000;stroke-width:0.8;" x="57.6" xlink:href="#mc4cc13f3af" y="233.499465"/>
      </g>
     </g>
     <g id="text_7">
      <!-- 40 -->
      <g transform="translate(37.875 237.298684)scale(0.1 -0.1)">
       <defs>
        <path d="M 37.796875 64.3125 
L 12.890625 25.390625 
L 37.796875 25.390625 
z
M 35.203125 72.90625 
L 47.609375 72.90625 
L 47.609375 25.390625 
L 58.015625 25.390625 
L 58.015625 17.1875 
L 47.609375 17.1875 
L 47.609375 0 
L 37.796875 0 
L 37.796875 17.1875 
L 4.890625 17.1875 
L 4.890625 26.703125 
z
" id="DejaVuSans-52"/>
       </defs>
       <use xlink:href="#DejaVuSans-52"/>
       <use x="63.623047" xlink:href="#DejaVuSans-48"/>
      </g>
     </g>
    </g>
    <g id="ytick_4">
     <g id="line2d_8">
      <g>
       <use style="stroke:#000000;stroke-width:0.8;" x="57.6" xlink:href="#mc4cc13f3af" y="202.534989"/>
      </g>
     </g>
     <g id="text_8">
      <!-- 60 -->
      <g transform="translate(37.875 206.334208)scale(0.1 -0.1)">
       <defs>
        <path d="M 33.015625 40.375 
Q 26.375 40.375 22.484375 35.828125 
Q 18.609375 31.296875 18.609375 23.390625 
Q 18.609375 15.53125 22.484375 10.953125 
Q 26.375 6.390625 33.015625 6.390625 
Q 39.65625 6.390625 43.53125 10.953125 
Q 47.40625 15.53125 47.40625 23.390625 
Q 47.40625 31.296875 43.53125 35.828125 
Q 39.65625 40.375 33.015625 40.375 
z
M 52.59375 71.296875 
L 52.59375 62.3125 
Q 48.875 64.0625 45.09375 64.984375 
Q 41.3125 65.921875 37.59375 65.921875 
Q 27.828125 65.921875 22.671875 59.328125 
Q 17.53125 52.734375 16.796875 39.40625 
Q 19.671875 43.65625 24.015625 45.921875 
Q 28.375 48.1875 33.59375 48.1875 
Q 44.578125 48.1875 50.953125 41.515625 
Q 57.328125 34.859375 57.328125 23.390625 
Q 57.328125 12.15625 50.6875 5.359375 
Q 44.046875 -1.421875 33.015625 -1.421875 
Q 20.359375 -1.421875 13.671875 8.265625 
Q 6.984375 17.96875 6.984375 36.375 
Q 6.984375 53.65625 15.1875 63.9375 
Q 23.390625 74.21875 37.203125 74.21875 
Q 40.921875 74.21875 44.703125 73.484375 
Q 48.484375 72.75 52.59375 71.296875 
z
" id="DejaVuSans-54"/>
       </defs>
       <use xlink:href="#DejaVuSans-54"/>
       <use x="63.623047" xlink:href="#DejaVuSans-48"/>
      </g>
     </g>
    </g>
    <g id="ytick_5">
     <g id="line2d_9">
      <g>
       <use style="stroke:#000000;stroke-width:0.8;" x="57.6" xlink:href="#mc4cc13f3af" y="171.570512"/>
      </g>
     </g>
     <g id="text_9">
      <!-- 80 -->
      <g transform="translate(37.875 175.369731)scale(0.1 -0.1)">
       <defs>
        <path d="M 31.78125 34.625 
Q 24.75 34.625 20.71875 30.859375 
Q 16.703125 27.09375 16.703125 20.515625 
Q 16.703125 13.921875 20.71875 10.15625 
Q 24.75 6.390625 31.78125 6.390625 
Q 38.8125 6.390625 42.859375 10.171875 
Q 46.921875 13.96875 46.921875 20.515625 
Q 46.921875 27.09375 42.890625 30.859375 
Q 38.875 34.625 31.78125 34.625 
z
M 21.921875 38.8125 
Q 15.578125 40.375 12.03125 44.71875 
Q 8.5 49.078125 8.5 55.328125 
Q 8.5 64.0625 14.71875 69.140625 
Q 20.953125 74.21875 31.78125 74.21875 
Q 42.671875 74.21875 48.875 69.140625 
Q 55.078125 64.0625 55.078125 55.328125 
Q 55.078125 49.078125 51.53125 44.71875 
Q 48 40.375 41.703125 38.8125 
Q 48.828125 37.15625 52.796875 32.3125 
Q 56.78125 27.484375 56.78125 20.515625 
Q 56.78125 9.90625 50.3125 4.234375 
Q 43.84375 -1.421875 31.78125 -1.421875 
Q 19.734375 -1.421875 13.25 4.234375 
Q 6.78125 9.90625 6.78125 20.515625 
Q 6.78125 27.484375 10.78125 32.3125 
Q 14.796875 37.15625 21.921875 38.8125 
z
M 18.3125 54.390625 
Q 18.3125 48.734375 21.84375 45.5625 
Q 25.390625 42.390625 31.78125 42.390625 
Q 38.140625 42.390625 41.71875 45.5625 
Q 45.3125 48.734375 45.3125 54.390625 
Q 45.3125 60.0625 41.71875 63.234375 
Q 38.140625 66.40625 31.78125 66.40625 
Q 25.390625 66.40625 21.84375 63.234375 
Q 18.3125 60.0625 18.3125 54.390625 
z
" id="DejaVuSans-56"/>
       </defs>
       <use xlink:href="#DejaVuSans-56"/>
       <use x="63.623047" xlink:href="#DejaVuSans-48"/>
      </g>
     </g>
    </g>
    <g id="ytick_6">
     <g id="line2d_10">
      <g>
       <use style="stroke:#000000;stroke-width:0.8;" x="57.6" xlink:href="#mc4cc13f3af" y="140.606036"/>
      </g>
     </g>
     <g id="text_10">
      <!-- 100 -->
      <g transform="translate(31.5125 144.405255)scale(0.1 -0.1)">
       <use xlink:href="#DejaVuSans-49"/>
       <use x="63.623047" xlink:href="#DejaVuSans-48"/>
       <use x="127.246094" xlink:href="#DejaVuSans-48"/>
      </g>
     </g>
    </g>
    <g id="ytick_7">
     <g id="line2d_11">
      <g>
       <use style="stroke:#000000;stroke-width:0.8;" x="57.6" xlink:href="#mc4cc13f3af" y="109.641559"/>
      </g>
     </g>
     <g id="text_11">
      <!-- 120 -->
      <g transform="translate(31.5125 113.440778)scale(0.1 -0.1)">
       <use xlink:href="#DejaVuSans-49"/>
       <use x="63.623047" xlink:href="#DejaVuSans-50"/>
       <use x="127.246094" xlink:href="#DejaVuSans-48"/>
      </g>
     </g>
    </g>
    <g id="ytick_8">
     <g id="line2d_12">
      <g>
       <use style="stroke:#000000;stroke-width:0.8;" x="57.6" xlink:href="#mc4cc13f3af" y="78.677083"/>
      </g>
     </g>
     <g id="text_12">
      <!-- 140 -->
      <g transform="translate(31.5125 82.476301)scale(0.1 -0.1)">
       <use xlink:href="#DejaVuSans-49"/>
       <use x="63.623047" xlink:href="#DejaVuSans-52"/>
       <use x="127.246094" xlink:href="#DejaVuSans-48"/>
      </g>
     </g>
    </g>
    <g id="ytick_9">
     <g id="line2d_13">
      <g>
       <use style="stroke:#000000;stroke-width:0.8;" x="57.6" xlink:href="#mc4cc13f3af" y="47.712606"/>
      </g>
     </g>
     <g id="text_13">
      <!-- 160 -->
      <g transform="translate(31.5125 51.511825)scale(0.1 -0.1)">
       <use xlink:href="#DejaVuSans-49"/>
       <use x="63.623047" xlink:href="#DejaVuSans-54"/>
       <use x="127.246094" xlink:href="#DejaVuSans-48"/>
      </g>
     </g>
    </g>
   </g>
   <g id="line2d_14">
    <path clip-path="url(#p198271189b)" d="M 190.70601 295.428419 
L 190.981669 277.096595 
L 191.357154 252.62769 
L 191.067899 246.403685 
L 190.473493 235.998137 
L 190.392973 231.881006 
L 190.503389 227.818625 
L 190.872132 223.830318 
L 191.56659 219.935409 
L 192.627341 216.116828 
L 193.934362 212.196632 
L 195.460411 208.211663 
L 197.202112 204.2375 
L 199.156087 200.349721 
L 201.318959 196.623906 
L 203.687351 193.135632 
L 206.257886 189.960478 
L 209.027187 187.174023 
L 210.48532 185.950176 
L 211.991878 184.851846 
L 213.5861 183.920545 
L 215.299007 183.177362 
L 217.117847 182.601112 
L 219.029869 182.170611 
L 221.022321 181.864672 
L 225.197509 181.541744 
L 231.744729 181.461946 
L 238.327235 181.359215 
L 242.565156 180.995518 
L 244.600737 180.661552 
L 246.56373 180.197926 
L 248.441382 179.583456 
L 250.220943 178.796957 
L 253.691792 176.870234 
L 257.162345 174.631657 
L 260.5772 172.116159 
L 263.880955 169.358671 
L 267.018209 166.394126 
L 269.93356 163.257456 
L 272.571605 159.983594 
L 274.876943 156.607473 
L 276.794172 153.164024 
L 278.303924 149.627003 
L 279.574826 145.697802 
L 280.607511 141.435845 
L 281.367444 136.965457 
L 281.820095 132.410962 
L 281.930928 127.896686 
L 281.665412 123.546954 
L 281.380732 121.472643 
L 280.989014 119.48609 
L 280.485942 117.602835 
L 279.8672 115.838419 
L 279.128471 114.208383 
L 278.265438 112.728267 
L 277.210479 111.422264 
L 275.916115 110.29077 
L 274.408244 109.313635 
L 272.712763 108.470708 
L 270.855572 107.741837 
L 266.759651 106.545659 
L 262.327664 105.563892 
L 255.502779 104.140617 
L 251.137064 102.989587 
L 249.087164 102.292965 
L 247.160433 101.488736 
L 245.382769 100.556748 
L 243.78007 99.476852 
L 242.378235 98.228896 
L 241.179846 96.779932 
L 240.156219 95.128219 
L 239.286349 93.300411 
L 238.549233 91.323165 
L 237.923867 89.223135 
L 236.924366 84.761347 
L 234.423425 71.201352 
L 233.858619 69.195769 
L 233.195523 67.333957 
L 232.413131 65.642572 
L 231.490439 64.148269 
L 230.406444 62.877705 
L 229.140141 61.857533 
L 227.707177 61.075943 
L 226.144616 60.492154 
L 224.463578 60.089372 
L 222.675184 59.850803 
L 220.790555 59.759652 
L 218.820812 59.799125 
L 214.670469 60.202762 
L 210.313121 60.927359 
L 201.333286 62.802008 
L 194.716721 64.051241 
L 190.528831 64.557499 
L 190.528831 64.557499 
" style="fill:none;stroke:#fea952;stroke-linecap:square;"/>
   </g>
   <g id="line2d_15">
    <path clip-path="url(#p198271189b)" d="M 184.513402 295.368837 
L 184.789967 276.975044 
L 185.167922 252.840683 
L 184.887035 246.789521 
L 184.283205 236.177816 
L 184.200625 231.798625 
L 184.327273 227.36305 
L 184.751584 222.886471 
L 185.568979 218.392484 
L 186.731537 214.221717 
L 188.126173 210.047935 
L 189.757827 205.796609 
L 191.630379 201.534215 
L 193.750703 197.327506 
L 196.130111 193.243401 
L 198.786355 189.349844 
L 201.745991 185.718455 
L 203.350716 184.025836 
L 205.045844 182.430516 
L 206.837075 180.945952 
L 208.868108 179.504509 
L 211.121181 178.239336 
L 213.428587 177.273678 
L 215.75754 176.559464 
L 218.089974 176.049455 
L 220.416333 175.701497 
L 225.027165 175.351192 
L 231.735053 175.269058 
L 237.928586 175.179164 
L 241.562527 174.884325 
L 244.637595 174.312184 
L 245.937954 173.919112 
L 247.310415 173.330626 
L 250.418799 171.612909 
L 253.566141 169.589905 
L 256.681688 167.301915 
L 259.698737 164.791287 
L 262.553374 162.102599 
L 265.183992 159.283346 
L 267.531576 156.384976 
L 269.541085 153.464136 
L 271.164512 150.583542 
L 272.451822 147.600958 
L 273.583308 144.131386 
L 274.520959 140.293111 
L 275.216749 136.243725 
L 275.633236 132.137582 
L 275.742482 128.131382 
L 275.530028 124.38898 
L 275.005911 121.084349 
L 274.226536 118.394757 
L 273.447928 116.619739 
L 273.134623 116.084811 
L 272.548286 115.487854 
L 271.651296 114.859011 
L 270.450306 114.235535 
L 268.975637 113.642497 
L 265.359442 112.578185 
L 261.099294 111.633741 
L 254.033403 110.15667 
L 249.144435 108.853151 
L 246.701681 108.007982 
L 244.284878 106.973545 
L 241.922252 105.692581 
L 239.662269 104.102398 
L 237.606045 102.175813 
L 235.915866 100.042213 
L 234.564287 97.789468 
L 233.483573 95.463682 
L 232.613916 93.090639 
L 231.906696 90.687923 
L 230.829708 85.860028 
L 228.462398 72.880075 
L 227.574844 69.933941 
L 226.779184 68.167725 
L 226.174737 67.294291 
L 225.539777 66.877178 
L 224.701623 66.514589 
L 223.644708 66.227891 
L 222.376011 66.036468 
L 220.914632 65.951304 
L 217.507859 66.102053 
L 213.604376 66.629149 
L 207.136762 67.893681 
L 197.922947 69.789276 
L 193.217699 70.509534 
L 191.153483 70.718811 
L 191.153483 70.718811 
" style="fill:none;stroke:#ffffff;stroke-linecap:square;"/>
   </g>
   <g id="line2d_16">
    <path clip-path="url(#p198271189b)" d="M 196.898619 295.488 
L 197.173371 277.218146 
L 197.583815 254.580356 
L 197.369596 248.131607 
L 196.606161 233.871781 
L 196.607756 230.096493 
L 196.806117 226.499319 
L 197.243885 223.100315 
L 197.991583 219.799027 
L 199.107141 216.190453 
L 200.428251 212.487218 
L 201.945387 208.774389 
L 203.646564 205.136453 
L 205.516153 201.657764 
L 207.53315 198.422241 
L 209.668935 195.511757 
L 211.885088 193.002043 
L 214.133564 190.954401 
L 216.051019 189.601753 
L 217.169427 189.081045 
L 218.478155 188.64276 
L 219.969764 188.291767 
L 223.43432 187.845003 
L 227.410074 187.675032 
L 238.725884 187.539266 
L 243.567786 187.106712 
L 246.02423 186.688626 
L 248.489864 186.083668 
L 250.94481 185.247801 
L 253.131471 184.263288 
L 256.964785 182.12756 
L 260.758548 179.67341 
L 264.472711 176.930403 
L 268.063174 173.926055 
L 271.483045 170.685652 
L 274.683128 167.231567 
L 277.611635 163.582213 
L 280.212802 159.75081 
L 281.371415 157.769307 
L 282.423832 155.744505 
L 283.346913 153.710319 
L 284.895752 149.501118 
L 286.166547 144.952958 
L 287.145821 140.152715 
L 287.806782 135.193837 
L 288.113224 130.170086 
L 288.018136 125.17039 
L 287.800797 122.704927 
L 287.456633 120.274569 
L 286.972117 117.887831 
L 286.329921 115.553479 
L 285.507864 113.282081 
L 284.478342 111.088955 
L 283.082948 108.836796 
L 281.286336 106.759716 
L 279.283944 105.093686 
L 277.165191 103.768259 
L 274.975221 102.70588 
L 272.735508 101.841176 
L 268.15986 100.513133 
L 261.292977 99.036081 
L 254.974494 97.640989 
L 251.472647 96.577947 
L 248.843286 95.420916 
L 247.150425 94.281979 
L 246.443825 93.517652 
L 245.748151 92.46697 
L 245.089126 91.137141 
L 244.48455 89.55569 
L 243.455751 85.782203 
L 242.616441 81.432302 
L 240.946697 71.937827 
L 240.384451 69.522629 
L 239.692549 67.117976 
L 238.816202 64.733973 
L 237.682444 62.388913 
L 236.201695 60.128814 
L 234.291647 58.055138 
L 232.105546 56.420776 
L 229.874578 55.274708 
L 227.587609 54.469719 
L 225.282447 53.950854 
L 222.974357 53.665139 
L 220.666478 53.568 
L 218.357582 53.623579 
L 213.732893 54.08125 
L 209.111776 54.852104 
L 200.08677 56.735861 
L 193.859031 57.918026 
L 189.904178 58.396188 
L 189.904178 58.396188 
" style="fill:none;stroke:#ffffff;stroke-linecap:square;"/>
   </g>
   <g id="patch_3">
    <path d="M 57.6 307.584 
L 57.6 41.472 
" style="fill:none;stroke:#000000;stroke-linecap:square;stroke-linejoin:miter;stroke-width:0.8;"/>
   </g>
   <g id="patch_4">
    <path d="M 414.72 307.584 
L 414.72 41.472 
" style="fill:none;stroke:#000000;stroke-linecap:square;stroke-linejoin:miter;stroke-width:0.8;"/>
   </g>
   <g id="patch_5">
    <path d="M 57.6 307.584 
L 414.72 307.584 
" style="fill:none;stroke:#000000;stroke-linecap:square;stroke-linejoin:miter;stroke-width:0.8;"/>
   </g>
   <g id="patch_6">
    <path d="M 57.6 41.472 
L 414.72 41.472 
" style="fill:none;stroke:#000000;stroke-linecap:square;stroke-linejoin:miter;stroke-width:0.8;"/>
   </g>
  </g>
 </g>
 <defs>
  <clipPath id="p198271189b">
   <rect height="266.112" width="357.12" x="57.6" y="41.472"/>
  </clipPath>
 </defs>
</svg>
