<?xml version="1.0" encoding="utf-8" standalone="no"?>
<!DOCTYPE svg PUBLIC "-//W3C//DTD SVG 1.1//EN"
  "http://www.w3.org/Graphics/SVG/1.1/DTD/svg11.dtd">
<!-- Created with matplotlib (https://matplotlib.org/) -->
<svg height="345.6pt" version="1.1" viewBox="0 0 460.8 345.6" width="460.8pt" xmlns="http://www.w3.org/2000/svg" xmlns:xlink="http://www.w3.org/1999/xlink">
 <metadata>
  <rdf:RDF xmlns:cc="http://creativecommons.org/ns#" xmlns:dc="http://purl.org/dc/elements/1.1/" xmlns:rdf="http://www.w3.org/1999/02/22-rdf-syntax-ns#">
   <cc:Work>
    <dc:type rdf:resource="http://purl.org/dc/dcmitype/StillImage"/>
    <dc:date>2021-06-14T10:55:35.171141</dc:date>
    <dc:format>image/svg+xml</dc:format>
    <dc:creator>
     <cc:Agent>
      <dc:title>Matplotlib v3.3.3, https://matplotlib.org/</dc:title>
     </cc:Agent>
    </dc:creator>
   </cc:Work>
  </rdf:RDF>
 </metadata>
 <defs>
  <style type="text/css">*{stroke-linecap:butt;stroke-linejoin:round;}</style>
 </defs>
 <g id="figure_1">
  <g id="patch_1">
   <path d="M 0 345.6 
L 460.8 345.6 
L 460.8 0 
L 0 0 
z
" style="fill:#ffffff;"/>
  </g>
  <g id="axes_1">
   <g id="patch_2">
    <path d="M 57.6 307.584 
L 414.72 307.584 
L 414.72 41.472 
L 57.6 41.472 
z
" style="fill:#7d9051;"/>
   </g>
   <g id="matplotlib.axis_1">
    <g id="xtick_1">
     <g id="line2d_1">
      <defs>
       <path d="M 0 0 
L 0 3.5 
" id="m86e65a8674" style="stroke:#000000;stroke-width:0.8;"/>
      </defs>
      <g>
       <use style="stroke:#000000;stroke-width:0.8;" x="59.614219" xlink:href="#m86e65a8674" y="307.584"/>
      </g>
     </g>
     <g id="text_1">
      <!-- −150 -->
      <g transform="translate(45.880625 322.182437)scale(0.1 -0.1)">
       <defs>
        <path d="M 10.59375 35.5 
L 73.1875 35.5 
L 73.1875 27.203125 
L 10.59375 27.203125 
z
" id="DejaVuSans-8722"/>
        <path d="M 12.40625 8.296875 
L 28.515625 8.296875 
L 28.515625 63.921875 
L 10.984375 60.40625 
L 10.984375 69.390625 
L 28.421875 72.90625 
L 38.28125 72.90625 
L 38.28125 8.296875 
L 54.390625 8.296875 
L 54.390625 0 
L 12.40625 0 
z
" id="DejaVuSans-49"/>
        <path d="M 10.796875 72.90625 
L 49.515625 72.90625 
L 49.515625 64.59375 
L 19.828125 64.59375 
L 19.828125 46.734375 
Q 21.96875 47.46875 24.109375 47.828125 
Q 26.265625 48.1875 28.421875 48.1875 
Q 40.625 48.1875 47.75 41.5 
Q 54.890625 34.8125 54.890625 23.390625 
Q 54.890625 11.625 47.5625 5.09375 
Q 40.234375 -1.421875 26.90625 -1.421875 
Q 22.3125 -1.421875 17.546875 -0.640625 
Q 12.796875 0.140625 7.71875 1.703125 
L 7.71875 11.625 
Q 12.109375 9.234375 16.796875 8.0625 
Q 21.484375 6.890625 26.703125 6.890625 
Q 35.15625 6.890625 40.078125 11.328125 
Q 45.015625 15.765625 45.015625 23.390625 
Q 45.015625 31 40.078125 35.4375 
Q 35.15625 39.890625 26.703125 39.890625 
Q 22.75 39.890625 18.8125 39.015625 
Q 14.890625 38.140625 10.796875 36.28125 
z
" id="DejaVuSans-53"/>
        <path d="M 31.78125 66.40625 
Q 24.171875 66.40625 20.328125 58.90625 
Q 16.5 51.421875 16.5 36.375 
Q 16.5 21.390625 20.328125 13.890625 
Q 24.171875 6.390625 31.78125 6.390625 
Q 39.453125 6.390625 43.28125 13.890625 
Q 47.125 21.390625 47.125 36.375 
Q 47.125 51.421875 43.28125 58.90625 
Q 39.453125 66.40625 31.78125 66.40625 
z
M 31.78125 74.21875 
Q 44.046875 74.21875 50.515625 64.515625 
Q 56.984375 54.828125 56.984375 36.375 
Q 56.984375 17.96875 50.515625 8.265625 
Q 44.046875 -1.421875 31.78125 -1.421875 
Q 19.53125 -1.421875 13.0625 8.265625 
Q 6.59375 17.96875 6.59375 36.375 
Q 6.59375 54.828125 13.0625 64.515625 
Q 19.53125 74.21875 31.78125 74.21875 
z
" id="DejaVuSans-48"/>
       </defs>
       <use xlink:href="#DejaVuSans-8722"/>
       <use x="83.789062" xlink:href="#DejaVuSans-49"/>
       <use x="147.412109" xlink:href="#DejaVuSans-53"/>
       <use x="211.035156" xlink:href="#DejaVuSans-48"/>
      </g>
     </g>
    </g>
    <g id="xtick_2">
     <g id="line2d_2">
      <g>
       <use style="stroke:#000000;stroke-width:0.8;" x="106.725441" xlink:href="#m86e65a8674" y="307.584"/>
      </g>
     </g>
     <g id="text_2">
      <!-- −125 -->
      <g transform="translate(92.991847 322.182437)scale(0.1 -0.1)">
       <defs>
        <path d="M 19.1875 8.296875 
L 53.609375 8.296875 
L 53.609375 0 
L 7.328125 0 
L 7.328125 8.296875 
Q 12.9375 14.109375 22.625 23.890625 
Q 32.328125 33.6875 34.8125 36.53125 
Q 39.546875 41.84375 41.421875 45.53125 
Q 43.3125 49.21875 43.3125 52.78125 
Q 43.3125 58.59375 39.234375 62.25 
Q 35.15625 65.921875 28.609375 65.921875 
Q 23.96875 65.921875 18.8125 64.3125 
Q 13.671875 62.703125 7.8125 59.421875 
L 7.8125 69.390625 
Q 13.765625 71.78125 18.9375 73 
Q 24.125 74.21875 28.421875 74.21875 
Q 39.75 74.21875 46.484375 68.546875 
Q 53.21875 62.890625 53.21875 53.421875 
Q 53.21875 48.921875 51.53125 44.890625 
Q 49.859375 40.875 45.40625 35.40625 
Q 44.1875 33.984375 37.640625 27.21875 
Q 31.109375 20.453125 19.1875 8.296875 
z
" id="DejaVuSans-50"/>
       </defs>
       <use xlink:href="#DejaVuSans-8722"/>
       <use x="83.789062" xlink:href="#DejaVuSans-49"/>
       <use x="147.412109" xlink:href="#DejaVuSans-50"/>
       <use x="211.035156" xlink:href="#DejaVuSans-53"/>
      </g>
     </g>
    </g>
    <g id="xtick_3">
     <g id="line2d_3">
      <g>
       <use style="stroke:#000000;stroke-width:0.8;" x="153.836663" xlink:href="#m86e65a8674" y="307.584"/>
      </g>
     </g>
     <g id="text_3">
      <!-- −100 -->
      <g transform="translate(140.10307 322.182437)scale(0.1 -0.1)">
       <use xlink:href="#DejaVuSans-8722"/>
       <use x="83.789062" xlink:href="#DejaVuSans-49"/>
       <use x="147.412109" xlink:href="#DejaVuSans-48"/>
       <use x="211.035156" xlink:href="#DejaVuSans-48"/>
      </g>
     </g>
    </g>
    <g id="xtick_4">
     <g id="line2d_4">
      <g>
       <use style="stroke:#000000;stroke-width:0.8;" x="200.947886" xlink:href="#m86e65a8674" y="307.584"/>
      </g>
     </g>
     <g id="text_4">
      <!-- −75 -->
      <g transform="translate(190.395542 322.182437)scale(0.1 -0.1)">
       <defs>
        <path d="M 8.203125 72.90625 
L 55.078125 72.90625 
L 55.078125 68.703125 
L 28.609375 0 
L 18.3125 0 
L 43.21875 64.59375 
L 8.203125 64.59375 
z
" id="DejaVuSans-55"/>
       </defs>
       <use xlink:href="#DejaVuSans-8722"/>
       <use x="83.789062" xlink:href="#DejaVuSans-55"/>
       <use x="147.412109" xlink:href="#DejaVuSans-53"/>
      </g>
     </g>
    </g>
    <g id="xtick_5">
     <g id="line2d_5">
      <g>
       <use style="stroke:#000000;stroke-width:0.8;" x="248.059108" xlink:href="#m86e65a8674" y="307.584"/>
      </g>
     </g>
     <g id="text_5">
      <!-- −50 -->
      <g transform="translate(237.506764 322.182437)scale(0.1 -0.1)">
       <use xlink:href="#DejaVuSans-8722"/>
       <use x="83.789062" xlink:href="#DejaVuSans-53"/>
       <use x="147.412109" xlink:href="#DejaVuSans-48"/>
      </g>
     </g>
    </g>
    <g id="xtick_6">
     <g id="line2d_6">
      <g>
       <use style="stroke:#000000;stroke-width:0.8;" x="295.170331" xlink:href="#m86e65a8674" y="307.584"/>
      </g>
     </g>
     <g id="text_6">
      <!-- −25 -->
      <g transform="translate(284.617987 322.182437)scale(0.1 -0.1)">
       <use xlink:href="#DejaVuSans-8722"/>
       <use x="83.789062" xlink:href="#DejaVuSans-50"/>
       <use x="147.412109" xlink:href="#DejaVuSans-53"/>
      </g>
     </g>
    </g>
    <g id="xtick_7">
     <g id="line2d_7">
      <g>
       <use style="stroke:#000000;stroke-width:0.8;" x="342.281553" xlink:href="#m86e65a8674" y="307.584"/>
      </g>
     </g>
     <g id="text_7">
      <!-- 0 -->
      <g transform="translate(339.100303 322.182437)scale(0.1 -0.1)">
       <use xlink:href="#DejaVuSans-48"/>
      </g>
     </g>
    </g>
    <g id="xtick_8">
     <g id="line2d_8">
      <g>
       <use style="stroke:#000000;stroke-width:0.8;" x="389.392775" xlink:href="#m86e65a8674" y="307.584"/>
      </g>
     </g>
     <g id="text_8">
      <!-- 25 -->
      <g transform="translate(383.030275 322.182437)scale(0.1 -0.1)">
       <use xlink:href="#DejaVuSans-50"/>
       <use x="63.623047" xlink:href="#DejaVuSans-53"/>
      </g>
     </g>
    </g>
   </g>
   <g id="matplotlib.axis_2">
    <g id="ytick_1">
     <g id="line2d_9">
      <defs>
       <path d="M 0 0 
L -3.5 0 
" id="ma9a6a841f7" style="stroke:#000000;stroke-width:0.8;"/>
      </defs>
      <g>
       <use style="stroke:#000000;stroke-width:0.8;" x="57.6" xlink:href="#ma9a6a841f7" y="295.415479"/>
      </g>
     </g>
     <g id="text_9">
      <!-- 0 -->
      <g transform="translate(44.2375 299.214698)scale(0.1 -0.1)">
       <use xlink:href="#DejaVuSans-48"/>
      </g>
     </g>
    </g>
    <g id="ytick_2">
     <g id="line2d_10">
      <g>
       <use style="stroke:#000000;stroke-width:0.8;" x="57.6" xlink:href="#ma9a6a841f7" y="257.726501"/>
      </g>
     </g>
     <g id="text_10">
      <!-- 20 -->
      <g transform="translate(37.875 261.52572)scale(0.1 -0.1)">
       <use xlink:href="#DejaVuSans-50"/>
       <use x="63.623047" xlink:href="#DejaVuSans-48"/>
      </g>
     </g>
    </g>
    <g id="ytick_3">
     <g id="line2d_11">
      <g>
       <use style="stroke:#000000;stroke-width:0.8;" x="57.6" xlink:href="#ma9a6a841f7" y="220.037524"/>
      </g>
     </g>
     <g id="text_11">
      <!-- 40 -->
      <g transform="translate(37.875 223.836742)scale(0.1 -0.1)">
       <defs>
        <path d="M 37.796875 64.3125 
L 12.890625 25.390625 
L 37.796875 25.390625 
z
M 35.203125 72.90625 
L 47.609375 72.90625 
L 47.609375 25.390625 
L 58.015625 25.390625 
L 58.015625 17.1875 
L 47.609375 17.1875 
L 47.609375 0 
L 37.796875 0 
L 37.796875 17.1875 
L 4.890625 17.1875 
L 4.890625 26.703125 
z
" id="DejaVuSans-52"/>
       </defs>
       <use xlink:href="#DejaVuSans-52"/>
       <use x="63.623047" xlink:href="#DejaVuSans-48"/>
      </g>
     </g>
    </g>
    <g id="ytick_4">
     <g id="line2d_12">
      <g>
       <use style="stroke:#000000;stroke-width:0.8;" x="57.6" xlink:href="#ma9a6a841f7" y="182.348546"/>
      </g>
     </g>
     <g id="text_12">
      <!-- 60 -->
      <g transform="translate(37.875 186.147764)scale(0.1 -0.1)">
       <defs>
        <path d="M 33.015625 40.375 
Q 26.375 40.375 22.484375 35.828125 
Q 18.609375 31.296875 18.609375 23.390625 
Q 18.609375 15.53125 22.484375 10.953125 
Q 26.375 6.390625 33.015625 6.390625 
Q 39.65625 6.390625 43.53125 10.953125 
Q 47.40625 15.53125 47.40625 23.390625 
Q 47.40625 31.296875 43.53125 35.828125 
Q 39.65625 40.375 33.015625 40.375 
z
M 52.59375 71.296875 
L 52.59375 62.3125 
Q 48.875 64.0625 45.09375 64.984375 
Q 41.3125 65.921875 37.59375 65.921875 
Q 27.828125 65.921875 22.671875 59.328125 
Q 17.53125 52.734375 16.796875 39.40625 
Q 19.671875 43.65625 24.015625 45.921875 
Q 28.375 48.1875 33.59375 48.1875 
Q 44.578125 48.1875 50.953125 41.515625 
Q 57.328125 34.859375 57.328125 23.390625 
Q 57.328125 12.15625 50.6875 5.359375 
Q 44.046875 -1.421875 33.015625 -1.421875 
Q 20.359375 -1.421875 13.671875 8.265625 
Q 6.984375 17.96875 6.984375 36.375 
Q 6.984375 53.65625 15.1875 63.9375 
Q 23.390625 74.21875 37.203125 74.21875 
Q 40.921875 74.21875 44.703125 73.484375 
Q 48.484375 72.75 52.59375 71.296875 
z
" id="DejaVuSans-54"/>
       </defs>
       <use xlink:href="#DejaVuSans-54"/>
       <use x="63.623047" xlink:href="#DejaVuSans-48"/>
      </g>
     </g>
    </g>
    <g id="ytick_5">
     <g id="line2d_13">
      <g>
       <use style="stroke:#000000;stroke-width:0.8;" x="57.6" xlink:href="#ma9a6a841f7" y="144.659568"/>
      </g>
     </g>
     <g id="text_13">
      <!-- 80 -->
      <g transform="translate(37.875 148.458786)scale(0.1 -0.1)">
       <defs>
        <path d="M 31.78125 34.625 
Q 24.75 34.625 20.71875 30.859375 
Q 16.703125 27.09375 16.703125 20.515625 
Q 16.703125 13.921875 20.71875 10.15625 
Q 24.75 6.390625 31.78125 6.390625 
Q 38.8125 6.390625 42.859375 10.171875 
Q 46.921875 13.96875 46.921875 20.515625 
Q 46.921875 27.09375 42.890625 30.859375 
Q 38.875 34.625 31.78125 34.625 
z
M 21.921875 38.8125 
Q 15.578125 40.375 12.03125 44.71875 
Q 8.5 49.078125 8.5 55.328125 
Q 8.5 64.0625 14.71875 69.140625 
Q 20.953125 74.21875 31.78125 74.21875 
Q 42.671875 74.21875 48.875 69.140625 
Q 55.078125 64.0625 55.078125 55.328125 
Q 55.078125 49.078125 51.53125 44.71875 
Q 48 40.375 41.703125 38.8125 
Q 48.828125 37.15625 52.796875 32.3125 
Q 56.78125 27.484375 56.78125 20.515625 
Q 56.78125 9.90625 50.3125 4.234375 
Q 43.84375 -1.421875 31.78125 -1.421875 
Q 19.734375 -1.421875 13.25 4.234375 
Q 6.78125 9.90625 6.78125 20.515625 
Q 6.78125 27.484375 10.78125 32.3125 
Q 14.796875 37.15625 21.921875 38.8125 
z
M 18.3125 54.390625 
Q 18.3125 48.734375 21.84375 45.5625 
Q 25.390625 42.390625 31.78125 42.390625 
Q 38.140625 42.390625 41.71875 45.5625 
Q 45.3125 48.734375 45.3125 54.390625 
Q 45.3125 60.0625 41.71875 63.234375 
Q 38.140625 66.40625 31.78125 66.40625 
Q 25.390625 66.40625 21.84375 63.234375 
Q 18.3125 60.0625 18.3125 54.390625 
z
" id="DejaVuSans-56"/>
       </defs>
       <use xlink:href="#DejaVuSans-56"/>
       <use x="63.623047" xlink:href="#DejaVuSans-48"/>
      </g>
     </g>
    </g>
    <g id="ytick_6">
     <g id="line2d_14">
      <g>
       <use style="stroke:#000000;stroke-width:0.8;" x="57.6" xlink:href="#ma9a6a841f7" y="106.97059"/>
      </g>
     </g>
     <g id="text_14">
      <!-- 100 -->
      <g transform="translate(31.5125 110.769809)scale(0.1 -0.1)">
       <use xlink:href="#DejaVuSans-49"/>
       <use x="63.623047" xlink:href="#DejaVuSans-48"/>
       <use x="127.246094" xlink:href="#DejaVuSans-48"/>
      </g>
     </g>
    </g>
    <g id="ytick_7">
     <g id="line2d_15">
      <g>
       <use style="stroke:#000000;stroke-width:0.8;" x="57.6" xlink:href="#ma9a6a841f7" y="69.281612"/>
      </g>
     </g>
     <g id="text_15">
      <!-- 120 -->
      <g transform="translate(31.5125 73.080831)scale(0.1 -0.1)">
       <use xlink:href="#DejaVuSans-49"/>
       <use x="63.623047" xlink:href="#DejaVuSans-50"/>
       <use x="127.246094" xlink:href="#DejaVuSans-48"/>
      </g>
     </g>
    </g>
   </g>
   <g id="line2d_16">
    <path clip-path="url(#p62221a6612)" d="M 342.281553 295.415479 
L 342.569726 275.58169 
L 343.246913 243.347162 
L 343.753 233.395521 
L 344.385608 220.955971 
L 344.52542 213.51744 
L 344.435482 208.577669 
L 344.15241 203.658196 
L 343.148244 193.741273 
L 342.256304 186.132146 
L 341.52245 181.056803 
L 340.624173 176.033191 
L 339.516012 171.107427 
L 338.152504 166.325627 
L 336.488186 161.73391 
L 334.477596 157.378393 
L 332.068086 153.229814 
L 329.214259 148.920892 
L 325.973806 144.521698 
L 322.416402 140.181996 
L 318.611721 136.051554 
L 314.629439 132.280138 
L 312.59347 130.575867 
L 310.539229 129.017515 
L 308.475424 127.623802 
L 306.410766 126.413449 
L 304.353964 125.405178 
L 302.313726 124.617709 
L 300.298762 124.069762 
L 298.317781 123.780059 
L 296.340068 123.853352 
L 294.331409 124.348928 
L 292.295269 125.217307 
L 290.235113 126.409013 
L 288.154407 127.874567 
L 286.056614 129.56449 
L 281.823629 133.419536 
L 273.305081 141.645035 
L 271.184702 143.520164 
L 269.074956 145.22384 
L 266.979307 146.706582 
L 264.90122 147.918915 
L 262.844162 148.811359 
L 260.811595 149.334437 
L 258.806985 149.43867 
L 256.840862 149.132832 
L 254.917306 148.482385 
L 253.030114 147.522888 
L 251.173081 146.289901 
L 249.340003 144.818982 
L 247.524675 143.14569 
L 243.922454 139.334221 
L 232.89654 126.740966 
L 230.961767 124.846459 
L 228.982701 123.105166 
L 226.953136 121.552646 
L 224.866869 120.224458 
L 222.717695 119.15616 
L 220.503912 118.308634 
L 218.231547 117.609308 
L 215.905995 117.043566 
L 211.116901 116.254367 
L 206.179776 115.8241 
L 201.137767 115.635831 
L 185.813887 115.35365 
L 180.783798 114.964013 
L 175.864553 114.231696 
L 170.794856 113.373282 
L 148.804317 110.107797 
L 143.686761 108.878594 
L 141.296098 108.139522 
L 139.044444 107.302308 
L 136.952001 106.35558 
L 135.038968 105.287965 
L 133.325547 104.088092 
L 131.831937 102.744589 
L 130.57834 101.246084 
L 129.5792 99.574352 
L 128.821814 97.728698 
L 128.285653 95.724039 
L 127.950192 93.575297 
L 127.794903 91.29739 
L 127.79926 88.905238 
L 127.942736 86.413762 
L 128.564936 81.192512 
L 129.49729 75.752996 
L 132.107438 61.982579 
L 132.83214 56.719073 
L 133.043951 54.199426 
L 133.043951 54.199426 
" style="fill:none;stroke:#fea952;stroke-linecap:square;"/>
   </g>
   <g id="line2d_17">
    <path clip-path="url(#p62221a6612)" d="M 334.744106 295.342959 
L 335.033305 275.43775 
L 335.716032 243.024387 
L 336.227637 232.962766 
L 336.851395 220.723592 
L 336.987959 213.588554 
L 336.905878 208.928984 
L 336.646586 204.351716 
L 335.655304 194.562373 
L 334.788688 187.158336 
L 333.689803 179.934274 
L 332.766595 175.302111 
L 331.65375 170.876996 
L 330.325239 166.708568 
L 328.760397 162.840993 
L 326.886489 159.217975 
L 324.461352 155.335604 
L 321.624934 151.268692 
L 318.465769 147.191774 
L 315.076629 143.273868 
L 311.560191 139.682056 
L 308.037797 136.581216 
L 304.663331 134.126594 
L 303.092859 133.181747 
L 300.33574 131.891355 
L 298.145647 131.171702 
L 297.288455 131.282487 
L 296.069567 131.742109 
L 294.575744 132.571584 
L 292.883148 133.744606 
L 291.046495 135.21422 
L 287.074173 138.827878 
L 278.298545 147.291599 
L 275.920388 149.384603 
L 273.428656 151.377184 
L 270.777654 153.217414 
L 267.901281 154.833971 
L 264.722789 156.111299 
L 261.203008 156.862063 
L 257.648384 156.886892 
L 254.426281 156.273431 
L 251.501088 155.201597 
L 248.860691 153.80256 
L 246.455547 152.168952 
L 244.231215 150.361423 
L 242.141783 148.42232 
L 238.236925 144.283274 
L 227.62285 132.12674 
L 224.402935 129.092161 
L 222.905056 127.911215 
L 221.511676 126.97435 
L 220.022671 126.195706 
L 218.286757 125.512979 
L 216.449778 124.933491 
L 214.511523 124.451252 
L 210.34442 123.752476 
L 205.828649 123.353713 
L 201.019608 123.1727 
L 185.339528 122.876505 
L 179.829547 122.441163 
L 174.525159 121.649539 
L 169.724174 120.834649 
L 150.077304 118.02475 
L 144.299912 116.826258 
L 141.460421 116.080106 
L 138.669097 115.204735 
L 135.937206 114.169872 
L 133.27866 112.937747 
L 130.71517 111.462358 
L 128.284573 109.692282 
L 126.050443 107.581187 
L 124.108084 105.113144 
L 122.605727 102.436 
L 121.539968 99.67628 
L 120.838073 96.886754 
L 120.429851 94.087971 
L 120.25712 91.283662 
L 120.273932 88.471881 
L 120.443651 85.650813 
L 121.124269 79.986347 
L 122.094912 74.330614 
L 124.655546 60.847826 
L 125.320838 56.087647 
L 125.532648 53.568 
L 125.532648 53.568 
" style="fill:none;stroke:#ffffff;stroke-linecap:square;"/>
   </g>
   <g id="line2d_18">
    <path clip-path="url(#p62221a6612)" d="M 349.819 295.488 
L 350.106147 275.72563 
L 350.777795 243.669936 
L 351.278363 233.828277 
L 351.919821 221.18835 
L 352.06288 213.446326 
L 351.965086 208.226353 
L 351.658234 202.964677 
L 350.641185 192.920174 
L 349.723921 185.105956 
L 348.955015 179.801676 
L 347.998284 174.470866 
L 346.79639 169.15436 
L 345.287147 163.893502 
L 343.402899 158.733058 
L 342.297637 156.206495 
L 341.071259 153.725725 
L 338.405349 149.148458 
L 335.339453 144.527676 
L 331.867559 139.822545 
L 328.03896 135.161518 
L 323.896133 130.6763 
L 321.71666 128.541159 
L 319.467791 126.500112 
L 317.149142 124.570518 
L 314.757762 122.770728 
L 312.287518 121.12101 
L 309.728673 119.645151 
L 307.068167 118.373004 
L 304.291711 117.344062 
L 301.389503 116.611301 
L 298.038626 116.247435 
L 294.534488 116.535003 
L 291.374362 117.415369 
L 288.52097 118.692506 
L 285.894482 120.246442 
L 283.425665 122.004527 
L 281.066732 123.914761 
L 276.573086 128.011195 
L 268.311618 135.998471 
L 264.721255 139.070495 
L 261.90116 141.003859 
L 259.965587 141.990449 
L 259.255442 141.992232 
L 258.333524 141.763172 
L 257.199536 141.243216 
L 255.890615 140.410851 
L 254.448791 139.276541 
L 252.907568 137.86906 
L 249.607982 134.385167 
L 238.170229 121.355192 
L 235.940985 119.187329 
L 233.562466 117.118171 
L 231.001217 115.194076 
L 228.222062 113.474566 
L 225.41272 112.116614 
L 222.721066 111.104289 
L 220.013316 110.285125 
L 217.300467 109.635881 
L 214.590533 109.133599 
L 209.201554 108.483062 
L 203.881095 108.172208 
L 196.096542 108.035087 
L 188.661628 107.924867 
L 183.978206 107.688258 
L 179.573821 107.217312 
L 169.129821 105.519645 
L 155.482014 103.646877 
L 150.432309 102.747905 
L 145.913102 101.677082 
L 142.151682 100.434744 
L 139.362766 99.113572 
L 137.613432 97.90799 
L 137.048595 97.379023 
L 136.552674 96.712704 
L 136.10366 95.781115 
L 135.733234 94.561324 
L 135.470533 93.062622 
L 135.332686 91.311118 
L 135.324588 89.338596 
L 135.673705 84.854674 
L 136.420443 79.832007 
L 137.972719 71.663963 
L 139.55933 63.117333 
L 140.343443 57.350499 
L 140.555253 54.830851 
L 140.555253 54.830851 
" style="fill:none;stroke:#ffffff;stroke-linecap:square;"/>
   </g>
   <g id="patch_3">
    <path d="M 57.6 307.584 
L 57.6 41.472 
" style="fill:none;stroke:#000000;stroke-linecap:square;stroke-linejoin:miter;stroke-width:0.8;"/>
   </g>
   <g id="patch_4">
    <path d="M 414.72 307.584 
L 414.72 41.472 
" style="fill:none;stroke:#000000;stroke-linecap:square;stroke-linejoin:miter;stroke-width:0.8;"/>
   </g>
   <g id="patch_5">
    <path d="M 57.6 307.584 
L 414.72 307.584 
" style="fill:none;stroke:#000000;stroke-linecap:square;stroke-linejoin:miter;stroke-width:0.8;"/>
   </g>
   <g id="patch_6">
    <path d="M 57.6 41.472 
L 414.72 41.472 
" style="fill:none;stroke:#000000;stroke-linecap:square;stroke-linejoin:miter;stroke-width:0.8;"/>
   </g>
  </g>
 </g>
 <defs>
  <clipPath id="p62221a6612">
   <rect height="266.112" width="357.12" x="57.6" y="41.472"/>
  </clipPath>
 </defs>
</svg>
