<?xml version="1.0" encoding="utf-8" standalone="no"?>
<!DOCTYPE svg PUBLIC "-//W3C//DTD SVG 1.1//EN"
  "http://www.w3.org/Graphics/SVG/1.1/DTD/svg11.dtd">
<!-- Created with matplotlib (https://matplotlib.org/) -->
<svg height="345.6pt" version="1.1" viewBox="0 0 460.8 345.6" width="460.8pt" xmlns="http://www.w3.org/2000/svg" xmlns:xlink="http://www.w3.org/1999/xlink">
 <metadata>
  <rdf:RDF xmlns:cc="http://creativecommons.org/ns#" xmlns:dc="http://purl.org/dc/elements/1.1/" xmlns:rdf="http://www.w3.org/1999/02/22-rdf-syntax-ns#">
   <cc:Work>
    <dc:type rdf:resource="http://purl.org/dc/dcmitype/StillImage"/>
    <dc:date>2021-06-17T18:36:21.463206</dc:date>
    <dc:format>image/svg+xml</dc:format>
    <dc:creator>
     <cc:Agent>
      <dc:title>Matplotlib v3.3.3, https://matplotlib.org/</dc:title>
     </cc:Agent>
    </dc:creator>
   </cc:Work>
  </rdf:RDF>
 </metadata>
 <defs>
  <style type="text/css">*{stroke-linecap:butt;stroke-linejoin:round;}</style>
 </defs>
 <g id="figure_1">
  <g id="patch_1">
   <path d="M 0 345.6 
L 460.8 345.6 
L 460.8 0 
L 0 0 
z
" style="fill:#ffffff;"/>
  </g>
  <g id="axes_1">
   <g id="patch_2">
    <path d="M 57.6 307.584 
L 414.72 307.584 
L 414.72 41.472 
L 57.6 41.472 
z
" style="fill:#7d9051;"/>
   </g>
   <g id="matplotlib.axis_1">
    <g id="xtick_1">
     <g id="line2d_1">
      <defs>
       <path d="M 0 0 
L 0 3.5 
" id="mb78b8259e2" style="stroke:#000000;stroke-width:0.8;"/>
      </defs>
      <g>
       <use style="stroke:#000000;stroke-width:0.8;" x="67.725207" xlink:href="#mb78b8259e2" y="307.584"/>
      </g>
     </g>
     <g id="text_1">
      <!-- −75 -->
      <g transform="translate(57.172863 322.182437)scale(0.1 -0.1)">
       <defs>
        <path d="M 10.59375 35.5 
L 73.1875 35.5 
L 73.1875 27.203125 
L 10.59375 27.203125 
z
" id="DejaVuSans-8722"/>
        <path d="M 8.203125 72.90625 
L 55.078125 72.90625 
L 55.078125 68.703125 
L 28.609375 0 
L 18.3125 0 
L 43.21875 64.59375 
L 8.203125 64.59375 
z
" id="DejaVuSans-55"/>
        <path d="M 10.796875 72.90625 
L 49.515625 72.90625 
L 49.515625 64.59375 
L 19.828125 64.59375 
L 19.828125 46.734375 
Q 21.96875 47.46875 24.109375 47.828125 
Q 26.265625 48.1875 28.421875 48.1875 
Q 40.625 48.1875 47.75 41.5 
Q 54.890625 34.8125 54.890625 23.390625 
Q 54.890625 11.625 47.5625 5.09375 
Q 40.234375 -1.421875 26.90625 -1.421875 
Q 22.3125 -1.421875 17.546875 -0.640625 
Q 12.796875 0.140625 7.71875 1.703125 
L 7.71875 11.625 
Q 12.109375 9.234375 16.796875 8.0625 
Q 21.484375 6.890625 26.703125 6.890625 
Q 35.15625 6.890625 40.078125 11.328125 
Q 45.015625 15.765625 45.015625 23.390625 
Q 45.015625 31 40.078125 35.4375 
Q 35.15625 39.890625 26.703125 39.890625 
Q 22.75 39.890625 18.8125 39.015625 
Q 14.890625 38.140625 10.796875 36.28125 
z
" id="DejaVuSans-53"/>
       </defs>
       <use xlink:href="#DejaVuSans-8722"/>
       <use x="83.789062" xlink:href="#DejaVuSans-55"/>
       <use x="147.412109" xlink:href="#DejaVuSans-53"/>
      </g>
     </g>
    </g>
    <g id="xtick_2">
     <g id="line2d_2">
      <g>
       <use style="stroke:#000000;stroke-width:0.8;" x="108.223644" xlink:href="#mb78b8259e2" y="307.584"/>
      </g>
     </g>
     <g id="text_2">
      <!-- −50 -->
      <g transform="translate(97.6713 322.182437)scale(0.1 -0.1)">
       <defs>
        <path d="M 31.78125 66.40625 
Q 24.171875 66.40625 20.328125 58.90625 
Q 16.5 51.421875 16.5 36.375 
Q 16.5 21.390625 20.328125 13.890625 
Q 24.171875 6.390625 31.78125 6.390625 
Q 39.453125 6.390625 43.28125 13.890625 
Q 47.125 21.390625 47.125 36.375 
Q 47.125 51.421875 43.28125 58.90625 
Q 39.453125 66.40625 31.78125 66.40625 
z
M 31.78125 74.21875 
Q 44.046875 74.21875 50.515625 64.515625 
Q 56.984375 54.828125 56.984375 36.375 
Q 56.984375 17.96875 50.515625 8.265625 
Q 44.046875 -1.421875 31.78125 -1.421875 
Q 19.53125 -1.421875 13.0625 8.265625 
Q 6.59375 17.96875 6.59375 36.375 
Q 6.59375 54.828125 13.0625 64.515625 
Q 19.53125 74.21875 31.78125 74.21875 
z
" id="DejaVuSans-48"/>
       </defs>
       <use xlink:href="#DejaVuSans-8722"/>
       <use x="83.789062" xlink:href="#DejaVuSans-53"/>
       <use x="147.412109" xlink:href="#DejaVuSans-48"/>
      </g>
     </g>
    </g>
    <g id="xtick_3">
     <g id="line2d_3">
      <g>
       <use style="stroke:#000000;stroke-width:0.8;" x="148.722081" xlink:href="#mb78b8259e2" y="307.584"/>
      </g>
     </g>
     <g id="text_3">
      <!-- −25 -->
      <g transform="translate(138.169737 322.182437)scale(0.1 -0.1)">
       <defs>
        <path d="M 19.1875 8.296875 
L 53.609375 8.296875 
L 53.609375 0 
L 7.328125 0 
L 7.328125 8.296875 
Q 12.9375 14.109375 22.625 23.890625 
Q 32.328125 33.6875 34.8125 36.53125 
Q 39.546875 41.84375 41.421875 45.53125 
Q 43.3125 49.21875 43.3125 52.78125 
Q 43.3125 58.59375 39.234375 62.25 
Q 35.15625 65.921875 28.609375 65.921875 
Q 23.96875 65.921875 18.8125 64.3125 
Q 13.671875 62.703125 7.8125 59.421875 
L 7.8125 69.390625 
Q 13.765625 71.78125 18.9375 73 
Q 24.125 74.21875 28.421875 74.21875 
Q 39.75 74.21875 46.484375 68.546875 
Q 53.21875 62.890625 53.21875 53.421875 
Q 53.21875 48.921875 51.53125 44.890625 
Q 49.859375 40.875 45.40625 35.40625 
Q 44.1875 33.984375 37.640625 27.21875 
Q 31.109375 20.453125 19.1875 8.296875 
z
" id="DejaVuSans-50"/>
       </defs>
       <use xlink:href="#DejaVuSans-8722"/>
       <use x="83.789062" xlink:href="#DejaVuSans-50"/>
       <use x="147.412109" xlink:href="#DejaVuSans-53"/>
      </g>
     </g>
    </g>
    <g id="xtick_4">
     <g id="line2d_4">
      <g>
       <use style="stroke:#000000;stroke-width:0.8;" x="189.220517" xlink:href="#mb78b8259e2" y="307.584"/>
      </g>
     </g>
     <g id="text_4">
      <!-- 0 -->
      <g transform="translate(186.039267 322.182437)scale(0.1 -0.1)">
       <use xlink:href="#DejaVuSans-48"/>
      </g>
     </g>
    </g>
    <g id="xtick_5">
     <g id="line2d_5">
      <g>
       <use style="stroke:#000000;stroke-width:0.8;" x="229.718954" xlink:href="#mb78b8259e2" y="307.584"/>
      </g>
     </g>
     <g id="text_5">
      <!-- 25 -->
      <g transform="translate(223.356454 322.182437)scale(0.1 -0.1)">
       <use xlink:href="#DejaVuSans-50"/>
       <use x="63.623047" xlink:href="#DejaVuSans-53"/>
      </g>
     </g>
    </g>
    <g id="xtick_6">
     <g id="line2d_6">
      <g>
       <use style="stroke:#000000;stroke-width:0.8;" x="270.217391" xlink:href="#mb78b8259e2" y="307.584"/>
      </g>
     </g>
     <g id="text_6">
      <!-- 50 -->
      <g transform="translate(263.854891 322.182437)scale(0.1 -0.1)">
       <use xlink:href="#DejaVuSans-53"/>
       <use x="63.623047" xlink:href="#DejaVuSans-48"/>
      </g>
     </g>
    </g>
    <g id="xtick_7">
     <g id="line2d_7">
      <g>
       <use style="stroke:#000000;stroke-width:0.8;" x="310.715828" xlink:href="#mb78b8259e2" y="307.584"/>
      </g>
     </g>
     <g id="text_7">
      <!-- 75 -->
      <g transform="translate(304.353328 322.182437)scale(0.1 -0.1)">
       <use xlink:href="#DejaVuSans-55"/>
       <use x="63.623047" xlink:href="#DejaVuSans-53"/>
      </g>
     </g>
    </g>
    <g id="xtick_8">
     <g id="line2d_8">
      <g>
       <use style="stroke:#000000;stroke-width:0.8;" x="351.214264" xlink:href="#mb78b8259e2" y="307.584"/>
      </g>
     </g>
     <g id="text_8">
      <!-- 100 -->
      <g transform="translate(341.670514 322.182437)scale(0.1 -0.1)">
       <defs>
        <path d="M 12.40625 8.296875 
L 28.515625 8.296875 
L 28.515625 63.921875 
L 10.984375 60.40625 
L 10.984375 69.390625 
L 28.421875 72.90625 
L 38.28125 72.90625 
L 38.28125 8.296875 
L 54.390625 8.296875 
L 54.390625 0 
L 12.40625 0 
z
" id="DejaVuSans-49"/>
       </defs>
       <use xlink:href="#DejaVuSans-49"/>
       <use x="63.623047" xlink:href="#DejaVuSans-48"/>
       <use x="127.246094" xlink:href="#DejaVuSans-48"/>
      </g>
     </g>
    </g>
    <g id="xtick_9">
     <g id="line2d_9">
      <g>
       <use style="stroke:#000000;stroke-width:0.8;" x="391.712701" xlink:href="#mb78b8259e2" y="307.584"/>
      </g>
     </g>
     <g id="text_9">
      <!-- 125 -->
      <g transform="translate(382.168951 322.182437)scale(0.1 -0.1)">
       <use xlink:href="#DejaVuSans-49"/>
       <use x="63.623047" xlink:href="#DejaVuSans-50"/>
       <use x="127.246094" xlink:href="#DejaVuSans-53"/>
      </g>
     </g>
    </g>
   </g>
   <g id="matplotlib.axis_2">
    <g id="ytick_1">
     <g id="line2d_10">
      <defs>
       <path d="M 0 0 
L -3.5 0 
" id="m9f4ecd94f0" style="stroke:#000000;stroke-width:0.8;"/>
      </defs>
      <g>
       <use style="stroke:#000000;stroke-width:0.8;" x="57.6" xlink:href="#m9f4ecd94f0" y="295.425659"/>
      </g>
     </g>
     <g id="text_10">
      <!-- 0 -->
      <g transform="translate(44.2375 299.224877)scale(0.1 -0.1)">
       <use xlink:href="#DejaVuSans-48"/>
      </g>
     </g>
    </g>
    <g id="ytick_2">
     <g id="line2d_11">
      <g>
       <use style="stroke:#000000;stroke-width:0.8;" x="57.6" xlink:href="#m9f4ecd94f0" y="263.026909"/>
      </g>
     </g>
     <g id="text_11">
      <!-- 20 -->
      <g transform="translate(37.875 266.826128)scale(0.1 -0.1)">
       <use xlink:href="#DejaVuSans-50"/>
       <use x="63.623047" xlink:href="#DejaVuSans-48"/>
      </g>
     </g>
    </g>
    <g id="ytick_3">
     <g id="line2d_12">
      <g>
       <use style="stroke:#000000;stroke-width:0.8;" x="57.6" xlink:href="#m9f4ecd94f0" y="230.62816"/>
      </g>
     </g>
     <g id="text_12">
      <!-- 40 -->
      <g transform="translate(37.875 234.427379)scale(0.1 -0.1)">
       <defs>
        <path d="M 37.796875 64.3125 
L 12.890625 25.390625 
L 37.796875 25.390625 
z
M 35.203125 72.90625 
L 47.609375 72.90625 
L 47.609375 25.390625 
L 58.015625 25.390625 
L 58.015625 17.1875 
L 47.609375 17.1875 
L 47.609375 0 
L 37.796875 0 
L 37.796875 17.1875 
L 4.890625 17.1875 
L 4.890625 26.703125 
z
" id="DejaVuSans-52"/>
       </defs>
       <use xlink:href="#DejaVuSans-52"/>
       <use x="63.623047" xlink:href="#DejaVuSans-48"/>
      </g>
     </g>
    </g>
    <g id="ytick_4">
     <g id="line2d_13">
      <g>
       <use style="stroke:#000000;stroke-width:0.8;" x="57.6" xlink:href="#m9f4ecd94f0" y="198.229411"/>
      </g>
     </g>
     <g id="text_13">
      <!-- 60 -->
      <g transform="translate(37.875 202.028629)scale(0.1 -0.1)">
       <defs>
        <path d="M 33.015625 40.375 
Q 26.375 40.375 22.484375 35.828125 
Q 18.609375 31.296875 18.609375 23.390625 
Q 18.609375 15.53125 22.484375 10.953125 
Q 26.375 6.390625 33.015625 6.390625 
Q 39.65625 6.390625 43.53125 10.953125 
Q 47.40625 15.53125 47.40625 23.390625 
Q 47.40625 31.296875 43.53125 35.828125 
Q 39.65625 40.375 33.015625 40.375 
z
M 52.59375 71.296875 
L 52.59375 62.3125 
Q 48.875 64.0625 45.09375 64.984375 
Q 41.3125 65.921875 37.59375 65.921875 
Q 27.828125 65.921875 22.671875 59.328125 
Q 17.53125 52.734375 16.796875 39.40625 
Q 19.671875 43.65625 24.015625 45.921875 
Q 28.375 48.1875 33.59375 48.1875 
Q 44.578125 48.1875 50.953125 41.515625 
Q 57.328125 34.859375 57.328125 23.390625 
Q 57.328125 12.15625 50.6875 5.359375 
Q 44.046875 -1.421875 33.015625 -1.421875 
Q 20.359375 -1.421875 13.671875 8.265625 
Q 6.984375 17.96875 6.984375 36.375 
Q 6.984375 53.65625 15.1875 63.9375 
Q 23.390625 74.21875 37.203125 74.21875 
Q 40.921875 74.21875 44.703125 73.484375 
Q 48.484375 72.75 52.59375 71.296875 
z
" id="DejaVuSans-54"/>
       </defs>
       <use xlink:href="#DejaVuSans-54"/>
       <use x="63.623047" xlink:href="#DejaVuSans-48"/>
      </g>
     </g>
    </g>
    <g id="ytick_5">
     <g id="line2d_14">
      <g>
       <use style="stroke:#000000;stroke-width:0.8;" x="57.6" xlink:href="#m9f4ecd94f0" y="165.830661"/>
      </g>
     </g>
     <g id="text_14">
      <!-- 80 -->
      <g transform="translate(37.875 169.62988)scale(0.1 -0.1)">
       <defs>
        <path d="M 31.78125 34.625 
Q 24.75 34.625 20.71875 30.859375 
Q 16.703125 27.09375 16.703125 20.515625 
Q 16.703125 13.921875 20.71875 10.15625 
Q 24.75 6.390625 31.78125 6.390625 
Q 38.8125 6.390625 42.859375 10.171875 
Q 46.921875 13.96875 46.921875 20.515625 
Q 46.921875 27.09375 42.890625 30.859375 
Q 38.875 34.625 31.78125 34.625 
z
M 21.921875 38.8125 
Q 15.578125 40.375 12.03125 44.71875 
Q 8.5 49.078125 8.5 55.328125 
Q 8.5 64.0625 14.71875 69.140625 
Q 20.953125 74.21875 31.78125 74.21875 
Q 42.671875 74.21875 48.875 69.140625 
Q 55.078125 64.0625 55.078125 55.328125 
Q 55.078125 49.078125 51.53125 44.71875 
Q 48 40.375 41.703125 38.8125 
Q 48.828125 37.15625 52.796875 32.3125 
Q 56.78125 27.484375 56.78125 20.515625 
Q 56.78125 9.90625 50.3125 4.234375 
Q 43.84375 -1.421875 31.78125 -1.421875 
Q 19.734375 -1.421875 13.25 4.234375 
Q 6.78125 9.90625 6.78125 20.515625 
Q 6.78125 27.484375 10.78125 32.3125 
Q 14.796875 37.15625 21.921875 38.8125 
z
M 18.3125 54.390625 
Q 18.3125 48.734375 21.84375 45.5625 
Q 25.390625 42.390625 31.78125 42.390625 
Q 38.140625 42.390625 41.71875 45.5625 
Q 45.3125 48.734375 45.3125 54.390625 
Q 45.3125 60.0625 41.71875 63.234375 
Q 38.140625 66.40625 31.78125 66.40625 
Q 25.390625 66.40625 21.84375 63.234375 
Q 18.3125 60.0625 18.3125 54.390625 
z
" id="DejaVuSans-56"/>
       </defs>
       <use xlink:href="#DejaVuSans-56"/>
       <use x="63.623047" xlink:href="#DejaVuSans-48"/>
      </g>
     </g>
    </g>
    <g id="ytick_6">
     <g id="line2d_15">
      <g>
       <use style="stroke:#000000;stroke-width:0.8;" x="57.6" xlink:href="#m9f4ecd94f0" y="133.431912"/>
      </g>
     </g>
     <g id="text_15">
      <!-- 100 -->
      <g transform="translate(31.5125 137.231131)scale(0.1 -0.1)">
       <use xlink:href="#DejaVuSans-49"/>
       <use x="63.623047" xlink:href="#DejaVuSans-48"/>
       <use x="127.246094" xlink:href="#DejaVuSans-48"/>
      </g>
     </g>
    </g>
    <g id="ytick_7">
     <g id="line2d_16">
      <g>
       <use style="stroke:#000000;stroke-width:0.8;" x="57.6" xlink:href="#m9f4ecd94f0" y="101.033162"/>
      </g>
     </g>
     <g id="text_16">
      <!-- 120 -->
      <g transform="translate(31.5125 104.832381)scale(0.1 -0.1)">
       <use xlink:href="#DejaVuSans-49"/>
       <use x="63.623047" xlink:href="#DejaVuSans-50"/>
       <use x="127.246094" xlink:href="#DejaVuSans-48"/>
      </g>
     </g>
    </g>
    <g id="ytick_8">
     <g id="line2d_17">
      <g>
       <use style="stroke:#000000;stroke-width:0.8;" x="57.6" xlink:href="#m9f4ecd94f0" y="68.634413"/>
      </g>
     </g>
     <g id="text_17">
      <!-- 140 -->
      <g transform="translate(31.5125 72.433632)scale(0.1 -0.1)">
       <use xlink:href="#DejaVuSans-49"/>
       <use x="63.623047" xlink:href="#DejaVuSans-52"/>
       <use x="127.246094" xlink:href="#DejaVuSans-48"/>
      </g>
     </g>
    </g>
   </g>
   <g id="line2d_18">
    <path clip-path="url(#p4d97d74893)" d="M 189.220517 295.425659 
L 189.508944 276.244706 
L 189.913461 252.760135 
L 189.630503 248.203207 
L 188.823181 241.052191 
L 187.964808 233.859092 
L 187.591092 229.22735 
L 187.535027 224.85746 
L 187.668657 222.805778 
L 187.932751 220.861643 
L 188.344326 219.039082 
L 188.920399 217.352123 
L 189.677987 215.814794 
L 190.634108 214.441121 
L 191.823924 213.274475 
L 193.254617 212.331961 
L 194.90123 211.588211 
L 196.738807 211.017859 
L 198.74239 210.595539 
L 200.887024 210.295884 
L 205.499615 209.963101 
L 217.752507 209.50211 
L 220.127103 209.270573 
L 222.418139 208.933401 
L 224.60066 208.465226 
L 226.649707 207.840683 
L 228.540325 207.034404 
L 230.247557 206.021023 
L 231.790984 204.811882 
L 233.215417 203.445867 
L 234.533738 201.938926 
L 235.75883 200.307008 
L 237.980863 196.73204 
L 239.984581 192.848554 
L 246.766397 178.668888 
L 249.063152 174.976025 
L 250.335794 173.269084 
L 251.708458 171.676401 
L 253.229668 170.192273 
L 254.921896 168.793363 
L 256.758947 167.469166 
L 260.762736 165.002896 
L 265.031474 162.709435 
L 273.52555 158.304823 
L 277.331765 156.025613 
L 279.032984 154.830019 
L 280.564684 153.583095 
L 281.900668 152.274336 
L 283.014743 150.893239 
L 283.880713 149.429301 
L 284.472382 147.872017 
L 284.782776 146.229839 
L 284.837518 144.52179 
L 284.659304 142.753221 
L 284.270836 140.929484 
L 283.69481 139.055934 
L 282.953927 137.13792 
L 281.068383 133.189916 
L 278.795794 129.128292 
L 271.471673 116.689883 
L 269.466818 112.601966 
L 268.648382 110.593009 
L 267.322548 106.455204 
L 266.258729 102.086934 
L 264.926766 95.321249 
L 263.599301 88.599747 
L 262.543479 84.310026 
L 261.22964 80.290044 
L 260.443462 78.412467 
L 259.553778 76.63984 
L 258.547586 74.984668 
L 257.411886 73.459455 
L 256.133677 72.076707 
L 254.692415 70.788385 
L 253.087531 69.542304 
L 251.335985 68.344751 
L 247.460741 66.120375 
L 243.202361 64.165555 
L 238.696521 62.530584 
L 234.078897 61.26576 
L 229.485164 60.421376 
L 227.239656 60.172567 
L 225.051 60.047729 
L 222.936155 60.053148 
L 220.91208 60.195113 
L 218.995736 60.47991 
L 217.204081 60.913825 
L 215.513762 61.536942 
L 213.886514 62.372986 
L 212.316932 63.403704 
L 210.79961 64.610847 
L 209.32914 65.976164 
L 206.507136 69.108315 
L 203.807672 72.654152 
L 199.893628 78.429177 
L 194.700131 86.214381 
L 192.016885 89.81497 
L 190.634716 91.478383 
L 190.634716 91.478383 
" style="fill:none;stroke:#fea952;stroke-linecap:square;"/>
   </g>
   <g id="line2d_19">
    <path clip-path="url(#p4d97d74893)" d="M 182.741067 295.363317 
L 183.030443 276.117524 
L 183.440715 253.06133 
L 183.182778 248.846643 
L 182.39402 241.860303 
L 181.512973 234.459907 
L 181.115145 229.449301 
L 181.035382 226.941699 
L 181.068978 224.436314 
L 181.247877 221.933571 
L 181.612159 219.434313 
L 182.212258 216.945067 
L 183.10808 214.487842 
L 184.359675 212.113075 
L 186.097504 209.814418 
L 188.259197 207.863387 
L 190.587287 206.426666 
L 192.980425 205.3997 
L 195.402356 204.677429 
L 197.845729 204.178129 
L 200.309333 203.841937 
L 205.275024 203.487245 
L 217.123675 203.052946 
L 221.059078 202.597778 
L 224.107829 201.880312 
L 225.232856 201.462347 
L 226.25149 200.920179 
L 227.306012 200.135112 
L 228.338503 199.179384 
L 229.351698 198.04873 
L 230.344664 196.746958 
L 232.267694 193.674777 
L 234.124672 190.08294 
L 241.18243 175.381569 
L 242.461379 173.224424 
L 243.868324 171.102923 
L 245.427452 169.038796 
L 247.183463 167.038344 
L 249.101111 165.198059 
L 251.132882 163.536888 
L 253.249523 162.022047 
L 257.639634 159.32545 
L 262.082518 156.939615 
L 270.303162 152.683135 
L 273.605965 150.724144 
L 276.030216 148.954298 
L 277.437682 147.594217 
L 278.105369 146.668563 
L 278.306352 146.022277 
L 278.390417 145.171444 
L 278.321734 144.103168 
L 278.077207 142.833723 
L 277.650334 141.390772 
L 276.283455 138.09504 
L 274.350572 134.398491 
L 270.775206 128.35255 
L 266.939073 121.888182 
L 264.543008 117.374878 
L 263.465941 115.046683 
L 262.523386 112.70762 
L 261.048588 108.07526 
L 259.914975 103.407518 
L 258.558773 96.519507 
L 257.286033 90.059135 
L 256.339658 86.180792 
L 255.252697 82.792705 
L 254.016848 80.005782 
L 252.653678 77.857933 
L 251.815299 76.907729 
L 250.718531 75.906529 
L 247.971951 73.88284 
L 244.631489 71.949826 
L 240.869804 70.210911 
L 236.857289 68.743827 
L 232.765261 67.610956 
L 228.771555 66.861711 
L 225.067606 66.527457 
L 221.864604 66.60447 
L 219.44533 66.993624 
L 218.474946 67.300496 
L 217.443312 67.78929 
L 216.351102 68.474467 
L 215.208556 69.359358 
L 214.028444 70.43752 
L 211.598279 73.116735 
L 209.11662 76.369286 
L 205.317254 81.9748 
L 199.951588 90.010348 
L 197.000668 93.956113 
L 195.618499 95.619526 
L 195.618499 95.619526 
" style="fill:none;stroke:#ffffff;stroke-linecap:square;"/>
   </g>
   <g id="line2d_20">
    <path clip-path="url(#p4d97d74893)" d="M 195.699967 295.488 
L 195.987446 276.371887 
L 196.386207 252.45894 
L 196.078227 247.559772 
L 195.252342 240.24408 
L 194.211586 231.078093 
L 193.994308 227.06362 
L 194.089437 223.677985 
L 194.476394 221.133098 
L 194.996299 219.516512 
L 195.388651 218.685564 
L 195.921948 218.237255 
L 196.822036 217.776722 
L 198.075258 217.35829 
L 199.639052 217.012949 
L 203.506543 216.563336 
L 208.082712 216.356888 
L 215.721369 216.120643 
L 221.070567 215.68127 
L 223.7772 215.269023 
L 226.489862 214.663457 
L 229.191585 213.801053 
L 231.847793 212.60646 
L 234.243623 211.121867 
L 236.275956 209.488653 
L 238.092331 207.712349 
L 239.715778 205.829121 
L 241.172996 203.867059 
L 242.49076 201.847914 
L 244.805287 197.706583 
L 246.829328 193.526366 
L 251.424539 183.689777 
L 253.293916 180.338128 
L 255.244137 177.499371 
L 256.233454 176.314458 
L 257.358225 175.186488 
L 258.71091 174.049838 
L 260.26837 172.916285 
L 263.885837 170.680342 
L 267.980429 168.479255 
L 276.747938 163.926511 
L 281.057566 161.327081 
L 283.123845 159.855158 
L 285.099151 158.211892 
L 286.944078 156.34265 
L 288.591804 154.192261 
L 289.938004 151.730688 
L 290.839395 149.075471 
L 291.259201 146.437402 
L 291.284618 143.872135 
L 290.996875 141.403273 
L 290.464464 139.025246 
L 289.739286 136.721095 
L 288.860309 134.472997 
L 286.75949 130.091779 
L 284.365609 125.817049 
L 277.234115 113.726537 
L 275.467694 110.157249 
L 274.158769 106.717618 
L 273.080435 102.846317 
L 272.153023 98.609964 
L 269.366119 84.788192 
L 268.035293 80.102453 
L 267.206583 77.787382 
L 266.234715 75.505828 
L 265.090708 73.273898 
L 263.744782 71.114744 
L 262.170094 69.060977 
L 260.452054 67.245685 
L 258.6663 65.670241 
L 256.744725 64.193277 
L 254.700018 62.806661 
L 252.544368 61.506284 
L 250.289994 60.290925 
L 247.94931 59.161442 
L 243.059516 57.170697 
L 237.976076 55.565316 
L 235.392533 54.920563 
L 232.796567 54.389863 
L 230.198773 53.98104 
L 227.608653 53.703332 
L 225.034394 53.568 
L 222.482791 53.589278 
L 219.959557 53.785756 
L 217.470518 54.182222 
L 214.962831 54.834026 
L 212.552577 55.773389 
L 210.329717 56.956681 
L 208.282763 58.332941 
L 206.390663 59.862337 
L 204.629836 61.514808 
L 202.978062 63.26708 
L 199.927377 66.996025 
L 197.11886 70.912493 
L 187.033102 85.673827 
L 185.650932 87.337241 
L 185.650932 87.337241 
" style="fill:none;stroke:#ffffff;stroke-linecap:square;"/>
   </g>
   <g id="patch_3">
    <path d="M 57.6 307.584 
L 57.6 41.472 
" style="fill:none;stroke:#000000;stroke-linecap:square;stroke-linejoin:miter;stroke-width:0.8;"/>
   </g>
   <g id="patch_4">
    <path d="M 414.72 307.584 
L 414.72 41.472 
" style="fill:none;stroke:#000000;stroke-linecap:square;stroke-linejoin:miter;stroke-width:0.8;"/>
   </g>
   <g id="patch_5">
    <path d="M 57.6 307.584 
L 414.72 307.584 
" style="fill:none;stroke:#000000;stroke-linecap:square;stroke-linejoin:miter;stroke-width:0.8;"/>
   </g>
   <g id="patch_6">
    <path d="M 57.6 41.472 
L 414.72 41.472 
" style="fill:none;stroke:#000000;stroke-linecap:square;stroke-linejoin:miter;stroke-width:0.8;"/>
   </g>
  </g>
 </g>
 <defs>
  <clipPath id="p4d97d74893">
   <rect height="266.112" width="357.12" x="57.6" y="41.472"/>
  </clipPath>
 </defs>
</svg>
