<?xml version="1.0" encoding="utf-8" standalone="no"?>
<!DOCTYPE svg PUBLIC "-//W3C//DTD SVG 1.1//EN"
  "http://www.w3.org/Graphics/SVG/1.1/DTD/svg11.dtd">
<!-- Created with matplotlib (https://matplotlib.org/) -->
<svg height="345.6pt" version="1.1" viewBox="0 0 460.8 345.6" width="460.8pt" xmlns="http://www.w3.org/2000/svg" xmlns:xlink="http://www.w3.org/1999/xlink">
 <metadata>
  <rdf:RDF xmlns:cc="http://creativecommons.org/ns#" xmlns:dc="http://purl.org/dc/elements/1.1/" xmlns:rdf="http://www.w3.org/1999/02/22-rdf-syntax-ns#">
   <cc:Work>
    <dc:type rdf:resource="http://purl.org/dc/dcmitype/StillImage"/>
    <dc:date>2021-06-19T17:05:53.136364</dc:date>
    <dc:format>image/svg+xml</dc:format>
    <dc:creator>
     <cc:Agent>
      <dc:title>Matplotlib v3.3.3, https://matplotlib.org/</dc:title>
     </cc:Agent>
    </dc:creator>
   </cc:Work>
  </rdf:RDF>
 </metadata>
 <defs>
  <style type="text/css">*{stroke-linecap:butt;stroke-linejoin:round;}</style>
 </defs>
 <g id="figure_1">
  <g id="patch_1">
   <path d="M 0 345.6 
L 460.8 345.6 
L 460.8 0 
L 0 0 
z
" style="fill:#ffffff;"/>
  </g>
  <g id="axes_1">
   <g id="patch_2">
    <path d="M 57.6 307.584 
L 414.72 307.584 
L 414.72 41.472 
L 57.6 41.472 
z
" style="fill:#7d9051;"/>
   </g>
   <g id="matplotlib.axis_1">
    <g id="xtick_1">
     <g id="line2d_1">
      <defs>
       <path d="M 0 0 
L 0 3.5 
" id="m22253fd138" style="stroke:#000000;stroke-width:0.8;"/>
      </defs>
      <g>
       <use style="stroke:#000000;stroke-width:0.8;" x="77.62801" xlink:href="#m22253fd138" y="307.584"/>
      </g>
     </g>
     <g id="text_1">
      <!-- −100 -->
      <g transform="translate(63.894417 322.182437)scale(0.1 -0.1)">
       <defs>
        <path d="M 10.59375 35.5 
L 73.1875 35.5 
L 73.1875 27.203125 
L 10.59375 27.203125 
z
" id="DejaVuSans-8722"/>
        <path d="M 12.40625 8.296875 
L 28.515625 8.296875 
L 28.515625 63.921875 
L 10.984375 60.40625 
L 10.984375 69.390625 
L 28.421875 72.90625 
L 38.28125 72.90625 
L 38.28125 8.296875 
L 54.390625 8.296875 
L 54.390625 0 
L 12.40625 0 
z
" id="DejaVuSans-49"/>
        <path d="M 31.78125 66.40625 
Q 24.171875 66.40625 20.328125 58.90625 
Q 16.5 51.421875 16.5 36.375 
Q 16.5 21.390625 20.328125 13.890625 
Q 24.171875 6.390625 31.78125 6.390625 
Q 39.453125 6.390625 43.28125 13.890625 
Q 47.125 21.390625 47.125 36.375 
Q 47.125 51.421875 43.28125 58.90625 
Q 39.453125 66.40625 31.78125 66.40625 
z
M 31.78125 74.21875 
Q 44.046875 74.21875 50.515625 64.515625 
Q 56.984375 54.828125 56.984375 36.375 
Q 56.984375 17.96875 50.515625 8.265625 
Q 44.046875 -1.421875 31.78125 -1.421875 
Q 19.53125 -1.421875 13.0625 8.265625 
Q 6.59375 17.96875 6.59375 36.375 
Q 6.59375 54.828125 13.0625 64.515625 
Q 19.53125 74.21875 31.78125 74.21875 
z
" id="DejaVuSans-48"/>
       </defs>
       <use xlink:href="#DejaVuSans-8722"/>
       <use x="83.789062" xlink:href="#DejaVuSans-49"/>
       <use x="147.412109" xlink:href="#DejaVuSans-48"/>
       <use x="211.035156" xlink:href="#DejaVuSans-48"/>
      </g>
     </g>
    </g>
    <g id="xtick_2">
     <g id="line2d_2">
      <g>
       <use style="stroke:#000000;stroke-width:0.8;" x="144.417682" xlink:href="#m22253fd138" y="307.584"/>
      </g>
     </g>
     <g id="text_2">
      <!-- −50 -->
      <g transform="translate(133.865338 322.182437)scale(0.1 -0.1)">
       <defs>
        <path d="M 10.796875 72.90625 
L 49.515625 72.90625 
L 49.515625 64.59375 
L 19.828125 64.59375 
L 19.828125 46.734375 
Q 21.96875 47.46875 24.109375 47.828125 
Q 26.265625 48.1875 28.421875 48.1875 
Q 40.625 48.1875 47.75 41.5 
Q 54.890625 34.8125 54.890625 23.390625 
Q 54.890625 11.625 47.5625 5.09375 
Q 40.234375 -1.421875 26.90625 -1.421875 
Q 22.3125 -1.421875 17.546875 -0.640625 
Q 12.796875 0.140625 7.71875 1.703125 
L 7.71875 11.625 
Q 12.109375 9.234375 16.796875 8.0625 
Q 21.484375 6.890625 26.703125 6.890625 
Q 35.15625 6.890625 40.078125 11.328125 
Q 45.015625 15.765625 45.015625 23.390625 
Q 45.015625 31 40.078125 35.4375 
Q 35.15625 39.890625 26.703125 39.890625 
Q 22.75 39.890625 18.8125 39.015625 
Q 14.890625 38.140625 10.796875 36.28125 
z
" id="DejaVuSans-53"/>
       </defs>
       <use xlink:href="#DejaVuSans-8722"/>
       <use x="83.789062" xlink:href="#DejaVuSans-53"/>
       <use x="147.412109" xlink:href="#DejaVuSans-48"/>
      </g>
     </g>
    </g>
    <g id="xtick_3">
     <g id="line2d_3">
      <g>
       <use style="stroke:#000000;stroke-width:0.8;" x="211.207353" xlink:href="#m22253fd138" y="307.584"/>
      </g>
     </g>
     <g id="text_3">
      <!-- 0 -->
      <g transform="translate(208.026103 322.182437)scale(0.1 -0.1)">
       <use xlink:href="#DejaVuSans-48"/>
      </g>
     </g>
    </g>
    <g id="xtick_4">
     <g id="line2d_4">
      <g>
       <use style="stroke:#000000;stroke-width:0.8;" x="277.997025" xlink:href="#m22253fd138" y="307.584"/>
      </g>
     </g>
     <g id="text_4">
      <!-- 50 -->
      <g transform="translate(271.634525 322.182437)scale(0.1 -0.1)">
       <use xlink:href="#DejaVuSans-53"/>
       <use x="63.623047" xlink:href="#DejaVuSans-48"/>
      </g>
     </g>
    </g>
    <g id="xtick_5">
     <g id="line2d_5">
      <g>
       <use style="stroke:#000000;stroke-width:0.8;" x="344.786696" xlink:href="#m22253fd138" y="307.584"/>
      </g>
     </g>
     <g id="text_5">
      <!-- 100 -->
      <g transform="translate(335.242946 322.182437)scale(0.1 -0.1)">
       <use xlink:href="#DejaVuSans-49"/>
       <use x="63.623047" xlink:href="#DejaVuSans-48"/>
       <use x="127.246094" xlink:href="#DejaVuSans-48"/>
      </g>
     </g>
    </g>
    <g id="xtick_6">
     <g id="line2d_6">
      <g>
       <use style="stroke:#000000;stroke-width:0.8;" x="411.576367" xlink:href="#m22253fd138" y="307.584"/>
      </g>
     </g>
     <g id="text_6">
      <!-- 150 -->
      <g transform="translate(402.032617 322.182437)scale(0.1 -0.1)">
       <use xlink:href="#DejaVuSans-49"/>
       <use x="63.623047" xlink:href="#DejaVuSans-53"/>
       <use x="127.246094" xlink:href="#DejaVuSans-48"/>
      </g>
     </g>
    </g>
   </g>
   <g id="matplotlib.axis_2">
    <g id="ytick_1">
     <g id="line2d_7">
      <defs>
       <path d="M 0 0 
L -3.5 0 
" id="m058fa7e035" style="stroke:#000000;stroke-width:0.8;"/>
      </defs>
      <g>
       <use style="stroke:#000000;stroke-width:0.8;" x="57.6" xlink:href="#m058fa7e035" y="295.436594"/>
      </g>
     </g>
     <g id="text_7">
      <!-- 0 -->
      <g transform="translate(44.2375 299.235812)scale(0.1 -0.1)">
       <use xlink:href="#DejaVuSans-48"/>
      </g>
     </g>
    </g>
    <g id="ytick_2">
     <g id="line2d_8">
      <g>
       <use style="stroke:#000000;stroke-width:0.8;" x="57.6" xlink:href="#m058fa7e035" y="262.041758"/>
      </g>
     </g>
     <g id="text_8">
      <!-- 25 -->
      <g transform="translate(37.875 265.840977)scale(0.1 -0.1)">
       <defs>
        <path d="M 19.1875 8.296875 
L 53.609375 8.296875 
L 53.609375 0 
L 7.328125 0 
L 7.328125 8.296875 
Q 12.9375 14.109375 22.625 23.890625 
Q 32.328125 33.6875 34.8125 36.53125 
Q 39.546875 41.84375 41.421875 45.53125 
Q 43.3125 49.21875 43.3125 52.78125 
Q 43.3125 58.59375 39.234375 62.25 
Q 35.15625 65.921875 28.609375 65.921875 
Q 23.96875 65.921875 18.8125 64.3125 
Q 13.671875 62.703125 7.8125 59.421875 
L 7.8125 69.390625 
Q 13.765625 71.78125 18.9375 73 
Q 24.125 74.21875 28.421875 74.21875 
Q 39.75 74.21875 46.484375 68.546875 
Q 53.21875 62.890625 53.21875 53.421875 
Q 53.21875 48.921875 51.53125 44.890625 
Q 49.859375 40.875 45.40625 35.40625 
Q 44.1875 33.984375 37.640625 27.21875 
Q 31.109375 20.453125 19.1875 8.296875 
z
" id="DejaVuSans-50"/>
       </defs>
       <use xlink:href="#DejaVuSans-50"/>
       <use x="63.623047" xlink:href="#DejaVuSans-53"/>
      </g>
     </g>
    </g>
    <g id="ytick_3">
     <g id="line2d_9">
      <g>
       <use style="stroke:#000000;stroke-width:0.8;" x="57.6" xlink:href="#m058fa7e035" y="228.646922"/>
      </g>
     </g>
     <g id="text_9">
      <!-- 50 -->
      <g transform="translate(37.875 232.446141)scale(0.1 -0.1)">
       <use xlink:href="#DejaVuSans-53"/>
       <use x="63.623047" xlink:href="#DejaVuSans-48"/>
      </g>
     </g>
    </g>
    <g id="ytick_4">
     <g id="line2d_10">
      <g>
       <use style="stroke:#000000;stroke-width:0.8;" x="57.6" xlink:href="#m058fa7e035" y="195.252086"/>
      </g>
     </g>
     <g id="text_10">
      <!-- 75 -->
      <g transform="translate(37.875 199.051305)scale(0.1 -0.1)">
       <defs>
        <path d="M 8.203125 72.90625 
L 55.078125 72.90625 
L 55.078125 68.703125 
L 28.609375 0 
L 18.3125 0 
L 43.21875 64.59375 
L 8.203125 64.59375 
z
" id="DejaVuSans-55"/>
       </defs>
       <use xlink:href="#DejaVuSans-55"/>
       <use x="63.623047" xlink:href="#DejaVuSans-53"/>
      </g>
     </g>
    </g>
    <g id="ytick_5">
     <g id="line2d_11">
      <g>
       <use style="stroke:#000000;stroke-width:0.8;" x="57.6" xlink:href="#m058fa7e035" y="161.857251"/>
      </g>
     </g>
     <g id="text_11">
      <!-- 100 -->
      <g transform="translate(31.5125 165.65647)scale(0.1 -0.1)">
       <use xlink:href="#DejaVuSans-49"/>
       <use x="63.623047" xlink:href="#DejaVuSans-48"/>
       <use x="127.246094" xlink:href="#DejaVuSans-48"/>
      </g>
     </g>
    </g>
    <g id="ytick_6">
     <g id="line2d_12">
      <g>
       <use style="stroke:#000000;stroke-width:0.8;" x="57.6" xlink:href="#m058fa7e035" y="128.462415"/>
      </g>
     </g>
     <g id="text_12">
      <!-- 125 -->
      <g transform="translate(31.5125 132.261634)scale(0.1 -0.1)">
       <use xlink:href="#DejaVuSans-49"/>
       <use x="63.623047" xlink:href="#DejaVuSans-50"/>
       <use x="127.246094" xlink:href="#DejaVuSans-53"/>
      </g>
     </g>
    </g>
    <g id="ytick_7">
     <g id="line2d_13">
      <g>
       <use style="stroke:#000000;stroke-width:0.8;" x="57.6" xlink:href="#m058fa7e035" y="95.067579"/>
      </g>
     </g>
     <g id="text_13">
      <!-- 150 -->
      <g transform="translate(31.5125 98.866798)scale(0.1 -0.1)">
       <use xlink:href="#DejaVuSans-49"/>
       <use x="63.623047" xlink:href="#DejaVuSans-53"/>
       <use x="127.246094" xlink:href="#DejaVuSans-48"/>
      </g>
     </g>
    </g>
    <g id="ytick_8">
     <g id="line2d_14">
      <g>
       <use style="stroke:#000000;stroke-width:0.8;" x="57.6" xlink:href="#m058fa7e035" y="61.672744"/>
      </g>
     </g>
     <g id="text_14">
      <!-- 175 -->
      <g transform="translate(31.5125 65.471962)scale(0.1 -0.1)">
       <use xlink:href="#DejaVuSans-49"/>
       <use x="63.623047" xlink:href="#DejaVuSans-55"/>
       <use x="127.246094" xlink:href="#DejaVuSans-53"/>
      </g>
     </g>
    </g>
   </g>
   <g id="line2d_15">
    <path clip-path="url(#p95841d1315)" d="M 211.207353 295.436594 
L 211.479687 277.862741 
L 211.80351 256.764419 
L 211.634851 239.128278 
L 211.8613 233.87391 
L 212.372994 228.657095 
L 213.027865 225.188847 
L 214.006618 221.714793 
L 215.838885 216.509728 
L 218.378108 209.621435 
L 219.438864 206.216871 
L 220.212186 202.848998 
L 220.586926 199.525541 
L 220.590094 197.882884 
L 220.451936 196.254228 
L 220.122461 194.635752 
L 219.579253 193.023338 
L 218.849784 191.417508 
L 217.961522 189.818787 
L 215.818497 186.644758 
L 213.369937 183.505434 
L 208.435238 177.347636 
L 206.388613 174.337527 
L 205.566625 172.851501 
L 204.91548 171.378856 
L 204.462647 169.920117 
L 204.235597 168.475807 
L 204.261798 167.046447 
L 204.513228 165.60478 
L 204.935533 164.128986 
L 205.516691 162.627744 
L 206.244676 161.109733 
L 208.093033 158.058121 
L 210.38441 155.043587 
L 213.022614 152.135564 
L 215.911449 149.403486 
L 218.954723 146.916789 
L 222.056242 144.744906 
L 225.119811 142.957273 
L 226.607305 142.229247 
L 228.138512 141.668287 
L 229.787768 141.305828 
L 231.538674 141.117238 
L 233.374833 141.077885 
L 237.237318 141.348365 
L 241.244041 141.920213 
L 249.165471 143.17979 
L 252.817812 143.473411 
L 254.509498 143.449968 
L 256.089662 143.280179 
L 257.541909 142.939414 
L 258.849838 142.403041 
L 259.997054 141.646427 
L 261.029297 140.670837 
L 262.001576 139.506447 
L 262.9114 138.171995 
L 263.756275 136.686216 
L 264.533708 135.067848 
L 265.876275 131.508289 
L 266.919157 127.643214 
L 267.64241 123.622514 
L 268.026088 119.596084 
L 268.050247 115.713817 
L 267.694943 112.125608 
L 267.36876 110.488616 
L 266.940231 108.981349 
L 266.352001 107.587574 
L 265.562414 106.272461 
L 264.592528 105.026846 
L 263.463401 103.841569 
L 260.811654 101.615373 
L 257.775634 99.520576 
L 248.046569 93.291577 
L 245.158085 90.989378 
L 243.875079 89.754698 
L 242.727641 88.452081 
L 241.736828 87.072365 
L 240.093806 84.122736 
L 238.749343 80.982904 
L 237.647458 77.688533 
L 236.732172 74.275285 
L 235.586661 69.010531 
L 233.421593 58.400783 
L 232.531964 54.971189 
L 232.531964 54.971189 
" style="fill:none;stroke:#fea952;stroke-linecap:square;"/>
   </g>
   <g id="line2d_16">
    <path clip-path="url(#p95841d1315)" d="M 205.864427 295.385187 
L 206.137584 277.755802 
L 206.460743 256.830388 
L 206.29378 238.978374 
L 206.533951 233.462985 
L 206.860026 229.755622 
L 207.430293 225.795967 
L 208.367278 221.91203 
L 209.546812 218.192173 
L 212.1273 211.207896 
L 213.812992 206.402023 
L 214.633847 203.455975 
L 215.129697 200.761072 
L 215.266042 198.334521 
L 215.05891 196.341614 
L 214.71449 195.233222 
L 214.179113 194.012569 
L 212.584623 191.320158 
L 210.442048 188.402957 
L 202.861854 178.729572 
L 201.713061 176.923784 
L 200.679838 175.012244 
L 199.812526 172.962953 
L 199.184297 170.749892 
L 198.893321 168.377879 
L 198.998075 166.128443 
L 199.376236 164.134805 
L 199.952695 162.20004 
L 200.69888 160.317289 
L 201.593382 158.480099 
L 202.619448 156.684113 
L 205.012174 153.210116 
L 207.781454 149.903341 
L 210.842239 146.79436 
L 214.114743 143.926775 
L 217.525403 141.351371 
L 221.012298 139.123293 
L 222.770936 138.158076 
L 224.769285 137.212158 
L 226.991606 136.449656 
L 229.215565 135.993381 
L 231.424186 135.775291 
L 233.613711 135.740054 
L 237.929819 136.050257 
L 242.12571 136.650282 
L 249.721943 137.865673 
L 252.743774 138.13075 
L 254.869056 138.078293 
L 255.908079 137.942598 
L 256.326925 137.763174 
L 256.927945 137.246159 
L 257.586853 136.496509 
L 258.266659 135.530804 
L 259.587211 133.047531 
L 260.750387 130.000052 
L 261.681145 126.588348 
L 262.335126 123.004255 
L 262.685253 119.438001 
L 262.720148 116.087377 
L 262.454784 113.169751 
L 262.017515 111.058936 
L 261.771065 110.337943 
L 261.346532 109.555118 
L 260.723808 108.712292 
L 259.900262 107.82322 
L 257.702618 105.960877 
L 254.913355 104.032433 
L 244.82592 97.555017 
L 243.115498 96.253706 
L 241.453094 94.839384 
L 239.86562 93.286517 
L 238.387623 91.56877 
L 237.145397 89.805178 
L 236.13429 88.089306 
L 234.428705 84.563675 
L 233.075153 80.95779 
L 231.99207 77.313122 
L 230.712224 71.847155 
L 227.839804 58.077287 
L 227.37633 56.374378 
L 227.37633 56.374378 
" style="fill:none;stroke:#ffffff;stroke-linecap:square;"/>
   </g>
   <g id="line2d_17">
    <path clip-path="url(#p95841d1315)" d="M 216.55028 295.488 
L 216.821791 277.96968 
L 217.146276 256.69845 
L 216.975921 239.278182 
L 217.188649 234.284835 
L 217.647754 229.509389 
L 218.195998 226.545279 
L 219.078073 223.397008 
L 220.838327 218.395222 
L 223.455446 211.285809 
L 224.617206 207.533794 
L 225.499014 203.622923 
L 225.782954 201.601397 
L 225.93009 199.535845 
L 225.914146 197.431246 
L 225.687722 195.188373 
L 225.186011 192.92989 
L 224.444016 190.813454 
L 223.520454 188.822447 
L 222.460271 186.935948 
L 220.068125 183.405905 
L 217.508413 180.125712 
L 212.780681 174.238516 
L 211.064164 171.751271 
L 210.018434 169.79476 
L 209.577873 168.573734 
L 209.52552 167.96445 
L 209.650219 167.074755 
L 209.918371 166.057931 
L 210.89597 163.739366 
L 212.422925 161.188863 
L 214.413616 158.552861 
L 216.764719 155.949506 
L 219.366089 153.479633 
L 222.102401 151.234384 
L 224.850012 149.299503 
L 227.468687 147.756469 
L 229.285418 146.886918 
L 230.359971 146.618274 
L 231.653162 146.459185 
L 233.135955 146.415717 
L 236.544818 146.646473 
L 240.362372 147.190143 
L 248.608998 148.493908 
L 250.737587 148.710252 
L 252.891851 148.816072 
L 255.080334 148.762561 
L 257.310268 148.482066 
L 259.569254 147.883034 
L 261.791598 146.863484 
L 263.667184 145.52968 
L 265.130648 144.095516 
L 266.416299 142.516386 
L 267.556141 140.813185 
L 268.572554 138.999863 
L 269.480204 137.088164 
L 270.288266 135.089673 
L 271.624762 130.881538 
L 272.599204 126.479877 
L 273.206583 121.994456 
L 273.426679 117.532351 
L 273.380347 115.340257 
L 273.220213 113.187471 
L 272.935103 111.081464 
L 272.508253 109.027415 
L 271.862947 106.903761 
L 270.932937 104.837205 
L 269.778297 102.989803 
L 268.461248 101.3414 
L 267.02654 99.859918 
L 265.505306 98.512397 
L 262.292129 96.108423 
L 257.327141 92.935161 
L 252.657987 89.988929 
L 249.995704 88.076861 
L 247.884539 86.22288 
L 247.06766 85.335393 
L 246.32826 84.339552 
L 244.955389 81.905866 
L 243.785536 79.197893 
L 242.79025 76.238985 
L 241.936138 73.063573 
L 240.829431 67.97958 
L 238.609109 57.120478 
L 237.687599 53.568 
L 237.687599 53.568 
" style="fill:none;stroke:#ffffff;stroke-linecap:square;"/>
   </g>
   <g id="patch_3">
    <path d="M 57.6 307.584 
L 57.6 41.472 
" style="fill:none;stroke:#000000;stroke-linecap:square;stroke-linejoin:miter;stroke-width:0.8;"/>
   </g>
   <g id="patch_4">
    <path d="M 414.72 307.584 
L 414.72 41.472 
" style="fill:none;stroke:#000000;stroke-linecap:square;stroke-linejoin:miter;stroke-width:0.8;"/>
   </g>
   <g id="patch_5">
    <path d="M 57.6 307.584 
L 414.72 307.584 
" style="fill:none;stroke:#000000;stroke-linecap:square;stroke-linejoin:miter;stroke-width:0.8;"/>
   </g>
   <g id="patch_6">
    <path d="M 57.6 41.472 
L 414.72 41.472 
" style="fill:none;stroke:#000000;stroke-linecap:square;stroke-linejoin:miter;stroke-width:0.8;"/>
   </g>
  </g>
 </g>
 <defs>
  <clipPath id="p95841d1315">
   <rect height="266.112" width="357.12" x="57.6" y="41.472"/>
  </clipPath>
 </defs>
</svg>
