<?xml version="1.0" encoding="utf-8" standalone="no"?>
<!DOCTYPE svg PUBLIC "-//W3C//DTD SVG 1.1//EN"
  "http://www.w3.org/Graphics/SVG/1.1/DTD/svg11.dtd">
<!-- Created with matplotlib (https://matplotlib.org/) -->
<svg height="345.6pt" version="1.1" viewBox="0 0 460.8 345.6" width="460.8pt" xmlns="http://www.w3.org/2000/svg" xmlns:xlink="http://www.w3.org/1999/xlink">
 <metadata>
  <rdf:RDF xmlns:cc="http://creativecommons.org/ns#" xmlns:dc="http://purl.org/dc/elements/1.1/" xmlns:rdf="http://www.w3.org/1999/02/22-rdf-syntax-ns#">
   <cc:Work>
    <dc:type rdf:resource="http://purl.org/dc/dcmitype/StillImage"/>
    <dc:date>2021-07-08T08:00:26.586378</dc:date>
    <dc:format>image/svg+xml</dc:format>
    <dc:creator>
     <cc:Agent>
      <dc:title>Matplotlib v3.3.3, https://matplotlib.org/</dc:title>
     </cc:Agent>
    </dc:creator>
   </cc:Work>
  </rdf:RDF>
 </metadata>
 <defs>
  <style type="text/css">*{stroke-linecap:butt;stroke-linejoin:round;}</style>
 </defs>
 <g id="figure_1">
  <g id="patch_1">
   <path d="M 0 345.6 
L 460.8 345.6 
L 460.8 0 
L 0 0 
z
" style="fill:#ffffff;"/>
  </g>
  <g id="axes_1">
   <g id="patch_2">
    <path d="M 57.6 307.584 
L 414.72 307.584 
L 414.72 41.472 
L 57.6 41.472 
z
" style="fill:#7d9051;"/>
   </g>
   <g id="matplotlib.axis_1">
    <g id="xtick_1">
     <g id="line2d_1">
      <defs>
       <path d="M 0 0 
L 0 3.5 
" id="ma570588a7d" style="stroke:#000000;stroke-width:0.8;"/>
      </defs>
      <g>
       <use style="stroke:#000000;stroke-width:0.8;" x="97.177254" xlink:href="#ma570588a7d" y="307.584"/>
      </g>
     </g>
     <g id="text_1">
      <!-- −150 -->
      <g transform="translate(83.44366 322.182437)scale(0.1 -0.1)">
       <defs>
        <path d="M 10.59375 35.5 
L 73.1875 35.5 
L 73.1875 27.203125 
L 10.59375 27.203125 
z
" id="DejaVuSans-8722"/>
        <path d="M 12.40625 8.296875 
L 28.515625 8.296875 
L 28.515625 63.921875 
L 10.984375 60.40625 
L 10.984375 69.390625 
L 28.421875 72.90625 
L 38.28125 72.90625 
L 38.28125 8.296875 
L 54.390625 8.296875 
L 54.390625 0 
L 12.40625 0 
z
" id="DejaVuSans-49"/>
        <path d="M 10.796875 72.90625 
L 49.515625 72.90625 
L 49.515625 64.59375 
L 19.828125 64.59375 
L 19.828125 46.734375 
Q 21.96875 47.46875 24.109375 47.828125 
Q 26.265625 48.1875 28.421875 48.1875 
Q 40.625 48.1875 47.75 41.5 
Q 54.890625 34.8125 54.890625 23.390625 
Q 54.890625 11.625 47.5625 5.09375 
Q 40.234375 -1.421875 26.90625 -1.421875 
Q 22.3125 -1.421875 17.546875 -0.640625 
Q 12.796875 0.140625 7.71875 1.703125 
L 7.71875 11.625 
Q 12.109375 9.234375 16.796875 8.0625 
Q 21.484375 6.890625 26.703125 6.890625 
Q 35.15625 6.890625 40.078125 11.328125 
Q 45.015625 15.765625 45.015625 23.390625 
Q 45.015625 31 40.078125 35.4375 
Q 35.15625 39.890625 26.703125 39.890625 
Q 22.75 39.890625 18.8125 39.015625 
Q 14.890625 38.140625 10.796875 36.28125 
z
" id="DejaVuSans-53"/>
        <path d="M 31.78125 66.40625 
Q 24.171875 66.40625 20.328125 58.90625 
Q 16.5 51.421875 16.5 36.375 
Q 16.5 21.390625 20.328125 13.890625 
Q 24.171875 6.390625 31.78125 6.390625 
Q 39.453125 6.390625 43.28125 13.890625 
Q 47.125 21.390625 47.125 36.375 
Q 47.125 51.421875 43.28125 58.90625 
Q 39.453125 66.40625 31.78125 66.40625 
z
M 31.78125 74.21875 
Q 44.046875 74.21875 50.515625 64.515625 
Q 56.984375 54.828125 56.984375 36.375 
Q 56.984375 17.96875 50.515625 8.265625 
Q 44.046875 -1.421875 31.78125 -1.421875 
Q 19.53125 -1.421875 13.0625 8.265625 
Q 6.59375 17.96875 6.59375 36.375 
Q 6.59375 54.828125 13.0625 64.515625 
Q 19.53125 74.21875 31.78125 74.21875 
z
" id="DejaVuSans-48"/>
       </defs>
       <use xlink:href="#DejaVuSans-8722"/>
       <use x="83.789062" xlink:href="#DejaVuSans-49"/>
       <use x="147.412109" xlink:href="#DejaVuSans-53"/>
       <use x="211.035156" xlink:href="#DejaVuSans-48"/>
      </g>
     </g>
    </g>
    <g id="xtick_2">
     <g id="line2d_2">
      <g>
       <use style="stroke:#000000;stroke-width:0.8;" x="164.301172" xlink:href="#ma570588a7d" y="307.584"/>
      </g>
     </g>
     <g id="text_2">
      <!-- −100 -->
      <g transform="translate(150.567578 322.182437)scale(0.1 -0.1)">
       <use xlink:href="#DejaVuSans-8722"/>
       <use x="83.789062" xlink:href="#DejaVuSans-49"/>
       <use x="147.412109" xlink:href="#DejaVuSans-48"/>
       <use x="211.035156" xlink:href="#DejaVuSans-48"/>
      </g>
     </g>
    </g>
    <g id="xtick_3">
     <g id="line2d_3">
      <g>
       <use style="stroke:#000000;stroke-width:0.8;" x="231.425091" xlink:href="#ma570588a7d" y="307.584"/>
      </g>
     </g>
     <g id="text_3">
      <!-- −50 -->
      <g transform="translate(220.872747 322.182437)scale(0.1 -0.1)">
       <use xlink:href="#DejaVuSans-8722"/>
       <use x="83.789062" xlink:href="#DejaVuSans-53"/>
       <use x="147.412109" xlink:href="#DejaVuSans-48"/>
      </g>
     </g>
    </g>
    <g id="xtick_4">
     <g id="line2d_4">
      <g>
       <use style="stroke:#000000;stroke-width:0.8;" x="298.549009" xlink:href="#ma570588a7d" y="307.584"/>
      </g>
     </g>
     <g id="text_4">
      <!-- 0 -->
      <g transform="translate(295.367759 322.182437)scale(0.1 -0.1)">
       <use xlink:href="#DejaVuSans-48"/>
      </g>
     </g>
    </g>
    <g id="xtick_5">
     <g id="line2d_5">
      <g>
       <use style="stroke:#000000;stroke-width:0.8;" x="365.672928" xlink:href="#ma570588a7d" y="307.584"/>
      </g>
     </g>
     <g id="text_5">
      <!-- 50 -->
      <g transform="translate(359.310428 322.182437)scale(0.1 -0.1)">
       <use xlink:href="#DejaVuSans-53"/>
       <use x="63.623047" xlink:href="#DejaVuSans-48"/>
      </g>
     </g>
    </g>
   </g>
   <g id="matplotlib.axis_2">
    <g id="ytick_1">
     <g id="line2d_6">
      <defs>
       <path d="M 0 0 
L -3.5 0 
" id="mfdec7510cf" style="stroke:#000000;stroke-width:0.8;"/>
      </defs>
      <g>
       <use style="stroke:#000000;stroke-width:0.8;" x="57.6" xlink:href="#mfdec7510cf" y="295.436336"/>
      </g>
     </g>
     <g id="text_6">
      <!-- 0 -->
      <g transform="translate(44.2375 299.235555)scale(0.1 -0.1)">
       <use xlink:href="#DejaVuSans-48"/>
      </g>
     </g>
    </g>
    <g id="ytick_2">
     <g id="line2d_7">
      <g>
       <use style="stroke:#000000;stroke-width:0.8;" x="57.6" xlink:href="#mfdec7510cf" y="261.874377"/>
      </g>
     </g>
     <g id="text_7">
      <!-- 25 -->
      <g transform="translate(37.875 265.673596)scale(0.1 -0.1)">
       <defs>
        <path d="M 19.1875 8.296875 
L 53.609375 8.296875 
L 53.609375 0 
L 7.328125 0 
L 7.328125 8.296875 
Q 12.9375 14.109375 22.625 23.890625 
Q 32.328125 33.6875 34.8125 36.53125 
Q 39.546875 41.84375 41.421875 45.53125 
Q 43.3125 49.21875 43.3125 52.78125 
Q 43.3125 58.59375 39.234375 62.25 
Q 35.15625 65.921875 28.609375 65.921875 
Q 23.96875 65.921875 18.8125 64.3125 
Q 13.671875 62.703125 7.8125 59.421875 
L 7.8125 69.390625 
Q 13.765625 71.78125 18.9375 73 
Q 24.125 74.21875 28.421875 74.21875 
Q 39.75 74.21875 46.484375 68.546875 
Q 53.21875 62.890625 53.21875 53.421875 
Q 53.21875 48.921875 51.53125 44.890625 
Q 49.859375 40.875 45.40625 35.40625 
Q 44.1875 33.984375 37.640625 27.21875 
Q 31.109375 20.453125 19.1875 8.296875 
z
" id="DejaVuSans-50"/>
       </defs>
       <use xlink:href="#DejaVuSans-50"/>
       <use x="63.623047" xlink:href="#DejaVuSans-53"/>
      </g>
     </g>
    </g>
    <g id="ytick_3">
     <g id="line2d_8">
      <g>
       <use style="stroke:#000000;stroke-width:0.8;" x="57.6" xlink:href="#mfdec7510cf" y="228.312418"/>
      </g>
     </g>
     <g id="text_8">
      <!-- 50 -->
      <g transform="translate(37.875 232.111637)scale(0.1 -0.1)">
       <use xlink:href="#DejaVuSans-53"/>
       <use x="63.623047" xlink:href="#DejaVuSans-48"/>
      </g>
     </g>
    </g>
    <g id="ytick_4">
     <g id="line2d_9">
      <g>
       <use style="stroke:#000000;stroke-width:0.8;" x="57.6" xlink:href="#mfdec7510cf" y="194.750459"/>
      </g>
     </g>
     <g id="text_9">
      <!-- 75 -->
      <g transform="translate(37.875 198.549677)scale(0.1 -0.1)">
       <defs>
        <path d="M 8.203125 72.90625 
L 55.078125 72.90625 
L 55.078125 68.703125 
L 28.609375 0 
L 18.3125 0 
L 43.21875 64.59375 
L 8.203125 64.59375 
z
" id="DejaVuSans-55"/>
       </defs>
       <use xlink:href="#DejaVuSans-55"/>
       <use x="63.623047" xlink:href="#DejaVuSans-53"/>
      </g>
     </g>
    </g>
    <g id="ytick_5">
     <g id="line2d_10">
      <g>
       <use style="stroke:#000000;stroke-width:0.8;" x="57.6" xlink:href="#mfdec7510cf" y="161.188499"/>
      </g>
     </g>
     <g id="text_10">
      <!-- 100 -->
      <g transform="translate(31.5125 164.987718)scale(0.1 -0.1)">
       <use xlink:href="#DejaVuSans-49"/>
       <use x="63.623047" xlink:href="#DejaVuSans-48"/>
       <use x="127.246094" xlink:href="#DejaVuSans-48"/>
      </g>
     </g>
    </g>
    <g id="ytick_6">
     <g id="line2d_11">
      <g>
       <use style="stroke:#000000;stroke-width:0.8;" x="57.6" xlink:href="#mfdec7510cf" y="127.62654"/>
      </g>
     </g>
     <g id="text_11">
      <!-- 125 -->
      <g transform="translate(31.5125 131.425759)scale(0.1 -0.1)">
       <use xlink:href="#DejaVuSans-49"/>
       <use x="63.623047" xlink:href="#DejaVuSans-50"/>
       <use x="127.246094" xlink:href="#DejaVuSans-53"/>
      </g>
     </g>
    </g>
    <g id="ytick_7">
     <g id="line2d_12">
      <g>
       <use style="stroke:#000000;stroke-width:0.8;" x="57.6" xlink:href="#mfdec7510cf" y="94.064581"/>
      </g>
     </g>
     <g id="text_12">
      <!-- 150 -->
      <g transform="translate(31.5125 97.863799)scale(0.1 -0.1)">
       <use xlink:href="#DejaVuSans-49"/>
       <use x="63.623047" xlink:href="#DejaVuSans-53"/>
       <use x="127.246094" xlink:href="#DejaVuSans-48"/>
      </g>
     </g>
    </g>
    <g id="ytick_8">
     <g id="line2d_13">
      <g>
       <use style="stroke:#000000;stroke-width:0.8;" x="57.6" xlink:href="#mfdec7510cf" y="60.502621"/>
      </g>
     </g>
     <g id="text_13">
      <!-- 175 -->
      <g transform="translate(31.5125 64.30184)scale(0.1 -0.1)">
       <use xlink:href="#DejaVuSans-49"/>
       <use x="63.623047" xlink:href="#DejaVuSans-55"/>
       <use x="127.246094" xlink:href="#DejaVuSans-53"/>
      </g>
     </g>
    </g>
   </g>
   <g id="line2d_14">
    <path clip-path="url(#pcf53515c88)" d="M 298.549009 295.436336 
L 298.822706 277.774536 
L 299.204091 260.091989 
L 299.535364 256.410238 
L 300.321148 250.727486 
L 301.36886 243.150484 
L 301.661617 239.490084 
L 301.663358 235.990995 
L 301.523002 234.319735 
L 301.271375 232.710152 
L 300.895638 231.169365 
L 300.382954 229.704489 
L 299.720483 228.322641 
L 298.901156 227.025878 
L 297.934692 225.807363 
L 296.833431 224.660876 
L 295.609718 223.580198 
L 292.8443 221.591381 
L 289.737174 219.791148 
L 286.387077 218.129735 
L 279.35292 215.024308 
L 274.173862 212.689516 
L 266.029305 208.705369 
L 260.73203 206.687915 
L 253.624954 204.077435 
L 250.260137 202.648417 
L 247.144155 201.043352 
L 244.369273 199.192093 
L 243.138578 198.15222 
L 242.027757 197.024493 
L 241.048344 195.800144 
L 240.212548 194.474738 
L 239.516193 193.055219 
L 238.946242 191.549884 
L 238.489653 189.967032 
L 237.864407 186.601968 
L 237.536137 183.02641 
L 237.372368 177.413612 
L 237.219798 169.81274 
L 236.936995 166.111464 
L 236.377422 162.564807 
L 232.996784 146.854155 
L 231.603275 141.693134 
L 230.525804 138.326655 
L 229.299799 135.040788 
L 227.899753 131.853748 
L 226.305633 128.772065 
L 224.539511 125.741099 
L 222.618967 122.760393 
L 219.47866 118.407471 
L 216.068174 114.229088 
L 212.433874 110.262115 
L 208.622123 106.543424 
L 206.005267 104.22044 
L 204.633401 103.138751 
L 201.622854 101.219745 
L 198.345795 99.552315 
L 193.164761 97.327952 
L 187.986466 95.16841 
L 184.714278 93.616215 
L 181.711036 91.870063 
L 180.343736 90.896407 
L 179.083832 89.840847 
L 177.944711 88.692244 
L 176.939758 87.43946 
L 176.067474 86.087275 
L 175.310828 84.652606 
L 174.659907 83.142524 
L 173.635594 79.924401 
L 172.915242 76.489465 
L 172.419557 72.894275 
L 171.923822 67.324741 
L 171.309098 59.865703 
L 170.843148 56.249304 
L 170.535834 54.494129 
L 170.535834 54.494129 
" style="fill:none;stroke:#fea952;stroke-linecap:square;"/>
   </g>
   <g id="line2d_15">
    <path clip-path="url(#pcf53515c88)" d="M 293.179344 295.384673 
L 293.453868 277.667062 
L 293.849417 259.68772 
L 294.207354 255.7407 
L 295.011191 249.927284 
L 296.023259 242.640079 
L 296.29333 239.357888 
L 296.312282 236.440392 
L 296.054343 233.982377 
L 295.540739 232.025893 
L 295.180784 231.190934 
L 294.693936 230.362833 
L 294.061973 229.527312 
L 292.345529 227.844121 
L 290.058469 226.182146 
L 287.290553 224.571318 
L 284.152348 223.012557 
L 277.202794 219.944972 
L 271.792402 217.50248 
L 264.035269 213.691329 
L 258.919731 211.742769 
L 251.596059 209.049311 
L 247.910338 207.476918 
L 244.313967 205.606904 
L 242.577769 204.515871 
L 240.903502 203.293849 
L 239.312907 201.920537 
L 237.834448 200.378912 
L 236.506129 198.66445 
L 235.391478 196.839745 
L 234.494191 194.956655 
L 233.786699 193.038203 
L 233.240408 191.099019 
L 232.52686 187.190668 
L 232.171956 183.27448 
L 232.002725 177.467504 
L 231.859762 170.138296 
L 231.613836 166.818541 
L 231.122158 163.668512 
L 227.791491 148.173585 
L 226.471757 143.275379 
L 224.926735 138.615096 
L 223.740583 135.669116 
L 222.393956 132.840512 
L 220.834429 130.007701 
L 218.200371 125.811947 
L 215.253429 121.721592 
L 212.041261 117.781543 
L 208.613037 114.035333 
L 205.019354 110.525387 
L 201.61356 107.579081 
L 199.096046 105.958016 
L 196.142249 104.449289 
L 191.134853 102.299415 
L 185.760718 100.055333 
L 182.137685 98.327599 
L 180.349778 97.341222 
L 178.596168 96.244256 
L 176.895138 95.012612 
L 175.271026 93.62218 
L 173.755962 92.052356 
L 172.427295 90.350413 
L 171.317667 88.59233 
L 170.379535 86.778241 
L 169.594135 84.924077 
L 168.942099 83.041424 
L 167.964821 79.222142 
L 167.315089 75.368504 
L 166.715483 69.611585 
L 165.780962 58.796736 
L 165.246387 55.420257 
L 165.246387 55.420257 
" style="fill:none;stroke:#ffffff;stroke-linecap:square;"/>
   </g>
   <g id="line2d_16">
    <path clip-path="url(#pcf53515c88)" d="M 303.918674 295.488 
L 304.191544 277.88201 
L 304.682898 258.823145 
L 305.349379 253.423113 
L 306.714462 243.660889 
L 307.029903 239.622279 
L 307.014434 235.541598 
L 306.828475 233.490327 
L 306.488406 231.437928 
L 305.9641 229.395481 
L 305.22517 227.383084 
L 304.260182 225.454348 
L 303.108376 223.688922 
L 301.80741 222.087414 
L 300.388005 220.635833 
L 298.873907 219.316275 
L 297.283201 218.110278 
L 293.926694 215.971971 
L 290.411964 214.106016 
L 285.030588 211.631363 
L 276.555321 207.876552 
L 268.02334 203.71941 
L 262.544329 201.633062 
L 255.653848 199.105558 
L 252.609935 197.819916 
L 249.974343 196.4798 
L 247.835043 195.090337 
L 246.221066 193.670073 
L 245.590559 192.935837 
L 245.033617 192.109731 
L 244.538196 191.153782 
L 243.738899 188.835045 
L 243.201953 186.013267 
L 242.900317 182.778339 
L 242.742011 177.35972 
L 242.579834 169.487183 
L 242.260153 165.404387 
L 241.632687 161.461102 
L 238.202077 145.534725 
L 236.734793 140.11089 
L 235.580866 136.514938 
L 234.248861 132.956859 
L 232.705379 129.457515 
L 230.976322 126.122416 
L 229.084978 122.881955 
L 227.037563 119.708839 
L 224.847876 116.611216 
L 222.529346 113.597559 
L 218.838582 109.253752 
L 214.930449 105.149254 
L 210.846579 101.315709 
L 207.653243 98.698421 
L 205.920654 97.531417 
L 202.354851 95.528788 
L 198.745688 93.844915 
L 187.290871 88.904831 
L 184.825904 87.49587 
L 182.896639 86.059514 
L 182.13346 85.332132 
L 181.452221 84.528508 
L 180.242121 82.526972 
L 179.267501 80.086774 
L 178.519937 77.238857 
L 177.973455 74.048229 
L 177.423004 68.7792 
L 176.643253 59.247024 
L 176.132595 55.323175 
L 175.825282 53.568 
L 175.825282 53.568 
" style="fill:none;stroke:#ffffff;stroke-linecap:square;"/>
   </g>
   <g id="patch_3">
    <path d="M 57.6 307.584 
L 57.6 41.472 
" style="fill:none;stroke:#000000;stroke-linecap:square;stroke-linejoin:miter;stroke-width:0.8;"/>
   </g>
   <g id="patch_4">
    <path d="M 414.72 307.584 
L 414.72 41.472 
" style="fill:none;stroke:#000000;stroke-linecap:square;stroke-linejoin:miter;stroke-width:0.8;"/>
   </g>
   <g id="patch_5">
    <path d="M 57.6 307.584 
L 414.72 307.584 
" style="fill:none;stroke:#000000;stroke-linecap:square;stroke-linejoin:miter;stroke-width:0.8;"/>
   </g>
   <g id="patch_6">
    <path d="M 57.6 41.472 
L 414.72 41.472 
" style="fill:none;stroke:#000000;stroke-linecap:square;stroke-linejoin:miter;stroke-width:0.8;"/>
   </g>
  </g>
 </g>
 <defs>
  <clipPath id="pcf53515c88">
   <rect height="266.112" width="357.12" x="57.6" y="41.472"/>
  </clipPath>
 </defs>
</svg>
