<?xml version="1.0" encoding="utf-8" standalone="no"?>
<!DOCTYPE svg PUBLIC "-//W3C//DTD SVG 1.1//EN"
  "http://www.w3.org/Graphics/SVG/1.1/DTD/svg11.dtd">
<!-- Created with matplotlib (https://matplotlib.org/) -->
<svg height="345.6pt" version="1.1" viewBox="0 0 460.8 345.6" width="460.8pt" xmlns="http://www.w3.org/2000/svg" xmlns:xlink="http://www.w3.org/1999/xlink">
 <metadata>
  <rdf:RDF xmlns:cc="http://creativecommons.org/ns#" xmlns:dc="http://purl.org/dc/elements/1.1/" xmlns:rdf="http://www.w3.org/1999/02/22-rdf-syntax-ns#">
   <cc:Work>
    <dc:type rdf:resource="http://purl.org/dc/dcmitype/StillImage"/>
    <dc:date>2021-07-05T01:09:39.572435</dc:date>
    <dc:format>image/svg+xml</dc:format>
    <dc:creator>
     <cc:Agent>
      <dc:title>Matplotlib v3.3.3, https://matplotlib.org/</dc:title>
     </cc:Agent>
    </dc:creator>
   </cc:Work>
  </rdf:RDF>
 </metadata>
 <defs>
  <style type="text/css">*{stroke-linecap:butt;stroke-linejoin:round;}</style>
 </defs>
 <g id="figure_1">
  <g id="patch_1">
   <path d="M 0 345.6 
L 460.8 345.6 
L 460.8 0 
L 0 0 
z
" style="fill:#ffffff;"/>
  </g>
  <g id="axes_1">
   <g id="patch_2">
    <path d="M 57.6 307.584 
L 414.72 307.584 
L 414.72 41.472 
L 57.6 41.472 
z
" style="fill:#7d9051;"/>
   </g>
   <g id="matplotlib.axis_1">
    <g id="xtick_1">
     <g id="line2d_1">
      <defs>
       <path d="M 0 0 
L 0 3.5 
" id="m1902c214d9" style="stroke:#000000;stroke-width:0.8;"/>
      </defs>
      <g>
       <use style="stroke:#000000;stroke-width:0.8;" x="66.885738" xlink:href="#m1902c214d9" y="307.584"/>
      </g>
     </g>
     <g id="text_1">
      <!-- −150 -->
      <g transform="translate(53.152144 322.182437)scale(0.1 -0.1)">
       <defs>
        <path d="M 10.59375 35.5 
L 73.1875 35.5 
L 73.1875 27.203125 
L 10.59375 27.203125 
z
" id="DejaVuSans-8722"/>
        <path d="M 12.40625 8.296875 
L 28.515625 8.296875 
L 28.515625 63.921875 
L 10.984375 60.40625 
L 10.984375 69.390625 
L 28.421875 72.90625 
L 38.28125 72.90625 
L 38.28125 8.296875 
L 54.390625 8.296875 
L 54.390625 0 
L 12.40625 0 
z
" id="DejaVuSans-49"/>
        <path d="M 10.796875 72.90625 
L 49.515625 72.90625 
L 49.515625 64.59375 
L 19.828125 64.59375 
L 19.828125 46.734375 
Q 21.96875 47.46875 24.109375 47.828125 
Q 26.265625 48.1875 28.421875 48.1875 
Q 40.625 48.1875 47.75 41.5 
Q 54.890625 34.8125 54.890625 23.390625 
Q 54.890625 11.625 47.5625 5.09375 
Q 40.234375 -1.421875 26.90625 -1.421875 
Q 22.3125 -1.421875 17.546875 -0.640625 
Q 12.796875 0.140625 7.71875 1.703125 
L 7.71875 11.625 
Q 12.109375 9.234375 16.796875 8.0625 
Q 21.484375 6.890625 26.703125 6.890625 
Q 35.15625 6.890625 40.078125 11.328125 
Q 45.015625 15.765625 45.015625 23.390625 
Q 45.015625 31 40.078125 35.4375 
Q 35.15625 39.890625 26.703125 39.890625 
Q 22.75 39.890625 18.8125 39.015625 
Q 14.890625 38.140625 10.796875 36.28125 
z
" id="DejaVuSans-53"/>
        <path d="M 31.78125 66.40625 
Q 24.171875 66.40625 20.328125 58.90625 
Q 16.5 51.421875 16.5 36.375 
Q 16.5 21.390625 20.328125 13.890625 
Q 24.171875 6.390625 31.78125 6.390625 
Q 39.453125 6.390625 43.28125 13.890625 
Q 47.125 21.390625 47.125 36.375 
Q 47.125 51.421875 43.28125 58.90625 
Q 39.453125 66.40625 31.78125 66.40625 
z
M 31.78125 74.21875 
Q 44.046875 74.21875 50.515625 64.515625 
Q 56.984375 54.828125 56.984375 36.375 
Q 56.984375 17.96875 50.515625 8.265625 
Q 44.046875 -1.421875 31.78125 -1.421875 
Q 19.53125 -1.421875 13.0625 8.265625 
Q 6.59375 17.96875 6.59375 36.375 
Q 6.59375 54.828125 13.0625 64.515625 
Q 19.53125 74.21875 31.78125 74.21875 
z
" id="DejaVuSans-48"/>
       </defs>
       <use xlink:href="#DejaVuSans-8722"/>
       <use x="83.789062" xlink:href="#DejaVuSans-49"/>
       <use x="147.412109" xlink:href="#DejaVuSans-53"/>
       <use x="211.035156" xlink:href="#DejaVuSans-48"/>
      </g>
     </g>
    </g>
    <g id="xtick_2">
     <g id="line2d_2">
      <g>
       <use style="stroke:#000000;stroke-width:0.8;" x="129.194641" xlink:href="#m1902c214d9" y="307.584"/>
      </g>
     </g>
     <g id="text_2">
      <!-- −100 -->
      <g transform="translate(115.461048 322.182437)scale(0.1 -0.1)">
       <use xlink:href="#DejaVuSans-8722"/>
       <use x="83.789062" xlink:href="#DejaVuSans-49"/>
       <use x="147.412109" xlink:href="#DejaVuSans-48"/>
       <use x="211.035156" xlink:href="#DejaVuSans-48"/>
      </g>
     </g>
    </g>
    <g id="xtick_3">
     <g id="line2d_3">
      <g>
       <use style="stroke:#000000;stroke-width:0.8;" x="191.503545" xlink:href="#m1902c214d9" y="307.584"/>
      </g>
     </g>
     <g id="text_3">
      <!-- −50 -->
      <g transform="translate(180.951201 322.182437)scale(0.1 -0.1)">
       <use xlink:href="#DejaVuSans-8722"/>
       <use x="83.789062" xlink:href="#DejaVuSans-53"/>
       <use x="147.412109" xlink:href="#DejaVuSans-48"/>
      </g>
     </g>
    </g>
    <g id="xtick_4">
     <g id="line2d_4">
      <g>
       <use style="stroke:#000000;stroke-width:0.8;" x="253.812448" xlink:href="#m1902c214d9" y="307.584"/>
      </g>
     </g>
     <g id="text_4">
      <!-- 0 -->
      <g transform="translate(250.631198 322.182437)scale(0.1 -0.1)">
       <use xlink:href="#DejaVuSans-48"/>
      </g>
     </g>
    </g>
    <g id="xtick_5">
     <g id="line2d_5">
      <g>
       <use style="stroke:#000000;stroke-width:0.8;" x="316.121352" xlink:href="#m1902c214d9" y="307.584"/>
      </g>
     </g>
     <g id="text_5">
      <!-- 50 -->
      <g transform="translate(309.758852 322.182437)scale(0.1 -0.1)">
       <use xlink:href="#DejaVuSans-53"/>
       <use x="63.623047" xlink:href="#DejaVuSans-48"/>
      </g>
     </g>
    </g>
    <g id="xtick_6">
     <g id="line2d_6">
      <g>
       <use style="stroke:#000000;stroke-width:0.8;" x="378.430255" xlink:href="#m1902c214d9" y="307.584"/>
      </g>
     </g>
     <g id="text_6">
      <!-- 100 -->
      <g transform="translate(368.886505 322.182437)scale(0.1 -0.1)">
       <use xlink:href="#DejaVuSans-49"/>
       <use x="63.623047" xlink:href="#DejaVuSans-48"/>
       <use x="127.246094" xlink:href="#DejaVuSans-48"/>
      </g>
     </g>
    </g>
   </g>
   <g id="matplotlib.axis_2">
    <g id="ytick_1">
     <g id="line2d_7">
      <defs>
       <path d="M 0 0 
L -3.5 0 
" id="m7b34726d98" style="stroke:#000000;stroke-width:0.8;"/>
      </defs>
      <g>
       <use style="stroke:#000000;stroke-width:0.8;" x="57.6" xlink:href="#m7b34726d98" y="295.440042"/>
      </g>
     </g>
     <g id="text_7">
      <!-- 0 -->
      <g transform="translate(44.2375 299.239261)scale(0.1 -0.1)">
       <use xlink:href="#DejaVuSans-48"/>
      </g>
     </g>
    </g>
    <g id="ytick_2">
     <g id="line2d_8">
      <g>
       <use style="stroke:#000000;stroke-width:0.8;" x="57.6" xlink:href="#m7b34726d98" y="264.285591"/>
      </g>
     </g>
     <g id="text_8">
      <!-- 25 -->
      <g transform="translate(37.875 268.084809)scale(0.1 -0.1)">
       <defs>
        <path d="M 19.1875 8.296875 
L 53.609375 8.296875 
L 53.609375 0 
L 7.328125 0 
L 7.328125 8.296875 
Q 12.9375 14.109375 22.625 23.890625 
Q 32.328125 33.6875 34.8125 36.53125 
Q 39.546875 41.84375 41.421875 45.53125 
Q 43.3125 49.21875 43.3125 52.78125 
Q 43.3125 58.59375 39.234375 62.25 
Q 35.15625 65.921875 28.609375 65.921875 
Q 23.96875 65.921875 18.8125 64.3125 
Q 13.671875 62.703125 7.8125 59.421875 
L 7.8125 69.390625 
Q 13.765625 71.78125 18.9375 73 
Q 24.125 74.21875 28.421875 74.21875 
Q 39.75 74.21875 46.484375 68.546875 
Q 53.21875 62.890625 53.21875 53.421875 
Q 53.21875 48.921875 51.53125 44.890625 
Q 49.859375 40.875 45.40625 35.40625 
Q 44.1875 33.984375 37.640625 27.21875 
Q 31.109375 20.453125 19.1875 8.296875 
z
" id="DejaVuSans-50"/>
       </defs>
       <use xlink:href="#DejaVuSans-50"/>
       <use x="63.623047" xlink:href="#DejaVuSans-53"/>
      </g>
     </g>
    </g>
    <g id="ytick_3">
     <g id="line2d_9">
      <g>
       <use style="stroke:#000000;stroke-width:0.8;" x="57.6" xlink:href="#m7b34726d98" y="233.131139"/>
      </g>
     </g>
     <g id="text_9">
      <!-- 50 -->
      <g transform="translate(37.875 236.930358)scale(0.1 -0.1)">
       <use xlink:href="#DejaVuSans-53"/>
       <use x="63.623047" xlink:href="#DejaVuSans-48"/>
      </g>
     </g>
    </g>
    <g id="ytick_4">
     <g id="line2d_10">
      <g>
       <use style="stroke:#000000;stroke-width:0.8;" x="57.6" xlink:href="#m7b34726d98" y="201.976687"/>
      </g>
     </g>
     <g id="text_10">
      <!-- 75 -->
      <g transform="translate(37.875 205.775906)scale(0.1 -0.1)">
       <defs>
        <path d="M 8.203125 72.90625 
L 55.078125 72.90625 
L 55.078125 68.703125 
L 28.609375 0 
L 18.3125 0 
L 43.21875 64.59375 
L 8.203125 64.59375 
z
" id="DejaVuSans-55"/>
       </defs>
       <use xlink:href="#DejaVuSans-55"/>
       <use x="63.623047" xlink:href="#DejaVuSans-53"/>
      </g>
     </g>
    </g>
    <g id="ytick_5">
     <g id="line2d_11">
      <g>
       <use style="stroke:#000000;stroke-width:0.8;" x="57.6" xlink:href="#m7b34726d98" y="170.822236"/>
      </g>
     </g>
     <g id="text_11">
      <!-- 100 -->
      <g transform="translate(31.5125 174.621454)scale(0.1 -0.1)">
       <use xlink:href="#DejaVuSans-49"/>
       <use x="63.623047" xlink:href="#DejaVuSans-48"/>
       <use x="127.246094" xlink:href="#DejaVuSans-48"/>
      </g>
     </g>
    </g>
    <g id="ytick_6">
     <g id="line2d_12">
      <g>
       <use style="stroke:#000000;stroke-width:0.8;" x="57.6" xlink:href="#m7b34726d98" y="139.667784"/>
      </g>
     </g>
     <g id="text_12">
      <!-- 125 -->
      <g transform="translate(31.5125 143.467003)scale(0.1 -0.1)">
       <use xlink:href="#DejaVuSans-49"/>
       <use x="63.623047" xlink:href="#DejaVuSans-50"/>
       <use x="127.246094" xlink:href="#DejaVuSans-53"/>
      </g>
     </g>
    </g>
    <g id="ytick_7">
     <g id="line2d_13">
      <g>
       <use style="stroke:#000000;stroke-width:0.8;" x="57.6" xlink:href="#m7b34726d98" y="108.513332"/>
      </g>
     </g>
     <g id="text_13">
      <!-- 150 -->
      <g transform="translate(31.5125 112.312551)scale(0.1 -0.1)">
       <use xlink:href="#DejaVuSans-49"/>
       <use x="63.623047" xlink:href="#DejaVuSans-53"/>
       <use x="127.246094" xlink:href="#DejaVuSans-48"/>
      </g>
     </g>
    </g>
    <g id="ytick_8">
     <g id="line2d_14">
      <g>
       <use style="stroke:#000000;stroke-width:0.8;" x="57.6" xlink:href="#m7b34726d98" y="77.35888"/>
      </g>
     </g>
     <g id="text_14">
      <!-- 175 -->
      <g transform="translate(31.5125 81.158099)scale(0.1 -0.1)">
       <use xlink:href="#DejaVuSans-49"/>
       <use x="63.623047" xlink:href="#DejaVuSans-55"/>
       <use x="127.246094" xlink:href="#DejaVuSans-53"/>
      </g>
     </g>
    </g>
    <g id="ytick_9">
     <g id="line2d_15">
      <g>
       <use style="stroke:#000000;stroke-width:0.8;" x="57.6" xlink:href="#m7b34726d98" y="46.204429"/>
      </g>
     </g>
     <g id="text_15">
      <!-- 200 -->
      <g transform="translate(31.5125 50.003648)scale(0.1 -0.1)">
       <use xlink:href="#DejaVuSans-50"/>
       <use x="63.623047" xlink:href="#DejaVuSans-48"/>
       <use x="127.246094" xlink:href="#DejaVuSans-48"/>
      </g>
     </g>
    </g>
   </g>
   <g id="line2d_16">
    <path clip-path="url(#p1f8a1b087b)" d="M 253.812448 295.440042 
L 254.066512 279.04518 
L 254.529042 260.962333 
L 255.094458 255.840395 
L 256.172865 247.246083 
L 256.413762 243.889206 
L 256.423379 240.630501 
L 256.120088 237.504618 
L 255.825594 236.002313 
L 255.422262 234.546206 
L 254.899889 233.140629 
L 254.244634 231.79448 
L 253.457827 230.509547 
L 252.552017 229.279496 
L 250.433585 226.958697 
L 247.989733 224.781405 
L 243.933409 221.673686 
L 236.968042 216.493753 
L 234.403027 214.273829 
L 232.114965 211.893344 
L 228.707771 208.077885 
L 222.65988 201.371952 
L 220.403035 198.608893 
L 218.388877 195.820663 
L 216.717362 193.021219 
L 215.488449 190.224516 
L 215.071206 188.831554 
L 214.802096 187.444512 
L 214.693617 186.065133 
L 214.787779 184.694477 
L 215.10245 183.3313 
L 215.613907 181.973893 
L 216.29843 180.620544 
L 218.091781 177.919185 
L 220.292725 175.213543 
L 227.44334 166.934128 
L 229.376881 164.07456 
L 230.152527 162.618377 
L 230.769128 161.142313 
L 231.202961 159.644659 
L 231.69541 156.570261 
L 231.864773 153.397924 
L 231.756321 150.149831 
L 231.415326 146.84816 
L 230.887058 143.515091 
L 229.842551 138.505135 
L 227.806684 130.312433 
L 226.955677 127.144361 
L 225.760514 123.996145 
L 224.27668 120.861754 
L 220.939875 114.650119 
L 218.603387 110.056824 
L 217.357741 107.033133 
L 216.506627 104.044817 
L 216.267837 102.565149 
L 216.174263 101.095794 
L 216.241431 99.637242 
L 216.456887 98.178386 
L 217.24047 95.235421 
L 218.441444 92.280933 
L 219.996407 89.341492 
L 221.841954 86.443672 
L 223.914684 83.614044 
L 226.151193 80.879183 
L 229.674347 77.012705 
L 233.209362 73.50892 
L 235.626216 71.422302 
L 238.227892 69.528997 
L 240.980293 67.793741 
L 245.316911 65.410063 
L 251.308356 62.455879 
L 257.288937 59.499161 
L 260.189908 57.931695 
L 260.189908 57.931695 
" style="fill:none;stroke:#fea952;stroke-linecap:square;"/>
   </g>
   <g id="line2d_17">
    <path clip-path="url(#p1f8a1b087b)" d="M 248.827967 295.392085 
L 249.082798 278.945415 
L 249.44211 262.300565 
L 249.733322 258.711785 
L 250.614002 251.741798 
L 251.206244 246.821771 
L 251.430439 243.771518 
L 251.450125 240.968286 
L 251.228475 238.463513 
L 250.749794 236.282697 
L 249.993583 234.39754 
L 248.766621 232.522663 
L 247.040548 230.610362 
L 244.874724 228.672944 
L 241.008178 225.70982 
L 235.241669 221.477574 
L 232.325669 219.108567 
L 229.529673 216.45986 
L 218.836784 204.570591 
L 216.414965 201.59932 
L 214.175901 198.484906 
L 212.228844 195.189296 
L 211.406345 193.455839 
L 210.713353 191.654835 
L 210.177743 189.780967 
L 209.832728 187.835322 
L 209.720626 185.723496 
L 209.93079 183.573307 
L 210.437869 181.573732 
L 211.165811 179.724049 
L 212.056639 178.002421 
L 213.068883 176.382325 
L 215.339154 173.358288 
L 219.001307 169.160985 
L 222.420226 165.252497 
L 224.255033 162.845017 
L 225.552998 160.697001 
L 225.981249 159.755385 
L 226.305835 158.71433 
L 226.725637 156.184626 
L 226.880537 153.466794 
L 226.790655 150.585159 
L 226.483165 147.570066 
L 225.688048 142.865821 
L 224.608721 138.031511 
L 222.252937 128.797116 
L 221.222968 126.059644 
L 219.853859 123.160887 
L 216.541819 116.996276 
L 214.84207 113.738922 
L 213.287998 110.333964 
L 212.612957 108.561003 
L 212.036259 106.731363 
L 211.585583 104.838976 
L 211.293203 102.881953 
L 211.194828 100.866485 
L 211.310208 98.908958 
L 211.597516 97.06759 
L 212.023026 95.261189 
L 212.571299 93.490087 
L 213.983665 90.050336 
L 215.744049 86.740568 
L 217.777748 83.557569 
L 220.018145 80.505292 
L 222.402226 77.593973 
L 226.113004 73.524984 
L 229.866481 69.811286 
L 232.618099 67.447558 
L 235.508019 65.35172 
L 238.491699 63.474683 
L 243.059561 60.965771 
L 249.140068 57.967462 
L 254.959221 55.092373 
L 257.780442 53.568 
L 257.780442 53.568 
" style="fill:none;stroke:#ffffff;stroke-linecap:square;"/>
   </g>
   <g id="line2d_18">
    <path clip-path="url(#p1f8a1b087b)" d="M 258.79693 295.488 
L 259.050226 279.144945 
L 259.492258 261.424761 
L 260.035693 256.497319 
L 261.139485 247.670394 
L 261.397084 244.006894 
L 261.396633 240.292717 
L 261.261042 238.421564 
L 261.011701 236.545723 
L 260.629424 234.671683 
L 260.09473 232.809715 
L 259.381831 230.958989 
L 258.495686 229.191421 
L 257.471646 227.553771 
L 256.337413 226.036328 
L 255.116085 224.625642 
L 252.484888 222.066169 
L 249.698895 219.766345 
L 245.448346 216.615429 
L 240.160354 212.665371 
L 237.900793 210.722352 
L 235.875258 208.621104 
L 232.376578 204.703391 
L 226.482976 198.173313 
L 224.391105 195.618466 
L 222.601852 193.15642 
L 221.20588 190.853141 
L 220.263546 188.794197 
L 219.771465 187.053701 
L 219.644767 185.815647 
L 219.76703 185.088869 
L 220.062004 184.223736 
L 220.540221 183.238667 
L 222.011992 180.998033 
L 224.037061 178.50403 
L 230.245553 171.429365 
L 232.676789 168.180131 
L 233.776392 166.41799 
L 234.752057 164.539752 
L 235.557007 162.529242 
L 236.100087 160.574989 
L 236.665183 156.955895 
L 236.84901 153.329055 
L 236.721988 149.714503 
L 236.347486 146.126253 
L 235.782731 142.577144 
L 234.693592 137.358506 
L 232.640416 129.094895 
L 231.658416 125.491606 
L 230.29806 121.932646 
L 228.699501 118.562621 
L 225.337932 112.303962 
L 223.168933 108.056037 
L 222.102524 105.505263 
L 221.42767 103.250657 
L 221.153698 101.325103 
L 221.172654 100.365527 
L 221.562059 98.158821 
L 222.356685 95.762406 
L 223.531993 93.235771 
L 225.04262 90.638296 
L 226.83167 88.022766 
L 228.836764 85.435044 
L 232.107811 81.692742 
L 235.498677 78.223375 
L 237.563202 76.285586 
L 239.763437 74.538158 
L 242.18411 72.898739 
L 244.798232 71.345534 
L 249.012496 69.12355 
L 262.599374 62.295389 
L 262.599374 62.295389 
" style="fill:none;stroke:#ffffff;stroke-linecap:square;"/>
   </g>
   <g id="patch_3">
    <path d="M 57.6 307.584 
L 57.6 41.472 
" style="fill:none;stroke:#000000;stroke-linecap:square;stroke-linejoin:miter;stroke-width:0.8;"/>
   </g>
   <g id="patch_4">
    <path d="M 414.72 307.584 
L 414.72 41.472 
" style="fill:none;stroke:#000000;stroke-linecap:square;stroke-linejoin:miter;stroke-width:0.8;"/>
   </g>
   <g id="patch_5">
    <path d="M 57.6 307.584 
L 414.72 307.584 
" style="fill:none;stroke:#000000;stroke-linecap:square;stroke-linejoin:miter;stroke-width:0.8;"/>
   </g>
   <g id="patch_6">
    <path d="M 57.6 41.472 
L 414.72 41.472 
" style="fill:none;stroke:#000000;stroke-linecap:square;stroke-linejoin:miter;stroke-width:0.8;"/>
   </g>
  </g>
 </g>
 <defs>
  <clipPath id="p1f8a1b087b">
   <rect height="266.112" width="357.12" x="57.6" y="41.472"/>
  </clipPath>
 </defs>
</svg>
