<?xml version="1.0" encoding="utf-8" standalone="no"?>
<!DOCTYPE svg PUBLIC "-//W3C//DTD SVG 1.1//EN"
  "http://www.w3.org/Graphics/SVG/1.1/DTD/svg11.dtd">
<!-- Created with matplotlib (https://matplotlib.org/) -->
<svg height="345.6pt" version="1.1" viewBox="0 0 460.8 345.6" width="460.8pt" xmlns="http://www.w3.org/2000/svg" xmlns:xlink="http://www.w3.org/1999/xlink">
 <metadata>
  <rdf:RDF xmlns:cc="http://creativecommons.org/ns#" xmlns:dc="http://purl.org/dc/elements/1.1/" xmlns:rdf="http://www.w3.org/1999/02/22-rdf-syntax-ns#">
   <cc:Work>
    <dc:type rdf:resource="http://purl.org/dc/dcmitype/StillImage"/>
    <dc:date>2021-06-28T10:19:46.311254</dc:date>
    <dc:format>image/svg+xml</dc:format>
    <dc:creator>
     <cc:Agent>
      <dc:title>Matplotlib v3.3.3, https://matplotlib.org/</dc:title>
     </cc:Agent>
    </dc:creator>
   </cc:Work>
  </rdf:RDF>
 </metadata>
 <defs>
  <style type="text/css">*{stroke-linecap:butt;stroke-linejoin:round;}</style>
 </defs>
 <g id="figure_1">
  <g id="patch_1">
   <path d="M 0 345.6 
L 460.8 345.6 
L 460.8 0 
L 0 0 
z
" style="fill:#ffffff;"/>
  </g>
  <g id="axes_1">
   <g id="patch_2">
    <path d="M 57.6 307.584 
L 414.72 307.584 
L 414.72 41.472 
L 57.6 41.472 
z
" style="fill:#7d9051;"/>
   </g>
   <g id="matplotlib.axis_1">
    <g id="xtick_1">
     <g id="line2d_1">
      <defs>
       <path d="M 0 0 
L 0 3.5 
" id="md825d49d3f" style="stroke:#000000;stroke-width:0.8;"/>
      </defs>
      <g>
       <use style="stroke:#000000;stroke-width:0.8;" x="89.946692" xlink:href="#md825d49d3f" y="307.584"/>
      </g>
     </g>
     <g id="text_1">
      <!-- −80 -->
      <g transform="translate(79.394349 322.182437)scale(0.1 -0.1)">
       <defs>
        <path d="M 10.59375 35.5 
L 73.1875 35.5 
L 73.1875 27.203125 
L 10.59375 27.203125 
z
" id="DejaVuSans-8722"/>
        <path d="M 31.78125 34.625 
Q 24.75 34.625 20.71875 30.859375 
Q 16.703125 27.09375 16.703125 20.515625 
Q 16.703125 13.921875 20.71875 10.15625 
Q 24.75 6.390625 31.78125 6.390625 
Q 38.8125 6.390625 42.859375 10.171875 
Q 46.921875 13.96875 46.921875 20.515625 
Q 46.921875 27.09375 42.890625 30.859375 
Q 38.875 34.625 31.78125 34.625 
z
M 21.921875 38.8125 
Q 15.578125 40.375 12.03125 44.71875 
Q 8.5 49.078125 8.5 55.328125 
Q 8.5 64.0625 14.71875 69.140625 
Q 20.953125 74.21875 31.78125 74.21875 
Q 42.671875 74.21875 48.875 69.140625 
Q 55.078125 64.0625 55.078125 55.328125 
Q 55.078125 49.078125 51.53125 44.71875 
Q 48 40.375 41.703125 38.8125 
Q 48.828125 37.15625 52.796875 32.3125 
Q 56.78125 27.484375 56.78125 20.515625 
Q 56.78125 9.90625 50.3125 4.234375 
Q 43.84375 -1.421875 31.78125 -1.421875 
Q 19.734375 -1.421875 13.25 4.234375 
Q 6.78125 9.90625 6.78125 20.515625 
Q 6.78125 27.484375 10.78125 32.3125 
Q 14.796875 37.15625 21.921875 38.8125 
z
M 18.3125 54.390625 
Q 18.3125 48.734375 21.84375 45.5625 
Q 25.390625 42.390625 31.78125 42.390625 
Q 38.140625 42.390625 41.71875 45.5625 
Q 45.3125 48.734375 45.3125 54.390625 
Q 45.3125 60.0625 41.71875 63.234375 
Q 38.140625 66.40625 31.78125 66.40625 
Q 25.390625 66.40625 21.84375 63.234375 
Q 18.3125 60.0625 18.3125 54.390625 
z
" id="DejaVuSans-56"/>
        <path d="M 31.78125 66.40625 
Q 24.171875 66.40625 20.328125 58.90625 
Q 16.5 51.421875 16.5 36.375 
Q 16.5 21.390625 20.328125 13.890625 
Q 24.171875 6.390625 31.78125 6.390625 
Q 39.453125 6.390625 43.28125 13.890625 
Q 47.125 21.390625 47.125 36.375 
Q 47.125 51.421875 43.28125 58.90625 
Q 39.453125 66.40625 31.78125 66.40625 
z
M 31.78125 74.21875 
Q 44.046875 74.21875 50.515625 64.515625 
Q 56.984375 54.828125 56.984375 36.375 
Q 56.984375 17.96875 50.515625 8.265625 
Q 44.046875 -1.421875 31.78125 -1.421875 
Q 19.53125 -1.421875 13.0625 8.265625 
Q 6.59375 17.96875 6.59375 36.375 
Q 6.59375 54.828125 13.0625 64.515625 
Q 19.53125 74.21875 31.78125 74.21875 
z
" id="DejaVuSans-48"/>
       </defs>
       <use xlink:href="#DejaVuSans-8722"/>
       <use x="83.789062" xlink:href="#DejaVuSans-56"/>
       <use x="147.412109" xlink:href="#DejaVuSans-48"/>
      </g>
     </g>
    </g>
    <g id="xtick_2">
     <g id="line2d_2">
      <g>
       <use style="stroke:#000000;stroke-width:0.8;" x="138.443659" xlink:href="#md825d49d3f" y="307.584"/>
      </g>
     </g>
     <g id="text_2">
      <!-- −60 -->
      <g transform="translate(127.891315 322.182437)scale(0.1 -0.1)">
       <defs>
        <path d="M 33.015625 40.375 
Q 26.375 40.375 22.484375 35.828125 
Q 18.609375 31.296875 18.609375 23.390625 
Q 18.609375 15.53125 22.484375 10.953125 
Q 26.375 6.390625 33.015625 6.390625 
Q 39.65625 6.390625 43.53125 10.953125 
Q 47.40625 15.53125 47.40625 23.390625 
Q 47.40625 31.296875 43.53125 35.828125 
Q 39.65625 40.375 33.015625 40.375 
z
M 52.59375 71.296875 
L 52.59375 62.3125 
Q 48.875 64.0625 45.09375 64.984375 
Q 41.3125 65.921875 37.59375 65.921875 
Q 27.828125 65.921875 22.671875 59.328125 
Q 17.53125 52.734375 16.796875 39.40625 
Q 19.671875 43.65625 24.015625 45.921875 
Q 28.375 48.1875 33.59375 48.1875 
Q 44.578125 48.1875 50.953125 41.515625 
Q 57.328125 34.859375 57.328125 23.390625 
Q 57.328125 12.15625 50.6875 5.359375 
Q 44.046875 -1.421875 33.015625 -1.421875 
Q 20.359375 -1.421875 13.671875 8.265625 
Q 6.984375 17.96875 6.984375 36.375 
Q 6.984375 53.65625 15.1875 63.9375 
Q 23.390625 74.21875 37.203125 74.21875 
Q 40.921875 74.21875 44.703125 73.484375 
Q 48.484375 72.75 52.59375 71.296875 
z
" id="DejaVuSans-54"/>
       </defs>
       <use xlink:href="#DejaVuSans-8722"/>
       <use x="83.789062" xlink:href="#DejaVuSans-54"/>
       <use x="147.412109" xlink:href="#DejaVuSans-48"/>
      </g>
     </g>
    </g>
    <g id="xtick_3">
     <g id="line2d_3">
      <g>
       <use style="stroke:#000000;stroke-width:0.8;" x="186.940626" xlink:href="#md825d49d3f" y="307.584"/>
      </g>
     </g>
     <g id="text_3">
      <!-- −40 -->
      <g transform="translate(176.388282 322.182437)scale(0.1 -0.1)">
       <defs>
        <path d="M 37.796875 64.3125 
L 12.890625 25.390625 
L 37.796875 25.390625 
z
M 35.203125 72.90625 
L 47.609375 72.90625 
L 47.609375 25.390625 
L 58.015625 25.390625 
L 58.015625 17.1875 
L 47.609375 17.1875 
L 47.609375 0 
L 37.796875 0 
L 37.796875 17.1875 
L 4.890625 17.1875 
L 4.890625 26.703125 
z
" id="DejaVuSans-52"/>
       </defs>
       <use xlink:href="#DejaVuSans-8722"/>
       <use x="83.789062" xlink:href="#DejaVuSans-52"/>
       <use x="147.412109" xlink:href="#DejaVuSans-48"/>
      </g>
     </g>
    </g>
    <g id="xtick_4">
     <g id="line2d_4">
      <g>
       <use style="stroke:#000000;stroke-width:0.8;" x="235.437592" xlink:href="#md825d49d3f" y="307.584"/>
      </g>
     </g>
     <g id="text_4">
      <!-- −20 -->
      <g transform="translate(224.885249 322.182437)scale(0.1 -0.1)">
       <defs>
        <path d="M 19.1875 8.296875 
L 53.609375 8.296875 
L 53.609375 0 
L 7.328125 0 
L 7.328125 8.296875 
Q 12.9375 14.109375 22.625 23.890625 
Q 32.328125 33.6875 34.8125 36.53125 
Q 39.546875 41.84375 41.421875 45.53125 
Q 43.3125 49.21875 43.3125 52.78125 
Q 43.3125 58.59375 39.234375 62.25 
Q 35.15625 65.921875 28.609375 65.921875 
Q 23.96875 65.921875 18.8125 64.3125 
Q 13.671875 62.703125 7.8125 59.421875 
L 7.8125 69.390625 
Q 13.765625 71.78125 18.9375 73 
Q 24.125 74.21875 28.421875 74.21875 
Q 39.75 74.21875 46.484375 68.546875 
Q 53.21875 62.890625 53.21875 53.421875 
Q 53.21875 48.921875 51.53125 44.890625 
Q 49.859375 40.875 45.40625 35.40625 
Q 44.1875 33.984375 37.640625 27.21875 
Q 31.109375 20.453125 19.1875 8.296875 
z
" id="DejaVuSans-50"/>
       </defs>
       <use xlink:href="#DejaVuSans-8722"/>
       <use x="83.789062" xlink:href="#DejaVuSans-50"/>
       <use x="147.412109" xlink:href="#DejaVuSans-48"/>
      </g>
     </g>
    </g>
    <g id="xtick_5">
     <g id="line2d_5">
      <g>
       <use style="stroke:#000000;stroke-width:0.8;" x="283.934559" xlink:href="#md825d49d3f" y="307.584"/>
      </g>
     </g>
     <g id="text_5">
      <!-- 0 -->
      <g transform="translate(280.753309 322.182437)scale(0.1 -0.1)">
       <use xlink:href="#DejaVuSans-48"/>
      </g>
     </g>
    </g>
    <g id="xtick_6">
     <g id="line2d_6">
      <g>
       <use style="stroke:#000000;stroke-width:0.8;" x="332.431526" xlink:href="#md825d49d3f" y="307.584"/>
      </g>
     </g>
     <g id="text_6">
      <!-- 20 -->
      <g transform="translate(326.069026 322.182437)scale(0.1 -0.1)">
       <use xlink:href="#DejaVuSans-50"/>
       <use x="63.623047" xlink:href="#DejaVuSans-48"/>
      </g>
     </g>
    </g>
    <g id="xtick_7">
     <g id="line2d_7">
      <g>
       <use style="stroke:#000000;stroke-width:0.8;" x="380.928492" xlink:href="#md825d49d3f" y="307.584"/>
      </g>
     </g>
     <g id="text_7">
      <!-- 40 -->
      <g transform="translate(374.565992 322.182437)scale(0.1 -0.1)">
       <use xlink:href="#DejaVuSans-52"/>
       <use x="63.623047" xlink:href="#DejaVuSans-48"/>
      </g>
     </g>
    </g>
   </g>
   <g id="matplotlib.axis_2">
    <g id="ytick_1">
     <g id="line2d_8">
      <defs>
       <path d="M 0 0 
L -3.5 0 
" id="mc7e481eba5" style="stroke:#000000;stroke-width:0.8;"/>
      </defs>
      <g>
       <use style="stroke:#000000;stroke-width:0.8;" x="57.6" xlink:href="#mc7e481eba5" y="295.394683"/>
      </g>
     </g>
     <g id="text_8">
      <!-- 0 -->
      <g transform="translate(44.2375 299.193901)scale(0.1 -0.1)">
       <use xlink:href="#DejaVuSans-48"/>
      </g>
     </g>
    </g>
    <g id="ytick_2">
     <g id="line2d_9">
      <g>
       <use style="stroke:#000000;stroke-width:0.8;" x="57.6" xlink:href="#mc7e481eba5" y="246.897716"/>
      </g>
     </g>
     <g id="text_9">
      <!-- 20 -->
      <g transform="translate(37.875 250.696935)scale(0.1 -0.1)">
       <use xlink:href="#DejaVuSans-50"/>
       <use x="63.623047" xlink:href="#DejaVuSans-48"/>
      </g>
     </g>
    </g>
    <g id="ytick_3">
     <g id="line2d_10">
      <g>
       <use style="stroke:#000000;stroke-width:0.8;" x="57.6" xlink:href="#mc7e481eba5" y="198.400749"/>
      </g>
     </g>
     <g id="text_10">
      <!-- 40 -->
      <g transform="translate(37.875 202.199968)scale(0.1 -0.1)">
       <use xlink:href="#DejaVuSans-52"/>
       <use x="63.623047" xlink:href="#DejaVuSans-48"/>
      </g>
     </g>
    </g>
    <g id="ytick_4">
     <g id="line2d_11">
      <g>
       <use style="stroke:#000000;stroke-width:0.8;" x="57.6" xlink:href="#mc7e481eba5" y="149.903783"/>
      </g>
     </g>
     <g id="text_11">
      <!-- 60 -->
      <g transform="translate(37.875 153.703002)scale(0.1 -0.1)">
       <use xlink:href="#DejaVuSans-54"/>
       <use x="63.623047" xlink:href="#DejaVuSans-48"/>
      </g>
     </g>
    </g>
    <g id="ytick_5">
     <g id="line2d_12">
      <g>
       <use style="stroke:#000000;stroke-width:0.8;" x="57.6" xlink:href="#mc7e481eba5" y="101.406816"/>
      </g>
     </g>
     <g id="text_12">
      <!-- 80 -->
      <g transform="translate(37.875 105.206035)scale(0.1 -0.1)">
       <use xlink:href="#DejaVuSans-56"/>
       <use x="63.623047" xlink:href="#DejaVuSans-48"/>
      </g>
     </g>
    </g>
    <g id="ytick_6">
     <g id="line2d_13">
      <g>
       <use style="stroke:#000000;stroke-width:0.8;" x="57.6" xlink:href="#mc7e481eba5" y="52.909849"/>
      </g>
     </g>
     <g id="text_13">
      <!-- 100 -->
      <g transform="translate(31.5125 56.709068)scale(0.1 -0.1)">
       <defs>
        <path d="M 12.40625 8.296875 
L 28.515625 8.296875 
L 28.515625 63.921875 
L 10.984375 60.40625 
L 10.984375 69.390625 
L 28.421875 72.90625 
L 38.28125 72.90625 
L 38.28125 8.296875 
L 54.390625 8.296875 
L 54.390625 0 
L 12.40625 0 
z
" id="DejaVuSans-49"/>
       </defs>
       <use xlink:href="#DejaVuSans-49"/>
       <use x="63.623047" xlink:href="#DejaVuSans-48"/>
       <use x="127.246094" xlink:href="#DejaVuSans-48"/>
      </g>
     </g>
    </g>
   </g>
   <g id="line2d_14">
    <path clip-path="url(#pf69bf9faae)" d="M 283.934559 295.394683 
L 284.246602 273.063276 
L 284.994361 231.570291 
L 284.728655 225.033894 
L 283.92609 215.061954 
L 283.069657 205.067702 
L 282.708187 198.491638 
L 282.681892 192.054409 
L 282.839326 188.906451 
L 283.13442 185.815515 
L 283.585132 182.789037 
L 284.209418 179.834455 
L 285.025232 176.959208 
L 286.050531 174.170732 
L 287.371784 171.493948 
L 289.034966 168.939423 
L 290.997286 166.493066 
L 293.215956 164.140785 
L 295.648187 161.86849 
L 298.251191 159.662087 
L 303.798359 155.390596 
L 315.05925 147.018303 
L 317.65957 144.87859 
L 320.088351 142.692038 
L 322.302804 140.444554 
L 324.260141 138.122049 
L 325.917571 135.71043 
L 327.232308 133.195605 
L 328.161561 130.563484 
L 328.790924 127.752579 
L 329.237682 124.731769 
L 329.506586 121.532508 
L 329.602383 118.186254 
L 329.529823 114.724461 
L 329.293655 111.178586 
L 328.898628 107.580083 
L 328.349491 103.960408 
L 327.650994 100.351018 
L 326.807884 96.783368 
L 325.824912 93.288913 
L 324.706826 89.899109 
L 323.458375 86.645411 
L 322.084309 83.559276 
L 320.589377 80.672159 
L 318.978327 78.015516 
L 317.255908 75.620802 
L 315.426871 73.519473 
L 313.495963 71.742985 
L 311.33025 70.212064 
L 308.820709 68.827774 
L 306.007959 67.592074 
L 302.932617 66.506922 
L 299.635301 65.574276 
L 296.15663 64.796096 
L 292.53722 64.17434 
L 288.817691 63.710967 
L 285.03866 63.407936 
L 281.240744 63.267205 
L 277.464563 63.290733 
L 273.750733 63.48048 
L 270.139873 63.838402 
L 266.672601 64.36646 
L 263.389534 65.066612 
L 260.331291 65.940817 
L 257.53849 66.991033 
L 255.051748 68.21922 
L 252.911683 69.627335 
L 251.100846 71.296504 
L 249.557524 73.287502 
L 248.255943 75.571764 
L 247.170326 78.120726 
L 246.2749 80.905821 
L 245.543888 83.898485 
L 244.951517 87.070154 
L 244.079595 93.836243 
L 243.167136 104.613782 
L 242.521738 111.884486 
L 241.6061 118.957125 
L 240.982503 122.347758 
L 240.214021 125.60318 
L 239.274879 128.694826 
L 237.058745 134.641954 
L 234.581951 140.496741 
L 231.903522 146.280705 
L 227.636926 154.870931 
L 218.937944 172.009081 
L 216.205584 177.788166 
L 213.655249 183.636299 
L 212.495659 186.632913 
L 210.484411 192.887443 
L 208.764929 199.381714 
L 203.931309 218.999075 
L 201.953125 225.14841 
L 200.815025 228.076649 
L 199.553825 230.885537 
L 198.151702 233.558775 
L 196.590834 236.080064 
L 194.853399 238.433105 
L 192.921575 240.601601 
L 190.789892 242.57734 
L 188.475217 244.373254 
L 185.993236 246.004756 
L 183.359633 247.48726 
L 180.590094 248.83618 
L 177.700303 250.066929 
L 174.705946 251.19492 
L 168.466272 253.204286 
L 161.996551 254.987586 
L 145.639258 259.26601 
L 139.352528 261.229135 
L 136.326801 262.326299 
L 136.326801 262.326299 
" style="fill:none;stroke:#fea952;stroke-linecap:square;"/>
   </g>
   <g id="line2d_15">
    <path clip-path="url(#pf69bf9faae)" d="M 274.235614 295.301365 
L 274.548854 272.884622 
L 275.299012 231.850377 
L 275.052933 225.711115 
L 274.266504 215.939812 
L 273.390509 205.694049 
L 273.010687 198.683279 
L 272.945447 195.137516 
L 272.994606 191.569936 
L 273.183836 187.984632 
L 273.540827 184.386808 
L 274.095264 180.783885 
L 274.878361 177.186889 
L 275.92172 173.611924 
L 277.352969 169.877639 
L 279.243377 166.201763 
L 281.468916 162.870393 
L 283.941317 159.837878 
L 286.594437 157.053211 
L 289.376546 154.46952 
L 292.243493 152.047246 
L 298.067876 147.565009 
L 308.89624 139.528608 
L 313.179263 135.884488 
L 314.886057 134.193947 
L 316.266572 132.628318 
L 317.321959 131.216692 
L 318.086167 129.966621 
L 318.696514 128.444255 
L 319.195896 126.333535 
L 319.57237 123.919382 
L 319.811165 121.254946 
L 319.90512 118.389511 
L 319.851872 115.369047 
L 319.652181 112.236982 
L 319.308963 109.03492 
L 318.826776 105.803267 
L 318.211603 102.581741 
L 317.470863 99.409824 
L 316.613646 96.327137 
L 315.651172 93.373782 
L 314.597571 90.590582 
L 313.471081 88.019156 
L 312.29581 85.70157 
L 311.104168 83.679071 
L 309.939788 81.988896 
L 308.859727 80.657459 
L 307.897161 79.663316 
L 306.64543 78.705044 
L 304.919441 77.707996 
L 302.7805 76.738753 
L 300.292714 75.840149 
L 297.517877 75.039726 
L 294.514485 74.355468 
L 291.338154 73.799332 
L 288.042409 73.379326 
L 284.679497 73.100677 
L 281.301177 72.96641 
L 277.959476 72.977492 
L 274.707486 73.13257 
L 271.60023 73.427228 
L 268.695616 73.852536 
L 266.05535 74.392472 
L 263.745284 75.019522 
L 261.833656 75.687572 
L 259.485541 76.759139 
L 258.766836 77.238795 
L 257.984847 78.089424 
L 257.179683 79.372434 
L 256.404216 81.089482 
L 255.697265 83.207401 
L 255.078411 85.679245 
L 254.551426 88.455785 
L 253.736774 94.740185 
L 252.833465 105.413973 
L 252.157628 112.992573 
L 251.710614 116.844661 
L 251.145497 120.711588 
L 250.42244 124.576171 
L 249.494676 128.422344 
L 248.404153 131.971192 
L 246.027662 138.334753 
L 243.412241 144.509746 
L 240.626605 150.5217 
L 236.271469 159.289402 
L 227.680086 176.21065 
L 225.061702 181.743845 
L 222.700989 187.136701 
L 221.67815 189.757027 
L 219.836367 195.460213 
L 218.19404 201.655497 
L 214.160076 218.379409 
L 212.167051 225.245303 
L 210.993693 228.662149 
L 209.663408 232.049603 
L 208.143401 235.390802 
L 206.398655 238.664261 
L 204.393659 241.841501 
L 202.095726 244.884999 
L 199.514938 247.715376 
L 196.735686 250.240614 
L 193.803017 252.478361 
L 190.75116 254.456997 
L 187.606798 256.207342 
L 184.390688 257.759952 
L 181.119557 259.143653 
L 177.807751 260.384971 
L 171.114605 262.535125 
L 164.416092 264.380351 
L 148.412834 268.56039 
L 142.658976 270.347557 
L 139.633249 271.444722 
L 139.633249 271.444722 
" style="fill:none;stroke:#ffffff;stroke-linecap:square;"/>
   </g>
   <g id="line2d_16">
    <path clip-path="url(#pf69bf9faae)" d="M 293.633503 295.488 
L 293.94435 273.241931 
L 294.689709 231.290204 
L 294.404377 224.356673 
L 293.585676 214.184096 
L 292.748806 204.441354 
L 292.405687 198.299998 
L 292.369179 192.538882 
L 292.494815 189.82827 
L 292.728014 187.244221 
L 293.075001 184.794189 
L 293.540475 182.482022 
L 294.128743 180.306492 
L 294.748093 178.463825 
L 295.500192 176.786132 
L 296.601016 175.008453 
L 298.053255 173.148254 
L 299.837475 171.22836 
L 301.919829 169.267459 
L 304.258888 167.276928 
L 309.528842 163.216182 
L 318.257571 156.802786 
L 321.222261 154.507998 
L 324.149187 152.087134 
L 326.997439 149.499587 
L 329.719551 146.695162 
L 332.25371 143.61578 
L 334.513184 140.204168 
L 336.378449 136.424589 
L 337.626607 132.682713 
L 338.385951 129.171623 
L 338.902995 125.544155 
L 339.202007 121.810071 
L 339.299646 117.982998 
L 339.207774 114.079875 
L 338.93513 110.120189 
L 338.488294 106.125245 
L 337.872207 102.11755 
L 337.090385 98.120295 
L 336.144905 94.156912 
L 335.036178 90.250688 
L 333.76248 86.424435 
L 332.31918 82.70024 
L 330.697538 79.099396 
L 328.882944 75.642748 
L 326.852485 72.351961 
L 324.572029 69.252709 
L 321.994015 66.381487 
L 319.094765 63.822653 
L 316.015069 61.719085 
L 312.721978 59.947553 
L 309.235418 58.445395 
L 305.57252 57.173694 
L 301.752726 56.108826 
L 297.798775 55.236724 
L 293.736286 54.549348 
L 289.592973 54.042608 
L 285.397822 53.715195 
L 281.180311 53.568 
L 276.969649 53.603975 
L 272.793979 53.828389 
L 268.679516 54.249576 
L 264.649585 54.880384 
L 260.723719 55.740753 
L 256.917299 56.862112 
L 253.243324 58.294495 
L 249.720331 60.116491 
L 246.337826 62.495531 
L 243.434856 65.354213 
L 241.130201 68.48558 
L 239.332202 71.771094 
L 237.936436 75.151969 
L 236.852535 78.604241 
L 236.009365 82.117726 
L 235.351608 85.684523 
L 234.422415 92.932302 
L 233.500806 103.813591 
L 232.885848 110.776399 
L 232.066703 117.202663 
L 231.542566 120.119346 
L 230.933367 122.784016 
L 230.145604 125.418459 
L 228.089829 130.949154 
L 225.751662 136.483736 
L 223.180438 142.039709 
L 219.002383 150.452459 
L 210.195802 167.807511 
L 207.349466 173.832486 
L 204.609509 180.135897 
L 203.313167 183.5088 
L 202.16294 186.906384 
L 200.197514 193.719893 
L 197.751041 203.772471 
L 195.453999 213.241742 
L 193.80484 218.988936 
L 191.966643 224.103695 
L 190.964249 226.380272 
L 189.904748 228.453288 
L 188.788009 230.318627 
L 187.611072 231.981212 
L 186.328211 233.487826 
L 184.844097 234.914066 
L 183.147416 236.268146 
L 181.235311 237.552515 
L 179.112468 238.767179 
L 176.789499 239.912407 
L 174.281049 240.990204 
L 168.776944 242.963035 
L 162.745383 244.74667 
L 153.020111 247.2709 
L 142.865681 249.971629 
L 136.046081 252.110712 
L 133.020354 253.207876 
L 133.020354 253.207876 
" style="fill:none;stroke:#ffffff;stroke-linecap:square;"/>
   </g>
   <g id="patch_3">
    <path d="M 57.6 307.584 
L 57.6 41.472 
" style="fill:none;stroke:#000000;stroke-linecap:square;stroke-linejoin:miter;stroke-width:0.8;"/>
   </g>
   <g id="patch_4">
    <path d="M 414.72 307.584 
L 414.72 41.472 
" style="fill:none;stroke:#000000;stroke-linecap:square;stroke-linejoin:miter;stroke-width:0.8;"/>
   </g>
   <g id="patch_5">
    <path d="M 57.6 307.584 
L 414.72 307.584 
" style="fill:none;stroke:#000000;stroke-linecap:square;stroke-linejoin:miter;stroke-width:0.8;"/>
   </g>
   <g id="patch_6">
    <path d="M 57.6 41.472 
L 414.72 41.472 
" style="fill:none;stroke:#000000;stroke-linecap:square;stroke-linejoin:miter;stroke-width:0.8;"/>
   </g>
  </g>
 </g>
 <defs>
  <clipPath id="pf69bf9faae">
   <rect height="266.112" width="357.12" x="57.6" y="41.472"/>
  </clipPath>
 </defs>
</svg>
