<?xml version="1.0" encoding="utf-8" standalone="no"?>
<!DOCTYPE svg PUBLIC "-//W3C//DTD SVG 1.1//EN"
  "http://www.w3.org/Graphics/SVG/1.1/DTD/svg11.dtd">
<!-- Created with matplotlib (https://matplotlib.org/) -->
<svg height="345.6pt" version="1.1" viewBox="0 0 460.8 345.6" width="460.8pt" xmlns="http://www.w3.org/2000/svg" xmlns:xlink="http://www.w3.org/1999/xlink">
 <metadata>
  <rdf:RDF xmlns:cc="http://creativecommons.org/ns#" xmlns:dc="http://purl.org/dc/elements/1.1/" xmlns:rdf="http://www.w3.org/1999/02/22-rdf-syntax-ns#">
   <cc:Work>
    <dc:type rdf:resource="http://purl.org/dc/dcmitype/StillImage"/>
    <dc:date>2021-07-05T04:28:04.196756</dc:date>
    <dc:format>image/svg+xml</dc:format>
    <dc:creator>
     <cc:Agent>
      <dc:title>Matplotlib v3.3.3, https://matplotlib.org/</dc:title>
     </cc:Agent>
    </dc:creator>
   </cc:Work>
  </rdf:RDF>
 </metadata>
 <defs>
  <style type="text/css">*{stroke-linecap:butt;stroke-linejoin:round;}</style>
 </defs>
 <g id="figure_1">
  <g id="patch_1">
   <path d="M 0 345.6 
L 460.8 345.6 
L 460.8 0 
L 0 0 
z
" style="fill:#ffffff;"/>
  </g>
  <g id="axes_1">
   <g id="patch_2">
    <path d="M 57.6 307.584 
L 414.72 307.584 
L 414.72 41.472 
L 57.6 41.472 
z
" style="fill:#7d9051;"/>
   </g>
   <g id="matplotlib.axis_1">
    <g id="xtick_1">
     <g id="line2d_1">
      <defs>
       <path d="M 0 0 
L 0 3.5 
" id="mfec8adf37f" style="stroke:#000000;stroke-width:0.8;"/>
      </defs>
      <g>
       <use style="stroke:#000000;stroke-width:0.8;" x="80.695028" xlink:href="#mfec8adf37f" y="307.584"/>
      </g>
     </g>
     <g id="text_1">
      <!-- −100 -->
      <g transform="translate(66.961434 322.182437)scale(0.1 -0.1)">
       <defs>
        <path d="M 10.59375 35.5 
L 73.1875 35.5 
L 73.1875 27.203125 
L 10.59375 27.203125 
z
" id="DejaVuSans-8722"/>
        <path d="M 12.40625 8.296875 
L 28.515625 8.296875 
L 28.515625 63.921875 
L 10.984375 60.40625 
L 10.984375 69.390625 
L 28.421875 72.90625 
L 38.28125 72.90625 
L 38.28125 8.296875 
L 54.390625 8.296875 
L 54.390625 0 
L 12.40625 0 
z
" id="DejaVuSans-49"/>
        <path d="M 31.78125 66.40625 
Q 24.171875 66.40625 20.328125 58.90625 
Q 16.5 51.421875 16.5 36.375 
Q 16.5 21.390625 20.328125 13.890625 
Q 24.171875 6.390625 31.78125 6.390625 
Q 39.453125 6.390625 43.28125 13.890625 
Q 47.125 21.390625 47.125 36.375 
Q 47.125 51.421875 43.28125 58.90625 
Q 39.453125 66.40625 31.78125 66.40625 
z
M 31.78125 74.21875 
Q 44.046875 74.21875 50.515625 64.515625 
Q 56.984375 54.828125 56.984375 36.375 
Q 56.984375 17.96875 50.515625 8.265625 
Q 44.046875 -1.421875 31.78125 -1.421875 
Q 19.53125 -1.421875 13.0625 8.265625 
Q 6.59375 17.96875 6.59375 36.375 
Q 6.59375 54.828125 13.0625 64.515625 
Q 19.53125 74.21875 31.78125 74.21875 
z
" id="DejaVuSans-48"/>
       </defs>
       <use xlink:href="#DejaVuSans-8722"/>
       <use x="83.789062" xlink:href="#DejaVuSans-49"/>
       <use x="147.412109" xlink:href="#DejaVuSans-48"/>
       <use x="211.035156" xlink:href="#DejaVuSans-48"/>
      </g>
     </g>
    </g>
    <g id="xtick_2">
     <g id="line2d_2">
      <g>
       <use style="stroke:#000000;stroke-width:0.8;" x="143.656136" xlink:href="#mfec8adf37f" y="307.584"/>
      </g>
     </g>
     <g id="text_2">
      <!-- −50 -->
      <g transform="translate(133.103792 322.182437)scale(0.1 -0.1)">
       <defs>
        <path d="M 10.796875 72.90625 
L 49.515625 72.90625 
L 49.515625 64.59375 
L 19.828125 64.59375 
L 19.828125 46.734375 
Q 21.96875 47.46875 24.109375 47.828125 
Q 26.265625 48.1875 28.421875 48.1875 
Q 40.625 48.1875 47.75 41.5 
Q 54.890625 34.8125 54.890625 23.390625 
Q 54.890625 11.625 47.5625 5.09375 
Q 40.234375 -1.421875 26.90625 -1.421875 
Q 22.3125 -1.421875 17.546875 -0.640625 
Q 12.796875 0.140625 7.71875 1.703125 
L 7.71875 11.625 
Q 12.109375 9.234375 16.796875 8.0625 
Q 21.484375 6.890625 26.703125 6.890625 
Q 35.15625 6.890625 40.078125 11.328125 
Q 45.015625 15.765625 45.015625 23.390625 
Q 45.015625 31 40.078125 35.4375 
Q 35.15625 39.890625 26.703125 39.890625 
Q 22.75 39.890625 18.8125 39.015625 
Q 14.890625 38.140625 10.796875 36.28125 
z
" id="DejaVuSans-53"/>
       </defs>
       <use xlink:href="#DejaVuSans-8722"/>
       <use x="83.789062" xlink:href="#DejaVuSans-53"/>
       <use x="147.412109" xlink:href="#DejaVuSans-48"/>
      </g>
     </g>
    </g>
    <g id="xtick_3">
     <g id="line2d_3">
      <g>
       <use style="stroke:#000000;stroke-width:0.8;" x="206.617244" xlink:href="#mfec8adf37f" y="307.584"/>
      </g>
     </g>
     <g id="text_3">
      <!-- 0 -->
      <g transform="translate(203.435994 322.182437)scale(0.1 -0.1)">
       <use xlink:href="#DejaVuSans-48"/>
      </g>
     </g>
    </g>
    <g id="xtick_4">
     <g id="line2d_4">
      <g>
       <use style="stroke:#000000;stroke-width:0.8;" x="269.578351" xlink:href="#mfec8adf37f" y="307.584"/>
      </g>
     </g>
     <g id="text_4">
      <!-- 50 -->
      <g transform="translate(263.215851 322.182437)scale(0.1 -0.1)">
       <use xlink:href="#DejaVuSans-53"/>
       <use x="63.623047" xlink:href="#DejaVuSans-48"/>
      </g>
     </g>
    </g>
    <g id="xtick_5">
     <g id="line2d_5">
      <g>
       <use style="stroke:#000000;stroke-width:0.8;" x="332.539459" xlink:href="#mfec8adf37f" y="307.584"/>
      </g>
     </g>
     <g id="text_5">
      <!-- 100 -->
      <g transform="translate(322.995709 322.182437)scale(0.1 -0.1)">
       <use xlink:href="#DejaVuSans-49"/>
       <use x="63.623047" xlink:href="#DejaVuSans-48"/>
       <use x="127.246094" xlink:href="#DejaVuSans-48"/>
      </g>
     </g>
    </g>
    <g id="xtick_6">
     <g id="line2d_6">
      <g>
       <use style="stroke:#000000;stroke-width:0.8;" x="395.500567" xlink:href="#mfec8adf37f" y="307.584"/>
      </g>
     </g>
     <g id="text_6">
      <!-- 150 -->
      <g transform="translate(385.956817 322.182437)scale(0.1 -0.1)">
       <use xlink:href="#DejaVuSans-49"/>
       <use x="63.623047" xlink:href="#DejaVuSans-53"/>
       <use x="127.246094" xlink:href="#DejaVuSans-48"/>
      </g>
     </g>
    </g>
   </g>
   <g id="matplotlib.axis_2">
    <g id="ytick_1">
     <g id="line2d_7">
      <defs>
       <path d="M 0 0 
L -3.5 0 
" id="m9b3ba73cc3" style="stroke:#000000;stroke-width:0.8;"/>
      </defs>
      <g>
       <use style="stroke:#000000;stroke-width:0.8;" x="57.6" xlink:href="#m9b3ba73cc3" y="295.43954"/>
      </g>
     </g>
     <g id="text_7">
      <!-- 0 -->
      <g transform="translate(44.2375 299.238759)scale(0.1 -0.1)">
       <use xlink:href="#DejaVuSans-48"/>
      </g>
     </g>
    </g>
    <g id="ytick_2">
     <g id="line2d_8">
      <g>
       <use style="stroke:#000000;stroke-width:0.8;" x="57.6" xlink:href="#m9b3ba73cc3" y="263.958987"/>
      </g>
     </g>
     <g id="text_8">
      <!-- 25 -->
      <g transform="translate(37.875 267.758205)scale(0.1 -0.1)">
       <defs>
        <path d="M 19.1875 8.296875 
L 53.609375 8.296875 
L 53.609375 0 
L 7.328125 0 
L 7.328125 8.296875 
Q 12.9375 14.109375 22.625 23.890625 
Q 32.328125 33.6875 34.8125 36.53125 
Q 39.546875 41.84375 41.421875 45.53125 
Q 43.3125 49.21875 43.3125 52.78125 
Q 43.3125 58.59375 39.234375 62.25 
Q 35.15625 65.921875 28.609375 65.921875 
Q 23.96875 65.921875 18.8125 64.3125 
Q 13.671875 62.703125 7.8125 59.421875 
L 7.8125 69.390625 
Q 13.765625 71.78125 18.9375 73 
Q 24.125 74.21875 28.421875 74.21875 
Q 39.75 74.21875 46.484375 68.546875 
Q 53.21875 62.890625 53.21875 53.421875 
Q 53.21875 48.921875 51.53125 44.890625 
Q 49.859375 40.875 45.40625 35.40625 
Q 44.1875 33.984375 37.640625 27.21875 
Q 31.109375 20.453125 19.1875 8.296875 
z
" id="DejaVuSans-50"/>
       </defs>
       <use xlink:href="#DejaVuSans-50"/>
       <use x="63.623047" xlink:href="#DejaVuSans-53"/>
      </g>
     </g>
    </g>
    <g id="ytick_3">
     <g id="line2d_9">
      <g>
       <use style="stroke:#000000;stroke-width:0.8;" x="57.6" xlink:href="#m9b3ba73cc3" y="232.478433"/>
      </g>
     </g>
     <g id="text_9">
      <!-- 50 -->
      <g transform="translate(37.875 236.277651)scale(0.1 -0.1)">
       <use xlink:href="#DejaVuSans-53"/>
       <use x="63.623047" xlink:href="#DejaVuSans-48"/>
      </g>
     </g>
    </g>
    <g id="ytick_4">
     <g id="line2d_10">
      <g>
       <use style="stroke:#000000;stroke-width:0.8;" x="57.6" xlink:href="#m9b3ba73cc3" y="200.997879"/>
      </g>
     </g>
     <g id="text_10">
      <!-- 75 -->
      <g transform="translate(37.875 204.797098)scale(0.1 -0.1)">
       <defs>
        <path d="M 8.203125 72.90625 
L 55.078125 72.90625 
L 55.078125 68.703125 
L 28.609375 0 
L 18.3125 0 
L 43.21875 64.59375 
L 8.203125 64.59375 
z
" id="DejaVuSans-55"/>
       </defs>
       <use xlink:href="#DejaVuSans-55"/>
       <use x="63.623047" xlink:href="#DejaVuSans-53"/>
      </g>
     </g>
    </g>
    <g id="ytick_5">
     <g id="line2d_11">
      <g>
       <use style="stroke:#000000;stroke-width:0.8;" x="57.6" xlink:href="#m9b3ba73cc3" y="169.517325"/>
      </g>
     </g>
     <g id="text_11">
      <!-- 100 -->
      <g transform="translate(31.5125 173.316544)scale(0.1 -0.1)">
       <use xlink:href="#DejaVuSans-49"/>
       <use x="63.623047" xlink:href="#DejaVuSans-48"/>
       <use x="127.246094" xlink:href="#DejaVuSans-48"/>
      </g>
     </g>
    </g>
    <g id="ytick_6">
     <g id="line2d_12">
      <g>
       <use style="stroke:#000000;stroke-width:0.8;" x="57.6" xlink:href="#m9b3ba73cc3" y="138.036771"/>
      </g>
     </g>
     <g id="text_12">
      <!-- 125 -->
      <g transform="translate(31.5125 141.83599)scale(0.1 -0.1)">
       <use xlink:href="#DejaVuSans-49"/>
       <use x="63.623047" xlink:href="#DejaVuSans-50"/>
       <use x="127.246094" xlink:href="#DejaVuSans-53"/>
      </g>
     </g>
    </g>
    <g id="ytick_7">
     <g id="line2d_13">
      <g>
       <use style="stroke:#000000;stroke-width:0.8;" x="57.6" xlink:href="#m9b3ba73cc3" y="106.556217"/>
      </g>
     </g>
     <g id="text_13">
      <!-- 150 -->
      <g transform="translate(31.5125 110.355436)scale(0.1 -0.1)">
       <use xlink:href="#DejaVuSans-49"/>
       <use x="63.623047" xlink:href="#DejaVuSans-53"/>
       <use x="127.246094" xlink:href="#DejaVuSans-48"/>
      </g>
     </g>
    </g>
    <g id="ytick_8">
     <g id="line2d_14">
      <g>
       <use style="stroke:#000000;stroke-width:0.8;" x="57.6" xlink:href="#m9b3ba73cc3" y="75.075663"/>
      </g>
     </g>
     <g id="text_14">
      <!-- 175 -->
      <g transform="translate(31.5125 78.874882)scale(0.1 -0.1)">
       <use xlink:href="#DejaVuSans-49"/>
       <use x="63.623047" xlink:href="#DejaVuSans-55"/>
       <use x="127.246094" xlink:href="#DejaVuSans-53"/>
      </g>
     </g>
    </g>
    <g id="ytick_9">
     <g id="line2d_15">
      <g>
       <use style="stroke:#000000;stroke-width:0.8;" x="57.6" xlink:href="#m9b3ba73cc3" y="43.595109"/>
      </g>
     </g>
     <g id="text_15">
      <!-- 200 -->
      <g transform="translate(31.5125 47.394328)scale(0.1 -0.1)">
       <use xlink:href="#DejaVuSans-50"/>
       <use x="63.623047" xlink:href="#DejaVuSans-48"/>
       <use x="127.246094" xlink:href="#DejaVuSans-48"/>
      </g>
     </g>
    </g>
   </g>
   <g id="line2d_16">
    <path clip-path="url(#pf96d77281e)" d="M 206.617244 295.43954 
L 206.873967 278.873068 
L 207.295619 260.634774 
L 207.8297 253.915538 
L 208.497302 245.516493 
L 208.603253 242.192587 
L 208.541837 238.905786 
L 208.262845 235.667221 
L 207.716067 232.488022 
L 207.288054 230.921216 
L 206.714631 229.366229 
L 205.210801 226.289453 
L 203.363068 223.253186 
L 196.475966 212.880169 
L 195.041986 209.970399 
L 194.513013 208.521688 
L 194.1358 207.076342 
L 193.930159 205.633796 
L 193.9159 204.193488 
L 194.097135 202.763857 
L 194.453583 201.352138 
L 194.968463 199.955955 
L 195.624996 198.572932 
L 197.295906 195.836868 
L 199.332077 193.124943 
L 202.777559 189.060748 
L 206.289808 184.943978 
L 208.444675 182.138586 
L 210.293628 179.262321 
L 211.770688 176.30042 
L 214.580224 170.184257 
L 216.54352 165.472767 
L 218.260273 160.691469 
L 219.213034 157.481507 
L 219.974062 154.265049 
L 220.510494 151.051905 
L 220.789465 147.851888 
L 220.772376 146.240563 
L 220.595922 144.600155 
L 220.281254 142.935735 
L 219.321875 139.555148 
L 218.063439 136.139379 
L 214.719357 127.71231 
L 213.74668 124.492937 
L 213.423146 122.935992 
L 213.236349 121.420973 
L 213.207439 119.952949 
L 213.357567 118.536993 
L 213.707881 117.178178 
L 214.244792 115.869728 
L 214.932661 114.60036 
L 215.75957 113.368388 
L 216.713598 112.172127 
L 218.955332 109.879992 
L 221.562506 107.710463 
L 224.439761 105.650052 
L 229.05345 102.734519 
L 239.607339 96.548915 
L 242.651448 95.124789 
L 245.86712 93.914715 
L 252.515587 91.809334 
L 257.39901 90.18345 
L 260.466133 88.923757 
L 263.295671 87.427959 
L 264.5981 86.565945 
L 265.813237 85.614211 
L 266.931783 84.562529 
L 267.953174 83.413271 
L 269.743652 80.87111 
L 271.247198 78.051862 
L 272.523178 75.012855 
L 273.630956 71.811417 
L 275.579368 65.150565 
L 277.567357 58.527931 
L 278.724606 55.374268 
L 278.724606 55.374268 
" style="fill:none;stroke:#fea952;stroke-linecap:square;"/>
   </g>
   <g id="line2d_17">
    <path clip-path="url(#pf96d77281e)" d="M 201.580588 295.391081 
L 201.838087 278.772259 
L 202.269257 260.309293 
L 202.81385 253.455652 
L 203.464951 245.302746 
L 203.562528 240.712161 
L 203.423492 237.807335 
L 203.083244 235.038392 
L 202.562249 232.663921 
L 201.555913 230.163724 
L 200.062842 227.458509 
L 198.210975 224.605019 
L 193.006733 216.907767 
L 191.118243 213.508967 
L 190.31063 211.697975 
L 189.639369 209.793633 
L 189.149324 207.787187 
L 188.893517 205.683658 
L 188.919003 203.560027 
L 189.213512 201.530783 
L 189.727799 199.609378 
L 190.418242 197.795923 
L 191.248009 196.080498 
L 193.212876 192.887443 
L 195.442539 189.924671 
L 198.977069 185.755219 
L 202.344635 181.812547 
L 204.279548 179.306278 
L 205.828642 176.931196 
L 207.214562 174.152871 
L 209.95717 168.184851 
L 211.83691 163.678869 
L 213.450264 159.196793 
L 214.329787 156.246948 
L 215.021734 153.345978 
L 215.502952 150.508973 
L 215.752859 147.905304 
L 215.764376 146.779258 
L 215.646704 145.535833 
L 215.039709 142.747686 
L 214.016861 139.653501 
L 212.011729 134.632362 
L 209.933664 129.283101 
L 208.81514 125.517713 
L 208.424112 123.552356 
L 208.200437 121.520145 
L 208.198625 119.421888 
L 208.48016 117.279556 
L 209.048048 115.266059 
L 209.816327 113.469946 
L 210.750502 111.793262 
L 211.821638 110.227856 
L 213.006747 108.761922 
L 215.649835 106.079474 
L 218.568222 103.660215 
L 221.671384 101.442162 
L 226.482064 98.403443 
L 237.364536 92.038917 
L 240.805548 90.43833 
L 244.272481 89.136914 
L 251.003014 87.004922 
L 255.57518 85.488358 
L 258.241773 84.404634 
L 260.515725 83.227704 
L 262.362988 81.944603 
L 263.93961 80.369991 
L 265.365183 78.381279 
L 266.642156 76.011314 
L 267.784953 73.304208 
L 268.81978 70.320499 
L 270.732895 63.778724 
L 272.248616 58.603671 
L 273.424317 55.125722 
L 274.02273 53.568 
L 274.02273 53.568 
" style="fill:none;stroke:#ffffff;stroke-linecap:square;"/>
   </g>
   <g id="line2d_18">
    <path clip-path="url(#pf96d77281e)" d="M 211.653899 295.488 
L 211.909846 278.973877 
L 212.32198 260.960255 
L 212.84555 254.375424 
L 213.529653 245.730239 
L 213.6401 242.172275 
L 213.567413 238.568398 
L 213.245317 234.92883 
L 212.574921 231.160702 
L 212.013858 229.178512 
L 211.303037 227.288542 
L 209.558553 223.746363 
L 207.553496 220.458449 
L 200.925439 210.519568 
L 199.773342 208.242823 
L 199.122277 206.365497 
L 198.912797 204.826948 
L 198.980758 203.996932 
L 199.179367 203.094898 
L 199.518684 202.115987 
L 200.625285 199.952293 
L 202.24956 197.575335 
L 204.278463 195.039546 
L 211.440584 186.552353 
L 213.723101 183.321484 
L 214.758614 181.593447 
L 216.326813 178.447969 
L 219.203278 172.183662 
L 221.25013 167.266665 
L 223.070283 162.186145 
L 224.096282 158.716067 
L 224.926391 155.18412 
L 225.518035 151.594837 
L 225.82607 147.798471 
L 225.780375 145.701868 
L 225.545139 143.664477 
L 225.160235 141.684419 
L 224.071363 137.878065 
L 222.73522 134.256639 
L 219.505051 126.14152 
L 218.678219 123.468161 
L 218.272261 121.3218 
L 218.234973 119.794431 
L 218.367714 119.090298 
L 218.673256 118.269509 
L 219.697501 116.508921 
L 221.277933 114.636799 
L 223.357908 112.720129 
L 225.844557 110.805857 
L 228.634532 108.918337 
L 233.164032 106.151621 
L 243.129366 100.416412 
L 245.94478 99.238622 
L 250.66442 97.650018 
L 257.482281 95.497843 
L 260.961757 94.199005 
L 264.39919 92.592299 
L 266.075618 91.628215 
L 267.703907 90.531321 
L 269.263486 89.28382 
L 270.696681 87.908541 
L 271.966737 86.456551 
L 273.104329 84.9359 
L 274.12212 83.360941 
L 275.85224 80.09241 
L 277.261403 76.721501 
L 278.442131 73.302335 
L 280.425841 66.522406 
L 282.321228 60.192551 
L 283.426483 57.180536 
L 283.426483 57.180536 
" style="fill:none;stroke:#ffffff;stroke-linecap:square;"/>
   </g>
   <g id="patch_3">
    <path d="M 57.6 307.584 
L 57.6 41.472 
" style="fill:none;stroke:#000000;stroke-linecap:square;stroke-linejoin:miter;stroke-width:0.8;"/>
   </g>
   <g id="patch_4">
    <path d="M 414.72 307.584 
L 414.72 41.472 
" style="fill:none;stroke:#000000;stroke-linecap:square;stroke-linejoin:miter;stroke-width:0.8;"/>
   </g>
   <g id="patch_5">
    <path d="M 57.6 307.584 
L 414.72 307.584 
" style="fill:none;stroke:#000000;stroke-linecap:square;stroke-linejoin:miter;stroke-width:0.8;"/>
   </g>
   <g id="patch_6">
    <path d="M 57.6 41.472 
L 414.72 41.472 
" style="fill:none;stroke:#000000;stroke-linecap:square;stroke-linejoin:miter;stroke-width:0.8;"/>
   </g>
  </g>
 </g>
 <defs>
  <clipPath id="pf96d77281e">
   <rect height="266.112" width="357.12" x="57.6" y="41.472"/>
  </clipPath>
 </defs>
</svg>
