<?xml version="1.0" encoding="utf-8" standalone="no"?>
<!DOCTYPE svg PUBLIC "-//W3C//DTD SVG 1.1//EN"
  "http://www.w3.org/Graphics/SVG/1.1/DTD/svg11.dtd">
<!-- Created with matplotlib (https://matplotlib.org/) -->
<svg height="345.6pt" version="1.1" viewBox="0 0 460.8 345.6" width="460.8pt" xmlns="http://www.w3.org/2000/svg" xmlns:xlink="http://www.w3.org/1999/xlink">
 <metadata>
  <rdf:RDF xmlns:cc="http://creativecommons.org/ns#" xmlns:dc="http://purl.org/dc/elements/1.1/" xmlns:rdf="http://www.w3.org/1999/02/22-rdf-syntax-ns#">
   <cc:Work>
    <dc:type rdf:resource="http://purl.org/dc/dcmitype/StillImage"/>
    <dc:date>2021-05-19T07:41:12.374100</dc:date>
    <dc:format>image/svg+xml</dc:format>
    <dc:creator>
     <cc:Agent>
      <dc:title>Matplotlib v3.3.3, https://matplotlib.org/</dc:title>
     </cc:Agent>
    </dc:creator>
   </cc:Work>
  </rdf:RDF>
 </metadata>
 <defs>
  <style type="text/css">*{stroke-linecap:butt;stroke-linejoin:round;}</style>
 </defs>
 <g id="figure_1">
  <g id="patch_1">
   <path d="M 0 345.6 
L 460.8 345.6 
L 460.8 0 
L 0 0 
z
" style="fill:#ffffff;"/>
  </g>
  <g id="axes_1">
   <g id="patch_2">
    <path d="M 57.6 307.584 
L 414.72 307.584 
L 414.72 41.472 
L 57.6 41.472 
z
" style="fill:#7d9051;"/>
   </g>
   <g id="matplotlib.axis_1">
    <g id="xtick_1">
     <g id="line2d_1">
      <defs>
       <path d="M 0 0 
L 0 3.5 
" id="m42859b31cc" style="stroke:#000000;stroke-width:0.8;"/>
      </defs>
      <g>
       <use style="stroke:#000000;stroke-width:0.8;" x="57.938382" xlink:href="#m42859b31cc" y="307.584"/>
      </g>
     </g>
     <g id="text_1">
      <!-- −60 -->
      <g transform="translate(47.386038 322.182437)scale(0.1 -0.1)">
       <defs>
        <path d="M 10.59375 35.5 
L 73.1875 35.5 
L 73.1875 27.203125 
L 10.59375 27.203125 
z
" id="DejaVuSans-8722"/>
        <path d="M 33.015625 40.375 
Q 26.375 40.375 22.484375 35.828125 
Q 18.609375 31.296875 18.609375 23.390625 
Q 18.609375 15.53125 22.484375 10.953125 
Q 26.375 6.390625 33.015625 6.390625 
Q 39.65625 6.390625 43.53125 10.953125 
Q 47.40625 15.53125 47.40625 23.390625 
Q 47.40625 31.296875 43.53125 35.828125 
Q 39.65625 40.375 33.015625 40.375 
z
M 52.59375 71.296875 
L 52.59375 62.3125 
Q 48.875 64.0625 45.09375 64.984375 
Q 41.3125 65.921875 37.59375 65.921875 
Q 27.828125 65.921875 22.671875 59.328125 
Q 17.53125 52.734375 16.796875 39.40625 
Q 19.671875 43.65625 24.015625 45.921875 
Q 28.375 48.1875 33.59375 48.1875 
Q 44.578125 48.1875 50.953125 41.515625 
Q 57.328125 34.859375 57.328125 23.390625 
Q 57.328125 12.15625 50.6875 5.359375 
Q 44.046875 -1.421875 33.015625 -1.421875 
Q 20.359375 -1.421875 13.671875 8.265625 
Q 6.984375 17.96875 6.984375 36.375 
Q 6.984375 53.65625 15.1875 63.9375 
Q 23.390625 74.21875 37.203125 74.21875 
Q 40.921875 74.21875 44.703125 73.484375 
Q 48.484375 72.75 52.59375 71.296875 
z
" id="DejaVuSans-54"/>
        <path d="M 31.78125 66.40625 
Q 24.171875 66.40625 20.328125 58.90625 
Q 16.5 51.421875 16.5 36.375 
Q 16.5 21.390625 20.328125 13.890625 
Q 24.171875 6.390625 31.78125 6.390625 
Q 39.453125 6.390625 43.28125 13.890625 
Q 47.125 21.390625 47.125 36.375 
Q 47.125 51.421875 43.28125 58.90625 
Q 39.453125 66.40625 31.78125 66.40625 
z
M 31.78125 74.21875 
Q 44.046875 74.21875 50.515625 64.515625 
Q 56.984375 54.828125 56.984375 36.375 
Q 56.984375 17.96875 50.515625 8.265625 
Q 44.046875 -1.421875 31.78125 -1.421875 
Q 19.53125 -1.421875 13.0625 8.265625 
Q 6.59375 17.96875 6.59375 36.375 
Q 6.59375 54.828125 13.0625 64.515625 
Q 19.53125 74.21875 31.78125 74.21875 
z
" id="DejaVuSans-48"/>
       </defs>
       <use xlink:href="#DejaVuSans-8722"/>
       <use x="83.789062" xlink:href="#DejaVuSans-54"/>
       <use x="147.412109" xlink:href="#DejaVuSans-48"/>
      </g>
     </g>
    </g>
    <g id="xtick_2">
     <g id="line2d_2">
      <g>
       <use style="stroke:#000000;stroke-width:0.8;" x="102.051284" xlink:href="#m42859b31cc" y="307.584"/>
      </g>
     </g>
     <g id="text_2">
      <!-- −40 -->
      <g transform="translate(91.49894 322.182437)scale(0.1 -0.1)">
       <defs>
        <path d="M 37.796875 64.3125 
L 12.890625 25.390625 
L 37.796875 25.390625 
z
M 35.203125 72.90625 
L 47.609375 72.90625 
L 47.609375 25.390625 
L 58.015625 25.390625 
L 58.015625 17.1875 
L 47.609375 17.1875 
L 47.609375 0 
L 37.796875 0 
L 37.796875 17.1875 
L 4.890625 17.1875 
L 4.890625 26.703125 
z
" id="DejaVuSans-52"/>
       </defs>
       <use xlink:href="#DejaVuSans-8722"/>
       <use x="83.789062" xlink:href="#DejaVuSans-52"/>
       <use x="147.412109" xlink:href="#DejaVuSans-48"/>
      </g>
     </g>
    </g>
    <g id="xtick_3">
     <g id="line2d_3">
      <g>
       <use style="stroke:#000000;stroke-width:0.8;" x="146.164187" xlink:href="#m42859b31cc" y="307.584"/>
      </g>
     </g>
     <g id="text_3">
      <!-- −20 -->
      <g transform="translate(135.611843 322.182437)scale(0.1 -0.1)">
       <defs>
        <path d="M 19.1875 8.296875 
L 53.609375 8.296875 
L 53.609375 0 
L 7.328125 0 
L 7.328125 8.296875 
Q 12.9375 14.109375 22.625 23.890625 
Q 32.328125 33.6875 34.8125 36.53125 
Q 39.546875 41.84375 41.421875 45.53125 
Q 43.3125 49.21875 43.3125 52.78125 
Q 43.3125 58.59375 39.234375 62.25 
Q 35.15625 65.921875 28.609375 65.921875 
Q 23.96875 65.921875 18.8125 64.3125 
Q 13.671875 62.703125 7.8125 59.421875 
L 7.8125 69.390625 
Q 13.765625 71.78125 18.9375 73 
Q 24.125 74.21875 28.421875 74.21875 
Q 39.75 74.21875 46.484375 68.546875 
Q 53.21875 62.890625 53.21875 53.421875 
Q 53.21875 48.921875 51.53125 44.890625 
Q 49.859375 40.875 45.40625 35.40625 
Q 44.1875 33.984375 37.640625 27.21875 
Q 31.109375 20.453125 19.1875 8.296875 
z
" id="DejaVuSans-50"/>
       </defs>
       <use xlink:href="#DejaVuSans-8722"/>
       <use x="83.789062" xlink:href="#DejaVuSans-50"/>
       <use x="147.412109" xlink:href="#DejaVuSans-48"/>
      </g>
     </g>
    </g>
    <g id="xtick_4">
     <g id="line2d_4">
      <g>
       <use style="stroke:#000000;stroke-width:0.8;" x="190.277089" xlink:href="#m42859b31cc" y="307.584"/>
      </g>
     </g>
     <g id="text_4">
      <!-- 0 -->
      <g transform="translate(187.095839 322.182437)scale(0.1 -0.1)">
       <use xlink:href="#DejaVuSans-48"/>
      </g>
     </g>
    </g>
    <g id="xtick_5">
     <g id="line2d_5">
      <g>
       <use style="stroke:#000000;stroke-width:0.8;" x="234.389991" xlink:href="#m42859b31cc" y="307.584"/>
      </g>
     </g>
     <g id="text_5">
      <!-- 20 -->
      <g transform="translate(228.027491 322.182437)scale(0.1 -0.1)">
       <use xlink:href="#DejaVuSans-50"/>
       <use x="63.623047" xlink:href="#DejaVuSans-48"/>
      </g>
     </g>
    </g>
    <g id="xtick_6">
     <g id="line2d_6">
      <g>
       <use style="stroke:#000000;stroke-width:0.8;" x="278.502894" xlink:href="#m42859b31cc" y="307.584"/>
      </g>
     </g>
     <g id="text_6">
      <!-- 40 -->
      <g transform="translate(272.140394 322.182437)scale(0.1 -0.1)">
       <use xlink:href="#DejaVuSans-52"/>
       <use x="63.623047" xlink:href="#DejaVuSans-48"/>
      </g>
     </g>
    </g>
    <g id="xtick_7">
     <g id="line2d_7">
      <g>
       <use style="stroke:#000000;stroke-width:0.8;" x="322.615796" xlink:href="#m42859b31cc" y="307.584"/>
      </g>
     </g>
     <g id="text_7">
      <!-- 60 -->
      <g transform="translate(316.253296 322.182437)scale(0.1 -0.1)">
       <use xlink:href="#DejaVuSans-54"/>
       <use x="63.623047" xlink:href="#DejaVuSans-48"/>
      </g>
     </g>
    </g>
    <g id="xtick_8">
     <g id="line2d_8">
      <g>
       <use style="stroke:#000000;stroke-width:0.8;" x="366.728698" xlink:href="#m42859b31cc" y="307.584"/>
      </g>
     </g>
     <g id="text_8">
      <!-- 80 -->
      <g transform="translate(360.366198 322.182437)scale(0.1 -0.1)">
       <defs>
        <path d="M 31.78125 34.625 
Q 24.75 34.625 20.71875 30.859375 
Q 16.703125 27.09375 16.703125 20.515625 
Q 16.703125 13.921875 20.71875 10.15625 
Q 24.75 6.390625 31.78125 6.390625 
Q 38.8125 6.390625 42.859375 10.171875 
Q 46.921875 13.96875 46.921875 20.515625 
Q 46.921875 27.09375 42.890625 30.859375 
Q 38.875 34.625 31.78125 34.625 
z
M 21.921875 38.8125 
Q 15.578125 40.375 12.03125 44.71875 
Q 8.5 49.078125 8.5 55.328125 
Q 8.5 64.0625 14.71875 69.140625 
Q 20.953125 74.21875 31.78125 74.21875 
Q 42.671875 74.21875 48.875 69.140625 
Q 55.078125 64.0625 55.078125 55.328125 
Q 55.078125 49.078125 51.53125 44.71875 
Q 48 40.375 41.703125 38.8125 
Q 48.828125 37.15625 52.796875 32.3125 
Q 56.78125 27.484375 56.78125 20.515625 
Q 56.78125 9.90625 50.3125 4.234375 
Q 43.84375 -1.421875 31.78125 -1.421875 
Q 19.734375 -1.421875 13.25 4.234375 
Q 6.78125 9.90625 6.78125 20.515625 
Q 6.78125 27.484375 10.78125 32.3125 
Q 14.796875 37.15625 21.921875 38.8125 
z
M 18.3125 54.390625 
Q 18.3125 48.734375 21.84375 45.5625 
Q 25.390625 42.390625 31.78125 42.390625 
Q 38.140625 42.390625 41.71875 45.5625 
Q 45.3125 48.734375 45.3125 54.390625 
Q 45.3125 60.0625 41.71875 63.234375 
Q 38.140625 66.40625 31.78125 66.40625 
Q 25.390625 66.40625 21.84375 63.234375 
Q 18.3125 60.0625 18.3125 54.390625 
z
" id="DejaVuSans-56"/>
       </defs>
       <use xlink:href="#DejaVuSans-56"/>
       <use x="63.623047" xlink:href="#DejaVuSans-48"/>
      </g>
     </g>
    </g>
    <g id="xtick_9">
     <g id="line2d_9">
      <g>
       <use style="stroke:#000000;stroke-width:0.8;" x="410.841601" xlink:href="#m42859b31cc" y="307.584"/>
      </g>
     </g>
     <g id="text_9">
      <!-- 100 -->
      <g transform="translate(401.297851 322.182437)scale(0.1 -0.1)">
       <defs>
        <path d="M 12.40625 8.296875 
L 28.515625 8.296875 
L 28.515625 63.921875 
L 10.984375 60.40625 
L 10.984375 69.390625 
L 28.421875 72.90625 
L 38.28125 72.90625 
L 38.28125 8.296875 
L 54.390625 8.296875 
L 54.390625 0 
L 12.40625 0 
z
" id="DejaVuSans-49"/>
       </defs>
       <use xlink:href="#DejaVuSans-49"/>
       <use x="63.623047" xlink:href="#DejaVuSans-48"/>
       <use x="127.246094" xlink:href="#DejaVuSans-48"/>
      </g>
     </g>
    </g>
   </g>
   <g id="matplotlib.axis_2">
    <g id="ytick_1">
     <g id="line2d_10">
      <defs>
       <path d="M 0 0 
L -3.5 0 
" id="mbe0692e823" style="stroke:#000000;stroke-width:0.8;"/>
      </defs>
      <g>
       <use style="stroke:#000000;stroke-width:0.8;" x="57.6" xlink:href="#mbe0692e823" y="295.403118"/>
      </g>
     </g>
     <g id="text_10">
      <!-- 0 -->
      <g transform="translate(44.2375 299.202337)scale(0.1 -0.1)">
       <use xlink:href="#DejaVuSans-48"/>
      </g>
     </g>
    </g>
    <g id="ytick_2">
     <g id="line2d_11">
      <g>
       <use style="stroke:#000000;stroke-width:0.8;" x="57.6" xlink:href="#mbe0692e823" y="251.290216"/>
      </g>
     </g>
     <g id="text_11">
      <!-- 20 -->
      <g transform="translate(37.875 255.089435)scale(0.1 -0.1)">
       <use xlink:href="#DejaVuSans-50"/>
       <use x="63.623047" xlink:href="#DejaVuSans-48"/>
      </g>
     </g>
    </g>
    <g id="ytick_3">
     <g id="line2d_12">
      <g>
       <use style="stroke:#000000;stroke-width:0.8;" x="57.6" xlink:href="#mbe0692e823" y="207.177314"/>
      </g>
     </g>
     <g id="text_12">
      <!-- 40 -->
      <g transform="translate(37.875 210.976532)scale(0.1 -0.1)">
       <use xlink:href="#DejaVuSans-52"/>
       <use x="63.623047" xlink:href="#DejaVuSans-48"/>
      </g>
     </g>
    </g>
    <g id="ytick_4">
     <g id="line2d_13">
      <g>
       <use style="stroke:#000000;stroke-width:0.8;" x="57.6" xlink:href="#mbe0692e823" y="163.064411"/>
      </g>
     </g>
     <g id="text_13">
      <!-- 60 -->
      <g transform="translate(37.875 166.86363)scale(0.1 -0.1)">
       <use xlink:href="#DejaVuSans-54"/>
       <use x="63.623047" xlink:href="#DejaVuSans-48"/>
      </g>
     </g>
    </g>
    <g id="ytick_5">
     <g id="line2d_14">
      <g>
       <use style="stroke:#000000;stroke-width:0.8;" x="57.6" xlink:href="#mbe0692e823" y="118.951509"/>
      </g>
     </g>
     <g id="text_14">
      <!-- 80 -->
      <g transform="translate(37.875 122.750728)scale(0.1 -0.1)">
       <use xlink:href="#DejaVuSans-56"/>
       <use x="63.623047" xlink:href="#DejaVuSans-48"/>
      </g>
     </g>
    </g>
    <g id="ytick_6">
     <g id="line2d_15">
      <g>
       <use style="stroke:#000000;stroke-width:0.8;" x="57.6" xlink:href="#mbe0692e823" y="74.838607"/>
      </g>
     </g>
     <g id="text_15">
      <!-- 100 -->
      <g transform="translate(31.5125 78.637825)scale(0.1 -0.1)">
       <use xlink:href="#DejaVuSans-49"/>
       <use x="63.623047" xlink:href="#DejaVuSans-48"/>
       <use x="127.246094" xlink:href="#DejaVuSans-48"/>
      </g>
     </g>
    </g>
   </g>
   <g id="line2d_16">
    <path clip-path="url(#pafb1c3d4f2)" d="M 190.277089 295.403118 
L 190.560924 275.090443 
L 191.31129 237.365874 
L 191.724779 228.626274 
L 192.936991 208.201302 
L 193.092484 202.390722 
L 193.059479 196.604959 
L 192.781427 190.851456 
L 192.20178 185.137659 
L 191.75228 182.299579 
L 191.164737 179.475755 
L 189.645475 173.864603 
L 187.783907 168.291662 
L 184.655794 159.976453 
L 181.54451 151.676658 
L 179.712859 146.131119 
L 178.238473 140.56107 
L 177.678977 137.762935 
L 177.261264 134.95397 
L 176.835543 129.247852 
L 176.474809 120.059324 
L 176.442938 113.670577 
L 176.662918 107.241395 
L 177.20757 100.917507 
L 177.624404 97.840588 
L 178.149713 94.84464 
L 178.7926 91.947881 
L 179.562168 89.168524 
L 180.467518 86.524787 
L 181.517754 84.034886 
L 182.721977 81.717036 
L 184.089291 79.589454 
L 185.628798 77.670356 
L 187.393109 75.903778 
L 189.412359 74.224606 
L 191.661928 72.637326 
L 194.117201 71.146424 
L 196.75356 69.756386 
L 199.546388 68.471698 
L 202.471068 67.296845 
L 205.502983 66.236316 
L 208.617515 65.294594 
L 211.790048 64.476167 
L 214.995964 63.785521 
L 218.210646 63.227141 
L 221.409477 62.805514 
L 224.567841 62.525125 
L 227.661119 62.390462 
L 230.664695 62.40601 
L 233.553951 62.576255 
L 236.304271 62.905684 
L 238.891037 63.398782 
L 241.392287 64.088856 
L 243.897891 64.996495 
L 246.400984 66.107107 
L 248.894701 67.406101 
L 251.372175 68.878885 
L 253.826541 70.510868 
L 256.250933 72.287459 
L 258.638486 74.194065 
L 263.275611 78.33896 
L 267.682989 82.82882 
L 271.805696 87.546913 
L 275.588805 92.376509 
L 278.977392 97.200874 
L 281.976032 101.995809 
L 284.870791 107.199657 
L 287.625307 112.787911 
L 290.141938 118.643522 
L 292.323041 124.64944 
L 293.257257 127.672185 
L 294.070974 130.688613 
L 294.751988 133.684092 
L 295.288094 136.643991 
L 295.667086 139.55368 
L 295.876758 142.398525 
L 295.904906 145.163897 
L 295.739324 147.835163 
L 295.367807 150.397694 
L 294.778149 152.836856 
L 293.834224 155.152371 
L 292.444622 157.361362 
L 290.664211 159.475302 
L 288.54786 161.505665 
L 286.150437 163.463922 
L 283.52681 165.361548 
L 277.820421 169.020798 
L 266.107413 176.116535 
L 263.436679 177.910986 
L 260.97869 179.736591 
L 258.788314 181.604823 
L 256.920419 183.527153 
L 255.429873 185.515056 
L 254.371546 187.580005 
L 253.800305 189.733472 
L 253.680235 191.961633 
L 253.918371 194.240137 
L 254.48401 196.564668 
L 255.346448 198.930911 
L 256.474982 201.334552 
L 257.838909 203.771275 
L 259.407526 206.236765 
L 263.036013 211.236787 
L 267.114816 216.300097 
L 277.670031 229.008714 
L 281.390628 234.021681 
L 283.020651 236.495801 
L 283.020651 236.495801 
" style="fill:none;stroke:#fea952;stroke-linecap:square;"/>
   </g>
   <g id="line2d_17">
    <path clip-path="url(#pafb1c3d4f2)" d="M 181.454917 295.318237 
L 181.73984 274.927939 
L 182.494958 237.033899 
L 182.918973 228.082495 
L 184.119394 207.904825 
L 184.269962 202.358453 
L 184.242735 196.925837 
L 183.991933 191.614814 
L 183.487816 186.51779 
L 183.114687 184.096773 
L 181.982495 179.119577 
L 180.413059 173.964545 
L 178.51681 168.637754 
L 173.200542 154.543038 
L 171.2265 148.543508 
L 170.353484 145.450881 
L 169.587143 142.290932 
L 168.952358 139.060643 
L 168.475466 135.758756 
L 168.024049 129.690004 
L 167.653029 120.178232 
L 167.622685 113.467906 
L 167.862709 106.613508 
L 168.46485 99.733119 
L 168.934396 96.316882 
L 169.536698 92.933126 
L 170.289936 89.593604 
L 171.215444 86.31018 
L 172.338485 83.095977 
L 173.68875 79.967379 
L 175.29995 76.94719 
L 177.207415 74.068793 
L 179.386289 71.435854 
L 181.752044 69.120246 
L 184.325918 67.015858 
L 187.082751 65.096168 
L 190.002366 63.342191 
L 193.066584 61.741142 
L 196.25775 60.284953 
L 199.558092 58.969031 
L 202.949525 57.79133 
L 206.413681 56.7517 
L 209.932036 55.851451 
L 213.486118 55.093093 
L 217.057743 54.480213 
L 220.629309 54.017495 
L 224.184121 53.710893 
L 227.706788 53.568 
L 231.183652 53.598706 
L 234.603204 53.81629 
L 237.956313 54.239157 
L 241.237452 54.893944 
L 244.397136 55.793748 
L 247.476039 56.93208 
L 250.47689 58.282472 
L 253.403007 59.822362 
L 256.257229 61.532173 
L 259.041418 63.39448 
L 261.756304 65.393344 
L 264.401506 67.513831 
L 266.975644 69.741672 
L 271.901069 74.464422 
L 276.506887 79.454181 
L 280.759823 84.6068 
L 284.622065 89.821809 
L 288.048771 94.997149 
L 291.196635 100.348032 
L 294.233213 106.151478 
L 297.071508 112.315883 
L 299.61856 118.751393 
L 300.752227 122.044299 
L 301.775342 125.374329 
L 302.674024 128.732732 
L 303.43332 132.111704 
L 304.036774 135.504461 
L 304.465801 138.905191 
L 304.698882 142.308727 
L 304.710586 145.709729 
L 304.470619 149.101032 
L 303.943363 152.4708 
L 302.947975 156.167303 
L 301.302078 159.850147 
L 299.192719 163.04477 
L 296.772039 165.841806 
L 294.129066 168.338531 
L 291.32096 170.612602 
L 288.393614 172.720363 
L 282.361012 176.585252 
L 271.027773 183.439647 
L 266.704019 186.449157 
L 263.979134 188.819834 
L 262.610104 190.208211 
L 262.455021 191.044543 
L 262.490807 192.154166 
L 262.773176 193.543468 
L 263.332597 195.181331 
L 264.173596 197.025344 
L 265.282635 199.035361 
L 266.635753 201.178044 
L 269.95493 205.76262 
L 273.878094 210.634764 
L 284.674351 223.644254 
L 288.757999 229.16784 
L 290.388022 231.641961 
L 290.388022 231.641961 
" style="fill:none;stroke:#ffffff;stroke-linecap:square;"/>
   </g>
   <g id="line2d_18">
    <path clip-path="url(#pafb1c3d4f2)" d="M 199.099261 295.488 
L 199.382008 275.252947 
L 200.233231 234.880412 
L 200.709049 226.279345 
L 201.754589 208.497779 
L 201.915005 202.422992 
L 201.876222 196.284081 
L 201.570922 190.088098 
L 200.915743 183.757528 
L 200.389874 180.502384 
L 199.720078 177.320746 
L 198.044993 171.165343 
L 196.069593 165.260931 
L 192.891953 156.813605 
L 189.888477 148.810279 
L 188.199219 143.718729 
L 186.889803 138.831209 
L 186.405596 136.465228 
L 186.047062 134.149183 
L 185.647037 128.805699 
L 185.296588 119.940417 
L 185.26319 113.873247 
L 185.463127 107.869282 
L 185.95029 102.101894 
L 186.762729 96.756154 
L 187.295265 94.302157 
L 187.908892 92.026868 
L 188.596552 89.953598 
L 189.346758 88.102394 
L 190.144005 86.486883 
L 190.971168 85.110116 
L 191.871306 83.904858 
L 193.034175 82.687311 
L 194.498799 81.433355 
L 196.241105 80.178484 
L 198.232036 78.950657 
L 200.440536 77.77163 
L 202.835026 76.658442 
L 205.384045 75.62466 
L 208.05644 74.681301 
L 210.821349 73.837488 
L 213.648059 73.100883 
L 216.50581 72.477948 
L 219.363549 71.974068 
L 222.189646 71.593532 
L 224.951561 71.339357 
L 227.61545 71.212925 
L 230.145738 71.213315 
L 232.504698 71.336221 
L 234.65223 71.57221 
L 236.544623 71.903619 
L 238.387438 72.383963 
L 240.319743 73.060909 
L 242.325078 73.931742 
L 244.386395 74.98984 
L 246.487121 76.225597 
L 248.611664 77.627257 
L 250.745563 79.181574 
L 254.989024 82.69052 
L 259.121833 86.631707 
L 263.059832 90.879084 
L 266.726443 95.303338 
L 270.049629 99.771473 
L 272.964379 104.152084 
L 275.673042 108.736701 
L 278.31015 113.754619 
L 280.767413 119.063342 
L 282.942506 124.518623 
L 284.739171 129.97004 
L 286.070657 135.25648 
L 286.539414 137.783522 
L 286.868371 140.202168 
L 287.054635 142.488323 
L 287.099227 144.618065 
L 287.00803 146.569295 
L 286.608324 149.506409 
L 286.366371 150.454596 
L 285.696526 151.677955 
L 284.556384 153.108799 
L 282.966654 154.672798 
L 280.979914 156.315243 
L 278.660007 158.002734 
L 273.27983 161.456345 
L 261.187052 168.793422 
L 258.176176 170.828259 
L 255.253362 173.024026 
L 252.460862 175.456548 
L 249.861703 178.234473 
L 247.578429 181.491035 
L 245.843893 185.317913 
L 244.990507 189.258734 
L 244.905449 192.878723 
L 245.345935 196.326107 
L 246.194843 199.585868 
L 247.360299 202.680491 
L 248.776369 205.64376 
L 250.395184 208.507189 
L 252.179299 211.295487 
L 256.117095 216.710954 
L 260.351538 221.96543 
L 270.66571 234.373173 
L 274.023257 238.875521 
L 275.65328 241.349641 
L 275.65328 241.349641 
" style="fill:none;stroke:#ffffff;stroke-linecap:square;"/>
   </g>
   <g id="patch_3">
    <path d="M 57.6 307.584 
L 57.6 41.472 
" style="fill:none;stroke:#000000;stroke-linecap:square;stroke-linejoin:miter;stroke-width:0.8;"/>
   </g>
   <g id="patch_4">
    <path d="M 414.72 307.584 
L 414.72 41.472 
" style="fill:none;stroke:#000000;stroke-linecap:square;stroke-linejoin:miter;stroke-width:0.8;"/>
   </g>
   <g id="patch_5">
    <path d="M 57.6 307.584 
L 414.72 307.584 
" style="fill:none;stroke:#000000;stroke-linecap:square;stroke-linejoin:miter;stroke-width:0.8;"/>
   </g>
   <g id="patch_6">
    <path d="M 57.6 41.472 
L 414.72 41.472 
" style="fill:none;stroke:#000000;stroke-linecap:square;stroke-linejoin:miter;stroke-width:0.8;"/>
   </g>
  </g>
 </g>
 <defs>
  <clipPath id="pafb1c3d4f2">
   <rect height="266.112" width="357.12" x="57.6" y="41.472"/>
  </clipPath>
 </defs>
</svg>
