<?xml version="1.0" encoding="utf-8" standalone="no"?>
<!DOCTYPE svg PUBLIC "-//W3C//DTD SVG 1.1//EN"
  "http://www.w3.org/Graphics/SVG/1.1/DTD/svg11.dtd">
<!-- Created with matplotlib (https://matplotlib.org/) -->
<svg height="345.6pt" version="1.1" viewBox="0 0 460.8 345.6" width="460.8pt" xmlns="http://www.w3.org/2000/svg" xmlns:xlink="http://www.w3.org/1999/xlink">
 <metadata>
  <rdf:RDF xmlns:cc="http://creativecommons.org/ns#" xmlns:dc="http://purl.org/dc/elements/1.1/" xmlns:rdf="http://www.w3.org/1999/02/22-rdf-syntax-ns#">
   <cc:Work>
    <dc:type rdf:resource="http://purl.org/dc/dcmitype/StillImage"/>
    <dc:date>2021-06-24T09:28:32.655710</dc:date>
    <dc:format>image/svg+xml</dc:format>
    <dc:creator>
     <cc:Agent>
      <dc:title>Matplotlib v3.3.3, https://matplotlib.org/</dc:title>
     </cc:Agent>
    </dc:creator>
   </cc:Work>
  </rdf:RDF>
 </metadata>
 <defs>
  <style type="text/css">*{stroke-linecap:butt;stroke-linejoin:round;}</style>
 </defs>
 <g id="figure_1">
  <g id="patch_1">
   <path d="M 0 345.6 
L 460.8 345.6 
L 460.8 0 
L 0 0 
z
" style="fill:#ffffff;"/>
  </g>
  <g id="axes_1">
   <g id="patch_2">
    <path d="M 57.6 307.584 
L 414.72 307.584 
L 414.72 41.472 
L 57.6 41.472 
z
" style="fill:#7d9051;"/>
   </g>
   <g id="matplotlib.axis_1">
    <g id="xtick_1">
     <g id="line2d_1">
      <defs>
       <path d="M 0 0 
L 0 3.5 
" id="m47d02da16e" style="stroke:#000000;stroke-width:0.8;"/>
      </defs>
      <g>
       <use style="stroke:#000000;stroke-width:0.8;" x="86.388448" xlink:href="#m47d02da16e" y="307.584"/>
      </g>
     </g>
     <g id="text_1">
      <!-- 0 -->
      <g transform="translate(83.207198 322.182437)scale(0.1 -0.1)">
       <defs>
        <path d="M 31.78125 66.40625 
Q 24.171875 66.40625 20.328125 58.90625 
Q 16.5 51.421875 16.5 36.375 
Q 16.5 21.390625 20.328125 13.890625 
Q 24.171875 6.390625 31.78125 6.390625 
Q 39.453125 6.390625 43.28125 13.890625 
Q 47.125 21.390625 47.125 36.375 
Q 47.125 51.421875 43.28125 58.90625 
Q 39.453125 66.40625 31.78125 66.40625 
z
M 31.78125 74.21875 
Q 44.046875 74.21875 50.515625 64.515625 
Q 56.984375 54.828125 56.984375 36.375 
Q 56.984375 17.96875 50.515625 8.265625 
Q 44.046875 -1.421875 31.78125 -1.421875 
Q 19.53125 -1.421875 13.0625 8.265625 
Q 6.59375 17.96875 6.59375 36.375 
Q 6.59375 54.828125 13.0625 64.515625 
Q 19.53125 74.21875 31.78125 74.21875 
z
" id="DejaVuSans-48"/>
       </defs>
       <use xlink:href="#DejaVuSans-48"/>
      </g>
     </g>
    </g>
    <g id="xtick_2">
     <g id="line2d_2">
      <g>
       <use style="stroke:#000000;stroke-width:0.8;" x="143.966533" xlink:href="#m47d02da16e" y="307.584"/>
      </g>
     </g>
     <g id="text_2">
      <!-- 20 -->
      <g transform="translate(137.604033 322.182437)scale(0.1 -0.1)">
       <defs>
        <path d="M 19.1875 8.296875 
L 53.609375 8.296875 
L 53.609375 0 
L 7.328125 0 
L 7.328125 8.296875 
Q 12.9375 14.109375 22.625 23.890625 
Q 32.328125 33.6875 34.8125 36.53125 
Q 39.546875 41.84375 41.421875 45.53125 
Q 43.3125 49.21875 43.3125 52.78125 
Q 43.3125 58.59375 39.234375 62.25 
Q 35.15625 65.921875 28.609375 65.921875 
Q 23.96875 65.921875 18.8125 64.3125 
Q 13.671875 62.703125 7.8125 59.421875 
L 7.8125 69.390625 
Q 13.765625 71.78125 18.9375 73 
Q 24.125 74.21875 28.421875 74.21875 
Q 39.75 74.21875 46.484375 68.546875 
Q 53.21875 62.890625 53.21875 53.421875 
Q 53.21875 48.921875 51.53125 44.890625 
Q 49.859375 40.875 45.40625 35.40625 
Q 44.1875 33.984375 37.640625 27.21875 
Q 31.109375 20.453125 19.1875 8.296875 
z
" id="DejaVuSans-50"/>
       </defs>
       <use xlink:href="#DejaVuSans-50"/>
       <use x="63.623047" xlink:href="#DejaVuSans-48"/>
      </g>
     </g>
    </g>
    <g id="xtick_3">
     <g id="line2d_3">
      <g>
       <use style="stroke:#000000;stroke-width:0.8;" x="201.544618" xlink:href="#m47d02da16e" y="307.584"/>
      </g>
     </g>
     <g id="text_3">
      <!-- 40 -->
      <g transform="translate(195.182118 322.182437)scale(0.1 -0.1)">
       <defs>
        <path d="M 37.796875 64.3125 
L 12.890625 25.390625 
L 37.796875 25.390625 
z
M 35.203125 72.90625 
L 47.609375 72.90625 
L 47.609375 25.390625 
L 58.015625 25.390625 
L 58.015625 17.1875 
L 47.609375 17.1875 
L 47.609375 0 
L 37.796875 0 
L 37.796875 17.1875 
L 4.890625 17.1875 
L 4.890625 26.703125 
z
" id="DejaVuSans-52"/>
       </defs>
       <use xlink:href="#DejaVuSans-52"/>
       <use x="63.623047" xlink:href="#DejaVuSans-48"/>
      </g>
     </g>
    </g>
    <g id="xtick_4">
     <g id="line2d_4">
      <g>
       <use style="stroke:#000000;stroke-width:0.8;" x="259.122703" xlink:href="#m47d02da16e" y="307.584"/>
      </g>
     </g>
     <g id="text_4">
      <!-- 60 -->
      <g transform="translate(252.760203 322.182437)scale(0.1 -0.1)">
       <defs>
        <path d="M 33.015625 40.375 
Q 26.375 40.375 22.484375 35.828125 
Q 18.609375 31.296875 18.609375 23.390625 
Q 18.609375 15.53125 22.484375 10.953125 
Q 26.375 6.390625 33.015625 6.390625 
Q 39.65625 6.390625 43.53125 10.953125 
Q 47.40625 15.53125 47.40625 23.390625 
Q 47.40625 31.296875 43.53125 35.828125 
Q 39.65625 40.375 33.015625 40.375 
z
M 52.59375 71.296875 
L 52.59375 62.3125 
Q 48.875 64.0625 45.09375 64.984375 
Q 41.3125 65.921875 37.59375 65.921875 
Q 27.828125 65.921875 22.671875 59.328125 
Q 17.53125 52.734375 16.796875 39.40625 
Q 19.671875 43.65625 24.015625 45.921875 
Q 28.375 48.1875 33.59375 48.1875 
Q 44.578125 48.1875 50.953125 41.515625 
Q 57.328125 34.859375 57.328125 23.390625 
Q 57.328125 12.15625 50.6875 5.359375 
Q 44.046875 -1.421875 33.015625 -1.421875 
Q 20.359375 -1.421875 13.671875 8.265625 
Q 6.984375 17.96875 6.984375 36.375 
Q 6.984375 53.65625 15.1875 63.9375 
Q 23.390625 74.21875 37.203125 74.21875 
Q 40.921875 74.21875 44.703125 73.484375 
Q 48.484375 72.75 52.59375 71.296875 
z
" id="DejaVuSans-54"/>
       </defs>
       <use xlink:href="#DejaVuSans-54"/>
       <use x="63.623047" xlink:href="#DejaVuSans-48"/>
      </g>
     </g>
    </g>
    <g id="xtick_5">
     <g id="line2d_5">
      <g>
       <use style="stroke:#000000;stroke-width:0.8;" x="316.700787" xlink:href="#m47d02da16e" y="307.584"/>
      </g>
     </g>
     <g id="text_5">
      <!-- 80 -->
      <g transform="translate(310.338287 322.182437)scale(0.1 -0.1)">
       <defs>
        <path d="M 31.78125 34.625 
Q 24.75 34.625 20.71875 30.859375 
Q 16.703125 27.09375 16.703125 20.515625 
Q 16.703125 13.921875 20.71875 10.15625 
Q 24.75 6.390625 31.78125 6.390625 
Q 38.8125 6.390625 42.859375 10.171875 
Q 46.921875 13.96875 46.921875 20.515625 
Q 46.921875 27.09375 42.890625 30.859375 
Q 38.875 34.625 31.78125 34.625 
z
M 21.921875 38.8125 
Q 15.578125 40.375 12.03125 44.71875 
Q 8.5 49.078125 8.5 55.328125 
Q 8.5 64.0625 14.71875 69.140625 
Q 20.953125 74.21875 31.78125 74.21875 
Q 42.671875 74.21875 48.875 69.140625 
Q 55.078125 64.0625 55.078125 55.328125 
Q 55.078125 49.078125 51.53125 44.71875 
Q 48 40.375 41.703125 38.8125 
Q 48.828125 37.15625 52.796875 32.3125 
Q 56.78125 27.484375 56.78125 20.515625 
Q 56.78125 9.90625 50.3125 4.234375 
Q 43.84375 -1.421875 31.78125 -1.421875 
Q 19.734375 -1.421875 13.25 4.234375 
Q 6.78125 9.90625 6.78125 20.515625 
Q 6.78125 27.484375 10.78125 32.3125 
Q 14.796875 37.15625 21.921875 38.8125 
z
M 18.3125 54.390625 
Q 18.3125 48.734375 21.84375 45.5625 
Q 25.390625 42.390625 31.78125 42.390625 
Q 38.140625 42.390625 41.71875 45.5625 
Q 45.3125 48.734375 45.3125 54.390625 
Q 45.3125 60.0625 41.71875 63.234375 
Q 38.140625 66.40625 31.78125 66.40625 
Q 25.390625 66.40625 21.84375 63.234375 
Q 18.3125 60.0625 18.3125 54.390625 
z
" id="DejaVuSans-56"/>
       </defs>
       <use xlink:href="#DejaVuSans-56"/>
       <use x="63.623047" xlink:href="#DejaVuSans-48"/>
      </g>
     </g>
    </g>
    <g id="xtick_6">
     <g id="line2d_6">
      <g>
       <use style="stroke:#000000;stroke-width:0.8;" x="374.278872" xlink:href="#m47d02da16e" y="307.584"/>
      </g>
     </g>
     <g id="text_6">
      <!-- 100 -->
      <g transform="translate(364.735122 322.182437)scale(0.1 -0.1)">
       <defs>
        <path d="M 12.40625 8.296875 
L 28.515625 8.296875 
L 28.515625 63.921875 
L 10.984375 60.40625 
L 10.984375 69.390625 
L 28.421875 72.90625 
L 38.28125 72.90625 
L 38.28125 8.296875 
L 54.390625 8.296875 
L 54.390625 0 
L 12.40625 0 
z
" id="DejaVuSans-49"/>
       </defs>
       <use xlink:href="#DejaVuSans-49"/>
       <use x="63.623047" xlink:href="#DejaVuSans-48"/>
       <use x="127.246094" xlink:href="#DejaVuSans-48"/>
      </g>
     </g>
    </g>
   </g>
   <g id="matplotlib.axis_2">
    <g id="ytick_1">
     <g id="line2d_7">
      <defs>
       <path d="M 0 0 
L -3.5 0 
" id="m6ff5de8403" style="stroke:#000000;stroke-width:0.8;"/>
      </defs>
      <g>
       <use style="stroke:#000000;stroke-width:0.8;" x="57.6" xlink:href="#m6ff5de8403" y="300.753939"/>
      </g>
     </g>
     <g id="text_7">
      <!-- 0 -->
      <g transform="translate(44.2375 304.553158)scale(0.1 -0.1)">
       <use xlink:href="#DejaVuSans-48"/>
      </g>
     </g>
    </g>
    <g id="ytick_2">
     <g id="line2d_8">
      <g>
       <use style="stroke:#000000;stroke-width:0.8;" x="57.6" xlink:href="#m6ff5de8403" y="243.175855"/>
      </g>
     </g>
     <g id="text_8">
      <!-- 20 -->
      <g transform="translate(37.875 246.975073)scale(0.1 -0.1)">
       <use xlink:href="#DejaVuSans-50"/>
       <use x="63.623047" xlink:href="#DejaVuSans-48"/>
      </g>
     </g>
    </g>
    <g id="ytick_3">
     <g id="line2d_9">
      <g>
       <use style="stroke:#000000;stroke-width:0.8;" x="57.6" xlink:href="#m6ff5de8403" y="185.59777"/>
      </g>
     </g>
     <g id="text_9">
      <!-- 40 -->
      <g transform="translate(37.875 189.396989)scale(0.1 -0.1)">
       <use xlink:href="#DejaVuSans-52"/>
       <use x="63.623047" xlink:href="#DejaVuSans-48"/>
      </g>
     </g>
    </g>
    <g id="ytick_4">
     <g id="line2d_10">
      <g>
       <use style="stroke:#000000;stroke-width:0.8;" x="57.6" xlink:href="#m6ff5de8403" y="128.019685"/>
      </g>
     </g>
     <g id="text_10">
      <!-- 60 -->
      <g transform="translate(37.875 131.818904)scale(0.1 -0.1)">
       <use xlink:href="#DejaVuSans-54"/>
       <use x="63.623047" xlink:href="#DejaVuSans-48"/>
      </g>
     </g>
    </g>
    <g id="ytick_5">
     <g id="line2d_11">
      <g>
       <use style="stroke:#000000;stroke-width:0.8;" x="57.6" xlink:href="#m6ff5de8403" y="70.4416"/>
      </g>
     </g>
     <g id="text_11">
      <!-- 80 -->
      <g transform="translate(37.875 74.240819)scale(0.1 -0.1)">
       <use xlink:href="#DejaVuSans-56"/>
       <use x="63.623047" xlink:href="#DejaVuSans-48"/>
      </g>
     </g>
    </g>
   </g>
   <g id="line2d_12">
    <path clip-path="url(#pc280ebcd81)" d="M 86.388448 300.753939 
L 86.692263 278.028399 
L 87.655468 224.985838 
L 87.401384 217.277913 
L 86.606361 205.573509 
L 85.756152 193.850103 
L 85.40396 186.108396 
L 85.395148 178.484925 
L 85.565499 174.733363 
L 85.876882 171.030362 
L 86.347692 167.382257 
L 86.996325 163.79538 
L 87.841175 160.276067 
L 88.900639 156.830651 
L 90.158224 153.427845 
L 91.579301 150.035806 
L 93.15506 146.660038 
L 94.87669 143.306042 
L 96.735382 139.979323 
L 98.722325 136.685382 
L 100.82871 133.429723 
L 103.045725 130.217848 
L 107.776408 123.947461 
L 112.843894 117.918245 
L 118.177699 112.17422 
L 123.707345 106.759411 
L 129.362349 101.717838 
L 135.121734 97.077368 
L 138.125141 94.882818 
L 144.394626 90.727365 
L 150.969589 86.878582 
L 157.796329 83.330637 
L 164.821145 80.077699 
L 171.990337 77.113937 
L 179.250205 74.433518 
L 186.547047 72.030613 
L 193.827163 69.899389 
L 208.777427 66.019005 
L 216.755046 64.096231 
L 224.901773 62.358477 
L 233.073108 60.950314 
L 237.122848 60.415006 
L 241.124553 60.01631 
L 245.060161 59.772296 
L 248.911609 59.701035 
L 252.660835 59.820599 
L 256.289777 60.149059 
L 259.780372 60.704486 
L 263.114557 61.504951 
L 266.274271 62.568525 
L 269.241452 63.913279 
L 272.096691 65.577974 
L 274.924081 67.571335 
L 277.710805 69.866389 
L 280.444047 72.436161 
L 283.110992 75.253676 
L 285.698824 78.291958 
L 288.194726 81.524032 
L 290.585883 84.922924 
L 292.859479 88.461659 
L 295.002698 92.113261 
L 297.002724 95.850755 
L 298.846741 99.647167 
L 300.521934 103.475522 
L 302.015486 107.308844 
L 303.314582 111.120159 
L 304.406406 114.882492 
L 305.278141 118.568866 
L 305.916973 122.152309 
L 306.310084 125.605844 
L 306.301207 129.019809 
L 305.783989 132.496437 
L 304.820488 136.026597 
L 303.47276 139.601156 
L 301.802863 143.210982 
L 299.872854 146.846943 
L 297.744791 150.499907 
L 293.142732 157.820317 
L 288.493143 165.099157 
L 286.305668 168.700157 
L 284.292484 172.263369 
L 282.515646 175.77966 
L 281.037213 179.239898 
L 279.919242 182.634951 
L 279.223789 185.955687 
L 279.012913 189.192975 
L 279.348671 192.337682 
L 280.17341 195.50433 
L 281.368739 198.792814 
L 282.905608 202.172063 
L 284.754969 205.611005 
L 286.887772 209.078571 
L 289.274969 212.543688 
L 291.88751 215.975285 
L 294.696347 219.342291 
L 297.67243 222.613636 
L 300.786709 225.758246 
L 304.010137 228.745053 
L 307.313663 231.542984 
L 310.668239 234.120967 
L 314.044816 236.447933 
L 317.414344 238.49281 
L 320.747774 240.224526 
L 324.016058 241.61201 
L 327.190146 242.624192 
L 330.240989 243.23 
L 333.250565 243.386501 
L 336.317062 243.097129 
L 339.435749 242.400361 
L 342.601893 241.334674 
L 345.810763 239.938546 
L 349.057625 238.250454 
L 352.337749 236.308876 
L 355.646401 234.152287 
L 362.330365 229.347992 
L 372.451972 221.490909 
L 379.208278 216.267997 
L 385.927271 211.41632 
L 389.260945 209.225888 
L 392.571094 207.243697 
L 392.571094 207.243697 
" style="fill:none;stroke:#fea952;stroke-linecap:square;"/>
   </g>
   <g id="line2d_13">
    <path clip-path="url(#pc280ebcd81)" d="M 74.873365 300.643148 
L 75.178429 277.825754 
L 76.063372 221.64206 
L 75.685229 214.187056 
L 74.038542 190.392171 
L 73.832727 182.133893 
L 73.891385 177.962562 
L 74.090381 173.768429 
L 74.455983 169.556427 
L 75.015867 165.333067 
L 75.79884 161.107299 
L 76.834194 156.891425 
L 78.099081 152.838688 
L 79.537034 148.978152 
L 81.144517 145.165003 
L 82.910289 141.401321 
L 84.823748 137.689301 
L 86.874821 134.031318 
L 89.053861 130.429966 
L 91.351568 126.888071 
L 93.758921 123.408685 
L 96.267128 119.995079 
L 101.551856 113.379279 
L 107.138768 107.07049 
L 112.963081 101.100778 
L 118.962249 95.503847 
L 125.120686 90.279803 
L 128.327828 87.779396 
L 131.622408 85.37893 
L 134.997378 83.075726 
L 138.445903 80.867237 
L 145.537066 76.724906 
L 152.843929 72.934332 
L 160.315778 69.480006 
L 167.902592 66.348261 
L 175.554705 63.526974 
L 183.222645 61.005288 
L 190.857091 58.773378 
L 206.022193 54.837855 
L 214.260813 52.853978 
L 222.81398 51.033701 
L 231.564064 49.534 
L 235.981181 48.956122 
L 240.411934 48.522764 
L 244.847132 48.25865 
L 249.278659 48.19127 
L 253.698884 48.351864 
L 258.099386 48.776516 
L 262.468632 49.507044 
L 266.788231 50.591035 
L 271.027853 52.079821 
L 275.041596 53.965025 
L 278.732126 56.166255 
L 282.244842 58.682247 
L 285.59882 61.476595 
L 288.807217 64.519924 
L 291.877654 67.786744 
L 294.813155 71.253605 
L 297.613127 74.898086 
L 300.274197 78.698295 
L 302.790862 82.632675 
L 305.155974 86.679991 
L 307.361066 90.819436 
L 309.396567 95.030826 
L 311.251878 99.294884 
L 312.915324 103.593608 
L 314.373929 107.910752 
L 315.612948 112.232425 
L 316.615017 116.547807 
L 317.358703 120.849912 
L 317.825662 125.635786 
L 317.691467 130.714337 
L 316.893256 135.528537 
L 315.595676 140.089202 
L 313.924256 144.435993 
L 311.974334 148.610112 
L 309.823158 152.64357 
L 307.538718 156.557005 
L 302.824616 164.054943 
L 298.335151 171.077812 
L 294.570417 177.456972 
L 293.105177 180.304179 
L 291.975068 182.84167 
L 291.190337 184.995424 
L 290.463449 187.97041 
L 290.492535 189.435315 
L 290.996222 191.570354 
L 291.85118 194.02544 
L 293.047701 196.717947 
L 294.563707 199.577922 
L 296.370822 202.545485 
L 298.437441 205.568121 
L 300.730179 208.598521 
L 303.214448 211.593008 
L 305.854565 214.510421 
L 308.613547 217.311351 
L 311.452651 219.957652 
L 314.330653 222.412195 
L 317.202784 224.638924 
L 320.01923 226.603351 
L 322.723081 228.273869 
L 325.24778 229.624555 
L 327.51468 230.640726 
L 330.839006 231.729921 
L 332.168692 231.921817 
L 333.806179 231.858584 
L 335.762236 231.486391 
L 338.007639 230.775211 
L 340.498686 229.721341 
L 343.191852 228.340755 
L 346.049652 226.661634 
L 349.041858 224.718866 
L 355.340572 220.196367 
L 365.36638 212.413255 
L 372.357846 207.011593 
L 379.603689 201.792301 
L 383.344766 199.346198 
L 386.654916 197.364007 
L 386.654916 197.364007 
" style="fill:none;stroke:#ffffff;stroke-linecap:square;"/>
   </g>
   <g id="line2d_14">
    <path clip-path="url(#pc280ebcd81)" d="M 97.903532 300.86473 
L 98.206097 278.231044 
L 99.168118 224.724466 
L 98.897222 216.603272 
L 98.087899 204.688228 
L 97.254989 193.228668 
L 96.918322 185.938445 
L 96.898912 179.007289 
L 97.040618 175.698298 
L 97.297782 172.504298 
L 97.679517 169.431446 
L 98.193809 166.483461 
L 98.848156 163.660709 
L 99.702197 160.822615 
L 100.779414 157.877537 
L 102.014085 154.906609 
L 103.399831 151.918754 
L 104.929633 148.922784 
L 106.595944 145.927328 
L 108.39079 142.940798 
L 112.332529 137.02701 
L 116.68523 131.244195 
L 121.376149 125.65194 
L 126.330184 120.307266 
L 131.470071 115.265263 
L 136.716106 110.579649 
L 141.91564 106.37534 
L 147.439306 102.457061 
L 153.333245 98.778956 
L 159.542959 95.348074 
L 166.012299 92.169282 
L 172.684177 89.245469 
L 179.501004 86.577833 
L 186.404937 84.166165 
L 193.337973 82.009119 
L 200.335056 80.080682 
L 215.377964 76.251996 
L 223.126769 74.476644 
L 230.815724 72.974673 
L 238.264515 71.873891 
L 241.837172 71.509856 
L 245.27319 71.285942 
L 248.544559 71.210801 
L 251.622786 71.289335 
L 254.480167 71.521603 
L 257.092111 71.901927 
L 259.440884 72.418866 
L 261.52069 73.057228 
L 263.441308 73.861534 
L 265.461257 74.989692 
L 267.60332 76.460424 
L 269.82279 78.256184 
L 272.080877 80.352399 
L 274.34433 82.720607 
L 276.584493 85.33031 
L 278.776325 88.149978 
L 280.897569 91.147553 
L 282.928095 94.290642 
L 284.849422 97.546531 
L 286.644382 100.882075 
L 288.296916 104.263509 
L 289.79199 107.65616 
L 291.115649 111.02408 
L 292.255236 114.329566 
L 293.199864 117.532558 
L 293.941266 120.589926 
L 294.794506 125.575902 
L 294.910948 127.32528 
L 294.674723 129.464337 
L 294.0453 131.963991 
L 293.021263 134.766318 
L 291.631392 137.811851 
L 289.92255 141.050315 
L 287.950864 144.44281 
L 283.460848 151.585692 
L 278.651135 159.120501 
L 276.279631 163.03553 
L 274.01455 167.069766 
L 271.926116 171.25514 
L 270.099358 175.638125 
L 268.648146 180.274478 
L 267.732526 185.20715 
L 267.562378 190.41554 
L 268.204808 195.240049 
L 269.350598 199.438305 
L 270.886297 203.560187 
L 272.763514 207.626178 
L 274.946231 211.644089 
L 277.404723 215.611657 
L 280.112497 219.519255 
L 283.044842 223.352049 
L 286.178246 227.091574 
L 289.490294 230.716851 
L 292.959872 234.205142 
L 296.567623 237.532454 
L 300.296674 240.673772 
L 304.133694 243.603011 
L 308.070402 246.292516 
L 312.105607 248.711751 
L 316.247769 250.824497 
L 320.517437 252.583295 
L 324.947275 253.919278 
L 329.642973 254.730078 
L 334.332437 254.851185 
L 338.827945 254.335674 
L 343.109262 253.314331 
L 347.196147 251.894137 
L 351.122839 250.155751 
L 354.923399 248.160153 
L 358.625846 245.956117 
L 362.250945 243.585708 
L 369.320157 238.499616 
L 379.537565 230.568564 
L 386.05871 225.524401 
L 392.250853 221.040339 
L 395.177123 219.105577 
L 398.487273 217.123386 
L 398.487273 217.123386 
" style="fill:none;stroke:#ffffff;stroke-linecap:square;"/>
   </g>
   <g id="patch_3">
    <path d="M 57.6 307.584 
L 57.6 41.472 
" style="fill:none;stroke:#000000;stroke-linecap:square;stroke-linejoin:miter;stroke-width:0.8;"/>
   </g>
   <g id="patch_4">
    <path d="M 414.72 307.584 
L 414.72 41.472 
" style="fill:none;stroke:#000000;stroke-linecap:square;stroke-linejoin:miter;stroke-width:0.8;"/>
   </g>
   <g id="patch_5">
    <path d="M 57.6 307.584 
L 414.72 307.584 
" style="fill:none;stroke:#000000;stroke-linecap:square;stroke-linejoin:miter;stroke-width:0.8;"/>
   </g>
   <g id="patch_6">
    <path d="M 57.6 41.472 
L 414.72 41.472 
" style="fill:none;stroke:#000000;stroke-linecap:square;stroke-linejoin:miter;stroke-width:0.8;"/>
   </g>
  </g>
 </g>
 <defs>
  <clipPath id="pc280ebcd81">
   <rect height="266.112" width="357.12" x="57.6" y="41.472"/>
  </clipPath>
 </defs>
</svg>
