<?xml version="1.0" encoding="utf-8" standalone="no"?>
<!DOCTYPE svg PUBLIC "-//W3C//DTD SVG 1.1//EN"
  "http://www.w3.org/Graphics/SVG/1.1/DTD/svg11.dtd">
<!-- Created with matplotlib (https://matplotlib.org/) -->
<svg height="345.6pt" version="1.1" viewBox="0 0 460.8 345.6" width="460.8pt" xmlns="http://www.w3.org/2000/svg" xmlns:xlink="http://www.w3.org/1999/xlink">
 <metadata>
  <rdf:RDF xmlns:cc="http://creativecommons.org/ns#" xmlns:dc="http://purl.org/dc/elements/1.1/" xmlns:rdf="http://www.w3.org/1999/02/22-rdf-syntax-ns#">
   <cc:Work>
    <dc:type rdf:resource="http://purl.org/dc/dcmitype/StillImage"/>
    <dc:date>2021-05-27T18:45:10.109483</dc:date>
    <dc:format>image/svg+xml</dc:format>
    <dc:creator>
     <cc:Agent>
      <dc:title>Matplotlib v3.3.3, https://matplotlib.org/</dc:title>
     </cc:Agent>
    </dc:creator>
   </cc:Work>
  </rdf:RDF>
 </metadata>
 <defs>
  <style type="text/css">*{stroke-linecap:butt;stroke-linejoin:round;}</style>
 </defs>
 <g id="figure_1">
  <g id="patch_1">
   <path d="M 0 345.6 
L 460.8 345.6 
L 460.8 0 
L 0 0 
z
" style="fill:#ffffff;"/>
  </g>
  <g id="axes_1">
   <g id="patch_2">
    <path d="M 57.6 307.584 
L 414.72 307.584 
L 414.72 41.472 
L 57.6 41.472 
z
" style="fill:#7d9051;"/>
   </g>
   <g id="matplotlib.axis_1">
    <g id="xtick_1">
     <g id="line2d_1">
      <defs>
       <path d="M 0 0 
L 0 3.5 
" id="ma9e92a8356" style="stroke:#000000;stroke-width:0.8;"/>
      </defs>
      <g>
       <use style="stroke:#000000;stroke-width:0.8;" x="83.389292" xlink:href="#ma9e92a8356" y="307.584"/>
      </g>
     </g>
     <g id="text_1">
      <!-- 0 -->
      <g transform="translate(80.208042 322.182437)scale(0.1 -0.1)">
       <defs>
        <path d="M 31.78125 66.40625 
Q 24.171875 66.40625 20.328125 58.90625 
Q 16.5 51.421875 16.5 36.375 
Q 16.5 21.390625 20.328125 13.890625 
Q 24.171875 6.390625 31.78125 6.390625 
Q 39.453125 6.390625 43.28125 13.890625 
Q 47.125 21.390625 47.125 36.375 
Q 47.125 51.421875 43.28125 58.90625 
Q 39.453125 66.40625 31.78125 66.40625 
z
M 31.78125 74.21875 
Q 44.046875 74.21875 50.515625 64.515625 
Q 56.984375 54.828125 56.984375 36.375 
Q 56.984375 17.96875 50.515625 8.265625 
Q 44.046875 -1.421875 31.78125 -1.421875 
Q 19.53125 -1.421875 13.0625 8.265625 
Q 6.59375 17.96875 6.59375 36.375 
Q 6.59375 54.828125 13.0625 64.515625 
Q 19.53125 74.21875 31.78125 74.21875 
z
" id="DejaVuSans-48"/>
       </defs>
       <use xlink:href="#DejaVuSans-48"/>
      </g>
     </g>
    </g>
    <g id="xtick_2">
     <g id="line2d_2">
      <g>
       <use style="stroke:#000000;stroke-width:0.8;" x="130.808677" xlink:href="#ma9e92a8356" y="307.584"/>
      </g>
     </g>
     <g id="text_2">
      <!-- 25 -->
      <g transform="translate(124.446177 322.182437)scale(0.1 -0.1)">
       <defs>
        <path d="M 19.1875 8.296875 
L 53.609375 8.296875 
L 53.609375 0 
L 7.328125 0 
L 7.328125 8.296875 
Q 12.9375 14.109375 22.625 23.890625 
Q 32.328125 33.6875 34.8125 36.53125 
Q 39.546875 41.84375 41.421875 45.53125 
Q 43.3125 49.21875 43.3125 52.78125 
Q 43.3125 58.59375 39.234375 62.25 
Q 35.15625 65.921875 28.609375 65.921875 
Q 23.96875 65.921875 18.8125 64.3125 
Q 13.671875 62.703125 7.8125 59.421875 
L 7.8125 69.390625 
Q 13.765625 71.78125 18.9375 73 
Q 24.125 74.21875 28.421875 74.21875 
Q 39.75 74.21875 46.484375 68.546875 
Q 53.21875 62.890625 53.21875 53.421875 
Q 53.21875 48.921875 51.53125 44.890625 
Q 49.859375 40.875 45.40625 35.40625 
Q 44.1875 33.984375 37.640625 27.21875 
Q 31.109375 20.453125 19.1875 8.296875 
z
" id="DejaVuSans-50"/>
        <path d="M 10.796875 72.90625 
L 49.515625 72.90625 
L 49.515625 64.59375 
L 19.828125 64.59375 
L 19.828125 46.734375 
Q 21.96875 47.46875 24.109375 47.828125 
Q 26.265625 48.1875 28.421875 48.1875 
Q 40.625 48.1875 47.75 41.5 
Q 54.890625 34.8125 54.890625 23.390625 
Q 54.890625 11.625 47.5625 5.09375 
Q 40.234375 -1.421875 26.90625 -1.421875 
Q 22.3125 -1.421875 17.546875 -0.640625 
Q 12.796875 0.140625 7.71875 1.703125 
L 7.71875 11.625 
Q 12.109375 9.234375 16.796875 8.0625 
Q 21.484375 6.890625 26.703125 6.890625 
Q 35.15625 6.890625 40.078125 11.328125 
Q 45.015625 15.765625 45.015625 23.390625 
Q 45.015625 31 40.078125 35.4375 
Q 35.15625 39.890625 26.703125 39.890625 
Q 22.75 39.890625 18.8125 39.015625 
Q 14.890625 38.140625 10.796875 36.28125 
z
" id="DejaVuSans-53"/>
       </defs>
       <use xlink:href="#DejaVuSans-50"/>
       <use x="63.623047" xlink:href="#DejaVuSans-53"/>
      </g>
     </g>
    </g>
    <g id="xtick_3">
     <g id="line2d_3">
      <g>
       <use style="stroke:#000000;stroke-width:0.8;" x="178.228063" xlink:href="#ma9e92a8356" y="307.584"/>
      </g>
     </g>
     <g id="text_3">
      <!-- 50 -->
      <g transform="translate(171.865563 322.182437)scale(0.1 -0.1)">
       <use xlink:href="#DejaVuSans-53"/>
       <use x="63.623047" xlink:href="#DejaVuSans-48"/>
      </g>
     </g>
    </g>
    <g id="xtick_4">
     <g id="line2d_4">
      <g>
       <use style="stroke:#000000;stroke-width:0.8;" x="225.647448" xlink:href="#ma9e92a8356" y="307.584"/>
      </g>
     </g>
     <g id="text_4">
      <!-- 75 -->
      <g transform="translate(219.284948 322.182437)scale(0.1 -0.1)">
       <defs>
        <path d="M 8.203125 72.90625 
L 55.078125 72.90625 
L 55.078125 68.703125 
L 28.609375 0 
L 18.3125 0 
L 43.21875 64.59375 
L 8.203125 64.59375 
z
" id="DejaVuSans-55"/>
       </defs>
       <use xlink:href="#DejaVuSans-55"/>
       <use x="63.623047" xlink:href="#DejaVuSans-53"/>
      </g>
     </g>
    </g>
    <g id="xtick_5">
     <g id="line2d_5">
      <g>
       <use style="stroke:#000000;stroke-width:0.8;" x="273.066834" xlink:href="#ma9e92a8356" y="307.584"/>
      </g>
     </g>
     <g id="text_5">
      <!-- 100 -->
      <g transform="translate(263.523084 322.182437)scale(0.1 -0.1)">
       <defs>
        <path d="M 12.40625 8.296875 
L 28.515625 8.296875 
L 28.515625 63.921875 
L 10.984375 60.40625 
L 10.984375 69.390625 
L 28.421875 72.90625 
L 38.28125 72.90625 
L 38.28125 8.296875 
L 54.390625 8.296875 
L 54.390625 0 
L 12.40625 0 
z
" id="DejaVuSans-49"/>
       </defs>
       <use xlink:href="#DejaVuSans-49"/>
       <use x="63.623047" xlink:href="#DejaVuSans-48"/>
       <use x="127.246094" xlink:href="#DejaVuSans-48"/>
      </g>
     </g>
    </g>
    <g id="xtick_6">
     <g id="line2d_6">
      <g>
       <use style="stroke:#000000;stroke-width:0.8;" x="320.486219" xlink:href="#ma9e92a8356" y="307.584"/>
      </g>
     </g>
     <g id="text_6">
      <!-- 125 -->
      <g transform="translate(310.942469 322.182437)scale(0.1 -0.1)">
       <use xlink:href="#DejaVuSans-49"/>
       <use x="63.623047" xlink:href="#DejaVuSans-50"/>
       <use x="127.246094" xlink:href="#DejaVuSans-53"/>
      </g>
     </g>
    </g>
    <g id="xtick_7">
     <g id="line2d_7">
      <g>
       <use style="stroke:#000000;stroke-width:0.8;" x="367.905605" xlink:href="#ma9e92a8356" y="307.584"/>
      </g>
     </g>
     <g id="text_7">
      <!-- 150 -->
      <g transform="translate(358.361855 322.182437)scale(0.1 -0.1)">
       <use xlink:href="#DejaVuSans-49"/>
       <use x="63.623047" xlink:href="#DejaVuSans-53"/>
       <use x="127.246094" xlink:href="#DejaVuSans-48"/>
      </g>
     </g>
    </g>
   </g>
   <g id="matplotlib.axis_2">
    <g id="ytick_1">
     <g id="line2d_8">
      <defs>
       <path d="M 0 0 
L -3.5 0 
" id="m08f43536b5" style="stroke:#000000;stroke-width:0.8;"/>
      </defs>
      <g>
       <use style="stroke:#000000;stroke-width:0.8;" x="57.6" xlink:href="#m08f43536b5" y="307.51008"/>
      </g>
     </g>
     <g id="text_8">
      <!-- −40 -->
      <g transform="translate(29.495313 311.309298)scale(0.1 -0.1)">
       <defs>
        <path d="M 10.59375 35.5 
L 73.1875 35.5 
L 73.1875 27.203125 
L 10.59375 27.203125 
z
" id="DejaVuSans-8722"/>
        <path d="M 37.796875 64.3125 
L 12.890625 25.390625 
L 37.796875 25.390625 
z
M 35.203125 72.90625 
L 47.609375 72.90625 
L 47.609375 25.390625 
L 58.015625 25.390625 
L 58.015625 17.1875 
L 47.609375 17.1875 
L 47.609375 0 
L 37.796875 0 
L 37.796875 17.1875 
L 4.890625 17.1875 
L 4.890625 26.703125 
z
" id="DejaVuSans-52"/>
       </defs>
       <use xlink:href="#DejaVuSans-8722"/>
       <use x="83.789062" xlink:href="#DejaVuSans-52"/>
       <use x="147.412109" xlink:href="#DejaVuSans-48"/>
      </g>
     </g>
    </g>
    <g id="ytick_2">
     <g id="line2d_9">
      <g>
       <use style="stroke:#000000;stroke-width:0.8;" x="57.6" xlink:href="#m08f43536b5" y="269.574571"/>
      </g>
     </g>
     <g id="text_9">
      <!-- −20 -->
      <g transform="translate(29.495313 273.37379)scale(0.1 -0.1)">
       <use xlink:href="#DejaVuSans-8722"/>
       <use x="83.789062" xlink:href="#DejaVuSans-50"/>
       <use x="147.412109" xlink:href="#DejaVuSans-48"/>
      </g>
     </g>
    </g>
    <g id="ytick_3">
     <g id="line2d_10">
      <g>
       <use style="stroke:#000000;stroke-width:0.8;" x="57.6" xlink:href="#m08f43536b5" y="231.639063"/>
      </g>
     </g>
     <g id="text_10">
      <!-- 0 -->
      <g transform="translate(44.2375 235.438282)scale(0.1 -0.1)">
       <use xlink:href="#DejaVuSans-48"/>
      </g>
     </g>
    </g>
    <g id="ytick_4">
     <g id="line2d_11">
      <g>
       <use style="stroke:#000000;stroke-width:0.8;" x="57.6" xlink:href="#m08f43536b5" y="193.703554"/>
      </g>
     </g>
     <g id="text_11">
      <!-- 20 -->
      <g transform="translate(37.875 197.502773)scale(0.1 -0.1)">
       <use xlink:href="#DejaVuSans-50"/>
       <use x="63.623047" xlink:href="#DejaVuSans-48"/>
      </g>
     </g>
    </g>
    <g id="ytick_5">
     <g id="line2d_12">
      <g>
       <use style="stroke:#000000;stroke-width:0.8;" x="57.6" xlink:href="#m08f43536b5" y="155.768046"/>
      </g>
     </g>
     <g id="text_12">
      <!-- 40 -->
      <g transform="translate(37.875 159.567265)scale(0.1 -0.1)">
       <use xlink:href="#DejaVuSans-52"/>
       <use x="63.623047" xlink:href="#DejaVuSans-48"/>
      </g>
     </g>
    </g>
    <g id="ytick_6">
     <g id="line2d_13">
      <g>
       <use style="stroke:#000000;stroke-width:0.8;" x="57.6" xlink:href="#m08f43536b5" y="117.832538"/>
      </g>
     </g>
     <g id="text_13">
      <!-- 60 -->
      <g transform="translate(37.875 121.631756)scale(0.1 -0.1)">
       <defs>
        <path d="M 33.015625 40.375 
Q 26.375 40.375 22.484375 35.828125 
Q 18.609375 31.296875 18.609375 23.390625 
Q 18.609375 15.53125 22.484375 10.953125 
Q 26.375 6.390625 33.015625 6.390625 
Q 39.65625 6.390625 43.53125 10.953125 
Q 47.40625 15.53125 47.40625 23.390625 
Q 47.40625 31.296875 43.53125 35.828125 
Q 39.65625 40.375 33.015625 40.375 
z
M 52.59375 71.296875 
L 52.59375 62.3125 
Q 48.875 64.0625 45.09375 64.984375 
Q 41.3125 65.921875 37.59375 65.921875 
Q 27.828125 65.921875 22.671875 59.328125 
Q 17.53125 52.734375 16.796875 39.40625 
Q 19.671875 43.65625 24.015625 45.921875 
Q 28.375 48.1875 33.59375 48.1875 
Q 44.578125 48.1875 50.953125 41.515625 
Q 57.328125 34.859375 57.328125 23.390625 
Q 57.328125 12.15625 50.6875 5.359375 
Q 44.046875 -1.421875 33.015625 -1.421875 
Q 20.359375 -1.421875 13.671875 8.265625 
Q 6.984375 17.96875 6.984375 36.375 
Q 6.984375 53.65625 15.1875 63.9375 
Q 23.390625 74.21875 37.203125 74.21875 
Q 40.921875 74.21875 44.703125 73.484375 
Q 48.484375 72.75 52.59375 71.296875 
z
" id="DejaVuSans-54"/>
       </defs>
       <use xlink:href="#DejaVuSans-54"/>
       <use x="63.623047" xlink:href="#DejaVuSans-48"/>
      </g>
     </g>
    </g>
    <g id="ytick_7">
     <g id="line2d_14">
      <g>
       <use style="stroke:#000000;stroke-width:0.8;" x="57.6" xlink:href="#m08f43536b5" y="79.897029"/>
      </g>
     </g>
     <g id="text_14">
      <!-- 80 -->
      <g transform="translate(37.875 83.696248)scale(0.1 -0.1)">
       <defs>
        <path d="M 31.78125 34.625 
Q 24.75 34.625 20.71875 30.859375 
Q 16.703125 27.09375 16.703125 20.515625 
Q 16.703125 13.921875 20.71875 10.15625 
Q 24.75 6.390625 31.78125 6.390625 
Q 38.8125 6.390625 42.859375 10.171875 
Q 46.921875 13.96875 46.921875 20.515625 
Q 46.921875 27.09375 42.890625 30.859375 
Q 38.875 34.625 31.78125 34.625 
z
M 21.921875 38.8125 
Q 15.578125 40.375 12.03125 44.71875 
Q 8.5 49.078125 8.5 55.328125 
Q 8.5 64.0625 14.71875 69.140625 
Q 20.953125 74.21875 31.78125 74.21875 
Q 42.671875 74.21875 48.875 69.140625 
Q 55.078125 64.0625 55.078125 55.328125 
Q 55.078125 49.078125 51.53125 44.71875 
Q 48 40.375 41.703125 38.8125 
Q 48.828125 37.15625 52.796875 32.3125 
Q 56.78125 27.484375 56.78125 20.515625 
Q 56.78125 9.90625 50.3125 4.234375 
Q 43.84375 -1.421875 31.78125 -1.421875 
Q 19.734375 -1.421875 13.25 4.234375 
Q 6.78125 9.90625 6.78125 20.515625 
Q 6.78125 27.484375 10.78125 32.3125 
Q 14.796875 37.15625 21.921875 38.8125 
z
M 18.3125 54.390625 
Q 18.3125 48.734375 21.84375 45.5625 
Q 25.390625 42.390625 31.78125 42.390625 
Q 38.140625 42.390625 41.71875 45.5625 
Q 45.3125 48.734375 45.3125 54.390625 
Q 45.3125 60.0625 41.71875 63.234375 
Q 38.140625 66.40625 31.78125 66.40625 
Q 25.390625 66.40625 21.84375 63.234375 
Q 18.3125 60.0625 18.3125 54.390625 
z
" id="DejaVuSans-56"/>
       </defs>
       <use xlink:href="#DejaVuSans-56"/>
       <use x="63.623047" xlink:href="#DejaVuSans-48"/>
      </g>
     </g>
    </g>
    <g id="ytick_8">
     <g id="line2d_15">
      <g>
       <use style="stroke:#000000;stroke-width:0.8;" x="57.6" xlink:href="#m08f43536b5" y="41.961521"/>
      </g>
     </g>
     <g id="text_15">
      <!-- 100 -->
      <g transform="translate(31.5125 45.76074)scale(0.1 -0.1)">
       <use xlink:href="#DejaVuSans-49"/>
       <use x="63.623047" xlink:href="#DejaVuSans-48"/>
       <use x="127.246094" xlink:href="#DejaVuSans-48"/>
      </g>
     </g>
    </g>
   </g>
   <g id="line2d_16">
    <path clip-path="url(#p1736b18f41)" d="M 83.389292 231.639063 
L 83.67935 211.675537 
L 84.201144 181.684364 
L 83.873249 176.363497 
L 82.936755 168.028504 
L 81.940974 159.646353 
L 81.50768 154.241648 
L 81.443283 149.130376 
L 81.598826 146.724077 
L 81.905881 144.438296 
L 82.384209 142.288751 
L 83.053573 140.291163 
L 83.933734 138.461252 
L 85.044456 136.814736 
L 86.403847 135.318796 
L 88.002569 133.929273 
L 89.819215 132.644882 
L 91.832378 131.464335 
L 94.020652 130.386348 
L 96.36263 129.409633 
L 98.836904 128.532905 
L 101.422069 127.754877 
L 106.839441 126.489778 
L 112.443493 125.604046 
L 118.062969 125.087392 
L 123.526615 124.929527 
L 128.663176 125.12016 
L 131.055284 125.342949 
L 133.36443 125.745096 
L 135.648361 126.401865 
L 137.909851 127.282654 
L 140.151676 128.356861 
L 142.376611 129.593884 
L 146.78691 132.433971 
L 153.345058 137.150179 
L 157.711333 140.241348 
L 162.09885 143.004524 
L 164.307511 144.18661 
L 166.529809 145.194892 
L 168.768517 145.998769 
L 171.026411 146.567639 
L 173.306265 146.870899 
L 175.606554 146.886881 
L 177.9228 146.634999 
L 180.253354 146.146277 
L 182.596566 145.45174 
L 184.950787 144.582413 
L 189.685659 142.443487 
L 196.829301 138.699787 
L 201.600041 136.209067 
L 206.362036 134.011975 
L 208.735631 133.101101 
L 211.102092 132.356707 
L 213.459769 131.809819 
L 215.807014 131.491461 
L 218.142175 131.432657 
L 220.46798 131.604591 
L 222.788501 131.948077 
L 225.104115 132.448593 
L 227.415194 133.091613 
L 232.025249 134.747068 
L 236.621662 136.79825 
L 241.207429 139.128962 
L 259.503944 148.923223 
L 266.353517 152.115584 
L 270.890096 154.523712 
L 286.713479 163.315236 
L 291.259447 165.464354 
L 295.834579 167.244927 
L 298.136158 167.961669 
L 300.448719 168.543868 
L 302.773494 168.977386 
L 305.111714 169.248089 
L 307.464364 169.349636 
L 309.830753 169.293849 
L 312.209594 169.093837 
L 314.599603 168.762707 
L 319.407976 167.759525 
L 324.245587 166.389169 
L 329.102146 164.7565 
L 338.830961 161.123685 
L 346.100801 158.49043 
L 350.915323 156.975049 
L 362.881437 153.440268 
L 381.958045 147.543375 
L 396.262707 143.110962 
L 396.262707 143.110962 
" style="fill:none;stroke:#fea952;stroke-linecap:square;"/>
   </g>
   <g id="line2d_17">
    <path clip-path="url(#p1736b18f41)" d="M 75.802541 231.566068 
L 76.093631 211.530655 
L 76.622099 182.033911 
L 76.323245 177.112865 
L 75.408396 168.970803 
L 74.386186 160.345847 
L 73.924939 154.498836 
L 73.832727 151.569582 
L 73.871983 148.640967 
L 74.079267 145.713957 
L 74.499926 142.790284 
L 75.190244 139.878154 
L 76.216258 137.002511 
L 77.643978 134.218248 
L 79.429419 131.71224 
L 81.42672 129.592339 
L 83.622543 127.734156 
L 85.981263 126.100095 
L 88.479566 124.658253 
L 91.100267 123.383815 
L 93.828612 122.258209 
L 96.650377 121.2677 
L 99.55102 120.402103 
L 102.515383 119.653786 
L 105.527676 119.016935 
L 111.63036 118.060643 
L 117.725049 117.50782 
L 123.678327 117.343942 
L 129.366755 117.565752 
L 132.357015 117.868351 
L 135.461212 118.453483 
L 138.401862 119.332046 
L 141.188388 120.440483 
L 143.838458 121.72574 
L 146.371456 123.143665 
L 151.153438 126.229332 
L 163.818933 135.181983 
L 167.442302 137.277398 
L 169.093896 138.054194 
L 170.622138 138.641582 
L 172.026816 139.046781 
L 173.358978 139.283981 
L 174.786323 139.344247 
L 176.365639 139.20941 
L 178.097229 138.871991 
L 179.968388 138.334382 
L 181.961759 137.608905 
L 186.24971 135.678994 
L 193.271567 131.998545 
L 198.300651 129.376927 
L 203.643747 126.928542 
L 206.459011 125.863621 
L 209.387702 124.965836 
L 212.440063 124.291554 
L 215.616018 123.906763 
L 218.70152 123.866202 
L 221.578928 124.099266 
L 224.391422 124.532232 
L 227.137849 125.139144 
L 229.820135 125.895755 
L 232.442066 126.779819 
L 237.523621 128.850574 
L 242.419095 131.206122 
L 249.473134 134.992339 
L 258.396303 139.886932 
L 262.637657 142.013522 
L 269.850668 145.382528 
L 274.590587 147.900232 
L 290.055021 156.503613 
L 294.156735 158.452234 
L 298.090449 160.000953 
L 301.839568 161.085339 
L 303.646049 161.440625 
L 305.43889 161.668045 
L 307.285551 161.764642 
L 309.195074 161.733425 
L 311.168365 161.578522 
L 315.298598 160.919578 
L 319.649205 159.844895 
L 324.186597 158.430654 
L 331.280129 155.871114 
L 341.185534 152.168869 
L 346.320953 150.436182 
L 382.084028 139.556315 
L 394.038141 135.857314 
L 394.038141 135.857314 
" style="fill:none;stroke:#ffffff;stroke-linecap:square;"/>
   </g>
   <g id="line2d_18">
    <path clip-path="url(#p1736b18f41)" d="M 90.976042 231.712058 
L 91.265068 211.820419 
L 91.780189 181.334816 
L 91.423253 175.614128 
L 90.465114 167.086205 
L 89.495762 158.946859 
L 89.090421 153.984459 
L 89.014583 149.619786 
L 89.311836 146.086308 
L 89.890888 143.579816 
L 90.223491 142.704255 
L 90.659493 141.917233 
L 91.380975 141.045253 
L 92.382595 140.124391 
L 93.657167 139.189669 
L 95.185191 138.270418 
L 96.941037 137.388881 
L 98.896647 136.561057 
L 101.023431 135.798111 
L 105.67805 134.494742 
L 110.686101 133.51321 
L 115.836866 132.86552 
L 120.922492 132.550729 
L 125.73037 132.557606 
L 129.753552 132.817546 
L 131.267648 133.036709 
L 132.894859 133.471684 
L 134.631314 134.124825 
L 136.464894 134.987981 
L 138.381766 136.044103 
L 142.420381 138.63861 
L 148.911254 143.306923 
L 153.546825 146.58335 
L 155.983164 148.176488 
L 158.518707 149.69382 
L 161.172721 151.095821 
L 163.965721 152.33559 
L 166.914895 153.355956 
L 170.026005 154.088496 
L 173.253553 154.457818 
L 176.426785 154.429515 
L 179.479961 154.060587 
L 182.409479 153.420563 
L 185.224744 152.569099 
L 187.939815 151.555922 
L 193.121609 149.20798 
L 200.387034 145.401029 
L 204.89943 143.041207 
L 209.080325 141.095408 
L 212.816483 139.747578 
L 214.479476 139.328084 
L 215.998009 139.076158 
L 217.58283 138.999113 
L 219.357032 139.109916 
L 221.18558 139.363922 
L 223.070381 139.758041 
L 227.002162 140.945407 
L 231.126326 142.610337 
L 235.412284 144.665731 
L 242.097956 148.253681 
L 251.46531 153.385738 
L 256.370231 155.832923 
L 262.856366 158.84864 
L 267.189605 161.147191 
L 283.371937 170.126859 
L 288.362159 172.476475 
L 290.939593 173.534324 
L 293.578709 174.488901 
L 296.283867 175.319191 
L 299.057871 176.002396 
L 301.90094 176.514147 
L 304.784538 176.828133 
L 307.643177 176.93463 
L 310.466431 176.854274 
L 313.250823 176.609152 
L 315.995299 176.22033 
L 321.367489 175.08922 
L 326.594604 173.603476 
L 331.688523 171.889155 
L 341.489348 168.229815 
L 348.464146 165.700056 
L 353.019656 164.264486 
L 365.087764 160.699485 
L 384.217642 154.786187 
L 398.487273 150.364611 
L 398.487273 150.364611 
" style="fill:none;stroke:#ffffff;stroke-linecap:square;"/>
   </g>
   <g id="patch_3">
    <path d="M 57.6 307.584 
L 57.6 41.472 
" style="fill:none;stroke:#000000;stroke-linecap:square;stroke-linejoin:miter;stroke-width:0.8;"/>
   </g>
   <g id="patch_4">
    <path d="M 414.72 307.584 
L 414.72 41.472 
" style="fill:none;stroke:#000000;stroke-linecap:square;stroke-linejoin:miter;stroke-width:0.8;"/>
   </g>
   <g id="patch_5">
    <path d="M 57.6 307.584 
L 414.72 307.584 
" style="fill:none;stroke:#000000;stroke-linecap:square;stroke-linejoin:miter;stroke-width:0.8;"/>
   </g>
   <g id="patch_6">
    <path d="M 57.6 41.472 
L 414.72 41.472 
" style="fill:none;stroke:#000000;stroke-linecap:square;stroke-linejoin:miter;stroke-width:0.8;"/>
   </g>
  </g>
 </g>
 <defs>
  <clipPath id="p1736b18f41">
   <rect height="266.112" width="357.12" x="57.6" y="41.472"/>
  </clipPath>
 </defs>
</svg>
