<?xml version="1.0" encoding="utf-8" standalone="no"?>
<!DOCTYPE svg PUBLIC "-//W3C//DTD SVG 1.1//EN"
  "http://www.w3.org/Graphics/SVG/1.1/DTD/svg11.dtd">
<!-- Created with matplotlib (https://matplotlib.org/) -->
<svg height="345.6pt" version="1.1" viewBox="0 0 460.8 345.6" width="460.8pt" xmlns="http://www.w3.org/2000/svg" xmlns:xlink="http://www.w3.org/1999/xlink">
 <metadata>
  <rdf:RDF xmlns:cc="http://creativecommons.org/ns#" xmlns:dc="http://purl.org/dc/elements/1.1/" xmlns:rdf="http://www.w3.org/1999/02/22-rdf-syntax-ns#">
   <cc:Work>
    <dc:type rdf:resource="http://purl.org/dc/dcmitype/StillImage"/>
    <dc:date>2021-06-17T15:14:28.460985</dc:date>
    <dc:format>image/svg+xml</dc:format>
    <dc:creator>
     <cc:Agent>
      <dc:title>Matplotlib v3.3.3, https://matplotlib.org/</dc:title>
     </cc:Agent>
    </dc:creator>
   </cc:Work>
  </rdf:RDF>
 </metadata>
 <defs>
  <style type="text/css">*{stroke-linecap:butt;stroke-linejoin:round;}</style>
 </defs>
 <g id="figure_1">
  <g id="patch_1">
   <path d="M 0 345.6 
L 460.8 345.6 
L 460.8 0 
L 0 0 
z
" style="fill:#ffffff;"/>
  </g>
  <g id="axes_1">
   <g id="patch_2">
    <path d="M 57.6 307.584 
L 414.72 307.584 
L 414.72 41.472 
L 57.6 41.472 
z
" style="fill:#7d9051;"/>
   </g>
   <g id="matplotlib.axis_1">
    <g id="xtick_1">
     <g id="line2d_1">
      <defs>
       <path d="M 0 0 
L 0 3.5 
" id="m4ee0571eeb" style="stroke:#000000;stroke-width:0.8;"/>
      </defs>
      <g>
       <use style="stroke:#000000;stroke-width:0.8;" x="73.501014" xlink:href="#m4ee0571eeb" y="307.584"/>
      </g>
     </g>
     <g id="text_1">
      <!-- −140 -->
      <g transform="translate(59.767421 322.182437)scale(0.1 -0.1)">
       <defs>
        <path d="M 10.59375 35.5 
L 73.1875 35.5 
L 73.1875 27.203125 
L 10.59375 27.203125 
z
" id="DejaVuSans-8722"/>
        <path d="M 12.40625 8.296875 
L 28.515625 8.296875 
L 28.515625 63.921875 
L 10.984375 60.40625 
L 10.984375 69.390625 
L 28.421875 72.90625 
L 38.28125 72.90625 
L 38.28125 8.296875 
L 54.390625 8.296875 
L 54.390625 0 
L 12.40625 0 
z
" id="DejaVuSans-49"/>
        <path d="M 37.796875 64.3125 
L 12.890625 25.390625 
L 37.796875 25.390625 
z
M 35.203125 72.90625 
L 47.609375 72.90625 
L 47.609375 25.390625 
L 58.015625 25.390625 
L 58.015625 17.1875 
L 47.609375 17.1875 
L 47.609375 0 
L 37.796875 0 
L 37.796875 17.1875 
L 4.890625 17.1875 
L 4.890625 26.703125 
z
" id="DejaVuSans-52"/>
        <path d="M 31.78125 66.40625 
Q 24.171875 66.40625 20.328125 58.90625 
Q 16.5 51.421875 16.5 36.375 
Q 16.5 21.390625 20.328125 13.890625 
Q 24.171875 6.390625 31.78125 6.390625 
Q 39.453125 6.390625 43.28125 13.890625 
Q 47.125 21.390625 47.125 36.375 
Q 47.125 51.421875 43.28125 58.90625 
Q 39.453125 66.40625 31.78125 66.40625 
z
M 31.78125 74.21875 
Q 44.046875 74.21875 50.515625 64.515625 
Q 56.984375 54.828125 56.984375 36.375 
Q 56.984375 17.96875 50.515625 8.265625 
Q 44.046875 -1.421875 31.78125 -1.421875 
Q 19.53125 -1.421875 13.0625 8.265625 
Q 6.59375 17.96875 6.59375 36.375 
Q 6.59375 54.828125 13.0625 64.515625 
Q 19.53125 74.21875 31.78125 74.21875 
z
" id="DejaVuSans-48"/>
       </defs>
       <use xlink:href="#DejaVuSans-8722"/>
       <use x="83.789062" xlink:href="#DejaVuSans-49"/>
       <use x="147.412109" xlink:href="#DejaVuSans-52"/>
       <use x="211.035156" xlink:href="#DejaVuSans-48"/>
      </g>
     </g>
    </g>
    <g id="xtick_2">
     <g id="line2d_2">
      <g>
       <use style="stroke:#000000;stroke-width:0.8;" x="118.033546" xlink:href="#m4ee0571eeb" y="307.584"/>
      </g>
     </g>
     <g id="text_2">
      <!-- −120 -->
      <g transform="translate(104.299952 322.182437)scale(0.1 -0.1)">
       <defs>
        <path d="M 19.1875 8.296875 
L 53.609375 8.296875 
L 53.609375 0 
L 7.328125 0 
L 7.328125 8.296875 
Q 12.9375 14.109375 22.625 23.890625 
Q 32.328125 33.6875 34.8125 36.53125 
Q 39.546875 41.84375 41.421875 45.53125 
Q 43.3125 49.21875 43.3125 52.78125 
Q 43.3125 58.59375 39.234375 62.25 
Q 35.15625 65.921875 28.609375 65.921875 
Q 23.96875 65.921875 18.8125 64.3125 
Q 13.671875 62.703125 7.8125 59.421875 
L 7.8125 69.390625 
Q 13.765625 71.78125 18.9375 73 
Q 24.125 74.21875 28.421875 74.21875 
Q 39.75 74.21875 46.484375 68.546875 
Q 53.21875 62.890625 53.21875 53.421875 
Q 53.21875 48.921875 51.53125 44.890625 
Q 49.859375 40.875 45.40625 35.40625 
Q 44.1875 33.984375 37.640625 27.21875 
Q 31.109375 20.453125 19.1875 8.296875 
z
" id="DejaVuSans-50"/>
       </defs>
       <use xlink:href="#DejaVuSans-8722"/>
       <use x="83.789062" xlink:href="#DejaVuSans-49"/>
       <use x="147.412109" xlink:href="#DejaVuSans-50"/>
       <use x="211.035156" xlink:href="#DejaVuSans-48"/>
      </g>
     </g>
    </g>
    <g id="xtick_3">
     <g id="line2d_3">
      <g>
       <use style="stroke:#000000;stroke-width:0.8;" x="162.566078" xlink:href="#m4ee0571eeb" y="307.584"/>
      </g>
     </g>
     <g id="text_3">
      <!-- −100 -->
      <g transform="translate(148.832484 322.182437)scale(0.1 -0.1)">
       <use xlink:href="#DejaVuSans-8722"/>
       <use x="83.789062" xlink:href="#DejaVuSans-49"/>
       <use x="147.412109" xlink:href="#DejaVuSans-48"/>
       <use x="211.035156" xlink:href="#DejaVuSans-48"/>
      </g>
     </g>
    </g>
    <g id="xtick_4">
     <g id="line2d_4">
      <g>
       <use style="stroke:#000000;stroke-width:0.8;" x="207.09861" xlink:href="#m4ee0571eeb" y="307.584"/>
      </g>
     </g>
     <g id="text_4">
      <!-- −80 -->
      <g transform="translate(196.546266 322.182437)scale(0.1 -0.1)">
       <defs>
        <path d="M 31.78125 34.625 
Q 24.75 34.625 20.71875 30.859375 
Q 16.703125 27.09375 16.703125 20.515625 
Q 16.703125 13.921875 20.71875 10.15625 
Q 24.75 6.390625 31.78125 6.390625 
Q 38.8125 6.390625 42.859375 10.171875 
Q 46.921875 13.96875 46.921875 20.515625 
Q 46.921875 27.09375 42.890625 30.859375 
Q 38.875 34.625 31.78125 34.625 
z
M 21.921875 38.8125 
Q 15.578125 40.375 12.03125 44.71875 
Q 8.5 49.078125 8.5 55.328125 
Q 8.5 64.0625 14.71875 69.140625 
Q 20.953125 74.21875 31.78125 74.21875 
Q 42.671875 74.21875 48.875 69.140625 
Q 55.078125 64.0625 55.078125 55.328125 
Q 55.078125 49.078125 51.53125 44.71875 
Q 48 40.375 41.703125 38.8125 
Q 48.828125 37.15625 52.796875 32.3125 
Q 56.78125 27.484375 56.78125 20.515625 
Q 56.78125 9.90625 50.3125 4.234375 
Q 43.84375 -1.421875 31.78125 -1.421875 
Q 19.734375 -1.421875 13.25 4.234375 
Q 6.78125 9.90625 6.78125 20.515625 
Q 6.78125 27.484375 10.78125 32.3125 
Q 14.796875 37.15625 21.921875 38.8125 
z
M 18.3125 54.390625 
Q 18.3125 48.734375 21.84375 45.5625 
Q 25.390625 42.390625 31.78125 42.390625 
Q 38.140625 42.390625 41.71875 45.5625 
Q 45.3125 48.734375 45.3125 54.390625 
Q 45.3125 60.0625 41.71875 63.234375 
Q 38.140625 66.40625 31.78125 66.40625 
Q 25.390625 66.40625 21.84375 63.234375 
Q 18.3125 60.0625 18.3125 54.390625 
z
" id="DejaVuSans-56"/>
       </defs>
       <use xlink:href="#DejaVuSans-8722"/>
       <use x="83.789062" xlink:href="#DejaVuSans-56"/>
       <use x="147.412109" xlink:href="#DejaVuSans-48"/>
      </g>
     </g>
    </g>
    <g id="xtick_5">
     <g id="line2d_5">
      <g>
       <use style="stroke:#000000;stroke-width:0.8;" x="251.631141" xlink:href="#m4ee0571eeb" y="307.584"/>
      </g>
     </g>
     <g id="text_5">
      <!-- −60 -->
      <g transform="translate(241.078797 322.182437)scale(0.1 -0.1)">
       <defs>
        <path d="M 33.015625 40.375 
Q 26.375 40.375 22.484375 35.828125 
Q 18.609375 31.296875 18.609375 23.390625 
Q 18.609375 15.53125 22.484375 10.953125 
Q 26.375 6.390625 33.015625 6.390625 
Q 39.65625 6.390625 43.53125 10.953125 
Q 47.40625 15.53125 47.40625 23.390625 
Q 47.40625 31.296875 43.53125 35.828125 
Q 39.65625 40.375 33.015625 40.375 
z
M 52.59375 71.296875 
L 52.59375 62.3125 
Q 48.875 64.0625 45.09375 64.984375 
Q 41.3125 65.921875 37.59375 65.921875 
Q 27.828125 65.921875 22.671875 59.328125 
Q 17.53125 52.734375 16.796875 39.40625 
Q 19.671875 43.65625 24.015625 45.921875 
Q 28.375 48.1875 33.59375 48.1875 
Q 44.578125 48.1875 50.953125 41.515625 
Q 57.328125 34.859375 57.328125 23.390625 
Q 57.328125 12.15625 50.6875 5.359375 
Q 44.046875 -1.421875 33.015625 -1.421875 
Q 20.359375 -1.421875 13.671875 8.265625 
Q 6.984375 17.96875 6.984375 36.375 
Q 6.984375 53.65625 15.1875 63.9375 
Q 23.390625 74.21875 37.203125 74.21875 
Q 40.921875 74.21875 44.703125 73.484375 
Q 48.484375 72.75 52.59375 71.296875 
z
" id="DejaVuSans-54"/>
       </defs>
       <use xlink:href="#DejaVuSans-8722"/>
       <use x="83.789062" xlink:href="#DejaVuSans-54"/>
       <use x="147.412109" xlink:href="#DejaVuSans-48"/>
      </g>
     </g>
    </g>
    <g id="xtick_6">
     <g id="line2d_6">
      <g>
       <use style="stroke:#000000;stroke-width:0.8;" x="296.163673" xlink:href="#m4ee0571eeb" y="307.584"/>
      </g>
     </g>
     <g id="text_6">
      <!-- −40 -->
      <g transform="translate(285.611329 322.182437)scale(0.1 -0.1)">
       <use xlink:href="#DejaVuSans-8722"/>
       <use x="83.789062" xlink:href="#DejaVuSans-52"/>
       <use x="147.412109" xlink:href="#DejaVuSans-48"/>
      </g>
     </g>
    </g>
    <g id="xtick_7">
     <g id="line2d_7">
      <g>
       <use style="stroke:#000000;stroke-width:0.8;" x="340.696205" xlink:href="#m4ee0571eeb" y="307.584"/>
      </g>
     </g>
     <g id="text_7">
      <!-- −20 -->
      <g transform="translate(330.143861 322.182437)scale(0.1 -0.1)">
       <use xlink:href="#DejaVuSans-8722"/>
       <use x="83.789062" xlink:href="#DejaVuSans-50"/>
       <use x="147.412109" xlink:href="#DejaVuSans-48"/>
      </g>
     </g>
    </g>
    <g id="xtick_8">
     <g id="line2d_8">
      <g>
       <use style="stroke:#000000;stroke-width:0.8;" x="385.228736" xlink:href="#m4ee0571eeb" y="307.584"/>
      </g>
     </g>
     <g id="text_8">
      <!-- 0 -->
      <g transform="translate(382.047486 322.182437)scale(0.1 -0.1)">
       <use xlink:href="#DejaVuSans-48"/>
      </g>
     </g>
    </g>
   </g>
   <g id="matplotlib.axis_2">
    <g id="ytick_1">
     <g id="line2d_9">
      <defs>
       <path d="M 0 0 
L -3.5 0 
" id="m8fc7b28e08" style="stroke:#000000;stroke-width:0.8;"/>
      </defs>
      <g>
       <use style="stroke:#000000;stroke-width:0.8;" x="57.6" xlink:href="#m8fc7b28e08" y="264.280753"/>
      </g>
     </g>
     <g id="text_9">
      <!-- 0 -->
      <g transform="translate(44.2375 268.079972)scale(0.1 -0.1)">
       <use xlink:href="#DejaVuSans-48"/>
      </g>
     </g>
    </g>
    <g id="ytick_2">
     <g id="line2d_10">
      <g>
       <use style="stroke:#000000;stroke-width:0.8;" x="57.6" xlink:href="#m8fc7b28e08" y="219.748221"/>
      </g>
     </g>
     <g id="text_10">
      <!-- 20 -->
      <g transform="translate(37.875 223.54744)scale(0.1 -0.1)">
       <use xlink:href="#DejaVuSans-50"/>
       <use x="63.623047" xlink:href="#DejaVuSans-48"/>
      </g>
     </g>
    </g>
    <g id="ytick_3">
     <g id="line2d_11">
      <g>
       <use style="stroke:#000000;stroke-width:0.8;" x="57.6" xlink:href="#m8fc7b28e08" y="175.21569"/>
      </g>
     </g>
     <g id="text_11">
      <!-- 40 -->
      <g transform="translate(37.875 179.014908)scale(0.1 -0.1)">
       <use xlink:href="#DejaVuSans-52"/>
       <use x="63.623047" xlink:href="#DejaVuSans-48"/>
      </g>
     </g>
    </g>
    <g id="ytick_4">
     <g id="line2d_12">
      <g>
       <use style="stroke:#000000;stroke-width:0.8;" x="57.6" xlink:href="#m8fc7b28e08" y="130.683158"/>
      </g>
     </g>
     <g id="text_12">
      <!-- 60 -->
      <g transform="translate(37.875 134.482377)scale(0.1 -0.1)">
       <use xlink:href="#DejaVuSans-54"/>
       <use x="63.623047" xlink:href="#DejaVuSans-48"/>
      </g>
     </g>
    </g>
    <g id="ytick_5">
     <g id="line2d_13">
      <g>
       <use style="stroke:#000000;stroke-width:0.8;" x="57.6" xlink:href="#m8fc7b28e08" y="86.150626"/>
      </g>
     </g>
     <g id="text_13">
      <!-- 80 -->
      <g transform="translate(37.875 89.949845)scale(0.1 -0.1)">
       <use xlink:href="#DejaVuSans-56"/>
       <use x="63.623047" xlink:href="#DejaVuSans-48"/>
      </g>
     </g>
    </g>
    <g id="ytick_6">
     <g id="line2d_14">
      <g>
       <use style="stroke:#000000;stroke-width:0.8;" x="57.6" xlink:href="#m8fc7b28e08" y="41.618095"/>
      </g>
     </g>
     <g id="text_14">
      <!-- 100 -->
      <g transform="translate(31.5125 45.417313)scale(0.1 -0.1)">
       <use xlink:href="#DejaVuSans-49"/>
       <use x="63.623047" xlink:href="#DejaVuSans-48"/>
       <use x="127.246094" xlink:href="#DejaVuSans-48"/>
      </g>
     </g>
    </g>
   </g>
   <g id="line2d_15">
    <path clip-path="url(#p1b013e9929)" d="M 385.228736 264.280753 
L 385.515271 243.774851 
L 386.299593 205.677164 
L 386.73943 199.698971 
L 387.760872 190.603603 
L 388.830539 181.491157 
L 389.356109 175.482605 
L 389.581614 169.580312 
L 389.541654 166.683243 
L 389.378453 163.829817 
L 389.075935 161.025725 
L 388.618027 158.27666 
L 387.988652 155.588314 
L 387.171736 152.96638 
L 386.179824 150.378833 
L 385.041726 147.794018 
L 383.765761 145.218181 
L 382.360252 142.657572 
L 379.193883 137.607025 
L 375.609188 132.692356 
L 371.672734 127.963546 
L 367.451089 123.470575 
L 363.010823 119.263424 
L 358.418502 115.392074 
L 353.740695 111.906505 
L 348.960379 108.78895 
L 343.673465 105.711089 
L 337.941876 102.727168 
L 331.914557 99.96231 
L 325.740453 97.541641 
L 322.644903 96.499478 
L 319.568511 95.590284 
L 316.529896 94.8297 
L 313.547675 94.233365 
L 310.640468 93.81692 
L 307.826892 93.596006 
L 305.125566 93.586264 
L 302.555107 93.803333 
L 300.134134 94.262855 
L 297.881265 94.98047 
L 295.795951 96.009909 
L 293.855699 97.374425 
L 292.04621 99.043943 
L 290.353187 100.988389 
L 288.762333 103.177686 
L 287.25935 105.581761 
L 285.829939 108.170537 
L 283.134646 113.781894 
L 279.286059 122.832317 
L 276.683098 128.937313 
L 273.916901 134.818714 
L 272.436844 137.600378 
L 270.873086 140.235918 
L 267.498412 145.082279 
L 253.497516 164.823047 
L 249.749885 169.525351 
L 245.8314 173.954745 
L 243.796854 176.039012 
L 241.706116 178.021347 
L 239.554691 179.890515 
L 237.338086 181.635282 
L 235.051809 183.244411 
L 232.691367 184.706668 
L 230.234371 185.983399 
L 227.668737 187.057851 
L 225.005421 187.95165 
L 222.25538 188.686418 
L 219.429571 189.283779 
L 213.594475 190.152772 
L 207.587789 190.731618 
L 195.410267 191.710813 
L 189.414741 192.457138 
L 186.478637 192.970164 
L 183.598246 193.605264 
L 180.784528 194.384061 
L 178.048437 195.328178 
L 175.383221 196.458628 
L 172.770642 197.766125 
L 170.204427 199.226848 
L 165.186011 202.51268 
L 160.277805 206.125546 
L 148.160243 215.337822 
L 143.24271 218.594509 
L 140.743752 220.035802 
L 138.209637 221.320631 
L 135.634096 222.425174 
L 133.010857 223.325609 
L 130.33365 223.998115 
L 127.607384 224.45049 
L 124.84331 224.717037 
L 122.044671 224.813684 
L 119.214705 224.756358 
L 116.356654 224.560988 
L 110.569258 223.819829 
L 104.708407 222.717631 
L 95.836117 220.66613 
L 83.991273 217.856464 
L 78.120701 216.706481 
L 75.209719 216.250951 
L 75.209719 216.250951 
" style="fill:none;stroke:#fea952;stroke-linecap:square;"/>
   </g>
   <g id="line2d_16">
    <path clip-path="url(#p1b013e9929)" d="M 376.322642 264.195064 
L 376.610276 243.610801 
L 377.410253 205.124441 
L 377.878971 198.794472 
L 378.920394 189.521104 
L 379.965591 180.63176 
L 380.46225 175.008136 
L 380.675954 169.703149 
L 380.52333 164.785145 
L 380.290472 162.489109 
L 379.946001 160.306887 
L 379.485321 158.237696 
L 378.85534 156.154392 
L 378.028472 153.967887 
L 377.060744 151.747471 
L 374.727302 147.247118 
L 371.911236 142.734295 
L 368.676792 138.284112 
L 365.093147 133.966452 
L 361.232884 129.847077 
L 357.171563 125.988667 
L 352.988121 122.451593 
L 348.766083 119.294271 
L 344.387361 116.431814 
L 339.465315 113.56076 
L 334.12206 110.772965 
L 328.537694 108.20383 
L 322.898673 105.982621 
L 317.405875 104.230242 
L 314.783493 103.563309 
L 312.284749 103.049876 
L 309.943301 102.696099 
L 307.794771 102.502455 
L 305.875033 102.461181 
L 304.215987 102.55361 
L 301.823826 102.966838 
L 300.91946 103.295203 
L 299.895283 103.920361 
L 298.763343 104.892531 
L 297.558332 106.224011 
L 296.314418 107.899113 
L 295.05626 109.886879 
L 293.797979 112.150008 
L 291.29601 117.348123 
L 287.496978 126.28292 
L 284.791975 132.621328 
L 281.779685 139.002311 
L 280.096541 142.145144 
L 278.252862 145.222376 
L 274.782357 150.207705 
L 260.52235 170.298223 
L 256.50736 175.327281 
L 252.204814 180.176115 
L 249.92492 182.50219 
L 247.547463 184.744778 
L 245.063466 186.889033 
L 242.464292 188.918678 
L 239.742181 190.815822 
L 236.79811 192.609865 
L 233.674784 194.198593 
L 230.502412 195.501556 
L 227.304454 196.556318 
L 224.097458 197.40035 
L 220.89322 198.069198 
L 214.52808 199.010212 
L 208.273229 199.611709 
L 196.390306 200.563235 
L 190.947751 201.23072 
L 185.974111 202.189035 
L 183.68972 202.803426 
L 181.526226 203.527619 
L 179.369277 204.423376 
L 177.176572 205.506515 
L 174.949089 206.764356 
L 170.395624 209.736653 
L 165.710893 213.182983 
L 153.20629 222.676981 
L 150.498946 224.5318 
L 147.692532 226.30975 
L 144.771368 227.979614 
L 141.720069 229.50615 
L 138.525678 230.849223 
L 135.180728 231.963752 
L 131.791592 232.784482 
L 128.462296 233.315871 
L 125.150699 233.618238 
L 121.864291 233.718363 
L 118.607294 233.642128 
L 115.381698 233.413972 
L 109.02687 232.591767 
L 102.801219 231.417544 
L 93.717747 229.317047 
L 82.184636 226.577812 
L 76.743709 225.505899 
L 73.832727 225.050369 
L 73.832727 225.050369 
" style="fill:none;stroke:#ffffff;stroke-linecap:square;"/>
   </g>
   <g id="line2d_17">
    <path clip-path="url(#p1b013e9929)" d="M 394.13483 264.366442 
L 394.420267 243.938901 
L 395.188932 206.229886 
L 395.599889 200.60347 
L 396.60135 191.686102 
L 397.695486 182.350553 
L 398.249968 175.957074 
L 398.487273 169.457474 
L 398.433628 166.174668 
L 398.233576 162.874488 
L 397.861398 159.56234 
L 397.290052 156.246432 
L 396.491982 152.938932 
L 395.488132 149.778368 
L 394.331176 146.789779 
L 393.022707 143.840564 
L 391.573419 140.932586 
L 389.993202 138.068026 
L 388.291314 135.249438 
L 386.476531 132.479755 
L 382.541584 127.100599 
L 378.252321 121.960639 
L 373.669295 117.094073 
L 368.850083 112.538181 
L 363.848883 108.332554 
L 358.715306 104.518738 
L 353.533396 101.146086 
L 347.881615 97.861419 
L 341.761692 94.68137 
L 335.29142 91.72079 
L 328.582234 89.100661 
L 325.169191 87.958177 
L 321.731147 86.950327 
L 318.276298 86.09609 
L 314.810602 85.416853 
L 311.337636 84.937742 
L 307.859014 84.689558 
L 304.376099 84.711347 
L 300.894227 85.053057 
L 297.430936 85.77648 
L 293.938705 86.994102 
L 290.672442 88.724615 
L 287.816114 90.828489 
L 285.329077 93.195356 
L 283.148043 95.752766 
L 281.210248 98.45626 
L 279.462439 101.276643 
L 277.861899 104.191065 
L 274.973281 110.215665 
L 271.07514 119.381714 
L 268.574221 125.253298 
L 266.054117 130.635117 
L 264.777148 133.055611 
L 263.493311 135.249459 
L 260.214466 139.956853 
L 246.472681 159.34787 
L 242.99241 163.723422 
L 239.457986 167.733374 
L 235.864768 171.297917 
L 232.21188 174.351885 
L 230.361438 175.672999 
L 228.584623 176.803472 
L 226.793959 177.768204 
L 224.835062 178.614147 
L 222.706389 179.346983 
L 220.413302 179.972487 
L 217.965921 180.49836 
L 212.66087 181.295333 
L 206.902349 181.851526 
L 194.430228 182.858391 
L 187.881732 183.683556 
L 184.560897 184.272571 
L 181.222382 185.021493 
L 177.879335 185.964695 
L 174.570648 187.128736 
L 171.397166 188.493879 
L 168.364711 190.025736 
L 165.459765 191.689339 
L 162.668181 193.453246 
L 157.372133 197.168866 
L 149.986689 202.82504 
L 143.114195 207.998662 
L 138.792888 210.879268 
L 136.716135 212.091989 
L 134.699206 213.135111 
L 132.742513 214.001125 
L 130.840986 214.687467 
L 128.875707 215.211747 
L 126.752471 215.585109 
L 124.535922 215.815837 
L 122.22505 215.909004 
L 119.822116 215.870588 
L 114.759327 215.430264 
L 109.395011 214.572729 
L 103.77909 213.396678 
L 82.665565 208.488397 
L 76.586711 207.451534 
L 76.586711 207.451534 
" style="fill:none;stroke:#ffffff;stroke-linecap:square;"/>
   </g>
   <g id="patch_3">
    <path d="M 57.6 307.584 
L 57.6 41.472 
" style="fill:none;stroke:#000000;stroke-linecap:square;stroke-linejoin:miter;stroke-width:0.8;"/>
   </g>
   <g id="patch_4">
    <path d="M 414.72 307.584 
L 414.72 41.472 
" style="fill:none;stroke:#000000;stroke-linecap:square;stroke-linejoin:miter;stroke-width:0.8;"/>
   </g>
   <g id="patch_5">
    <path d="M 57.6 307.584 
L 414.72 307.584 
" style="fill:none;stroke:#000000;stroke-linecap:square;stroke-linejoin:miter;stroke-width:0.8;"/>
   </g>
   <g id="patch_6">
    <path d="M 57.6 41.472 
L 414.72 41.472 
" style="fill:none;stroke:#000000;stroke-linecap:square;stroke-linejoin:miter;stroke-width:0.8;"/>
   </g>
  </g>
 </g>
 <defs>
  <clipPath id="p1b013e9929">
   <rect height="266.112" width="357.12" x="57.6" y="41.472"/>
  </clipPath>
 </defs>
</svg>
