<?xml version="1.0" encoding="utf-8" standalone="no"?>
<!DOCTYPE svg PUBLIC "-//W3C//DTD SVG 1.1//EN"
  "http://www.w3.org/Graphics/SVG/1.1/DTD/svg11.dtd">
<!-- Created with matplotlib (https://matplotlib.org/) -->
<svg height="345.6pt" version="1.1" viewBox="0 0 460.8 345.6" width="460.8pt" xmlns="http://www.w3.org/2000/svg" xmlns:xlink="http://www.w3.org/1999/xlink">
 <metadata>
  <rdf:RDF xmlns:cc="http://creativecommons.org/ns#" xmlns:dc="http://purl.org/dc/elements/1.1/" xmlns:rdf="http://www.w3.org/1999/02/22-rdf-syntax-ns#">
   <cc:Work>
    <dc:type rdf:resource="http://purl.org/dc/dcmitype/StillImage"/>
    <dc:date>2021-06-14T11:36:07.933225</dc:date>
    <dc:format>image/svg+xml</dc:format>
    <dc:creator>
     <cc:Agent>
      <dc:title>Matplotlib v3.3.3, https://matplotlib.org/</dc:title>
     </cc:Agent>
    </dc:creator>
   </cc:Work>
  </rdf:RDF>
 </metadata>
 <defs>
  <style type="text/css">*{stroke-linecap:butt;stroke-linejoin:round;}</style>
 </defs>
 <g id="figure_1">
  <g id="patch_1">
   <path d="M 0 345.6 
L 460.8 345.6 
L 460.8 0 
L 0 0 
z
" style="fill:#ffffff;"/>
  </g>
  <g id="axes_1">
   <g id="patch_2">
    <path d="M 57.6 307.584 
L 414.72 307.584 
L 414.72 41.472 
L 57.6 41.472 
z
" style="fill:#7d9051;"/>
   </g>
   <g id="matplotlib.axis_1">
    <g id="xtick_1">
     <g id="line2d_1">
      <defs>
       <path d="M 0 0 
L 0 3.5 
" id="m84ca26fad0" style="stroke:#000000;stroke-width:0.8;"/>
      </defs>
      <g>
       <use style="stroke:#000000;stroke-width:0.8;" x="80.47255" xlink:href="#m84ca26fad0" y="307.584"/>
      </g>
     </g>
     <g id="text_1">
      <!-- −150 -->
      <g transform="translate(66.738956 322.182437)scale(0.1 -0.1)">
       <defs>
        <path d="M 10.59375 35.5 
L 73.1875 35.5 
L 73.1875 27.203125 
L 10.59375 27.203125 
z
" id="DejaVuSans-8722"/>
        <path d="M 12.40625 8.296875 
L 28.515625 8.296875 
L 28.515625 63.921875 
L 10.984375 60.40625 
L 10.984375 69.390625 
L 28.421875 72.90625 
L 38.28125 72.90625 
L 38.28125 8.296875 
L 54.390625 8.296875 
L 54.390625 0 
L 12.40625 0 
z
" id="DejaVuSans-49"/>
        <path d="M 10.796875 72.90625 
L 49.515625 72.90625 
L 49.515625 64.59375 
L 19.828125 64.59375 
L 19.828125 46.734375 
Q 21.96875 47.46875 24.109375 47.828125 
Q 26.265625 48.1875 28.421875 48.1875 
Q 40.625 48.1875 47.75 41.5 
Q 54.890625 34.8125 54.890625 23.390625 
Q 54.890625 11.625 47.5625 5.09375 
Q 40.234375 -1.421875 26.90625 -1.421875 
Q 22.3125 -1.421875 17.546875 -0.640625 
Q 12.796875 0.140625 7.71875 1.703125 
L 7.71875 11.625 
Q 12.109375 9.234375 16.796875 8.0625 
Q 21.484375 6.890625 26.703125 6.890625 
Q 35.15625 6.890625 40.078125 11.328125 
Q 45.015625 15.765625 45.015625 23.390625 
Q 45.015625 31 40.078125 35.4375 
Q 35.15625 39.890625 26.703125 39.890625 
Q 22.75 39.890625 18.8125 39.015625 
Q 14.890625 38.140625 10.796875 36.28125 
z
" id="DejaVuSans-53"/>
        <path d="M 31.78125 66.40625 
Q 24.171875 66.40625 20.328125 58.90625 
Q 16.5 51.421875 16.5 36.375 
Q 16.5 21.390625 20.328125 13.890625 
Q 24.171875 6.390625 31.78125 6.390625 
Q 39.453125 6.390625 43.28125 13.890625 
Q 47.125 21.390625 47.125 36.375 
Q 47.125 51.421875 43.28125 58.90625 
Q 39.453125 66.40625 31.78125 66.40625 
z
M 31.78125 74.21875 
Q 44.046875 74.21875 50.515625 64.515625 
Q 56.984375 54.828125 56.984375 36.375 
Q 56.984375 17.96875 50.515625 8.265625 
Q 44.046875 -1.421875 31.78125 -1.421875 
Q 19.53125 -1.421875 13.0625 8.265625 
Q 6.59375 17.96875 6.59375 36.375 
Q 6.59375 54.828125 13.0625 64.515625 
Q 19.53125 74.21875 31.78125 74.21875 
z
" id="DejaVuSans-48"/>
       </defs>
       <use xlink:href="#DejaVuSans-8722"/>
       <use x="83.789062" xlink:href="#DejaVuSans-49"/>
       <use x="147.412109" xlink:href="#DejaVuSans-53"/>
       <use x="211.035156" xlink:href="#DejaVuSans-48"/>
      </g>
     </g>
    </g>
    <g id="xtick_2">
     <g id="line2d_2">
      <g>
       <use style="stroke:#000000;stroke-width:0.8;" x="138.885001" xlink:href="#m84ca26fad0" y="307.584"/>
      </g>
     </g>
     <g id="text_2">
      <!-- −100 -->
      <g transform="translate(125.151407 322.182437)scale(0.1 -0.1)">
       <use xlink:href="#DejaVuSans-8722"/>
       <use x="83.789062" xlink:href="#DejaVuSans-49"/>
       <use x="147.412109" xlink:href="#DejaVuSans-48"/>
       <use x="211.035156" xlink:href="#DejaVuSans-48"/>
      </g>
     </g>
    </g>
    <g id="xtick_3">
     <g id="line2d_3">
      <g>
       <use style="stroke:#000000;stroke-width:0.8;" x="197.297451" xlink:href="#m84ca26fad0" y="307.584"/>
      </g>
     </g>
     <g id="text_3">
      <!-- −50 -->
      <g transform="translate(186.745108 322.182437)scale(0.1 -0.1)">
       <use xlink:href="#DejaVuSans-8722"/>
       <use x="83.789062" xlink:href="#DejaVuSans-53"/>
       <use x="147.412109" xlink:href="#DejaVuSans-48"/>
      </g>
     </g>
    </g>
    <g id="xtick_4">
     <g id="line2d_4">
      <g>
       <use style="stroke:#000000;stroke-width:0.8;" x="255.709902" xlink:href="#m84ca26fad0" y="307.584"/>
      </g>
     </g>
     <g id="text_4">
      <!-- 0 -->
      <g transform="translate(252.528652 322.182437)scale(0.1 -0.1)">
       <use xlink:href="#DejaVuSans-48"/>
      </g>
     </g>
    </g>
    <g id="xtick_5">
     <g id="line2d_5">
      <g>
       <use style="stroke:#000000;stroke-width:0.8;" x="314.122353" xlink:href="#m84ca26fad0" y="307.584"/>
      </g>
     </g>
     <g id="text_5">
      <!-- 50 -->
      <g transform="translate(307.759853 322.182437)scale(0.1 -0.1)">
       <use xlink:href="#DejaVuSans-53"/>
       <use x="63.623047" xlink:href="#DejaVuSans-48"/>
      </g>
     </g>
    </g>
    <g id="xtick_6">
     <g id="line2d_6">
      <g>
       <use style="stroke:#000000;stroke-width:0.8;" x="372.534804" xlink:href="#m84ca26fad0" y="307.584"/>
      </g>
     </g>
     <g id="text_6">
      <!-- 100 -->
      <g transform="translate(362.991054 322.182437)scale(0.1 -0.1)">
       <use xlink:href="#DejaVuSans-49"/>
       <use x="63.623047" xlink:href="#DejaVuSans-48"/>
       <use x="127.246094" xlink:href="#DejaVuSans-48"/>
      </g>
     </g>
    </g>
   </g>
   <g id="matplotlib.axis_2">
    <g id="ytick_1">
     <g id="line2d_7">
      <defs>
       <path d="M 0 0 
L -3.5 0 
" id="m7de5ab0a96" style="stroke:#000000;stroke-width:0.8;"/>
      </defs>
      <g>
       <use style="stroke:#000000;stroke-width:0.8;" x="57.6" xlink:href="#m7de5ab0a96" y="295.443041"/>
      </g>
     </g>
     <g id="text_7">
      <!-- 0 -->
      <g transform="translate(44.2375 299.24226)scale(0.1 -0.1)">
       <use xlink:href="#DejaVuSans-48"/>
      </g>
     </g>
    </g>
    <g id="ytick_2">
     <g id="line2d_8">
      <g>
       <use style="stroke:#000000;stroke-width:0.8;" x="57.6" xlink:href="#m7de5ab0a96" y="237.030591"/>
      </g>
     </g>
     <g id="text_8">
      <!-- 50 -->
      <g transform="translate(37.875 240.829809)scale(0.1 -0.1)">
       <use xlink:href="#DejaVuSans-53"/>
       <use x="63.623047" xlink:href="#DejaVuSans-48"/>
      </g>
     </g>
    </g>
    <g id="ytick_3">
     <g id="line2d_9">
      <g>
       <use style="stroke:#000000;stroke-width:0.8;" x="57.6" xlink:href="#m7de5ab0a96" y="178.61814"/>
      </g>
     </g>
     <g id="text_9">
      <!-- 100 -->
      <g transform="translate(31.5125 182.417358)scale(0.1 -0.1)">
       <use xlink:href="#DejaVuSans-49"/>
       <use x="63.623047" xlink:href="#DejaVuSans-48"/>
       <use x="127.246094" xlink:href="#DejaVuSans-48"/>
      </g>
     </g>
    </g>
    <g id="ytick_4">
     <g id="line2d_10">
      <g>
       <use style="stroke:#000000;stroke-width:0.8;" x="57.6" xlink:href="#m7de5ab0a96" y="120.205689"/>
      </g>
     </g>
     <g id="text_10">
      <!-- 150 -->
      <g transform="translate(31.5125 124.004908)scale(0.1 -0.1)">
       <use xlink:href="#DejaVuSans-49"/>
       <use x="63.623047" xlink:href="#DejaVuSans-53"/>
       <use x="127.246094" xlink:href="#DejaVuSans-48"/>
      </g>
     </g>
    </g>
    <g id="ytick_5">
     <g id="line2d_11">
      <g>
       <use style="stroke:#000000;stroke-width:0.8;" x="57.6" xlink:href="#m7de5ab0a96" y="61.793238"/>
      </g>
     </g>
     <g id="text_11">
      <!-- 200 -->
      <g transform="translate(31.5125 65.592457)scale(0.1 -0.1)">
       <defs>
        <path d="M 19.1875 8.296875 
L 53.609375 8.296875 
L 53.609375 0 
L 7.328125 0 
L 7.328125 8.296875 
Q 12.9375 14.109375 22.625 23.890625 
Q 32.328125 33.6875 34.8125 36.53125 
Q 39.546875 41.84375 41.421875 45.53125 
Q 43.3125 49.21875 43.3125 52.78125 
Q 43.3125 58.59375 39.234375 62.25 
Q 35.15625 65.921875 28.609375 65.921875 
Q 23.96875 65.921875 18.8125 64.3125 
Q 13.671875 62.703125 7.8125 59.421875 
L 7.8125 69.390625 
Q 13.765625 71.78125 18.9375 73 
Q 24.125 74.21875 28.421875 74.21875 
Q 39.75 74.21875 46.484375 68.546875 
Q 53.21875 62.890625 53.21875 53.421875 
Q 53.21875 48.921875 51.53125 44.890625 
Q 49.859375 40.875 45.40625 35.40625 
Q 44.1875 33.984375 37.640625 27.21875 
Q 31.109375 20.453125 19.1875 8.296875 
z
" id="DejaVuSans-50"/>
       </defs>
       <use xlink:href="#DejaVuSans-50"/>
       <use x="63.623047" xlink:href="#DejaVuSans-48"/>
       <use x="127.246094" xlink:href="#DejaVuSans-48"/>
      </g>
     </g>
    </g>
   </g>
   <g id="line2d_12">
    <path clip-path="url(#p7a38329004)" d="M 255.709902 295.443041 
L 255.978844 278.536521 
L 256.339268 263.152763 
L 256.834764 256.918961 
L 257.454135 249.126709 
L 257.546262 244.513321 
L 257.394178 241.485061 
L 257.016944 238.506715 
L 256.369317 235.588468 
L 255.448278 232.73176 
L 254.299406 229.926246 
L 252.254335 225.789694 
L 249.179958 220.349917 
L 245.320482 213.54692 
L 240.226498 203.901602 
L 236.326176 197.031454 
L 234.252386 192.866914 
L 233.097113 190.056591 
L 232.188747 187.209982 
L 231.583089 184.319276 
L 231.276305 181.364933 
L 231.209468 178.344575 
L 231.355743 175.276129 
L 231.688295 172.177524 
L 232.477688 167.512288 
L 233.535254 162.880041 
L 235.205958 156.859612 
L 236.163075 153.940666 
L 237.56257 151.007567 
L 239.322309 148.066678 
L 242.29164 143.689817 
L 245.182478 139.421626 
L 246.802677 136.673931 
L 247.992862 134.030621 
L 248.377307 132.755123 
L 248.594979 131.514133 
L 248.626121 130.310459 
L 248.450977 129.146902 
L 248.042833 128.044165 
L 247.404326 127.015023 
L 246.559729 126.050396 
L 245.53331 125.141202 
L 243.032094 123.452787 
L 240.094844 121.877127 
L 232.118283 117.954512 
L 229.183969 116.20137 
L 227.868819 115.249025 
L 226.687368 114.234054 
L 225.663886 113.147378 
L 224.822644 111.979914 
L 224.133337 110.737294 
L 223.044742 108.077205 
L 222.284338 105.218557 
L 221.781921 102.202836 
L 221.467288 99.071529 
L 221.120563 92.628108 
L 220.831319 87.800692 
L 220.492953 84.662654 
L 219.709473 80.107951 
L 217.380005 68.033536 
L 214.680973 54.46364 
L 214.680973 54.46364 
" style="fill:none;stroke:#fea952;stroke-linecap:square;"/>
   </g>
   <g id="line2d_13">
    <path clip-path="url(#p7a38329004)" d="M 251.037122 295.398083 
L 251.306807 278.441866 
L 251.676038 262.850796 
L 252.181287 256.4923 
L 252.785348 248.928405 
L 252.875876 244.669469 
L 252.746884 241.974504 
L 252.431218 239.405604 
L 251.892023 236.92665 
L 251.094312 234.428781 
L 250.061933 231.896198 
L 248.150295 228.024363 
L 245.143123 222.70382 
L 241.17317 215.700219 
L 236.179655 206.238257 
L 232.190566 199.207142 
L 230.673212 196.242675 
L 229.294456 193.165504 
L 228.125244 189.956109 
L 227.245651 186.59926 
L 226.740618 183.232836 
L 226.541601 179.877599 
L 226.594111 176.518 
L 226.861288 173.167852 
L 227.30902 169.840036 
L 228.249719 164.91879 
L 229.423396 160.124136 
L 231.242326 153.838886 
L 231.88646 152.057197 
L 233.510289 148.680355 
L 235.419464 145.496719 
L 238.45299 141.024922 
L 241.204428 136.969686 
L 242.611381 134.607551 
L 243.51868 132.682069 
L 244.068522 130.768932 
L 244.071999 130.507774 
L 243.88853 130.093345 
L 243.461213 129.548409 
L 242.781085 128.917728 
L 240.751727 127.531612 
L 238.04246 126.075295 
L 229.816837 122.021481 
L 226.44322 119.986233 
L 224.823702 118.793619 
L 223.285629 117.437968 
L 221.872617 115.879259 
L 220.736263 114.246714 
L 219.876253 112.664501 
L 219.157467 111.046643 
L 218.080547 107.746417 
L 217.381604 104.404952 
L 216.95036 101.056952 
L 216.60244 96.086514 
L 216.17889 88.238643 
L 215.87607 85.384653 
L 215.114337 80.95743 
L 212.797494 68.948675 
L 210.094611 55.359281 
L 210.094611 55.359281 
" style="fill:none;stroke:#ffffff;stroke-linecap:square;"/>
   </g>
   <g id="line2d_14">
    <path clip-path="url(#p7a38329004)" d="M 260.382682 295.488 
L 260.650881 278.631176 
L 261.099041 261.958407 
L 262.225389 246.024096 
L 262.157953 242.680583 
L 261.859127 239.303958 
L 261.264814 235.914158 
L 260.35617 232.624336 
L 259.193171 229.479486 
L 257.840904 226.462756 
L 255.585387 222.136244 
L 248.118277 208.724363 
L 245.857102 204.365538 
L 239.137135 192.279145 
L 238.000292 189.766095 
L 237.091915 187.320512 
L 236.443534 184.941999 
L 236.055435 182.470118 
L 235.88754 179.846172 
L 235.921177 177.112484 
L 236.139535 174.2911 
L 236.770031 169.944836 
L 237.697122 165.529391 
L 238.839619 161.117309 
L 240.43969 155.824136 
L 241.61485 153.334779 
L 243.225154 150.636638 
L 246.130289 146.354711 
L 249.160528 141.873567 
L 250.993974 138.74031 
L 251.7903 137.0978 
L 252.467043 135.379174 
L 252.980036 133.56245 
L 253.266412 131.634995 
L 253.24706 129.614892 
L 252.833432 127.524872 
L 252.013667 125.580556 
L 250.920123 123.936701 
L 249.658244 122.552383 
L 248.285535 121.364676 
L 246.830978 120.318767 
L 243.745618 118.5011 
L 238.933734 116.126773 
L 234.419728 113.887543 
L 231.924719 112.416507 
L 230.089107 111.03014 
L 229.455154 110.415497 
L 228.909025 109.713113 
L 227.92979 107.822682 
L 227.17526 105.593799 
L 226.628933 103.050523 
L 226.260677 100.241124 
L 225.938032 95.645735 
L 225.483747 87.36274 
L 225.109836 83.940655 
L 224.022809 77.734211 
L 221.359038 64.100307 
L 219.267336 53.568 
L 219.267336 53.568 
" style="fill:none;stroke:#ffffff;stroke-linecap:square;"/>
   </g>
   <g id="patch_3">
    <path d="M 57.6 307.584 
L 57.6 41.472 
" style="fill:none;stroke:#000000;stroke-linecap:square;stroke-linejoin:miter;stroke-width:0.8;"/>
   </g>
   <g id="patch_4">
    <path d="M 414.72 307.584 
L 414.72 41.472 
" style="fill:none;stroke:#000000;stroke-linecap:square;stroke-linejoin:miter;stroke-width:0.8;"/>
   </g>
   <g id="patch_5">
    <path d="M 57.6 307.584 
L 414.72 307.584 
" style="fill:none;stroke:#000000;stroke-linecap:square;stroke-linejoin:miter;stroke-width:0.8;"/>
   </g>
   <g id="patch_6">
    <path d="M 57.6 41.472 
L 414.72 41.472 
" style="fill:none;stroke:#000000;stroke-linecap:square;stroke-linejoin:miter;stroke-width:0.8;"/>
   </g>
  </g>
 </g>
 <defs>
  <clipPath id="p7a38329004">
   <rect height="266.112" width="357.12" x="57.6" y="41.472"/>
  </clipPath>
 </defs>
</svg>
