<?xml version="1.0" encoding="utf-8" standalone="no"?>
<!DOCTYPE svg PUBLIC "-//W3C//DTD SVG 1.1//EN"
  "http://www.w3.org/Graphics/SVG/1.1/DTD/svg11.dtd">
<!-- Created with matplotlib (https://matplotlib.org/) -->
<svg height="345.6pt" version="1.1" viewBox="0 0 460.8 345.6" width="460.8pt" xmlns="http://www.w3.org/2000/svg" xmlns:xlink="http://www.w3.org/1999/xlink">
 <metadata>
  <rdf:RDF xmlns:cc="http://creativecommons.org/ns#" xmlns:dc="http://purl.org/dc/elements/1.1/" xmlns:rdf="http://www.w3.org/1999/02/22-rdf-syntax-ns#">
   <cc:Work>
    <dc:type rdf:resource="http://purl.org/dc/dcmitype/StillImage"/>
    <dc:date>2021-05-26T13:02:01.530051</dc:date>
    <dc:format>image/svg+xml</dc:format>
    <dc:creator>
     <cc:Agent>
      <dc:title>Matplotlib v3.3.3, https://matplotlib.org/</dc:title>
     </cc:Agent>
    </dc:creator>
   </cc:Work>
  </rdf:RDF>
 </metadata>
 <defs>
  <style type="text/css">*{stroke-linecap:butt;stroke-linejoin:round;}</style>
 </defs>
 <g id="figure_1">
  <g id="patch_1">
   <path d="M 0 345.6 
L 460.8 345.6 
L 460.8 0 
L 0 0 
z
" style="fill:#ffffff;"/>
  </g>
  <g id="axes_1">
   <g id="patch_2">
    <path d="M 57.6 307.584 
L 414.72 307.584 
L 414.72 41.472 
L 57.6 41.472 
z
" style="fill:#7d9051;"/>
   </g>
   <g id="matplotlib.axis_1">
    <g id="xtick_1">
     <g id="line2d_1">
      <defs>
       <path d="M 0 0 
L 0 3.5 
" id="m8b627aac72" style="stroke:#000000;stroke-width:0.8;"/>
      </defs>
      <g>
       <use style="stroke:#000000;stroke-width:0.8;" x="84.237101" xlink:href="#m8b627aac72" y="307.584"/>
      </g>
     </g>
     <g id="text_1">
      <!-- 0 -->
      <g transform="translate(81.055851 322.182437)scale(0.1 -0.1)">
       <defs>
        <path d="M 31.78125 66.40625 
Q 24.171875 66.40625 20.328125 58.90625 
Q 16.5 51.421875 16.5 36.375 
Q 16.5 21.390625 20.328125 13.890625 
Q 24.171875 6.390625 31.78125 6.390625 
Q 39.453125 6.390625 43.28125 13.890625 
Q 47.125 21.390625 47.125 36.375 
Q 47.125 51.421875 43.28125 58.90625 
Q 39.453125 66.40625 31.78125 66.40625 
z
M 31.78125 74.21875 
Q 44.046875 74.21875 50.515625 64.515625 
Q 56.984375 54.828125 56.984375 36.375 
Q 56.984375 17.96875 50.515625 8.265625 
Q 44.046875 -1.421875 31.78125 -1.421875 
Q 19.53125 -1.421875 13.0625 8.265625 
Q 6.59375 17.96875 6.59375 36.375 
Q 6.59375 54.828125 13.0625 64.515625 
Q 19.53125 74.21875 31.78125 74.21875 
z
" id="DejaVuSans-48"/>
       </defs>
       <use xlink:href="#DejaVuSans-48"/>
      </g>
     </g>
    </g>
    <g id="xtick_2">
     <g id="line2d_2">
      <g>
       <use style="stroke:#000000;stroke-width:0.8;" x="127.170581" xlink:href="#m8b627aac72" y="307.584"/>
      </g>
     </g>
     <g id="text_2">
      <!-- 20 -->
      <g transform="translate(120.808081 322.182437)scale(0.1 -0.1)">
       <defs>
        <path d="M 19.1875 8.296875 
L 53.609375 8.296875 
L 53.609375 0 
L 7.328125 0 
L 7.328125 8.296875 
Q 12.9375 14.109375 22.625 23.890625 
Q 32.328125 33.6875 34.8125 36.53125 
Q 39.546875 41.84375 41.421875 45.53125 
Q 43.3125 49.21875 43.3125 52.78125 
Q 43.3125 58.59375 39.234375 62.25 
Q 35.15625 65.921875 28.609375 65.921875 
Q 23.96875 65.921875 18.8125 64.3125 
Q 13.671875 62.703125 7.8125 59.421875 
L 7.8125 69.390625 
Q 13.765625 71.78125 18.9375 73 
Q 24.125 74.21875 28.421875 74.21875 
Q 39.75 74.21875 46.484375 68.546875 
Q 53.21875 62.890625 53.21875 53.421875 
Q 53.21875 48.921875 51.53125 44.890625 
Q 49.859375 40.875 45.40625 35.40625 
Q 44.1875 33.984375 37.640625 27.21875 
Q 31.109375 20.453125 19.1875 8.296875 
z
" id="DejaVuSans-50"/>
       </defs>
       <use xlink:href="#DejaVuSans-50"/>
       <use x="63.623047" xlink:href="#DejaVuSans-48"/>
      </g>
     </g>
    </g>
    <g id="xtick_3">
     <g id="line2d_3">
      <g>
       <use style="stroke:#000000;stroke-width:0.8;" x="170.10406" xlink:href="#m8b627aac72" y="307.584"/>
      </g>
     </g>
     <g id="text_3">
      <!-- 40 -->
      <g transform="translate(163.74156 322.182437)scale(0.1 -0.1)">
       <defs>
        <path d="M 37.796875 64.3125 
L 12.890625 25.390625 
L 37.796875 25.390625 
z
M 35.203125 72.90625 
L 47.609375 72.90625 
L 47.609375 25.390625 
L 58.015625 25.390625 
L 58.015625 17.1875 
L 47.609375 17.1875 
L 47.609375 0 
L 37.796875 0 
L 37.796875 17.1875 
L 4.890625 17.1875 
L 4.890625 26.703125 
z
" id="DejaVuSans-52"/>
       </defs>
       <use xlink:href="#DejaVuSans-52"/>
       <use x="63.623047" xlink:href="#DejaVuSans-48"/>
      </g>
     </g>
    </g>
    <g id="xtick_4">
     <g id="line2d_4">
      <g>
       <use style="stroke:#000000;stroke-width:0.8;" x="213.03754" xlink:href="#m8b627aac72" y="307.584"/>
      </g>
     </g>
     <g id="text_4">
      <!-- 60 -->
      <g transform="translate(206.67504 322.182437)scale(0.1 -0.1)">
       <defs>
        <path d="M 33.015625 40.375 
Q 26.375 40.375 22.484375 35.828125 
Q 18.609375 31.296875 18.609375 23.390625 
Q 18.609375 15.53125 22.484375 10.953125 
Q 26.375 6.390625 33.015625 6.390625 
Q 39.65625 6.390625 43.53125 10.953125 
Q 47.40625 15.53125 47.40625 23.390625 
Q 47.40625 31.296875 43.53125 35.828125 
Q 39.65625 40.375 33.015625 40.375 
z
M 52.59375 71.296875 
L 52.59375 62.3125 
Q 48.875 64.0625 45.09375 64.984375 
Q 41.3125 65.921875 37.59375 65.921875 
Q 27.828125 65.921875 22.671875 59.328125 
Q 17.53125 52.734375 16.796875 39.40625 
Q 19.671875 43.65625 24.015625 45.921875 
Q 28.375 48.1875 33.59375 48.1875 
Q 44.578125 48.1875 50.953125 41.515625 
Q 57.328125 34.859375 57.328125 23.390625 
Q 57.328125 12.15625 50.6875 5.359375 
Q 44.046875 -1.421875 33.015625 -1.421875 
Q 20.359375 -1.421875 13.671875 8.265625 
Q 6.984375 17.96875 6.984375 36.375 
Q 6.984375 53.65625 15.1875 63.9375 
Q 23.390625 74.21875 37.203125 74.21875 
Q 40.921875 74.21875 44.703125 73.484375 
Q 48.484375 72.75 52.59375 71.296875 
z
" id="DejaVuSans-54"/>
       </defs>
       <use xlink:href="#DejaVuSans-54"/>
       <use x="63.623047" xlink:href="#DejaVuSans-48"/>
      </g>
     </g>
    </g>
    <g id="xtick_5">
     <g id="line2d_5">
      <g>
       <use style="stroke:#000000;stroke-width:0.8;" x="255.971019" xlink:href="#m8b627aac72" y="307.584"/>
      </g>
     </g>
     <g id="text_5">
      <!-- 80 -->
      <g transform="translate(249.608519 322.182437)scale(0.1 -0.1)">
       <defs>
        <path d="M 31.78125 34.625 
Q 24.75 34.625 20.71875 30.859375 
Q 16.703125 27.09375 16.703125 20.515625 
Q 16.703125 13.921875 20.71875 10.15625 
Q 24.75 6.390625 31.78125 6.390625 
Q 38.8125 6.390625 42.859375 10.171875 
Q 46.921875 13.96875 46.921875 20.515625 
Q 46.921875 27.09375 42.890625 30.859375 
Q 38.875 34.625 31.78125 34.625 
z
M 21.921875 38.8125 
Q 15.578125 40.375 12.03125 44.71875 
Q 8.5 49.078125 8.5 55.328125 
Q 8.5 64.0625 14.71875 69.140625 
Q 20.953125 74.21875 31.78125 74.21875 
Q 42.671875 74.21875 48.875 69.140625 
Q 55.078125 64.0625 55.078125 55.328125 
Q 55.078125 49.078125 51.53125 44.71875 
Q 48 40.375 41.703125 38.8125 
Q 48.828125 37.15625 52.796875 32.3125 
Q 56.78125 27.484375 56.78125 20.515625 
Q 56.78125 9.90625 50.3125 4.234375 
Q 43.84375 -1.421875 31.78125 -1.421875 
Q 19.734375 -1.421875 13.25 4.234375 
Q 6.78125 9.90625 6.78125 20.515625 
Q 6.78125 27.484375 10.78125 32.3125 
Q 14.796875 37.15625 21.921875 38.8125 
z
M 18.3125 54.390625 
Q 18.3125 48.734375 21.84375 45.5625 
Q 25.390625 42.390625 31.78125 42.390625 
Q 38.140625 42.390625 41.71875 45.5625 
Q 45.3125 48.734375 45.3125 54.390625 
Q 45.3125 60.0625 41.71875 63.234375 
Q 38.140625 66.40625 31.78125 66.40625 
Q 25.390625 66.40625 21.84375 63.234375 
Q 18.3125 60.0625 18.3125 54.390625 
z
" id="DejaVuSans-56"/>
       </defs>
       <use xlink:href="#DejaVuSans-56"/>
       <use x="63.623047" xlink:href="#DejaVuSans-48"/>
      </g>
     </g>
    </g>
    <g id="xtick_6">
     <g id="line2d_6">
      <g>
       <use style="stroke:#000000;stroke-width:0.8;" x="298.904499" xlink:href="#m8b627aac72" y="307.584"/>
      </g>
     </g>
     <g id="text_6">
      <!-- 100 -->
      <g transform="translate(289.360749 322.182437)scale(0.1 -0.1)">
       <defs>
        <path d="M 12.40625 8.296875 
L 28.515625 8.296875 
L 28.515625 63.921875 
L 10.984375 60.40625 
L 10.984375 69.390625 
L 28.421875 72.90625 
L 38.28125 72.90625 
L 38.28125 8.296875 
L 54.390625 8.296875 
L 54.390625 0 
L 12.40625 0 
z
" id="DejaVuSans-49"/>
       </defs>
       <use xlink:href="#DejaVuSans-49"/>
       <use x="63.623047" xlink:href="#DejaVuSans-48"/>
       <use x="127.246094" xlink:href="#DejaVuSans-48"/>
      </g>
     </g>
    </g>
    <g id="xtick_7">
     <g id="line2d_7">
      <g>
       <use style="stroke:#000000;stroke-width:0.8;" x="341.837978" xlink:href="#m8b627aac72" y="307.584"/>
      </g>
     </g>
     <g id="text_7">
      <!-- 120 -->
      <g transform="translate(332.294228 322.182437)scale(0.1 -0.1)">
       <use xlink:href="#DejaVuSans-49"/>
       <use x="63.623047" xlink:href="#DejaVuSans-50"/>
       <use x="127.246094" xlink:href="#DejaVuSans-48"/>
      </g>
     </g>
    </g>
    <g id="xtick_8">
     <g id="line2d_8">
      <g>
       <use style="stroke:#000000;stroke-width:0.8;" x="384.771457" xlink:href="#m8b627aac72" y="307.584"/>
      </g>
     </g>
     <g id="text_8">
      <!-- 140 -->
      <g transform="translate(375.227707 322.182437)scale(0.1 -0.1)">
       <use xlink:href="#DejaVuSans-49"/>
       <use x="63.623047" xlink:href="#DejaVuSans-52"/>
       <use x="127.246094" xlink:href="#DejaVuSans-48"/>
      </g>
     </g>
    </g>
   </g>
   <g id="matplotlib.axis_2">
    <g id="ytick_1">
     <g id="line2d_9">
      <defs>
       <path d="M 0 0 
L -3.5 0 
" id="mad29278880" style="stroke:#000000;stroke-width:0.8;"/>
      </defs>
      <g>
       <use style="stroke:#000000;stroke-width:0.8;" x="57.6" xlink:href="#mad29278880" y="292.708134"/>
      </g>
     </g>
     <g id="text_9">
      <!-- −20 -->
      <g transform="translate(29.495313 296.507352)scale(0.1 -0.1)">
       <defs>
        <path d="M 10.59375 35.5 
L 73.1875 35.5 
L 73.1875 27.203125 
L 10.59375 27.203125 
z
" id="DejaVuSans-8722"/>
       </defs>
       <use xlink:href="#DejaVuSans-8722"/>
       <use x="83.789062" xlink:href="#DejaVuSans-50"/>
       <use x="147.412109" xlink:href="#DejaVuSans-48"/>
      </g>
     </g>
    </g>
    <g id="ytick_2">
     <g id="line2d_10">
      <g>
       <use style="stroke:#000000;stroke-width:0.8;" x="57.6" xlink:href="#mad29278880" y="249.774654"/>
      </g>
     </g>
     <g id="text_10">
      <!-- 0 -->
      <g transform="translate(44.2375 253.573873)scale(0.1 -0.1)">
       <use xlink:href="#DejaVuSans-48"/>
      </g>
     </g>
    </g>
    <g id="ytick_3">
     <g id="line2d_11">
      <g>
       <use style="stroke:#000000;stroke-width:0.8;" x="57.6" xlink:href="#mad29278880" y="206.841175"/>
      </g>
     </g>
     <g id="text_11">
      <!-- 20 -->
      <g transform="translate(37.875 210.640394)scale(0.1 -0.1)">
       <use xlink:href="#DejaVuSans-50"/>
       <use x="63.623047" xlink:href="#DejaVuSans-48"/>
      </g>
     </g>
    </g>
    <g id="ytick_4">
     <g id="line2d_12">
      <g>
       <use style="stroke:#000000;stroke-width:0.8;" x="57.6" xlink:href="#mad29278880" y="163.907695"/>
      </g>
     </g>
     <g id="text_12">
      <!-- 40 -->
      <g transform="translate(37.875 167.706914)scale(0.1 -0.1)">
       <use xlink:href="#DejaVuSans-52"/>
       <use x="63.623047" xlink:href="#DejaVuSans-48"/>
      </g>
     </g>
    </g>
    <g id="ytick_5">
     <g id="line2d_13">
      <g>
       <use style="stroke:#000000;stroke-width:0.8;" x="57.6" xlink:href="#mad29278880" y="120.974216"/>
      </g>
     </g>
     <g id="text_13">
      <!-- 60 -->
      <g transform="translate(37.875 124.773435)scale(0.1 -0.1)">
       <use xlink:href="#DejaVuSans-54"/>
       <use x="63.623047" xlink:href="#DejaVuSans-48"/>
      </g>
     </g>
    </g>
    <g id="ytick_6">
     <g id="line2d_14">
      <g>
       <use style="stroke:#000000;stroke-width:0.8;" x="57.6" xlink:href="#mad29278880" y="78.040736"/>
      </g>
     </g>
     <g id="text_14">
      <!-- 80 -->
      <g transform="translate(37.875 81.839955)scale(0.1 -0.1)">
       <use xlink:href="#DejaVuSans-56"/>
       <use x="63.623047" xlink:href="#DejaVuSans-48"/>
      </g>
     </g>
    </g>
   </g>
   <g id="line2d_15">
    <path clip-path="url(#p1487a77f88)" d="M 84.237101 249.774654 
L 84.565374 227.180951 
L 85.163257 193.256639 
L 84.843561 187.361967 
L 84.258285 181.310857 
L 82.928385 169.114774 
L 82.502457 163.157527 
L 82.44834 157.419293 
L 82.610506 154.661638 
L 82.925381 151.993936 
L 83.412883 149.427918 
L 84.09293 146.975318 
L 84.98544 144.647869 
L 86.110333 142.457303 
L 87.476129 140.350997 
L 89.06585 138.274117 
L 90.861163 136.235078 
L 92.843736 134.242296 
L 94.995236 132.304185 
L 97.297329 130.429162 
L 99.731683 128.625642 
L 102.279966 126.90204 
L 104.923845 125.266772 
L 107.644986 123.728254 
L 110.425058 122.294901 
L 113.245727 120.975129 
L 116.088661 119.777352 
L 118.935527 118.709987 
L 121.767991 117.781449 
L 124.567723 117.000154 
L 127.316388 116.374517 
L 129.995653 115.912953 
L 132.587188 115.623878 
L 135.157146 115.521006 
L 137.77871 115.605029 
L 140.444087 115.86483 
L 143.145484 116.289292 
L 145.875107 116.867299 
L 148.625165 117.587735 
L 151.387863 118.439482 
L 156.920008 120.492447 
L 162.409198 122.937261 
L 167.793088 125.684991 
L 173.009332 128.646705 
L 177.995587 131.733472 
L 182.689508 134.856357 
L 184.89322 136.535876 
L 186.986299 138.441961 
L 188.982119 140.542856 
L 190.894051 142.806805 
L 194.519741 147.696843 
L 199.663425 155.460912 
L 203.051989 160.552482 
L 206.532915 165.280081 
L 208.341444 167.428003 
L 210.21318 169.389665 
L 212.161495 171.133312 
L 214.199762 172.627187 
L 216.341352 173.839534 
L 218.599639 174.738599 
L 221.007149 175.379755 
L 223.573333 175.84371 
L 226.276947 176.136703 
L 229.096748 176.264976 
L 232.011494 176.234769 
L 234.999942 176.052322 
L 238.040848 175.723877 
L 241.112969 175.255673 
L 244.195063 174.653951 
L 247.265886 173.924952 
L 250.304195 173.074917 
L 253.288747 172.110085 
L 256.1983 171.036698 
L 259.01161 169.860996 
L 261.707434 168.58922 
L 264.264529 167.22761 
L 266.661652 165.782407 
L 268.87756 164.259852 
L 270.89101 162.666184 
L 272.665467 160.877014 
L 274.197691 158.788197 
L 275.516384 156.436343 
L 276.650245 153.858061 
L 277.627976 151.089961 
L 278.478277 148.168653 
L 279.911394 142.012853 
L 282.511309 129.473583 
L 283.273225 126.504891 
L 284.137319 123.675869 
L 285.13229 121.023127 
L 286.286839 118.583274 
L 287.629668 116.39292 
L 289.189477 114.488675 
L 290.994966 112.907148 
L 293.022907 111.615926 
L 295.221216 110.546409 
L 297.575314 109.680928 
L 300.070621 109.001812 
L 302.692557 108.491392 
L 305.426543 108.131998 
L 308.257999 107.90596 
L 314.155 107.783276 
L 320.266924 107.981981 
L 341.667212 109.167536 
L 355.816055 109.189356 
L 367.106971 109.555819 
L 386.872126 110.543916 
L 398.165242 111.036484 
L 398.165242 111.036484 
" style="fill:none;stroke:#fea952;stroke-linecap:square;"/>
   </g>
   <g id="line2d_16">
    <path clip-path="url(#p1487a77f88)" d="M 75.650803 249.692042 
L 75.928108 229.846908 
L 76.583401 193.59929 
L 76.291009 188.12696 
L 75.725032 182.267383 
L 74.371225 169.826359 
L 73.919312 163.404444 
L 73.832727 160.166221 
L 73.876452 156.915214 
L 74.083006 153.655118 
L 74.489576 150.39127 
L 75.138378 147.133598 
L 76.075506 143.900865 
L 77.347009 140.725406 
L 78.905715 137.785597 
L 80.657627 135.131862 
L 82.621205 132.599799 
L 84.773879 130.178981 
L 87.096655 127.862452 
L 89.572567 125.646406 
L 92.185752 123.52966 
L 94.920931 121.513117 
L 97.763153 119.599318 
L 100.697696 117.792081 
L 103.71006 116.096236 
L 106.786036 114.517442 
L 109.911822 113.062074 
L 113.07419 111.737184 
L 116.260698 110.550536 
L 119.459965 109.510756 
L 122.662005 108.627604 
L 125.85861 107.91247 
L 129.043748 107.379184 
L 132.243748 107.044053 
L 135.432213 106.938717 
L 138.611728 107.058835 
L 141.776935 107.382209 
L 144.924303 107.888866 
L 148.051144 108.560903 
L 151.154967 109.382161 
L 154.233091 110.337876 
L 157.282442 111.414363 
L 163.280107 113.878717 
L 169.113723 116.678349 
L 174.742224 119.72158 
L 180.119217 122.91935 
L 185.194415 126.183891 
L 187.894397 128.026974 
L 190.67471 130.187197 
L 193.211694 132.527926 
L 195.542394 135.002626 
L 197.701558 137.573336 
L 201.622949 142.872345 
L 206.84319 150.751101 
L 210.052947 155.580768 
L 213.101347 159.749526 
L 214.553879 161.500357 
L 215.939505 162.991185 
L 217.237467 164.207573 
L 218.429887 165.154745 
L 219.517423 165.86182 
L 220.809387 166.441107 
L 222.534819 166.930047 
L 224.498465 167.306996 
L 226.667152 167.558878 
L 229.007764 167.678741 
L 231.488245 167.66403 
L 234.077863 167.515278 
L 236.747138 167.235198 
L 239.467639 166.828085 
L 242.211742 166.299444 
L 244.9524 165.655785 
L 250.316754 164.054118 
L 252.887353 163.114011 
L 255.347985 162.095096 
L 257.671654 161.01005 
L 259.83109 159.873974 
L 261.798953 158.705296 
L 264.794283 156.619593 
L 265.741785 155.798238 
L 266.707994 154.5887 
L 267.656197 152.979637 
L 268.553766 150.998273 
L 269.383424 148.69023 
L 270.142881 146.106491 
L 271.495547 140.308485 
L 274.194168 127.338983 
L 275.061058 123.996575 
L 276.097537 120.660367 
L 277.370728 117.350321 
L 278.966338 114.095334 
L 280.986993 110.951761 
L 283.531606 108.029584 
L 286.383164 105.664039 
L 289.266325 103.894563 
L 292.258229 102.487125 
L 295.320401 101.395596 
L 298.429826 100.57334 
L 301.573428 99.977938 
L 304.743234 99.572533 
L 307.933099 99.325413 
L 314.34729 99.198734 
L 320.752796 99.409043 
L 341.655225 100.580848 
L 356.016261 100.604994 
L 367.491062 100.977718 
L 387.29094 101.96744 
L 398.487273 102.455829 
L 398.487273 102.455829 
" style="fill:none;stroke:#ffffff;stroke-linecap:square;"/>
   </g>
   <g id="line2d_17">
    <path clip-path="url(#p1487a77f88)" d="M 92.8234 249.857266 
L 93.150504 227.344921 
L 93.743114 192.913988 
L 93.396112 186.596975 
L 92.791538 180.354332 
L 91.485545 168.403188 
L 91.085602 162.910609 
L 91.020227 157.923372 
L 91.138007 155.668159 
L 91.361187 153.596602 
L 91.687388 151.722239 
L 92.110354 150.049771 
L 92.623871 148.570332 
L 93.31495 147.129009 
L 94.294631 145.570133 
L 95.510496 143.948436 
L 96.948448 142.291175 
L 98.590818 140.622139 
L 100.417904 138.961963 
L 102.408906 137.328664 
L 104.542436 135.738166 
L 106.796779 134.204762 
L 111.579913 131.360272 
L 116.579632 128.888183 
L 121.610356 126.869438 
L 126.47344 125.372704 
L 128.774165 124.836563 
L 132.930627 124.203703 
L 134.882078 124.103295 
L 136.945692 124.151223 
L 139.111238 124.347451 
L 141.366665 124.689717 
L 143.699071 125.173695 
L 146.095363 125.793309 
L 151.028374 127.408488 
L 156.06763 129.464145 
L 161.12268 131.87929 
L 166.1099 134.567737 
L 170.950993 137.440681 
L 177.484618 141.68574 
L 179.11173 142.884555 
L 180.760905 144.355996 
L 182.421845 146.083086 
L 184.086545 148.040274 
L 187.416534 152.521342 
L 192.48366 160.170724 
L 196.051031 165.524195 
L 197.950475 168.189933 
L 199.964482 170.810636 
L 202.129008 173.35565 
L 204.486854 175.788145 
L 207.085522 178.05905 
L 209.969636 180.099628 
L 213.165281 181.817248 
L 216.389891 183.03609 
L 219.479479 183.829463 
L 222.6482 184.380423 
L 225.886741 184.714528 
L 229.185732 184.851211 
L 232.534743 184.805507 
L 235.92202 184.589366 
L 239.334557 184.212555 
L 242.758299 183.68326 
L 246.178383 183.008458 
L 249.579372 182.19412 
L 252.945473 181.24529 
L 256.26074 180.166052 
L 259.509246 178.959386 
L 262.675234 177.626896 
L 265.743214 176.168391 
L 268.697967 174.581247 
L 271.524351 172.859519 
L 274.206703 170.992725 
L 276.987738 168.712775 
L 279.58915 165.95579 
L 281.687389 162.987694 
L 283.376571 159.893048 
L 284.746723 156.717848 
L 285.872528 153.489692 
L 286.813673 150.230815 
L 288.327241 143.71722 
L 290.828449 131.608183 
L 292.177101 126.691372 
L 292.893852 124.695933 
L 293.60734 123.071215 
L 294.847347 120.947765 
L 295.606768 120.150257 
L 296.779488 119.337289 
L 298.184203 118.605693 
L 299.830227 117.966259 
L 301.711416 117.430284 
L 303.811686 117.004846 
L 306.109852 116.691463 
L 308.582898 116.486507 
L 313.96271 116.367819 
L 319.781051 116.55492 
L 341.679199 117.754223 
L 358.380918 117.838014 
L 369.518931 118.259072 
L 397.843212 119.617139 
L 397.843212 119.617139 
" style="fill:none;stroke:#ffffff;stroke-linecap:square;"/>
   </g>
   <g id="patch_3">
    <path d="M 57.6 307.584 
L 57.6 41.472 
" style="fill:none;stroke:#000000;stroke-linecap:square;stroke-linejoin:miter;stroke-width:0.8;"/>
   </g>
   <g id="patch_4">
    <path d="M 414.72 307.584 
L 414.72 41.472 
" style="fill:none;stroke:#000000;stroke-linecap:square;stroke-linejoin:miter;stroke-width:0.8;"/>
   </g>
   <g id="patch_5">
    <path d="M 57.6 307.584 
L 414.72 307.584 
" style="fill:none;stroke:#000000;stroke-linecap:square;stroke-linejoin:miter;stroke-width:0.8;"/>
   </g>
   <g id="patch_6">
    <path d="M 57.6 41.472 
L 414.72 41.472 
" style="fill:none;stroke:#000000;stroke-linecap:square;stroke-linejoin:miter;stroke-width:0.8;"/>
   </g>
  </g>
 </g>
 <defs>
  <clipPath id="p1487a77f88">
   <rect height="266.112" width="357.12" x="57.6" y="41.472"/>
  </clipPath>
 </defs>
</svg>
