<?xml version="1.0" encoding="utf-8" standalone="no"?>
<!DOCTYPE svg PUBLIC "-//W3C//DTD SVG 1.1//EN"
  "http://www.w3.org/Graphics/SVG/1.1/DTD/svg11.dtd">
<!-- Created with matplotlib (https://matplotlib.org/) -->
<svg height="345.6pt" version="1.1" viewBox="0 0 460.8 345.6" width="460.8pt" xmlns="http://www.w3.org/2000/svg" xmlns:xlink="http://www.w3.org/1999/xlink">
 <metadata>
  <rdf:RDF xmlns:cc="http://creativecommons.org/ns#" xmlns:dc="http://purl.org/dc/elements/1.1/" xmlns:rdf="http://www.w3.org/1999/02/22-rdf-syntax-ns#">
   <cc:Work>
    <dc:type rdf:resource="http://purl.org/dc/dcmitype/StillImage"/>
    <dc:date>2021-06-19T15:43:31.764019</dc:date>
    <dc:format>image/svg+xml</dc:format>
    <dc:creator>
     <cc:Agent>
      <dc:title>Matplotlib v3.3.3, https://matplotlib.org/</dc:title>
     </cc:Agent>
    </dc:creator>
   </cc:Work>
  </rdf:RDF>
 </metadata>
 <defs>
  <style type="text/css">*{stroke-linecap:butt;stroke-linejoin:round;}</style>
 </defs>
 <g id="figure_1">
  <g id="patch_1">
   <path d="M 0 345.6 
L 460.8 345.6 
L 460.8 0 
L 0 0 
z
" style="fill:#ffffff;"/>
  </g>
  <g id="axes_1">
   <g id="patch_2">
    <path d="M 57.6 307.584 
L 414.72 307.584 
L 414.72 41.472 
L 57.6 41.472 
z
" style="fill:#7d9051;"/>
   </g>
   <g id="matplotlib.axis_1">
    <g id="xtick_1">
     <g id="line2d_1">
      <defs>
       <path d="M 0 0 
L 0 3.5 
" id="mc21d230e80" style="stroke:#000000;stroke-width:0.8;"/>
      </defs>
      <g>
       <use style="stroke:#000000;stroke-width:0.8;" x="77.838604" xlink:href="#mc21d230e80" y="307.584"/>
      </g>
     </g>
     <g id="text_1">
      <!-- −140 -->
      <g transform="translate(64.105011 322.182437)scale(0.1 -0.1)">
       <defs>
        <path d="M 10.59375 35.5 
L 73.1875 35.5 
L 73.1875 27.203125 
L 10.59375 27.203125 
z
" id="DejaVuSans-8722"/>
        <path d="M 12.40625 8.296875 
L 28.515625 8.296875 
L 28.515625 63.921875 
L 10.984375 60.40625 
L 10.984375 69.390625 
L 28.421875 72.90625 
L 38.28125 72.90625 
L 38.28125 8.296875 
L 54.390625 8.296875 
L 54.390625 0 
L 12.40625 0 
z
" id="DejaVuSans-49"/>
        <path d="M 37.796875 64.3125 
L 12.890625 25.390625 
L 37.796875 25.390625 
z
M 35.203125 72.90625 
L 47.609375 72.90625 
L 47.609375 25.390625 
L 58.015625 25.390625 
L 58.015625 17.1875 
L 47.609375 17.1875 
L 47.609375 0 
L 37.796875 0 
L 37.796875 17.1875 
L 4.890625 17.1875 
L 4.890625 26.703125 
z
" id="DejaVuSans-52"/>
        <path d="M 31.78125 66.40625 
Q 24.171875 66.40625 20.328125 58.90625 
Q 16.5 51.421875 16.5 36.375 
Q 16.5 21.390625 20.328125 13.890625 
Q 24.171875 6.390625 31.78125 6.390625 
Q 39.453125 6.390625 43.28125 13.890625 
Q 47.125 21.390625 47.125 36.375 
Q 47.125 51.421875 43.28125 58.90625 
Q 39.453125 66.40625 31.78125 66.40625 
z
M 31.78125 74.21875 
Q 44.046875 74.21875 50.515625 64.515625 
Q 56.984375 54.828125 56.984375 36.375 
Q 56.984375 17.96875 50.515625 8.265625 
Q 44.046875 -1.421875 31.78125 -1.421875 
Q 19.53125 -1.421875 13.0625 8.265625 
Q 6.59375 17.96875 6.59375 36.375 
Q 6.59375 54.828125 13.0625 64.515625 
Q 19.53125 74.21875 31.78125 74.21875 
z
" id="DejaVuSans-48"/>
       </defs>
       <use xlink:href="#DejaVuSans-8722"/>
       <use x="83.789062" xlink:href="#DejaVuSans-49"/>
       <use x="147.412109" xlink:href="#DejaVuSans-52"/>
       <use x="211.035156" xlink:href="#DejaVuSans-48"/>
      </g>
     </g>
    </g>
    <g id="xtick_2">
     <g id="line2d_2">
      <g>
       <use style="stroke:#000000;stroke-width:0.8;" x="121.630966" xlink:href="#mc21d230e80" y="307.584"/>
      </g>
     </g>
     <g id="text_2">
      <!-- −120 -->
      <g transform="translate(107.897372 322.182437)scale(0.1 -0.1)">
       <defs>
        <path d="M 19.1875 8.296875 
L 53.609375 8.296875 
L 53.609375 0 
L 7.328125 0 
L 7.328125 8.296875 
Q 12.9375 14.109375 22.625 23.890625 
Q 32.328125 33.6875 34.8125 36.53125 
Q 39.546875 41.84375 41.421875 45.53125 
Q 43.3125 49.21875 43.3125 52.78125 
Q 43.3125 58.59375 39.234375 62.25 
Q 35.15625 65.921875 28.609375 65.921875 
Q 23.96875 65.921875 18.8125 64.3125 
Q 13.671875 62.703125 7.8125 59.421875 
L 7.8125 69.390625 
Q 13.765625 71.78125 18.9375 73 
Q 24.125 74.21875 28.421875 74.21875 
Q 39.75 74.21875 46.484375 68.546875 
Q 53.21875 62.890625 53.21875 53.421875 
Q 53.21875 48.921875 51.53125 44.890625 
Q 49.859375 40.875 45.40625 35.40625 
Q 44.1875 33.984375 37.640625 27.21875 
Q 31.109375 20.453125 19.1875 8.296875 
z
" id="DejaVuSans-50"/>
       </defs>
       <use xlink:href="#DejaVuSans-8722"/>
       <use x="83.789062" xlink:href="#DejaVuSans-49"/>
       <use x="147.412109" xlink:href="#DejaVuSans-50"/>
       <use x="211.035156" xlink:href="#DejaVuSans-48"/>
      </g>
     </g>
    </g>
    <g id="xtick_3">
     <g id="line2d_3">
      <g>
       <use style="stroke:#000000;stroke-width:0.8;" x="165.423328" xlink:href="#mc21d230e80" y="307.584"/>
      </g>
     </g>
     <g id="text_3">
      <!-- −100 -->
      <g transform="translate(151.689734 322.182437)scale(0.1 -0.1)">
       <use xlink:href="#DejaVuSans-8722"/>
       <use x="83.789062" xlink:href="#DejaVuSans-49"/>
       <use x="147.412109" xlink:href="#DejaVuSans-48"/>
       <use x="211.035156" xlink:href="#DejaVuSans-48"/>
      </g>
     </g>
    </g>
    <g id="xtick_4">
     <g id="line2d_4">
      <g>
       <use style="stroke:#000000;stroke-width:0.8;" x="209.215689" xlink:href="#mc21d230e80" y="307.584"/>
      </g>
     </g>
     <g id="text_4">
      <!-- −80 -->
      <g transform="translate(198.663345 322.182437)scale(0.1 -0.1)">
       <defs>
        <path d="M 31.78125 34.625 
Q 24.75 34.625 20.71875 30.859375 
Q 16.703125 27.09375 16.703125 20.515625 
Q 16.703125 13.921875 20.71875 10.15625 
Q 24.75 6.390625 31.78125 6.390625 
Q 38.8125 6.390625 42.859375 10.171875 
Q 46.921875 13.96875 46.921875 20.515625 
Q 46.921875 27.09375 42.890625 30.859375 
Q 38.875 34.625 31.78125 34.625 
z
M 21.921875 38.8125 
Q 15.578125 40.375 12.03125 44.71875 
Q 8.5 49.078125 8.5 55.328125 
Q 8.5 64.0625 14.71875 69.140625 
Q 20.953125 74.21875 31.78125 74.21875 
Q 42.671875 74.21875 48.875 69.140625 
Q 55.078125 64.0625 55.078125 55.328125 
Q 55.078125 49.078125 51.53125 44.71875 
Q 48 40.375 41.703125 38.8125 
Q 48.828125 37.15625 52.796875 32.3125 
Q 56.78125 27.484375 56.78125 20.515625 
Q 56.78125 9.90625 50.3125 4.234375 
Q 43.84375 -1.421875 31.78125 -1.421875 
Q 19.734375 -1.421875 13.25 4.234375 
Q 6.78125 9.90625 6.78125 20.515625 
Q 6.78125 27.484375 10.78125 32.3125 
Q 14.796875 37.15625 21.921875 38.8125 
z
M 18.3125 54.390625 
Q 18.3125 48.734375 21.84375 45.5625 
Q 25.390625 42.390625 31.78125 42.390625 
Q 38.140625 42.390625 41.71875 45.5625 
Q 45.3125 48.734375 45.3125 54.390625 
Q 45.3125 60.0625 41.71875 63.234375 
Q 38.140625 66.40625 31.78125 66.40625 
Q 25.390625 66.40625 21.84375 63.234375 
Q 18.3125 60.0625 18.3125 54.390625 
z
" id="DejaVuSans-56"/>
       </defs>
       <use xlink:href="#DejaVuSans-8722"/>
       <use x="83.789062" xlink:href="#DejaVuSans-56"/>
       <use x="147.412109" xlink:href="#DejaVuSans-48"/>
      </g>
     </g>
    </g>
    <g id="xtick_5">
     <g id="line2d_5">
      <g>
       <use style="stroke:#000000;stroke-width:0.8;" x="253.008051" xlink:href="#mc21d230e80" y="307.584"/>
      </g>
     </g>
     <g id="text_5">
      <!-- −60 -->
      <g transform="translate(242.455707 322.182437)scale(0.1 -0.1)">
       <defs>
        <path d="M 33.015625 40.375 
Q 26.375 40.375 22.484375 35.828125 
Q 18.609375 31.296875 18.609375 23.390625 
Q 18.609375 15.53125 22.484375 10.953125 
Q 26.375 6.390625 33.015625 6.390625 
Q 39.65625 6.390625 43.53125 10.953125 
Q 47.40625 15.53125 47.40625 23.390625 
Q 47.40625 31.296875 43.53125 35.828125 
Q 39.65625 40.375 33.015625 40.375 
z
M 52.59375 71.296875 
L 52.59375 62.3125 
Q 48.875 64.0625 45.09375 64.984375 
Q 41.3125 65.921875 37.59375 65.921875 
Q 27.828125 65.921875 22.671875 59.328125 
Q 17.53125 52.734375 16.796875 39.40625 
Q 19.671875 43.65625 24.015625 45.921875 
Q 28.375 48.1875 33.59375 48.1875 
Q 44.578125 48.1875 50.953125 41.515625 
Q 57.328125 34.859375 57.328125 23.390625 
Q 57.328125 12.15625 50.6875 5.359375 
Q 44.046875 -1.421875 33.015625 -1.421875 
Q 20.359375 -1.421875 13.671875 8.265625 
Q 6.984375 17.96875 6.984375 36.375 
Q 6.984375 53.65625 15.1875 63.9375 
Q 23.390625 74.21875 37.203125 74.21875 
Q 40.921875 74.21875 44.703125 73.484375 
Q 48.484375 72.75 52.59375 71.296875 
z
" id="DejaVuSans-54"/>
       </defs>
       <use xlink:href="#DejaVuSans-8722"/>
       <use x="83.789062" xlink:href="#DejaVuSans-54"/>
       <use x="147.412109" xlink:href="#DejaVuSans-48"/>
      </g>
     </g>
    </g>
    <g id="xtick_6">
     <g id="line2d_6">
      <g>
       <use style="stroke:#000000;stroke-width:0.8;" x="296.800412" xlink:href="#mc21d230e80" y="307.584"/>
      </g>
     </g>
     <g id="text_6">
      <!-- −40 -->
      <g transform="translate(286.248069 322.182437)scale(0.1 -0.1)">
       <use xlink:href="#DejaVuSans-8722"/>
       <use x="83.789062" xlink:href="#DejaVuSans-52"/>
       <use x="147.412109" xlink:href="#DejaVuSans-48"/>
      </g>
     </g>
    </g>
    <g id="xtick_7">
     <g id="line2d_7">
      <g>
       <use style="stroke:#000000;stroke-width:0.8;" x="340.592774" xlink:href="#mc21d230e80" y="307.584"/>
      </g>
     </g>
     <g id="text_7">
      <!-- −20 -->
      <g transform="translate(330.04043 322.182437)scale(0.1 -0.1)">
       <use xlink:href="#DejaVuSans-8722"/>
       <use x="83.789062" xlink:href="#DejaVuSans-50"/>
       <use x="147.412109" xlink:href="#DejaVuSans-48"/>
      </g>
     </g>
    </g>
    <g id="xtick_8">
     <g id="line2d_8">
      <g>
       <use style="stroke:#000000;stroke-width:0.8;" x="384.385136" xlink:href="#mc21d230e80" y="307.584"/>
      </g>
     </g>
     <g id="text_8">
      <!-- 0 -->
      <g transform="translate(381.203886 322.182437)scale(0.1 -0.1)">
       <use xlink:href="#DejaVuSans-48"/>
      </g>
     </g>
    </g>
   </g>
   <g id="matplotlib.axis_2">
    <g id="ytick_1">
     <g id="line2d_9">
      <defs>
       <path d="M 0 0 
L -3.5 0 
" id="m59351b4790" style="stroke:#000000;stroke-width:0.8;"/>
      </defs>
      <g>
       <use style="stroke:#000000;stroke-width:0.8;" x="57.6" xlink:href="#m59351b4790" y="272.224108"/>
      </g>
     </g>
     <g id="text_9">
      <!-- 0 -->
      <g transform="translate(44.2375 276.023327)scale(0.1 -0.1)">
       <use xlink:href="#DejaVuSans-48"/>
      </g>
     </g>
    </g>
    <g id="ytick_2">
     <g id="line2d_10">
      <g>
       <use style="stroke:#000000;stroke-width:0.8;" x="57.6" xlink:href="#m59351b4790" y="228.431747"/>
      </g>
     </g>
     <g id="text_10">
      <!-- 20 -->
      <g transform="translate(37.875 232.230966)scale(0.1 -0.1)">
       <use xlink:href="#DejaVuSans-50"/>
       <use x="63.623047" xlink:href="#DejaVuSans-48"/>
      </g>
     </g>
    </g>
    <g id="ytick_3">
     <g id="line2d_11">
      <g>
       <use style="stroke:#000000;stroke-width:0.8;" x="57.6" xlink:href="#m59351b4790" y="184.639385"/>
      </g>
     </g>
     <g id="text_11">
      <!-- 40 -->
      <g transform="translate(37.875 188.438604)scale(0.1 -0.1)">
       <use xlink:href="#DejaVuSans-52"/>
       <use x="63.623047" xlink:href="#DejaVuSans-48"/>
      </g>
     </g>
    </g>
    <g id="ytick_4">
     <g id="line2d_12">
      <g>
       <use style="stroke:#000000;stroke-width:0.8;" x="57.6" xlink:href="#m59351b4790" y="140.847024"/>
      </g>
     </g>
     <g id="text_12">
      <!-- 60 -->
      <g transform="translate(37.875 144.646242)scale(0.1 -0.1)">
       <use xlink:href="#DejaVuSans-54"/>
       <use x="63.623047" xlink:href="#DejaVuSans-48"/>
      </g>
     </g>
    </g>
    <g id="ytick_5">
     <g id="line2d_13">
      <g>
       <use style="stroke:#000000;stroke-width:0.8;" x="57.6" xlink:href="#m59351b4790" y="97.054662"/>
      </g>
     </g>
     <g id="text_13">
      <!-- 80 -->
      <g transform="translate(37.875 100.853881)scale(0.1 -0.1)">
       <use xlink:href="#DejaVuSans-56"/>
       <use x="63.623047" xlink:href="#DejaVuSans-48"/>
      </g>
     </g>
    </g>
    <g id="ytick_6">
     <g id="line2d_14">
      <g>
       <use style="stroke:#000000;stroke-width:0.8;" x="57.6" xlink:href="#m59351b4790" y="53.2623"/>
      </g>
     </g>
     <g id="text_14">
      <!-- 100 -->
      <g transform="translate(31.5125 57.061519)scale(0.1 -0.1)">
       <use xlink:href="#DejaVuSans-49"/>
       <use x="63.623047" xlink:href="#DejaVuSans-48"/>
       <use x="127.246094" xlink:href="#DejaVuSans-48"/>
      </g>
     </g>
    </g>
   </g>
   <g id="line2d_15">
    <path clip-path="url(#pcd2d27195b)" d="M 384.385136 272.224108 
L 384.666908 252.059033 
L 385.457121 214.569895 
L 386.022144 208.518394 
L 386.882061 202.282622 
L 388.778831 189.700515 
L 389.461812 183.575306 
L 389.659541 180.602533 
L 389.73194 177.708075 
L 389.656891 174.905752 
L 389.412278 172.209385 
L 388.975984 169.632794 
L 388.325891 167.189799 
L 387.439882 164.894221 
L 386.295841 162.759879 
L 384.865593 160.715736 
L 383.153437 158.690162 
L 381.185968 156.696086 
L 378.989778 154.746439 
L 376.591462 152.854149 
L 374.017613 151.032148 
L 371.294824 149.293366 
L 368.44969 147.650732 
L 365.508803 146.117177 
L 362.498758 144.705631 
L 359.446147 143.429023 
L 356.377565 142.300284 
L 353.319604 141.332344 
L 350.298859 140.538133 
L 347.341924 139.930581 
L 344.475391 139.522618 
L 341.725854 139.327174 
L 339.119907 139.35718 
L 336.684143 139.625564 
L 334.390001 140.228545 
L 332.183748 141.225634 
L 330.054221 142.574701 
L 327.990255 144.233618 
L 325.980689 146.160254 
L 324.014358 148.312482 
L 320.166749 153.125195 
L 310.522913 166.155781 
L 308.500585 168.596088 
L 306.421023 170.882825 
L 304.273062 172.973861 
L 302.045539 174.827068 
L 299.727292 176.400317 
L 297.307157 177.651477 
L 294.78096 178.673468 
L 292.158685 179.58849 
L 289.450407 180.398337 
L 286.6662 181.104803 
L 280.91029 182.214773 
L 274.971548 182.932753 
L 268.930563 183.273102 
L 262.867927 183.250172 
L 256.864231 182.878322 
L 251.000064 182.171905 
L 245.356018 181.145278 
L 239.968895 179.787905 
L 234.636545 177.978323 
L 229.344625 175.740564 
L 224.120358 173.125052 
L 218.99097 170.182212 
L 213.983681 166.962468 
L 209.125717 163.516246 
L 204.4443 159.893969 
L 199.966653 156.146064 
L 195.719999 152.322954 
L 193.725748 150.325329 
L 191.855012 148.18805 
L 190.092696 145.928655 
L 188.423703 143.564683 
L 185.3053 138.593164 
L 182.379036 133.413802 
L 176.619844 122.992788 
L 173.545377 118.031754 
L 171.90659 115.674991 
L 170.179971 113.424116 
L 168.350425 111.296667 
L 166.402855 109.310182 
L 164.322166 107.482201 
L 159.731776 103.919882 
L 154.654726 100.301624 
L 149.218508 96.773178 
L 143.550615 93.480295 
L 137.778538 90.568728 
L 134.893272 89.301484 
L 132.029771 88.184226 
L 129.203969 87.235173 
L 126.431805 86.472542 
L 123.729214 85.914554 
L 121.112132 85.579427 
L 118.596498 85.485381 
L 116.198246 85.650633 
L 113.933314 86.093403 
L 111.7864 86.855863 
L 109.726713 87.949222 
L 107.746959 89.345252 
L 105.839845 91.015725 
L 103.998075 92.932413 
L 102.214356 95.067089 
L 100.481393 97.391524 
L 97.138558 102.496762 
L 93.911216 108.022304 
L 85.965192 122.193033 
L 82.682533 127.41129 
L 80.989688 129.811071 
L 80.989688 129.811071 
" style="fill:none;stroke:#fea952;stroke-linecap:square;"/>
   </g>
   <g id="line2d_16">
    <path clip-path="url(#pcd2d27195b)" d="M 375.627069 272.139844 
L 375.909922 251.897709 
L 376.588984 217.142685 
L 376.725379 213.886144 
L 377.337087 207.386743 
L 378.225542 200.950133 
L 380.08663 188.625122 
L 380.722649 182.994035 
L 380.976606 177.94255 
L 380.934239 175.697066 
L 380.776733 173.671643 
L 380.512059 171.885086 
L 380.154905 170.343498 
L 379.720434 169.031969 
L 379.119547 167.780998 
L 378.176578 166.369755 
L 376.918808 164.841604 
L 375.371356 163.245982 
L 373.564616 161.622371 
L 371.531026 160.002773 
L 369.303641 158.413836 
L 366.915599 156.878432 
L 364.400022 155.41675 
L 361.790142 154.047019 
L 359.119547 152.785963 
L 356.422522 151.649031 
L 353.734482 150.650431 
L 351.092525 149.802938 
L 348.536108 149.117384 
L 346.107859 148.601678 
L 343.854384 148.259047 
L 341.826693 148.085066 
L 338.910558 148.096332 
L 337.997024 148.209787 
L 336.870896 148.624383 
L 335.5412 149.401406 
L 334.051605 150.55587 
L 332.446819 152.067877 
L 330.760028 153.898785 
L 327.210839 158.330157 
L 317.266639 171.74443 
L 314.980327 174.488778 
L 312.53048 177.158601 
L 309.874636 179.706855 
L 306.96376 182.074271 
L 303.749529 184.180577 
L 300.591844 185.770694 
L 297.666529 186.94295 
L 294.667918 187.97983 
L 291.604523 188.887779 
L 288.484544 189.672444 
L 285.316028 190.338772 
L 282.10697 190.891108 
L 275.599269 191.668702 
L 269.02597 192.031054 
L 262.45228 191.998777 
L 255.943625 191.588277 
L 249.564827 190.811982 
L 243.379039 189.677709 
L 240.338652 188.966619 
L 237.316924 188.135233 
L 234.324903 187.177712 
L 231.364142 186.102498 
L 225.542366 183.630664 
L 219.863939 180.779706 
L 214.342573 177.605368 
L 208.993803 174.16052 
L 203.83495 170.496118 
L 198.884869 166.661803 
L 194.163636 162.706234 
L 189.521592 158.510893 
L 187.135268 156.0939 
L 184.94892 153.574767 
L 182.937744 150.98014 
L 181.076946 148.332912 
L 177.713075 142.959966 
L 174.687143 137.602552 
L 169.108016 127.496484 
L 166.354501 123.031968 
L 163.539334 119.134876 
L 162.096294 117.42828 
L 160.622158 115.890029 
L 158.881028 114.345499 
L 154.573787 110.99844 
L 149.801852 107.592745 
L 144.717767 104.286776 
L 139.479293 101.234983 
L 134.256458 98.587817 
L 129.241278 96.486946 
L 126.880796 95.679917 
L 124.660846 95.050103 
L 122.616743 94.602088 
L 120.784926 94.331786 
L 119.198575 94.223134 
L 116.86446 94.34684 
L 115.892994 94.591929 
L 114.774093 95.10707 
L 113.517873 95.933681 
L 112.155216 97.084244 
L 110.719046 98.548407 
L 109.236132 100.302115 
L 107.725301 102.314595 
L 104.66122 106.982338 
L 101.561376 112.286797 
L 93.444582 126.750397 
L 89.839494 132.459929 
L 88.146649 134.85971 
L 88.146649 134.85971 
" style="fill:none;stroke:#ffffff;stroke-linecap:square;"/>
   </g>
   <g id="line2d_17">
    <path clip-path="url(#pcd2d27195b)" d="M 393.143203 272.308373 
L 393.423895 252.220356 
L 394.188863 215.253646 
L 394.7072 209.650044 
L 395.538579 203.61511 
L 397.471033 190.775909 
L 398.200974 184.156576 
L 398.415275 180.821539 
L 398.487273 177.4736 
L 398.379543 174.114438 
L 398.047823 170.747128 
L 397.439908 167.380502 
L 396.496877 164.0361 
L 395.15933 160.756473 
L 393.472135 157.73876 
L 391.554607 155.061718 
L 389.388066 152.538721 
L 387.000579 150.146191 
L 384.41494 147.870506 
L 381.651898 145.705525 
L 378.731584 143.650461 
L 375.67405 141.7083 
L 372.499358 139.884715 
L 369.227464 138.187335 
L 365.877968 136.625298 
L 362.469772 135.209015 
L 359.020647 133.950137 
L 355.546684 132.861751 
L 352.06161 131.958882 
L 348.575988 131.259484 
L 345.096397 130.786189 
L 341.625014 130.569283 
L 338.16066 130.651395 
L 334.457728 131.154796 
L 330.782978 132.247303 
L 327.496601 133.826885 
L 324.567242 135.747996 
L 321.928906 137.911365 
L 319.51456 140.252632 
L 317.268689 142.726179 
L 313.12266 147.920232 
L 303.779188 160.567131 
L 300.311565 164.607049 
L 298.671488 166.240868 
L 297.127319 167.579866 
L 295.705056 168.620056 
L 294.02247 169.532261 
L 291.895391 170.403987 
L 289.649453 171.19715 
L 284.847855 172.537163 
L 279.71361 173.538437 
L 274.343827 174.196805 
L 268.835156 174.515149 
L 263.283574 174.501568 
L 257.784837 174.168366 
L 252.435301 173.531828 
L 247.332997 172.612846 
L 242.620867 171.440577 
L 237.908948 169.854149 
L 233.146883 167.850465 
L 228.376778 165.470398 
L 223.639367 162.759056 
L 218.973559 159.764416 
L 214.416484 156.536373 
L 210.00373 153.126136 
L 205.769669 149.585894 
L 201.918407 146.135016 
L 200.316228 144.556758 
L 198.761105 142.801333 
L 197.247648 140.87717 
L 194.323091 136.574024 
L 191.483989 131.77082 
L 182.486823 115.753052 
L 180.736254 113.03154 
L 178.855956 110.344218 
L 176.820608 107.713356 
L 174.604556 105.165053 
L 172.183552 102.730336 
L 169.763304 100.618903 
L 164.889765 96.841324 
L 159.507601 93.010503 
L 153.719249 89.259579 
L 147.621936 85.725608 
L 144.484687 84.083818 
L 141.300619 82.549639 
L 138.076839 81.142088 
L 134.818263 79.881507 
L 131.527142 78.790428 
L 128.202763 77.894982 
L 124.841684 77.22702 
L 121.439339 76.827069 
L 117.994421 76.747627 
L 114.517866 77.054868 
L 111.002169 77.839965 
L 107.679805 79.119797 
L 104.679332 80.791374 
L 101.976046 82.756823 
L 99.524474 84.947206 
L 97.277104 87.316419 
L 95.19258 89.832063 
L 93.237485 92.468453 
L 89.615896 98.011185 
L 86.261057 103.757811 
L 78.485802 117.635669 
L 75.525573 122.362652 
L 73.832727 124.762433 
L 73.832727 124.762433 
" style="fill:none;stroke:#ffffff;stroke-linecap:square;"/>
   </g>
   <g id="patch_3">
    <path d="M 57.6 307.584 
L 57.6 41.472 
" style="fill:none;stroke:#000000;stroke-linecap:square;stroke-linejoin:miter;stroke-width:0.8;"/>
   </g>
   <g id="patch_4">
    <path d="M 414.72 307.584 
L 414.72 41.472 
" style="fill:none;stroke:#000000;stroke-linecap:square;stroke-linejoin:miter;stroke-width:0.8;"/>
   </g>
   <g id="patch_5">
    <path d="M 57.6 307.584 
L 414.72 307.584 
" style="fill:none;stroke:#000000;stroke-linecap:square;stroke-linejoin:miter;stroke-width:0.8;"/>
   </g>
   <g id="patch_6">
    <path d="M 57.6 41.472 
L 414.72 41.472 
" style="fill:none;stroke:#000000;stroke-linecap:square;stroke-linejoin:miter;stroke-width:0.8;"/>
   </g>
  </g>
 </g>
 <defs>
  <clipPath id="pcd2d27195b">
   <rect height="266.112" width="357.12" x="57.6" y="41.472"/>
  </clipPath>
 </defs>
</svg>
