<?xml version="1.0" encoding="utf-8" standalone="no"?>
<!DOCTYPE svg PUBLIC "-//W3C//DTD SVG 1.1//EN"
  "http://www.w3.org/Graphics/SVG/1.1/DTD/svg11.dtd">
<!-- Created with matplotlib (https://matplotlib.org/) -->
<svg height="345.6pt" version="1.1" viewBox="0 0 460.8 345.6" width="460.8pt" xmlns="http://www.w3.org/2000/svg" xmlns:xlink="http://www.w3.org/1999/xlink">
 <metadata>
  <rdf:RDF xmlns:cc="http://creativecommons.org/ns#" xmlns:dc="http://purl.org/dc/elements/1.1/" xmlns:rdf="http://www.w3.org/1999/02/22-rdf-syntax-ns#">
   <cc:Work>
    <dc:type rdf:resource="http://purl.org/dc/dcmitype/StillImage"/>
    <dc:date>2021-06-18T07:36:53.032353</dc:date>
    <dc:format>image/svg+xml</dc:format>
    <dc:creator>
     <cc:Agent>
      <dc:title>Matplotlib v3.3.3, https://matplotlib.org/</dc:title>
     </cc:Agent>
    </dc:creator>
   </cc:Work>
  </rdf:RDF>
 </metadata>
 <defs>
  <style type="text/css">*{stroke-linecap:butt;stroke-linejoin:round;}</style>
 </defs>
 <g id="figure_1">
  <g id="patch_1">
   <path d="M 0 345.6 
L 460.8 345.6 
L 460.8 0 
L 0 0 
z
" style="fill:#ffffff;"/>
  </g>
  <g id="axes_1">
   <g id="patch_2">
    <path d="M 57.6 307.584 
L 414.72 307.584 
L 414.72 41.472 
L 57.6 41.472 
z
" style="fill:#7d9051;"/>
   </g>
   <g id="matplotlib.axis_1">
    <g id="xtick_1">
     <g id="line2d_1">
      <defs>
       <path d="M 0 0 
L 0 3.5 
" id="md92ce06c3c" style="stroke:#000000;stroke-width:0.8;"/>
      </defs>
      <g>
       <use style="stroke:#000000;stroke-width:0.8;" x="62.268761" xlink:href="#md92ce06c3c" y="307.584"/>
      </g>
     </g>
     <g id="text_1">
      <!-- −100 -->
      <g transform="translate(48.535168 322.182437)scale(0.1 -0.1)">
       <defs>
        <path d="M 10.59375 35.5 
L 73.1875 35.5 
L 73.1875 27.203125 
L 10.59375 27.203125 
z
" id="DejaVuSans-8722"/>
        <path d="M 12.40625 8.296875 
L 28.515625 8.296875 
L 28.515625 63.921875 
L 10.984375 60.40625 
L 10.984375 69.390625 
L 28.421875 72.90625 
L 38.28125 72.90625 
L 38.28125 8.296875 
L 54.390625 8.296875 
L 54.390625 0 
L 12.40625 0 
z
" id="DejaVuSans-49"/>
        <path d="M 31.78125 66.40625 
Q 24.171875 66.40625 20.328125 58.90625 
Q 16.5 51.421875 16.5 36.375 
Q 16.5 21.390625 20.328125 13.890625 
Q 24.171875 6.390625 31.78125 6.390625 
Q 39.453125 6.390625 43.28125 13.890625 
Q 47.125 21.390625 47.125 36.375 
Q 47.125 51.421875 43.28125 58.90625 
Q 39.453125 66.40625 31.78125 66.40625 
z
M 31.78125 74.21875 
Q 44.046875 74.21875 50.515625 64.515625 
Q 56.984375 54.828125 56.984375 36.375 
Q 56.984375 17.96875 50.515625 8.265625 
Q 44.046875 -1.421875 31.78125 -1.421875 
Q 19.53125 -1.421875 13.0625 8.265625 
Q 6.59375 17.96875 6.59375 36.375 
Q 6.59375 54.828125 13.0625 64.515625 
Q 19.53125 74.21875 31.78125 74.21875 
z
" id="DejaVuSans-48"/>
       </defs>
       <use xlink:href="#DejaVuSans-8722"/>
       <use x="83.789062" xlink:href="#DejaVuSans-49"/>
       <use x="147.412109" xlink:href="#DejaVuSans-48"/>
       <use x="211.035156" xlink:href="#DejaVuSans-48"/>
      </g>
     </g>
    </g>
    <g id="xtick_2">
     <g id="line2d_2">
      <g>
       <use style="stroke:#000000;stroke-width:0.8;" x="127.818182" xlink:href="#md92ce06c3c" y="307.584"/>
      </g>
     </g>
     <g id="text_2">
      <!-- −50 -->
      <g transform="translate(117.265838 322.182437)scale(0.1 -0.1)">
       <defs>
        <path d="M 10.796875 72.90625 
L 49.515625 72.90625 
L 49.515625 64.59375 
L 19.828125 64.59375 
L 19.828125 46.734375 
Q 21.96875 47.46875 24.109375 47.828125 
Q 26.265625 48.1875 28.421875 48.1875 
Q 40.625 48.1875 47.75 41.5 
Q 54.890625 34.8125 54.890625 23.390625 
Q 54.890625 11.625 47.5625 5.09375 
Q 40.234375 -1.421875 26.90625 -1.421875 
Q 22.3125 -1.421875 17.546875 -0.640625 
Q 12.796875 0.140625 7.71875 1.703125 
L 7.71875 11.625 
Q 12.109375 9.234375 16.796875 8.0625 
Q 21.484375 6.890625 26.703125 6.890625 
Q 35.15625 6.890625 40.078125 11.328125 
Q 45.015625 15.765625 45.015625 23.390625 
Q 45.015625 31 40.078125 35.4375 
Q 35.15625 39.890625 26.703125 39.890625 
Q 22.75 39.890625 18.8125 39.015625 
Q 14.890625 38.140625 10.796875 36.28125 
z
" id="DejaVuSans-53"/>
       </defs>
       <use xlink:href="#DejaVuSans-8722"/>
       <use x="83.789062" xlink:href="#DejaVuSans-53"/>
       <use x="147.412109" xlink:href="#DejaVuSans-48"/>
      </g>
     </g>
    </g>
    <g id="xtick_3">
     <g id="line2d_3">
      <g>
       <use style="stroke:#000000;stroke-width:0.8;" x="193.367602" xlink:href="#md92ce06c3c" y="307.584"/>
      </g>
     </g>
     <g id="text_3">
      <!-- 0 -->
      <g transform="translate(190.186352 322.182437)scale(0.1 -0.1)">
       <use xlink:href="#DejaVuSans-48"/>
      </g>
     </g>
    </g>
    <g id="xtick_4">
     <g id="line2d_4">
      <g>
       <use style="stroke:#000000;stroke-width:0.8;" x="258.917022" xlink:href="#md92ce06c3c" y="307.584"/>
      </g>
     </g>
     <g id="text_4">
      <!-- 50 -->
      <g transform="translate(252.554522 322.182437)scale(0.1 -0.1)">
       <use xlink:href="#DejaVuSans-53"/>
       <use x="63.623047" xlink:href="#DejaVuSans-48"/>
      </g>
     </g>
    </g>
    <g id="xtick_5">
     <g id="line2d_5">
      <g>
       <use style="stroke:#000000;stroke-width:0.8;" x="324.466442" xlink:href="#md92ce06c3c" y="307.584"/>
      </g>
     </g>
     <g id="text_5">
      <!-- 100 -->
      <g transform="translate(314.922692 322.182437)scale(0.1 -0.1)">
       <use xlink:href="#DejaVuSans-49"/>
       <use x="63.623047" xlink:href="#DejaVuSans-48"/>
       <use x="127.246094" xlink:href="#DejaVuSans-48"/>
      </g>
     </g>
    </g>
    <g id="xtick_6">
     <g id="line2d_6">
      <g>
       <use style="stroke:#000000;stroke-width:0.8;" x="390.015862" xlink:href="#md92ce06c3c" y="307.584"/>
      </g>
     </g>
     <g id="text_6">
      <!-- 150 -->
      <g transform="translate(380.472112 322.182437)scale(0.1 -0.1)">
       <use xlink:href="#DejaVuSans-49"/>
       <use x="63.623047" xlink:href="#DejaVuSans-53"/>
       <use x="127.246094" xlink:href="#DejaVuSans-48"/>
      </g>
     </g>
    </g>
   </g>
   <g id="matplotlib.axis_2">
    <g id="ytick_1">
     <g id="line2d_7">
      <defs>
       <path d="M 0 0 
L -3.5 0 
" id="mc1850d76a1" style="stroke:#000000;stroke-width:0.8;"/>
      </defs>
      <g>
       <use style="stroke:#000000;stroke-width:0.8;" x="57.6" xlink:href="#mc1850d76a1" y="295.437548"/>
      </g>
     </g>
     <g id="text_7">
      <!-- 0 -->
      <g transform="translate(44.2375 299.236767)scale(0.1 -0.1)">
       <use xlink:href="#DejaVuSans-48"/>
      </g>
     </g>
    </g>
    <g id="ytick_2">
     <g id="line2d_8">
      <g>
       <use style="stroke:#000000;stroke-width:0.8;" x="57.6" xlink:href="#mc1850d76a1" y="262.662838"/>
      </g>
     </g>
     <g id="text_8">
      <!-- 25 -->
      <g transform="translate(37.875 266.462057)scale(0.1 -0.1)">
       <defs>
        <path d="M 19.1875 8.296875 
L 53.609375 8.296875 
L 53.609375 0 
L 7.328125 0 
L 7.328125 8.296875 
Q 12.9375 14.109375 22.625 23.890625 
Q 32.328125 33.6875 34.8125 36.53125 
Q 39.546875 41.84375 41.421875 45.53125 
Q 43.3125 49.21875 43.3125 52.78125 
Q 43.3125 58.59375 39.234375 62.25 
Q 35.15625 65.921875 28.609375 65.921875 
Q 23.96875 65.921875 18.8125 64.3125 
Q 13.671875 62.703125 7.8125 59.421875 
L 7.8125 69.390625 
Q 13.765625 71.78125 18.9375 73 
Q 24.125 74.21875 28.421875 74.21875 
Q 39.75 74.21875 46.484375 68.546875 
Q 53.21875 62.890625 53.21875 53.421875 
Q 53.21875 48.921875 51.53125 44.890625 
Q 49.859375 40.875 45.40625 35.40625 
Q 44.1875 33.984375 37.640625 27.21875 
Q 31.109375 20.453125 19.1875 8.296875 
z
" id="DejaVuSans-50"/>
       </defs>
       <use xlink:href="#DejaVuSans-50"/>
       <use x="63.623047" xlink:href="#DejaVuSans-53"/>
      </g>
     </g>
    </g>
    <g id="ytick_3">
     <g id="line2d_9">
      <g>
       <use style="stroke:#000000;stroke-width:0.8;" x="57.6" xlink:href="#mc1850d76a1" y="229.888128"/>
      </g>
     </g>
     <g id="text_9">
      <!-- 50 -->
      <g transform="translate(37.875 233.687347)scale(0.1 -0.1)">
       <use xlink:href="#DejaVuSans-53"/>
       <use x="63.623047" xlink:href="#DejaVuSans-48"/>
      </g>
     </g>
    </g>
    <g id="ytick_4">
     <g id="line2d_10">
      <g>
       <use style="stroke:#000000;stroke-width:0.8;" x="57.6" xlink:href="#mc1850d76a1" y="197.113418"/>
      </g>
     </g>
     <g id="text_10">
      <!-- 75 -->
      <g transform="translate(37.875 200.912637)scale(0.1 -0.1)">
       <defs>
        <path d="M 8.203125 72.90625 
L 55.078125 72.90625 
L 55.078125 68.703125 
L 28.609375 0 
L 18.3125 0 
L 43.21875 64.59375 
L 8.203125 64.59375 
z
" id="DejaVuSans-55"/>
       </defs>
       <use xlink:href="#DejaVuSans-55"/>
       <use x="63.623047" xlink:href="#DejaVuSans-53"/>
      </g>
     </g>
    </g>
    <g id="ytick_5">
     <g id="line2d_11">
      <g>
       <use style="stroke:#000000;stroke-width:0.8;" x="57.6" xlink:href="#mc1850d76a1" y="164.338708"/>
      </g>
     </g>
     <g id="text_11">
      <!-- 100 -->
      <g transform="translate(31.5125 168.137927)scale(0.1 -0.1)">
       <use xlink:href="#DejaVuSans-49"/>
       <use x="63.623047" xlink:href="#DejaVuSans-48"/>
       <use x="127.246094" xlink:href="#DejaVuSans-48"/>
      </g>
     </g>
    </g>
    <g id="ytick_6">
     <g id="line2d_12">
      <g>
       <use style="stroke:#000000;stroke-width:0.8;" x="57.6" xlink:href="#mc1850d76a1" y="131.563998"/>
      </g>
     </g>
     <g id="text_12">
      <!-- 125 -->
      <g transform="translate(31.5125 135.363217)scale(0.1 -0.1)">
       <use xlink:href="#DejaVuSans-49"/>
       <use x="63.623047" xlink:href="#DejaVuSans-50"/>
       <use x="127.246094" xlink:href="#DejaVuSans-53"/>
      </g>
     </g>
    </g>
    <g id="ytick_7">
     <g id="line2d_13">
      <g>
       <use style="stroke:#000000;stroke-width:0.8;" x="57.6" xlink:href="#mc1850d76a1" y="98.789288"/>
      </g>
     </g>
     <g id="text_13">
      <!-- 150 -->
      <g transform="translate(31.5125 102.588507)scale(0.1 -0.1)">
       <use xlink:href="#DejaVuSans-49"/>
       <use x="63.623047" xlink:href="#DejaVuSans-53"/>
       <use x="127.246094" xlink:href="#DejaVuSans-48"/>
      </g>
     </g>
    </g>
    <g id="ytick_8">
     <g id="line2d_14">
      <g>
       <use style="stroke:#000000;stroke-width:0.8;" x="57.6" xlink:href="#mc1850d76a1" y="66.014578"/>
      </g>
     </g>
     <g id="text_14">
      <!-- 175 -->
      <g transform="translate(31.5125 69.813797)scale(0.1 -0.1)">
       <use xlink:href="#DejaVuSans-49"/>
       <use x="63.623047" xlink:href="#DejaVuSans-55"/>
       <use x="127.246094" xlink:href="#DejaVuSans-53"/>
      </g>
     </g>
    </g>
   </g>
   <g id="line2d_15">
    <path clip-path="url(#p1ea78f3ecd)" d="M 193.367602 295.437548 
L 193.634879 278.190033 
L 193.937511 260.927752 
L 193.772368 257.37082 
L 193.098687 250.093165 
L 192.630985 244.652838 
L 192.498035 241.111262 
L 192.608324 237.685704 
L 193.0477 234.417113 
L 193.417623 232.854476 
L 193.902012 231.346436 
L 194.511597 229.898112 
L 195.297606 228.526812 
L 196.287167 227.239933 
L 197.454855 226.027723 
L 198.77525 224.880433 
L 201.772464 222.741608 
L 205.075431 220.745452 
L 211.785095 216.869125 
L 214.785032 214.832944 
L 216.107298 213.756221 
L 217.277198 212.627409 
L 218.269311 211.436758 
L 219.058212 210.174516 
L 219.618481 208.830934 
L 219.956482 207.416272 
L 220.107296 205.950068 
L 220.088574 204.436486 
L 219.917969 202.879688 
L 219.191711 199.6531 
L 218.069734 196.303611 
L 215.953695 191.1218 
L 213.065265 184.093434 
L 211.910042 180.60307 
L 211.135762 177.172995 
L 209.545182 166.80487 
L 208.929629 161.546525 
L 208.580578 156.307057 
L 208.550259 152.849899 
L 208.719872 149.439128 
L 209.122012 146.089947 
L 209.773746 142.786535 
L 211.082711 137.640523 
L 212.16945 134.145455 
L 213.433526 130.675672 
L 214.880134 127.297001 
L 216.514466 124.075269 
L 218.341717 121.076303 
L 220.367082 118.365932 
L 222.595754 116.009983 
L 223.787954 114.985488 
L 225.064265 114.095489 
L 226.448798 113.353128 
L 227.930384 112.742194 
L 229.497858 112.246475 
L 232.845796 111.535837 
L 236.403274 111.091523 
L 247.439571 110.059619 
L 250.941831 109.383694 
L 252.609614 108.910537 
L 254.206943 108.325637 
L 257.223317 106.799131 
L 261.971173 104.00965 
L 265.206205 101.895114 
L 268.370996 99.609859 
L 271.357479 97.182328 
L 274.057587 94.640969 
L 276.363254 92.014225 
L 277.334401 90.677724 
L 278.166414 89.330543 
L 278.845782 87.976239 
L 279.358999 86.618367 
L 279.692555 85.260483 
L 279.826995 83.885302 
L 279.763195 82.475167 
L 279.518148 81.033072 
L 279.108844 79.562014 
L 278.552277 78.06499 
L 277.06532 75.005027 
L 275.193211 71.877151 
L 271.960248 67.110434 
L 267.570336 60.740828 
L 265.647251 57.603964 
L 264.813148 56.058003 
L 264.813148 56.058003 
" style="fill:none;stroke:#fea952;stroke-linecap:square;"/>
   </g>
   <g id="line2d_16">
    <path clip-path="url(#p1ea78f3ecd)" d="M 188.123891 295.387096 
L 188.391975 278.08508 
L 188.696509 261.103663 
L 188.544446 257.780556 
L 187.879359 250.600774 
L 187.393927 244.921676 
L 187.25441 241.052534 
L 187.392798 237.140414 
L 187.607613 235.174924 
L 187.944784 233.209098 
L 188.424903 231.250794 
L 189.068717 229.312152 
L 189.962018 227.290358 
L 191.140582 225.33022 
L 192.510426 223.6019 
L 194.015385 222.069303 
L 195.617113 220.69412 
L 199.00342 218.288357 
L 202.481678 216.187877 
L 208.939546 212.464367 
L 211.473823 210.766625 
L 213.24852 209.270506 
L 214.218206 208.156252 
L 214.518088 207.612313 
L 214.740051 206.87971 
L 214.863743 206.014926 
L 214.875828 205.007738 
L 214.535969 202.595891 
L 213.731764 199.752155 
L 212.554947 196.588454 
L 207.439656 183.894222 
L 206.318397 179.87667 
L 205.410836 174.576315 
L 204.109231 165.666625 
L 203.546143 160.147906 
L 203.337892 156.422332 
L 203.309288 152.673036 
L 203.50245 148.912293 
L 203.962119 145.154774 
L 204.666759 141.595849 
L 205.548693 137.983875 
L 206.61451 134.280974 
L 207.875186 130.545417 
L 209.344382 126.835044 
L 211.039823 123.207205 
L 212.98525 119.719508 
L 215.212837 116.432285 
L 216.445277 114.884769 
L 217.764866 113.414365 
L 219.178017 112.032783 
L 220.788482 110.684067 
L 222.58628 109.473948 
L 224.449732 108.505161 
L 226.349156 107.742317 
L 228.266464 107.14915 
L 232.115247 106.34302 
L 235.938408 105.868215 
L 246.570563 104.888171 
L 249.510587 104.338836 
L 251.975155 103.580306 
L 254.648227 102.230985 
L 259.148964 99.5899 
L 262.190865 97.604803 
L 265.12836 95.48865 
L 267.841925 93.291321 
L 270.211315 91.076527 
L 272.120991 88.931653 
L 273.479152 86.979241 
L 274.26644 85.367409 
L 274.588401 84.122316 
L 274.593349 83.353651 
L 274.466104 82.43874 
L 274.193598 81.389416 
L 273.212092 78.962726 
L 271.714257 76.214862 
L 269.821609 73.248032 
L 262.059549 61.837429 
L 260.198072 58.548006 
L 260.198072 58.548006 
" style="fill:none;stroke:#ffffff;stroke-linecap:square;"/>
   </g>
   <g id="line2d_17">
    <path clip-path="url(#p1ea78f3ecd)" d="M 198.611313 295.488 
L 198.877782 278.294987 
L 199.178513 260.751842 
L 199.00029 256.961085 
L 198.318014 249.585557 
L 197.868042 244.384001 
L 197.74166 241.16999 
L 197.823849 238.230994 
L 198.150615 235.625128 
L 198.735306 233.38072 
L 199.454631 231.723403 
L 200.063907 230.877965 
L 200.894326 229.986144 
L 201.933386 229.066747 
L 204.541509 227.194859 
L 207.669183 225.303028 
L 214.630645 221.273884 
L 218.096241 218.899262 
L 219.748472 217.529933 
L 221.305876 215.984313 
L 222.716173 214.21605 
L 223.898219 212.192781 
L 224.718875 210.049555 
L 225.172913 207.952835 
L 225.350848 205.88521 
L 225.30132 203.865234 
L 225.068792 201.895781 
L 224.690292 199.971785 
L 223.610959 196.231118 
L 222.254011 192.597922 
L 217.458066 180.791373 
L 216.61452 177.880159 
L 216.042707 174.643343 
L 214.745271 166.12802 
L 214.154094 161.094841 
L 213.823265 156.191783 
L 213.791229 153.026761 
L 213.937294 149.965964 
L 214.281906 147.025119 
L 214.880733 143.977222 
L 216.107441 139.140902 
L 217.119187 135.877261 
L 218.284326 132.667854 
L 219.597761 129.58677 
L 221.049429 126.708359 
L 222.622064 124.105773 
L 224.288887 121.847095 
L 226.013491 119.987183 
L 227.54225 118.71703 
L 228.447864 118.201095 
L 229.511613 117.74207 
L 232.0892 117.0071 
L 235.174564 116.501308 
L 240.48416 116.012273 
L 246.302363 115.495149 
L 250.334887 114.884243 
L 252.373076 114.428551 
L 254.412731 113.834745 
L 256.43873 113.070969 
L 259.798407 111.367277 
L 264.793381 108.4294 
L 268.221545 106.185426 
L 271.613632 103.731067 
L 274.873032 101.073335 
L 277.903859 98.205411 
L 279.302664 96.684367 
L 280.605517 95.096798 
L 281.79605 93.433216 
L 282.853676 91.681846 
L 283.751064 89.830223 
L 284.451557 87.869326 
L 284.911628 85.770708 
L 285.06559 83.648289 
L 284.933042 81.596682 
L 284.570192 79.627404 
L 284.024091 77.734612 
L 283.331003 75.905631 
L 281.60987 72.388519 
L 279.577567 69.000265 
L 276.249767 64.093966 
L 271.999375 57.933221 
L 270.262328 55.113961 
L 269.428225 53.568 
L 269.428225 53.568 
" style="fill:none;stroke:#ffffff;stroke-linecap:square;"/>
   </g>
   <g id="patch_3">
    <path d="M 57.6 307.584 
L 57.6 41.472 
" style="fill:none;stroke:#000000;stroke-linecap:square;stroke-linejoin:miter;stroke-width:0.8;"/>
   </g>
   <g id="patch_4">
    <path d="M 414.72 307.584 
L 414.72 41.472 
" style="fill:none;stroke:#000000;stroke-linecap:square;stroke-linejoin:miter;stroke-width:0.8;"/>
   </g>
   <g id="patch_5">
    <path d="M 57.6 307.584 
L 414.72 307.584 
" style="fill:none;stroke:#000000;stroke-linecap:square;stroke-linejoin:miter;stroke-width:0.8;"/>
   </g>
   <g id="patch_6">
    <path d="M 57.6 41.472 
L 414.72 41.472 
" style="fill:none;stroke:#000000;stroke-linecap:square;stroke-linejoin:miter;stroke-width:0.8;"/>
   </g>
  </g>
 </g>
 <defs>
  <clipPath id="p1ea78f3ecd">
   <rect height="266.112" width="357.12" x="57.6" y="41.472"/>
  </clipPath>
 </defs>
</svg>
