<?xml version="1.0" encoding="utf-8" standalone="no"?>
<!DOCTYPE svg PUBLIC "-//W3C//DTD SVG 1.1//EN"
  "http://www.w3.org/Graphics/SVG/1.1/DTD/svg11.dtd">
<!-- Created with matplotlib (https://matplotlib.org/) -->
<svg height="345.6pt" version="1.1" viewBox="0 0 460.8 345.6" width="460.8pt" xmlns="http://www.w3.org/2000/svg" xmlns:xlink="http://www.w3.org/1999/xlink">
 <metadata>
  <rdf:RDF xmlns:cc="http://creativecommons.org/ns#" xmlns:dc="http://purl.org/dc/elements/1.1/" xmlns:rdf="http://www.w3.org/1999/02/22-rdf-syntax-ns#">
   <cc:Work>
    <dc:type rdf:resource="http://purl.org/dc/dcmitype/StillImage"/>
    <dc:date>2021-06-24T09:01:46.443575</dc:date>
    <dc:format>image/svg+xml</dc:format>
    <dc:creator>
     <cc:Agent>
      <dc:title>Matplotlib v3.3.3, https://matplotlib.org/</dc:title>
     </cc:Agent>
    </dc:creator>
   </cc:Work>
  </rdf:RDF>
 </metadata>
 <defs>
  <style type="text/css">*{stroke-linecap:butt;stroke-linejoin:round;}</style>
 </defs>
 <g id="figure_1">
  <g id="patch_1">
   <path d="M 0 345.6 
L 460.8 345.6 
L 460.8 0 
L 0 0 
z
" style="fill:#ffffff;"/>
  </g>
  <g id="axes_1">
   <g id="patch_2">
    <path d="M 57.6 307.584 
L 414.72 307.584 
L 414.72 41.472 
L 57.6 41.472 
z
" style="fill:#7d9051;"/>
   </g>
   <g id="matplotlib.axis_1">
    <g id="xtick_1">
     <g id="line2d_1">
      <defs>
       <path d="M 0 0 
L 0 3.5 
" id="m41646f804b" style="stroke:#000000;stroke-width:0.8;"/>
      </defs>
      <g>
       <use style="stroke:#000000;stroke-width:0.8;" x="89.928294" xlink:href="#m41646f804b" y="307.584"/>
      </g>
     </g>
     <g id="text_1">
      <!-- −140 -->
      <g transform="translate(76.1947 322.182437)scale(0.1 -0.1)">
       <defs>
        <path d="M 10.59375 35.5 
L 73.1875 35.5 
L 73.1875 27.203125 
L 10.59375 27.203125 
z
" id="DejaVuSans-8722"/>
        <path d="M 12.40625 8.296875 
L 28.515625 8.296875 
L 28.515625 63.921875 
L 10.984375 60.40625 
L 10.984375 69.390625 
L 28.421875 72.90625 
L 38.28125 72.90625 
L 38.28125 8.296875 
L 54.390625 8.296875 
L 54.390625 0 
L 12.40625 0 
z
" id="DejaVuSans-49"/>
        <path d="M 37.796875 64.3125 
L 12.890625 25.390625 
L 37.796875 25.390625 
z
M 35.203125 72.90625 
L 47.609375 72.90625 
L 47.609375 25.390625 
L 58.015625 25.390625 
L 58.015625 17.1875 
L 47.609375 17.1875 
L 47.609375 0 
L 37.796875 0 
L 37.796875 17.1875 
L 4.890625 17.1875 
L 4.890625 26.703125 
z
" id="DejaVuSans-52"/>
        <path d="M 31.78125 66.40625 
Q 24.171875 66.40625 20.328125 58.90625 
Q 16.5 51.421875 16.5 36.375 
Q 16.5 21.390625 20.328125 13.890625 
Q 24.171875 6.390625 31.78125 6.390625 
Q 39.453125 6.390625 43.28125 13.890625 
Q 47.125 21.390625 47.125 36.375 
Q 47.125 51.421875 43.28125 58.90625 
Q 39.453125 66.40625 31.78125 66.40625 
z
M 31.78125 74.21875 
Q 44.046875 74.21875 50.515625 64.515625 
Q 56.984375 54.828125 56.984375 36.375 
Q 56.984375 17.96875 50.515625 8.265625 
Q 44.046875 -1.421875 31.78125 -1.421875 
Q 19.53125 -1.421875 13.0625 8.265625 
Q 6.59375 17.96875 6.59375 36.375 
Q 6.59375 54.828125 13.0625 64.515625 
Q 19.53125 74.21875 31.78125 74.21875 
z
" id="DejaVuSans-48"/>
       </defs>
       <use xlink:href="#DejaVuSans-8722"/>
       <use x="83.789062" xlink:href="#DejaVuSans-49"/>
       <use x="147.412109" xlink:href="#DejaVuSans-52"/>
       <use x="211.035156" xlink:href="#DejaVuSans-48"/>
      </g>
     </g>
    </g>
    <g id="xtick_2">
     <g id="line2d_2">
      <g>
       <use style="stroke:#000000;stroke-width:0.8;" x="132.033469" xlink:href="#m41646f804b" y="307.584"/>
      </g>
     </g>
     <g id="text_2">
      <!-- −120 -->
      <g transform="translate(118.299875 322.182437)scale(0.1 -0.1)">
       <defs>
        <path d="M 19.1875 8.296875 
L 53.609375 8.296875 
L 53.609375 0 
L 7.328125 0 
L 7.328125 8.296875 
Q 12.9375 14.109375 22.625 23.890625 
Q 32.328125 33.6875 34.8125 36.53125 
Q 39.546875 41.84375 41.421875 45.53125 
Q 43.3125 49.21875 43.3125 52.78125 
Q 43.3125 58.59375 39.234375 62.25 
Q 35.15625 65.921875 28.609375 65.921875 
Q 23.96875 65.921875 18.8125 64.3125 
Q 13.671875 62.703125 7.8125 59.421875 
L 7.8125 69.390625 
Q 13.765625 71.78125 18.9375 73 
Q 24.125 74.21875 28.421875 74.21875 
Q 39.75 74.21875 46.484375 68.546875 
Q 53.21875 62.890625 53.21875 53.421875 
Q 53.21875 48.921875 51.53125 44.890625 
Q 49.859375 40.875 45.40625 35.40625 
Q 44.1875 33.984375 37.640625 27.21875 
Q 31.109375 20.453125 19.1875 8.296875 
z
" id="DejaVuSans-50"/>
       </defs>
       <use xlink:href="#DejaVuSans-8722"/>
       <use x="83.789062" xlink:href="#DejaVuSans-49"/>
       <use x="147.412109" xlink:href="#DejaVuSans-50"/>
       <use x="211.035156" xlink:href="#DejaVuSans-48"/>
      </g>
     </g>
    </g>
    <g id="xtick_3">
     <g id="line2d_3">
      <g>
       <use style="stroke:#000000;stroke-width:0.8;" x="174.138644" xlink:href="#m41646f804b" y="307.584"/>
      </g>
     </g>
     <g id="text_3">
      <!-- −100 -->
      <g transform="translate(160.405051 322.182437)scale(0.1 -0.1)">
       <use xlink:href="#DejaVuSans-8722"/>
       <use x="83.789062" xlink:href="#DejaVuSans-49"/>
       <use x="147.412109" xlink:href="#DejaVuSans-48"/>
       <use x="211.035156" xlink:href="#DejaVuSans-48"/>
      </g>
     </g>
    </g>
    <g id="xtick_4">
     <g id="line2d_4">
      <g>
       <use style="stroke:#000000;stroke-width:0.8;" x="216.24382" xlink:href="#m41646f804b" y="307.584"/>
      </g>
     </g>
     <g id="text_4">
      <!-- −80 -->
      <g transform="translate(205.691476 322.182437)scale(0.1 -0.1)">
       <defs>
        <path d="M 31.78125 34.625 
Q 24.75 34.625 20.71875 30.859375 
Q 16.703125 27.09375 16.703125 20.515625 
Q 16.703125 13.921875 20.71875 10.15625 
Q 24.75 6.390625 31.78125 6.390625 
Q 38.8125 6.390625 42.859375 10.171875 
Q 46.921875 13.96875 46.921875 20.515625 
Q 46.921875 27.09375 42.890625 30.859375 
Q 38.875 34.625 31.78125 34.625 
z
M 21.921875 38.8125 
Q 15.578125 40.375 12.03125 44.71875 
Q 8.5 49.078125 8.5 55.328125 
Q 8.5 64.0625 14.71875 69.140625 
Q 20.953125 74.21875 31.78125 74.21875 
Q 42.671875 74.21875 48.875 69.140625 
Q 55.078125 64.0625 55.078125 55.328125 
Q 55.078125 49.078125 51.53125 44.71875 
Q 48 40.375 41.703125 38.8125 
Q 48.828125 37.15625 52.796875 32.3125 
Q 56.78125 27.484375 56.78125 20.515625 
Q 56.78125 9.90625 50.3125 4.234375 
Q 43.84375 -1.421875 31.78125 -1.421875 
Q 19.734375 -1.421875 13.25 4.234375 
Q 6.78125 9.90625 6.78125 20.515625 
Q 6.78125 27.484375 10.78125 32.3125 
Q 14.796875 37.15625 21.921875 38.8125 
z
M 18.3125 54.390625 
Q 18.3125 48.734375 21.84375 45.5625 
Q 25.390625 42.390625 31.78125 42.390625 
Q 38.140625 42.390625 41.71875 45.5625 
Q 45.3125 48.734375 45.3125 54.390625 
Q 45.3125 60.0625 41.71875 63.234375 
Q 38.140625 66.40625 31.78125 66.40625 
Q 25.390625 66.40625 21.84375 63.234375 
Q 18.3125 60.0625 18.3125 54.390625 
z
" id="DejaVuSans-56"/>
       </defs>
       <use xlink:href="#DejaVuSans-8722"/>
       <use x="83.789062" xlink:href="#DejaVuSans-56"/>
       <use x="147.412109" xlink:href="#DejaVuSans-48"/>
      </g>
     </g>
    </g>
    <g id="xtick_5">
     <g id="line2d_5">
      <g>
       <use style="stroke:#000000;stroke-width:0.8;" x="258.348995" xlink:href="#m41646f804b" y="307.584"/>
      </g>
     </g>
     <g id="text_5">
      <!-- −60 -->
      <g transform="translate(247.796651 322.182437)scale(0.1 -0.1)">
       <defs>
        <path d="M 33.015625 40.375 
Q 26.375 40.375 22.484375 35.828125 
Q 18.609375 31.296875 18.609375 23.390625 
Q 18.609375 15.53125 22.484375 10.953125 
Q 26.375 6.390625 33.015625 6.390625 
Q 39.65625 6.390625 43.53125 10.953125 
Q 47.40625 15.53125 47.40625 23.390625 
Q 47.40625 31.296875 43.53125 35.828125 
Q 39.65625 40.375 33.015625 40.375 
z
M 52.59375 71.296875 
L 52.59375 62.3125 
Q 48.875 64.0625 45.09375 64.984375 
Q 41.3125 65.921875 37.59375 65.921875 
Q 27.828125 65.921875 22.671875 59.328125 
Q 17.53125 52.734375 16.796875 39.40625 
Q 19.671875 43.65625 24.015625 45.921875 
Q 28.375 48.1875 33.59375 48.1875 
Q 44.578125 48.1875 50.953125 41.515625 
Q 57.328125 34.859375 57.328125 23.390625 
Q 57.328125 12.15625 50.6875 5.359375 
Q 44.046875 -1.421875 33.015625 -1.421875 
Q 20.359375 -1.421875 13.671875 8.265625 
Q 6.984375 17.96875 6.984375 36.375 
Q 6.984375 53.65625 15.1875 63.9375 
Q 23.390625 74.21875 37.203125 74.21875 
Q 40.921875 74.21875 44.703125 73.484375 
Q 48.484375 72.75 52.59375 71.296875 
z
" id="DejaVuSans-54"/>
       </defs>
       <use xlink:href="#DejaVuSans-8722"/>
       <use x="83.789062" xlink:href="#DejaVuSans-54"/>
       <use x="147.412109" xlink:href="#DejaVuSans-48"/>
      </g>
     </g>
    </g>
    <g id="xtick_6">
     <g id="line2d_6">
      <g>
       <use style="stroke:#000000;stroke-width:0.8;" x="300.454171" xlink:href="#m41646f804b" y="307.584"/>
      </g>
     </g>
     <g id="text_6">
      <!-- −40 -->
      <g transform="translate(289.901827 322.182437)scale(0.1 -0.1)">
       <use xlink:href="#DejaVuSans-8722"/>
       <use x="83.789062" xlink:href="#DejaVuSans-52"/>
       <use x="147.412109" xlink:href="#DejaVuSans-48"/>
      </g>
     </g>
    </g>
    <g id="xtick_7">
     <g id="line2d_7">
      <g>
       <use style="stroke:#000000;stroke-width:0.8;" x="342.559346" xlink:href="#m41646f804b" y="307.584"/>
      </g>
     </g>
     <g id="text_7">
      <!-- −20 -->
      <g transform="translate(332.007002 322.182437)scale(0.1 -0.1)">
       <use xlink:href="#DejaVuSans-8722"/>
       <use x="83.789062" xlink:href="#DejaVuSans-50"/>
       <use x="147.412109" xlink:href="#DejaVuSans-48"/>
      </g>
     </g>
    </g>
    <g id="xtick_8">
     <g id="line2d_8">
      <g>
       <use style="stroke:#000000;stroke-width:0.8;" x="384.664521" xlink:href="#m41646f804b" y="307.584"/>
      </g>
     </g>
     <g id="text_8">
      <!-- 0 -->
      <g transform="translate(381.483271 322.182437)scale(0.1 -0.1)">
       <use xlink:href="#DejaVuSans-48"/>
      </g>
     </g>
    </g>
   </g>
   <g id="matplotlib.axis_2">
    <g id="ytick_1">
     <g id="line2d_9">
      <defs>
       <path d="M 0 0 
L -3.5 0 
" id="me0597aa227" style="stroke:#000000;stroke-width:0.8;"/>
      </defs>
      <g>
       <use style="stroke:#000000;stroke-width:0.8;" x="57.6" xlink:href="#me0597aa227" y="279.655766"/>
      </g>
     </g>
     <g id="text_9">
      <!-- −20 -->
      <g transform="translate(29.495313 283.454985)scale(0.1 -0.1)">
       <use xlink:href="#DejaVuSans-8722"/>
       <use x="83.789062" xlink:href="#DejaVuSans-50"/>
       <use x="147.412109" xlink:href="#DejaVuSans-48"/>
      </g>
     </g>
    </g>
    <g id="ytick_2">
     <g id="line2d_10">
      <g>
       <use style="stroke:#000000;stroke-width:0.8;" x="57.6" xlink:href="#me0597aa227" y="237.55059"/>
      </g>
     </g>
     <g id="text_10">
      <!-- 0 -->
      <g transform="translate(44.2375 241.349809)scale(0.1 -0.1)">
       <use xlink:href="#DejaVuSans-48"/>
      </g>
     </g>
    </g>
    <g id="ytick_3">
     <g id="line2d_11">
      <g>
       <use style="stroke:#000000;stroke-width:0.8;" x="57.6" xlink:href="#me0597aa227" y="195.445415"/>
      </g>
     </g>
     <g id="text_11">
      <!-- 20 -->
      <g transform="translate(37.875 199.244634)scale(0.1 -0.1)">
       <use xlink:href="#DejaVuSans-50"/>
       <use x="63.623047" xlink:href="#DejaVuSans-48"/>
      </g>
     </g>
    </g>
    <g id="ytick_4">
     <g id="line2d_12">
      <g>
       <use style="stroke:#000000;stroke-width:0.8;" x="57.6" xlink:href="#me0597aa227" y="153.34024"/>
      </g>
     </g>
     <g id="text_12">
      <!-- 40 -->
      <g transform="translate(37.875 157.139458)scale(0.1 -0.1)">
       <use xlink:href="#DejaVuSans-52"/>
       <use x="63.623047" xlink:href="#DejaVuSans-48"/>
      </g>
     </g>
    </g>
    <g id="ytick_5">
     <g id="line2d_13">
      <g>
       <use style="stroke:#000000;stroke-width:0.8;" x="57.6" xlink:href="#me0597aa227" y="111.235064"/>
      </g>
     </g>
     <g id="text_13">
      <!-- 60 -->
      <g transform="translate(37.875 115.034283)scale(0.1 -0.1)">
       <use xlink:href="#DejaVuSans-54"/>
       <use x="63.623047" xlink:href="#DejaVuSans-48"/>
      </g>
     </g>
    </g>
    <g id="ytick_6">
     <g id="line2d_14">
      <g>
       <use style="stroke:#000000;stroke-width:0.8;" x="57.6" xlink:href="#me0597aa227" y="69.129889"/>
      </g>
     </g>
     <g id="text_14">
      <!-- 80 -->
      <g transform="translate(37.875 72.929108)scale(0.1 -0.1)">
       <use xlink:href="#DejaVuSans-56"/>
       <use x="63.623047" xlink:href="#DejaVuSans-48"/>
      </g>
     </g>
    </g>
   </g>
   <g id="line2d_15">
    <path clip-path="url(#p0fa88244d0)" d="M 384.664521 237.55059 
L 384.986461 215.392781 
L 385.699907 182.103967 
L 386.276063 176.190055 
L 387.156644 170.038302 
L 389.100459 157.592089 
L 389.798385 151.58304 
L 389.998941 148.694464 
L 390.070118 145.90697 
L 389.989082 143.238397 
L 389.733003 140.706584 
L 389.279048 138.329368 
L 388.604386 136.124587 
L 387.686185 134.11008 
L 386.501613 132.303684 
L 385.029135 130.669335 
L 383.279063 129.157842 
L 381.276331 127.767351 
L 379.045877 126.49601 
L 376.612637 125.341966 
L 374.001547 124.303367 
L 371.237544 123.378361 
L 368.345564 122.565094 
L 365.350543 121.861716 
L 362.277418 121.266371 
L 355.996599 120.392378 
L 349.702598 119.928294 
L 343.594907 119.859299 
L 337.873015 120.170573 
L 335.219085 120.46418 
L 332.634198 120.874654 
L 330.028695 121.424028 
L 327.40894 122.105242 
L 324.781299 122.911234 
L 319.527813 124.869311 
L 314.319156 127.241772 
L 309.206246 129.972129 
L 304.240001 133.003897 
L 299.471339 136.280588 
L 294.951177 139.745715 
L 290.730434 143.342791 
L 288.748256 145.173158 
L 286.895357 147.106962 
L 285.196624 149.21835 
L 283.633208 151.484622 
L 282.186259 153.883081 
L 279.566371 158.985762 
L 277.18617 164.344802 
L 272.54167 175.105598 
L 269.97579 180.144175 
L 268.565972 182.498562 
L 267.046438 184.71275 
L 265.398338 186.76404 
L 263.602823 188.629734 
L 261.641045 190.287132 
L 259.506238 191.816258 
L 257.215479 193.306254 
L 254.785683 194.748101 
L 249.576642 197.451268 
L 244.014438 199.853598 
L 238.234397 201.882935 
L 235.304976 202.735181 
L 232.371841 203.467119 
L 229.451909 204.069729 
L 226.562095 204.533992 
L 223.719314 204.850887 
L 220.940482 205.011395 
L 218.242514 205.006496 
L 215.642326 204.82717 
L 213.156832 204.464398 
L 210.80295 203.909159 
L 208.576307 203.034425 
L 206.453458 201.752086 
L 204.422701 200.1115 
L 202.472339 198.162026 
L 200.59067 195.953022 
L 198.765995 193.533846 
L 195.24083 188.262411 
L 188.359648 177.369245 
L 186.606344 174.860898 
L 184.816437 172.537245 
L 182.978228 170.447646 
L 181.080016 168.641457 
L 179.110103 167.168037 
L 177.056789 166.076745 
L 174.908374 165.416939 
L 172.682622 165.190745 
L 170.407216 165.341319 
L 168.085333 165.829561 
L 165.720154 166.616374 
L 163.314855 167.662658 
L 160.872615 168.929316 
L 155.890027 171.967356 
L 148.218549 177.19975 
L 143.009582 180.682085 
L 140.386239 182.304178 
L 137.75456 183.794757 
L 135.117725 185.114723 
L 132.478912 186.224978 
L 129.841299 187.086423 
L 127.208064 187.659959 
L 124.565836 187.999214 
L 121.900446 188.192238 
L 119.213882 188.251564 
L 113.785167 188.019261 
L 108.295572 187.402579 
L 102.760979 186.50179 
L 94.409459 184.837253 
L 83.264835 182.559378 
L 77.724287 181.620986 
L 74.968902 181.245796 
L 74.968902 181.245796 
" style="fill:none;stroke:#fea952;stroke-linecap:square;"/>
   </g>
   <g id="line2d_16">
    <path clip-path="url(#p0fa88244d0)" d="M 376.243876 237.469572 
L 376.566961 215.231975 
L 377.30688 181.417729 
L 377.931174 175.060165 
L 378.840581 168.712811 
L 380.748287 156.517356 
L 381.397574 150.999764 
L 381.652963 146.162571 
L 381.610794 144.085816 
L 381.226578 140.79342 
L 380.644232 138.72795 
L 380.245284 137.940366 
L 379.524839 137.042448 
L 378.476426 136.075104 
L 377.106252 135.083379 
L 375.437228 134.104655 
L 373.500229 133.166718 
L 371.329036 132.289074 
L 368.957854 131.484954 
L 366.42027 130.763087 
L 363.748947 130.129044 
L 358.131372 129.136273 
L 352.351628 128.516956 
L 346.651953 128.266281 
L 341.279886 128.367486 
L 336.539778 128.781006 
L 334.371586 129.114515 
L 329.878413 130.156051 
L 325.240054 131.669393 
L 320.531662 133.61197 
L 315.825086 135.933751 
L 311.188715 138.579856 
L 306.688057 141.492048 
L 302.386537 144.609371 
L 298.346283 147.868067 
L 294.828663 150.999175 
L 293.456469 152.385754 
L 292.128256 154.000222 
L 290.843722 155.8346 
L 289.602099 157.872963 
L 287.230339 162.47538 
L 284.944703 167.61879 
L 280.116167 178.785385 
L 278.724304 181.636554 
L 277.200576 184.470409 
L 275.509237 187.263528 
L 273.611113 189.98711 
L 271.465933 192.6034 
L 269.037417 195.062386 
L 266.544722 197.133137 
L 264.097776 198.875409 
L 261.512882 200.548226 
L 258.801836 202.149746 
L 255.976871 203.676186 
L 253.050552 205.122368 
L 250.035636 206.482076 
L 246.944931 207.748283 
L 243.791153 208.913281 
L 240.58677 209.968736 
L 237.343849 210.905666 
L 234.07389 211.714352 
L 230.787661 212.38415 
L 227.49504 212.903188 
L 224.204912 213.257909 
L 220.925191 213.432416 
L 217.663121 213.407575 
L 214.426112 213.159916 
L 211.223517 212.660502 
L 207.723834 211.747072 
L 204.222196 210.242444 
L 201.161508 208.302589 
L 198.469488 206.067428 
L 196.061775 203.622658 
L 193.867596 201.023931 
L 191.833788 198.314885 
L 188.103217 192.731004 
L 181.457587 182.193702 
L 178.493694 178.099327 
L 177.173367 176.548254 
L 175.158007 174.604082 
L 174.056965 173.794822 
L 173.238663 173.593402 
L 172.140084 173.582132 
L 170.743493 173.820057 
L 169.079196 174.338463 
L 167.191952 175.138081 
L 165.123609 176.198627 
L 160.568554 178.969157 
L 152.957029 184.161118 
L 147.438319 187.844495 
L 144.536428 189.631508 
L 141.524099 191.32499 
L 138.383506 192.876714 
L 135.093319 194.229896 
L 131.633439 195.314549 
L 128.280499 196.012427 
L 125.174082 196.398254 
L 122.08636 196.61122 
L 119.021479 196.670401 
L 115.981974 196.594309 
L 109.98397 196.106372 
L 104.097109 195.27916 
L 98.324217 194.232482 
L 76.588112 189.965022 
L 73.832727 189.589832 
L 73.832727 189.589832 
" style="fill:none;stroke:#ffffff;stroke-linecap:square;"/>
   </g>
   <g id="line2d_17">
    <path clip-path="url(#p0fa88244d0)" d="M 393.085167 237.631609 
L 393.40596 215.553588 
L 394.092934 182.790206 
L 394.620953 177.319946 
L 395.472707 171.363792 
L 397.452631 158.666821 
L 398.199196 152.166316 
L 398.417233 148.909417 
L 398.487273 145.651369 
L 398.36737 142.390979 
L 398.004573 139.127039 
L 397.331518 135.865315 
L 396.267005 132.632008 
L 394.728138 129.492209 
L 392.757941 126.667002 
L 390.533431 124.296223 
L 388.081699 122.24058 
L 385.44641 120.451322 
L 382.654526 118.887364 
L 379.725046 117.517214 
L 376.674059 116.31766 
L 373.517235 115.271768 
L 370.270858 114.367102 
L 366.952139 113.594387 
L 363.579193 112.946563 
L 360.170876 112.418147 
L 353.325928 111.703091 
L 346.574038 111.424391 
L 340.06665 111.569171 
L 336.947038 111.800603 
L 333.898392 112.147353 
L 330.896811 112.634792 
L 327.909452 113.27402 
L 324.939467 114.054432 
L 321.989979 114.966276 
L 319.064215 116.000496 
L 313.297735 118.402577 
L 307.670015 121.197736 
L 302.214502 124.327879 
L 296.967522 127.738266 
L 291.967488 131.376883 
L 287.254108 135.194512 
L 282.667849 139.34714 
L 280.334246 141.82817 
L 278.264992 144.436477 
L 276.422693 147.134644 
L 274.77042 149.893199 
L 273.273931 152.687668 
L 270.628414 158.297595 
L 263.865175 173.708021 
L 261.622707 177.733596 
L 260.481763 179.43839 
L 259.330743 180.924681 
L 258.168229 182.197082 
L 256.737368 183.441127 
L 252.918075 186.064283 
L 248.490659 188.589372 
L 243.626819 190.907019 
L 238.495227 192.92552 
L 233.266103 194.564696 
L 228.116157 195.755308 
L 225.62915 196.164795 
L 223.233716 196.443864 
L 220.955773 196.590374 
L 218.821907 196.605416 
L 216.858539 196.494424 
L 213.882065 196.071246 
L 212.930419 195.826405 
L 211.745408 195.201582 
L 210.375915 194.155572 
L 208.882902 192.701394 
L 207.313743 190.882113 
L 205.698202 188.752807 
L 202.378443 183.793819 
L 195.261709 172.544788 
L 193.277613 169.722027 
L 191.13918 166.975164 
L 188.783088 164.347037 
L 186.123837 161.898037 
L 183.0622 159.731992 
L 179.529036 158.026787 
L 175.759784 157.039055 
L 172.126581 156.788088 
L 168.674348 157.100505 
L 165.427174 157.839065 
L 162.361111 158.894285 
L 159.437757 160.187236 
L 156.621621 161.660005 
L 153.88565 163.266338 
L 148.588245 166.719216 
L 138.580845 173.519675 
L 133.985021 176.264524 
L 131.851944 177.352732 
L 129.864505 178.22006 
L 128.049158 178.858296 
L 126.135629 179.307491 
L 123.957589 179.600174 
L 121.714533 179.773255 
L 117.03428 179.785146 
L 112.110004 179.399029 
L 106.968706 178.683701 
L 101.639325 177.719899 
L 81.819187 173.74751 
L 76.105076 172.90176 
L 76.105076 172.90176 
" style="fill:none;stroke:#ffffff;stroke-linecap:square;"/>
   </g>
   <g id="patch_3">
    <path d="M 57.6 307.584 
L 57.6 41.472 
" style="fill:none;stroke:#000000;stroke-linecap:square;stroke-linejoin:miter;stroke-width:0.8;"/>
   </g>
   <g id="patch_4">
    <path d="M 414.72 307.584 
L 414.72 41.472 
" style="fill:none;stroke:#000000;stroke-linecap:square;stroke-linejoin:miter;stroke-width:0.8;"/>
   </g>
   <g id="patch_5">
    <path d="M 57.6 307.584 
L 414.72 307.584 
" style="fill:none;stroke:#000000;stroke-linecap:square;stroke-linejoin:miter;stroke-width:0.8;"/>
   </g>
   <g id="patch_6">
    <path d="M 57.6 41.472 
L 414.72 41.472 
" style="fill:none;stroke:#000000;stroke-linecap:square;stroke-linejoin:miter;stroke-width:0.8;"/>
   </g>
  </g>
 </g>
 <defs>
  <clipPath id="p0fa88244d0">
   <rect height="266.112" width="357.12" x="57.6" y="41.472"/>
  </clipPath>
 </defs>
</svg>
