<?xml version="1.0" encoding="utf-8" standalone="no"?>
<!DOCTYPE svg PUBLIC "-//W3C//DTD SVG 1.1//EN"
  "http://www.w3.org/Graphics/SVG/1.1/DTD/svg11.dtd">
<!-- Created with matplotlib (https://matplotlib.org/) -->
<svg height="345.6pt" version="1.1" viewBox="0 0 460.8 345.6" width="460.8pt" xmlns="http://www.w3.org/2000/svg" xmlns:xlink="http://www.w3.org/1999/xlink">
 <metadata>
  <rdf:RDF xmlns:cc="http://creativecommons.org/ns#" xmlns:dc="http://purl.org/dc/elements/1.1/" xmlns:rdf="http://www.w3.org/1999/02/22-rdf-syntax-ns#">
   <cc:Work>
    <dc:type rdf:resource="http://purl.org/dc/dcmitype/StillImage"/>
    <dc:date>2021-06-19T01:21:17.016171</dc:date>
    <dc:format>image/svg+xml</dc:format>
    <dc:creator>
     <cc:Agent>
      <dc:title>Matplotlib v3.3.3, https://matplotlib.org/</dc:title>
     </cc:Agent>
    </dc:creator>
   </cc:Work>
  </rdf:RDF>
 </metadata>
 <defs>
  <style type="text/css">*{stroke-linecap:butt;stroke-linejoin:round;}</style>
 </defs>
 <g id="figure_1">
  <g id="patch_1">
   <path d="M 0 345.6 
L 460.8 345.6 
L 460.8 0 
L 0 0 
z
" style="fill:#ffffff;"/>
  </g>
  <g id="axes_1">
   <g id="patch_2">
    <path d="M 57.6 307.584 
L 414.72 307.584 
L 414.72 41.472 
L 57.6 41.472 
z
" style="fill:#7d9051;"/>
   </g>
   <g id="matplotlib.axis_1">
    <g id="xtick_1">
     <g id="line2d_1">
      <defs>
       <path d="M 0 0 
L 0 3.5 
" id="m14f62bff81" style="stroke:#000000;stroke-width:0.8;"/>
      </defs>
      <g>
       <use style="stroke:#000000;stroke-width:0.8;" x="84.534882" xlink:href="#m14f62bff81" y="307.584"/>
      </g>
     </g>
     <g id="text_1">
      <!-- 0 -->
      <g transform="translate(81.353632 322.182437)scale(0.1 -0.1)">
       <defs>
        <path d="M 31.78125 66.40625 
Q 24.171875 66.40625 20.328125 58.90625 
Q 16.5 51.421875 16.5 36.375 
Q 16.5 21.390625 20.328125 13.890625 
Q 24.171875 6.390625 31.78125 6.390625 
Q 39.453125 6.390625 43.28125 13.890625 
Q 47.125 21.390625 47.125 36.375 
Q 47.125 51.421875 43.28125 58.90625 
Q 39.453125 66.40625 31.78125 66.40625 
z
M 31.78125 74.21875 
Q 44.046875 74.21875 50.515625 64.515625 
Q 56.984375 54.828125 56.984375 36.375 
Q 56.984375 17.96875 50.515625 8.265625 
Q 44.046875 -1.421875 31.78125 -1.421875 
Q 19.53125 -1.421875 13.0625 8.265625 
Q 6.59375 17.96875 6.59375 36.375 
Q 6.59375 54.828125 13.0625 64.515625 
Q 19.53125 74.21875 31.78125 74.21875 
z
" id="DejaVuSans-48"/>
       </defs>
       <use xlink:href="#DejaVuSans-48"/>
      </g>
     </g>
    </g>
    <g id="xtick_2">
     <g id="line2d_2">
      <g>
       <use style="stroke:#000000;stroke-width:0.8;" x="132.516349" xlink:href="#m14f62bff81" y="307.584"/>
      </g>
     </g>
     <g id="text_2">
      <!-- 20 -->
      <g transform="translate(126.153849 322.182437)scale(0.1 -0.1)">
       <defs>
        <path d="M 19.1875 8.296875 
L 53.609375 8.296875 
L 53.609375 0 
L 7.328125 0 
L 7.328125 8.296875 
Q 12.9375 14.109375 22.625 23.890625 
Q 32.328125 33.6875 34.8125 36.53125 
Q 39.546875 41.84375 41.421875 45.53125 
Q 43.3125 49.21875 43.3125 52.78125 
Q 43.3125 58.59375 39.234375 62.25 
Q 35.15625 65.921875 28.609375 65.921875 
Q 23.96875 65.921875 18.8125 64.3125 
Q 13.671875 62.703125 7.8125 59.421875 
L 7.8125 69.390625 
Q 13.765625 71.78125 18.9375 73 
Q 24.125 74.21875 28.421875 74.21875 
Q 39.75 74.21875 46.484375 68.546875 
Q 53.21875 62.890625 53.21875 53.421875 
Q 53.21875 48.921875 51.53125 44.890625 
Q 49.859375 40.875 45.40625 35.40625 
Q 44.1875 33.984375 37.640625 27.21875 
Q 31.109375 20.453125 19.1875 8.296875 
z
" id="DejaVuSans-50"/>
       </defs>
       <use xlink:href="#DejaVuSans-50"/>
       <use x="63.623047" xlink:href="#DejaVuSans-48"/>
      </g>
     </g>
    </g>
    <g id="xtick_3">
     <g id="line2d_3">
      <g>
       <use style="stroke:#000000;stroke-width:0.8;" x="180.497815" xlink:href="#m14f62bff81" y="307.584"/>
      </g>
     </g>
     <g id="text_3">
      <!-- 40 -->
      <g transform="translate(174.135315 322.182437)scale(0.1 -0.1)">
       <defs>
        <path d="M 37.796875 64.3125 
L 12.890625 25.390625 
L 37.796875 25.390625 
z
M 35.203125 72.90625 
L 47.609375 72.90625 
L 47.609375 25.390625 
L 58.015625 25.390625 
L 58.015625 17.1875 
L 47.609375 17.1875 
L 47.609375 0 
L 37.796875 0 
L 37.796875 17.1875 
L 4.890625 17.1875 
L 4.890625 26.703125 
z
" id="DejaVuSans-52"/>
       </defs>
       <use xlink:href="#DejaVuSans-52"/>
       <use x="63.623047" xlink:href="#DejaVuSans-48"/>
      </g>
     </g>
    </g>
    <g id="xtick_4">
     <g id="line2d_4">
      <g>
       <use style="stroke:#000000;stroke-width:0.8;" x="228.479282" xlink:href="#m14f62bff81" y="307.584"/>
      </g>
     </g>
     <g id="text_4">
      <!-- 60 -->
      <g transform="translate(222.116782 322.182437)scale(0.1 -0.1)">
       <defs>
        <path d="M 33.015625 40.375 
Q 26.375 40.375 22.484375 35.828125 
Q 18.609375 31.296875 18.609375 23.390625 
Q 18.609375 15.53125 22.484375 10.953125 
Q 26.375 6.390625 33.015625 6.390625 
Q 39.65625 6.390625 43.53125 10.953125 
Q 47.40625 15.53125 47.40625 23.390625 
Q 47.40625 31.296875 43.53125 35.828125 
Q 39.65625 40.375 33.015625 40.375 
z
M 52.59375 71.296875 
L 52.59375 62.3125 
Q 48.875 64.0625 45.09375 64.984375 
Q 41.3125 65.921875 37.59375 65.921875 
Q 27.828125 65.921875 22.671875 59.328125 
Q 17.53125 52.734375 16.796875 39.40625 
Q 19.671875 43.65625 24.015625 45.921875 
Q 28.375 48.1875 33.59375 48.1875 
Q 44.578125 48.1875 50.953125 41.515625 
Q 57.328125 34.859375 57.328125 23.390625 
Q 57.328125 12.15625 50.6875 5.359375 
Q 44.046875 -1.421875 33.015625 -1.421875 
Q 20.359375 -1.421875 13.671875 8.265625 
Q 6.984375 17.96875 6.984375 36.375 
Q 6.984375 53.65625 15.1875 63.9375 
Q 23.390625 74.21875 37.203125 74.21875 
Q 40.921875 74.21875 44.703125 73.484375 
Q 48.484375 72.75 52.59375 71.296875 
z
" id="DejaVuSans-54"/>
       </defs>
       <use xlink:href="#DejaVuSans-54"/>
       <use x="63.623047" xlink:href="#DejaVuSans-48"/>
      </g>
     </g>
    </g>
    <g id="xtick_5">
     <g id="line2d_5">
      <g>
       <use style="stroke:#000000;stroke-width:0.8;" x="276.460748" xlink:href="#m14f62bff81" y="307.584"/>
      </g>
     </g>
     <g id="text_5">
      <!-- 80 -->
      <g transform="translate(270.098248 322.182437)scale(0.1 -0.1)">
       <defs>
        <path d="M 31.78125 34.625 
Q 24.75 34.625 20.71875 30.859375 
Q 16.703125 27.09375 16.703125 20.515625 
Q 16.703125 13.921875 20.71875 10.15625 
Q 24.75 6.390625 31.78125 6.390625 
Q 38.8125 6.390625 42.859375 10.171875 
Q 46.921875 13.96875 46.921875 20.515625 
Q 46.921875 27.09375 42.890625 30.859375 
Q 38.875 34.625 31.78125 34.625 
z
M 21.921875 38.8125 
Q 15.578125 40.375 12.03125 44.71875 
Q 8.5 49.078125 8.5 55.328125 
Q 8.5 64.0625 14.71875 69.140625 
Q 20.953125 74.21875 31.78125 74.21875 
Q 42.671875 74.21875 48.875 69.140625 
Q 55.078125 64.0625 55.078125 55.328125 
Q 55.078125 49.078125 51.53125 44.71875 
Q 48 40.375 41.703125 38.8125 
Q 48.828125 37.15625 52.796875 32.3125 
Q 56.78125 27.484375 56.78125 20.515625 
Q 56.78125 9.90625 50.3125 4.234375 
Q 43.84375 -1.421875 31.78125 -1.421875 
Q 19.734375 -1.421875 13.25 4.234375 
Q 6.78125 9.90625 6.78125 20.515625 
Q 6.78125 27.484375 10.78125 32.3125 
Q 14.796875 37.15625 21.921875 38.8125 
z
M 18.3125 54.390625 
Q 18.3125 48.734375 21.84375 45.5625 
Q 25.390625 42.390625 31.78125 42.390625 
Q 38.140625 42.390625 41.71875 45.5625 
Q 45.3125 48.734375 45.3125 54.390625 
Q 45.3125 60.0625 41.71875 63.234375 
Q 38.140625 66.40625 31.78125 66.40625 
Q 25.390625 66.40625 21.84375 63.234375 
Q 18.3125 60.0625 18.3125 54.390625 
z
" id="DejaVuSans-56"/>
       </defs>
       <use xlink:href="#DejaVuSans-56"/>
       <use x="63.623047" xlink:href="#DejaVuSans-48"/>
      </g>
     </g>
    </g>
    <g id="xtick_6">
     <g id="line2d_6">
      <g>
       <use style="stroke:#000000;stroke-width:0.8;" x="324.442215" xlink:href="#m14f62bff81" y="307.584"/>
      </g>
     </g>
     <g id="text_6">
      <!-- 100 -->
      <g transform="translate(314.898465 322.182437)scale(0.1 -0.1)">
       <defs>
        <path d="M 12.40625 8.296875 
L 28.515625 8.296875 
L 28.515625 63.921875 
L 10.984375 60.40625 
L 10.984375 69.390625 
L 28.421875 72.90625 
L 38.28125 72.90625 
L 38.28125 8.296875 
L 54.390625 8.296875 
L 54.390625 0 
L 12.40625 0 
z
" id="DejaVuSans-49"/>
       </defs>
       <use xlink:href="#DejaVuSans-49"/>
       <use x="63.623047" xlink:href="#DejaVuSans-48"/>
       <use x="127.246094" xlink:href="#DejaVuSans-48"/>
      </g>
     </g>
    </g>
    <g id="xtick_7">
     <g id="line2d_7">
      <g>
       <use style="stroke:#000000;stroke-width:0.8;" x="372.423681" xlink:href="#m14f62bff81" y="307.584"/>
      </g>
     </g>
     <g id="text_7">
      <!-- 120 -->
      <g transform="translate(362.879931 322.182437)scale(0.1 -0.1)">
       <use xlink:href="#DejaVuSans-49"/>
       <use x="63.623047" xlink:href="#DejaVuSans-50"/>
       <use x="127.246094" xlink:href="#DejaVuSans-48"/>
      </g>
     </g>
    </g>
   </g>
   <g id="matplotlib.axis_2">
    <g id="ytick_1">
     <g id="line2d_8">
      <defs>
       <path d="M 0 0 
L -3.5 0 
" id="m4dea6895ea" style="stroke:#000000;stroke-width:0.8;"/>
      </defs>
      <g>
       <use style="stroke:#000000;stroke-width:0.8;" x="57.6" xlink:href="#m4dea6895ea" y="270.123378"/>
      </g>
     </g>
     <g id="text_8">
      <!-- 0 -->
      <g transform="translate(44.2375 273.922597)scale(0.1 -0.1)">
       <use xlink:href="#DejaVuSans-48"/>
      </g>
     </g>
    </g>
    <g id="ytick_2">
     <g id="line2d_9">
      <g>
       <use style="stroke:#000000;stroke-width:0.8;" x="57.6" xlink:href="#m4dea6895ea" y="222.141912"/>
      </g>
     </g>
     <g id="text_9">
      <!-- 20 -->
      <g transform="translate(37.875 225.94113)scale(0.1 -0.1)">
       <use xlink:href="#DejaVuSans-50"/>
       <use x="63.623047" xlink:href="#DejaVuSans-48"/>
      </g>
     </g>
    </g>
    <g id="ytick_3">
     <g id="line2d_10">
      <g>
       <use style="stroke:#000000;stroke-width:0.8;" x="57.6" xlink:href="#m4dea6895ea" y="174.160445"/>
      </g>
     </g>
     <g id="text_10">
      <!-- 40 -->
      <g transform="translate(37.875 177.959664)scale(0.1 -0.1)">
       <use xlink:href="#DejaVuSans-52"/>
       <use x="63.623047" xlink:href="#DejaVuSans-48"/>
      </g>
     </g>
    </g>
    <g id="ytick_4">
     <g id="line2d_11">
      <g>
       <use style="stroke:#000000;stroke-width:0.8;" x="57.6" xlink:href="#m4dea6895ea" y="126.178979"/>
      </g>
     </g>
     <g id="text_11">
      <!-- 60 -->
      <g transform="translate(37.875 129.978197)scale(0.1 -0.1)">
       <use xlink:href="#DejaVuSans-54"/>
       <use x="63.623047" xlink:href="#DejaVuSans-48"/>
      </g>
     </g>
    </g>
    <g id="ytick_5">
     <g id="line2d_12">
      <g>
       <use style="stroke:#000000;stroke-width:0.8;" x="57.6" xlink:href="#m4dea6895ea" y="78.197512"/>
      </g>
     </g>
     <g id="text_12">
      <!-- 80 -->
      <g transform="translate(37.875 81.996731)scale(0.1 -0.1)">
       <use xlink:href="#DejaVuSans-56"/>
       <use x="63.623047" xlink:href="#DejaVuSans-48"/>
      </g>
     </g>
    </g>
   </g>
   <g id="line2d_13">
    <path clip-path="url(#pa0a1f6c841)" d="M 84.534882 270.123378 
L 84.843609 248.029344 
L 85.586456 206.980193 
L 85.344839 200.53276 
L 84.605483 190.716921 
L 83.81587 180.88179 
L 83.484907 174.400061 
L 83.466655 168.03837 
L 83.616677 164.918615 
L 83.895134 161.848163 
L 84.318778 158.833442 
L 84.904363 155.880885 
L 85.66864 152.996921 
L 86.628362 150.187981 
L 87.767642 147.397585 
L 89.054267 144.574182 
L 90.480505 141.731596 
L 92.038621 138.883654 
L 93.720881 136.04418 
L 97.426899 130.445938 
L 99.435189 127.714821 
L 101.536688 125.047473 
L 103.723662 122.457721 
L 105.988376 119.959389 
L 108.323098 117.566302 
L 110.720093 115.292286 
L 113.171628 113.151165 
L 115.669968 111.156767 
L 118.20738 109.322915 
L 120.776129 107.663434 
L 123.368482 106.192151 
L 125.976705 104.922891 
L 128.649326 103.908544 
L 131.433255 103.173864 
L 134.318332 102.690466 
L 137.294395 102.429968 
L 140.351284 102.363985 
L 143.478838 102.464135 
L 149.905298 103.049297 
L 156.492488 103.958386 
L 166.496831 105.432673 
L 173.130222 106.158158 
L 176.405583 106.358539 
L 179.639841 106.412834 
L 182.822835 106.292659 
L 185.944403 105.969631 
L 189.027121 105.433106 
L 192.100586 104.708443 
L 195.165177 103.821268 
L 201.269252 101.661877 
L 207.342372 99.159925 
L 219.407855 93.948316 
L 225.40627 91.648647 
L 228.398221 90.66503 
L 231.385838 89.826392 
L 234.369499 89.158355 
L 237.349583 88.686546 
L 240.326469 88.436586 
L 243.300534 88.434102 
L 249.503418 88.927679 
L 256.0953 89.883414 
L 262.88771 91.292579 
L 266.300216 92.164472 
L 269.692179 93.146449 
L 273.040039 94.23742 
L 276.320237 95.436295 
L 279.509216 96.741982 
L 282.583416 98.153391 
L 285.519278 99.66943 
L 288.293245 101.289009 
L 290.881757 103.011037 
L 293.261256 104.834423 
L 295.408183 106.758076 
L 297.298979 108.780905 
L 298.910086 110.901819 
L 300.160654 113.203918 
L 301.015724 115.753127 
L 301.520567 118.522595 
L 301.720458 121.485471 
L 301.660668 124.614903 
L 301.386471 127.884041 
L 300.94314 131.266032 
L 299.730168 138.26117 
L 297.77403 148.928999 
L 297.266628 152.424236 
L 296.907003 155.844367 
L 296.740427 159.162542 
L 296.812175 162.35191 
L 297.167518 165.385618 
L 297.851731 168.236816 
L 298.910086 170.878652 
L 300.303253 173.441436 
L 301.946988 176.058342 
L 303.819187 178.706819 
L 305.897748 181.364315 
L 308.160568 184.008277 
L 310.585544 186.616154 
L 313.150573 189.165393 
L 315.833553 191.633443 
L 318.612382 193.997752 
L 321.464955 196.235767 
L 324.369172 198.324936 
L 327.302928 200.242708 
L 330.244122 201.96653 
L 333.17065 203.473851 
L 336.06041 204.742119 
L 338.891299 205.74878 
L 341.641215 206.471284 
L 344.288054 206.887079 
L 346.809714 206.973611 
L 349.25342 206.683467 
L 351.682095 206.006495 
L 354.097192 204.976041 
L 356.500158 203.62545 
L 358.892444 201.988069 
L 361.275499 200.097242 
L 363.650773 197.986317 
L 366.019715 195.688637 
L 370.744405 190.666399 
L 377.820194 182.56603 
L 382.546802 177.176809 
L 387.294474 172.107633 
L 389.679832 169.776427 
L 392.074805 167.625269 
L 392.074805 167.625269 
" style="fill:none;stroke:#fea952;stroke-linecap:square;"/>
   </g>
   <g id="line2d_14">
    <path clip-path="url(#pa0a1f6c841)" d="M 74.939033 270.031053 
L 75.248943 247.852589 
L 75.993488 207.232771 
L 75.768965 201.158443 
L 75.043854 191.531837 
L 74.236987 181.459572 
L 73.890115 174.569792 
L 73.881438 167.577438 
L 74.059604 164.051891 
L 74.392211 160.512761 
L 74.90583 156.96656 
L 75.628273 153.422635 
L 76.587755 149.894282 
L 77.744038 146.560637 
L 79.035301 143.418256 
L 80.477058 140.270657 
L 82.0618 137.125703 
L 83.782512 133.992282 
L 85.632565 130.880074 
L 87.605655 127.799377 
L 89.695792 124.760973 
L 91.897315 121.776025 
L 94.204933 118.856011 
L 96.613785 116.012684 
L 99.119527 113.258064 
L 101.718435 110.604458 
L 104.407526 108.064538 
L 107.184696 105.651466 
L 110.048857 103.379109 
L 113.000048 101.26236 
L 116.039474 99.317601 
L 119.169375 97.563342 
L 122.571597 95.951041 
L 126.20069 94.629912 
L 129.847491 93.709499 
L 133.481556 93.130725 
L 137.087308 92.835909 
L 140.658416 92.772608 
L 144.192944 92.894448 
L 151.148198 93.533833 
L 157.932142 94.470697 
L 167.663187 95.907524 
L 173.71621 96.579773 
L 176.566657 96.763598 
L 179.277788 96.823373 
L 181.835061 96.747338 
L 184.298971 96.515457 
L 186.82489 96.092922 
L 189.432102 95.490632 
L 192.116191 94.722228 
L 197.69298 92.756871 
L 203.516648 90.359205 
L 215.854127 85.03429 
L 222.409252 82.532358 
L 225.804735 81.425838 
L 229.289156 80.46195 
L 232.868895 79.680116 
L 236.54664 79.123903 
L 240.318453 78.840296 
L 243.894141 78.856186 
L 247.263289 79.07065 
L 250.731798 79.41033 
L 254.283754 79.873372 
L 257.901861 80.458702 
L 261.567934 81.165864 
L 265.263243 81.994962 
L 268.968778 82.946683 
L 272.665449 84.022387 
L 276.334245 85.22426 
L 279.956345 86.555554 
L 283.513183 88.02091 
L 286.98642 89.626821 
L 290.357764 91.382217 
L 293.608515 93.299219 
L 296.718637 95.393972 
L 299.665039 97.687367 
L 302.418722 100.205124 
L 304.940552 102.976148 
L 307.342503 106.321079 
L 309.258771 110.152178 
L 310.456445 114.032188 
L 311.095096 117.87665 
L 311.315 121.668781 
L 311.223384 125.41697 
L 310.901363 129.131307 
L 310.413608 132.814931 
L 309.156439 140.059578 
L 307.270777 150.307638 
L 306.491227 156.325504 
L 306.334293 158.94672 
L 306.343308 161.235511 
L 306.498888 163.146335 
L 306.759781 164.668133 
L 307.34114 166.295404 
L 308.429473 168.337184 
L 309.783105 170.519018 
L 311.377998 172.794694 
L 313.188473 175.12459 
L 315.188131 177.473585 
L 317.350165 179.809632 
L 319.64739 182.102801 
L 322.052095 184.324642 
L 324.535788 186.447778 
L 327.068817 188.445672 
L 329.619868 190.292562 
L 332.155279 191.963605 
L 334.638152 193.435332 
L 337.027225 194.686606 
L 339.275611 195.700474 
L 341.329836 196.467488 
L 343.130442 196.99125 
L 345.67828 197.444251 
L 346.676763 197.439567 
L 347.916098 197.180051 
L 349.395352 196.610543 
L 351.080036 195.706415 
L 352.927776 194.470651 
L 354.900792 192.92424 
L 356.969569 191.097894 
L 361.314954 186.747511 
L 365.862315 181.710866 
L 375.466258 170.699561 
L 380.587219 165.244574 
L 383.267364 162.637162 
L 385.662337 160.486004 
L 385.662337 160.486004 
" style="fill:none;stroke:#ffffff;stroke-linecap:square;"/>
   </g>
   <g id="line2d_15">
    <path clip-path="url(#pa0a1f6c841)" d="M 94.130731 270.215704 
L 94.438274 248.2061 
L 95.179425 206.727616 
L 94.920713 199.907077 
L 94.167113 189.902005 
L 93.394754 180.304008 
L 93.079699 174.23033 
L 93.051872 168.499301 
L 93.398057 163.183564 
L 93.731727 160.700325 
L 94.180454 158.339135 
L 94.749526 156.09956 
L 95.512686 153.815326 
L 97.631476 148.877707 
L 100.294729 143.775025 
L 103.433449 138.654621 
L 106.973063 133.653617 
L 110.833539 128.902757 
L 114.927761 124.528146 
L 117.032661 122.520033 
L 119.15856 120.650865 
L 121.291079 118.934424 
L 123.414712 117.383469 
L 125.512784 116.009268 
L 129.381814 113.89474 
L 131.097962 113.187177 
L 133.01902 112.638229 
L 135.155108 112.250207 
L 137.501482 112.024026 
L 140.044152 111.955362 
L 142.764731 112.033821 
L 148.662397 112.56476 
L 155.052835 113.446075 
L 165.330475 114.957821 
L 172.544233 115.736543 
L 176.244509 115.95348 
L 180.001894 116.002295 
L 183.810609 115.83798 
L 187.589836 115.423804 
L 191.229351 114.773289 
L 194.769069 113.926254 
L 198.214163 112.920308 
L 201.570924 111.789906 
L 208.043257 109.281036 
L 228.403289 100.764936 
L 233.482519 99.190834 
L 235.870103 98.636595 
L 238.152527 98.249188 
L 240.334485 98.032876 
L 242.706927 98.012018 
L 248.275039 98.445028 
L 254.288739 99.308125 
L 260.512177 100.590197 
L 266.718909 102.270511 
L 272.68413 104.317036 
L 275.505249 105.463054 
L 278.180412 106.679961 
L 280.680793 107.956643 
L 282.977975 109.278799 
L 285.044877 110.628102 
L 286.857472 111.981478 
L 288.397643 113.311027 
L 290.477668 115.482559 
L 291.062537 116.255658 
L 291.575003 117.474067 
L 291.946039 119.168541 
L 292.125915 121.302162 
L 292.097952 123.812837 
L 291.871579 126.636774 
L 290.936562 133.005781 
L 288.277283 147.55036 
L 287.722949 151.420722 
L 287.322778 155.363231 
L 287.146561 159.378365 
L 287.281042 163.468308 
L 287.836149 167.624901 
L 288.943681 171.805498 
L 290.479031 175.4619 
L 292.177033 178.545688 
L 294.110871 181.597666 
L 296.260376 184.618945 
L 298.607022 187.60404 
L 301.133004 190.542969 
L 303.820922 193.422676 
L 306.653756 196.227986 
L 309.615011 198.942245 
L 312.688975 201.547725 
L 315.861093 204.025861 
L 319.118476 206.357311 
L 322.450578 208.521811 
L 325.850092 210.497729 
L 329.314075 212.261096 
L 332.845209 213.783763 
L 336.452762 215.030072 
L 340.151987 215.951318 
L 343.958943 216.477727 
L 347.941148 216.502972 
L 351.830076 215.927367 
L 355.448093 214.832939 
L 358.799031 213.341538 
L 361.92028 211.544486 
L 364.857112 209.505487 
L 367.650206 207.270244 
L 370.331977 204.874739 
L 372.926832 202.350513 
L 377.921994 197.03594 
L 385.064292 188.859828 
L 389.627347 183.654056 
L 394.001729 178.970692 
L 396.0923 176.915691 
L 398.487273 174.764533 
L 398.487273 174.764533 
" style="fill:none;stroke:#ffffff;stroke-linecap:square;"/>
   </g>
   <g id="patch_3">
    <path d="M 57.6 307.584 
L 57.6 41.472 
" style="fill:none;stroke:#000000;stroke-linecap:square;stroke-linejoin:miter;stroke-width:0.8;"/>
   </g>
   <g id="patch_4">
    <path d="M 414.72 307.584 
L 414.72 41.472 
" style="fill:none;stroke:#000000;stroke-linecap:square;stroke-linejoin:miter;stroke-width:0.8;"/>
   </g>
   <g id="patch_5">
    <path d="M 57.6 307.584 
L 414.72 307.584 
" style="fill:none;stroke:#000000;stroke-linecap:square;stroke-linejoin:miter;stroke-width:0.8;"/>
   </g>
   <g id="patch_6">
    <path d="M 57.6 41.472 
L 414.72 41.472 
" style="fill:none;stroke:#000000;stroke-linecap:square;stroke-linejoin:miter;stroke-width:0.8;"/>
   </g>
  </g>
 </g>
 <defs>
  <clipPath id="pa0a1f6c841">
   <rect height="266.112" width="357.12" x="57.6" y="41.472"/>
  </clipPath>
 </defs>
</svg>
