<?xml version="1.0" encoding="utf-8" standalone="no"?>
<!DOCTYPE svg PUBLIC "-//W3C//DTD SVG 1.1//EN"
  "http://www.w3.org/Graphics/SVG/1.1/DTD/svg11.dtd">
<!-- Created with matplotlib (https://matplotlib.org/) -->
<svg height="345.6pt" version="1.1" viewBox="0 0 460.8 345.6" width="460.8pt" xmlns="http://www.w3.org/2000/svg" xmlns:xlink="http://www.w3.org/1999/xlink">
 <metadata>
  <rdf:RDF xmlns:cc="http://creativecommons.org/ns#" xmlns:dc="http://purl.org/dc/elements/1.1/" xmlns:rdf="http://www.w3.org/1999/02/22-rdf-syntax-ns#">
   <cc:Work>
    <dc:type rdf:resource="http://purl.org/dc/dcmitype/StillImage"/>
    <dc:date>2021-06-19T19:17:09.603553</dc:date>
    <dc:format>image/svg+xml</dc:format>
    <dc:creator>
     <cc:Agent>
      <dc:title>Matplotlib v3.3.3, https://matplotlib.org/</dc:title>
     </cc:Agent>
    </dc:creator>
   </cc:Work>
  </rdf:RDF>
 </metadata>
 <defs>
  <style type="text/css">*{stroke-linecap:butt;stroke-linejoin:round;}</style>
 </defs>
 <g id="figure_1">
  <g id="patch_1">
   <path d="M 0 345.6 
L 460.8 345.6 
L 460.8 0 
L 0 0 
z
" style="fill:#ffffff;"/>
  </g>
  <g id="axes_1">
   <g id="patch_2">
    <path d="M 57.6 307.584 
L 414.72 307.584 
L 414.72 41.472 
L 57.6 41.472 
z
" style="fill:#7d9051;"/>
   </g>
   <g id="matplotlib.axis_1">
    <g id="xtick_1">
     <g id="line2d_1">
      <defs>
       <path d="M 0 0 
L 0 3.5 
" id="mbc58b2d247" style="stroke:#000000;stroke-width:0.8;"/>
      </defs>
      <g>
       <use style="stroke:#000000;stroke-width:0.8;" x="67.644782" xlink:href="#mbc58b2d247" y="307.584"/>
      </g>
     </g>
     <g id="text_1">
      <!-- −150 -->
      <g transform="translate(53.911189 322.182437)scale(0.1 -0.1)">
       <defs>
        <path d="M 10.59375 35.5 
L 73.1875 35.5 
L 73.1875 27.203125 
L 10.59375 27.203125 
z
" id="DejaVuSans-8722"/>
        <path d="M 12.40625 8.296875 
L 28.515625 8.296875 
L 28.515625 63.921875 
L 10.984375 60.40625 
L 10.984375 69.390625 
L 28.421875 72.90625 
L 38.28125 72.90625 
L 38.28125 8.296875 
L 54.390625 8.296875 
L 54.390625 0 
L 12.40625 0 
z
" id="DejaVuSans-49"/>
        <path d="M 10.796875 72.90625 
L 49.515625 72.90625 
L 49.515625 64.59375 
L 19.828125 64.59375 
L 19.828125 46.734375 
Q 21.96875 47.46875 24.109375 47.828125 
Q 26.265625 48.1875 28.421875 48.1875 
Q 40.625 48.1875 47.75 41.5 
Q 54.890625 34.8125 54.890625 23.390625 
Q 54.890625 11.625 47.5625 5.09375 
Q 40.234375 -1.421875 26.90625 -1.421875 
Q 22.3125 -1.421875 17.546875 -0.640625 
Q 12.796875 0.140625 7.71875 1.703125 
L 7.71875 11.625 
Q 12.109375 9.234375 16.796875 8.0625 
Q 21.484375 6.890625 26.703125 6.890625 
Q 35.15625 6.890625 40.078125 11.328125 
Q 45.015625 15.765625 45.015625 23.390625 
Q 45.015625 31 40.078125 35.4375 
Q 35.15625 39.890625 26.703125 39.890625 
Q 22.75 39.890625 18.8125 39.015625 
Q 14.890625 38.140625 10.796875 36.28125 
z
" id="DejaVuSans-53"/>
        <path d="M 31.78125 66.40625 
Q 24.171875 66.40625 20.328125 58.90625 
Q 16.5 51.421875 16.5 36.375 
Q 16.5 21.390625 20.328125 13.890625 
Q 24.171875 6.390625 31.78125 6.390625 
Q 39.453125 6.390625 43.28125 13.890625 
Q 47.125 21.390625 47.125 36.375 
Q 47.125 51.421875 43.28125 58.90625 
Q 39.453125 66.40625 31.78125 66.40625 
z
M 31.78125 74.21875 
Q 44.046875 74.21875 50.515625 64.515625 
Q 56.984375 54.828125 56.984375 36.375 
Q 56.984375 17.96875 50.515625 8.265625 
Q 44.046875 -1.421875 31.78125 -1.421875 
Q 19.53125 -1.421875 13.0625 8.265625 
Q 6.59375 17.96875 6.59375 36.375 
Q 6.59375 54.828125 13.0625 64.515625 
Q 19.53125 74.21875 31.78125 74.21875 
z
" id="DejaVuSans-48"/>
       </defs>
       <use xlink:href="#DejaVuSans-8722"/>
       <use x="83.789062" xlink:href="#DejaVuSans-49"/>
       <use x="147.412109" xlink:href="#DejaVuSans-53"/>
       <use x="211.035156" xlink:href="#DejaVuSans-48"/>
      </g>
     </g>
    </g>
    <g id="xtick_2">
     <g id="line2d_2">
      <g>
       <use style="stroke:#000000;stroke-width:0.8;" x="133.165053" xlink:href="#mbc58b2d247" y="307.584"/>
      </g>
     </g>
     <g id="text_2">
      <!-- −100 -->
      <g transform="translate(119.431459 322.182437)scale(0.1 -0.1)">
       <use xlink:href="#DejaVuSans-8722"/>
       <use x="83.789062" xlink:href="#DejaVuSans-49"/>
       <use x="147.412109" xlink:href="#DejaVuSans-48"/>
       <use x="211.035156" xlink:href="#DejaVuSans-48"/>
      </g>
     </g>
    </g>
    <g id="xtick_3">
     <g id="line2d_3">
      <g>
       <use style="stroke:#000000;stroke-width:0.8;" x="198.685323" xlink:href="#mbc58b2d247" y="307.584"/>
      </g>
     </g>
     <g id="text_3">
      <!-- −50 -->
      <g transform="translate(188.13298 322.182437)scale(0.1 -0.1)">
       <use xlink:href="#DejaVuSans-8722"/>
       <use x="83.789062" xlink:href="#DejaVuSans-53"/>
       <use x="147.412109" xlink:href="#DejaVuSans-48"/>
      </g>
     </g>
    </g>
    <g id="xtick_4">
     <g id="line2d_4">
      <g>
       <use style="stroke:#000000;stroke-width:0.8;" x="264.205594" xlink:href="#mbc58b2d247" y="307.584"/>
      </g>
     </g>
     <g id="text_4">
      <!-- 0 -->
      <g transform="translate(261.024344 322.182437)scale(0.1 -0.1)">
       <use xlink:href="#DejaVuSans-48"/>
      </g>
     </g>
    </g>
    <g id="xtick_5">
     <g id="line2d_5">
      <g>
       <use style="stroke:#000000;stroke-width:0.8;" x="329.725865" xlink:href="#mbc58b2d247" y="307.584"/>
      </g>
     </g>
     <g id="text_5">
      <!-- 50 -->
      <g transform="translate(323.363365 322.182437)scale(0.1 -0.1)">
       <use xlink:href="#DejaVuSans-53"/>
       <use x="63.623047" xlink:href="#DejaVuSans-48"/>
      </g>
     </g>
    </g>
    <g id="xtick_6">
     <g id="line2d_6">
      <g>
       <use style="stroke:#000000;stroke-width:0.8;" x="395.246135" xlink:href="#mbc58b2d247" y="307.584"/>
      </g>
     </g>
     <g id="text_6">
      <!-- 100 -->
      <g transform="translate(385.702385 322.182437)scale(0.1 -0.1)">
       <use xlink:href="#DejaVuSans-49"/>
       <use x="63.623047" xlink:href="#DejaVuSans-48"/>
       <use x="127.246094" xlink:href="#DejaVuSans-48"/>
      </g>
     </g>
    </g>
   </g>
   <g id="matplotlib.axis_2">
    <g id="ytick_1">
     <g id="line2d_7">
      <defs>
       <path d="M 0 0 
L -3.5 0 
" id="mdf7b690a87" style="stroke:#000000;stroke-width:0.8;"/>
      </defs>
      <g>
       <use style="stroke:#000000;stroke-width:0.8;" x="57.6" xlink:href="#mdf7b690a87" y="295.437571"/>
      </g>
     </g>
     <g id="text_7">
      <!-- 0 -->
      <g transform="translate(44.2375 299.236789)scale(0.1 -0.1)">
       <use xlink:href="#DejaVuSans-48"/>
      </g>
     </g>
    </g>
    <g id="ytick_2">
     <g id="line2d_8">
      <g>
       <use style="stroke:#000000;stroke-width:0.8;" x="57.6" xlink:href="#mdf7b690a87" y="262.677435"/>
      </g>
     </g>
     <g id="text_8">
      <!-- 25 -->
      <g transform="translate(37.875 266.476654)scale(0.1 -0.1)">
       <defs>
        <path d="M 19.1875 8.296875 
L 53.609375 8.296875 
L 53.609375 0 
L 7.328125 0 
L 7.328125 8.296875 
Q 12.9375 14.109375 22.625 23.890625 
Q 32.328125 33.6875 34.8125 36.53125 
Q 39.546875 41.84375 41.421875 45.53125 
Q 43.3125 49.21875 43.3125 52.78125 
Q 43.3125 58.59375 39.234375 62.25 
Q 35.15625 65.921875 28.609375 65.921875 
Q 23.96875 65.921875 18.8125 64.3125 
Q 13.671875 62.703125 7.8125 59.421875 
L 7.8125 69.390625 
Q 13.765625 71.78125 18.9375 73 
Q 24.125 74.21875 28.421875 74.21875 
Q 39.75 74.21875 46.484375 68.546875 
Q 53.21875 62.890625 53.21875 53.421875 
Q 53.21875 48.921875 51.53125 44.890625 
Q 49.859375 40.875 45.40625 35.40625 
Q 44.1875 33.984375 37.640625 27.21875 
Q 31.109375 20.453125 19.1875 8.296875 
z
" id="DejaVuSans-50"/>
       </defs>
       <use xlink:href="#DejaVuSans-50"/>
       <use x="63.623047" xlink:href="#DejaVuSans-53"/>
      </g>
     </g>
    </g>
    <g id="ytick_3">
     <g id="line2d_9">
      <g>
       <use style="stroke:#000000;stroke-width:0.8;" x="57.6" xlink:href="#mdf7b690a87" y="229.9173"/>
      </g>
     </g>
     <g id="text_9">
      <!-- 50 -->
      <g transform="translate(37.875 233.716519)scale(0.1 -0.1)">
       <use xlink:href="#DejaVuSans-53"/>
       <use x="63.623047" xlink:href="#DejaVuSans-48"/>
      </g>
     </g>
    </g>
    <g id="ytick_4">
     <g id="line2d_10">
      <g>
       <use style="stroke:#000000;stroke-width:0.8;" x="57.6" xlink:href="#mdf7b690a87" y="197.157165"/>
      </g>
     </g>
     <g id="text_10">
      <!-- 75 -->
      <g transform="translate(37.875 200.956384)scale(0.1 -0.1)">
       <defs>
        <path d="M 8.203125 72.90625 
L 55.078125 72.90625 
L 55.078125 68.703125 
L 28.609375 0 
L 18.3125 0 
L 43.21875 64.59375 
L 8.203125 64.59375 
z
" id="DejaVuSans-55"/>
       </defs>
       <use xlink:href="#DejaVuSans-55"/>
       <use x="63.623047" xlink:href="#DejaVuSans-53"/>
      </g>
     </g>
    </g>
    <g id="ytick_5">
     <g id="line2d_11">
      <g>
       <use style="stroke:#000000;stroke-width:0.8;" x="57.6" xlink:href="#mdf7b690a87" y="164.39703"/>
      </g>
     </g>
     <g id="text_11">
      <!-- 100 -->
      <g transform="translate(31.5125 168.196248)scale(0.1 -0.1)">
       <use xlink:href="#DejaVuSans-49"/>
       <use x="63.623047" xlink:href="#DejaVuSans-48"/>
       <use x="127.246094" xlink:href="#DejaVuSans-48"/>
      </g>
     </g>
    </g>
    <g id="ytick_6">
     <g id="line2d_12">
      <g>
       <use style="stroke:#000000;stroke-width:0.8;" x="57.6" xlink:href="#mdf7b690a87" y="131.636894"/>
      </g>
     </g>
     <g id="text_12">
      <!-- 125 -->
      <g transform="translate(31.5125 135.436113)scale(0.1 -0.1)">
       <use xlink:href="#DejaVuSans-49"/>
       <use x="63.623047" xlink:href="#DejaVuSans-50"/>
       <use x="127.246094" xlink:href="#DejaVuSans-53"/>
      </g>
     </g>
    </g>
    <g id="ytick_7">
     <g id="line2d_13">
      <g>
       <use style="stroke:#000000;stroke-width:0.8;" x="57.6" xlink:href="#mdf7b690a87" y="98.876759"/>
      </g>
     </g>
     <g id="text_13">
      <!-- 150 -->
      <g transform="translate(31.5125 102.675978)scale(0.1 -0.1)">
       <use xlink:href="#DejaVuSans-49"/>
       <use x="63.623047" xlink:href="#DejaVuSans-53"/>
       <use x="127.246094" xlink:href="#DejaVuSans-48"/>
      </g>
     </g>
    </g>
    <g id="ytick_8">
     <g id="line2d_14">
      <g>
       <use style="stroke:#000000;stroke-width:0.8;" x="57.6" xlink:href="#mdf7b690a87" y="66.116624"/>
      </g>
     </g>
     <g id="text_14">
      <!-- 175 -->
      <g transform="translate(31.5125 69.915842)scale(0.1 -0.1)">
       <use xlink:href="#DejaVuSans-49"/>
       <use x="63.623047" xlink:href="#DejaVuSans-55"/>
       <use x="127.246094" xlink:href="#DejaVuSans-53"/>
      </g>
     </g>
    </g>
   </g>
   <g id="line2d_15">
    <path clip-path="url(#pf00fd2e896)" d="M 264.205594 295.437571 
L 264.472752 278.197726 
L 264.849287 260.928058 
L 265.202476 257.267267 
L 266.046195 251.547993 
L 267.171153 243.922295 
L 267.482484 240.291916 
L 267.477555 236.891312 
L 267.321611 235.30252 
L 267.044745 233.801583 
L 266.633002 232.398639 
L 266.072432 231.103826 
L 265.34908 229.927279 
L 264.430705 228.902149 
L 263.308765 228.042203 
L 262.004859 227.328506 
L 260.540587 226.742126 
L 258.93755 226.264127 
L 255.401575 225.557539 
L 249.59686 224.837167 
L 243.709633 224.069791 
L 240.02697 223.279638 
L 238.323085 222.744189 
L 236.739629 222.089913 
L 235.298204 221.297876 
L 234.020407 220.349143 
L 232.880796 219.260499 
L 231.833981 218.067439 
L 230.871643 216.779096 
L 229.167126 213.953084 
L 227.700698 210.855515 
L 226.405813 207.559442 
L 224.064481 200.663998 
L 222.263837 195.514674 
L 220.917373 192.229365 
L 219.36381 189.118912 
L 217.526115 186.056384 
L 214.434974 181.493554 
L 210.253926 175.439459 
L 208.380059 172.413081 
L 206.794138 169.380009 
L 205.603794 166.334887 
L 205.190597 164.806133 
L 204.916656 163.272359 
L 204.795424 161.732894 
L 204.940565 158.55607 
L 205.507435 155.236914 
L 206.450845 151.837203 
L 207.72561 148.418717 
L 209.286541 145.043233 
L 211.088451 141.772529 
L 213.086153 138.668383 
L 215.234459 135.792573 
L 217.488183 133.206878 
L 218.640455 132.042129 
L 219.876697 130.995366 
L 221.257201 130.080782 
L 222.76339 129.282365 
L 224.376685 128.584105 
L 227.850288 127.424013 
L 233.399561 126.034783 
L 238.909616 124.682384 
L 242.313499 123.58777 
L 243.878862 122.934527 
L 245.328403 122.189311 
L 246.643545 121.336113 
L 247.805709 120.35892 
L 248.796319 119.241724 
L 249.634123 117.996097 
L 250.355723 116.650017 
L 250.969316 115.212078 
L 251.905285 112.095006 
L 252.507624 108.713639 
L 252.841928 105.136738 
L 252.973794 101.43306 
L 252.93551 95.79025 
L 252.554453 79.870935 
L 252.072155 74.727128 
L 251.186874 67.866605 
L 249.55437 55.859963 
L 249.364408 54.145106 
L 249.364408 54.145106 
" style="fill:none;stroke:#fea952;stroke-linecap:square;"/>
   </g>
   <g id="line2d_16">
    <path clip-path="url(#pf00fd2e896)" d="M 258.964215 295.387141 
L 259.23218 278.092819 
L 259.624749 260.505215 
L 260.007504 256.569516 
L 260.870771 250.717581 
L 261.956776 243.388558 
L 262.242552 240.158826 
L 262.261001 237.403329 
L 262.015253 235.277661 
L 261.607215 233.849082 
L 261.242023 233.062305 
L 260.792079 232.640125 
L 260.056245 232.194459 
L 259.042793 231.765194 
L 256.313028 231.038599 
L 252.885316 230.495124 
L 242.738086 229.220586 
L 240.598674 228.810212 
L 238.455547 228.280161 
L 236.321414 227.588559 
L 234.21542 226.68371 
L 232.173532 225.506323 
L 230.399745 224.139314 
L 228.940805 222.71753 
L 227.634559 221.204229 
L 226.466261 219.619378 
L 225.419497 217.978808 
L 223.625462 214.578197 
L 222.132502 211.079909 
L 220.241602 205.790413 
L 217.384756 197.43018 
L 216.17781 194.467921 
L 214.827056 191.744262 
L 213.142329 188.929886 
L 210.147575 184.508983 
L 205.836514 178.260996 
L 203.790122 174.944301 
L 201.975879 171.443738 
L 201.200985 169.606614 
L 200.543741 167.702535 
L 200.030631 165.727734 
L 199.691212 163.683859 
L 199.554112 161.675922 
L 199.587347 159.750379 
L 199.750943 157.819582 
L 200.425187 153.954198 
L 201.503517 150.105574 
L 202.928759 146.305705 
L 204.652789 142.593143 
L 206.633094 139.011299 
L 208.831752 135.606574 
L 211.216194 132.426843 
L 213.761892 129.520504 
L 215.253328 128.041883 
L 216.981785 126.625689 
L 218.802255 125.449601 
L 220.681378 124.471978 
L 222.597511 123.653676 
L 226.479832 122.36472 
L 232.213212 120.929181 
L 237.416824 119.657828 
L 240.294835 118.750458 
L 242.475645 117.791998 
L 243.883798 116.881391 
L 244.446966 116.316365 
L 245.014432 115.519598 
L 246.003298 113.5348 
L 246.769281 111.048074 
L 247.298087 108.13457 
L 247.606173 104.888823 
L 247.732255 101.403706 
L 247.695269 95.910533 
L 247.199051 78.649123 
L 246.670133 73.670097 
L 245.509447 65.174204 
L 244.344615 56.437069 
L 244.154653 54.722212 
L 244.154653 54.722212 
" style="fill:none;stroke:#ffffff;stroke-linecap:square;"/>
   </g>
   <g id="line2d_17">
    <path clip-path="url(#pf00fd2e896)" d="M 269.446973 295.488 
L 269.713324 278.302632 
L 270.073825 261.350902 
L 270.397449 257.965019 
L 271.221618 252.378406 
L 272.385529 244.456033 
L 272.722416 240.425005 
L 272.765888 238.403856 
L 272.694109 236.379296 
L 272.476269 234.351679 
L 272.074237 232.325505 
L 271.44318 230.316144 
L 270.537649 228.358569 
L 269.25317 226.429754 
L 267.619387 224.741992 
L 265.82545 223.44428 
L 263.953473 222.462553 
L 262.038381 221.719058 
L 260.092407 221.15131 
L 256.133418 220.367259 
L 250.188928 219.629091 
L 244.681179 218.918995 
L 241.598393 218.279116 
L 239.263838 217.496117 
L 238.422875 217.089428 
L 237.64107 216.558971 
L 236.033403 214.930649 
L 234.551431 212.830393 
L 233.191158 210.289159 
L 231.939442 207.375543 
L 230.190243 202.485425 
L 227.142918 193.599167 
L 225.656937 189.990808 
L 223.900564 186.493563 
L 221.909902 183.182883 
L 218.722372 178.478125 
L 214.671338 172.617923 
L 212.969996 169.881862 
L 211.612397 167.31628 
L 210.663847 164.967238 
L 210.1421 162.860858 
L 210.036736 161.789866 
L 210.130188 159.292558 
L 210.589682 156.519629 
L 211.398174 153.568832 
L 212.522461 150.531729 
L 213.920293 147.493323 
L 215.543808 144.533759 
L 217.340553 141.730192 
L 219.252724 139.158304 
L 221.214474 136.893252 
L 222.77161 135.365043 
L 223.712147 134.711963 
L 224.845401 134.092752 
L 227.622105 132.979175 
L 230.928591 132.019285 
L 242.370172 129.116686 
L 244.332164 128.425083 
L 246.27544 127.59618 
L 248.181162 126.586624 
L 250.016886 125.347991 
L 251.72762 123.83645 
L 253.145672 122.167083 
L 254.253815 120.472596 
L 255.176763 118.70724 
L 255.935334 116.889356 
L 256.550408 115.03141 
L 257.425163 111.227259 
L 257.930665 107.343397 
L 258.169179 103.422229 
L 258.209617 97.578574 
L 257.779424 79.453471 
L 257.277841 74.114403 
L 256.3767 67.131552 
L 254.764125 55.282857 
L 254.574163 53.568 
L 254.574163 53.568 
" style="fill:none;stroke:#ffffff;stroke-linecap:square;"/>
   </g>
   <g id="patch_3">
    <path d="M 57.6 307.584 
L 57.6 41.472 
" style="fill:none;stroke:#000000;stroke-linecap:square;stroke-linejoin:miter;stroke-width:0.8;"/>
   </g>
   <g id="patch_4">
    <path d="M 414.72 307.584 
L 414.72 41.472 
" style="fill:none;stroke:#000000;stroke-linecap:square;stroke-linejoin:miter;stroke-width:0.8;"/>
   </g>
   <g id="patch_5">
    <path d="M 57.6 307.584 
L 414.72 307.584 
" style="fill:none;stroke:#000000;stroke-linecap:square;stroke-linejoin:miter;stroke-width:0.8;"/>
   </g>
   <g id="patch_6">
    <path d="M 57.6 41.472 
L 414.72 41.472 
" style="fill:none;stroke:#000000;stroke-linecap:square;stroke-linejoin:miter;stroke-width:0.8;"/>
   </g>
  </g>
 </g>
 <defs>
  <clipPath id="pf00fd2e896">
   <rect height="266.112" width="357.12" x="57.6" y="41.472"/>
  </clipPath>
 </defs>
</svg>
