<?xml version="1.0" encoding="utf-8" standalone="no"?>
<!DOCTYPE svg PUBLIC "-//W3C//DTD SVG 1.1//EN"
  "http://www.w3.org/Graphics/SVG/1.1/DTD/svg11.dtd">
<!-- Created with matplotlib (https://matplotlib.org/) -->
<svg height="345.6pt" version="1.1" viewBox="0 0 460.8 345.6" width="460.8pt" xmlns="http://www.w3.org/2000/svg" xmlns:xlink="http://www.w3.org/1999/xlink">
 <metadata>
  <rdf:RDF xmlns:cc="http://creativecommons.org/ns#" xmlns:dc="http://purl.org/dc/elements/1.1/" xmlns:rdf="http://www.w3.org/1999/02/22-rdf-syntax-ns#">
   <cc:Work>
    <dc:type rdf:resource="http://purl.org/dc/dcmitype/StillImage"/>
    <dc:date>2021-06-28T21:12:51.781519</dc:date>
    <dc:format>image/svg+xml</dc:format>
    <dc:creator>
     <cc:Agent>
      <dc:title>Matplotlib v3.3.3, https://matplotlib.org/</dc:title>
     </cc:Agent>
    </dc:creator>
   </cc:Work>
  </rdf:RDF>
 </metadata>
 <defs>
  <style type="text/css">*{stroke-linecap:butt;stroke-linejoin:round;}</style>
 </defs>
 <g id="figure_1">
  <g id="patch_1">
   <path d="M 0 345.6 
L 460.8 345.6 
L 460.8 0 
L 0 0 
z
" style="fill:#ffffff;"/>
  </g>
  <g id="axes_1">
   <g id="patch_2">
    <path d="M 57.6 307.584 
L 414.72 307.584 
L 414.72 41.472 
L 57.6 41.472 
z
" style="fill:#7d9051;"/>
   </g>
   <g id="matplotlib.axis_1">
    <g id="xtick_1">
     <g id="line2d_1">
      <defs>
       <path d="M 0 0 
L 0 3.5 
" id="m6fa1578b86" style="stroke:#000000;stroke-width:0.8;"/>
      </defs>
      <g>
       <use style="stroke:#000000;stroke-width:0.8;" x="117.723059" xlink:href="#m6fa1578b86" y="307.584"/>
      </g>
     </g>
     <g id="text_1">
      <!-- −100 -->
      <g transform="translate(103.989465 322.182437)scale(0.1 -0.1)">
       <defs>
        <path d="M 10.59375 35.5 
L 73.1875 35.5 
L 73.1875 27.203125 
L 10.59375 27.203125 
z
" id="DejaVuSans-8722"/>
        <path d="M 12.40625 8.296875 
L 28.515625 8.296875 
L 28.515625 63.921875 
L 10.984375 60.40625 
L 10.984375 69.390625 
L 28.421875 72.90625 
L 38.28125 72.90625 
L 38.28125 8.296875 
L 54.390625 8.296875 
L 54.390625 0 
L 12.40625 0 
z
" id="DejaVuSans-49"/>
        <path d="M 31.78125 66.40625 
Q 24.171875 66.40625 20.328125 58.90625 
Q 16.5 51.421875 16.5 36.375 
Q 16.5 21.390625 20.328125 13.890625 
Q 24.171875 6.390625 31.78125 6.390625 
Q 39.453125 6.390625 43.28125 13.890625 
Q 47.125 21.390625 47.125 36.375 
Q 47.125 51.421875 43.28125 58.90625 
Q 39.453125 66.40625 31.78125 66.40625 
z
M 31.78125 74.21875 
Q 44.046875 74.21875 50.515625 64.515625 
Q 56.984375 54.828125 56.984375 36.375 
Q 56.984375 17.96875 50.515625 8.265625 
Q 44.046875 -1.421875 31.78125 -1.421875 
Q 19.53125 -1.421875 13.0625 8.265625 
Q 6.59375 17.96875 6.59375 36.375 
Q 6.59375 54.828125 13.0625 64.515625 
Q 19.53125 74.21875 31.78125 74.21875 
z
" id="DejaVuSans-48"/>
       </defs>
       <use xlink:href="#DejaVuSans-8722"/>
       <use x="83.789062" xlink:href="#DejaVuSans-49"/>
       <use x="147.412109" xlink:href="#DejaVuSans-48"/>
       <use x="211.035156" xlink:href="#DejaVuSans-48"/>
      </g>
     </g>
    </g>
    <g id="xtick_2">
     <g id="line2d_2">
      <g>
       <use style="stroke:#000000;stroke-width:0.8;" x="183.101575" xlink:href="#m6fa1578b86" y="307.584"/>
      </g>
     </g>
     <g id="text_2">
      <!-- −50 -->
      <g transform="translate(172.549231 322.182437)scale(0.1 -0.1)">
       <defs>
        <path d="M 10.796875 72.90625 
L 49.515625 72.90625 
L 49.515625 64.59375 
L 19.828125 64.59375 
L 19.828125 46.734375 
Q 21.96875 47.46875 24.109375 47.828125 
Q 26.265625 48.1875 28.421875 48.1875 
Q 40.625 48.1875 47.75 41.5 
Q 54.890625 34.8125 54.890625 23.390625 
Q 54.890625 11.625 47.5625 5.09375 
Q 40.234375 -1.421875 26.90625 -1.421875 
Q 22.3125 -1.421875 17.546875 -0.640625 
Q 12.796875 0.140625 7.71875 1.703125 
L 7.71875 11.625 
Q 12.109375 9.234375 16.796875 8.0625 
Q 21.484375 6.890625 26.703125 6.890625 
Q 35.15625 6.890625 40.078125 11.328125 
Q 45.015625 15.765625 45.015625 23.390625 
Q 45.015625 31 40.078125 35.4375 
Q 35.15625 39.890625 26.703125 39.890625 
Q 22.75 39.890625 18.8125 39.015625 
Q 14.890625 38.140625 10.796875 36.28125 
z
" id="DejaVuSans-53"/>
       </defs>
       <use xlink:href="#DejaVuSans-8722"/>
       <use x="83.789062" xlink:href="#DejaVuSans-53"/>
       <use x="147.412109" xlink:href="#DejaVuSans-48"/>
      </g>
     </g>
    </g>
    <g id="xtick_3">
     <g id="line2d_3">
      <g>
       <use style="stroke:#000000;stroke-width:0.8;" x="248.48009" xlink:href="#m6fa1578b86" y="307.584"/>
      </g>
     </g>
     <g id="text_3">
      <!-- 0 -->
      <g transform="translate(245.29884 322.182437)scale(0.1 -0.1)">
       <use xlink:href="#DejaVuSans-48"/>
      </g>
     </g>
    </g>
    <g id="xtick_4">
     <g id="line2d_4">
      <g>
       <use style="stroke:#000000;stroke-width:0.8;" x="313.858605" xlink:href="#m6fa1578b86" y="307.584"/>
      </g>
     </g>
     <g id="text_4">
      <!-- 50 -->
      <g transform="translate(307.496105 322.182437)scale(0.1 -0.1)">
       <use xlink:href="#DejaVuSans-53"/>
       <use x="63.623047" xlink:href="#DejaVuSans-48"/>
      </g>
     </g>
    </g>
    <g id="xtick_5">
     <g id="line2d_5">
      <g>
       <use style="stroke:#000000;stroke-width:0.8;" x="379.237121" xlink:href="#m6fa1578b86" y="307.584"/>
      </g>
     </g>
     <g id="text_5">
      <!-- 100 -->
      <g transform="translate(369.693371 322.182437)scale(0.1 -0.1)">
       <use xlink:href="#DejaVuSans-49"/>
       <use x="63.623047" xlink:href="#DejaVuSans-48"/>
       <use x="127.246094" xlink:href="#DejaVuSans-48"/>
      </g>
     </g>
    </g>
   </g>
   <g id="matplotlib.axis_2">
    <g id="ytick_1">
     <g id="line2d_6">
      <defs>
       <path d="M 0 0 
L -3.5 0 
" id="m36baa4ff93" style="stroke:#000000;stroke-width:0.8;"/>
      </defs>
      <g>
       <use style="stroke:#000000;stroke-width:0.8;" x="57.6" xlink:href="#m36baa4ff93" y="295.43768"/>
      </g>
     </g>
     <g id="text_6">
      <!-- 0 -->
      <g transform="translate(44.2375 299.236899)scale(0.1 -0.1)">
       <use xlink:href="#DejaVuSans-48"/>
      </g>
     </g>
    </g>
    <g id="ytick_2">
     <g id="line2d_7">
      <g>
       <use style="stroke:#000000;stroke-width:0.8;" x="57.6" xlink:href="#m36baa4ff93" y="262.748422"/>
      </g>
     </g>
     <g id="text_7">
      <!-- 25 -->
      <g transform="translate(37.875 266.547641)scale(0.1 -0.1)">
       <defs>
        <path d="M 19.1875 8.296875 
L 53.609375 8.296875 
L 53.609375 0 
L 7.328125 0 
L 7.328125 8.296875 
Q 12.9375 14.109375 22.625 23.890625 
Q 32.328125 33.6875 34.8125 36.53125 
Q 39.546875 41.84375 41.421875 45.53125 
Q 43.3125 49.21875 43.3125 52.78125 
Q 43.3125 58.59375 39.234375 62.25 
Q 35.15625 65.921875 28.609375 65.921875 
Q 23.96875 65.921875 18.8125 64.3125 
Q 13.671875 62.703125 7.8125 59.421875 
L 7.8125 69.390625 
Q 13.765625 71.78125 18.9375 73 
Q 24.125 74.21875 28.421875 74.21875 
Q 39.75 74.21875 46.484375 68.546875 
Q 53.21875 62.890625 53.21875 53.421875 
Q 53.21875 48.921875 51.53125 44.890625 
Q 49.859375 40.875 45.40625 35.40625 
Q 44.1875 33.984375 37.640625 27.21875 
Q 31.109375 20.453125 19.1875 8.296875 
z
" id="DejaVuSans-50"/>
       </defs>
       <use xlink:href="#DejaVuSans-50"/>
       <use x="63.623047" xlink:href="#DejaVuSans-53"/>
      </g>
     </g>
    </g>
    <g id="ytick_3">
     <g id="line2d_8">
      <g>
       <use style="stroke:#000000;stroke-width:0.8;" x="57.6" xlink:href="#m36baa4ff93" y="230.059164"/>
      </g>
     </g>
     <g id="text_8">
      <!-- 50 -->
      <g transform="translate(37.875 233.858383)scale(0.1 -0.1)">
       <use xlink:href="#DejaVuSans-53"/>
       <use x="63.623047" xlink:href="#DejaVuSans-48"/>
      </g>
     </g>
    </g>
    <g id="ytick_4">
     <g id="line2d_9">
      <g>
       <use style="stroke:#000000;stroke-width:0.8;" x="57.6" xlink:href="#m36baa4ff93" y="197.369907"/>
      </g>
     </g>
     <g id="text_9">
      <!-- 75 -->
      <g transform="translate(37.875 201.169125)scale(0.1 -0.1)">
       <defs>
        <path d="M 8.203125 72.90625 
L 55.078125 72.90625 
L 55.078125 68.703125 
L 28.609375 0 
L 18.3125 0 
L 43.21875 64.59375 
L 8.203125 64.59375 
z
" id="DejaVuSans-55"/>
       </defs>
       <use xlink:href="#DejaVuSans-55"/>
       <use x="63.623047" xlink:href="#DejaVuSans-53"/>
      </g>
     </g>
    </g>
    <g id="ytick_5">
     <g id="line2d_10">
      <g>
       <use style="stroke:#000000;stroke-width:0.8;" x="57.6" xlink:href="#m36baa4ff93" y="164.680649"/>
      </g>
     </g>
     <g id="text_10">
      <!-- 100 -->
      <g transform="translate(31.5125 168.479868)scale(0.1 -0.1)">
       <use xlink:href="#DejaVuSans-49"/>
       <use x="63.623047" xlink:href="#DejaVuSans-48"/>
       <use x="127.246094" xlink:href="#DejaVuSans-48"/>
      </g>
     </g>
    </g>
    <g id="ytick_6">
     <g id="line2d_11">
      <g>
       <use style="stroke:#000000;stroke-width:0.8;" x="57.6" xlink:href="#m36baa4ff93" y="131.991391"/>
      </g>
     </g>
     <g id="text_11">
      <!-- 125 -->
      <g transform="translate(31.5125 135.79061)scale(0.1 -0.1)">
       <use xlink:href="#DejaVuSans-49"/>
       <use x="63.623047" xlink:href="#DejaVuSans-50"/>
       <use x="127.246094" xlink:href="#DejaVuSans-53"/>
      </g>
     </g>
    </g>
    <g id="ytick_7">
     <g id="line2d_12">
      <g>
       <use style="stroke:#000000;stroke-width:0.8;" x="57.6" xlink:href="#m36baa4ff93" y="99.302134"/>
      </g>
     </g>
     <g id="text_12">
      <!-- 150 -->
      <g transform="translate(31.5125 103.101352)scale(0.1 -0.1)">
       <use xlink:href="#DejaVuSans-49"/>
       <use x="63.623047" xlink:href="#DejaVuSans-53"/>
       <use x="127.246094" xlink:href="#DejaVuSans-48"/>
      </g>
     </g>
    </g>
    <g id="ytick_8">
     <g id="line2d_13">
      <g>
       <use style="stroke:#000000;stroke-width:0.8;" x="57.6" xlink:href="#m36baa4ff93" y="66.612876"/>
      </g>
     </g>
     <g id="text_13">
      <!-- 175 -->
      <g transform="translate(31.5125 70.412095)scale(0.1 -0.1)">
       <use xlink:href="#DejaVuSans-49"/>
       <use x="63.623047" xlink:href="#DejaVuSans-55"/>
       <use x="127.246094" xlink:href="#DejaVuSans-53"/>
      </g>
     </g>
    </g>
   </g>
   <g id="line2d_14">
    <path clip-path="url(#paaa0842ddb)" d="M 248.48009 295.43768 
L 248.74667 278.235134 
L 249.032457 259.291266 
L 248.69261 252.282808 
L 248.315966 245.264147 
L 248.274959 240.067117 
L 248.466099 236.66302 
L 248.896416 233.325253 
L 249.621102 230.069122 
L 250.689495 226.911359 
L 252.071435 223.845215 
L 253.702878 220.850776 
L 256.47776 216.450001 
L 264.273633 204.773164 
L 266.78678 200.2321 
L 269.496064 195.620561 
L 274.214465 187.852462 
L 275.932701 184.722925 
L 277.430791 181.583978 
L 278.626396 178.437839 
L 279.437181 175.286728 
L 279.672535 173.710002 
L 279.780808 172.132865 
L 279.756547 170.551521 
L 279.607706 168.962685 
L 278.975581 165.766744 
L 277.963014 162.55344 
L 276.64859 159.331175 
L 275.11089 156.108348 
L 272.557597 151.291432 
L 268.298983 143.379433 
L 265.191166 137.233632 
L 261.783978 131.246864 
L 254.815418 119.348721 
L 252.428344 114.781284 
L 250.986822 111.663879 
L 249.717079 108.453116 
L 248.043122 103.512905 
L 244.312734 91.929585 
L 243.06038 88.74006 
L 241.630745 85.658638 
L 239.972348 82.715193 
L 234.99194 74.887294 
L 231.59474 70.041843 
L 229.199328 67.005451 
L 226.721705 64.267475 
L 224.180968 61.950734 
L 222.8929 60.988708 
L 221.596215 60.178047 
L 220.293299 59.534105 
L 218.986542 59.072233 
L 217.678328 58.807784 
L 216.356369 58.759667 
L 215.008275 58.924393 
L 213.636288 59.283719 
L 212.242647 59.819402 
L 210.829593 60.513197 
L 207.954202 62.302148 
L 205.028037 64.504624 
L 200.582789 68.264432 
L 194.645337 73.362646 
L 191.712452 75.619854 
L 190.26281 76.611629 
L 190.26281 76.611629 
" style="fill:none;stroke:#fea952;stroke-linecap:square;"/>
   </g>
   <g id="line2d_15">
    <path clip-path="url(#paaa0842ddb)" d="M 243.250051 295.38736 
L 243.517436 278.130454 
L 243.805002 259.463165 
L 243.472158 252.603309 
L 243.087683 245.408714 
L 243.022022 241.719022 
L 243.127305 237.982132 
L 243.475294 234.21037 
L 244.143188 230.422333 
L 245.204688 226.668366 
L 246.624249 223.11691 
L 248.308012 219.76433 
L 250.172284 216.577682 
L 253.145386 212.038227 
L 258.905785 203.517334 
L 260.546078 200.782744 
L 264.088509 194.452871 
L 270.482839 183.824257 
L 271.955808 180.983879 
L 273.138832 178.272663 
L 273.98062 175.722255 
L 274.454536 173.351778 
L 274.549065 171.039352 
L 274.247174 168.540902 
L 273.562032 165.851187 
L 272.530472 163.001428 
L 271.208853 160.026532 
L 268.833387 155.391523 
L 263.604129 145.684685 
L 260.607117 139.752031 
L 257.285043 133.914339 
L 250.217659 121.842003 
L 247.710933 117.040017 
L 246.148287 113.649937 
L 244.790319 110.208931 
L 243.052582 105.078265 
L 239.420323 93.778953 
L 238.278432 90.858744 
L 237.018713 88.125419 
L 235.53513 85.484117 
L 230.657453 77.81442 
L 227.443403 73.22339 
L 225.252795 70.437757 
L 223.090934 68.032226 
L 221.051185 66.141236 
L 219.278823 64.866921 
L 217.950227 64.19882 
L 216.99075 63.951333 
L 216.333404 63.984025 
L 215.512832 64.165771 
L 214.547795 64.514307 
L 212.283538 65.710045 
L 209.710559 67.486915 
L 206.937694 69.701505 
L 196.299126 78.724784 
L 193.216094 80.928336 
L 193.216094 80.928336 
" style="fill:none;stroke:#ffffff;stroke-linecap:square;"/>
   </g>
   <g id="line2d_16">
    <path clip-path="url(#paaa0842ddb)" d="M 253.710129 295.488 
L 253.975904 278.339813 
L 254.259913 259.119367 
L 253.913062 251.962308 
L 253.49786 243.474044 
L 253.560859 238.733336 
L 253.820527 235.759408 
L 254.293838 232.94972 
L 255.019517 230.28672 
L 256.0663 227.619248 
L 257.411932 224.916224 
L 259.012013 222.170763 
L 261.770791 217.956483 
L 267.816282 208.99697 
L 269.74299 205.766737 
L 273.035969 199.871941 
L 279.709072 188.75376 
L 281.473012 185.3251 
L 283.004267 181.750675 
L 283.648113 179.900099 
L 284.189454 178.003278 
L 284.61015 176.058886 
L 284.890535 174.068227 
L 285.010474 172.052629 
L 284.964028 170.063689 
L 284.768016 168.110019 
L 284.441046 166.193917 
L 283.46185 162.472287 
L 282.146774 158.884377 
L 280.596622 155.412082 
L 278.023606 150.395199 
L 272.233788 139.526287 
L 269.775215 134.715233 
L 266.282913 128.579388 
L 259.413177 116.85544 
L 257.145755 112.522551 
L 255.825357 109.677821 
L 254.643838 106.697302 
L 253.033662 101.947546 
L 249.205144 90.080217 
L 247.842327 86.621376 
L 246.242776 83.191858 
L 244.409566 79.94627 
L 239.326428 71.960169 
L 235.746078 66.860296 
L 233.14586 63.573145 
L 230.352475 60.502724 
L 228.867961 59.082891 
L 227.31075 57.760233 
L 225.665515 56.553795 
L 223.913606 55.489173 
L 222.036268 54.602786 
L 220.022856 53.945646 
L 217.868575 53.580964 
L 215.721987 53.568 
L 213.683147 53.864761 
L 211.759744 54.401668 
L 209.937499 55.124497 
L 208.195706 55.994515 
L 204.880917 58.070037 
L 201.711701 60.460152 
L 197.138382 64.328456 
L 191.393146 69.266417 
L 188.759168 71.303147 
L 187.309526 72.294923 
L 187.309526 72.294923 
" style="fill:none;stroke:#ffffff;stroke-linecap:square;"/>
   </g>
   <g id="patch_3">
    <path d="M 57.6 307.584 
L 57.6 41.472 
" style="fill:none;stroke:#000000;stroke-linecap:square;stroke-linejoin:miter;stroke-width:0.8;"/>
   </g>
   <g id="patch_4">
    <path d="M 414.72 307.584 
L 414.72 41.472 
" style="fill:none;stroke:#000000;stroke-linecap:square;stroke-linejoin:miter;stroke-width:0.8;"/>
   </g>
   <g id="patch_5">
    <path d="M 57.6 307.584 
L 414.72 307.584 
" style="fill:none;stroke:#000000;stroke-linecap:square;stroke-linejoin:miter;stroke-width:0.8;"/>
   </g>
   <g id="patch_6">
    <path d="M 57.6 41.472 
L 414.72 41.472 
" style="fill:none;stroke:#000000;stroke-linecap:square;stroke-linejoin:miter;stroke-width:0.8;"/>
   </g>
  </g>
 </g>
 <defs>
  <clipPath id="paaa0842ddb">
   <rect height="266.112" width="357.12" x="57.6" y="41.472"/>
  </clipPath>
 </defs>
</svg>
