<?xml version="1.0" encoding="utf-8" standalone="no"?>
<!DOCTYPE svg PUBLIC "-//W3C//DTD SVG 1.1//EN"
  "http://www.w3.org/Graphics/SVG/1.1/DTD/svg11.dtd">
<!-- Created with matplotlib (https://matplotlib.org/) -->
<svg height="345.6pt" version="1.1" viewBox="0 0 460.8 345.6" width="460.8pt" xmlns="http://www.w3.org/2000/svg" xmlns:xlink="http://www.w3.org/1999/xlink">
 <metadata>
  <rdf:RDF xmlns:cc="http://creativecommons.org/ns#" xmlns:dc="http://purl.org/dc/elements/1.1/" xmlns:rdf="http://www.w3.org/1999/02/22-rdf-syntax-ns#">
   <cc:Work>
    <dc:type rdf:resource="http://purl.org/dc/dcmitype/StillImage"/>
    <dc:date>2021-06-22T10:36:00.834940</dc:date>
    <dc:format>image/svg+xml</dc:format>
    <dc:creator>
     <cc:Agent>
      <dc:title>Matplotlib v3.3.3, https://matplotlib.org/</dc:title>
     </cc:Agent>
    </dc:creator>
   </cc:Work>
  </rdf:RDF>
 </metadata>
 <defs>
  <style type="text/css">*{stroke-linecap:butt;stroke-linejoin:round;}</style>
 </defs>
 <g id="figure_1">
  <g id="patch_1">
   <path d="M 0 345.6 
L 460.8 345.6 
L 460.8 0 
L 0 0 
z
" style="fill:#ffffff;"/>
  </g>
  <g id="axes_1">
   <g id="patch_2">
    <path d="M 57.6 307.584 
L 414.72 307.584 
L 414.72 41.472 
L 57.6 41.472 
z
" style="fill:#7d9051;"/>
   </g>
   <g id="matplotlib.axis_1">
    <g id="xtick_1">
     <g id="line2d_1">
      <defs>
       <path d="M 0 0 
L 0 3.5 
" id="m78c6fd3b79" style="stroke:#000000;stroke-width:0.8;"/>
      </defs>
      <g>
       <use style="stroke:#000000;stroke-width:0.8;" x="71.955435" xlink:href="#m78c6fd3b79" y="307.584"/>
      </g>
     </g>
     <g id="text_1">
      <!-- −150 -->
      <g transform="translate(58.221841 322.182437)scale(0.1 -0.1)">
       <defs>
        <path d="M 10.59375 35.5 
L 73.1875 35.5 
L 73.1875 27.203125 
L 10.59375 27.203125 
z
" id="DejaVuSans-8722"/>
        <path d="M 12.40625 8.296875 
L 28.515625 8.296875 
L 28.515625 63.921875 
L 10.984375 60.40625 
L 10.984375 69.390625 
L 28.421875 72.90625 
L 38.28125 72.90625 
L 38.28125 8.296875 
L 54.390625 8.296875 
L 54.390625 0 
L 12.40625 0 
z
" id="DejaVuSans-49"/>
        <path d="M 10.796875 72.90625 
L 49.515625 72.90625 
L 49.515625 64.59375 
L 19.828125 64.59375 
L 19.828125 46.734375 
Q 21.96875 47.46875 24.109375 47.828125 
Q 26.265625 48.1875 28.421875 48.1875 
Q 40.625 48.1875 47.75 41.5 
Q 54.890625 34.8125 54.890625 23.390625 
Q 54.890625 11.625 47.5625 5.09375 
Q 40.234375 -1.421875 26.90625 -1.421875 
Q 22.3125 -1.421875 17.546875 -0.640625 
Q 12.796875 0.140625 7.71875 1.703125 
L 7.71875 11.625 
Q 12.109375 9.234375 16.796875 8.0625 
Q 21.484375 6.890625 26.703125 6.890625 
Q 35.15625 6.890625 40.078125 11.328125 
Q 45.015625 15.765625 45.015625 23.390625 
Q 45.015625 31 40.078125 35.4375 
Q 35.15625 39.890625 26.703125 39.890625 
Q 22.75 39.890625 18.8125 39.015625 
Q 14.890625 38.140625 10.796875 36.28125 
z
" id="DejaVuSans-53"/>
        <path d="M 31.78125 66.40625 
Q 24.171875 66.40625 20.328125 58.90625 
Q 16.5 51.421875 16.5 36.375 
Q 16.5 21.390625 20.328125 13.890625 
Q 24.171875 6.390625 31.78125 6.390625 
Q 39.453125 6.390625 43.28125 13.890625 
Q 47.125 21.390625 47.125 36.375 
Q 47.125 51.421875 43.28125 58.90625 
Q 39.453125 66.40625 31.78125 66.40625 
z
M 31.78125 74.21875 
Q 44.046875 74.21875 50.515625 64.515625 
Q 56.984375 54.828125 56.984375 36.375 
Q 56.984375 17.96875 50.515625 8.265625 
Q 44.046875 -1.421875 31.78125 -1.421875 
Q 19.53125 -1.421875 13.0625 8.265625 
Q 6.59375 17.96875 6.59375 36.375 
Q 6.59375 54.828125 13.0625 64.515625 
Q 19.53125 74.21875 31.78125 74.21875 
z
" id="DejaVuSans-48"/>
       </defs>
       <use xlink:href="#DejaVuSans-8722"/>
       <use x="83.789062" xlink:href="#DejaVuSans-49"/>
       <use x="147.412109" xlink:href="#DejaVuSans-53"/>
       <use x="211.035156" xlink:href="#DejaVuSans-48"/>
      </g>
     </g>
    </g>
    <g id="xtick_2">
     <g id="line2d_2">
      <g>
       <use style="stroke:#000000;stroke-width:0.8;" x="133.703708" xlink:href="#m78c6fd3b79" y="307.584"/>
      </g>
     </g>
     <g id="text_2">
      <!-- −100 -->
      <g transform="translate(119.970114 322.182437)scale(0.1 -0.1)">
       <use xlink:href="#DejaVuSans-8722"/>
       <use x="83.789062" xlink:href="#DejaVuSans-49"/>
       <use x="147.412109" xlink:href="#DejaVuSans-48"/>
       <use x="211.035156" xlink:href="#DejaVuSans-48"/>
      </g>
     </g>
    </g>
    <g id="xtick_3">
     <g id="line2d_3">
      <g>
       <use style="stroke:#000000;stroke-width:0.8;" x="195.45198" xlink:href="#m78c6fd3b79" y="307.584"/>
      </g>
     </g>
     <g id="text_3">
      <!-- −50 -->
      <g transform="translate(184.899637 322.182437)scale(0.1 -0.1)">
       <use xlink:href="#DejaVuSans-8722"/>
       <use x="83.789062" xlink:href="#DejaVuSans-53"/>
       <use x="147.412109" xlink:href="#DejaVuSans-48"/>
      </g>
     </g>
    </g>
    <g id="xtick_4">
     <g id="line2d_4">
      <g>
       <use style="stroke:#000000;stroke-width:0.8;" x="257.200253" xlink:href="#m78c6fd3b79" y="307.584"/>
      </g>
     </g>
     <g id="text_4">
      <!-- 0 -->
      <g transform="translate(254.019003 322.182437)scale(0.1 -0.1)">
       <use xlink:href="#DejaVuSans-48"/>
      </g>
     </g>
    </g>
    <g id="xtick_5">
     <g id="line2d_5">
      <g>
       <use style="stroke:#000000;stroke-width:0.8;" x="318.948526" xlink:href="#m78c6fd3b79" y="307.584"/>
      </g>
     </g>
     <g id="text_5">
      <!-- 50 -->
      <g transform="translate(312.586026 322.182437)scale(0.1 -0.1)">
       <use xlink:href="#DejaVuSans-53"/>
       <use x="63.623047" xlink:href="#DejaVuSans-48"/>
      </g>
     </g>
    </g>
    <g id="xtick_6">
     <g id="line2d_6">
      <g>
       <use style="stroke:#000000;stroke-width:0.8;" x="380.696798" xlink:href="#m78c6fd3b79" y="307.584"/>
      </g>
     </g>
     <g id="text_6">
      <!-- 100 -->
      <g transform="translate(371.153048 322.182437)scale(0.1 -0.1)">
       <use xlink:href="#DejaVuSans-49"/>
       <use x="63.623047" xlink:href="#DejaVuSans-48"/>
       <use x="127.246094" xlink:href="#DejaVuSans-48"/>
      </g>
     </g>
    </g>
   </g>
   <g id="matplotlib.axis_2">
    <g id="ytick_1">
     <g id="line2d_7">
      <defs>
       <path d="M 0 0 
L -3.5 0 
" id="mdaf799affb" style="stroke:#000000;stroke-width:0.8;"/>
      </defs>
      <g>
       <use style="stroke:#000000;stroke-width:0.8;" x="57.6" xlink:href="#mdaf799affb" y="295.440474"/>
      </g>
     </g>
     <g id="text_7">
      <!-- 0 -->
      <g transform="translate(44.2375 299.239693)scale(0.1 -0.1)">
       <use xlink:href="#DejaVuSans-48"/>
      </g>
     </g>
    </g>
    <g id="ytick_2">
     <g id="line2d_8">
      <g>
       <use style="stroke:#000000;stroke-width:0.8;" x="57.6" xlink:href="#mdaf799affb" y="264.566338"/>
      </g>
     </g>
     <g id="text_8">
      <!-- 25 -->
      <g transform="translate(37.875 268.365556)scale(0.1 -0.1)">
       <defs>
        <path d="M 19.1875 8.296875 
L 53.609375 8.296875 
L 53.609375 0 
L 7.328125 0 
L 7.328125 8.296875 
Q 12.9375 14.109375 22.625 23.890625 
Q 32.328125 33.6875 34.8125 36.53125 
Q 39.546875 41.84375 41.421875 45.53125 
Q 43.3125 49.21875 43.3125 52.78125 
Q 43.3125 58.59375 39.234375 62.25 
Q 35.15625 65.921875 28.609375 65.921875 
Q 23.96875 65.921875 18.8125 64.3125 
Q 13.671875 62.703125 7.8125 59.421875 
L 7.8125 69.390625 
Q 13.765625 71.78125 18.9375 73 
Q 24.125 74.21875 28.421875 74.21875 
Q 39.75 74.21875 46.484375 68.546875 
Q 53.21875 62.890625 53.21875 53.421875 
Q 53.21875 48.921875 51.53125 44.890625 
Q 49.859375 40.875 45.40625 35.40625 
Q 44.1875 33.984375 37.640625 27.21875 
Q 31.109375 20.453125 19.1875 8.296875 
z
" id="DejaVuSans-50"/>
       </defs>
       <use xlink:href="#DejaVuSans-50"/>
       <use x="63.623047" xlink:href="#DejaVuSans-53"/>
      </g>
     </g>
    </g>
    <g id="ytick_3">
     <g id="line2d_9">
      <g>
       <use style="stroke:#000000;stroke-width:0.8;" x="57.6" xlink:href="#mdaf799affb" y="233.692201"/>
      </g>
     </g>
     <g id="text_9">
      <!-- 50 -->
      <g transform="translate(37.875 237.49142)scale(0.1 -0.1)">
       <use xlink:href="#DejaVuSans-53"/>
       <use x="63.623047" xlink:href="#DejaVuSans-48"/>
      </g>
     </g>
    </g>
    <g id="ytick_4">
     <g id="line2d_10">
      <g>
       <use style="stroke:#000000;stroke-width:0.8;" x="57.6" xlink:href="#mdaf799affb" y="202.818065"/>
      </g>
     </g>
     <g id="text_10">
      <!-- 75 -->
      <g transform="translate(37.875 206.617284)scale(0.1 -0.1)">
       <defs>
        <path d="M 8.203125 72.90625 
L 55.078125 72.90625 
L 55.078125 68.703125 
L 28.609375 0 
L 18.3125 0 
L 43.21875 64.59375 
L 8.203125 64.59375 
z
" id="DejaVuSans-55"/>
       </defs>
       <use xlink:href="#DejaVuSans-55"/>
       <use x="63.623047" xlink:href="#DejaVuSans-53"/>
      </g>
     </g>
    </g>
    <g id="ytick_5">
     <g id="line2d_11">
      <g>
       <use style="stroke:#000000;stroke-width:0.8;" x="57.6" xlink:href="#mdaf799affb" y="171.943929"/>
      </g>
     </g>
     <g id="text_11">
      <!-- 100 -->
      <g transform="translate(31.5125 175.743147)scale(0.1 -0.1)">
       <use xlink:href="#DejaVuSans-49"/>
       <use x="63.623047" xlink:href="#DejaVuSans-48"/>
       <use x="127.246094" xlink:href="#DejaVuSans-48"/>
      </g>
     </g>
    </g>
    <g id="ytick_6">
     <g id="line2d_12">
      <g>
       <use style="stroke:#000000;stroke-width:0.8;" x="57.6" xlink:href="#mdaf799affb" y="141.069792"/>
      </g>
     </g>
     <g id="text_12">
      <!-- 125 -->
      <g transform="translate(31.5125 144.869011)scale(0.1 -0.1)">
       <use xlink:href="#DejaVuSans-49"/>
       <use x="63.623047" xlink:href="#DejaVuSans-50"/>
       <use x="127.246094" xlink:href="#DejaVuSans-53"/>
      </g>
     </g>
    </g>
    <g id="ytick_7">
     <g id="line2d_13">
      <g>
       <use style="stroke:#000000;stroke-width:0.8;" x="57.6" xlink:href="#mdaf799affb" y="110.195656"/>
      </g>
     </g>
     <g id="text_13">
      <!-- 150 -->
      <g transform="translate(31.5125 113.994875)scale(0.1 -0.1)">
       <use xlink:href="#DejaVuSans-49"/>
       <use x="63.623047" xlink:href="#DejaVuSans-53"/>
       <use x="127.246094" xlink:href="#DejaVuSans-48"/>
      </g>
     </g>
    </g>
    <g id="ytick_8">
     <g id="line2d_14">
      <g>
       <use style="stroke:#000000;stroke-width:0.8;" x="57.6" xlink:href="#mdaf799affb" y="79.32152"/>
      </g>
     </g>
     <g id="text_14">
      <!-- 175 -->
      <g transform="translate(31.5125 83.120738)scale(0.1 -0.1)">
       <use xlink:href="#DejaVuSans-49"/>
       <use x="63.623047" xlink:href="#DejaVuSans-55"/>
       <use x="127.246094" xlink:href="#DejaVuSans-53"/>
      </g>
     </g>
    </g>
    <g id="ytick_9">
     <g id="line2d_15">
      <g>
       <use style="stroke:#000000;stroke-width:0.8;" x="57.6" xlink:href="#mdaf799affb" y="48.447383"/>
      </g>
     </g>
     <g id="text_15">
      <!-- 200 -->
      <g transform="translate(31.5125 52.246602)scale(0.1 -0.1)">
       <use xlink:href="#DejaVuSans-50"/>
       <use x="63.623047" xlink:href="#DejaVuSans-48"/>
       <use x="127.246094" xlink:href="#DejaVuSans-48"/>
      </g>
     </g>
    </g>
   </g>
   <g id="line2d_16">
    <path clip-path="url(#p40cc8ae31e)" d="M 257.200253 295.440474 
L 257.452031 279.193126 
L 257.835819 254.81895 
L 258.023283 240.193035 
L 258.277909 233.701606 
L 258.705301 228.82605 
L 259.613402 222.309132 
L 260.746164 214.181023 
L 261.133378 209.337266 
L 261.168565 206.130047 
L 260.968767 202.944955 
L 260.192952 196.298715 
L 259.375825 191.120196 
L 258.662498 187.698577 
L 257.779126 184.378095 
L 256.695552 181.224366 
L 255.381618 178.303007 
L 253.807168 175.679637 
L 252.912825 174.500202 
L 251.942043 173.419871 
L 250.844045 172.473326 
L 249.583802 171.677822 
L 248.181174 171.015417 
L 246.656019 170.468171 
L 243.317559 169.647398 
L 239.727288 169.071979 
L 232.426777 168.083117 
L 229.034268 167.382629 
L 227.471955 166.918079 
L 226.025412 166.353406 
L 224.714499 165.670668 
L 223.559074 164.851926 
L 222.578995 163.879239 
L 221.735538 162.762184 
L 220.975049 161.529473 
L 220.294991 160.191868 
L 219.166017 157.245016 
L 218.328318 154.007719 
L 217.761594 150.566065 
L 217.445547 147.006143 
L 217.359878 143.414043 
L 217.484287 139.875855 
L 217.798476 136.477666 
L 218.282145 133.305567 
L 218.663215 131.793233 
L 219.22843 130.287053 
L 219.953271 128.78773 
L 221.783743 125.812452 
L 223.958458 122.873001 
L 229.613931 115.717889 
L 231.448643 112.947958 
L 232.176311 111.585532 
L 232.744824 110.239067 
L 233.129662 108.909263 
L 233.306302 107.59682 
L 233.250224 106.302439 
L 232.928523 105.04093 
L 232.344669 103.822982 
L 231.528702 102.643114 
L 230.510664 101.495844 
L 229.320594 100.37569 
L 226.544521 98.194806 
L 221.841184 94.989817 
L 218.696612 92.83343 
L 215.825206 90.610102 
L 214.567041 89.45963 
L 213.467289 88.275979 
L 212.55599 87.053665 
L 211.863184 85.787209 
L 211.418913 84.471128 
L 211.194915 83.108554 
L 211.13361 81.70842 
L 211.221051 80.273945 
L 211.443295 78.808348 
L 212.236406 75.796669 
L 213.401385 72.699137 
L 214.82667 69.541508 
L 220.89968 56.825142 
L 221.470548 55.279059 
L 221.470548 55.279059 
" style="fill:none;stroke:#fea952;stroke-linecap:square;"/>
   </g>
   <g id="line2d_17">
    <path clip-path="url(#p40cc8ae31e)" d="M 252.26062 295.392948 
L 252.513158 279.094259 
L 252.896042 254.78998 
L 253.085675 240.043816 
L 253.348582 233.379156 
L 253.617588 229.919797 
L 254.242851 224.857099 
L 255.988076 212.162971 
L 256.195364 209.202195 
L 256.233117 206.338818 
L 256.05677 203.468898 
L 255.301857 196.99112 
L 254.528359 192.071146 
L 253.869657 188.894785 
L 253.076244 185.889763 
L 252.139869 183.134336 
L 251.064879 180.704673 
L 249.87098 178.664375 
L 248.716622 177.161381 
L 248.20723 176.65058 
L 247.474313 176.14462 
L 246.512834 175.665027 
L 245.339727 175.229433 
L 242.468605 174.513763 
L 239.086898 173.970156 
L 231.535519 172.941913 
L 227.626338 172.117601 
L 225.675638 171.519762 
L 223.743597 170.734679 
L 221.858439 169.701196 
L 220.079312 168.358133 
L 218.636724 166.855938 
L 217.531355 165.355845 
L 216.571623 163.768239 
L 215.741474 162.106998 
L 215.026964 160.382462 
L 213.900618 156.776479 
L 213.122947 153.011287 
L 212.646225 149.147857 
L 212.435502 145.250864 
L 212.463302 141.387974 
L 212.707164 137.627755 
L 213.149288 134.036659 
L 213.492009 132.098577 
L 214.03828 130.057658 
L 214.781026 128.136976 
L 215.673578 126.320656 
L 217.768312 122.935205 
L 220.09009 119.800875 
L 226.399052 111.704798 
L 227.625472 109.664047 
L 228.233942 108.250353 
L 228.474038 107.176299 
L 228.281758 106.632786 
L 227.833794 105.921816 
L 227.124916 105.092918 
L 225.025744 103.229906 
L 222.25222 101.215715 
L 215.755143 96.802057 
L 212.491704 94.255646 
L 210.948129 92.822027 
L 209.506962 91.228612 
L 208.222204 89.424431 
L 207.182805 87.367173 
L 206.544477 85.27245 
L 206.259782 83.324641 
L 206.2029 81.407858 
L 206.337024 79.533331 
L 206.628842 77.702329 
L 207.050218 75.910976 
L 208.191666 72.425338 
L 209.610608 69.040306 
L 211.990681 64.123793 
L 215.039655 57.94814 
L 216.26562 55.114083 
L 216.836488 53.568 
L 216.836488 53.568 
" style="fill:none;stroke:#ffffff;stroke-linecap:square;"/>
   </g>
   <g id="line2d_18">
    <path clip-path="url(#p40cc8ae31e)" d="M 262.139886 295.488 
L 262.390903 279.291993 
L 262.775596 254.84792 
L 262.96089 240.342253 
L 263.304539 232.515962 
L 263.802438 227.867539 
L 265.974907 211.225213 
L 266.1171 207.704149 
L 266.023911 204.124737 
L 265.518357 199.102357 
L 264.829487 193.812039 
L 263.862106 188.335309 
L 262.997355 184.6772 
L 261.902496 181.076611 
L 260.519703 177.586749 
L 259.698358 175.901342 
L 258.776661 174.267094 
L 257.743356 172.694899 
L 256.587158 171.198459 
L 255.167464 169.678362 
L 253.480859 168.296073 
L 251.693292 167.211023 
L 249.849515 166.365806 
L 247.972311 165.70691 
L 244.166513 164.781033 
L 240.367678 164.173803 
L 231.802438 162.951445 
L 229.268271 162.316397 
L 227.570559 161.64014 
L 227.038836 161.345718 
L 226.521265 160.90254 
L 225.378475 159.290707 
L 224.358688 157.137795 
L 223.523436 154.538106 
L 222.901759 151.602824 
L 222.500785 148.443156 
L 222.314866 145.166606 
L 222.330881 141.877685 
L 222.530692 138.680005 
L 223.072282 134.512557 
L 223.288149 133.528807 
L 223.675834 132.43713 
L 224.232965 131.254804 
L 225.799174 128.689698 
L 227.826827 125.945127 
L 233.663774 118.546494 
L 235.805962 115.275189 
L 236.727149 113.507017 
L 237.489979 111.612288 
L 238.025381 109.568174 
L 238.241534 107.383005 
L 238.036894 105.081776 
L 237.383007 102.905561 
L 236.407579 101.013179 
L 235.22361 99.364411 
L 233.896412 97.898769 
L 232.463503 96.564606 
L 229.383649 94.152334 
L 224.602007 90.893466 
L 220.320461 87.89385 
L 218.185953 86.097234 
L 216.889776 84.6829 
L 216.543564 84.207245 
L 216.293348 83.669806 
L 216.130049 82.892468 
L 216.06432 82.008982 
L 216.257747 79.914368 
L 216.895052 77.439609 
L 217.928208 74.676536 
L 219.268465 71.703149 
L 224.820625 60.273115 
L 226.104608 56.990117 
L 226.104608 56.990117 
" style="fill:none;stroke:#ffffff;stroke-linecap:square;"/>
   </g>
   <g id="patch_3">
    <path d="M 57.6 307.584 
L 57.6 41.472 
" style="fill:none;stroke:#000000;stroke-linecap:square;stroke-linejoin:miter;stroke-width:0.8;"/>
   </g>
   <g id="patch_4">
    <path d="M 414.72 307.584 
L 414.72 41.472 
" style="fill:none;stroke:#000000;stroke-linecap:square;stroke-linejoin:miter;stroke-width:0.8;"/>
   </g>
   <g id="patch_5">
    <path d="M 57.6 307.584 
L 414.72 307.584 
" style="fill:none;stroke:#000000;stroke-linecap:square;stroke-linejoin:miter;stroke-width:0.8;"/>
   </g>
   <g id="patch_6">
    <path d="M 57.6 41.472 
L 414.72 41.472 
" style="fill:none;stroke:#000000;stroke-linecap:square;stroke-linejoin:miter;stroke-width:0.8;"/>
   </g>
  </g>
 </g>
 <defs>
  <clipPath id="p40cc8ae31e">
   <rect height="266.112" width="357.12" x="57.6" y="41.472"/>
  </clipPath>
 </defs>
</svg>
