<?xml version="1.0" encoding="utf-8" standalone="no"?>
<!DOCTYPE svg PUBLIC "-//W3C//DTD SVG 1.1//EN"
  "http://www.w3.org/Graphics/SVG/1.1/DTD/svg11.dtd">
<!-- Created with matplotlib (https://matplotlib.org/) -->
<svg height="345.6pt" version="1.1" viewBox="0 0 460.8 345.6" width="460.8pt" xmlns="http://www.w3.org/2000/svg" xmlns:xlink="http://www.w3.org/1999/xlink">
 <metadata>
  <rdf:RDF xmlns:cc="http://creativecommons.org/ns#" xmlns:dc="http://purl.org/dc/elements/1.1/" xmlns:rdf="http://www.w3.org/1999/02/22-rdf-syntax-ns#">
   <cc:Work>
    <dc:type rdf:resource="http://purl.org/dc/dcmitype/StillImage"/>
    <dc:date>2021-06-14T15:47:07.529053</dc:date>
    <dc:format>image/svg+xml</dc:format>
    <dc:creator>
     <cc:Agent>
      <dc:title>Matplotlib v3.3.3, https://matplotlib.org/</dc:title>
     </cc:Agent>
    </dc:creator>
   </cc:Work>
  </rdf:RDF>
 </metadata>
 <defs>
  <style type="text/css">*{stroke-linecap:butt;stroke-linejoin:round;}</style>
 </defs>
 <g id="figure_1">
  <g id="patch_1">
   <path d="M 0 345.6 
L 460.8 345.6 
L 460.8 0 
L 0 0 
z
" style="fill:#ffffff;"/>
  </g>
  <g id="axes_1">
   <g id="patch_2">
    <path d="M 57.6 307.584 
L 414.72 307.584 
L 414.72 41.472 
L 57.6 41.472 
z
" style="fill:#7d9051;"/>
   </g>
   <g id="matplotlib.axis_1">
    <g id="xtick_1">
     <g id="line2d_1">
      <defs>
       <path d="M 0 0 
L 0 3.5 
" id="m44e16b6003" style="stroke:#000000;stroke-width:0.8;"/>
      </defs>
      <g>
       <use style="stroke:#000000;stroke-width:0.8;" x="76.617557" xlink:href="#m44e16b6003" y="307.584"/>
      </g>
     </g>
     <g id="text_1">
      <!-- −140 -->
      <g transform="translate(62.883963 322.182437)scale(0.1 -0.1)">
       <defs>
        <path d="M 10.59375 35.5 
L 73.1875 35.5 
L 73.1875 27.203125 
L 10.59375 27.203125 
z
" id="DejaVuSans-8722"/>
        <path d="M 12.40625 8.296875 
L 28.515625 8.296875 
L 28.515625 63.921875 
L 10.984375 60.40625 
L 10.984375 69.390625 
L 28.421875 72.90625 
L 38.28125 72.90625 
L 38.28125 8.296875 
L 54.390625 8.296875 
L 54.390625 0 
L 12.40625 0 
z
" id="DejaVuSans-49"/>
        <path d="M 37.796875 64.3125 
L 12.890625 25.390625 
L 37.796875 25.390625 
z
M 35.203125 72.90625 
L 47.609375 72.90625 
L 47.609375 25.390625 
L 58.015625 25.390625 
L 58.015625 17.1875 
L 47.609375 17.1875 
L 47.609375 0 
L 37.796875 0 
L 37.796875 17.1875 
L 4.890625 17.1875 
L 4.890625 26.703125 
z
" id="DejaVuSans-52"/>
        <path d="M 31.78125 66.40625 
Q 24.171875 66.40625 20.328125 58.90625 
Q 16.5 51.421875 16.5 36.375 
Q 16.5 21.390625 20.328125 13.890625 
Q 24.171875 6.390625 31.78125 6.390625 
Q 39.453125 6.390625 43.28125 13.890625 
Q 47.125 21.390625 47.125 36.375 
Q 47.125 51.421875 43.28125 58.90625 
Q 39.453125 66.40625 31.78125 66.40625 
z
M 31.78125 74.21875 
Q 44.046875 74.21875 50.515625 64.515625 
Q 56.984375 54.828125 56.984375 36.375 
Q 56.984375 17.96875 50.515625 8.265625 
Q 44.046875 -1.421875 31.78125 -1.421875 
Q 19.53125 -1.421875 13.0625 8.265625 
Q 6.59375 17.96875 6.59375 36.375 
Q 6.59375 54.828125 13.0625 64.515625 
Q 19.53125 74.21875 31.78125 74.21875 
z
" id="DejaVuSans-48"/>
       </defs>
       <use xlink:href="#DejaVuSans-8722"/>
       <use x="83.789062" xlink:href="#DejaVuSans-49"/>
       <use x="147.412109" xlink:href="#DejaVuSans-52"/>
       <use x="211.035156" xlink:href="#DejaVuSans-48"/>
      </g>
     </g>
    </g>
    <g id="xtick_2">
     <g id="line2d_2">
      <g>
       <use style="stroke:#000000;stroke-width:0.8;" x="116.620447" xlink:href="#m44e16b6003" y="307.584"/>
      </g>
     </g>
     <g id="text_2">
      <!-- −120 -->
      <g transform="translate(102.886853 322.182437)scale(0.1 -0.1)">
       <defs>
        <path d="M 19.1875 8.296875 
L 53.609375 8.296875 
L 53.609375 0 
L 7.328125 0 
L 7.328125 8.296875 
Q 12.9375 14.109375 22.625 23.890625 
Q 32.328125 33.6875 34.8125 36.53125 
Q 39.546875 41.84375 41.421875 45.53125 
Q 43.3125 49.21875 43.3125 52.78125 
Q 43.3125 58.59375 39.234375 62.25 
Q 35.15625 65.921875 28.609375 65.921875 
Q 23.96875 65.921875 18.8125 64.3125 
Q 13.671875 62.703125 7.8125 59.421875 
L 7.8125 69.390625 
Q 13.765625 71.78125 18.9375 73 
Q 24.125 74.21875 28.421875 74.21875 
Q 39.75 74.21875 46.484375 68.546875 
Q 53.21875 62.890625 53.21875 53.421875 
Q 53.21875 48.921875 51.53125 44.890625 
Q 49.859375 40.875 45.40625 35.40625 
Q 44.1875 33.984375 37.640625 27.21875 
Q 31.109375 20.453125 19.1875 8.296875 
z
" id="DejaVuSans-50"/>
       </defs>
       <use xlink:href="#DejaVuSans-8722"/>
       <use x="83.789062" xlink:href="#DejaVuSans-49"/>
       <use x="147.412109" xlink:href="#DejaVuSans-50"/>
       <use x="211.035156" xlink:href="#DejaVuSans-48"/>
      </g>
     </g>
    </g>
    <g id="xtick_3">
     <g id="line2d_3">
      <g>
       <use style="stroke:#000000;stroke-width:0.8;" x="156.623337" xlink:href="#m44e16b6003" y="307.584"/>
      </g>
     </g>
     <g id="text_3">
      <!-- −100 -->
      <g transform="translate(142.889743 322.182437)scale(0.1 -0.1)">
       <use xlink:href="#DejaVuSans-8722"/>
       <use x="83.789062" xlink:href="#DejaVuSans-49"/>
       <use x="147.412109" xlink:href="#DejaVuSans-48"/>
       <use x="211.035156" xlink:href="#DejaVuSans-48"/>
      </g>
     </g>
    </g>
    <g id="xtick_4">
     <g id="line2d_4">
      <g>
       <use style="stroke:#000000;stroke-width:0.8;" x="196.626227" xlink:href="#m44e16b6003" y="307.584"/>
      </g>
     </g>
     <g id="text_4">
      <!-- −80 -->
      <g transform="translate(186.073883 322.182437)scale(0.1 -0.1)">
       <defs>
        <path d="M 31.78125 34.625 
Q 24.75 34.625 20.71875 30.859375 
Q 16.703125 27.09375 16.703125 20.515625 
Q 16.703125 13.921875 20.71875 10.15625 
Q 24.75 6.390625 31.78125 6.390625 
Q 38.8125 6.390625 42.859375 10.171875 
Q 46.921875 13.96875 46.921875 20.515625 
Q 46.921875 27.09375 42.890625 30.859375 
Q 38.875 34.625 31.78125 34.625 
z
M 21.921875 38.8125 
Q 15.578125 40.375 12.03125 44.71875 
Q 8.5 49.078125 8.5 55.328125 
Q 8.5 64.0625 14.71875 69.140625 
Q 20.953125 74.21875 31.78125 74.21875 
Q 42.671875 74.21875 48.875 69.140625 
Q 55.078125 64.0625 55.078125 55.328125 
Q 55.078125 49.078125 51.53125 44.71875 
Q 48 40.375 41.703125 38.8125 
Q 48.828125 37.15625 52.796875 32.3125 
Q 56.78125 27.484375 56.78125 20.515625 
Q 56.78125 9.90625 50.3125 4.234375 
Q 43.84375 -1.421875 31.78125 -1.421875 
Q 19.734375 -1.421875 13.25 4.234375 
Q 6.78125 9.90625 6.78125 20.515625 
Q 6.78125 27.484375 10.78125 32.3125 
Q 14.796875 37.15625 21.921875 38.8125 
z
M 18.3125 54.390625 
Q 18.3125 48.734375 21.84375 45.5625 
Q 25.390625 42.390625 31.78125 42.390625 
Q 38.140625 42.390625 41.71875 45.5625 
Q 45.3125 48.734375 45.3125 54.390625 
Q 45.3125 60.0625 41.71875 63.234375 
Q 38.140625 66.40625 31.78125 66.40625 
Q 25.390625 66.40625 21.84375 63.234375 
Q 18.3125 60.0625 18.3125 54.390625 
z
" id="DejaVuSans-56"/>
       </defs>
       <use xlink:href="#DejaVuSans-8722"/>
       <use x="83.789062" xlink:href="#DejaVuSans-56"/>
       <use x="147.412109" xlink:href="#DejaVuSans-48"/>
      </g>
     </g>
    </g>
    <g id="xtick_5">
     <g id="line2d_5">
      <g>
       <use style="stroke:#000000;stroke-width:0.8;" x="236.629117" xlink:href="#m44e16b6003" y="307.584"/>
      </g>
     </g>
     <g id="text_5">
      <!-- −60 -->
      <g transform="translate(226.076773 322.182437)scale(0.1 -0.1)">
       <defs>
        <path d="M 33.015625 40.375 
Q 26.375 40.375 22.484375 35.828125 
Q 18.609375 31.296875 18.609375 23.390625 
Q 18.609375 15.53125 22.484375 10.953125 
Q 26.375 6.390625 33.015625 6.390625 
Q 39.65625 6.390625 43.53125 10.953125 
Q 47.40625 15.53125 47.40625 23.390625 
Q 47.40625 31.296875 43.53125 35.828125 
Q 39.65625 40.375 33.015625 40.375 
z
M 52.59375 71.296875 
L 52.59375 62.3125 
Q 48.875 64.0625 45.09375 64.984375 
Q 41.3125 65.921875 37.59375 65.921875 
Q 27.828125 65.921875 22.671875 59.328125 
Q 17.53125 52.734375 16.796875 39.40625 
Q 19.671875 43.65625 24.015625 45.921875 
Q 28.375 48.1875 33.59375 48.1875 
Q 44.578125 48.1875 50.953125 41.515625 
Q 57.328125 34.859375 57.328125 23.390625 
Q 57.328125 12.15625 50.6875 5.359375 
Q 44.046875 -1.421875 33.015625 -1.421875 
Q 20.359375 -1.421875 13.671875 8.265625 
Q 6.984375 17.96875 6.984375 36.375 
Q 6.984375 53.65625 15.1875 63.9375 
Q 23.390625 74.21875 37.203125 74.21875 
Q 40.921875 74.21875 44.703125 73.484375 
Q 48.484375 72.75 52.59375 71.296875 
z
" id="DejaVuSans-54"/>
       </defs>
       <use xlink:href="#DejaVuSans-8722"/>
       <use x="83.789062" xlink:href="#DejaVuSans-54"/>
       <use x="147.412109" xlink:href="#DejaVuSans-48"/>
      </g>
     </g>
    </g>
    <g id="xtick_6">
     <g id="line2d_6">
      <g>
       <use style="stroke:#000000;stroke-width:0.8;" x="276.632007" xlink:href="#m44e16b6003" y="307.584"/>
      </g>
     </g>
     <g id="text_6">
      <!-- −40 -->
      <g transform="translate(266.079663 322.182437)scale(0.1 -0.1)">
       <use xlink:href="#DejaVuSans-8722"/>
       <use x="83.789062" xlink:href="#DejaVuSans-52"/>
       <use x="147.412109" xlink:href="#DejaVuSans-48"/>
      </g>
     </g>
    </g>
    <g id="xtick_7">
     <g id="line2d_7">
      <g>
       <use style="stroke:#000000;stroke-width:0.8;" x="316.634897" xlink:href="#m44e16b6003" y="307.584"/>
      </g>
     </g>
     <g id="text_7">
      <!-- −20 -->
      <g transform="translate(306.082553 322.182437)scale(0.1 -0.1)">
       <use xlink:href="#DejaVuSans-8722"/>
       <use x="83.789062" xlink:href="#DejaVuSans-50"/>
       <use x="147.412109" xlink:href="#DejaVuSans-48"/>
      </g>
     </g>
    </g>
    <g id="xtick_8">
     <g id="line2d_8">
      <g>
       <use style="stroke:#000000;stroke-width:0.8;" x="356.637787" xlink:href="#m44e16b6003" y="307.584"/>
      </g>
     </g>
     <g id="text_8">
      <!-- 0 -->
      <g transform="translate(353.456537 322.182437)scale(0.1 -0.1)">
       <use xlink:href="#DejaVuSans-48"/>
      </g>
     </g>
    </g>
    <g id="xtick_9">
     <g id="line2d_9">
      <g>
       <use style="stroke:#000000;stroke-width:0.8;" x="396.640677" xlink:href="#m44e16b6003" y="307.584"/>
      </g>
     </g>
     <g id="text_9">
      <!-- 20 -->
      <g transform="translate(390.278177 322.182437)scale(0.1 -0.1)">
       <use xlink:href="#DejaVuSans-50"/>
       <use x="63.623047" xlink:href="#DejaVuSans-48"/>
      </g>
     </g>
    </g>
   </g>
   <g id="matplotlib.axis_2">
    <g id="ytick_1">
     <g id="line2d_10">
      <defs>
       <path d="M 0 0 
L -3.5 0 
" id="me57963ffb5" style="stroke:#000000;stroke-width:0.8;"/>
      </defs>
      <g>
       <use style="stroke:#000000;stroke-width:0.8;" x="57.6" xlink:href="#me57963ffb5" y="295.411027"/>
      </g>
     </g>
     <g id="text_10">
      <!-- 0 -->
      <g transform="translate(44.2375 299.210246)scale(0.1 -0.1)">
       <use xlink:href="#DejaVuSans-48"/>
      </g>
     </g>
    </g>
    <g id="ytick_2">
     <g id="line2d_11">
      <g>
       <use style="stroke:#000000;stroke-width:0.8;" x="57.6" xlink:href="#me57963ffb5" y="255.408137"/>
      </g>
     </g>
     <g id="text_11">
      <!-- 20 -->
      <g transform="translate(37.875 259.207356)scale(0.1 -0.1)">
       <use xlink:href="#DejaVuSans-50"/>
       <use x="63.623047" xlink:href="#DejaVuSans-48"/>
      </g>
     </g>
    </g>
    <g id="ytick_3">
     <g id="line2d_12">
      <g>
       <use style="stroke:#000000;stroke-width:0.8;" x="57.6" xlink:href="#me57963ffb5" y="215.405247"/>
      </g>
     </g>
     <g id="text_12">
      <!-- 40 -->
      <g transform="translate(37.875 219.204466)scale(0.1 -0.1)">
       <use xlink:href="#DejaVuSans-52"/>
       <use x="63.623047" xlink:href="#DejaVuSans-48"/>
      </g>
     </g>
    </g>
    <g id="ytick_4">
     <g id="line2d_13">
      <g>
       <use style="stroke:#000000;stroke-width:0.8;" x="57.6" xlink:href="#me57963ffb5" y="175.402357"/>
      </g>
     </g>
     <g id="text_13">
      <!-- 60 -->
      <g transform="translate(37.875 179.201576)scale(0.1 -0.1)">
       <use xlink:href="#DejaVuSans-54"/>
       <use x="63.623047" xlink:href="#DejaVuSans-48"/>
      </g>
     </g>
    </g>
    <g id="ytick_5">
     <g id="line2d_14">
      <g>
       <use style="stroke:#000000;stroke-width:0.8;" x="57.6" xlink:href="#me57963ffb5" y="135.399467"/>
      </g>
     </g>
     <g id="text_14">
      <!-- 80 -->
      <g transform="translate(37.875 139.198686)scale(0.1 -0.1)">
       <use xlink:href="#DejaVuSans-56"/>
       <use x="63.623047" xlink:href="#DejaVuSans-48"/>
      </g>
     </g>
    </g>
    <g id="ytick_6">
     <g id="line2d_15">
      <g>
       <use style="stroke:#000000;stroke-width:0.8;" x="57.6" xlink:href="#me57963ffb5" y="95.396577"/>
      </g>
     </g>
     <g id="text_15">
      <!-- 100 -->
      <g transform="translate(31.5125 99.195796)scale(0.1 -0.1)">
       <use xlink:href="#DejaVuSans-49"/>
       <use x="63.623047" xlink:href="#DejaVuSans-48"/>
       <use x="127.246094" xlink:href="#DejaVuSans-48"/>
      </g>
     </g>
    </g>
    <g id="ytick_7">
     <g id="line2d_16">
      <g>
       <use style="stroke:#000000;stroke-width:0.8;" x="57.6" xlink:href="#me57963ffb5" y="55.393687"/>
      </g>
     </g>
     <g id="text_16">
      <!-- 120 -->
      <g transform="translate(31.5125 59.192906)scale(0.1 -0.1)">
       <use xlink:href="#DejaVuSans-49"/>
       <use x="63.623047" xlink:href="#DejaVuSans-50"/>
       <use x="127.246094" xlink:href="#DejaVuSans-48"/>
      </g>
     </g>
    </g>
   </g>
   <g id="line2d_17">
    <path clip-path="url(#pde68576fca)" d="M 356.637787 295.411027 
L 356.943652 274.359544 
L 357.613188 242.752829 
L 358.10256 237.274262 
L 359.262521 228.825165 
L 360.47927 220.345234 
L 361.069597 214.811853 
L 361.306581 209.470321 
L 361.245247 206.897193 
L 361.03879 204.40286 
L 360.668281 201.9976 
L 360.114792 199.691691 
L 359.359392 197.495409 
L 358.383153 195.419034 
L 357.166573 193.47855 
L 355.716918 191.67421 
L 354.05541 189.992691 
L 352.203274 188.420672 
L 350.181732 186.94483 
L 348.012009 185.551843 
L 343.31291 182.961144 
L 338.275764 180.541997 
L 325.318169 174.545248 
L 320.43493 171.887227 
L 318.142447 170.449359 
L 313.891422 167.330928 
L 307.722602 162.418647 
L 301.686645 157.313393 
L 295.780867 152.040146 
L 290.002583 146.623882 
L 282.491888 139.222894 
L 277.011787 133.556746 
L 273.49557 129.654421 
L 268.406536 123.623561 
L 260.178821 113.326373 
L 253.565941 105.11286 
L 248.437103 99.110024 
L 244.903654 95.151514 
L 241.373905 90.808145 
L 228.885393 74.615933 
L 225.186923 70.4908 
L 223.30204 68.630586 
L 221.389676 66.936958 
L 219.447047 65.433679 
L 217.471367 64.144514 
L 215.45985 63.093224 
L 213.409711 62.303573 
L 211.318163 61.799326 
L 209.145796 61.568557 
L 206.865255 61.573827 
L 204.491846 61.800629 
L 202.040872 62.234456 
L 199.527637 62.860799 
L 196.967446 63.66515 
L 194.375602 64.633003 
L 191.767409 65.749848 
L 189.158171 67.001179 
L 183.997778 69.849265 
L 179.016854 73.061199 
L 174.33783 76.520919 
L 170.08314 80.112362 
L 166.375214 83.719467 
L 164.772223 85.591721 
L 163.343941 87.62096 
L 162.070806 89.790271 
L 160.933253 92.08274 
L 159.911721 94.481456 
L 158.138467 99.529973 
L 156.594542 104.800519 
L 153.568664 115.466479 
L 151.773708 120.591286 
L 150.737255 123.042451 
L 149.582069 125.396906 
L 148.288587 127.637738 
L 146.837246 129.748035 
L 145.248339 131.748154 
L 143.560836 133.673975 
L 139.923843 137.328198 
L 135.993878 140.761649 
L 131.838548 144.025277 
L 125.330892 148.713745 
L 112.163458 157.976051 
L 107.977141 161.216328 
L 107.977141 161.216328 
" style="fill:none;stroke:#fea952;stroke-linecap:square;"/>
   </g>
   <g id="line2d_18">
    <path clip-path="url(#pde68576fca)" d="M 348.637579 295.334054 
L 348.944533 274.206766 
L 349.634994 242.154768 
L 350.163525 236.283815 
L 351.350039 227.641154 
L 352.534207 219.404369 
L 353.085228 214.30283 
L 353.308275 209.660972 
L 353.131477 205.620911 
L 352.888676 203.864946 
L 352.549206 202.293835 
L 352.119139 200.899522 
L 351.604614 199.668817 
L 350.929611 198.489493 
L 350.025893 197.297508 
L 348.878241 196.092377 
L 347.485798 194.882458 
L 345.859389 193.677333 
L 344.017461 192.483858 
L 339.779131 190.139003 
L 334.964549 187.825204 
L 321.615061 181.637231 
L 318.886382 180.20698 
L 316.183867 178.664964 
L 313.528374 176.985381 
L 308.972883 173.641017 
L 302.613863 168.575759 
L 296.409204 163.326534 
L 290.354436 157.919185 
L 284.445244 152.379334 
L 276.785645 144.83075 
L 271.10991 138.958329 
L 267.438701 134.881618 
L 262.198111 128.669817 
L 253.912754 118.300874 
L 247.423951 110.239769 
L 242.495651 104.468046 
L 238.752063 100.266901 
L 235.034158 95.688397 
L 222.838218 79.854341 
L 219.567047 76.185205 
L 216.493347 73.264296 
L 215.074974 72.133995 
L 213.765578 71.235097 
L 211.53459 70.081309 
L 210.473022 69.75514 
L 209.164285 69.569113 
L 207.626321 69.538124 
L 205.886287 69.67875 
L 203.975582 69.997583 
L 201.925664 70.493539 
L 199.766267 71.160205 
L 197.524917 71.987665 
L 195.227028 72.963743 
L 190.55463 75.306294 
L 185.92253 78.068964 
L 181.490594 81.123663 
L 177.412613 84.333369 
L 173.842449 87.546285 
L 171.314694 90.196645 
L 170.243982 91.670489 
L 169.237564 93.346507 
L 168.294135 95.217491 
L 167.410738 97.269644 
L 165.796735 101.845179 
L 164.30955 106.918983 
L 161.164755 117.978183 
L 160.213629 120.83875 
L 159.142602 123.707156 
L 157.919884 126.566524 
L 156.511125 129.396585 
L 154.880652 132.171382 
L 153.101706 134.724559 
L 151.265655 137.020835 
L 149.341557 139.205026 
L 147.34211 141.28579 
L 143.163127 145.173515 
L 138.812783 148.757117 
L 134.366036 152.106559 
L 127.667972 156.83058 
L 119.041551 162.856208 
L 115.009791 165.855155 
L 112.939169 167.492276 
L 112.939169 167.492276 
" style="fill:none;stroke:#ffffff;stroke-linecap:square;"/>
   </g>
   <g id="line2d_19">
    <path clip-path="url(#pde68576fca)" d="M 364.637994 295.488 
L 364.942771 274.512321 
L 365.591381 243.350891 
L 366.041594 238.264709 
L 367.175003 230.009175 
L 368.424333 221.2861 
L 369.053965 215.320877 
L 369.239889 212.308345 
L 369.304887 209.279671 
L 369.218559 206.237239 
L 368.946103 203.18481 
L 368.447887 200.130254 
L 367.680378 197.089546 
L 366.599645 194.091297 
L 365.161692 191.169251 
L 363.403535 188.467606 
L 361.407942 186.050911 
L 359.232579 183.893005 
L 356.92075 181.958887 
L 354.504076 180.212328 
L 352.006558 178.619828 
L 346.846689 175.783286 
L 341.586979 173.25879 
L 329.021277 167.453264 
L 324.685993 165.10949 
L 322.756519 163.913337 
L 318.809962 161.02084 
L 312.831341 156.261534 
L 306.964086 151.300253 
L 301.207298 146.161108 
L 295.559921 140.868429 
L 288.198131 133.615039 
L 282.913665 128.155164 
L 279.552439 124.427224 
L 274.614962 118.577305 
L 266.444887 108.351871 
L 259.707932 99.98595 
L 254.378554 93.752002 
L 251.055245 90.036128 
L 247.713652 85.927893 
L 234.932568 69.377525 
L 230.806799 64.796395 
L 228.60639 62.641169 
L 226.286006 60.60962 
L 223.81912 58.733364 
L 221.177156 57.05393 
L 218.335491 55.627305 
L 215.284832 54.525838 
L 212.163305 53.843511 
L 209.127306 53.568 
L 206.104189 53.60953 
L 203.097405 53.922509 
L 200.106162 54.471329 
L 197.129611 55.228059 
L 194.168625 56.170095 
L 191.226287 57.27834 
L 188.30779 58.535953 
L 185.420131 59.927544 
L 182.571756 61.43868 
L 177.03193 64.765046 
L 171.773311 68.411016 
L 166.88697 72.281489 
L 162.46391 76.296137 
L 160.297839 78.516126 
L 158.229753 80.986796 
L 156.443901 83.57143 
L 154.904047 86.234034 
L 153.572371 88.947989 
L 152.412704 91.693268 
L 150.480199 97.214768 
L 148.879533 102.682054 
L 145.972574 112.954775 
L 144.404813 117.475416 
L 142.653013 121.397227 
L 141.696522 123.104094 
L 140.572787 124.77151 
L 137.780115 128.142925 
L 134.568664 131.384184 
L 130.983223 134.524455 
L 127.080091 137.59361 
L 120.768773 142.141354 
L 107.331564 151.599371 
L 103.015113 154.940379 
L 103.015113 154.940379 
" style="fill:none;stroke:#ffffff;stroke-linecap:square;"/>
   </g>
   <g id="patch_3">
    <path d="M 57.6 307.584 
L 57.6 41.472 
" style="fill:none;stroke:#000000;stroke-linecap:square;stroke-linejoin:miter;stroke-width:0.8;"/>
   </g>
   <g id="patch_4">
    <path d="M 414.72 307.584 
L 414.72 41.472 
" style="fill:none;stroke:#000000;stroke-linecap:square;stroke-linejoin:miter;stroke-width:0.8;"/>
   </g>
   <g id="patch_5">
    <path d="M 57.6 307.584 
L 414.72 307.584 
" style="fill:none;stroke:#000000;stroke-linecap:square;stroke-linejoin:miter;stroke-width:0.8;"/>
   </g>
   <g id="patch_6">
    <path d="M 57.6 41.472 
L 414.72 41.472 
" style="fill:none;stroke:#000000;stroke-linecap:square;stroke-linejoin:miter;stroke-width:0.8;"/>
   </g>
  </g>
 </g>
 <defs>
  <clipPath id="pde68576fca">
   <rect height="266.112" width="357.12" x="57.6" y="41.472"/>
  </clipPath>
 </defs>
</svg>
