<?xml version="1.0" encoding="utf-8" standalone="no"?>
<!DOCTYPE svg PUBLIC "-//W3C//DTD SVG 1.1//EN"
  "http://www.w3.org/Graphics/SVG/1.1/DTD/svg11.dtd">
<!-- Created with matplotlib (https://matplotlib.org/) -->
<svg height="345.6pt" version="1.1" viewBox="0 0 460.8 345.6" width="460.8pt" xmlns="http://www.w3.org/2000/svg" xmlns:xlink="http://www.w3.org/1999/xlink">
 <metadata>
  <rdf:RDF xmlns:cc="http://creativecommons.org/ns#" xmlns:dc="http://purl.org/dc/elements/1.1/" xmlns:rdf="http://www.w3.org/1999/02/22-rdf-syntax-ns#">
   <cc:Work>
    <dc:type rdf:resource="http://purl.org/dc/dcmitype/StillImage"/>
    <dc:date>2021-07-08T09:11:58.410020</dc:date>
    <dc:format>image/svg+xml</dc:format>
    <dc:creator>
     <cc:Agent>
      <dc:title>Matplotlib v3.3.3, https://matplotlib.org/</dc:title>
     </cc:Agent>
    </dc:creator>
   </cc:Work>
  </rdf:RDF>
 </metadata>
 <defs>
  <style type="text/css">*{stroke-linecap:butt;stroke-linejoin:round;}</style>
 </defs>
 <g id="figure_1">
  <g id="patch_1">
   <path d="M 0 345.6 
L 460.8 345.6 
L 460.8 0 
L 0 0 
z
" style="fill:#ffffff;"/>
  </g>
  <g id="axes_1">
   <g id="patch_2">
    <path d="M 57.6 307.584 
L 414.72 307.584 
L 414.72 41.472 
L 57.6 41.472 
z
" style="fill:#7d9051;"/>
   </g>
   <g id="matplotlib.axis_1">
    <g id="xtick_1">
     <g id="line2d_1">
      <defs>
       <path d="M 0 0 
L 0 3.5 
" id="m8575ec7bb6" style="stroke:#000000;stroke-width:0.8;"/>
      </defs>
      <g>
       <use style="stroke:#000000;stroke-width:0.8;" x="83.38594" xlink:href="#m8575ec7bb6" y="307.584"/>
      </g>
     </g>
     <g id="text_1">
      <!-- −140 -->
      <g transform="translate(69.652346 322.182437)scale(0.1 -0.1)">
       <defs>
        <path d="M 10.59375 35.5 
L 73.1875 35.5 
L 73.1875 27.203125 
L 10.59375 27.203125 
z
" id="DejaVuSans-8722"/>
        <path d="M 12.40625 8.296875 
L 28.515625 8.296875 
L 28.515625 63.921875 
L 10.984375 60.40625 
L 10.984375 69.390625 
L 28.421875 72.90625 
L 38.28125 72.90625 
L 38.28125 8.296875 
L 54.390625 8.296875 
L 54.390625 0 
L 12.40625 0 
z
" id="DejaVuSans-49"/>
        <path d="M 37.796875 64.3125 
L 12.890625 25.390625 
L 37.796875 25.390625 
z
M 35.203125 72.90625 
L 47.609375 72.90625 
L 47.609375 25.390625 
L 58.015625 25.390625 
L 58.015625 17.1875 
L 47.609375 17.1875 
L 47.609375 0 
L 37.796875 0 
L 37.796875 17.1875 
L 4.890625 17.1875 
L 4.890625 26.703125 
z
" id="DejaVuSans-52"/>
        <path d="M 31.78125 66.40625 
Q 24.171875 66.40625 20.328125 58.90625 
Q 16.5 51.421875 16.5 36.375 
Q 16.5 21.390625 20.328125 13.890625 
Q 24.171875 6.390625 31.78125 6.390625 
Q 39.453125 6.390625 43.28125 13.890625 
Q 47.125 21.390625 47.125 36.375 
Q 47.125 51.421875 43.28125 58.90625 
Q 39.453125 66.40625 31.78125 66.40625 
z
M 31.78125 74.21875 
Q 44.046875 74.21875 50.515625 64.515625 
Q 56.984375 54.828125 56.984375 36.375 
Q 56.984375 17.96875 50.515625 8.265625 
Q 44.046875 -1.421875 31.78125 -1.421875 
Q 19.53125 -1.421875 13.0625 8.265625 
Q 6.59375 17.96875 6.59375 36.375 
Q 6.59375 54.828125 13.0625 64.515625 
Q 19.53125 74.21875 31.78125 74.21875 
z
" id="DejaVuSans-48"/>
       </defs>
       <use xlink:href="#DejaVuSans-8722"/>
       <use x="83.789062" xlink:href="#DejaVuSans-49"/>
       <use x="147.412109" xlink:href="#DejaVuSans-52"/>
       <use x="211.035156" xlink:href="#DejaVuSans-48"/>
      </g>
     </g>
    </g>
    <g id="xtick_2">
     <g id="line2d_2">
      <g>
       <use style="stroke:#000000;stroke-width:0.8;" x="126.405918" xlink:href="#m8575ec7bb6" y="307.584"/>
      </g>
     </g>
     <g id="text_2">
      <!-- −120 -->
      <g transform="translate(112.672324 322.182437)scale(0.1 -0.1)">
       <defs>
        <path d="M 19.1875 8.296875 
L 53.609375 8.296875 
L 53.609375 0 
L 7.328125 0 
L 7.328125 8.296875 
Q 12.9375 14.109375 22.625 23.890625 
Q 32.328125 33.6875 34.8125 36.53125 
Q 39.546875 41.84375 41.421875 45.53125 
Q 43.3125 49.21875 43.3125 52.78125 
Q 43.3125 58.59375 39.234375 62.25 
Q 35.15625 65.921875 28.609375 65.921875 
Q 23.96875 65.921875 18.8125 64.3125 
Q 13.671875 62.703125 7.8125 59.421875 
L 7.8125 69.390625 
Q 13.765625 71.78125 18.9375 73 
Q 24.125 74.21875 28.421875 74.21875 
Q 39.75 74.21875 46.484375 68.546875 
Q 53.21875 62.890625 53.21875 53.421875 
Q 53.21875 48.921875 51.53125 44.890625 
Q 49.859375 40.875 45.40625 35.40625 
Q 44.1875 33.984375 37.640625 27.21875 
Q 31.109375 20.453125 19.1875 8.296875 
z
" id="DejaVuSans-50"/>
       </defs>
       <use xlink:href="#DejaVuSans-8722"/>
       <use x="83.789062" xlink:href="#DejaVuSans-49"/>
       <use x="147.412109" xlink:href="#DejaVuSans-50"/>
       <use x="211.035156" xlink:href="#DejaVuSans-48"/>
      </g>
     </g>
    </g>
    <g id="xtick_3">
     <g id="line2d_3">
      <g>
       <use style="stroke:#000000;stroke-width:0.8;" x="169.425896" xlink:href="#m8575ec7bb6" y="307.584"/>
      </g>
     </g>
     <g id="text_3">
      <!-- −100 -->
      <g transform="translate(155.692302 322.182437)scale(0.1 -0.1)">
       <use xlink:href="#DejaVuSans-8722"/>
       <use x="83.789062" xlink:href="#DejaVuSans-49"/>
       <use x="147.412109" xlink:href="#DejaVuSans-48"/>
       <use x="211.035156" xlink:href="#DejaVuSans-48"/>
      </g>
     </g>
    </g>
    <g id="xtick_4">
     <g id="line2d_4">
      <g>
       <use style="stroke:#000000;stroke-width:0.8;" x="212.445874" xlink:href="#m8575ec7bb6" y="307.584"/>
      </g>
     </g>
     <g id="text_4">
      <!-- −80 -->
      <g transform="translate(201.893531 322.182437)scale(0.1 -0.1)">
       <defs>
        <path d="M 31.78125 34.625 
Q 24.75 34.625 20.71875 30.859375 
Q 16.703125 27.09375 16.703125 20.515625 
Q 16.703125 13.921875 20.71875 10.15625 
Q 24.75 6.390625 31.78125 6.390625 
Q 38.8125 6.390625 42.859375 10.171875 
Q 46.921875 13.96875 46.921875 20.515625 
Q 46.921875 27.09375 42.890625 30.859375 
Q 38.875 34.625 31.78125 34.625 
z
M 21.921875 38.8125 
Q 15.578125 40.375 12.03125 44.71875 
Q 8.5 49.078125 8.5 55.328125 
Q 8.5 64.0625 14.71875 69.140625 
Q 20.953125 74.21875 31.78125 74.21875 
Q 42.671875 74.21875 48.875 69.140625 
Q 55.078125 64.0625 55.078125 55.328125 
Q 55.078125 49.078125 51.53125 44.71875 
Q 48 40.375 41.703125 38.8125 
Q 48.828125 37.15625 52.796875 32.3125 
Q 56.78125 27.484375 56.78125 20.515625 
Q 56.78125 9.90625 50.3125 4.234375 
Q 43.84375 -1.421875 31.78125 -1.421875 
Q 19.734375 -1.421875 13.25 4.234375 
Q 6.78125 9.90625 6.78125 20.515625 
Q 6.78125 27.484375 10.78125 32.3125 
Q 14.796875 37.15625 21.921875 38.8125 
z
M 18.3125 54.390625 
Q 18.3125 48.734375 21.84375 45.5625 
Q 25.390625 42.390625 31.78125 42.390625 
Q 38.140625 42.390625 41.71875 45.5625 
Q 45.3125 48.734375 45.3125 54.390625 
Q 45.3125 60.0625 41.71875 63.234375 
Q 38.140625 66.40625 31.78125 66.40625 
Q 25.390625 66.40625 21.84375 63.234375 
Q 18.3125 60.0625 18.3125 54.390625 
z
" id="DejaVuSans-56"/>
       </defs>
       <use xlink:href="#DejaVuSans-8722"/>
       <use x="83.789062" xlink:href="#DejaVuSans-56"/>
       <use x="147.412109" xlink:href="#DejaVuSans-48"/>
      </g>
     </g>
    </g>
    <g id="xtick_5">
     <g id="line2d_5">
      <g>
       <use style="stroke:#000000;stroke-width:0.8;" x="255.465852" xlink:href="#m8575ec7bb6" y="307.584"/>
      </g>
     </g>
     <g id="text_5">
      <!-- −60 -->
      <g transform="translate(244.913509 322.182437)scale(0.1 -0.1)">
       <defs>
        <path d="M 33.015625 40.375 
Q 26.375 40.375 22.484375 35.828125 
Q 18.609375 31.296875 18.609375 23.390625 
Q 18.609375 15.53125 22.484375 10.953125 
Q 26.375 6.390625 33.015625 6.390625 
Q 39.65625 6.390625 43.53125 10.953125 
Q 47.40625 15.53125 47.40625 23.390625 
Q 47.40625 31.296875 43.53125 35.828125 
Q 39.65625 40.375 33.015625 40.375 
z
M 52.59375 71.296875 
L 52.59375 62.3125 
Q 48.875 64.0625 45.09375 64.984375 
Q 41.3125 65.921875 37.59375 65.921875 
Q 27.828125 65.921875 22.671875 59.328125 
Q 17.53125 52.734375 16.796875 39.40625 
Q 19.671875 43.65625 24.015625 45.921875 
Q 28.375 48.1875 33.59375 48.1875 
Q 44.578125 48.1875 50.953125 41.515625 
Q 57.328125 34.859375 57.328125 23.390625 
Q 57.328125 12.15625 50.6875 5.359375 
Q 44.046875 -1.421875 33.015625 -1.421875 
Q 20.359375 -1.421875 13.671875 8.265625 
Q 6.984375 17.96875 6.984375 36.375 
Q 6.984375 53.65625 15.1875 63.9375 
Q 23.390625 74.21875 37.203125 74.21875 
Q 40.921875 74.21875 44.703125 73.484375 
Q 48.484375 72.75 52.59375 71.296875 
z
" id="DejaVuSans-54"/>
       </defs>
       <use xlink:href="#DejaVuSans-8722"/>
       <use x="83.789062" xlink:href="#DejaVuSans-54"/>
       <use x="147.412109" xlink:href="#DejaVuSans-48"/>
      </g>
     </g>
    </g>
    <g id="xtick_6">
     <g id="line2d_6">
      <g>
       <use style="stroke:#000000;stroke-width:0.8;" x="298.485831" xlink:href="#m8575ec7bb6" y="307.584"/>
      </g>
     </g>
     <g id="text_6">
      <!-- −40 -->
      <g transform="translate(287.933487 322.182437)scale(0.1 -0.1)">
       <use xlink:href="#DejaVuSans-8722"/>
       <use x="83.789062" xlink:href="#DejaVuSans-52"/>
       <use x="147.412109" xlink:href="#DejaVuSans-48"/>
      </g>
     </g>
    </g>
    <g id="xtick_7">
     <g id="line2d_7">
      <g>
       <use style="stroke:#000000;stroke-width:0.8;" x="341.505809" xlink:href="#m8575ec7bb6" y="307.584"/>
      </g>
     </g>
     <g id="text_7">
      <!-- −20 -->
      <g transform="translate(330.953465 322.182437)scale(0.1 -0.1)">
       <use xlink:href="#DejaVuSans-8722"/>
       <use x="83.789062" xlink:href="#DejaVuSans-50"/>
       <use x="147.412109" xlink:href="#DejaVuSans-48"/>
      </g>
     </g>
    </g>
    <g id="xtick_8">
     <g id="line2d_8">
      <g>
       <use style="stroke:#000000;stroke-width:0.8;" x="384.525787" xlink:href="#m8575ec7bb6" y="307.584"/>
      </g>
     </g>
     <g id="text_8">
      <!-- 0 -->
      <g transform="translate(381.344537 322.182437)scale(0.1 -0.1)">
       <use xlink:href="#DejaVuSans-48"/>
      </g>
     </g>
    </g>
   </g>
   <g id="matplotlib.axis_2">
    <g id="ytick_1">
     <g id="line2d_9">
      <defs>
       <path d="M 0 0 
L -3.5 0 
" id="mfaf707d86e" style="stroke:#000000;stroke-width:0.8;"/>
      </defs>
      <g>
       <use style="stroke:#000000;stroke-width:0.8;" x="57.6" xlink:href="#mfaf707d86e" y="287.066909"/>
      </g>
     </g>
     <g id="text_9">
      <!-- 0 -->
      <g transform="translate(44.2375 290.866128)scale(0.1 -0.1)">
       <use xlink:href="#DejaVuSans-48"/>
      </g>
     </g>
    </g>
    <g id="ytick_2">
     <g id="line2d_10">
      <g>
       <use style="stroke:#000000;stroke-width:0.8;" x="57.6" xlink:href="#mfaf707d86e" y="244.046931"/>
      </g>
     </g>
     <g id="text_10">
      <!-- 20 -->
      <g transform="translate(37.875 247.84615)scale(0.1 -0.1)">
       <use xlink:href="#DejaVuSans-50"/>
       <use x="63.623047" xlink:href="#DejaVuSans-48"/>
      </g>
     </g>
    </g>
    <g id="ytick_3">
     <g id="line2d_11">
      <g>
       <use style="stroke:#000000;stroke-width:0.8;" x="57.6" xlink:href="#mfaf707d86e" y="201.026953"/>
      </g>
     </g>
     <g id="text_11">
      <!-- 40 -->
      <g transform="translate(37.875 204.826171)scale(0.1 -0.1)">
       <use xlink:href="#DejaVuSans-52"/>
       <use x="63.623047" xlink:href="#DejaVuSans-48"/>
      </g>
     </g>
    </g>
    <g id="ytick_4">
     <g id="line2d_12">
      <g>
       <use style="stroke:#000000;stroke-width:0.8;" x="57.6" xlink:href="#mfaf707d86e" y="158.006974"/>
      </g>
     </g>
     <g id="text_12">
      <!-- 60 -->
      <g transform="translate(37.875 161.806193)scale(0.1 -0.1)">
       <use xlink:href="#DejaVuSans-54"/>
       <use x="63.623047" xlink:href="#DejaVuSans-48"/>
      </g>
     </g>
    </g>
    <g id="ytick_5">
     <g id="line2d_13">
      <g>
       <use style="stroke:#000000;stroke-width:0.8;" x="57.6" xlink:href="#mfaf707d86e" y="114.986996"/>
      </g>
     </g>
     <g id="text_13">
      <!-- 80 -->
      <g transform="translate(37.875 118.786215)scale(0.1 -0.1)">
       <use xlink:href="#DejaVuSans-56"/>
       <use x="63.623047" xlink:href="#DejaVuSans-48"/>
      </g>
     </g>
    </g>
    <g id="ytick_6">
     <g id="line2d_14">
      <g>
       <use style="stroke:#000000;stroke-width:0.8;" x="57.6" xlink:href="#mfaf707d86e" y="71.967018"/>
      </g>
     </g>
     <g id="text_14">
      <!-- 100 -->
      <g transform="translate(31.5125 75.766237)scale(0.1 -0.1)">
       <use xlink:href="#DejaVuSans-49"/>
       <use x="63.623047" xlink:href="#DejaVuSans-48"/>
       <use x="127.246094" xlink:href="#DejaVuSans-48"/>
      </g>
     </g>
    </g>
   </g>
   <g id="line2d_15">
    <path clip-path="url(#pad1c790b4c)" d="M 384.525787 287.066909 
L 384.854721 264.427686 
L 385.58079 230.425033 
L 386.149317 224.448529 
L 387.016091 218.270856 
L 388.928586 205.794808 
L 389.616412 199.737837 
L 389.81493 196.807422 
L 389.886693 193.962503 
L 389.809334 191.21817 
L 389.560482 188.589509 
L 389.117771 186.091608 
L 388.458831 183.739555 
L 387.561295 181.548438 
L 386.402792 179.533344 
L 384.917209 177.748064 
L 383.079631 176.216553 
L 380.929496 174.909146 
L 378.50624 173.796179 
L 375.849298 172.847985 
L 372.998108 172.0349 
L 366.870727 170.695398 
L 354.020178 168.332438 
L 350.913464 167.634494 
L 347.927992 166.834339 
L 345.103198 165.902308 
L 342.478518 164.808735 
L 340.09339 163.523956 
L 337.987248 162.018305 
L 336.19953 160.262117 
L 334.742228 158.232491 
L 333.577931 155.946771 
L 332.671967 153.435664 
L 331.989667 150.729879 
L 331.496361 147.860121 
L 331.157378 144.857097 
L 330.803701 138.57408 
L 330.422739 125.759963 
L 330.193254 122.683873 
L 329.840731 119.720172 
L 329.330499 116.899569 
L 328.627889 114.252768 
L 327.69823 111.810478 
L 326.506852 109.603405 
L 325.019085 107.662257 
L 323.263368 105.923692 
L 321.302913 104.302055 
L 319.155204 102.794574 
L 316.837728 101.39848 
L 314.367971 100.111003 
L 311.763418 98.929373 
L 309.041554 97.850821 
L 306.219867 96.872576 
L 300.346962 95.205928 
L 294.284588 93.907272 
L 288.172632 92.954446 
L 282.15098 92.325293 
L 276.359518 91.997653 
L 273.593823 91.939976 
L 270.864922 92.064421 
L 268.108751 92.461601 
L 265.330284 93.096243 
L 262.534496 93.933075 
L 259.726363 94.936822 
L 254.092956 97.303971 
L 240.141614 103.673734 
L 237.413802 104.742967 
L 234.718416 105.661656 
L 232.060432 106.394527 
L 229.444824 106.906307 
L 226.876566 107.161723 
L 224.360633 107.125501 
L 221.902001 106.762367 
L 219.520075 106.031557 
L 217.224052 104.943167 
L 215.003595 103.538221 
L 212.848365 101.857743 
L 210.748026 99.942756 
L 208.692238 97.834285 
L 204.672967 93.200983 
L 196.714186 83.417603 
L 194.680803 81.103401 
L 192.609269 78.923903 
L 190.489246 76.920134 
L 188.310398 75.133116 
L 186.062384 73.603874 
L 183.734869 72.373431 
L 181.317514 71.482811 
L 178.818602 70.91081 
L 176.256827 70.592315 
L 173.637468 70.502486 
L 170.965806 70.616485 
L 168.247121 70.909473 
L 165.48669 71.356609 
L 159.861716 72.613972 
L 154.13312 74.18986 
L 142.534011 77.502351 
L 136.747972 78.841527 
L 133.87681 79.34491 
L 131.02726 79.704371 
L 128.204601 79.89507 
L 122.584891 79.953644 
L 116.956644 79.767769 
L 111.321462 79.383278 
L 102.859186 78.534401 
L 88.743387 76.775849 
L 77.45435 75.472134 
L 74.634258 75.208272 
L 74.634258 75.208272 
" style="fill:none;stroke:#fea952;stroke-linecap:square;"/>
   </g>
   <g id="line2d_16">
    <path clip-path="url(#pad1c790b4c)" d="M 375.92219 286.98413 
L 376.200054 267.099014 
L 376.867349 232.951774 
L 377.004047 229.740768 
L 377.619996 223.317417 
L 378.515565 216.940518 
L 380.392034 204.719629 
L 381.032092 199.156301 
L 381.286114 194.204944 
L 381.243636 192.029071 
L 381.088517 190.091023 
L 380.832767 188.412695 
L 380.496921 187.000954 
L 379.789105 185.036786 
L 379.408649 184.357489 
L 378.609432 183.568155 
L 377.338447 182.727913 
L 375.614334 181.899612 
L 373.489734 181.122113 
L 371.026541 180.409962 
L 365.32028 179.158545 
L 352.134241 176.727197 
L 348.686067 175.945177 
L 345.232087 175.00507 
L 341.794081 173.844505 
L 338.398185 172.383669 
L 335.089637 170.523327 
L 331.957672 168.156135 
L 329.210519 165.28033 
L 327.075558 162.137731 
L 325.48456 158.866719 
L 324.329129 155.539422 
L 323.510042 152.187512 
L 322.946663 148.825215 
L 322.57476 145.463239 
L 322.202636 138.798646 
L 321.842587 126.400066 
L 321.374146 121.251731 
L 321.014518 119.1071 
L 320.586754 117.313631 
L 319.677908 114.837358 
L 318.965078 113.775991 
L 317.779361 112.553504 
L 316.35986 111.344424 
L 314.715378 110.164559 
L 312.860465 109.028035 
L 310.813243 107.946349 
L 308.593814 106.92827 
L 306.22322 105.980134 
L 301.113984 104.309354 
L 295.655352 102.951293 
L 290.013749 101.907174 
L 284.352545 101.168517 
L 278.834257 100.720615 
L 273.985778 100.535039 
L 272.09213 100.580447 
L 270.024685 100.849565 
L 267.797472 101.33892 
L 265.430489 102.035048 
L 262.944242 102.916421 
L 257.683584 105.122931 
L 243.28156 111.68432 
L 240.189565 112.886915 
L 237.005407 113.956137 
L 233.712594 114.838407 
L 230.296299 115.468067 
L 226.752706 115.764827 
L 223.103485 115.637158 
L 219.378281 114.987912 
L 215.834609 113.806264 
L 212.623607 112.213974 
L 209.713041 110.323409 
L 207.051438 108.21576 
L 204.587605 105.949249 
L 202.27826 103.569233 
L 197.994479 98.625606 
L 188.444355 87.030919 
L 186.699184 85.176874 
L 185.032968 83.572785 
L 183.471001 82.247115 
L 182.041202 81.210373 
L 180.760376 80.446914 
L 179.397711 79.86989 
L 177.757074 79.449071 
L 175.961934 79.191255 
L 174.004265 79.09866 
L 171.887704 79.170949 
L 169.62287 79.402767 
L 167.223489 79.783487 
L 162.077244 80.927827 
L 156.548527 82.447859 
L 144.599282 85.8548 
L 138.233794 87.316259 
L 134.95364 87.881255 
L 131.607224 88.288798 
L 128.396649 88.496922 
L 122.38539 88.555327 
L 116.437462 88.356086 
L 110.554348 87.953008 
L 101.852227 87.079269 
L 87.67972 85.313843 
L 76.652819 84.038714 
L 73.832727 83.774852 
L 73.832727 83.774852 
" style="fill:none;stroke:#ffffff;stroke-linecap:square;"/>
   </g>
   <g id="line2d_17">
    <path clip-path="url(#pad1c790b4c)" d="M 393.129384 287.149687 
L 393.457148 264.591986 
L 394.157533 231.109297 
L 394.678639 225.579641 
L 395.516617 219.601194 
L 397.465139 206.869988 
L 398.200733 200.319373 
L 398.41619 197.024389 
L 398.487273 193.720062 
L 398.375032 190.407268 
L 398.032448 187.087994 
L 397.402775 183.770521 
L 396.420742 180.478156 
L 395.020435 177.260086 
L 393.01648 174.029902 
L 390.425769 171.138639 
L 387.549831 168.864951 
L 384.520546 167.09038 
L 381.398145 165.692746 
L 378.208863 164.573857 
L 374.969675 163.659838 
L 368.421174 162.232251 
L 353.140861 159.323812 
L 350.623897 158.663609 
L 348.412314 157.960111 
L 346.558851 157.233801 
L 344.016824 155.880475 
L 343.188542 155.243904 
L 342.408899 154.32725 
L 341.671301 153.026822 
L 341.014805 151.331906 
L 340.469292 149.272246 
L 340.046058 146.895026 
L 339.739996 144.250955 
L 339.404765 138.349514 
L 339.002891 125.119859 
L 338.737022 121.667617 
L 338.307317 118.188614 
L 337.646481 114.692038 
L 336.669025 111.191906 
L 335.269565 107.723471 
L 333.335797 104.369453 
L 331.073092 101.548523 
L 328.747376 99.293881 
L 326.245966 97.259685 
L 323.595031 95.424589 
L 320.814992 93.768924 
L 317.922699 92.275657 
L 314.933022 90.930477 
L 311.859889 89.721508 
L 308.716906 88.638893 
L 305.517697 87.674383 
L 299.006079 86.072679 
L 292.438381 84.870856 
L 285.931006 84.033074 
L 279.601208 83.529723 
L 273.201867 83.344913 
L 269.637713 83.548394 
L 266.192817 84.073637 
L 262.863096 84.853566 
L 259.638504 85.831102 
L 256.508484 86.957224 
L 250.502329 89.485011 
L 237.001668 95.663149 
L 232.431426 97.367175 
L 230.40827 97.950648 
L 228.593349 98.344547 
L 227.000425 98.558619 
L 225.617782 98.613843 
L 224.425722 98.536823 
L 223.205541 98.256849 
L 221.824497 97.672359 
L 220.294149 96.753033 
L 218.645292 95.499726 
L 216.908447 93.936264 
L 215.106216 92.099338 
L 211.351456 87.77636 
L 203.177634 77.738468 
L 200.91725 75.175883 
L 198.519353 72.670932 
L 195.945524 70.267482 
L 193.149794 68.019117 
L 190.083567 65.997375 
L 186.709362 64.299948 
L 183.237317 63.095732 
L 179.880129 62.372549 
L 176.551719 61.993374 
L 173.270672 61.906313 
L 170.043909 62.062022 
L 166.871371 62.416178 
L 163.749892 62.929731 
L 157.646188 64.300118 
L 151.717713 65.93186 
L 140.468739 69.149903 
L 135.26215 70.366796 
L 130.447296 71.119944 
L 128.012552 71.293218 
L 122.784391 71.351962 
L 117.475827 71.179452 
L 112.088576 70.813548 
L 103.866144 69.989533 
L 89.807054 68.237854 
L 78.25588 66.905554 
L 75.435788 66.641693 
L 75.435788 66.641693 
" style="fill:none;stroke:#ffffff;stroke-linecap:square;"/>
   </g>
   <g id="patch_3">
    <path d="M 57.6 307.584 
L 57.6 41.472 
" style="fill:none;stroke:#000000;stroke-linecap:square;stroke-linejoin:miter;stroke-width:0.8;"/>
   </g>
   <g id="patch_4">
    <path d="M 414.72 307.584 
L 414.72 41.472 
" style="fill:none;stroke:#000000;stroke-linecap:square;stroke-linejoin:miter;stroke-width:0.8;"/>
   </g>
   <g id="patch_5">
    <path d="M 57.6 307.584 
L 414.72 307.584 
" style="fill:none;stroke:#000000;stroke-linecap:square;stroke-linejoin:miter;stroke-width:0.8;"/>
   </g>
   <g id="patch_6">
    <path d="M 57.6 41.472 
L 414.72 41.472 
" style="fill:none;stroke:#000000;stroke-linecap:square;stroke-linejoin:miter;stroke-width:0.8;"/>
   </g>
  </g>
 </g>
 <defs>
  <clipPath id="pad1c790b4c">
   <rect height="266.112" width="357.12" x="57.6" y="41.472"/>
  </clipPath>
 </defs>
</svg>
