<?xml version="1.0" encoding="utf-8" standalone="no"?>
<!DOCTYPE svg PUBLIC "-//W3C//DTD SVG 1.1//EN"
  "http://www.w3.org/Graphics/SVG/1.1/DTD/svg11.dtd">
<!-- Created with matplotlib (https://matplotlib.org/) -->
<svg height="345.6pt" version="1.1" viewBox="0 0 460.8 345.6" width="460.8pt" xmlns="http://www.w3.org/2000/svg" xmlns:xlink="http://www.w3.org/1999/xlink">
 <metadata>
  <rdf:RDF xmlns:cc="http://creativecommons.org/ns#" xmlns:dc="http://purl.org/dc/elements/1.1/" xmlns:rdf="http://www.w3.org/1999/02/22-rdf-syntax-ns#">
   <cc:Work>
    <dc:type rdf:resource="http://purl.org/dc/dcmitype/StillImage"/>
    <dc:date>2021-05-27T14:11:24.756304</dc:date>
    <dc:format>image/svg+xml</dc:format>
    <dc:creator>
     <cc:Agent>
      <dc:title>Matplotlib v3.3.3, https://matplotlib.org/</dc:title>
     </cc:Agent>
    </dc:creator>
   </cc:Work>
  </rdf:RDF>
 </metadata>
 <defs>
  <style type="text/css">*{stroke-linecap:butt;stroke-linejoin:round;}</style>
 </defs>
 <g id="figure_1">
  <g id="patch_1">
   <path d="M 0 345.6 
L 460.8 345.6 
L 460.8 0 
L 0 0 
z
" style="fill:#ffffff;"/>
  </g>
  <g id="axes_1">
   <g id="patch_2">
    <path d="M 57.6 307.584 
L 414.72 307.584 
L 414.72 41.472 
L 57.6 41.472 
z
" style="fill:#7d9051;"/>
   </g>
   <g id="matplotlib.axis_1">
    <g id="xtick_1">
     <g id="line2d_1">
      <defs>
       <path d="M 0 0 
L 0 3.5 
" id="mfc2db969b0" style="stroke:#000000;stroke-width:0.8;"/>
      </defs>
      <g>
       <use style="stroke:#000000;stroke-width:0.8;" x="84.660884" xlink:href="#mfc2db969b0" y="307.584"/>
      </g>
     </g>
     <g id="text_1">
      <!-- 0 -->
      <g transform="translate(81.479634 322.182437)scale(0.1 -0.1)">
       <defs>
        <path d="M 31.78125 66.40625 
Q 24.171875 66.40625 20.328125 58.90625 
Q 16.5 51.421875 16.5 36.375 
Q 16.5 21.390625 20.328125 13.890625 
Q 24.171875 6.390625 31.78125 6.390625 
Q 39.453125 6.390625 43.28125 13.890625 
Q 47.125 21.390625 47.125 36.375 
Q 47.125 51.421875 43.28125 58.90625 
Q 39.453125 66.40625 31.78125 66.40625 
z
M 31.78125 74.21875 
Q 44.046875 74.21875 50.515625 64.515625 
Q 56.984375 54.828125 56.984375 36.375 
Q 56.984375 17.96875 50.515625 8.265625 
Q 44.046875 -1.421875 31.78125 -1.421875 
Q 19.53125 -1.421875 13.0625 8.265625 
Q 6.59375 17.96875 6.59375 36.375 
Q 6.59375 54.828125 13.0625 64.515625 
Q 19.53125 74.21875 31.78125 74.21875 
z
" id="DejaVuSans-48"/>
       </defs>
       <use xlink:href="#DejaVuSans-48"/>
      </g>
     </g>
    </g>
    <g id="xtick_2">
     <g id="line2d_2">
      <g>
       <use style="stroke:#000000;stroke-width:0.8;" x="127.417803" xlink:href="#mfc2db969b0" y="307.584"/>
      </g>
     </g>
     <g id="text_2">
      <!-- 20 -->
      <g transform="translate(121.055303 322.182437)scale(0.1 -0.1)">
       <defs>
        <path d="M 19.1875 8.296875 
L 53.609375 8.296875 
L 53.609375 0 
L 7.328125 0 
L 7.328125 8.296875 
Q 12.9375 14.109375 22.625 23.890625 
Q 32.328125 33.6875 34.8125 36.53125 
Q 39.546875 41.84375 41.421875 45.53125 
Q 43.3125 49.21875 43.3125 52.78125 
Q 43.3125 58.59375 39.234375 62.25 
Q 35.15625 65.921875 28.609375 65.921875 
Q 23.96875 65.921875 18.8125 64.3125 
Q 13.671875 62.703125 7.8125 59.421875 
L 7.8125 69.390625 
Q 13.765625 71.78125 18.9375 73 
Q 24.125 74.21875 28.421875 74.21875 
Q 39.75 74.21875 46.484375 68.546875 
Q 53.21875 62.890625 53.21875 53.421875 
Q 53.21875 48.921875 51.53125 44.890625 
Q 49.859375 40.875 45.40625 35.40625 
Q 44.1875 33.984375 37.640625 27.21875 
Q 31.109375 20.453125 19.1875 8.296875 
z
" id="DejaVuSans-50"/>
       </defs>
       <use xlink:href="#DejaVuSans-50"/>
       <use x="63.623047" xlink:href="#DejaVuSans-48"/>
      </g>
     </g>
    </g>
    <g id="xtick_3">
     <g id="line2d_3">
      <g>
       <use style="stroke:#000000;stroke-width:0.8;" x="170.174721" xlink:href="#mfc2db969b0" y="307.584"/>
      </g>
     </g>
     <g id="text_3">
      <!-- 40 -->
      <g transform="translate(163.812221 322.182437)scale(0.1 -0.1)">
       <defs>
        <path d="M 37.796875 64.3125 
L 12.890625 25.390625 
L 37.796875 25.390625 
z
M 35.203125 72.90625 
L 47.609375 72.90625 
L 47.609375 25.390625 
L 58.015625 25.390625 
L 58.015625 17.1875 
L 47.609375 17.1875 
L 47.609375 0 
L 37.796875 0 
L 37.796875 17.1875 
L 4.890625 17.1875 
L 4.890625 26.703125 
z
" id="DejaVuSans-52"/>
       </defs>
       <use xlink:href="#DejaVuSans-52"/>
       <use x="63.623047" xlink:href="#DejaVuSans-48"/>
      </g>
     </g>
    </g>
    <g id="xtick_4">
     <g id="line2d_4">
      <g>
       <use style="stroke:#000000;stroke-width:0.8;" x="212.931639" xlink:href="#mfc2db969b0" y="307.584"/>
      </g>
     </g>
     <g id="text_4">
      <!-- 60 -->
      <g transform="translate(206.569139 322.182437)scale(0.1 -0.1)">
       <defs>
        <path d="M 33.015625 40.375 
Q 26.375 40.375 22.484375 35.828125 
Q 18.609375 31.296875 18.609375 23.390625 
Q 18.609375 15.53125 22.484375 10.953125 
Q 26.375 6.390625 33.015625 6.390625 
Q 39.65625 6.390625 43.53125 10.953125 
Q 47.40625 15.53125 47.40625 23.390625 
Q 47.40625 31.296875 43.53125 35.828125 
Q 39.65625 40.375 33.015625 40.375 
z
M 52.59375 71.296875 
L 52.59375 62.3125 
Q 48.875 64.0625 45.09375 64.984375 
Q 41.3125 65.921875 37.59375 65.921875 
Q 27.828125 65.921875 22.671875 59.328125 
Q 17.53125 52.734375 16.796875 39.40625 
Q 19.671875 43.65625 24.015625 45.921875 
Q 28.375 48.1875 33.59375 48.1875 
Q 44.578125 48.1875 50.953125 41.515625 
Q 57.328125 34.859375 57.328125 23.390625 
Q 57.328125 12.15625 50.6875 5.359375 
Q 44.046875 -1.421875 33.015625 -1.421875 
Q 20.359375 -1.421875 13.671875 8.265625 
Q 6.984375 17.96875 6.984375 36.375 
Q 6.984375 53.65625 15.1875 63.9375 
Q 23.390625 74.21875 37.203125 74.21875 
Q 40.921875 74.21875 44.703125 73.484375 
Q 48.484375 72.75 52.59375 71.296875 
z
" id="DejaVuSans-54"/>
       </defs>
       <use xlink:href="#DejaVuSans-54"/>
       <use x="63.623047" xlink:href="#DejaVuSans-48"/>
      </g>
     </g>
    </g>
    <g id="xtick_5">
     <g id="line2d_5">
      <g>
       <use style="stroke:#000000;stroke-width:0.8;" x="255.688557" xlink:href="#mfc2db969b0" y="307.584"/>
      </g>
     </g>
     <g id="text_5">
      <!-- 80 -->
      <g transform="translate(249.326057 322.182437)scale(0.1 -0.1)">
       <defs>
        <path d="M 31.78125 34.625 
Q 24.75 34.625 20.71875 30.859375 
Q 16.703125 27.09375 16.703125 20.515625 
Q 16.703125 13.921875 20.71875 10.15625 
Q 24.75 6.390625 31.78125 6.390625 
Q 38.8125 6.390625 42.859375 10.171875 
Q 46.921875 13.96875 46.921875 20.515625 
Q 46.921875 27.09375 42.890625 30.859375 
Q 38.875 34.625 31.78125 34.625 
z
M 21.921875 38.8125 
Q 15.578125 40.375 12.03125 44.71875 
Q 8.5 49.078125 8.5 55.328125 
Q 8.5 64.0625 14.71875 69.140625 
Q 20.953125 74.21875 31.78125 74.21875 
Q 42.671875 74.21875 48.875 69.140625 
Q 55.078125 64.0625 55.078125 55.328125 
Q 55.078125 49.078125 51.53125 44.71875 
Q 48 40.375 41.703125 38.8125 
Q 48.828125 37.15625 52.796875 32.3125 
Q 56.78125 27.484375 56.78125 20.515625 
Q 56.78125 9.90625 50.3125 4.234375 
Q 43.84375 -1.421875 31.78125 -1.421875 
Q 19.734375 -1.421875 13.25 4.234375 
Q 6.78125 9.90625 6.78125 20.515625 
Q 6.78125 27.484375 10.78125 32.3125 
Q 14.796875 37.15625 21.921875 38.8125 
z
M 18.3125 54.390625 
Q 18.3125 48.734375 21.84375 45.5625 
Q 25.390625 42.390625 31.78125 42.390625 
Q 38.140625 42.390625 41.71875 45.5625 
Q 45.3125 48.734375 45.3125 54.390625 
Q 45.3125 60.0625 41.71875 63.234375 
Q 38.140625 66.40625 31.78125 66.40625 
Q 25.390625 66.40625 21.84375 63.234375 
Q 18.3125 60.0625 18.3125 54.390625 
z
" id="DejaVuSans-56"/>
       </defs>
       <use xlink:href="#DejaVuSans-56"/>
       <use x="63.623047" xlink:href="#DejaVuSans-48"/>
      </g>
     </g>
    </g>
    <g id="xtick_6">
     <g id="line2d_6">
      <g>
       <use style="stroke:#000000;stroke-width:0.8;" x="298.445476" xlink:href="#mfc2db969b0" y="307.584"/>
      </g>
     </g>
     <g id="text_6">
      <!-- 100 -->
      <g transform="translate(288.901726 322.182437)scale(0.1 -0.1)">
       <defs>
        <path d="M 12.40625 8.296875 
L 28.515625 8.296875 
L 28.515625 63.921875 
L 10.984375 60.40625 
L 10.984375 69.390625 
L 28.421875 72.90625 
L 38.28125 72.90625 
L 38.28125 8.296875 
L 54.390625 8.296875 
L 54.390625 0 
L 12.40625 0 
z
" id="DejaVuSans-49"/>
       </defs>
       <use xlink:href="#DejaVuSans-49"/>
       <use x="63.623047" xlink:href="#DejaVuSans-48"/>
       <use x="127.246094" xlink:href="#DejaVuSans-48"/>
      </g>
     </g>
    </g>
    <g id="xtick_7">
     <g id="line2d_7">
      <g>
       <use style="stroke:#000000;stroke-width:0.8;" x="341.202394" xlink:href="#mfc2db969b0" y="307.584"/>
      </g>
     </g>
     <g id="text_7">
      <!-- 120 -->
      <g transform="translate(331.658644 322.182437)scale(0.1 -0.1)">
       <use xlink:href="#DejaVuSans-49"/>
       <use x="63.623047" xlink:href="#DejaVuSans-50"/>
       <use x="127.246094" xlink:href="#DejaVuSans-48"/>
      </g>
     </g>
    </g>
    <g id="xtick_8">
     <g id="line2d_8">
      <g>
       <use style="stroke:#000000;stroke-width:0.8;" x="383.959312" xlink:href="#mfc2db969b0" y="307.584"/>
      </g>
     </g>
     <g id="text_8">
      <!-- 140 -->
      <g transform="translate(374.415562 322.182437)scale(0.1 -0.1)">
       <use xlink:href="#DejaVuSans-49"/>
       <use x="63.623047" xlink:href="#DejaVuSans-52"/>
       <use x="127.246094" xlink:href="#DejaVuSans-48"/>
      </g>
     </g>
    </g>
   </g>
   <g id="matplotlib.axis_2">
    <g id="ytick_1">
     <g id="line2d_9">
      <defs>
       <path d="M 0 0 
L -3.5 0 
" id="m0cf413cc70" style="stroke:#000000;stroke-width:0.8;"/>
      </defs>
      <g>
       <use style="stroke:#000000;stroke-width:0.8;" x="57.6" xlink:href="#m0cf413cc70" y="292.943884"/>
      </g>
     </g>
     <g id="text_9">
      <!-- −20 -->
      <g transform="translate(29.495313 296.743103)scale(0.1 -0.1)">
       <defs>
        <path d="M 10.59375 35.5 
L 73.1875 35.5 
L 73.1875 27.203125 
L 10.59375 27.203125 
z
" id="DejaVuSans-8722"/>
       </defs>
       <use xlink:href="#DejaVuSans-8722"/>
       <use x="83.789062" xlink:href="#DejaVuSans-50"/>
       <use x="147.412109" xlink:href="#DejaVuSans-48"/>
      </g>
     </g>
    </g>
    <g id="ytick_2">
     <g id="line2d_10">
      <g>
       <use style="stroke:#000000;stroke-width:0.8;" x="57.6" xlink:href="#m0cf413cc70" y="250.186966"/>
      </g>
     </g>
     <g id="text_10">
      <!-- 0 -->
      <g transform="translate(44.2375 253.986185)scale(0.1 -0.1)">
       <use xlink:href="#DejaVuSans-48"/>
      </g>
     </g>
    </g>
    <g id="ytick_3">
     <g id="line2d_11">
      <g>
       <use style="stroke:#000000;stroke-width:0.8;" x="57.6" xlink:href="#m0cf413cc70" y="207.430047"/>
      </g>
     </g>
     <g id="text_11">
      <!-- 20 -->
      <g transform="translate(37.875 211.229266)scale(0.1 -0.1)">
       <use xlink:href="#DejaVuSans-50"/>
       <use x="63.623047" xlink:href="#DejaVuSans-48"/>
      </g>
     </g>
    </g>
    <g id="ytick_4">
     <g id="line2d_12">
      <g>
       <use style="stroke:#000000;stroke-width:0.8;" x="57.6" xlink:href="#m0cf413cc70" y="164.673129"/>
      </g>
     </g>
     <g id="text_12">
      <!-- 40 -->
      <g transform="translate(37.875 168.472348)scale(0.1 -0.1)">
       <use xlink:href="#DejaVuSans-52"/>
       <use x="63.623047" xlink:href="#DejaVuSans-48"/>
      </g>
     </g>
    </g>
    <g id="ytick_5">
     <g id="line2d_13">
      <g>
       <use style="stroke:#000000;stroke-width:0.8;" x="57.6" xlink:href="#m0cf413cc70" y="121.916211"/>
      </g>
     </g>
     <g id="text_13">
      <!-- 60 -->
      <g transform="translate(37.875 125.71543)scale(0.1 -0.1)">
       <use xlink:href="#DejaVuSans-54"/>
       <use x="63.623047" xlink:href="#DejaVuSans-48"/>
      </g>
     </g>
    </g>
    <g id="ytick_6">
     <g id="line2d_14">
      <g>
       <use style="stroke:#000000;stroke-width:0.8;" x="57.6" xlink:href="#m0cf413cc70" y="79.159293"/>
      </g>
     </g>
     <g id="text_14">
      <!-- 80 -->
      <g transform="translate(37.875 82.958511)scale(0.1 -0.1)">
       <use xlink:href="#DejaVuSans-56"/>
       <use x="63.623047" xlink:href="#DejaVuSans-48"/>
      </g>
     </g>
    </g>
   </g>
   <g id="line2d_15">
    <path clip-path="url(#p482fa7b671)" d="M 84.660884 250.186966 
L 84.987807 227.686178 
L 85.574901 193.878491 
L 85.198209 187.847853 
L 84.520007 181.559701 
L 82.982696 168.82889 
L 82.485399 162.695247 
L 82.383737 159.753963 
L 82.410217 156.922123 
L 82.587451 154.21904 
L 82.938054 151.664027 
L 83.484638 149.276398 
L 84.249817 147.075466 
L 85.256204 145.080546 
L 86.526412 143.31095 
L 88.104356 141.709931 
L 89.997391 140.210459 
L 92.173291 138.816431 
L 94.599829 137.53174 
L 97.244779 136.36028 
L 100.075915 135.305947 
L 103.06101 134.372635 
L 106.167838 133.564239 
L 109.364173 132.884652 
L 112.617788 132.337769 
L 115.896457 131.927486 
L 119.167954 131.657696 
L 122.400052 131.532294 
L 125.560525 131.555175 
L 128.617147 131.730233 
L 131.537691 132.061362 
L 134.289931 132.552457 
L 136.84164 133.207413 
L 139.160593 134.030124 
L 141.277361 135.096369 
L 143.253918 136.46047 
L 145.105137 138.09414 
L 146.845893 139.96909 
L 148.49106 142.05703 
L 150.055511 144.329674 
L 153.001765 149.315913 
L 155.803649 154.701499 
L 161.450277 165.765475 
L 164.533008 170.991248 
L 166.191287 173.428571 
L 167.947341 175.711133 
L 171.77256 179.853002 
L 182.252349 190.779867 
L 186.708213 195.111689 
L 191.275423 199.181723 
L 195.927658 202.83027 
L 198.277434 204.446581 
L 200.638596 205.897633 
L 203.007853 207.163464 
L 205.381916 208.224113 
L 207.757494 209.059617 
L 210.131297 209.650013 
L 212.500036 209.97534 
L 214.873319 209.99811 
L 217.262522 209.712824 
L 219.666999 209.147504 
L 222.086107 208.330173 
L 224.519201 207.288853 
L 226.965637 206.051566 
L 229.42477 204.646334 
L 234.37855 201.444123 
L 241.888339 196.081772 
L 249.477605 190.721112 
L 254.572677 187.521906 
L 257.128948 186.118739 
L 262.262743 183.763207 
L 270.076158 180.619112 
L 277.999181 177.723403 
L 291.32907 173.174844 
L 304.639643 168.568025 
L 317.957485 163.778378 
L 339.863927 156.701523 
L 345.126991 154.640052 
L 350.18762 152.315269 
L 352.623737 151.03126 
L 354.987305 149.653972 
L 357.271011 148.174253 
L 359.467539 146.582955 
L 361.570168 144.870946 
L 363.582334 143.041969 
L 365.511967 141.106185 
L 369.155355 136.954839 
L 372.563767 132.498192 
L 375.800641 127.81753 
L 380.473087 120.554319 
L 386.694709 110.844644 
L 389.944694 106.161814 
L 391.632234 103.898963 
L 391.632234 103.898963 
" style="fill:none;stroke:#fea952;stroke-linecap:square;"/>
   </g>
   <g id="line2d_16">
    <path clip-path="url(#p482fa7b671)" d="M 76.109897 250.104693 
L 76.437983 227.522882 
L 77.032893 194.278809 
L 76.689417 188.700272 
L 76.033546 182.611442 
L 74.46846 169.625101 
L 73.939119 162.990639 
L 73.832727 159.674006 
L 73.877156 156.362631 
L 74.115458 153.0565 
L 74.602303 149.755778 
L 75.407471 146.468278 
L 76.614942 143.223865 
L 78.309208 140.094023 
L 80.435939 137.308259 
L 82.794706 135.006665 
L 85.384327 133.010057 
L 88.172074 131.25889 
L 91.136843 129.712923 
L 94.260418 128.346558 
L 97.524081 127.144189 
L 100.907642 126.096817 
L 104.389443 125.199821 
L 107.946702 124.451566 
L 111.555974 123.852564 
L 115.193638 123.405033 
L 118.836419 123.112742 
L 122.461959 122.981135 
L 126.049475 123.017781 
L 129.580524 123.233288 
L 133.039829 123.642945 
L 136.415928 124.269565 
L 139.700865 125.148195 
L 143.007559 126.392912 
L 146.134578 128.058357 
L 148.912168 130.048734 
L 151.371984 132.275824 
L 153.562742 134.676633 
L 155.53485 137.208197 
L 157.333273 139.839647 
L 158.995795 142.545933 
L 162.032589 148.090556 
L 168.891491 161.551868 
L 171.60316 166.180935 
L 172.968979 168.214258 
L 174.334993 170.025707 
L 175.991164 171.895068 
L 190.37162 186.785102 
L 194.584204 190.730777 
L 198.742604 194.242011 
L 202.754781 197.161011 
L 204.668296 198.355241 
L 206.496023 199.355851 
L 208.219122 200.157117 
L 209.821458 200.76105 
L 211.294838 201.178158 
L 212.582075 201.42435 
L 213.859432 201.507044 
L 215.305361 201.388421 
L 216.929798 201.046029 
L 218.721469 200.468534 
L 220.659839 199.657898 
L 222.722933 198.626903 
L 227.14855 195.988634 
L 231.885742 192.755937 
L 244.813488 183.553674 
L 247.594835 181.749208 
L 250.457871 180.025604 
L 253.415175 178.415879 
L 258.966307 175.872727 
L 264.365817 173.661566 
L 272.479911 170.611455 
L 283.254441 166.8724 
L 301.693706 160.540098 
L 315.343686 155.636252 
L 336.84164 148.702027 
L 341.686041 146.811513 
L 346.200365 144.750353 
L 350.337267 142.477391 
L 352.254075 141.249189 
L 354.068218 139.951703 
L 355.818341 138.543019 
L 357.525979 137.004856 
L 360.832041 133.558276 
L 364.018796 129.662359 
L 367.119896 125.384659 
L 370.176288 120.802231 
L 381.32456 103.535883 
L 384.777195 98.786762 
L 384.777195 98.786762 
" style="fill:none;stroke:#ffffff;stroke-linecap:square;"/>
   </g>
   <g id="line2d_17">
    <path clip-path="url(#p482fa7b671)" d="M 93.211872 250.269238 
L 93.537632 227.849473 
L 94.11691 193.478172 
L 93.707001 186.995434 
L 93.006467 180.507961 
L 91.496931 168.032679 
L 91.031679 162.399854 
L 90.943278 157.481615 
L 91.059444 155.381579 
L 91.561805 152.084517 
L 92.2032 150.067069 
L 92.616885 149.313641 
L 93.414007 148.413196 
L 94.610456 147.410862 
L 96.174508 146.373972 
L 98.062815 145.350556 
L 100.229141 144.374003 
L 102.627749 143.467706 
L 105.214378 142.648453 
L 107.946234 141.928656 
L 110.781644 141.317738 
L 113.679603 140.822975 
L 116.599277 140.449939 
L 119.499489 140.202651 
L 122.338145 140.083454 
L 125.071575 140.092569 
L 127.653769 140.227177 
L 130.035552 140.479779 
L 132.163933 140.835349 
L 135.313627 141.667336 
L 136.420145 142.134381 
L 137.595668 142.872207 
L 138.838291 143.912456 
L 140.129044 145.261547 
L 141.44727 146.905864 
L 142.777749 148.8197 
L 145.449915 153.327861 
L 148.152935 158.521542 
L 152.447529 167.05176 
L 155.671804 172.904385 
L 157.462856 175.801562 
L 159.413596 178.642884 
L 161.559689 181.396559 
L 165.567794 185.737477 
L 176.238278 196.859103 
L 180.936376 201.421369 
L 185.875628 205.812589 
L 188.442511 207.895316 
L 191.081343 209.875794 
L 193.800087 211.73215 
L 196.608895 213.440025 
L 199.519683 214.971078 
L 202.54471 216.291109 
L 205.69353 217.358184 
L 208.967757 218.121869 
L 212.417996 218.52633 
L 215.887206 218.489175 
L 219.219682 218.037227 
L 222.4042 217.248979 
L 225.450746 216.191812 
L 228.378564 214.919808 
L 231.208342 213.476229 
L 233.958395 211.897017 
L 239.274109 208.455519 
L 246.900778 203.010092 
L 254.141722 197.88855 
L 258.687482 195.018207 
L 260.84272 193.8216 
L 265.559179 191.653686 
L 273.082021 188.624794 
L 280.81673 185.797286 
L 294.065167 181.276692 
L 307.585579 176.595953 
L 320.571283 171.920504 
L 342.886215 164.701019 
L 348.567941 162.468591 
L 354.174875 159.880185 
L 356.929127 158.41975 
L 359.637344 156.830552 
L 362.287946 155.099318 
L 364.86686 153.214207 
L 367.321994 151.198872 
L 369.638689 149.079081 
L 371.828071 146.870991 
L 373.901954 144.589233 
L 377.75114 139.856836 
L 381.279467 134.976906 
L 384.572863 130.034959 
L 395.278432 113.424973 
L 398.487273 109.011165 
L 398.487273 109.011165 
" style="fill:none;stroke:#ffffff;stroke-linecap:square;"/>
   </g>
   <g id="patch_3">
    <path d="M 57.6 307.584 
L 57.6 41.472 
" style="fill:none;stroke:#000000;stroke-linecap:square;stroke-linejoin:miter;stroke-width:0.8;"/>
   </g>
   <g id="patch_4">
    <path d="M 414.72 307.584 
L 414.72 41.472 
" style="fill:none;stroke:#000000;stroke-linecap:square;stroke-linejoin:miter;stroke-width:0.8;"/>
   </g>
   <g id="patch_5">
    <path d="M 57.6 307.584 
L 414.72 307.584 
" style="fill:none;stroke:#000000;stroke-linecap:square;stroke-linejoin:miter;stroke-width:0.8;"/>
   </g>
   <g id="patch_6">
    <path d="M 57.6 41.472 
L 414.72 41.472 
" style="fill:none;stroke:#000000;stroke-linecap:square;stroke-linejoin:miter;stroke-width:0.8;"/>
   </g>
  </g>
 </g>
 <defs>
  <clipPath id="p482fa7b671">
   <rect height="266.112" width="357.12" x="57.6" y="41.472"/>
  </clipPath>
 </defs>
</svg>
