<?xml version="1.0" encoding="utf-8" standalone="no"?>
<!DOCTYPE svg PUBLIC "-//W3C//DTD SVG 1.1//EN"
  "http://www.w3.org/Graphics/SVG/1.1/DTD/svg11.dtd">
<!-- Created with matplotlib (https://matplotlib.org/) -->
<svg height="345.6pt" version="1.1" viewBox="0 0 460.8 345.6" width="460.8pt" xmlns="http://www.w3.org/2000/svg" xmlns:xlink="http://www.w3.org/1999/xlink">
 <metadata>
  <rdf:RDF xmlns:cc="http://creativecommons.org/ns#" xmlns:dc="http://purl.org/dc/elements/1.1/" xmlns:rdf="http://www.w3.org/1999/02/22-rdf-syntax-ns#">
   <cc:Work>
    <dc:type rdf:resource="http://purl.org/dc/dcmitype/StillImage"/>
    <dc:date>2021-06-17T14:37:03.366379</dc:date>
    <dc:format>image/svg+xml</dc:format>
    <dc:creator>
     <cc:Agent>
      <dc:title>Matplotlib v3.3.3, https://matplotlib.org/</dc:title>
     </cc:Agent>
    </dc:creator>
   </cc:Work>
  </rdf:RDF>
 </metadata>
 <defs>
  <style type="text/css">*{stroke-linecap:butt;stroke-linejoin:round;}</style>
 </defs>
 <g id="figure_1">
  <g id="patch_1">
   <path d="M 0 345.6 
L 460.8 345.6 
L 460.8 0 
L 0 0 
z
" style="fill:#ffffff;"/>
  </g>
  <g id="axes_1">
   <g id="patch_2">
    <path d="M 57.6 307.584 
L 414.72 307.584 
L 414.72 41.472 
L 57.6 41.472 
z
" style="fill:#7d9051;"/>
   </g>
   <g id="matplotlib.axis_1">
    <g id="xtick_1">
     <g id="line2d_1">
      <defs>
       <path d="M 0 0 
L 0 3.5 
" id="m081c98865a" style="stroke:#000000;stroke-width:0.8;"/>
      </defs>
      <g>
       <use style="stroke:#000000;stroke-width:0.8;" x="94.389976" xlink:href="#m081c98865a" y="307.584"/>
      </g>
     </g>
     <g id="text_1">
      <!-- −80 -->
      <g transform="translate(83.837633 322.182437)scale(0.1 -0.1)">
       <defs>
        <path d="M 10.59375 35.5 
L 73.1875 35.5 
L 73.1875 27.203125 
L 10.59375 27.203125 
z
" id="DejaVuSans-8722"/>
        <path d="M 31.78125 34.625 
Q 24.75 34.625 20.71875 30.859375 
Q 16.703125 27.09375 16.703125 20.515625 
Q 16.703125 13.921875 20.71875 10.15625 
Q 24.75 6.390625 31.78125 6.390625 
Q 38.8125 6.390625 42.859375 10.171875 
Q 46.921875 13.96875 46.921875 20.515625 
Q 46.921875 27.09375 42.890625 30.859375 
Q 38.875 34.625 31.78125 34.625 
z
M 21.921875 38.8125 
Q 15.578125 40.375 12.03125 44.71875 
Q 8.5 49.078125 8.5 55.328125 
Q 8.5 64.0625 14.71875 69.140625 
Q 20.953125 74.21875 31.78125 74.21875 
Q 42.671875 74.21875 48.875 69.140625 
Q 55.078125 64.0625 55.078125 55.328125 
Q 55.078125 49.078125 51.53125 44.71875 
Q 48 40.375 41.703125 38.8125 
Q 48.828125 37.15625 52.796875 32.3125 
Q 56.78125 27.484375 56.78125 20.515625 
Q 56.78125 9.90625 50.3125 4.234375 
Q 43.84375 -1.421875 31.78125 -1.421875 
Q 19.734375 -1.421875 13.25 4.234375 
Q 6.78125 9.90625 6.78125 20.515625 
Q 6.78125 27.484375 10.78125 32.3125 
Q 14.796875 37.15625 21.921875 38.8125 
z
M 18.3125 54.390625 
Q 18.3125 48.734375 21.84375 45.5625 
Q 25.390625 42.390625 31.78125 42.390625 
Q 38.140625 42.390625 41.71875 45.5625 
Q 45.3125 48.734375 45.3125 54.390625 
Q 45.3125 60.0625 41.71875 63.234375 
Q 38.140625 66.40625 31.78125 66.40625 
Q 25.390625 66.40625 21.84375 63.234375 
Q 18.3125 60.0625 18.3125 54.390625 
z
" id="DejaVuSans-56"/>
        <path d="M 31.78125 66.40625 
Q 24.171875 66.40625 20.328125 58.90625 
Q 16.5 51.421875 16.5 36.375 
Q 16.5 21.390625 20.328125 13.890625 
Q 24.171875 6.390625 31.78125 6.390625 
Q 39.453125 6.390625 43.28125 13.890625 
Q 47.125 21.390625 47.125 36.375 
Q 47.125 51.421875 43.28125 58.90625 
Q 39.453125 66.40625 31.78125 66.40625 
z
M 31.78125 74.21875 
Q 44.046875 74.21875 50.515625 64.515625 
Q 56.984375 54.828125 56.984375 36.375 
Q 56.984375 17.96875 50.515625 8.265625 
Q 44.046875 -1.421875 31.78125 -1.421875 
Q 19.53125 -1.421875 13.0625 8.265625 
Q 6.59375 17.96875 6.59375 36.375 
Q 6.59375 54.828125 13.0625 64.515625 
Q 19.53125 74.21875 31.78125 74.21875 
z
" id="DejaVuSans-48"/>
       </defs>
       <use xlink:href="#DejaVuSans-8722"/>
       <use x="83.789062" xlink:href="#DejaVuSans-56"/>
       <use x="147.412109" xlink:href="#DejaVuSans-48"/>
      </g>
     </g>
    </g>
    <g id="xtick_2">
     <g id="line2d_2">
      <g>
       <use style="stroke:#000000;stroke-width:0.8;" x="138.327489" xlink:href="#m081c98865a" y="307.584"/>
      </g>
     </g>
     <g id="text_2">
      <!-- −60 -->
      <g transform="translate(127.775146 322.182437)scale(0.1 -0.1)">
       <defs>
        <path d="M 33.015625 40.375 
Q 26.375 40.375 22.484375 35.828125 
Q 18.609375 31.296875 18.609375 23.390625 
Q 18.609375 15.53125 22.484375 10.953125 
Q 26.375 6.390625 33.015625 6.390625 
Q 39.65625 6.390625 43.53125 10.953125 
Q 47.40625 15.53125 47.40625 23.390625 
Q 47.40625 31.296875 43.53125 35.828125 
Q 39.65625 40.375 33.015625 40.375 
z
M 52.59375 71.296875 
L 52.59375 62.3125 
Q 48.875 64.0625 45.09375 64.984375 
Q 41.3125 65.921875 37.59375 65.921875 
Q 27.828125 65.921875 22.671875 59.328125 
Q 17.53125 52.734375 16.796875 39.40625 
Q 19.671875 43.65625 24.015625 45.921875 
Q 28.375 48.1875 33.59375 48.1875 
Q 44.578125 48.1875 50.953125 41.515625 
Q 57.328125 34.859375 57.328125 23.390625 
Q 57.328125 12.15625 50.6875 5.359375 
Q 44.046875 -1.421875 33.015625 -1.421875 
Q 20.359375 -1.421875 13.671875 8.265625 
Q 6.984375 17.96875 6.984375 36.375 
Q 6.984375 53.65625 15.1875 63.9375 
Q 23.390625 74.21875 37.203125 74.21875 
Q 40.921875 74.21875 44.703125 73.484375 
Q 48.484375 72.75 52.59375 71.296875 
z
" id="DejaVuSans-54"/>
       </defs>
       <use xlink:href="#DejaVuSans-8722"/>
       <use x="83.789062" xlink:href="#DejaVuSans-54"/>
       <use x="147.412109" xlink:href="#DejaVuSans-48"/>
      </g>
     </g>
    </g>
    <g id="xtick_3">
     <g id="line2d_3">
      <g>
       <use style="stroke:#000000;stroke-width:0.8;" x="182.265003" xlink:href="#m081c98865a" y="307.584"/>
      </g>
     </g>
     <g id="text_3">
      <!-- −40 -->
      <g transform="translate(171.712659 322.182437)scale(0.1 -0.1)">
       <defs>
        <path d="M 37.796875 64.3125 
L 12.890625 25.390625 
L 37.796875 25.390625 
z
M 35.203125 72.90625 
L 47.609375 72.90625 
L 47.609375 25.390625 
L 58.015625 25.390625 
L 58.015625 17.1875 
L 47.609375 17.1875 
L 47.609375 0 
L 37.796875 0 
L 37.796875 17.1875 
L 4.890625 17.1875 
L 4.890625 26.703125 
z
" id="DejaVuSans-52"/>
       </defs>
       <use xlink:href="#DejaVuSans-8722"/>
       <use x="83.789062" xlink:href="#DejaVuSans-52"/>
       <use x="147.412109" xlink:href="#DejaVuSans-48"/>
      </g>
     </g>
    </g>
    <g id="xtick_4">
     <g id="line2d_4">
      <g>
       <use style="stroke:#000000;stroke-width:0.8;" x="226.202516" xlink:href="#m081c98865a" y="307.584"/>
      </g>
     </g>
     <g id="text_4">
      <!-- −20 -->
      <g transform="translate(215.650172 322.182437)scale(0.1 -0.1)">
       <defs>
        <path d="M 19.1875 8.296875 
L 53.609375 8.296875 
L 53.609375 0 
L 7.328125 0 
L 7.328125 8.296875 
Q 12.9375 14.109375 22.625 23.890625 
Q 32.328125 33.6875 34.8125 36.53125 
Q 39.546875 41.84375 41.421875 45.53125 
Q 43.3125 49.21875 43.3125 52.78125 
Q 43.3125 58.59375 39.234375 62.25 
Q 35.15625 65.921875 28.609375 65.921875 
Q 23.96875 65.921875 18.8125 64.3125 
Q 13.671875 62.703125 7.8125 59.421875 
L 7.8125 69.390625 
Q 13.765625 71.78125 18.9375 73 
Q 24.125 74.21875 28.421875 74.21875 
Q 39.75 74.21875 46.484375 68.546875 
Q 53.21875 62.890625 53.21875 53.421875 
Q 53.21875 48.921875 51.53125 44.890625 
Q 49.859375 40.875 45.40625 35.40625 
Q 44.1875 33.984375 37.640625 27.21875 
Q 31.109375 20.453125 19.1875 8.296875 
z
" id="DejaVuSans-50"/>
       </defs>
       <use xlink:href="#DejaVuSans-8722"/>
       <use x="83.789062" xlink:href="#DejaVuSans-50"/>
       <use x="147.412109" xlink:href="#DejaVuSans-48"/>
      </g>
     </g>
    </g>
    <g id="xtick_5">
     <g id="line2d_5">
      <g>
       <use style="stroke:#000000;stroke-width:0.8;" x="270.140029" xlink:href="#m081c98865a" y="307.584"/>
      </g>
     </g>
     <g id="text_5">
      <!-- 0 -->
      <g transform="translate(266.958779 322.182437)scale(0.1 -0.1)">
       <use xlink:href="#DejaVuSans-48"/>
      </g>
     </g>
    </g>
    <g id="xtick_6">
     <g id="line2d_6">
      <g>
       <use style="stroke:#000000;stroke-width:0.8;" x="314.077542" xlink:href="#m081c98865a" y="307.584"/>
      </g>
     </g>
     <g id="text_6">
      <!-- 20 -->
      <g transform="translate(307.715042 322.182437)scale(0.1 -0.1)">
       <use xlink:href="#DejaVuSans-50"/>
       <use x="63.623047" xlink:href="#DejaVuSans-48"/>
      </g>
     </g>
    </g>
    <g id="xtick_7">
     <g id="line2d_7">
      <g>
       <use style="stroke:#000000;stroke-width:0.8;" x="358.015055" xlink:href="#m081c98865a" y="307.584"/>
      </g>
     </g>
     <g id="text_7">
      <!-- 40 -->
      <g transform="translate(351.652555 322.182437)scale(0.1 -0.1)">
       <use xlink:href="#DejaVuSans-52"/>
       <use x="63.623047" xlink:href="#DejaVuSans-48"/>
      </g>
     </g>
    </g>
    <g id="xtick_8">
     <g id="line2d_8">
      <g>
       <use style="stroke:#000000;stroke-width:0.8;" x="401.952568" xlink:href="#m081c98865a" y="307.584"/>
      </g>
     </g>
     <g id="text_8">
      <!-- 60 -->
      <g transform="translate(395.590068 322.182437)scale(0.1 -0.1)">
       <use xlink:href="#DejaVuSans-54"/>
       <use x="63.623047" xlink:href="#DejaVuSans-48"/>
      </g>
     </g>
    </g>
   </g>
   <g id="matplotlib.axis_2">
    <g id="ytick_1">
     <g id="line2d_9">
      <defs>
       <path d="M 0 0 
L -3.5 0 
" id="mdf081555b6" style="stroke:#000000;stroke-width:0.8;"/>
      </defs>
      <g>
       <use style="stroke:#000000;stroke-width:0.8;" x="57.6" xlink:href="#mdf081555b6" y="295.403456"/>
      </g>
     </g>
     <g id="text_9">
      <!-- 0 -->
      <g transform="translate(44.2375 299.202675)scale(0.1 -0.1)">
       <use xlink:href="#DejaVuSans-48"/>
      </g>
     </g>
    </g>
    <g id="ytick_2">
     <g id="line2d_10">
      <g>
       <use style="stroke:#000000;stroke-width:0.8;" x="57.6" xlink:href="#mdf081555b6" y="251.465943"/>
      </g>
     </g>
     <g id="text_10">
      <!-- 20 -->
      <g transform="translate(37.875 255.265162)scale(0.1 -0.1)">
       <use xlink:href="#DejaVuSans-50"/>
       <use x="63.623047" xlink:href="#DejaVuSans-48"/>
      </g>
     </g>
    </g>
    <g id="ytick_3">
     <g id="line2d_11">
      <g>
       <use style="stroke:#000000;stroke-width:0.8;" x="57.6" xlink:href="#mdf081555b6" y="207.52843"/>
      </g>
     </g>
     <g id="text_11">
      <!-- 40 -->
      <g transform="translate(37.875 211.327649)scale(0.1 -0.1)">
       <use xlink:href="#DejaVuSans-52"/>
       <use x="63.623047" xlink:href="#DejaVuSans-48"/>
      </g>
     </g>
    </g>
    <g id="ytick_4">
     <g id="line2d_12">
      <g>
       <use style="stroke:#000000;stroke-width:0.8;" x="57.6" xlink:href="#mdf081555b6" y="163.590917"/>
      </g>
     </g>
     <g id="text_12">
      <!-- 60 -->
      <g transform="translate(37.875 167.390135)scale(0.1 -0.1)">
       <use xlink:href="#DejaVuSans-54"/>
       <use x="63.623047" xlink:href="#DejaVuSans-48"/>
      </g>
     </g>
    </g>
    <g id="ytick_5">
     <g id="line2d_13">
      <g>
       <use style="stroke:#000000;stroke-width:0.8;" x="57.6" xlink:href="#mdf081555b6" y="119.653404"/>
      </g>
     </g>
     <g id="text_13">
      <!-- 80 -->
      <g transform="translate(37.875 123.452622)scale(0.1 -0.1)">
       <use xlink:href="#DejaVuSans-56"/>
       <use x="63.623047" xlink:href="#DejaVuSans-48"/>
      </g>
     </g>
    </g>
    <g id="ytick_6">
     <g id="line2d_14">
      <g>
       <use style="stroke:#000000;stroke-width:0.8;" x="57.6" xlink:href="#mdf081555b6" y="75.71589"/>
      </g>
     </g>
     <g id="text_14">
      <!-- 100 -->
      <g transform="translate(31.5125 79.515109)scale(0.1 -0.1)">
       <defs>
        <path d="M 12.40625 8.296875 
L 28.515625 8.296875 
L 28.515625 63.921875 
L 10.984375 60.40625 
L 10.984375 69.390625 
L 28.421875 72.90625 
L 38.28125 72.90625 
L 38.28125 8.296875 
L 54.390625 8.296875 
L 54.390625 0 
L 12.40625 0 
z
" id="DejaVuSans-49"/>
       </defs>
       <use xlink:href="#DejaVuSans-49"/>
       <use x="63.623047" xlink:href="#DejaVuSans-48"/>
       <use x="127.246094" xlink:href="#DejaVuSans-48"/>
      </g>
     </g>
    </g>
   </g>
   <g id="line2d_15">
    <path clip-path="url(#p4cfa42e47b)" d="M 270.140029 295.403456 
L 270.422735 275.171542 
L 271.102033 237.581244 
L 270.874185 231.671377 
L 270.180187 222.667831 
L 269.439226 213.645785 
L 269.127888 207.703031 
L 269.108767 201.875383 
L 269.247924 199.020141 
L 269.507099 196.212175 
L 269.901946 193.457652 
L 270.44812 190.762738 
L 271.161276 188.133599 
L 272.057067 185.576403 
L 273.216421 183.110243 
L 274.683728 180.742662 
L 276.419835 178.4625 
L 278.385593 176.258594 
L 280.541849 174.119786 
L 285.26925 169.992813 
L 299.951671 158.013477 
L 302.0606 155.958296 
L 303.968514 153.856602 
L 305.63626 151.697235 
L 307.024689 149.469033 
L 308.094648 147.160836 
L 308.806986 144.761484 
L 309.220735 142.252745 
L 309.428211 139.633669 
L 309.440187 136.919014 
L 309.267438 134.123536 
L 308.920737 131.261994 
L 308.410857 128.349143 
L 307.748573 125.399743 
L 306.944657 122.428549 
L 306.009884 119.450319 
L 303.790859 113.531782 
L 301.177688 107.762189 
L 298.25656 102.259599 
L 295.113663 97.14207 
L 291.835188 92.527661 
L 288.241384 88.201562 
L 284.14921 83.929678 
L 279.63992 79.801138 
L 274.794766 75.905069 
L 269.695 72.3306 
L 267.075029 70.691818 
L 264.421874 69.16686 
L 261.745693 67.766866 
L 259.056642 66.502978 
L 256.364878 65.386336 
L 253.680556 64.428082 
L 251.013834 63.639356 
L 248.374867 63.0313 
L 245.773814 62.615055 
L 243.151434 62.391054 
L 240.449614 62.34643 
L 237.680202 62.472373 
L 234.855045 62.760074 
L 231.985989 63.200722 
L 229.084882 63.785508 
L 226.16357 64.505623 
L 223.2339 65.352256 
L 217.396875 67.38984 
L 211.668582 69.827781 
L 206.143797 72.595603 
L 200.917296 75.622827 
L 196.083853 78.838977 
L 191.665226 82.23005 
L 187.316074 86.063749 
L 183.05301 90.32433 
L 178.965441 94.939497 
L 175.142773 99.836952 
L 171.674415 104.9444 
L 170.101041 107.554279 
L 168.649773 110.189544 
L 167.331785 112.841159 
L 166.158254 115.500087 
L 165.140355 118.157291 
L 164.289265 120.803733 
L 163.616159 123.430377 
L 163.132214 126.028185 
L 162.891274 128.624311 
L 162.921977 131.250584 
L 163.197679 133.904983 
L 163.69174 136.585484 
L 164.37752 139.290065 
L 165.228377 142.016705 
L 167.318756 147.528072 
L 169.74975 153.103406 
L 174.781069 164.381268 
L 176.955135 170.05144 
L 177.863527 172.887259 
L 178.617302 175.72087 
L 179.189821 178.550251 
L 179.9874 184.228276 
L 180.521089 189.95046 
L 180.840366 195.708525 
L 181.025496 204.394785 
L 180.962949 218.933985 
L 180.9749 227.649226 
L 181.106567 233.438686 
L 181.106567 233.438686 
" style="fill:none;stroke:#fea952;stroke-linecap:square;"/>
   </g>
   <g id="line2d_16">
    <path clip-path="url(#p4cfa42e47b)" d="M 261.352933 295.318912 
L 261.636723 275.009684 
L 262.317779 237.820161 
L 262.106295 232.258153 
L 261.42587 223.43081 
L 260.668463 214.187934 
L 260.341871 207.864631 
L 260.331682 201.44761 
L 260.497615 198.212488 
L 260.80851 194.965275 
L 261.289539 191.712188 
L 261.967085 188.462251 
L 262.8679 185.228412 
L 264.10449 181.837857 
L 265.747061 178.481112 
L 267.692157 175.419305 
L 269.861928 172.613222 
L 272.197182 170.019703 
L 274.650793 167.599382 
L 279.752661 163.152678 
L 293.818682 151.720097 
L 295.554189 150.051789 
L 297.013762 148.485231 
L 298.178165 147.049975 
L 299.052099 145.773359 
L 299.670565 144.659831 
L 300.136607 143.331537 
L 300.460675 141.558797 
L 300.640794 139.5949 
L 300.669415 137.461012 
L 300.543732 135.180491 
L 300.264845 132.777164 
L 299.836856 130.274425 
L 299.26608 127.69485 
L 298.560436 125.060094 
L 296.781732 119.707419 
L 294.582581 114.374394 
L 292.053931 109.211267 
L 289.294846 104.364811 
L 286.415376 99.982516 
L 283.45086 96.102207 
L 280.009057 92.237077 
L 276.111797 88.417122 
L 271.858409 84.75426 
L 267.350919 81.35264 
L 262.696019 78.310511 
L 258.007748 75.719725 
L 255.689496 74.619783 
L 253.410502 73.662317 
L 251.188237 72.854739 
L 249.040765 72.202486 
L 246.986277 71.708397 
L 245.025918 71.370673 
L 243.006316 71.177358 
L 240.848826 71.12486 
L 238.570475 71.214662 
L 236.189045 71.445731 
L 233.722391 71.814961 
L 231.188078 72.31761 
L 225.984368 73.698221 
L 220.708755 75.529351 
L 215.485199 77.743186 
L 210.432948 80.265244 
L 205.668917 83.01487 
L 201.310046 85.903472 
L 197.367443 88.916224 
L 193.431421 92.374275 
L 189.541415 96.250612 
L 185.805655 100.455987 
L 182.3262 104.898432 
L 179.200146 109.481312 
L 176.518814 114.100859 
L 174.364268 118.643576 
L 173.505896 120.847631 
L 172.801707 122.985138 
L 171.882115 126.840239 
L 171.678177 128.521589 
L 171.662459 130.342743 
L 171.839613 132.312129 
L 172.209683 134.425656 
L 172.766082 136.672389 
L 173.495958 139.038904 
L 175.401502 144.079968 
L 177.748634 149.464991 
L 182.936052 161.10767 
L 185.323769 167.370735 
L 186.355701 170.628236 
L 187.230247 173.978062 
L 187.875587 177.216964 
L 188.727855 183.320172 
L 189.290777 189.391203 
L 189.623154 195.42073 
L 189.812964 204.370256 
L 189.75037 218.971789 
L 189.808184 230.296661 
L 189.890511 233.188631 
L 189.890511 233.188631 
" style="fill:none;stroke:#ffffff;stroke-linecap:square;"/>
   </g>
   <g id="line2d_17">
    <path clip-path="url(#p4cfa42e47b)" d="M 278.927125 295.488 
L 279.208747 275.3334 
L 279.886287 237.342328 
L 279.642075 231.084601 
L 278.934504 221.904852 
L 278.209989 213.103637 
L 277.913904 207.54143 
L 277.885851 202.303156 
L 278.205688 197.459075 
L 278.514354 195.203115 
L 278.929156 193.063224 
L 280.009644 189.314949 
L 280.685782 187.739374 
L 281.675299 186.06602 
L 282.977743 184.311778 
L 284.574004 182.497486 
L 286.432904 180.640189 
L 290.785839 176.832948 
L 303.521153 166.599234 
L 306.084661 164.306858 
L 308.567011 161.864803 
L 310.923265 159.227973 
L 313.094355 156.344494 
L 314.997279 153.164707 
L 316.518731 149.661841 
L 317.477364 146.19143 
L 317.980794 142.946693 
L 318.215628 139.672438 
L 318.210959 136.377016 
L 317.991144 133.066582 
L 317.576629 129.746824 
L 316.984858 126.423861 
L 316.231066 123.104635 
L 315.328879 119.797004 
L 314.290762 116.509697 
L 313.128321 113.252203 
L 311.852507 110.034634 
L 309.001921 103.76199 
L 305.816483 97.779894 
L 302.364653 92.177862 
L 300.556596 89.546678 
L 298.699977 87.041782 
L 296.76046 84.624604 
L 294.689738 82.231728 
L 290.187224 77.545119 
L 285.256516 73.042879 
L 279.959636 68.795616 
L 277.192343 66.791487 
L 274.355024 64.880474 
L 271.454038 63.073126 
L 268.495192 61.380443 
L 265.483639 59.814007 
L 262.423788 58.386172 
L 259.319253 57.110355 
L 256.172874 56.001424 
L 252.986902 55.076226 
L 249.763458 54.354203 
L 246.52171 53.859437 
L 243.296551 53.60475 
L 240.050402 53.568 
L 236.789929 53.730084 
L 233.521045 54.074416 
L 230.249587 54.586483 
L 226.981686 55.253406 
L 223.723933 56.063563 
L 220.483432 57.006291 
L 217.267775 58.071664 
L 214.084995 59.250328 
L 207.851965 61.912376 
L 201.854647 64.925962 
L 196.165674 68.230784 
L 190.857659 71.774481 
L 185.963009 75.543876 
L 181.200728 79.753223 
L 176.564606 84.398049 
L 172.125226 89.423007 
L 167.959346 94.775472 
L 166.004305 97.559287 
L 164.148683 100.407489 
L 162.403603 103.315217 
L 160.780731 106.278229 
L 159.292472 109.292968 
L 157.952239 112.356598 
L 156.774814 115.466951 
L 155.776823 118.622328 
L 154.97728 121.821041 
L 154.382312 125.216132 
L 154.104372 128.727034 
L 154.181494 132.158426 
L 154.555745 135.497837 
L 155.173798 138.745312 
L 155.988958 141.907742 
L 156.960795 144.994506 
L 159.23601 150.976177 
L 161.750867 156.741822 
L 166.626085 167.654866 
L 168.586502 172.732145 
L 169.371353 175.146282 
L 170.004357 177.463678 
L 170.504054 179.883538 
L 171.246946 185.13638 
L 171.7514 190.509717 
L 172.057577 195.99632 
L 172.238027 204.419314 
L 172.175527 218.896182 
L 172.188671 227.798843 
L 172.322623 233.688741 
L 172.322623 233.688741 
" style="fill:none;stroke:#ffffff;stroke-linecap:square;"/>
   </g>
   <g id="patch_3">
    <path d="M 57.6 307.584 
L 57.6 41.472 
" style="fill:none;stroke:#000000;stroke-linecap:square;stroke-linejoin:miter;stroke-width:0.8;"/>
   </g>
   <g id="patch_4">
    <path d="M 414.72 307.584 
L 414.72 41.472 
" style="fill:none;stroke:#000000;stroke-linecap:square;stroke-linejoin:miter;stroke-width:0.8;"/>
   </g>
   <g id="patch_5">
    <path d="M 57.6 307.584 
L 414.72 307.584 
" style="fill:none;stroke:#000000;stroke-linecap:square;stroke-linejoin:miter;stroke-width:0.8;"/>
   </g>
   <g id="patch_6">
    <path d="M 57.6 41.472 
L 414.72 41.472 
" style="fill:none;stroke:#000000;stroke-linecap:square;stroke-linejoin:miter;stroke-width:0.8;"/>
   </g>
  </g>
 </g>
 <defs>
  <clipPath id="p4cfa42e47b">
   <rect height="266.112" width="357.12" x="57.6" y="41.472"/>
  </clipPath>
 </defs>
</svg>
