<?xml version="1.0" encoding="utf-8" standalone="no"?>
<!DOCTYPE svg PUBLIC "-//W3C//DTD SVG 1.1//EN"
  "http://www.w3.org/Graphics/SVG/1.1/DTD/svg11.dtd">
<!-- Created with matplotlib (https://matplotlib.org/) -->
<svg height="345.6pt" version="1.1" viewBox="0 0 460.8 345.6" width="460.8pt" xmlns="http://www.w3.org/2000/svg" xmlns:xlink="http://www.w3.org/1999/xlink">
 <metadata>
  <rdf:RDF xmlns:cc="http://creativecommons.org/ns#" xmlns:dc="http://purl.org/dc/elements/1.1/" xmlns:rdf="http://www.w3.org/1999/02/22-rdf-syntax-ns#">
   <cc:Work>
    <dc:type rdf:resource="http://purl.org/dc/dcmitype/StillImage"/>
    <dc:date>2021-06-14T11:33:57.628949</dc:date>
    <dc:format>image/svg+xml</dc:format>
    <dc:creator>
     <cc:Agent>
      <dc:title>Matplotlib v3.3.3, https://matplotlib.org/</dc:title>
     </cc:Agent>
    </dc:creator>
   </cc:Work>
  </rdf:RDF>
 </metadata>
 <defs>
  <style type="text/css">*{stroke-linecap:butt;stroke-linejoin:round;}</style>
 </defs>
 <g id="figure_1">
  <g id="patch_1">
   <path d="M 0 345.6 
L 460.8 345.6 
L 460.8 0 
L 0 0 
z
" style="fill:#ffffff;"/>
  </g>
  <g id="axes_1">
   <g id="patch_2">
    <path d="M 57.6 307.584 
L 414.72 307.584 
L 414.72 41.472 
L 57.6 41.472 
z
" style="fill:#7d9051;"/>
   </g>
   <g id="matplotlib.axis_1">
    <g id="xtick_1">
     <g id="line2d_1">
      <defs>
       <path d="M 0 0 
L 0 3.5 
" id="m2637156b32" style="stroke:#000000;stroke-width:0.8;"/>
      </defs>
      <g>
       <use style="stroke:#000000;stroke-width:0.8;" x="84.531849" xlink:href="#m2637156b32" y="307.584"/>
      </g>
     </g>
     <g id="text_1">
      <!-- −140 -->
      <g transform="translate(70.798255 322.182437)scale(0.1 -0.1)">
       <defs>
        <path d="M 10.59375 35.5 
L 73.1875 35.5 
L 73.1875 27.203125 
L 10.59375 27.203125 
z
" id="DejaVuSans-8722"/>
        <path d="M 12.40625 8.296875 
L 28.515625 8.296875 
L 28.515625 63.921875 
L 10.984375 60.40625 
L 10.984375 69.390625 
L 28.421875 72.90625 
L 38.28125 72.90625 
L 38.28125 8.296875 
L 54.390625 8.296875 
L 54.390625 0 
L 12.40625 0 
z
" id="DejaVuSans-49"/>
        <path d="M 37.796875 64.3125 
L 12.890625 25.390625 
L 37.796875 25.390625 
z
M 35.203125 72.90625 
L 47.609375 72.90625 
L 47.609375 25.390625 
L 58.015625 25.390625 
L 58.015625 17.1875 
L 47.609375 17.1875 
L 47.609375 0 
L 37.796875 0 
L 37.796875 17.1875 
L 4.890625 17.1875 
L 4.890625 26.703125 
z
" id="DejaVuSans-52"/>
        <path d="M 31.78125 66.40625 
Q 24.171875 66.40625 20.328125 58.90625 
Q 16.5 51.421875 16.5 36.375 
Q 16.5 21.390625 20.328125 13.890625 
Q 24.171875 6.390625 31.78125 6.390625 
Q 39.453125 6.390625 43.28125 13.890625 
Q 47.125 21.390625 47.125 36.375 
Q 47.125 51.421875 43.28125 58.90625 
Q 39.453125 66.40625 31.78125 66.40625 
z
M 31.78125 74.21875 
Q 44.046875 74.21875 50.515625 64.515625 
Q 56.984375 54.828125 56.984375 36.375 
Q 56.984375 17.96875 50.515625 8.265625 
Q 44.046875 -1.421875 31.78125 -1.421875 
Q 19.53125 -1.421875 13.0625 8.265625 
Q 6.59375 17.96875 6.59375 36.375 
Q 6.59375 54.828125 13.0625 64.515625 
Q 19.53125 74.21875 31.78125 74.21875 
z
" id="DejaVuSans-48"/>
       </defs>
       <use xlink:href="#DejaVuSans-8722"/>
       <use x="83.789062" xlink:href="#DejaVuSans-49"/>
       <use x="147.412109" xlink:href="#DejaVuSans-52"/>
       <use x="211.035156" xlink:href="#DejaVuSans-48"/>
      </g>
     </g>
    </g>
    <g id="xtick_2">
     <g id="line2d_2">
      <g>
       <use style="stroke:#000000;stroke-width:0.8;" x="127.815641" xlink:href="#m2637156b32" y="307.584"/>
      </g>
     </g>
     <g id="text_2">
      <!-- −120 -->
      <g transform="translate(114.082048 322.182437)scale(0.1 -0.1)">
       <defs>
        <path d="M 19.1875 8.296875 
L 53.609375 8.296875 
L 53.609375 0 
L 7.328125 0 
L 7.328125 8.296875 
Q 12.9375 14.109375 22.625 23.890625 
Q 32.328125 33.6875 34.8125 36.53125 
Q 39.546875 41.84375 41.421875 45.53125 
Q 43.3125 49.21875 43.3125 52.78125 
Q 43.3125 58.59375 39.234375 62.25 
Q 35.15625 65.921875 28.609375 65.921875 
Q 23.96875 65.921875 18.8125 64.3125 
Q 13.671875 62.703125 7.8125 59.421875 
L 7.8125 69.390625 
Q 13.765625 71.78125 18.9375 73 
Q 24.125 74.21875 28.421875 74.21875 
Q 39.75 74.21875 46.484375 68.546875 
Q 53.21875 62.890625 53.21875 53.421875 
Q 53.21875 48.921875 51.53125 44.890625 
Q 49.859375 40.875 45.40625 35.40625 
Q 44.1875 33.984375 37.640625 27.21875 
Q 31.109375 20.453125 19.1875 8.296875 
z
" id="DejaVuSans-50"/>
       </defs>
       <use xlink:href="#DejaVuSans-8722"/>
       <use x="83.789062" xlink:href="#DejaVuSans-49"/>
       <use x="147.412109" xlink:href="#DejaVuSans-50"/>
       <use x="211.035156" xlink:href="#DejaVuSans-48"/>
      </g>
     </g>
    </g>
    <g id="xtick_3">
     <g id="line2d_3">
      <g>
       <use style="stroke:#000000;stroke-width:0.8;" x="171.099434" xlink:href="#m2637156b32" y="307.584"/>
      </g>
     </g>
     <g id="text_3">
      <!-- −100 -->
      <g transform="translate(157.36584 322.182437)scale(0.1 -0.1)">
       <use xlink:href="#DejaVuSans-8722"/>
       <use x="83.789062" xlink:href="#DejaVuSans-49"/>
       <use x="147.412109" xlink:href="#DejaVuSans-48"/>
       <use x="211.035156" xlink:href="#DejaVuSans-48"/>
      </g>
     </g>
    </g>
    <g id="xtick_4">
     <g id="line2d_4">
      <g>
       <use style="stroke:#000000;stroke-width:0.8;" x="214.383226" xlink:href="#m2637156b32" y="307.584"/>
      </g>
     </g>
     <g id="text_4">
      <!-- −80 -->
      <g transform="translate(203.830883 322.182437)scale(0.1 -0.1)">
       <defs>
        <path d="M 31.78125 34.625 
Q 24.75 34.625 20.71875 30.859375 
Q 16.703125 27.09375 16.703125 20.515625 
Q 16.703125 13.921875 20.71875 10.15625 
Q 24.75 6.390625 31.78125 6.390625 
Q 38.8125 6.390625 42.859375 10.171875 
Q 46.921875 13.96875 46.921875 20.515625 
Q 46.921875 27.09375 42.890625 30.859375 
Q 38.875 34.625 31.78125 34.625 
z
M 21.921875 38.8125 
Q 15.578125 40.375 12.03125 44.71875 
Q 8.5 49.078125 8.5 55.328125 
Q 8.5 64.0625 14.71875 69.140625 
Q 20.953125 74.21875 31.78125 74.21875 
Q 42.671875 74.21875 48.875 69.140625 
Q 55.078125 64.0625 55.078125 55.328125 
Q 55.078125 49.078125 51.53125 44.71875 
Q 48 40.375 41.703125 38.8125 
Q 48.828125 37.15625 52.796875 32.3125 
Q 56.78125 27.484375 56.78125 20.515625 
Q 56.78125 9.90625 50.3125 4.234375 
Q 43.84375 -1.421875 31.78125 -1.421875 
Q 19.734375 -1.421875 13.25 4.234375 
Q 6.78125 9.90625 6.78125 20.515625 
Q 6.78125 27.484375 10.78125 32.3125 
Q 14.796875 37.15625 21.921875 38.8125 
z
M 18.3125 54.390625 
Q 18.3125 48.734375 21.84375 45.5625 
Q 25.390625 42.390625 31.78125 42.390625 
Q 38.140625 42.390625 41.71875 45.5625 
Q 45.3125 48.734375 45.3125 54.390625 
Q 45.3125 60.0625 41.71875 63.234375 
Q 38.140625 66.40625 31.78125 66.40625 
Q 25.390625 66.40625 21.84375 63.234375 
Q 18.3125 60.0625 18.3125 54.390625 
z
" id="DejaVuSans-56"/>
       </defs>
       <use xlink:href="#DejaVuSans-8722"/>
       <use x="83.789062" xlink:href="#DejaVuSans-56"/>
       <use x="147.412109" xlink:href="#DejaVuSans-48"/>
      </g>
     </g>
    </g>
    <g id="xtick_5">
     <g id="line2d_5">
      <g>
       <use style="stroke:#000000;stroke-width:0.8;" x="257.667019" xlink:href="#m2637156b32" y="307.584"/>
      </g>
     </g>
     <g id="text_5">
      <!-- −60 -->
      <g transform="translate(247.114675 322.182437)scale(0.1 -0.1)">
       <defs>
        <path d="M 33.015625 40.375 
Q 26.375 40.375 22.484375 35.828125 
Q 18.609375 31.296875 18.609375 23.390625 
Q 18.609375 15.53125 22.484375 10.953125 
Q 26.375 6.390625 33.015625 6.390625 
Q 39.65625 6.390625 43.53125 10.953125 
Q 47.40625 15.53125 47.40625 23.390625 
Q 47.40625 31.296875 43.53125 35.828125 
Q 39.65625 40.375 33.015625 40.375 
z
M 52.59375 71.296875 
L 52.59375 62.3125 
Q 48.875 64.0625 45.09375 64.984375 
Q 41.3125 65.921875 37.59375 65.921875 
Q 27.828125 65.921875 22.671875 59.328125 
Q 17.53125 52.734375 16.796875 39.40625 
Q 19.671875 43.65625 24.015625 45.921875 
Q 28.375 48.1875 33.59375 48.1875 
Q 44.578125 48.1875 50.953125 41.515625 
Q 57.328125 34.859375 57.328125 23.390625 
Q 57.328125 12.15625 50.6875 5.359375 
Q 44.046875 -1.421875 33.015625 -1.421875 
Q 20.359375 -1.421875 13.671875 8.265625 
Q 6.984375 17.96875 6.984375 36.375 
Q 6.984375 53.65625 15.1875 63.9375 
Q 23.390625 74.21875 37.203125 74.21875 
Q 40.921875 74.21875 44.703125 73.484375 
Q 48.484375 72.75 52.59375 71.296875 
z
" id="DejaVuSans-54"/>
       </defs>
       <use xlink:href="#DejaVuSans-8722"/>
       <use x="83.789062" xlink:href="#DejaVuSans-54"/>
       <use x="147.412109" xlink:href="#DejaVuSans-48"/>
      </g>
     </g>
    </g>
    <g id="xtick_6">
     <g id="line2d_6">
      <g>
       <use style="stroke:#000000;stroke-width:0.8;" x="300.950811" xlink:href="#m2637156b32" y="307.584"/>
      </g>
     </g>
     <g id="text_6">
      <!-- −40 -->
      <g transform="translate(290.398468 322.182437)scale(0.1 -0.1)">
       <use xlink:href="#DejaVuSans-8722"/>
       <use x="83.789062" xlink:href="#DejaVuSans-52"/>
       <use x="147.412109" xlink:href="#DejaVuSans-48"/>
      </g>
     </g>
    </g>
    <g id="xtick_7">
     <g id="line2d_7">
      <g>
       <use style="stroke:#000000;stroke-width:0.8;" x="344.234604" xlink:href="#m2637156b32" y="307.584"/>
      </g>
     </g>
     <g id="text_7">
      <!-- −20 -->
      <g transform="translate(333.68226 322.182437)scale(0.1 -0.1)">
       <use xlink:href="#DejaVuSans-8722"/>
       <use x="83.789062" xlink:href="#DejaVuSans-50"/>
       <use x="147.412109" xlink:href="#DejaVuSans-48"/>
      </g>
     </g>
    </g>
    <g id="xtick_8">
     <g id="line2d_8">
      <g>
       <use style="stroke:#000000;stroke-width:0.8;" x="387.518396" xlink:href="#m2637156b32" y="307.584"/>
      </g>
     </g>
     <g id="text_8">
      <!-- 0 -->
      <g transform="translate(384.337146 322.182437)scale(0.1 -0.1)">
       <use xlink:href="#DejaVuSans-48"/>
      </g>
     </g>
    </g>
   </g>
   <g id="matplotlib.axis_2">
    <g id="ytick_1">
     <g id="line2d_9">
      <defs>
       <path d="M 0 0 
L -3.5 0 
" id="m1bfab46008" style="stroke:#000000;stroke-width:0.8;"/>
      </defs>
      <g>
       <use style="stroke:#000000;stroke-width:0.8;" x="57.6" xlink:href="#m1bfab46008" y="286.7122"/>
      </g>
     </g>
     <g id="text_9">
      <!-- 0 -->
      <g transform="translate(44.2375 290.511419)scale(0.1 -0.1)">
       <use xlink:href="#DejaVuSans-48"/>
      </g>
     </g>
    </g>
    <g id="ytick_2">
     <g id="line2d_10">
      <g>
       <use style="stroke:#000000;stroke-width:0.8;" x="57.6" xlink:href="#m1bfab46008" y="243.428408"/>
      </g>
     </g>
     <g id="text_10">
      <!-- 20 -->
      <g transform="translate(37.875 247.227627)scale(0.1 -0.1)">
       <use xlink:href="#DejaVuSans-50"/>
       <use x="63.623047" xlink:href="#DejaVuSans-48"/>
      </g>
     </g>
    </g>
    <g id="ytick_3">
     <g id="line2d_11">
      <g>
       <use style="stroke:#000000;stroke-width:0.8;" x="57.6" xlink:href="#m1bfab46008" y="200.144615"/>
      </g>
     </g>
     <g id="text_11">
      <!-- 40 -->
      <g transform="translate(37.875 203.943834)scale(0.1 -0.1)">
       <use xlink:href="#DejaVuSans-52"/>
       <use x="63.623047" xlink:href="#DejaVuSans-48"/>
      </g>
     </g>
    </g>
    <g id="ytick_4">
     <g id="line2d_12">
      <g>
       <use style="stroke:#000000;stroke-width:0.8;" x="57.6" xlink:href="#m1bfab46008" y="156.860823"/>
      </g>
     </g>
     <g id="text_12">
      <!-- 60 -->
      <g transform="translate(37.875 160.660042)scale(0.1 -0.1)">
       <use xlink:href="#DejaVuSans-54"/>
       <use x="63.623047" xlink:href="#DejaVuSans-48"/>
      </g>
     </g>
    </g>
    <g id="ytick_5">
     <g id="line2d_13">
      <g>
       <use style="stroke:#000000;stroke-width:0.8;" x="57.6" xlink:href="#m1bfab46008" y="113.57703"/>
      </g>
     </g>
     <g id="text_13">
      <!-- 80 -->
      <g transform="translate(37.875 117.376249)scale(0.1 -0.1)">
       <use xlink:href="#DejaVuSans-56"/>
       <use x="63.623047" xlink:href="#DejaVuSans-48"/>
      </g>
     </g>
    </g>
    <g id="ytick_6">
     <g id="line2d_14">
      <g>
       <use style="stroke:#000000;stroke-width:0.8;" x="57.6" xlink:href="#m1bfab46008" y="70.293238"/>
      </g>
     </g>
     <g id="text_14">
      <!-- 100 -->
      <g transform="translate(31.5125 74.092457)scale(0.1 -0.1)">
       <use xlink:href="#DejaVuSans-49"/>
       <use x="63.623047" xlink:href="#DejaVuSans-48"/>
       <use x="127.246094" xlink:href="#DejaVuSans-48"/>
      </g>
     </g>
    </g>
   </g>
   <g id="line2d_15">
    <path clip-path="url(#peb61f483d1)" d="M 387.518396 286.7122 
L 387.796897 266.781305 
L 388.608686 226.918071 
L 389.213802 212.657212 
L 389.750336 198.401149 
L 389.825361 189.864775 
L 389.703922 184.185849 
L 388.983703 166.614628 
L 388.681877 154.179527 
L 388.288074 148.06286 
L 387.578526 142.17336 
L 387.069298 139.351277 
L 386.437871 136.63096 
L 385.669827 134.027401 
L 384.750745 131.555592 
L 383.666205 129.230524 
L 382.401785 127.067189 
L 380.943066 125.080579 
L 379.270551 123.273239 
L 377.386167 121.629384 
L 375.307628 120.136503 
L 373.05265 118.782089 
L 370.638948 117.553631 
L 368.084235 116.438622 
L 365.406226 115.424551 
L 359.751182 113.64919 
L 353.815532 112.127477 
L 341.66929 109.444708 
L 335.742132 108.083508 
L 330.10124 106.575667 
L 313.638307 101.784388 
L 305.332564 99.564796 
L 296.98553 97.584208 
L 291.400949 96.441646 
L 285.802586 95.472885 
L 280.19227 94.704955 
L 274.568945 94.167129 
L 268.918575 93.876246 
L 263.243773 93.801162 
L 257.5502 93.905867 
L 248.987019 94.32125 
L 237.556556 95.168242 
L 217.589249 96.911426 
L 211.800062 97.878325 
L 203.061231 99.67236 
L 194.353177 101.454148 
L 188.618703 102.399274 
L 182.978604 102.985062 
L 180.204031 103.098968 
L 177.465157 103.069956 
L 174.766015 102.880331 
L 172.110642 102.512398 
L 169.50307 101.948463 
L 166.949665 101.105455 
L 164.450592 99.939737 
L 162.000592 98.49276 
L 159.594408 96.805977 
L 157.226778 94.920842 
L 152.586146 90.721321 
L 141.291134 79.653012 
L 139.042612 77.673341 
L 136.785311 75.868389 
L 134.513973 74.279609 
L 132.223338 72.948453 
L 129.908148 71.916375 
L 127.563142 71.224826 
L 125.183061 70.915258 
L 122.77685 70.967167 
L 120.357698 71.315474 
L 117.926715 71.934774 
L 115.485008 72.79966 
L 113.033688 73.884729 
L 110.573865 75.164573 
L 108.106646 76.613787 
L 103.154461 79.918705 
L 98.186007 83.596238 
L 85.751932 93.086468 
L 80.796419 96.467603 
L 78.326982 97.967629 
L 78.326982 97.967629 
" style="fill:none;stroke:#fea952;stroke-linecap:square;"/>
   </g>
   <g id="line2d_16">
    <path clip-path="url(#peb61f483d1)" d="M 378.862038 286.628914 
L 379.141607 266.621855 
L 379.957443 226.609083 
L 380.565915 212.265391 
L 381.095123 198.237579 
L 381.169496 189.989183 
L 381.055499 184.56565 
L 380.328109 166.756586 
L 380.037466 154.641735 
L 379.677194 148.952928 
L 379.05935 143.710597 
L 378.134857 139.08033 
L 377.555815 137.044399 
L 376.905502 135.215049 
L 376.192402 133.59879 
L 375.424068 132.190755 
L 374.589417 130.960257 
L 373.579807 129.796652 
L 372.336155 128.660518 
L 370.850309 127.557539 
L 369.12608 126.497108 
L 367.176136 125.487634 
L 365.018639 124.534398 
L 362.674622 123.639038 
L 357.51567 122.012321 
L 351.874095 120.563726 
L 339.780694 117.892943 
L 333.606577 116.472719 
L 327.641495 114.875614 
L 311.340679 110.130667 
L 303.242266 107.965399 
L 295.190954 106.052913 
L 289.854899 104.959228 
L 284.547751 104.038214 
L 279.272358 103.312698 
L 274.034118 102.80735 
L 268.72847 102.530917 
L 263.341538 102.457369 
L 257.879346 102.556366 
L 249.559344 102.959069 
L 238.263912 103.796053 
L 218.918291 105.465554 
L 213.46396 106.373671 
L 204.861151 108.139931 
L 195.860249 109.978713 
L 189.669825 110.991981 
L 186.51985 111.371431 
L 183.333695 111.634535 
L 180.112337 111.755241 
L 176.858481 111.70543 
L 173.577872 111.455165 
L 170.280763 110.973545 
L 166.789123 110.168801 
L 163.290176 108.950684 
L 160.048337 107.393569 
L 157.031419 105.581256 
L 154.202229 103.578265 
L 151.527062 101.436416 
L 146.535849 96.912715 
L 133.636401 84.434432 
L 131.823411 82.961978 
L 130.164396 81.764303 
L 128.698643 80.855159 
L 126.446598 79.809276 
L 125.369769 79.570003 
L 124.01052 79.53557 
L 122.494774 79.704299 
L 120.817092 80.094748 
L 118.988962 80.715579 
L 117.029316 81.56421 
L 114.958316 82.628892 
L 112.794242 83.891555 
L 108.244751 86.920734 
L 103.466689 90.45582 
L 90.73444 100.165598 
L 85.290673 103.866329 
L 82.821236 105.366355 
L 82.821236 105.366355 
" style="fill:none;stroke:#ffffff;stroke-linecap:square;"/>
   </g>
   <g id="line2d_17">
    <path clip-path="url(#peb61f483d1)" d="M 396.174754 286.795487 
L 396.452186 266.940755 
L 397.259928 227.227059 
L 397.861689 213.049033 
L 398.326793 201.48452 
L 398.487273 192.692389 
L 398.437799 186.778147 
L 398.220159 180.824438 
L 397.776137 172.46251 
L 397.149459 150.449035 
L 396.555454 143.898716 
L 396.097703 140.636124 
L 395.501874 137.39395 
L 394.740886 134.181589 
L 393.783839 131.010403 
L 392.595989 127.896135 
L 391.140007 124.862258 
L 389.379502 121.943623 
L 387.296715 119.2009 
L 384.961294 116.749827 
L 382.436178 114.59825 
L 379.764948 112.715468 
L 376.979221 111.06707 
L 374.101759 109.619628 
L 371.14983 108.342845 
L 368.137831 107.210063 
L 361.986693 105.286059 
L 355.75697 103.691229 
L 343.557885 100.996473 
L 337.877687 99.694296 
L 332.560986 98.27572 
L 315.935935 93.438109 
L 307.422863 91.164194 
L 298.780107 89.115503 
L 292.946998 87.924064 
L 287.057421 86.907556 
L 281.112182 86.097213 
L 275.103773 85.526907 
L 269.10868 85.221575 
L 263.146009 85.144956 
L 257.221053 85.255368 
L 248.414694 85.683432 
L 236.849199 86.540432 
L 219.37906 87.960883 
L 213.178866 88.838281 
L 207.133855 89.971536 
L 190.168955 93.405288 
L 185.049828 94.120434 
L 180.295725 94.442695 
L 178.071833 94.434482 
L 175.954158 94.305496 
L 172.217017 93.728124 
L 170.609153 93.260226 
L 168.852847 92.485904 
L 166.969766 91.404264 
L 164.986586 90.03369 
L 162.926493 88.405267 
L 158.636444 84.529926 
L 147.011612 73.155659 
L 144.448823 70.91225 
L 141.747212 68.774799 
L 138.86355 66.794915 
L 135.748034 65.041748 
L 132.356794 63.613147 
L 128.679686 62.640375 
L 124.996354 62.260513 
L 121.543181 62.398764 
L 118.220623 62.92665 
L 115.036337 63.774799 
L 111.981054 64.883741 
L 109.038061 66.205247 
L 106.189414 67.700254 
L 103.41905 69.336019 
L 98.06417 72.916676 
L 92.905325 76.736656 
L 80.769423 86.007339 
L 76.302164 89.068877 
L 73.832727 90.568903 
L 73.832727 90.568903 
" style="fill:none;stroke:#ffffff;stroke-linecap:square;"/>
   </g>
   <g id="patch_3">
    <path d="M 57.6 307.584 
L 57.6 41.472 
" style="fill:none;stroke:#000000;stroke-linecap:square;stroke-linejoin:miter;stroke-width:0.8;"/>
   </g>
   <g id="patch_4">
    <path d="M 414.72 307.584 
L 414.72 41.472 
" style="fill:none;stroke:#000000;stroke-linecap:square;stroke-linejoin:miter;stroke-width:0.8;"/>
   </g>
   <g id="patch_5">
    <path d="M 57.6 307.584 
L 414.72 307.584 
" style="fill:none;stroke:#000000;stroke-linecap:square;stroke-linejoin:miter;stroke-width:0.8;"/>
   </g>
   <g id="patch_6">
    <path d="M 57.6 41.472 
L 414.72 41.472 
" style="fill:none;stroke:#000000;stroke-linecap:square;stroke-linejoin:miter;stroke-width:0.8;"/>
   </g>
  </g>
 </g>
 <defs>
  <clipPath id="peb61f483d1">
   <rect height="266.112" width="357.12" x="57.6" y="41.472"/>
  </clipPath>
 </defs>
</svg>
