<?xml version="1.0" encoding="utf-8" standalone="no"?>
<!DOCTYPE svg PUBLIC "-//W3C//DTD SVG 1.1//EN"
  "http://www.w3.org/Graphics/SVG/1.1/DTD/svg11.dtd">
<!-- Created with matplotlib (https://matplotlib.org/) -->
<svg height="345.6pt" version="1.1" viewBox="0 0 460.8 345.6" width="460.8pt" xmlns="http://www.w3.org/2000/svg" xmlns:xlink="http://www.w3.org/1999/xlink">
 <metadata>
  <rdf:RDF xmlns:cc="http://creativecommons.org/ns#" xmlns:dc="http://purl.org/dc/elements/1.1/" xmlns:rdf="http://www.w3.org/1999/02/22-rdf-syntax-ns#">
   <cc:Work>
    <dc:type rdf:resource="http://purl.org/dc/dcmitype/StillImage"/>
    <dc:date>2021-06-04T07:52:27.489343</dc:date>
    <dc:format>image/svg+xml</dc:format>
    <dc:creator>
     <cc:Agent>
      <dc:title>Matplotlib v3.3.3, https://matplotlib.org/</dc:title>
     </cc:Agent>
    </dc:creator>
   </cc:Work>
  </rdf:RDF>
 </metadata>
 <defs>
  <style type="text/css">*{stroke-linecap:butt;stroke-linejoin:round;}</style>
 </defs>
 <g id="figure_1">
  <g id="patch_1">
   <path d="M 0 345.6 
L 460.8 345.6 
L 460.8 0 
L 0 0 
z
" style="fill:#ffffff;"/>
  </g>
  <g id="axes_1">
   <g id="patch_2">
    <path d="M 57.6 307.584 
L 414.72 307.584 
L 414.72 41.472 
L 57.6 41.472 
z
" style="fill:#7d9051;"/>
   </g>
   <g id="matplotlib.axis_1">
    <g id="xtick_1">
     <g id="line2d_1">
      <defs>
       <path d="M 0 0 
L 0 3.5 
" id="mdf05433921" style="stroke:#000000;stroke-width:0.8;"/>
      </defs>
      <g>
       <use style="stroke:#000000;stroke-width:0.8;" x="89.032037" xlink:href="#mdf05433921" y="307.584"/>
      </g>
     </g>
     <g id="text_1">
      <!-- −75 -->
      <g transform="translate(78.479694 322.182437)scale(0.1 -0.1)">
       <defs>
        <path d="M 10.59375 35.5 
L 73.1875 35.5 
L 73.1875 27.203125 
L 10.59375 27.203125 
z
" id="DejaVuSans-8722"/>
        <path d="M 8.203125 72.90625 
L 55.078125 72.90625 
L 55.078125 68.703125 
L 28.609375 0 
L 18.3125 0 
L 43.21875 64.59375 
L 8.203125 64.59375 
z
" id="DejaVuSans-55"/>
        <path d="M 10.796875 72.90625 
L 49.515625 72.90625 
L 49.515625 64.59375 
L 19.828125 64.59375 
L 19.828125 46.734375 
Q 21.96875 47.46875 24.109375 47.828125 
Q 26.265625 48.1875 28.421875 48.1875 
Q 40.625 48.1875 47.75 41.5 
Q 54.890625 34.8125 54.890625 23.390625 
Q 54.890625 11.625 47.5625 5.09375 
Q 40.234375 -1.421875 26.90625 -1.421875 
Q 22.3125 -1.421875 17.546875 -0.640625 
Q 12.796875 0.140625 7.71875 1.703125 
L 7.71875 11.625 
Q 12.109375 9.234375 16.796875 8.0625 
Q 21.484375 6.890625 26.703125 6.890625 
Q 35.15625 6.890625 40.078125 11.328125 
Q 45.015625 15.765625 45.015625 23.390625 
Q 45.015625 31 40.078125 35.4375 
Q 35.15625 39.890625 26.703125 39.890625 
Q 22.75 39.890625 18.8125 39.015625 
Q 14.890625 38.140625 10.796875 36.28125 
z
" id="DejaVuSans-53"/>
       </defs>
       <use xlink:href="#DejaVuSans-8722"/>
       <use x="83.789062" xlink:href="#DejaVuSans-55"/>
       <use x="147.412109" xlink:href="#DejaVuSans-53"/>
      </g>
     </g>
    </g>
    <g id="xtick_2">
     <g id="line2d_2">
      <g>
       <use style="stroke:#000000;stroke-width:0.8;" x="138.20687" xlink:href="#mdf05433921" y="307.584"/>
      </g>
     </g>
     <g id="text_2">
      <!-- −50 -->
      <g transform="translate(127.654526 322.182437)scale(0.1 -0.1)">
       <defs>
        <path d="M 31.78125 66.40625 
Q 24.171875 66.40625 20.328125 58.90625 
Q 16.5 51.421875 16.5 36.375 
Q 16.5 21.390625 20.328125 13.890625 
Q 24.171875 6.390625 31.78125 6.390625 
Q 39.453125 6.390625 43.28125 13.890625 
Q 47.125 21.390625 47.125 36.375 
Q 47.125 51.421875 43.28125 58.90625 
Q 39.453125 66.40625 31.78125 66.40625 
z
M 31.78125 74.21875 
Q 44.046875 74.21875 50.515625 64.515625 
Q 56.984375 54.828125 56.984375 36.375 
Q 56.984375 17.96875 50.515625 8.265625 
Q 44.046875 -1.421875 31.78125 -1.421875 
Q 19.53125 -1.421875 13.0625 8.265625 
Q 6.59375 17.96875 6.59375 36.375 
Q 6.59375 54.828125 13.0625 64.515625 
Q 19.53125 74.21875 31.78125 74.21875 
z
" id="DejaVuSans-48"/>
       </defs>
       <use xlink:href="#DejaVuSans-8722"/>
       <use x="83.789062" xlink:href="#DejaVuSans-53"/>
       <use x="147.412109" xlink:href="#DejaVuSans-48"/>
      </g>
     </g>
    </g>
    <g id="xtick_3">
     <g id="line2d_3">
      <g>
       <use style="stroke:#000000;stroke-width:0.8;" x="187.381703" xlink:href="#mdf05433921" y="307.584"/>
      </g>
     </g>
     <g id="text_3">
      <!-- −25 -->
      <g transform="translate(176.829359 322.182437)scale(0.1 -0.1)">
       <defs>
        <path d="M 19.1875 8.296875 
L 53.609375 8.296875 
L 53.609375 0 
L 7.328125 0 
L 7.328125 8.296875 
Q 12.9375 14.109375 22.625 23.890625 
Q 32.328125 33.6875 34.8125 36.53125 
Q 39.546875 41.84375 41.421875 45.53125 
Q 43.3125 49.21875 43.3125 52.78125 
Q 43.3125 58.59375 39.234375 62.25 
Q 35.15625 65.921875 28.609375 65.921875 
Q 23.96875 65.921875 18.8125 64.3125 
Q 13.671875 62.703125 7.8125 59.421875 
L 7.8125 69.390625 
Q 13.765625 71.78125 18.9375 73 
Q 24.125 74.21875 28.421875 74.21875 
Q 39.75 74.21875 46.484375 68.546875 
Q 53.21875 62.890625 53.21875 53.421875 
Q 53.21875 48.921875 51.53125 44.890625 
Q 49.859375 40.875 45.40625 35.40625 
Q 44.1875 33.984375 37.640625 27.21875 
Q 31.109375 20.453125 19.1875 8.296875 
z
" id="DejaVuSans-50"/>
       </defs>
       <use xlink:href="#DejaVuSans-8722"/>
       <use x="83.789062" xlink:href="#DejaVuSans-50"/>
       <use x="147.412109" xlink:href="#DejaVuSans-53"/>
      </g>
     </g>
    </g>
    <g id="xtick_4">
     <g id="line2d_4">
      <g>
       <use style="stroke:#000000;stroke-width:0.8;" x="236.556536" xlink:href="#mdf05433921" y="307.584"/>
      </g>
     </g>
     <g id="text_4">
      <!-- 0 -->
      <g transform="translate(233.375286 322.182437)scale(0.1 -0.1)">
       <use xlink:href="#DejaVuSans-48"/>
      </g>
     </g>
    </g>
    <g id="xtick_5">
     <g id="line2d_5">
      <g>
       <use style="stroke:#000000;stroke-width:0.8;" x="285.731368" xlink:href="#mdf05433921" y="307.584"/>
      </g>
     </g>
     <g id="text_5">
      <!-- 25 -->
      <g transform="translate(279.368868 322.182437)scale(0.1 -0.1)">
       <use xlink:href="#DejaVuSans-50"/>
       <use x="63.623047" xlink:href="#DejaVuSans-53"/>
      </g>
     </g>
    </g>
    <g id="xtick_6">
     <g id="line2d_6">
      <g>
       <use style="stroke:#000000;stroke-width:0.8;" x="334.906201" xlink:href="#mdf05433921" y="307.584"/>
      </g>
     </g>
     <g id="text_6">
      <!-- 50 -->
      <g transform="translate(328.543701 322.182437)scale(0.1 -0.1)">
       <use xlink:href="#DejaVuSans-53"/>
       <use x="63.623047" xlink:href="#DejaVuSans-48"/>
      </g>
     </g>
    </g>
    <g id="xtick_7">
     <g id="line2d_7">
      <g>
       <use style="stroke:#000000;stroke-width:0.8;" x="384.081034" xlink:href="#mdf05433921" y="307.584"/>
      </g>
     </g>
     <g id="text_7">
      <!-- 75 -->
      <g transform="translate(377.718534 322.182437)scale(0.1 -0.1)">
       <use xlink:href="#DejaVuSans-55"/>
       <use x="63.623047" xlink:href="#DejaVuSans-53"/>
      </g>
     </g>
    </g>
   </g>
   <g id="matplotlib.axis_2">
    <g id="ytick_1">
     <g id="line2d_8">
      <defs>
       <path d="M 0 0 
L -3.5 0 
" id="mf6f36603f2" style="stroke:#000000;stroke-width:0.8;"/>
      </defs>
      <g>
       <use style="stroke:#000000;stroke-width:0.8;" x="57.6" xlink:href="#mf6f36603f2" y="295.412303"/>
      </g>
     </g>
     <g id="text_8">
      <!-- 0 -->
      <g transform="translate(44.2375 299.211521)scale(0.1 -0.1)">
       <use xlink:href="#DejaVuSans-48"/>
      </g>
     </g>
    </g>
    <g id="ytick_2">
     <g id="line2d_9">
      <g>
       <use style="stroke:#000000;stroke-width:0.8;" x="57.6" xlink:href="#mf6f36603f2" y="256.072437"/>
      </g>
     </g>
     <g id="text_9">
      <!-- 20 -->
      <g transform="translate(37.875 259.871655)scale(0.1 -0.1)">
       <use xlink:href="#DejaVuSans-50"/>
       <use x="63.623047" xlink:href="#DejaVuSans-48"/>
      </g>
     </g>
    </g>
    <g id="ytick_3">
     <g id="line2d_10">
      <g>
       <use style="stroke:#000000;stroke-width:0.8;" x="57.6" xlink:href="#mf6f36603f2" y="216.73257"/>
      </g>
     </g>
     <g id="text_10">
      <!-- 40 -->
      <g transform="translate(37.875 220.531789)scale(0.1 -0.1)">
       <defs>
        <path d="M 37.796875 64.3125 
L 12.890625 25.390625 
L 37.796875 25.390625 
z
M 35.203125 72.90625 
L 47.609375 72.90625 
L 47.609375 25.390625 
L 58.015625 25.390625 
L 58.015625 17.1875 
L 47.609375 17.1875 
L 47.609375 0 
L 37.796875 0 
L 37.796875 17.1875 
L 4.890625 17.1875 
L 4.890625 26.703125 
z
" id="DejaVuSans-52"/>
       </defs>
       <use xlink:href="#DejaVuSans-52"/>
       <use x="63.623047" xlink:href="#DejaVuSans-48"/>
      </g>
     </g>
    </g>
    <g id="ytick_4">
     <g id="line2d_11">
      <g>
       <use style="stroke:#000000;stroke-width:0.8;" x="57.6" xlink:href="#mf6f36603f2" y="177.392704"/>
      </g>
     </g>
     <g id="text_11">
      <!-- 60 -->
      <g transform="translate(37.875 181.191923)scale(0.1 -0.1)">
       <defs>
        <path d="M 33.015625 40.375 
Q 26.375 40.375 22.484375 35.828125 
Q 18.609375 31.296875 18.609375 23.390625 
Q 18.609375 15.53125 22.484375 10.953125 
Q 26.375 6.390625 33.015625 6.390625 
Q 39.65625 6.390625 43.53125 10.953125 
Q 47.40625 15.53125 47.40625 23.390625 
Q 47.40625 31.296875 43.53125 35.828125 
Q 39.65625 40.375 33.015625 40.375 
z
M 52.59375 71.296875 
L 52.59375 62.3125 
Q 48.875 64.0625 45.09375 64.984375 
Q 41.3125 65.921875 37.59375 65.921875 
Q 27.828125 65.921875 22.671875 59.328125 
Q 17.53125 52.734375 16.796875 39.40625 
Q 19.671875 43.65625 24.015625 45.921875 
Q 28.375 48.1875 33.59375 48.1875 
Q 44.578125 48.1875 50.953125 41.515625 
Q 57.328125 34.859375 57.328125 23.390625 
Q 57.328125 12.15625 50.6875 5.359375 
Q 44.046875 -1.421875 33.015625 -1.421875 
Q 20.359375 -1.421875 13.671875 8.265625 
Q 6.984375 17.96875 6.984375 36.375 
Q 6.984375 53.65625 15.1875 63.9375 
Q 23.390625 74.21875 37.203125 74.21875 
Q 40.921875 74.21875 44.703125 73.484375 
Q 48.484375 72.75 52.59375 71.296875 
z
" id="DejaVuSans-54"/>
       </defs>
       <use xlink:href="#DejaVuSans-54"/>
       <use x="63.623047" xlink:href="#DejaVuSans-48"/>
      </g>
     </g>
    </g>
    <g id="ytick_5">
     <g id="line2d_12">
      <g>
       <use style="stroke:#000000;stroke-width:0.8;" x="57.6" xlink:href="#mf6f36603f2" y="138.052838"/>
      </g>
     </g>
     <g id="text_12">
      <!-- 80 -->
      <g transform="translate(37.875 141.852057)scale(0.1 -0.1)">
       <defs>
        <path d="M 31.78125 34.625 
Q 24.75 34.625 20.71875 30.859375 
Q 16.703125 27.09375 16.703125 20.515625 
Q 16.703125 13.921875 20.71875 10.15625 
Q 24.75 6.390625 31.78125 6.390625 
Q 38.8125 6.390625 42.859375 10.171875 
Q 46.921875 13.96875 46.921875 20.515625 
Q 46.921875 27.09375 42.890625 30.859375 
Q 38.875 34.625 31.78125 34.625 
z
M 21.921875 38.8125 
Q 15.578125 40.375 12.03125 44.71875 
Q 8.5 49.078125 8.5 55.328125 
Q 8.5 64.0625 14.71875 69.140625 
Q 20.953125 74.21875 31.78125 74.21875 
Q 42.671875 74.21875 48.875 69.140625 
Q 55.078125 64.0625 55.078125 55.328125 
Q 55.078125 49.078125 51.53125 44.71875 
Q 48 40.375 41.703125 38.8125 
Q 48.828125 37.15625 52.796875 32.3125 
Q 56.78125 27.484375 56.78125 20.515625 
Q 56.78125 9.90625 50.3125 4.234375 
Q 43.84375 -1.421875 31.78125 -1.421875 
Q 19.734375 -1.421875 13.25 4.234375 
Q 6.78125 9.90625 6.78125 20.515625 
Q 6.78125 27.484375 10.78125 32.3125 
Q 14.796875 37.15625 21.921875 38.8125 
z
M 18.3125 54.390625 
Q 18.3125 48.734375 21.84375 45.5625 
Q 25.390625 42.390625 31.78125 42.390625 
Q 38.140625 42.390625 41.71875 45.5625 
Q 45.3125 48.734375 45.3125 54.390625 
Q 45.3125 60.0625 41.71875 63.234375 
Q 38.140625 66.40625 31.78125 66.40625 
Q 25.390625 66.40625 21.84375 63.234375 
Q 18.3125 60.0625 18.3125 54.390625 
z
" id="DejaVuSans-56"/>
       </defs>
       <use xlink:href="#DejaVuSans-56"/>
       <use x="63.623047" xlink:href="#DejaVuSans-48"/>
      </g>
     </g>
    </g>
    <g id="ytick_6">
     <g id="line2d_13">
      <g>
       <use style="stroke:#000000;stroke-width:0.8;" x="57.6" xlink:href="#mf6f36603f2" y="98.712972"/>
      </g>
     </g>
     <g id="text_13">
      <!-- 100 -->
      <g transform="translate(31.5125 102.512191)scale(0.1 -0.1)">
       <defs>
        <path d="M 12.40625 8.296875 
L 28.515625 8.296875 
L 28.515625 63.921875 
L 10.984375 60.40625 
L 10.984375 69.390625 
L 28.421875 72.90625 
L 38.28125 72.90625 
L 38.28125 8.296875 
L 54.390625 8.296875 
L 54.390625 0 
L 12.40625 0 
z
" id="DejaVuSans-49"/>
       </defs>
       <use xlink:href="#DejaVuSans-49"/>
       <use x="63.623047" xlink:href="#DejaVuSans-48"/>
       <use x="127.246094" xlink:href="#DejaVuSans-48"/>
      </g>
     </g>
    </g>
    <g id="ytick_7">
     <g id="line2d_14">
      <g>
       <use style="stroke:#000000;stroke-width:0.8;" x="57.6" xlink:href="#mf6f36603f2" y="59.373106"/>
      </g>
     </g>
     <g id="text_14">
      <!-- 120 -->
      <g transform="translate(31.5125 63.172325)scale(0.1 -0.1)">
       <use xlink:href="#DejaVuSans-49"/>
       <use x="63.623047" xlink:href="#DejaVuSans-50"/>
       <use x="127.246094" xlink:href="#DejaVuSans-48"/>
      </g>
     </g>
    </g>
   </g>
   <g id="line2d_15">
    <path clip-path="url(#pc898241763)" d="M 236.556536 295.412303 
L 236.857331 274.709735 
L 237.511195 243.633297 
L 237.960431 238.29043 
L 239.018819 230.09682 
L 240.128477 221.879302 
L 240.668862 216.493932 
L 240.890227 211.257324 
L 240.838551 208.714728 
L 240.655849 206.233232 
L 240.325031 203.820803 
L 239.829006 201.485411 
L 239.150683 199.235026 
L 238.272974 197.077616 
L 237.149948 195.040497 
L 235.766139 193.135467 
L 234.15015 191.347223 
L 232.330581 189.660462 
L 230.336035 188.059881 
L 228.195114 186.530177 
L 223.588556 183.622186 
L 211.512741 176.521336 
L 209.230494 175.007733 
L 207.059291 173.42728 
L 205.027733 171.764672 
L 203.164422 170.004607 
L 201.497961 168.131781 
L 200.056951 166.130891 
L 197.522324 161.793545 
L 195.213648 157.110727 
L 193.161237 152.156137 
L 191.395403 147.003476 
L 189.946459 141.726444 
L 188.844718 136.398738 
L 188.120492 131.09406 
L 187.804094 125.886108 
L 187.808303 123.341436 
L 187.925836 120.848583 
L 188.160483 118.416761 
L 188.516988 115.98875 
L 189.588648 110.989793 
L 191.108314 105.879649 
L 193.039753 100.753586 
L 195.346735 95.706873 
L 197.993027 90.834779 
L 200.942398 86.232572 
L 204.158617 81.995521 
L 205.855471 80.0437 
L 207.60545 78.218894 
L 209.404026 76.533012 
L 211.246668 74.997961 
L 213.208576 73.554736 
L 215.353604 72.143329 
L 217.66021 70.774146 
L 220.106849 69.457594 
L 225.334054 67.024008 
L 230.862869 64.925825 
L 233.686521 64.028526 
L 236.520945 63.246297 
L 239.344598 62.589545 
L 242.135935 62.068677 
L 244.873413 61.694099 
L 247.535488 61.476217 
L 250.100617 61.425439 
L 252.547256 61.552171 
L 254.853862 61.86682 
L 256.99889 62.379791 
L 258.960798 63.101493 
L 260.786704 64.07268 
L 262.538791 65.31272 
L 264.218107 66.799933 
L 265.825703 68.512639 
L 267.362628 70.429158 
L 268.829932 72.527811 
L 270.228665 74.786919 
L 271.559876 77.184802 
L 274.023932 82.310173 
L 276.230497 87.730489 
L 278.187971 93.272313 
L 279.904749 98.762208 
L 282.046984 106.520293 
L 283.124651 111.458032 
L 283.86515 116.509842 
L 284.310422 121.652472 
L 284.502412 126.862672 
L 284.48306 132.117194 
L 284.149515 140.03122 
L 283.356556 150.521383 
L 282.653244 158.249395 
L 281.997029 163.35959 
L 281.167615 168.454632 
L 279.677129 176.075641 
L 277.418071 186.213211 
L 274.560652 198.882235 
L 273.522202 203.958988 
L 273.522202 203.958988 
" style="fill:none;stroke:#fea952;stroke-linecap:square;"/>
   </g>
   <g id="line2d_16">
    <path clip-path="url(#pc898241763)" d="M 228.688926 295.336605 
L 228.990793 274.55949 
L 229.6628 243.078594 
L 230.146073 237.373476 
L 231.227765 228.999332 
L 232.308853 221.008392 
L 232.815129 216.020769 
L 233.023878 211.4172 
L 232.860827 207.302169 
L 232.628738 205.455455 
L 232.295815 203.756102 
L 231.382662 200.876116 
L 230.784185 199.664571 
L 229.928598 198.410703 
L 228.801214 197.117309 
L 227.406227 195.79689 
L 225.761928 194.461642 
L 221.835636 191.770849 
L 217.26658 189.038921 
L 209.73977 184.675533 
L 204.6001 181.368901 
L 202.076232 179.516133 
L 199.624956 177.484376 
L 197.286518 175.234831 
L 195.113389 172.729851 
L 193.339928 170.228037 
L 190.525633 165.392338 
L 187.99366 160.237511 
L 185.758738 154.822223 
L 183.841841 149.205453 
L 182.268654 143.445838 
L 181.069114 137.600812 
L 180.277914 131.72571 
L 180.047958 128.793421 
L 179.936131 125.873094 
L 179.94906 122.970888 
L 180.094236 120.092912 
L 180.375975 117.27376 
L 180.791 114.500759 
L 181.336622 111.703272 
L 182.006611 108.887955 
L 183.698465 103.234059 
L 185.829263 97.604961 
L 188.368232 92.072937 
L 191.290384 86.714151 
L 192.889147 84.124218 
L 194.577535 81.607259 
L 196.354752 79.173488 
L 198.220827 76.833384 
L 200.176764 74.597849 
L 202.224699 72.478466 
L 204.368011 70.487885 
L 206.584402 68.660116 
L 208.883771 66.981985 
L 211.337489 65.377546 
L 213.931913 63.845596 
L 216.652375 62.388533 
L 219.483428 61.011155 
L 222.409135 59.71991 
L 225.413351 58.522447 
L 228.480009 57.427359 
L 231.593406 56.444076 
L 234.738515 55.582881 
L 237.901333 54.855077 
L 241.069274 54.273342 
L 244.231593 53.852347 
L 247.379768 53.609785 
L 250.50762 53.568 
L 253.610693 53.756396 
L 256.683843 54.214619 
L 259.715223 54.995582 
L 262.655584 56.155015 
L 265.332036 57.650456 
L 267.755177 59.422532 
L 269.954853 61.415255 
L 271.963758 63.590314 
L 273.810853 65.920788 
L 275.519481 68.385959 
L 277.107663 70.967968 
L 278.589081 73.649936 
L 281.270706 79.245983 
L 283.621909 85.033819 
L 285.678446 90.864454 
L 287.464338 96.581012 
L 289.701337 104.699339 
L 290.890071 110.19184 
L 291.69384 115.724599 
L 292.1693 121.274264 
L 292.370271 126.82032 
L 292.347782 132.343362 
L 292.000893 140.541979 
L 291.416533 148.575223 
L 290.466124 159.17886 
L 289.772081 164.565236 
L 288.905373 169.880147 
L 287.36974 177.727533 
L 285.085253 187.979369 
L 281.745018 202.960838 
L 281.237738 205.500259 
L 281.237738 205.500259 
" style="fill:none;stroke:#ffffff;stroke-linecap:square;"/>
   </g>
   <g id="line2d_17">
    <path clip-path="url(#pc898241763)" d="M 244.424145 295.488 
L 244.72387 274.85998 
L 245.35959 244.187999 
L 245.77479 239.207384 
L 246.809873 231.194308 
L 247.948101 222.750211 
L 248.522595 216.967095 
L 248.756576 211.097447 
L 248.685285 208.137007 
L 248.450871 205.164294 
L 248.021323 202.18615 
L 247.362196 199.21472 
L 246.43861 196.270042 
L 245.163286 193.279117 
L 243.515712 190.416423 
L 241.603681 187.860232 
L 239.499085 185.577137 
L 237.254935 183.524035 
L 234.910142 181.65812 
L 232.495323 179.941307 
L 227.561356 176.830878 
L 215.86139 169.964335 
L 212.04235 167.338427 
L 210.430509 166.044969 
L 209.042326 164.774383 
L 207.882533 163.533712 
L 206.773975 162.033746 
L 204.519015 158.194751 
L 202.433635 153.983942 
L 200.563736 149.490052 
L 198.948965 144.8015 
L 197.624264 140.007049 
L 196.620322 135.196664 
L 195.963069 130.462409 
L 195.672056 125.899122 
L 195.757436 121.604254 
L 196.242976 117.476741 
L 197.170685 113.091631 
L 198.518162 108.525239 
L 200.250243 103.902211 
L 202.325238 99.34081 
L 204.69567 94.955407 
L 207.307262 90.857884 
L 210.096406 87.157657 
L 212.986202 83.959322 
L 215.908934 81.335806 
L 217.533381 80.127488 
L 221.388507 77.702696 
L 225.860528 75.397003 
L 230.729712 73.333129 
L 235.779636 71.612975 
L 240.787863 70.324013 
L 245.515232 69.53585 
L 247.691208 69.342649 
L 249.693614 69.282879 
L 251.48382 69.347946 
L 254.282558 69.764 
L 255.266012 70.047971 
L 256.241373 70.494904 
L 257.322405 71.202908 
L 258.481362 72.18461 
L 259.687648 73.434964 
L 260.914403 74.937528 
L 262.140383 76.669664 
L 263.349667 78.605871 
L 265.675114 82.984539 
L 267.832737 87.863569 
L 269.79438 93.040681 
L 271.547825 98.322116 
L 273.781483 106.033522 
L 274.913704 110.507974 
L 275.732377 114.987526 
L 276.274959 119.643871 
L 276.570067 124.452192 
L 276.649195 129.385769 
L 276.546459 134.417425 
L 276.131205 142.090681 
L 275.293228 152.425729 
L 274.554787 159.731949 
L 273.845714 164.58624 
L 272.495199 171.947625 
L 270.329318 181.922792 
L 266.313947 199.878295 
L 265.806667 202.417717 
L 265.806667 202.417717 
" style="fill:none;stroke:#ffffff;stroke-linecap:square;"/>
   </g>
   <g id="patch_3">
    <path d="M 57.6 307.584 
L 57.6 41.472 
" style="fill:none;stroke:#000000;stroke-linecap:square;stroke-linejoin:miter;stroke-width:0.8;"/>
   </g>
   <g id="patch_4">
    <path d="M 414.72 307.584 
L 414.72 41.472 
" style="fill:none;stroke:#000000;stroke-linecap:square;stroke-linejoin:miter;stroke-width:0.8;"/>
   </g>
   <g id="patch_5">
    <path d="M 57.6 307.584 
L 414.72 307.584 
" style="fill:none;stroke:#000000;stroke-linecap:square;stroke-linejoin:miter;stroke-width:0.8;"/>
   </g>
   <g id="patch_6">
    <path d="M 57.6 41.472 
L 414.72 41.472 
" style="fill:none;stroke:#000000;stroke-linecap:square;stroke-linejoin:miter;stroke-width:0.8;"/>
   </g>
  </g>
 </g>
 <defs>
  <clipPath id="pc898241763">
   <rect height="266.112" width="357.12" x="57.6" y="41.472"/>
  </clipPath>
 </defs>
</svg>
