<?xml version="1.0" encoding="utf-8" standalone="no"?>
<!DOCTYPE svg PUBLIC "-//W3C//DTD SVG 1.1//EN"
  "http://www.w3.org/Graphics/SVG/1.1/DTD/svg11.dtd">
<!-- Created with matplotlib (https://matplotlib.org/) -->
<svg height="345.6pt" version="1.1" viewBox="0 0 460.8 345.6" width="460.8pt" xmlns="http://www.w3.org/2000/svg" xmlns:xlink="http://www.w3.org/1999/xlink">
 <metadata>
  <rdf:RDF xmlns:cc="http://creativecommons.org/ns#" xmlns:dc="http://purl.org/dc/elements/1.1/" xmlns:rdf="http://www.w3.org/1999/02/22-rdf-syntax-ns#">
   <cc:Work>
    <dc:type rdf:resource="http://purl.org/dc/dcmitype/StillImage"/>
    <dc:date>2021-06-04T07:49:42.907685</dc:date>
    <dc:format>image/svg+xml</dc:format>
    <dc:creator>
     <cc:Agent>
      <dc:title>Matplotlib v3.3.3, https://matplotlib.org/</dc:title>
     </cc:Agent>
    </dc:creator>
   </cc:Work>
  </rdf:RDF>
 </metadata>
 <defs>
  <style type="text/css">*{stroke-linecap:butt;stroke-linejoin:round;}</style>
 </defs>
 <g id="figure_1">
  <g id="patch_1">
   <path d="M 0 345.6 
L 460.8 345.6 
L 460.8 0 
L 0 0 
z
" style="fill:#ffffff;"/>
  </g>
  <g id="axes_1">
   <g id="patch_2">
    <path d="M 57.6 307.584 
L 414.72 307.584 
L 414.72 41.472 
L 57.6 41.472 
z
" style="fill:#7d9051;"/>
   </g>
   <g id="matplotlib.axis_1">
    <g id="xtick_1">
     <g id="line2d_1">
      <defs>
       <path d="M 0 0 
L 0 3.5 
" id="mab397a1f59" style="stroke:#000000;stroke-width:0.8;"/>
      </defs>
      <g>
       <use style="stroke:#000000;stroke-width:0.8;" x="108.501708" xlink:href="#mab397a1f59" y="307.584"/>
      </g>
     </g>
     <g id="text_1">
      <!-- −100 -->
      <g transform="translate(94.768114 322.182437)scale(0.1 -0.1)">
       <defs>
        <path d="M 10.59375 35.5 
L 73.1875 35.5 
L 73.1875 27.203125 
L 10.59375 27.203125 
z
" id="DejaVuSans-8722"/>
        <path d="M 12.40625 8.296875 
L 28.515625 8.296875 
L 28.515625 63.921875 
L 10.984375 60.40625 
L 10.984375 69.390625 
L 28.421875 72.90625 
L 38.28125 72.90625 
L 38.28125 8.296875 
L 54.390625 8.296875 
L 54.390625 0 
L 12.40625 0 
z
" id="DejaVuSans-49"/>
        <path d="M 31.78125 66.40625 
Q 24.171875 66.40625 20.328125 58.90625 
Q 16.5 51.421875 16.5 36.375 
Q 16.5 21.390625 20.328125 13.890625 
Q 24.171875 6.390625 31.78125 6.390625 
Q 39.453125 6.390625 43.28125 13.890625 
Q 47.125 21.390625 47.125 36.375 
Q 47.125 51.421875 43.28125 58.90625 
Q 39.453125 66.40625 31.78125 66.40625 
z
M 31.78125 74.21875 
Q 44.046875 74.21875 50.515625 64.515625 
Q 56.984375 54.828125 56.984375 36.375 
Q 56.984375 17.96875 50.515625 8.265625 
Q 44.046875 -1.421875 31.78125 -1.421875 
Q 19.53125 -1.421875 13.0625 8.265625 
Q 6.59375 17.96875 6.59375 36.375 
Q 6.59375 54.828125 13.0625 64.515625 
Q 19.53125 74.21875 31.78125 74.21875 
z
" id="DejaVuSans-48"/>
       </defs>
       <use xlink:href="#DejaVuSans-8722"/>
       <use x="83.789062" xlink:href="#DejaVuSans-49"/>
       <use x="147.412109" xlink:href="#DejaVuSans-48"/>
       <use x="211.035156" xlink:href="#DejaVuSans-48"/>
      </g>
     </g>
    </g>
    <g id="xtick_2">
     <g id="line2d_2">
      <g>
       <use style="stroke:#000000;stroke-width:0.8;" x="160.47918" xlink:href="#mab397a1f59" y="307.584"/>
      </g>
     </g>
     <g id="text_2">
      <!-- −80 -->
      <g transform="translate(149.926837 322.182437)scale(0.1 -0.1)">
       <defs>
        <path d="M 31.78125 34.625 
Q 24.75 34.625 20.71875 30.859375 
Q 16.703125 27.09375 16.703125 20.515625 
Q 16.703125 13.921875 20.71875 10.15625 
Q 24.75 6.390625 31.78125 6.390625 
Q 38.8125 6.390625 42.859375 10.171875 
Q 46.921875 13.96875 46.921875 20.515625 
Q 46.921875 27.09375 42.890625 30.859375 
Q 38.875 34.625 31.78125 34.625 
z
M 21.921875 38.8125 
Q 15.578125 40.375 12.03125 44.71875 
Q 8.5 49.078125 8.5 55.328125 
Q 8.5 64.0625 14.71875 69.140625 
Q 20.953125 74.21875 31.78125 74.21875 
Q 42.671875 74.21875 48.875 69.140625 
Q 55.078125 64.0625 55.078125 55.328125 
Q 55.078125 49.078125 51.53125 44.71875 
Q 48 40.375 41.703125 38.8125 
Q 48.828125 37.15625 52.796875 32.3125 
Q 56.78125 27.484375 56.78125 20.515625 
Q 56.78125 9.90625 50.3125 4.234375 
Q 43.84375 -1.421875 31.78125 -1.421875 
Q 19.734375 -1.421875 13.25 4.234375 
Q 6.78125 9.90625 6.78125 20.515625 
Q 6.78125 27.484375 10.78125 32.3125 
Q 14.796875 37.15625 21.921875 38.8125 
z
M 18.3125 54.390625 
Q 18.3125 48.734375 21.84375 45.5625 
Q 25.390625 42.390625 31.78125 42.390625 
Q 38.140625 42.390625 41.71875 45.5625 
Q 45.3125 48.734375 45.3125 54.390625 
Q 45.3125 60.0625 41.71875 63.234375 
Q 38.140625 66.40625 31.78125 66.40625 
Q 25.390625 66.40625 21.84375 63.234375 
Q 18.3125 60.0625 18.3125 54.390625 
z
" id="DejaVuSans-56"/>
       </defs>
       <use xlink:href="#DejaVuSans-8722"/>
       <use x="83.789062" xlink:href="#DejaVuSans-56"/>
       <use x="147.412109" xlink:href="#DejaVuSans-48"/>
      </g>
     </g>
    </g>
    <g id="xtick_3">
     <g id="line2d_3">
      <g>
       <use style="stroke:#000000;stroke-width:0.8;" x="212.456653" xlink:href="#mab397a1f59" y="307.584"/>
      </g>
     </g>
     <g id="text_3">
      <!-- −60 -->
      <g transform="translate(201.904309 322.182437)scale(0.1 -0.1)">
       <defs>
        <path d="M 33.015625 40.375 
Q 26.375 40.375 22.484375 35.828125 
Q 18.609375 31.296875 18.609375 23.390625 
Q 18.609375 15.53125 22.484375 10.953125 
Q 26.375 6.390625 33.015625 6.390625 
Q 39.65625 6.390625 43.53125 10.953125 
Q 47.40625 15.53125 47.40625 23.390625 
Q 47.40625 31.296875 43.53125 35.828125 
Q 39.65625 40.375 33.015625 40.375 
z
M 52.59375 71.296875 
L 52.59375 62.3125 
Q 48.875 64.0625 45.09375 64.984375 
Q 41.3125 65.921875 37.59375 65.921875 
Q 27.828125 65.921875 22.671875 59.328125 
Q 17.53125 52.734375 16.796875 39.40625 
Q 19.671875 43.65625 24.015625 45.921875 
Q 28.375 48.1875 33.59375 48.1875 
Q 44.578125 48.1875 50.953125 41.515625 
Q 57.328125 34.859375 57.328125 23.390625 
Q 57.328125 12.15625 50.6875 5.359375 
Q 44.046875 -1.421875 33.015625 -1.421875 
Q 20.359375 -1.421875 13.671875 8.265625 
Q 6.984375 17.96875 6.984375 36.375 
Q 6.984375 53.65625 15.1875 63.9375 
Q 23.390625 74.21875 37.203125 74.21875 
Q 40.921875 74.21875 44.703125 73.484375 
Q 48.484375 72.75 52.59375 71.296875 
z
" id="DejaVuSans-54"/>
       </defs>
       <use xlink:href="#DejaVuSans-8722"/>
       <use x="83.789062" xlink:href="#DejaVuSans-54"/>
       <use x="147.412109" xlink:href="#DejaVuSans-48"/>
      </g>
     </g>
    </g>
    <g id="xtick_4">
     <g id="line2d_4">
      <g>
       <use style="stroke:#000000;stroke-width:0.8;" x="264.434126" xlink:href="#mab397a1f59" y="307.584"/>
      </g>
     </g>
     <g id="text_4">
      <!-- −40 -->
      <g transform="translate(253.881782 322.182437)scale(0.1 -0.1)">
       <defs>
        <path d="M 37.796875 64.3125 
L 12.890625 25.390625 
L 37.796875 25.390625 
z
M 35.203125 72.90625 
L 47.609375 72.90625 
L 47.609375 25.390625 
L 58.015625 25.390625 
L 58.015625 17.1875 
L 47.609375 17.1875 
L 47.609375 0 
L 37.796875 0 
L 37.796875 17.1875 
L 4.890625 17.1875 
L 4.890625 26.703125 
z
" id="DejaVuSans-52"/>
       </defs>
       <use xlink:href="#DejaVuSans-8722"/>
       <use x="83.789062" xlink:href="#DejaVuSans-52"/>
       <use x="147.412109" xlink:href="#DejaVuSans-48"/>
      </g>
     </g>
    </g>
    <g id="xtick_5">
     <g id="line2d_5">
      <g>
       <use style="stroke:#000000;stroke-width:0.8;" x="316.411598" xlink:href="#mab397a1f59" y="307.584"/>
      </g>
     </g>
     <g id="text_5">
      <!-- −20 -->
      <g transform="translate(305.859255 322.182437)scale(0.1 -0.1)">
       <defs>
        <path d="M 19.1875 8.296875 
L 53.609375 8.296875 
L 53.609375 0 
L 7.328125 0 
L 7.328125 8.296875 
Q 12.9375 14.109375 22.625 23.890625 
Q 32.328125 33.6875 34.8125 36.53125 
Q 39.546875 41.84375 41.421875 45.53125 
Q 43.3125 49.21875 43.3125 52.78125 
Q 43.3125 58.59375 39.234375 62.25 
Q 35.15625 65.921875 28.609375 65.921875 
Q 23.96875 65.921875 18.8125 64.3125 
Q 13.671875 62.703125 7.8125 59.421875 
L 7.8125 69.390625 
Q 13.765625 71.78125 18.9375 73 
Q 24.125 74.21875 28.421875 74.21875 
Q 39.75 74.21875 46.484375 68.546875 
Q 53.21875 62.890625 53.21875 53.421875 
Q 53.21875 48.921875 51.53125 44.890625 
Q 49.859375 40.875 45.40625 35.40625 
Q 44.1875 33.984375 37.640625 27.21875 
Q 31.109375 20.453125 19.1875 8.296875 
z
" id="DejaVuSans-50"/>
       </defs>
       <use xlink:href="#DejaVuSans-8722"/>
       <use x="83.789062" xlink:href="#DejaVuSans-50"/>
       <use x="147.412109" xlink:href="#DejaVuSans-48"/>
      </g>
     </g>
    </g>
    <g id="xtick_6">
     <g id="line2d_6">
      <g>
       <use style="stroke:#000000;stroke-width:0.8;" x="368.389071" xlink:href="#mab397a1f59" y="307.584"/>
      </g>
     </g>
     <g id="text_6">
      <!-- 0 -->
      <g transform="translate(365.207821 322.182437)scale(0.1 -0.1)">
       <use xlink:href="#DejaVuSans-48"/>
      </g>
     </g>
    </g>
   </g>
   <g id="matplotlib.axis_2">
    <g id="ytick_1">
     <g id="line2d_7">
      <defs>
       <path d="M 0 0 
L -3.5 0 
" id="m7b2c11e3de" style="stroke:#000000;stroke-width:0.8;"/>
      </defs>
      <g>
       <use style="stroke:#000000;stroke-width:0.8;" x="57.6" xlink:href="#m7b2c11e3de" y="295.387986"/>
      </g>
     </g>
     <g id="text_7">
      <!-- 0 -->
      <g transform="translate(44.2375 299.187204)scale(0.1 -0.1)">
       <use xlink:href="#DejaVuSans-48"/>
      </g>
     </g>
    </g>
    <g id="ytick_2">
     <g id="line2d_8">
      <g>
       <use style="stroke:#000000;stroke-width:0.8;" x="57.6" xlink:href="#m7b2c11e3de" y="243.410513"/>
      </g>
     </g>
     <g id="text_8">
      <!-- 20 -->
      <g transform="translate(37.875 247.209732)scale(0.1 -0.1)">
       <use xlink:href="#DejaVuSans-50"/>
       <use x="63.623047" xlink:href="#DejaVuSans-48"/>
      </g>
     </g>
    </g>
    <g id="ytick_3">
     <g id="line2d_9">
      <g>
       <use style="stroke:#000000;stroke-width:0.8;" x="57.6" xlink:href="#m7b2c11e3de" y="191.43304"/>
      </g>
     </g>
     <g id="text_9">
      <!-- 40 -->
      <g transform="translate(37.875 195.232259)scale(0.1 -0.1)">
       <use xlink:href="#DejaVuSans-52"/>
       <use x="63.623047" xlink:href="#DejaVuSans-48"/>
      </g>
     </g>
    </g>
    <g id="ytick_4">
     <g id="line2d_10">
      <g>
       <use style="stroke:#000000;stroke-width:0.8;" x="57.6" xlink:href="#m7b2c11e3de" y="139.455568"/>
      </g>
     </g>
     <g id="text_10">
      <!-- 60 -->
      <g transform="translate(37.875 143.254786)scale(0.1 -0.1)">
       <use xlink:href="#DejaVuSans-54"/>
       <use x="63.623047" xlink:href="#DejaVuSans-48"/>
      </g>
     </g>
    </g>
    <g id="ytick_5">
     <g id="line2d_11">
      <g>
       <use style="stroke:#000000;stroke-width:0.8;" x="57.6" xlink:href="#m7b2c11e3de" y="87.478095"/>
      </g>
     </g>
     <g id="text_11">
      <!-- 80 -->
      <g transform="translate(37.875 91.277314)scale(0.1 -0.1)">
       <use xlink:href="#DejaVuSans-56"/>
       <use x="63.623047" xlink:href="#DejaVuSans-48"/>
      </g>
     </g>
    </g>
   </g>
   <g id="line2d_12">
    <path clip-path="url(#p7a2e981265)" d="M 368.389071 295.387986 
L 368.723509 271.45391 
L 369.559193 223.575514 
L 369.393395 213.266828 
L 368.995766 192.639588 
L 369.058875 185.793082 
L 369.317637 178.975816 
L 369.830747 172.196563 
L 370.656901 165.464095 
L 371.294851 162.087137 
L 372.181215 158.668494 
L 373.278129 155.217285 
L 374.547727 151.742626 
L 377.453516 144.759434 
L 385.089411 127.529362 
L 386.377341 124.195362 
L 387.49717 120.919976 
L 388.411032 117.712321 
L 389.081063 114.581516 
L 389.469397 111.536678 
L 389.538169 108.586927 
L 389.249514 105.741379 
L 388.565567 103.009153 
L 387.48219 100.295825 
L 386.041041 97.517145 
L 384.272951 94.697498 
L 382.208748 91.861267 
L 379.879264 89.032834 
L 377.315328 86.236583 
L 374.547771 83.496896 
L 371.607423 80.838157 
L 368.525112 78.284749 
L 365.331671 75.861054 
L 362.057928 73.591456 
L 358.734714 71.500338 
L 355.392859 69.612083 
L 352.063193 67.951074 
L 348.776546 66.541693 
L 345.563748 65.408325 
L 342.455629 64.575352 
L 339.483019 64.067157 
L 336.676748 63.908123 
L 333.983223 64.187247 
L 331.324219 64.944848 
L 328.693623 66.132297 
L 326.085321 67.700965 
L 323.493197 69.602221 
L 320.911138 71.787435 
L 318.333029 74.207977 
L 313.164205 79.560526 
L 302.604931 90.949845 
L 299.883274 93.656046 
L 297.116653 96.208536 
L 294.298953 98.558684 
L 291.42406 100.657862 
L 288.48586 102.457438 
L 285.478239 103.908783 
L 282.336908 105.011709 
L 279.019111 105.823707 
L 275.551033 106.382661 
L 271.95886 106.726459 
L 268.268776 106.892984 
L 260.699619 106.845765 
L 241.896252 106.277466 
L 238.36555 106.389707 
L 234.972604 106.665648 
L 231.743598 107.143175 
L 228.704719 107.860174 
L 225.882151 108.85453 
L 223.302079 110.16413 
L 220.990688 111.826858 
L 219.009701 113.910801 
L 217.376087 116.424012 
L 216.048907 119.314329 
L 214.987221 122.52959 
L 214.15009 126.017634 
L 213.496572 129.726298 
L 212.985728 133.603422 
L 212.228303 141.654398 
L 211.550295 149.753269 
L 211.138721 153.69026 
L 210.624182 157.482739 
L 209.965737 161.078544 
L 209.122446 164.425514 
L 208.053369 167.471486 
L 206.717566 170.164299 
L 205.074097 172.451791 
L 203.082022 174.2818 
L 200.773033 175.668959 
L 198.220301 176.686471 
L 195.445103 177.370028 
L 192.468719 177.755322 
L 189.312426 177.878047 
L 185.997503 177.773896 
L 182.545228 177.47856 
L 175.313734 176.457107 
L 152.535746 172.516372 
L 148.804825 172.106551 
L 145.149335 171.862472 
L 141.590554 171.81983 
L 138.14976 172.014316 
L 131.41741 172.841433 
L 124.715397 173.983615 
L 118.038034 175.381785 
L 111.37963 176.97687 
L 101.415134 179.609487 
L 81.49894 185.007639 
L 74.843144 186.6298 
L 74.843144 186.6298 
" style="fill:none;stroke:#fea952;stroke-linecap:square;"/>
   </g>
   <g id="line2d_13">
    <path clip-path="url(#p7a2e981265)" d="M 357.994058 295.287971 
L 358.329778 271.262434 
L 359.164186 223.676211 
L 359.001043 213.522404 
L 358.623987 196.142173 
L 358.612255 189.054152 
L 358.775744 181.899812 
L 359.181719 174.687234 
L 359.89992 167.426239 
L 360.442082 163.534388 
L 361.232079 159.478125 
L 362.274087 155.519666 
L 363.514016 151.649596 
L 364.904183 147.860825 
L 367.963318 140.516505 
L 375.392311 123.783355 
L 377.499507 118.071637 
L 378.245724 115.53682 
L 378.769098 113.266343 
L 379.076727 111.294378 
L 379.195751 109.63607 
L 379.165177 108.26575 
L 378.911197 106.863948 
L 378.254021 105.081971 
L 377.233848 103.039794 
L 375.867838 100.814719 
L 374.184411 98.470073 
L 372.217145 96.058376 
L 370.001897 93.624413 
L 367.575569 91.207583 
L 364.97569 88.843557 
L 362.240432 86.565395 
L 359.408877 84.404286 
L 356.52149 82.389988 
L 353.620807 80.550988 
L 350.752401 78.914365 
L 347.966201 77.50518 
L 345.318237 76.345081 
L 342.872728 75.449476 
L 340.703839 74.822183 
L 337.74827 74.248246 
L 336.831736 74.18486 
L 335.601187 74.419755 
L 334.051315 75.040802 
L 332.233606 76.083381 
L 330.208792 77.537401 
L 328.02662 79.366103 
L 325.721867 81.520389 
L 320.821329 86.591511 
L 309.934695 98.321471 
L 306.932371 101.2965 
L 303.775139 104.191698 
L 300.429219 106.954287 
L 296.853596 109.522761 
L 293.003751 111.819861 
L 288.922019 113.717283 
L 284.808166 115.109193 
L 280.67322 116.086758 
L 276.541433 116.73087 
L 272.42751 117.111384 
L 268.343774 117.288208 
L 260.325046 117.234509 
L 242.226557 116.667712 
L 239.208211 116.750992 
L 236.493419 116.949297 
L 234.130785 117.260865 
L 232.158851 117.665034 
L 230.587303 118.124258 
L 228.525173 118.98911 
L 227.725694 119.57629 
L 226.823228 120.761963 
L 225.920173 122.57384 
L 225.095667 124.95562 
L 224.387851 127.821668 
L 223.80299 131.084256 
L 223.327097 134.662853 
L 222.590102 142.490724 
L 221.889446 150.834125 
L 221.43984 155.08785 
L 220.849655 159.355174 
L 220.04619 163.618381 
L 218.931317 167.868237 
L 217.366004 172.091133 
L 215.160032 176.229863 
L 212.106813 180.107325 
L 208.43547 183.192855 
L 204.622141 185.325598 
L 200.706501 186.780287 
L 196.77967 187.679501 
L 192.872619 188.142967 
L 188.985971 188.268415 
L 185.111424 188.131558 
L 181.242214 187.792069 
L 173.519586 186.696606 
L 151.400686 182.849713 
L 148.112257 182.478949 
L 145.024781 182.257221 
L 142.177207 182.198758 
L 139.285646 182.347566 
L 133.055888 183.106992 
L 126.761445 184.175768 
L 120.398285 185.505792 
L 113.963464 187.046136 
L 104.170161 189.633266 
L 84.018138 195.09327 
L 77.246874 196.743572 
L 77.246874 196.743572 
" style="fill:none;stroke:#ffffff;stroke-linecap:square;"/>
   </g>
   <g id="line2d_14">
    <path clip-path="url(#p7a2e981265)" d="M 378.784084 295.488 
L 379.11724 271.645386 
L 379.9542 223.474816 
L 379.785747 213.011252 
L 379.391209 192.672254 
L 379.449797 186.101372 
L 379.691157 179.651387 
L 380.164151 173.331058 
L 380.87172 167.393802 
L 381.357622 164.696149 
L 382.088343 161.817322 
L 383.042242 158.784973 
L 384.19127 155.624426 
L 386.943714 149.002363 
L 394.78651 131.275369 
L 396.213826 127.558379 
L 397.494833 123.768315 
L 398.576341 119.887822 
L 399.393028 115.896688 
L 399.862067 111.778979 
L 399.880587 107.537783 
L 399.333852 103.217008 
L 398.219938 99.154359 
L 396.710359 95.509678 
L 394.848235 91.994497 
L 392.678063 88.580278 
L 390.233085 85.252461 
L 387.541383 82.007292 
L 384.62876 78.848753 
L 381.519974 75.786209 
L 378.239155 72.832757 
L 374.809793 70.004102 
L 371.254465 67.317821 
L 367.594367 64.792924 
L 363.848622 62.449688 
L 360.033318 60.309801 
L 356.160186 58.396967 
L 352.234855 56.738306 
L 348.254767 55.367174 
L 344.207419 54.328521 
L 340.071197 53.688315 
L 335.605227 53.568 
L 331.13471 54.189633 
L 327.047252 55.469941 
L 323.335932 57.223793 
L 319.937036 59.318549 
L 316.777601 61.667041 
L 313.795656 64.208766 
L 310.944191 66.895564 
L 305.50708 72.529541 
L 295.275168 83.578219 
L 292.834177 86.015592 
L 290.458167 88.225374 
L 288.168686 90.163082 
L 285.994524 91.792962 
L 283.967969 93.095015 
L 282.034459 94.100282 
L 279.865649 94.914225 
L 277.365001 95.560655 
L 274.560633 96.034453 
L 271.49021 96.341533 
L 268.193779 96.49776 
L 261.074191 96.457021 
L 245.577265 95.895618 
L 241.565947 95.887221 
L 237.522889 96.028422 
L 233.451789 96.382 
L 229.356412 97.025485 
L 225.250587 98.055314 
L 221.176999 99.584803 
L 217.231484 101.72528 
L 213.456204 104.664607 
L 210.293707 108.245312 
L 207.928945 112.08606 
L 206.177641 116.054817 
L 204.878775 120.10356 
L 203.912328 124.2136 
L 203.190154 128.368341 
L 202.644359 132.543991 
L 201.866505 140.818073 
L 200.837602 152.29267 
L 200.398709 155.610303 
L 199.885284 158.538707 
L 199.313574 160.98279 
L 198.04138 164.796257 
L 197.728574 165.370745 
L 196.923925 166.01232 
L 195.734101 166.592655 
L 194.110536 167.060554 
L 192.064819 167.367677 
L 189.638881 167.48768 
L 186.883581 167.416233 
L 183.848242 167.165051 
L 177.107882 166.217608 
L 153.670807 162.18303 
L 149.497393 161.734152 
L 145.273889 161.467724 
L 141.003901 161.440902 
L 137.013874 161.681065 
L 129.778933 162.575875 
L 122.66935 163.791461 
L 115.677782 165.257778 
L 108.795796 166.907604 
L 98.660107 169.585709 
L 78.979741 174.922008 
L 72.439413 176.516027 
L 72.439413 176.516027 
" style="fill:none;stroke:#ffffff;stroke-linecap:square;"/>
   </g>
   <g id="patch_3">
    <path d="M 57.6 307.584 
L 57.6 41.472 
" style="fill:none;stroke:#000000;stroke-linecap:square;stroke-linejoin:miter;stroke-width:0.8;"/>
   </g>
   <g id="patch_4">
    <path d="M 414.72 307.584 
L 414.72 41.472 
" style="fill:none;stroke:#000000;stroke-linecap:square;stroke-linejoin:miter;stroke-width:0.8;"/>
   </g>
   <g id="patch_5">
    <path d="M 57.6 307.584 
L 414.72 307.584 
" style="fill:none;stroke:#000000;stroke-linecap:square;stroke-linejoin:miter;stroke-width:0.8;"/>
   </g>
   <g id="patch_6">
    <path d="M 57.6 41.472 
L 414.72 41.472 
" style="fill:none;stroke:#000000;stroke-linecap:square;stroke-linejoin:miter;stroke-width:0.8;"/>
   </g>
  </g>
 </g>
 <defs>
  <clipPath id="p7a2e981265">
   <rect height="266.112" width="357.12" x="57.6" y="41.472"/>
  </clipPath>
 </defs>
</svg>
