<?xml version="1.0" encoding="utf-8" standalone="no"?>
<!DOCTYPE svg PUBLIC "-//W3C//DTD SVG 1.1//EN"
  "http://www.w3.org/Graphics/SVG/1.1/DTD/svg11.dtd">
<!-- Created with matplotlib (https://matplotlib.org/) -->
<svg height="345.6pt" version="1.1" viewBox="0 0 460.8 345.6" width="460.8pt" xmlns="http://www.w3.org/2000/svg" xmlns:xlink="http://www.w3.org/1999/xlink">
 <metadata>
  <rdf:RDF xmlns:cc="http://creativecommons.org/ns#" xmlns:dc="http://purl.org/dc/elements/1.1/" xmlns:rdf="http://www.w3.org/1999/02/22-rdf-syntax-ns#">
   <cc:Work>
    <dc:type rdf:resource="http://purl.org/dc/dcmitype/StillImage"/>
    <dc:date>2021-06-24T08:34:14.007003</dc:date>
    <dc:format>image/svg+xml</dc:format>
    <dc:creator>
     <cc:Agent>
      <dc:title>Matplotlib v3.3.3, https://matplotlib.org/</dc:title>
     </cc:Agent>
    </dc:creator>
   </cc:Work>
  </rdf:RDF>
 </metadata>
 <defs>
  <style type="text/css">*{stroke-linecap:butt;stroke-linejoin:round;}</style>
 </defs>
 <g id="figure_1">
  <g id="patch_1">
   <path d="M 0 345.6 
L 460.8 345.6 
L 460.8 0 
L 0 0 
z
" style="fill:#ffffff;"/>
  </g>
  <g id="axes_1">
   <g id="patch_2">
    <path d="M 57.6 307.584 
L 414.72 307.584 
L 414.72 41.472 
L 57.6 41.472 
z
" style="fill:#7d9051;"/>
   </g>
   <g id="matplotlib.axis_1">
    <g id="xtick_1">
     <g id="line2d_1">
      <defs>
       <path d="M 0 0 
L 0 3.5 
" id="m9fd3203396" style="stroke:#000000;stroke-width:0.8;"/>
      </defs>
      <g>
       <use style="stroke:#000000;stroke-width:0.8;" x="69.813533" xlink:href="#m9fd3203396" y="307.584"/>
      </g>
     </g>
     <g id="text_1">
      <!-- −150 -->
      <g transform="translate(56.07994 322.182437)scale(0.1 -0.1)">
       <defs>
        <path d="M 10.59375 35.5 
L 73.1875 35.5 
L 73.1875 27.203125 
L 10.59375 27.203125 
z
" id="DejaVuSans-8722"/>
        <path d="M 12.40625 8.296875 
L 28.515625 8.296875 
L 28.515625 63.921875 
L 10.984375 60.40625 
L 10.984375 69.390625 
L 28.421875 72.90625 
L 38.28125 72.90625 
L 38.28125 8.296875 
L 54.390625 8.296875 
L 54.390625 0 
L 12.40625 0 
z
" id="DejaVuSans-49"/>
        <path d="M 10.796875 72.90625 
L 49.515625 72.90625 
L 49.515625 64.59375 
L 19.828125 64.59375 
L 19.828125 46.734375 
Q 21.96875 47.46875 24.109375 47.828125 
Q 26.265625 48.1875 28.421875 48.1875 
Q 40.625 48.1875 47.75 41.5 
Q 54.890625 34.8125 54.890625 23.390625 
Q 54.890625 11.625 47.5625 5.09375 
Q 40.234375 -1.421875 26.90625 -1.421875 
Q 22.3125 -1.421875 17.546875 -0.640625 
Q 12.796875 0.140625 7.71875 1.703125 
L 7.71875 11.625 
Q 12.109375 9.234375 16.796875 8.0625 
Q 21.484375 6.890625 26.703125 6.890625 
Q 35.15625 6.890625 40.078125 11.328125 
Q 45.015625 15.765625 45.015625 23.390625 
Q 45.015625 31 40.078125 35.4375 
Q 35.15625 39.890625 26.703125 39.890625 
Q 22.75 39.890625 18.8125 39.015625 
Q 14.890625 38.140625 10.796875 36.28125 
z
" id="DejaVuSans-53"/>
        <path d="M 31.78125 66.40625 
Q 24.171875 66.40625 20.328125 58.90625 
Q 16.5 51.421875 16.5 36.375 
Q 16.5 21.390625 20.328125 13.890625 
Q 24.171875 6.390625 31.78125 6.390625 
Q 39.453125 6.390625 43.28125 13.890625 
Q 47.125 21.390625 47.125 36.375 
Q 47.125 51.421875 43.28125 58.90625 
Q 39.453125 66.40625 31.78125 66.40625 
z
M 31.78125 74.21875 
Q 44.046875 74.21875 50.515625 64.515625 
Q 56.984375 54.828125 56.984375 36.375 
Q 56.984375 17.96875 50.515625 8.265625 
Q 44.046875 -1.421875 31.78125 -1.421875 
Q 19.53125 -1.421875 13.0625 8.265625 
Q 6.59375 17.96875 6.59375 36.375 
Q 6.59375 54.828125 13.0625 64.515625 
Q 19.53125 74.21875 31.78125 74.21875 
z
" id="DejaVuSans-48"/>
       </defs>
       <use xlink:href="#DejaVuSans-8722"/>
       <use x="83.789062" xlink:href="#DejaVuSans-49"/>
       <use x="147.412109" xlink:href="#DejaVuSans-53"/>
       <use x="211.035156" xlink:href="#DejaVuSans-48"/>
      </g>
     </g>
    </g>
    <g id="xtick_2">
     <g id="line2d_2">
      <g>
       <use style="stroke:#000000;stroke-width:0.8;" x="146.902791" xlink:href="#m9fd3203396" y="307.584"/>
      </g>
     </g>
     <g id="text_2">
      <!-- −100 -->
      <g transform="translate(133.169197 322.182437)scale(0.1 -0.1)">
       <use xlink:href="#DejaVuSans-8722"/>
       <use x="83.789062" xlink:href="#DejaVuSans-49"/>
       <use x="147.412109" xlink:href="#DejaVuSans-48"/>
       <use x="211.035156" xlink:href="#DejaVuSans-48"/>
      </g>
     </g>
    </g>
    <g id="xtick_3">
     <g id="line2d_3">
      <g>
       <use style="stroke:#000000;stroke-width:0.8;" x="223.992049" xlink:href="#m9fd3203396" y="307.584"/>
      </g>
     </g>
     <g id="text_3">
      <!-- −50 -->
      <g transform="translate(213.439705 322.182437)scale(0.1 -0.1)">
       <use xlink:href="#DejaVuSans-8722"/>
       <use x="83.789062" xlink:href="#DejaVuSans-53"/>
       <use x="147.412109" xlink:href="#DejaVuSans-48"/>
      </g>
     </g>
    </g>
    <g id="xtick_4">
     <g id="line2d_4">
      <g>
       <use style="stroke:#000000;stroke-width:0.8;" x="301.081307" xlink:href="#m9fd3203396" y="307.584"/>
      </g>
     </g>
     <g id="text_4">
      <!-- 0 -->
      <g transform="translate(297.900057 322.182437)scale(0.1 -0.1)">
       <use xlink:href="#DejaVuSans-48"/>
      </g>
     </g>
    </g>
    <g id="xtick_5">
     <g id="line2d_5">
      <g>
       <use style="stroke:#000000;stroke-width:0.8;" x="378.170564" xlink:href="#m9fd3203396" y="307.584"/>
      </g>
     </g>
     <g id="text_5">
      <!-- 50 -->
      <g transform="translate(371.808064 322.182437)scale(0.1 -0.1)">
       <use xlink:href="#DejaVuSans-53"/>
       <use x="63.623047" xlink:href="#DejaVuSans-48"/>
      </g>
     </g>
    </g>
   </g>
   <g id="matplotlib.axis_2">
    <g id="ytick_1">
     <g id="line2d_6">
      <defs>
       <path d="M 0 0 
L -3.5 0 
" id="m1ebcc401f7" style="stroke:#000000;stroke-width:0.8;"/>
      </defs>
      <g>
       <use style="stroke:#000000;stroke-width:0.8;" x="57.6" xlink:href="#m1ebcc401f7" y="295.428666"/>
      </g>
     </g>
     <g id="text_6">
      <!-- 0 -->
      <g transform="translate(44.2375 299.227885)scale(0.1 -0.1)">
       <use xlink:href="#DejaVuSans-48"/>
      </g>
     </g>
    </g>
    <g id="ytick_2">
     <g id="line2d_7">
      <g>
       <use style="stroke:#000000;stroke-width:0.8;" x="57.6" xlink:href="#m1ebcc401f7" y="264.592963"/>
      </g>
     </g>
     <g id="text_7">
      <!-- 20 -->
      <g transform="translate(37.875 268.392182)scale(0.1 -0.1)">
       <defs>
        <path d="M 19.1875 8.296875 
L 53.609375 8.296875 
L 53.609375 0 
L 7.328125 0 
L 7.328125 8.296875 
Q 12.9375 14.109375 22.625 23.890625 
Q 32.328125 33.6875 34.8125 36.53125 
Q 39.546875 41.84375 41.421875 45.53125 
Q 43.3125 49.21875 43.3125 52.78125 
Q 43.3125 58.59375 39.234375 62.25 
Q 35.15625 65.921875 28.609375 65.921875 
Q 23.96875 65.921875 18.8125 64.3125 
Q 13.671875 62.703125 7.8125 59.421875 
L 7.8125 69.390625 
Q 13.765625 71.78125 18.9375 73 
Q 24.125 74.21875 28.421875 74.21875 
Q 39.75 74.21875 46.484375 68.546875 
Q 53.21875 62.890625 53.21875 53.421875 
Q 53.21875 48.921875 51.53125 44.890625 
Q 49.859375 40.875 45.40625 35.40625 
Q 44.1875 33.984375 37.640625 27.21875 
Q 31.109375 20.453125 19.1875 8.296875 
z
" id="DejaVuSans-50"/>
       </defs>
       <use xlink:href="#DejaVuSans-50"/>
       <use x="63.623047" xlink:href="#DejaVuSans-48"/>
      </g>
     </g>
    </g>
    <g id="ytick_3">
     <g id="line2d_8">
      <g>
       <use style="stroke:#000000;stroke-width:0.8;" x="57.6" xlink:href="#m1ebcc401f7" y="233.75726"/>
      </g>
     </g>
     <g id="text_8">
      <!-- 40 -->
      <g transform="translate(37.875 237.556479)scale(0.1 -0.1)">
       <defs>
        <path d="M 37.796875 64.3125 
L 12.890625 25.390625 
L 37.796875 25.390625 
z
M 35.203125 72.90625 
L 47.609375 72.90625 
L 47.609375 25.390625 
L 58.015625 25.390625 
L 58.015625 17.1875 
L 47.609375 17.1875 
L 47.609375 0 
L 37.796875 0 
L 37.796875 17.1875 
L 4.890625 17.1875 
L 4.890625 26.703125 
z
" id="DejaVuSans-52"/>
       </defs>
       <use xlink:href="#DejaVuSans-52"/>
       <use x="63.623047" xlink:href="#DejaVuSans-48"/>
      </g>
     </g>
    </g>
    <g id="ytick_4">
     <g id="line2d_9">
      <g>
       <use style="stroke:#000000;stroke-width:0.8;" x="57.6" xlink:href="#m1ebcc401f7" y="202.921557"/>
      </g>
     </g>
     <g id="text_9">
      <!-- 60 -->
      <g transform="translate(37.875 206.720776)scale(0.1 -0.1)">
       <defs>
        <path d="M 33.015625 40.375 
Q 26.375 40.375 22.484375 35.828125 
Q 18.609375 31.296875 18.609375 23.390625 
Q 18.609375 15.53125 22.484375 10.953125 
Q 26.375 6.390625 33.015625 6.390625 
Q 39.65625 6.390625 43.53125 10.953125 
Q 47.40625 15.53125 47.40625 23.390625 
Q 47.40625 31.296875 43.53125 35.828125 
Q 39.65625 40.375 33.015625 40.375 
z
M 52.59375 71.296875 
L 52.59375 62.3125 
Q 48.875 64.0625 45.09375 64.984375 
Q 41.3125 65.921875 37.59375 65.921875 
Q 27.828125 65.921875 22.671875 59.328125 
Q 17.53125 52.734375 16.796875 39.40625 
Q 19.671875 43.65625 24.015625 45.921875 
Q 28.375 48.1875 33.59375 48.1875 
Q 44.578125 48.1875 50.953125 41.515625 
Q 57.328125 34.859375 57.328125 23.390625 
Q 57.328125 12.15625 50.6875 5.359375 
Q 44.046875 -1.421875 33.015625 -1.421875 
Q 20.359375 -1.421875 13.671875 8.265625 
Q 6.984375 17.96875 6.984375 36.375 
Q 6.984375 53.65625 15.1875 63.9375 
Q 23.390625 74.21875 37.203125 74.21875 
Q 40.921875 74.21875 44.703125 73.484375 
Q 48.484375 72.75 52.59375 71.296875 
z
" id="DejaVuSans-54"/>
       </defs>
       <use xlink:href="#DejaVuSans-54"/>
       <use x="63.623047" xlink:href="#DejaVuSans-48"/>
      </g>
     </g>
    </g>
    <g id="ytick_5">
     <g id="line2d_10">
      <g>
       <use style="stroke:#000000;stroke-width:0.8;" x="57.6" xlink:href="#m1ebcc401f7" y="172.085854"/>
      </g>
     </g>
     <g id="text_10">
      <!-- 80 -->
      <g transform="translate(37.875 175.885073)scale(0.1 -0.1)">
       <defs>
        <path d="M 31.78125 34.625 
Q 24.75 34.625 20.71875 30.859375 
Q 16.703125 27.09375 16.703125 20.515625 
Q 16.703125 13.921875 20.71875 10.15625 
Q 24.75 6.390625 31.78125 6.390625 
Q 38.8125 6.390625 42.859375 10.171875 
Q 46.921875 13.96875 46.921875 20.515625 
Q 46.921875 27.09375 42.890625 30.859375 
Q 38.875 34.625 31.78125 34.625 
z
M 21.921875 38.8125 
Q 15.578125 40.375 12.03125 44.71875 
Q 8.5 49.078125 8.5 55.328125 
Q 8.5 64.0625 14.71875 69.140625 
Q 20.953125 74.21875 31.78125 74.21875 
Q 42.671875 74.21875 48.875 69.140625 
Q 55.078125 64.0625 55.078125 55.328125 
Q 55.078125 49.078125 51.53125 44.71875 
Q 48 40.375 41.703125 38.8125 
Q 48.828125 37.15625 52.796875 32.3125 
Q 56.78125 27.484375 56.78125 20.515625 
Q 56.78125 9.90625 50.3125 4.234375 
Q 43.84375 -1.421875 31.78125 -1.421875 
Q 19.734375 -1.421875 13.25 4.234375 
Q 6.78125 9.90625 6.78125 20.515625 
Q 6.78125 27.484375 10.78125 32.3125 
Q 14.796875 37.15625 21.921875 38.8125 
z
M 18.3125 54.390625 
Q 18.3125 48.734375 21.84375 45.5625 
Q 25.390625 42.390625 31.78125 42.390625 
Q 38.140625 42.390625 41.71875 45.5625 
Q 45.3125 48.734375 45.3125 54.390625 
Q 45.3125 60.0625 41.71875 63.234375 
Q 38.140625 66.40625 31.78125 66.40625 
Q 25.390625 66.40625 21.84375 63.234375 
Q 18.3125 60.0625 18.3125 54.390625 
z
" id="DejaVuSans-56"/>
       </defs>
       <use xlink:href="#DejaVuSans-56"/>
       <use x="63.623047" xlink:href="#DejaVuSans-48"/>
      </g>
     </g>
    </g>
    <g id="ytick_6">
     <g id="line2d_11">
      <g>
       <use style="stroke:#000000;stroke-width:0.8;" x="57.6" xlink:href="#m1ebcc401f7" y="141.250151"/>
      </g>
     </g>
     <g id="text_11">
      <!-- 100 -->
      <g transform="translate(31.5125 145.049369)scale(0.1 -0.1)">
       <use xlink:href="#DejaVuSans-49"/>
       <use x="63.623047" xlink:href="#DejaVuSans-48"/>
       <use x="127.246094" xlink:href="#DejaVuSans-48"/>
      </g>
     </g>
    </g>
    <g id="ytick_7">
     <g id="line2d_12">
      <g>
       <use style="stroke:#000000;stroke-width:0.8;" x="57.6" xlink:href="#m1ebcc401f7" y="110.414448"/>
      </g>
     </g>
     <g id="text_12">
      <!-- 120 -->
      <g transform="translate(31.5125 114.213666)scale(0.1 -0.1)">
       <use xlink:href="#DejaVuSans-49"/>
       <use x="63.623047" xlink:href="#DejaVuSans-50"/>
       <use x="127.246094" xlink:href="#DejaVuSans-48"/>
      </g>
     </g>
    </g>
    <g id="ytick_8">
     <g id="line2d_13">
      <g>
       <use style="stroke:#000000;stroke-width:0.8;" x="57.6" xlink:href="#m1ebcc401f7" y="79.578745"/>
      </g>
     </g>
     <g id="text_13">
      <!-- 140 -->
      <g transform="translate(31.5125 83.377963)scale(0.1 -0.1)">
       <use xlink:href="#DejaVuSans-49"/>
       <use x="63.623047" xlink:href="#DejaVuSans-52"/>
       <use x="127.246094" xlink:href="#DejaVuSans-48"/>
      </g>
     </g>
    </g>
    <g id="ytick_9">
     <g id="line2d_14">
      <g>
       <use style="stroke:#000000;stroke-width:0.8;" x="57.6" xlink:href="#m1ebcc401f7" y="48.743041"/>
      </g>
     </g>
     <g id="text_14">
      <!-- 160 -->
      <g transform="translate(31.5125 52.54226)scale(0.1 -0.1)">
       <use xlink:href="#DejaVuSans-49"/>
       <use x="63.623047" xlink:href="#DejaVuSans-54"/>
       <use x="127.246094" xlink:href="#DejaVuSans-48"/>
      </g>
     </g>
    </g>
   </g>
   <g id="line2d_15">
    <path clip-path="url(#p03713ab812)" d="M 301.081307 295.428666 
L 301.355819 277.17308 
L 301.834947 254.834728 
L 302.224528 250.590246 
L 303.150441 244.02234 
L 304.384991 235.265132 
L 304.729034 231.047475 
L 304.729006 227.03249 
L 304.562017 225.123354 
L 304.263471 223.29171 
L 303.818189 221.546501 
L 303.210992 219.896667 
L 302.4267 218.35115 
L 301.443046 216.93091 
L 300.260704 215.641653 
L 298.898902 214.469438 
L 297.376867 213.400323 
L 295.713829 212.420367 
L 292.041656 210.672166 
L 288.036209 209.113306 
L 277.574009 205.312599 
L 273.613491 203.538128 
L 271.758224 202.540658 
L 270.011921 201.45111 
L 268.393812 200.255542 
L 265.338312 197.662277 
L 262.36767 194.906428 
L 259.490061 192.004575 
L 256.713659 188.973296 
L 254.046638 185.82917 
L 251.497172 182.588776 
L 247.91127 177.583949 
L 244.635847 172.455775 
L 240.516781 165.335626 
L 237.393824 159.626953 
L 235.437869 155.711935 
L 233.67947 151.755818 
L 232.201548 147.79828 
L 231.087025 143.878997 
L 230.691951 141.946101 
L 230.418823 140.037647 
L 230.278005 138.158596 
L 230.279864 136.313907 
L 230.434763 134.50854 
L 230.812781 132.742483 
L 231.456137 131.009847 
L 232.33341 129.30678 
L 233.413179 127.629428 
L 234.664024 125.973938 
L 237.553256 122.713129 
L 242.384647 117.889542 
L 245.570692 114.673945 
L 248.435569 111.422485 
L 249.669017 109.773673 
L 250.727911 108.104335 
L 251.580829 106.410617 
L 252.19635 104.688666 
L 252.543054 102.934629 
L 252.677001 101.11479 
L 252.679034 99.207492 
L 252.554905 97.226973 
L 251.951164 93.103209 
L 250.911791 88.857383 
L 249.482799 84.60338 
L 247.710199 80.455084 
L 245.640006 76.52638 
L 243.31823 72.931153 
L 242.077377 71.294183 
L 240.790884 69.783289 
L 239.464502 68.412706 
L 238.103982 67.196671 
L 236.664409 66.116469 
L 235.104032 65.140674 
L 233.43335 64.264451 
L 231.662862 63.482966 
L 227.864456 62.184873 
L 223.792802 61.207722 
L 219.531886 60.51284 
L 215.165694 60.061552 
L 210.778212 59.815186 
L 204.340792 59.745268 
L 198.293693 59.957738 
L 194.355025 60.446921 
L 190.426593 61.229204 
L 186.506279 62.243944 
L 180.636395 64.06926 
L 164.995019 69.270296 
L 163.036274 69.818093 
L 163.036274 69.818093 
" style="fill:none;stroke:#fea952;stroke-linecap:square;"/>
   </g>
   <g id="line2d_16">
    <path clip-path="url(#p03713ab812)" d="M 294.914451 295.369333 
L 295.189866 277.052034 
L 295.686004 254.361315 
L 296.107416 249.806307 
L 297.054777 243.08612 
L 298.2469 234.667258 
L 298.563793 230.894396 
L 298.585323 227.569869 
L 298.28777 224.816381 
L 297.711448 222.68748 
L 297.356811 221.862539 
L 296.897832 221.099202 
L 296.237385 220.31568 
L 295.35407 219.516 
L 294.245972 218.713619 
L 292.925436 217.921138 
L 289.731601 216.390318 
L 285.960599 214.920668 
L 275.165261 210.989884 
L 270.693102 208.969974 
L 268.493721 207.772927 
L 266.347073 206.411202 
L 264.457131 205.002769 
L 261.192788 202.228266 
L 258.032971 199.293227 
L 254.982887 196.213969 
L 252.048137 193.006473 
L 249.234674 189.686452 
L 246.548765 186.269386 
L 243.996951 182.770539 
L 241.586019 179.20495 
L 238.278348 173.814716 
L 232.974837 164.452188 
L 230.853356 160.380579 
L 228.860756 156.166964 
L 227.085768 151.830283 
L 225.624264 147.380475 
L 225.044806 145.113994 
L 224.587014 142.819809 
L 224.268928 140.498526 
L 224.110868 138.152384 
L 224.135298 135.786707 
L 224.404222 133.217726 
L 225.031336 130.595738 
L 225.973621 128.185728 
L 227.147815 125.968633 
L 228.492662 123.911615 
L 229.963111 121.982067 
L 233.141475 118.403859 
L 238.040381 113.512217 
L 241.030035 110.50069 
L 243.497316 107.728263 
L 245.219757 105.330553 
L 246.146265 103.492803 
L 246.392551 102.481928 
L 246.509864 101.108216 
L 246.431623 97.961166 
L 245.929773 94.436053 
L 245.027012 90.702105 
L 243.764725 86.913631 
L 242.195592 83.216012 
L 240.382708 79.750422 
L 238.403496 76.656608 
L 236.359184 74.072071 
L 234.402553 72.129525 
L 233.394482 71.345351 
L 232.239604 70.602238 
L 229.513363 69.263388 
L 226.300134 68.150317 
L 222.699888 67.27725 
L 218.817499 66.638464 
L 214.755576 66.215041 
L 210.612653 65.980104 
L 204.452021 65.911405 
L 198.929191 66.092049 
L 195.461091 66.514066 
L 191.898888 67.218024 
L 188.245813 68.16067 
L 182.606386 69.913296 
L 166.656034 75.209543 
L 164.697288 75.75734 
L 164.697288 75.75734 
" style="fill:none;stroke:#ffffff;stroke-linecap:square;"/>
   </g>
   <g id="line2d_17">
    <path clip-path="url(#p03713ab812)" d="M 307.248162 295.488 
L 307.521771 277.294125 
L 307.98389 255.30814 
L 308.341641 251.374185 
L 309.246105 244.95856 
L 310.243889 238.172445 
L 310.746416 233.538056 
L 310.944741 228.852401 
L 310.87269 226.495111 
L 310.648834 224.131243 
L 310.239172 221.767039 
L 309.605807 219.416453 
L 308.710536 217.105853 
L 307.496588 214.83976 
L 305.98826 212.762618 
L 304.284023 210.967626 
L 302.443733 209.422876 
L 300.507762 208.087027 
L 298.502222 206.919595 
L 294.351712 204.954014 
L 290.11182 203.305943 
L 279.982757 199.635315 
L 276.533881 198.106282 
L 273.676769 196.491018 
L 272.330494 195.508316 
L 269.483836 193.096288 
L 266.702369 190.519629 
L 263.997235 187.79518 
L 261.379182 184.940118 
L 257.638028 180.45085 
L 254.149921 175.766847 
L 250.947342 170.949077 
L 247.946942 165.894554 
L 243.865106 158.661114 
L 241.040235 153.133734 
L 239.418632 149.498466 
L 238.09372 145.977311 
L 237.129244 142.644 
L 236.568719 139.576769 
L 236.424429 136.841107 
L 236.594226 134.889228 
L 236.938652 133.833966 
L 237.519005 132.644927 
L 238.333696 131.347242 
L 239.364938 129.965809 
L 241.965038 127.022399 
L 246.728913 122.266868 
L 250.111349 118.8472 
L 253.373822 115.116708 
L 254.876813 113.077079 
L 256.236065 110.878116 
L 257.388108 108.486463 
L 258.246436 105.884529 
L 258.693557 103.38733 
L 258.844138 101.121363 
L 258.834098 98.821722 
L 258.678187 96.49278 
L 258.38791 94.140064 
L 257.972555 91.770365 
L 256.79657 87.012661 
L 255.200872 82.293128 
L 253.224807 77.694155 
L 250.897303 73.302338 
L 249.607098 71.211584 
L 248.232964 69.205699 
L 246.772938 67.296017 
L 245.222585 65.494507 
L 243.574331 63.814562 
L 241.805411 62.263817 
L 239.934336 60.887588 
L 237.96846 59.679111 
L 235.923689 58.62248 
L 233.81236 57.702544 
L 231.644495 56.905575 
L 227.173247 55.633439 
L 222.574046 54.725312 
L 217.910679 54.116955 
L 213.250486 53.754441 
L 208.664981 53.589937 
L 202.092696 53.61809 
L 197.658194 53.823428 
L 193.24896 54.379777 
L 188.954299 55.240383 
L 184.766745 56.327218 
L 178.666404 58.225223 
L 163.334005 63.331049 
L 161.375259 63.878846 
L 161.375259 63.878846 
" style="fill:none;stroke:#ffffff;stroke-linecap:square;"/>
   </g>
   <g id="patch_3">
    <path d="M 57.6 307.584 
L 57.6 41.472 
" style="fill:none;stroke:#000000;stroke-linecap:square;stroke-linejoin:miter;stroke-width:0.8;"/>
   </g>
   <g id="patch_4">
    <path d="M 414.72 307.584 
L 414.72 41.472 
" style="fill:none;stroke:#000000;stroke-linecap:square;stroke-linejoin:miter;stroke-width:0.8;"/>
   </g>
   <g id="patch_5">
    <path d="M 57.6 307.584 
L 414.72 307.584 
" style="fill:none;stroke:#000000;stroke-linecap:square;stroke-linejoin:miter;stroke-width:0.8;"/>
   </g>
   <g id="patch_6">
    <path d="M 57.6 41.472 
L 414.72 41.472 
" style="fill:none;stroke:#000000;stroke-linecap:square;stroke-linejoin:miter;stroke-width:0.8;"/>
   </g>
  </g>
 </g>
 <defs>
  <clipPath id="p03713ab812">
   <rect height="266.112" width="357.12" x="57.6" y="41.472"/>
  </clipPath>
 </defs>
</svg>
