<?xml version="1.0" encoding="utf-8" standalone="no"?>
<!DOCTYPE svg PUBLIC "-//W3C//DTD SVG 1.1//EN"
  "http://www.w3.org/Graphics/SVG/1.1/DTD/svg11.dtd">
<!-- Created with matplotlib (https://matplotlib.org/) -->
<svg height="345.6pt" version="1.1" viewBox="0 0 460.8 345.6" width="460.8pt" xmlns="http://www.w3.org/2000/svg" xmlns:xlink="http://www.w3.org/1999/xlink">
 <metadata>
  <rdf:RDF xmlns:cc="http://creativecommons.org/ns#" xmlns:dc="http://purl.org/dc/elements/1.1/" xmlns:rdf="http://www.w3.org/1999/02/22-rdf-syntax-ns#">
   <cc:Work>
    <dc:type rdf:resource="http://purl.org/dc/dcmitype/StillImage"/>
    <dc:date>2021-06-23T08:49:48.369868</dc:date>
    <dc:format>image/svg+xml</dc:format>
    <dc:creator>
     <cc:Agent>
      <dc:title>Matplotlib v3.3.3, https://matplotlib.org/</dc:title>
     </cc:Agent>
    </dc:creator>
   </cc:Work>
  </rdf:RDF>
 </metadata>
 <defs>
  <style type="text/css">*{stroke-linecap:butt;stroke-linejoin:round;}</style>
 </defs>
 <g id="figure_1">
  <g id="patch_1">
   <path d="M 0 345.6 
L 460.8 345.6 
L 460.8 0 
L 0 0 
z
" style="fill:#ffffff;"/>
  </g>
  <g id="axes_1">
   <g id="patch_2">
    <path d="M 57.6 307.584 
L 414.72 307.584 
L 414.72 41.472 
L 57.6 41.472 
z
" style="fill:#7d9051;"/>
   </g>
   <g id="matplotlib.axis_1">
    <g id="xtick_1">
     <g id="line2d_1">
      <defs>
       <path d="M 0 0 
L 0 3.5 
" id="m83543d0b8a" style="stroke:#000000;stroke-width:0.8;"/>
      </defs>
      <g>
       <use style="stroke:#000000;stroke-width:0.8;" x="84.460074" xlink:href="#m83543d0b8a" y="307.584"/>
      </g>
     </g>
     <g id="text_1">
      <!-- 0 -->
      <g transform="translate(81.278824 322.182437)scale(0.1 -0.1)">
       <defs>
        <path d="M 31.78125 66.40625 
Q 24.171875 66.40625 20.328125 58.90625 
Q 16.5 51.421875 16.5 36.375 
Q 16.5 21.390625 20.328125 13.890625 
Q 24.171875 6.390625 31.78125 6.390625 
Q 39.453125 6.390625 43.28125 13.890625 
Q 47.125 21.390625 47.125 36.375 
Q 47.125 51.421875 43.28125 58.90625 
Q 39.453125 66.40625 31.78125 66.40625 
z
M 31.78125 74.21875 
Q 44.046875 74.21875 50.515625 64.515625 
Q 56.984375 54.828125 56.984375 36.375 
Q 56.984375 17.96875 50.515625 8.265625 
Q 44.046875 -1.421875 31.78125 -1.421875 
Q 19.53125 -1.421875 13.0625 8.265625 
Q 6.59375 17.96875 6.59375 36.375 
Q 6.59375 54.828125 13.0625 64.515625 
Q 19.53125 74.21875 31.78125 74.21875 
z
" id="DejaVuSans-48"/>
       </defs>
       <use xlink:href="#DejaVuSans-48"/>
      </g>
     </g>
    </g>
    <g id="xtick_2">
     <g id="line2d_2">
      <g>
       <use style="stroke:#000000;stroke-width:0.8;" x="136.072796" xlink:href="#m83543d0b8a" y="307.584"/>
      </g>
     </g>
     <g id="text_2">
      <!-- 20 -->
      <g transform="translate(129.710296 322.182437)scale(0.1 -0.1)">
       <defs>
        <path d="M 19.1875 8.296875 
L 53.609375 8.296875 
L 53.609375 0 
L 7.328125 0 
L 7.328125 8.296875 
Q 12.9375 14.109375 22.625 23.890625 
Q 32.328125 33.6875 34.8125 36.53125 
Q 39.546875 41.84375 41.421875 45.53125 
Q 43.3125 49.21875 43.3125 52.78125 
Q 43.3125 58.59375 39.234375 62.25 
Q 35.15625 65.921875 28.609375 65.921875 
Q 23.96875 65.921875 18.8125 64.3125 
Q 13.671875 62.703125 7.8125 59.421875 
L 7.8125 69.390625 
Q 13.765625 71.78125 18.9375 73 
Q 24.125 74.21875 28.421875 74.21875 
Q 39.75 74.21875 46.484375 68.546875 
Q 53.21875 62.890625 53.21875 53.421875 
Q 53.21875 48.921875 51.53125 44.890625 
Q 49.859375 40.875 45.40625 35.40625 
Q 44.1875 33.984375 37.640625 27.21875 
Q 31.109375 20.453125 19.1875 8.296875 
z
" id="DejaVuSans-50"/>
       </defs>
       <use xlink:href="#DejaVuSans-50"/>
       <use x="63.623047" xlink:href="#DejaVuSans-48"/>
      </g>
     </g>
    </g>
    <g id="xtick_3">
     <g id="line2d_3">
      <g>
       <use style="stroke:#000000;stroke-width:0.8;" x="187.685518" xlink:href="#m83543d0b8a" y="307.584"/>
      </g>
     </g>
     <g id="text_3">
      <!-- 40 -->
      <g transform="translate(181.323018 322.182437)scale(0.1 -0.1)">
       <defs>
        <path d="M 37.796875 64.3125 
L 12.890625 25.390625 
L 37.796875 25.390625 
z
M 35.203125 72.90625 
L 47.609375 72.90625 
L 47.609375 25.390625 
L 58.015625 25.390625 
L 58.015625 17.1875 
L 47.609375 17.1875 
L 47.609375 0 
L 37.796875 0 
L 37.796875 17.1875 
L 4.890625 17.1875 
L 4.890625 26.703125 
z
" id="DejaVuSans-52"/>
       </defs>
       <use xlink:href="#DejaVuSans-52"/>
       <use x="63.623047" xlink:href="#DejaVuSans-48"/>
      </g>
     </g>
    </g>
    <g id="xtick_4">
     <g id="line2d_4">
      <g>
       <use style="stroke:#000000;stroke-width:0.8;" x="239.29824" xlink:href="#m83543d0b8a" y="307.584"/>
      </g>
     </g>
     <g id="text_4">
      <!-- 60 -->
      <g transform="translate(232.93574 322.182437)scale(0.1 -0.1)">
       <defs>
        <path d="M 33.015625 40.375 
Q 26.375 40.375 22.484375 35.828125 
Q 18.609375 31.296875 18.609375 23.390625 
Q 18.609375 15.53125 22.484375 10.953125 
Q 26.375 6.390625 33.015625 6.390625 
Q 39.65625 6.390625 43.53125 10.953125 
Q 47.40625 15.53125 47.40625 23.390625 
Q 47.40625 31.296875 43.53125 35.828125 
Q 39.65625 40.375 33.015625 40.375 
z
M 52.59375 71.296875 
L 52.59375 62.3125 
Q 48.875 64.0625 45.09375 64.984375 
Q 41.3125 65.921875 37.59375 65.921875 
Q 27.828125 65.921875 22.671875 59.328125 
Q 17.53125 52.734375 16.796875 39.40625 
Q 19.671875 43.65625 24.015625 45.921875 
Q 28.375 48.1875 33.59375 48.1875 
Q 44.578125 48.1875 50.953125 41.515625 
Q 57.328125 34.859375 57.328125 23.390625 
Q 57.328125 12.15625 50.6875 5.359375 
Q 44.046875 -1.421875 33.015625 -1.421875 
Q 20.359375 -1.421875 13.671875 8.265625 
Q 6.984375 17.96875 6.984375 36.375 
Q 6.984375 53.65625 15.1875 63.9375 
Q 23.390625 74.21875 37.203125 74.21875 
Q 40.921875 74.21875 44.703125 73.484375 
Q 48.484375 72.75 52.59375 71.296875 
z
" id="DejaVuSans-54"/>
       </defs>
       <use xlink:href="#DejaVuSans-54"/>
       <use x="63.623047" xlink:href="#DejaVuSans-48"/>
      </g>
     </g>
    </g>
    <g id="xtick_5">
     <g id="line2d_5">
      <g>
       <use style="stroke:#000000;stroke-width:0.8;" x="290.910962" xlink:href="#m83543d0b8a" y="307.584"/>
      </g>
     </g>
     <g id="text_5">
      <!-- 80 -->
      <g transform="translate(284.548462 322.182437)scale(0.1 -0.1)">
       <defs>
        <path d="M 31.78125 34.625 
Q 24.75 34.625 20.71875 30.859375 
Q 16.703125 27.09375 16.703125 20.515625 
Q 16.703125 13.921875 20.71875 10.15625 
Q 24.75 6.390625 31.78125 6.390625 
Q 38.8125 6.390625 42.859375 10.171875 
Q 46.921875 13.96875 46.921875 20.515625 
Q 46.921875 27.09375 42.890625 30.859375 
Q 38.875 34.625 31.78125 34.625 
z
M 21.921875 38.8125 
Q 15.578125 40.375 12.03125 44.71875 
Q 8.5 49.078125 8.5 55.328125 
Q 8.5 64.0625 14.71875 69.140625 
Q 20.953125 74.21875 31.78125 74.21875 
Q 42.671875 74.21875 48.875 69.140625 
Q 55.078125 64.0625 55.078125 55.328125 
Q 55.078125 49.078125 51.53125 44.71875 
Q 48 40.375 41.703125 38.8125 
Q 48.828125 37.15625 52.796875 32.3125 
Q 56.78125 27.484375 56.78125 20.515625 
Q 56.78125 9.90625 50.3125 4.234375 
Q 43.84375 -1.421875 31.78125 -1.421875 
Q 19.734375 -1.421875 13.25 4.234375 
Q 6.78125 9.90625 6.78125 20.515625 
Q 6.78125 27.484375 10.78125 32.3125 
Q 14.796875 37.15625 21.921875 38.8125 
z
M 18.3125 54.390625 
Q 18.3125 48.734375 21.84375 45.5625 
Q 25.390625 42.390625 31.78125 42.390625 
Q 38.140625 42.390625 41.71875 45.5625 
Q 45.3125 48.734375 45.3125 54.390625 
Q 45.3125 60.0625 41.71875 63.234375 
Q 38.140625 66.40625 31.78125 66.40625 
Q 25.390625 66.40625 21.84375 63.234375 
Q 18.3125 60.0625 18.3125 54.390625 
z
" id="DejaVuSans-56"/>
       </defs>
       <use xlink:href="#DejaVuSans-56"/>
       <use x="63.623047" xlink:href="#DejaVuSans-48"/>
      </g>
     </g>
    </g>
    <g id="xtick_6">
     <g id="line2d_6">
      <g>
       <use style="stroke:#000000;stroke-width:0.8;" x="342.523684" xlink:href="#m83543d0b8a" y="307.584"/>
      </g>
     </g>
     <g id="text_6">
      <!-- 100 -->
      <g transform="translate(332.979934 322.182437)scale(0.1 -0.1)">
       <defs>
        <path d="M 12.40625 8.296875 
L 28.515625 8.296875 
L 28.515625 63.921875 
L 10.984375 60.40625 
L 10.984375 69.390625 
L 28.421875 72.90625 
L 38.28125 72.90625 
L 38.28125 8.296875 
L 54.390625 8.296875 
L 54.390625 0 
L 12.40625 0 
z
" id="DejaVuSans-49"/>
       </defs>
       <use xlink:href="#DejaVuSans-49"/>
       <use x="63.623047" xlink:href="#DejaVuSans-48"/>
       <use x="127.246094" xlink:href="#DejaVuSans-48"/>
      </g>
     </g>
    </g>
    <g id="xtick_7">
     <g id="line2d_7">
      <g>
       <use style="stroke:#000000;stroke-width:0.8;" x="394.136407" xlink:href="#m83543d0b8a" y="307.584"/>
      </g>
     </g>
     <g id="text_7">
      <!-- 120 -->
      <g transform="translate(384.592657 322.182437)scale(0.1 -0.1)">
       <use xlink:href="#DejaVuSans-49"/>
       <use x="63.623047" xlink:href="#DejaVuSans-50"/>
       <use x="127.246094" xlink:href="#DejaVuSans-48"/>
      </g>
     </g>
    </g>
   </g>
   <g id="matplotlib.axis_2">
    <g id="ytick_1">
     <g id="line2d_8">
      <defs>
       <path d="M 0 0 
L -3.5 0 
" id="m648fcb5931" style="stroke:#000000;stroke-width:0.8;"/>
      </defs>
      <g>
       <use style="stroke:#000000;stroke-width:0.8;" x="57.6" xlink:href="#m648fcb5931" y="277.265746"/>
      </g>
     </g>
     <g id="text_8">
      <!-- 0 -->
      <g transform="translate(44.2375 281.064965)scale(0.1 -0.1)">
       <use xlink:href="#DejaVuSans-48"/>
      </g>
     </g>
    </g>
    <g id="ytick_2">
     <g id="line2d_9">
      <g>
       <use style="stroke:#000000;stroke-width:0.8;" x="57.6" xlink:href="#m648fcb5931" y="225.653024"/>
      </g>
     </g>
     <g id="text_9">
      <!-- 20 -->
      <g transform="translate(37.875 229.452242)scale(0.1 -0.1)">
       <use xlink:href="#DejaVuSans-50"/>
       <use x="63.623047" xlink:href="#DejaVuSans-48"/>
      </g>
     </g>
    </g>
    <g id="ytick_3">
     <g id="line2d_10">
      <g>
       <use style="stroke:#000000;stroke-width:0.8;" x="57.6" xlink:href="#m648fcb5931" y="174.040302"/>
      </g>
     </g>
     <g id="text_10">
      <!-- 40 -->
      <g transform="translate(37.875 177.83952)scale(0.1 -0.1)">
       <use xlink:href="#DejaVuSans-52"/>
       <use x="63.623047" xlink:href="#DejaVuSans-48"/>
      </g>
     </g>
    </g>
    <g id="ytick_4">
     <g id="line2d_11">
      <g>
       <use style="stroke:#000000;stroke-width:0.8;" x="57.6" xlink:href="#m648fcb5931" y="122.42758"/>
      </g>
     </g>
     <g id="text_11">
      <!-- 60 -->
      <g transform="translate(37.875 126.226798)scale(0.1 -0.1)">
       <use xlink:href="#DejaVuSans-54"/>
       <use x="63.623047" xlink:href="#DejaVuSans-48"/>
      </g>
     </g>
    </g>
    <g id="ytick_5">
     <g id="line2d_12">
      <g>
       <use style="stroke:#000000;stroke-width:0.8;" x="57.6" xlink:href="#m648fcb5931" y="70.814857"/>
      </g>
     </g>
     <g id="text_12">
      <!-- 80 -->
      <g transform="translate(37.875 74.614076)scale(0.1 -0.1)">
       <use xlink:href="#DejaVuSans-56"/>
       <use x="63.623047" xlink:href="#DejaVuSans-48"/>
      </g>
     </g>
    </g>
   </g>
   <g id="line2d_13">
    <path clip-path="url(#p0a47091421)" d="M 84.460074 277.265746 
L 84.792165 253.499627 
L 85.559996 205.932171 
L 85.312871 199.047495 
L 84.180078 174.881857 
L 84.200811 168.066453 
L 84.56168 161.339015 
L 84.901553 158.01653 
L 85.364726 154.725932 
L 85.963953 151.47052 
L 87.572892 145.011453 
L 89.50613 138.309847 
L 91.735021 131.442918 
L 94.276051 124.559999 
L 97.145705 117.810425 
L 98.708918 114.532309 
L 100.36047 111.34353 
L 102.102421 108.262755 
L 103.936833 105.30865 
L 105.865766 102.499881 
L 107.89128 99.855117 
L 110.015437 97.393023 
L 112.240297 95.132266 
L 114.567922 93.091513 
L 117.000371 91.289432 
L 119.588163 89.697186 
L 122.368145 88.270224 
L 125.321875 87.003641 
L 128.430912 85.892528 
L 131.676815 84.93198 
L 135.04114 84.117088 
L 138.505447 83.442947 
L 142.051294 82.904649 
L 145.660238 82.497288 
L 149.313838 82.215957 
L 152.993652 82.055749 
L 156.681238 82.011757 
L 164.005959 82.252793 
L 171.140468 82.899811 
L 177.937229 83.913556 
L 184.359372 85.28102 
L 190.929485 87.125262 
L 197.626374 89.445615 
L 204.318858 92.215704 
L 207.622455 93.761157 
L 210.875759 95.409153 
L 214.062373 97.156395 
L 217.165899 98.999586 
L 220.169939 100.935429 
L 223.058097 102.960627 
L 225.813975 105.071883 
L 228.421176 107.265899 
L 230.863302 109.53938 
L 233.123957 111.889027 
L 235.186741 114.311545 
L 237.03526 116.803635 
L 238.625168 119.421165 
L 239.941412 122.211495 
L 241.011526 125.158567 
L 241.863043 128.246323 
L 242.5235 131.458704 
L 243.02043 134.779652 
L 243.381368 138.193111 
L 243.805404 145.233324 
L 244.413043 163.328714 
L 244.677284 166.90416 
L 245.053342 170.427594 
L 245.568753 173.882957 
L 246.251051 177.254192 
L 248.109875 183.78725 
L 253.238184 200.952761 
L 255.545383 207.884165 
L 258.097952 214.638103 
L 259.486907 217.903788 
L 260.961994 221.071426 
L 262.531476 224.123123 
L 264.203614 227.040985 
L 265.986673 229.807119 
L 267.888915 232.403632 
L 269.918603 234.81263 
L 272.084 237.016218 
L 274.393369 238.996505 
L 276.885288 240.794423 
L 279.57997 242.463019 
L 282.458129 244.002565 
L 285.500477 245.413333 
L 288.68773 246.695596 
L 292.0006 247.849625 
L 295.419802 248.875694 
L 298.92605 249.774074 
L 302.500057 250.545039 
L 306.122537 251.18886 
L 309.774204 251.705809 
L 313.435772 252.096159 
L 317.087954 252.360183 
L 320.711466 252.498153 
L 324.287019 252.510341 
L 327.795329 252.397019 
L 331.217108 252.15846 
L 334.533072 251.794936 
L 337.723933 251.306719 
L 340.824156 250.633422 
L 343.883407 249.727752 
L 346.905195 248.609628 
L 349.893035 247.298966 
L 352.850436 245.815685 
L 355.780913 244.179701 
L 361.575137 240.5293 
L 367.303803 236.507102 
L 378.676848 227.984684 
L 384.377419 223.803146 
L 390.124816 219.887176 
L 393.024855 218.078573 
L 393.024855 218.078573 
" style="fill:none;stroke:#fea952;stroke-linecap:square;"/>
   </g>
   <g id="line2d_14">
    <path clip-path="url(#p0a47091421)" d="M 74.138007 277.166433 
L 74.471372 253.309495 
L 75.242022 206.239304 
L 75.003476 199.568353 
L 73.857828 174.959712 
L 73.886092 167.664602 
L 74.292724 160.288553 
L 74.679771 156.577749 
L 75.212734 152.857244 
L 75.909653 149.132579 
L 77.633328 142.225777 
L 79.659255 135.212435 
L 82.012737 127.974184 
L 84.723515 120.647967 
L 87.828322 113.367306 
L 89.542815 109.784945 
L 91.374851 106.262825 
L 93.333076 102.817252 
L 95.427661 99.464943 
L 97.67053 96.223494 
L 100.075492 93.112092 
L 102.65812 90.152525 
L 105.43515 87.370508 
L 108.423071 84.797194 
L 111.590946 82.497786 
L 114.874336 80.51379 
L 118.299998 78.783122 
L 121.84797 77.283203 
L 125.501763 75.994296 
L 129.246802 74.899534 
L 133.069398 73.984608 
L 136.956125 73.237335 
L 140.893485 72.647242 
L 144.867736 72.205211 
L 148.86485 71.903182 
L 152.870514 71.733939 
L 156.870191 71.690942 
L 160.849188 71.768215 
L 164.792752 71.960277 
L 172.514958 72.669185 
L 179.922387 73.783695 
L 183.47703 74.485888 
L 186.994397 75.300461 
L 190.560617 76.247033 
L 194.163937 77.322546 
L 197.791925 78.524329 
L 201.431649 79.850054 
L 205.069818 81.297723 
L 208.692882 82.865686 
L 212.287105 84.552685 
L 215.838617 86.357912 
L 219.333431 88.2811 
L 222.757442 90.32263 
L 226.096376 92.483668 
L 229.335692 94.766316 
L 232.460399 97.173783 
L 235.454779 99.710547 
L 238.301954 102.382468 
L 240.98327 105.196785 
L 243.477476 108.161858 
L 245.857804 111.444752 
L 247.961138 115.017237 
L 249.644108 118.688341 
L 250.962611 122.414332 
L 251.974101 126.167517 
L 252.732386 129.931098 
L 253.285747 133.694202 
L 253.677004 137.448266 
L 254.122376 144.894171 
L 254.707513 162.56791 
L 255.262932 168.904705 
L 255.686168 171.835313 
L 256.221677 174.581825 
L 257.01205 177.549346 
L 264.132902 201.092869 
L 266.397859 207.526138 
L 268.844579 213.546162 
L 270.141662 216.350342 
L 271.487616 218.99063 
L 272.879819 221.448277 
L 274.313679 223.706637 
L 275.783035 225.752483 
L 277.281268 227.577571 
L 278.80344 229.180145 
L 280.433144 230.625361 
L 282.319689 232.018193 
L 284.448783 233.360845 
L 286.800635 234.637867 
L 289.353235 235.836737 
L 292.083431 236.947563 
L 294.967579 237.962666 
L 297.981909 238.876167 
L 301.102703 239.683628 
L 304.306368 240.381764 
L 307.569425 240.968222 
L 310.868464 241.441428 
L 314.180068 241.800483 
L 317.480713 242.045114 
L 323.953764 242.193177 
L 327.077406 242.09947 
L 330.092203 241.897392 
L 335.533182 241.219324 
L 337.893946 240.735503 
L 340.301215 240.046697 
L 342.75848 239.156603 
L 345.265223 238.071925 
L 347.818713 236.802545 
L 350.415395 235.36119 
L 355.725253 232.024373 
L 361.177056 228.199402 
L 372.521838 219.697901 
L 378.467985 215.339487 
L 384.662398 211.128357 
L 387.562437 209.319754 
L 387.562437 209.319754 
" style="fill:none;stroke:#ffffff;stroke-linecap:square;"/>
   </g>
   <g id="line2d_15">
    <path clip-path="url(#p0a47091421)" d="M 94.782141 277.365058 
L 95.112958 253.689759 
L 95.928597 209.212881 
L 95.771143 202.062131 
L 95.252758 191.548866 
L 94.584734 178.05786 
L 94.475883 171.606057 
L 94.630808 165.394859 
L 95.123335 159.455311 
L 95.516717 156.594619 
L 96.018253 153.808461 
L 97.512455 147.797129 
L 99.353006 141.407259 
L 101.457305 134.911651 
L 103.828586 128.472031 
L 106.463087 122.253544 
L 109.34609 116.424236 
L 110.871767 113.708258 
L 112.446005 111.152357 
L 114.061001 108.776269 
L 115.707068 106.598141 
L 117.372754 104.63352 
L 119.045445 102.894024 
L 120.712773 101.385832 
L 122.409796 100.081078 
L 124.301989 98.880582 
L 126.436291 97.757327 
L 128.79578 96.724078 
L 131.360062 95.790761 
L 134.106828 94.964425 
L 137.012883 94.249568 
L 140.054769 93.648559 
L 143.209103 93.162057 
L 146.452739 92.789366 
L 149.762826 92.528732 
L 156.492284 92.332571 
L 163.219167 92.545308 
L 169.765978 93.130436 
L 175.95207 94.043416 
L 181.724347 95.26158 
L 187.695033 96.927978 
L 193.821098 99.041177 
L 199.944834 101.565722 
L 205.912902 104.460395 
L 211.574355 107.676542 
L 214.243502 109.38719 
L 216.780503 111.154938 
L 219.167552 112.969982 
L 221.387573 114.821252 
L 223.424651 116.696291 
L 225.264643 118.58127 
L 226.896007 120.461231 
L 228.212715 122.162518 
L 229.289198 123.825094 
L 230.238716 125.734649 
L 231.06044 127.902802 
L 231.751986 130.325128 
L 232.314615 132.98631 
L 232.755114 135.865103 
L 233.323334 142.181242 
L 233.604377 149.0909 
L 233.923334 160.231051 
L 234.413036 167.999671 
L 234.843752 171.950483 
L 235.451339 175.930602 
L 236.280425 179.926559 
L 238.208709 186.706469 
L 243.418114 204.134135 
L 245.846311 211.417284 
L 248.598884 218.67823 
L 250.129236 222.261413 
L 251.782327 225.792509 
L 253.575335 229.255615 
L 255.527409 232.633693 
L 257.659666 235.907602 
L 259.994794 239.054781 
L 262.555937 242.047689 
L 265.364559 244.852292 
L 268.353594 247.367648 
L 271.450888 249.570653 
L 274.711157 251.565194 
L 278.115623 253.367263 
L 281.64772 254.989929 
L 285.292029 256.443628 
L 289.033621 257.736584 
L 292.857696 258.875221 
L 296.749396 259.864521 
L 300.693745 260.708314 
L 304.675649 261.409497 
L 308.679944 261.97019 
L 312.691476 262.391836 
L 316.695196 262.675253 
L 320.67628 262.820637 
L 324.620274 262.827504 
L 328.513251 262.694567 
L 332.342013 262.419527 
L 336.0943 261.998733 
L 339.914683 261.394114 
L 343.754366 260.531341 
L 347.465598 259.408807 
L 351.05191 258.062652 
L 354.520846 256.526007 
L 357.882159 254.828824 
L 361.14643 252.998213 
L 364.324122 251.058984 
L 370.457932 246.945813 
L 376.349422 242.661736 
L 390.286852 232.266804 
L 395.587234 228.645995 
L 398.487273 226.837392 
L 398.487273 226.837392 
" style="fill:none;stroke:#ffffff;stroke-linecap:square;"/>
   </g>
   <g id="patch_3">
    <path d="M 57.6 307.584 
L 57.6 41.472 
" style="fill:none;stroke:#000000;stroke-linecap:square;stroke-linejoin:miter;stroke-width:0.8;"/>
   </g>
   <g id="patch_4">
    <path d="M 414.72 307.584 
L 414.72 41.472 
" style="fill:none;stroke:#000000;stroke-linecap:square;stroke-linejoin:miter;stroke-width:0.8;"/>
   </g>
   <g id="patch_5">
    <path d="M 57.6 307.584 
L 414.72 307.584 
" style="fill:none;stroke:#000000;stroke-linecap:square;stroke-linejoin:miter;stroke-width:0.8;"/>
   </g>
   <g id="patch_6">
    <path d="M 57.6 41.472 
L 414.72 41.472 
" style="fill:none;stroke:#000000;stroke-linecap:square;stroke-linejoin:miter;stroke-width:0.8;"/>
   </g>
  </g>
 </g>
 <defs>
  <clipPath id="p0a47091421">
   <rect height="266.112" width="357.12" x="57.6" y="41.472"/>
  </clipPath>
 </defs>
</svg>
