<?xml version="1.0" encoding="utf-8" standalone="no"?>
<!DOCTYPE svg PUBLIC "-//W3C//DTD SVG 1.1//EN"
  "http://www.w3.org/Graphics/SVG/1.1/DTD/svg11.dtd">
<!-- Created with matplotlib (https://matplotlib.org/) -->
<svg height="345.6pt" version="1.1" viewBox="0 0 460.8 345.6" width="460.8pt" xmlns="http://www.w3.org/2000/svg" xmlns:xlink="http://www.w3.org/1999/xlink">
 <metadata>
  <rdf:RDF xmlns:cc="http://creativecommons.org/ns#" xmlns:dc="http://purl.org/dc/elements/1.1/" xmlns:rdf="http://www.w3.org/1999/02/22-rdf-syntax-ns#">
   <cc:Work>
    <dc:type rdf:resource="http://purl.org/dc/dcmitype/StillImage"/>
    <dc:date>2021-06-18T06:45:12.989317</dc:date>
    <dc:format>image/svg+xml</dc:format>
    <dc:creator>
     <cc:Agent>
      <dc:title>Matplotlib v3.3.3, https://matplotlib.org/</dc:title>
     </cc:Agent>
    </dc:creator>
   </cc:Work>
  </rdf:RDF>
 </metadata>
 <defs>
  <style type="text/css">*{stroke-linecap:butt;stroke-linejoin:round;}</style>
 </defs>
 <g id="figure_1">
  <g id="patch_1">
   <path d="M 0 345.6 
L 460.8 345.6 
L 460.8 0 
L 0 0 
z
" style="fill:#ffffff;"/>
  </g>
  <g id="axes_1">
   <g id="patch_2">
    <path d="M 57.6 307.584 
L 414.72 307.584 
L 414.72 41.472 
L 57.6 41.472 
z
" style="fill:#7d9051;"/>
   </g>
   <g id="matplotlib.axis_1">
    <g id="xtick_1">
     <g id="line2d_1">
      <defs>
       <path d="M 0 0 
L 0 3.5 
" id="m81b2761246" style="stroke:#000000;stroke-width:0.8;"/>
      </defs>
      <g>
       <use style="stroke:#000000;stroke-width:0.8;" x="86.333052" xlink:href="#m81b2761246" y="307.584"/>
      </g>
     </g>
     <g id="text_1">
      <!-- 0 -->
      <g transform="translate(83.151802 322.182437)scale(0.1 -0.1)">
       <defs>
        <path d="M 31.78125 66.40625 
Q 24.171875 66.40625 20.328125 58.90625 
Q 16.5 51.421875 16.5 36.375 
Q 16.5 21.390625 20.328125 13.890625 
Q 24.171875 6.390625 31.78125 6.390625 
Q 39.453125 6.390625 43.28125 13.890625 
Q 47.125 21.390625 47.125 36.375 
Q 47.125 51.421875 43.28125 58.90625 
Q 39.453125 66.40625 31.78125 66.40625 
z
M 31.78125 74.21875 
Q 44.046875 74.21875 50.515625 64.515625 
Q 56.984375 54.828125 56.984375 36.375 
Q 56.984375 17.96875 50.515625 8.265625 
Q 44.046875 -1.421875 31.78125 -1.421875 
Q 19.53125 -1.421875 13.0625 8.265625 
Q 6.59375 17.96875 6.59375 36.375 
Q 6.59375 54.828125 13.0625 64.515625 
Q 19.53125 74.21875 31.78125 74.21875 
z
" id="DejaVuSans-48"/>
       </defs>
       <use xlink:href="#DejaVuSans-48"/>
      </g>
     </g>
    </g>
    <g id="xtick_2">
     <g id="line2d_2">
      <g>
       <use style="stroke:#000000;stroke-width:0.8;" x="136.514063" xlink:href="#m81b2761246" y="307.584"/>
      </g>
     </g>
     <g id="text_2">
      <!-- 20 -->
      <g transform="translate(130.151563 322.182437)scale(0.1 -0.1)">
       <defs>
        <path d="M 19.1875 8.296875 
L 53.609375 8.296875 
L 53.609375 0 
L 7.328125 0 
L 7.328125 8.296875 
Q 12.9375 14.109375 22.625 23.890625 
Q 32.328125 33.6875 34.8125 36.53125 
Q 39.546875 41.84375 41.421875 45.53125 
Q 43.3125 49.21875 43.3125 52.78125 
Q 43.3125 58.59375 39.234375 62.25 
Q 35.15625 65.921875 28.609375 65.921875 
Q 23.96875 65.921875 18.8125 64.3125 
Q 13.671875 62.703125 7.8125 59.421875 
L 7.8125 69.390625 
Q 13.765625 71.78125 18.9375 73 
Q 24.125 74.21875 28.421875 74.21875 
Q 39.75 74.21875 46.484375 68.546875 
Q 53.21875 62.890625 53.21875 53.421875 
Q 53.21875 48.921875 51.53125 44.890625 
Q 49.859375 40.875 45.40625 35.40625 
Q 44.1875 33.984375 37.640625 27.21875 
Q 31.109375 20.453125 19.1875 8.296875 
z
" id="DejaVuSans-50"/>
       </defs>
       <use xlink:href="#DejaVuSans-50"/>
       <use x="63.623047" xlink:href="#DejaVuSans-48"/>
      </g>
     </g>
    </g>
    <g id="xtick_3">
     <g id="line2d_3">
      <g>
       <use style="stroke:#000000;stroke-width:0.8;" x="186.695074" xlink:href="#m81b2761246" y="307.584"/>
      </g>
     </g>
     <g id="text_3">
      <!-- 40 -->
      <g transform="translate(180.332574 322.182437)scale(0.1 -0.1)">
       <defs>
        <path d="M 37.796875 64.3125 
L 12.890625 25.390625 
L 37.796875 25.390625 
z
M 35.203125 72.90625 
L 47.609375 72.90625 
L 47.609375 25.390625 
L 58.015625 25.390625 
L 58.015625 17.1875 
L 47.609375 17.1875 
L 47.609375 0 
L 37.796875 0 
L 37.796875 17.1875 
L 4.890625 17.1875 
L 4.890625 26.703125 
z
" id="DejaVuSans-52"/>
       </defs>
       <use xlink:href="#DejaVuSans-52"/>
       <use x="63.623047" xlink:href="#DejaVuSans-48"/>
      </g>
     </g>
    </g>
    <g id="xtick_4">
     <g id="line2d_4">
      <g>
       <use style="stroke:#000000;stroke-width:0.8;" x="236.876086" xlink:href="#m81b2761246" y="307.584"/>
      </g>
     </g>
     <g id="text_4">
      <!-- 60 -->
      <g transform="translate(230.513586 322.182437)scale(0.1 -0.1)">
       <defs>
        <path d="M 33.015625 40.375 
Q 26.375 40.375 22.484375 35.828125 
Q 18.609375 31.296875 18.609375 23.390625 
Q 18.609375 15.53125 22.484375 10.953125 
Q 26.375 6.390625 33.015625 6.390625 
Q 39.65625 6.390625 43.53125 10.953125 
Q 47.40625 15.53125 47.40625 23.390625 
Q 47.40625 31.296875 43.53125 35.828125 
Q 39.65625 40.375 33.015625 40.375 
z
M 52.59375 71.296875 
L 52.59375 62.3125 
Q 48.875 64.0625 45.09375 64.984375 
Q 41.3125 65.921875 37.59375 65.921875 
Q 27.828125 65.921875 22.671875 59.328125 
Q 17.53125 52.734375 16.796875 39.40625 
Q 19.671875 43.65625 24.015625 45.921875 
Q 28.375 48.1875 33.59375 48.1875 
Q 44.578125 48.1875 50.953125 41.515625 
Q 57.328125 34.859375 57.328125 23.390625 
Q 57.328125 12.15625 50.6875 5.359375 
Q 44.046875 -1.421875 33.015625 -1.421875 
Q 20.359375 -1.421875 13.671875 8.265625 
Q 6.984375 17.96875 6.984375 36.375 
Q 6.984375 53.65625 15.1875 63.9375 
Q 23.390625 74.21875 37.203125 74.21875 
Q 40.921875 74.21875 44.703125 73.484375 
Q 48.484375 72.75 52.59375 71.296875 
z
" id="DejaVuSans-54"/>
       </defs>
       <use xlink:href="#DejaVuSans-54"/>
       <use x="63.623047" xlink:href="#DejaVuSans-48"/>
      </g>
     </g>
    </g>
    <g id="xtick_5">
     <g id="line2d_5">
      <g>
       <use style="stroke:#000000;stroke-width:0.8;" x="287.057097" xlink:href="#m81b2761246" y="307.584"/>
      </g>
     </g>
     <g id="text_5">
      <!-- 80 -->
      <g transform="translate(280.694597 322.182437)scale(0.1 -0.1)">
       <defs>
        <path d="M 31.78125 34.625 
Q 24.75 34.625 20.71875 30.859375 
Q 16.703125 27.09375 16.703125 20.515625 
Q 16.703125 13.921875 20.71875 10.15625 
Q 24.75 6.390625 31.78125 6.390625 
Q 38.8125 6.390625 42.859375 10.171875 
Q 46.921875 13.96875 46.921875 20.515625 
Q 46.921875 27.09375 42.890625 30.859375 
Q 38.875 34.625 31.78125 34.625 
z
M 21.921875 38.8125 
Q 15.578125 40.375 12.03125 44.71875 
Q 8.5 49.078125 8.5 55.328125 
Q 8.5 64.0625 14.71875 69.140625 
Q 20.953125 74.21875 31.78125 74.21875 
Q 42.671875 74.21875 48.875 69.140625 
Q 55.078125 64.0625 55.078125 55.328125 
Q 55.078125 49.078125 51.53125 44.71875 
Q 48 40.375 41.703125 38.8125 
Q 48.828125 37.15625 52.796875 32.3125 
Q 56.78125 27.484375 56.78125 20.515625 
Q 56.78125 9.90625 50.3125 4.234375 
Q 43.84375 -1.421875 31.78125 -1.421875 
Q 19.734375 -1.421875 13.25 4.234375 
Q 6.78125 9.90625 6.78125 20.515625 
Q 6.78125 27.484375 10.78125 32.3125 
Q 14.796875 37.15625 21.921875 38.8125 
z
M 18.3125 54.390625 
Q 18.3125 48.734375 21.84375 45.5625 
Q 25.390625 42.390625 31.78125 42.390625 
Q 38.140625 42.390625 41.71875 45.5625 
Q 45.3125 48.734375 45.3125 54.390625 
Q 45.3125 60.0625 41.71875 63.234375 
Q 38.140625 66.40625 31.78125 66.40625 
Q 25.390625 66.40625 21.84375 63.234375 
Q 18.3125 60.0625 18.3125 54.390625 
z
" id="DejaVuSans-56"/>
       </defs>
       <use xlink:href="#DejaVuSans-56"/>
       <use x="63.623047" xlink:href="#DejaVuSans-48"/>
      </g>
     </g>
    </g>
    <g id="xtick_6">
     <g id="line2d_6">
      <g>
       <use style="stroke:#000000;stroke-width:0.8;" x="337.238108" xlink:href="#m81b2761246" y="307.584"/>
      </g>
     </g>
     <g id="text_6">
      <!-- 100 -->
      <g transform="translate(327.694358 322.182437)scale(0.1 -0.1)">
       <defs>
        <path d="M 12.40625 8.296875 
L 28.515625 8.296875 
L 28.515625 63.921875 
L 10.984375 60.40625 
L 10.984375 69.390625 
L 28.421875 72.90625 
L 38.28125 72.90625 
L 38.28125 8.296875 
L 54.390625 8.296875 
L 54.390625 0 
L 12.40625 0 
z
" id="DejaVuSans-49"/>
       </defs>
       <use xlink:href="#DejaVuSans-49"/>
       <use x="63.623047" xlink:href="#DejaVuSans-48"/>
       <use x="127.246094" xlink:href="#DejaVuSans-48"/>
      </g>
     </g>
    </g>
    <g id="xtick_7">
     <g id="line2d_7">
      <g>
       <use style="stroke:#000000;stroke-width:0.8;" x="387.41912" xlink:href="#m81b2761246" y="307.584"/>
      </g>
     </g>
     <g id="text_7">
      <!-- 120 -->
      <g transform="translate(377.87537 322.182437)scale(0.1 -0.1)">
       <use xlink:href="#DejaVuSans-49"/>
       <use x="63.623047" xlink:href="#DejaVuSans-50"/>
       <use x="127.246094" xlink:href="#DejaVuSans-48"/>
      </g>
     </g>
    </g>
   </g>
   <g id="matplotlib.axis_2">
    <g id="ytick_1">
     <g id="line2d_8">
      <defs>
       <path d="M 0 0 
L -3.5 0 
" id="md2b93b9fe5" style="stroke:#000000;stroke-width:0.8;"/>
      </defs>
      <g>
       <use style="stroke:#000000;stroke-width:0.8;" x="57.6" xlink:href="#md2b93b9fe5" y="303.175042"/>
      </g>
     </g>
     <g id="text_8">
      <!-- −20 -->
      <g transform="translate(29.495313 306.97426)scale(0.1 -0.1)">
       <defs>
        <path d="M 10.59375 35.5 
L 73.1875 35.5 
L 73.1875 27.203125 
L 10.59375 27.203125 
z
" id="DejaVuSans-8722"/>
       </defs>
       <use xlink:href="#DejaVuSans-8722"/>
       <use x="83.789062" xlink:href="#DejaVuSans-50"/>
       <use x="147.412109" xlink:href="#DejaVuSans-48"/>
      </g>
     </g>
    </g>
    <g id="ytick_2">
     <g id="line2d_9">
      <g>
       <use style="stroke:#000000;stroke-width:0.8;" x="57.6" xlink:href="#md2b93b9fe5" y="252.99403"/>
      </g>
     </g>
     <g id="text_9">
      <!-- 0 -->
      <g transform="translate(44.2375 256.793249)scale(0.1 -0.1)">
       <use xlink:href="#DejaVuSans-48"/>
      </g>
     </g>
    </g>
    <g id="ytick_3">
     <g id="line2d_10">
      <g>
       <use style="stroke:#000000;stroke-width:0.8;" x="57.6" xlink:href="#md2b93b9fe5" y="202.813019"/>
      </g>
     </g>
     <g id="text_10">
      <!-- 20 -->
      <g transform="translate(37.875 206.612238)scale(0.1 -0.1)">
       <use xlink:href="#DejaVuSans-50"/>
       <use x="63.623047" xlink:href="#DejaVuSans-48"/>
      </g>
     </g>
    </g>
    <g id="ytick_4">
     <g id="line2d_11">
      <g>
       <use style="stroke:#000000;stroke-width:0.8;" x="57.6" xlink:href="#md2b93b9fe5" y="152.632008"/>
      </g>
     </g>
     <g id="text_11">
      <!-- 40 -->
      <g transform="translate(37.875 156.431226)scale(0.1 -0.1)">
       <use xlink:href="#DejaVuSans-52"/>
       <use x="63.623047" xlink:href="#DejaVuSans-48"/>
      </g>
     </g>
    </g>
    <g id="ytick_5">
     <g id="line2d_12">
      <g>
       <use style="stroke:#000000;stroke-width:0.8;" x="57.6" xlink:href="#md2b93b9fe5" y="102.450996"/>
      </g>
     </g>
     <g id="text_12">
      <!-- 60 -->
      <g transform="translate(37.875 106.250215)scale(0.1 -0.1)">
       <use xlink:href="#DejaVuSans-54"/>
       <use x="63.623047" xlink:href="#DejaVuSans-48"/>
      </g>
     </g>
    </g>
    <g id="ytick_6">
     <g id="line2d_13">
      <g>
       <use style="stroke:#000000;stroke-width:0.8;" x="57.6" xlink:href="#md2b93b9fe5" y="52.269985"/>
      </g>
     </g>
     <g id="text_13">
      <!-- 80 -->
      <g transform="translate(37.875 56.069204)scale(0.1 -0.1)">
       <use xlink:href="#DejaVuSans-56"/>
       <use x="63.623047" xlink:href="#DejaVuSans-48"/>
      </g>
     </g>
    </g>
   </g>
   <g id="line2d_14">
    <path clip-path="url(#p6b435262a9)" d="M 86.333052 252.99403 
L 86.655931 229.887172 
L 87.409487 186.922297 
L 86.993381 179.941536 
L 86.239914 172.72014 
L 84.530567 158.132964 
L 83.979516 151.055949 
L 83.868454 147.634752 
L 83.900769 144.315824 
L 84.101764 141.117215 
L 84.49674 138.056972 
L 85.111 135.153142 
L 85.969845 132.423773 
L 87.098578 129.886913 
L 88.5225 127.560609 
L 90.256321 125.407441 
L 92.281492 123.376914 
L 94.573432 121.467464 
L 97.107558 119.677528 
L 99.859289 118.005542 
L 102.804041 116.449943 
L 105.917233 115.009168 
L 109.174283 113.681652 
L 112.550608 112.465832 
L 116.021626 111.360145 
L 119.562755 110.363028 
L 126.757016 108.688247 
L 133.936734 107.428981 
L 140.905251 106.572722 
L 147.465908 106.106963 
L 154.042193 105.999151 
L 161.05882 106.244805 
L 168.320969 106.873525 
L 175.633821 107.914912 
L 179.248379 108.599606 
L 182.802556 109.398566 
L 186.271999 110.315493 
L 189.632355 111.354087 
L 192.859273 112.518047 
L 195.928399 113.811075 
L 198.815381 115.236869 
L 201.495868 116.79913 
L 203.945506 118.501558 
L 206.139943 120.347853 
L 208.054826 122.341715 
L 209.641069 124.547119 
L 210.889352 127.009438 
L 211.83498 129.704469 
L 212.513256 132.60801 
L 212.959484 135.695857 
L 213.208967 138.943808 
L 213.297008 142.327661 
L 213.129979 149.406257 
L 212.411974 164.129341 
L 212.35842 167.786823 
L 212.425851 171.386584 
L 212.649573 174.90442 
L 213.064887 178.31613 
L 213.707097 181.59751 
L 214.611506 184.724358 
L 218.060135 194.265148 
L 220.709071 200.903874 
L 223.647928 207.558747 
L 226.885312 214.052842 
L 228.618641 217.184308 
L 230.42983 220.209232 
L 232.319953 223.1055 
L 234.290087 225.850994 
L 236.341308 228.423599 
L 238.474691 230.8012 
L 240.691312 232.961681 
L 242.992247 234.882926 
L 245.378572 236.54282 
L 247.851362 237.919247 
L 250.494725 239.051994 
L 253.372804 239.998218 
L 256.456725 240.761859 
L 259.717615 241.346854 
L 263.126603 241.757142 
L 266.654816 241.996661 
L 270.273381 242.069351 
L 273.953426 241.97915 
L 277.666077 241.729997 
L 281.382463 241.325829 
L 285.07371 240.770586 
L 288.710947 240.068207 
L 292.265301 239.22263 
L 295.707898 238.237793 
L 299.009867 237.117635 
L 302.142335 235.866095 
L 305.076429 234.487111 
L 307.783276 232.984622 
L 310.234005 231.362567 
L 312.402373 229.494042 
L 314.30219 227.275677 
L 315.96466 224.746709 
L 317.420985 221.946377 
L 318.702371 218.913917 
L 319.840019 215.688568 
L 321.808921 208.816154 
L 325.394846 194.483113 
L 326.40004 191.006196 
L 327.511127 187.650291 
L 328.75931 184.454636 
L 330.175792 181.458469 
L 331.791778 178.701028 
L 333.638471 176.22155 
L 335.747075 174.059273 
L 338.090014 172.173769 
L 340.608858 170.48709 
L 343.288529 168.982193 
L 346.11395 167.642036 
L 349.070043 166.449577 
L 352.141731 165.387775 
L 355.313936 164.439586 
L 361.899588 162.815882 
L 368.706377 161.442129 
L 385.899255 158.206571 
L 392.53014 156.633993 
L 395.7325 155.719889 
L 395.7325 155.719889 
" style="fill:none;stroke:#fea952;stroke-linecap:square;"/>
   </g>
   <g id="line2d_15">
    <path clip-path="url(#p6b435262a9)" d="M 76.297314 252.897473 
L 76.621431 229.702314 
L 77.383162 187.367454 
L 77.003801 180.907795 
L 76.275618 173.91937 
L 74.534883 159.033887 
L 73.948598 151.381583 
L 73.832727 147.537038 
L 73.884323 143.686409 
L 74.148124 139.832529 
L 74.677816 135.979932 
L 75.537574 132.14069 
L 76.800311 128.343944 
L 78.538624 124.647395 
L 80.70557 121.266091 
L 83.150288 118.320152 
L 85.857465 115.666063 
L 88.783259 113.269949 
L 91.896046 111.100495 
L 95.171448 109.13145 
L 98.588842 107.341845 
L 102.129211 105.715286 
L 105.773978 104.239021 
L 109.504413 102.903089 
L 113.301398 101.699622 
L 117.145371 100.622309 
L 121.016367 99.666006 
L 128.758193 98.100064 
L 136.363686 96.975078 
L 143.673132 96.272136 
L 150.652216 95.974581 
L 157.984328 96.051069 
L 165.667676 96.522803 
L 173.542459 97.426444 
L 177.501728 98.054066 
L 181.449535 98.807758 
L 185.366943 99.695511 
L 189.235591 100.726829 
L 193.037692 101.913269 
L 196.755846 103.269151 
L 200.372542 104.812466 
L 203.86906 106.565901 
L 207.223405 108.55773 
L 210.406799 110.821907 
L 213.378524 113.395997 
L 216.202436 116.481526 
L 218.592681 120.009059 
L 220.359509 123.686565 
L 221.608064 127.421446 
L 222.446277 131.17258 
L 222.966209 134.927217 
L 223.241774 138.682775 
L 223.332614 142.437036 
L 223.153364 149.913326 
L 222.4471 164.276279 
L 222.441819 170.749606 
L 222.61223 173.691647 
L 222.914228 176.388482 
L 223.348115 178.808941 
L 224.086444 181.415141 
L 227.411065 190.620225 
L 229.93106 196.944041 
L 232.687926 203.199414 
L 235.666108 209.192495 
L 238.834594 214.724227 
L 240.473991 217.254258 
L 242.137247 219.594202 
L 243.811239 221.720951 
L 245.479761 223.614104 
L 247.123836 225.257917 
L 248.723198 226.6439 
L 250.259774 227.7736 
L 251.804453 228.694366 
L 253.629263 229.517843 
L 255.785112 230.256241 
L 258.2289 230.883359 
L 260.916865 231.38256 
L 263.806366 231.743986 
L 266.856383 231.962483 
L 270.027459 232.036162 
L 273.281414 231.965472 
L 276.581009 231.752623 
L 279.889598 231.401278 
L 283.170796 230.916436 
L 286.388169 230.304496 
L 289.504937 229.573498 
L 292.483698 228.733589 
L 295.286227 227.797771 
L 297.873427 226.783046 
L 300.205677 225.712082 
L 303.682496 223.759733 
L 304.779539 222.965815 
L 305.915759 221.762681 
L 307.060571 220.116098 
L 308.176246 218.039953 
L 309.237676 215.575519 
L 310.236057 212.774934 
L 312.073347 206.378133 
L 315.75348 191.695746 
L 316.872453 187.851763 
L 318.162714 183.998917 
L 319.68599 180.165088 
L 321.516971 176.384006 
L 323.742737 172.706173 
L 326.453187 169.214621 
L 329.454841 166.240504 
L 332.505866 163.834546 
L 335.694496 161.73641 
L 338.987451 159.914333 
L 342.359413 158.334576 
L 345.79116 156.9641 
L 349.267509 155.771944 
L 352.775566 154.729692 
L 359.839455 152.993397 
L 366.886875 151.572237 
L 383.707215 148.412679 
L 389.775367 146.983263 
L 392.977727 146.069159 
L 392.977727 146.069159 
" style="fill:none;stroke:#ffffff;stroke-linecap:square;"/>
   </g>
   <g id="line2d_16">
    <path clip-path="url(#p6b435262a9)" d="M 96.36879 253.090588 
L 96.69043 230.07203 
L 97.435812 186.477141 
L 96.98296 178.975278 
L 96.204211 171.520909 
L 94.526251 157.232041 
L 94.010435 150.730315 
L 93.90418 147.732466 
L 93.917215 144.94524 
L 94.055403 142.401901 
L 94.315664 140.134012 
L 94.684426 138.165594 
L 95.139379 136.503601 
L 95.658532 135.12643 
L 96.339431 133.855127 
L 97.362353 132.49473 
L 98.705519 131.087766 
L 100.363604 129.66498 
L 102.31907 128.254561 
L 104.547129 126.879635 
L 107.019241 125.558041 
L 109.705256 124.30305 
L 112.574589 123.124283 
L 115.596803 122.028575 
L 118.741854 121.020669 
L 125.282458 119.279825 
L 131.963776 117.914848 
L 138.555681 116.927436 
L 144.824573 116.311488 
L 150.721447 116.046866 
L 157.030953 116.10082 
L 163.675086 116.49606 
L 170.424008 117.255127 
L 177.047224 118.391453 
L 180.238169 119.101621 
L 183.308406 119.904157 
L 186.227019 120.794904 
L 188.962699 121.766943 
L 191.484256 122.809683 
L 193.761703 123.907837 
L 195.768331 125.04053 
L 197.484212 126.181209 
L 199.907216 128.201904 
L 200.689456 129.085179 
L 201.419195 130.332311 
L 202.061897 131.987492 
L 202.580236 134.04344 
L 202.952759 136.464497 
L 203.17616 139.204842 
L 203.261402 142.218285 
L 203.106595 148.899189 
L 202.376847 163.982404 
L 202.323978 167.974792 
L 202.409883 172.023562 
L 202.686916 176.117194 
L 203.215545 180.243778 
L 204.066078 184.386079 
L 205.136569 188.033575 
L 207.441363 194.522675 
L 210.056898 201.364064 
L 213.002864 208.388439 
L 216.306696 215.432819 
L 218.104516 218.913188 
L 220.007943 222.340006 
L 222.025065 225.694238 
L 224.165915 228.956741 
L 226.442928 232.107785 
L 228.871377 235.126247 
L 231.469621 237.988297 
L 234.258788 240.665446 
L 237.261296 243.121953 
L 240.49737 245.31204 
L 243.898271 247.144128 
L 247.360187 248.586145 
L 250.960496 249.740196 
L 254.684549 250.640358 
L 258.518365 251.311148 
L 262.446841 251.770297 
L 266.453249 252.030839 
L 270.519303 252.10254 
L 274.625437 251.992829 
L 278.751145 251.70737 
L 282.875328 251.25038 
L 286.976625 250.624736 
L 291.033725 249.831918 
L 295.025664 248.871761 
L 298.932098 247.741996 
L 302.733507 246.437499 
L 306.411243 244.949144 
L 309.94718 243.26214 
L 313.322517 241.353742 
L 316.785514 238.965401 
L 320.025208 236.022269 
L 322.688622 232.788672 
L 324.868748 229.377321 
L 326.665725 225.852801 
L 328.167066 222.252315 
L 329.443982 218.602203 
L 330.553983 214.927123 
L 332.4557 207.614427 
L 335.036212 197.27048 
L 336.85954 191.301664 
L 337.83263 188.744183 
L 338.834613 186.532932 
L 339.84082 184.695883 
L 340.823756 183.228478 
L 342.039309 181.878042 
L 343.674162 180.512993 
L 345.523219 179.23777 
L 347.589606 178.050053 
L 349.868487 176.949496 
L 352.348926 175.935055 
L 355.015953 175.003606 
L 360.83971 173.36452 
L 367.194253 171.958796 
L 377.414915 170.055232 
L 388.091296 168.000462 
L 395.284912 166.284723 
L 398.487273 165.370618 
L 398.487273 165.370618 
" style="fill:none;stroke:#ffffff;stroke-linecap:square;"/>
   </g>
   <g id="patch_3">
    <path d="M 57.6 307.584 
L 57.6 41.472 
" style="fill:none;stroke:#000000;stroke-linecap:square;stroke-linejoin:miter;stroke-width:0.8;"/>
   </g>
   <g id="patch_4">
    <path d="M 414.72 307.584 
L 414.72 41.472 
" style="fill:none;stroke:#000000;stroke-linecap:square;stroke-linejoin:miter;stroke-width:0.8;"/>
   </g>
   <g id="patch_5">
    <path d="M 57.6 307.584 
L 414.72 307.584 
" style="fill:none;stroke:#000000;stroke-linecap:square;stroke-linejoin:miter;stroke-width:0.8;"/>
   </g>
   <g id="patch_6">
    <path d="M 57.6 41.472 
L 414.72 41.472 
" style="fill:none;stroke:#000000;stroke-linecap:square;stroke-linejoin:miter;stroke-width:0.8;"/>
   </g>
  </g>
 </g>
 <defs>
  <clipPath id="p6b435262a9">
   <rect height="266.112" width="357.12" x="57.6" y="41.472"/>
  </clipPath>
 </defs>
</svg>
