<?xml version="1.0" encoding="utf-8" standalone="no"?>
<!DOCTYPE svg PUBLIC "-//W3C//DTD SVG 1.1//EN"
  "http://www.w3.org/Graphics/SVG/1.1/DTD/svg11.dtd">
<!-- Created with matplotlib (https://matplotlib.org/) -->
<svg height="345.6pt" version="1.1" viewBox="0 0 460.8 345.6" width="460.8pt" xmlns="http://www.w3.org/2000/svg" xmlns:xlink="http://www.w3.org/1999/xlink">
 <metadata>
  <rdf:RDF xmlns:cc="http://creativecommons.org/ns#" xmlns:dc="http://purl.org/dc/elements/1.1/" xmlns:rdf="http://www.w3.org/1999/02/22-rdf-syntax-ns#">
   <cc:Work>
    <dc:type rdf:resource="http://purl.org/dc/dcmitype/StillImage"/>
    <dc:date>2021-06-17T14:00:13.596318</dc:date>
    <dc:format>image/svg+xml</dc:format>
    <dc:creator>
     <cc:Agent>
      <dc:title>Matplotlib v3.3.3, https://matplotlib.org/</dc:title>
     </cc:Agent>
    </dc:creator>
   </cc:Work>
  </rdf:RDF>
 </metadata>
 <defs>
  <style type="text/css">*{stroke-linecap:butt;stroke-linejoin:round;}</style>
 </defs>
 <g id="figure_1">
  <g id="patch_1">
   <path d="M 0 345.6 
L 460.8 345.6 
L 460.8 0 
L 0 0 
z
" style="fill:#ffffff;"/>
  </g>
  <g id="axes_1">
   <g id="patch_2">
    <path d="M 57.6 307.584 
L 414.72 307.584 
L 414.72 41.472 
L 57.6 41.472 
z
" style="fill:#7d9051;"/>
   </g>
   <g id="matplotlib.axis_1">
    <g id="xtick_1">
     <g id="line2d_1">
      <defs>
       <path d="M 0 0 
L 0 3.5 
" id="md675a01df2" style="stroke:#000000;stroke-width:0.8;"/>
      </defs>
      <g>
       <use style="stroke:#000000;stroke-width:0.8;" x="119.671982" xlink:href="#md675a01df2" y="307.584"/>
      </g>
     </g>
     <g id="text_1">
      <!-- −50 -->
      <g transform="translate(109.119638 322.182437)scale(0.1 -0.1)">
       <defs>
        <path d="M 10.59375 35.5 
L 73.1875 35.5 
L 73.1875 27.203125 
L 10.59375 27.203125 
z
" id="DejaVuSans-8722"/>
        <path d="M 10.796875 72.90625 
L 49.515625 72.90625 
L 49.515625 64.59375 
L 19.828125 64.59375 
L 19.828125 46.734375 
Q 21.96875 47.46875 24.109375 47.828125 
Q 26.265625 48.1875 28.421875 48.1875 
Q 40.625 48.1875 47.75 41.5 
Q 54.890625 34.8125 54.890625 23.390625 
Q 54.890625 11.625 47.5625 5.09375 
Q 40.234375 -1.421875 26.90625 -1.421875 
Q 22.3125 -1.421875 17.546875 -0.640625 
Q 12.796875 0.140625 7.71875 1.703125 
L 7.71875 11.625 
Q 12.109375 9.234375 16.796875 8.0625 
Q 21.484375 6.890625 26.703125 6.890625 
Q 35.15625 6.890625 40.078125 11.328125 
Q 45.015625 15.765625 45.015625 23.390625 
Q 45.015625 31 40.078125 35.4375 
Q 35.15625 39.890625 26.703125 39.890625 
Q 22.75 39.890625 18.8125 39.015625 
Q 14.890625 38.140625 10.796875 36.28125 
z
" id="DejaVuSans-53"/>
        <path d="M 31.78125 66.40625 
Q 24.171875 66.40625 20.328125 58.90625 
Q 16.5 51.421875 16.5 36.375 
Q 16.5 21.390625 20.328125 13.890625 
Q 24.171875 6.390625 31.78125 6.390625 
Q 39.453125 6.390625 43.28125 13.890625 
Q 47.125 21.390625 47.125 36.375 
Q 47.125 51.421875 43.28125 58.90625 
Q 39.453125 66.40625 31.78125 66.40625 
z
M 31.78125 74.21875 
Q 44.046875 74.21875 50.515625 64.515625 
Q 56.984375 54.828125 56.984375 36.375 
Q 56.984375 17.96875 50.515625 8.265625 
Q 44.046875 -1.421875 31.78125 -1.421875 
Q 19.53125 -1.421875 13.0625 8.265625 
Q 6.59375 17.96875 6.59375 36.375 
Q 6.59375 54.828125 13.0625 64.515625 
Q 19.53125 74.21875 31.78125 74.21875 
z
" id="DejaVuSans-48"/>
       </defs>
       <use xlink:href="#DejaVuSans-8722"/>
       <use x="83.789062" xlink:href="#DejaVuSans-53"/>
       <use x="147.412109" xlink:href="#DejaVuSans-48"/>
      </g>
     </g>
    </g>
    <g id="xtick_2">
     <g id="line2d_2">
      <g>
       <use style="stroke:#000000;stroke-width:0.8;" x="187.641349" xlink:href="#md675a01df2" y="307.584"/>
      </g>
     </g>
     <g id="text_2">
      <!-- 0 -->
      <g transform="translate(184.460099 322.182437)scale(0.1 -0.1)">
       <use xlink:href="#DejaVuSans-48"/>
      </g>
     </g>
    </g>
    <g id="xtick_3">
     <g id="line2d_3">
      <g>
       <use style="stroke:#000000;stroke-width:0.8;" x="255.610716" xlink:href="#md675a01df2" y="307.584"/>
      </g>
     </g>
     <g id="text_3">
      <!-- 50 -->
      <g transform="translate(249.248216 322.182437)scale(0.1 -0.1)">
       <use xlink:href="#DejaVuSans-53"/>
       <use x="63.623047" xlink:href="#DejaVuSans-48"/>
      </g>
     </g>
    </g>
    <g id="xtick_4">
     <g id="line2d_4">
      <g>
       <use style="stroke:#000000;stroke-width:0.8;" x="323.580083" xlink:href="#md675a01df2" y="307.584"/>
      </g>
     </g>
     <g id="text_4">
      <!-- 100 -->
      <g transform="translate(314.036333 322.182437)scale(0.1 -0.1)">
       <defs>
        <path d="M 12.40625 8.296875 
L 28.515625 8.296875 
L 28.515625 63.921875 
L 10.984375 60.40625 
L 10.984375 69.390625 
L 28.421875 72.90625 
L 38.28125 72.90625 
L 38.28125 8.296875 
L 54.390625 8.296875 
L 54.390625 0 
L 12.40625 0 
z
" id="DejaVuSans-49"/>
       </defs>
       <use xlink:href="#DejaVuSans-49"/>
       <use x="63.623047" xlink:href="#DejaVuSans-48"/>
       <use x="127.246094" xlink:href="#DejaVuSans-48"/>
      </g>
     </g>
    </g>
    <g id="xtick_5">
     <g id="line2d_5">
      <g>
       <use style="stroke:#000000;stroke-width:0.8;" x="391.549451" xlink:href="#md675a01df2" y="307.584"/>
      </g>
     </g>
     <g id="text_5">
      <!-- 150 -->
      <g transform="translate(382.005701 322.182437)scale(0.1 -0.1)">
       <use xlink:href="#DejaVuSans-49"/>
       <use x="63.623047" xlink:href="#DejaVuSans-53"/>
       <use x="127.246094" xlink:href="#DejaVuSans-48"/>
      </g>
     </g>
    </g>
   </g>
   <g id="matplotlib.axis_2">
    <g id="ytick_1">
     <g id="line2d_6">
      <defs>
       <path d="M 0 0 
L -3.5 0 
" id="m33d6261cd3" style="stroke:#000000;stroke-width:0.8;"/>
      </defs>
      <g>
       <use style="stroke:#000000;stroke-width:0.8;" x="57.6" xlink:href="#m33d6261cd3" y="295.435686"/>
      </g>
     </g>
     <g id="text_6">
      <!-- 0 -->
      <g transform="translate(44.2375 299.234904)scale(0.1 -0.1)">
       <use xlink:href="#DejaVuSans-48"/>
      </g>
     </g>
    </g>
    <g id="ytick_2">
     <g id="line2d_7">
      <g>
       <use style="stroke:#000000;stroke-width:0.8;" x="57.6" xlink:href="#m33d6261cd3" y="261.451002"/>
      </g>
     </g>
     <g id="text_7">
      <!-- 25 -->
      <g transform="translate(37.875 265.250221)scale(0.1 -0.1)">
       <defs>
        <path d="M 19.1875 8.296875 
L 53.609375 8.296875 
L 53.609375 0 
L 7.328125 0 
L 7.328125 8.296875 
Q 12.9375 14.109375 22.625 23.890625 
Q 32.328125 33.6875 34.8125 36.53125 
Q 39.546875 41.84375 41.421875 45.53125 
Q 43.3125 49.21875 43.3125 52.78125 
Q 43.3125 58.59375 39.234375 62.25 
Q 35.15625 65.921875 28.609375 65.921875 
Q 23.96875 65.921875 18.8125 64.3125 
Q 13.671875 62.703125 7.8125 59.421875 
L 7.8125 69.390625 
Q 13.765625 71.78125 18.9375 73 
Q 24.125 74.21875 28.421875 74.21875 
Q 39.75 74.21875 46.484375 68.546875 
Q 53.21875 62.890625 53.21875 53.421875 
Q 53.21875 48.921875 51.53125 44.890625 
Q 49.859375 40.875 45.40625 35.40625 
Q 44.1875 33.984375 37.640625 27.21875 
Q 31.109375 20.453125 19.1875 8.296875 
z
" id="DejaVuSans-50"/>
       </defs>
       <use xlink:href="#DejaVuSans-50"/>
       <use x="63.623047" xlink:href="#DejaVuSans-53"/>
      </g>
     </g>
    </g>
    <g id="ytick_3">
     <g id="line2d_8">
      <g>
       <use style="stroke:#000000;stroke-width:0.8;" x="57.6" xlink:href="#m33d6261cd3" y="227.466318"/>
      </g>
     </g>
     <g id="text_8">
      <!-- 50 -->
      <g transform="translate(37.875 231.265537)scale(0.1 -0.1)">
       <use xlink:href="#DejaVuSans-53"/>
       <use x="63.623047" xlink:href="#DejaVuSans-48"/>
      </g>
     </g>
    </g>
    <g id="ytick_4">
     <g id="line2d_9">
      <g>
       <use style="stroke:#000000;stroke-width:0.8;" x="57.6" xlink:href="#m33d6261cd3" y="193.481635"/>
      </g>
     </g>
     <g id="text_9">
      <!-- 75 -->
      <g transform="translate(37.875 197.280854)scale(0.1 -0.1)">
       <defs>
        <path d="M 8.203125 72.90625 
L 55.078125 72.90625 
L 55.078125 68.703125 
L 28.609375 0 
L 18.3125 0 
L 43.21875 64.59375 
L 8.203125 64.59375 
z
" id="DejaVuSans-55"/>
       </defs>
       <use xlink:href="#DejaVuSans-55"/>
       <use x="63.623047" xlink:href="#DejaVuSans-53"/>
      </g>
     </g>
    </g>
    <g id="ytick_5">
     <g id="line2d_10">
      <g>
       <use style="stroke:#000000;stroke-width:0.8;" x="57.6" xlink:href="#m33d6261cd3" y="159.496951"/>
      </g>
     </g>
     <g id="text_10">
      <!-- 100 -->
      <g transform="translate(31.5125 163.29617)scale(0.1 -0.1)">
       <use xlink:href="#DejaVuSans-49"/>
       <use x="63.623047" xlink:href="#DejaVuSans-48"/>
       <use x="127.246094" xlink:href="#DejaVuSans-48"/>
      </g>
     </g>
    </g>
    <g id="ytick_6">
     <g id="line2d_11">
      <g>
       <use style="stroke:#000000;stroke-width:0.8;" x="57.6" xlink:href="#m33d6261cd3" y="125.512268"/>
      </g>
     </g>
     <g id="text_11">
      <!-- 125 -->
      <g transform="translate(31.5125 129.311486)scale(0.1 -0.1)">
       <use xlink:href="#DejaVuSans-49"/>
       <use x="63.623047" xlink:href="#DejaVuSans-50"/>
       <use x="127.246094" xlink:href="#DejaVuSans-53"/>
      </g>
     </g>
    </g>
    <g id="ytick_7">
     <g id="line2d_12">
      <g>
       <use style="stroke:#000000;stroke-width:0.8;" x="57.6" xlink:href="#m33d6261cd3" y="91.527584"/>
      </g>
     </g>
     <g id="text_12">
      <!-- 150 -->
      <g transform="translate(31.5125 95.326803)scale(0.1 -0.1)">
       <use xlink:href="#DejaVuSans-49"/>
       <use x="63.623047" xlink:href="#DejaVuSans-53"/>
       <use x="127.246094" xlink:href="#DejaVuSans-48"/>
      </g>
     </g>
    </g>
    <g id="ytick_8">
     <g id="line2d_13">
      <g>
       <use style="stroke:#000000;stroke-width:0.8;" x="57.6" xlink:href="#m33d6261cd3" y="57.5429"/>
      </g>
     </g>
     <g id="text_13">
      <!-- 175 -->
      <g transform="translate(31.5125 61.342119)scale(0.1 -0.1)">
       <use xlink:href="#DejaVuSans-49"/>
       <use x="63.623047" xlink:href="#DejaVuSans-55"/>
       <use x="127.246094" xlink:href="#DejaVuSans-53"/>
      </g>
     </g>
    </g>
   </g>
   <g id="line2d_14">
    <path clip-path="url(#p3a5d99d018)" d="M 187.641349 295.435686 
L 187.918493 277.551429 
L 188.253402 257.872888 
L 188.076882 248.881204 
L 187.964323 239.89908 
L 188.127052 234.544218 
L 188.395443 230.998208 
L 188.827578 227.47667 
L 189.156068 225.716069 
L 190.157049 222.163105 
L 191.496216 218.586753 
L 193.822801 213.22814 
L 196.097053 207.944877 
L 197.343182 204.502481 
L 198.204607 201.150452 
L 198.445874 199.515434 
L 198.536747 197.91154 
L 198.459156 196.341612 
L 198.195026 194.808496 
L 197.690445 193.321417 
L 196.924897 191.884182 
L 195.930411 190.491504 
L 194.739014 189.138094 
L 193.382733 187.818666 
L 190.303632 185.260602 
L 180.440004 177.852057 
L 179.041016 176.60052 
L 177.797422 175.330089 
L 176.741248 174.035476 
L 175.904523 172.711394 
L 175.319274 171.352555 
L 175.017528 169.953672 
L 174.96674 168.511911 
L 175.10364 167.031338 
L 175.414165 165.517008 
L 175.884253 163.973978 
L 176.499842 162.407304 
L 178.111274 159.223255 
L 180.135965 156.005314 
L 182.461419 152.793935 
L 186.267444 148.077662 
L 193.690163 139.501894 
L 196.158003 136.970762 
L 198.772355 134.565475 
L 202.900354 131.134287 
L 208.625985 126.747167 
L 215.78826 121.260534 
L 219.908016 117.807039 
L 225.220661 112.981255 
L 234.450082 104.449907 
L 238.524395 100.967974 
L 242.750926 97.706515 
L 245.686405 95.7022 
L 248.751268 93.883845 
L 253.532695 91.421536 
L 268.154527 84.449211 
L 271.246841 82.679724 
L 274.209973 80.727378 
L 277.041355 78.589796 
L 281.108537 75.132858 
L 285.018135 71.45565 
L 291.362045 65.083171 
L 296.457153 60.006993 
L 299.064797 57.549879 
L 299.064797 57.549879 
" style="fill:none;stroke:#fea952;stroke-linecap:square;"/>
   </g>
   <g id="line2d_15">
    <path clip-path="url(#p3a5d99d018)" d="M 182.204051 295.383371 
L 182.482033 277.442601 
L 182.799225 256.168529 
L 182.556544 237.948854 
L 182.825279 232.300998 
L 183.200947 228.503005 
L 183.8852 224.380069 
L 185.034692 220.338713 
L 186.482384 216.482369 
L 189.62212 209.291545 
L 191.613031 204.457615 
L 192.525646 201.622126 
L 193.017031 199.207846 
L 193.10055 197.264807 
L 192.891252 195.877722 
L 192.499754 195.044096 
L 191.848963 194.084375 
L 190.947401 193.035608 
L 188.504363 190.779994 
L 185.441131 188.404912 
L 178.531777 183.308763 
L 176.814577 181.904615 
L 175.155266 180.404187 
L 173.584122 178.767391 
L 172.144587 176.940238 
L 170.91048 174.862319 
L 170.003975 172.499091 
L 169.583349 170.145096 
L 169.552288 168.011269 
L 169.776928 165.939055 
L 170.212645 163.932352 
L 170.823366 161.985417 
L 171.581069 160.089413 
L 172.463664 158.235948 
L 174.532894 154.632717 
L 176.907055 151.148509 
L 179.474619 147.783101 
L 183.447445 143.000813 
L 189.739983 135.765182 
L 192.428373 133.013894 
L 195.22533 130.444121 
L 199.544685 126.855687 
L 205.359484 122.400108 
L 212.361615 117.038562 
L 216.302156 113.737062 
L 221.508797 109.007716 
L 230.863199 100.363196 
L 235.119627 96.72834 
L 238.087054 94.393415 
L 241.205584 92.145616 
L 244.498506 90.054566 
L 247.841656 88.196134 
L 252.867192 85.716767 
L 264.044446 80.464938 
L 266.950076 78.902104 
L 269.674539 77.24282 
L 272.306248 75.381262 
L 274.893916 73.327098 
L 278.697572 69.969135 
L 282.455137 66.349257 
L 295.361882 53.568 
L 295.361882 53.568 
" style="fill:none;stroke:#ffffff;stroke-linecap:square;"/>
   </g>
   <g id="line2d_16">
    <path clip-path="url(#p3a5d99d018)" d="M 193.078647 295.488 
L 193.354953 277.660257 
L 193.690697 257.820216 
L 193.512881 248.751368 
L 193.401236 239.982287 
L 193.553107 234.897587 
L 193.977301 229.965183 
L 194.426936 227.052068 
L 195.279405 223.987496 
L 196.510048 220.691137 
L 198.791818 215.436264 
L 201.175774 209.887435 
L 202.567129 206.011561 
L 203.136391 204.005372 
L 203.583905 201.944234 
L 203.874716 199.823023 
L 203.967668 197.643124 
L 203.817761 195.418418 
L 203.344231 193.061317 
L 202.489637 190.765112 
L 201.35004 188.724269 
L 200.011859 186.898633 
L 198.530627 185.24058 
L 196.944187 183.709774 
L 193.574764 180.917027 
L 182.926767 172.796853 
L 181.33791 171.130714 
L 180.634572 170.206019 
L 180.451707 169.762248 
L 180.381193 169.012553 
L 180.430352 168.12362 
L 180.615685 167.101663 
L 181.418614 164.725195 
L 182.76963 162.028012 
L 184.582988 159.134359 
L 186.749331 156.137697 
L 190.409256 151.600777 
L 197.640343 143.238607 
L 199.887632 140.92763 
L 202.31938 138.686829 
L 206.256024 135.412888 
L 211.892485 131.094225 
L 219.214905 125.482506 
L 223.513877 121.877016 
L 228.932525 116.954794 
L 238.036965 108.536619 
L 241.929163 105.207608 
L 245.884842 102.150107 
L 248.529649 100.337166 
L 251.33622 98.667669 
L 255.868901 96.331636 
L 270.790716 89.204992 
L 274.157263 87.272804 
L 277.428926 85.109761 
L 280.47615 82.80514 
L 283.376866 80.386348 
L 287.504288 76.613024 
L 292.708945 71.465054 
L 300.212048 63.939894 
L 302.767712 61.531758 
L 302.767712 61.531758 
" style="fill:none;stroke:#ffffff;stroke-linecap:square;"/>
   </g>
   <g id="patch_3">
    <path d="M 57.6 307.584 
L 57.6 41.472 
" style="fill:none;stroke:#000000;stroke-linecap:square;stroke-linejoin:miter;stroke-width:0.8;"/>
   </g>
   <g id="patch_4">
    <path d="M 414.72 307.584 
L 414.72 41.472 
" style="fill:none;stroke:#000000;stroke-linecap:square;stroke-linejoin:miter;stroke-width:0.8;"/>
   </g>
   <g id="patch_5">
    <path d="M 57.6 307.584 
L 414.72 307.584 
" style="fill:none;stroke:#000000;stroke-linecap:square;stroke-linejoin:miter;stroke-width:0.8;"/>
   </g>
   <g id="patch_6">
    <path d="M 57.6 41.472 
L 414.72 41.472 
" style="fill:none;stroke:#000000;stroke-linecap:square;stroke-linejoin:miter;stroke-width:0.8;"/>
   </g>
  </g>
 </g>
 <defs>
  <clipPath id="p3a5d99d018">
   <rect height="266.112" width="357.12" x="57.6" y="41.472"/>
  </clipPath>
 </defs>
</svg>
