<?xml version="1.0" encoding="utf-8" standalone="no"?>
<!DOCTYPE svg PUBLIC "-//W3C//DTD SVG 1.1//EN"
  "http://www.w3.org/Graphics/SVG/1.1/DTD/svg11.dtd">
<!-- Created with matplotlib (https://matplotlib.org/) -->
<svg height="345.6pt" version="1.1" viewBox="0 0 460.8 345.6" width="460.8pt" xmlns="http://www.w3.org/2000/svg" xmlns:xlink="http://www.w3.org/1999/xlink">
 <metadata>
  <rdf:RDF xmlns:cc="http://creativecommons.org/ns#" xmlns:dc="http://purl.org/dc/elements/1.1/" xmlns:rdf="http://www.w3.org/1999/02/22-rdf-syntax-ns#">
   <cc:Work>
    <dc:type rdf:resource="http://purl.org/dc/dcmitype/StillImage"/>
    <dc:date>2021-06-17T13:36:59.890408</dc:date>
    <dc:format>image/svg+xml</dc:format>
    <dc:creator>
     <cc:Agent>
      <dc:title>Matplotlib v3.3.3, https://matplotlib.org/</dc:title>
     </cc:Agent>
    </dc:creator>
   </cc:Work>
  </rdf:RDF>
 </metadata>
 <defs>
  <style type="text/css">*{stroke-linecap:butt;stroke-linejoin:round;}</style>
 </defs>
 <g id="figure_1">
  <g id="patch_1">
   <path d="M 0 345.6 
L 460.8 345.6 
L 460.8 0 
L 0 0 
z
" style="fill:#ffffff;"/>
  </g>
  <g id="axes_1">
   <g id="patch_2">
    <path d="M 57.6 307.584 
L 414.72 307.584 
L 414.72 41.472 
L 57.6 41.472 
z
" style="fill:#7d9051;"/>
   </g>
   <g id="matplotlib.axis_1">
    <g id="xtick_1">
     <g id="line2d_1">
      <defs>
       <path d="M 0 0 
L 0 3.5 
" id="md961b10976" style="stroke:#000000;stroke-width:0.8;"/>
      </defs>
      <g>
       <use style="stroke:#000000;stroke-width:0.8;" x="85.085295" xlink:href="#md961b10976" y="307.584"/>
      </g>
     </g>
     <g id="text_1">
      <!-- −100 -->
      <g transform="translate(71.351701 322.182437)scale(0.1 -0.1)">
       <defs>
        <path d="M 10.59375 35.5 
L 73.1875 35.5 
L 73.1875 27.203125 
L 10.59375 27.203125 
z
" id="DejaVuSans-8722"/>
        <path d="M 12.40625 8.296875 
L 28.515625 8.296875 
L 28.515625 63.921875 
L 10.984375 60.40625 
L 10.984375 69.390625 
L 28.421875 72.90625 
L 38.28125 72.90625 
L 38.28125 8.296875 
L 54.390625 8.296875 
L 54.390625 0 
L 12.40625 0 
z
" id="DejaVuSans-49"/>
        <path d="M 31.78125 66.40625 
Q 24.171875 66.40625 20.328125 58.90625 
Q 16.5 51.421875 16.5 36.375 
Q 16.5 21.390625 20.328125 13.890625 
Q 24.171875 6.390625 31.78125 6.390625 
Q 39.453125 6.390625 43.28125 13.890625 
Q 47.125 21.390625 47.125 36.375 
Q 47.125 51.421875 43.28125 58.90625 
Q 39.453125 66.40625 31.78125 66.40625 
z
M 31.78125 74.21875 
Q 44.046875 74.21875 50.515625 64.515625 
Q 56.984375 54.828125 56.984375 36.375 
Q 56.984375 17.96875 50.515625 8.265625 
Q 44.046875 -1.421875 31.78125 -1.421875 
Q 19.53125 -1.421875 13.0625 8.265625 
Q 6.59375 17.96875 6.59375 36.375 
Q 6.59375 54.828125 13.0625 64.515625 
Q 19.53125 74.21875 31.78125 74.21875 
z
" id="DejaVuSans-48"/>
       </defs>
       <use xlink:href="#DejaVuSans-8722"/>
       <use x="83.789062" xlink:href="#DejaVuSans-49"/>
       <use x="147.412109" xlink:href="#DejaVuSans-48"/>
       <use x="211.035156" xlink:href="#DejaVuSans-48"/>
      </g>
     </g>
    </g>
    <g id="xtick_2">
     <g id="line2d_2">
      <g>
       <use style="stroke:#000000;stroke-width:0.8;" x="154.058235" xlink:href="#md961b10976" y="307.584"/>
      </g>
     </g>
     <g id="text_2">
      <!-- −50 -->
      <g transform="translate(143.505891 322.182437)scale(0.1 -0.1)">
       <defs>
        <path d="M 10.796875 72.90625 
L 49.515625 72.90625 
L 49.515625 64.59375 
L 19.828125 64.59375 
L 19.828125 46.734375 
Q 21.96875 47.46875 24.109375 47.828125 
Q 26.265625 48.1875 28.421875 48.1875 
Q 40.625 48.1875 47.75 41.5 
Q 54.890625 34.8125 54.890625 23.390625 
Q 54.890625 11.625 47.5625 5.09375 
Q 40.234375 -1.421875 26.90625 -1.421875 
Q 22.3125 -1.421875 17.546875 -0.640625 
Q 12.796875 0.140625 7.71875 1.703125 
L 7.71875 11.625 
Q 12.109375 9.234375 16.796875 8.0625 
Q 21.484375 6.890625 26.703125 6.890625 
Q 35.15625 6.890625 40.078125 11.328125 
Q 45.015625 15.765625 45.015625 23.390625 
Q 45.015625 31 40.078125 35.4375 
Q 35.15625 39.890625 26.703125 39.890625 
Q 22.75 39.890625 18.8125 39.015625 
Q 14.890625 38.140625 10.796875 36.28125 
z
" id="DejaVuSans-53"/>
       </defs>
       <use xlink:href="#DejaVuSans-8722"/>
       <use x="83.789062" xlink:href="#DejaVuSans-53"/>
       <use x="147.412109" xlink:href="#DejaVuSans-48"/>
      </g>
     </g>
    </g>
    <g id="xtick_3">
     <g id="line2d_3">
      <g>
       <use style="stroke:#000000;stroke-width:0.8;" x="223.031176" xlink:href="#md961b10976" y="307.584"/>
      </g>
     </g>
     <g id="text_3">
      <!-- 0 -->
      <g transform="translate(219.849926 322.182437)scale(0.1 -0.1)">
       <use xlink:href="#DejaVuSans-48"/>
      </g>
     </g>
    </g>
    <g id="xtick_4">
     <g id="line2d_4">
      <g>
       <use style="stroke:#000000;stroke-width:0.8;" x="292.004116" xlink:href="#md961b10976" y="307.584"/>
      </g>
     </g>
     <g id="text_4">
      <!-- 50 -->
      <g transform="translate(285.641616 322.182437)scale(0.1 -0.1)">
       <use xlink:href="#DejaVuSans-53"/>
       <use x="63.623047" xlink:href="#DejaVuSans-48"/>
      </g>
     </g>
    </g>
    <g id="xtick_5">
     <g id="line2d_5">
      <g>
       <use style="stroke:#000000;stroke-width:0.8;" x="360.977057" xlink:href="#md961b10976" y="307.584"/>
      </g>
     </g>
     <g id="text_5">
      <!-- 100 -->
      <g transform="translate(351.433307 322.182437)scale(0.1 -0.1)">
       <use xlink:href="#DejaVuSans-49"/>
       <use x="63.623047" xlink:href="#DejaVuSans-48"/>
       <use x="127.246094" xlink:href="#DejaVuSans-48"/>
      </g>
     </g>
    </g>
   </g>
   <g id="matplotlib.axis_2">
    <g id="ytick_1">
     <g id="line2d_6">
      <defs>
       <path d="M 0 0 
L -3.5 0 
" id="mf780a6fe01" style="stroke:#000000;stroke-width:0.8;"/>
      </defs>
      <g>
       <use style="stroke:#000000;stroke-width:0.8;" x="57.6" xlink:href="#mf780a6fe01" y="295.434913"/>
      </g>
     </g>
     <g id="text_6">
      <!-- 0 -->
      <g transform="translate(44.2375 299.234132)scale(0.1 -0.1)">
       <use xlink:href="#DejaVuSans-48"/>
      </g>
     </g>
    </g>
    <g id="ytick_2">
     <g id="line2d_7">
      <g>
       <use style="stroke:#000000;stroke-width:0.8;" x="57.6" xlink:href="#mf780a6fe01" y="260.948443"/>
      </g>
     </g>
     <g id="text_7">
      <!-- 25 -->
      <g transform="translate(37.875 264.747662)scale(0.1 -0.1)">
       <defs>
        <path d="M 19.1875 8.296875 
L 53.609375 8.296875 
L 53.609375 0 
L 7.328125 0 
L 7.328125 8.296875 
Q 12.9375 14.109375 22.625 23.890625 
Q 32.328125 33.6875 34.8125 36.53125 
Q 39.546875 41.84375 41.421875 45.53125 
Q 43.3125 49.21875 43.3125 52.78125 
Q 43.3125 58.59375 39.234375 62.25 
Q 35.15625 65.921875 28.609375 65.921875 
Q 23.96875 65.921875 18.8125 64.3125 
Q 13.671875 62.703125 7.8125 59.421875 
L 7.8125 69.390625 
Q 13.765625 71.78125 18.9375 73 
Q 24.125 74.21875 28.421875 74.21875 
Q 39.75 74.21875 46.484375 68.546875 
Q 53.21875 62.890625 53.21875 53.421875 
Q 53.21875 48.921875 51.53125 44.890625 
Q 49.859375 40.875 45.40625 35.40625 
Q 44.1875 33.984375 37.640625 27.21875 
Q 31.109375 20.453125 19.1875 8.296875 
z
" id="DejaVuSans-50"/>
       </defs>
       <use xlink:href="#DejaVuSans-50"/>
       <use x="63.623047" xlink:href="#DejaVuSans-53"/>
      </g>
     </g>
    </g>
    <g id="ytick_3">
     <g id="line2d_8">
      <g>
       <use style="stroke:#000000;stroke-width:0.8;" x="57.6" xlink:href="#mf780a6fe01" y="226.461973"/>
      </g>
     </g>
     <g id="text_8">
      <!-- 50 -->
      <g transform="translate(37.875 230.261192)scale(0.1 -0.1)">
       <use xlink:href="#DejaVuSans-53"/>
       <use x="63.623047" xlink:href="#DejaVuSans-48"/>
      </g>
     </g>
    </g>
    <g id="ytick_4">
     <g id="line2d_9">
      <g>
       <use style="stroke:#000000;stroke-width:0.8;" x="57.6" xlink:href="#mf780a6fe01" y="191.975503"/>
      </g>
     </g>
     <g id="text_9">
      <!-- 75 -->
      <g transform="translate(37.875 195.774721)scale(0.1 -0.1)">
       <defs>
        <path d="M 8.203125 72.90625 
L 55.078125 72.90625 
L 55.078125 68.703125 
L 28.609375 0 
L 18.3125 0 
L 43.21875 64.59375 
L 8.203125 64.59375 
z
" id="DejaVuSans-55"/>
       </defs>
       <use xlink:href="#DejaVuSans-55"/>
       <use x="63.623047" xlink:href="#DejaVuSans-53"/>
      </g>
     </g>
    </g>
    <g id="ytick_5">
     <g id="line2d_10">
      <g>
       <use style="stroke:#000000;stroke-width:0.8;" x="57.6" xlink:href="#mf780a6fe01" y="157.489032"/>
      </g>
     </g>
     <g id="text_10">
      <!-- 100 -->
      <g transform="translate(31.5125 161.288251)scale(0.1 -0.1)">
       <use xlink:href="#DejaVuSans-49"/>
       <use x="63.623047" xlink:href="#DejaVuSans-48"/>
       <use x="127.246094" xlink:href="#DejaVuSans-48"/>
      </g>
     </g>
    </g>
    <g id="ytick_6">
     <g id="line2d_11">
      <g>
       <use style="stroke:#000000;stroke-width:0.8;" x="57.6" xlink:href="#mf780a6fe01" y="123.002562"/>
      </g>
     </g>
     <g id="text_11">
      <!-- 125 -->
      <g transform="translate(31.5125 126.801781)scale(0.1 -0.1)">
       <use xlink:href="#DejaVuSans-49"/>
       <use x="63.623047" xlink:href="#DejaVuSans-50"/>
       <use x="127.246094" xlink:href="#DejaVuSans-53"/>
      </g>
     </g>
    </g>
    <g id="ytick_7">
     <g id="line2d_12">
      <g>
       <use style="stroke:#000000;stroke-width:0.8;" x="57.6" xlink:href="#mf780a6fe01" y="88.516092"/>
      </g>
     </g>
     <g id="text_12">
      <!-- 150 -->
      <g transform="translate(31.5125 92.315311)scale(0.1 -0.1)">
       <use xlink:href="#DejaVuSans-49"/>
       <use x="63.623047" xlink:href="#DejaVuSans-53"/>
       <use x="127.246094" xlink:href="#DejaVuSans-48"/>
      </g>
     </g>
    </g>
    <g id="ytick_8">
     <g id="line2d_13">
      <g>
       <use style="stroke:#000000;stroke-width:0.8;" x="57.6" xlink:href="#mf780a6fe01" y="54.029622"/>
      </g>
     </g>
     <g id="text_13">
      <!-- 175 -->
      <g transform="translate(31.5125 57.82884)scale(0.1 -0.1)">
       <use xlink:href="#DejaVuSans-49"/>
       <use x="63.623047" xlink:href="#DejaVuSans-55"/>
       <use x="127.246094" xlink:href="#DejaVuSans-53"/>
      </g>
     </g>
    </g>
   </g>
   <g id="line2d_14">
    <path clip-path="url(#pb451c96e7d)" d="M 223.031176 295.434913 
L 223.312412 277.286594 
L 223.625937 259.115588 
L 223.417777 255.322844 
L 222.814627 249.458931 
L 222.010428 241.640381 
L 221.841056 237.870942 
L 221.964747 234.277594 
L 222.168815 232.566376 
L 222.484937 230.922486 
L 222.926043 229.353694 
L 223.50506 227.867769 
L 224.234919 226.472478 
L 225.132956 225.184157 
L 226.197331 224.006305 
L 227.412208 222.927434 
L 228.761753 221.936057 
L 231.801509 220.169832 
L 235.189919 218.615731 
L 240.649155 216.481281 
L 246.180302 214.307171 
L 249.696553 212.682565 
L 252.92807 210.810582 
L 255.839318 208.635608 
L 263.53979 202.654729 
L 266.610518 200.091271 
L 269.522393 197.438059 
L 272.173118 194.700442 
L 274.460396 191.883767 
L 275.435774 190.447455 
L 276.281929 188.993383 
L 276.986073 187.52222 
L 277.53542 186.034636 
L 277.917182 184.531297 
L 278.089267 183.003669 
L 278.034092 181.444319 
L 277.775633 179.855572 
L 277.337867 178.239754 
L 276.74477 176.599191 
L 275.188486 173.253132 
L 273.298593 169.835999 
L 269.285218 162.862933 
L 267.545357 159.344209 
L 266.826049 157.584939 
L 266.239126 155.828831 
L 265.808563 154.078211 
L 265.558336 152.335404 
L 265.503938 150.573035 
L 265.629 148.767058 
L 265.909711 146.924787 
L 266.84283 143.16063 
L 268.1128 139.339094 
L 271.511309 129.918317 
L 272.460094 126.356871 
L 272.751248 124.649741 
L 272.888495 123.001427 
L 272.848021 121.419246 
L 272.606015 119.910514 
L 272.138665 118.482547 
L 271.458335 117.131808 
L 270.602864 115.846876 
L 269.586651 114.623238 
L 268.424094 113.456383 
L 267.129593 112.341801 
L 264.202354 110.251407 
L 260.920127 108.315965 
L 257.398102 106.499385 
L 250.095431 103.078448 
L 244.845702 100.556333 
L 239.942784 98.098413 
L 236.521203 96.701088 
L 231.231447 94.834955 
L 224.175122 92.408899 
L 220.770024 91.065233 
L 217.52074 89.541283 
L 214.482596 87.767156 
L 213.059991 86.764434 
L 211.710919 85.672958 
L 209.229796 83.235668 
L 206.995563 80.514361 
L 204.961931 77.562291 
L 203.082605 74.432711 
L 200.451678 69.522001 
L 195.293983 59.58076 
L 193.435874 56.426773 
L 193.435874 56.426773 
" style="fill:none;stroke:#fea952;stroke-linecap:square;"/>
   </g>
   <g id="line2d_15">
    <path clip-path="url(#pb451c96e7d)" d="M 217.513596 295.381826 
L 217.795682 277.176159 
L 218.112615 259.338717 
L 217.922324 255.81934 
L 217.333028 250.090256 
L 216.502617 241.972828 
L 216.323512 237.814185 
L 216.485734 233.624205 
L 216.750259 231.524381 
L 217.173084 229.428926 
L 217.784748 227.350297 
L 218.615737 225.310225 
L 219.70829 223.317144 
L 221.039035 221.484655 
L 222.533416 219.880504 
L 224.145495 218.480514 
L 225.842732 217.253555 
L 227.602819 216.168497 
L 231.24972 214.316226 
L 234.980452 212.744885 
L 245.562362 208.553303 
L 248.452863 207.090762 
L 249.704954 206.331963 
L 252.480214 204.25806 
L 260.040817 198.38815 
L 264.323095 194.74609 
L 266.851834 192.315743 
L 268.996702 189.935174 
L 270.666655 187.672204 
L 271.809907 185.610725 
L 272.434027 183.913628 
L 272.574883 183.198786 
L 272.587854 182.330318 
L 272.449797 181.298477 
L 272.148725 180.115736 
L 271.073656 177.381009 
L 269.47513 174.277085 
L 263.379808 163.452468 
L 262.43794 161.432462 
L 261.592762 159.333999 
L 260.880971 157.146663 
L 260.346736 154.862402 
L 260.043128 152.50564 
L 259.999285 150.191844 
L 260.174125 147.935887 
L 260.521276 145.736818 
L 261.583097 141.492784 
L 262.932213 137.439612 
L 266.215542 128.368686 
L 267.0208 125.429189 
L 267.372464 123.142532 
L 267.361897 121.626827 
L 267.210623 120.964665 
L 266.865321 120.189704 
L 266.358006 119.372168 
L 265.67776 118.517731 
L 263.803374 116.744388 
L 261.315163 114.953601 
L 258.336978 113.191809 
L 255.001854 111.469748 
L 247.763362 108.079244 
L 242.278933 105.440819 
L 237.786708 103.17757 
L 234.614912 101.879173 
L 229.47814 100.066821 
L 222.213488 97.566272 
L 218.521833 96.104294 
L 214.862753 94.376737 
L 211.303664 92.277244 
L 209.589388 91.054122 
L 207.962242 89.721899 
L 206.455522 88.313811 
L 203.73804 85.306151 
L 201.35642 82.111 
L 199.238991 78.795452 
L 197.318709 75.416585 
L 193.835644 68.679748 
L 190.50619 62.323669 
L 188.716349 59.285546 
L 188.716349 59.285546 
" style="fill:none;stroke:#ffffff;stroke-linecap:square;"/>
   </g>
   <g id="line2d_16">
    <path clip-path="url(#pb451c96e7d)" d="M 228.548755 295.488 
L 228.829142 277.397029 
L 229.139259 258.892459 
L 228.913229 254.826348 
L 228.296227 248.827606 
L 227.518239 241.307933 
L 227.358599 237.927699 
L 227.443761 234.930983 
L 227.796791 232.416047 
L 228.394383 230.425312 
L 228.761549 229.627811 
L 229.226878 228.883659 
L 229.861246 228.132106 
L 230.678921 227.374354 
L 231.680775 226.618558 
L 234.193444 225.142271 
L 237.268963 223.726904 
L 242.607687 221.639833 
L 248.405799 219.356297 
L 252.325861 217.533672 
L 254.258778 216.475716 
L 256.151186 215.2892 
L 259.198422 213.013156 
L 267.038764 206.921307 
L 270.2736 204.217811 
L 273.415761 201.348071 
L 276.367751 198.285349 
L 279.025182 194.983644 
L 280.204893 193.222705 
L 281.259039 191.375583 
L 282.162239 189.433715 
L 282.883508 187.392744 
L 283.400337 185.148967 
L 283.603651 182.808552 
L 283.48033 180.55832 
L 283.10147 178.412667 
L 282.527009 176.363772 
L 281.803434 174.395463 
L 280.047503 170.63847 
L 278.063235 167.053071 
L 274.183393 160.322384 
L 272.652773 157.255955 
L 271.597281 154.510999 
L 271.073545 152.165167 
L 271.00859 150.954227 
L 271.083875 149.598229 
L 271.298146 148.112756 
L 272.102564 144.828476 
L 273.293386 141.238575 
L 276.807076 131.467949 
L 277.404884 129.400847 
L 277.899387 127.284553 
L 278.250055 125.107598 
L 278.404525 122.860322 
L 278.296212 120.545337 
L 277.850133 118.194201 
L 277.066707 116.000429 
L 276.051349 114.073912 
L 274.847722 112.321583 
L 273.495542 110.728744 
L 272.024374 109.274937 
L 270.455812 107.939214 
L 267.089546 105.549213 
L 263.503275 103.440122 
L 259.79435 101.529023 
L 252.4275 98.077652 
L 247.412471 95.671846 
L 243.926946 93.865447 
L 240.263377 92.242347 
L 234.781456 90.213453 
L 224.545933 86.648277 
L 221.560447 85.380145 
L 218.877988 83.999372 
L 216.530594 82.474747 
L 214.417683 80.672475 
L 212.431383 78.508225 
L 210.556711 76.016686 
L 208.772754 73.237271 
L 206.209178 68.637763 
L 199.099885 55.127243 
L 198.1554 53.568 
L 198.1554 53.568 
" style="fill:none;stroke:#ffffff;stroke-linecap:square;"/>
   </g>
   <g id="patch_3">
    <path d="M 57.6 307.584 
L 57.6 41.472 
" style="fill:none;stroke:#000000;stroke-linecap:square;stroke-linejoin:miter;stroke-width:0.8;"/>
   </g>
   <g id="patch_4">
    <path d="M 414.72 307.584 
L 414.72 41.472 
" style="fill:none;stroke:#000000;stroke-linecap:square;stroke-linejoin:miter;stroke-width:0.8;"/>
   </g>
   <g id="patch_5">
    <path d="M 57.6 307.584 
L 414.72 307.584 
" style="fill:none;stroke:#000000;stroke-linecap:square;stroke-linejoin:miter;stroke-width:0.8;"/>
   </g>
   <g id="patch_6">
    <path d="M 57.6 41.472 
L 414.72 41.472 
" style="fill:none;stroke:#000000;stroke-linecap:square;stroke-linejoin:miter;stroke-width:0.8;"/>
   </g>
  </g>
 </g>
 <defs>
  <clipPath id="pb451c96e7d">
   <rect height="266.112" width="357.12" x="57.6" y="41.472"/>
  </clipPath>
 </defs>
</svg>
