<?xml version="1.0" encoding="utf-8" standalone="no"?>
<!DOCTYPE svg PUBLIC "-//W3C//DTD SVG 1.1//EN"
  "http://www.w3.org/Graphics/SVG/1.1/DTD/svg11.dtd">
<!-- Created with matplotlib (https://matplotlib.org/) -->
<svg height="345.6pt" version="1.1" viewBox="0 0 460.8 345.6" width="460.8pt" xmlns="http://www.w3.org/2000/svg" xmlns:xlink="http://www.w3.org/1999/xlink">
 <metadata>
  <rdf:RDF xmlns:cc="http://creativecommons.org/ns#" xmlns:dc="http://purl.org/dc/elements/1.1/" xmlns:rdf="http://www.w3.org/1999/02/22-rdf-syntax-ns#">
   <cc:Work>
    <dc:type rdf:resource="http://purl.org/dc/dcmitype/StillImage"/>
    <dc:date>2021-06-03T14:10:31.330299</dc:date>
    <dc:format>image/svg+xml</dc:format>
    <dc:creator>
     <cc:Agent>
      <dc:title>Matplotlib v3.3.3, https://matplotlib.org/</dc:title>
     </cc:Agent>
    </dc:creator>
   </cc:Work>
  </rdf:RDF>
 </metadata>
 <defs>
  <style type="text/css">*{stroke-linecap:butt;stroke-linejoin:round;}</style>
 </defs>
 <g id="figure_1">
  <g id="patch_1">
   <path d="M 0 345.6 
L 460.8 345.6 
L 460.8 0 
L 0 0 
z
" style="fill:#ffffff;"/>
  </g>
  <g id="axes_1">
   <g id="patch_2">
    <path d="M 57.6 307.584 
L 414.72 307.584 
L 414.72 41.472 
L 57.6 41.472 
z
" style="fill:#7d9051;"/>
   </g>
   <g id="matplotlib.axis_1">
    <g id="xtick_1">
     <g id="line2d_1">
      <defs>
       <path d="M 0 0 
L 0 3.5 
" id="m2f722469b4" style="stroke:#000000;stroke-width:0.8;"/>
      </defs>
      <g>
       <use style="stroke:#000000;stroke-width:0.8;" x="73.923097" xlink:href="#m2f722469b4" y="307.584"/>
      </g>
     </g>
     <g id="text_1">
      <!-- −100 -->
      <g transform="translate(60.189504 322.182437)scale(0.1 -0.1)">
       <defs>
        <path d="M 10.59375 35.5 
L 73.1875 35.5 
L 73.1875 27.203125 
L 10.59375 27.203125 
z
" id="DejaVuSans-8722"/>
        <path d="M 12.40625 8.296875 
L 28.515625 8.296875 
L 28.515625 63.921875 
L 10.984375 60.40625 
L 10.984375 69.390625 
L 28.421875 72.90625 
L 38.28125 72.90625 
L 38.28125 8.296875 
L 54.390625 8.296875 
L 54.390625 0 
L 12.40625 0 
z
" id="DejaVuSans-49"/>
        <path d="M 31.78125 66.40625 
Q 24.171875 66.40625 20.328125 58.90625 
Q 16.5 51.421875 16.5 36.375 
Q 16.5 21.390625 20.328125 13.890625 
Q 24.171875 6.390625 31.78125 6.390625 
Q 39.453125 6.390625 43.28125 13.890625 
Q 47.125 21.390625 47.125 36.375 
Q 47.125 51.421875 43.28125 58.90625 
Q 39.453125 66.40625 31.78125 66.40625 
z
M 31.78125 74.21875 
Q 44.046875 74.21875 50.515625 64.515625 
Q 56.984375 54.828125 56.984375 36.375 
Q 56.984375 17.96875 50.515625 8.265625 
Q 44.046875 -1.421875 31.78125 -1.421875 
Q 19.53125 -1.421875 13.0625 8.265625 
Q 6.59375 17.96875 6.59375 36.375 
Q 6.59375 54.828125 13.0625 64.515625 
Q 19.53125 74.21875 31.78125 74.21875 
z
" id="DejaVuSans-48"/>
       </defs>
       <use xlink:href="#DejaVuSans-8722"/>
       <use x="83.789062" xlink:href="#DejaVuSans-49"/>
       <use x="147.412109" xlink:href="#DejaVuSans-48"/>
       <use x="211.035156" xlink:href="#DejaVuSans-48"/>
      </g>
     </g>
    </g>
    <g id="xtick_2">
     <g id="line2d_2">
      <g>
       <use style="stroke:#000000;stroke-width:0.8;" x="122.859448" xlink:href="#m2f722469b4" y="307.584"/>
      </g>
     </g>
     <g id="text_2">
      <!-- −80 -->
      <g transform="translate(112.307104 322.182437)scale(0.1 -0.1)">
       <defs>
        <path d="M 31.78125 34.625 
Q 24.75 34.625 20.71875 30.859375 
Q 16.703125 27.09375 16.703125 20.515625 
Q 16.703125 13.921875 20.71875 10.15625 
Q 24.75 6.390625 31.78125 6.390625 
Q 38.8125 6.390625 42.859375 10.171875 
Q 46.921875 13.96875 46.921875 20.515625 
Q 46.921875 27.09375 42.890625 30.859375 
Q 38.875 34.625 31.78125 34.625 
z
M 21.921875 38.8125 
Q 15.578125 40.375 12.03125 44.71875 
Q 8.5 49.078125 8.5 55.328125 
Q 8.5 64.0625 14.71875 69.140625 
Q 20.953125 74.21875 31.78125 74.21875 
Q 42.671875 74.21875 48.875 69.140625 
Q 55.078125 64.0625 55.078125 55.328125 
Q 55.078125 49.078125 51.53125 44.71875 
Q 48 40.375 41.703125 38.8125 
Q 48.828125 37.15625 52.796875 32.3125 
Q 56.78125 27.484375 56.78125 20.515625 
Q 56.78125 9.90625 50.3125 4.234375 
Q 43.84375 -1.421875 31.78125 -1.421875 
Q 19.734375 -1.421875 13.25 4.234375 
Q 6.78125 9.90625 6.78125 20.515625 
Q 6.78125 27.484375 10.78125 32.3125 
Q 14.796875 37.15625 21.921875 38.8125 
z
M 18.3125 54.390625 
Q 18.3125 48.734375 21.84375 45.5625 
Q 25.390625 42.390625 31.78125 42.390625 
Q 38.140625 42.390625 41.71875 45.5625 
Q 45.3125 48.734375 45.3125 54.390625 
Q 45.3125 60.0625 41.71875 63.234375 
Q 38.140625 66.40625 31.78125 66.40625 
Q 25.390625 66.40625 21.84375 63.234375 
Q 18.3125 60.0625 18.3125 54.390625 
z
" id="DejaVuSans-56"/>
       </defs>
       <use xlink:href="#DejaVuSans-8722"/>
       <use x="83.789062" xlink:href="#DejaVuSans-56"/>
       <use x="147.412109" xlink:href="#DejaVuSans-48"/>
      </g>
     </g>
    </g>
    <g id="xtick_3">
     <g id="line2d_3">
      <g>
       <use style="stroke:#000000;stroke-width:0.8;" x="171.795799" xlink:href="#m2f722469b4" y="307.584"/>
      </g>
     </g>
     <g id="text_3">
      <!-- −60 -->
      <g transform="translate(161.243455 322.182437)scale(0.1 -0.1)">
       <defs>
        <path d="M 33.015625 40.375 
Q 26.375 40.375 22.484375 35.828125 
Q 18.609375 31.296875 18.609375 23.390625 
Q 18.609375 15.53125 22.484375 10.953125 
Q 26.375 6.390625 33.015625 6.390625 
Q 39.65625 6.390625 43.53125 10.953125 
Q 47.40625 15.53125 47.40625 23.390625 
Q 47.40625 31.296875 43.53125 35.828125 
Q 39.65625 40.375 33.015625 40.375 
z
M 52.59375 71.296875 
L 52.59375 62.3125 
Q 48.875 64.0625 45.09375 64.984375 
Q 41.3125 65.921875 37.59375 65.921875 
Q 27.828125 65.921875 22.671875 59.328125 
Q 17.53125 52.734375 16.796875 39.40625 
Q 19.671875 43.65625 24.015625 45.921875 
Q 28.375 48.1875 33.59375 48.1875 
Q 44.578125 48.1875 50.953125 41.515625 
Q 57.328125 34.859375 57.328125 23.390625 
Q 57.328125 12.15625 50.6875 5.359375 
Q 44.046875 -1.421875 33.015625 -1.421875 
Q 20.359375 -1.421875 13.671875 8.265625 
Q 6.984375 17.96875 6.984375 36.375 
Q 6.984375 53.65625 15.1875 63.9375 
Q 23.390625 74.21875 37.203125 74.21875 
Q 40.921875 74.21875 44.703125 73.484375 
Q 48.484375 72.75 52.59375 71.296875 
z
" id="DejaVuSans-54"/>
       </defs>
       <use xlink:href="#DejaVuSans-8722"/>
       <use x="83.789062" xlink:href="#DejaVuSans-54"/>
       <use x="147.412109" xlink:href="#DejaVuSans-48"/>
      </g>
     </g>
    </g>
    <g id="xtick_4">
     <g id="line2d_4">
      <g>
       <use style="stroke:#000000;stroke-width:0.8;" x="220.732149" xlink:href="#m2f722469b4" y="307.584"/>
      </g>
     </g>
     <g id="text_4">
      <!-- −40 -->
      <g transform="translate(210.179805 322.182437)scale(0.1 -0.1)">
       <defs>
        <path d="M 37.796875 64.3125 
L 12.890625 25.390625 
L 37.796875 25.390625 
z
M 35.203125 72.90625 
L 47.609375 72.90625 
L 47.609375 25.390625 
L 58.015625 25.390625 
L 58.015625 17.1875 
L 47.609375 17.1875 
L 47.609375 0 
L 37.796875 0 
L 37.796875 17.1875 
L 4.890625 17.1875 
L 4.890625 26.703125 
z
" id="DejaVuSans-52"/>
       </defs>
       <use xlink:href="#DejaVuSans-8722"/>
       <use x="83.789062" xlink:href="#DejaVuSans-52"/>
       <use x="147.412109" xlink:href="#DejaVuSans-48"/>
      </g>
     </g>
    </g>
    <g id="xtick_5">
     <g id="line2d_5">
      <g>
       <use style="stroke:#000000;stroke-width:0.8;" x="269.6685" xlink:href="#m2f722469b4" y="307.584"/>
      </g>
     </g>
     <g id="text_5">
      <!-- −20 -->
      <g transform="translate(259.116156 322.182437)scale(0.1 -0.1)">
       <defs>
        <path d="M 19.1875 8.296875 
L 53.609375 8.296875 
L 53.609375 0 
L 7.328125 0 
L 7.328125 8.296875 
Q 12.9375 14.109375 22.625 23.890625 
Q 32.328125 33.6875 34.8125 36.53125 
Q 39.546875 41.84375 41.421875 45.53125 
Q 43.3125 49.21875 43.3125 52.78125 
Q 43.3125 58.59375 39.234375 62.25 
Q 35.15625 65.921875 28.609375 65.921875 
Q 23.96875 65.921875 18.8125 64.3125 
Q 13.671875 62.703125 7.8125 59.421875 
L 7.8125 69.390625 
Q 13.765625 71.78125 18.9375 73 
Q 24.125 74.21875 28.421875 74.21875 
Q 39.75 74.21875 46.484375 68.546875 
Q 53.21875 62.890625 53.21875 53.421875 
Q 53.21875 48.921875 51.53125 44.890625 
Q 49.859375 40.875 45.40625 35.40625 
Q 44.1875 33.984375 37.640625 27.21875 
Q 31.109375 20.453125 19.1875 8.296875 
z
" id="DejaVuSans-50"/>
       </defs>
       <use xlink:href="#DejaVuSans-8722"/>
       <use x="83.789062" xlink:href="#DejaVuSans-50"/>
       <use x="147.412109" xlink:href="#DejaVuSans-48"/>
      </g>
     </g>
    </g>
    <g id="xtick_6">
     <g id="line2d_6">
      <g>
       <use style="stroke:#000000;stroke-width:0.8;" x="318.60485" xlink:href="#m2f722469b4" y="307.584"/>
      </g>
     </g>
     <g id="text_6">
      <!-- 0 -->
      <g transform="translate(315.4236 322.182437)scale(0.1 -0.1)">
       <use xlink:href="#DejaVuSans-48"/>
      </g>
     </g>
    </g>
    <g id="xtick_7">
     <g id="line2d_7">
      <g>
       <use style="stroke:#000000;stroke-width:0.8;" x="367.541201" xlink:href="#m2f722469b4" y="307.584"/>
      </g>
     </g>
     <g id="text_7">
      <!-- 20 -->
      <g transform="translate(361.178701 322.182437)scale(0.1 -0.1)">
       <use xlink:href="#DejaVuSans-50"/>
       <use x="63.623047" xlink:href="#DejaVuSans-48"/>
      </g>
     </g>
    </g>
   </g>
   <g id="matplotlib.axis_2">
    <g id="ytick_1">
     <g id="line2d_8">
      <defs>
       <path d="M 0 0 
L -3.5 0 
" id="md79a5b1e3e" style="stroke:#000000;stroke-width:0.8;"/>
      </defs>
      <g>
       <use style="stroke:#000000;stroke-width:0.8;" x="57.6" xlink:href="#md79a5b1e3e" y="295.393837"/>
      </g>
     </g>
     <g id="text_8">
      <!-- 0 -->
      <g transform="translate(44.2375 299.193056)scale(0.1 -0.1)">
       <use xlink:href="#DejaVuSans-48"/>
      </g>
     </g>
    </g>
    <g id="ytick_2">
     <g id="line2d_9">
      <g>
       <use style="stroke:#000000;stroke-width:0.8;" x="57.6" xlink:href="#md79a5b1e3e" y="246.457487"/>
      </g>
     </g>
     <g id="text_9">
      <!-- 20 -->
      <g transform="translate(37.875 250.256705)scale(0.1 -0.1)">
       <use xlink:href="#DejaVuSans-50"/>
       <use x="63.623047" xlink:href="#DejaVuSans-48"/>
      </g>
     </g>
    </g>
    <g id="ytick_3">
     <g id="line2d_10">
      <g>
       <use style="stroke:#000000;stroke-width:0.8;" x="57.6" xlink:href="#md79a5b1e3e" y="197.521136"/>
      </g>
     </g>
     <g id="text_10">
      <!-- 40 -->
      <g transform="translate(37.875 201.320355)scale(0.1 -0.1)">
       <use xlink:href="#DejaVuSans-52"/>
       <use x="63.623047" xlink:href="#DejaVuSans-48"/>
      </g>
     </g>
    </g>
    <g id="ytick_4">
     <g id="line2d_11">
      <g>
       <use style="stroke:#000000;stroke-width:0.8;" x="57.6" xlink:href="#md79a5b1e3e" y="148.584785"/>
      </g>
     </g>
     <g id="text_11">
      <!-- 60 -->
      <g transform="translate(37.875 152.384004)scale(0.1 -0.1)">
       <use xlink:href="#DejaVuSans-54"/>
       <use x="63.623047" xlink:href="#DejaVuSans-48"/>
      </g>
     </g>
    </g>
    <g id="ytick_5">
     <g id="line2d_12">
      <g>
       <use style="stroke:#000000;stroke-width:0.8;" x="57.6" xlink:href="#md79a5b1e3e" y="99.648435"/>
      </g>
     </g>
     <g id="text_12">
      <!-- 80 -->
      <g transform="translate(37.875 103.447654)scale(0.1 -0.1)">
       <use xlink:href="#DejaVuSans-56"/>
       <use x="63.623047" xlink:href="#DejaVuSans-48"/>
      </g>
     </g>
    </g>
    <g id="ytick_6">
     <g id="line2d_13">
      <g>
       <use style="stroke:#000000;stroke-width:0.8;" x="57.6" xlink:href="#md79a5b1e3e" y="50.712084"/>
      </g>
     </g>
     <g id="text_13">
      <!-- 100 -->
      <g transform="translate(31.5125 54.511303)scale(0.1 -0.1)">
       <use xlink:href="#DejaVuSans-49"/>
       <use x="63.623047" xlink:href="#DejaVuSans-48"/>
       <use x="127.246094" xlink:href="#DejaVuSans-48"/>
      </g>
     </g>
    </g>
   </g>
   <g id="line2d_14">
    <path clip-path="url(#pc5f7649c93)" d="M 318.60485 295.393837 
L 318.919721 272.860108 
L 319.687477 231.001525 
L 319.511923 224.478223 
L 318.940095 214.60189 
L 318.177658 201.433446 
L 318.043236 194.922328 
L 318.219597 188.503269 
L 318.458597 185.338414 
L 318.816426 182.208758 
L 319.306795 179.118361 
L 319.943413 176.071286 
L 320.739993 173.071594 
L 321.783394 170.126065 
L 323.124924 167.23516 
L 324.724965 164.393459 
L 326.5439 161.595544 
L 328.542112 158.835995 
L 332.917896 153.410321 
L 344.221481 140.138216 
L 346.22768 137.490513 
L 348.056599 134.832405 
L 349.66862 132.158472 
L 351.024128 129.463297 
L 352.083503 126.741459 
L 352.807128 123.98754 
L 353.155387 121.19612 
L 353.18748 118.293848 
L 352.996409 115.230096 
L 352.593252 112.033528 
L 351.989088 108.73281 
L 351.194999 105.356608 
L 350.222062 101.933586 
L 349.081358 98.492411 
L 347.783967 95.061747 
L 346.340967 91.670259 
L 344.763439 88.346614 
L 343.062462 85.119477 
L 341.249115 82.017513 
L 339.334479 79.069386 
L 337.329632 76.303764 
L 335.245655 73.749311 
L 333.093627 71.434691 
L 330.884627 69.388572 
L 328.629735 67.639618 
L 326.340032 66.216494 
L 323.94045 65.115256 
L 321.359474 64.29886 
L 318.613509 63.746328 
L 315.718958 63.436677 
L 312.692228 63.348929 
L 309.549721 63.462103 
L 306.307843 63.755219 
L 302.982997 64.207297 
L 296.150023 65.504417 
L 289.182034 67.185622 
L 278.763976 70.060435 
L 268.780337 72.855331 
L 262.454166 74.432071 
L 248.773669 77.409038 
L 241.690173 79.008676 
L 234.71402 80.797341 
L 228.047343 82.861226 
L 224.893224 84.023311 
L 221.892273 85.286524 
L 219.069757 86.661637 
L 216.450942 88.159427 
L 214.061095 89.790665 
L 211.925482 91.566128 
L 210.06937 93.496588 
L 208.518025 95.59282 
L 207.359199 97.9084 
L 206.6312 100.472228 
L 206.285125 103.258067 
L 206.27207 106.239677 
L 206.543135 109.39082 
L 207.049415 112.685258 
L 207.742009 116.096751 
L 209.490526 123.165954 
L 212.28809 133.991716 
L 213.071611 137.554539 
L 213.699128 141.050748 
L 214.121738 144.454106 
L 214.290539 147.738374 
L 214.156627 150.877313 
L 213.671102 153.844684 
L 212.785059 156.61425 
L 211.553921 159.315015 
L 210.078754 162.078413 
L 208.379118 164.881849 
L 206.474575 167.702731 
L 204.384686 170.518465 
L 202.129011 173.306456 
L 199.727113 176.044112 
L 197.198552 178.708838 
L 194.562889 181.278041 
L 191.839686 183.729127 
L 189.048504 186.039502 
L 186.208904 188.186573 
L 183.340448 190.147745 
L 180.462696 191.900426 
L 177.595209 193.422021 
L 174.757549 194.689936 
L 171.969278 195.681578 
L 169.249955 196.374354 
L 166.619143 196.745669 
L 164.023707 196.75305 
L 161.399136 196.39024 
L 158.747927 195.68897 
L 156.072579 194.680971 
L 153.375588 193.397972 
L 150.659451 191.871706 
L 147.926665 190.133902 
L 145.179729 188.216291 
L 139.653392 183.968571 
L 131.320184 177.041705 
L 125.764712 172.423794 
L 120.232548 168.102036 
L 117.481449 166.13154 
L 114.743669 164.330275 
L 114.743669 164.330275 
" style="fill:none;stroke:#fea952;stroke-linecap:square;"/>
   </g>
   <g id="line2d_15">
    <path clip-path="url(#pc5f7649c93)" d="M 308.818033 295.299675 
L 309.134111 272.679835 
L 309.848446 228.100035 
L 309.578607 221.773239 
L 308.291761 198.274591 
L 308.30702 191.289621 
L 308.460115 187.766261 
L 308.734679 184.22663 
L 309.150088 180.674952 
L 309.726388 177.116748 
L 310.483995 173.559302 
L 311.514436 169.803605 
L 312.905459 166.006243 
L 314.596611 162.433228 
L 316.51928 159.058912 
L 318.616666 155.855368 
L 320.840088 152.796998 
L 325.492054 147.03478 
L 336.42064 134.227417 
L 338.164641 131.942715 
L 339.674699 129.779246 
L 340.924921 127.760931 
L 341.903345 125.913369 
L 342.617561 124.254169 
L 343.09515 122.77587 
L 343.368715 121.087898 
L 343.419188 118.90305 
L 343.286064 116.454783 
L 342.965928 113.795713 
L 342.461796 110.973649 
L 341.78063 108.032485 
L 340.931909 105.013148 
L 339.926843 101.95442 
L 338.777986 98.893584 
L 337.499106 95.866943 
L 336.105253 92.910218 
L 334.613013 90.058856 
L 333.040948 87.348239 
L 331.41029 84.813765 
L 329.745937 82.490703 
L 328.077838 80.413623 
L 326.442766 78.614991 
L 324.886195 77.12223 
L 323.46324 75.952138 
L 322.257739 75.111748 
L 320.988756 74.446824 
L 319.428813 73.893818 
L 317.572436 73.478071 
L 315.435335 73.219837 
L 313.044478 73.129858 
L 310.431047 73.209612 
L 307.62648 73.453253 
L 304.660648 73.849711 
L 298.35361 75.040394 
L 291.705247 76.642052 
L 281.446656 79.472868 
L 271.231102 82.330794 
L 264.60743 83.979538 
L 250.882294 86.966462 
L 244.030285 88.512072 
L 237.467142 90.189411 
L 231.43096 92.045005 
L 228.690359 93.043977 
L 226.178903 94.085129 
L 223.928839 95.157517 
L 221.968621 96.243106 
L 220.317982 97.316755 
L 218.980652 98.349581 
L 217.270459 99.972951 
L 216.774269 100.581809 
L 216.343814 101.678794 
L 216.072301 103.300918 
L 216.023329 105.400865 
L 216.216841 107.904191 
L 216.641016 110.737993 
L 217.265497 113.839802 
L 218.949465 120.652166 
L 221.846942 131.889573 
L 222.704943 135.825501 
L 223.411803 139.844682 
L 223.896107 143.951736 
L 224.068915 148.155532 
L 223.815458 152.457705 
L 222.992947 156.82694 
L 221.690687 160.673861 
L 220.187989 163.924085 
L 218.448034 167.152445 
L 216.490687 170.358446 
L 214.333648 173.53588 
L 211.993487 176.674502 
L 209.486086 179.76123 
L 206.826773 182.780986 
L 204.030272 185.71728 
L 201.110528 188.552592 
L 198.080425 191.268612 
L 194.951386 193.846335 
L 191.732825 196.265988 
L 188.431439 198.50672 
L 185.050312 200.545912 
L 181.587894 202.357854 
L 178.037133 203.911378 
L 174.385508 205.165907 
L 170.617781 206.065572 
L 166.646976 206.532899 
L 162.6835 206.448126 
L 158.896382 205.852104 
L 155.297154 204.847727 
L 151.868131 203.519142 
L 148.580993 201.930412 
L 145.407575 200.130548 
L 142.324322 198.159138 
L 139.313285 196.050543 
L 133.461158 191.547944 
L 125.03235 184.541958 
L 117.056412 177.990143 
L 112.102007 174.307864 
L 109.364228 172.506598 
L 109.364228 172.506598 
" style="fill:none;stroke:#ffffff;stroke-linecap:square;"/>
   </g>
   <g id="line2d_16">
    <path clip-path="url(#pc5f7649c93)" d="M 328.391668 295.488 
L 328.705331 273.040381 
L 329.473188 230.82683 
L 329.287131 223.992475 
L 328.706076 213.956697 
L 327.960413 201.136212 
L 327.829657 195.051304 
L 327.979078 189.240277 
L 328.482765 183.742563 
L 328.887202 181.119974 
L 329.96555 176.339582 
L 330.661329 174.245886 
L 331.653236 172.037091 
L 332.93065 169.728006 
L 334.471134 167.335719 
L 336.244136 164.874992 
L 340.343738 159.785863 
L 352.022321 146.049014 
L 354.290719 143.03831 
L 356.438498 139.885564 
L 358.41232 136.556014 
L 360.14491 133.013225 
L 361.549444 129.228749 
L 362.519106 125.19921 
L 362.942059 121.304342 
L 362.955772 117.684647 
L 362.706754 114.005409 
L 362.220575 110.271343 
L 361.516381 106.491972 
L 360.609368 102.680731 
L 359.512216 98.854024 
L 358.235873 95.030401 
L 356.789947 91.229909 
L 355.182828 87.473576 
L 353.421624 83.783011 
L 351.511911 80.180098 
L 349.457282 76.686786 
L 347.258668 73.325008 
L 344.913328 70.116825 
L 342.413472 67.084998 
L 339.744488 64.254392 
L 336.883059 61.654914 
L 333.79623 59.327098 
L 330.422324 57.32124 
L 326.892144 55.783688 
L 323.290135 54.703903 
L 319.654581 54.014584 
L 316.002582 53.653518 
L 312.339978 53.568 
L 308.668395 53.714595 
L 304.989205 54.057186 
L 301.305347 54.564883 
L 297.621958 55.210323 
L 290.288268 56.81563 
L 283.071157 58.686974 
L 263.342474 64.154036 
L 257.082703 65.610748 
L 239.350061 69.50528 
L 231.960899 71.405271 
L 228.291245 72.485705 
L 224.663725 73.677447 
L 221.096088 75.002645 
L 217.605642 76.487918 
L 214.210674 78.165758 
L 210.933262 80.075748 
L 207.804207 82.264576 
L 204.870312 84.782675 
L 202.202191 87.674376 
L 199.76559 91.212689 
L 197.94413 95.234991 
L 196.918587 99.265662 
L 196.497949 103.215215 
L 196.520812 107.078489 
L 196.869428 110.877449 
L 197.457814 114.632522 
L 198.21852 118.353701 
L 200.031587 125.679742 
L 202.729238 136.093859 
L 203.986453 142.256814 
L 204.34737 144.956477 
L 204.512163 147.321215 
L 204.497796 149.29692 
L 204.349256 150.862428 
L 203.87943 152.55464 
L 202.919854 154.705945 
L 201.709474 157.00438 
L 200.26755 159.405252 
L 198.615502 161.869582 
L 196.775884 164.362428 
L 194.771936 166.851683 
L 192.627452 169.307238 
L 190.366831 171.700397 
L 188.01525 174.003491 
L 185.598947 176.189642 
L 183.145623 178.232669 
L 180.684984 180.107157 
L 178.249456 181.78877 
L 175.87508 183.254939 
L 173.602524 184.486187 
L 171.477965 185.468494 
L 169.553047 186.19725 
L 166.59131 186.958438 
L 165.363914 187.057973 
L 163.901889 186.928375 
L 162.1987 186.530213 
L 160.277026 185.842799 
L 158.170182 184.865533 
L 155.911326 183.612865 
L 153.529008 182.108666 
L 148.480579 178.464653 
L 143.151118 174.188534 
L 128.932524 162.429918 
L 125.931667 160.145234 
L 122.860891 157.955217 
L 120.123111 156.153952 
L 120.123111 156.153952 
" style="fill:none;stroke:#ffffff;stroke-linecap:square;"/>
   </g>
   <g id="patch_3">
    <path d="M 57.6 307.584 
L 57.6 41.472 
" style="fill:none;stroke:#000000;stroke-linecap:square;stroke-linejoin:miter;stroke-width:0.8;"/>
   </g>
   <g id="patch_4">
    <path d="M 414.72 307.584 
L 414.72 41.472 
" style="fill:none;stroke:#000000;stroke-linecap:square;stroke-linejoin:miter;stroke-width:0.8;"/>
   </g>
   <g id="patch_5">
    <path d="M 57.6 307.584 
L 414.72 307.584 
" style="fill:none;stroke:#000000;stroke-linecap:square;stroke-linejoin:miter;stroke-width:0.8;"/>
   </g>
   <g id="patch_6">
    <path d="M 57.6 41.472 
L 414.72 41.472 
" style="fill:none;stroke:#000000;stroke-linecap:square;stroke-linejoin:miter;stroke-width:0.8;"/>
   </g>
  </g>
 </g>
 <defs>
  <clipPath id="pc5f7649c93">
   <rect height="266.112" width="357.12" x="57.6" y="41.472"/>
  </clipPath>
 </defs>
</svg>
