<?xml version="1.0" encoding="utf-8" standalone="no"?>
<!DOCTYPE svg PUBLIC "-//W3C//DTD SVG 1.1//EN"
  "http://www.w3.org/Graphics/SVG/1.1/DTD/svg11.dtd">
<!-- Created with matplotlib (https://matplotlib.org/) -->
<svg height="345.6pt" version="1.1" viewBox="0 0 460.8 345.6" width="460.8pt" xmlns="http://www.w3.org/2000/svg" xmlns:xlink="http://www.w3.org/1999/xlink">
 <metadata>
  <rdf:RDF xmlns:cc="http://creativecommons.org/ns#" xmlns:dc="http://purl.org/dc/elements/1.1/" xmlns:rdf="http://www.w3.org/1999/02/22-rdf-syntax-ns#">
   <cc:Work>
    <dc:type rdf:resource="http://purl.org/dc/dcmitype/StillImage"/>
    <dc:date>2021-06-24T09:50:41.104306</dc:date>
    <dc:format>image/svg+xml</dc:format>
    <dc:creator>
     <cc:Agent>
      <dc:title>Matplotlib v3.3.3, https://matplotlib.org/</dc:title>
     </cc:Agent>
    </dc:creator>
   </cc:Work>
  </rdf:RDF>
 </metadata>
 <defs>
  <style type="text/css">*{stroke-linecap:butt;stroke-linejoin:round;}</style>
 </defs>
 <g id="figure_1">
  <g id="patch_1">
   <path d="M 0 345.6 
L 460.8 345.6 
L 460.8 0 
L 0 0 
z
" style="fill:#ffffff;"/>
  </g>
  <g id="axes_1">
   <g id="patch_2">
    <path d="M 57.6 307.584 
L 414.72 307.584 
L 414.72 41.472 
L 57.6 41.472 
z
" style="fill:#7d9051;"/>
   </g>
   <g id="matplotlib.axis_1">
    <g id="xtick_1">
     <g id="line2d_1">
      <defs>
       <path d="M 0 0 
L 0 3.5 
" id="m015850acd8" style="stroke:#000000;stroke-width:0.8;"/>
      </defs>
      <g>
       <use style="stroke:#000000;stroke-width:0.8;" x="83.302704" xlink:href="#m015850acd8" y="307.584"/>
      </g>
     </g>
     <g id="text_1">
      <!-- 0 -->
      <g transform="translate(80.121454 322.182437)scale(0.1 -0.1)">
       <defs>
        <path d="M 31.78125 66.40625 
Q 24.171875 66.40625 20.328125 58.90625 
Q 16.5 51.421875 16.5 36.375 
Q 16.5 21.390625 20.328125 13.890625 
Q 24.171875 6.390625 31.78125 6.390625 
Q 39.453125 6.390625 43.28125 13.890625 
Q 47.125 21.390625 47.125 36.375 
Q 47.125 51.421875 43.28125 58.90625 
Q 39.453125 66.40625 31.78125 66.40625 
z
M 31.78125 74.21875 
Q 44.046875 74.21875 50.515625 64.515625 
Q 56.984375 54.828125 56.984375 36.375 
Q 56.984375 17.96875 50.515625 8.265625 
Q 44.046875 -1.421875 31.78125 -1.421875 
Q 19.53125 -1.421875 13.0625 8.265625 
Q 6.59375 17.96875 6.59375 36.375 
Q 6.59375 54.828125 13.0625 64.515625 
Q 19.53125 74.21875 31.78125 74.21875 
z
" id="DejaVuSans-48"/>
       </defs>
       <use xlink:href="#DejaVuSans-48"/>
      </g>
     </g>
    </g>
    <g id="xtick_2">
     <g id="line2d_2">
      <g>
       <use style="stroke:#000000;stroke-width:0.8;" x="128.37811" xlink:href="#m015850acd8" y="307.584"/>
      </g>
     </g>
     <g id="text_2">
      <!-- 20 -->
      <g transform="translate(122.01561 322.182437)scale(0.1 -0.1)">
       <defs>
        <path d="M 19.1875 8.296875 
L 53.609375 8.296875 
L 53.609375 0 
L 7.328125 0 
L 7.328125 8.296875 
Q 12.9375 14.109375 22.625 23.890625 
Q 32.328125 33.6875 34.8125 36.53125 
Q 39.546875 41.84375 41.421875 45.53125 
Q 43.3125 49.21875 43.3125 52.78125 
Q 43.3125 58.59375 39.234375 62.25 
Q 35.15625 65.921875 28.609375 65.921875 
Q 23.96875 65.921875 18.8125 64.3125 
Q 13.671875 62.703125 7.8125 59.421875 
L 7.8125 69.390625 
Q 13.765625 71.78125 18.9375 73 
Q 24.125 74.21875 28.421875 74.21875 
Q 39.75 74.21875 46.484375 68.546875 
Q 53.21875 62.890625 53.21875 53.421875 
Q 53.21875 48.921875 51.53125 44.890625 
Q 49.859375 40.875 45.40625 35.40625 
Q 44.1875 33.984375 37.640625 27.21875 
Q 31.109375 20.453125 19.1875 8.296875 
z
" id="DejaVuSans-50"/>
       </defs>
       <use xlink:href="#DejaVuSans-50"/>
       <use x="63.623047" xlink:href="#DejaVuSans-48"/>
      </g>
     </g>
    </g>
    <g id="xtick_3">
     <g id="line2d_3">
      <g>
       <use style="stroke:#000000;stroke-width:0.8;" x="173.453515" xlink:href="#m015850acd8" y="307.584"/>
      </g>
     </g>
     <g id="text_3">
      <!-- 40 -->
      <g transform="translate(167.091015 322.182437)scale(0.1 -0.1)">
       <defs>
        <path d="M 37.796875 64.3125 
L 12.890625 25.390625 
L 37.796875 25.390625 
z
M 35.203125 72.90625 
L 47.609375 72.90625 
L 47.609375 25.390625 
L 58.015625 25.390625 
L 58.015625 17.1875 
L 47.609375 17.1875 
L 47.609375 0 
L 37.796875 0 
L 37.796875 17.1875 
L 4.890625 17.1875 
L 4.890625 26.703125 
z
" id="DejaVuSans-52"/>
       </defs>
       <use xlink:href="#DejaVuSans-52"/>
       <use x="63.623047" xlink:href="#DejaVuSans-48"/>
      </g>
     </g>
    </g>
    <g id="xtick_4">
     <g id="line2d_4">
      <g>
       <use style="stroke:#000000;stroke-width:0.8;" x="218.528921" xlink:href="#m015850acd8" y="307.584"/>
      </g>
     </g>
     <g id="text_4">
      <!-- 60 -->
      <g transform="translate(212.166421 322.182437)scale(0.1 -0.1)">
       <defs>
        <path d="M 33.015625 40.375 
Q 26.375 40.375 22.484375 35.828125 
Q 18.609375 31.296875 18.609375 23.390625 
Q 18.609375 15.53125 22.484375 10.953125 
Q 26.375 6.390625 33.015625 6.390625 
Q 39.65625 6.390625 43.53125 10.953125 
Q 47.40625 15.53125 47.40625 23.390625 
Q 47.40625 31.296875 43.53125 35.828125 
Q 39.65625 40.375 33.015625 40.375 
z
M 52.59375 71.296875 
L 52.59375 62.3125 
Q 48.875 64.0625 45.09375 64.984375 
Q 41.3125 65.921875 37.59375 65.921875 
Q 27.828125 65.921875 22.671875 59.328125 
Q 17.53125 52.734375 16.796875 39.40625 
Q 19.671875 43.65625 24.015625 45.921875 
Q 28.375 48.1875 33.59375 48.1875 
Q 44.578125 48.1875 50.953125 41.515625 
Q 57.328125 34.859375 57.328125 23.390625 
Q 57.328125 12.15625 50.6875 5.359375 
Q 44.046875 -1.421875 33.015625 -1.421875 
Q 20.359375 -1.421875 13.671875 8.265625 
Q 6.984375 17.96875 6.984375 36.375 
Q 6.984375 53.65625 15.1875 63.9375 
Q 23.390625 74.21875 37.203125 74.21875 
Q 40.921875 74.21875 44.703125 73.484375 
Q 48.484375 72.75 52.59375 71.296875 
z
" id="DejaVuSans-54"/>
       </defs>
       <use xlink:href="#DejaVuSans-54"/>
       <use x="63.623047" xlink:href="#DejaVuSans-48"/>
      </g>
     </g>
    </g>
    <g id="xtick_5">
     <g id="line2d_5">
      <g>
       <use style="stroke:#000000;stroke-width:0.8;" x="263.604327" xlink:href="#m015850acd8" y="307.584"/>
      </g>
     </g>
     <g id="text_5">
      <!-- 80 -->
      <g transform="translate(257.241827 322.182437)scale(0.1 -0.1)">
       <defs>
        <path d="M 31.78125 34.625 
Q 24.75 34.625 20.71875 30.859375 
Q 16.703125 27.09375 16.703125 20.515625 
Q 16.703125 13.921875 20.71875 10.15625 
Q 24.75 6.390625 31.78125 6.390625 
Q 38.8125 6.390625 42.859375 10.171875 
Q 46.921875 13.96875 46.921875 20.515625 
Q 46.921875 27.09375 42.890625 30.859375 
Q 38.875 34.625 31.78125 34.625 
z
M 21.921875 38.8125 
Q 15.578125 40.375 12.03125 44.71875 
Q 8.5 49.078125 8.5 55.328125 
Q 8.5 64.0625 14.71875 69.140625 
Q 20.953125 74.21875 31.78125 74.21875 
Q 42.671875 74.21875 48.875 69.140625 
Q 55.078125 64.0625 55.078125 55.328125 
Q 55.078125 49.078125 51.53125 44.71875 
Q 48 40.375 41.703125 38.8125 
Q 48.828125 37.15625 52.796875 32.3125 
Q 56.78125 27.484375 56.78125 20.515625 
Q 56.78125 9.90625 50.3125 4.234375 
Q 43.84375 -1.421875 31.78125 -1.421875 
Q 19.734375 -1.421875 13.25 4.234375 
Q 6.78125 9.90625 6.78125 20.515625 
Q 6.78125 27.484375 10.78125 32.3125 
Q 14.796875 37.15625 21.921875 38.8125 
z
M 18.3125 54.390625 
Q 18.3125 48.734375 21.84375 45.5625 
Q 25.390625 42.390625 31.78125 42.390625 
Q 38.140625 42.390625 41.71875 45.5625 
Q 45.3125 48.734375 45.3125 54.390625 
Q 45.3125 60.0625 41.71875 63.234375 
Q 38.140625 66.40625 31.78125 66.40625 
Q 25.390625 66.40625 21.84375 63.234375 
Q 18.3125 60.0625 18.3125 54.390625 
z
" id="DejaVuSans-56"/>
       </defs>
       <use xlink:href="#DejaVuSans-56"/>
       <use x="63.623047" xlink:href="#DejaVuSans-48"/>
      </g>
     </g>
    </g>
    <g id="xtick_6">
     <g id="line2d_6">
      <g>
       <use style="stroke:#000000;stroke-width:0.8;" x="308.679732" xlink:href="#m015850acd8" y="307.584"/>
      </g>
     </g>
     <g id="text_6">
      <!-- 100 -->
      <g transform="translate(299.135982 322.182437)scale(0.1 -0.1)">
       <defs>
        <path d="M 12.40625 8.296875 
L 28.515625 8.296875 
L 28.515625 63.921875 
L 10.984375 60.40625 
L 10.984375 69.390625 
L 28.421875 72.90625 
L 38.28125 72.90625 
L 38.28125 8.296875 
L 54.390625 8.296875 
L 54.390625 0 
L 12.40625 0 
z
" id="DejaVuSans-49"/>
       </defs>
       <use xlink:href="#DejaVuSans-49"/>
       <use x="63.623047" xlink:href="#DejaVuSans-48"/>
       <use x="127.246094" xlink:href="#DejaVuSans-48"/>
      </g>
     </g>
    </g>
    <g id="xtick_7">
     <g id="line2d_7">
      <g>
       <use style="stroke:#000000;stroke-width:0.8;" x="353.755138" xlink:href="#m015850acd8" y="307.584"/>
      </g>
     </g>
     <g id="text_7">
      <!-- 120 -->
      <g transform="translate(344.211388 322.182437)scale(0.1 -0.1)">
       <use xlink:href="#DejaVuSans-49"/>
       <use x="63.623047" xlink:href="#DejaVuSans-50"/>
       <use x="127.246094" xlink:href="#DejaVuSans-48"/>
      </g>
     </g>
    </g>
    <g id="xtick_8">
     <g id="line2d_8">
      <g>
       <use style="stroke:#000000;stroke-width:0.8;" x="398.830543" xlink:href="#m015850acd8" y="307.584"/>
      </g>
     </g>
     <g id="text_8">
      <!-- 140 -->
      <g transform="translate(389.286793 322.182437)scale(0.1 -0.1)">
       <use xlink:href="#DejaVuSans-49"/>
       <use x="63.623047" xlink:href="#DejaVuSans-52"/>
       <use x="127.246094" xlink:href="#DejaVuSans-48"/>
      </g>
     </g>
    </g>
   </g>
   <g id="matplotlib.axis_2">
    <g id="ytick_1">
     <g id="line2d_9">
      <defs>
       <path d="M 0 0 
L -3.5 0 
" id="mb548417648" style="stroke:#000000;stroke-width:0.8;"/>
      </defs>
      <g>
       <use style="stroke:#000000;stroke-width:0.8;" x="57.6" xlink:href="#mb548417648" y="276.426007"/>
      </g>
     </g>
     <g id="text_9">
      <!-- 0 -->
      <g transform="translate(44.2375 280.225226)scale(0.1 -0.1)">
       <use xlink:href="#DejaVuSans-48"/>
      </g>
     </g>
    </g>
    <g id="ytick_2">
     <g id="line2d_10">
      <g>
       <use style="stroke:#000000;stroke-width:0.8;" x="57.6" xlink:href="#mb548417648" y="231.350601"/>
      </g>
     </g>
     <g id="text_10">
      <!-- 20 -->
      <g transform="translate(37.875 235.14982)scale(0.1 -0.1)">
       <use xlink:href="#DejaVuSans-50"/>
       <use x="63.623047" xlink:href="#DejaVuSans-48"/>
      </g>
     </g>
    </g>
    <g id="ytick_3">
     <g id="line2d_11">
      <g>
       <use style="stroke:#000000;stroke-width:0.8;" x="57.6" xlink:href="#mb548417648" y="186.275196"/>
      </g>
     </g>
     <g id="text_11">
      <!-- 40 -->
      <g transform="translate(37.875 190.074414)scale(0.1 -0.1)">
       <use xlink:href="#DejaVuSans-52"/>
       <use x="63.623047" xlink:href="#DejaVuSans-48"/>
      </g>
     </g>
    </g>
    <g id="ytick_4">
     <g id="line2d_12">
      <g>
       <use style="stroke:#000000;stroke-width:0.8;" x="57.6" xlink:href="#mb548417648" y="141.19979"/>
      </g>
     </g>
     <g id="text_12">
      <!-- 60 -->
      <g transform="translate(37.875 144.999009)scale(0.1 -0.1)">
       <use xlink:href="#DejaVuSans-54"/>
       <use x="63.623047" xlink:href="#DejaVuSans-48"/>
      </g>
     </g>
    </g>
    <g id="ytick_5">
     <g id="line2d_13">
      <g>
       <use style="stroke:#000000;stroke-width:0.8;" x="57.6" xlink:href="#mb548417648" y="96.124385"/>
      </g>
     </g>
     <g id="text_13">
      <!-- 80 -->
      <g transform="translate(37.875 99.923603)scale(0.1 -0.1)">
       <use xlink:href="#DejaVuSans-56"/>
       <use x="63.623047" xlink:href="#DejaVuSans-48"/>
      </g>
     </g>
    </g>
    <g id="ytick_6">
     <g id="line2d_14">
      <g>
       <use style="stroke:#000000;stroke-width:0.8;" x="57.6" xlink:href="#mb548417648" y="51.048979"/>
      </g>
     </g>
     <g id="text_14">
      <!-- 100 -->
      <g transform="translate(31.5125 54.848198)scale(0.1 -0.1)">
       <use xlink:href="#DejaVuSans-49"/>
       <use x="63.623047" xlink:href="#DejaVuSans-48"/>
       <use x="127.246094" xlink:href="#DejaVuSans-48"/>
      </g>
     </g>
    </g>
   </g>
   <g id="line2d_15">
    <path clip-path="url(#p1a9b9918f4)" d="M 83.302704 276.426007 
L 83.592732 255.670127 
L 84.250582 214.12041 
L 83.829511 205.060042 
L 82.964225 189.912545 
L 82.847011 183.919182 
L 83.007745 178.00552 
L 83.544529 172.199688 
L 83.984596 169.345999 
L 84.555462 166.529816 
L 85.26939 163.754656 
L 87.063575 158.260771 
L 89.259816 152.807835 
L 91.815927 147.41806 
L 94.689718 142.11366 
L 97.839001 136.916848 
L 101.221589 131.849839 
L 104.795293 126.934845 
L 108.517925 122.194079 
L 112.347298 117.649755 
L 120.48129 108.612004 
L 124.94531 103.837967 
L 129.619662 99.104316 
L 134.454429 94.589602 
L 139.399692 90.472375 
L 141.89816 88.618618 
L 144.405534 86.931189 
L 146.915572 85.432408 
L 149.422036 84.144593 
L 151.918686 83.090065 
L 154.399282 82.29114 
L 156.857584 81.770139 
L 159.287352 81.549381 
L 161.709231 81.657438 
L 164.14667 82.090083 
L 166.597644 82.820431 
L 169.060122 83.821599 
L 171.532077 85.066703 
L 174.011482 86.528861 
L 176.496308 88.181188 
L 181.474111 91.948815 
L 186.449262 96.154517 
L 203.607166 111.219251 
L 208.356336 114.882578 
L 212.946838 118.857966 
L 217.415917 123.135602 
L 230.628773 136.231199 
L 235.146319 140.167027 
L 237.456375 141.967202 
L 239.809523 143.629703 
L 242.21244 145.135147 
L 244.671801 146.464148 
L 247.194286 147.59732 
L 249.78657 148.515279 
L 252.476392 149.146388 
L 255.277413 149.457901 
L 258.175195 149.488776 
L 261.155296 149.27797 
L 264.203278 148.864438 
L 267.304702 148.287138 
L 273.610115 146.797059 
L 286.226902 143.565768 
L 289.29811 142.932873 
L 292.307244 142.447863 
L 295.239865 142.149693 
L 298.081532 142.077321 
L 300.817806 142.269702 
L 303.434249 142.765794 
L 305.91642 143.604554 
L 308.245098 144.831808 
L 310.422448 146.437031 
L 312.466106 148.374646 
L 314.393711 150.599078 
L 316.222901 153.064751 
L 317.971312 155.726091 
L 321.296351 161.453467 
L 327.753151 173.250888 
L 329.429972 176.005776 
L 331.167116 178.591726 
L 332.982221 180.963163 
L 334.892926 183.074511 
L 336.916867 184.880194 
L 339.071682 186.334638 
L 341.37501 187.392266 
L 343.811227 188.08533 
L 346.347279 188.492929 
L 348.974655 188.639761 
L 351.684845 188.550524 
L 354.469338 188.249913 
L 357.319622 187.762627 
L 360.227188 187.113362 
L 366.18012 185.427686 
L 372.260048 183.390462 
L 387.568665 178.055982 
L 393.556905 176.344263 
L 396.48801 175.677636 
L 396.48801 175.677636 
" style="fill:none;stroke:#fea952;stroke-linecap:square;"/>
   </g>
   <g id="line2d_16">
    <path clip-path="url(#p1a9b9918f4)" d="M 74.28804 276.339273 
L 74.579181 255.504077 
L 75.240835 214.430466 
L 74.831943 205.621708 
L 73.95294 190.174106 
L 73.832727 183.79926 
L 74.017091 177.342334 
L 74.263288 174.089746 
L 74.634765 170.825716 
L 75.149214 167.554986 
L 75.824659 164.28376 
L 76.651063 161.109638 
L 77.594859 158.05391 
L 79.805998 152.028149 
L 82.405381 146.12607 
L 85.344311 140.35924 
L 88.576767 134.74011 
L 92.058624 129.282275 
L 95.747093 124.00048 
L 99.600336 118.910491 
L 103.577239 114.028927 
L 107.587064 109.428437 
L 116.131506 100.039331 
L 120.897869 95.067157 
L 125.947202 90.145742 
L 131.265553 85.445901 
L 134.02798 83.232458 
L 136.864817 81.139504 
L 139.783744 79.190986 
L 142.79564 77.413814 
L 145.914327 75.839916 
L 149.155004 74.509054 
L 152.530184 73.471948 
L 156.041871 72.792038 
L 159.689179 72.54326 
L 163.284776 72.781102 
L 166.721142 73.450419 
L 169.993002 74.469189 
L 173.115553 75.770191 
L 176.111475 77.301344 
L 179.003312 79.021976 
L 181.8102 80.898727 
L 184.547035 82.902423 
L 189.8507 87.183413 
L 194.963787 91.655598 
L 206.90101 102.268625 
L 211.519056 105.92934 
L 214.148908 107.974771 
L 219.120012 112.288063 
L 223.787651 116.758087 
L 236.655997 129.527151 
L 240.687685 133.056124 
L 244.595782 135.990108 
L 246.498305 137.204003 
L 248.365997 138.240729 
L 250.203534 139.099313 
L 251.84584 139.738543 
L 253.472854 140.186547 
L 255.373461 140.443332 
L 257.539075 140.496166 
L 259.943289 140.344732 
L 262.553544 140.00159 
L 265.337739 139.489255 
L 271.317608 138.078337 
L 284.407365 134.736217 
L 287.863578 134.03266 
L 291.39535 133.47902 
L 295.01034 133.137534 
L 298.713802 133.084439 
L 302.497196 133.412426 
L 306.320251 134.225146 
L 310.119544 135.629252 
L 313.594692 137.575533 
L 316.625081 139.894934 
L 319.279063 142.470807 
L 321.63396 145.227813 
L 323.757463 148.114796 
L 325.703605 151.091081 
L 329.222673 157.15869 
L 335.453905 168.563663 
L 338.325906 173.112365 
L 339.666537 174.914064 
L 340.894509 176.3475 
L 342.833549 178.141955 
L 343.841776 178.721236 
L 345.24179 179.184477 
L 346.850307 179.491893 
L 348.677979 179.629563 
L 350.71721 179.587524 
L 352.950155 179.363757 
L 355.354926 178.964237 
L 357.909319 178.401349 
L 363.386504 176.856373 
L 369.243708 174.89497 
L 384.959761 169.426654 
L 391.557642 167.553663 
L 394.488746 166.887037 
L 394.488746 166.887037 
" style="fill:none;stroke:#ffffff;stroke-linecap:square;"/>
   </g>
   <g id="line2d_17">
    <path clip-path="url(#p1a9b9918f4)" d="M 92.317368 276.51274 
L 92.606284 255.836177 
L 93.314817 216.962932 
L 93.151808 210.680327 
L 92.636923 201.452335 
L 91.975511 189.650983 
L 91.861294 184.039104 
L 91.9984 178.668706 
L 92.454293 173.57366 
L 93.286264 168.775873 
L 93.887717 166.399674 
L 95.478425 161.49527 
L 97.459358 156.554729 
L 99.796522 151.611124 
L 102.452792 146.69693 
L 105.388781 141.843562 
L 108.563512 137.081269 
L 111.934884 132.4392 
L 115.459975 127.945568 
L 119.09521 123.62783 
L 127.098896 114.734012 
L 133.62076 107.842711 
L 138.093025 103.471122 
L 142.567183 99.494385 
L 146.931504 96.097731 
L 149.027323 94.671392 
L 151.035504 93.451002 
L 152.929746 92.449271 
L 154.682368 91.671076 
L 156.268379 91.110333 
L 157.673296 90.748241 
L 158.885525 90.555502 
L 160.133685 90.533774 
L 161.572198 90.729746 
L 163.202285 91.171672 
L 165.004691 91.873006 
L 166.95268 92.832063 
L 169.019652 94.035746 
L 171.182416 95.463649 
L 175.723511 98.891602 
L 180.468884 102.900387 
L 195.492107 116.230132 
L 200.47866 120.184039 
L 204.662028 123.544012 
L 208.900124 127.423822 
L 215.402884 133.895306 
L 222.218867 140.689252 
L 227.058976 145.138599 
L 229.604953 147.277931 
L 232.254489 149.330086 
L 235.023264 151.269299 
L 237.926574 153.066291 
L 240.977606 154.687566 
L 244.185038 156.095327 
L 247.7273 157.292015 
L 251.47993 158.106229 
L 255.181366 158.47247 
L 258.811314 158.481386 
L 262.367303 158.211207 
L 265.853012 157.727286 
L 269.271664 157.085021 
L 275.902622 155.51578 
L 288.046439 152.395319 
L 293.219138 151.416705 
L 295.469389 151.161852 
L 297.449261 151.070202 
L 299.138417 151.126978 
L 300.548247 151.306443 
L 301.713296 151.579855 
L 302.895504 152.088084 
L 304.219814 152.979127 
L 305.65315 154.278485 
L 307.153462 155.970342 
L 308.688338 158.014707 
L 310.239018 160.361102 
L 313.370028 165.748243 
L 320.052398 177.938114 
L 321.946617 181.032813 
L 324.008325 184.071088 
L 326.297905 187.012262 
L 328.891342 189.801522 
L 331.873309 192.352424 
L 335.309816 194.52732 
L 338.908244 196.063295 
L 342.380664 196.986182 
L 345.844251 197.493965 
L 349.271332 197.64996 
L 352.65248 197.513524 
L 355.98852 197.136069 
L 359.284318 196.561016 
L 362.545056 195.825375 
L 368.973735 193.998999 
L 375.276389 191.885954 
L 390.177569 186.68531 
L 395.556169 185.134862 
L 398.487273 184.468235 
L 398.487273 184.468235 
" style="fill:none;stroke:#ffffff;stroke-linecap:square;"/>
   </g>
   <g id="patch_3">
    <path d="M 57.6 307.584 
L 57.6 41.472 
" style="fill:none;stroke:#000000;stroke-linecap:square;stroke-linejoin:miter;stroke-width:0.8;"/>
   </g>
   <g id="patch_4">
    <path d="M 414.72 307.584 
L 414.72 41.472 
" style="fill:none;stroke:#000000;stroke-linecap:square;stroke-linejoin:miter;stroke-width:0.8;"/>
   </g>
   <g id="patch_5">
    <path d="M 57.6 307.584 
L 414.72 307.584 
" style="fill:none;stroke:#000000;stroke-linecap:square;stroke-linejoin:miter;stroke-width:0.8;"/>
   </g>
   <g id="patch_6">
    <path d="M 57.6 41.472 
L 414.72 41.472 
" style="fill:none;stroke:#000000;stroke-linecap:square;stroke-linejoin:miter;stroke-width:0.8;"/>
   </g>
  </g>
 </g>
 <defs>
  <clipPath id="p1a9b9918f4">
   <rect height="266.112" width="357.12" x="57.6" y="41.472"/>
  </clipPath>
 </defs>
</svg>
