<?xml version="1.0" encoding="utf-8" standalone="no"?>
<!DOCTYPE svg PUBLIC "-//W3C//DTD SVG 1.1//EN"
  "http://www.w3.org/Graphics/SVG/1.1/DTD/svg11.dtd">
<!-- Created with matplotlib (https://matplotlib.org/) -->
<svg height="345.6pt" version="1.1" viewBox="0 0 460.8 345.6" width="460.8pt" xmlns="http://www.w3.org/2000/svg" xmlns:xlink="http://www.w3.org/1999/xlink">
 <metadata>
  <rdf:RDF xmlns:cc="http://creativecommons.org/ns#" xmlns:dc="http://purl.org/dc/elements/1.1/" xmlns:rdf="http://www.w3.org/1999/02/22-rdf-syntax-ns#">
   <cc:Work>
    <dc:type rdf:resource="http://purl.org/dc/dcmitype/StillImage"/>
    <dc:date>2021-05-26T12:01:28.483258</dc:date>
    <dc:format>image/svg+xml</dc:format>
    <dc:creator>
     <cc:Agent>
      <dc:title>Matplotlib v3.3.3, https://matplotlib.org/</dc:title>
     </cc:Agent>
    </dc:creator>
   </cc:Work>
  </rdf:RDF>
 </metadata>
 <defs>
  <style type="text/css">*{stroke-linecap:butt;stroke-linejoin:round;}</style>
 </defs>
 <g id="figure_1">
  <g id="patch_1">
   <path d="M 0 345.6 
L 460.8 345.6 
L 460.8 0 
L 0 0 
z
" style="fill:#ffffff;"/>
  </g>
  <g id="axes_1">
   <g id="patch_2">
    <path d="M 57.6 307.584 
L 414.72 307.584 
L 414.72 41.472 
L 57.6 41.472 
z
" style="fill:#7d9051;"/>
   </g>
   <g id="matplotlib.axis_1">
    <g id="xtick_1">
     <g id="line2d_1">
      <defs>
       <path d="M 0 0 
L 0 3.5 
" id="m207b495098" style="stroke:#000000;stroke-width:0.8;"/>
      </defs>
      <g>
       <use style="stroke:#000000;stroke-width:0.8;" x="98.989714" xlink:href="#m207b495098" y="307.584"/>
      </g>
     </g>
     <g id="text_1">
      <!-- −120 -->
      <g transform="translate(85.25612 322.182437)scale(0.1 -0.1)">
       <defs>
        <path d="M 10.59375 35.5 
L 73.1875 35.5 
L 73.1875 27.203125 
L 10.59375 27.203125 
z
" id="DejaVuSans-8722"/>
        <path d="M 12.40625 8.296875 
L 28.515625 8.296875 
L 28.515625 63.921875 
L 10.984375 60.40625 
L 10.984375 69.390625 
L 28.421875 72.90625 
L 38.28125 72.90625 
L 38.28125 8.296875 
L 54.390625 8.296875 
L 54.390625 0 
L 12.40625 0 
z
" id="DejaVuSans-49"/>
        <path d="M 19.1875 8.296875 
L 53.609375 8.296875 
L 53.609375 0 
L 7.328125 0 
L 7.328125 8.296875 
Q 12.9375 14.109375 22.625 23.890625 
Q 32.328125 33.6875 34.8125 36.53125 
Q 39.546875 41.84375 41.421875 45.53125 
Q 43.3125 49.21875 43.3125 52.78125 
Q 43.3125 58.59375 39.234375 62.25 
Q 35.15625 65.921875 28.609375 65.921875 
Q 23.96875 65.921875 18.8125 64.3125 
Q 13.671875 62.703125 7.8125 59.421875 
L 7.8125 69.390625 
Q 13.765625 71.78125 18.9375 73 
Q 24.125 74.21875 28.421875 74.21875 
Q 39.75 74.21875 46.484375 68.546875 
Q 53.21875 62.890625 53.21875 53.421875 
Q 53.21875 48.921875 51.53125 44.890625 
Q 49.859375 40.875 45.40625 35.40625 
Q 44.1875 33.984375 37.640625 27.21875 
Q 31.109375 20.453125 19.1875 8.296875 
z
" id="DejaVuSans-50"/>
        <path d="M 31.78125 66.40625 
Q 24.171875 66.40625 20.328125 58.90625 
Q 16.5 51.421875 16.5 36.375 
Q 16.5 21.390625 20.328125 13.890625 
Q 24.171875 6.390625 31.78125 6.390625 
Q 39.453125 6.390625 43.28125 13.890625 
Q 47.125 21.390625 47.125 36.375 
Q 47.125 51.421875 43.28125 58.90625 
Q 39.453125 66.40625 31.78125 66.40625 
z
M 31.78125 74.21875 
Q 44.046875 74.21875 50.515625 64.515625 
Q 56.984375 54.828125 56.984375 36.375 
Q 56.984375 17.96875 50.515625 8.265625 
Q 44.046875 -1.421875 31.78125 -1.421875 
Q 19.53125 -1.421875 13.0625 8.265625 
Q 6.59375 17.96875 6.59375 36.375 
Q 6.59375 54.828125 13.0625 64.515625 
Q 19.53125 74.21875 31.78125 74.21875 
z
" id="DejaVuSans-48"/>
       </defs>
       <use xlink:href="#DejaVuSans-8722"/>
       <use x="83.789062" xlink:href="#DejaVuSans-49"/>
       <use x="147.412109" xlink:href="#DejaVuSans-50"/>
       <use x="211.035156" xlink:href="#DejaVuSans-48"/>
      </g>
     </g>
    </g>
    <g id="xtick_2">
     <g id="line2d_2">
      <g>
       <use style="stroke:#000000;stroke-width:0.8;" x="141.209164" xlink:href="#m207b495098" y="307.584"/>
      </g>
     </g>
     <g id="text_2">
      <!-- −100 -->
      <g transform="translate(127.47557 322.182437)scale(0.1 -0.1)">
       <use xlink:href="#DejaVuSans-8722"/>
       <use x="83.789062" xlink:href="#DejaVuSans-49"/>
       <use x="147.412109" xlink:href="#DejaVuSans-48"/>
       <use x="211.035156" xlink:href="#DejaVuSans-48"/>
      </g>
     </g>
    </g>
    <g id="xtick_3">
     <g id="line2d_3">
      <g>
       <use style="stroke:#000000;stroke-width:0.8;" x="183.428614" xlink:href="#m207b495098" y="307.584"/>
      </g>
     </g>
     <g id="text_3">
      <!-- −80 -->
      <g transform="translate(172.87627 322.182437)scale(0.1 -0.1)">
       <defs>
        <path d="M 31.78125 34.625 
Q 24.75 34.625 20.71875 30.859375 
Q 16.703125 27.09375 16.703125 20.515625 
Q 16.703125 13.921875 20.71875 10.15625 
Q 24.75 6.390625 31.78125 6.390625 
Q 38.8125 6.390625 42.859375 10.171875 
Q 46.921875 13.96875 46.921875 20.515625 
Q 46.921875 27.09375 42.890625 30.859375 
Q 38.875 34.625 31.78125 34.625 
z
M 21.921875 38.8125 
Q 15.578125 40.375 12.03125 44.71875 
Q 8.5 49.078125 8.5 55.328125 
Q 8.5 64.0625 14.71875 69.140625 
Q 20.953125 74.21875 31.78125 74.21875 
Q 42.671875 74.21875 48.875 69.140625 
Q 55.078125 64.0625 55.078125 55.328125 
Q 55.078125 49.078125 51.53125 44.71875 
Q 48 40.375 41.703125 38.8125 
Q 48.828125 37.15625 52.796875 32.3125 
Q 56.78125 27.484375 56.78125 20.515625 
Q 56.78125 9.90625 50.3125 4.234375 
Q 43.84375 -1.421875 31.78125 -1.421875 
Q 19.734375 -1.421875 13.25 4.234375 
Q 6.78125 9.90625 6.78125 20.515625 
Q 6.78125 27.484375 10.78125 32.3125 
Q 14.796875 37.15625 21.921875 38.8125 
z
M 18.3125 54.390625 
Q 18.3125 48.734375 21.84375 45.5625 
Q 25.390625 42.390625 31.78125 42.390625 
Q 38.140625 42.390625 41.71875 45.5625 
Q 45.3125 48.734375 45.3125 54.390625 
Q 45.3125 60.0625 41.71875 63.234375 
Q 38.140625 66.40625 31.78125 66.40625 
Q 25.390625 66.40625 21.84375 63.234375 
Q 18.3125 60.0625 18.3125 54.390625 
z
" id="DejaVuSans-56"/>
       </defs>
       <use xlink:href="#DejaVuSans-8722"/>
       <use x="83.789062" xlink:href="#DejaVuSans-56"/>
       <use x="147.412109" xlink:href="#DejaVuSans-48"/>
      </g>
     </g>
    </g>
    <g id="xtick_4">
     <g id="line2d_4">
      <g>
       <use style="stroke:#000000;stroke-width:0.8;" x="225.648064" xlink:href="#m207b495098" y="307.584"/>
      </g>
     </g>
     <g id="text_4">
      <!-- −60 -->
      <g transform="translate(215.09572 322.182437)scale(0.1 -0.1)">
       <defs>
        <path d="M 33.015625 40.375 
Q 26.375 40.375 22.484375 35.828125 
Q 18.609375 31.296875 18.609375 23.390625 
Q 18.609375 15.53125 22.484375 10.953125 
Q 26.375 6.390625 33.015625 6.390625 
Q 39.65625 6.390625 43.53125 10.953125 
Q 47.40625 15.53125 47.40625 23.390625 
Q 47.40625 31.296875 43.53125 35.828125 
Q 39.65625 40.375 33.015625 40.375 
z
M 52.59375 71.296875 
L 52.59375 62.3125 
Q 48.875 64.0625 45.09375 64.984375 
Q 41.3125 65.921875 37.59375 65.921875 
Q 27.828125 65.921875 22.671875 59.328125 
Q 17.53125 52.734375 16.796875 39.40625 
Q 19.671875 43.65625 24.015625 45.921875 
Q 28.375 48.1875 33.59375 48.1875 
Q 44.578125 48.1875 50.953125 41.515625 
Q 57.328125 34.859375 57.328125 23.390625 
Q 57.328125 12.15625 50.6875 5.359375 
Q 44.046875 -1.421875 33.015625 -1.421875 
Q 20.359375 -1.421875 13.671875 8.265625 
Q 6.984375 17.96875 6.984375 36.375 
Q 6.984375 53.65625 15.1875 63.9375 
Q 23.390625 74.21875 37.203125 74.21875 
Q 40.921875 74.21875 44.703125 73.484375 
Q 48.484375 72.75 52.59375 71.296875 
z
" id="DejaVuSans-54"/>
       </defs>
       <use xlink:href="#DejaVuSans-8722"/>
       <use x="83.789062" xlink:href="#DejaVuSans-54"/>
       <use x="147.412109" xlink:href="#DejaVuSans-48"/>
      </g>
     </g>
    </g>
    <g id="xtick_5">
     <g id="line2d_5">
      <g>
       <use style="stroke:#000000;stroke-width:0.8;" x="267.867514" xlink:href="#m207b495098" y="307.584"/>
      </g>
     </g>
     <g id="text_5">
      <!-- −40 -->
      <g transform="translate(257.31517 322.182437)scale(0.1 -0.1)">
       <defs>
        <path d="M 37.796875 64.3125 
L 12.890625 25.390625 
L 37.796875 25.390625 
z
M 35.203125 72.90625 
L 47.609375 72.90625 
L 47.609375 25.390625 
L 58.015625 25.390625 
L 58.015625 17.1875 
L 47.609375 17.1875 
L 47.609375 0 
L 37.796875 0 
L 37.796875 17.1875 
L 4.890625 17.1875 
L 4.890625 26.703125 
z
" id="DejaVuSans-52"/>
       </defs>
       <use xlink:href="#DejaVuSans-8722"/>
       <use x="83.789062" xlink:href="#DejaVuSans-52"/>
       <use x="147.412109" xlink:href="#DejaVuSans-48"/>
      </g>
     </g>
    </g>
    <g id="xtick_6">
     <g id="line2d_6">
      <g>
       <use style="stroke:#000000;stroke-width:0.8;" x="310.086964" xlink:href="#m207b495098" y="307.584"/>
      </g>
     </g>
     <g id="text_6">
      <!-- −20 -->
      <g transform="translate(299.534621 322.182437)scale(0.1 -0.1)">
       <use xlink:href="#DejaVuSans-8722"/>
       <use x="83.789062" xlink:href="#DejaVuSans-50"/>
       <use x="147.412109" xlink:href="#DejaVuSans-48"/>
      </g>
     </g>
    </g>
    <g id="xtick_7">
     <g id="line2d_7">
      <g>
       <use style="stroke:#000000;stroke-width:0.8;" x="352.306414" xlink:href="#m207b495098" y="307.584"/>
      </g>
     </g>
     <g id="text_7">
      <!-- 0 -->
      <g transform="translate(349.125164 322.182437)scale(0.1 -0.1)">
       <use xlink:href="#DejaVuSans-48"/>
      </g>
     </g>
    </g>
    <g id="xtick_8">
     <g id="line2d_8">
      <g>
       <use style="stroke:#000000;stroke-width:0.8;" x="394.525864" xlink:href="#m207b495098" y="307.584"/>
      </g>
     </g>
     <g id="text_8">
      <!-- 20 -->
      <g transform="translate(388.163364 322.182437)scale(0.1 -0.1)">
       <use xlink:href="#DejaVuSans-50"/>
       <use x="63.623047" xlink:href="#DejaVuSans-48"/>
      </g>
     </g>
    </g>
   </g>
   <g id="matplotlib.axis_2">
    <g id="ytick_1">
     <g id="line2d_9">
      <defs>
       <path d="M 0 0 
L -3.5 0 
" id="mb41d9976bd" style="stroke:#000000;stroke-width:0.8;"/>
      </defs>
      <g>
       <use style="stroke:#000000;stroke-width:0.8;" x="57.6" xlink:href="#mb41d9976bd" y="295.406762"/>
      </g>
     </g>
     <g id="text_9">
      <!-- 0 -->
      <g transform="translate(44.2375 299.205981)scale(0.1 -0.1)">
       <use xlink:href="#DejaVuSans-48"/>
      </g>
     </g>
    </g>
    <g id="ytick_2">
     <g id="line2d_10">
      <g>
       <use style="stroke:#000000;stroke-width:0.8;" x="57.6" xlink:href="#mb41d9976bd" y="253.187312"/>
      </g>
     </g>
     <g id="text_10">
      <!-- 20 -->
      <g transform="translate(37.875 256.986531)scale(0.1 -0.1)">
       <use xlink:href="#DejaVuSans-50"/>
       <use x="63.623047" xlink:href="#DejaVuSans-48"/>
      </g>
     </g>
    </g>
    <g id="ytick_3">
     <g id="line2d_11">
      <g>
       <use style="stroke:#000000;stroke-width:0.8;" x="57.6" xlink:href="#mb41d9976bd" y="210.967862"/>
      </g>
     </g>
     <g id="text_11">
      <!-- 40 -->
      <g transform="translate(37.875 214.76708)scale(0.1 -0.1)">
       <use xlink:href="#DejaVuSans-52"/>
       <use x="63.623047" xlink:href="#DejaVuSans-48"/>
      </g>
     </g>
    </g>
    <g id="ytick_4">
     <g id="line2d_12">
      <g>
       <use style="stroke:#000000;stroke-width:0.8;" x="57.6" xlink:href="#mb41d9976bd" y="168.748412"/>
      </g>
     </g>
     <g id="text_12">
      <!-- 60 -->
      <g transform="translate(37.875 172.54763)scale(0.1 -0.1)">
       <use xlink:href="#DejaVuSans-54"/>
       <use x="63.623047" xlink:href="#DejaVuSans-48"/>
      </g>
     </g>
    </g>
    <g id="ytick_5">
     <g id="line2d_13">
      <g>
       <use style="stroke:#000000;stroke-width:0.8;" x="57.6" xlink:href="#mb41d9976bd" y="126.528962"/>
      </g>
     </g>
     <g id="text_13">
      <!-- 80 -->
      <g transform="translate(37.875 130.32818)scale(0.1 -0.1)">
       <use xlink:href="#DejaVuSans-56"/>
       <use x="63.623047" xlink:href="#DejaVuSans-48"/>
      </g>
     </g>
    </g>
    <g id="ytick_6">
     <g id="line2d_14">
      <g>
       <use style="stroke:#000000;stroke-width:0.8;" x="57.6" xlink:href="#mb41d9976bd" y="84.309511"/>
      </g>
     </g>
     <g id="text_14">
      <!-- 100 -->
      <g transform="translate(31.5125 88.10873)scale(0.1 -0.1)">
       <use xlink:href="#DejaVuSans-49"/>
       <use x="63.623047" xlink:href="#DejaVuSans-48"/>
       <use x="127.246094" xlink:href="#DejaVuSans-48"/>
      </g>
     </g>
    </g>
    <g id="ytick_7">
     <g id="line2d_15">
      <g>
       <use style="stroke:#000000;stroke-width:0.8;" x="57.6" xlink:href="#mb41d9976bd" y="42.090061"/>
      </g>
     </g>
     <g id="text_15">
      <!-- 120 -->
      <g transform="translate(31.5125 45.88928)scale(0.1 -0.1)">
       <use xlink:href="#DejaVuSans-49"/>
       <use x="63.623047" xlink:href="#DejaVuSans-50"/>
       <use x="127.246094" xlink:href="#DejaVuSans-48"/>
      </g>
     </g>
    </g>
   </g>
   <g id="line2d_16">
    <path clip-path="url(#pcf757e3f26)" d="M 352.306414 295.406762 
L 352.629228 273.188816 
L 353.26737 234.296949 
L 353.114666 206.452596 
L 353.440341 198.141615 
L 353.862617 192.624336 
L 354.541707 187.11994 
L 355.080649 184.353156 
L 356.507296 178.793812 
L 358.251611 173.219709 
L 362.841783 159.374277 
L 364.305444 153.933795 
L 364.86906 151.246251 
L 365.291064 148.584427 
L 365.549352 145.951264 
L 365.62182 143.349701 
L 365.486367 140.782682 
L 365.120888 138.253145 
L 364.543841 135.743842 
L 363.795776 133.23787 
L 362.887731 130.738692 
L 361.830747 128.24977 
L 360.635862 125.774567 
L 359.314116 123.316546 
L 356.334197 118.465898 
L 352.979302 113.725528 
L 349.337746 109.123134 
L 345.497842 104.686419 
L 341.547903 100.443082 
L 335.609867 94.501257 
L 331.580812 90.758268 
L 327.328011 87.104831 
L 322.876774 83.580342 
L 318.252408 80.224198 
L 313.480223 77.075796 
L 308.585527 74.174534 
L 303.593628 71.559808 
L 298.529837 69.271016 
L 293.41946 67.347553 
L 288.248159 65.799454 
L 282.822956 64.488108 
L 277.179635 63.418884 
L 271.395807 62.626309 
L 265.549084 62.144912 
L 259.717076 62.009221 
L 253.977397 62.253766 
L 251.166433 62.529416 
L 248.407656 62.913073 
L 245.710766 63.409054 
L 243.085466 64.021673 
L 240.541455 64.755248 
L 238.088437 65.614093 
L 235.740801 66.678971 
L 233.498242 68.007579 
L 231.348416 69.56964 
L 229.278983 71.334877 
L 227.2776 73.273013 
L 223.429613 77.546872 
L 219.705716 82.149002 
L 214.136551 89.137851 
L 210.290901 93.500954 
L 208.291187 95.502835 
L 206.223757 97.344566 
L 204.076269 98.99587 
L 201.83638 100.42647 
L 199.491748 101.606088 
L 197.041068 102.606529 
L 191.872435 104.344685 
L 186.414335 105.729972 
L 180.747049 106.759302 
L 174.950853 107.429591 
L 169.106027 107.737754 
L 163.292849 107.680705 
L 157.591599 107.25536 
L 152.082553 106.458632 
L 146.845991 105.287438 
L 144.3332 104.518184 
L 141.865791 103.579556 
L 139.439877 102.486072 
L 137.051565 101.252251 
L 134.696968 99.892609 
L 130.073352 96.853935 
L 125.537911 93.486193 
L 118.831999 88.071636 
L 109.908936 80.784477 
L 105.385164 77.373182 
L 103.094103 75.776417 
L 103.094103 75.776417 
" style="fill:none;stroke:#fea952;stroke-linecap:square;"/>
   </g>
   <g id="line2d_17">
    <path clip-path="url(#pcf757e3f26)" d="M 343.862915 295.325524 
L 344.186877 273.027573 
L 344.82374 234.363234 
L 344.673729 206.229312 
L 344.862865 200.465162 
L 345.214566 194.66416 
L 345.78936 188.680815 
L 346.253592 185.5055 
L 346.867399 182.393103 
L 348.425525 176.347538 
L 350.247621 170.529833 
L 354.723164 157.05322 
L 356.041327 152.20069 
L 356.887505 147.76012 
L 357.108736 145.716144 
L 357.189661 143.794639 
L 357.129257 141.990153 
L 356.891785 140.145536 
L 356.452758 138.159136 
L 355.859501 136.121414 
L 355.115651 134.039304 
L 354.226539 131.920642 
L 352.041021 127.606227 
L 349.370529 123.241526 
L 346.294438 118.884197 
L 342.898344 114.585129 
L 339.270689 110.389212 
L 335.50082 106.336474 
L 329.803081 100.631552 
L 326.01557 97.108651 
L 322.018854 93.670813 
L 317.843659 90.360241 
L 313.521341 87.218216 
L 309.084112 84.285061 
L 304.565243 81.599936 
L 299.999225 79.200459 
L 295.421783 77.122084 
L 290.869605 75.397244 
L 286.160999 73.981327 
L 281.146549 72.763913 
L 275.923812 71.768865 
L 270.58491 71.031172 
L 265.222237 70.582473 
L 259.929362 70.450442 
L 254.801474 70.657347 
L 249.934944 71.217691 
L 245.424971 72.134995 
L 241.576489 73.303877 
L 240.044758 73.943627 
L 238.461689 74.838645 
L 236.828288 75.993835 
L 235.1531 77.400685 
L 233.445172 79.04019 
L 229.951054 82.910647 
L 226.343872 87.367638 
L 220.563651 94.614316 
L 218.473908 97.059395 
L 216.264865 99.468452 
L 213.907839 101.807793 
L 211.370893 104.038314 
L 208.621375 106.112139 
L 205.631386 107.969493 
L 202.683115 109.423661 
L 199.894185 110.553793 
L 197.029654 111.574941 
L 194.097424 112.490157 
L 191.10537 113.301801 
L 184.973466 114.621063 
L 178.697821 115.541746 
L 172.343021 116.067198 
L 165.97382 116.196184 
L 159.654375 115.923077 
L 153.447444 115.237163 
L 150.405242 114.734254 
L 147.413787 114.120861 
L 144.374249 113.361456 
L 141.33095 112.410317 
L 138.39591 111.277556 
L 135.564307 109.988022 
L 132.829121 108.564586 
L 130.182142 107.028128 
L 125.118405 103.691169 
L 120.307344 100.114952 
L 113.444555 94.573538 
L 104.753758 87.472034 
L 100.557081 84.300583 
L 98.266021 82.703819 
L 98.266021 82.703819 
" style="fill:none;stroke:#ffffff;stroke-linecap:square;"/>
   </g>
   <g id="line2d_18">
    <path clip-path="url(#pcf757e3f26)" d="M 360.749914 295.488 
L 361.071578 273.350059 
L 361.710999 234.230663 
L 361.555604 206.675879 
L 361.864792 198.71424 
L 362.261253 193.497373 
L 362.829823 188.73438 
L 363.885782 183.812384 
L 365.385533 178.603725 
L 368.133278 170.366403 
L 370.960402 161.695335 
L 372.56956 155.6669 
L 373.208792 152.568427 
L 373.694623 149.408734 
L 373.989968 146.186384 
L 374.053979 142.904763 
L 373.843477 139.57521 
L 373.349991 136.360754 
L 372.634924 133.328547 
L 371.73205 130.354326 
L 370.659812 127.438079 
L 369.434955 124.578898 
L 368.07274 121.775552 
L 366.587211 119.026865 
L 364.991461 116.33194 
L 361.518272 111.101789 
L 357.746772 106.086258 
L 353.766253 101.292998 
L 349.664269 96.73509 
L 345.5281 92.429955 
L 341.416653 88.370962 
L 337.146054 84.407885 
L 332.637169 80.538848 
L 327.909889 76.800443 
L 322.983475 73.23018 
L 317.876333 69.866532 
L 312.60581 66.749132 
L 307.188032 63.919158 
L 301.63789 61.419947 
L 295.969316 59.297863 
L 290.335318 57.617581 
L 284.499362 56.212304 
L 278.435457 55.068902 
L 272.206703 54.221445 
L 265.87593 53.70735 
L 259.504791 53.568 
L 256.322905 53.653207 
L 253.153319 53.850184 
L 250.003352 54.166012 
L 246.880368 54.608456 
L 243.791918 55.18608 
L 240.74596 55.908351 
L 237.751176 56.785705 
L 234.600385 57.92431 
L 231.436844 59.414314 
L 228.534795 61.176512 
L 225.868545 63.145444 
L 223.404866 65.269068 
L 221.110028 67.505835 
L 218.953304 69.820914 
L 214.952364 74.56271 
L 205.996575 85.679005 
L 202.674534 89.197877 
L 201.076621 90.650817 
L 199.531162 91.879601 
L 198.041374 92.883446 
L 196.300381 93.788514 
L 191.96625 95.464105 
L 187.243732 96.861459 
L 182.23018 97.957585 
L 177.022273 98.737293 
L 171.715982 99.191063 
L 166.40711 99.313963 
L 161.192057 99.105448 
L 156.168621 98.57006 
L 151.436602 97.719212 
L 147.335449 96.62605 
L 145.335673 95.881556 
L 143.315446 94.984123 
L 141.274009 93.939916 
L 137.129647 91.445569 
L 132.90803 88.482919 
L 128.608556 85.153982 
L 112.666965 72.251473 
L 107.922186 68.849015 
L 107.922186 68.849015 
" style="fill:none;stroke:#ffffff;stroke-linecap:square;"/>
   </g>
   <g id="patch_3">
    <path d="M 57.6 307.584 
L 57.6 41.472 
" style="fill:none;stroke:#000000;stroke-linecap:square;stroke-linejoin:miter;stroke-width:0.8;"/>
   </g>
   <g id="patch_4">
    <path d="M 414.72 307.584 
L 414.72 41.472 
" style="fill:none;stroke:#000000;stroke-linecap:square;stroke-linejoin:miter;stroke-width:0.8;"/>
   </g>
   <g id="patch_5">
    <path d="M 57.6 307.584 
L 414.72 307.584 
" style="fill:none;stroke:#000000;stroke-linecap:square;stroke-linejoin:miter;stroke-width:0.8;"/>
   </g>
   <g id="patch_6">
    <path d="M 57.6 41.472 
L 414.72 41.472 
" style="fill:none;stroke:#000000;stroke-linecap:square;stroke-linejoin:miter;stroke-width:0.8;"/>
   </g>
  </g>
 </g>
 <defs>
  <clipPath id="pcf757e3f26">
   <rect height="266.112" width="357.12" x="57.6" y="41.472"/>
  </clipPath>
 </defs>
</svg>
