<?xml version="1.0" encoding="utf-8" standalone="no"?>
<!DOCTYPE svg PUBLIC "-//W3C//DTD SVG 1.1//EN"
  "http://www.w3.org/Graphics/SVG/1.1/DTD/svg11.dtd">
<!-- Created with matplotlib (https://matplotlib.org/) -->
<svg height="345.6pt" version="1.1" viewBox="0 0 460.8 345.6" width="460.8pt" xmlns="http://www.w3.org/2000/svg" xmlns:xlink="http://www.w3.org/1999/xlink">
 <metadata>
  <rdf:RDF xmlns:cc="http://creativecommons.org/ns#" xmlns:dc="http://purl.org/dc/elements/1.1/" xmlns:rdf="http://www.w3.org/1999/02/22-rdf-syntax-ns#">
   <cc:Work>
    <dc:type rdf:resource="http://purl.org/dc/dcmitype/StillImage"/>
    <dc:date>2021-07-05T00:58:23.296630</dc:date>
    <dc:format>image/svg+xml</dc:format>
    <dc:creator>
     <cc:Agent>
      <dc:title>Matplotlib v3.3.3, https://matplotlib.org/</dc:title>
     </cc:Agent>
    </dc:creator>
   </cc:Work>
  </rdf:RDF>
 </metadata>
 <defs>
  <style type="text/css">*{stroke-linecap:butt;stroke-linejoin:round;}</style>
 </defs>
 <g id="figure_1">
  <g id="patch_1">
   <path d="M 0 345.6 
L 460.8 345.6 
L 460.8 0 
L 0 0 
z
" style="fill:#ffffff;"/>
  </g>
  <g id="axes_1">
   <g id="patch_2">
    <path d="M 57.6 307.584 
L 414.72 307.584 
L 414.72 41.472 
L 57.6 41.472 
z
" style="fill:#7d9051;"/>
   </g>
   <g id="matplotlib.axis_1">
    <g id="xtick_1">
     <g id="line2d_1">
      <defs>
       <path d="M 0 0 
L 0 3.5 
" id="mdf55e0f0fd" style="stroke:#000000;stroke-width:0.8;"/>
      </defs>
      <g>
       <use style="stroke:#000000;stroke-width:0.8;" x="81.311661" xlink:href="#mdf55e0f0fd" y="307.584"/>
      </g>
     </g>
     <g id="text_1">
      <!-- −20 -->
      <g transform="translate(70.759317 322.182437)scale(0.1 -0.1)">
       <defs>
        <path d="M 10.59375 35.5 
L 73.1875 35.5 
L 73.1875 27.203125 
L 10.59375 27.203125 
z
" id="DejaVuSans-8722"/>
        <path d="M 19.1875 8.296875 
L 53.609375 8.296875 
L 53.609375 0 
L 7.328125 0 
L 7.328125 8.296875 
Q 12.9375 14.109375 22.625 23.890625 
Q 32.328125 33.6875 34.8125 36.53125 
Q 39.546875 41.84375 41.421875 45.53125 
Q 43.3125 49.21875 43.3125 52.78125 
Q 43.3125 58.59375 39.234375 62.25 
Q 35.15625 65.921875 28.609375 65.921875 
Q 23.96875 65.921875 18.8125 64.3125 
Q 13.671875 62.703125 7.8125 59.421875 
L 7.8125 69.390625 
Q 13.765625 71.78125 18.9375 73 
Q 24.125 74.21875 28.421875 74.21875 
Q 39.75 74.21875 46.484375 68.546875 
Q 53.21875 62.890625 53.21875 53.421875 
Q 53.21875 48.921875 51.53125 44.890625 
Q 49.859375 40.875 45.40625 35.40625 
Q 44.1875 33.984375 37.640625 27.21875 
Q 31.109375 20.453125 19.1875 8.296875 
z
" id="DejaVuSans-50"/>
        <path d="M 31.78125 66.40625 
Q 24.171875 66.40625 20.328125 58.90625 
Q 16.5 51.421875 16.5 36.375 
Q 16.5 21.390625 20.328125 13.890625 
Q 24.171875 6.390625 31.78125 6.390625 
Q 39.453125 6.390625 43.28125 13.890625 
Q 47.125 21.390625 47.125 36.375 
Q 47.125 51.421875 43.28125 58.90625 
Q 39.453125 66.40625 31.78125 66.40625 
z
M 31.78125 74.21875 
Q 44.046875 74.21875 50.515625 64.515625 
Q 56.984375 54.828125 56.984375 36.375 
Q 56.984375 17.96875 50.515625 8.265625 
Q 44.046875 -1.421875 31.78125 -1.421875 
Q 19.53125 -1.421875 13.0625 8.265625 
Q 6.59375 17.96875 6.59375 36.375 
Q 6.59375 54.828125 13.0625 64.515625 
Q 19.53125 74.21875 31.78125 74.21875 
z
" id="DejaVuSans-48"/>
       </defs>
       <use xlink:href="#DejaVuSans-8722"/>
       <use x="83.789062" xlink:href="#DejaVuSans-50"/>
       <use x="147.412109" xlink:href="#DejaVuSans-48"/>
      </g>
     </g>
    </g>
    <g id="xtick_2">
     <g id="line2d_2">
      <g>
       <use style="stroke:#000000;stroke-width:0.8;" x="122.750961" xlink:href="#mdf55e0f0fd" y="307.584"/>
      </g>
     </g>
     <g id="text_2">
      <!-- 0 -->
      <g transform="translate(119.569711 322.182437)scale(0.1 -0.1)">
       <use xlink:href="#DejaVuSans-48"/>
      </g>
     </g>
    </g>
    <g id="xtick_3">
     <g id="line2d_3">
      <g>
       <use style="stroke:#000000;stroke-width:0.8;" x="164.190262" xlink:href="#mdf55e0f0fd" y="307.584"/>
      </g>
     </g>
     <g id="text_3">
      <!-- 20 -->
      <g transform="translate(157.827762 322.182437)scale(0.1 -0.1)">
       <use xlink:href="#DejaVuSans-50"/>
       <use x="63.623047" xlink:href="#DejaVuSans-48"/>
      </g>
     </g>
    </g>
    <g id="xtick_4">
     <g id="line2d_4">
      <g>
       <use style="stroke:#000000;stroke-width:0.8;" x="205.629563" xlink:href="#mdf55e0f0fd" y="307.584"/>
      </g>
     </g>
     <g id="text_4">
      <!-- 40 -->
      <g transform="translate(199.267063 322.182437)scale(0.1 -0.1)">
       <defs>
        <path d="M 37.796875 64.3125 
L 12.890625 25.390625 
L 37.796875 25.390625 
z
M 35.203125 72.90625 
L 47.609375 72.90625 
L 47.609375 25.390625 
L 58.015625 25.390625 
L 58.015625 17.1875 
L 47.609375 17.1875 
L 47.609375 0 
L 37.796875 0 
L 37.796875 17.1875 
L 4.890625 17.1875 
L 4.890625 26.703125 
z
" id="DejaVuSans-52"/>
       </defs>
       <use xlink:href="#DejaVuSans-52"/>
       <use x="63.623047" xlink:href="#DejaVuSans-48"/>
      </g>
     </g>
    </g>
    <g id="xtick_5">
     <g id="line2d_5">
      <g>
       <use style="stroke:#000000;stroke-width:0.8;" x="247.068864" xlink:href="#mdf55e0f0fd" y="307.584"/>
      </g>
     </g>
     <g id="text_5">
      <!-- 60 -->
      <g transform="translate(240.706364 322.182437)scale(0.1 -0.1)">
       <defs>
        <path d="M 33.015625 40.375 
Q 26.375 40.375 22.484375 35.828125 
Q 18.609375 31.296875 18.609375 23.390625 
Q 18.609375 15.53125 22.484375 10.953125 
Q 26.375 6.390625 33.015625 6.390625 
Q 39.65625 6.390625 43.53125 10.953125 
Q 47.40625 15.53125 47.40625 23.390625 
Q 47.40625 31.296875 43.53125 35.828125 
Q 39.65625 40.375 33.015625 40.375 
z
M 52.59375 71.296875 
L 52.59375 62.3125 
Q 48.875 64.0625 45.09375 64.984375 
Q 41.3125 65.921875 37.59375 65.921875 
Q 27.828125 65.921875 22.671875 59.328125 
Q 17.53125 52.734375 16.796875 39.40625 
Q 19.671875 43.65625 24.015625 45.921875 
Q 28.375 48.1875 33.59375 48.1875 
Q 44.578125 48.1875 50.953125 41.515625 
Q 57.328125 34.859375 57.328125 23.390625 
Q 57.328125 12.15625 50.6875 5.359375 
Q 44.046875 -1.421875 33.015625 -1.421875 
Q 20.359375 -1.421875 13.671875 8.265625 
Q 6.984375 17.96875 6.984375 36.375 
Q 6.984375 53.65625 15.1875 63.9375 
Q 23.390625 74.21875 37.203125 74.21875 
Q 40.921875 74.21875 44.703125 73.484375 
Q 48.484375 72.75 52.59375 71.296875 
z
" id="DejaVuSans-54"/>
       </defs>
       <use xlink:href="#DejaVuSans-54"/>
       <use x="63.623047" xlink:href="#DejaVuSans-48"/>
      </g>
     </g>
    </g>
    <g id="xtick_6">
     <g id="line2d_6">
      <g>
       <use style="stroke:#000000;stroke-width:0.8;" x="288.508165" xlink:href="#mdf55e0f0fd" y="307.584"/>
      </g>
     </g>
     <g id="text_6">
      <!-- 80 -->
      <g transform="translate(282.145665 322.182437)scale(0.1 -0.1)">
       <defs>
        <path d="M 31.78125 34.625 
Q 24.75 34.625 20.71875 30.859375 
Q 16.703125 27.09375 16.703125 20.515625 
Q 16.703125 13.921875 20.71875 10.15625 
Q 24.75 6.390625 31.78125 6.390625 
Q 38.8125 6.390625 42.859375 10.171875 
Q 46.921875 13.96875 46.921875 20.515625 
Q 46.921875 27.09375 42.890625 30.859375 
Q 38.875 34.625 31.78125 34.625 
z
M 21.921875 38.8125 
Q 15.578125 40.375 12.03125 44.71875 
Q 8.5 49.078125 8.5 55.328125 
Q 8.5 64.0625 14.71875 69.140625 
Q 20.953125 74.21875 31.78125 74.21875 
Q 42.671875 74.21875 48.875 69.140625 
Q 55.078125 64.0625 55.078125 55.328125 
Q 55.078125 49.078125 51.53125 44.71875 
Q 48 40.375 41.703125 38.8125 
Q 48.828125 37.15625 52.796875 32.3125 
Q 56.78125 27.484375 56.78125 20.515625 
Q 56.78125 9.90625 50.3125 4.234375 
Q 43.84375 -1.421875 31.78125 -1.421875 
Q 19.734375 -1.421875 13.25 4.234375 
Q 6.78125 9.90625 6.78125 20.515625 
Q 6.78125 27.484375 10.78125 32.3125 
Q 14.796875 37.15625 21.921875 38.8125 
z
M 18.3125 54.390625 
Q 18.3125 48.734375 21.84375 45.5625 
Q 25.390625 42.390625 31.78125 42.390625 
Q 38.140625 42.390625 41.71875 45.5625 
Q 45.3125 48.734375 45.3125 54.390625 
Q 45.3125 60.0625 41.71875 63.234375 
Q 38.140625 66.40625 31.78125 66.40625 
Q 25.390625 66.40625 21.84375 63.234375 
Q 18.3125 60.0625 18.3125 54.390625 
z
" id="DejaVuSans-56"/>
       </defs>
       <use xlink:href="#DejaVuSans-56"/>
       <use x="63.623047" xlink:href="#DejaVuSans-48"/>
      </g>
     </g>
    </g>
    <g id="xtick_7">
     <g id="line2d_7">
      <g>
       <use style="stroke:#000000;stroke-width:0.8;" x="329.947466" xlink:href="#mdf55e0f0fd" y="307.584"/>
      </g>
     </g>
     <g id="text_7">
      <!-- 100 -->
      <g transform="translate(320.403716 322.182437)scale(0.1 -0.1)">
       <defs>
        <path d="M 12.40625 8.296875 
L 28.515625 8.296875 
L 28.515625 63.921875 
L 10.984375 60.40625 
L 10.984375 69.390625 
L 28.421875 72.90625 
L 38.28125 72.90625 
L 38.28125 8.296875 
L 54.390625 8.296875 
L 54.390625 0 
L 12.40625 0 
z
" id="DejaVuSans-49"/>
       </defs>
       <use xlink:href="#DejaVuSans-49"/>
       <use x="63.623047" xlink:href="#DejaVuSans-48"/>
       <use x="127.246094" xlink:href="#DejaVuSans-48"/>
      </g>
     </g>
    </g>
    <g id="xtick_8">
     <g id="line2d_8">
      <g>
       <use style="stroke:#000000;stroke-width:0.8;" x="371.386767" xlink:href="#mdf55e0f0fd" y="307.584"/>
      </g>
     </g>
     <g id="text_8">
      <!-- 120 -->
      <g transform="translate(361.843017 322.182437)scale(0.1 -0.1)">
       <use xlink:href="#DejaVuSans-49"/>
       <use x="63.623047" xlink:href="#DejaVuSans-50"/>
       <use x="127.246094" xlink:href="#DejaVuSans-48"/>
      </g>
     </g>
    </g>
    <g id="xtick_9">
     <g id="line2d_9">
      <g>
       <use style="stroke:#000000;stroke-width:0.8;" x="412.826067" xlink:href="#mdf55e0f0fd" y="307.584"/>
      </g>
     </g>
     <g id="text_9">
      <!-- 140 -->
      <g transform="translate(403.282317 322.182437)scale(0.1 -0.1)">
       <use xlink:href="#DejaVuSans-49"/>
       <use x="63.623047" xlink:href="#DejaVuSans-52"/>
       <use x="127.246094" xlink:href="#DejaVuSans-48"/>
      </g>
     </g>
    </g>
   </g>
   <g id="matplotlib.axis_2">
    <g id="ytick_1">
     <g id="line2d_10">
      <defs>
       <path d="M 0 0 
L -3.5 0 
" id="ma9424882b6" style="stroke:#000000;stroke-width:0.8;"/>
      </defs>
      <g>
       <use style="stroke:#000000;stroke-width:0.8;" x="57.6" xlink:href="#ma9424882b6" y="295.408263"/>
      </g>
     </g>
     <g id="text_10">
      <!-- 0 -->
      <g transform="translate(44.2375 299.207482)scale(0.1 -0.1)">
       <use xlink:href="#DejaVuSans-48"/>
      </g>
     </g>
    </g>
    <g id="ytick_2">
     <g id="line2d_11">
      <g>
       <use style="stroke:#000000;stroke-width:0.8;" x="57.6" xlink:href="#ma9424882b6" y="253.968962"/>
      </g>
     </g>
     <g id="text_11">
      <!-- 20 -->
      <g transform="translate(37.875 257.768181)scale(0.1 -0.1)">
       <use xlink:href="#DejaVuSans-50"/>
       <use x="63.623047" xlink:href="#DejaVuSans-48"/>
      </g>
     </g>
    </g>
    <g id="ytick_3">
     <g id="line2d_12">
      <g>
       <use style="stroke:#000000;stroke-width:0.8;" x="57.6" xlink:href="#ma9424882b6" y="212.529661"/>
      </g>
     </g>
     <g id="text_12">
      <!-- 40 -->
      <g transform="translate(37.875 216.32888)scale(0.1 -0.1)">
       <use xlink:href="#DejaVuSans-52"/>
       <use x="63.623047" xlink:href="#DejaVuSans-48"/>
      </g>
     </g>
    </g>
    <g id="ytick_4">
     <g id="line2d_13">
      <g>
       <use style="stroke:#000000;stroke-width:0.8;" x="57.6" xlink:href="#ma9424882b6" y="171.09036"/>
      </g>
     </g>
     <g id="text_13">
      <!-- 60 -->
      <g transform="translate(37.875 174.889579)scale(0.1 -0.1)">
       <use xlink:href="#DejaVuSans-54"/>
       <use x="63.623047" xlink:href="#DejaVuSans-48"/>
      </g>
     </g>
    </g>
    <g id="ytick_5">
     <g id="line2d_14">
      <g>
       <use style="stroke:#000000;stroke-width:0.8;" x="57.6" xlink:href="#ma9424882b6" y="129.65106"/>
      </g>
     </g>
     <g id="text_14">
      <!-- 80 -->
      <g transform="translate(37.875 133.450278)scale(0.1 -0.1)">
       <use xlink:href="#DejaVuSans-56"/>
       <use x="63.623047" xlink:href="#DejaVuSans-48"/>
      </g>
     </g>
    </g>
    <g id="ytick_6">
     <g id="line2d_15">
      <g>
       <use style="stroke:#000000;stroke-width:0.8;" x="57.6" xlink:href="#ma9424882b6" y="88.211759"/>
      </g>
     </g>
     <g id="text_15">
      <!-- 100 -->
      <g transform="translate(31.5125 92.010977)scale(0.1 -0.1)">
       <use xlink:href="#DejaVuSans-49"/>
       <use x="63.623047" xlink:href="#DejaVuSans-48"/>
       <use x="127.246094" xlink:href="#DejaVuSans-48"/>
      </g>
     </g>
    </g>
    <g id="ytick_7">
     <g id="line2d_16">
      <g>
       <use style="stroke:#000000;stroke-width:0.8;" x="57.6" xlink:href="#ma9424882b6" y="46.772458"/>
      </g>
     </g>
     <g id="text_16">
      <!-- 120 -->
      <g transform="translate(31.5125 50.571677)scale(0.1 -0.1)">
       <use xlink:href="#DejaVuSans-49"/>
       <use x="63.623047" xlink:href="#DejaVuSans-50"/>
       <use x="127.246094" xlink:href="#DejaVuSans-48"/>
      </g>
     </g>
    </g>
   </g>
   <g id="line2d_17">
    <path clip-path="url(#p9f9d8d06e7)" d="M 122.750961 295.408263 
L 123.06781 273.60087 
L 123.71279 235.431285 
L 123.675468 208.123331 
L 123.963298 199.959738 
L 124.320327 194.533244 
L 124.860226 189.123198 
L 125.67753 183.732901 
L 126.715698 178.358714 
L 128.514851 170.317826 
L 130.95194 159.611151 
L 132.009723 154.253937 
L 132.855361 148.888156 
L 133.410124 143.509322 
L 133.553824 140.813608 
L 133.544434 138.08258 
L 133.346415 135.292845 
L 132.987651 132.455149 
L 131.899422 126.678862 
L 130.502819 120.839687 
L 127.676776 109.316547 
L 126.693479 103.804521 
L 126.406855 101.148505 
L 126.294093 98.573482 
L 126.383077 96.090199 
L 126.70169 93.7094 
L 127.277817 91.441833 
L 128.139341 89.298243 
L 129.284723 87.215133 
L 130.679717 85.13038 
L 132.30315 83.056791 
L 134.133847 81.007174 
L 136.150634 78.994337 
L 138.332336 77.031088 
L 140.65778 75.130235 
L 143.105791 73.304585 
L 145.655194 71.566946 
L 148.284816 69.930126 
L 150.973482 68.406933 
L 153.700018 67.010174 
L 156.44325 65.752658 
L 159.182003 64.647192 
L 161.895103 63.706584 
L 164.561377 62.943642 
L 167.159648 62.371173 
L 169.668745 62.001986 
L 172.067491 61.848889 
L 174.411097 61.945076 
L 176.767597 62.30119 
L 179.135057 62.896201 
L 181.511544 63.709085 
L 183.895124 64.718812 
L 186.283861 65.904356 
L 188.675823 67.244691 
L 193.461683 70.305621 
L 198.237231 73.733385 
L 207.695501 81.016551 
L 212.347277 84.535518 
L 221.39723 91.062512 
L 225.754609 94.864768 
L 230.033289 98.956871 
L 238.491764 107.217212 
L 242.740166 110.988749 
L 244.884165 112.69808 
L 247.04708 114.256729 
L 249.233199 115.639901 
L 251.44681 116.822802 
L 253.692201 117.780639 
L 255.973659 118.488617 
L 258.295472 118.921944 
L 260.650515 119.044452 
L 263.028166 118.857398 
L 265.427464 118.392121 
L 267.847448 117.67996 
L 270.287159 116.752256 
L 272.745637 115.640347 
L 277.715054 112.989275 
L 285.285929 108.414621 
L 290.399812 105.331783 
L 295.558042 102.514991 
L 298.151386 101.284712 
L 300.752937 100.214963 
L 303.361735 99.337083 
L 305.976819 98.682413 
L 311.255858 97.829632 
L 316.611742 97.354553 
L 322.030062 97.186358 
L 327.496409 97.254226 
L 335.754464 97.643732 
L 352.302993 98.582086 
L 357.775945 98.682413 
L 357.775945 98.682413 
" style="fill:none;stroke:#fea952;stroke-linecap:square;"/>
   </g>
   <g id="line2d_18">
    <path clip-path="url(#p9f9d8d06e7)" d="M 114.463485 295.328526 
L 114.781461 273.442606 
L 115.424975 235.458716 
L 115.390162 207.917613 
L 115.689727 199.473266 
L 116.064483 193.805456 
L 116.651778 187.978635 
L 117.527395 182.228267 
L 118.613355 176.614966 
L 120.443926 168.434 
L 122.833842 157.942281 
L 123.838282 152.869679 
L 124.625154 147.912289 
L 125.134014 143.068148 
L 125.266013 140.842103 
L 125.277374 138.669386 
L 125.124008 136.332388 
L 124.818377 133.852141 
L 123.82412 128.543832 
L 122.472329 122.889042 
L 120.233886 113.978871 
L 118.940631 107.829646 
L 118.45346 104.693742 
L 118.12693 101.511089 
L 118.011549 98.276694 
L 118.16845 94.990866 
L 118.669041 91.668524 
L 119.5878 88.35116 
L 120.876902 85.305047 
L 122.396684 82.606062 
L 124.15394 80.021285 
L 126.121945 77.535801 
L 128.279192 75.14103 
L 130.606789 72.833622 
L 133.087096 70.614229 
L 135.703073 68.486478 
L 138.438017 66.45619 
L 141.275524 64.530816 
L 144.199577 62.719062 
L 147.194732 61.030641 
L 150.246384 59.476182 
L 153.341125 58.067253 
L 156.467199 56.816581 
L 159.615076 55.738516 
L 162.778111 54.849904 
L 165.953167 54.171599 
L 169.140854 53.730955 
L 172.407361 53.568 
L 175.649494 53.750261 
L 178.787751 54.263304 
L 181.817364 55.0544 
L 184.744328 56.077719 
L 187.579611 57.294987 
L 190.33526 58.674225 
L 193.022306 60.188012 
L 198.224967 63.523309 
L 203.235827 67.122586 
L 212.734305 74.436347 
L 219.32266 79.347701 
L 224.275045 82.796625 
L 226.748784 84.734044 
L 231.437021 88.831625 
L 235.854912 93.057945 
L 244.082453 101.098975 
L 247.90673 104.508375 
L 251.478383 107.253003 
L 253.139303 108.330251 
L 254.698723 109.199568 
L 256.148526 109.865142 
L 257.49419 110.341433 
L 258.72602 110.645275 
L 260.000502 110.782121 
L 261.450359 110.721112 
L 263.087698 110.44139 
L 264.901749 109.933252 
L 266.871832 109.200821 
L 268.975828 108.259483 
L 273.511691 105.846421 
L 280.964001 101.342877 
L 286.316567 98.119589 
L 292.005752 95.02701 
L 294.999508 93.619577 
L 298.109658 92.35992 
L 301.349031 91.297329 
L 304.49416 90.528251 
L 307.445357 89.998171 
L 313.325887 89.283135 
L 319.160954 88.950074 
L 324.936713 88.909274 
L 330.642335 89.076315 
L 341.799277 89.720485 
L 352.525946 90.297225 
L 357.856515 90.394944 
L 357.856515 90.394944 
" style="fill:none;stroke:#ffffff;stroke-linecap:square;"/>
   </g>
   <g id="line2d_19">
    <path clip-path="url(#p9f9d8d06e7)" d="M 131.038438 295.488 
L 131.354159 273.759133 
L 132.000605 235.403853 
L 131.960775 208.329049 
L 132.236869 200.446209 
L 132.795856 192.743853 
L 133.41517 187.765723 
L 134.298096 182.683126 
L 135.971107 174.861971 
L 139.645622 158.475097 
L 140.665123 152.768178 
L 141.430174 146.924936 
L 141.686233 143.950497 
L 141.841635 140.785113 
L 141.811494 137.495773 
L 141.568822 134.253302 
L 141.156925 131.058158 
L 139.974725 124.813892 
L 138.533309 118.790331 
L 135.807296 107.709289 
L 134.933498 102.9153 
L 134.576638 98.870271 
L 134.597704 97.189531 
L 134.734339 95.750276 
L 134.967834 94.532506 
L 135.401779 93.291439 
L 136.172762 91.824205 
L 137.205495 90.239475 
L 138.484356 88.577781 
L 139.988502 86.873318 
L 141.694479 85.155053 
L 143.577576 83.447948 
L 145.612487 81.773992 
L 147.773564 80.15298 
L 150.034864 78.603075 
L 152.370055 77.14119 
L 154.752232 75.783224 
L 157.153651 74.544167 
L 159.545374 73.438063 
L 161.896807 72.477803 
L 164.17513 71.674652 
L 166.344643 71.03738 
L 168.36613 70.570748 
L 171.727621 70.129777 
L 173.172699 70.139892 
L 174.747442 70.339075 
L 176.45275 70.738003 
L 178.27876 71.34045 
L 180.210636 72.142637 
L 182.232462 73.134487 
L 186.488277 75.625662 
L 190.950859 78.667744 
L 195.556331 82.096203 
L 207.505809 91.262242 
L 216.045677 97.390979 
L 220.072197 100.897912 
L 224.211665 104.855797 
L 232.901076 113.335449 
L 237.573602 117.469122 
L 240.038766 119.421973 
L 242.615777 121.260455 
L 245.327095 122.94955 
L 248.194897 124.446036 
L 251.235876 125.696136 
L 254.453127 126.635802 
L 257.864924 127.198613 
L 261.300529 127.306783 
L 264.605973 126.993684 
L 267.767229 126.342852 
L 270.793147 125.426668 
L 273.702486 124.303691 
L 276.515447 123.021212 
L 281.918417 120.132129 
L 289.607857 115.486365 
L 294.483057 112.543976 
L 299.110331 110.002973 
L 301.303264 108.949847 
L 303.396217 108.070006 
L 305.374438 107.376838 
L 307.459477 106.836574 
L 312.121497 106.072162 
L 316.973403 105.634519 
L 322.003168 105.474174 
L 327.193883 105.536563 
L 335.241725 105.915716 
L 352.080041 106.866946 
L 357.695374 106.969881 
L 357.695374 106.969881 
" style="fill:none;stroke:#ffffff;stroke-linecap:square;"/>
   </g>
   <g id="patch_3">
    <path d="M 57.6 307.584 
L 57.6 41.472 
" style="fill:none;stroke:#000000;stroke-linecap:square;stroke-linejoin:miter;stroke-width:0.8;"/>
   </g>
   <g id="patch_4">
    <path d="M 414.72 307.584 
L 414.72 41.472 
" style="fill:none;stroke:#000000;stroke-linecap:square;stroke-linejoin:miter;stroke-width:0.8;"/>
   </g>
   <g id="patch_5">
    <path d="M 57.6 307.584 
L 414.72 307.584 
" style="fill:none;stroke:#000000;stroke-linecap:square;stroke-linejoin:miter;stroke-width:0.8;"/>
   </g>
   <g id="patch_6">
    <path d="M 57.6 41.472 
L 414.72 41.472 
" style="fill:none;stroke:#000000;stroke-linecap:square;stroke-linejoin:miter;stroke-width:0.8;"/>
   </g>
  </g>
 </g>
 <defs>
  <clipPath id="p9f9d8d06e7">
   <rect height="266.112" width="357.12" x="57.6" y="41.472"/>
  </clipPath>
 </defs>
</svg>
