<?xml version="1.0" encoding="utf-8" standalone="no"?>
<!DOCTYPE svg PUBLIC "-//W3C//DTD SVG 1.1//EN"
  "http://www.w3.org/Graphics/SVG/1.1/DTD/svg11.dtd">
<!-- Created with matplotlib (https://matplotlib.org/) -->
<svg height="345.6pt" version="1.1" viewBox="0 0 460.8 345.6" width="460.8pt" xmlns="http://www.w3.org/2000/svg" xmlns:xlink="http://www.w3.org/1999/xlink">
 <metadata>
  <rdf:RDF xmlns:cc="http://creativecommons.org/ns#" xmlns:dc="http://purl.org/dc/elements/1.1/" xmlns:rdf="http://www.w3.org/1999/02/22-rdf-syntax-ns#">
   <cc:Work>
    <dc:type rdf:resource="http://purl.org/dc/dcmitype/StillImage"/>
    <dc:date>2021-05-27T13:33:05.871941</dc:date>
    <dc:format>image/svg+xml</dc:format>
    <dc:creator>
     <cc:Agent>
      <dc:title>Matplotlib v3.3.3, https://matplotlib.org/</dc:title>
     </cc:Agent>
    </dc:creator>
   </cc:Work>
  </rdf:RDF>
 </metadata>
 <defs>
  <style type="text/css">*{stroke-linecap:butt;stroke-linejoin:round;}</style>
 </defs>
 <g id="figure_1">
  <g id="patch_1">
   <path d="M 0 345.6 
L 460.8 345.6 
L 460.8 0 
L 0 0 
z
" style="fill:#ffffff;"/>
  </g>
  <g id="axes_1">
   <g id="patch_2">
    <path d="M 57.6 307.584 
L 414.72 307.584 
L 414.72 41.472 
L 57.6 41.472 
z
" style="fill:#7d9051;"/>
   </g>
   <g id="matplotlib.axis_1">
    <g id="xtick_1">
     <g id="line2d_1">
      <defs>
       <path d="M 0 0 
L 0 3.5 
" id="m1476b90007" style="stroke:#000000;stroke-width:0.8;"/>
      </defs>
      <g>
       <use style="stroke:#000000;stroke-width:0.8;" x="83.595187" xlink:href="#m1476b90007" y="307.584"/>
      </g>
     </g>
     <g id="text_1">
      <!-- 0 -->
      <g transform="translate(80.413937 322.182437)scale(0.1 -0.1)">
       <defs>
        <path d="M 31.78125 66.40625 
Q 24.171875 66.40625 20.328125 58.90625 
Q 16.5 51.421875 16.5 36.375 
Q 16.5 21.390625 20.328125 13.890625 
Q 24.171875 6.390625 31.78125 6.390625 
Q 39.453125 6.390625 43.28125 13.890625 
Q 47.125 21.390625 47.125 36.375 
Q 47.125 51.421875 43.28125 58.90625 
Q 39.453125 66.40625 31.78125 66.40625 
z
M 31.78125 74.21875 
Q 44.046875 74.21875 50.515625 64.515625 
Q 56.984375 54.828125 56.984375 36.375 
Q 56.984375 17.96875 50.515625 8.265625 
Q 44.046875 -1.421875 31.78125 -1.421875 
Q 19.53125 -1.421875 13.0625 8.265625 
Q 6.59375 17.96875 6.59375 36.375 
Q 6.59375 54.828125 13.0625 64.515625 
Q 19.53125 74.21875 31.78125 74.21875 
z
" id="DejaVuSans-48"/>
       </defs>
       <use xlink:href="#DejaVuSans-48"/>
      </g>
     </g>
    </g>
    <g id="xtick_2">
     <g id="line2d_2">
      <g>
       <use style="stroke:#000000;stroke-width:0.8;" x="129.468953" xlink:href="#m1476b90007" y="307.584"/>
      </g>
     </g>
     <g id="text_2">
      <!-- 20 -->
      <g transform="translate(123.106453 322.182437)scale(0.1 -0.1)">
       <defs>
        <path d="M 19.1875 8.296875 
L 53.609375 8.296875 
L 53.609375 0 
L 7.328125 0 
L 7.328125 8.296875 
Q 12.9375 14.109375 22.625 23.890625 
Q 32.328125 33.6875 34.8125 36.53125 
Q 39.546875 41.84375 41.421875 45.53125 
Q 43.3125 49.21875 43.3125 52.78125 
Q 43.3125 58.59375 39.234375 62.25 
Q 35.15625 65.921875 28.609375 65.921875 
Q 23.96875 65.921875 18.8125 64.3125 
Q 13.671875 62.703125 7.8125 59.421875 
L 7.8125 69.390625 
Q 13.765625 71.78125 18.9375 73 
Q 24.125 74.21875 28.421875 74.21875 
Q 39.75 74.21875 46.484375 68.546875 
Q 53.21875 62.890625 53.21875 53.421875 
Q 53.21875 48.921875 51.53125 44.890625 
Q 49.859375 40.875 45.40625 35.40625 
Q 44.1875 33.984375 37.640625 27.21875 
Q 31.109375 20.453125 19.1875 8.296875 
z
" id="DejaVuSans-50"/>
       </defs>
       <use xlink:href="#DejaVuSans-50"/>
       <use x="63.623047" xlink:href="#DejaVuSans-48"/>
      </g>
     </g>
    </g>
    <g id="xtick_3">
     <g id="line2d_3">
      <g>
       <use style="stroke:#000000;stroke-width:0.8;" x="175.342719" xlink:href="#m1476b90007" y="307.584"/>
      </g>
     </g>
     <g id="text_3">
      <!-- 40 -->
      <g transform="translate(168.980219 322.182437)scale(0.1 -0.1)">
       <defs>
        <path d="M 37.796875 64.3125 
L 12.890625 25.390625 
L 37.796875 25.390625 
z
M 35.203125 72.90625 
L 47.609375 72.90625 
L 47.609375 25.390625 
L 58.015625 25.390625 
L 58.015625 17.1875 
L 47.609375 17.1875 
L 47.609375 0 
L 37.796875 0 
L 37.796875 17.1875 
L 4.890625 17.1875 
L 4.890625 26.703125 
z
" id="DejaVuSans-52"/>
       </defs>
       <use xlink:href="#DejaVuSans-52"/>
       <use x="63.623047" xlink:href="#DejaVuSans-48"/>
      </g>
     </g>
    </g>
    <g id="xtick_4">
     <g id="line2d_4">
      <g>
       <use style="stroke:#000000;stroke-width:0.8;" x="221.216486" xlink:href="#m1476b90007" y="307.584"/>
      </g>
     </g>
     <g id="text_4">
      <!-- 60 -->
      <g transform="translate(214.853986 322.182437)scale(0.1 -0.1)">
       <defs>
        <path d="M 33.015625 40.375 
Q 26.375 40.375 22.484375 35.828125 
Q 18.609375 31.296875 18.609375 23.390625 
Q 18.609375 15.53125 22.484375 10.953125 
Q 26.375 6.390625 33.015625 6.390625 
Q 39.65625 6.390625 43.53125 10.953125 
Q 47.40625 15.53125 47.40625 23.390625 
Q 47.40625 31.296875 43.53125 35.828125 
Q 39.65625 40.375 33.015625 40.375 
z
M 52.59375 71.296875 
L 52.59375 62.3125 
Q 48.875 64.0625 45.09375 64.984375 
Q 41.3125 65.921875 37.59375 65.921875 
Q 27.828125 65.921875 22.671875 59.328125 
Q 17.53125 52.734375 16.796875 39.40625 
Q 19.671875 43.65625 24.015625 45.921875 
Q 28.375 48.1875 33.59375 48.1875 
Q 44.578125 48.1875 50.953125 41.515625 
Q 57.328125 34.859375 57.328125 23.390625 
Q 57.328125 12.15625 50.6875 5.359375 
Q 44.046875 -1.421875 33.015625 -1.421875 
Q 20.359375 -1.421875 13.671875 8.265625 
Q 6.984375 17.96875 6.984375 36.375 
Q 6.984375 53.65625 15.1875 63.9375 
Q 23.390625 74.21875 37.203125 74.21875 
Q 40.921875 74.21875 44.703125 73.484375 
Q 48.484375 72.75 52.59375 71.296875 
z
" id="DejaVuSans-54"/>
       </defs>
       <use xlink:href="#DejaVuSans-54"/>
       <use x="63.623047" xlink:href="#DejaVuSans-48"/>
      </g>
     </g>
    </g>
    <g id="xtick_5">
     <g id="line2d_5">
      <g>
       <use style="stroke:#000000;stroke-width:0.8;" x="267.090252" xlink:href="#m1476b90007" y="307.584"/>
      </g>
     </g>
     <g id="text_5">
      <!-- 80 -->
      <g transform="translate(260.727752 322.182437)scale(0.1 -0.1)">
       <defs>
        <path d="M 31.78125 34.625 
Q 24.75 34.625 20.71875 30.859375 
Q 16.703125 27.09375 16.703125 20.515625 
Q 16.703125 13.921875 20.71875 10.15625 
Q 24.75 6.390625 31.78125 6.390625 
Q 38.8125 6.390625 42.859375 10.171875 
Q 46.921875 13.96875 46.921875 20.515625 
Q 46.921875 27.09375 42.890625 30.859375 
Q 38.875 34.625 31.78125 34.625 
z
M 21.921875 38.8125 
Q 15.578125 40.375 12.03125 44.71875 
Q 8.5 49.078125 8.5 55.328125 
Q 8.5 64.0625 14.71875 69.140625 
Q 20.953125 74.21875 31.78125 74.21875 
Q 42.671875 74.21875 48.875 69.140625 
Q 55.078125 64.0625 55.078125 55.328125 
Q 55.078125 49.078125 51.53125 44.71875 
Q 48 40.375 41.703125 38.8125 
Q 48.828125 37.15625 52.796875 32.3125 
Q 56.78125 27.484375 56.78125 20.515625 
Q 56.78125 9.90625 50.3125 4.234375 
Q 43.84375 -1.421875 31.78125 -1.421875 
Q 19.734375 -1.421875 13.25 4.234375 
Q 6.78125 9.90625 6.78125 20.515625 
Q 6.78125 27.484375 10.78125 32.3125 
Q 14.796875 37.15625 21.921875 38.8125 
z
M 18.3125 54.390625 
Q 18.3125 48.734375 21.84375 45.5625 
Q 25.390625 42.390625 31.78125 42.390625 
Q 38.140625 42.390625 41.71875 45.5625 
Q 45.3125 48.734375 45.3125 54.390625 
Q 45.3125 60.0625 41.71875 63.234375 
Q 38.140625 66.40625 31.78125 66.40625 
Q 25.390625 66.40625 21.84375 63.234375 
Q 18.3125 60.0625 18.3125 54.390625 
z
" id="DejaVuSans-56"/>
       </defs>
       <use xlink:href="#DejaVuSans-56"/>
       <use x="63.623047" xlink:href="#DejaVuSans-48"/>
      </g>
     </g>
    </g>
    <g id="xtick_6">
     <g id="line2d_6">
      <g>
       <use style="stroke:#000000;stroke-width:0.8;" x="312.964018" xlink:href="#m1476b90007" y="307.584"/>
      </g>
     </g>
     <g id="text_6">
      <!-- 100 -->
      <g transform="translate(303.420268 322.182437)scale(0.1 -0.1)">
       <defs>
        <path d="M 12.40625 8.296875 
L 28.515625 8.296875 
L 28.515625 63.921875 
L 10.984375 60.40625 
L 10.984375 69.390625 
L 28.421875 72.90625 
L 38.28125 72.90625 
L 38.28125 8.296875 
L 54.390625 8.296875 
L 54.390625 0 
L 12.40625 0 
z
" id="DejaVuSans-49"/>
       </defs>
       <use xlink:href="#DejaVuSans-49"/>
       <use x="63.623047" xlink:href="#DejaVuSans-48"/>
       <use x="127.246094" xlink:href="#DejaVuSans-48"/>
      </g>
     </g>
    </g>
    <g id="xtick_7">
     <g id="line2d_7">
      <g>
       <use style="stroke:#000000;stroke-width:0.8;" x="358.837784" xlink:href="#m1476b90007" y="307.584"/>
      </g>
     </g>
     <g id="text_7">
      <!-- 120 -->
      <g transform="translate(349.294034 322.182437)scale(0.1 -0.1)">
       <use xlink:href="#DejaVuSans-49"/>
       <use x="63.623047" xlink:href="#DejaVuSans-50"/>
       <use x="127.246094" xlink:href="#DejaVuSans-48"/>
      </g>
     </g>
    </g>
    <g id="xtick_8">
     <g id="line2d_8">
      <g>
       <use style="stroke:#000000;stroke-width:0.8;" x="404.71155" xlink:href="#m1476b90007" y="307.584"/>
      </g>
     </g>
     <g id="text_8">
      <!-- 140 -->
      <g transform="translate(395.1678 322.182437)scale(0.1 -0.1)">
       <use xlink:href="#DejaVuSans-49"/>
       <use x="63.623047" xlink:href="#DejaVuSans-52"/>
       <use x="127.246094" xlink:href="#DejaVuSans-48"/>
      </g>
     </g>
    </g>
   </g>
   <g id="matplotlib.axis_2">
    <g id="ytick_1">
     <g id="line2d_9">
      <defs>
       <path d="M 0 0 
L -3.5 0 
" id="m2251e43bae" style="stroke:#000000;stroke-width:0.8;"/>
      </defs>
      <g>
       <use style="stroke:#000000;stroke-width:0.8;" x="57.6" xlink:href="#m2251e43bae" y="269.11916"/>
      </g>
     </g>
     <g id="text_9">
      <!-- 0 -->
      <g transform="translate(44.2375 272.918379)scale(0.1 -0.1)">
       <use xlink:href="#DejaVuSans-48"/>
      </g>
     </g>
    </g>
    <g id="ytick_2">
     <g id="line2d_10">
      <g>
       <use style="stroke:#000000;stroke-width:0.8;" x="57.6" xlink:href="#m2251e43bae" y="223.245394"/>
      </g>
     </g>
     <g id="text_10">
      <!-- 20 -->
      <g transform="translate(37.875 227.044613)scale(0.1 -0.1)">
       <use xlink:href="#DejaVuSans-50"/>
       <use x="63.623047" xlink:href="#DejaVuSans-48"/>
      </g>
     </g>
    </g>
    <g id="ytick_3">
     <g id="line2d_11">
      <g>
       <use style="stroke:#000000;stroke-width:0.8;" x="57.6" xlink:href="#m2251e43bae" y="177.371628"/>
      </g>
     </g>
     <g id="text_11">
      <!-- 40 -->
      <g transform="translate(37.875 181.170847)scale(0.1 -0.1)">
       <use xlink:href="#DejaVuSans-52"/>
       <use x="63.623047" xlink:href="#DejaVuSans-48"/>
      </g>
     </g>
    </g>
    <g id="ytick_4">
     <g id="line2d_12">
      <g>
       <use style="stroke:#000000;stroke-width:0.8;" x="57.6" xlink:href="#m2251e43bae" y="131.497862"/>
      </g>
     </g>
     <g id="text_12">
      <!-- 60 -->
      <g transform="translate(37.875 135.297081)scale(0.1 -0.1)">
       <use xlink:href="#DejaVuSans-54"/>
       <use x="63.623047" xlink:href="#DejaVuSans-48"/>
      </g>
     </g>
    </g>
    <g id="ytick_5">
     <g id="line2d_13">
      <g>
       <use style="stroke:#000000;stroke-width:0.8;" x="57.6" xlink:href="#m2251e43bae" y="85.624096"/>
      </g>
     </g>
     <g id="text_13">
      <!-- 80 -->
      <g transform="translate(37.875 89.423315)scale(0.1 -0.1)">
       <use xlink:href="#DejaVuSans-56"/>
       <use x="63.623047" xlink:href="#DejaVuSans-48"/>
      </g>
     </g>
    </g>
   </g>
   <g id="line2d_14">
    <path clip-path="url(#p27aa3593be)" d="M 83.595187 269.11916 
L 83.890352 247.99566 
L 84.608952 208.756008 
L 84.436632 202.636015 
L 83.880655 193.365072 
L 83.139353 181.003815 
L 83.006699 174.895949 
L 83.173745 168.879711 
L 83.40271 165.916058 
L 83.746267 162.98744 
L 84.217638 160.097898 
L 84.830043 157.251474 
L 85.596706 154.452212 
L 87.492011 148.840522 
L 89.77034 143.156541 
L 92.409509 137.4809 
L 95.387335 131.894227 
L 98.681632 126.477153 
L 102.270219 121.310308 
L 106.130909 116.474321 
L 108.156361 114.205596 
L 110.24152 112.049821 
L 112.383614 110.017076 
L 114.579868 108.11744 
L 116.827511 106.36099 
L 119.199065 104.680673 
L 124.470972 101.370657 
L 130.301158 98.224878 
L 136.513481 95.359436 
L 139.707901 94.068121 
L 142.931801 92.890427 
L 146.163165 91.840867 
L 149.379975 90.933951 
L 152.560213 90.184194 
L 155.681861 89.606106 
L 158.722902 89.214201 
L 161.661318 89.02299 
L 164.475092 89.046985 
L 167.142205 89.3007 
L 169.64064 89.798646 
L 171.948379 90.555336 
L 174.055217 91.649216 
L 175.979312 93.124101 
L 177.741191 94.942555 
L 179.36138 97.067141 
L 180.860406 99.460423 
L 182.258795 102.084965 
L 183.577073 104.903331 
L 186.055406 110.971788 
L 190.953917 123.787387 
L 192.286168 126.914301 
L 193.70252 129.935549 
L 195.223501 132.813693 
L 196.869638 135.511298 
L 198.661456 137.990927 
L 200.619483 140.215144 
L 204.891937 144.283695 
L 209.487743 148.147576 
L 214.3624 151.798325 
L 219.471407 155.227476 
L 224.770264 158.426568 
L 230.214471 161.387137 
L 235.759527 164.100718 
L 241.360931 166.55885 
L 246.974184 168.753068 
L 255.542419 171.692726 
L 261.622202 173.611709 
L 267.907912 175.401838 
L 274.296769 176.959438 
L 280.68599 178.180834 
L 283.848617 178.633058 
L 286.972792 178.962353 
L 290.045667 179.155759 
L 293.054394 179.200318 
L 295.986125 179.08307 
L 298.828012 178.791055 
L 301.567208 178.311316 
L 304.190865 177.630891 
L 306.686135 176.736822 
L 309.0312 175.559781 
L 311.224317 174.061207 
L 313.282751 172.274289 
L 315.223767 170.232214 
L 317.064632 167.968171 
L 318.822611 165.51535 
L 322.158973 160.176123 
L 326.973508 151.581153 
L 330.257958 145.847618 
L 331.974408 143.07935 
L 333.763361 140.421 
L 335.642084 137.905756 
L 337.627842 135.566806 
L 339.7379 133.43734 
L 341.989524 131.550545 
L 344.365866 129.860088 
L 346.833362 128.290594 
L 349.384198 126.831696 
L 354.704637 124.204214 
L 360.264678 121.894695 
L 366.001816 119.820191 
L 374.802851 116.967645 
L 386.574025 113.212636 
L 392.334602 111.169238 
L 395.156293 110.069776 
L 395.156293 110.069776 
" style="fill:none;stroke:#fea952;stroke-linecap:square;"/>
   </g>
   <g id="line2d_15">
    <path clip-path="url(#p27aa3593be)" d="M 74.420859 269.030891 
L 74.717155 247.826669 
L 75.383101 206.047775 
L 75.120225 200.115776 
L 73.868044 178.04735 
L 73.879712 171.48379 
L 74.026251 168.172995 
L 74.290443 164.847096 
L 74.691207 161.51029 
L 75.248132 158.168116 
L 75.981169 154.827941 
L 76.863022 151.641723 
L 78.929945 145.543989 
L 81.399406 139.401071 
L 84.254156 133.277768 
L 87.47966 127.241831 
L 91.064457 121.362983 
L 95.000989 115.712593 
L 97.100156 112.995912 
L 99.286823 110.364118 
L 101.561722 107.826972 
L 103.926079 105.39465 
L 106.381618 103.077902 
L 108.93053 100.888258 
L 111.523365 98.87486 
L 114.183242 96.998381 
L 117.00904 95.160047 
L 119.98573 93.366989 
L 123.097311 91.628521 
L 126.327222 89.95542 
L 129.658681 88.359505 
L 133.074989 86.853387 
L 136.559826 85.450365 
L 140.097558 84.164422 
L 143.673577 83.010349 
L 147.274694 82.004008 
L 150.889576 81.162827 
L 154.509189 80.506604 
L 158.127135 80.058811 
L 161.739557 79.84857 
L 165.343937 79.913464 
L 168.935493 80.302911 
L 172.499224 81.080585 
L 176.176077 82.412691 
L 179.636819 84.367608 
L 182.568533 86.739881 
L 185.036669 89.379093 
L 187.136844 92.197001 
L 188.957527 95.146176 
L 190.569361 98.197733 
L 192.026572 101.328129 
L 194.636719 107.725688 
L 199.394505 120.191198 
L 201.81425 125.648832 
L 203.05525 128.034592 
L 204.306032 130.137645 
L 205.547969 131.928581 
L 207.054154 133.675182 
L 210.899286 137.349154 
L 215.086149 140.87888 
L 219.569918 144.24466 
L 224.304182 147.428734 
L 229.24151 150.415073 
L 234.333778 153.189125 
L 239.532299 155.737568 
L 244.787823 158.048121 
L 250.05042 160.109407 
L 258.35616 162.960089 
L 264.208318 164.808977 
L 270.178636 166.512524 
L 276.14736 167.973259 
L 281.984677 169.098461 
L 287.54911 169.805718 
L 290.181529 169.982012 
L 292.687763 170.032893 
L 295.048323 169.956371 
L 297.245247 169.753857 
L 299.264003 169.430362 
L 302.570455 168.536988 
L 303.855023 167.984605 
L 305.209837 167.132851 
L 306.63276 165.953393 
L 308.105161 164.444163 
L 309.607413 162.623456 
L 311.125908 160.521668 
L 314.194844 155.621043 
L 318.975168 147.086416 
L 322.460467 141.012825 
L 324.36272 137.957017 
L 326.412757 134.93058 
L 328.648013 131.967821 
L 331.11068 129.109043 
L 333.845142 126.405163 
L 336.671253 124.074444 
L 339.441799 122.118663 
L 342.278404 120.326396 
L 345.168599 118.682781 
L 348.101428 117.172737 
L 354.057027 114.494019 
L 360.076976 112.176091 
L 366.100038 110.113636 
L 389.003622 102.620515 
L 391.825313 101.521053 
L 391.825313 101.521053 
" style="fill:none;stroke:#ffffff;stroke-linecap:square;"/>
   </g>
   <g id="line2d_16">
    <path clip-path="url(#p27aa3593be)" d="M 92.769516 269.20743 
L 93.063549 248.164651 
L 93.782076 208.583105 
L 93.59922 202.163706 
L 93.034053 192.739455 
L 92.309493 180.712912 
L 92.18067 175.015723 
L 92.321239 169.586428 
L 92.801328 164.464589 
L 93.187144 162.027679 
L 93.678918 159.675007 
L 94.330391 157.262701 
L 96.054077 152.137054 
L 98.141274 146.912011 
L 100.564862 141.684031 
L 103.295009 136.546623 
L 106.298808 131.591324 
L 109.539448 126.908022 
L 112.974996 122.584523 
L 116.556961 118.704992 
L 120.229207 115.346622 
L 122.131656 113.84712 
L 126.499409 110.864736 
L 131.557266 107.911443 
L 137.082441 105.140213 
L 142.855975 102.685878 
L 148.652753 100.671385 
L 151.485255 99.863895 
L 154.23085 99.205561 
L 156.854534 98.705608 
L 159.318669 98.36959 
L 161.583079 98.197409 
L 163.606246 98.180506 
L 165.348917 98.298489 
L 167.72068 98.69798 
L 168.473615 98.930823 
L 169.390091 99.508321 
L 170.445713 100.506016 
L 171.585916 101.937281 
L 172.763285 103.77467 
L 173.948228 105.972198 
L 175.127575 108.478533 
L 177.474093 114.217888 
L 182.51333 127.383577 
L 183.978956 130.808699 
L 185.59079 134.222265 
L 187.391753 137.592794 
L 189.433244 140.884951 
L 191.774943 144.053273 
L 194.184811 146.755106 
L 198.884589 151.218236 
L 203.889337 155.416273 
L 209.154881 159.351989 
L 214.638632 163.026219 
L 220.299018 166.438063 
L 226.095163 169.585149 
L 231.986754 172.463869 
L 237.93404 175.069579 
L 243.897949 177.396729 
L 252.728679 180.425364 
L 259.036085 182.414442 
L 265.637188 184.291152 
L 272.446179 185.945617 
L 279.387303 187.263208 
L 282.886906 187.757268 
L 286.396474 188.118987 
L 289.909805 188.329506 
L 293.421024 188.367743 
L 296.923926 188.209768 
L 300.410777 187.828254 
L 303.870414 187.192269 
L 307.285573 186.267955 
L 310.801816 184.936655 
L 314.207377 183.134957 
L 317.238797 180.989564 
L 319.932741 178.595185 
L 322.342374 176.020265 
L 324.521851 173.312887 
L 326.519314 170.509031 
L 328.375244 167.638976 
L 331.790545 161.814482 
L 338.05545 150.682411 
L 341.113966 145.91142 
L 342.636155 143.84369 
L 344.145003 142.024569 
L 345.630657 140.469517 
L 347.307794 139.026647 
L 349.289934 137.601512 
L 351.388321 136.254792 
L 353.599797 134.980611 
L 358.342106 132.627094 
L 363.466484 130.492632 
L 368.91179 128.521234 
L 377.539219 125.724836 
L 389.565428 121.886021 
L 395.665582 119.717961 
L 398.487273 118.618499 
L 398.487273 118.618499 
" style="fill:none;stroke:#ffffff;stroke-linecap:square;"/>
   </g>
   <g id="patch_3">
    <path d="M 57.6 307.584 
L 57.6 41.472 
" style="fill:none;stroke:#000000;stroke-linecap:square;stroke-linejoin:miter;stroke-width:0.8;"/>
   </g>
   <g id="patch_4">
    <path d="M 414.72 307.584 
L 414.72 41.472 
" style="fill:none;stroke:#000000;stroke-linecap:square;stroke-linejoin:miter;stroke-width:0.8;"/>
   </g>
   <g id="patch_5">
    <path d="M 57.6 307.584 
L 414.72 307.584 
" style="fill:none;stroke:#000000;stroke-linecap:square;stroke-linejoin:miter;stroke-width:0.8;"/>
   </g>
   <g id="patch_6">
    <path d="M 57.6 41.472 
L 414.72 41.472 
" style="fill:none;stroke:#000000;stroke-linecap:square;stroke-linejoin:miter;stroke-width:0.8;"/>
   </g>
  </g>
 </g>
 <defs>
  <clipPath id="p27aa3593be">
   <rect height="266.112" width="357.12" x="57.6" y="41.472"/>
  </clipPath>
 </defs>
</svg>
