<?xml version="1.0" encoding="utf-8" standalone="no"?>
<!DOCTYPE svg PUBLIC "-//W3C//DTD SVG 1.1//EN"
  "http://www.w3.org/Graphics/SVG/1.1/DTD/svg11.dtd">
<!-- Created with matplotlib (https://matplotlib.org/) -->
<svg height="345.6pt" version="1.1" viewBox="0 0 460.8 345.6" width="460.8pt" xmlns="http://www.w3.org/2000/svg" xmlns:xlink="http://www.w3.org/1999/xlink">
 <metadata>
  <rdf:RDF xmlns:cc="http://creativecommons.org/ns#" xmlns:dc="http://purl.org/dc/elements/1.1/" xmlns:rdf="http://www.w3.org/1999/02/22-rdf-syntax-ns#">
   <cc:Work>
    <dc:type rdf:resource="http://purl.org/dc/dcmitype/StillImage"/>
    <dc:date>2021-06-25T23:43:33.638206</dc:date>
    <dc:format>image/svg+xml</dc:format>
    <dc:creator>
     <cc:Agent>
      <dc:title>Matplotlib v3.3.3, https://matplotlib.org/</dc:title>
     </cc:Agent>
    </dc:creator>
   </cc:Work>
  </rdf:RDF>
 </metadata>
 <defs>
  <style type="text/css">*{stroke-linecap:butt;stroke-linejoin:round;}</style>
 </defs>
 <g id="figure_1">
  <g id="patch_1">
   <path d="M 0 345.6 
L 460.8 345.6 
L 460.8 0 
L 0 0 
z
" style="fill:#ffffff;"/>
  </g>
  <g id="axes_1">
   <g id="patch_2">
    <path d="M 57.6 307.584 
L 414.72 307.584 
L 414.72 41.472 
L 57.6 41.472 
z
" style="fill:#7d9051;"/>
   </g>
   <g id="matplotlib.axis_1">
    <g id="xtick_1">
     <g id="line2d_1">
      <defs>
       <path d="M 0 0 
L 0 3.5 
" id="m2899afe91d" style="stroke:#000000;stroke-width:0.8;"/>
      </defs>
      <g>
       <use style="stroke:#000000;stroke-width:0.8;" x="72.583356" xlink:href="#m2899afe91d" y="307.584"/>
      </g>
     </g>
     <g id="text_1">
      <!-- −150 -->
      <g transform="translate(58.849762 322.182437)scale(0.1 -0.1)">
       <defs>
        <path d="M 10.59375 35.5 
L 73.1875 35.5 
L 73.1875 27.203125 
L 10.59375 27.203125 
z
" id="DejaVuSans-8722"/>
        <path d="M 12.40625 8.296875 
L 28.515625 8.296875 
L 28.515625 63.921875 
L 10.984375 60.40625 
L 10.984375 69.390625 
L 28.421875 72.90625 
L 38.28125 72.90625 
L 38.28125 8.296875 
L 54.390625 8.296875 
L 54.390625 0 
L 12.40625 0 
z
" id="DejaVuSans-49"/>
        <path d="M 10.796875 72.90625 
L 49.515625 72.90625 
L 49.515625 64.59375 
L 19.828125 64.59375 
L 19.828125 46.734375 
Q 21.96875 47.46875 24.109375 47.828125 
Q 26.265625 48.1875 28.421875 48.1875 
Q 40.625 48.1875 47.75 41.5 
Q 54.890625 34.8125 54.890625 23.390625 
Q 54.890625 11.625 47.5625 5.09375 
Q 40.234375 -1.421875 26.90625 -1.421875 
Q 22.3125 -1.421875 17.546875 -0.640625 
Q 12.796875 0.140625 7.71875 1.703125 
L 7.71875 11.625 
Q 12.109375 9.234375 16.796875 8.0625 
Q 21.484375 6.890625 26.703125 6.890625 
Q 35.15625 6.890625 40.078125 11.328125 
Q 45.015625 15.765625 45.015625 23.390625 
Q 45.015625 31 40.078125 35.4375 
Q 35.15625 39.890625 26.703125 39.890625 
Q 22.75 39.890625 18.8125 39.015625 
Q 14.890625 38.140625 10.796875 36.28125 
z
" id="DejaVuSans-53"/>
        <path d="M 31.78125 66.40625 
Q 24.171875 66.40625 20.328125 58.90625 
Q 16.5 51.421875 16.5 36.375 
Q 16.5 21.390625 20.328125 13.890625 
Q 24.171875 6.390625 31.78125 6.390625 
Q 39.453125 6.390625 43.28125 13.890625 
Q 47.125 21.390625 47.125 36.375 
Q 47.125 51.421875 43.28125 58.90625 
Q 39.453125 66.40625 31.78125 66.40625 
z
M 31.78125 74.21875 
Q 44.046875 74.21875 50.515625 64.515625 
Q 56.984375 54.828125 56.984375 36.375 
Q 56.984375 17.96875 50.515625 8.265625 
Q 44.046875 -1.421875 31.78125 -1.421875 
Q 19.53125 -1.421875 13.0625 8.265625 
Q 6.59375 17.96875 6.59375 36.375 
Q 6.59375 54.828125 13.0625 64.515625 
Q 19.53125 74.21875 31.78125 74.21875 
z
" id="DejaVuSans-48"/>
       </defs>
       <use xlink:href="#DejaVuSans-8722"/>
       <use x="83.789062" xlink:href="#DejaVuSans-49"/>
       <use x="147.412109" xlink:href="#DejaVuSans-53"/>
       <use x="211.035156" xlink:href="#DejaVuSans-48"/>
      </g>
     </g>
    </g>
    <g id="xtick_2">
     <g id="line2d_2">
      <g>
       <use style="stroke:#000000;stroke-width:0.8;" x="114.570074" xlink:href="#m2899afe91d" y="307.584"/>
      </g>
     </g>
     <g id="text_2">
      <!-- −125 -->
      <g transform="translate(100.836481 322.182437)scale(0.1 -0.1)">
       <defs>
        <path d="M 19.1875 8.296875 
L 53.609375 8.296875 
L 53.609375 0 
L 7.328125 0 
L 7.328125 8.296875 
Q 12.9375 14.109375 22.625 23.890625 
Q 32.328125 33.6875 34.8125 36.53125 
Q 39.546875 41.84375 41.421875 45.53125 
Q 43.3125 49.21875 43.3125 52.78125 
Q 43.3125 58.59375 39.234375 62.25 
Q 35.15625 65.921875 28.609375 65.921875 
Q 23.96875 65.921875 18.8125 64.3125 
Q 13.671875 62.703125 7.8125 59.421875 
L 7.8125 69.390625 
Q 13.765625 71.78125 18.9375 73 
Q 24.125 74.21875 28.421875 74.21875 
Q 39.75 74.21875 46.484375 68.546875 
Q 53.21875 62.890625 53.21875 53.421875 
Q 53.21875 48.921875 51.53125 44.890625 
Q 49.859375 40.875 45.40625 35.40625 
Q 44.1875 33.984375 37.640625 27.21875 
Q 31.109375 20.453125 19.1875 8.296875 
z
" id="DejaVuSans-50"/>
       </defs>
       <use xlink:href="#DejaVuSans-8722"/>
       <use x="83.789062" xlink:href="#DejaVuSans-49"/>
       <use x="147.412109" xlink:href="#DejaVuSans-50"/>
       <use x="211.035156" xlink:href="#DejaVuSans-53"/>
      </g>
     </g>
    </g>
    <g id="xtick_3">
     <g id="line2d_3">
      <g>
       <use style="stroke:#000000;stroke-width:0.8;" x="156.556793" xlink:href="#m2899afe91d" y="307.584"/>
      </g>
     </g>
     <g id="text_3">
      <!-- −100 -->
      <g transform="translate(142.823199 322.182437)scale(0.1 -0.1)">
       <use xlink:href="#DejaVuSans-8722"/>
       <use x="83.789062" xlink:href="#DejaVuSans-49"/>
       <use x="147.412109" xlink:href="#DejaVuSans-48"/>
       <use x="211.035156" xlink:href="#DejaVuSans-48"/>
      </g>
     </g>
    </g>
    <g id="xtick_4">
     <g id="line2d_4">
      <g>
       <use style="stroke:#000000;stroke-width:0.8;" x="198.543512" xlink:href="#m2899afe91d" y="307.584"/>
      </g>
     </g>
     <g id="text_4">
      <!-- −75 -->
      <g transform="translate(187.991168 322.182437)scale(0.1 -0.1)">
       <defs>
        <path d="M 8.203125 72.90625 
L 55.078125 72.90625 
L 55.078125 68.703125 
L 28.609375 0 
L 18.3125 0 
L 43.21875 64.59375 
L 8.203125 64.59375 
z
" id="DejaVuSans-55"/>
       </defs>
       <use xlink:href="#DejaVuSans-8722"/>
       <use x="83.789062" xlink:href="#DejaVuSans-55"/>
       <use x="147.412109" xlink:href="#DejaVuSans-53"/>
      </g>
     </g>
    </g>
    <g id="xtick_5">
     <g id="line2d_5">
      <g>
       <use style="stroke:#000000;stroke-width:0.8;" x="240.53023" xlink:href="#m2899afe91d" y="307.584"/>
      </g>
     </g>
     <g id="text_5">
      <!-- −50 -->
      <g transform="translate(229.977886 322.182437)scale(0.1 -0.1)">
       <use xlink:href="#DejaVuSans-8722"/>
       <use x="83.789062" xlink:href="#DejaVuSans-53"/>
       <use x="147.412109" xlink:href="#DejaVuSans-48"/>
      </g>
     </g>
    </g>
    <g id="xtick_6">
     <g id="line2d_6">
      <g>
       <use style="stroke:#000000;stroke-width:0.8;" x="282.516949" xlink:href="#m2899afe91d" y="307.584"/>
      </g>
     </g>
     <g id="text_6">
      <!-- −25 -->
      <g transform="translate(271.964605 322.182437)scale(0.1 -0.1)">
       <use xlink:href="#DejaVuSans-8722"/>
       <use x="83.789062" xlink:href="#DejaVuSans-50"/>
       <use x="147.412109" xlink:href="#DejaVuSans-53"/>
      </g>
     </g>
    </g>
    <g id="xtick_7">
     <g id="line2d_7">
      <g>
       <use style="stroke:#000000;stroke-width:0.8;" x="324.503667" xlink:href="#m2899afe91d" y="307.584"/>
      </g>
     </g>
     <g id="text_7">
      <!-- 0 -->
      <g transform="translate(321.322417 322.182437)scale(0.1 -0.1)">
       <use xlink:href="#DejaVuSans-48"/>
      </g>
     </g>
    </g>
    <g id="xtick_8">
     <g id="line2d_8">
      <g>
       <use style="stroke:#000000;stroke-width:0.8;" x="366.490386" xlink:href="#m2899afe91d" y="307.584"/>
      </g>
     </g>
     <g id="text_8">
      <!-- 25 -->
      <g transform="translate(360.127886 322.182437)scale(0.1 -0.1)">
       <use xlink:href="#DejaVuSans-50"/>
       <use x="63.623047" xlink:href="#DejaVuSans-53"/>
      </g>
     </g>
    </g>
    <g id="xtick_9">
     <g id="line2d_9">
      <g>
       <use style="stroke:#000000;stroke-width:0.8;" x="408.477105" xlink:href="#m2899afe91d" y="307.584"/>
      </g>
     </g>
     <g id="text_9">
      <!-- 50 -->
      <g transform="translate(402.114605 322.182437)scale(0.1 -0.1)">
       <use xlink:href="#DejaVuSans-53"/>
       <use x="63.623047" xlink:href="#DejaVuSans-48"/>
      </g>
     </g>
    </g>
   </g>
   <g id="matplotlib.axis_2">
    <g id="ytick_1">
     <g id="line2d_10">
      <defs>
       <path d="M 0 0 
L -3.5 0 
" id="m637c744566" style="stroke:#000000;stroke-width:0.8;"/>
      </defs>
      <g>
       <use style="stroke:#000000;stroke-width:0.8;" x="57.6" xlink:href="#m637c744566" y="295.423368"/>
      </g>
     </g>
     <g id="text_10">
      <!-- 0 -->
      <g transform="translate(44.2375 299.222586)scale(0.1 -0.1)">
       <use xlink:href="#DejaVuSans-48"/>
      </g>
     </g>
    </g>
    <g id="ytick_2">
     <g id="line2d_11">
      <g>
       <use style="stroke:#000000;stroke-width:0.8;" x="57.6" xlink:href="#m637c744566" y="261.833993"/>
      </g>
     </g>
     <g id="text_11">
      <!-- 20 -->
      <g transform="translate(37.875 265.633212)scale(0.1 -0.1)">
       <use xlink:href="#DejaVuSans-50"/>
       <use x="63.623047" xlink:href="#DejaVuSans-48"/>
      </g>
     </g>
    </g>
    <g id="ytick_3">
     <g id="line2d_12">
      <g>
       <use style="stroke:#000000;stroke-width:0.8;" x="57.6" xlink:href="#m637c744566" y="228.244618"/>
      </g>
     </g>
     <g id="text_12">
      <!-- 40 -->
      <g transform="translate(37.875 232.043837)scale(0.1 -0.1)">
       <defs>
        <path d="M 37.796875 64.3125 
L 12.890625 25.390625 
L 37.796875 25.390625 
z
M 35.203125 72.90625 
L 47.609375 72.90625 
L 47.609375 25.390625 
L 58.015625 25.390625 
L 58.015625 17.1875 
L 47.609375 17.1875 
L 47.609375 0 
L 37.796875 0 
L 37.796875 17.1875 
L 4.890625 17.1875 
L 4.890625 26.703125 
z
" id="DejaVuSans-52"/>
       </defs>
       <use xlink:href="#DejaVuSans-52"/>
       <use x="63.623047" xlink:href="#DejaVuSans-48"/>
      </g>
     </g>
    </g>
    <g id="ytick_4">
     <g id="line2d_13">
      <g>
       <use style="stroke:#000000;stroke-width:0.8;" x="57.6" xlink:href="#m637c744566" y="194.655243"/>
      </g>
     </g>
     <g id="text_13">
      <!-- 60 -->
      <g transform="translate(37.875 198.454462)scale(0.1 -0.1)">
       <defs>
        <path d="M 33.015625 40.375 
Q 26.375 40.375 22.484375 35.828125 
Q 18.609375 31.296875 18.609375 23.390625 
Q 18.609375 15.53125 22.484375 10.953125 
Q 26.375 6.390625 33.015625 6.390625 
Q 39.65625 6.390625 43.53125 10.953125 
Q 47.40625 15.53125 47.40625 23.390625 
Q 47.40625 31.296875 43.53125 35.828125 
Q 39.65625 40.375 33.015625 40.375 
z
M 52.59375 71.296875 
L 52.59375 62.3125 
Q 48.875 64.0625 45.09375 64.984375 
Q 41.3125 65.921875 37.59375 65.921875 
Q 27.828125 65.921875 22.671875 59.328125 
Q 17.53125 52.734375 16.796875 39.40625 
Q 19.671875 43.65625 24.015625 45.921875 
Q 28.375 48.1875 33.59375 48.1875 
Q 44.578125 48.1875 50.953125 41.515625 
Q 57.328125 34.859375 57.328125 23.390625 
Q 57.328125 12.15625 50.6875 5.359375 
Q 44.046875 -1.421875 33.015625 -1.421875 
Q 20.359375 -1.421875 13.671875 8.265625 
Q 6.984375 17.96875 6.984375 36.375 
Q 6.984375 53.65625 15.1875 63.9375 
Q 23.390625 74.21875 37.203125 74.21875 
Q 40.921875 74.21875 44.703125 73.484375 
Q 48.484375 72.75 52.59375 71.296875 
z
" id="DejaVuSans-54"/>
       </defs>
       <use xlink:href="#DejaVuSans-54"/>
       <use x="63.623047" xlink:href="#DejaVuSans-48"/>
      </g>
     </g>
    </g>
    <g id="ytick_5">
     <g id="line2d_14">
      <g>
       <use style="stroke:#000000;stroke-width:0.8;" x="57.6" xlink:href="#m637c744566" y="161.065868"/>
      </g>
     </g>
     <g id="text_14">
      <!-- 80 -->
      <g transform="translate(37.875 164.865087)scale(0.1 -0.1)">
       <defs>
        <path d="M 31.78125 34.625 
Q 24.75 34.625 20.71875 30.859375 
Q 16.703125 27.09375 16.703125 20.515625 
Q 16.703125 13.921875 20.71875 10.15625 
Q 24.75 6.390625 31.78125 6.390625 
Q 38.8125 6.390625 42.859375 10.171875 
Q 46.921875 13.96875 46.921875 20.515625 
Q 46.921875 27.09375 42.890625 30.859375 
Q 38.875 34.625 31.78125 34.625 
z
M 21.921875 38.8125 
Q 15.578125 40.375 12.03125 44.71875 
Q 8.5 49.078125 8.5 55.328125 
Q 8.5 64.0625 14.71875 69.140625 
Q 20.953125 74.21875 31.78125 74.21875 
Q 42.671875 74.21875 48.875 69.140625 
Q 55.078125 64.0625 55.078125 55.328125 
Q 55.078125 49.078125 51.53125 44.71875 
Q 48 40.375 41.703125 38.8125 
Q 48.828125 37.15625 52.796875 32.3125 
Q 56.78125 27.484375 56.78125 20.515625 
Q 56.78125 9.90625 50.3125 4.234375 
Q 43.84375 -1.421875 31.78125 -1.421875 
Q 19.734375 -1.421875 13.25 4.234375 
Q 6.78125 9.90625 6.78125 20.515625 
Q 6.78125 27.484375 10.78125 32.3125 
Q 14.796875 37.15625 21.921875 38.8125 
z
M 18.3125 54.390625 
Q 18.3125 48.734375 21.84375 45.5625 
Q 25.390625 42.390625 31.78125 42.390625 
Q 38.140625 42.390625 41.71875 45.5625 
Q 45.3125 48.734375 45.3125 54.390625 
Q 45.3125 60.0625 41.71875 63.234375 
Q 38.140625 66.40625 31.78125 66.40625 
Q 25.390625 66.40625 21.84375 63.234375 
Q 18.3125 60.0625 18.3125 54.390625 
z
" id="DejaVuSans-56"/>
       </defs>
       <use xlink:href="#DejaVuSans-56"/>
       <use x="63.623047" xlink:href="#DejaVuSans-48"/>
      </g>
     </g>
    </g>
    <g id="ytick_6">
     <g id="line2d_15">
      <g>
       <use style="stroke:#000000;stroke-width:0.8;" x="57.6" xlink:href="#m637c744566" y="127.476493"/>
      </g>
     </g>
     <g id="text_15">
      <!-- 100 -->
      <g transform="translate(31.5125 131.275712)scale(0.1 -0.1)">
       <use xlink:href="#DejaVuSans-49"/>
       <use x="63.623047" xlink:href="#DejaVuSans-48"/>
       <use x="127.246094" xlink:href="#DejaVuSans-48"/>
      </g>
     </g>
    </g>
    <g id="ytick_7">
     <g id="line2d_16">
      <g>
       <use style="stroke:#000000;stroke-width:0.8;" x="57.6" xlink:href="#m637c744566" y="93.887118"/>
      </g>
     </g>
     <g id="text_16">
      <!-- 120 -->
      <g transform="translate(31.5125 97.686337)scale(0.1 -0.1)">
       <use xlink:href="#DejaVuSans-49"/>
       <use x="63.623047" xlink:href="#DejaVuSans-50"/>
       <use x="127.246094" xlink:href="#DejaVuSans-48"/>
      </g>
     </g>
    </g>
    <g id="ytick_8">
     <g id="line2d_17">
      <g>
       <use style="stroke:#000000;stroke-width:0.8;" x="57.6" xlink:href="#m637c744566" y="60.297744"/>
      </g>
     </g>
     <g id="text_17">
      <!-- 140 -->
      <g transform="translate(31.5125 64.096962)scale(0.1 -0.1)">
       <use xlink:href="#DejaVuSans-49"/>
       <use x="63.623047" xlink:href="#DejaVuSans-52"/>
       <use x="127.246094" xlink:href="#DejaVuSans-48"/>
      </g>
     </g>
    </g>
   </g>
   <g id="line2d_18">
    <path clip-path="url(#p8a07deb34f)" d="M 324.503667 295.423368 
L 324.802694 275.537532 
L 325.323189 251.206844 
L 325.737618 246.600896 
L 326.72065 239.491654 
L 327.751868 232.355702 
L 328.25196 227.702271 
L 328.452233 223.215032 
L 328.399784 221.055993 
L 328.224194 218.965211 
L 327.909404 216.951589 
L 327.43935 215.024032 
L 326.797971 213.191441 
L 325.969206 211.46272 
L 324.945452 209.837838 
L 323.739834 208.306219 
L 322.367377 206.860949 
L 320.843108 205.495112 
L 319.182054 204.201796 
L 315.509694 201.805065 
L 311.470507 199.615444 
L 307.184706 197.577616 
L 289.979564 189.837961 
L 282.120466 185.581562 
L 274.174464 181.262341 
L 268.139359 178.254321 
L 264.072717 176.465378 
L 259.96698 174.915649 
L 255.81829 173.661781 
L 251.622788 172.760424 
L 249.47173 172.517979 
L 247.246788 172.478652 
L 244.960011 172.615129 
L 242.623452 172.900096 
L 237.849188 173.806244 
L 230.615699 175.596289 
L 225.885905 176.758202 
L 221.342613 177.640024 
L 219.171034 177.907615 
L 217.082233 178.02324 
L 215.088263 177.959587 
L 213.201173 177.68934 
L 211.433016 177.185185 
L 209.795841 176.419808 
L 208.324638 175.358038 
L 207.032337 174.004891 
L 205.897902 172.393335 
L 204.900298 170.556338 
L 204.018488 168.526869 
L 203.231436 166.337896 
L 201.857465 161.613311 
L 199.321049 151.700693 
L 197.822031 147.040152 
L 196.941194 144.899213 
L 195.944756 142.928451 
L 194.811683 141.160836 
L 193.520939 139.629336 
L 192.051487 138.366918 
L 190.371872 137.389862 
L 188.482558 136.671754 
L 186.410393 136.181527 
L 184.182224 135.888113 
L 181.824896 135.760443 
L 176.830151 135.878064 
L 169.040512 136.520878 
L 163.962281 136.89788 
L 159.226509 136.943682 
L 157.05416 136.764713 
L 155.047967 136.409739 
L 153.234773 135.847693 
L 151.641428 135.047506 
L 150.294776 133.978111 
L 149.144642 132.65385 
L 148.120183 131.122701 
L 147.217241 129.404046 
L 146.431663 127.517269 
L 145.759293 125.481753 
L 145.195975 123.316881 
L 144.737555 121.042036 
L 144.118785 116.239957 
L 143.869741 111.230582 
L 143.95718 106.168975 
L 144.347859 101.210199 
L 145.008536 96.50932 
L 145.905969 92.2214 
L 146.483498 90.225265 
L 147.203228 88.264584 
L 148.052972 86.33632 
L 150.093743 82.564882 
L 152.508302 78.886641 
L 155.199138 75.277283 
L 159.540111 69.939221 
L 165.384955 62.835986 
L 168.112358 59.235746 
L 169.384644 57.412833 
L 169.384644 57.412833 
" style="fill:none;stroke:#fea952;stroke-linecap:square;"/>
   </g>
   <g id="line2d_19">
    <path clip-path="url(#p8a07deb34f)" d="M 317.786103 295.358735 
L 318.086113 275.405677 
L 318.624378 250.701095 
L 319.072165 245.763289 
L 320.077782 238.490583 
L 321.3439 229.374137 
L 321.681766 225.268047 
L 321.705475 221.618198 
L 321.382787 218.543169 
L 320.740257 216.095567 
L 320.285392 215.043796 
L 319.666755 213.99298 
L 318.868452 212.932177 
L 317.884257 211.864095 
L 316.715978 210.795739 
L 315.371915 209.734669 
L 312.209928 207.65668 
L 308.524114 205.652712 
L 304.450561 203.713925 
L 286.844244 195.779309 
L 278.873437 191.462603 
L 271.087842 187.229133 
L 265.362714 184.371517 
L 261.606168 182.714057 
L 257.904229 181.308997 
L 254.261498 180.196782 
L 250.870381 179.436031 
L 249.353006 179.234805 
L 247.647005 179.184595 
L 245.773298 179.283593 
L 241.619328 179.882901 
L 237.069966 180.888827 
L 227.283968 183.328991 
L 222.164204 184.307469 
L 219.542334 184.615221 
L 216.867887 184.737695 
L 214.135922 184.609616 
L 211.359121 184.149733 
L 208.587967 183.270868 
L 205.864451 181.867194 
L 203.466411 179.997808 
L 201.539021 177.871843 
L 199.994384 175.599316 
L 198.738906 173.233481 
L 197.696823 170.799842 
L 196.811306 168.315718 
L 195.34741 163.271329 
L 192.258012 151.510022 
L 190.946058 147.930415 
L 189.674858 145.490139 
L 188.673561 144.173764 
L 187.985074 143.669435 
L 186.935954 143.209174 
L 185.533328 142.841902 
L 183.818924 142.596157 
L 181.844032 142.47829 
L 177.305176 142.579123 
L 169.599244 143.215477 
L 164.183406 143.612115 
L 161.439272 143.694863 
L 158.674924 143.638875 
L 155.883688 143.379835 
L 153.058953 142.82641 
L 150.219861 141.851038 
L 147.463712 140.308355 
L 145.222781 138.383189 
L 143.561257 136.389576 
L 142.173113 134.247154 
L 141.015451 131.986223 
L 140.052783 129.624337 
L 139.257912 127.173466 
L 138.610485 124.64397 
L 138.095188 122.04643 
L 137.700239 119.392338 
L 137.235663 113.965594 
L 137.159283 108.474278 
L 137.428358 103.037729 
L 138.009758 97.777082 
L 138.880894 92.806543 
L 139.452759 90.354335 
L 140.177091 87.910296 
L 141.055793 85.555546 
L 142.067348 83.286377 
L 143.192053 81.096985 
L 145.711129 76.929405 
L 148.487784 72.995535 
L 151.412675 69.243759 
L 162.603537 55.390913 
L 163.875823 53.568 
L 163.875823 53.568 
" style="fill:none;stroke:#ffffff;stroke-linecap:square;"/>
   </g>
   <g id="line2d_20">
    <path clip-path="url(#p8a07deb34f)" d="M 331.221231 295.488 
L 331.519274 275.669387 
L 332.021999 251.712593 
L 332.403071 247.438503 
L 333.363519 240.492725 
L 334.422452 233.151412 
L 334.956036 228.132629 
L 335.168127 223.051883 
L 335.094092 220.493788 
L 334.861454 217.927604 
L 334.43602 215.36001 
L 333.780103 212.804865 
L 332.855685 210.287315 
L 331.65302 207.881644 
L 330.224149 205.682697 
L 328.611216 203.680262 
L 326.850497 201.857802 
L 324.970239 200.194486 
L 322.992193 198.668923 
L 320.933695 197.261163 
L 316.632886 194.730285 
L 312.174462 192.485321 
L 305.423721 189.463678 
L 296.921586 185.748682 
L 293.114884 183.896614 
L 285.367494 179.70052 
L 277.261087 175.295549 
L 270.916004 172.137125 
L 266.539265 170.216699 
L 262.029732 168.5223 
L 257.375083 167.12678 
L 254.990714 166.565624 
L 252.375194 166.084817 
L 249.590454 165.801153 
L 246.84657 165.772709 
L 244.146724 165.946665 
L 241.490753 166.278402 
L 236.314007 167.266133 
L 228.968973 169.083368 
L 222.427354 170.630389 
L 218.799734 171.200009 
L 216.040603 171.309557 
L 214.278064 171.099501 
L 213.727231 170.972422 
L 213.182866 170.718268 
L 212.525654 170.137939 
L 211.801421 169.187353 
L 211.06169 167.879195 
L 210.340152 166.253897 
L 208.996792 162.245735 
L 207.74941 157.52894 
L 205.757071 149.775215 
L 204.958596 147.126582 
L 204.034644 144.484124 
L 202.93633 141.86801 
L 201.600415 139.303073 
L 199.948509 136.831533 
L 197.898643 134.533695 
L 195.429413 132.560072 
L 192.75867 131.110288 
L 190.029163 130.134334 
L 187.287459 129.521152 
L 184.545523 129.180068 
L 181.805759 129.042595 
L 176.355126 129.177005 
L 168.48178 129.826278 
L 163.741157 130.183646 
L 159.778093 130.24849 
L 157.03698 129.993068 
L 155.366771 129.573033 
L 154.728028 128.918124 
L 154.067252 127.998248 
L 153.419032 126.82187 
L 152.810543 125.410202 
L 152.260674 123.790041 
L 151.781465 121.989792 
L 151.059515 117.960862 
L 150.664587 113.537386 
L 150.587672 108.918955 
L 150.805026 104.296354 
L 151.283293 99.85858 
L 151.978577 95.801553 
L 152.789904 92.540233 
L 153.350663 90.973623 
L 154.849027 87.777879 
L 156.809658 84.501858 
L 159.162776 81.154206 
L 161.822702 77.737917 
L 172.174702 65.03917 
L 174.893465 61.257665 
L 174.893465 61.257665 
" style="fill:none;stroke:#ffffff;stroke-linecap:square;"/>
   </g>
   <g id="patch_3">
    <path d="M 57.6 307.584 
L 57.6 41.472 
" style="fill:none;stroke:#000000;stroke-linecap:square;stroke-linejoin:miter;stroke-width:0.8;"/>
   </g>
   <g id="patch_4">
    <path d="M 414.72 307.584 
L 414.72 41.472 
" style="fill:none;stroke:#000000;stroke-linecap:square;stroke-linejoin:miter;stroke-width:0.8;"/>
   </g>
   <g id="patch_5">
    <path d="M 57.6 307.584 
L 414.72 307.584 
" style="fill:none;stroke:#000000;stroke-linecap:square;stroke-linejoin:miter;stroke-width:0.8;"/>
   </g>
   <g id="patch_6">
    <path d="M 57.6 41.472 
L 414.72 41.472 
" style="fill:none;stroke:#000000;stroke-linecap:square;stroke-linejoin:miter;stroke-width:0.8;"/>
   </g>
  </g>
 </g>
 <defs>
  <clipPath id="p8a07deb34f">
   <rect height="266.112" width="357.12" x="57.6" y="41.472"/>
  </clipPath>
 </defs>
</svg>
