<?xml version="1.0" encoding="utf-8" standalone="no"?>
<!DOCTYPE svg PUBLIC "-//W3C//DTD SVG 1.1//EN"
  "http://www.w3.org/Graphics/SVG/1.1/DTD/svg11.dtd">
<!-- Created with matplotlib (https://matplotlib.org/) -->
<svg height="345.6pt" version="1.1" viewBox="0 0 460.8 345.6" width="460.8pt" xmlns="http://www.w3.org/2000/svg" xmlns:xlink="http://www.w3.org/1999/xlink">
 <metadata>
  <rdf:RDF xmlns:cc="http://creativecommons.org/ns#" xmlns:dc="http://purl.org/dc/elements/1.1/" xmlns:rdf="http://www.w3.org/1999/02/22-rdf-syntax-ns#">
   <cc:Work>
    <dc:type rdf:resource="http://purl.org/dc/dcmitype/StillImage"/>
    <dc:date>2021-06-19T19:28:15.761959</dc:date>
    <dc:format>image/svg+xml</dc:format>
    <dc:creator>
     <cc:Agent>
      <dc:title>Matplotlib v3.3.3, https://matplotlib.org/</dc:title>
     </cc:Agent>
    </dc:creator>
   </cc:Work>
  </rdf:RDF>
 </metadata>
 <defs>
  <style type="text/css">*{stroke-linecap:butt;stroke-linejoin:round;}</style>
 </defs>
 <g id="figure_1">
  <g id="patch_1">
   <path d="M 0 345.6 
L 460.8 345.6 
L 460.8 0 
L 0 0 
z
" style="fill:#ffffff;"/>
  </g>
  <g id="axes_1">
   <g id="patch_2">
    <path d="M 57.6 307.584 
L 414.72 307.584 
L 414.72 41.472 
L 57.6 41.472 
z
" style="fill:#7d9051;"/>
   </g>
   <g id="matplotlib.axis_1">
    <g id="xtick_1">
     <g id="line2d_1">
      <defs>
       <path d="M 0 0 
L 0 3.5 
" id="m049fed8f22" style="stroke:#000000;stroke-width:0.8;"/>
      </defs>
      <g>
       <use style="stroke:#000000;stroke-width:0.8;" x="90.644786" xlink:href="#m049fed8f22" y="307.584"/>
      </g>
     </g>
     <g id="text_1">
      <!-- −150 -->
      <g transform="translate(76.911192 322.182437)scale(0.1 -0.1)">
       <defs>
        <path d="M 10.59375 35.5 
L 73.1875 35.5 
L 73.1875 27.203125 
L 10.59375 27.203125 
z
" id="DejaVuSans-8722"/>
        <path d="M 12.40625 8.296875 
L 28.515625 8.296875 
L 28.515625 63.921875 
L 10.984375 60.40625 
L 10.984375 69.390625 
L 28.421875 72.90625 
L 38.28125 72.90625 
L 38.28125 8.296875 
L 54.390625 8.296875 
L 54.390625 0 
L 12.40625 0 
z
" id="DejaVuSans-49"/>
        <path d="M 10.796875 72.90625 
L 49.515625 72.90625 
L 49.515625 64.59375 
L 19.828125 64.59375 
L 19.828125 46.734375 
Q 21.96875 47.46875 24.109375 47.828125 
Q 26.265625 48.1875 28.421875 48.1875 
Q 40.625 48.1875 47.75 41.5 
Q 54.890625 34.8125 54.890625 23.390625 
Q 54.890625 11.625 47.5625 5.09375 
Q 40.234375 -1.421875 26.90625 -1.421875 
Q 22.3125 -1.421875 17.546875 -0.640625 
Q 12.796875 0.140625 7.71875 1.703125 
L 7.71875 11.625 
Q 12.109375 9.234375 16.796875 8.0625 
Q 21.484375 6.890625 26.703125 6.890625 
Q 35.15625 6.890625 40.078125 11.328125 
Q 45.015625 15.765625 45.015625 23.390625 
Q 45.015625 31 40.078125 35.4375 
Q 35.15625 39.890625 26.703125 39.890625 
Q 22.75 39.890625 18.8125 39.015625 
Q 14.890625 38.140625 10.796875 36.28125 
z
" id="DejaVuSans-53"/>
        <path d="M 31.78125 66.40625 
Q 24.171875 66.40625 20.328125 58.90625 
Q 16.5 51.421875 16.5 36.375 
Q 16.5 21.390625 20.328125 13.890625 
Q 24.171875 6.390625 31.78125 6.390625 
Q 39.453125 6.390625 43.28125 13.890625 
Q 47.125 21.390625 47.125 36.375 
Q 47.125 51.421875 43.28125 58.90625 
Q 39.453125 66.40625 31.78125 66.40625 
z
M 31.78125 74.21875 
Q 44.046875 74.21875 50.515625 64.515625 
Q 56.984375 54.828125 56.984375 36.375 
Q 56.984375 17.96875 50.515625 8.265625 
Q 44.046875 -1.421875 31.78125 -1.421875 
Q 19.53125 -1.421875 13.0625 8.265625 
Q 6.59375 17.96875 6.59375 36.375 
Q 6.59375 54.828125 13.0625 64.515625 
Q 19.53125 74.21875 31.78125 74.21875 
z
" id="DejaVuSans-48"/>
       </defs>
       <use xlink:href="#DejaVuSans-8722"/>
       <use x="83.789062" xlink:href="#DejaVuSans-49"/>
       <use x="147.412109" xlink:href="#DejaVuSans-53"/>
       <use x="211.035156" xlink:href="#DejaVuSans-48"/>
      </g>
     </g>
    </g>
    <g id="xtick_2">
     <g id="line2d_2">
      <g>
       <use style="stroke:#000000;stroke-width:0.8;" x="152.075627" xlink:href="#m049fed8f22" y="307.584"/>
      </g>
     </g>
     <g id="text_2">
      <!-- −100 -->
      <g transform="translate(138.342033 322.182437)scale(0.1 -0.1)">
       <use xlink:href="#DejaVuSans-8722"/>
       <use x="83.789062" xlink:href="#DejaVuSans-49"/>
       <use x="147.412109" xlink:href="#DejaVuSans-48"/>
       <use x="211.035156" xlink:href="#DejaVuSans-48"/>
      </g>
     </g>
    </g>
    <g id="xtick_3">
     <g id="line2d_3">
      <g>
       <use style="stroke:#000000;stroke-width:0.8;" x="213.506469" xlink:href="#m049fed8f22" y="307.584"/>
      </g>
     </g>
     <g id="text_3">
      <!-- −50 -->
      <g transform="translate(202.954125 322.182437)scale(0.1 -0.1)">
       <use xlink:href="#DejaVuSans-8722"/>
       <use x="83.789062" xlink:href="#DejaVuSans-53"/>
       <use x="147.412109" xlink:href="#DejaVuSans-48"/>
      </g>
     </g>
    </g>
    <g id="xtick_4">
     <g id="line2d_4">
      <g>
       <use style="stroke:#000000;stroke-width:0.8;" x="274.937311" xlink:href="#m049fed8f22" y="307.584"/>
      </g>
     </g>
     <g id="text_4">
      <!-- 0 -->
      <g transform="translate(271.756061 322.182437)scale(0.1 -0.1)">
       <use xlink:href="#DejaVuSans-48"/>
      </g>
     </g>
    </g>
    <g id="xtick_5">
     <g id="line2d_5">
      <g>
       <use style="stroke:#000000;stroke-width:0.8;" x="336.368152" xlink:href="#m049fed8f22" y="307.584"/>
      </g>
     </g>
     <g id="text_5">
      <!-- 50 -->
      <g transform="translate(330.005652 322.182437)scale(0.1 -0.1)">
       <use xlink:href="#DejaVuSans-53"/>
       <use x="63.623047" xlink:href="#DejaVuSans-48"/>
      </g>
     </g>
    </g>
    <g id="xtick_6">
     <g id="line2d_6">
      <g>
       <use style="stroke:#000000;stroke-width:0.8;" x="397.798994" xlink:href="#m049fed8f22" y="307.584"/>
      </g>
     </g>
     <g id="text_6">
      <!-- 100 -->
      <g transform="translate(388.255244 322.182437)scale(0.1 -0.1)">
       <use xlink:href="#DejaVuSans-49"/>
       <use x="63.623047" xlink:href="#DejaVuSans-48"/>
       <use x="127.246094" xlink:href="#DejaVuSans-48"/>
      </g>
     </g>
    </g>
   </g>
   <g id="matplotlib.axis_2">
    <g id="ytick_1">
     <g id="line2d_7">
      <defs>
       <path d="M 0 0 
L -3.5 0 
" id="mdc34f334f2" style="stroke:#000000;stroke-width:0.8;"/>
      </defs>
      <g>
       <use style="stroke:#000000;stroke-width:0.8;" x="57.6" xlink:href="#mdc34f334f2" y="295.440718"/>
      </g>
     </g>
     <g id="text_7">
      <!-- 0 -->
      <g transform="translate(44.2375 299.239937)scale(0.1 -0.1)">
       <use xlink:href="#DejaVuSans-48"/>
      </g>
     </g>
    </g>
    <g id="ytick_2">
     <g id="line2d_8">
      <g>
       <use style="stroke:#000000;stroke-width:0.8;" x="57.6" xlink:href="#mdc34f334f2" y="264.725297"/>
      </g>
     </g>
     <g id="text_8">
      <!-- 25 -->
      <g transform="translate(37.875 268.524516)scale(0.1 -0.1)">
       <defs>
        <path d="M 19.1875 8.296875 
L 53.609375 8.296875 
L 53.609375 0 
L 7.328125 0 
L 7.328125 8.296875 
Q 12.9375 14.109375 22.625 23.890625 
Q 32.328125 33.6875 34.8125 36.53125 
Q 39.546875 41.84375 41.421875 45.53125 
Q 43.3125 49.21875 43.3125 52.78125 
Q 43.3125 58.59375 39.234375 62.25 
Q 35.15625 65.921875 28.609375 65.921875 
Q 23.96875 65.921875 18.8125 64.3125 
Q 13.671875 62.703125 7.8125 59.421875 
L 7.8125 69.390625 
Q 13.765625 71.78125 18.9375 73 
Q 24.125 74.21875 28.421875 74.21875 
Q 39.75 74.21875 46.484375 68.546875 
Q 53.21875 62.890625 53.21875 53.421875 
Q 53.21875 48.921875 51.53125 44.890625 
Q 49.859375 40.875 45.40625 35.40625 
Q 44.1875 33.984375 37.640625 27.21875 
Q 31.109375 20.453125 19.1875 8.296875 
z
" id="DejaVuSans-50"/>
       </defs>
       <use xlink:href="#DejaVuSans-50"/>
       <use x="63.623047" xlink:href="#DejaVuSans-53"/>
      </g>
     </g>
    </g>
    <g id="ytick_3">
     <g id="line2d_9">
      <g>
       <use style="stroke:#000000;stroke-width:0.8;" x="57.6" xlink:href="#mdc34f334f2" y="234.009876"/>
      </g>
     </g>
     <g id="text_9">
      <!-- 50 -->
      <g transform="translate(37.875 237.809095)scale(0.1 -0.1)">
       <use xlink:href="#DejaVuSans-53"/>
       <use x="63.623047" xlink:href="#DejaVuSans-48"/>
      </g>
     </g>
    </g>
    <g id="ytick_4">
     <g id="line2d_10">
      <g>
       <use style="stroke:#000000;stroke-width:0.8;" x="57.6" xlink:href="#mdc34f334f2" y="203.294456"/>
      </g>
     </g>
     <g id="text_10">
      <!-- 75 -->
      <g transform="translate(37.875 207.093674)scale(0.1 -0.1)">
       <defs>
        <path d="M 8.203125 72.90625 
L 55.078125 72.90625 
L 55.078125 68.703125 
L 28.609375 0 
L 18.3125 0 
L 43.21875 64.59375 
L 8.203125 64.59375 
z
" id="DejaVuSans-55"/>
       </defs>
       <use xlink:href="#DejaVuSans-55"/>
       <use x="63.623047" xlink:href="#DejaVuSans-53"/>
      </g>
     </g>
    </g>
    <g id="ytick_5">
     <g id="line2d_11">
      <g>
       <use style="stroke:#000000;stroke-width:0.8;" x="57.6" xlink:href="#mdc34f334f2" y="172.579035"/>
      </g>
     </g>
     <g id="text_11">
      <!-- 100 -->
      <g transform="translate(31.5125 176.378254)scale(0.1 -0.1)">
       <use xlink:href="#DejaVuSans-49"/>
       <use x="63.623047" xlink:href="#DejaVuSans-48"/>
       <use x="127.246094" xlink:href="#DejaVuSans-48"/>
      </g>
     </g>
    </g>
    <g id="ytick_6">
     <g id="line2d_12">
      <g>
       <use style="stroke:#000000;stroke-width:0.8;" x="57.6" xlink:href="#mdc34f334f2" y="141.863614"/>
      </g>
     </g>
     <g id="text_12">
      <!-- 125 -->
      <g transform="translate(31.5125 145.662833)scale(0.1 -0.1)">
       <use xlink:href="#DejaVuSans-49"/>
       <use x="63.623047" xlink:href="#DejaVuSans-50"/>
       <use x="127.246094" xlink:href="#DejaVuSans-53"/>
      </g>
     </g>
    </g>
    <g id="ytick_7">
     <g id="line2d_13">
      <g>
       <use style="stroke:#000000;stroke-width:0.8;" x="57.6" xlink:href="#mdc34f334f2" y="111.148193"/>
      </g>
     </g>
     <g id="text_13">
      <!-- 150 -->
      <g transform="translate(31.5125 114.947412)scale(0.1 -0.1)">
       <use xlink:href="#DejaVuSans-49"/>
       <use x="63.623047" xlink:href="#DejaVuSans-53"/>
       <use x="127.246094" xlink:href="#DejaVuSans-48"/>
      </g>
     </g>
    </g>
    <g id="ytick_8">
     <g id="line2d_14">
      <g>
       <use style="stroke:#000000;stroke-width:0.8;" x="57.6" xlink:href="#mdc34f334f2" y="80.432772"/>
      </g>
     </g>
     <g id="text_14">
      <!-- 175 -->
      <g transform="translate(31.5125 84.231991)scale(0.1 -0.1)">
       <use xlink:href="#DejaVuSans-49"/>
       <use x="63.623047" xlink:href="#DejaVuSans-55"/>
       <use x="127.246094" xlink:href="#DejaVuSans-53"/>
      </g>
     </g>
    </g>
    <g id="ytick_9">
     <g id="line2d_15">
      <g>
       <use style="stroke:#000000;stroke-width:0.8;" x="57.6" xlink:href="#mdc34f334f2" y="49.717351"/>
      </g>
     </g>
     <g id="text_15">
      <!-- 200 -->
      <g transform="translate(31.5125 53.51657)scale(0.1 -0.1)">
       <use xlink:href="#DejaVuSans-50"/>
       <use x="63.623047" xlink:href="#DejaVuSans-48"/>
       <use x="127.246094" xlink:href="#DejaVuSans-48"/>
      </g>
     </g>
    </g>
   </g>
   <g id="line2d_16">
    <path clip-path="url(#p3c8307286d)" d="M 274.937311 295.440718 
L 275.187794 279.276893 
L 275.647362 261.444922 
L 276.219557 256.378784 
L 277.31153 247.87364 
L 277.55468 244.557795 
L 277.562697 241.346639 
L 277.252594 238.277119 
L 276.952313 236.807019 
L 276.541382 235.386184 
L 276.009427 234.019233 
L 275.326113 232.722493 
L 274.480142 231.503192 
L 273.489693 230.352294 
L 272.372947 229.260764 
L 269.83328 227.219667 
L 267.006577 225.307622 
L 259.638478 220.617762 
L 256.952474 218.588183 
L 255.738169 217.50433 
L 254.633903 216.36239 
L 253.657855 215.153326 
L 252.828204 213.868104 
L 252.138491 212.510114 
L 251.562145 211.092703 
L 250.701607 208.103205 
L 250.1507 204.946785 
L 249.813531 201.670617 
L 248.932197 189.942099 
L 248.370195 186.710853 
L 247.494527 183.619319 
L 246.329738 180.648894 
L 244.986591 177.741628 
L 242.710604 173.473249 
L 239.363829 167.892607 
L 233.39968 158.164477 
L 230.917578 153.939621 
L 228.075623 149.749465 
L 223.199818 142.780503 
L 221.444394 139.972433 
L 219.925631 137.13949 
L 218.727056 134.272893 
L 217.932198 131.363864 
L 217.712264 129.890694 
L 217.641952 128.404718 
L 217.730517 126.907233 
L 217.960568 125.399094 
L 218.775565 122.354275 
L 219.947817 119.277096 
L 222.071708 114.615612 
L 224.216834 109.919783 
L 225.426838 106.781544 
L 226.298464 103.645134 
L 226.563908 102.079752 
L 226.731975 98.932452 
L 226.650478 93.948093 
L 226.406745 90.512589 
L 225.990016 87.060445 
L 225.381883 83.654609 
L 224.563939 80.35803 
L 223.517777 77.233655 
L 222.224989 74.344431 
L 220.667168 71.753308 
L 219.783118 70.589205 
L 218.805824 69.519881 
L 217.720604 68.539525 
L 216.536708 67.640511 
L 213.909893 66.056004 
L 210.999386 64.705355 
L 207.879194 63.527558 
L 202.967636 61.951506 
L 196.37572 59.885691 
L 193.227776 58.730771 
L 191.723185 58.096117 
L 191.723185 58.096117 
" style="fill:none;stroke:#fea952;stroke-linecap:square;"/>
   </g>
   <g id="line2d_17">
    <path clip-path="url(#p3c8307286d)" d="M 270.023071 295.393436 
L 270.274311 279.178534 
L 270.62999 262.76007 
L 270.924622 259.209142 
L 271.816616 252.309573 
L 272.415709 247.445934 
L 272.641604 244.44084 
L 272.660506 241.693783 
L 272.437546 239.260634 
L 271.961487 237.168472 
L 271.288329 235.523973 
L 270.755147 234.708876 
L 270.054546 233.866799 
L 268.173196 232.131349 
L 265.751727 230.361655 
L 261.440532 227.624121 
L 256.764468 224.604246 
L 253.679946 222.254591 
L 252.205328 220.920618 
L 250.809959 219.449369 
L 249.52894 217.818668 
L 248.446492 216.093544 
L 247.585988 214.361249 
L 246.885441 212.602814 
L 246.323855 210.831204 
L 245.534842 207.281821 
L 245.066536 203.759333 
L 244.687588 198.599471 
L 244.244338 192.166208 
L 243.861932 189.258368 
L 243.292399 186.628327 
L 242.390893 183.993435 
L 241.244841 181.308441 
L 239.206697 177.279876 
L 236.869032 173.225842 
L 225.024025 153.960562 
L 218.096052 143.928101 
L 216.272617 140.793154 
L 214.695214 137.477765 
L 214.036671 135.739958 
L 213.488752 133.944026 
L 213.071599 132.089516 
L 212.803289 130.122973 
L 212.736057 128.114572 
L 212.872247 126.166154 
L 213.17463 124.282499 
L 213.609878 122.461121 
L 214.768084 118.980864 
L 216.158456 115.677409 
L 220.237553 106.669456 
L 221.14089 104.041013 
L 221.666024 101.676361 
L 221.817562 98.909376 
L 221.744609 94.238685 
L 221.520381 91.037413 
L 221.139485 87.8506 
L 220.591487 84.751921 
L 219.870882 81.816521 
L 218.979829 79.120189 
L 217.931684 76.735983 
L 216.753373 74.725546 
L 215.511433 73.166658 
L 213.863756 71.764503 
L 211.740517 70.465743 
L 209.196539 69.277196 
L 206.313145 68.185828 
L 201.538717 66.653653 
L 194.744371 64.521496 
L 191.317765 63.258888 
L 189.813174 62.624235 
L 189.813174 62.624235 
" style="fill:none;stroke:#ffffff;stroke-linecap:square;"/>
   </g>
   <g id="line2d_18">
    <path clip-path="url(#p3c8307286d)" d="M 279.851551 295.488 
L 280.101277 279.375252 
L 280.539664 261.911151 
L 281.089178 257.04119 
L 282.20735 248.301346 
L 282.467755 244.674751 
L 282.464889 240.999495 
L 282.324778 239.148554 
L 282.067642 237.293604 
L 281.673297 235.441625 
L 281.121277 233.603897 
L 280.357196 231.728186 
L 279.363897 229.921013 
L 278.205136 228.297508 
L 276.924841 226.837788 
L 275.555905 225.516332 
L 272.645771 223.189546 
L 269.627437 221.150329 
L 262.512487 216.631278 
L 260.225001 214.921774 
L 258.457848 213.275411 
L 257.209917 211.642663 
L 256.238848 209.582593 
L 255.522939 207.150972 
L 255.032196 204.378475 
L 254.715667 201.322704 
L 253.790856 189.203568 
L 253.137149 185.515804 
L 252.098294 181.899633 
L 250.818202 178.647476 
L 249.368467 175.516511 
L 246.965361 171.013771 
L 243.532973 165.29064 
L 237.678517 155.747135 
L 235.030025 151.24894 
L 232.082078 146.903361 
L 227.332251 140.120617 
L 225.728401 137.564265 
L 224.405258 135.118368 
L 223.417441 132.805829 
L 222.792796 130.638213 
L 222.547847 128.694864 
L 222.588787 127.648312 
L 223.019551 125.301193 
L 223.883375 122.657742 
L 225.090416 119.779609 
L 229.473323 110.032268 
L 230.686397 106.384354 
L 231.143763 104.466758 
L 231.461791 102.483144 
L 231.646388 98.955528 
L 231.624314 95.457797 
L 231.446883 91.831918 
L 231.092051 88.131696 
L 230.53519 84.410029 
L 229.747732 80.718389 
L 228.694941 77.106991 
L 227.332696 73.626632 
L 226.518294 71.952879 
L 225.604085 70.334309 
L 224.580963 68.78107 
L 223.410767 67.273763 
L 222.100214 65.873104 
L 220.692701 64.625623 
L 219.20966 63.516518 
L 217.667629 62.529 
L 214.454628 60.852547 
L 211.129899 59.476288 
L 206.0703 57.764984 
L 196.536416 54.734222 
L 193.633196 53.568 
L 193.633196 53.568 
" style="fill:none;stroke:#ffffff;stroke-linecap:square;"/>
   </g>
   <g id="patch_3">
    <path d="M 57.6 307.584 
L 57.6 41.472 
" style="fill:none;stroke:#000000;stroke-linecap:square;stroke-linejoin:miter;stroke-width:0.8;"/>
   </g>
   <g id="patch_4">
    <path d="M 414.72 307.584 
L 414.72 41.472 
" style="fill:none;stroke:#000000;stroke-linecap:square;stroke-linejoin:miter;stroke-width:0.8;"/>
   </g>
   <g id="patch_5">
    <path d="M 57.6 307.584 
L 414.72 307.584 
" style="fill:none;stroke:#000000;stroke-linecap:square;stroke-linejoin:miter;stroke-width:0.8;"/>
   </g>
   <g id="patch_6">
    <path d="M 57.6 41.472 
L 414.72 41.472 
" style="fill:none;stroke:#000000;stroke-linecap:square;stroke-linejoin:miter;stroke-width:0.8;"/>
   </g>
  </g>
 </g>
 <defs>
  <clipPath id="p3c8307286d">
   <rect height="266.112" width="357.12" x="57.6" y="41.472"/>
  </clipPath>
 </defs>
</svg>
