<?xml version="1.0" encoding="utf-8" standalone="no"?>
<!DOCTYPE svg PUBLIC "-//W3C//DTD SVG 1.1//EN"
  "http://www.w3.org/Graphics/SVG/1.1/DTD/svg11.dtd">
<!-- Created with matplotlib (https://matplotlib.org/) -->
<svg height="345.6pt" version="1.1" viewBox="0 0 460.8 345.6" width="460.8pt" xmlns="http://www.w3.org/2000/svg" xmlns:xlink="http://www.w3.org/1999/xlink">
 <metadata>
  <rdf:RDF xmlns:cc="http://creativecommons.org/ns#" xmlns:dc="http://purl.org/dc/elements/1.1/" xmlns:rdf="http://www.w3.org/1999/02/22-rdf-syntax-ns#">
   <cc:Work>
    <dc:type rdf:resource="http://purl.org/dc/dcmitype/StillImage"/>
    <dc:date>2021-06-13T10:07:44.130837</dc:date>
    <dc:format>image/svg+xml</dc:format>
    <dc:creator>
     <cc:Agent>
      <dc:title>Matplotlib v3.3.3, https://matplotlib.org/</dc:title>
     </cc:Agent>
    </dc:creator>
   </cc:Work>
  </rdf:RDF>
 </metadata>
 <defs>
  <style type="text/css">*{stroke-linecap:butt;stroke-linejoin:round;}</style>
 </defs>
 <g id="figure_1">
  <g id="patch_1">
   <path d="M 0 345.6 
L 460.8 345.6 
L 460.8 0 
L 0 0 
z
" style="fill:#ffffff;"/>
  </g>
  <g id="axes_1">
   <g id="patch_2">
    <path d="M 57.6 307.584 
L 414.72 307.584 
L 414.72 41.472 
L 57.6 41.472 
z
" style="fill:#7d9051;"/>
   </g>
   <g id="matplotlib.axis_1">
    <g id="xtick_1">
     <g id="line2d_1">
      <defs>
       <path d="M 0 0 
L 0 3.5 
" id="m227d3bcdb0" style="stroke:#000000;stroke-width:0.8;"/>
      </defs>
      <g>
       <use style="stroke:#000000;stroke-width:0.8;" x="112.821677" xlink:href="#m227d3bcdb0" y="307.584"/>
      </g>
     </g>
     <g id="text_1">
      <!-- −50 -->
      <g transform="translate(102.269333 322.182437)scale(0.1 -0.1)">
       <defs>
        <path d="M 10.59375 35.5 
L 73.1875 35.5 
L 73.1875 27.203125 
L 10.59375 27.203125 
z
" id="DejaVuSans-8722"/>
        <path d="M 10.796875 72.90625 
L 49.515625 72.90625 
L 49.515625 64.59375 
L 19.828125 64.59375 
L 19.828125 46.734375 
Q 21.96875 47.46875 24.109375 47.828125 
Q 26.265625 48.1875 28.421875 48.1875 
Q 40.625 48.1875 47.75 41.5 
Q 54.890625 34.8125 54.890625 23.390625 
Q 54.890625 11.625 47.5625 5.09375 
Q 40.234375 -1.421875 26.90625 -1.421875 
Q 22.3125 -1.421875 17.546875 -0.640625 
Q 12.796875 0.140625 7.71875 1.703125 
L 7.71875 11.625 
Q 12.109375 9.234375 16.796875 8.0625 
Q 21.484375 6.890625 26.703125 6.890625 
Q 35.15625 6.890625 40.078125 11.328125 
Q 45.015625 15.765625 45.015625 23.390625 
Q 45.015625 31 40.078125 35.4375 
Q 35.15625 39.890625 26.703125 39.890625 
Q 22.75 39.890625 18.8125 39.015625 
Q 14.890625 38.140625 10.796875 36.28125 
z
" id="DejaVuSans-53"/>
        <path d="M 31.78125 66.40625 
Q 24.171875 66.40625 20.328125 58.90625 
Q 16.5 51.421875 16.5 36.375 
Q 16.5 21.390625 20.328125 13.890625 
Q 24.171875 6.390625 31.78125 6.390625 
Q 39.453125 6.390625 43.28125 13.890625 
Q 47.125 21.390625 47.125 36.375 
Q 47.125 51.421875 43.28125 58.90625 
Q 39.453125 66.40625 31.78125 66.40625 
z
M 31.78125 74.21875 
Q 44.046875 74.21875 50.515625 64.515625 
Q 56.984375 54.828125 56.984375 36.375 
Q 56.984375 17.96875 50.515625 8.265625 
Q 44.046875 -1.421875 31.78125 -1.421875 
Q 19.53125 -1.421875 13.0625 8.265625 
Q 6.59375 17.96875 6.59375 36.375 
Q 6.59375 54.828125 13.0625 64.515625 
Q 19.53125 74.21875 31.78125 74.21875 
z
" id="DejaVuSans-48"/>
       </defs>
       <use xlink:href="#DejaVuSans-8722"/>
       <use x="83.789062" xlink:href="#DejaVuSans-53"/>
       <use x="147.412109" xlink:href="#DejaVuSans-48"/>
      </g>
     </g>
    </g>
    <g id="xtick_2">
     <g id="line2d_2">
      <g>
       <use style="stroke:#000000;stroke-width:0.8;" x="181.87192" xlink:href="#m227d3bcdb0" y="307.584"/>
      </g>
     </g>
     <g id="text_2">
      <!-- 0 -->
      <g transform="translate(178.69067 322.182437)scale(0.1 -0.1)">
       <use xlink:href="#DejaVuSans-48"/>
      </g>
     </g>
    </g>
    <g id="xtick_3">
     <g id="line2d_3">
      <g>
       <use style="stroke:#000000;stroke-width:0.8;" x="250.922164" xlink:href="#m227d3bcdb0" y="307.584"/>
      </g>
     </g>
     <g id="text_3">
      <!-- 50 -->
      <g transform="translate(244.559664 322.182437)scale(0.1 -0.1)">
       <use xlink:href="#DejaVuSans-53"/>
       <use x="63.623047" xlink:href="#DejaVuSans-48"/>
      </g>
     </g>
    </g>
    <g id="xtick_4">
     <g id="line2d_4">
      <g>
       <use style="stroke:#000000;stroke-width:0.8;" x="319.972407" xlink:href="#m227d3bcdb0" y="307.584"/>
      </g>
     </g>
     <g id="text_4">
      <!-- 100 -->
      <g transform="translate(310.428657 322.182437)scale(0.1 -0.1)">
       <defs>
        <path d="M 12.40625 8.296875 
L 28.515625 8.296875 
L 28.515625 63.921875 
L 10.984375 60.40625 
L 10.984375 69.390625 
L 28.421875 72.90625 
L 38.28125 72.90625 
L 38.28125 8.296875 
L 54.390625 8.296875 
L 54.390625 0 
L 12.40625 0 
z
" id="DejaVuSans-49"/>
       </defs>
       <use xlink:href="#DejaVuSans-49"/>
       <use x="63.623047" xlink:href="#DejaVuSans-48"/>
       <use x="127.246094" xlink:href="#DejaVuSans-48"/>
      </g>
     </g>
    </g>
    <g id="xtick_5">
     <g id="line2d_5">
      <g>
       <use style="stroke:#000000;stroke-width:0.8;" x="389.022651" xlink:href="#m227d3bcdb0" y="307.584"/>
      </g>
     </g>
     <g id="text_5">
      <!-- 150 -->
      <g transform="translate(379.478901 322.182437)scale(0.1 -0.1)">
       <use xlink:href="#DejaVuSans-49"/>
       <use x="63.623047" xlink:href="#DejaVuSans-53"/>
       <use x="127.246094" xlink:href="#DejaVuSans-48"/>
      </g>
     </g>
    </g>
   </g>
   <g id="matplotlib.axis_2">
    <g id="ytick_1">
     <g id="line2d_6">
      <defs>
       <path d="M 0 0 
L -3.5 0 
" id="me4e28c988b" style="stroke:#000000;stroke-width:0.8;"/>
      </defs>
      <g>
       <use style="stroke:#000000;stroke-width:0.8;" x="57.6" xlink:href="#me4e28c988b" y="295.434854"/>
      </g>
     </g>
     <g id="text_6">
      <!-- 0 -->
      <g transform="translate(44.2375 299.234072)scale(0.1 -0.1)">
       <use xlink:href="#DejaVuSans-48"/>
      </g>
     </g>
    </g>
    <g id="ytick_2">
     <g id="line2d_7">
      <g>
       <use style="stroke:#000000;stroke-width:0.8;" x="57.6" xlink:href="#me4e28c988b" y="260.909732"/>
      </g>
     </g>
     <g id="text_7">
      <!-- 25 -->
      <g transform="translate(37.875 264.708951)scale(0.1 -0.1)">
       <defs>
        <path d="M 19.1875 8.296875 
L 53.609375 8.296875 
L 53.609375 0 
L 7.328125 0 
L 7.328125 8.296875 
Q 12.9375 14.109375 22.625 23.890625 
Q 32.328125 33.6875 34.8125 36.53125 
Q 39.546875 41.84375 41.421875 45.53125 
Q 43.3125 49.21875 43.3125 52.78125 
Q 43.3125 58.59375 39.234375 62.25 
Q 35.15625 65.921875 28.609375 65.921875 
Q 23.96875 65.921875 18.8125 64.3125 
Q 13.671875 62.703125 7.8125 59.421875 
L 7.8125 69.390625 
Q 13.765625 71.78125 18.9375 73 
Q 24.125 74.21875 28.421875 74.21875 
Q 39.75 74.21875 46.484375 68.546875 
Q 53.21875 62.890625 53.21875 53.421875 
Q 53.21875 48.921875 51.53125 44.890625 
Q 49.859375 40.875 45.40625 35.40625 
Q 44.1875 33.984375 37.640625 27.21875 
Q 31.109375 20.453125 19.1875 8.296875 
z
" id="DejaVuSans-50"/>
       </defs>
       <use xlink:href="#DejaVuSans-50"/>
       <use x="63.623047" xlink:href="#DejaVuSans-53"/>
      </g>
     </g>
    </g>
    <g id="ytick_3">
     <g id="line2d_8">
      <g>
       <use style="stroke:#000000;stroke-width:0.8;" x="57.6" xlink:href="#me4e28c988b" y="226.38461"/>
      </g>
     </g>
     <g id="text_8">
      <!-- 50 -->
      <g transform="translate(37.875 230.183829)scale(0.1 -0.1)">
       <use xlink:href="#DejaVuSans-53"/>
       <use x="63.623047" xlink:href="#DejaVuSans-48"/>
      </g>
     </g>
    </g>
    <g id="ytick_4">
     <g id="line2d_9">
      <g>
       <use style="stroke:#000000;stroke-width:0.8;" x="57.6" xlink:href="#me4e28c988b" y="191.859489"/>
      </g>
     </g>
     <g id="text_9">
      <!-- 75 -->
      <g transform="translate(37.875 195.658707)scale(0.1 -0.1)">
       <defs>
        <path d="M 8.203125 72.90625 
L 55.078125 72.90625 
L 55.078125 68.703125 
L 28.609375 0 
L 18.3125 0 
L 43.21875 64.59375 
L 8.203125 64.59375 
z
" id="DejaVuSans-55"/>
       </defs>
       <use xlink:href="#DejaVuSans-55"/>
       <use x="63.623047" xlink:href="#DejaVuSans-53"/>
      </g>
     </g>
    </g>
    <g id="ytick_5">
     <g id="line2d_10">
      <g>
       <use style="stroke:#000000;stroke-width:0.8;" x="57.6" xlink:href="#me4e28c988b" y="157.334367"/>
      </g>
     </g>
     <g id="text_10">
      <!-- 100 -->
      <g transform="translate(31.5125 161.133586)scale(0.1 -0.1)">
       <use xlink:href="#DejaVuSans-49"/>
       <use x="63.623047" xlink:href="#DejaVuSans-48"/>
       <use x="127.246094" xlink:href="#DejaVuSans-48"/>
      </g>
     </g>
    </g>
    <g id="ytick_6">
     <g id="line2d_11">
      <g>
       <use style="stroke:#000000;stroke-width:0.8;" x="57.6" xlink:href="#me4e28c988b" y="122.809245"/>
      </g>
     </g>
     <g id="text_11">
      <!-- 125 -->
      <g transform="translate(31.5125 126.608464)scale(0.1 -0.1)">
       <use xlink:href="#DejaVuSans-49"/>
       <use x="63.623047" xlink:href="#DejaVuSans-50"/>
       <use x="127.246094" xlink:href="#DejaVuSans-53"/>
      </g>
     </g>
    </g>
    <g id="ytick_7">
     <g id="line2d_12">
      <g>
       <use style="stroke:#000000;stroke-width:0.8;" x="57.6" xlink:href="#me4e28c988b" y="88.284124"/>
      </g>
     </g>
     <g id="text_12">
      <!-- 150 -->
      <g transform="translate(31.5125 92.083342)scale(0.1 -0.1)">
       <use xlink:href="#DejaVuSans-49"/>
       <use x="63.623047" xlink:href="#DejaVuSans-53"/>
       <use x="127.246094" xlink:href="#DejaVuSans-48"/>
      </g>
     </g>
    </g>
    <g id="ytick_8">
     <g id="line2d_13">
      <g>
       <use style="stroke:#000000;stroke-width:0.8;" x="57.6" xlink:href="#me4e28c988b" y="53.759002"/>
      </g>
     </g>
     <g id="text_13">
      <!-- 175 -->
      <g transform="translate(31.5125 57.558221)scale(0.1 -0.1)">
       <use xlink:href="#DejaVuSans-49"/>
       <use x="63.623047" xlink:href="#DejaVuSans-55"/>
       <use x="127.246094" xlink:href="#DejaVuSans-53"/>
      </g>
     </g>
    </g>
   </g>
   <g id="line2d_14">
    <path clip-path="url(#p36e36f7ae1)" d="M 181.87192 295.434854 
L 182.153472 277.266194 
L 182.527796 253.641864 
L 182.618232 235.455674 
L 182.946045 228.20415 
L 183.264242 222.657156 
L 183.309948 214.712576 
L 183.391934 208.687456 
L 183.629004 204.802465 
L 184.111373 201.124619 
L 184.924211 197.741122 
L 185.481172 196.187007 
L 186.15269 194.739181 
L 186.949411 193.408546 
L 187.881982 192.206001 
L 188.97364 191.15842 
L 190.229843 190.273782 
L 191.634563 189.534653 
L 193.171774 188.923597 
L 194.825449 188.423178 
L 198.418085 187.684508 
L 202.284258 187.179158 
L 212.305008 186.021192 
L 216.118875 185.234019 
L 217.920038 184.701265 
L 219.629318 184.052485 
L 221.230688 183.270242 
L 222.74148 182.360649 
L 225.595438 180.247184 
L 228.270483 177.818176 
L 230.820123 175.165818 
L 240.834738 164.166762 
L 243.559936 161.780559 
L 246.480764 159.724166 
L 248.046224 158.852787 
L 249.697849 158.089907 
L 253.209909 156.832656 
L 256.917586 155.838437 
L 270.000467 152.784502 
L 273.35887 151.563461 
L 274.912712 150.823624 
L 276.366422 149.978579 
L 277.70758 149.01408 
L 278.923766 147.915879 
L 281.1614 145.330604 
L 283.24972 142.315272 
L 285.149208 138.961815 
L 286.820349 135.362168 
L 288.223627 131.608265 
L 289.319525 127.792037 
L 290.068528 124.00542 
L 290.43112 120.340347 
L 290.367785 116.88875 
L 290.164046 115.271735 
L 289.798941 113.71878 
L 289.243318 112.206706 
L 288.516023 110.730671 
L 287.635899 109.285834 
L 285.492538 106.470396 
L 282.963985 103.721666 
L 277.354301 98.269435 
L 274.574669 95.488484 
L 272.012844 92.619344 
L 269.819575 89.623289 
L 268.096692 86.470345 
L 266.630996 83.196189 
L 265.344347 79.826831 
L 263.669053 74.637379 
L 261.716246 67.568743 
L 259.309967 58.714481 
L 258.239409 55.230226 
L 258.239409 55.230226 
" style="fill:none;stroke:#fea952;stroke-linecap:square;"/>
   </g>
   <g id="line2d_15">
    <path clip-path="url(#p36e36f7ae1)" d="M 176.348157 295.381707 
L 176.630559 277.155636 
L 177.00378 253.64789 
L 177.053569 237.143575 
L 177.322579 229.68134 
L 177.776887 220.677786 
L 177.976522 206.312174 
L 178.374002 202.094945 
L 178.702558 200.00234 
L 179.144407 197.927586 
L 179.724048 195.877497 
L 180.469929 193.862736 
L 181.413276 191.901446 
L 182.584195 190.023331 
L 184.057202 188.220295 
L 185.793057 186.64193 
L 187.657588 185.385194 
L 189.594018 184.401334 
L 191.571801 183.63636 
L 193.576266 183.042255 
L 197.634885 182.216291 
L 201.709501 181.685121 
L 211.314521 180.586698 
L 214.552063 179.936861 
L 217.204738 179.088998 
L 218.381424 178.53775 
L 220.77951 177.006897 
L 223.154346 175.054782 
L 225.525306 172.738559 
L 229.130413 168.756404 
L 234.258799 162.973278 
L 237.103891 160.092996 
L 240.244098 157.362413 
L 241.951874 156.093534 
L 243.794108 154.897504 
L 245.729857 153.837886 
L 247.70178 152.93913 
L 251.696602 151.519964 
L 255.684847 150.453722 
L 268.253945 147.543848 
L 270.984138 146.575933 
L 273.14121 145.49385 
L 274.005443 144.914205 
L 274.859336 144.174863 
L 276.699352 142.074086 
L 278.502337 139.490887 
L 280.185308 136.53808 
L 281.684069 133.329087 
L 282.945724 129.977764 
L 283.925551 126.600467 
L 284.587305 123.319135 
L 284.907617 120.264815 
L 284.887098 117.5793 
L 284.613895 115.624061 
L 284.288171 114.648283 
L 283.798369 113.604437 
L 282.325837 111.340047 
L 280.26643 108.899354 
L 277.756294 106.325374 
L 270.523781 99.244159 
L 267.654182 96.012993 
L 266.306843 94.266422 
L 265.051572 92.412723 
L 263.090567 88.805619 
L 261.495525 85.231314 
L 260.118945 81.618471 
L 258.363442 76.175329 
L 256.374971 68.977846 
L 254.017521 60.297139 
L 252.971412 56.892452 
L 252.971412 56.892452 
" style="fill:none;stroke:#ffffff;stroke-linecap:square;"/>
   </g>
   <g id="line2d_16">
    <path clip-path="url(#p36e36f7ae1)" d="M 187.395684 295.488 
L 187.676385 277.376753 
L 188.051812 253.635838 
L 188.139603 235.62671 
L 188.455644 228.60303 
L 188.787285 222.761003 
L 188.83395 214.72636 
L 188.909738 208.949431 
L 189.120073 205.404925 
L 189.520188 202.246897 
L 190.124374 199.604748 
L 190.892105 197.576916 
L 191.706761 196.191708 
L 192.154223 195.67491 
L 192.802097 195.162371 
L 193.675108 194.667973 
L 194.771747 194.210834 
L 197.559642 193.45234 
L 200.975191 192.897006 
L 213.295495 191.455686 
L 217.685688 190.531178 
L 219.880299 189.865776 
L 222.053898 189.015972 
L 224.079953 188.002735 
L 225.898075 186.893936 
L 227.608824 185.691345 
L 230.749614 183.077939 
L 233.589964 180.289748 
L 237.465311 176.008206 
L 242.244528 170.607889 
L 244.565585 168.240529 
L 246.875774 166.198704 
L 249.16742 164.550829 
L 250.362592 163.867688 
L 253.15171 162.667906 
L 256.394253 161.666625 
L 261.861775 160.398327 
L 267.741179 159.112044 
L 271.746989 158.025156 
L 273.747973 157.349577 
L 275.733602 156.55099 
L 277.688865 155.599372 
L 279.591634 154.463309 
L 281.409717 153.113955 
L 282.988195 151.656895 
L 284.339829 150.17379 
L 286.842163 146.906117 
L 289.087911 143.296535 
L 291.070351 139.415521 
L 292.768372 135.333471 
L 294.151578 131.119478 
L 295.181678 126.838695 
L 295.810333 122.548919 
L 295.954623 120.415878 
L 295.971843 118.297456 
L 295.848472 116.1982 
L 295.54145 114.007487 
L 294.983986 111.8135 
L 294.198466 109.765128 
L 293.233678 107.856905 
L 292.129613 106.073152 
L 290.917742 104.394666 
L 288.267547 101.280871 
L 285.448447 98.395057 
L 278.625557 91.732809 
L 276.371506 89.225695 
L 274.587578 86.833856 
L 273.102817 84.135072 
L 271.766466 81.161063 
L 270.569748 78.035191 
L 268.974663 73.099429 
L 267.057521 66.159639 
L 264.602413 57.131824 
L 263.507407 53.568 
L 263.507407 53.568 
" style="fill:none;stroke:#ffffff;stroke-linecap:square;"/>
   </g>
   <g id="patch_3">
    <path d="M 57.6 307.584 
L 57.6 41.472 
" style="fill:none;stroke:#000000;stroke-linecap:square;stroke-linejoin:miter;stroke-width:0.8;"/>
   </g>
   <g id="patch_4">
    <path d="M 414.72 307.584 
L 414.72 41.472 
" style="fill:none;stroke:#000000;stroke-linecap:square;stroke-linejoin:miter;stroke-width:0.8;"/>
   </g>
   <g id="patch_5">
    <path d="M 57.6 307.584 
L 414.72 307.584 
" style="fill:none;stroke:#000000;stroke-linecap:square;stroke-linejoin:miter;stroke-width:0.8;"/>
   </g>
   <g id="patch_6">
    <path d="M 57.6 41.472 
L 414.72 41.472 
" style="fill:none;stroke:#000000;stroke-linecap:square;stroke-linejoin:miter;stroke-width:0.8;"/>
   </g>
  </g>
 </g>
 <defs>
  <clipPath id="p36e36f7ae1">
   <rect height="266.112" width="357.12" x="57.6" y="41.472"/>
  </clipPath>
 </defs>
</svg>
