<?xml version="1.0" encoding="utf-8" standalone="no"?>
<!DOCTYPE svg PUBLIC "-//W3C//DTD SVG 1.1//EN"
  "http://www.w3.org/Graphics/SVG/1.1/DTD/svg11.dtd">
<!-- Created with matplotlib (https://matplotlib.org/) -->
<svg height="345.6pt" version="1.1" viewBox="0 0 460.8 345.6" width="460.8pt" xmlns="http://www.w3.org/2000/svg" xmlns:xlink="http://www.w3.org/1999/xlink">
 <metadata>
  <rdf:RDF xmlns:cc="http://creativecommons.org/ns#" xmlns:dc="http://purl.org/dc/elements/1.1/" xmlns:rdf="http://www.w3.org/1999/02/22-rdf-syntax-ns#">
   <cc:Work>
    <dc:type rdf:resource="http://purl.org/dc/dcmitype/StillImage"/>
    <dc:date>2021-06-27T08:58:40.850480</dc:date>
    <dc:format>image/svg+xml</dc:format>
    <dc:creator>
     <cc:Agent>
      <dc:title>Matplotlib v3.3.3, https://matplotlib.org/</dc:title>
     </cc:Agent>
    </dc:creator>
   </cc:Work>
  </rdf:RDF>
 </metadata>
 <defs>
  <style type="text/css">*{stroke-linecap:butt;stroke-linejoin:round;}</style>
 </defs>
 <g id="figure_1">
  <g id="patch_1">
   <path d="M 0 345.6 
L 460.8 345.6 
L 460.8 0 
L 0 0 
z
" style="fill:#ffffff;"/>
  </g>
  <g id="axes_1">
   <g id="patch_2">
    <path d="M 57.6 307.584 
L 414.72 307.584 
L 414.72 41.472 
L 57.6 41.472 
z
" style="fill:#7d9051;"/>
   </g>
   <g id="matplotlib.axis_1">
    <g id="xtick_1">
     <g id="line2d_1">
      <defs>
       <path d="M 0 0 
L 0 3.5 
" id="m265ed4ba81" style="stroke:#000000;stroke-width:0.8;"/>
      </defs>
      <g>
       <use style="stroke:#000000;stroke-width:0.8;" x="91.47437" xlink:href="#m265ed4ba81" y="307.584"/>
      </g>
     </g>
     <g id="text_1">
      <!-- −80 -->
      <g transform="translate(80.922026 322.182437)scale(0.1 -0.1)">
       <defs>
        <path d="M 10.59375 35.5 
L 73.1875 35.5 
L 73.1875 27.203125 
L 10.59375 27.203125 
z
" id="DejaVuSans-8722"/>
        <path d="M 31.78125 34.625 
Q 24.75 34.625 20.71875 30.859375 
Q 16.703125 27.09375 16.703125 20.515625 
Q 16.703125 13.921875 20.71875 10.15625 
Q 24.75 6.390625 31.78125 6.390625 
Q 38.8125 6.390625 42.859375 10.171875 
Q 46.921875 13.96875 46.921875 20.515625 
Q 46.921875 27.09375 42.890625 30.859375 
Q 38.875 34.625 31.78125 34.625 
z
M 21.921875 38.8125 
Q 15.578125 40.375 12.03125 44.71875 
Q 8.5 49.078125 8.5 55.328125 
Q 8.5 64.0625 14.71875 69.140625 
Q 20.953125 74.21875 31.78125 74.21875 
Q 42.671875 74.21875 48.875 69.140625 
Q 55.078125 64.0625 55.078125 55.328125 
Q 55.078125 49.078125 51.53125 44.71875 
Q 48 40.375 41.703125 38.8125 
Q 48.828125 37.15625 52.796875 32.3125 
Q 56.78125 27.484375 56.78125 20.515625 
Q 56.78125 9.90625 50.3125 4.234375 
Q 43.84375 -1.421875 31.78125 -1.421875 
Q 19.734375 -1.421875 13.25 4.234375 
Q 6.78125 9.90625 6.78125 20.515625 
Q 6.78125 27.484375 10.78125 32.3125 
Q 14.796875 37.15625 21.921875 38.8125 
z
M 18.3125 54.390625 
Q 18.3125 48.734375 21.84375 45.5625 
Q 25.390625 42.390625 31.78125 42.390625 
Q 38.140625 42.390625 41.71875 45.5625 
Q 45.3125 48.734375 45.3125 54.390625 
Q 45.3125 60.0625 41.71875 63.234375 
Q 38.140625 66.40625 31.78125 66.40625 
Q 25.390625 66.40625 21.84375 63.234375 
Q 18.3125 60.0625 18.3125 54.390625 
z
" id="DejaVuSans-56"/>
        <path d="M 31.78125 66.40625 
Q 24.171875 66.40625 20.328125 58.90625 
Q 16.5 51.421875 16.5 36.375 
Q 16.5 21.390625 20.328125 13.890625 
Q 24.171875 6.390625 31.78125 6.390625 
Q 39.453125 6.390625 43.28125 13.890625 
Q 47.125 21.390625 47.125 36.375 
Q 47.125 51.421875 43.28125 58.90625 
Q 39.453125 66.40625 31.78125 66.40625 
z
M 31.78125 74.21875 
Q 44.046875 74.21875 50.515625 64.515625 
Q 56.984375 54.828125 56.984375 36.375 
Q 56.984375 17.96875 50.515625 8.265625 
Q 44.046875 -1.421875 31.78125 -1.421875 
Q 19.53125 -1.421875 13.0625 8.265625 
Q 6.59375 17.96875 6.59375 36.375 
Q 6.59375 54.828125 13.0625 64.515625 
Q 19.53125 74.21875 31.78125 74.21875 
z
" id="DejaVuSans-48"/>
       </defs>
       <use xlink:href="#DejaVuSans-8722"/>
       <use x="83.789062" xlink:href="#DejaVuSans-56"/>
       <use x="147.412109" xlink:href="#DejaVuSans-48"/>
      </g>
     </g>
    </g>
    <g id="xtick_2">
     <g id="line2d_2">
      <g>
       <use style="stroke:#000000;stroke-width:0.8;" x="133.461145" xlink:href="#m265ed4ba81" y="307.584"/>
      </g>
     </g>
     <g id="text_2">
      <!-- −60 -->
      <g transform="translate(122.908801 322.182437)scale(0.1 -0.1)">
       <defs>
        <path d="M 33.015625 40.375 
Q 26.375 40.375 22.484375 35.828125 
Q 18.609375 31.296875 18.609375 23.390625 
Q 18.609375 15.53125 22.484375 10.953125 
Q 26.375 6.390625 33.015625 6.390625 
Q 39.65625 6.390625 43.53125 10.953125 
Q 47.40625 15.53125 47.40625 23.390625 
Q 47.40625 31.296875 43.53125 35.828125 
Q 39.65625 40.375 33.015625 40.375 
z
M 52.59375 71.296875 
L 52.59375 62.3125 
Q 48.875 64.0625 45.09375 64.984375 
Q 41.3125 65.921875 37.59375 65.921875 
Q 27.828125 65.921875 22.671875 59.328125 
Q 17.53125 52.734375 16.796875 39.40625 
Q 19.671875 43.65625 24.015625 45.921875 
Q 28.375 48.1875 33.59375 48.1875 
Q 44.578125 48.1875 50.953125 41.515625 
Q 57.328125 34.859375 57.328125 23.390625 
Q 57.328125 12.15625 50.6875 5.359375 
Q 44.046875 -1.421875 33.015625 -1.421875 
Q 20.359375 -1.421875 13.671875 8.265625 
Q 6.984375 17.96875 6.984375 36.375 
Q 6.984375 53.65625 15.1875 63.9375 
Q 23.390625 74.21875 37.203125 74.21875 
Q 40.921875 74.21875 44.703125 73.484375 
Q 48.484375 72.75 52.59375 71.296875 
z
" id="DejaVuSans-54"/>
       </defs>
       <use xlink:href="#DejaVuSans-8722"/>
       <use x="83.789062" xlink:href="#DejaVuSans-54"/>
       <use x="147.412109" xlink:href="#DejaVuSans-48"/>
      </g>
     </g>
    </g>
    <g id="xtick_3">
     <g id="line2d_3">
      <g>
       <use style="stroke:#000000;stroke-width:0.8;" x="175.447921" xlink:href="#m265ed4ba81" y="307.584"/>
      </g>
     </g>
     <g id="text_3">
      <!-- −40 -->
      <g transform="translate(164.895577 322.182437)scale(0.1 -0.1)">
       <defs>
        <path d="M 37.796875 64.3125 
L 12.890625 25.390625 
L 37.796875 25.390625 
z
M 35.203125 72.90625 
L 47.609375 72.90625 
L 47.609375 25.390625 
L 58.015625 25.390625 
L 58.015625 17.1875 
L 47.609375 17.1875 
L 47.609375 0 
L 37.796875 0 
L 37.796875 17.1875 
L 4.890625 17.1875 
L 4.890625 26.703125 
z
" id="DejaVuSans-52"/>
       </defs>
       <use xlink:href="#DejaVuSans-8722"/>
       <use x="83.789062" xlink:href="#DejaVuSans-52"/>
       <use x="147.412109" xlink:href="#DejaVuSans-48"/>
      </g>
     </g>
    </g>
    <g id="xtick_4">
     <g id="line2d_4">
      <g>
       <use style="stroke:#000000;stroke-width:0.8;" x="217.434696" xlink:href="#m265ed4ba81" y="307.584"/>
      </g>
     </g>
     <g id="text_4">
      <!-- −20 -->
      <g transform="translate(206.882353 322.182437)scale(0.1 -0.1)">
       <defs>
        <path d="M 19.1875 8.296875 
L 53.609375 8.296875 
L 53.609375 0 
L 7.328125 0 
L 7.328125 8.296875 
Q 12.9375 14.109375 22.625 23.890625 
Q 32.328125 33.6875 34.8125 36.53125 
Q 39.546875 41.84375 41.421875 45.53125 
Q 43.3125 49.21875 43.3125 52.78125 
Q 43.3125 58.59375 39.234375 62.25 
Q 35.15625 65.921875 28.609375 65.921875 
Q 23.96875 65.921875 18.8125 64.3125 
Q 13.671875 62.703125 7.8125 59.421875 
L 7.8125 69.390625 
Q 13.765625 71.78125 18.9375 73 
Q 24.125 74.21875 28.421875 74.21875 
Q 39.75 74.21875 46.484375 68.546875 
Q 53.21875 62.890625 53.21875 53.421875 
Q 53.21875 48.921875 51.53125 44.890625 
Q 49.859375 40.875 45.40625 35.40625 
Q 44.1875 33.984375 37.640625 27.21875 
Q 31.109375 20.453125 19.1875 8.296875 
z
" id="DejaVuSans-50"/>
       </defs>
       <use xlink:href="#DejaVuSans-8722"/>
       <use x="83.789062" xlink:href="#DejaVuSans-50"/>
       <use x="147.412109" xlink:href="#DejaVuSans-48"/>
      </g>
     </g>
    </g>
    <g id="xtick_5">
     <g id="line2d_5">
      <g>
       <use style="stroke:#000000;stroke-width:0.8;" x="259.421472" xlink:href="#m265ed4ba81" y="307.584"/>
      </g>
     </g>
     <g id="text_5">
      <!-- 0 -->
      <g transform="translate(256.240222 322.182437)scale(0.1 -0.1)">
       <use xlink:href="#DejaVuSans-48"/>
      </g>
     </g>
    </g>
    <g id="xtick_6">
     <g id="line2d_6">
      <g>
       <use style="stroke:#000000;stroke-width:0.8;" x="301.408247" xlink:href="#m265ed4ba81" y="307.584"/>
      </g>
     </g>
     <g id="text_6">
      <!-- 20 -->
      <g transform="translate(295.045747 322.182437)scale(0.1 -0.1)">
       <use xlink:href="#DejaVuSans-50"/>
       <use x="63.623047" xlink:href="#DejaVuSans-48"/>
      </g>
     </g>
    </g>
    <g id="xtick_7">
     <g id="line2d_7">
      <g>
       <use style="stroke:#000000;stroke-width:0.8;" x="343.395023" xlink:href="#m265ed4ba81" y="307.584"/>
      </g>
     </g>
     <g id="text_7">
      <!-- 40 -->
      <g transform="translate(337.032523 322.182437)scale(0.1 -0.1)">
       <use xlink:href="#DejaVuSans-52"/>
       <use x="63.623047" xlink:href="#DejaVuSans-48"/>
      </g>
     </g>
    </g>
    <g id="xtick_8">
     <g id="line2d_8">
      <g>
       <use style="stroke:#000000;stroke-width:0.8;" x="385.381799" xlink:href="#m265ed4ba81" y="307.584"/>
      </g>
     </g>
     <g id="text_8">
      <!-- 60 -->
      <g transform="translate(379.019299 322.182437)scale(0.1 -0.1)">
       <use xlink:href="#DejaVuSans-54"/>
       <use x="63.623047" xlink:href="#DejaVuSans-48"/>
      </g>
     </g>
    </g>
   </g>
   <g id="matplotlib.axis_2">
    <g id="ytick_1">
     <g id="line2d_9">
      <defs>
       <path d="M 0 0 
L -3.5 0 
" id="m9835f93b43" style="stroke:#000000;stroke-width:0.8;"/>
      </defs>
      <g>
       <use style="stroke:#000000;stroke-width:0.8;" x="57.6" xlink:href="#m9835f93b43" y="295.40721"/>
      </g>
     </g>
     <g id="text_9">
      <!-- 0 -->
      <g transform="translate(44.2375 299.206428)scale(0.1 -0.1)">
       <use xlink:href="#DejaVuSans-48"/>
      </g>
     </g>
    </g>
    <g id="ytick_2">
     <g id="line2d_10">
      <g>
       <use style="stroke:#000000;stroke-width:0.8;" x="57.6" xlink:href="#m9835f93b43" y="253.420434"/>
      </g>
     </g>
     <g id="text_10">
      <!-- 20 -->
      <g transform="translate(37.875 257.219653)scale(0.1 -0.1)">
       <use xlink:href="#DejaVuSans-50"/>
       <use x="63.623047" xlink:href="#DejaVuSans-48"/>
      </g>
     </g>
    </g>
    <g id="ytick_3">
     <g id="line2d_11">
      <g>
       <use style="stroke:#000000;stroke-width:0.8;" x="57.6" xlink:href="#m9835f93b43" y="211.433658"/>
      </g>
     </g>
     <g id="text_11">
      <!-- 40 -->
      <g transform="translate(37.875 215.232877)scale(0.1 -0.1)">
       <use xlink:href="#DejaVuSans-52"/>
       <use x="63.623047" xlink:href="#DejaVuSans-48"/>
      </g>
     </g>
    </g>
    <g id="ytick_4">
     <g id="line2d_12">
      <g>
       <use style="stroke:#000000;stroke-width:0.8;" x="57.6" xlink:href="#m9835f93b43" y="169.446883"/>
      </g>
     </g>
     <g id="text_12">
      <!-- 60 -->
      <g transform="translate(37.875 173.246102)scale(0.1 -0.1)">
       <use xlink:href="#DejaVuSans-54"/>
       <use x="63.623047" xlink:href="#DejaVuSans-48"/>
      </g>
     </g>
    </g>
    <g id="ytick_5">
     <g id="line2d_13">
      <g>
       <use style="stroke:#000000;stroke-width:0.8;" x="57.6" xlink:href="#m9835f93b43" y="127.460107"/>
      </g>
     </g>
     <g id="text_13">
      <!-- 80 -->
      <g transform="translate(37.875 131.259326)scale(0.1 -0.1)">
       <use xlink:href="#DejaVuSans-56"/>
       <use x="63.623047" xlink:href="#DejaVuSans-48"/>
      </g>
     </g>
    </g>
    <g id="ytick_6">
     <g id="line2d_14">
      <g>
       <use style="stroke:#000000;stroke-width:0.8;" x="57.6" xlink:href="#m9835f93b43" y="85.473332"/>
      </g>
     </g>
     <g id="text_14">
      <!-- 100 -->
      <g transform="translate(31.5125 89.27255)scale(0.1 -0.1)">
       <defs>
        <path d="M 12.40625 8.296875 
L 28.515625 8.296875 
L 28.515625 63.921875 
L 10.984375 60.40625 
L 10.984375 69.390625 
L 28.421875 72.90625 
L 38.28125 72.90625 
L 38.28125 8.296875 
L 54.390625 8.296875 
L 54.390625 0 
L 12.40625 0 
z
" id="DejaVuSans-49"/>
       </defs>
       <use xlink:href="#DejaVuSans-49"/>
       <use x="63.623047" xlink:href="#DejaVuSans-48"/>
       <use x="127.246094" xlink:href="#DejaVuSans-48"/>
      </g>
     </g>
    </g>
    <g id="ytick_7">
     <g id="line2d_15">
      <g>
       <use style="stroke:#000000;stroke-width:0.8;" x="57.6" xlink:href="#m9835f93b43" y="43.486556"/>
      </g>
     </g>
     <g id="text_15">
      <!-- 120 -->
      <g transform="translate(31.5125 47.285775)scale(0.1 -0.1)">
       <use xlink:href="#DejaVuSans-49"/>
       <use x="63.623047" xlink:href="#DejaVuSans-50"/>
       <use x="127.246094" xlink:href="#DejaVuSans-48"/>
      </g>
     </g>
    </g>
   </g>
   <g id="line2d_16">
    <path clip-path="url(#pa5a0cf23d4)" d="M 259.421472 295.40721 
L 259.742506 273.311708 
L 260.440364 240.14435 
L 260.919826 234.441999 
L 262.049425 225.697096 
L 263.233745 216.926678 
L 263.810488 211.178964 
L 264.046747 205.59002 
L 263.991595 202.876351 
L 263.7966 200.227891 
L 263.443523 197.653147 
L 262.914124 195.160622 
L 262.190162 192.758824 
L 261.253398 190.456258 
L 260.106755 188.221256 
L 258.774127 186.01911 
L 257.268726 183.85376 
L 255.603764 181.729144 
L 253.792452 179.649204 
L 251.848003 177.617879 
L 249.783629 175.63911 
L 245.347951 171.854996 
L 240.591114 168.328384 
L 235.618813 165.090792 
L 230.536744 162.173741 
L 225.450601 159.60875 
L 220.466081 157.42734 
L 217.935054 156.575048 
L 215.255088 155.975541 
L 212.448138 155.5962 
L 209.536157 155.404407 
L 206.541103 155.367545 
L 200.38959 155.628141 
L 185.093857 156.707653 
L 182.224587 156.735988 
L 179.469838 156.62569 
L 176.851564 156.344144 
L 174.391722 155.85873 
L 172.112264 155.136831 
L 170.035148 154.145828 
L 168.182327 152.853104 
L 166.49035 151.259705 
L 164.883844 149.405101 
L 163.366883 147.314315 
L 161.943542 145.012367 
L 160.617897 142.524278 
L 159.394021 139.875069 
L 158.275988 137.08976 
L 157.267875 134.193374 
L 156.373755 131.21093 
L 155.597703 128.167451 
L 154.943794 125.087956 
L 154.416101 121.997467 
L 154.018701 118.921004 
L 153.755667 115.88359 
L 153.631074 112.910244 
L 153.648997 110.025987 
L 153.81351 107.255842 
L 154.128688 104.624827 
L 154.598606 102.157966 
L 155.257227 99.735893 
L 156.126138 97.236115 
L 157.190849 94.67896 
L 158.43687 92.084755 
L 159.84971 89.473827 
L 161.414879 86.866504 
L 163.117887 84.283112 
L 164.944242 81.743979 
L 166.879455 79.269432 
L 168.909035 76.879799 
L 171.018492 74.595406 
L 173.193335 72.43658 
L 175.419074 70.42365 
L 177.681218 68.576942 
L 179.965278 66.916784 
L 182.256762 65.463502 
L 184.541181 64.237424 
L 186.804044 63.258877 
L 189.03086 62.548188 
L 191.28193 62.119502 
L 193.621329 61.959726 
L 196.040226 62.048337 
L 198.529791 62.36481 
L 201.081196 62.888619 
L 203.685609 63.599242 
L 206.334201 64.476152 
L 211.728603 66.646738 
L 217.193762 69.236182 
L 222.659039 72.080285 
L 240.797642 81.835466 
L 243.230736 83.375203 
L 245.648596 85.08529 
L 250.43912 88.886458 
L 257.513807 95.052994 
L 262.157671 99.094548 
L 266.744638 102.777066 
L 269.017101 104.402401 
L 271.275718 105.840437 
L 273.520615 107.058659 
L 275.751918 108.024554 
L 277.969755 108.705608 
L 280.17425 109.069307 
L 282.36553 109.083138 
L 284.535926 108.738479 
L 286.679323 108.067157 
L 288.79818 107.097336 
L 290.894954 105.857178 
L 292.972105 104.374844 
L 295.03209 102.678499 
L 297.077367 100.796304 
L 301.133634 96.587015 
L 305.160571 91.972277 
L 315.228656 80.140127 
L 319.307812 75.880558 
L 321.368349 73.964843 
L 321.368349 73.964843 
" style="fill:none;stroke:#fea952;stroke-linecap:square;"/>
   </g>
   <g id="line2d_17">
    <path clip-path="url(#pa5a0cf23d4)" d="M 251.024505 295.326419 
L 251.346682 273.151354 
L 252.063904 239.552325 
L 252.579693 233.463349 
L 253.734165 224.525766 
L 254.887992 215.99717 
L 255.428332 210.673964 
L 255.651126 205.760653 
L 255.477104 201.368751 
L 255.2294 199.397784 
L 254.874076 197.584093 
L 254.411881 195.923301 
L 253.781947 194.289403 
L 252.922456 192.568832 
L 251.879307 190.812546 
L 250.65912 189.0334 
L 249.271097 187.243934 
L 247.726324 185.455896 
L 244.217005 181.926261 
L 240.239231 178.519571 
L 235.907669 175.298385 
L 231.339972 172.316239 
L 226.655922 169.620538 
L 221.978273 167.254567 
L 217.786234 165.385606 
L 216.101877 164.769866 
L 214.130464 164.297247 
L 211.896256 163.9754 
L 209.432814 163.801127 
L 206.775801 163.76162 
L 201.014365 164.002222 
L 185.176777 165.104599 
L 181.888635 165.12662 
L 178.572035 164.974913 
L 175.225822 164.582623 
L 171.856403 163.864211 
L 168.496311 162.715779 
L 165.23019 161.032624 
L 162.425256 158.966344 
L 160.143177 156.757793 
L 158.08702 154.336507 
L 156.224579 151.730544 
L 154.532461 148.960967 
L 152.994714 146.04602 
L 151.601049 143.003193 
L 150.345287 139.850112 
L 149.224213 136.604819 
L 148.236764 133.285769 
L 147.383494 129.911681 
L 146.666236 126.501325 
L 146.087941 123.073253 
L 145.652657 119.645487 
L 145.365675 116.235158 
L 145.233881 112.858064 
L 145.266411 109.528163 
L 145.475767 106.257035 
L 145.879666 103.053454 
L 146.495492 99.954531 
L 147.325384 96.97882 
L 148.373905 94.008352 
L 149.621354 91.04326 
L 151.051471 88.088325 
L 152.649982 85.15185 
L 154.403835 82.244727 
L 156.300828 79.379717 
L 158.329481 76.570923 
L 160.479054 73.8334 
L 162.739688 71.182893 
L 165.102652 68.635672 
L 167.56072 66.208481 
L 170.108681 63.918629 
L 172.74403 61.784318 
L 175.46782 59.825349 
L 178.285609 58.06448 
L 181.208144 56.529867 
L 184.250902 55.259062 
L 187.459927 54.299083 
L 190.709743 53.741664 
L 193.92874 53.568 
L 197.099172 53.718019 
L 200.218566 54.13902 
L 203.291635 54.787414 
L 206.324953 55.627451 
L 209.324182 56.62914 
L 212.292941 57.766344 
L 218.142115 60.353924 
L 223.858249 63.214351 
L 232.085737 67.64878 
L 239.677999 71.74836 
L 245.28812 74.739609 
L 248.07971 76.519328 
L 250.767948 78.428878 
L 255.891821 82.500253 
L 263.061006 88.748698 
L 267.509059 92.62321 
L 271.629777 95.946912 
L 275.280919 98.459791 
L 278.216973 99.997159 
L 280.227252 100.672119 
L 281.04853 100.789702 
L 282.026062 100.724981 
L 283.184461 100.431615 
L 284.523247 99.869575 
L 286.017023 99.021875 
L 287.634057 97.892498 
L 289.345723 96.499437 
L 291.129557 94.868477 
L 294.853864 91.012065 
L 298.733128 86.568246 
L 309.072624 74.428837 
L 313.590041 69.730544 
L 315.650578 67.814828 
L 315.650578 67.814828 
" style="fill:none;stroke:#ffffff;stroke-linecap:square;"/>
   </g>
   <g id="line2d_18">
    <path clip-path="url(#pa5a0cf23d4)" d="M 267.818438 295.488 
L 268.13833 273.472063 
L 268.816824 240.736374 
L 269.259959 235.420648 
L 270.364686 226.868427 
L 271.579498 217.856185 
L 272.192645 211.683963 
L 272.375239 208.56175 
L 272.442369 205.419387 
L 272.366282 202.259759 
L 272.116096 199.087032 
L 271.657646 195.90851 
L 270.954171 192.737152 
L 269.968443 189.594347 
L 268.724848 186.623113 
L 267.291054 183.87368 
L 265.668947 181.225675 
L 263.878332 178.674119 
L 261.936431 176.214355 
L 259.85858 173.842513 
L 257.658807 171.55569 
L 255.350252 169.351958 
L 252.945478 167.230284 
L 247.895772 163.232794 
L 242.604678 159.568627 
L 237.164879 156.250658 
L 231.666697 153.296782 
L 226.196475 150.728319 
L 223.145928 149.469074 
L 219.768232 148.380231 
L 216.379712 147.653835 
L 213.000019 147.216999 
L 209.639501 147.007688 
L 206.306405 146.973471 
L 199.764816 147.25406 
L 185.010937 148.310708 
L 180.367641 148.276468 
L 178.477307 148.105665 
L 175.728218 147.557883 
L 174.840106 147.259032 
L 173.939398 146.739864 
L 172.837522 145.761617 
L 171.680667 144.473696 
L 170.509186 142.898087 
L 169.354624 141.063767 
L 168.241079 139.002536 
L 167.186992 136.746944 
L 166.20669 134.329408 
L 165.311538 131.781929 
L 164.510746 129.136092 
L 163.811912 126.42322 
L 163.221351 123.674586 
L 162.384745 118.196522 
L 162.145659 115.532022 
L 162.028267 112.962424 
L 162.031583 110.523812 
L 162.151253 108.254648 
L 162.37771 106.196201 
L 162.701719 104.3614 
L 163.189069 102.492965 
L 163.878371 100.463878 
L 164.760345 98.314659 
L 165.82227 96.081184 
L 167.049439 93.795804 
L 168.425924 91.488281 
L 169.934946 89.186507 
L 171.559003 86.917035 
L 173.279855 84.705464 
L 175.078382 82.576704 
L 176.934331 80.555139 
L 178.825949 78.66468 
L 180.729466 76.928672 
L 182.618407 75.369566 
L 184.462735 74.008218 
L 186.227916 72.862523 
L 187.874218 71.944981 
L 190.601793 70.797294 
L 191.854117 70.49734 
L 193.313917 70.351453 
L 194.981279 70.378656 
L 196.841016 70.590599 
L 198.870757 70.989825 
L 201.046266 71.571032 
L 203.344221 72.323163 
L 208.224663 74.278119 
L 213.368675 76.711761 
L 218.663752 79.466302 
L 238.381762 90.231078 
L 240.529244 91.741701 
L 244.986419 95.272664 
L 251.966608 101.357291 
L 256.806284 105.565887 
L 261.8595 109.607219 
L 264.507128 111.485883 
L 267.270516 113.221083 
L 270.184682 114.764963 
L 273.286863 116.051949 
L 276.60283 116.990962 
L 280.121247 117.466495 
L 283.68253 117.376575 
L 287.045789 116.751977 
L 290.174185 115.7027 
L 293.073112 114.325097 
L 295.772885 112.69248 
L 298.310153 110.857191 
L 300.718457 108.857561 
L 303.025177 106.724131 
L 307.413404 102.161965 
L 311.588013 97.376308 
L 321.384688 85.851418 
L 325.025582 82.030572 
L 327.086119 80.114857 
L 327.086119 80.114857 
" style="fill:none;stroke:#ffffff;stroke-linecap:square;"/>
   </g>
   <g id="patch_3">
    <path d="M 57.6 307.584 
L 57.6 41.472 
" style="fill:none;stroke:#000000;stroke-linecap:square;stroke-linejoin:miter;stroke-width:0.8;"/>
   </g>
   <g id="patch_4">
    <path d="M 414.72 307.584 
L 414.72 41.472 
" style="fill:none;stroke:#000000;stroke-linecap:square;stroke-linejoin:miter;stroke-width:0.8;"/>
   </g>
   <g id="patch_5">
    <path d="M 57.6 307.584 
L 414.72 307.584 
" style="fill:none;stroke:#000000;stroke-linecap:square;stroke-linejoin:miter;stroke-width:0.8;"/>
   </g>
   <g id="patch_6">
    <path d="M 57.6 41.472 
L 414.72 41.472 
" style="fill:none;stroke:#000000;stroke-linecap:square;stroke-linejoin:miter;stroke-width:0.8;"/>
   </g>
  </g>
 </g>
 <defs>
  <clipPath id="pa5a0cf23d4">
   <rect height="266.112" width="357.12" x="57.6" y="41.472"/>
  </clipPath>
 </defs>
</svg>
