<?xml version="1.0" encoding="utf-8" standalone="no"?>
<!DOCTYPE svg PUBLIC "-//W3C//DTD SVG 1.1//EN"
  "http://www.w3.org/Graphics/SVG/1.1/DTD/svg11.dtd">
<!-- Created with matplotlib (https://matplotlib.org/) -->
<svg height="345.6pt" version="1.1" viewBox="0 0 460.8 345.6" width="460.8pt" xmlns="http://www.w3.org/2000/svg" xmlns:xlink="http://www.w3.org/1999/xlink">
 <metadata>
  <rdf:RDF xmlns:cc="http://creativecommons.org/ns#" xmlns:dc="http://purl.org/dc/elements/1.1/" xmlns:rdf="http://www.w3.org/1999/02/22-rdf-syntax-ns#">
   <cc:Work>
    <dc:type rdf:resource="http://purl.org/dc/dcmitype/StillImage"/>
    <dc:date>2021-05-28T14:44:31.462002</dc:date>
    <dc:format>image/svg+xml</dc:format>
    <dc:creator>
     <cc:Agent>
      <dc:title>Matplotlib v3.3.3, https://matplotlib.org/</dc:title>
     </cc:Agent>
    </dc:creator>
   </cc:Work>
  </rdf:RDF>
 </metadata>
 <defs>
  <style type="text/css">*{stroke-linecap:butt;stroke-linejoin:round;}</style>
 </defs>
 <g id="figure_1">
  <g id="patch_1">
   <path d="M 0 345.6 
L 460.8 345.6 
L 460.8 0 
L 0 0 
z
" style="fill:#ffffff;"/>
  </g>
  <g id="axes_1">
   <g id="patch_2">
    <path d="M 57.6 307.584 
L 414.72 307.584 
L 414.72 41.472 
L 57.6 41.472 
z
" style="fill:#7d9051;"/>
   </g>
   <g id="matplotlib.axis_1">
    <g id="xtick_1">
     <g id="line2d_1">
      <defs>
       <path d="M 0 0 
L 0 3.5 
" id="m12072ade9a" style="stroke:#000000;stroke-width:0.8;"/>
      </defs>
      <g>
       <use style="stroke:#000000;stroke-width:0.8;" x="60.223871" xlink:href="#m12072ade9a" y="307.584"/>
      </g>
     </g>
     <g id="text_1">
      <!-- −140 -->
      <g transform="translate(46.490277 322.182437)scale(0.1 -0.1)">
       <defs>
        <path d="M 10.59375 35.5 
L 73.1875 35.5 
L 73.1875 27.203125 
L 10.59375 27.203125 
z
" id="DejaVuSans-8722"/>
        <path d="M 12.40625 8.296875 
L 28.515625 8.296875 
L 28.515625 63.921875 
L 10.984375 60.40625 
L 10.984375 69.390625 
L 28.421875 72.90625 
L 38.28125 72.90625 
L 38.28125 8.296875 
L 54.390625 8.296875 
L 54.390625 0 
L 12.40625 0 
z
" id="DejaVuSans-49"/>
        <path d="M 37.796875 64.3125 
L 12.890625 25.390625 
L 37.796875 25.390625 
z
M 35.203125 72.90625 
L 47.609375 72.90625 
L 47.609375 25.390625 
L 58.015625 25.390625 
L 58.015625 17.1875 
L 47.609375 17.1875 
L 47.609375 0 
L 37.796875 0 
L 37.796875 17.1875 
L 4.890625 17.1875 
L 4.890625 26.703125 
z
" id="DejaVuSans-52"/>
        <path d="M 31.78125 66.40625 
Q 24.171875 66.40625 20.328125 58.90625 
Q 16.5 51.421875 16.5 36.375 
Q 16.5 21.390625 20.328125 13.890625 
Q 24.171875 6.390625 31.78125 6.390625 
Q 39.453125 6.390625 43.28125 13.890625 
Q 47.125 21.390625 47.125 36.375 
Q 47.125 51.421875 43.28125 58.90625 
Q 39.453125 66.40625 31.78125 66.40625 
z
M 31.78125 74.21875 
Q 44.046875 74.21875 50.515625 64.515625 
Q 56.984375 54.828125 56.984375 36.375 
Q 56.984375 17.96875 50.515625 8.265625 
Q 44.046875 -1.421875 31.78125 -1.421875 
Q 19.53125 -1.421875 13.0625 8.265625 
Q 6.59375 17.96875 6.59375 36.375 
Q 6.59375 54.828125 13.0625 64.515625 
Q 19.53125 74.21875 31.78125 74.21875 
z
" id="DejaVuSans-48"/>
       </defs>
       <use xlink:href="#DejaVuSans-8722"/>
       <use x="83.789062" xlink:href="#DejaVuSans-49"/>
       <use x="147.412109" xlink:href="#DejaVuSans-52"/>
       <use x="211.035156" xlink:href="#DejaVuSans-48"/>
      </g>
     </g>
    </g>
    <g id="xtick_2">
     <g id="line2d_2">
      <g>
       <use style="stroke:#000000;stroke-width:0.8;" x="102.945889" xlink:href="#m12072ade9a" y="307.584"/>
      </g>
     </g>
     <g id="text_2">
      <!-- −120 -->
      <g transform="translate(89.212295 322.182437)scale(0.1 -0.1)">
       <defs>
        <path d="M 19.1875 8.296875 
L 53.609375 8.296875 
L 53.609375 0 
L 7.328125 0 
L 7.328125 8.296875 
Q 12.9375 14.109375 22.625 23.890625 
Q 32.328125 33.6875 34.8125 36.53125 
Q 39.546875 41.84375 41.421875 45.53125 
Q 43.3125 49.21875 43.3125 52.78125 
Q 43.3125 58.59375 39.234375 62.25 
Q 35.15625 65.921875 28.609375 65.921875 
Q 23.96875 65.921875 18.8125 64.3125 
Q 13.671875 62.703125 7.8125 59.421875 
L 7.8125 69.390625 
Q 13.765625 71.78125 18.9375 73 
Q 24.125 74.21875 28.421875 74.21875 
Q 39.75 74.21875 46.484375 68.546875 
Q 53.21875 62.890625 53.21875 53.421875 
Q 53.21875 48.921875 51.53125 44.890625 
Q 49.859375 40.875 45.40625 35.40625 
Q 44.1875 33.984375 37.640625 27.21875 
Q 31.109375 20.453125 19.1875 8.296875 
z
" id="DejaVuSans-50"/>
       </defs>
       <use xlink:href="#DejaVuSans-8722"/>
       <use x="83.789062" xlink:href="#DejaVuSans-49"/>
       <use x="147.412109" xlink:href="#DejaVuSans-50"/>
       <use x="211.035156" xlink:href="#DejaVuSans-48"/>
      </g>
     </g>
    </g>
    <g id="xtick_3">
     <g id="line2d_3">
      <g>
       <use style="stroke:#000000;stroke-width:0.8;" x="145.667906" xlink:href="#m12072ade9a" y="307.584"/>
      </g>
     </g>
     <g id="text_3">
      <!-- −100 -->
      <g transform="translate(131.934312 322.182437)scale(0.1 -0.1)">
       <use xlink:href="#DejaVuSans-8722"/>
       <use x="83.789062" xlink:href="#DejaVuSans-49"/>
       <use x="147.412109" xlink:href="#DejaVuSans-48"/>
       <use x="211.035156" xlink:href="#DejaVuSans-48"/>
      </g>
     </g>
    </g>
    <g id="xtick_4">
     <g id="line2d_4">
      <g>
       <use style="stroke:#000000;stroke-width:0.8;" x="188.389924" xlink:href="#m12072ade9a" y="307.584"/>
      </g>
     </g>
     <g id="text_4">
      <!-- −80 -->
      <g transform="translate(177.83758 322.182437)scale(0.1 -0.1)">
       <defs>
        <path d="M 31.78125 34.625 
Q 24.75 34.625 20.71875 30.859375 
Q 16.703125 27.09375 16.703125 20.515625 
Q 16.703125 13.921875 20.71875 10.15625 
Q 24.75 6.390625 31.78125 6.390625 
Q 38.8125 6.390625 42.859375 10.171875 
Q 46.921875 13.96875 46.921875 20.515625 
Q 46.921875 27.09375 42.890625 30.859375 
Q 38.875 34.625 31.78125 34.625 
z
M 21.921875 38.8125 
Q 15.578125 40.375 12.03125 44.71875 
Q 8.5 49.078125 8.5 55.328125 
Q 8.5 64.0625 14.71875 69.140625 
Q 20.953125 74.21875 31.78125 74.21875 
Q 42.671875 74.21875 48.875 69.140625 
Q 55.078125 64.0625 55.078125 55.328125 
Q 55.078125 49.078125 51.53125 44.71875 
Q 48 40.375 41.703125 38.8125 
Q 48.828125 37.15625 52.796875 32.3125 
Q 56.78125 27.484375 56.78125 20.515625 
Q 56.78125 9.90625 50.3125 4.234375 
Q 43.84375 -1.421875 31.78125 -1.421875 
Q 19.734375 -1.421875 13.25 4.234375 
Q 6.78125 9.90625 6.78125 20.515625 
Q 6.78125 27.484375 10.78125 32.3125 
Q 14.796875 37.15625 21.921875 38.8125 
z
M 18.3125 54.390625 
Q 18.3125 48.734375 21.84375 45.5625 
Q 25.390625 42.390625 31.78125 42.390625 
Q 38.140625 42.390625 41.71875 45.5625 
Q 45.3125 48.734375 45.3125 54.390625 
Q 45.3125 60.0625 41.71875 63.234375 
Q 38.140625 66.40625 31.78125 66.40625 
Q 25.390625 66.40625 21.84375 63.234375 
Q 18.3125 60.0625 18.3125 54.390625 
z
" id="DejaVuSans-56"/>
       </defs>
       <use xlink:href="#DejaVuSans-8722"/>
       <use x="83.789062" xlink:href="#DejaVuSans-56"/>
       <use x="147.412109" xlink:href="#DejaVuSans-48"/>
      </g>
     </g>
    </g>
    <g id="xtick_5">
     <g id="line2d_5">
      <g>
       <use style="stroke:#000000;stroke-width:0.8;" x="231.111941" xlink:href="#m12072ade9a" y="307.584"/>
      </g>
     </g>
     <g id="text_5">
      <!-- −60 -->
      <g transform="translate(220.559598 322.182437)scale(0.1 -0.1)">
       <defs>
        <path d="M 33.015625 40.375 
Q 26.375 40.375 22.484375 35.828125 
Q 18.609375 31.296875 18.609375 23.390625 
Q 18.609375 15.53125 22.484375 10.953125 
Q 26.375 6.390625 33.015625 6.390625 
Q 39.65625 6.390625 43.53125 10.953125 
Q 47.40625 15.53125 47.40625 23.390625 
Q 47.40625 31.296875 43.53125 35.828125 
Q 39.65625 40.375 33.015625 40.375 
z
M 52.59375 71.296875 
L 52.59375 62.3125 
Q 48.875 64.0625 45.09375 64.984375 
Q 41.3125 65.921875 37.59375 65.921875 
Q 27.828125 65.921875 22.671875 59.328125 
Q 17.53125 52.734375 16.796875 39.40625 
Q 19.671875 43.65625 24.015625 45.921875 
Q 28.375 48.1875 33.59375 48.1875 
Q 44.578125 48.1875 50.953125 41.515625 
Q 57.328125 34.859375 57.328125 23.390625 
Q 57.328125 12.15625 50.6875 5.359375 
Q 44.046875 -1.421875 33.015625 -1.421875 
Q 20.359375 -1.421875 13.671875 8.265625 
Q 6.984375 17.96875 6.984375 36.375 
Q 6.984375 53.65625 15.1875 63.9375 
Q 23.390625 74.21875 37.203125 74.21875 
Q 40.921875 74.21875 44.703125 73.484375 
Q 48.484375 72.75 52.59375 71.296875 
z
" id="DejaVuSans-54"/>
       </defs>
       <use xlink:href="#DejaVuSans-8722"/>
       <use x="83.789062" xlink:href="#DejaVuSans-54"/>
       <use x="147.412109" xlink:href="#DejaVuSans-48"/>
      </g>
     </g>
    </g>
    <g id="xtick_6">
     <g id="line2d_6">
      <g>
       <use style="stroke:#000000;stroke-width:0.8;" x="273.833959" xlink:href="#m12072ade9a" y="307.584"/>
      </g>
     </g>
     <g id="text_6">
      <!-- −40 -->
      <g transform="translate(263.281615 322.182437)scale(0.1 -0.1)">
       <use xlink:href="#DejaVuSans-8722"/>
       <use x="83.789062" xlink:href="#DejaVuSans-52"/>
       <use x="147.412109" xlink:href="#DejaVuSans-48"/>
      </g>
     </g>
    </g>
    <g id="xtick_7">
     <g id="line2d_7">
      <g>
       <use style="stroke:#000000;stroke-width:0.8;" x="316.555976" xlink:href="#m12072ade9a" y="307.584"/>
      </g>
     </g>
     <g id="text_7">
      <!-- −20 -->
      <g transform="translate(306.003633 322.182437)scale(0.1 -0.1)">
       <use xlink:href="#DejaVuSans-8722"/>
       <use x="83.789062" xlink:href="#DejaVuSans-50"/>
       <use x="147.412109" xlink:href="#DejaVuSans-48"/>
      </g>
     </g>
    </g>
    <g id="xtick_8">
     <g id="line2d_8">
      <g>
       <use style="stroke:#000000;stroke-width:0.8;" x="359.277994" xlink:href="#m12072ade9a" y="307.584"/>
      </g>
     </g>
     <g id="text_8">
      <!-- 0 -->
      <g transform="translate(356.096744 322.182437)scale(0.1 -0.1)">
       <use xlink:href="#DejaVuSans-48"/>
      </g>
     </g>
    </g>
    <g id="xtick_9">
     <g id="line2d_9">
      <g>
       <use style="stroke:#000000;stroke-width:0.8;" x="402.000011" xlink:href="#m12072ade9a" y="307.584"/>
      </g>
     </g>
     <g id="text_9">
      <!-- 20 -->
      <g transform="translate(395.637511 322.182437)scale(0.1 -0.1)">
       <use xlink:href="#DejaVuSans-50"/>
       <use x="63.623047" xlink:href="#DejaVuSans-48"/>
      </g>
     </g>
    </g>
   </g>
   <g id="matplotlib.axis_2">
    <g id="ytick_1">
     <g id="line2d_10">
      <defs>
       <path d="M 0 0 
L -3.5 0 
" id="md81be5a81f" style="stroke:#000000;stroke-width:0.8;"/>
      </defs>
      <g>
       <use style="stroke:#000000;stroke-width:0.8;" x="57.6" xlink:href="#md81be5a81f" y="295.405795"/>
      </g>
     </g>
     <g id="text_10">
      <!-- 0 -->
      <g transform="translate(44.2375 299.205014)scale(0.1 -0.1)">
       <use xlink:href="#DejaVuSans-48"/>
      </g>
     </g>
    </g>
    <g id="ytick_2">
     <g id="line2d_11">
      <g>
       <use style="stroke:#000000;stroke-width:0.8;" x="57.6" xlink:href="#md81be5a81f" y="252.683777"/>
      </g>
     </g>
     <g id="text_11">
      <!-- 20 -->
      <g transform="translate(37.875 256.482996)scale(0.1 -0.1)">
       <use xlink:href="#DejaVuSans-50"/>
       <use x="63.623047" xlink:href="#DejaVuSans-48"/>
      </g>
     </g>
    </g>
    <g id="ytick_3">
     <g id="line2d_12">
      <g>
       <use style="stroke:#000000;stroke-width:0.8;" x="57.6" xlink:href="#md81be5a81f" y="209.96176"/>
      </g>
     </g>
     <g id="text_12">
      <!-- 40 -->
      <g transform="translate(37.875 213.760978)scale(0.1 -0.1)">
       <use xlink:href="#DejaVuSans-52"/>
       <use x="63.623047" xlink:href="#DejaVuSans-48"/>
      </g>
     </g>
    </g>
    <g id="ytick_4">
     <g id="line2d_13">
      <g>
       <use style="stroke:#000000;stroke-width:0.8;" x="57.6" xlink:href="#md81be5a81f" y="167.239742"/>
      </g>
     </g>
     <g id="text_13">
      <!-- 60 -->
      <g transform="translate(37.875 171.038961)scale(0.1 -0.1)">
       <use xlink:href="#DejaVuSans-54"/>
       <use x="63.623047" xlink:href="#DejaVuSans-48"/>
      </g>
     </g>
    </g>
    <g id="ytick_5">
     <g id="line2d_14">
      <g>
       <use style="stroke:#000000;stroke-width:0.8;" x="57.6" xlink:href="#md81be5a81f" y="124.517725"/>
      </g>
     </g>
     <g id="text_14">
      <!-- 80 -->
      <g transform="translate(37.875 128.316943)scale(0.1 -0.1)">
       <use xlink:href="#DejaVuSans-56"/>
       <use x="63.623047" xlink:href="#DejaVuSans-48"/>
      </g>
     </g>
    </g>
    <g id="ytick_6">
     <g id="line2d_15">
      <g>
       <use style="stroke:#000000;stroke-width:0.8;" x="57.6" xlink:href="#md81be5a81f" y="81.795707"/>
      </g>
     </g>
     <g id="text_15">
      <!-- 100 -->
      <g transform="translate(31.5125 85.594926)scale(0.1 -0.1)">
       <use xlink:href="#DejaVuSans-49"/>
       <use x="63.623047" xlink:href="#DejaVuSans-48"/>
       <use x="127.246094" xlink:href="#DejaVuSans-48"/>
      </g>
     </g>
    </g>
   </g>
   <g id="line2d_16">
    <path clip-path="url(#p9dc78a8547)" d="M 359.277994 295.405795 
L 359.60465 272.923373 
L 360.328262 239.148066 
L 360.910861 233.155839 
L 361.801075 226.927572 
L 363.766071 214.329411 
L 364.471715 208.242768 
L 364.674576 205.314517 
L 364.746699 202.486583 
L 364.665016 199.776669 
L 364.406454 197.202479 
L 363.947942 194.781716 
L 363.26641 192.532083 
L 362.338786 190.471282 
L 361.141999 188.617018 
L 359.660362 186.946004 
L 357.909018 185.419147 
L 355.91114 184.030441 
L 353.6899 182.773878 
L 351.268473 181.643451 
L 348.670032 180.633153 
L 345.917749 179.736978 
L 343.034798 178.948917 
L 340.044351 178.262963 
L 333.833667 177.173351 
L 327.47108 176.420083 
L 321.141976 175.955103 
L 315.031741 175.730354 
L 309.32576 175.697779 
L 303.857361 175.958148 
L 298.349285 176.613812 
L 292.821038 177.619079 
L 287.292125 178.928259 
L 281.782054 180.49566 
L 276.310328 182.275592 
L 270.896456 184.222363 
L 262.926789 187.355396 
L 257.742885 189.519368 
L 255.204716 190.69565 
L 252.710785 192.033934 
L 250.255812 193.510951 
L 245.441633 196.78811 
L 240.719958 200.340979 
L 231.385223 207.529245 
L 226.68772 210.792343 
L 224.312961 212.259693 
L 221.913828 213.586551 
L 219.485042 214.74965 
L 217.021326 215.72572 
L 214.517401 216.491493 
L 211.967989 217.0237 
L 209.315026 217.378825 
L 206.519602 217.628377 
L 203.605178 217.771627 
L 197.513174 217.736297 
L 191.226696 217.266996 
L 188.069181 216.867782 
L 184.933429 216.357884 
L 181.8429 215.736574 
L 178.821055 215.00312 
L 175.891355 214.156794 
L 173.077259 213.196865 
L 170.402228 212.122603 
L 167.889724 210.933278 
L 165.563205 209.62816 
L 163.446133 208.206518 
L 161.561968 206.667624 
L 159.934171 205.010747 
L 158.600151 203.173805 
L 157.561201 201.10938 
L 156.786603 198.838732 
L 156.24564 196.383123 
L 155.907596 193.763814 
L 155.741753 191.002067 
L 155.717394 188.119143 
L 155.970261 182.074811 
L 156.822252 169.467529 
L 156.929903 163.244763 
L 156.796633 160.228014 
L 156.497676 157.302702 
L 156.002316 154.490089 
L 155.279834 151.811438 
L 154.363212 149.231316 
L 153.314507 146.696971 
L 152.146615 144.203673 
L 149.504863 139.321318 
L 146.541139 134.546436 
L 143.358623 129.841215 
L 133.530134 115.765379 
L 130.504261 110.960664 
L 127.775502 106.036542 
L 124.109222 98.464228 
L 120.695544 90.763208 
L 116.401414 80.364007 
L 106.909475 56.879261 
L 106.909475 56.879261 
" style="fill:none;stroke:#fea952;stroke-linecap:square;"/>
   </g>
   <g id="line2d_17">
    <path clip-path="url(#p9dc78a8547)" d="M 350.733986 295.32359 
L 351.061804 272.760211 
L 351.812155 238.45327 
L 352.443477 232.011181 
L 353.36292 225.584301 
L 355.291308 213.24073 
L 355.947742 207.652254 
L 356.206175 202.744015 
L 356.163391 200.630607 
L 356.011313 198.792585 
L 355.474958 196.039234 
L 355.159812 195.104765 
L 354.74879 194.285679 
L 354.045442 193.386462 
L 353.032268 192.435139 
L 351.704064 191.467332 
L 350.075474 190.516148 
L 348.172138 189.60709 
L 346.02458 188.75771 
L 343.664774 187.979 
L 341.124481 187.277033 
L 335.624862 186.111034 
L 329.760187 185.254593 
L 323.750598 184.681874 
L 317.806227 184.356688 
L 312.131114 184.237439 
L 307.165362 184.301224 
L 302.256483 184.706163 
L 297.234145 185.459632 
L 292.124642 186.528605 
L 286.955062 187.876617 
L 281.752109 189.464524 
L 276.541475 191.251251 
L 268.763963 194.21121 
L 261.335617 197.27173 
L 259.244841 198.224543 
L 257.115686 199.355387 
L 252.753319 202.090009 
L 248.26352 205.327997 
L 233.812367 216.297454 
L 231.179044 218.061101 
L 228.44821 219.736761 
L 225.604245 221.29289 
L 222.632163 222.693356 
L 219.520202 223.896549 
L 216.263463 224.855589 
L 213.101629 225.492566 
L 210.074777 225.889384 
L 206.939069 226.162478 
L 203.707979 226.315412 
L 200.39692 226.349946 
L 197.02261 226.266607 
L 193.602605 226.064993 
L 190.154932 225.743915 
L 186.697807 225.301415 
L 183.249382 224.734687 
L 179.827542 224.039896 
L 176.449726 223.211874 
L 173.132809 222.243651 
L 169.89309 221.125793 
L 166.746516 219.845465 
L 163.709371 218.385222 
L 160.79985 216.721627 
L 158.041166 214.824159 
L 155.466912 212.655706 
L 153.020536 210.031552 
L 150.967794 207.014893 
L 149.474394 203.868074 
L 148.442278 200.676959 
L 147.771518 197.476781 
L 147.378557 194.275983 
L 147.197655 191.074259 
L 147.176574 187.871729 
L 147.446235 181.485046 
L 148.282721 169.179001 
L 148.393825 163.621859 
L 148.296502 161.096698 
L 148.082785 158.784742 
L 147.752715 156.715157 
L 147.228429 154.671805 
L 146.468052 152.498313 
L 145.576897 150.321364 
L 143.429666 145.943366 
L 140.852921 141.517474 
L 137.928574 137.026298 
L 133.095244 130.116791 
L 128.030203 122.900254 
L 124.704406 117.845241 
L 121.555184 112.533168 
L 118.828637 107.249692 
L 115.134439 99.36912 
L 111.709577 91.452359 
L 107.416775 80.91283 
L 100.122278 62.782186 
L 99.032776 60.190523 
L 99.032776 60.190523 
" style="fill:none;stroke:#ffffff;stroke-linecap:square;"/>
   </g>
   <g id="line2d_18">
    <path clip-path="url(#p9dc78a8547)" d="M 367.822002 295.488 
L 368.147495 273.086536 
L 368.84437 239.842863 
L 369.378245 234.300498 
L 370.23923 228.270842 
L 372.240833 215.418093 
L 372.995689 208.833283 
L 373.216201 205.532363 
L 373.287224 202.22915 
L 373.166641 198.922732 
L 372.801595 195.612374 
L 372.125321 192.304358 
L 371.057862 189.024932 
L 369.51776 185.837799 
L 367.535207 182.948357 
L 365.275282 180.505545 
L 362.785767 178.403155 
L 360.118215 176.59355 
L 357.304327 175.031607 
L 354.364808 173.679812 
L 351.315483 172.508597 
L 348.170724 171.494955 
L 344.945114 170.6208 
L 341.654127 169.871572 
L 334.943221 168.701296 
L 328.181971 167.905304 
L 321.526545 167.419359 
L 315.141078 167.18665 
L 309.081816 167.156858 
L 306.030116 167.250167 
L 299.957644 167.772685 
L 293.938783 168.69157 
L 287.986249 169.948466 
L 282.111969 171.488458 
L 276.328248 173.259307 
L 270.648408 175.210706 
L 262.355919 178.369357 
L 254.150153 181.767007 
L 251.164592 183.166757 
L 248.305883 184.71248 
L 245.56064 186.37217 
L 240.35909 189.919735 
L 235.470317 193.599458 
L 226.407544 200.584496 
L 222.196396 203.523585 
L 218.223411 205.880213 
L 216.337921 206.805944 
L 214.522449 207.554891 
L 212.771338 208.127398 
L 210.83435 208.554834 
L 206.100135 209.094276 
L 200.793511 209.265741 
L 195.162423 209.047523 
L 189.440555 208.434149 
L 183.858258 207.433251 
L 181.192384 206.794367 
L 178.6499 206.069937 
L 176.261427 205.267937 
L 174.057941 204.399741 
L 172.070077 203.481333 
L 170.32656 202.534692 
L 168.8511 201.588878 
L 166.847805 199.989941 
L 166.232508 199.332718 
L 165.648007 198.350686 
L 165.130928 197.000505 
L 164.719762 195.289465 
L 164.436636 193.251645 
L 164.285852 190.929875 
L 164.335604 185.600192 
L 164.943928 176.398664 
L 165.361782 169.756058 
L 165.472606 166.336393 
L 165.465981 162.867667 
L 165.296763 159.359329 
L 164.912567 155.820662 
L 164.251916 152.265022 
L 163.33124 148.95107 
L 162.258373 145.96432 
L 161.052116 143.072577 
L 159.731704 140.270068 
L 156.81955 134.905189 
L 153.653682 129.811611 
L 150.352497 124.932798 
L 140.707471 111.129362 
L 137.908546 106.696465 
L 135.416227 102.212126 
L 131.886761 94.926332 
L 128.564564 87.433741 
L 124.333046 77.186581 
L 114.786173 53.568 
L 114.786173 53.568 
" style="fill:none;stroke:#ffffff;stroke-linecap:square;"/>
   </g>
   <g id="patch_3">
    <path d="M 57.6 307.584 
L 57.6 41.472 
" style="fill:none;stroke:#000000;stroke-linecap:square;stroke-linejoin:miter;stroke-width:0.8;"/>
   </g>
   <g id="patch_4">
    <path d="M 414.72 307.584 
L 414.72 41.472 
" style="fill:none;stroke:#000000;stroke-linecap:square;stroke-linejoin:miter;stroke-width:0.8;"/>
   </g>
   <g id="patch_5">
    <path d="M 57.6 307.584 
L 414.72 307.584 
" style="fill:none;stroke:#000000;stroke-linecap:square;stroke-linejoin:miter;stroke-width:0.8;"/>
   </g>
   <g id="patch_6">
    <path d="M 57.6 41.472 
L 414.72 41.472 
" style="fill:none;stroke:#000000;stroke-linecap:square;stroke-linejoin:miter;stroke-width:0.8;"/>
   </g>
  </g>
 </g>
 <defs>
  <clipPath id="p9dc78a8547">
   <rect height="266.112" width="357.12" x="57.6" y="41.472"/>
  </clipPath>
 </defs>
</svg>
