<?xml version="1.0" encoding="utf-8" standalone="no"?>
<!DOCTYPE svg PUBLIC "-//W3C//DTD SVG 1.1//EN"
  "http://www.w3.org/Graphics/SVG/1.1/DTD/svg11.dtd">
<!-- Created with matplotlib (https://matplotlib.org/) -->
<svg height="345.6pt" version="1.1" viewBox="0 0 460.8 345.6" width="460.8pt" xmlns="http://www.w3.org/2000/svg" xmlns:xlink="http://www.w3.org/1999/xlink">
 <metadata>
  <rdf:RDF xmlns:cc="http://creativecommons.org/ns#" xmlns:dc="http://purl.org/dc/elements/1.1/" xmlns:rdf="http://www.w3.org/1999/02/22-rdf-syntax-ns#">
   <cc:Work>
    <dc:type rdf:resource="http://purl.org/dc/dcmitype/StillImage"/>
    <dc:date>2021-06-12T18:40:43.661231</dc:date>
    <dc:format>image/svg+xml</dc:format>
    <dc:creator>
     <cc:Agent>
      <dc:title>Matplotlib v3.3.3, https://matplotlib.org/</dc:title>
     </cc:Agent>
    </dc:creator>
   </cc:Work>
  </rdf:RDF>
 </metadata>
 <defs>
  <style type="text/css">*{stroke-linecap:butt;stroke-linejoin:round;}</style>
 </defs>
 <g id="figure_1">
  <g id="patch_1">
   <path d="M 0 345.6 
L 460.8 345.6 
L 460.8 0 
L 0 0 
z
" style="fill:#ffffff;"/>
  </g>
  <g id="axes_1">
   <g id="patch_2">
    <path d="M 57.6 307.584 
L 414.72 307.584 
L 414.72 41.472 
L 57.6 41.472 
z
" style="fill:#7d9051;"/>
   </g>
   <g id="matplotlib.axis_1">
    <g id="xtick_1">
     <g id="line2d_1">
      <defs>
       <path d="M 0 0 
L 0 3.5 
" id="m877a626d23" style="stroke:#000000;stroke-width:0.8;"/>
      </defs>
      <g>
       <use style="stroke:#000000;stroke-width:0.8;" x="110.886206" xlink:href="#m877a626d23" y="307.584"/>
      </g>
     </g>
     <g id="text_1">
      <!-- −100 -->
      <g transform="translate(97.152612 322.182437)scale(0.1 -0.1)">
       <defs>
        <path d="M 10.59375 35.5 
L 73.1875 35.5 
L 73.1875 27.203125 
L 10.59375 27.203125 
z
" id="DejaVuSans-8722"/>
        <path d="M 12.40625 8.296875 
L 28.515625 8.296875 
L 28.515625 63.921875 
L 10.984375 60.40625 
L 10.984375 69.390625 
L 28.421875 72.90625 
L 38.28125 72.90625 
L 38.28125 8.296875 
L 54.390625 8.296875 
L 54.390625 0 
L 12.40625 0 
z
" id="DejaVuSans-49"/>
        <path d="M 31.78125 66.40625 
Q 24.171875 66.40625 20.328125 58.90625 
Q 16.5 51.421875 16.5 36.375 
Q 16.5 21.390625 20.328125 13.890625 
Q 24.171875 6.390625 31.78125 6.390625 
Q 39.453125 6.390625 43.28125 13.890625 
Q 47.125 21.390625 47.125 36.375 
Q 47.125 51.421875 43.28125 58.90625 
Q 39.453125 66.40625 31.78125 66.40625 
z
M 31.78125 74.21875 
Q 44.046875 74.21875 50.515625 64.515625 
Q 56.984375 54.828125 56.984375 36.375 
Q 56.984375 17.96875 50.515625 8.265625 
Q 44.046875 -1.421875 31.78125 -1.421875 
Q 19.53125 -1.421875 13.0625 8.265625 
Q 6.59375 17.96875 6.59375 36.375 
Q 6.59375 54.828125 13.0625 64.515625 
Q 19.53125 74.21875 31.78125 74.21875 
z
" id="DejaVuSans-48"/>
       </defs>
       <use xlink:href="#DejaVuSans-8722"/>
       <use x="83.789062" xlink:href="#DejaVuSans-49"/>
       <use x="147.412109" xlink:href="#DejaVuSans-48"/>
       <use x="211.035156" xlink:href="#DejaVuSans-48"/>
      </g>
     </g>
    </g>
    <g id="xtick_2">
     <g id="line2d_2">
      <g>
       <use style="stroke:#000000;stroke-width:0.8;" x="164.955671" xlink:href="#m877a626d23" y="307.584"/>
      </g>
     </g>
     <g id="text_2">
      <!-- −80 -->
      <g transform="translate(154.403327 322.182437)scale(0.1 -0.1)">
       <defs>
        <path d="M 31.78125 34.625 
Q 24.75 34.625 20.71875 30.859375 
Q 16.703125 27.09375 16.703125 20.515625 
Q 16.703125 13.921875 20.71875 10.15625 
Q 24.75 6.390625 31.78125 6.390625 
Q 38.8125 6.390625 42.859375 10.171875 
Q 46.921875 13.96875 46.921875 20.515625 
Q 46.921875 27.09375 42.890625 30.859375 
Q 38.875 34.625 31.78125 34.625 
z
M 21.921875 38.8125 
Q 15.578125 40.375 12.03125 44.71875 
Q 8.5 49.078125 8.5 55.328125 
Q 8.5 64.0625 14.71875 69.140625 
Q 20.953125 74.21875 31.78125 74.21875 
Q 42.671875 74.21875 48.875 69.140625 
Q 55.078125 64.0625 55.078125 55.328125 
Q 55.078125 49.078125 51.53125 44.71875 
Q 48 40.375 41.703125 38.8125 
Q 48.828125 37.15625 52.796875 32.3125 
Q 56.78125 27.484375 56.78125 20.515625 
Q 56.78125 9.90625 50.3125 4.234375 
Q 43.84375 -1.421875 31.78125 -1.421875 
Q 19.734375 -1.421875 13.25 4.234375 
Q 6.78125 9.90625 6.78125 20.515625 
Q 6.78125 27.484375 10.78125 32.3125 
Q 14.796875 37.15625 21.921875 38.8125 
z
M 18.3125 54.390625 
Q 18.3125 48.734375 21.84375 45.5625 
Q 25.390625 42.390625 31.78125 42.390625 
Q 38.140625 42.390625 41.71875 45.5625 
Q 45.3125 48.734375 45.3125 54.390625 
Q 45.3125 60.0625 41.71875 63.234375 
Q 38.140625 66.40625 31.78125 66.40625 
Q 25.390625 66.40625 21.84375 63.234375 
Q 18.3125 60.0625 18.3125 54.390625 
z
" id="DejaVuSans-56"/>
       </defs>
       <use xlink:href="#DejaVuSans-8722"/>
       <use x="83.789062" xlink:href="#DejaVuSans-56"/>
       <use x="147.412109" xlink:href="#DejaVuSans-48"/>
      </g>
     </g>
    </g>
    <g id="xtick_3">
     <g id="line2d_3">
      <g>
       <use style="stroke:#000000;stroke-width:0.8;" x="219.025136" xlink:href="#m877a626d23" y="307.584"/>
      </g>
     </g>
     <g id="text_3">
      <!-- −60 -->
      <g transform="translate(208.472793 322.182437)scale(0.1 -0.1)">
       <defs>
        <path d="M 33.015625 40.375 
Q 26.375 40.375 22.484375 35.828125 
Q 18.609375 31.296875 18.609375 23.390625 
Q 18.609375 15.53125 22.484375 10.953125 
Q 26.375 6.390625 33.015625 6.390625 
Q 39.65625 6.390625 43.53125 10.953125 
Q 47.40625 15.53125 47.40625 23.390625 
Q 47.40625 31.296875 43.53125 35.828125 
Q 39.65625 40.375 33.015625 40.375 
z
M 52.59375 71.296875 
L 52.59375 62.3125 
Q 48.875 64.0625 45.09375 64.984375 
Q 41.3125 65.921875 37.59375 65.921875 
Q 27.828125 65.921875 22.671875 59.328125 
Q 17.53125 52.734375 16.796875 39.40625 
Q 19.671875 43.65625 24.015625 45.921875 
Q 28.375 48.1875 33.59375 48.1875 
Q 44.578125 48.1875 50.953125 41.515625 
Q 57.328125 34.859375 57.328125 23.390625 
Q 57.328125 12.15625 50.6875 5.359375 
Q 44.046875 -1.421875 33.015625 -1.421875 
Q 20.359375 -1.421875 13.671875 8.265625 
Q 6.984375 17.96875 6.984375 36.375 
Q 6.984375 53.65625 15.1875 63.9375 
Q 23.390625 74.21875 37.203125 74.21875 
Q 40.921875 74.21875 44.703125 73.484375 
Q 48.484375 72.75 52.59375 71.296875 
z
" id="DejaVuSans-54"/>
       </defs>
       <use xlink:href="#DejaVuSans-8722"/>
       <use x="83.789062" xlink:href="#DejaVuSans-54"/>
       <use x="147.412109" xlink:href="#DejaVuSans-48"/>
      </g>
     </g>
    </g>
    <g id="xtick_4">
     <g id="line2d_4">
      <g>
       <use style="stroke:#000000;stroke-width:0.8;" x="273.094601" xlink:href="#m877a626d23" y="307.584"/>
      </g>
     </g>
     <g id="text_4">
      <!-- −40 -->
      <g transform="translate(262.542258 322.182437)scale(0.1 -0.1)">
       <defs>
        <path d="M 37.796875 64.3125 
L 12.890625 25.390625 
L 37.796875 25.390625 
z
M 35.203125 72.90625 
L 47.609375 72.90625 
L 47.609375 25.390625 
L 58.015625 25.390625 
L 58.015625 17.1875 
L 47.609375 17.1875 
L 47.609375 0 
L 37.796875 0 
L 37.796875 17.1875 
L 4.890625 17.1875 
L 4.890625 26.703125 
z
" id="DejaVuSans-52"/>
       </defs>
       <use xlink:href="#DejaVuSans-8722"/>
       <use x="83.789062" xlink:href="#DejaVuSans-52"/>
       <use x="147.412109" xlink:href="#DejaVuSans-48"/>
      </g>
     </g>
    </g>
    <g id="xtick_5">
     <g id="line2d_5">
      <g>
       <use style="stroke:#000000;stroke-width:0.8;" x="327.164066" xlink:href="#m877a626d23" y="307.584"/>
      </g>
     </g>
     <g id="text_5">
      <!-- −20 -->
      <g transform="translate(316.611723 322.182437)scale(0.1 -0.1)">
       <defs>
        <path d="M 19.1875 8.296875 
L 53.609375 8.296875 
L 53.609375 0 
L 7.328125 0 
L 7.328125 8.296875 
Q 12.9375 14.109375 22.625 23.890625 
Q 32.328125 33.6875 34.8125 36.53125 
Q 39.546875 41.84375 41.421875 45.53125 
Q 43.3125 49.21875 43.3125 52.78125 
Q 43.3125 58.59375 39.234375 62.25 
Q 35.15625 65.921875 28.609375 65.921875 
Q 23.96875 65.921875 18.8125 64.3125 
Q 13.671875 62.703125 7.8125 59.421875 
L 7.8125 69.390625 
Q 13.765625 71.78125 18.9375 73 
Q 24.125 74.21875 28.421875 74.21875 
Q 39.75 74.21875 46.484375 68.546875 
Q 53.21875 62.890625 53.21875 53.421875 
Q 53.21875 48.921875 51.53125 44.890625 
Q 49.859375 40.875 45.40625 35.40625 
Q 44.1875 33.984375 37.640625 27.21875 
Q 31.109375 20.453125 19.1875 8.296875 
z
" id="DejaVuSans-50"/>
       </defs>
       <use xlink:href="#DejaVuSans-8722"/>
       <use x="83.789062" xlink:href="#DejaVuSans-50"/>
       <use x="147.412109" xlink:href="#DejaVuSans-48"/>
      </g>
     </g>
    </g>
    <g id="xtick_6">
     <g id="line2d_6">
      <g>
       <use style="stroke:#000000;stroke-width:0.8;" x="381.233531" xlink:href="#m877a626d23" y="307.584"/>
      </g>
     </g>
     <g id="text_6">
      <!-- 0 -->
      <g transform="translate(378.052281 322.182437)scale(0.1 -0.1)">
       <use xlink:href="#DejaVuSans-48"/>
      </g>
     </g>
    </g>
   </g>
   <g id="matplotlib.axis_2">
    <g id="ytick_1">
     <g id="line2d_7">
      <defs>
       <path d="M 0 0 
L -3.5 0 
" id="mb1eb379abf" style="stroke:#000000;stroke-width:0.8;"/>
      </defs>
      <g>
       <use style="stroke:#000000;stroke-width:0.8;" x="57.6" xlink:href="#mb1eb379abf" y="264.496329"/>
      </g>
     </g>
     <g id="text_7">
      <!-- 0 -->
      <g transform="translate(44.2375 268.295548)scale(0.1 -0.1)">
       <use xlink:href="#DejaVuSans-48"/>
      </g>
     </g>
    </g>
    <g id="ytick_2">
     <g id="line2d_8">
      <g>
       <use style="stroke:#000000;stroke-width:0.8;" x="57.6" xlink:href="#mb1eb379abf" y="210.426864"/>
      </g>
     </g>
     <g id="text_8">
      <!-- 20 -->
      <g transform="translate(37.875 214.226083)scale(0.1 -0.1)">
       <use xlink:href="#DejaVuSans-50"/>
       <use x="63.623047" xlink:href="#DejaVuSans-48"/>
      </g>
     </g>
    </g>
    <g id="ytick_3">
     <g id="line2d_9">
      <g>
       <use style="stroke:#000000;stroke-width:0.8;" x="57.6" xlink:href="#mb1eb379abf" y="156.357399"/>
      </g>
     </g>
     <g id="text_9">
      <!-- 40 -->
      <g transform="translate(37.875 160.156618)scale(0.1 -0.1)">
       <use xlink:href="#DejaVuSans-52"/>
       <use x="63.623047" xlink:href="#DejaVuSans-48"/>
      </g>
     </g>
    </g>
    <g id="ytick_4">
     <g id="line2d_10">
      <g>
       <use style="stroke:#000000;stroke-width:0.8;" x="57.6" xlink:href="#mb1eb379abf" y="102.287934"/>
      </g>
     </g>
     <g id="text_10">
      <!-- 60 -->
      <g transform="translate(37.875 106.087153)scale(0.1 -0.1)">
       <use xlink:href="#DejaVuSans-54"/>
       <use x="63.623047" xlink:href="#DejaVuSans-48"/>
      </g>
     </g>
    </g>
    <g id="ytick_5">
     <g id="line2d_11">
      <g>
       <use style="stroke:#000000;stroke-width:0.8;" x="57.6" xlink:href="#mb1eb379abf" y="48.218469"/>
      </g>
     </g>
     <g id="text_11">
      <!-- 80 -->
      <g transform="translate(37.875 52.017688)scale(0.1 -0.1)">
       <use xlink:href="#DejaVuSans-56"/>
       <use x="63.623047" xlink:href="#DejaVuSans-48"/>
      </g>
     </g>
    </g>
   </g>
   <g id="line2d_12">
    <path clip-path="url(#p9c82da262e)" d="M 381.233531 264.496329 
L 381.58143 239.598954 
L 382.413084 196.919792 
L 382.554278 193.317456 
L 383.232228 185.884408 
L 384.261787 178.248358 
L 386.531871 162.854456 
L 387.350465 155.340207 
L 387.588351 151.682046 
L 387.676804 148.110161 
L 387.589451 144.639777 
L 387.299923 141.28612 
L 386.781848 138.064413 
L 386.008856 134.989883 
L 384.954576 132.077755 
L 383.592637 129.343254 
L 381.916092 126.744265 
L 379.950793 124.229988 
L 377.719564 121.802619 
L 375.245233 119.464355 
L 372.550627 117.217392 
L 369.65857 115.063927 
L 366.591889 113.006155 
L 363.373412 111.046274 
L 360.025964 109.186479 
L 356.57237 107.428968 
L 353.035459 105.775936 
L 349.438056 104.229579 
L 342.153078 101.46568 
L 334.900047 99.154841 
L 327.861574 97.314634 
L 324.479863 96.576508 
L 321.131012 95.99389 
L 317.736302 95.590197 
L 314.30012 95.35257 
L 310.826858 95.268149 
L 307.320905 95.324071 
L 303.78665 95.507478 
L 296.650796 96.205301 
L 289.454415 97.258733 
L 282.232624 98.56489 
L 267.853288 101.523841 
L 257.263279 103.641256 
L 249.99794 104.795109 
L 238.339776 106.222601 
L 226.409673 107.702097 
L 218.660886 108.948401 
L 214.927908 109.701539 
L 211.324777 110.564442 
L 207.878168 111.554442 
L 204.61476 112.688869 
L 201.561229 113.985056 
L 198.744251 115.460332 
L 196.190505 117.13203 
L 193.926667 119.017481 
L 191.979413 121.134015 
L 190.418097 123.523753 
L 189.265042 126.198915 
L 188.476382 129.13198 
L 188.008251 132.295429 
L 187.816783 135.661742 
L 187.85811 139.203398 
L 188.088368 142.892879 
L 188.940207 150.605232 
L 190.980929 166.592952 
L 191.30544 170.546643 
L 191.467951 174.428 
L 191.424595 178.209501 
L 191.131507 181.863627 
L 190.544819 185.362858 
L 189.620667 188.679674 
L 187.122534 195.384792 
L 184.093977 202.47274 
L 180.588706 209.701028 
L 178.674089 213.292021 
L 176.660436 216.827163 
L 174.554461 220.276145 
L 172.362879 223.608654 
L 170.092403 226.794379 
L 167.749748 229.803008 
L 165.341627 232.60423 
L 162.874756 235.167733 
L 160.355847 237.463207 
L 157.791615 239.460338 
L 155.188775 241.128817 
L 152.55404 242.438331 
L 149.894124 243.358569 
L 147.077269 243.904837 
L 143.993038 244.124965 
L 140.680129 244.037425 
L 137.177239 243.660692 
L 133.523065 243.013239 
L 129.756306 242.11354 
L 125.915658 240.980069 
L 122.03982 239.631298 
L 118.167488 238.085702 
L 114.33736 236.361753 
L 110.588134 234.477927 
L 106.958507 232.452696 
L 103.487176 230.304534 
L 100.21284 228.051914 
L 97.174195 225.71331 
L 94.409939 223.307196 
L 91.95877 220.852046 
L 89.859385 218.366332 
L 88.150481 215.868528 
L 86.828968 213.263134 
L 85.846576 210.453974 
L 85.17424 207.458514 
L 84.78289 204.29422 
L 84.64346 200.978558 
L 84.726881 197.528994 
L 85.004086 193.962992 
L 85.446008 190.298018 
L 86.707731 182.741018 
L 89.108999 171.09987 
L 90.709844 163.339105 
L 92.039391 155.741351 
L 92.529759 152.047268 
L 92.8651 148.446335 
L 92.8651 148.446335 
" style="fill:none;stroke:#fea952;stroke-linecap:square;"/>
   </g>
   <g id="line2d_13">
    <path clip-path="url(#p9c82da262e)" d="M 370.420139 264.392289 
L 370.769371 239.399771 
L 371.607488 196.496265 
L 371.7719 192.492465 
L 372.082067 188.497826 
L 373.010088 180.561462 
L 376.225922 158.027611 
L 376.777772 151.414338 
L 376.866335 148.38227 
L 376.815634 145.569904 
L 376.623194 143.003018 
L 376.294339 140.701161 
L 375.840798 138.671034 
L 375.274827 136.898827 
L 374.505405 135.205207 
L 373.39616 133.403922 
L 371.989326 131.548139 
L 370.292147 129.662248 
L 368.319698 127.769609 
L 366.092228 125.890879 
L 363.63313 124.04359 
L 360.967547 122.242337 
L 358.121503 120.499196 
L 355.121394 118.82419 
L 351.993707 117.225708 
L 348.7649 115.710854 
L 342.109441 112.955658 
L 335.366091 110.598971 
L 328.748429 108.672938 
L 322.62635 107.23037 
L 319.854043 106.732122 
L 316.990256 106.378325 
L 314.037353 106.16327 
L 310.999326 106.080666 
L 307.881327 106.123433 
L 301.42942 106.552509 
L 294.732254 107.377491 
L 287.840254 108.514786 
L 277.236882 110.605221 
L 259.083732 114.300816 
L 251.401584 115.517518 
L 239.592115 116.963734 
L 228.010348 118.396868 
L 220.799525 119.548708 
L 217.446477 120.218054 
L 214.310228 120.958063 
L 211.428881 121.768781 
L 208.840193 122.643064 
L 206.578195 123.564739 
L 204.666963 124.508082 
L 203.111047 125.441445 
L 201.032403 127.048713 
L 200.348799 127.804109 
L 199.708011 129.006881 
L 199.173782 130.714994 
L 198.804695 132.909507 
L 198.62994 135.535563 
L 198.651005 138.529823 
L 198.850164 141.83268 
L 199.657532 149.163277 
L 201.286517 161.404588 
L 201.758579 165.708344 
L 202.109867 170.094266 
L 202.281133 174.551975 
L 202.203871 179.07408 
L 201.796539 183.651745 
L 200.961916 188.265337 
L 199.800079 192.329311 
L 197.116371 199.515592 
L 193.881977 207.070058 
L 190.131015 214.788722 
L 188.070529 218.644328 
L 185.889801 222.462685 
L 183.58964 226.218016 
L 181.169093 229.884869 
L 178.624785 233.438078 
L 175.950028 236.852525 
L 173.133655 240.102536 
L 170.158615 243.160585 
L 167.000592 245.994774 
L 163.627485 248.564343 
L 160.001789 250.812576 
L 156.089656 252.657906 
L 151.952888 253.974678 
L 147.847119 254.691292 
L 143.707394 254.935084 
L 139.523772 254.789314 
L 135.290599 254.308738 
L 131.010811 253.531265 
L 126.695373 252.485183 
L 122.361536 251.193222 
L 118.031102 249.674727 
L 113.729012 247.946747 
L 109.482253 246.024477 
L 105.319013 243.921266 
L 101.268014 241.648269 
L 97.357998 239.213712 
L 93.617394 236.62165 
L 90.074295 233.870007 
L 86.75716 230.947566 
L 83.697186 227.829618 
L 80.934401 224.472472 
L 78.506262 220.760288 
L 76.621262 216.83287 
L 75.2952 212.82225 
L 74.442114 208.785829 
L 73.978546 204.748565 
L 73.832727 200.717121 
L 73.945514 196.690897 
L 74.267961 192.668431 
L 74.758373 188.650373 
L 76.098709 180.64604 
L 78.5273 168.870983 
L 80.078899 161.358376 
L 81.319533 154.318353 
L 81.762455 151.044552 
L 82.097796 147.443619 
L 82.097796 147.443619 
" style="fill:none;stroke:#ffffff;stroke-linecap:square;"/>
   </g>
   <g id="line2d_14">
    <path clip-path="url(#p9c82da262e)" d="M 392.046924 264.600369 
L 392.393488 239.798136 
L 393.336656 194.142447 
L 393.959465 187.250664 
L 394.955104 179.858715 
L 397.267577 164.152494 
L 398.141565 156.041942 
L 398.39893 151.949754 
L 398.487273 147.838053 
L 398.363269 143.709651 
L 397.976652 139.569221 
L 397.269357 135.427665 
L 396.176915 131.308733 
L 394.634325 127.256684 
L 392.679869 123.481301 
L 390.436025 120.084609 
L 387.912259 116.911837 
L 385.146981 113.942991 
L 382.170769 111.159102 
L 379.009025 108.543906 
L 375.684009 106.084263 
L 372.216232 103.769974 
L 368.625321 101.593352 
L 364.930533 99.548768 
L 361.151034 97.632227 
L 357.306018 95.841017 
L 353.414749 94.173427 
L 349.496532 92.628533 
L 345.570642 91.206024 
L 337.772125 88.729322 
L 330.167628 86.749484 
L 326.333375 85.922646 
L 322.407982 85.255657 
L 318.482347 84.80207 
L 314.562887 84.54187 
L 310.65439 84.455631 
L 306.760483 84.52471 
L 302.884045 84.73132 
L 295.193312 85.490077 
L 287.601243 86.604812 
L 280.129342 87.957511 
L 265.658784 90.934959 
L 255.442826 92.981695 
L 248.594296 94.072699 
L 237.087438 95.481468 
L 224.808998 97.007326 
L 216.522248 98.348094 
L 212.40934 99.185024 
L 208.339325 100.170821 
L 204.327455 101.340103 
L 200.389327 102.734674 
L 196.544262 104.405373 
L 192.821539 106.412583 
L 189.269962 108.822615 
L 185.968466 111.695778 
L 182.926423 115.219317 
L 180.487395 119.243397 
L 178.822073 123.390948 
L 177.778983 127.548966 
L 177.211808 131.68135 
L 177.003626 135.78792 
L 177.065215 139.876974 
L 177.326571 143.953078 
L 178.222882 152.047188 
L 180.203278 167.47756 
L 180.501013 170.999021 
L 180.654769 174.304024 
L 180.64532 177.344921 
L 180.466475 180.075508 
L 180.127723 182.460379 
L 179.441254 185.030038 
L 177.128698 191.253991 
L 174.305976 197.875423 
L 171.046397 204.613335 
L 167.431071 211.191642 
L 165.519283 214.334274 
L 163.556665 217.332438 
L 161.560021 220.150679 
L 159.549468 222.753491 
L 157.5496 225.105924 
L 155.590896 227.174882 
L 153.711102 228.931639 
L 151.955745 230.356334 
L 150.375761 231.445059 
L 149.018424 232.218757 
L 147.83536 232.74246 
L 146.307419 233.118382 
L 144.278682 233.314845 
L 141.836486 233.285536 
L 139.063878 233.012647 
L 136.03532 232.495214 
L 132.817239 231.741897 
L 129.46978 230.766915 
L 126.048538 229.587869 
L 122.605964 228.224656 
L 119.192467 226.69903 
L 115.857255 225.034588 
L 112.649 223.257123 
L 109.616354 221.395355 
L 106.808285 219.482178 
L 104.274096 217.556614 
L 102.062719 215.666827 
L 100.220354 213.874474 
L 98.784369 212.260192 
L 97.794701 210.976768 
L 97.036674 209.693397 
L 96.397953 208.085697 
L 95.906365 206.131199 
L 95.587234 203.839876 
L 95.454192 201.239996 
L 95.508248 198.36709 
L 95.740212 195.257552 
L 96.133644 191.945662 
L 97.316753 184.835995 
L 99.690698 173.328757 
L 101.340789 165.319833 
L 102.75925 157.16435 
L 103.297064 153.049985 
L 103.632404 149.449052 
L 103.632404 149.449052 
" style="fill:none;stroke:#ffffff;stroke-linecap:square;"/>
   </g>
   <g id="patch_3">
    <path d="M 57.6 307.584 
L 57.6 41.472 
" style="fill:none;stroke:#000000;stroke-linecap:square;stroke-linejoin:miter;stroke-width:0.8;"/>
   </g>
   <g id="patch_4">
    <path d="M 414.72 307.584 
L 414.72 41.472 
" style="fill:none;stroke:#000000;stroke-linecap:square;stroke-linejoin:miter;stroke-width:0.8;"/>
   </g>
   <g id="patch_5">
    <path d="M 57.6 307.584 
L 414.72 307.584 
" style="fill:none;stroke:#000000;stroke-linecap:square;stroke-linejoin:miter;stroke-width:0.8;"/>
   </g>
   <g id="patch_6">
    <path d="M 57.6 41.472 
L 414.72 41.472 
" style="fill:none;stroke:#000000;stroke-linecap:square;stroke-linejoin:miter;stroke-width:0.8;"/>
   </g>
  </g>
 </g>
 <defs>
  <clipPath id="p9c82da262e">
   <rect height="266.112" width="357.12" x="57.6" y="41.472"/>
  </clipPath>
 </defs>
</svg>
