<?xml version="1.0" encoding="utf-8" standalone="no"?>
<!DOCTYPE svg PUBLIC "-//W3C//DTD SVG 1.1//EN"
  "http://www.w3.org/Graphics/SVG/1.1/DTD/svg11.dtd">
<!-- Created with matplotlib (https://matplotlib.org/) -->
<svg height="345.6pt" version="1.1" viewBox="0 0 460.8 345.6" width="460.8pt" xmlns="http://www.w3.org/2000/svg" xmlns:xlink="http://www.w3.org/1999/xlink">
 <metadata>
  <rdf:RDF xmlns:cc="http://creativecommons.org/ns#" xmlns:dc="http://purl.org/dc/elements/1.1/" xmlns:rdf="http://www.w3.org/1999/02/22-rdf-syntax-ns#">
   <cc:Work>
    <dc:type rdf:resource="http://purl.org/dc/dcmitype/StillImage"/>
    <dc:date>2021-06-24T09:10:44.292191</dc:date>
    <dc:format>image/svg+xml</dc:format>
    <dc:creator>
     <cc:Agent>
      <dc:title>Matplotlib v3.3.3, https://matplotlib.org/</dc:title>
     </cc:Agent>
    </dc:creator>
   </cc:Work>
  </rdf:RDF>
 </metadata>
 <defs>
  <style type="text/css">*{stroke-linecap:butt;stroke-linejoin:round;}</style>
 </defs>
 <g id="figure_1">
  <g id="patch_1">
   <path d="M 0 345.6 
L 460.8 345.6 
L 460.8 0 
L 0 0 
z
" style="fill:#ffffff;"/>
  </g>
  <g id="axes_1">
   <g id="patch_2">
    <path d="M 57.6 307.584 
L 414.72 307.584 
L 414.72 41.472 
L 57.6 41.472 
z
" style="fill:#7d9051;"/>
   </g>
   <g id="matplotlib.axis_1">
    <g id="xtick_1">
     <g id="line2d_1">
      <defs>
       <path d="M 0 0 
L 0 3.5 
" id="ma9ba1f014a" style="stroke:#000000;stroke-width:0.8;"/>
      </defs>
      <g>
       <use style="stroke:#000000;stroke-width:0.8;" x="95.593532" xlink:href="#ma9ba1f014a" y="307.584"/>
      </g>
     </g>
     <g id="text_1">
      <!-- −100 -->
      <g transform="translate(81.859939 322.182437)scale(0.1 -0.1)">
       <defs>
        <path d="M 10.59375 35.5 
L 73.1875 35.5 
L 73.1875 27.203125 
L 10.59375 27.203125 
z
" id="DejaVuSans-8722"/>
        <path d="M 12.40625 8.296875 
L 28.515625 8.296875 
L 28.515625 63.921875 
L 10.984375 60.40625 
L 10.984375 69.390625 
L 28.421875 72.90625 
L 38.28125 72.90625 
L 38.28125 8.296875 
L 54.390625 8.296875 
L 54.390625 0 
L 12.40625 0 
z
" id="DejaVuSans-49"/>
        <path d="M 31.78125 66.40625 
Q 24.171875 66.40625 20.328125 58.90625 
Q 16.5 51.421875 16.5 36.375 
Q 16.5 21.390625 20.328125 13.890625 
Q 24.171875 6.390625 31.78125 6.390625 
Q 39.453125 6.390625 43.28125 13.890625 
Q 47.125 21.390625 47.125 36.375 
Q 47.125 51.421875 43.28125 58.90625 
Q 39.453125 66.40625 31.78125 66.40625 
z
M 31.78125 74.21875 
Q 44.046875 74.21875 50.515625 64.515625 
Q 56.984375 54.828125 56.984375 36.375 
Q 56.984375 17.96875 50.515625 8.265625 
Q 44.046875 -1.421875 31.78125 -1.421875 
Q 19.53125 -1.421875 13.0625 8.265625 
Q 6.59375 17.96875 6.59375 36.375 
Q 6.59375 54.828125 13.0625 64.515625 
Q 19.53125 74.21875 31.78125 74.21875 
z
" id="DejaVuSans-48"/>
       </defs>
       <use xlink:href="#DejaVuSans-8722"/>
       <use x="83.789062" xlink:href="#DejaVuSans-49"/>
       <use x="147.412109" xlink:href="#DejaVuSans-48"/>
       <use x="211.035156" xlink:href="#DejaVuSans-48"/>
      </g>
     </g>
    </g>
    <g id="xtick_2">
     <g id="line2d_2">
      <g>
       <use style="stroke:#000000;stroke-width:0.8;" x="156.384648" xlink:href="#ma9ba1f014a" y="307.584"/>
      </g>
     </g>
     <g id="text_2">
      <!-- −50 -->
      <g transform="translate(145.832304 322.182437)scale(0.1 -0.1)">
       <defs>
        <path d="M 10.796875 72.90625 
L 49.515625 72.90625 
L 49.515625 64.59375 
L 19.828125 64.59375 
L 19.828125 46.734375 
Q 21.96875 47.46875 24.109375 47.828125 
Q 26.265625 48.1875 28.421875 48.1875 
Q 40.625 48.1875 47.75 41.5 
Q 54.890625 34.8125 54.890625 23.390625 
Q 54.890625 11.625 47.5625 5.09375 
Q 40.234375 -1.421875 26.90625 -1.421875 
Q 22.3125 -1.421875 17.546875 -0.640625 
Q 12.796875 0.140625 7.71875 1.703125 
L 7.71875 11.625 
Q 12.109375 9.234375 16.796875 8.0625 
Q 21.484375 6.890625 26.703125 6.890625 
Q 35.15625 6.890625 40.078125 11.328125 
Q 45.015625 15.765625 45.015625 23.390625 
Q 45.015625 31 40.078125 35.4375 
Q 35.15625 39.890625 26.703125 39.890625 
Q 22.75 39.890625 18.8125 39.015625 
Q 14.890625 38.140625 10.796875 36.28125 
z
" id="DejaVuSans-53"/>
       </defs>
       <use xlink:href="#DejaVuSans-8722"/>
       <use x="83.789062" xlink:href="#DejaVuSans-53"/>
       <use x="147.412109" xlink:href="#DejaVuSans-48"/>
      </g>
     </g>
    </g>
    <g id="xtick_3">
     <g id="line2d_3">
      <g>
       <use style="stroke:#000000;stroke-width:0.8;" x="217.175764" xlink:href="#ma9ba1f014a" y="307.584"/>
      </g>
     </g>
     <g id="text_3">
      <!-- 0 -->
      <g transform="translate(213.994514 322.182437)scale(0.1 -0.1)">
       <use xlink:href="#DejaVuSans-48"/>
      </g>
     </g>
    </g>
    <g id="xtick_4">
     <g id="line2d_4">
      <g>
       <use style="stroke:#000000;stroke-width:0.8;" x="277.96688" xlink:href="#ma9ba1f014a" y="307.584"/>
      </g>
     </g>
     <g id="text_4">
      <!-- 50 -->
      <g transform="translate(271.60438 322.182437)scale(0.1 -0.1)">
       <use xlink:href="#DejaVuSans-53"/>
       <use x="63.623047" xlink:href="#DejaVuSans-48"/>
      </g>
     </g>
    </g>
    <g id="xtick_5">
     <g id="line2d_5">
      <g>
       <use style="stroke:#000000;stroke-width:0.8;" x="338.757995" xlink:href="#ma9ba1f014a" y="307.584"/>
      </g>
     </g>
     <g id="text_5">
      <!-- 100 -->
      <g transform="translate(329.214245 322.182437)scale(0.1 -0.1)">
       <use xlink:href="#DejaVuSans-49"/>
       <use x="63.623047" xlink:href="#DejaVuSans-48"/>
       <use x="127.246094" xlink:href="#DejaVuSans-48"/>
      </g>
     </g>
    </g>
    <g id="xtick_6">
     <g id="line2d_6">
      <g>
       <use style="stroke:#000000;stroke-width:0.8;" x="399.549111" xlink:href="#ma9ba1f014a" y="307.584"/>
      </g>
     </g>
     <g id="text_6">
      <!-- 150 -->
      <g transform="translate(390.005361 322.182437)scale(0.1 -0.1)">
       <use xlink:href="#DejaVuSans-49"/>
       <use x="63.623047" xlink:href="#DejaVuSans-53"/>
       <use x="127.246094" xlink:href="#DejaVuSans-48"/>
      </g>
     </g>
    </g>
   </g>
   <g id="matplotlib.axis_2">
    <g id="ytick_1">
     <g id="line2d_7">
      <defs>
       <path d="M 0 0 
L -3.5 0 
" id="m1a1a0070fd" style="stroke:#000000;stroke-width:0.8;"/>
      </defs>
      <g>
       <use style="stroke:#000000;stroke-width:0.8;" x="57.6" xlink:href="#m1a1a0070fd" y="295.441211"/>
      </g>
     </g>
     <g id="text_7">
      <!-- 0 -->
      <g transform="translate(44.2375 299.240429)scale(0.1 -0.1)">
       <use xlink:href="#DejaVuSans-48"/>
      </g>
     </g>
    </g>
    <g id="ytick_2">
     <g id="line2d_8">
      <g>
       <use style="stroke:#000000;stroke-width:0.8;" x="57.6" xlink:href="#m1a1a0070fd" y="265.045653"/>
      </g>
     </g>
     <g id="text_8">
      <!-- 25 -->
      <g transform="translate(37.875 268.844871)scale(0.1 -0.1)">
       <defs>
        <path d="M 19.1875 8.296875 
L 53.609375 8.296875 
L 53.609375 0 
L 7.328125 0 
L 7.328125 8.296875 
Q 12.9375 14.109375 22.625 23.890625 
Q 32.328125 33.6875 34.8125 36.53125 
Q 39.546875 41.84375 41.421875 45.53125 
Q 43.3125 49.21875 43.3125 52.78125 
Q 43.3125 58.59375 39.234375 62.25 
Q 35.15625 65.921875 28.609375 65.921875 
Q 23.96875 65.921875 18.8125 64.3125 
Q 13.671875 62.703125 7.8125 59.421875 
L 7.8125 69.390625 
Q 13.765625 71.78125 18.9375 73 
Q 24.125 74.21875 28.421875 74.21875 
Q 39.75 74.21875 46.484375 68.546875 
Q 53.21875 62.890625 53.21875 53.421875 
Q 53.21875 48.921875 51.53125 44.890625 
Q 49.859375 40.875 45.40625 35.40625 
Q 44.1875 33.984375 37.640625 27.21875 
Q 31.109375 20.453125 19.1875 8.296875 
z
" id="DejaVuSans-50"/>
       </defs>
       <use xlink:href="#DejaVuSans-50"/>
       <use x="63.623047" xlink:href="#DejaVuSans-53"/>
      </g>
     </g>
    </g>
    <g id="ytick_3">
     <g id="line2d_9">
      <g>
       <use style="stroke:#000000;stroke-width:0.8;" x="57.6" xlink:href="#m1a1a0070fd" y="234.650095"/>
      </g>
     </g>
     <g id="text_9">
      <!-- 50 -->
      <g transform="translate(37.875 238.449314)scale(0.1 -0.1)">
       <use xlink:href="#DejaVuSans-53"/>
       <use x="63.623047" xlink:href="#DejaVuSans-48"/>
      </g>
     </g>
    </g>
    <g id="ytick_4">
     <g id="line2d_10">
      <g>
       <use style="stroke:#000000;stroke-width:0.8;" x="57.6" xlink:href="#m1a1a0070fd" y="204.254537"/>
      </g>
     </g>
     <g id="text_10">
      <!-- 75 -->
      <g transform="translate(37.875 208.053756)scale(0.1 -0.1)">
       <defs>
        <path d="M 8.203125 72.90625 
L 55.078125 72.90625 
L 55.078125 68.703125 
L 28.609375 0 
L 18.3125 0 
L 43.21875 64.59375 
L 8.203125 64.59375 
z
" id="DejaVuSans-55"/>
       </defs>
       <use xlink:href="#DejaVuSans-55"/>
       <use x="63.623047" xlink:href="#DejaVuSans-53"/>
      </g>
     </g>
    </g>
    <g id="ytick_5">
     <g id="line2d_11">
      <g>
       <use style="stroke:#000000;stroke-width:0.8;" x="57.6" xlink:href="#m1a1a0070fd" y="173.858979"/>
      </g>
     </g>
     <g id="text_11">
      <!-- 100 -->
      <g transform="translate(31.5125 177.658198)scale(0.1 -0.1)">
       <use xlink:href="#DejaVuSans-49"/>
       <use x="63.623047" xlink:href="#DejaVuSans-48"/>
       <use x="127.246094" xlink:href="#DejaVuSans-48"/>
      </g>
     </g>
    </g>
    <g id="ytick_6">
     <g id="line2d_12">
      <g>
       <use style="stroke:#000000;stroke-width:0.8;" x="57.6" xlink:href="#m1a1a0070fd" y="143.463421"/>
      </g>
     </g>
     <g id="text_12">
      <!-- 125 -->
      <g transform="translate(31.5125 147.26264)scale(0.1 -0.1)">
       <use xlink:href="#DejaVuSans-49"/>
       <use x="63.623047" xlink:href="#DejaVuSans-50"/>
       <use x="127.246094" xlink:href="#DejaVuSans-53"/>
      </g>
     </g>
    </g>
    <g id="ytick_7">
     <g id="line2d_13">
      <g>
       <use style="stroke:#000000;stroke-width:0.8;" x="57.6" xlink:href="#m1a1a0070fd" y="113.067863"/>
      </g>
     </g>
     <g id="text_13">
      <!-- 150 -->
      <g transform="translate(31.5125 116.867082)scale(0.1 -0.1)">
       <use xlink:href="#DejaVuSans-49"/>
       <use x="63.623047" xlink:href="#DejaVuSans-53"/>
       <use x="127.246094" xlink:href="#DejaVuSans-48"/>
      </g>
     </g>
    </g>
    <g id="ytick_8">
     <g id="line2d_14">
      <g>
       <use style="stroke:#000000;stroke-width:0.8;" x="57.6" xlink:href="#m1a1a0070fd" y="82.672305"/>
      </g>
     </g>
     <g id="text_14">
      <!-- 175 -->
      <g transform="translate(31.5125 86.471524)scale(0.1 -0.1)">
       <use xlink:href="#DejaVuSans-49"/>
       <use x="63.623047" xlink:href="#DejaVuSans-55"/>
       <use x="127.246094" xlink:href="#DejaVuSans-53"/>
      </g>
     </g>
    </g>
    <g id="ytick_9">
     <g id="line2d_15">
      <g>
       <use style="stroke:#000000;stroke-width:0.8;" x="57.6" xlink:href="#m1a1a0070fd" y="52.276747"/>
      </g>
     </g>
     <g id="text_15">
      <!-- 200 -->
      <g transform="translate(31.5125 56.075966)scale(0.1 -0.1)">
       <use xlink:href="#DejaVuSans-50"/>
       <use x="63.623047" xlink:href="#DejaVuSans-48"/>
       <use x="127.246094" xlink:href="#DejaVuSans-48"/>
      </g>
     </g>
    </g>
   </g>
   <g id="line2d_16">
    <path clip-path="url(#p4fe2e1191c)" d="M 217.175764 295.441211 
L 217.455658 277.846225 
L 217.70179 263.433185 
L 217.531049 260.111116 
L 216.844299 253.279514 
L 216.367 248.176317 
L 216.228627 244.871823 
L 216.334818 241.700116 
L 216.771889 238.708063 
L 217.141479 237.294052 
L 217.626158 235.94253 
L 218.236715 234.659354 
L 219.015496 233.465956 
L 219.982648 232.372062 
L 221.115664 231.365972 
L 222.392038 230.435985 
L 225.284829 228.757521 
L 228.480965 227.243066 
L 236.616827 223.560206 
L 239.456733 221.882665 
L 240.697851 220.953294 
L 241.789735 219.947922 
L 242.709878 218.854848 
L 243.435775 217.662373 
L 243.963976 216.375658 
L 244.318477 215.012582 
L 244.517932 213.580527 
L 244.580995 212.086872 
L 244.372563 208.944282 
L 243.842418 205.643854 
L 241.814067 195.385933 
L 241.489432 192.044548 
L 241.476963 190.421675 
L 241.589266 188.840523 
L 241.844994 187.308471 
L 242.263033 185.810369 
L 242.835962 184.325686 
L 244.363271 181.393818 
L 246.260492 178.507349 
L 250.49894 172.848535 
L 252.507305 170.065152 
L 254.219857 167.305095 
L 254.913193 165.932089 
L 255.470163 164.562845 
L 255.869964 163.196673 
L 256.091793 161.832884 
L 256.114844 160.470787 
L 255.907601 159.118578 
L 255.470206 157.783451 
L 254.829346 156.46321 
L 254.011707 155.155658 
L 251.952841 152.569842 
L 249.507102 150.00844 
L 243.101234 143.596476 
L 240.9827 140.9822 
L 240.125282 139.655675 
L 239.438013 138.313297 
L 238.94758 136.952872 
L 238.680668 135.572203 
L 238.627662 134.175518 
L 238.749451 132.768707 
L 239.028485 131.352067 
L 239.447214 129.925898 
L 240.633554 127.046166 
L 242.168067 124.131901 
L 248.253636 113.694524 
L 249.617423 110.65443 
L 250.149072 109.126212 
L 250.899934 106.037092 
L 252.221327 99.504024 
L 252.998706 94.436252 
L 253.328712 91.061947 
L 253.454296 87.743401 
L 253.329324 84.525518 
L 252.90766 81.453204 
L 252.14317 78.571363 
L 251.617949 77.215903 
L 250.976989 75.920405 
L 250.21274 74.679086 
L 248.356977 72.340029 
L 246.135868 70.160826 
L 243.634622 68.103573 
L 239.543894 65.16343 
L 232.532465 60.335944 
L 229.908679 58.319855 
L 228.67813 57.274623 
L 228.67813 57.274623 
" style="fill:none;stroke:#fea952;stroke-linecap:square;"/>
   </g>
   <g id="line2d_17">
    <path clip-path="url(#p4fe2e1191c)" d="M 212.3127 295.394421 
L 212.593366 277.747715 
L 212.841937 263.615962 
L 212.685424 260.525246 
L 212.007845 253.789704 
L 211.511493 248.451346 
L 211.365614 244.819932 
L 211.502235 241.154475 
L 211.720557 239.315344 
L 212.06667 237.478227 
L 212.563657 235.652368 
L 213.23465 233.852975 
L 214.163919 232.001551 
L 215.372044 230.244645 
L 216.753512 228.735544 
L 218.251762 227.435368 
L 219.830864 226.301741 
L 223.140674 224.392411 
L 226.530157 222.788189 
L 234.266822 219.302383 
L 236.541705 217.989826 
L 238.069181 216.815979 
L 238.936803 215.815528 
L 239.257261 215.151562 
L 239.501683 214.341706 
L 239.658972 213.375379 
L 239.68548 211.005735 
L 239.350034 208.160611 
L 238.385121 203.266708 
L 237.28771 197.864238 
L 236.757133 194.048878 
L 236.626287 192.081913 
L 236.625894 190.077125 
L 236.792343 188.039826 
L 237.160663 186.001329 
L 237.725848 184.059502 
L 238.452148 182.220037 
L 239.303128 180.47145 
L 241.26314 177.197858 
L 243.40701 174.158999 
L 248.436404 167.404448 
L 249.878675 165.112901 
L 250.802633 163.196923 
L 251.2292 161.750592 
L 251.286 160.632641 
L 251.095117 159.907169 
L 250.705878 159.041698 
L 250.113785 158.063886 
L 248.384642 155.874315 
L 246.100658 153.479424 
L 239.411781 146.764995 
L 238.116015 145.243548 
L 236.898332 143.622186 
L 235.796364 141.871989 
L 234.862935 139.962614 
L 234.172697 137.875954 
L 233.820878 135.756641 
L 233.782495 133.756068 
L 233.977842 131.828847 
L 234.362165 129.982016 
L 234.896289 128.211062 
L 236.290926 124.856837 
L 237.963321 121.688197 
L 244.493854 110.298943 
L 245.449394 107.87537 
L 246.146031 105.011426 
L 247.428264 98.680537 
L 248.165083 93.899902 
L 248.472671 90.796522 
L 248.591744 87.828069 
L 248.495049 85.055967 
L 248.167394 82.540153 
L 247.608416 80.328516 
L 246.835665 78.470114 
L 245.636334 76.643969 
L 243.972062 74.791512 
L 241.892311 72.929222 
L 239.475114 71.063585 
L 235.409158 68.232519 
L 229.622649 64.23268 
L 226.760262 62.026478 
L 225.529713 60.981246 
L 225.529713 60.981246 
" style="fill:none;stroke:#ffffff;stroke-linecap:square;"/>
   </g>
   <g id="line2d_18">
    <path clip-path="url(#p4fe2e1191c)" d="M 222.038828 295.488 
L 222.317949 277.944735 
L 222.561644 263.250408 
L 222.376673 259.696986 
L 221.680753 252.769324 
L 221.222506 247.901287 
L 221.091639 244.923713 
L 221.167401 242.245758 
L 221.477108 239.937899 
L 222.017666 238.032085 
L 222.658948 236.687266 
L 223.211785 236.008579 
L 223.979567 235.296575 
L 226.111707 233.84332 
L 228.877835 232.408844 
L 238.966832 227.818029 
L 240.688364 226.858005 
L 242.371762 225.775503 
L 243.992061 224.530969 
L 245.510288 223.079865 
L 246.864028 221.383608 
L 247.934746 219.509219 
L 248.670692 217.599754 
L 249.135272 215.683458 
L 249.376893 213.785674 
L 249.441253 211.915196 
L 249.186671 208.254396 
L 248.610783 204.687677 
L 246.641363 194.795342 
L 246.352578 192.007182 
L 246.386188 189.641221 
L 246.529325 188.615614 
L 246.800218 187.561236 
L 247.219776 186.431335 
L 248.477831 183.986496 
L 250.197777 181.362059 
L 253.311184 177.18894 
L 256.578207 172.725857 
L 258.561039 169.49729 
L 259.418047 167.764539 
L 260.137693 165.928768 
L 260.670169 163.977455 
L 260.954386 161.915176 
L 260.922002 159.734028 
L 260.529202 157.604516 
L 259.845295 155.659734 
L 258.952813 153.884722 
L 257.909629 152.24743 
L 256.755625 150.71611 
L 254.232017 147.87672 
L 249.037671 142.753611 
L 246.790687 140.427956 
L 245.067067 138.342214 
L 244.013091 136.663981 
L 243.540459 135.387765 
L 243.472829 134.594969 
L 243.521059 133.708566 
L 243.694805 132.722117 
L 244.428167 130.474754 
L 245.629463 127.933075 
L 248.062622 123.717332 
L 251.758303 117.474487 
L 253.465667 114.055657 
L 254.210695 112.252377 
L 254.848751 110.377054 
L 255.653837 107.062759 
L 257.014389 100.327512 
L 257.832329 94.972602 
L 258.184753 91.327372 
L 258.316848 87.658733 
L 258.163598 83.995069 
L 257.647926 80.366254 
L 257.225982 78.577073 
L 256.677924 76.81421 
L 255.976906 75.059269 
L 255.118314 73.370696 
L 254.13006 71.79704 
L 253.03537 70.330444 
L 250.601468 67.674117 
L 247.937562 65.309428 
L 245.136038 63.15408 
L 240.855963 60.174067 
L 235.442281 56.439208 
L 233.057096 54.613232 
L 231.826547 53.568 
L 231.826547 53.568 
" style="fill:none;stroke:#ffffff;stroke-linecap:square;"/>
   </g>
   <g id="patch_3">
    <path d="M 57.6 307.584 
L 57.6 41.472 
" style="fill:none;stroke:#000000;stroke-linecap:square;stroke-linejoin:miter;stroke-width:0.8;"/>
   </g>
   <g id="patch_4">
    <path d="M 414.72 307.584 
L 414.72 41.472 
" style="fill:none;stroke:#000000;stroke-linecap:square;stroke-linejoin:miter;stroke-width:0.8;"/>
   </g>
   <g id="patch_5">
    <path d="M 57.6 307.584 
L 414.72 307.584 
" style="fill:none;stroke:#000000;stroke-linecap:square;stroke-linejoin:miter;stroke-width:0.8;"/>
   </g>
   <g id="patch_6">
    <path d="M 57.6 41.472 
L 414.72 41.472 
" style="fill:none;stroke:#000000;stroke-linecap:square;stroke-linejoin:miter;stroke-width:0.8;"/>
   </g>
  </g>
 </g>
 <defs>
  <clipPath id="p4fe2e1191c">
   <rect height="266.112" width="357.12" x="57.6" y="41.472"/>
  </clipPath>
 </defs>
</svg>
