<?xml version="1.0" encoding="utf-8" standalone="no"?>
<!DOCTYPE svg PUBLIC "-//W3C//DTD SVG 1.1//EN"
  "http://www.w3.org/Graphics/SVG/1.1/DTD/svg11.dtd">
<!-- Created with matplotlib (https://matplotlib.org/) -->
<svg height="345.6pt" version="1.1" viewBox="0 0 460.8 345.6" width="460.8pt" xmlns="http://www.w3.org/2000/svg" xmlns:xlink="http://www.w3.org/1999/xlink">
 <metadata>
  <rdf:RDF xmlns:cc="http://creativecommons.org/ns#" xmlns:dc="http://purl.org/dc/elements/1.1/" xmlns:rdf="http://www.w3.org/1999/02/22-rdf-syntax-ns#">
   <cc:Work>
    <dc:type rdf:resource="http://purl.org/dc/dcmitype/StillImage"/>
    <dc:date>2021-05-28T12:24:07.372523</dc:date>
    <dc:format>image/svg+xml</dc:format>
    <dc:creator>
     <cc:Agent>
      <dc:title>Matplotlib v3.3.3, https://matplotlib.org/</dc:title>
     </cc:Agent>
    </dc:creator>
   </cc:Work>
  </rdf:RDF>
 </metadata>
 <defs>
  <style type="text/css">*{stroke-linecap:butt;stroke-linejoin:round;}</style>
 </defs>
 <g id="figure_1">
  <g id="patch_1">
   <path d="M 0 345.6 
L 460.8 345.6 
L 460.8 0 
L 0 0 
z
" style="fill:#ffffff;"/>
  </g>
  <g id="axes_1">
   <g id="patch_2">
    <path d="M 57.6 307.584 
L 414.72 307.584 
L 414.72 41.472 
L 57.6 41.472 
z
" style="fill:#7d9051;"/>
   </g>
   <g id="matplotlib.axis_1">
    <g id="xtick_1">
     <g id="line2d_1">
      <defs>
       <path d="M 0 0 
L 0 3.5 
" id="mff0b9e59db" style="stroke:#000000;stroke-width:0.8;"/>
      </defs>
      <g>
       <use style="stroke:#000000;stroke-width:0.8;" x="63.335086" xlink:href="#mff0b9e59db" y="307.584"/>
      </g>
     </g>
     <g id="text_1">
      <!-- −150 -->
      <g transform="translate(49.601493 322.182437)scale(0.1 -0.1)">
       <defs>
        <path d="M 10.59375 35.5 
L 73.1875 35.5 
L 73.1875 27.203125 
L 10.59375 27.203125 
z
" id="DejaVuSans-8722"/>
        <path d="M 12.40625 8.296875 
L 28.515625 8.296875 
L 28.515625 63.921875 
L 10.984375 60.40625 
L 10.984375 69.390625 
L 28.421875 72.90625 
L 38.28125 72.90625 
L 38.28125 8.296875 
L 54.390625 8.296875 
L 54.390625 0 
L 12.40625 0 
z
" id="DejaVuSans-49"/>
        <path d="M 10.796875 72.90625 
L 49.515625 72.90625 
L 49.515625 64.59375 
L 19.828125 64.59375 
L 19.828125 46.734375 
Q 21.96875 47.46875 24.109375 47.828125 
Q 26.265625 48.1875 28.421875 48.1875 
Q 40.625 48.1875 47.75 41.5 
Q 54.890625 34.8125 54.890625 23.390625 
Q 54.890625 11.625 47.5625 5.09375 
Q 40.234375 -1.421875 26.90625 -1.421875 
Q 22.3125 -1.421875 17.546875 -0.640625 
Q 12.796875 0.140625 7.71875 1.703125 
L 7.71875 11.625 
Q 12.109375 9.234375 16.796875 8.0625 
Q 21.484375 6.890625 26.703125 6.890625 
Q 35.15625 6.890625 40.078125 11.328125 
Q 45.015625 15.765625 45.015625 23.390625 
Q 45.015625 31 40.078125 35.4375 
Q 35.15625 39.890625 26.703125 39.890625 
Q 22.75 39.890625 18.8125 39.015625 
Q 14.890625 38.140625 10.796875 36.28125 
z
" id="DejaVuSans-53"/>
        <path d="M 31.78125 66.40625 
Q 24.171875 66.40625 20.328125 58.90625 
Q 16.5 51.421875 16.5 36.375 
Q 16.5 21.390625 20.328125 13.890625 
Q 24.171875 6.390625 31.78125 6.390625 
Q 39.453125 6.390625 43.28125 13.890625 
Q 47.125 21.390625 47.125 36.375 
Q 47.125 51.421875 43.28125 58.90625 
Q 39.453125 66.40625 31.78125 66.40625 
z
M 31.78125 74.21875 
Q 44.046875 74.21875 50.515625 64.515625 
Q 56.984375 54.828125 56.984375 36.375 
Q 56.984375 17.96875 50.515625 8.265625 
Q 44.046875 -1.421875 31.78125 -1.421875 
Q 19.53125 -1.421875 13.0625 8.265625 
Q 6.59375 17.96875 6.59375 36.375 
Q 6.59375 54.828125 13.0625 64.515625 
Q 19.53125 74.21875 31.78125 74.21875 
z
" id="DejaVuSans-48"/>
       </defs>
       <use xlink:href="#DejaVuSans-8722"/>
       <use x="83.789062" xlink:href="#DejaVuSans-49"/>
       <use x="147.412109" xlink:href="#DejaVuSans-53"/>
       <use x="211.035156" xlink:href="#DejaVuSans-48"/>
      </g>
     </g>
    </g>
    <g id="xtick_2">
     <g id="line2d_2">
      <g>
       <use style="stroke:#000000;stroke-width:0.8;" x="128.85576" xlink:href="#mff0b9e59db" y="307.584"/>
      </g>
     </g>
     <g id="text_2">
      <!-- −100 -->
      <g transform="translate(115.122167 322.182437)scale(0.1 -0.1)">
       <use xlink:href="#DejaVuSans-8722"/>
       <use x="83.789062" xlink:href="#DejaVuSans-49"/>
       <use x="147.412109" xlink:href="#DejaVuSans-48"/>
       <use x="211.035156" xlink:href="#DejaVuSans-48"/>
      </g>
     </g>
    </g>
    <g id="xtick_3">
     <g id="line2d_3">
      <g>
       <use style="stroke:#000000;stroke-width:0.8;" x="194.376434" xlink:href="#mff0b9e59db" y="307.584"/>
      </g>
     </g>
     <g id="text_3">
      <!-- −50 -->
      <g transform="translate(183.824091 322.182437)scale(0.1 -0.1)">
       <use xlink:href="#DejaVuSans-8722"/>
       <use x="83.789062" xlink:href="#DejaVuSans-53"/>
       <use x="147.412109" xlink:href="#DejaVuSans-48"/>
      </g>
     </g>
    </g>
    <g id="xtick_4">
     <g id="line2d_4">
      <g>
       <use style="stroke:#000000;stroke-width:0.8;" x="259.897108" xlink:href="#mff0b9e59db" y="307.584"/>
      </g>
     </g>
     <g id="text_4">
      <!-- 0 -->
      <g transform="translate(256.715858 322.182437)scale(0.1 -0.1)">
       <use xlink:href="#DejaVuSans-48"/>
      </g>
     </g>
    </g>
    <g id="xtick_5">
     <g id="line2d_5">
      <g>
       <use style="stroke:#000000;stroke-width:0.8;" x="325.417782" xlink:href="#mff0b9e59db" y="307.584"/>
      </g>
     </g>
     <g id="text_5">
      <!-- 50 -->
      <g transform="translate(319.055282 322.182437)scale(0.1 -0.1)">
       <use xlink:href="#DejaVuSans-53"/>
       <use x="63.623047" xlink:href="#DejaVuSans-48"/>
      </g>
     </g>
    </g>
    <g id="xtick_6">
     <g id="line2d_6">
      <g>
       <use style="stroke:#000000;stroke-width:0.8;" x="390.938456" xlink:href="#mff0b9e59db" y="307.584"/>
      </g>
     </g>
     <g id="text_6">
      <!-- 100 -->
      <g transform="translate(381.394706 322.182437)scale(0.1 -0.1)">
       <use xlink:href="#DejaVuSans-49"/>
       <use x="63.623047" xlink:href="#DejaVuSans-48"/>
       <use x="127.246094" xlink:href="#DejaVuSans-48"/>
      </g>
     </g>
    </g>
   </g>
   <g id="matplotlib.axis_2">
    <g id="ytick_1">
     <g id="line2d_7">
      <defs>
       <path d="M 0 0 
L -3.5 0 
" id="m8ed7cc860f" style="stroke:#000000;stroke-width:0.8;"/>
      </defs>
      <g>
       <use style="stroke:#000000;stroke-width:0.8;" x="57.6" xlink:href="#m8ed7cc860f" y="295.43757"/>
      </g>
     </g>
     <g id="text_7">
      <!-- 0 -->
      <g transform="translate(44.2375 299.236789)scale(0.1 -0.1)">
       <use xlink:href="#DejaVuSans-48"/>
      </g>
     </g>
    </g>
    <g id="ytick_2">
     <g id="line2d_8">
      <g>
       <use style="stroke:#000000;stroke-width:0.8;" x="57.6" xlink:href="#m8ed7cc860f" y="262.677233"/>
      </g>
     </g>
     <g id="text_8">
      <!-- 25 -->
      <g transform="translate(37.875 266.476452)scale(0.1 -0.1)">
       <defs>
        <path d="M 19.1875 8.296875 
L 53.609375 8.296875 
L 53.609375 0 
L 7.328125 0 
L 7.328125 8.296875 
Q 12.9375 14.109375 22.625 23.890625 
Q 32.328125 33.6875 34.8125 36.53125 
Q 39.546875 41.84375 41.421875 45.53125 
Q 43.3125 49.21875 43.3125 52.78125 
Q 43.3125 58.59375 39.234375 62.25 
Q 35.15625 65.921875 28.609375 65.921875 
Q 23.96875 65.921875 18.8125 64.3125 
Q 13.671875 62.703125 7.8125 59.421875 
L 7.8125 69.390625 
Q 13.765625 71.78125 18.9375 73 
Q 24.125 74.21875 28.421875 74.21875 
Q 39.75 74.21875 46.484375 68.546875 
Q 53.21875 62.890625 53.21875 53.421875 
Q 53.21875 48.921875 51.53125 44.890625 
Q 49.859375 40.875 45.40625 35.40625 
Q 44.1875 33.984375 37.640625 27.21875 
Q 31.109375 20.453125 19.1875 8.296875 
z
" id="DejaVuSans-50"/>
       </defs>
       <use xlink:href="#DejaVuSans-50"/>
       <use x="63.623047" xlink:href="#DejaVuSans-53"/>
      </g>
     </g>
    </g>
    <g id="ytick_3">
     <g id="line2d_9">
      <g>
       <use style="stroke:#000000;stroke-width:0.8;" x="57.6" xlink:href="#m8ed7cc860f" y="229.916896"/>
      </g>
     </g>
     <g id="text_9">
      <!-- 50 -->
      <g transform="translate(37.875 233.716115)scale(0.1 -0.1)">
       <use xlink:href="#DejaVuSans-53"/>
       <use x="63.623047" xlink:href="#DejaVuSans-48"/>
      </g>
     </g>
    </g>
    <g id="ytick_4">
     <g id="line2d_10">
      <g>
       <use style="stroke:#000000;stroke-width:0.8;" x="57.6" xlink:href="#m8ed7cc860f" y="197.156559"/>
      </g>
     </g>
     <g id="text_10">
      <!-- 75 -->
      <g transform="translate(37.875 200.955778)scale(0.1 -0.1)">
       <defs>
        <path d="M 8.203125 72.90625 
L 55.078125 72.90625 
L 55.078125 68.703125 
L 28.609375 0 
L 18.3125 0 
L 43.21875 64.59375 
L 8.203125 64.59375 
z
" id="DejaVuSans-55"/>
       </defs>
       <use xlink:href="#DejaVuSans-55"/>
       <use x="63.623047" xlink:href="#DejaVuSans-53"/>
      </g>
     </g>
    </g>
    <g id="ytick_5">
     <g id="line2d_11">
      <g>
       <use style="stroke:#000000;stroke-width:0.8;" x="57.6" xlink:href="#m8ed7cc860f" y="164.396223"/>
      </g>
     </g>
     <g id="text_11">
      <!-- 100 -->
      <g transform="translate(31.5125 168.195441)scale(0.1 -0.1)">
       <use xlink:href="#DejaVuSans-49"/>
       <use x="63.623047" xlink:href="#DejaVuSans-48"/>
       <use x="127.246094" xlink:href="#DejaVuSans-48"/>
      </g>
     </g>
    </g>
    <g id="ytick_6">
     <g id="line2d_12">
      <g>
       <use style="stroke:#000000;stroke-width:0.8;" x="57.6" xlink:href="#m8ed7cc860f" y="131.635886"/>
      </g>
     </g>
     <g id="text_12">
      <!-- 125 -->
      <g transform="translate(31.5125 135.435104)scale(0.1 -0.1)">
       <use xlink:href="#DejaVuSans-49"/>
       <use x="63.623047" xlink:href="#DejaVuSans-50"/>
       <use x="127.246094" xlink:href="#DejaVuSans-53"/>
      </g>
     </g>
    </g>
    <g id="ytick_7">
     <g id="line2d_13">
      <g>
       <use style="stroke:#000000;stroke-width:0.8;" x="57.6" xlink:href="#m8ed7cc860f" y="98.875549"/>
      </g>
     </g>
     <g id="text_13">
      <!-- 150 -->
      <g transform="translate(31.5125 102.674767)scale(0.1 -0.1)">
       <use xlink:href="#DejaVuSans-49"/>
       <use x="63.623047" xlink:href="#DejaVuSans-53"/>
       <use x="127.246094" xlink:href="#DejaVuSans-48"/>
      </g>
     </g>
    </g>
    <g id="ytick_8">
     <g id="line2d_14">
      <g>
       <use style="stroke:#000000;stroke-width:0.8;" x="57.6" xlink:href="#m8ed7cc860f" y="66.115212"/>
      </g>
     </g>
     <g id="text_14">
      <!-- 175 -->
      <g transform="translate(31.5125 69.91443)scale(0.1 -0.1)">
       <use xlink:href="#DejaVuSans-49"/>
       <use x="63.623047" xlink:href="#DejaVuSans-55"/>
       <use x="127.246094" xlink:href="#DejaVuSans-53"/>
      </g>
     </g>
    </g>
   </g>
   <g id="line2d_15">
    <path clip-path="url(#p4438a8c80f)" d="M 259.897108 295.43757 
L 260.164268 278.197619 
L 260.688372 257.487537 
L 261.770122 240.110199 
L 261.72799 236.680309 
L 261.499177 233.283336 
L 261.040602 229.926876 
L 260.273847 226.626556 
L 259.201323 223.382906 
L 257.90119 220.180872 
L 255.695201 215.422924 
L 252.686754 209.084158 
L 251.329622 205.883119 
L 250.174766 202.640906 
L 249.300347 199.342466 
L 248.765181 195.96974 
L 248.520713 192.528513 
L 248.484046 189.039504 
L 248.757453 175.019985 
L 248.51634 171.602822 
L 247.985647 168.262178 
L 247.105959 165.010566 
L 245.977406 161.811262 
L 244.648281 158.655838 
L 243.148076 155.543162 
L 240.641508 150.95182 
L 237.915906 146.450288 
L 233.156848 139.136932 
L 231.217296 136.289104 
L 229.027239 133.564023 
L 226.628387 130.940137 
L 216.754277 120.70307 
L 214.668386 118.020053 
L 212.916476 115.212188 
L 212.194033 113.749665 
L 211.068663 110.674074 
L 210.16753 107.350377 
L 209.466596 103.83239 
L 208.982805 100.18815 
L 208.733103 96.485695 
L 208.734434 92.79306 
L 209.003746 89.178283 
L 209.557982 85.7094 
L 210.414088 82.454448 
L 211.589009 79.481465 
L 213.176484 76.626233 
L 215.208863 73.732442 
L 217.611005 70.879991 
L 220.307771 68.148778 
L 223.224021 65.618703 
L 226.284615 63.369663 
L 229.414413 61.481558 
L 232.538275 60.034286 
L 234.0745 59.50093 
L 235.581063 59.107745 
L 237.048572 58.864717 
L 238.50385 58.795116 
L 239.978889 58.905204 
L 241.472054 59.179456 
L 242.98171 59.602348 
L 246.043953 60.831954 
L 249.152534 62.469826 
L 252.29437 64.391769 
L 263.36379 71.562559 
L 266.493368 73.225903 
L 266.493368 73.225903 
" style="fill:none;stroke:#fea952;stroke-linecap:square;"/>
   </g>
   <g id="line2d_16">
    <path clip-path="url(#p4438a8c80f)" d="M 254.655697 295.387141 
L 254.923664 278.092712 
L 255.356799 258.927191 
L 255.84409 251.851266 
L 256.430807 243.365643 
L 256.529601 238.519328 
L 256.415879 235.410312 
L 256.122175 232.406769 
L 255.626985 229.586304 
L 254.827475 226.741368 
L 253.745352 223.815065 
L 251.722435 219.265899 
L 247.138181 209.476876 
L 245.753825 205.939007 
L 244.600381 202.221591 
L 243.795533 198.358422 
L 243.377403 194.532302 
L 243.239936 190.781313 
L 243.334199 185.330009 
L 243.554923 176.865447 
L 243.446963 173.768551 
L 243.138025 170.874339 
L 242.560873 168.118672 
L 241.654032 165.227988 
L 240.533792 162.328861 
L 239.222334 159.424095 
L 236.950154 155.063746 
L 234.391017 150.708375 
L 230.693961 144.918862 
L 227.067919 139.491853 
L 225.114958 137.052431 
L 222.869276 134.593083 
L 212.685901 124.008105 
L 210.306159 120.926238 
L 209.216175 119.273098 
L 208.216918 117.53363 
L 207.329373 115.701592 
L 206.035146 112.136482 
L 205.044605 108.459686 
L 204.282309 104.605764 
L 203.759528 100.626686 
L 203.49222 96.575616 
L 203.500679 92.505423 
L 203.810499 88.467565 
L 204.455003 84.511677 
L 205.479395 80.687036 
L 206.152755 78.840587 
L 206.933389 77.073116 
L 207.816165 75.386267 
L 209.923466 72.06774 
L 212.428547 68.838828 
L 215.268815 65.740472 
L 218.38617 62.827989 
L 221.727912 60.164956 
L 225.250543 57.821291 
L 227.070156 56.793339 
L 228.926236 55.876033 
L 230.819112 55.082578 
L 232.750859 54.429154 
L 234.724679 53.936522 
L 236.798168 53.629048 
L 238.893969 53.568 
L 240.925792 53.749788 
L 242.885944 54.132095 
L 244.777686 54.677979 
L 246.609379 55.35714 
L 250.129729 57.020538 
L 253.507925 58.96424 
L 258.374819 62.119551 
L 264.479837 66.122066 
L 267.298707 67.759116 
L 268.859476 68.548675 
L 268.859476 68.548675 
" style="fill:none;stroke:#ffffff;stroke-linecap:square;"/>
   </g>
   <g id="line2d_17">
    <path clip-path="url(#p4438a8c80f)" d="M 265.13852 295.488 
L 265.404872 278.302527 
L 265.918355 257.837131 
L 267.011776 240.108908 
L 266.962601 236.408665 
L 266.705006 232.671552 
L 266.17526 228.873207 
L 265.281966 225.079405 
L 264.084279 221.477209 
L 262.686285 218.041294 
L 260.414429 213.141735 
L 256.837396 205.498813 
L 255.690224 202.597194 
L 254.794852 199.77772 
L 254.186958 196.973499 
L 253.846178 193.980486 
L 253.723234 190.79606 
L 253.810367 185.71685 
L 254.035723 176.63613 
L 253.888864 172.837716 
L 253.44672 168.968941 
L 252.610734 165.13538 
L 251.483163 161.582728 
L 250.138352 158.127412 
L 248.613106 154.76436 
L 246.062411 149.880453 
L 243.294248 145.173737 
L 239.447658 139.150627 
L 235.366674 133.086355 
L 232.939521 130.075615 
L 230.387499 127.287191 
L 220.822653 117.398036 
L 219.030613 115.113868 
L 217.616034 112.890747 
L 216.563798 110.590617 
L 215.676437 107.758149 
L 214.947613 104.671169 
L 214.402916 101.415043 
L 214.062489 98.073071 
L 213.942137 94.728144 
L 214.053011 91.464063 
L 214.399949 88.366378 
L 214.978208 85.522093 
L 215.768519 83.01633 
L 216.828709 80.741058 
L 218.360048 78.290587 
L 220.308272 75.753282 
L 222.585697 73.248 
L 225.100142 70.87922 
L 227.75403 68.743164 
L 230.440576 66.92971 
L 233.037328 65.519615 
L 235.398141 64.572706 
L 237.298976 64.100386 
L 238.11373 64.022232 
L 239.031985 64.060619 
L 240.058164 64.226817 
L 242.403064 64.95957 
L 245.056809 66.194699 
L 247.9323 67.841862 
L 252.537936 70.827624 
L 259.097313 75.118075 
L 262.566491 77.113573 
L 264.12726 77.903132 
L 264.12726 77.903132 
" style="fill:none;stroke:#ffffff;stroke-linecap:square;"/>
   </g>
   <g id="patch_3">
    <path d="M 57.6 307.584 
L 57.6 41.472 
" style="fill:none;stroke:#000000;stroke-linecap:square;stroke-linejoin:miter;stroke-width:0.8;"/>
   </g>
   <g id="patch_4">
    <path d="M 414.72 307.584 
L 414.72 41.472 
" style="fill:none;stroke:#000000;stroke-linecap:square;stroke-linejoin:miter;stroke-width:0.8;"/>
   </g>
   <g id="patch_5">
    <path d="M 57.6 307.584 
L 414.72 307.584 
" style="fill:none;stroke:#000000;stroke-linecap:square;stroke-linejoin:miter;stroke-width:0.8;"/>
   </g>
   <g id="patch_6">
    <path d="M 57.6 41.472 
L 414.72 41.472 
" style="fill:none;stroke:#000000;stroke-linecap:square;stroke-linejoin:miter;stroke-width:0.8;"/>
   </g>
  </g>
 </g>
 <defs>
  <clipPath id="p4438a8c80f">
   <rect height="266.112" width="357.12" x="57.6" y="41.472"/>
  </clipPath>
 </defs>
</svg>
