<?xml version="1.0" encoding="utf-8" standalone="no"?>
<!DOCTYPE svg PUBLIC "-//W3C//DTD SVG 1.1//EN"
  "http://www.w3.org/Graphics/SVG/1.1/DTD/svg11.dtd">
<!-- Created with matplotlib (https://matplotlib.org/) -->
<svg height="345.6pt" version="1.1" viewBox="0 0 460.8 345.6" width="460.8pt" xmlns="http://www.w3.org/2000/svg" xmlns:xlink="http://www.w3.org/1999/xlink">
 <metadata>
  <rdf:RDF xmlns:cc="http://creativecommons.org/ns#" xmlns:dc="http://purl.org/dc/elements/1.1/" xmlns:rdf="http://www.w3.org/1999/02/22-rdf-syntax-ns#">
   <cc:Work>
    <dc:type rdf:resource="http://purl.org/dc/dcmitype/StillImage"/>
    <dc:date>2021-06-04T08:42:39.073991</dc:date>
    <dc:format>image/svg+xml</dc:format>
    <dc:creator>
     <cc:Agent>
      <dc:title>Matplotlib v3.3.3, https://matplotlib.org/</dc:title>
     </cc:Agent>
    </dc:creator>
   </cc:Work>
  </rdf:RDF>
 </metadata>
 <defs>
  <style type="text/css">*{stroke-linecap:butt;stroke-linejoin:round;}</style>
 </defs>
 <g id="figure_1">
  <g id="patch_1">
   <path d="M 0 345.6 
L 460.8 345.6 
L 460.8 0 
L 0 0 
z
" style="fill:#ffffff;"/>
  </g>
  <g id="axes_1">
   <g id="patch_2">
    <path d="M 57.6 307.584 
L 414.72 307.584 
L 414.72 41.472 
L 57.6 41.472 
z
" style="fill:#7d9051;"/>
   </g>
   <g id="matplotlib.axis_1">
    <g id="xtick_1">
     <g id="line2d_1">
      <defs>
       <path d="M 0 0 
L 0 3.5 
" id="maa03eefc8b" style="stroke:#000000;stroke-width:0.8;"/>
      </defs>
      <g>
       <use style="stroke:#000000;stroke-width:0.8;" x="74.955062" xlink:href="#maa03eefc8b" y="307.584"/>
      </g>
     </g>
     <g id="text_1">
      <!-- −100 -->
      <g transform="translate(61.221468 322.182437)scale(0.1 -0.1)">
       <defs>
        <path d="M 10.59375 35.5 
L 73.1875 35.5 
L 73.1875 27.203125 
L 10.59375 27.203125 
z
" id="DejaVuSans-8722"/>
        <path d="M 12.40625 8.296875 
L 28.515625 8.296875 
L 28.515625 63.921875 
L 10.984375 60.40625 
L 10.984375 69.390625 
L 28.421875 72.90625 
L 38.28125 72.90625 
L 38.28125 8.296875 
L 54.390625 8.296875 
L 54.390625 0 
L 12.40625 0 
z
" id="DejaVuSans-49"/>
        <path d="M 31.78125 66.40625 
Q 24.171875 66.40625 20.328125 58.90625 
Q 16.5 51.421875 16.5 36.375 
Q 16.5 21.390625 20.328125 13.890625 
Q 24.171875 6.390625 31.78125 6.390625 
Q 39.453125 6.390625 43.28125 13.890625 
Q 47.125 21.390625 47.125 36.375 
Q 47.125 51.421875 43.28125 58.90625 
Q 39.453125 66.40625 31.78125 66.40625 
z
M 31.78125 74.21875 
Q 44.046875 74.21875 50.515625 64.515625 
Q 56.984375 54.828125 56.984375 36.375 
Q 56.984375 17.96875 50.515625 8.265625 
Q 44.046875 -1.421875 31.78125 -1.421875 
Q 19.53125 -1.421875 13.0625 8.265625 
Q 6.59375 17.96875 6.59375 36.375 
Q 6.59375 54.828125 13.0625 64.515625 
Q 19.53125 74.21875 31.78125 74.21875 
z
" id="DejaVuSans-48"/>
       </defs>
       <use xlink:href="#DejaVuSans-8722"/>
       <use x="83.789062" xlink:href="#DejaVuSans-49"/>
       <use x="147.412109" xlink:href="#DejaVuSans-48"/>
       <use x="211.035156" xlink:href="#DejaVuSans-48"/>
      </g>
     </g>
    </g>
    <g id="xtick_2">
     <g id="line2d_2">
      <g>
       <use style="stroke:#000000;stroke-width:0.8;" x="138.227878" xlink:href="#maa03eefc8b" y="307.584"/>
      </g>
     </g>
     <g id="text_2">
      <!-- −50 -->
      <g transform="translate(127.675535 322.182437)scale(0.1 -0.1)">
       <defs>
        <path d="M 10.796875 72.90625 
L 49.515625 72.90625 
L 49.515625 64.59375 
L 19.828125 64.59375 
L 19.828125 46.734375 
Q 21.96875 47.46875 24.109375 47.828125 
Q 26.265625 48.1875 28.421875 48.1875 
Q 40.625 48.1875 47.75 41.5 
Q 54.890625 34.8125 54.890625 23.390625 
Q 54.890625 11.625 47.5625 5.09375 
Q 40.234375 -1.421875 26.90625 -1.421875 
Q 22.3125 -1.421875 17.546875 -0.640625 
Q 12.796875 0.140625 7.71875 1.703125 
L 7.71875 11.625 
Q 12.109375 9.234375 16.796875 8.0625 
Q 21.484375 6.890625 26.703125 6.890625 
Q 35.15625 6.890625 40.078125 11.328125 
Q 45.015625 15.765625 45.015625 23.390625 
Q 45.015625 31 40.078125 35.4375 
Q 35.15625 39.890625 26.703125 39.890625 
Q 22.75 39.890625 18.8125 39.015625 
Q 14.890625 38.140625 10.796875 36.28125 
z
" id="DejaVuSans-53"/>
       </defs>
       <use xlink:href="#DejaVuSans-8722"/>
       <use x="83.789062" xlink:href="#DejaVuSans-53"/>
       <use x="147.412109" xlink:href="#DejaVuSans-48"/>
      </g>
     </g>
    </g>
    <g id="xtick_3">
     <g id="line2d_3">
      <g>
       <use style="stroke:#000000;stroke-width:0.8;" x="201.500695" xlink:href="#maa03eefc8b" y="307.584"/>
      </g>
     </g>
     <g id="text_3">
      <!-- 0 -->
      <g transform="translate(198.319445 322.182437)scale(0.1 -0.1)">
       <use xlink:href="#DejaVuSans-48"/>
      </g>
     </g>
    </g>
    <g id="xtick_4">
     <g id="line2d_4">
      <g>
       <use style="stroke:#000000;stroke-width:0.8;" x="264.773511" xlink:href="#maa03eefc8b" y="307.584"/>
      </g>
     </g>
     <g id="text_4">
      <!-- 50 -->
      <g transform="translate(258.411011 322.182437)scale(0.1 -0.1)">
       <use xlink:href="#DejaVuSans-53"/>
       <use x="63.623047" xlink:href="#DejaVuSans-48"/>
      </g>
     </g>
    </g>
    <g id="xtick_5">
     <g id="line2d_5">
      <g>
       <use style="stroke:#000000;stroke-width:0.8;" x="328.046328" xlink:href="#maa03eefc8b" y="307.584"/>
      </g>
     </g>
     <g id="text_5">
      <!-- 100 -->
      <g transform="translate(318.502578 322.182437)scale(0.1 -0.1)">
       <use xlink:href="#DejaVuSans-49"/>
       <use x="63.623047" xlink:href="#DejaVuSans-48"/>
       <use x="127.246094" xlink:href="#DejaVuSans-48"/>
      </g>
     </g>
    </g>
    <g id="xtick_6">
     <g id="line2d_6">
      <g>
       <use style="stroke:#000000;stroke-width:0.8;" x="391.319144" xlink:href="#maa03eefc8b" y="307.584"/>
      </g>
     </g>
     <g id="text_6">
      <!-- 150 -->
      <g transform="translate(381.775394 322.182437)scale(0.1 -0.1)">
       <use xlink:href="#DejaVuSans-49"/>
       <use x="63.623047" xlink:href="#DejaVuSans-53"/>
       <use x="127.246094" xlink:href="#DejaVuSans-48"/>
      </g>
     </g>
    </g>
   </g>
   <g id="matplotlib.axis_2">
    <g id="ytick_1">
     <g id="line2d_7">
      <defs>
       <path d="M 0 0 
L -3.5 0 
" id="m461cfe3783" style="stroke:#000000;stroke-width:0.8;"/>
      </defs>
      <g>
       <use style="stroke:#000000;stroke-width:0.8;" x="57.6" xlink:href="#m461cfe3783" y="295.4393"/>
      </g>
     </g>
     <g id="text_7">
      <!-- 0 -->
      <g transform="translate(44.2375 299.238519)scale(0.1 -0.1)">
       <use xlink:href="#DejaVuSans-48"/>
      </g>
     </g>
    </g>
    <g id="ytick_2">
     <g id="line2d_8">
      <g>
       <use style="stroke:#000000;stroke-width:0.8;" x="57.6" xlink:href="#m461cfe3783" y="263.802892"/>
      </g>
     </g>
     <g id="text_8">
      <!-- 25 -->
      <g transform="translate(37.875 267.602111)scale(0.1 -0.1)">
       <defs>
        <path d="M 19.1875 8.296875 
L 53.609375 8.296875 
L 53.609375 0 
L 7.328125 0 
L 7.328125 8.296875 
Q 12.9375 14.109375 22.625 23.890625 
Q 32.328125 33.6875 34.8125 36.53125 
Q 39.546875 41.84375 41.421875 45.53125 
Q 43.3125 49.21875 43.3125 52.78125 
Q 43.3125 58.59375 39.234375 62.25 
Q 35.15625 65.921875 28.609375 65.921875 
Q 23.96875 65.921875 18.8125 64.3125 
Q 13.671875 62.703125 7.8125 59.421875 
L 7.8125 69.390625 
Q 13.765625 71.78125 18.9375 73 
Q 24.125 74.21875 28.421875 74.21875 
Q 39.75 74.21875 46.484375 68.546875 
Q 53.21875 62.890625 53.21875 53.421875 
Q 53.21875 48.921875 51.53125 44.890625 
Q 49.859375 40.875 45.40625 35.40625 
Q 44.1875 33.984375 37.640625 27.21875 
Q 31.109375 20.453125 19.1875 8.296875 
z
" id="DejaVuSans-50"/>
       </defs>
       <use xlink:href="#DejaVuSans-50"/>
       <use x="63.623047" xlink:href="#DejaVuSans-53"/>
      </g>
     </g>
    </g>
    <g id="ytick_3">
     <g id="line2d_9">
      <g>
       <use style="stroke:#000000;stroke-width:0.8;" x="57.6" xlink:href="#m461cfe3783" y="232.166484"/>
      </g>
     </g>
     <g id="text_9">
      <!-- 50 -->
      <g transform="translate(37.875 235.965703)scale(0.1 -0.1)">
       <use xlink:href="#DejaVuSans-53"/>
       <use x="63.623047" xlink:href="#DejaVuSans-48"/>
      </g>
     </g>
    </g>
    <g id="ytick_4">
     <g id="line2d_10">
      <g>
       <use style="stroke:#000000;stroke-width:0.8;" x="57.6" xlink:href="#m461cfe3783" y="200.530076"/>
      </g>
     </g>
     <g id="text_10">
      <!-- 75 -->
      <g transform="translate(37.875 204.329295)scale(0.1 -0.1)">
       <defs>
        <path d="M 8.203125 72.90625 
L 55.078125 72.90625 
L 55.078125 68.703125 
L 28.609375 0 
L 18.3125 0 
L 43.21875 64.59375 
L 8.203125 64.59375 
z
" id="DejaVuSans-55"/>
       </defs>
       <use xlink:href="#DejaVuSans-55"/>
       <use x="63.623047" xlink:href="#DejaVuSans-53"/>
      </g>
     </g>
    </g>
    <g id="ytick_5">
     <g id="line2d_11">
      <g>
       <use style="stroke:#000000;stroke-width:0.8;" x="57.6" xlink:href="#m461cfe3783" y="168.893668"/>
      </g>
     </g>
     <g id="text_11">
      <!-- 100 -->
      <g transform="translate(31.5125 172.692886)scale(0.1 -0.1)">
       <use xlink:href="#DejaVuSans-49"/>
       <use x="63.623047" xlink:href="#DejaVuSans-48"/>
       <use x="127.246094" xlink:href="#DejaVuSans-48"/>
      </g>
     </g>
    </g>
    <g id="ytick_6">
     <g id="line2d_12">
      <g>
       <use style="stroke:#000000;stroke-width:0.8;" x="57.6" xlink:href="#m461cfe3783" y="137.257259"/>
      </g>
     </g>
     <g id="text_12">
      <!-- 125 -->
      <g transform="translate(31.5125 141.056478)scale(0.1 -0.1)">
       <use xlink:href="#DejaVuSans-49"/>
       <use x="63.623047" xlink:href="#DejaVuSans-50"/>
       <use x="127.246094" xlink:href="#DejaVuSans-53"/>
      </g>
     </g>
    </g>
    <g id="ytick_7">
     <g id="line2d_13">
      <g>
       <use style="stroke:#000000;stroke-width:0.8;" x="57.6" xlink:href="#m461cfe3783" y="105.620851"/>
      </g>
     </g>
     <g id="text_13">
      <!-- 150 -->
      <g transform="translate(31.5125 109.42007)scale(0.1 -0.1)">
       <use xlink:href="#DejaVuSans-49"/>
       <use x="63.623047" xlink:href="#DejaVuSans-53"/>
       <use x="127.246094" xlink:href="#DejaVuSans-48"/>
      </g>
     </g>
    </g>
    <g id="ytick_8">
     <g id="line2d_14">
      <g>
       <use style="stroke:#000000;stroke-width:0.8;" x="57.6" xlink:href="#m461cfe3783" y="73.984443"/>
      </g>
     </g>
     <g id="text_14">
      <!-- 175 -->
      <g transform="translate(31.5125 77.783662)scale(0.1 -0.1)">
       <use xlink:href="#DejaVuSans-49"/>
       <use x="63.623047" xlink:href="#DejaVuSans-55"/>
       <use x="127.246094" xlink:href="#DejaVuSans-53"/>
      </g>
     </g>
    </g>
    <g id="ytick_9">
     <g id="line2d_15">
      <g>
       <use style="stroke:#000000;stroke-width:0.8;" x="57.6" xlink:href="#m461cfe3783" y="42.348035"/>
      </g>
     </g>
     <g id="text_15">
      <!-- 200 -->
      <g transform="translate(31.5125 46.147254)scale(0.1 -0.1)">
       <use xlink:href="#DejaVuSans-50"/>
       <use x="63.623047" xlink:href="#DejaVuSans-48"/>
       <use x="127.246094" xlink:href="#DejaVuSans-48"/>
      </g>
     </g>
    </g>
   </g>
   <g id="line2d_16">
    <path clip-path="url(#p11ce1decfb)" d="M 201.500695 295.4393 
L 201.758689 278.790811 
L 202.09214 257.141699 
L 202.105593 242.136609 
L 202.361578 235.489554 
L 202.874592 226.989952 
L 203.166591 216.05085 
L 203.458907 212.513838 
L 203.970646 209.157545 
L 204.774965 206.057593 
L 205.309705 204.627378 
L 205.945024 203.289607 
L 206.690069 202.053733 
L 207.553982 200.929209 
L 208.572778 199.949195 
L 209.763629 199.128276 
L 211.107417 198.448047 
L 212.585025 197.890104 
L 215.865235 197.067452 
L 219.451323 196.513078 
L 228.751112 195.334585 
L 232.203398 194.559654 
L 233.795724 194.033524 
L 235.27335 193.390412 
L 236.617157 192.611912 
L 237.80803 191.679619 
L 238.854201 190.602486 
L 239.784731 189.409291 
L 240.611744 188.111365 
L 242.003718 185.246641 
L 243.127119 182.098959 
L 244.520824 177.045175 
L 246.344381 170.16246 
L 247.459522 166.863195 
L 248.839566 163.779518 
L 249.659237 162.346852 
L 250.606077 160.974249 
L 251.694257 159.635451 
L 254.20799 157.046013 
L 257.027142 154.552023 
L 265.584173 147.377588 
L 267.892065 145.000237 
L 268.846448 143.799296 
L 269.638908 142.585757 
L 270.247782 141.356308 
L 270.651408 140.107633 
L 270.828126 138.836419 
L 270.751462 137.556447 
L 270.4265 136.282367 
L 269.878911 135.012161 
L 269.134368 133.743813 
L 268.218543 132.475307 
L 265.975738 129.929756 
L 261.968721 126.059835 
L 257.806469 122.079606 
L 255.287689 119.337954 
L 254.182132 117.934628 
L 253.21336 116.506949 
L 252.407046 115.052898 
L 251.78886 113.57046 
L 251.347418 112.047634 
L 251.043437 110.477476 
L 250.78317 107.217441 
L 250.878683 103.8349 
L 251.406035 98.628838 
L 252.146906 91.67443 
L 252.242419 88.291889 
L 251.982152 85.031853 
L 251.678171 83.461696 
L 251.236729 81.93887 
L 250.01154 79.011083 
L 248.441352 76.202089 
L 246.590852 73.489615 
L 244.524726 70.851386 
L 241.162745 66.984529 
L 234.293237 59.300931 
L 232.197463 56.672911 
L 232.197463 56.672911 
" style="fill:none;stroke:#fea952;stroke-linecap:square;"/>
   </g>
   <g id="line2d_17">
    <path clip-path="url(#p11ce1decfb)" d="M 196.439104 295.390601 
L 196.697877 278.689503 
L 197.030349 257.160507 
L 197.045227 242.015086 
L 197.310955 235.152972 
L 197.814082 226.874605 
L 198.116781 215.702291 
L 198.440136 211.855045 
L 199.034956 208.034582 
L 199.473996 206.147712 
L 200.033699 204.284892 
L 200.737311 202.455906 
L 201.610002 200.676246 
L 202.67604 198.969961 
L 204.044838 197.281199 
L 205.699861 195.781651 
L 207.477531 194.612101 
L 209.319307 193.712571 
L 211.196931 193.022326 
L 213.097428 192.490753 
L 216.933693 191.752174 
L 222.608884 191.051423 
L 227.773286 190.368104 
L 230.615335 189.753394 
L 232.735956 189.010491 
L 233.496877 188.626197 
L 234.176972 188.152935 
L 234.862677 187.489639 
L 235.515844 186.689239 
L 236.723571 184.660279 
L 237.790568 182.102688 
L 238.734995 179.115315 
L 242.110818 166.78111 
L 243.55265 163.086636 
L 244.445998 161.265827 
L 245.492586 159.472639 
L 246.678108 157.78158 
L 247.97508 156.201824 
L 250.802005 153.301505 
L 253.795208 150.656297 
L 262.046267 143.757465 
L 263.929211 141.850974 
L 265.102872 140.339326 
L 265.775356 139.139055 
L 265.846661 138.807448 
L 265.778218 138.286252 
L 265.51363 137.574659 
L 265.030363 136.706787 
L 263.444299 134.645139 
L 261.196265 132.301787 
L 252.70629 124.065095 
L 251.311539 122.470414 
L 249.99358 120.776829 
L 248.786603 118.961718 
L 247.735154 117.001104 
L 246.927184 114.979779 
L 246.377867 113.009735 
L 246.013813 111.047525 
L 245.804517 109.103548 
L 245.738876 105.289021 
L 245.984908 101.586558 
L 247.16934 89.936348 
L 247.13522 87.213822 
L 246.816495 84.871015 
L 246.508181 83.745223 
L 245.531875 81.367919 
L 244.205475 78.973267 
L 242.563202 76.555576 
L 240.653553 74.112688 
L 237.415006 70.386958 
L 230.376224 62.507033 
L 228.199763 59.777822 
L 228.199763 59.777822 
" style="fill:none;stroke:#ffffff;stroke-linecap:square;"/>
   </g>
   <g id="line2d_18">
    <path clip-path="url(#p11ce1decfb)" d="M 206.562286 295.488 
L 206.8195 278.892119 
L 207.15393 257.12289 
L 207.165959 242.258133 
L 207.412201 235.826135 
L 207.935103 227.1053 
L 208.216401 216.399408 
L 208.477679 213.172631 
L 208.906335 210.280508 
L 209.516232 207.830294 
L 210.280047 205.902967 
L 211.063127 204.57722 
L 211.445696 204.116739 
L 212.049727 203.644451 
L 212.895528 203.183524 
L 213.97312 202.757883 
L 216.717908 202.056944 
L 220.05282 201.539038 
L 229.728937 200.301065 
L 231.758407 199.894061 
L 233.791461 199.365913 
L 235.815766 198.674807 
L 237.810744 197.770333 
L 239.737437 196.597628 
L 241.439088 195.206302 
L 242.845725 193.715332 
L 244.053618 192.129342 
L 245.086605 190.477309 
L 245.971159 188.779796 
L 247.395288 185.30232 
L 248.501836 181.779355 
L 252.137417 168.796942 
L 253.233133 166.293209 
L 254.534047 164.166917 
L 256.44697 161.940464 
L 258.892214 159.625267 
L 263.169969 156.055844 
L 267.666301 152.317526 
L 270.525193 149.616189 
L 271.854919 148.149501 
L 273.084654 146.56691 
L 274.174943 144.832189 
L 275.06423 142.913196 
L 275.665021 140.8046 
L 275.880896 138.533783 
L 275.656263 136.305446 
L 275.074781 134.278481 
L 274.244192 132.449662 
L 273.238373 130.780839 
L 272.103332 129.230236 
L 269.562598 126.358131 
L 265.423941 122.360709 
L 261.463545 118.57991 
L 259.263839 116.205494 
L 257.640118 114.052179 
L 257.078937 113.104692 
L 256.650536 112.16114 
L 256.316969 111.085533 
L 255.916972 108.627564 
L 255.850204 105.788377 
L 256.053949 102.636664 
L 257.292759 90.004913 
L 257.194469 86.073725 
L 256.951703 84.069752 
L 256.539847 82.052376 
L 255.965277 80.132517 
L 255.277333 78.359554 
L 253.620371 75.012932 
L 251.673127 71.902952 
L 249.523045 68.987712 
L 246.081235 64.891372 
L 237.221487 54.889435 
L 236.195163 53.568 
L 236.195163 53.568 
" style="fill:none;stroke:#ffffff;stroke-linecap:square;"/>
   </g>
   <g id="patch_3">
    <path d="M 57.6 307.584 
L 57.6 41.472 
" style="fill:none;stroke:#000000;stroke-linecap:square;stroke-linejoin:miter;stroke-width:0.8;"/>
   </g>
   <g id="patch_4">
    <path d="M 414.72 307.584 
L 414.72 41.472 
" style="fill:none;stroke:#000000;stroke-linecap:square;stroke-linejoin:miter;stroke-width:0.8;"/>
   </g>
   <g id="patch_5">
    <path d="M 57.6 307.584 
L 414.72 307.584 
" style="fill:none;stroke:#000000;stroke-linecap:square;stroke-linejoin:miter;stroke-width:0.8;"/>
   </g>
   <g id="patch_6">
    <path d="M 57.6 41.472 
L 414.72 41.472 
" style="fill:none;stroke:#000000;stroke-linecap:square;stroke-linejoin:miter;stroke-width:0.8;"/>
   </g>
  </g>
 </g>
 <defs>
  <clipPath id="p11ce1decfb">
   <rect height="266.112" width="357.12" x="57.6" y="41.472"/>
  </clipPath>
 </defs>
</svg>
