<?xml version="1.0" encoding="utf-8" standalone="no"?>
<!DOCTYPE svg PUBLIC "-//W3C//DTD SVG 1.1//EN"
  "http://www.w3.org/Graphics/SVG/1.1/DTD/svg11.dtd">
<!-- Created with matplotlib (https://matplotlib.org/) -->
<svg height="345.6pt" version="1.1" viewBox="0 0 460.8 345.6" width="460.8pt" xmlns="http://www.w3.org/2000/svg" xmlns:xlink="http://www.w3.org/1999/xlink">
 <metadata>
  <rdf:RDF xmlns:cc="http://creativecommons.org/ns#" xmlns:dc="http://purl.org/dc/elements/1.1/" xmlns:rdf="http://www.w3.org/1999/02/22-rdf-syntax-ns#">
   <cc:Work>
    <dc:type rdf:resource="http://purl.org/dc/dcmitype/StillImage"/>
    <dc:date>2021-06-17T13:34:49.070755</dc:date>
    <dc:format>image/svg+xml</dc:format>
    <dc:creator>
     <cc:Agent>
      <dc:title>Matplotlib v3.3.3, https://matplotlib.org/</dc:title>
     </cc:Agent>
    </dc:creator>
   </cc:Work>
  </rdf:RDF>
 </metadata>
 <defs>
  <style type="text/css">*{stroke-linecap:butt;stroke-linejoin:round;}</style>
 </defs>
 <g id="figure_1">
  <g id="patch_1">
   <path d="M 0 345.6 
L 460.8 345.6 
L 460.8 0 
L 0 0 
z
" style="fill:#ffffff;"/>
  </g>
  <g id="axes_1">
   <g id="patch_2">
    <path d="M 57.6 307.584 
L 414.72 307.584 
L 414.72 41.472 
L 57.6 41.472 
z
" style="fill:#7d9051;"/>
   </g>
   <g id="matplotlib.axis_1">
    <g id="xtick_1">
     <g id="line2d_1">
      <defs>
       <path d="M 0 0 
L 0 3.5 
" id="m6530d04c1e" style="stroke:#000000;stroke-width:0.8;"/>
      </defs>
      <g>
       <use style="stroke:#000000;stroke-width:0.8;" x="97.996027" xlink:href="#m6530d04c1e" y="307.584"/>
      </g>
     </g>
     <g id="text_1">
      <!-- −100 -->
      <g transform="translate(84.262433 322.182437)scale(0.1 -0.1)">
       <defs>
        <path d="M 10.59375 35.5 
L 73.1875 35.5 
L 73.1875 27.203125 
L 10.59375 27.203125 
z
" id="DejaVuSans-8722"/>
        <path d="M 12.40625 8.296875 
L 28.515625 8.296875 
L 28.515625 63.921875 
L 10.984375 60.40625 
L 10.984375 69.390625 
L 28.421875 72.90625 
L 38.28125 72.90625 
L 38.28125 8.296875 
L 54.390625 8.296875 
L 54.390625 0 
L 12.40625 0 
z
" id="DejaVuSans-49"/>
        <path d="M 31.78125 66.40625 
Q 24.171875 66.40625 20.328125 58.90625 
Q 16.5 51.421875 16.5 36.375 
Q 16.5 21.390625 20.328125 13.890625 
Q 24.171875 6.390625 31.78125 6.390625 
Q 39.453125 6.390625 43.28125 13.890625 
Q 47.125 21.390625 47.125 36.375 
Q 47.125 51.421875 43.28125 58.90625 
Q 39.453125 66.40625 31.78125 66.40625 
z
M 31.78125 74.21875 
Q 44.046875 74.21875 50.515625 64.515625 
Q 56.984375 54.828125 56.984375 36.375 
Q 56.984375 17.96875 50.515625 8.265625 
Q 44.046875 -1.421875 31.78125 -1.421875 
Q 19.53125 -1.421875 13.0625 8.265625 
Q 6.59375 17.96875 6.59375 36.375 
Q 6.59375 54.828125 13.0625 64.515625 
Q 19.53125 74.21875 31.78125 74.21875 
z
" id="DejaVuSans-48"/>
       </defs>
       <use xlink:href="#DejaVuSans-8722"/>
       <use x="83.789062" xlink:href="#DejaVuSans-49"/>
       <use x="147.412109" xlink:href="#DejaVuSans-48"/>
       <use x="211.035156" xlink:href="#DejaVuSans-48"/>
      </g>
     </g>
    </g>
    <g id="xtick_2">
     <g id="line2d_2">
      <g>
       <use style="stroke:#000000;stroke-width:0.8;" x="164.012841" xlink:href="#m6530d04c1e" y="307.584"/>
      </g>
     </g>
     <g id="text_2">
      <!-- −50 -->
      <g transform="translate(153.460497 322.182437)scale(0.1 -0.1)">
       <defs>
        <path d="M 10.796875 72.90625 
L 49.515625 72.90625 
L 49.515625 64.59375 
L 19.828125 64.59375 
L 19.828125 46.734375 
Q 21.96875 47.46875 24.109375 47.828125 
Q 26.265625 48.1875 28.421875 48.1875 
Q 40.625 48.1875 47.75 41.5 
Q 54.890625 34.8125 54.890625 23.390625 
Q 54.890625 11.625 47.5625 5.09375 
Q 40.234375 -1.421875 26.90625 -1.421875 
Q 22.3125 -1.421875 17.546875 -0.640625 
Q 12.796875 0.140625 7.71875 1.703125 
L 7.71875 11.625 
Q 12.109375 9.234375 16.796875 8.0625 
Q 21.484375 6.890625 26.703125 6.890625 
Q 35.15625 6.890625 40.078125 11.328125 
Q 45.015625 15.765625 45.015625 23.390625 
Q 45.015625 31 40.078125 35.4375 
Q 35.15625 39.890625 26.703125 39.890625 
Q 22.75 39.890625 18.8125 39.015625 
Q 14.890625 38.140625 10.796875 36.28125 
z
" id="DejaVuSans-53"/>
       </defs>
       <use xlink:href="#DejaVuSans-8722"/>
       <use x="83.789062" xlink:href="#DejaVuSans-53"/>
       <use x="147.412109" xlink:href="#DejaVuSans-48"/>
      </g>
     </g>
    </g>
    <g id="xtick_3">
     <g id="line2d_3">
      <g>
       <use style="stroke:#000000;stroke-width:0.8;" x="230.029655" xlink:href="#m6530d04c1e" y="307.584"/>
      </g>
     </g>
     <g id="text_3">
      <!-- 0 -->
      <g transform="translate(226.848405 322.182437)scale(0.1 -0.1)">
       <use xlink:href="#DejaVuSans-48"/>
      </g>
     </g>
    </g>
    <g id="xtick_4">
     <g id="line2d_4">
      <g>
       <use style="stroke:#000000;stroke-width:0.8;" x="296.046469" xlink:href="#m6530d04c1e" y="307.584"/>
      </g>
     </g>
     <g id="text_4">
      <!-- 50 -->
      <g transform="translate(289.683969 322.182437)scale(0.1 -0.1)">
       <use xlink:href="#DejaVuSans-53"/>
       <use x="63.623047" xlink:href="#DejaVuSans-48"/>
      </g>
     </g>
    </g>
    <g id="xtick_5">
     <g id="line2d_5">
      <g>
       <use style="stroke:#000000;stroke-width:0.8;" x="362.063284" xlink:href="#m6530d04c1e" y="307.584"/>
      </g>
     </g>
     <g id="text_5">
      <!-- 100 -->
      <g transform="translate(352.519534 322.182437)scale(0.1 -0.1)">
       <use xlink:href="#DejaVuSans-49"/>
       <use x="63.623047" xlink:href="#DejaVuSans-48"/>
       <use x="127.246094" xlink:href="#DejaVuSans-48"/>
      </g>
     </g>
    </g>
   </g>
   <g id="matplotlib.axis_2">
    <g id="ytick_1">
     <g id="line2d_6">
      <defs>
       <path d="M 0 0 
L -3.5 0 
" id="mbd9d7c50bf" style="stroke:#000000;stroke-width:0.8;"/>
      </defs>
      <g>
       <use style="stroke:#000000;stroke-width:0.8;" x="57.6" xlink:href="#mbd9d7c50bf" y="295.437188"/>
      </g>
     </g>
     <g id="text_6">
      <!-- 0 -->
      <g transform="translate(44.2375 299.236407)scale(0.1 -0.1)">
       <use xlink:href="#DejaVuSans-48"/>
      </g>
     </g>
    </g>
    <g id="ytick_2">
     <g id="line2d_7">
      <g>
       <use style="stroke:#000000;stroke-width:0.8;" x="57.6" xlink:href="#mbd9d7c50bf" y="262.428781"/>
      </g>
     </g>
     <g id="text_7">
      <!-- 25 -->
      <g transform="translate(37.875 266.228)scale(0.1 -0.1)">
       <defs>
        <path d="M 19.1875 8.296875 
L 53.609375 8.296875 
L 53.609375 0 
L 7.328125 0 
L 7.328125 8.296875 
Q 12.9375 14.109375 22.625 23.890625 
Q 32.328125 33.6875 34.8125 36.53125 
Q 39.546875 41.84375 41.421875 45.53125 
Q 43.3125 49.21875 43.3125 52.78125 
Q 43.3125 58.59375 39.234375 62.25 
Q 35.15625 65.921875 28.609375 65.921875 
Q 23.96875 65.921875 18.8125 64.3125 
Q 13.671875 62.703125 7.8125 59.421875 
L 7.8125 69.390625 
Q 13.765625 71.78125 18.9375 73 
Q 24.125 74.21875 28.421875 74.21875 
Q 39.75 74.21875 46.484375 68.546875 
Q 53.21875 62.890625 53.21875 53.421875 
Q 53.21875 48.921875 51.53125 44.890625 
Q 49.859375 40.875 45.40625 35.40625 
Q 44.1875 33.984375 37.640625 27.21875 
Q 31.109375 20.453125 19.1875 8.296875 
z
" id="DejaVuSans-50"/>
       </defs>
       <use xlink:href="#DejaVuSans-50"/>
       <use x="63.623047" xlink:href="#DejaVuSans-53"/>
      </g>
     </g>
    </g>
    <g id="ytick_3">
     <g id="line2d_8">
      <g>
       <use style="stroke:#000000;stroke-width:0.8;" x="57.6" xlink:href="#mbd9d7c50bf" y="229.420374"/>
      </g>
     </g>
     <g id="text_8">
      <!-- 50 -->
      <g transform="translate(37.875 233.219593)scale(0.1 -0.1)">
       <use xlink:href="#DejaVuSans-53"/>
       <use x="63.623047" xlink:href="#DejaVuSans-48"/>
      </g>
     </g>
    </g>
    <g id="ytick_4">
     <g id="line2d_9">
      <g>
       <use style="stroke:#000000;stroke-width:0.8;" x="57.6" xlink:href="#mbd9d7c50bf" y="196.411967"/>
      </g>
     </g>
     <g id="text_9">
      <!-- 75 -->
      <g transform="translate(37.875 200.211186)scale(0.1 -0.1)">
       <defs>
        <path d="M 8.203125 72.90625 
L 55.078125 72.90625 
L 55.078125 68.703125 
L 28.609375 0 
L 18.3125 0 
L 43.21875 64.59375 
L 8.203125 64.59375 
z
" id="DejaVuSans-55"/>
       </defs>
       <use xlink:href="#DejaVuSans-55"/>
       <use x="63.623047" xlink:href="#DejaVuSans-53"/>
      </g>
     </g>
    </g>
    <g id="ytick_5">
     <g id="line2d_10">
      <g>
       <use style="stroke:#000000;stroke-width:0.8;" x="57.6" xlink:href="#mbd9d7c50bf" y="163.40356"/>
      </g>
     </g>
     <g id="text_10">
      <!-- 100 -->
      <g transform="translate(31.5125 167.202779)scale(0.1 -0.1)">
       <use xlink:href="#DejaVuSans-49"/>
       <use x="63.623047" xlink:href="#DejaVuSans-48"/>
       <use x="127.246094" xlink:href="#DejaVuSans-48"/>
      </g>
     </g>
    </g>
    <g id="ytick_6">
     <g id="line2d_11">
      <g>
       <use style="stroke:#000000;stroke-width:0.8;" x="57.6" xlink:href="#mbd9d7c50bf" y="130.395153"/>
      </g>
     </g>
     <g id="text_11">
      <!-- 125 -->
      <g transform="translate(31.5125 134.194372)scale(0.1 -0.1)">
       <use xlink:href="#DejaVuSans-49"/>
       <use x="63.623047" xlink:href="#DejaVuSans-50"/>
       <use x="127.246094" xlink:href="#DejaVuSans-53"/>
      </g>
     </g>
    </g>
    <g id="ytick_7">
     <g id="line2d_12">
      <g>
       <use style="stroke:#000000;stroke-width:0.8;" x="57.6" xlink:href="#mbd9d7c50bf" y="97.386746"/>
      </g>
     </g>
     <g id="text_12">
      <!-- 150 -->
      <g transform="translate(31.5125 101.185964)scale(0.1 -0.1)">
       <use xlink:href="#DejaVuSans-49"/>
       <use x="63.623047" xlink:href="#DejaVuSans-53"/>
       <use x="127.246094" xlink:href="#DejaVuSans-48"/>
      </g>
     </g>
    </g>
    <g id="ytick_8">
     <g id="line2d_13">
      <g>
       <use style="stroke:#000000;stroke-width:0.8;" x="57.6" xlink:href="#mbd9d7c50bf" y="64.378338"/>
      </g>
     </g>
     <g id="text_13">
      <!-- 175 -->
      <g transform="translate(31.5125 68.177557)scale(0.1 -0.1)">
       <use xlink:href="#DejaVuSans-49"/>
       <use x="63.623047" xlink:href="#DejaVuSans-55"/>
       <use x="127.246094" xlink:href="#DejaVuSans-53"/>
      </g>
     </g>
    </g>
   </g>
   <g id="line2d_14">
    <path clip-path="url(#p7e0c12d4e6)" d="M 230.029655 295.437188 
L 230.298838 278.066692 
L 231.181807 229.430429 
L 230.983286 225.920871 
L 230.567823 222.35386 
L 228.503483 208.045735 
L 228.328505 204.592295 
L 228.466662 201.241737 
L 228.680774 199.61339 
L 229.006299 198.020783 
L 229.454281 196.467259 
L 230.060674 194.965063 
L 230.840355 193.519765 
L 231.772749 192.124682 
L 234.013383 189.458443 
L 236.617983 186.912901 
L 246.224006 178.182375 
L 248.429618 175.518585 
L 249.339726 174.125061 
L 250.093937 172.681543 
L 250.671676 171.181352 
L 251.516847 167.948823 
L 252.11549 164.43493 
L 252.458169 160.730684 
L 252.535448 156.927093 
L 252.337891 153.115168 
L 251.856063 149.385917 
L 251.080528 145.83035 
L 250.001851 142.539477 
L 249.345886 141.021741 
L 248.610597 139.604307 
L 247.794804 138.298552 
L 246.833953 137.125882 
L 245.679234 136.089466 
L 244.353081 135.173319 
L 242.87793 134.361458 
L 239.570376 132.986656 
L 235.936057 131.837187 
L 226.59852 129.11018 
L 223.233955 127.742378 
L 221.720797 126.935184 
L 220.350302 126.024482 
L 219.144906 124.994288 
L 218.127044 123.828618 
L 217.244286 122.533238 
L 215.682004 119.634144 
L 214.390877 116.394005 
L 213.37112 112.896902 
L 212.622949 109.226917 
L 212.146578 105.46813 
L 211.942222 101.704624 
L 212.010095 98.020479 
L 212.350414 94.499777 
L 212.963391 91.226599 
L 213.905677 88.063159 
L 215.207041 84.85078 
L 216.827383 81.64221 
L 218.726602 78.490196 
L 220.864598 75.447487 
L 223.201271 72.56683 
L 225.696519 69.900973 
L 228.310242 67.502664 
L 231.002339 65.42465 
L 233.766489 63.724474 
L 235.234383 63.032403 
L 238.34736 61.929643 
L 241.658656 61.142559 
L 245.122747 60.599758 
L 250.505796 60.087406 
L 261.381431 59.265839 
L 264.872182 58.790387 
L 264.872182 58.790387 
" style="fill:none;stroke:#fea952;stroke-linecap:square;"/>
   </g>
   <g id="line2d_15">
    <path clip-path="url(#p7e0c12d4e6)" d="M 224.748554 295.386377 
L 225.01855 277.96099 
L 225.904303 229.63181 
L 225.730646 226.470761 
L 225.341533 223.114449 
L 223.234915 208.412884 
L 223.047711 204.515997 
L 223.230389 200.553218 
L 223.506411 198.555761 
L 223.931727 196.557455 
L 224.556899 194.490326 
L 225.412541 192.457581 
L 226.449412 190.585106 
L 227.623818 188.856813 
L 228.901104 187.251901 
L 231.657487 184.331196 
L 234.536252 181.686469 
L 241.192355 175.774844 
L 243.208262 173.635492 
L 244.658791 171.67936 
L 245.165434 170.783526 
L 245.595837 169.722425 
L 246.329712 166.955733 
L 246.866493 163.851294 
L 247.180674 160.529049 
L 247.257048 157.103447 
L 247.087583 153.686892 
L 246.671521 150.392462 
L 246.018286 147.335775 
L 245.153921 144.634753 
L 244.131555 142.402663 
L 243.306247 141.056263 
L 242.677381 140.434749 
L 241.80663 139.800218 
L 240.703686 139.174489 
L 237.902627 137.997766 
L 234.50508 136.920976 
L 226.758974 134.721025 
L 222.737908 133.295073 
L 220.748193 132.402163 
L 218.797817 131.33391 
L 216.919017 130.039316 
L 215.16674 128.468019 
L 213.762737 126.802746 
L 212.678671 125.188001 
L 211.703649 123.489789 
L 210.828986 121.717609 
L 209.354781 117.98471 
L 208.217894 114.05313 
L 207.396466 109.986178 
L 206.878943 105.848437 
L 206.660877 101.704923 
L 206.744015 97.619221 
L 207.137727 93.650953 
L 207.863998 89.852264 
L 208.967764 86.18976 
L 210.446869 82.563123 
L 212.255306 78.99859 
L 214.353515 75.528995 
L 216.706011 72.191914 
L 219.280746 69.028174 
L 222.0496 66.080949 
L 224.989853 63.395642 
L 228.086641 61.021093 
L 229.752245 59.932593 
L 231.514253 58.947441 
L 233.318088 58.110979 
L 235.152059 57.407517 
L 238.877235 56.336399 
L 242.64054 55.614982 
L 246.40661 55.139204 
L 251.985214 54.691158 
L 260.742016 54.023344 
L 264.08524 53.568 
L 264.08524 53.568 
" style="fill:none;stroke:#ffffff;stroke-linecap:square;"/>
   </g>
   <g id="line2d_16">
    <path clip-path="url(#p7e0c12d4e6)" d="M 235.310756 295.488 
L 235.579125 278.172393 
L 236.459312 229.229048 
L 236.235926 225.370981 
L 235.794114 221.593272 
L 233.772051 207.678586 
L 233.609299 204.668594 
L 233.702934 201.930256 
L 234.080871 199.484111 
L 234.708807 197.472546 
L 235.231298 196.454424 
L 235.921681 195.392552 
L 237.773276 193.167326 
L 240.144114 190.844695 
L 248.746945 183.157161 
L 251.560112 180.1021 
L 252.851458 178.40648 
L 254.020662 176.570761 
L 255.022439 174.57956 
L 255.747515 172.640278 
L 256.703983 168.941913 
L 257.364488 165.018567 
L 257.735664 160.932319 
L 257.813848 156.75074 
L 257.588199 152.543443 
L 257.040605 148.379372 
L 256.142771 144.324925 
L 255.549392 142.358825 
L 254.849782 140.444201 
L 254.033986 138.589804 
L 253.089638 136.805951 
L 251.879959 134.951297 
L 250.361659 133.1955 
L 248.681086 131.744183 
L 246.899531 130.54642 
L 245.052174 129.548427 
L 243.159882 128.703893 
L 239.301744 127.333531 
L 233.579046 125.699595 
L 228.450267 124.164107 
L 225.719717 123.082593 
L 223.781586 122.009648 
L 223.123071 121.520557 
L 222.491351 120.854491 
L 221.15488 118.773365 
L 219.957259 116.222982 
L 218.948292 113.304811 
L 218.157485 110.123963 
L 217.60141 106.784653 
L 217.288251 103.390056 
L 217.219809 100.043759 
L 217.391304 96.851968 
L 217.788472 93.926314 
L 218.408568 91.290722 
L 219.364491 88.549085 
L 220.647185 85.71427 
L 222.21879 82.862005 
L 224.036457 80.062363 
L 226.053752 77.381484 
L 228.22068 74.882793 
L 230.482704 72.627546 
L 232.778784 70.674387 
L 234.978248 69.111881 
L 237.150678 67.953828 
L 239.687382 67.03816 
L 242.560845 66.346276 
L 245.720196 65.847201 
L 250.870237 65.356162 
L 262.020846 64.508334 
L 265.659123 64.012775 
L 265.659123 64.012775 
" style="fill:none;stroke:#ffffff;stroke-linecap:square;"/>
   </g>
   <g id="patch_3">
    <path d="M 57.6 307.584 
L 57.6 41.472 
" style="fill:none;stroke:#000000;stroke-linecap:square;stroke-linejoin:miter;stroke-width:0.8;"/>
   </g>
   <g id="patch_4">
    <path d="M 414.72 307.584 
L 414.72 41.472 
" style="fill:none;stroke:#000000;stroke-linecap:square;stroke-linejoin:miter;stroke-width:0.8;"/>
   </g>
   <g id="patch_5">
    <path d="M 57.6 307.584 
L 414.72 307.584 
" style="fill:none;stroke:#000000;stroke-linecap:square;stroke-linejoin:miter;stroke-width:0.8;"/>
   </g>
   <g id="patch_6">
    <path d="M 57.6 41.472 
L 414.72 41.472 
" style="fill:none;stroke:#000000;stroke-linecap:square;stroke-linejoin:miter;stroke-width:0.8;"/>
   </g>
  </g>
 </g>
 <defs>
  <clipPath id="p7e0c12d4e6">
   <rect height="266.112" width="357.12" x="57.6" y="41.472"/>
  </clipPath>
 </defs>
</svg>
