<?xml version="1.0" encoding="utf-8" standalone="no"?>
<!DOCTYPE svg PUBLIC "-//W3C//DTD SVG 1.1//EN"
  "http://www.w3.org/Graphics/SVG/1.1/DTD/svg11.dtd">
<!-- Created with matplotlib (https://matplotlib.org/) -->
<svg height="345.6pt" version="1.1" viewBox="0 0 460.8 345.6" width="460.8pt" xmlns="http://www.w3.org/2000/svg" xmlns:xlink="http://www.w3.org/1999/xlink">
 <metadata>
  <rdf:RDF xmlns:cc="http://creativecommons.org/ns#" xmlns:dc="http://purl.org/dc/elements/1.1/" xmlns:rdf="http://www.w3.org/1999/02/22-rdf-syntax-ns#">
   <cc:Work>
    <dc:type rdf:resource="http://purl.org/dc/dcmitype/StillImage"/>
    <dc:date>2021-06-17T16:13:09.132833</dc:date>
    <dc:format>image/svg+xml</dc:format>
    <dc:creator>
     <cc:Agent>
      <dc:title>Matplotlib v3.3.3, https://matplotlib.org/</dc:title>
     </cc:Agent>
    </dc:creator>
   </cc:Work>
  </rdf:RDF>
 </metadata>
 <defs>
  <style type="text/css">*{stroke-linecap:butt;stroke-linejoin:round;}</style>
 </defs>
 <g id="figure_1">
  <g id="patch_1">
   <path d="M 0 345.6 
L 460.8 345.6 
L 460.8 0 
L 0 0 
z
" style="fill:#ffffff;"/>
  </g>
  <g id="axes_1">
   <g id="patch_2">
    <path d="M 57.6 307.584 
L 414.72 307.584 
L 414.72 41.472 
L 57.6 41.472 
z
" style="fill:#7d9051;"/>
   </g>
   <g id="matplotlib.axis_1">
    <g id="xtick_1">
     <g id="line2d_1">
      <defs>
       <path d="M 0 0 
L 0 3.5 
" id="mf6cf69aa30" style="stroke:#000000;stroke-width:0.8;"/>
      </defs>
      <g>
       <use style="stroke:#000000;stroke-width:0.8;" x="66.415035" xlink:href="#mf6cf69aa30" y="307.584"/>
      </g>
     </g>
     <g id="text_1">
      <!-- −150 -->
      <g transform="translate(52.681441 322.182437)scale(0.1 -0.1)">
       <defs>
        <path d="M 10.59375 35.5 
L 73.1875 35.5 
L 73.1875 27.203125 
L 10.59375 27.203125 
z
" id="DejaVuSans-8722"/>
        <path d="M 12.40625 8.296875 
L 28.515625 8.296875 
L 28.515625 63.921875 
L 10.984375 60.40625 
L 10.984375 69.390625 
L 28.421875 72.90625 
L 38.28125 72.90625 
L 38.28125 8.296875 
L 54.390625 8.296875 
L 54.390625 0 
L 12.40625 0 
z
" id="DejaVuSans-49"/>
        <path d="M 10.796875 72.90625 
L 49.515625 72.90625 
L 49.515625 64.59375 
L 19.828125 64.59375 
L 19.828125 46.734375 
Q 21.96875 47.46875 24.109375 47.828125 
Q 26.265625 48.1875 28.421875 48.1875 
Q 40.625 48.1875 47.75 41.5 
Q 54.890625 34.8125 54.890625 23.390625 
Q 54.890625 11.625 47.5625 5.09375 
Q 40.234375 -1.421875 26.90625 -1.421875 
Q 22.3125 -1.421875 17.546875 -0.640625 
Q 12.796875 0.140625 7.71875 1.703125 
L 7.71875 11.625 
Q 12.109375 9.234375 16.796875 8.0625 
Q 21.484375 6.890625 26.703125 6.890625 
Q 35.15625 6.890625 40.078125 11.328125 
Q 45.015625 15.765625 45.015625 23.390625 
Q 45.015625 31 40.078125 35.4375 
Q 35.15625 39.890625 26.703125 39.890625 
Q 22.75 39.890625 18.8125 39.015625 
Q 14.890625 38.140625 10.796875 36.28125 
z
" id="DejaVuSans-53"/>
        <path d="M 31.78125 66.40625 
Q 24.171875 66.40625 20.328125 58.90625 
Q 16.5 51.421875 16.5 36.375 
Q 16.5 21.390625 20.328125 13.890625 
Q 24.171875 6.390625 31.78125 6.390625 
Q 39.453125 6.390625 43.28125 13.890625 
Q 47.125 21.390625 47.125 36.375 
Q 47.125 51.421875 43.28125 58.90625 
Q 39.453125 66.40625 31.78125 66.40625 
z
M 31.78125 74.21875 
Q 44.046875 74.21875 50.515625 64.515625 
Q 56.984375 54.828125 56.984375 36.375 
Q 56.984375 17.96875 50.515625 8.265625 
Q 44.046875 -1.421875 31.78125 -1.421875 
Q 19.53125 -1.421875 13.0625 8.265625 
Q 6.59375 17.96875 6.59375 36.375 
Q 6.59375 54.828125 13.0625 64.515625 
Q 19.53125 74.21875 31.78125 74.21875 
z
" id="DejaVuSans-48"/>
       </defs>
       <use xlink:href="#DejaVuSans-8722"/>
       <use x="83.789062" xlink:href="#DejaVuSans-49"/>
       <use x="147.412109" xlink:href="#DejaVuSans-53"/>
       <use x="211.035156" xlink:href="#DejaVuSans-48"/>
      </g>
     </g>
    </g>
    <g id="xtick_2">
     <g id="line2d_2">
      <g>
       <use style="stroke:#000000;stroke-width:0.8;" x="106.550705" xlink:href="#mf6cf69aa30" y="307.584"/>
      </g>
     </g>
     <g id="text_2">
      <!-- −125 -->
      <g transform="translate(92.817111 322.182437)scale(0.1 -0.1)">
       <defs>
        <path d="M 19.1875 8.296875 
L 53.609375 8.296875 
L 53.609375 0 
L 7.328125 0 
L 7.328125 8.296875 
Q 12.9375 14.109375 22.625 23.890625 
Q 32.328125 33.6875 34.8125 36.53125 
Q 39.546875 41.84375 41.421875 45.53125 
Q 43.3125 49.21875 43.3125 52.78125 
Q 43.3125 58.59375 39.234375 62.25 
Q 35.15625 65.921875 28.609375 65.921875 
Q 23.96875 65.921875 18.8125 64.3125 
Q 13.671875 62.703125 7.8125 59.421875 
L 7.8125 69.390625 
Q 13.765625 71.78125 18.9375 73 
Q 24.125 74.21875 28.421875 74.21875 
Q 39.75 74.21875 46.484375 68.546875 
Q 53.21875 62.890625 53.21875 53.421875 
Q 53.21875 48.921875 51.53125 44.890625 
Q 49.859375 40.875 45.40625 35.40625 
Q 44.1875 33.984375 37.640625 27.21875 
Q 31.109375 20.453125 19.1875 8.296875 
z
" id="DejaVuSans-50"/>
       </defs>
       <use xlink:href="#DejaVuSans-8722"/>
       <use x="83.789062" xlink:href="#DejaVuSans-49"/>
       <use x="147.412109" xlink:href="#DejaVuSans-50"/>
       <use x="211.035156" xlink:href="#DejaVuSans-53"/>
      </g>
     </g>
    </g>
    <g id="xtick_3">
     <g id="line2d_3">
      <g>
       <use style="stroke:#000000;stroke-width:0.8;" x="146.686376" xlink:href="#mf6cf69aa30" y="307.584"/>
      </g>
     </g>
     <g id="text_3">
      <!-- −100 -->
      <g transform="translate(132.952782 322.182437)scale(0.1 -0.1)">
       <use xlink:href="#DejaVuSans-8722"/>
       <use x="83.789062" xlink:href="#DejaVuSans-49"/>
       <use x="147.412109" xlink:href="#DejaVuSans-48"/>
       <use x="211.035156" xlink:href="#DejaVuSans-48"/>
      </g>
     </g>
    </g>
    <g id="xtick_4">
     <g id="line2d_4">
      <g>
       <use style="stroke:#000000;stroke-width:0.8;" x="186.822046" xlink:href="#mf6cf69aa30" y="307.584"/>
      </g>
     </g>
     <g id="text_4">
      <!-- −75 -->
      <g transform="translate(176.269702 322.182437)scale(0.1 -0.1)">
       <defs>
        <path d="M 8.203125 72.90625 
L 55.078125 72.90625 
L 55.078125 68.703125 
L 28.609375 0 
L 18.3125 0 
L 43.21875 64.59375 
L 8.203125 64.59375 
z
" id="DejaVuSans-55"/>
       </defs>
       <use xlink:href="#DejaVuSans-8722"/>
       <use x="83.789062" xlink:href="#DejaVuSans-55"/>
       <use x="147.412109" xlink:href="#DejaVuSans-53"/>
      </g>
     </g>
    </g>
    <g id="xtick_5">
     <g id="line2d_5">
      <g>
       <use style="stroke:#000000;stroke-width:0.8;" x="226.957716" xlink:href="#mf6cf69aa30" y="307.584"/>
      </g>
     </g>
     <g id="text_5">
      <!-- −50 -->
      <g transform="translate(216.405373 322.182437)scale(0.1 -0.1)">
       <use xlink:href="#DejaVuSans-8722"/>
       <use x="83.789062" xlink:href="#DejaVuSans-53"/>
       <use x="147.412109" xlink:href="#DejaVuSans-48"/>
      </g>
     </g>
    </g>
    <g id="xtick_6">
     <g id="line2d_6">
      <g>
       <use style="stroke:#000000;stroke-width:0.8;" x="267.093387" xlink:href="#mf6cf69aa30" y="307.584"/>
      </g>
     </g>
     <g id="text_6">
      <!-- −25 -->
      <g transform="translate(256.541043 322.182437)scale(0.1 -0.1)">
       <use xlink:href="#DejaVuSans-8722"/>
       <use x="83.789062" xlink:href="#DejaVuSans-50"/>
       <use x="147.412109" xlink:href="#DejaVuSans-53"/>
      </g>
     </g>
    </g>
    <g id="xtick_7">
     <g id="line2d_7">
      <g>
       <use style="stroke:#000000;stroke-width:0.8;" x="307.229057" xlink:href="#mf6cf69aa30" y="307.584"/>
      </g>
     </g>
     <g id="text_7">
      <!-- 0 -->
      <g transform="translate(304.047807 322.182437)scale(0.1 -0.1)">
       <use xlink:href="#DejaVuSans-48"/>
      </g>
     </g>
    </g>
    <g id="xtick_8">
     <g id="line2d_8">
      <g>
       <use style="stroke:#000000;stroke-width:0.8;" x="347.364728" xlink:href="#mf6cf69aa30" y="307.584"/>
      </g>
     </g>
     <g id="text_8">
      <!-- 25 -->
      <g transform="translate(341.002228 322.182437)scale(0.1 -0.1)">
       <use xlink:href="#DejaVuSans-50"/>
       <use x="63.623047" xlink:href="#DejaVuSans-53"/>
      </g>
     </g>
    </g>
    <g id="xtick_9">
     <g id="line2d_9">
      <g>
       <use style="stroke:#000000;stroke-width:0.8;" x="387.500398" xlink:href="#mf6cf69aa30" y="307.584"/>
      </g>
     </g>
     <g id="text_9">
      <!-- 50 -->
      <g transform="translate(381.137898 322.182437)scale(0.1 -0.1)">
       <use xlink:href="#DejaVuSans-53"/>
       <use x="63.623047" xlink:href="#DejaVuSans-48"/>
      </g>
     </g>
    </g>
   </g>
   <g id="matplotlib.axis_2">
    <g id="ytick_1">
     <g id="line2d_10">
      <defs>
       <path d="M 0 0 
L -3.5 0 
" id="m20b36f4ee0" style="stroke:#000000;stroke-width:0.8;"/>
      </defs>
      <g>
       <use style="stroke:#000000;stroke-width:0.8;" x="57.6" xlink:href="#m20b36f4ee0" y="295.426217"/>
      </g>
     </g>
     <g id="text_10">
      <!-- 0 -->
      <g transform="translate(44.2375 299.225436)scale(0.1 -0.1)">
       <use xlink:href="#DejaVuSans-48"/>
      </g>
     </g>
    </g>
    <g id="ytick_2">
     <g id="line2d_11">
      <g>
       <use style="stroke:#000000;stroke-width:0.8;" x="57.6" xlink:href="#m20b36f4ee0" y="263.317681"/>
      </g>
     </g>
     <g id="text_11">
      <!-- 20 -->
      <g transform="translate(37.875 267.1169)scale(0.1 -0.1)">
       <use xlink:href="#DejaVuSans-50"/>
       <use x="63.623047" xlink:href="#DejaVuSans-48"/>
      </g>
     </g>
    </g>
    <g id="ytick_3">
     <g id="line2d_12">
      <g>
       <use style="stroke:#000000;stroke-width:0.8;" x="57.6" xlink:href="#m20b36f4ee0" y="231.209144"/>
      </g>
     </g>
     <g id="text_12">
      <!-- 40 -->
      <g transform="translate(37.875 235.008363)scale(0.1 -0.1)">
       <defs>
        <path d="M 37.796875 64.3125 
L 12.890625 25.390625 
L 37.796875 25.390625 
z
M 35.203125 72.90625 
L 47.609375 72.90625 
L 47.609375 25.390625 
L 58.015625 25.390625 
L 58.015625 17.1875 
L 47.609375 17.1875 
L 47.609375 0 
L 37.796875 0 
L 37.796875 17.1875 
L 4.890625 17.1875 
L 4.890625 26.703125 
z
" id="DejaVuSans-52"/>
       </defs>
       <use xlink:href="#DejaVuSans-52"/>
       <use x="63.623047" xlink:href="#DejaVuSans-48"/>
      </g>
     </g>
    </g>
    <g id="ytick_4">
     <g id="line2d_13">
      <g>
       <use style="stroke:#000000;stroke-width:0.8;" x="57.6" xlink:href="#m20b36f4ee0" y="199.100608"/>
      </g>
     </g>
     <g id="text_13">
      <!-- 60 -->
      <g transform="translate(37.875 202.899827)scale(0.1 -0.1)">
       <defs>
        <path d="M 33.015625 40.375 
Q 26.375 40.375 22.484375 35.828125 
Q 18.609375 31.296875 18.609375 23.390625 
Q 18.609375 15.53125 22.484375 10.953125 
Q 26.375 6.390625 33.015625 6.390625 
Q 39.65625 6.390625 43.53125 10.953125 
Q 47.40625 15.53125 47.40625 23.390625 
Q 47.40625 31.296875 43.53125 35.828125 
Q 39.65625 40.375 33.015625 40.375 
z
M 52.59375 71.296875 
L 52.59375 62.3125 
Q 48.875 64.0625 45.09375 64.984375 
Q 41.3125 65.921875 37.59375 65.921875 
Q 27.828125 65.921875 22.671875 59.328125 
Q 17.53125 52.734375 16.796875 39.40625 
Q 19.671875 43.65625 24.015625 45.921875 
Q 28.375 48.1875 33.59375 48.1875 
Q 44.578125 48.1875 50.953125 41.515625 
Q 57.328125 34.859375 57.328125 23.390625 
Q 57.328125 12.15625 50.6875 5.359375 
Q 44.046875 -1.421875 33.015625 -1.421875 
Q 20.359375 -1.421875 13.671875 8.265625 
Q 6.984375 17.96875 6.984375 36.375 
Q 6.984375 53.65625 15.1875 63.9375 
Q 23.390625 74.21875 37.203125 74.21875 
Q 40.921875 74.21875 44.703125 73.484375 
Q 48.484375 72.75 52.59375 71.296875 
z
" id="DejaVuSans-54"/>
       </defs>
       <use xlink:href="#DejaVuSans-54"/>
       <use x="63.623047" xlink:href="#DejaVuSans-48"/>
      </g>
     </g>
    </g>
    <g id="ytick_5">
     <g id="line2d_14">
      <g>
       <use style="stroke:#000000;stroke-width:0.8;" x="57.6" xlink:href="#m20b36f4ee0" y="166.992072"/>
      </g>
     </g>
     <g id="text_14">
      <!-- 80 -->
      <g transform="translate(37.875 170.791291)scale(0.1 -0.1)">
       <defs>
        <path d="M 31.78125 34.625 
Q 24.75 34.625 20.71875 30.859375 
Q 16.703125 27.09375 16.703125 20.515625 
Q 16.703125 13.921875 20.71875 10.15625 
Q 24.75 6.390625 31.78125 6.390625 
Q 38.8125 6.390625 42.859375 10.171875 
Q 46.921875 13.96875 46.921875 20.515625 
Q 46.921875 27.09375 42.890625 30.859375 
Q 38.875 34.625 31.78125 34.625 
z
M 21.921875 38.8125 
Q 15.578125 40.375 12.03125 44.71875 
Q 8.5 49.078125 8.5 55.328125 
Q 8.5 64.0625 14.71875 69.140625 
Q 20.953125 74.21875 31.78125 74.21875 
Q 42.671875 74.21875 48.875 69.140625 
Q 55.078125 64.0625 55.078125 55.328125 
Q 55.078125 49.078125 51.53125 44.71875 
Q 48 40.375 41.703125 38.8125 
Q 48.828125 37.15625 52.796875 32.3125 
Q 56.78125 27.484375 56.78125 20.515625 
Q 56.78125 9.90625 50.3125 4.234375 
Q 43.84375 -1.421875 31.78125 -1.421875 
Q 19.734375 -1.421875 13.25 4.234375 
Q 6.78125 9.90625 6.78125 20.515625 
Q 6.78125 27.484375 10.78125 32.3125 
Q 14.796875 37.15625 21.921875 38.8125 
z
M 18.3125 54.390625 
Q 18.3125 48.734375 21.84375 45.5625 
Q 25.390625 42.390625 31.78125 42.390625 
Q 38.140625 42.390625 41.71875 45.5625 
Q 45.3125 48.734375 45.3125 54.390625 
Q 45.3125 60.0625 41.71875 63.234375 
Q 38.140625 66.40625 31.78125 66.40625 
Q 25.390625 66.40625 21.84375 63.234375 
Q 18.3125 60.0625 18.3125 54.390625 
z
" id="DejaVuSans-56"/>
       </defs>
       <use xlink:href="#DejaVuSans-56"/>
       <use x="63.623047" xlink:href="#DejaVuSans-48"/>
      </g>
     </g>
    </g>
    <g id="ytick_6">
     <g id="line2d_15">
      <g>
       <use style="stroke:#000000;stroke-width:0.8;" x="57.6" xlink:href="#m20b36f4ee0" y="134.883536"/>
      </g>
     </g>
     <g id="text_15">
      <!-- 100 -->
      <g transform="translate(31.5125 138.682754)scale(0.1 -0.1)">
       <use xlink:href="#DejaVuSans-49"/>
       <use x="63.623047" xlink:href="#DejaVuSans-48"/>
       <use x="127.246094" xlink:href="#DejaVuSans-48"/>
      </g>
     </g>
    </g>
    <g id="ytick_7">
     <g id="line2d_16">
      <g>
       <use style="stroke:#000000;stroke-width:0.8;" x="57.6" xlink:href="#m20b36f4ee0" y="102.774999"/>
      </g>
     </g>
     <g id="text_16">
      <!-- 120 -->
      <g transform="translate(31.5125 106.574218)scale(0.1 -0.1)">
       <use xlink:href="#DejaVuSans-49"/>
       <use x="63.623047" xlink:href="#DejaVuSans-50"/>
       <use x="127.246094" xlink:href="#DejaVuSans-48"/>
      </g>
     </g>
    </g>
    <g id="ytick_8">
     <g id="line2d_17">
      <g>
       <use style="stroke:#000000;stroke-width:0.8;" x="57.6" xlink:href="#m20b36f4ee0" y="70.666463"/>
      </g>
     </g>
     <g id="text_17">
      <!-- 140 -->
      <g transform="translate(31.5125 74.465682)scale(0.1 -0.1)">
       <use xlink:href="#DejaVuSans-49"/>
       <use x="63.623047" xlink:href="#DejaVuSans-52"/>
       <use x="127.246094" xlink:href="#DejaVuSans-48"/>
      </g>
     </g>
    </g>
   </g>
   <g id="line2d_18">
    <path clip-path="url(#p3c55e0701d)" d="M 307.229057 295.426217 
L 307.5149 276.417078 
L 308.10318 251.047581 
L 308.628179 244.608014 
L 309.620738 233.846091 
L 309.853177 229.582357 
L 309.885764 225.368452 
L 309.647963 221.221962 
L 309.069237 217.160474 
L 308.105287 213.17451 
L 306.872598 209.132406 
L 305.402528 205.05827 
L 303.703486 201.004736 
L 301.783884 197.024437 
L 299.652131 193.170008 
L 297.316639 189.494081 
L 294.785817 186.049291 
L 292.068076 182.88827 
L 289.171826 180.063654 
L 287.596499 178.829718 
L 285.866415 177.753958 
L 284.001368 176.817139 
L 282.021155 176.000026 
L 277.794409 174.647982 
L 273.344539 173.543947 
L 264.40887 171.464402 
L 260.239794 170.181137 
L 258.29923 169.41131 
L 256.481041 168.530374 
L 254.805023 167.519095 
L 253.290971 166.358237 
L 251.95868 165.028567 
L 250.767298 163.541982 
L 249.661589 161.930532 
L 248.639773 160.205212 
L 247.700074 158.377016 
L 246.059907 154.455973 
L 244.726859 150.255359 
L 243.6867 145.863127 
L 242.925203 141.367232 
L 242.428137 136.855629 
L 242.181274 132.416272 
L 242.170384 128.137115 
L 242.248983 126.085098 
L 242.473172 124.058828 
L 242.915178 122.017051 
L 243.546334 119.963311 
L 244.337971 117.901155 
L 246.28802 113.765775 
L 249.70001 107.588224 
L 253.00827 101.526391 
L 254.773911 97.596735 
L 255.438768 95.676013 
L 255.920093 93.789423 
L 256.189216 91.940512 
L 256.217472 90.132823 
L 255.976191 88.369904 
L 255.484437 86.590583 
L 254.791013 84.743081 
L 253.911863 82.845029 
L 252.862928 80.914062 
L 251.660153 78.96781 
L 250.31948 77.023907 
L 247.28821 73.213676 
L 243.896662 69.624431 
L 240.272378 66.397231 
L 238.412817 64.96348 
L 236.5429 63.673137 
L 234.678571 62.543836 
L 232.835773 61.59321 
L 231.030447 60.83889 
L 229.278537 60.298509 
L 227.595986 59.989699 
L 225.938171 59.992281 
L 224.251491 60.347437 
L 222.53842 61.014847 
L 220.801432 61.95419 
L 219.043001 63.125146 
L 215.471707 66.000614 
L 210.015799 71.042898 
L 206.341415 74.420069 
L 202.660433 77.433434 
L 200.823654 78.702887 
L 198.992647 79.760428 
L 197.169888 80.565734 
L 195.35785 81.078487 
L 193.559007 81.258364 
L 191.767587 81.143633 
L 189.976167 80.811843 
L 188.184747 80.2816 
L 186.393327 79.571507 
L 184.601907 78.700171 
L 181.019068 76.548188 
L 177.436228 73.97449 
L 172.061968 69.648818 
L 164.896288 63.794431 
L 161.313448 61.164918 
L 159.522028 59.989699 
L 159.522028 59.989699 
" style="fill:none;stroke:#fea952;stroke-linecap:square;"/>
   </g>
   <g id="line2d_19">
    <path clip-path="url(#p3c55e0701d)" d="M 300.807647 295.364434 
L 301.09443 276.291036 
L 301.69689 250.602872 
L 302.236815 243.984487 
L 303.212147 233.435866 
L 303.432968 229.443635 
L 303.468871 225.617064 
L 303.270986 221.97859 
L 302.797981 218.542385 
L 301.939461 214.969201 
L 300.805093 211.235665 
L 299.448616 207.464358 
L 297.882255 203.716116 
L 296.119957 200.050698 
L 294.177786 196.52707 
L 292.07453 193.203343 
L 289.832482 190.136197 
L 287.478213 187.379538 
L 285.211944 185.119112 
L 284.205573 184.283152 
L 282.98397 183.492411 
L 281.551869 182.753322 
L 279.925329 182.070103 
L 276.179556 180.863331 
L 271.938069 179.809741 
L 262.650321 177.640633 
L 260.260531 176.954021 
L 257.87181 176.150305 
L 255.49918 175.190414 
L 253.163437 174.028722 
L 250.897675 172.615265 
L 248.75461 170.903538 
L 246.947648 169.044519 
L 245.472227 167.175238 
L 244.13621 165.202919 
L 242.928373 163.140893 
L 241.838655 161.000391 
L 240.858332 158.791346 
L 239.197176 154.204089 
L 237.897644 149.44978 
L 236.924898 144.598611 
L 236.252227 139.721983 
L 235.858321 134.892143 
L 235.7259 130.180816 
L 235.866224 125.378902 
L 236.196848 122.700123 
L 236.776803 120.130604 
L 237.551202 117.661851 
L 238.474776 115.281753 
L 240.620827 110.745635 
L 244.110073 104.427381 
L 247.214746 98.756301 
L 248.705479 95.496149 
L 249.565352 92.86444 
L 249.855078 91.003609 
L 249.786522 90.080554 
L 249.472258 88.847136 
L 248.964021 87.44206 
L 248.268974 85.910341 
L 247.400204 84.290001 
L 245.207333 80.910328 
L 242.528918 77.524994 
L 239.520554 74.324219 
L 236.351292 71.482839 
L 233.215802 69.165745 
L 230.360011 67.518488 
L 227.605986 66.411399 
L 227.261344 66.276192 
L 226.582702 66.331063 
L 225.593135 66.663479 
L 224.360751 67.299241 
L 222.949402 68.222042 
L 219.762852 70.778102 
L 214.398968 75.736101 
L 210.51204 79.303123 
L 208.459941 81.0482 
L 206.311527 82.716221 
L 204.035437 84.263712 
L 201.587803 85.634395 
L 198.918383 86.744819 
L 195.99681 87.468327 
L 193.148571 87.666942 
L 190.598108 87.457954 
L 188.153565 86.969476 
L 185.8184 86.251417 
L 183.584482 85.346341 
L 181.438672 84.288755 
L 179.367109 83.106663 
L 175.399173 80.460437 
L 171.607826 77.570118 
L 157.790977 66.534324 
L 155.999557 65.359105 
L 155.999557 65.359105 
" style="fill:none;stroke:#ffffff;stroke-linecap:square;"/>
   </g>
   <g id="line2d_20">
    <path clip-path="url(#p3c55e0701d)" d="M 313.650467 295.488 
L 313.935371 276.54312 
L 314.509471 251.492291 
L 315.019544 245.231541 
L 316.029329 234.256315 
L 316.273386 229.721079 
L 316.302657 225.11984 
L 316.02494 220.465334 
L 315.740016 218.124127 
L 315.340493 215.778564 
L 314.271113 211.379819 
L 312.940104 207.029146 
L 311.356439 202.652181 
L 309.524718 198.293355 
L 307.447811 193.998177 
L 305.126477 189.812945 
L 302.558747 185.784819 
L 299.739151 181.962384 
L 296.657938 178.397002 
L 295.014916 176.728107 
L 293.131709 175.008196 
L 290.987425 173.376283 
L 288.748859 172.015505 
L 286.450868 170.880955 
L 284.116982 169.929949 
L 279.409263 168.432632 
L 274.751008 167.278154 
L 266.167418 165.288171 
L 262.607779 164.211968 
L 259.798646 163.032027 
L 257.827332 161.812937 
L 256.969713 161.012615 
L 256.062369 159.908726 
L 255.186967 158.658144 
L 253.561492 155.75364 
L 252.139864 152.388984 
L 250.9491 148.667266 
L 250.001157 144.694383 
L 249.297916 140.575492 
L 248.834679 136.41456 
L 248.602187 132.315285 
L 248.587386 128.382906 
L 248.749496 125.417534 
L 249.053552 123.903498 
L 249.541465 122.264772 
L 250.201166 120.520557 
L 251.955213 116.785915 
L 255.289947 110.749067 
L 257.659367 106.49648 
L 259.874701 102.035182 
L 260.842343 99.69732 
L 261.661157 97.263527 
L 262.274833 94.714407 
L 262.610139 92.040875 
L 262.579866 89.262037 
L 262.16586 86.659254 
L 261.496615 84.33403 
L 260.618005 82.044101 
L 259.554751 79.779718 
L 258.325652 77.538122 
L 256.946521 75.321902 
L 255.431627 73.137485 
L 253.794366 70.993981 
L 252.047503 68.902359 
L 250.203179 66.874868 
L 248.27277 64.924643 
L 246.266592 63.06546 
L 244.193464 61.311623 
L 242.060059 59.678033 
L 239.869999 58.18053 
L 237.622631 56.83675 
L 235.311535 55.667931 
L 232.923241 54.702469 
L 230.43779 53.982303 
L 227.585986 53.568 
L 224.614999 53.70837 
L 221.92028 54.363811 
L 219.483705 55.366215 
L 217.242112 56.609139 
L 215.136599 58.02825 
L 213.125033 59.578828 
L 209.287616 62.924761 
L 200.541083 70.936574 
L 197.61187 73.142063 
L 195.421392 74.38665 
L 194.718889 74.688647 
L 193.969443 74.849787 
L 192.937066 74.829313 
L 191.79877 74.65421 
L 190.551095 74.311782 
L 189.202173 73.796673 
L 187.765143 73.111587 
L 184.680781 71.272756 
L 181.38784 68.912565 
L 176.170856 64.713703 
L 168.770326 58.672893 
L 164.83592 55.795512 
L 163.0445 54.620294 
L 163.0445 54.620294 
" style="fill:none;stroke:#ffffff;stroke-linecap:square;"/>
   </g>
   <g id="patch_3">
    <path d="M 57.6 307.584 
L 57.6 41.472 
" style="fill:none;stroke:#000000;stroke-linecap:square;stroke-linejoin:miter;stroke-width:0.8;"/>
   </g>
   <g id="patch_4">
    <path d="M 414.72 307.584 
L 414.72 41.472 
" style="fill:none;stroke:#000000;stroke-linecap:square;stroke-linejoin:miter;stroke-width:0.8;"/>
   </g>
   <g id="patch_5">
    <path d="M 57.6 307.584 
L 414.72 307.584 
" style="fill:none;stroke:#000000;stroke-linecap:square;stroke-linejoin:miter;stroke-width:0.8;"/>
   </g>
   <g id="patch_6">
    <path d="M 57.6 41.472 
L 414.72 41.472 
" style="fill:none;stroke:#000000;stroke-linecap:square;stroke-linejoin:miter;stroke-width:0.8;"/>
   </g>
  </g>
 </g>
 <defs>
  <clipPath id="p3c55e0701d">
   <rect height="266.112" width="357.12" x="57.6" y="41.472"/>
  </clipPath>
 </defs>
</svg>
