<?xml version="1.0" encoding="utf-8" standalone="no"?>
<!DOCTYPE svg PUBLIC "-//W3C//DTD SVG 1.1//EN"
  "http://www.w3.org/Graphics/SVG/1.1/DTD/svg11.dtd">
<!-- Created with matplotlib (https://matplotlib.org/) -->
<svg height="345.6pt" version="1.1" viewBox="0 0 460.8 345.6" width="460.8pt" xmlns="http://www.w3.org/2000/svg" xmlns:xlink="http://www.w3.org/1999/xlink">
 <metadata>
  <rdf:RDF xmlns:cc="http://creativecommons.org/ns#" xmlns:dc="http://purl.org/dc/elements/1.1/" xmlns:rdf="http://www.w3.org/1999/02/22-rdf-syntax-ns#">
   <cc:Work>
    <dc:type rdf:resource="http://purl.org/dc/dcmitype/StillImage"/>
    <dc:date>2021-06-28T03:13:19.690183</dc:date>
    <dc:format>image/svg+xml</dc:format>
    <dc:creator>
     <cc:Agent>
      <dc:title>Matplotlib v3.3.3, https://matplotlib.org/</dc:title>
     </cc:Agent>
    </dc:creator>
   </cc:Work>
  </rdf:RDF>
 </metadata>
 <defs>
  <style type="text/css">*{stroke-linecap:butt;stroke-linejoin:round;}</style>
 </defs>
 <g id="figure_1">
  <g id="patch_1">
   <path d="M 0 345.6 
L 460.8 345.6 
L 460.8 0 
L 0 0 
z
" style="fill:#ffffff;"/>
  </g>
  <g id="axes_1">
   <g id="patch_2">
    <path d="M 57.6 307.584 
L 414.72 307.584 
L 414.72 41.472 
L 57.6 41.472 
z
" style="fill:#7d9051;"/>
   </g>
   <g id="matplotlib.axis_1">
    <g id="xtick_1">
     <g id="line2d_1">
      <defs>
       <path d="M 0 0 
L 0 3.5 
" id="m6898a28352" style="stroke:#000000;stroke-width:0.8;"/>
      </defs>
      <g>
       <use style="stroke:#000000;stroke-width:0.8;" x="61.550356" xlink:href="#m6898a28352" y="307.584"/>
      </g>
     </g>
     <g id="text_1">
      <!-- −75 -->
      <g transform="translate(50.998012 322.182437)scale(0.1 -0.1)">
       <defs>
        <path d="M 10.59375 35.5 
L 73.1875 35.5 
L 73.1875 27.203125 
L 10.59375 27.203125 
z
" id="DejaVuSans-8722"/>
        <path d="M 8.203125 72.90625 
L 55.078125 72.90625 
L 55.078125 68.703125 
L 28.609375 0 
L 18.3125 0 
L 43.21875 64.59375 
L 8.203125 64.59375 
z
" id="DejaVuSans-55"/>
        <path d="M 10.796875 72.90625 
L 49.515625 72.90625 
L 49.515625 64.59375 
L 19.828125 64.59375 
L 19.828125 46.734375 
Q 21.96875 47.46875 24.109375 47.828125 
Q 26.265625 48.1875 28.421875 48.1875 
Q 40.625 48.1875 47.75 41.5 
Q 54.890625 34.8125 54.890625 23.390625 
Q 54.890625 11.625 47.5625 5.09375 
Q 40.234375 -1.421875 26.90625 -1.421875 
Q 22.3125 -1.421875 17.546875 -0.640625 
Q 12.796875 0.140625 7.71875 1.703125 
L 7.71875 11.625 
Q 12.109375 9.234375 16.796875 8.0625 
Q 21.484375 6.890625 26.703125 6.890625 
Q 35.15625 6.890625 40.078125 11.328125 
Q 45.015625 15.765625 45.015625 23.390625 
Q 45.015625 31 40.078125 35.4375 
Q 35.15625 39.890625 26.703125 39.890625 
Q 22.75 39.890625 18.8125 39.015625 
Q 14.890625 38.140625 10.796875 36.28125 
z
" id="DejaVuSans-53"/>
       </defs>
       <use xlink:href="#DejaVuSans-8722"/>
       <use x="83.789062" xlink:href="#DejaVuSans-55"/>
       <use x="147.412109" xlink:href="#DejaVuSans-53"/>
      </g>
     </g>
    </g>
    <g id="xtick_2">
     <g id="line2d_2">
      <g>
       <use style="stroke:#000000;stroke-width:0.8;" x="106.232623" xlink:href="#m6898a28352" y="307.584"/>
      </g>
     </g>
     <g id="text_2">
      <!-- −50 -->
      <g transform="translate(95.680279 322.182437)scale(0.1 -0.1)">
       <defs>
        <path d="M 31.78125 66.40625 
Q 24.171875 66.40625 20.328125 58.90625 
Q 16.5 51.421875 16.5 36.375 
Q 16.5 21.390625 20.328125 13.890625 
Q 24.171875 6.390625 31.78125 6.390625 
Q 39.453125 6.390625 43.28125 13.890625 
Q 47.125 21.390625 47.125 36.375 
Q 47.125 51.421875 43.28125 58.90625 
Q 39.453125 66.40625 31.78125 66.40625 
z
M 31.78125 74.21875 
Q 44.046875 74.21875 50.515625 64.515625 
Q 56.984375 54.828125 56.984375 36.375 
Q 56.984375 17.96875 50.515625 8.265625 
Q 44.046875 -1.421875 31.78125 -1.421875 
Q 19.53125 -1.421875 13.0625 8.265625 
Q 6.59375 17.96875 6.59375 36.375 
Q 6.59375 54.828125 13.0625 64.515625 
Q 19.53125 74.21875 31.78125 74.21875 
z
" id="DejaVuSans-48"/>
       </defs>
       <use xlink:href="#DejaVuSans-8722"/>
       <use x="83.789062" xlink:href="#DejaVuSans-53"/>
       <use x="147.412109" xlink:href="#DejaVuSans-48"/>
      </g>
     </g>
    </g>
    <g id="xtick_3">
     <g id="line2d_3">
      <g>
       <use style="stroke:#000000;stroke-width:0.8;" x="150.91489" xlink:href="#m6898a28352" y="307.584"/>
      </g>
     </g>
     <g id="text_3">
      <!-- −25 -->
      <g transform="translate(140.362546 322.182437)scale(0.1 -0.1)">
       <defs>
        <path d="M 19.1875 8.296875 
L 53.609375 8.296875 
L 53.609375 0 
L 7.328125 0 
L 7.328125 8.296875 
Q 12.9375 14.109375 22.625 23.890625 
Q 32.328125 33.6875 34.8125 36.53125 
Q 39.546875 41.84375 41.421875 45.53125 
Q 43.3125 49.21875 43.3125 52.78125 
Q 43.3125 58.59375 39.234375 62.25 
Q 35.15625 65.921875 28.609375 65.921875 
Q 23.96875 65.921875 18.8125 64.3125 
Q 13.671875 62.703125 7.8125 59.421875 
L 7.8125 69.390625 
Q 13.765625 71.78125 18.9375 73 
Q 24.125 74.21875 28.421875 74.21875 
Q 39.75 74.21875 46.484375 68.546875 
Q 53.21875 62.890625 53.21875 53.421875 
Q 53.21875 48.921875 51.53125 44.890625 
Q 49.859375 40.875 45.40625 35.40625 
Q 44.1875 33.984375 37.640625 27.21875 
Q 31.109375 20.453125 19.1875 8.296875 
z
" id="DejaVuSans-50"/>
       </defs>
       <use xlink:href="#DejaVuSans-8722"/>
       <use x="83.789062" xlink:href="#DejaVuSans-50"/>
       <use x="147.412109" xlink:href="#DejaVuSans-53"/>
      </g>
     </g>
    </g>
    <g id="xtick_4">
     <g id="line2d_4">
      <g>
       <use style="stroke:#000000;stroke-width:0.8;" x="195.597157" xlink:href="#m6898a28352" y="307.584"/>
      </g>
     </g>
     <g id="text_4">
      <!-- 0 -->
      <g transform="translate(192.415907 322.182437)scale(0.1 -0.1)">
       <use xlink:href="#DejaVuSans-48"/>
      </g>
     </g>
    </g>
    <g id="xtick_5">
     <g id="line2d_5">
      <g>
       <use style="stroke:#000000;stroke-width:0.8;" x="240.279424" xlink:href="#m6898a28352" y="307.584"/>
      </g>
     </g>
     <g id="text_5">
      <!-- 25 -->
      <g transform="translate(233.916924 322.182437)scale(0.1 -0.1)">
       <use xlink:href="#DejaVuSans-50"/>
       <use x="63.623047" xlink:href="#DejaVuSans-53"/>
      </g>
     </g>
    </g>
    <g id="xtick_6">
     <g id="line2d_6">
      <g>
       <use style="stroke:#000000;stroke-width:0.8;" x="284.961691" xlink:href="#m6898a28352" y="307.584"/>
      </g>
     </g>
     <g id="text_6">
      <!-- 50 -->
      <g transform="translate(278.599191 322.182437)scale(0.1 -0.1)">
       <use xlink:href="#DejaVuSans-53"/>
       <use x="63.623047" xlink:href="#DejaVuSans-48"/>
      </g>
     </g>
    </g>
    <g id="xtick_7">
     <g id="line2d_7">
      <g>
       <use style="stroke:#000000;stroke-width:0.8;" x="329.643958" xlink:href="#m6898a28352" y="307.584"/>
      </g>
     </g>
     <g id="text_7">
      <!-- 75 -->
      <g transform="translate(323.281458 322.182437)scale(0.1 -0.1)">
       <use xlink:href="#DejaVuSans-55"/>
       <use x="63.623047" xlink:href="#DejaVuSans-53"/>
      </g>
     </g>
    </g>
    <g id="xtick_8">
     <g id="line2d_8">
      <g>
       <use style="stroke:#000000;stroke-width:0.8;" x="374.326224" xlink:href="#m6898a28352" y="307.584"/>
      </g>
     </g>
     <g id="text_8">
      <!-- 100 -->
      <g transform="translate(364.782474 322.182437)scale(0.1 -0.1)">
       <defs>
        <path d="M 12.40625 8.296875 
L 28.515625 8.296875 
L 28.515625 63.921875 
L 10.984375 60.40625 
L 10.984375 69.390625 
L 28.421875 72.90625 
L 38.28125 72.90625 
L 38.28125 8.296875 
L 54.390625 8.296875 
L 54.390625 0 
L 12.40625 0 
z
" id="DejaVuSans-49"/>
       </defs>
       <use xlink:href="#DejaVuSans-49"/>
       <use x="63.623047" xlink:href="#DejaVuSans-48"/>
       <use x="127.246094" xlink:href="#DejaVuSans-48"/>
      </g>
     </g>
    </g>
   </g>
   <g id="matplotlib.axis_2">
    <g id="ytick_1">
     <g id="line2d_9">
      <defs>
       <path d="M 0 0 
L -3.5 0 
" id="m33ae54681c" style="stroke:#000000;stroke-width:0.8;"/>
      </defs>
      <g>
       <use style="stroke:#000000;stroke-width:0.8;" x="57.6" xlink:href="#m33ae54681c" y="295.419218"/>
      </g>
     </g>
     <g id="text_9">
      <!-- 0 -->
      <g transform="translate(44.2375 299.218437)scale(0.1 -0.1)">
       <use xlink:href="#DejaVuSans-48"/>
      </g>
     </g>
    </g>
    <g id="ytick_2">
     <g id="line2d_10">
      <g>
       <use style="stroke:#000000;stroke-width:0.8;" x="57.6" xlink:href="#m33ae54681c" y="259.673405"/>
      </g>
     </g>
     <g id="text_10">
      <!-- 20 -->
      <g transform="translate(37.875 263.472624)scale(0.1 -0.1)">
       <use xlink:href="#DejaVuSans-50"/>
       <use x="63.623047" xlink:href="#DejaVuSans-48"/>
      </g>
     </g>
    </g>
    <g id="ytick_3">
     <g id="line2d_11">
      <g>
       <use style="stroke:#000000;stroke-width:0.8;" x="57.6" xlink:href="#m33ae54681c" y="223.927591"/>
      </g>
     </g>
     <g id="text_11">
      <!-- 40 -->
      <g transform="translate(37.875 227.72681)scale(0.1 -0.1)">
       <defs>
        <path d="M 37.796875 64.3125 
L 12.890625 25.390625 
L 37.796875 25.390625 
z
M 35.203125 72.90625 
L 47.609375 72.90625 
L 47.609375 25.390625 
L 58.015625 25.390625 
L 58.015625 17.1875 
L 47.609375 17.1875 
L 47.609375 0 
L 37.796875 0 
L 37.796875 17.1875 
L 4.890625 17.1875 
L 4.890625 26.703125 
z
" id="DejaVuSans-52"/>
       </defs>
       <use xlink:href="#DejaVuSans-52"/>
       <use x="63.623047" xlink:href="#DejaVuSans-48"/>
      </g>
     </g>
    </g>
    <g id="ytick_4">
     <g id="line2d_12">
      <g>
       <use style="stroke:#000000;stroke-width:0.8;" x="57.6" xlink:href="#m33ae54681c" y="188.181778"/>
      </g>
     </g>
     <g id="text_12">
      <!-- 60 -->
      <g transform="translate(37.875 191.980996)scale(0.1 -0.1)">
       <defs>
        <path d="M 33.015625 40.375 
Q 26.375 40.375 22.484375 35.828125 
Q 18.609375 31.296875 18.609375 23.390625 
Q 18.609375 15.53125 22.484375 10.953125 
Q 26.375 6.390625 33.015625 6.390625 
Q 39.65625 6.390625 43.53125 10.953125 
Q 47.40625 15.53125 47.40625 23.390625 
Q 47.40625 31.296875 43.53125 35.828125 
Q 39.65625 40.375 33.015625 40.375 
z
M 52.59375 71.296875 
L 52.59375 62.3125 
Q 48.875 64.0625 45.09375 64.984375 
Q 41.3125 65.921875 37.59375 65.921875 
Q 27.828125 65.921875 22.671875 59.328125 
Q 17.53125 52.734375 16.796875 39.40625 
Q 19.671875 43.65625 24.015625 45.921875 
Q 28.375 48.1875 33.59375 48.1875 
Q 44.578125 48.1875 50.953125 41.515625 
Q 57.328125 34.859375 57.328125 23.390625 
Q 57.328125 12.15625 50.6875 5.359375 
Q 44.046875 -1.421875 33.015625 -1.421875 
Q 20.359375 -1.421875 13.671875 8.265625 
Q 6.984375 17.96875 6.984375 36.375 
Q 6.984375 53.65625 15.1875 63.9375 
Q 23.390625 74.21875 37.203125 74.21875 
Q 40.921875 74.21875 44.703125 73.484375 
Q 48.484375 72.75 52.59375 71.296875 
z
" id="DejaVuSans-54"/>
       </defs>
       <use xlink:href="#DejaVuSans-54"/>
       <use x="63.623047" xlink:href="#DejaVuSans-48"/>
      </g>
     </g>
    </g>
    <g id="ytick_5">
     <g id="line2d_13">
      <g>
       <use style="stroke:#000000;stroke-width:0.8;" x="57.6" xlink:href="#m33ae54681c" y="152.435964"/>
      </g>
     </g>
     <g id="text_13">
      <!-- 80 -->
      <g transform="translate(37.875 156.235183)scale(0.1 -0.1)">
       <defs>
        <path d="M 31.78125 34.625 
Q 24.75 34.625 20.71875 30.859375 
Q 16.703125 27.09375 16.703125 20.515625 
Q 16.703125 13.921875 20.71875 10.15625 
Q 24.75 6.390625 31.78125 6.390625 
Q 38.8125 6.390625 42.859375 10.171875 
Q 46.921875 13.96875 46.921875 20.515625 
Q 46.921875 27.09375 42.890625 30.859375 
Q 38.875 34.625 31.78125 34.625 
z
M 21.921875 38.8125 
Q 15.578125 40.375 12.03125 44.71875 
Q 8.5 49.078125 8.5 55.328125 
Q 8.5 64.0625 14.71875 69.140625 
Q 20.953125 74.21875 31.78125 74.21875 
Q 42.671875 74.21875 48.875 69.140625 
Q 55.078125 64.0625 55.078125 55.328125 
Q 55.078125 49.078125 51.53125 44.71875 
Q 48 40.375 41.703125 38.8125 
Q 48.828125 37.15625 52.796875 32.3125 
Q 56.78125 27.484375 56.78125 20.515625 
Q 56.78125 9.90625 50.3125 4.234375 
Q 43.84375 -1.421875 31.78125 -1.421875 
Q 19.734375 -1.421875 13.25 4.234375 
Q 6.78125 9.90625 6.78125 20.515625 
Q 6.78125 27.484375 10.78125 32.3125 
Q 14.796875 37.15625 21.921875 38.8125 
z
M 18.3125 54.390625 
Q 18.3125 48.734375 21.84375 45.5625 
Q 25.390625 42.390625 31.78125 42.390625 
Q 38.140625 42.390625 41.71875 45.5625 
Q 45.3125 48.734375 45.3125 54.390625 
Q 45.3125 60.0625 41.71875 63.234375 
Q 38.140625 66.40625 31.78125 66.40625 
Q 25.390625 66.40625 21.84375 63.234375 
Q 18.3125 60.0625 18.3125 54.390625 
z
" id="DejaVuSans-56"/>
       </defs>
       <use xlink:href="#DejaVuSans-56"/>
       <use x="63.623047" xlink:href="#DejaVuSans-48"/>
      </g>
     </g>
    </g>
    <g id="ytick_6">
     <g id="line2d_14">
      <g>
       <use style="stroke:#000000;stroke-width:0.8;" x="57.6" xlink:href="#m33ae54681c" y="116.690151"/>
      </g>
     </g>
     <g id="text_14">
      <!-- 100 -->
      <g transform="translate(31.5125 120.489369)scale(0.1 -0.1)">
       <use xlink:href="#DejaVuSans-49"/>
       <use x="63.623047" xlink:href="#DejaVuSans-48"/>
       <use x="127.246094" xlink:href="#DejaVuSans-48"/>
      </g>
     </g>
    </g>
    <g id="ytick_7">
     <g id="line2d_15">
      <g>
       <use style="stroke:#000000;stroke-width:0.8;" x="57.6" xlink:href="#m33ae54681c" y="80.944337"/>
      </g>
     </g>
     <g id="text_15">
      <!-- 120 -->
      <g transform="translate(31.5125 84.743556)scale(0.1 -0.1)">
       <use xlink:href="#DejaVuSans-49"/>
       <use x="63.623047" xlink:href="#DejaVuSans-50"/>
       <use x="127.246094" xlink:href="#DejaVuSans-48"/>
      </g>
     </g>
    </g>
    <g id="ytick_8">
     <g id="line2d_16">
      <g>
       <use style="stroke:#000000;stroke-width:0.8;" x="57.6" xlink:href="#m33ae54681c" y="45.198524"/>
      </g>
     </g>
     <g id="text_16">
      <!-- 140 -->
      <g transform="translate(31.5125 48.997742)scale(0.1 -0.1)">
       <use xlink:href="#DejaVuSans-49"/>
       <use x="63.623047" xlink:href="#DejaVuSans-52"/>
       <use x="127.246094" xlink:href="#DejaVuSans-48"/>
      </g>
     </g>
    </g>
   </g>
   <g id="line2d_17">
    <path clip-path="url(#p8fe526c3d9)" d="M 195.597157 295.419218 
L 195.870472 276.608017 
L 196.461915 248.373781 
L 196.851316 243.540653 
L 197.764684 236.151196 
L 198.982508 226.298587 
L 199.328007 221.484095 
L 199.3418 216.810403 
L 199.187722 214.541887 
L 198.906815 212.327206 
L 198.484446 210.172573 
L 197.90598 208.084198 
L 197.156783 206.068295 
L 196.194401 204.146758 
L 195.003159 202.329253 
L 193.608589 200.603651 
L 192.036226 198.957823 
L 190.311602 197.379639 
L 186.507707 194.377684 
L 180.298247 190.078839 
L 176.120752 187.207488 
L 172.151285 184.218564 
L 170.308395 182.649688 
L 168.594112 181.015029 
L 167.03397 179.302458 
L 165.653502 177.499846 
L 164.478242 175.595062 
L 162.508316 171.526895 
L 160.845566 167.196578 
L 159.475656 162.655908 
L 158.384253 157.956686 
L 157.55702 153.150711 
L 156.979625 148.289782 
L 156.637731 143.425698 
L 156.517005 138.610259 
L 156.603111 133.895264 
L 156.886589 129.293428 
L 157.388818 124.62013 
L 158.116884 119.883166 
L 159.073719 115.129204 
L 160.262254 110.404908 
L 161.685424 105.756946 
L 163.346159 101.231983 
L 165.247391 96.876686 
L 167.392054 92.737722 
L 169.783078 88.861755 
L 172.500419 85.046269 
L 175.583415 81.136466 
L 178.974077 77.250595 
L 182.614412 73.506904 
L 186.446431 70.023641 
L 190.412142 66.919055 
L 192.427011 65.545719 
L 194.453556 64.311394 
L 196.484529 63.230863 
L 198.51268 62.318907 
L 200.530762 61.590305 
L 202.531526 61.059841 
L 204.507721 60.742293 
L 206.47829 60.679122 
L 208.466556 60.885054 
L 210.471842 61.334773 
L 212.493473 62.002964 
L 214.530773 62.86431 
L 216.583067 63.893497 
L 220.729935 66.354125 
L 224.92867 69.182321 
L 233.460121 75.131314 
L 237.782028 77.847055 
L 239.954662 79.051632 
L 242.134182 80.120258 
L 244.319913 81.027618 
L 246.535736 81.790962 
L 251.108354 83.029804 
L 255.819365 83.977785 
L 263.015251 85.098344 
L 270.187932 86.191766 
L 274.857691 87.091505 
L 279.368431 88.257983 
L 281.545581 88.976099 
L 283.66067 89.80272 
L 285.706263 90.751786 
L 287.674925 91.837237 
L 289.566348 93.055932 
L 291.389104 94.388909 
L 294.852158 97.358522 
L 298.111173 100.667712 
L 301.213236 104.238115 
L 305.675044 109.912075 
L 314.492716 121.436312 
L 317.573198 125.042632 
L 317.573198 125.042632 
" style="fill:none;stroke:#fea952;stroke-linecap:square;"/>
   </g>
   <g id="line2d_18">
    <path clip-path="url(#p8fe526c3d9)" d="M 188.448325 295.350437 
L 188.722613 276.471498 
L 189.32914 247.889993 
L 189.746802 242.742901 
L 190.679609 235.196081 
L 191.859293 225.690032 
L 192.180837 221.315304 
L 192.20907 217.294859 
L 191.891177 213.70247 
L 191.594708 212.080985 
L 190.764525 209.26979 
L 190.215103 208.065753 
L 189.442814 206.822925 
L 188.439315 205.542186 
L 187.209884 204.232001 
L 185.770333 202.901179 
L 182.353646 200.196129 
L 176.282639 195.993687 
L 171.911967 192.986472 
L 167.516992 189.662263 
L 165.37476 187.823639 
L 163.30917 185.829581 
L 161.358016 183.64919 
L 159.569262 181.253851 
L 158.116276 178.856337 
L 156.951225 176.567613 
L 154.916586 171.823092 
L 153.24607 166.896657 
L 151.908451 161.834226 
L 150.877048 156.680166 
L 150.128762 151.478479 
L 149.643226 146.273279 
L 149.402157 141.108845 
L 149.388951 136.029419 
L 149.588962 131.072431 
L 150.010514 126.123444 
L 150.671039 121.090459 
L 151.574858 116.013025 
L 152.72763 110.931306 
L 154.136498 105.885811 
L 155.810383 100.917299 
L 157.760435 96.06689 
L 160.000587 91.37651 
L 162.54812 86.889822 
L 165.320055 82.75533 
L 168.439689 78.601847 
L 171.917482 74.414536 
L 175.712902 70.296901 
L 179.79074 66.355198 
L 184.125582 62.698133 
L 186.385631 61.011625 
L 188.708121 59.439952 
L 191.095668 57.999887 
L 193.552668 56.710532 
L 196.084951 55.594573 
L 198.698598 54.6799 
L 201.397304 54.001224 
L 204.278656 53.596801 
L 207.214815 53.568 
L 210.031016 53.909168 
L 212.715415 54.546776 
L 215.277459 55.418137 
L 217.735544 56.473695 
L 220.109129 57.674379 
L 224.666573 60.386428 
L 229.040777 63.334151 
L 237.353571 69.13535 
L 241.248597 71.594582 
L 244.875206 73.517432 
L 246.648474 74.268304 
L 250.532867 75.517482 
L 254.768931 76.506684 
L 259.293743 77.31129 
L 273.977313 79.612285 
L 279.060434 80.748968 
L 281.607853 81.468615 
L 284.147939 82.317401 
L 286.669506 83.31755 
L 289.158136 84.491187 
L 291.547139 85.827537 
L 293.786458 87.285214 
L 295.911477 88.851882 
L 297.930547 90.511477 
L 301.688271 94.052538 
L 305.135985 97.80666 
L 308.346392 101.685929 
L 312.856709 107.562988 
L 318.573822 115.095524 
L 321.396014 118.556076 
L 322.95195 120.333115 
L 322.95195 120.333115 
" style="fill:none;stroke:#ffffff;stroke-linecap:square;"/>
   </g>
   <g id="line2d_19">
    <path clip-path="url(#p8fe526c3d9)" d="M 202.745989 295.488 
L 203.018331 276.744537 
L 203.59469 248.85757 
L 203.95583 244.338406 
L 204.849758 237.106312 
L 205.830849 229.50082 
L 206.326602 224.290278 
L 206.531678 218.997283 
L 206.474529 216.325946 
L 206.280061 213.642305 
L 205.922453 210.951942 
L 205.374184 208.26416 
L 204.607316 205.593692 
L 203.549041 202.866801 
L 202.173699 200.227762 
L 200.563504 197.835581 
L 198.777864 195.665117 
L 196.862568 193.683645 
L 194.852872 191.8581 
L 190.661768 188.559239 
L 184.313855 184.163992 
L 178.489473 180.092964 
L 175.24203 177.475736 
L 172.709924 174.955727 
L 171.737742 173.745841 
L 170.840208 172.333787 
L 169.130394 168.832715 
L 167.65325 165.013469 
L 166.413901 160.932167 
L 165.412516 156.647474 
L 164.645197 152.218899 
L 164.104913 147.706012 
L 163.782255 143.168201 
L 163.66596 138.664766 
L 163.743206 134.255225 
L 164.003095 129.975981 
L 164.46697 125.625262 
L 165.141552 121.211534 
L 166.027721 116.788232 
L 167.124968 112.408327 
L 168.431173 108.124518 
L 169.942228 103.989229 
L 171.651529 100.054349 
L 173.549399 96.370576 
L 175.658336 92.935067 
L 178.16838 89.403418 
L 181.0304 85.766897 
L 184.170294 82.160773 
L 187.510423 78.716472 
L 190.965779 75.563137 
L 194.438654 72.826486 
L 197.811443 70.622901 
L 200.94041 69.04324 
L 203.665747 68.118457 
L 204.736787 67.887785 
L 205.741765 67.790244 
L 206.902095 67.86094 
L 208.228269 68.122771 
L 209.709486 68.587791 
L 211.326002 69.254926 
L 213.057006 70.112614 
L 216.793297 72.321821 
L 220.816562 75.030492 
L 229.566671 81.127277 
L 234.315459 84.099529 
L 236.807351 85.470741 
L 239.393158 86.723085 
L 241.991352 87.786932 
L 244.528281 88.652496 
L 249.60601 90.019331 
L 254.639363 91.028893 
L 261.988164 92.173343 
L 268.920538 93.227691 
L 273.200886 94.046037 
L 277.12901 95.047351 
L 280.651834 96.28789 
L 282.25439 97.012385 
L 283.802711 97.846936 
L 285.346237 98.826651 
L 288.36761 101.141263 
L 291.320184 103.898597 
L 294.221777 107.04366 
L 297.093856 110.507638 
L 301.412983 116.135225 
L 307.413529 124.033643 
L 310.638509 127.97511 
L 312.194445 129.752149 
L 312.194445 129.752149 
" style="fill:none;stroke:#ffffff;stroke-linecap:square;"/>
   </g>
   <g id="patch_3">
    <path d="M 57.6 307.584 
L 57.6 41.472 
" style="fill:none;stroke:#000000;stroke-linecap:square;stroke-linejoin:miter;stroke-width:0.8;"/>
   </g>
   <g id="patch_4">
    <path d="M 414.72 307.584 
L 414.72 41.472 
" style="fill:none;stroke:#000000;stroke-linecap:square;stroke-linejoin:miter;stroke-width:0.8;"/>
   </g>
   <g id="patch_5">
    <path d="M 57.6 307.584 
L 414.72 307.584 
" style="fill:none;stroke:#000000;stroke-linecap:square;stroke-linejoin:miter;stroke-width:0.8;"/>
   </g>
   <g id="patch_6">
    <path d="M 57.6 41.472 
L 414.72 41.472 
" style="fill:none;stroke:#000000;stroke-linecap:square;stroke-linejoin:miter;stroke-width:0.8;"/>
   </g>
  </g>
 </g>
 <defs>
  <clipPath id="p8fe526c3d9">
   <rect height="266.112" width="357.12" x="57.6" y="41.472"/>
  </clipPath>
 </defs>
</svg>
