<?xml version="1.0" encoding="utf-8" standalone="no"?>
<!DOCTYPE svg PUBLIC "-//W3C//DTD SVG 1.1//EN"
  "http://www.w3.org/Graphics/SVG/1.1/DTD/svg11.dtd">
<!-- Created with matplotlib (https://matplotlib.org/) -->
<svg height="345.6pt" version="1.1" viewBox="0 0 460.8 345.6" width="460.8pt" xmlns="http://www.w3.org/2000/svg" xmlns:xlink="http://www.w3.org/1999/xlink">
 <metadata>
  <rdf:RDF xmlns:cc="http://creativecommons.org/ns#" xmlns:dc="http://purl.org/dc/elements/1.1/" xmlns:rdf="http://www.w3.org/1999/02/22-rdf-syntax-ns#">
   <cc:Work>
    <dc:type rdf:resource="http://purl.org/dc/dcmitype/StillImage"/>
    <dc:date>2021-07-07T18:45:44.942088</dc:date>
    <dc:format>image/svg+xml</dc:format>
    <dc:creator>
     <cc:Agent>
      <dc:title>Matplotlib v3.3.3, https://matplotlib.org/</dc:title>
     </cc:Agent>
    </dc:creator>
   </cc:Work>
  </rdf:RDF>
 </metadata>
 <defs>
  <style type="text/css">*{stroke-linecap:butt;stroke-linejoin:round;}</style>
 </defs>
 <g id="figure_1">
  <g id="patch_1">
   <path d="M 0 345.6 
L 460.8 345.6 
L 460.8 0 
L 0 0 
z
" style="fill:#ffffff;"/>
  </g>
  <g id="axes_1">
   <g id="patch_2">
    <path d="M 57.6 307.584 
L 414.72 307.584 
L 414.72 41.472 
L 57.6 41.472 
z
" style="fill:#7d9051;"/>
   </g>
   <g id="matplotlib.axis_1">
    <g id="xtick_1">
     <g id="line2d_1">
      <defs>
       <path d="M 0 0 
L 0 3.5 
" id="ma4fb5facf5" style="stroke:#000000;stroke-width:0.8;"/>
      </defs>
      <g>
       <use style="stroke:#000000;stroke-width:0.8;" x="74.52705" xlink:href="#ma4fb5facf5" y="307.584"/>
      </g>
     </g>
     <g id="text_1">
      <!-- −140 -->
      <g transform="translate(60.793456 322.182437)scale(0.1 -0.1)">
       <defs>
        <path d="M 10.59375 35.5 
L 73.1875 35.5 
L 73.1875 27.203125 
L 10.59375 27.203125 
z
" id="DejaVuSans-8722"/>
        <path d="M 12.40625 8.296875 
L 28.515625 8.296875 
L 28.515625 63.921875 
L 10.984375 60.40625 
L 10.984375 69.390625 
L 28.421875 72.90625 
L 38.28125 72.90625 
L 38.28125 8.296875 
L 54.390625 8.296875 
L 54.390625 0 
L 12.40625 0 
z
" id="DejaVuSans-49"/>
        <path d="M 37.796875 64.3125 
L 12.890625 25.390625 
L 37.796875 25.390625 
z
M 35.203125 72.90625 
L 47.609375 72.90625 
L 47.609375 25.390625 
L 58.015625 25.390625 
L 58.015625 17.1875 
L 47.609375 17.1875 
L 47.609375 0 
L 37.796875 0 
L 37.796875 17.1875 
L 4.890625 17.1875 
L 4.890625 26.703125 
z
" id="DejaVuSans-52"/>
        <path d="M 31.78125 66.40625 
Q 24.171875 66.40625 20.328125 58.90625 
Q 16.5 51.421875 16.5 36.375 
Q 16.5 21.390625 20.328125 13.890625 
Q 24.171875 6.390625 31.78125 6.390625 
Q 39.453125 6.390625 43.28125 13.890625 
Q 47.125 21.390625 47.125 36.375 
Q 47.125 51.421875 43.28125 58.90625 
Q 39.453125 66.40625 31.78125 66.40625 
z
M 31.78125 74.21875 
Q 44.046875 74.21875 50.515625 64.515625 
Q 56.984375 54.828125 56.984375 36.375 
Q 56.984375 17.96875 50.515625 8.265625 
Q 44.046875 -1.421875 31.78125 -1.421875 
Q 19.53125 -1.421875 13.0625 8.265625 
Q 6.59375 17.96875 6.59375 36.375 
Q 6.59375 54.828125 13.0625 64.515625 
Q 19.53125 74.21875 31.78125 74.21875 
z
" id="DejaVuSans-48"/>
       </defs>
       <use xlink:href="#DejaVuSans-8722"/>
       <use x="83.789062" xlink:href="#DejaVuSans-49"/>
       <use x="147.412109" xlink:href="#DejaVuSans-52"/>
       <use x="211.035156" xlink:href="#DejaVuSans-48"/>
      </g>
     </g>
    </g>
    <g id="xtick_2">
     <g id="line2d_2">
      <g>
       <use style="stroke:#000000;stroke-width:0.8;" x="118.849939" xlink:href="#ma4fb5facf5" y="307.584"/>
      </g>
     </g>
     <g id="text_2">
      <!-- −120 -->
      <g transform="translate(105.116345 322.182437)scale(0.1 -0.1)">
       <defs>
        <path d="M 19.1875 8.296875 
L 53.609375 8.296875 
L 53.609375 0 
L 7.328125 0 
L 7.328125 8.296875 
Q 12.9375 14.109375 22.625 23.890625 
Q 32.328125 33.6875 34.8125 36.53125 
Q 39.546875 41.84375 41.421875 45.53125 
Q 43.3125 49.21875 43.3125 52.78125 
Q 43.3125 58.59375 39.234375 62.25 
Q 35.15625 65.921875 28.609375 65.921875 
Q 23.96875 65.921875 18.8125 64.3125 
Q 13.671875 62.703125 7.8125 59.421875 
L 7.8125 69.390625 
Q 13.765625 71.78125 18.9375 73 
Q 24.125 74.21875 28.421875 74.21875 
Q 39.75 74.21875 46.484375 68.546875 
Q 53.21875 62.890625 53.21875 53.421875 
Q 53.21875 48.921875 51.53125 44.890625 
Q 49.859375 40.875 45.40625 35.40625 
Q 44.1875 33.984375 37.640625 27.21875 
Q 31.109375 20.453125 19.1875 8.296875 
z
" id="DejaVuSans-50"/>
       </defs>
       <use xlink:href="#DejaVuSans-8722"/>
       <use x="83.789062" xlink:href="#DejaVuSans-49"/>
       <use x="147.412109" xlink:href="#DejaVuSans-50"/>
       <use x="211.035156" xlink:href="#DejaVuSans-48"/>
      </g>
     </g>
    </g>
    <g id="xtick_3">
     <g id="line2d_3">
      <g>
       <use style="stroke:#000000;stroke-width:0.8;" x="163.172827" xlink:href="#ma4fb5facf5" y="307.584"/>
      </g>
     </g>
     <g id="text_3">
      <!-- −100 -->
      <g transform="translate(149.439233 322.182437)scale(0.1 -0.1)">
       <use xlink:href="#DejaVuSans-8722"/>
       <use x="83.789062" xlink:href="#DejaVuSans-49"/>
       <use x="147.412109" xlink:href="#DejaVuSans-48"/>
       <use x="211.035156" xlink:href="#DejaVuSans-48"/>
      </g>
     </g>
    </g>
    <g id="xtick_4">
     <g id="line2d_4">
      <g>
       <use style="stroke:#000000;stroke-width:0.8;" x="207.495716" xlink:href="#ma4fb5facf5" y="307.584"/>
      </g>
     </g>
     <g id="text_4">
      <!-- −80 -->
      <g transform="translate(196.943372 322.182437)scale(0.1 -0.1)">
       <defs>
        <path d="M 31.78125 34.625 
Q 24.75 34.625 20.71875 30.859375 
Q 16.703125 27.09375 16.703125 20.515625 
Q 16.703125 13.921875 20.71875 10.15625 
Q 24.75 6.390625 31.78125 6.390625 
Q 38.8125 6.390625 42.859375 10.171875 
Q 46.921875 13.96875 46.921875 20.515625 
Q 46.921875 27.09375 42.890625 30.859375 
Q 38.875 34.625 31.78125 34.625 
z
M 21.921875 38.8125 
Q 15.578125 40.375 12.03125 44.71875 
Q 8.5 49.078125 8.5 55.328125 
Q 8.5 64.0625 14.71875 69.140625 
Q 20.953125 74.21875 31.78125 74.21875 
Q 42.671875 74.21875 48.875 69.140625 
Q 55.078125 64.0625 55.078125 55.328125 
Q 55.078125 49.078125 51.53125 44.71875 
Q 48 40.375 41.703125 38.8125 
Q 48.828125 37.15625 52.796875 32.3125 
Q 56.78125 27.484375 56.78125 20.515625 
Q 56.78125 9.90625 50.3125 4.234375 
Q 43.84375 -1.421875 31.78125 -1.421875 
Q 19.734375 -1.421875 13.25 4.234375 
Q 6.78125 9.90625 6.78125 20.515625 
Q 6.78125 27.484375 10.78125 32.3125 
Q 14.796875 37.15625 21.921875 38.8125 
z
M 18.3125 54.390625 
Q 18.3125 48.734375 21.84375 45.5625 
Q 25.390625 42.390625 31.78125 42.390625 
Q 38.140625 42.390625 41.71875 45.5625 
Q 45.3125 48.734375 45.3125 54.390625 
Q 45.3125 60.0625 41.71875 63.234375 
Q 38.140625 66.40625 31.78125 66.40625 
Q 25.390625 66.40625 21.84375 63.234375 
Q 18.3125 60.0625 18.3125 54.390625 
z
" id="DejaVuSans-56"/>
       </defs>
       <use xlink:href="#DejaVuSans-8722"/>
       <use x="83.789062" xlink:href="#DejaVuSans-56"/>
       <use x="147.412109" xlink:href="#DejaVuSans-48"/>
      </g>
     </g>
    </g>
    <g id="xtick_5">
     <g id="line2d_5">
      <g>
       <use style="stroke:#000000;stroke-width:0.8;" x="251.818604" xlink:href="#ma4fb5facf5" y="307.584"/>
      </g>
     </g>
     <g id="text_5">
      <!-- −60 -->
      <g transform="translate(241.266261 322.182437)scale(0.1 -0.1)">
       <defs>
        <path d="M 33.015625 40.375 
Q 26.375 40.375 22.484375 35.828125 
Q 18.609375 31.296875 18.609375 23.390625 
Q 18.609375 15.53125 22.484375 10.953125 
Q 26.375 6.390625 33.015625 6.390625 
Q 39.65625 6.390625 43.53125 10.953125 
Q 47.40625 15.53125 47.40625 23.390625 
Q 47.40625 31.296875 43.53125 35.828125 
Q 39.65625 40.375 33.015625 40.375 
z
M 52.59375 71.296875 
L 52.59375 62.3125 
Q 48.875 64.0625 45.09375 64.984375 
Q 41.3125 65.921875 37.59375 65.921875 
Q 27.828125 65.921875 22.671875 59.328125 
Q 17.53125 52.734375 16.796875 39.40625 
Q 19.671875 43.65625 24.015625 45.921875 
Q 28.375 48.1875 33.59375 48.1875 
Q 44.578125 48.1875 50.953125 41.515625 
Q 57.328125 34.859375 57.328125 23.390625 
Q 57.328125 12.15625 50.6875 5.359375 
Q 44.046875 -1.421875 33.015625 -1.421875 
Q 20.359375 -1.421875 13.671875 8.265625 
Q 6.984375 17.96875 6.984375 36.375 
Q 6.984375 53.65625 15.1875 63.9375 
Q 23.390625 74.21875 37.203125 74.21875 
Q 40.921875 74.21875 44.703125 73.484375 
Q 48.484375 72.75 52.59375 71.296875 
z
" id="DejaVuSans-54"/>
       </defs>
       <use xlink:href="#DejaVuSans-8722"/>
       <use x="83.789062" xlink:href="#DejaVuSans-54"/>
       <use x="147.412109" xlink:href="#DejaVuSans-48"/>
      </g>
     </g>
    </g>
    <g id="xtick_6">
     <g id="line2d_6">
      <g>
       <use style="stroke:#000000;stroke-width:0.8;" x="296.141493" xlink:href="#ma4fb5facf5" y="307.584"/>
      </g>
     </g>
     <g id="text_6">
      <!-- −40 -->
      <g transform="translate(285.589149 322.182437)scale(0.1 -0.1)">
       <use xlink:href="#DejaVuSans-8722"/>
       <use x="83.789062" xlink:href="#DejaVuSans-52"/>
       <use x="147.412109" xlink:href="#DejaVuSans-48"/>
      </g>
     </g>
    </g>
    <g id="xtick_7">
     <g id="line2d_7">
      <g>
       <use style="stroke:#000000;stroke-width:0.8;" x="340.464381" xlink:href="#ma4fb5facf5" y="307.584"/>
      </g>
     </g>
     <g id="text_7">
      <!-- −20 -->
      <g transform="translate(329.912038 322.182437)scale(0.1 -0.1)">
       <use xlink:href="#DejaVuSans-8722"/>
       <use x="83.789062" xlink:href="#DejaVuSans-50"/>
       <use x="147.412109" xlink:href="#DejaVuSans-48"/>
      </g>
     </g>
    </g>
    <g id="xtick_8">
     <g id="line2d_8">
      <g>
       <use style="stroke:#000000;stroke-width:0.8;" x="384.78727" xlink:href="#ma4fb5facf5" y="307.584"/>
      </g>
     </g>
     <g id="text_8">
      <!-- 0 -->
      <g transform="translate(381.60602 322.182437)scale(0.1 -0.1)">
       <use xlink:href="#DejaVuSans-48"/>
      </g>
     </g>
    </g>
   </g>
   <g id="matplotlib.axis_2">
    <g id="ytick_1">
     <g id="line2d_9">
      <defs>
       <path d="M 0 0 
L -3.5 0 
" id="m46bcb36860" style="stroke:#000000;stroke-width:0.8;"/>
      </defs>
      <g>
       <use style="stroke:#000000;stroke-width:0.8;" x="57.6" xlink:href="#m46bcb36860" y="274.51962"/>
      </g>
     </g>
     <g id="text_9">
      <!-- 0 -->
      <g transform="translate(44.2375 278.318839)scale(0.1 -0.1)">
       <use xlink:href="#DejaVuSans-48"/>
      </g>
     </g>
    </g>
    <g id="ytick_2">
     <g id="line2d_10">
      <g>
       <use style="stroke:#000000;stroke-width:0.8;" x="57.6" xlink:href="#m46bcb36860" y="230.196731"/>
      </g>
     </g>
     <g id="text_10">
      <!-- 20 -->
      <g transform="translate(37.875 233.99595)scale(0.1 -0.1)">
       <use xlink:href="#DejaVuSans-50"/>
       <use x="63.623047" xlink:href="#DejaVuSans-48"/>
      </g>
     </g>
    </g>
    <g id="ytick_3">
     <g id="line2d_11">
      <g>
       <use style="stroke:#000000;stroke-width:0.8;" x="57.6" xlink:href="#m46bcb36860" y="185.873843"/>
      </g>
     </g>
     <g id="text_11">
      <!-- 40 -->
      <g transform="translate(37.875 189.673061)scale(0.1 -0.1)">
       <use xlink:href="#DejaVuSans-52"/>
       <use x="63.623047" xlink:href="#DejaVuSans-48"/>
      </g>
     </g>
    </g>
    <g id="ytick_4">
     <g id="line2d_12">
      <g>
       <use style="stroke:#000000;stroke-width:0.8;" x="57.6" xlink:href="#m46bcb36860" y="141.550954"/>
      </g>
     </g>
     <g id="text_12">
      <!-- 60 -->
      <g transform="translate(37.875 145.350173)scale(0.1 -0.1)">
       <use xlink:href="#DejaVuSans-54"/>
       <use x="63.623047" xlink:href="#DejaVuSans-48"/>
      </g>
     </g>
    </g>
    <g id="ytick_5">
     <g id="line2d_13">
      <g>
       <use style="stroke:#000000;stroke-width:0.8;" x="57.6" xlink:href="#m46bcb36860" y="97.228066"/>
      </g>
     </g>
     <g id="text_13">
      <!-- 80 -->
      <g transform="translate(37.875 101.027284)scale(0.1 -0.1)">
       <use xlink:href="#DejaVuSans-56"/>
       <use x="63.623047" xlink:href="#DejaVuSans-48"/>
      </g>
     </g>
    </g>
    <g id="ytick_6">
     <g id="line2d_14">
      <g>
       <use style="stroke:#000000;stroke-width:0.8;" x="57.6" xlink:href="#m46bcb36860" y="52.905177"/>
      </g>
     </g>
     <g id="text_14">
      <!-- 100 -->
      <g transform="translate(31.5125 56.704396)scale(0.1 -0.1)">
       <use xlink:href="#DejaVuSans-49"/>
       <use x="63.623047" xlink:href="#DejaVuSans-48"/>
       <use x="127.246094" xlink:href="#DejaVuSans-48"/>
      </g>
     </g>
    </g>
   </g>
   <g id="line2d_15">
    <path clip-path="url(#p99aa6f301f)" d="M 384.78727 274.51962 
L 385.072456 254.110252 
L 385.862045 216.182955 
L 386.362535 210.170182 
L 387.540457 200.956343 
L 388.775338 191.716546 
L 389.377087 185.657627 
L 389.624428 179.760221 
L 389.567731 176.893716 
L 389.365474 174.093547 
L 388.998671 171.368366 
L 388.448335 168.726825 
L 387.695481 166.177577 
L 386.721123 163.729275 
L 385.526794 161.320919 
L 384.136191 158.894811 
L 382.563568 156.464555 
L 380.823182 154.043753 
L 378.929288 151.64601 
L 376.896141 149.284927 
L 374.737998 146.974109 
L 372.469112 144.727159 
L 370.10374 142.55768 
L 367.656138 140.479275 
L 365.140561 138.505548 
L 362.571263 136.650102 
L 359.962502 134.92654 
L 357.328532 133.348465 
L 354.683609 131.929482 
L 352.041988 130.683192 
L 349.417925 129.6232 
L 346.825675 128.763108 
L 344.279495 128.11652 
L 341.732881 127.754854 
L 339.132771 127.717535 
L 336.483577 127.970176 
L 333.789714 128.47839 
L 331.055593 129.207793 
L 328.285627 130.123997 
L 322.655814 132.379263 
L 305.365057 140.052127 
L 302.471075 141.102161 
L 299.585378 141.995135 
L 296.712378 142.696661 
L 293.85649 143.172353 
L 291.022126 143.387825 
L 285.319059 143.351796 
L 279.524162 142.962308 
L 273.676105 142.240663 
L 267.813556 141.20816 
L 261.975184 139.886103 
L 256.199657 138.295791 
L 250.525645 136.458524 
L 244.991817 134.395606 
L 239.636841 132.128335 
L 237.038506 130.924725 
L 234.510644 129.611092 
L 232.060041 128.134304 
L 229.677574 126.513707 
L 227.35412 124.768652 
L 222.847755 120.982559 
L 218.467959 116.930814 
L 209.796123 108.649528 
L 205.358108 104.729566 
L 203.081644 102.892476 
L 200.754711 101.163111 
L 198.368186 99.56082 
L 195.912945 98.104952 
L 193.379865 96.814856 
L 185.098926 93.087676 
L 179.108122 90.605261 
L 172.906262 88.282827 
L 166.634845 86.255873 
L 160.435373 84.6599 
L 157.406835 84.065874 
L 154.449347 83.630405 
L 151.580595 83.370432 
L 148.818268 83.30289 
L 146.180053 83.444719 
L 143.683637 83.812855 
L 141.346709 84.424235 
L 139.186956 85.295797 
L 137.215236 86.47653 
L 135.41903 87.98446 
L 133.780963 89.790084 
L 132.283657 91.8639 
L 130.909738 94.176405 
L 129.641827 96.698096 
L 128.46255 99.399471 
L 126.300389 105.223258 
L 123.287487 114.568993 
L 121.229721 120.861987 
L 118.970445 126.929623 
L 117.721799 129.805175 
L 116.370647 132.535879 
L 114.899612 135.092233 
L 111.722966 139.946492 
L 108.363015 144.686209 
L 103.054578 151.628001 
L 97.527035 158.43288 
L 82.597888 176.461104 
L 80.789743 178.750874 
L 80.789743 178.750874 
" style="fill:none;stroke:#fea952;stroke-linecap:square;"/>
   </g>
   <g id="line2d_16">
    <path clip-path="url(#p99aa6f301f)" d="M 375.923103 274.434334 
L 376.209382 253.946974 
L 377.019101 215.564027 
L 377.557138 209.147581 
L 378.760799 199.732276 
L 379.964128 190.745297 
L 380.528258 185.12946 
L 380.761584 179.93552 
L 380.726188 177.532344 
L 380.58012 175.276036 
L 380.320433 173.17638 
L 379.946747 171.237548 
L 379.459184 169.455402 
L 378.779455 167.667631 
L 377.836004 165.729148 
L 376.6939 163.710728 
L 375.366008 161.639094 
L 373.866853 159.538316 
L 372.211977 157.430339 
L 370.417576 155.335458 
L 368.500315 153.272685 
L 364.365908 149.314752 
L 359.950723 145.692086 
L 357.684766 144.046241 
L 355.406614 142.53079 
L 353.137761 141.159878 
L 350.901214 139.946602 
L 348.721792 138.902501 
L 346.626362 138.036755 
L 343.033069 136.893032 
L 341.60566 136.618519 
L 339.974324 136.542076 
L 338.126948 136.681092 
L 336.074672 137.043418 
L 333.839346 137.623935 
L 331.445041 138.406438 
L 326.263577 140.476472 
L 308.388558 148.385144 
L 305.091601 149.570548 
L 301.688142 150.606704 
L 298.168845 151.44077 
L 294.528448 152.011426 
L 291.108026 152.251987 
L 284.853536 152.204142 
L 278.556526 151.773915 
L 272.247591 150.989382 
L 265.957698 149.876294 
L 259.718338 148.458581 
L 253.561496 146.7587 
L 247.519553 144.797838 
L 241.625126 142.595979 
L 235.910894 140.171846 
L 232.950906 138.790617 
L 229.935223 137.203606 
L 227.074308 135.463916 
L 224.354017 133.601759 
L 221.758912 131.64429 
L 216.882694 127.539905 
L 212.331284 123.327842 
L 201.807536 113.371173 
L 197.793934 110.00731 
L 193.84691 107.185701 
L 191.889928 106.004071 
L 189.663637 104.862861 
L 181.644104 101.251311 
L 175.917133 98.875589 
L 170.070288 96.681517 
L 164.276712 94.801044 
L 158.729161 93.358726 
L 156.115514 92.835892 
L 153.649295 92.458806 
L 151.363913 92.232361 
L 149.294134 92.154686 
L 147.473288 92.214456 
L 145.927253 92.388805 
L 143.741219 92.901021 
L 142.914905 93.265824 
L 141.984453 93.940629 
L 140.968033 94.979184 
L 139.904648 96.39173 
L 138.829562 98.158505 
L 137.766015 100.244687 
L 136.725275 102.610095 
L 134.712945 108.017833 
L 131.729386 117.273633 
L 129.580505 123.836066 
L 127.101531 130.460369 
L 125.666976 133.736448 
L 124.053935 136.957171 
L 122.366163 139.870449 
L 118.997672 145.012001 
L 115.472536 149.981062 
L 111.830075 154.8025 
L 106.228772 161.81157 
L 87.746759 184.244567 
L 87.746759 184.244567 
" style="fill:none;stroke:#ffffff;stroke-linecap:square;"/>
   </g>
   <g id="line2d_17">
    <path clip-path="url(#p99aa6f301f)" d="M 393.651437 274.604905 
L 393.93553 254.27353 
L 394.70499 216.801883 
L 395.167933 211.192783 
L 396.320116 202.18041 
L 397.586547 192.687796 
L 398.225916 186.185794 
L 398.416599 182.896178 
L 398.487273 179.584921 
L 398.409275 176.255088 
L 398.150829 172.911058 
L 397.676909 169.560351 
L 396.949924 166.216102 
L 395.931779 162.899752 
L 394.662791 159.790919 
L 393.217584 156.91269 
L 391.578481 154.078895 
L 389.761129 151.290016 
L 387.779512 148.549191 
L 385.646599 145.86168 
L 383.374707 143.234396 
L 380.97568 140.675533 
L 378.460959 138.19428 
L 375.841572 135.800608 
L 373.128068 133.505128 
L 370.330398 131.31901 
L 367.457761 129.253962 
L 364.51839 127.32229 
L 361.519303 125.537052 
L 358.466004 123.912361 
L 355.362184 122.463883 
L 352.209488 121.209644 
L 349.007531 120.171237 
L 345.525921 119.340009 
L 341.860101 118.89119 
L 338.291217 118.892994 
L 334.840207 119.259259 
L 331.504756 119.913362 
L 328.271839 120.79165 
L 325.126213 121.841555 
L 319.048052 124.282055 
L 302.341557 131.719109 
L 299.850549 132.633774 
L 297.482614 133.383566 
L 295.255912 133.952552 
L 293.184532 134.33328 
L 290.936225 134.523664 
L 285.784581 134.49945 
L 280.491798 134.150701 
L 275.104619 133.491943 
L 269.669413 132.540027 
L 264.23203 131.313625 
L 258.837818 129.832881 
L 253.531738 128.119211 
L 248.358508 126.195232 
L 243.362787 124.084825 
L 239.086064 122.018578 
L 237.045773 120.804692 
L 235.001131 119.425656 
L 230.887666 116.22086 
L 226.72037 112.523438 
L 213.378917 99.938894 
L 208.369353 95.777642 
L 205.695938 93.803423 
L 202.889461 91.93594 
L 199.935963 90.205834 
L 194.382762 87.514323 
L 188.553748 84.924041 
L 182.299112 82.334933 
L 175.742235 79.884137 
L 168.992978 77.710702 
L 165.575415 76.773203 
L 162.141585 75.961073 
L 158.698156 75.295855 
L 155.249399 74.802005 
L 151.797277 74.508503 
L 148.342402 74.451095 
L 144.886817 74.674982 
L 141.440022 75.236904 
L 138.029365 76.203775 
L 134.632693 77.690574 
L 131.515567 79.687236 
L 128.853607 82.02829 
L 126.593892 84.600984 
L 124.662667 87.33607 
L 122.989913 90.194305 
L 121.517639 93.151505 
L 120.199825 96.188847 
L 117.887834 102.428683 
L 114.845588 111.864354 
L 112.878937 117.887908 
L 110.839358 123.398877 
L 109.776622 125.873902 
L 108.687359 128.114587 
L 107.43306 130.314017 
L 104.448259 134.880983 
L 101.253495 139.391357 
L 96.132442 146.090424 
L 90.710864 152.765381 
L 75.640872 170.967411 
L 73.832727 173.25718 
L 73.832727 173.25718 
" style="fill:none;stroke:#ffffff;stroke-linecap:square;"/>
   </g>
   <g id="patch_3">
    <path d="M 57.6 307.584 
L 57.6 41.472 
" style="fill:none;stroke:#000000;stroke-linecap:square;stroke-linejoin:miter;stroke-width:0.8;"/>
   </g>
   <g id="patch_4">
    <path d="M 414.72 307.584 
L 414.72 41.472 
" style="fill:none;stroke:#000000;stroke-linecap:square;stroke-linejoin:miter;stroke-width:0.8;"/>
   </g>
   <g id="patch_5">
    <path d="M 57.6 307.584 
L 414.72 307.584 
" style="fill:none;stroke:#000000;stroke-linecap:square;stroke-linejoin:miter;stroke-width:0.8;"/>
   </g>
   <g id="patch_6">
    <path d="M 57.6 41.472 
L 414.72 41.472 
" style="fill:none;stroke:#000000;stroke-linecap:square;stroke-linejoin:miter;stroke-width:0.8;"/>
   </g>
  </g>
 </g>
 <defs>
  <clipPath id="p99aa6f301f">
   <rect height="266.112" width="357.12" x="57.6" y="41.472"/>
  </clipPath>
 </defs>
</svg>
