<?xml version="1.0" encoding="utf-8" standalone="no"?>
<!DOCTYPE svg PUBLIC "-//W3C//DTD SVG 1.1//EN"
  "http://www.w3.org/Graphics/SVG/1.1/DTD/svg11.dtd">
<!-- Created with matplotlib (https://matplotlib.org/) -->
<svg height="345.6pt" version="1.1" viewBox="0 0 460.8 345.6" width="460.8pt" xmlns="http://www.w3.org/2000/svg" xmlns:xlink="http://www.w3.org/1999/xlink">
 <metadata>
  <rdf:RDF xmlns:cc="http://creativecommons.org/ns#" xmlns:dc="http://purl.org/dc/elements/1.1/" xmlns:rdf="http://www.w3.org/1999/02/22-rdf-syntax-ns#">
   <cc:Work>
    <dc:type rdf:resource="http://purl.org/dc/dcmitype/StillImage"/>
    <dc:date>2021-06-17T15:36:50.193956</dc:date>
    <dc:format>image/svg+xml</dc:format>
    <dc:creator>
     <cc:Agent>
      <dc:title>Matplotlib v3.3.3, https://matplotlib.org/</dc:title>
     </cc:Agent>
    </dc:creator>
   </cc:Work>
  </rdf:RDF>
 </metadata>
 <defs>
  <style type="text/css">*{stroke-linecap:butt;stroke-linejoin:round;}</style>
 </defs>
 <g id="figure_1">
  <g id="patch_1">
   <path d="M 0 345.6 
L 460.8 345.6 
L 460.8 0 
L 0 0 
z
" style="fill:#ffffff;"/>
  </g>
  <g id="axes_1">
   <g id="patch_2">
    <path d="M 57.6 307.584 
L 414.72 307.584 
L 414.72 41.472 
L 57.6 41.472 
z
" style="fill:#7d9051;"/>
   </g>
   <g id="matplotlib.axis_1">
    <g id="xtick_1">
     <g id="line2d_1">
      <defs>
       <path d="M 0 0 
L 0 3.5 
" id="m4ea1bf0a35" style="stroke:#000000;stroke-width:0.8;"/>
      </defs>
      <g>
       <use style="stroke:#000000;stroke-width:0.8;" x="91.273894" xlink:href="#m4ea1bf0a35" y="307.584"/>
      </g>
     </g>
     <g id="text_1">
      <!-- −150 -->
      <g transform="translate(77.540301 322.182437)scale(0.1 -0.1)">
       <defs>
        <path d="M 10.59375 35.5 
L 73.1875 35.5 
L 73.1875 27.203125 
L 10.59375 27.203125 
z
" id="DejaVuSans-8722"/>
        <path d="M 12.40625 8.296875 
L 28.515625 8.296875 
L 28.515625 63.921875 
L 10.984375 60.40625 
L 10.984375 69.390625 
L 28.421875 72.90625 
L 38.28125 72.90625 
L 38.28125 8.296875 
L 54.390625 8.296875 
L 54.390625 0 
L 12.40625 0 
z
" id="DejaVuSans-49"/>
        <path d="M 10.796875 72.90625 
L 49.515625 72.90625 
L 49.515625 64.59375 
L 19.828125 64.59375 
L 19.828125 46.734375 
Q 21.96875 47.46875 24.109375 47.828125 
Q 26.265625 48.1875 28.421875 48.1875 
Q 40.625 48.1875 47.75 41.5 
Q 54.890625 34.8125 54.890625 23.390625 
Q 54.890625 11.625 47.5625 5.09375 
Q 40.234375 -1.421875 26.90625 -1.421875 
Q 22.3125 -1.421875 17.546875 -0.640625 
Q 12.796875 0.140625 7.71875 1.703125 
L 7.71875 11.625 
Q 12.109375 9.234375 16.796875 8.0625 
Q 21.484375 6.890625 26.703125 6.890625 
Q 35.15625 6.890625 40.078125 11.328125 
Q 45.015625 15.765625 45.015625 23.390625 
Q 45.015625 31 40.078125 35.4375 
Q 35.15625 39.890625 26.703125 39.890625 
Q 22.75 39.890625 18.8125 39.015625 
Q 14.890625 38.140625 10.796875 36.28125 
z
" id="DejaVuSans-53"/>
        <path d="M 31.78125 66.40625 
Q 24.171875 66.40625 20.328125 58.90625 
Q 16.5 51.421875 16.5 36.375 
Q 16.5 21.390625 20.328125 13.890625 
Q 24.171875 6.390625 31.78125 6.390625 
Q 39.453125 6.390625 43.28125 13.890625 
Q 47.125 21.390625 47.125 36.375 
Q 47.125 51.421875 43.28125 58.90625 
Q 39.453125 66.40625 31.78125 66.40625 
z
M 31.78125 74.21875 
Q 44.046875 74.21875 50.515625 64.515625 
Q 56.984375 54.828125 56.984375 36.375 
Q 56.984375 17.96875 50.515625 8.265625 
Q 44.046875 -1.421875 31.78125 -1.421875 
Q 19.53125 -1.421875 13.0625 8.265625 
Q 6.59375 17.96875 6.59375 36.375 
Q 6.59375 54.828125 13.0625 64.515625 
Q 19.53125 74.21875 31.78125 74.21875 
z
" id="DejaVuSans-48"/>
       </defs>
       <use xlink:href="#DejaVuSans-8722"/>
       <use x="83.789062" xlink:href="#DejaVuSans-49"/>
       <use x="147.412109" xlink:href="#DejaVuSans-53"/>
       <use x="211.035156" xlink:href="#DejaVuSans-48"/>
      </g>
     </g>
    </g>
    <g id="xtick_2">
     <g id="line2d_2">
      <g>
       <use style="stroke:#000000;stroke-width:0.8;" x="163.295913" xlink:href="#m4ea1bf0a35" y="307.584"/>
      </g>
     </g>
     <g id="text_2">
      <!-- −100 -->
      <g transform="translate(149.562319 322.182437)scale(0.1 -0.1)">
       <use xlink:href="#DejaVuSans-8722"/>
       <use x="83.789062" xlink:href="#DejaVuSans-49"/>
       <use x="147.412109" xlink:href="#DejaVuSans-48"/>
       <use x="211.035156" xlink:href="#DejaVuSans-48"/>
      </g>
     </g>
    </g>
    <g id="xtick_3">
     <g id="line2d_3">
      <g>
       <use style="stroke:#000000;stroke-width:0.8;" x="235.317932" xlink:href="#m4ea1bf0a35" y="307.584"/>
      </g>
     </g>
     <g id="text_3">
      <!-- −50 -->
      <g transform="translate(224.765588 322.182437)scale(0.1 -0.1)">
       <use xlink:href="#DejaVuSans-8722"/>
       <use x="83.789062" xlink:href="#DejaVuSans-53"/>
       <use x="147.412109" xlink:href="#DejaVuSans-48"/>
      </g>
     </g>
    </g>
    <g id="xtick_4">
     <g id="line2d_4">
      <g>
       <use style="stroke:#000000;stroke-width:0.8;" x="307.339951" xlink:href="#m4ea1bf0a35" y="307.584"/>
      </g>
     </g>
     <g id="text_4">
      <!-- 0 -->
      <g transform="translate(304.158701 322.182437)scale(0.1 -0.1)">
       <use xlink:href="#DejaVuSans-48"/>
      </g>
     </g>
    </g>
    <g id="xtick_5">
     <g id="line2d_5">
      <g>
       <use style="stroke:#000000;stroke-width:0.8;" x="379.36197" xlink:href="#m4ea1bf0a35" y="307.584"/>
      </g>
     </g>
     <g id="text_5">
      <!-- 50 -->
      <g transform="translate(372.99947 322.182437)scale(0.1 -0.1)">
       <use xlink:href="#DejaVuSans-53"/>
       <use x="63.623047" xlink:href="#DejaVuSans-48"/>
      </g>
     </g>
    </g>
   </g>
   <g id="matplotlib.axis_2">
    <g id="ytick_1">
     <g id="line2d_6">
      <defs>
       <path d="M 0 0 
L -3.5 0 
" id="m67ea42c4be" style="stroke:#000000;stroke-width:0.8;"/>
      </defs>
      <g>
       <use style="stroke:#000000;stroke-width:0.8;" x="57.6" xlink:href="#m67ea42c4be" y="295.432566"/>
      </g>
     </g>
     <g id="text_6">
      <!-- 0 -->
      <g transform="translate(44.2375 299.231785)scale(0.1 -0.1)">
       <use xlink:href="#DejaVuSans-48"/>
      </g>
     </g>
    </g>
    <g id="ytick_2">
     <g id="line2d_7">
      <g>
       <use style="stroke:#000000;stroke-width:0.8;" x="57.6" xlink:href="#m67ea42c4be" y="259.421557"/>
      </g>
     </g>
     <g id="text_7">
      <!-- 25 -->
      <g transform="translate(37.875 263.220776)scale(0.1 -0.1)">
       <defs>
        <path d="M 19.1875 8.296875 
L 53.609375 8.296875 
L 53.609375 0 
L 7.328125 0 
L 7.328125 8.296875 
Q 12.9375 14.109375 22.625 23.890625 
Q 32.328125 33.6875 34.8125 36.53125 
Q 39.546875 41.84375 41.421875 45.53125 
Q 43.3125 49.21875 43.3125 52.78125 
Q 43.3125 58.59375 39.234375 62.25 
Q 35.15625 65.921875 28.609375 65.921875 
Q 23.96875 65.921875 18.8125 64.3125 
Q 13.671875 62.703125 7.8125 59.421875 
L 7.8125 69.390625 
Q 13.765625 71.78125 18.9375 73 
Q 24.125 74.21875 28.421875 74.21875 
Q 39.75 74.21875 46.484375 68.546875 
Q 53.21875 62.890625 53.21875 53.421875 
Q 53.21875 48.921875 51.53125 44.890625 
Q 49.859375 40.875 45.40625 35.40625 
Q 44.1875 33.984375 37.640625 27.21875 
Q 31.109375 20.453125 19.1875 8.296875 
z
" id="DejaVuSans-50"/>
       </defs>
       <use xlink:href="#DejaVuSans-50"/>
       <use x="63.623047" xlink:href="#DejaVuSans-53"/>
      </g>
     </g>
    </g>
    <g id="ytick_3">
     <g id="line2d_8">
      <g>
       <use style="stroke:#000000;stroke-width:0.8;" x="57.6" xlink:href="#m67ea42c4be" y="223.410548"/>
      </g>
     </g>
     <g id="text_8">
      <!-- 50 -->
      <g transform="translate(37.875 227.209766)scale(0.1 -0.1)">
       <use xlink:href="#DejaVuSans-53"/>
       <use x="63.623047" xlink:href="#DejaVuSans-48"/>
      </g>
     </g>
    </g>
    <g id="ytick_4">
     <g id="line2d_9">
      <g>
       <use style="stroke:#000000;stroke-width:0.8;" x="57.6" xlink:href="#m67ea42c4be" y="187.399538"/>
      </g>
     </g>
     <g id="text_9">
      <!-- 75 -->
      <g transform="translate(37.875 191.198757)scale(0.1 -0.1)">
       <defs>
        <path d="M 8.203125 72.90625 
L 55.078125 72.90625 
L 55.078125 68.703125 
L 28.609375 0 
L 18.3125 0 
L 43.21875 64.59375 
L 8.203125 64.59375 
z
" id="DejaVuSans-55"/>
       </defs>
       <use xlink:href="#DejaVuSans-55"/>
       <use x="63.623047" xlink:href="#DejaVuSans-53"/>
      </g>
     </g>
    </g>
    <g id="ytick_5">
     <g id="line2d_10">
      <g>
       <use style="stroke:#000000;stroke-width:0.8;" x="57.6" xlink:href="#m67ea42c4be" y="151.388529"/>
      </g>
     </g>
     <g id="text_10">
      <!-- 100 -->
      <g transform="translate(31.5125 155.187748)scale(0.1 -0.1)">
       <use xlink:href="#DejaVuSans-49"/>
       <use x="63.623047" xlink:href="#DejaVuSans-48"/>
       <use x="127.246094" xlink:href="#DejaVuSans-48"/>
      </g>
     </g>
    </g>
    <g id="ytick_6">
     <g id="line2d_11">
      <g>
       <use style="stroke:#000000;stroke-width:0.8;" x="57.6" xlink:href="#m67ea42c4be" y="115.377519"/>
      </g>
     </g>
     <g id="text_11">
      <!-- 125 -->
      <g transform="translate(31.5125 119.176738)scale(0.1 -0.1)">
       <use xlink:href="#DejaVuSans-49"/>
       <use x="63.623047" xlink:href="#DejaVuSans-50"/>
       <use x="127.246094" xlink:href="#DejaVuSans-53"/>
      </g>
     </g>
    </g>
    <g id="ytick_7">
     <g id="line2d_12">
      <g>
       <use style="stroke:#000000;stroke-width:0.8;" x="57.6" xlink:href="#m67ea42c4be" y="79.36651"/>
      </g>
     </g>
     <g id="text_12">
      <!-- 150 -->
      <g transform="translate(31.5125 83.165729)scale(0.1 -0.1)">
       <use xlink:href="#DejaVuSans-49"/>
       <use x="63.623047" xlink:href="#DejaVuSans-53"/>
       <use x="127.246094" xlink:href="#DejaVuSans-48"/>
      </g>
     </g>
    </g>
    <g id="ytick_8">
     <g id="line2d_13">
      <g>
       <use style="stroke:#000000;stroke-width:0.8;" x="57.6" xlink:href="#m67ea42c4be" y="43.355501"/>
      </g>
     </g>
     <g id="text_13">
      <!-- 175 -->
      <g transform="translate(31.5125 47.154719)scale(0.1 -0.1)">
       <use xlink:href="#DejaVuSans-49"/>
       <use x="63.623047" xlink:href="#DejaVuSans-55"/>
       <use x="127.246094" xlink:href="#DejaVuSans-53"/>
      </g>
     </g>
    </g>
   </g>
   <g id="line2d_14">
    <path clip-path="url(#p940a9bcd97)" d="M 307.339951 295.432566 
L 307.596418 278.376958 
L 308.184781 253.725499 
L 309.223144 234.675778 
L 309.196582 230.898754 
L 309.00085 227.145504 
L 308.596908 223.421517 
L 307.998479 219.712753 
L 306.827856 214.155913 
L 305.362606 208.627658 
L 303.639793 203.15163 
L 301.696482 197.751471 
L 299.56974 192.450823 
L 289.874303 170.01085 
L 287.923516 166.517458 
L 285.79804 163.408476 
L 284.660327 162.036174 
L 283.46758 160.805618 
L 282.216012 159.73202 
L 280.901837 158.830595 
L 279.521267 158.116558 
L 278.037945 157.655886 
L 276.428083 157.481866 
L 274.706743 157.56067 
L 272.888992 157.858473 
L 270.989893 158.341449 
L 267.00791 159.727615 
L 260.801446 162.350008 
L 256.683895 164.06573 
L 252.72302 165.439709 
L 250.838998 165.913981 
L 249.039339 166.201338 
L 247.339108 166.267956 
L 245.753368 166.080008 
L 244.297185 165.603668 
L 242.974038 164.853158 
L 241.768779 163.879632 
L 240.668532 162.704657 
L 239.66042 161.349801 
L 238.731566 159.836634 
L 237.060125 156.421635 
L 235.551195 152.632206 
L 231.813821 142.652837 
L 230.06244 138.911705 
L 229.080293 137.181115 
L 228.010005 135.5726 
L 226.838701 134.107729 
L 225.551894 132.768339 
L 224.153582 131.51474 
L 221.081811 129.222032 
L 217.742136 127.143839 
L 212.490069 124.241144 
L 207.30318 121.338659 
L 204.079378 119.260839 
L 201.181415 116.968692 
L 199.891733 115.715443 
L 198.72804 114.376449 
L 197.705182 112.940989 
L 196.84879 111.394125 
L 196.161208 109.736946 
L 195.622346 107.982768 
L 195.212116 106.144911 
L 194.697196 102.271428 
L 194.455734 98.223039 
L 194.15034 90.027716 
L 193.764983 86.093869 
L 193.443828 84.214511 
L 193.010238 82.411287 
L 192.444121 80.697516 
L 191.725391 79.086516 
L 190.833958 77.591603 
L 189.78564 76.203047 
L 188.61655 74.897496 
L 187.33704 73.667834 
L 184.488168 71.407721 
L 181.321838 69.36579 
L 177.920865 67.485124 
L 172.560609 64.841992 
L 165.365293 61.351018 
L 161.933265 59.491696 
L 160.29489 58.508675 
L 160.29489 58.508675 
" style="fill:none;stroke:#fea952;stroke-linecap:square;"/>
   </g>
   <g id="line2d_15">
    <path clip-path="url(#p940a9bcd97)" d="M 301.578456 295.377133 
L 301.835767 278.263869 
L 302.432792 253.390048 
L 303.461407 234.65925 
L 303.372612 229.391584 
L 303.109393 225.988677 
L 302.638094 222.542036 
L 301.636954 217.295398 
L 300.336399 212.031043 
L 298.769429 206.777038 
L 296.970243 201.56121 
L 294.973923 196.410963 
L 287.270986 178.03862 
L 285.632344 174.424671 
L 283.941992 171.126944 
L 282.21945 168.288896 
L 280.523082 166.046299 
L 278.956894 164.483445 
L 277.418726 163.384277 
L 276.691584 163.237599 
L 275.638277 163.24663 
L 274.309108 163.442483 
L 272.759599 163.824699 
L 269.18009 165.064236 
L 263.062827 167.649447 
L 258.692326 169.46611 
L 256.438235 170.298116 
L 254.129566 171.027153 
L 251.747489 171.603668 
L 249.264921 171.958682 
L 246.660948 171.989668 
L 243.962013 171.556224 
L 241.454483 170.615348 
L 239.353601 169.335382 
L 237.563053 167.817875 
L 236.046007 166.144156 
L 234.750002 164.364049 
L 233.625371 162.50584 
L 231.735377 158.62276 
L 230.140973 154.613971 
L 226.544154 144.982751 
L 225.051419 141.755568 
L 223.509938 139.170834 
L 222.683776 138.099533 
L 221.705763 137.058463 
L 219.33361 135.041772 
L 216.473421 133.102022 
L 213.235798 131.208883 
L 204.272567 126.238994 
L 200.639988 123.883446 
L 198.873506 122.556355 
L 197.166019 121.100821 
L 195.54283 119.494985 
L 194.035686 117.720055 
L 192.664384 115.731732 
L 191.52693 113.602225 
L 190.653457 111.428859 
L 189.998969 109.237968 
L 189.521041 107.044663 
L 188.950356 102.685834 
L 188.697157 98.41459 
L 188.271602 88.710174 
L 187.841741 85.561551 
L 187.182272 83.045033 
L 186.776687 82.037485 
L 186.235542 81.063269 
L 185.493314 80.046722 
L 183.627297 78.076429 
L 181.266025 76.184298 
L 178.465387 74.369647 
L 175.306106 72.619414 
L 170.087896 70.046181 
L 162.683437 66.450581 
L 158.968873 64.432372 
L 157.330498 63.449351 
L 157.330498 63.449351 
" style="fill:none;stroke:#ffffff;stroke-linecap:square;"/>
   </g>
   <g id="line2d_16">
    <path clip-path="url(#p940a9bcd97)" d="M 313.101446 295.488 
L 313.394227 276.597283 
L 313.936769 254.06095 
L 314.984882 234.692307 
L 314.953851 230.671273 
L 314.737864 226.612063 
L 314.294034 222.560901 
L 313.657331 218.628646 
L 312.42061 212.770633 
L 310.883202 206.97814 
L 309.085801 201.270436 
L 307.068011 195.667107 
L 304.868645 190.188193 
L 298.674365 175.407152 
L 295.954969 169.302659 
L 293.895711 165.320476 
L 291.549565 161.525722 
L 290.233667 159.731098 
L 288.797571 158.02605 
L 287.218947 156.432388 
L 285.47513 154.980594 
L 283.548775 153.71282 
L 281.230166 152.614053 
L 278.657165 151.927495 
L 276.164581 151.726133 
L 273.77521 151.87471 
L 271.468875 152.274463 
L 269.220186 152.858198 
L 264.835731 154.390993 
L 258.540064 157.05057 
L 254.675464 158.66535 
L 251.316475 159.852266 
L 248.813758 160.443994 
L 247.139887 160.591987 
L 246.594475 160.370935 
L 245.974506 159.941389 
L 245.291058 159.265158 
L 244.570839 158.335554 
L 243.837762 157.167427 
L 242.384873 154.220509 
L 240.961417 150.65044 
L 237.083489 140.322923 
L 235.073462 136.067841 
L 233.877196 133.98931 
L 232.510073 131.974366 
L 230.993626 130.115925 
L 229.398026 128.478214 
L 227.720624 126.989908 
L 225.983601 125.63065 
L 222.402658 123.220942 
L 218.782091 121.107882 
L 210.333793 116.438324 
L 207.518768 114.638233 
L 205.196811 112.836563 
L 203.420395 111.032842 
L 202.745981 110.150245 
L 202.17065 109.186026 
L 201.668959 108.045032 
L 201.245723 106.727569 
L 200.638572 103.615181 
L 200.307637 99.989846 
L 199.715979 87.361913 
L 199.444416 85.123337 
L 199.045915 82.867471 
L 198.481228 80.604036 
L 197.705971 78.35 
L 196.674096 76.135547 
L 195.432374 74.119937 
L 194.077966 72.359373 
L 192.609004 70.743196 
L 191.046783 69.25924 
L 189.409002 67.893406 
L 185.963103 65.458371 
L 182.365915 63.329755 
L 178.696962 61.415157 
L 164.897657 54.551021 
L 163.259282 53.568 
L 163.259282 53.568 
" style="fill:none;stroke:#ffffff;stroke-linecap:square;"/>
   </g>
   <g id="patch_3">
    <path d="M 57.6 307.584 
L 57.6 41.472 
" style="fill:none;stroke:#000000;stroke-linecap:square;stroke-linejoin:miter;stroke-width:0.8;"/>
   </g>
   <g id="patch_4">
    <path d="M 414.72 307.584 
L 414.72 41.472 
" style="fill:none;stroke:#000000;stroke-linecap:square;stroke-linejoin:miter;stroke-width:0.8;"/>
   </g>
   <g id="patch_5">
    <path d="M 57.6 307.584 
L 414.72 307.584 
" style="fill:none;stroke:#000000;stroke-linecap:square;stroke-linejoin:miter;stroke-width:0.8;"/>
   </g>
   <g id="patch_6">
    <path d="M 57.6 41.472 
L 414.72 41.472 
" style="fill:none;stroke:#000000;stroke-linecap:square;stroke-linejoin:miter;stroke-width:0.8;"/>
   </g>
  </g>
 </g>
 <defs>
  <clipPath id="p940a9bcd97">
   <rect height="266.112" width="357.12" x="57.6" y="41.472"/>
  </clipPath>
 </defs>
</svg>
