<?xml version="1.0" encoding="utf-8" standalone="no"?>
<!DOCTYPE svg PUBLIC "-//W3C//DTD SVG 1.1//EN"
  "http://www.w3.org/Graphics/SVG/1.1/DTD/svg11.dtd">
<!-- Created with matplotlib (https://matplotlib.org/) -->
<svg height="345.6pt" version="1.1" viewBox="0 0 460.8 345.6" width="460.8pt" xmlns="http://www.w3.org/2000/svg" xmlns:xlink="http://www.w3.org/1999/xlink">
 <metadata>
  <rdf:RDF xmlns:cc="http://creativecommons.org/ns#" xmlns:dc="http://purl.org/dc/elements/1.1/" xmlns:rdf="http://www.w3.org/1999/02/22-rdf-syntax-ns#">
   <cc:Work>
    <dc:type rdf:resource="http://purl.org/dc/dcmitype/StillImage"/>
    <dc:date>2021-06-17T18:33:57.299776</dc:date>
    <dc:format>image/svg+xml</dc:format>
    <dc:creator>
     <cc:Agent>
      <dc:title>Matplotlib v3.3.3, https://matplotlib.org/</dc:title>
     </cc:Agent>
    </dc:creator>
   </cc:Work>
  </rdf:RDF>
 </metadata>
 <defs>
  <style type="text/css">*{stroke-linecap:butt;stroke-linejoin:round;}</style>
 </defs>
 <g id="figure_1">
  <g id="patch_1">
   <path d="M 0 345.6 
L 460.8 345.6 
L 460.8 0 
L 0 0 
z
" style="fill:#ffffff;"/>
  </g>
  <g id="axes_1">
   <g id="patch_2">
    <path d="M 57.6 307.584 
L 414.72 307.584 
L 414.72 41.472 
L 57.6 41.472 
z
" style="fill:#7d9051;"/>
   </g>
   <g id="matplotlib.axis_1">
    <g id="xtick_1">
     <g id="line2d_1">
      <defs>
       <path d="M 0 0 
L 0 3.5 
" id="md14ab0e4f6" style="stroke:#000000;stroke-width:0.8;"/>
      </defs>
      <g>
       <use style="stroke:#000000;stroke-width:0.8;" x="89.615333" xlink:href="#md14ab0e4f6" y="307.584"/>
      </g>
     </g>
     <g id="text_1">
      <!-- −50 -->
      <g transform="translate(79.062989 322.182437)scale(0.1 -0.1)">
       <defs>
        <path d="M 10.59375 35.5 
L 73.1875 35.5 
L 73.1875 27.203125 
L 10.59375 27.203125 
z
" id="DejaVuSans-8722"/>
        <path d="M 10.796875 72.90625 
L 49.515625 72.90625 
L 49.515625 64.59375 
L 19.828125 64.59375 
L 19.828125 46.734375 
Q 21.96875 47.46875 24.109375 47.828125 
Q 26.265625 48.1875 28.421875 48.1875 
Q 40.625 48.1875 47.75 41.5 
Q 54.890625 34.8125 54.890625 23.390625 
Q 54.890625 11.625 47.5625 5.09375 
Q 40.234375 -1.421875 26.90625 -1.421875 
Q 22.3125 -1.421875 17.546875 -0.640625 
Q 12.796875 0.140625 7.71875 1.703125 
L 7.71875 11.625 
Q 12.109375 9.234375 16.796875 8.0625 
Q 21.484375 6.890625 26.703125 6.890625 
Q 35.15625 6.890625 40.078125 11.328125 
Q 45.015625 15.765625 45.015625 23.390625 
Q 45.015625 31 40.078125 35.4375 
Q 35.15625 39.890625 26.703125 39.890625 
Q 22.75 39.890625 18.8125 39.015625 
Q 14.890625 38.140625 10.796875 36.28125 
z
" id="DejaVuSans-53"/>
        <path d="M 31.78125 66.40625 
Q 24.171875 66.40625 20.328125 58.90625 
Q 16.5 51.421875 16.5 36.375 
Q 16.5 21.390625 20.328125 13.890625 
Q 24.171875 6.390625 31.78125 6.390625 
Q 39.453125 6.390625 43.28125 13.890625 
Q 47.125 21.390625 47.125 36.375 
Q 47.125 51.421875 43.28125 58.90625 
Q 39.453125 66.40625 31.78125 66.40625 
z
M 31.78125 74.21875 
Q 44.046875 74.21875 50.515625 64.515625 
Q 56.984375 54.828125 56.984375 36.375 
Q 56.984375 17.96875 50.515625 8.265625 
Q 44.046875 -1.421875 31.78125 -1.421875 
Q 19.53125 -1.421875 13.0625 8.265625 
Q 6.59375 17.96875 6.59375 36.375 
Q 6.59375 54.828125 13.0625 64.515625 
Q 19.53125 74.21875 31.78125 74.21875 
z
" id="DejaVuSans-48"/>
       </defs>
       <use xlink:href="#DejaVuSans-8722"/>
       <use x="83.789062" xlink:href="#DejaVuSans-53"/>
       <use x="147.412109" xlink:href="#DejaVuSans-48"/>
      </g>
     </g>
    </g>
    <g id="xtick_2">
     <g id="line2d_2">
      <g>
       <use style="stroke:#000000;stroke-width:0.8;" x="161.863539" xlink:href="#md14ab0e4f6" y="307.584"/>
      </g>
     </g>
     <g id="text_2">
      <!-- 0 -->
      <g transform="translate(158.682289 322.182437)scale(0.1 -0.1)">
       <use xlink:href="#DejaVuSans-48"/>
      </g>
     </g>
    </g>
    <g id="xtick_3">
     <g id="line2d_3">
      <g>
       <use style="stroke:#000000;stroke-width:0.8;" x="234.111745" xlink:href="#md14ab0e4f6" y="307.584"/>
      </g>
     </g>
     <g id="text_3">
      <!-- 50 -->
      <g transform="translate(227.749245 322.182437)scale(0.1 -0.1)">
       <use xlink:href="#DejaVuSans-53"/>
       <use x="63.623047" xlink:href="#DejaVuSans-48"/>
      </g>
     </g>
    </g>
    <g id="xtick_4">
     <g id="line2d_4">
      <g>
       <use style="stroke:#000000;stroke-width:0.8;" x="306.359951" xlink:href="#md14ab0e4f6" y="307.584"/>
      </g>
     </g>
     <g id="text_4">
      <!-- 100 -->
      <g transform="translate(296.816201 322.182437)scale(0.1 -0.1)">
       <defs>
        <path d="M 12.40625 8.296875 
L 28.515625 8.296875 
L 28.515625 63.921875 
L 10.984375 60.40625 
L 10.984375 69.390625 
L 28.421875 72.90625 
L 38.28125 72.90625 
L 38.28125 8.296875 
L 54.390625 8.296875 
L 54.390625 0 
L 12.40625 0 
z
" id="DejaVuSans-49"/>
       </defs>
       <use xlink:href="#DejaVuSans-49"/>
       <use x="63.623047" xlink:href="#DejaVuSans-48"/>
       <use x="127.246094" xlink:href="#DejaVuSans-48"/>
      </g>
     </g>
    </g>
    <g id="xtick_5">
     <g id="line2d_5">
      <g>
       <use style="stroke:#000000;stroke-width:0.8;" x="378.608157" xlink:href="#md14ab0e4f6" y="307.584"/>
      </g>
     </g>
     <g id="text_5">
      <!-- 150 -->
      <g transform="translate(369.064407 322.182437)scale(0.1 -0.1)">
       <use xlink:href="#DejaVuSans-49"/>
       <use x="63.623047" xlink:href="#DejaVuSans-53"/>
       <use x="127.246094" xlink:href="#DejaVuSans-48"/>
      </g>
     </g>
    </g>
   </g>
   <g id="matplotlib.axis_2">
    <g id="ytick_1">
     <g id="line2d_6">
      <defs>
       <path d="M 0 0 
L -3.5 0 
" id="m28be8e72f6" style="stroke:#000000;stroke-width:0.8;"/>
      </defs>
      <g>
       <use style="stroke:#000000;stroke-width:0.8;" x="57.6" xlink:href="#m28be8e72f6" y="295.432392"/>
      </g>
     </g>
     <g id="text_6">
      <!-- 0 -->
      <g transform="translate(44.2375 299.231611)scale(0.1 -0.1)">
       <use xlink:href="#DejaVuSans-48"/>
      </g>
     </g>
    </g>
    <g id="ytick_2">
     <g id="line2d_7">
      <g>
       <use style="stroke:#000000;stroke-width:0.8;" x="57.6" xlink:href="#m28be8e72f6" y="259.308289"/>
      </g>
     </g>
     <g id="text_7">
      <!-- 25 -->
      <g transform="translate(37.875 263.107508)scale(0.1 -0.1)">
       <defs>
        <path d="M 19.1875 8.296875 
L 53.609375 8.296875 
L 53.609375 0 
L 7.328125 0 
L 7.328125 8.296875 
Q 12.9375 14.109375 22.625 23.890625 
Q 32.328125 33.6875 34.8125 36.53125 
Q 39.546875 41.84375 41.421875 45.53125 
Q 43.3125 49.21875 43.3125 52.78125 
Q 43.3125 58.59375 39.234375 62.25 
Q 35.15625 65.921875 28.609375 65.921875 
Q 23.96875 65.921875 18.8125 64.3125 
Q 13.671875 62.703125 7.8125 59.421875 
L 7.8125 69.390625 
Q 13.765625 71.78125 18.9375 73 
Q 24.125 74.21875 28.421875 74.21875 
Q 39.75 74.21875 46.484375 68.546875 
Q 53.21875 62.890625 53.21875 53.421875 
Q 53.21875 48.921875 51.53125 44.890625 
Q 49.859375 40.875 45.40625 35.40625 
Q 44.1875 33.984375 37.640625 27.21875 
Q 31.109375 20.453125 19.1875 8.296875 
z
" id="DejaVuSans-50"/>
       </defs>
       <use xlink:href="#DejaVuSans-50"/>
       <use x="63.623047" xlink:href="#DejaVuSans-53"/>
      </g>
     </g>
    </g>
    <g id="ytick_3">
     <g id="line2d_8">
      <g>
       <use style="stroke:#000000;stroke-width:0.8;" x="57.6" xlink:href="#m28be8e72f6" y="223.184186"/>
      </g>
     </g>
     <g id="text_8">
      <!-- 50 -->
      <g transform="translate(37.875 226.983405)scale(0.1 -0.1)">
       <use xlink:href="#DejaVuSans-53"/>
       <use x="63.623047" xlink:href="#DejaVuSans-48"/>
      </g>
     </g>
    </g>
    <g id="ytick_4">
     <g id="line2d_9">
      <g>
       <use style="stroke:#000000;stroke-width:0.8;" x="57.6" xlink:href="#m28be8e72f6" y="187.060083"/>
      </g>
     </g>
     <g id="text_9">
      <!-- 75 -->
      <g transform="translate(37.875 190.859302)scale(0.1 -0.1)">
       <defs>
        <path d="M 8.203125 72.90625 
L 55.078125 72.90625 
L 55.078125 68.703125 
L 28.609375 0 
L 18.3125 0 
L 43.21875 64.59375 
L 8.203125 64.59375 
z
" id="DejaVuSans-55"/>
       </defs>
       <use xlink:href="#DejaVuSans-55"/>
       <use x="63.623047" xlink:href="#DejaVuSans-53"/>
      </g>
     </g>
    </g>
    <g id="ytick_5">
     <g id="line2d_10">
      <g>
       <use style="stroke:#000000;stroke-width:0.8;" x="57.6" xlink:href="#m28be8e72f6" y="150.93598"/>
      </g>
     </g>
     <g id="text_10">
      <!-- 100 -->
      <g transform="translate(31.5125 154.735199)scale(0.1 -0.1)">
       <use xlink:href="#DejaVuSans-49"/>
       <use x="63.623047" xlink:href="#DejaVuSans-48"/>
       <use x="127.246094" xlink:href="#DejaVuSans-48"/>
      </g>
     </g>
    </g>
    <g id="ytick_6">
     <g id="line2d_11">
      <g>
       <use style="stroke:#000000;stroke-width:0.8;" x="57.6" xlink:href="#m28be8e72f6" y="114.811877"/>
      </g>
     </g>
     <g id="text_11">
      <!-- 125 -->
      <g transform="translate(31.5125 118.611096)scale(0.1 -0.1)">
       <use xlink:href="#DejaVuSans-49"/>
       <use x="63.623047" xlink:href="#DejaVuSans-50"/>
       <use x="127.246094" xlink:href="#DejaVuSans-53"/>
      </g>
     </g>
    </g>
    <g id="ytick_7">
     <g id="line2d_12">
      <g>
       <use style="stroke:#000000;stroke-width:0.8;" x="57.6" xlink:href="#m28be8e72f6" y="78.687774"/>
      </g>
     </g>
     <g id="text_12">
      <!-- 150 -->
      <g transform="translate(31.5125 82.486993)scale(0.1 -0.1)">
       <use xlink:href="#DejaVuSans-49"/>
       <use x="63.623047" xlink:href="#DejaVuSans-53"/>
       <use x="127.246094" xlink:href="#DejaVuSans-48"/>
      </g>
     </g>
    </g>
    <g id="ytick_8">
     <g id="line2d_13">
      <g>
       <use style="stroke:#000000;stroke-width:0.8;" x="57.6" xlink:href="#m28be8e72f6" y="42.563671"/>
      </g>
     </g>
     <g id="text_13">
      <!-- 175 -->
      <g transform="translate(31.5125 46.36289)scale(0.1 -0.1)">
       <use xlink:href="#DejaVuSans-49"/>
       <use x="63.623047" xlink:href="#DejaVuSans-55"/>
       <use x="127.246094" xlink:href="#DejaVuSans-53"/>
      </g>
     </g>
    </g>
   </g>
   <g id="line2d_14">
    <path clip-path="url(#p224db00ffb)" d="M 161.863539 295.432392 
L 162.120812 278.32322 
L 162.487803 255.495083 
L 162.193755 247.792638 
L 161.826195 238.164582 
L 161.843479 234.351293 
L 162.031473 230.577416 
L 162.441391 226.854774 
L 163.124444 223.19519 
L 164.544169 217.676779 
L 165.679804 213.949641 
L 166.973667 210.232307 
L 168.431677 206.566233 
L 170.059756 202.992871 
L 171.863822 199.553677 
L 173.849797 196.290103 
L 176.023599 193.243604 
L 178.39115 190.455634 
L 179.698379 189.19727 
L 181.142242 188.057513 
L 182.705601 187.022032 
L 186.122255 185.206577 
L 189.811235 183.636262 
L 201.141065 179.249733 
L 204.548284 177.513551 
L 206.105511 176.529597 
L 207.542299 175.449295 
L 208.841509 174.258313 
L 209.986002 172.942321 
L 210.949875 171.464099 
L 211.733291 169.811682 
L 212.358215 168.008621 
L 212.846611 166.078469 
L 213.501679 161.931107 
L 213.874213 157.558017 
L 214.474547 148.888343 
L 215.053781 144.968603 
L 215.490042 143.194942 
L 216.053351 141.576824 
L 216.765673 140.137803 
L 217.648972 138.90143 
L 218.725214 137.891258 
L 220.013357 137.147196 
L 221.502115 136.672369 
L 223.168086 136.435154 
L 224.987865 136.403931 
L 226.938049 136.547078 
L 231.13602 137.229996 
L 237.825932 138.771612 
L 242.274805 139.775265 
L 246.496393 140.464512 
L 248.463446 140.612179 
L 250.303468 140.58638 
L 251.993055 140.355493 
L 253.508804 139.887897 
L 254.827311 139.151971 
L 255.961165 138.171319 
L 256.947894 137.001778 
L 257.801505 135.660072 
L 258.536003 134.16293 
L 259.165396 132.527076 
L 260.164891 128.906143 
L 260.912043 124.931082 
L 263.157616 110.161515 
L 264.155864 106.248792 
L 268.075389 95.223709 
L 270.119281 89.595351 
L 271.598317 85.924711 
L 273.219537 82.389835 
L 275.024963 79.051135 
L 277.056623 75.969026 
L 279.35654 73.203922 
L 280.620228 71.959126 
L 281.972412 70.815906 
L 283.415365 69.770926 
L 286.542666 67.942568 
L 289.940309 66.40781 
L 293.546471 65.100406 
L 299.211453 63.420685 
L 310.69703 60.254458 
L 314.344983 59.013405 
L 314.344983 59.013405 
" style="fill:none;stroke:#fea952;stroke-linecap:square;"/>
   </g>
   <g id="line2d_15">
    <path clip-path="url(#p224db00ffb)" d="M 156.08395 295.376785 
L 156.342069 278.209776 
L 156.709746 255.639273 
L 156.420862 248.076271 
L 156.046409 238.193305 
L 156.067511 234.139318 
L 156.276522 230.041435 
L 156.739063 225.911267 
L 157.503414 221.849544 
L 158.99974 216.043975 
L 160.201828 212.106133 
L 161.578712 208.158374 
L 163.141323 204.238383 
L 164.902235 200.383903 
L 166.876142 196.633097 
L 169.080342 193.025284 
L 171.535024 189.602254 
L 172.863332 187.974262 
L 174.382743 186.291572 
L 176.117184 184.660554 
L 177.950591 183.238789 
L 179.85234 181.995538 
L 181.799619 180.900291 
L 185.760935 179.045105 
L 191.63869 176.772447 
L 197.041821 174.720985 
L 200.12904 173.336487 
L 202.63202 171.909901 
L 204.480248 170.465405 
L 205.144456 169.785397 
L 205.727246 168.988036 
L 206.272144 167.9189 
L 206.754955 166.590799 
L 207.161998 165.033522 
L 207.748849 161.372814 
L 208.105124 157.205379 
L 208.738034 148.181826 
L 209.028101 145.884625 
L 209.44121 143.5881 
L 210.031494 141.29468 
L 210.87338 139.012717 
L 212.062726 136.777886 
L 213.693401 134.687145 
L 215.834259 132.886349 
L 218.257083 131.640633 
L 220.68735 130.950228 
L 223.068932 130.656148 
L 225.410978 130.639582 
L 227.733653 130.822241 
L 232.359064 131.581023 
L 239.144959 133.144277 
L 243.330879 134.092709 
L 246.92907 134.700873 
L 249.520908 134.859745 
L 251.046359 134.780342 
L 251.543536 134.444217 
L 252.071319 133.899237 
L 252.612481 133.114336 
L 253.141641 132.087454 
L 253.638856 130.834712 
L 254.501664 127.750893 
L 255.197017 124.067817 
L 257.525825 108.861639 
L 258.053101 106.605064 
L 258.69219 104.363318 
L 263.305199 91.3753 
L 265.503674 85.535192 
L 267.169255 81.653397 
L 269.06594 77.846274 
L 271.264636 74.174333 
L 272.501604 72.411141 
L 273.84371 70.710802 
L 275.300459 69.086283 
L 276.888554 67.545358 
L 278.582294 66.134683 
L 280.349109 64.871455 
L 282.17391 63.741661 
L 285.950559 61.82336 
L 289.83697 60.265722 
L 293.774851 58.96706 
L 299.659151 57.314981 
L 308.9109 54.757506 
L 312.407381 53.568 
L 312.407381 53.568 
" style="fill:none;stroke:#ffffff;stroke-linecap:square;"/>
   </g>
   <g id="line2d_16">
    <path clip-path="url(#p224db00ffb)" d="M 167.643128 295.488 
L 167.899555 278.436664 
L 168.265861 255.350893 
L 167.966648 247.509006 
L 167.60598 238.13586 
L 167.681354 232.82215 
L 167.93913 229.43842 
L 168.404276 226.193576 
L 169.158926 222.81039 
L 170.605591 217.550499 
L 172.368622 212.306241 
L 173.722032 208.894083 
L 175.217277 205.60184 
L 176.851503 202.474257 
L 178.619251 199.554922 
L 180.512175 196.884955 
L 182.399557 194.619696 
L 183.279573 193.733986 
L 184.333893 192.876237 
L 185.558863 192.048526 
L 188.470119 190.48808 
L 191.87827 189.033864 
L 203.632076 184.465248 
L 205.646472 183.494484 
L 207.635678 182.399729 
L 209.579003 181.149293 
L 211.447961 179.709875 
L 213.202769 178.051221 
L 214.827548 176.099246 
L 216.172504 173.940162 
L 217.194437 171.704463 
L 217.961474 169.426442 
L 218.531224 167.123417 
L 218.949808 164.807102 
L 219.476585 160.184712 
L 220.417109 147.863883 
L 220.94859 145.095204 
L 221.769631 142.65376 
L 222.316881 142.39451 
L 223.26724 142.21416 
L 224.564751 142.16828 
L 226.142445 142.271915 
L 229.912975 142.87897 
L 236.506905 144.398948 
L 241.218732 145.457822 
L 243.625387 145.899179 
L 246.063716 146.22815 
L 248.544478 146.391467 
L 251.086028 146.313014 
L 253.69686 145.878516 
L 256.325753 144.934831 
L 258.608263 143.523601 
L 260.378794 141.898422 
L 261.824469 140.104318 
L 262.990528 138.205808 
L 263.930365 136.238405 
L 264.691936 134.219441 
L 265.314199 132.158096 
L 266.258746 127.937013 
L 266.951318 123.644744 
L 268.434813 113.315928 
L 269.183399 109.726511 
L 269.619537 108.134266 
L 272.224962 100.874114 
L 275.500702 91.704153 
L 277.6078 86.619656 
L 279.127255 83.5381 
L 280.755139 80.774129 
L 282.497135 78.375344 
L 284.351901 76.372895 
L 286.481621 74.670397 
L 289.040923 73.154617 
L 291.99672 71.809468 
L 295.290084 70.610992 
L 300.71287 69.002126 
L 312.48316 65.75141 
L 316.282585 64.458811 
L 316.282585 64.458811 
" style="fill:none;stroke:#ffffff;stroke-linecap:square;"/>
   </g>
   <g id="patch_3">
    <path d="M 57.6 307.584 
L 57.6 41.472 
" style="fill:none;stroke:#000000;stroke-linecap:square;stroke-linejoin:miter;stroke-width:0.8;"/>
   </g>
   <g id="patch_4">
    <path d="M 414.72 307.584 
L 414.72 41.472 
" style="fill:none;stroke:#000000;stroke-linecap:square;stroke-linejoin:miter;stroke-width:0.8;"/>
   </g>
   <g id="patch_5">
    <path d="M 57.6 307.584 
L 414.72 307.584 
" style="fill:none;stroke:#000000;stroke-linecap:square;stroke-linejoin:miter;stroke-width:0.8;"/>
   </g>
   <g id="patch_6">
    <path d="M 57.6 41.472 
L 414.72 41.472 
" style="fill:none;stroke:#000000;stroke-linecap:square;stroke-linejoin:miter;stroke-width:0.8;"/>
   </g>
  </g>
 </g>
 <defs>
  <clipPath id="p224db00ffb">
   <rect height="266.112" width="357.12" x="57.6" y="41.472"/>
  </clipPath>
 </defs>
</svg>
