<?xml version="1.0" encoding="utf-8" standalone="no"?>
<!DOCTYPE svg PUBLIC "-//W3C//DTD SVG 1.1//EN"
  "http://www.w3.org/Graphics/SVG/1.1/DTD/svg11.dtd">
<!-- Created with matplotlib (https://matplotlib.org/) -->
<svg height="345.6pt" version="1.1" viewBox="0 0 460.8 345.6" width="460.8pt" xmlns="http://www.w3.org/2000/svg" xmlns:xlink="http://www.w3.org/1999/xlink">
 <metadata>
  <rdf:RDF xmlns:cc="http://creativecommons.org/ns#" xmlns:dc="http://purl.org/dc/elements/1.1/" xmlns:rdf="http://www.w3.org/1999/02/22-rdf-syntax-ns#">
   <cc:Work>
    <dc:type rdf:resource="http://purl.org/dc/dcmitype/StillImage"/>
    <dc:date>2021-06-24T02:56:50.952898</dc:date>
    <dc:format>image/svg+xml</dc:format>
    <dc:creator>
     <cc:Agent>
      <dc:title>Matplotlib v3.3.3, https://matplotlib.org/</dc:title>
     </cc:Agent>
    </dc:creator>
   </cc:Work>
  </rdf:RDF>
 </metadata>
 <defs>
  <style type="text/css">*{stroke-linecap:butt;stroke-linejoin:round;}</style>
 </defs>
 <g id="figure_1">
  <g id="patch_1">
   <path d="M 0 345.6 
L 460.8 345.6 
L 460.8 0 
L 0 0 
z
" style="fill:#ffffff;"/>
  </g>
  <g id="axes_1">
   <g id="patch_2">
    <path d="M 57.6 307.584 
L 414.72 307.584 
L 414.72 41.472 
L 57.6 41.472 
z
" style="fill:#7d9051;"/>
   </g>
   <g id="matplotlib.axis_1">
    <g id="xtick_1">
     <g id="line2d_1">
      <defs>
       <path d="M 0 0 
L 0 3.5 
" id="m65b029f378" style="stroke:#000000;stroke-width:0.8;"/>
      </defs>
      <g>
       <use style="stroke:#000000;stroke-width:0.8;" x="90.7816" xlink:href="#m65b029f378" y="307.584"/>
      </g>
     </g>
     <g id="text_1">
      <!-- −60 -->
      <g transform="translate(80.229257 322.182437)scale(0.1 -0.1)">
       <defs>
        <path d="M 10.59375 35.5 
L 73.1875 35.5 
L 73.1875 27.203125 
L 10.59375 27.203125 
z
" id="DejaVuSans-8722"/>
        <path d="M 33.015625 40.375 
Q 26.375 40.375 22.484375 35.828125 
Q 18.609375 31.296875 18.609375 23.390625 
Q 18.609375 15.53125 22.484375 10.953125 
Q 26.375 6.390625 33.015625 6.390625 
Q 39.65625 6.390625 43.53125 10.953125 
Q 47.40625 15.53125 47.40625 23.390625 
Q 47.40625 31.296875 43.53125 35.828125 
Q 39.65625 40.375 33.015625 40.375 
z
M 52.59375 71.296875 
L 52.59375 62.3125 
Q 48.875 64.0625 45.09375 64.984375 
Q 41.3125 65.921875 37.59375 65.921875 
Q 27.828125 65.921875 22.671875 59.328125 
Q 17.53125 52.734375 16.796875 39.40625 
Q 19.671875 43.65625 24.015625 45.921875 
Q 28.375 48.1875 33.59375 48.1875 
Q 44.578125 48.1875 50.953125 41.515625 
Q 57.328125 34.859375 57.328125 23.390625 
Q 57.328125 12.15625 50.6875 5.359375 
Q 44.046875 -1.421875 33.015625 -1.421875 
Q 20.359375 -1.421875 13.671875 8.265625 
Q 6.984375 17.96875 6.984375 36.375 
Q 6.984375 53.65625 15.1875 63.9375 
Q 23.390625 74.21875 37.203125 74.21875 
Q 40.921875 74.21875 44.703125 73.484375 
Q 48.484375 72.75 52.59375 71.296875 
z
" id="DejaVuSans-54"/>
        <path d="M 31.78125 66.40625 
Q 24.171875 66.40625 20.328125 58.90625 
Q 16.5 51.421875 16.5 36.375 
Q 16.5 21.390625 20.328125 13.890625 
Q 24.171875 6.390625 31.78125 6.390625 
Q 39.453125 6.390625 43.28125 13.890625 
Q 47.125 21.390625 47.125 36.375 
Q 47.125 51.421875 43.28125 58.90625 
Q 39.453125 66.40625 31.78125 66.40625 
z
M 31.78125 74.21875 
Q 44.046875 74.21875 50.515625 64.515625 
Q 56.984375 54.828125 56.984375 36.375 
Q 56.984375 17.96875 50.515625 8.265625 
Q 44.046875 -1.421875 31.78125 -1.421875 
Q 19.53125 -1.421875 13.0625 8.265625 
Q 6.59375 17.96875 6.59375 36.375 
Q 6.59375 54.828125 13.0625 64.515625 
Q 19.53125 74.21875 31.78125 74.21875 
z
" id="DejaVuSans-48"/>
       </defs>
       <use xlink:href="#DejaVuSans-8722"/>
       <use x="83.789062" xlink:href="#DejaVuSans-54"/>
       <use x="147.412109" xlink:href="#DejaVuSans-48"/>
      </g>
     </g>
    </g>
    <g id="xtick_2">
     <g id="line2d_2">
      <g>
       <use style="stroke:#000000;stroke-width:0.8;" x="131.415192" xlink:href="#m65b029f378" y="307.584"/>
      </g>
     </g>
     <g id="text_2">
      <!-- −40 -->
      <g transform="translate(120.862849 322.182437)scale(0.1 -0.1)">
       <defs>
        <path d="M 37.796875 64.3125 
L 12.890625 25.390625 
L 37.796875 25.390625 
z
M 35.203125 72.90625 
L 47.609375 72.90625 
L 47.609375 25.390625 
L 58.015625 25.390625 
L 58.015625 17.1875 
L 47.609375 17.1875 
L 47.609375 0 
L 37.796875 0 
L 37.796875 17.1875 
L 4.890625 17.1875 
L 4.890625 26.703125 
z
" id="DejaVuSans-52"/>
       </defs>
       <use xlink:href="#DejaVuSans-8722"/>
       <use x="83.789062" xlink:href="#DejaVuSans-52"/>
       <use x="147.412109" xlink:href="#DejaVuSans-48"/>
      </g>
     </g>
    </g>
    <g id="xtick_3">
     <g id="line2d_3">
      <g>
       <use style="stroke:#000000;stroke-width:0.8;" x="172.048785" xlink:href="#m65b029f378" y="307.584"/>
      </g>
     </g>
     <g id="text_3">
      <!-- −20 -->
      <g transform="translate(161.496441 322.182437)scale(0.1 -0.1)">
       <defs>
        <path d="M 19.1875 8.296875 
L 53.609375 8.296875 
L 53.609375 0 
L 7.328125 0 
L 7.328125 8.296875 
Q 12.9375 14.109375 22.625 23.890625 
Q 32.328125 33.6875 34.8125 36.53125 
Q 39.546875 41.84375 41.421875 45.53125 
Q 43.3125 49.21875 43.3125 52.78125 
Q 43.3125 58.59375 39.234375 62.25 
Q 35.15625 65.921875 28.609375 65.921875 
Q 23.96875 65.921875 18.8125 64.3125 
Q 13.671875 62.703125 7.8125 59.421875 
L 7.8125 69.390625 
Q 13.765625 71.78125 18.9375 73 
Q 24.125 74.21875 28.421875 74.21875 
Q 39.75 74.21875 46.484375 68.546875 
Q 53.21875 62.890625 53.21875 53.421875 
Q 53.21875 48.921875 51.53125 44.890625 
Q 49.859375 40.875 45.40625 35.40625 
Q 44.1875 33.984375 37.640625 27.21875 
Q 31.109375 20.453125 19.1875 8.296875 
z
" id="DejaVuSans-50"/>
       </defs>
       <use xlink:href="#DejaVuSans-8722"/>
       <use x="83.789062" xlink:href="#DejaVuSans-50"/>
       <use x="147.412109" xlink:href="#DejaVuSans-48"/>
      </g>
     </g>
    </g>
    <g id="xtick_4">
     <g id="line2d_4">
      <g>
       <use style="stroke:#000000;stroke-width:0.8;" x="212.682377" xlink:href="#m65b029f378" y="307.584"/>
      </g>
     </g>
     <g id="text_4">
      <!-- 0 -->
      <g transform="translate(209.501127 322.182437)scale(0.1 -0.1)">
       <use xlink:href="#DejaVuSans-48"/>
      </g>
     </g>
    </g>
    <g id="xtick_5">
     <g id="line2d_5">
      <g>
       <use style="stroke:#000000;stroke-width:0.8;" x="253.315969" xlink:href="#m65b029f378" y="307.584"/>
      </g>
     </g>
     <g id="text_5">
      <!-- 20 -->
      <g transform="translate(246.953469 322.182437)scale(0.1 -0.1)">
       <use xlink:href="#DejaVuSans-50"/>
       <use x="63.623047" xlink:href="#DejaVuSans-48"/>
      </g>
     </g>
    </g>
    <g id="xtick_6">
     <g id="line2d_6">
      <g>
       <use style="stroke:#000000;stroke-width:0.8;" x="293.949561" xlink:href="#m65b029f378" y="307.584"/>
      </g>
     </g>
     <g id="text_6">
      <!-- 40 -->
      <g transform="translate(287.587061 322.182437)scale(0.1 -0.1)">
       <use xlink:href="#DejaVuSans-52"/>
       <use x="63.623047" xlink:href="#DejaVuSans-48"/>
      </g>
     </g>
    </g>
    <g id="xtick_7">
     <g id="line2d_7">
      <g>
       <use style="stroke:#000000;stroke-width:0.8;" x="334.583153" xlink:href="#m65b029f378" y="307.584"/>
      </g>
     </g>
     <g id="text_7">
      <!-- 60 -->
      <g transform="translate(328.220653 322.182437)scale(0.1 -0.1)">
       <use xlink:href="#DejaVuSans-54"/>
       <use x="63.623047" xlink:href="#DejaVuSans-48"/>
      </g>
     </g>
    </g>
    <g id="xtick_8">
     <g id="line2d_8">
      <g>
       <use style="stroke:#000000;stroke-width:0.8;" x="375.216745" xlink:href="#m65b029f378" y="307.584"/>
      </g>
     </g>
     <g id="text_8">
      <!-- 80 -->
      <g transform="translate(368.854245 322.182437)scale(0.1 -0.1)">
       <defs>
        <path d="M 31.78125 34.625 
Q 24.75 34.625 20.71875 30.859375 
Q 16.703125 27.09375 16.703125 20.515625 
Q 16.703125 13.921875 20.71875 10.15625 
Q 24.75 6.390625 31.78125 6.390625 
Q 38.8125 6.390625 42.859375 10.171875 
Q 46.921875 13.96875 46.921875 20.515625 
Q 46.921875 27.09375 42.890625 30.859375 
Q 38.875 34.625 31.78125 34.625 
z
M 21.921875 38.8125 
Q 15.578125 40.375 12.03125 44.71875 
Q 8.5 49.078125 8.5 55.328125 
Q 8.5 64.0625 14.71875 69.140625 
Q 20.953125 74.21875 31.78125 74.21875 
Q 42.671875 74.21875 48.875 69.140625 
Q 55.078125 64.0625 55.078125 55.328125 
Q 55.078125 49.078125 51.53125 44.71875 
Q 48 40.375 41.703125 38.8125 
Q 48.828125 37.15625 52.796875 32.3125 
Q 56.78125 27.484375 56.78125 20.515625 
Q 56.78125 9.90625 50.3125 4.234375 
Q 43.84375 -1.421875 31.78125 -1.421875 
Q 19.734375 -1.421875 13.25 4.234375 
Q 6.78125 9.90625 6.78125 20.515625 
Q 6.78125 27.484375 10.78125 32.3125 
Q 14.796875 37.15625 21.921875 38.8125 
z
M 18.3125 54.390625 
Q 18.3125 48.734375 21.84375 45.5625 
Q 25.390625 42.390625 31.78125 42.390625 
Q 38.140625 42.390625 41.71875 45.5625 
Q 45.3125 48.734375 45.3125 54.390625 
Q 45.3125 60.0625 41.71875 63.234375 
Q 38.140625 66.40625 31.78125 66.40625 
Q 25.390625 66.40625 21.84375 63.234375 
Q 18.3125 60.0625 18.3125 54.390625 
z
" id="DejaVuSans-56"/>
       </defs>
       <use xlink:href="#DejaVuSans-56"/>
       <use x="63.623047" xlink:href="#DejaVuSans-48"/>
      </g>
     </g>
    </g>
   </g>
   <g id="matplotlib.axis_2">
    <g id="ytick_1">
     <g id="line2d_9">
      <defs>
       <path d="M 0 0 
L -3.5 0 
" id="m4d1663bf68" style="stroke:#000000;stroke-width:0.8;"/>
      </defs>
      <g>
       <use style="stroke:#000000;stroke-width:0.8;" x="57.6" xlink:href="#m4d1663bf68" y="295.409813"/>
      </g>
     </g>
     <g id="text_9">
      <!-- 0 -->
      <g transform="translate(44.2375 299.209032)scale(0.1 -0.1)">
       <use xlink:href="#DejaVuSans-48"/>
      </g>
     </g>
    </g>
    <g id="ytick_2">
     <g id="line2d_10">
      <g>
       <use style="stroke:#000000;stroke-width:0.8;" x="57.6" xlink:href="#m4d1663bf68" y="254.776221"/>
      </g>
     </g>
     <g id="text_10">
      <!-- 20 -->
      <g transform="translate(37.875 258.57544)scale(0.1 -0.1)">
       <use xlink:href="#DejaVuSans-50"/>
       <use x="63.623047" xlink:href="#DejaVuSans-48"/>
      </g>
     </g>
    </g>
    <g id="ytick_3">
     <g id="line2d_11">
      <g>
       <use style="stroke:#000000;stroke-width:0.8;" x="57.6" xlink:href="#m4d1663bf68" y="214.142629"/>
      </g>
     </g>
     <g id="text_11">
      <!-- 40 -->
      <g transform="translate(37.875 217.941848)scale(0.1 -0.1)">
       <use xlink:href="#DejaVuSans-52"/>
       <use x="63.623047" xlink:href="#DejaVuSans-48"/>
      </g>
     </g>
    </g>
    <g id="ytick_4">
     <g id="line2d_12">
      <g>
       <use style="stroke:#000000;stroke-width:0.8;" x="57.6" xlink:href="#m4d1663bf68" y="173.509037"/>
      </g>
     </g>
     <g id="text_12">
      <!-- 60 -->
      <g transform="translate(37.875 177.308256)scale(0.1 -0.1)">
       <use xlink:href="#DejaVuSans-54"/>
       <use x="63.623047" xlink:href="#DejaVuSans-48"/>
      </g>
     </g>
    </g>
    <g id="ytick_5">
     <g id="line2d_13">
      <g>
       <use style="stroke:#000000;stroke-width:0.8;" x="57.6" xlink:href="#m4d1663bf68" y="132.875445"/>
      </g>
     </g>
     <g id="text_13">
      <!-- 80 -->
      <g transform="translate(37.875 136.674664)scale(0.1 -0.1)">
       <use xlink:href="#DejaVuSans-56"/>
       <use x="63.623047" xlink:href="#DejaVuSans-48"/>
      </g>
     </g>
    </g>
    <g id="ytick_6">
     <g id="line2d_14">
      <g>
       <use style="stroke:#000000;stroke-width:0.8;" x="57.6" xlink:href="#m4d1663bf68" y="92.241853"/>
      </g>
     </g>
     <g id="text_14">
      <!-- 100 -->
      <g transform="translate(31.5125 96.041072)scale(0.1 -0.1)">
       <defs>
        <path d="M 12.40625 8.296875 
L 28.515625 8.296875 
L 28.515625 63.921875 
L 10.984375 60.40625 
L 10.984375 69.390625 
L 28.421875 72.90625 
L 38.28125 72.90625 
L 38.28125 8.296875 
L 54.390625 8.296875 
L 54.390625 0 
L 12.40625 0 
z
" id="DejaVuSans-49"/>
       </defs>
       <use xlink:href="#DejaVuSans-49"/>
       <use x="63.623047" xlink:href="#DejaVuSans-48"/>
       <use x="127.246094" xlink:href="#DejaVuSans-48"/>
      </g>
     </g>
    </g>
    <g id="ytick_7">
     <g id="line2d_15">
      <g>
       <use style="stroke:#000000;stroke-width:0.8;" x="57.6" xlink:href="#m4d1663bf68" y="51.608261"/>
      </g>
     </g>
     <g id="text_15">
      <!-- 120 -->
      <g transform="translate(31.5125 55.407479)scale(0.1 -0.1)">
       <use xlink:href="#DejaVuSans-49"/>
       <use x="63.623047" xlink:href="#DejaVuSans-50"/>
       <use x="127.246094" xlink:href="#DejaVuSans-48"/>
      </g>
     </g>
    </g>
   </g>
   <g id="line2d_16">
    <path clip-path="url(#p05ef574d1e)" d="M 212.682377 295.409813 
L 212.993064 274.026424 
L 213.664579 241.932364 
L 214.10162 236.444274 
L 215.125467 228.059592 
L 216.198419 219.65457 
L 216.722758 214.13032 
L 216.941557 208.73263 
L 216.895459 206.098194 
L 216.723871 203.515738 
L 216.410426 200.992041 
L 215.938754 198.533883 
L 215.292489 196.148044 
L 214.455262 193.841305 
L 213.421444 191.611997 
L 212.20606 189.450788 
L 210.823716 187.35296 
L 209.289017 185.313796 
L 207.616571 183.328579 
L 203.916864 179.501116 
L 199.841447 175.832832 
L 195.507173 172.285987 
L 186.529465 165.40566 
L 179.985776 160.28351 
L 175.802704 156.860554 
L 173.531148 155.226981 
L 168.629342 152.113846 
L 163.429959 149.14227 
L 153.00572 143.317599 
L 148.214492 140.311404 
L 146.018958 138.751352 
L 143.992945 137.140572 
L 142.163556 135.469494 
L 140.557893 133.728551 
L 139.203057 131.908173 
L 138.12615 129.998793 
L 137.354275 127.990841 
L 136.856401 125.823825 
L 136.576277 123.462035 
L 136.503165 120.933078 
L 136.626329 118.264561 
L 136.935033 115.484089 
L 137.41854 112.619271 
L 138.066114 109.697711 
L 138.867018 106.747017 
L 139.810516 103.794796 
L 140.885872 100.868653 
L 142.082349 97.996195 
L 143.389211 95.205029 
L 144.795721 92.522761 
L 146.291143 89.976998 
L 147.86474 87.595346 
L 149.505777 85.405412 
L 151.203517 83.434803 
L 152.947223 81.711124 
L 154.726158 80.261983 
L 156.612777 79.102637 
L 158.676157 78.212235 
L 160.900497 77.56422 
L 163.269996 77.132032 
L 165.768854 76.889116 
L 168.381271 76.808913 
L 173.883575 77.030414 
L 179.650506 77.584073 
L 191.472625 78.838021 
L 197.275004 79.113384 
L 200.093721 79.070212 
L 202.836389 78.871059 
L 205.487207 78.489368 
L 208.091415 77.903198 
L 210.702925 77.126959 
L 213.318946 76.18862 
L 218.553363 73.937526 
L 223.772342 71.373673 
L 234.074699 66.202727 
L 239.113431 64.043151 
L 241.59492 63.167731 
L 244.047437 62.465851 
L 246.468192 61.965479 
L 248.854393 61.694585 
L 251.203252 61.68114 
L 253.511978 61.953113 
L 255.760175 62.561894 
L 257.935291 63.514302 
L 260.046291 64.771454 
L 262.102146 66.294466 
L 264.111822 68.044453 
L 266.08429 69.982531 
L 269.953469 74.267424 
L 279.603037 85.549366 
L 281.600689 87.592346 
L 283.641846 89.47346 
L 285.735478 91.153824 
L 287.890552 92.594554 
L 290.116036 93.756766 
L 292.420899 94.601575 
L 294.799007 95.166444 
L 297.23496 95.526593 
L 299.723826 95.699779 
L 302.260676 95.703759 
L 304.840579 95.556286 
L 307.458603 95.275119 
L 312.789295 94.382724 
L 318.213308 93.168621 
L 337.362763 88.436636 
L 342.718585 87.532696 
L 342.718585 87.532696 
" style="fill:none;stroke:#fea952;stroke-linecap:square;"/>
   </g>
   <g id="line2d_17">
    <path clip-path="url(#p05ef574d1e)" d="M 204.556034 295.331627 
L 204.867828 273.871237 
L 205.556077 241.388531 
L 206.024451 235.548238 
L 207.069871 226.98678 
L 208.116389 218.803482 
L 208.609353 213.665328 
L 208.816082 208.874812 
L 208.659117 204.517387 
L 208.429303 202.523458 
L 208.094715 200.658641 
L 207.653366 198.920652 
L 207.082716 197.260242 
L 206.337981 195.595475 
L 205.420123 193.92232 
L 204.33049 192.239838 
L 203.073855 190.549759 
L 201.658118 188.854915 
L 198.392879 185.461748 
L 194.63683 182.074267 
L 190.505272 178.691027 
L 181.5879 171.857364 
L 174.778535 166.522756 
L 171.05795 163.458346 
L 169.064574 162.016183 
L 164.542654 159.13827 
L 159.507994 156.259976 
L 148.792655 150.266961 
L 143.507304 146.93605 
L 140.961462 145.112585 
L 138.511978 143.140784 
L 136.189688 140.979163 
L 134.038604 138.580604 
L 132.124576 135.900497 
L 130.54059 132.914754 
L 129.433908 129.81055 
L 128.786248 126.781 
L 128.452953 123.696879 
L 128.385089 120.558392 
L 128.54924 117.367796 
L 128.921643 114.131637 
L 129.484388 110.860639 
L 130.223171 107.568908 
L 131.126013 104.273076 
L 132.182588 100.991537 
L 133.383933 97.743838 
L 134.722422 94.550178 
L 136.191976 91.43099 
L 137.788517 88.406617 
L 139.510743 85.497073 
L 141.361351 82.722002 
L 143.348879 80.101059 
L 145.490345 77.65525 
L 147.814565 75.41038 
L 150.471361 73.338093 
L 153.392892 71.641009 
L 156.403101 70.409878 
L 159.442274 69.5694 
L 162.483697 69.043443 
L 165.519474 68.766225 
L 168.549012 68.683926 
L 171.572444 68.752393 
L 177.589577 69.196618 
L 194.639393 70.904061 
L 199.505166 70.964833 
L 201.678169 70.827298 
L 203.702646 70.561008 
L 205.775969 70.113316 
L 207.959127 69.477441 
L 210.238034 68.668545 
L 215.030608 66.614019 
L 220.069208 64.139701 
L 230.740731 58.79137 
L 233.541262 57.537361 
L 236.409795 56.379346 
L 239.358918 55.354675 
L 242.402412 54.507368 
L 245.551494 53.890628 
L 248.807876 53.568 
L 252.154024 53.61023 
L 255.636082 54.108897 
L 259.019802 55.117541 
L 262.093451 56.531949 
L 264.883858 58.241409 
L 267.438964 60.165688 
L 269.807526 62.247685 
L 272.030919 64.443474 
L 276.164461 69.026515 
L 285.413593 79.86773 
L 288.728637 83.135628 
L 290.252078 84.397799 
L 291.652467 85.390975 
L 292.9128 86.126454 
L 294.298974 86.694845 
L 295.987602 87.127116 
L 297.799089 87.419478 
L 299.736573 87.573071 
L 301.796895 87.590285 
L 303.972786 87.476033 
L 308.632655 86.886672 
L 313.63599 85.895093 
L 321.630989 83.913619 
L 330.062412 81.747164 
L 335.876597 80.446963 
L 341.502259 79.497517 
L 341.502259 79.497517 
" style="fill:none;stroke:#ffffff;stroke-linecap:square;"/>
   </g>
   <g id="line2d_18">
    <path clip-path="url(#p05ef574d1e)" d="M 220.808719 295.488 
L 221.118301 274.18161 
L 221.77308 242.476197 
L 222.17879 237.340311 
L 223.181063 229.132404 
L 224.280448 220.505657 
L 224.836162 214.595313 
L 225.067031 208.590448 
L 225.004297 205.559414 
L 224.788624 202.514088 
L 224.391548 199.460623 
L 223.782794 196.409125 
L 222.931612 193.375436 
L 221.827807 190.422368 
L 220.504908 187.628519 
L 218.991998 184.979255 
L 217.316941 182.466082 
L 215.50418 180.077833 
L 213.575024 177.802243 
L 211.548266 175.627022 
L 207.268473 171.53186 
L 202.788146 167.710355 
L 195.945094 162.35027 
L 187.207354 155.659532 
L 180.547459 150.262762 
L 177.997721 148.437778 
L 172.71603 145.089422 
L 167.351925 142.024564 
L 157.218785 136.368237 
L 152.92168 133.686759 
L 149.473913 131.140359 
L 147.077183 128.876498 
L 145.711711 127.082832 
L 145.274642 126.171132 
L 144.926554 124.86665 
L 144.699602 123.22719 
L 144.621241 121.307764 
L 144.703418 119.161325 
L 144.948423 116.836542 
L 145.352692 114.377903 
L 145.909057 111.826514 
L 146.608023 109.220959 
L 147.438445 106.598055 
L 148.387811 103.993467 
L 149.442275 101.442212 
L 150.586445 98.979067 
L 151.802925 96.638905 
L 153.071543 94.456923 
L 154.36813 92.46869 
L 155.662675 90.709765 
L 156.916688 89.214355 
L 158.980956 87.185872 
L 159.832663 86.564265 
L 160.949213 86.014592 
L 162.35872 85.559039 
L 164.056296 85.220622 
L 166.018234 85.012007 
L 168.21353 84.9339 
L 173.179442 85.12657 
L 178.731456 85.658657 
L 190.948008 86.947788 
L 194.152683 87.150209 
L 197.399462 87.23915 
L 200.682275 87.17559 
L 203.994608 86.914819 
L 207.271768 86.417728 
L 210.406861 85.69308 
L 213.446723 84.776477 
L 216.399859 83.708696 
L 222.076117 81.261033 
L 227.475476 78.607646 
L 237.408667 73.614084 
L 241.817068 71.706955 
L 245.692462 70.424333 
L 247.384889 70.04033 
L 248.900911 69.821171 
L 251.387873 69.79733 
L 252.500548 70.006246 
L 253.77713 70.496655 
L 255.208724 71.3015 
L 256.765327 72.423244 
L 258.416119 73.84122 
L 260.13766 75.521588 
L 263.742477 79.508333 
L 271.618423 88.840978 
L 273.792481 91.231003 
L 276.093291 93.568308 
L 278.555056 95.811292 
L 281.218877 97.909849 
L 284.128636 99.798133 
L 287.319272 101.387078 
L 290.542825 102.508306 
L 293.610413 103.205772 
L 296.670832 103.633708 
L 299.71108 103.826488 
L 302.724458 103.817232 
L 305.708371 103.63654 
L 308.662415 103.312183 
L 314.482358 102.331126 
L 320.18333 101.052945 
L 338.848928 96.426308 
L 343.934911 95.567876 
L 343.934911 95.567876 
" style="fill:none;stroke:#ffffff;stroke-linecap:square;"/>
   </g>
   <g id="patch_3">
    <path d="M 57.6 307.584 
L 57.6 41.472 
" style="fill:none;stroke:#000000;stroke-linecap:square;stroke-linejoin:miter;stroke-width:0.8;"/>
   </g>
   <g id="patch_4">
    <path d="M 414.72 307.584 
L 414.72 41.472 
" style="fill:none;stroke:#000000;stroke-linecap:square;stroke-linejoin:miter;stroke-width:0.8;"/>
   </g>
   <g id="patch_5">
    <path d="M 57.6 307.584 
L 414.72 307.584 
" style="fill:none;stroke:#000000;stroke-linecap:square;stroke-linejoin:miter;stroke-width:0.8;"/>
   </g>
   <g id="patch_6">
    <path d="M 57.6 41.472 
L 414.72 41.472 
" style="fill:none;stroke:#000000;stroke-linecap:square;stroke-linejoin:miter;stroke-width:0.8;"/>
   </g>
  </g>
 </g>
 <defs>
  <clipPath id="p05ef574d1e">
   <rect height="266.112" width="357.12" x="57.6" y="41.472"/>
  </clipPath>
 </defs>
</svg>
