<?xml version="1.0" encoding="utf-8" standalone="no"?>
<!DOCTYPE svg PUBLIC "-//W3C//DTD SVG 1.1//EN"
  "http://www.w3.org/Graphics/SVG/1.1/DTD/svg11.dtd">
<!-- Created with matplotlib (https://matplotlib.org/) -->
<svg height="345.6pt" version="1.1" viewBox="0 0 460.8 345.6" width="460.8pt" xmlns="http://www.w3.org/2000/svg" xmlns:xlink="http://www.w3.org/1999/xlink">
 <metadata>
  <rdf:RDF xmlns:cc="http://creativecommons.org/ns#" xmlns:dc="http://purl.org/dc/elements/1.1/" xmlns:rdf="http://www.w3.org/1999/02/22-rdf-syntax-ns#">
   <cc:Work>
    <dc:type rdf:resource="http://purl.org/dc/dcmitype/StillImage"/>
    <dc:date>2021-06-17T15:20:39.566493</dc:date>
    <dc:format>image/svg+xml</dc:format>
    <dc:creator>
     <cc:Agent>
      <dc:title>Matplotlib v3.3.3, https://matplotlib.org/</dc:title>
     </cc:Agent>
    </dc:creator>
   </cc:Work>
  </rdf:RDF>
 </metadata>
 <defs>
  <style type="text/css">*{stroke-linecap:butt;stroke-linejoin:round;}</style>
 </defs>
 <g id="figure_1">
  <g id="patch_1">
   <path d="M 0 345.6 
L 460.8 345.6 
L 460.8 0 
L 0 0 
z
" style="fill:#ffffff;"/>
  </g>
  <g id="axes_1">
   <g id="patch_2">
    <path d="M 57.6 307.584 
L 414.72 307.584 
L 414.72 41.472 
L 57.6 41.472 
z
" style="fill:#7d9051;"/>
   </g>
   <g id="matplotlib.axis_1">
    <g id="xtick_1">
     <g id="line2d_1">
      <defs>
       <path d="M 0 0 
L 0 3.5 
" id="mea88aae195" style="stroke:#000000;stroke-width:0.8;"/>
      </defs>
      <g>
       <use style="stroke:#000000;stroke-width:0.8;" x="83.810756" xlink:href="#mea88aae195" y="307.584"/>
      </g>
     </g>
     <g id="text_1">
      <!-- 0 -->
      <g transform="translate(80.629506 322.182437)scale(0.1 -0.1)">
       <defs>
        <path d="M 31.78125 66.40625 
Q 24.171875 66.40625 20.328125 58.90625 
Q 16.5 51.421875 16.5 36.375 
Q 16.5 21.390625 20.328125 13.890625 
Q 24.171875 6.390625 31.78125 6.390625 
Q 39.453125 6.390625 43.28125 13.890625 
Q 47.125 21.390625 47.125 36.375 
Q 47.125 51.421875 43.28125 58.90625 
Q 39.453125 66.40625 31.78125 66.40625 
z
M 31.78125 74.21875 
Q 44.046875 74.21875 50.515625 64.515625 
Q 56.984375 54.828125 56.984375 36.375 
Q 56.984375 17.96875 50.515625 8.265625 
Q 44.046875 -1.421875 31.78125 -1.421875 
Q 19.53125 -1.421875 13.0625 8.265625 
Q 6.59375 17.96875 6.59375 36.375 
Q 6.59375 54.828125 13.0625 64.515625 
Q 19.53125 74.21875 31.78125 74.21875 
z
" id="DejaVuSans-48"/>
       </defs>
       <use xlink:href="#DejaVuSans-48"/>
      </g>
     </g>
    </g>
    <g id="xtick_2">
     <g id="line2d_2">
      <g>
       <use style="stroke:#000000;stroke-width:0.8;" x="125.123657" xlink:href="#mea88aae195" y="307.584"/>
      </g>
     </g>
     <g id="text_2">
      <!-- 20 -->
      <g transform="translate(118.761157 322.182437)scale(0.1 -0.1)">
       <defs>
        <path d="M 19.1875 8.296875 
L 53.609375 8.296875 
L 53.609375 0 
L 7.328125 0 
L 7.328125 8.296875 
Q 12.9375 14.109375 22.625 23.890625 
Q 32.328125 33.6875 34.8125 36.53125 
Q 39.546875 41.84375 41.421875 45.53125 
Q 43.3125 49.21875 43.3125 52.78125 
Q 43.3125 58.59375 39.234375 62.25 
Q 35.15625 65.921875 28.609375 65.921875 
Q 23.96875 65.921875 18.8125 64.3125 
Q 13.671875 62.703125 7.8125 59.421875 
L 7.8125 69.390625 
Q 13.765625 71.78125 18.9375 73 
Q 24.125 74.21875 28.421875 74.21875 
Q 39.75 74.21875 46.484375 68.546875 
Q 53.21875 62.890625 53.21875 53.421875 
Q 53.21875 48.921875 51.53125 44.890625 
Q 49.859375 40.875 45.40625 35.40625 
Q 44.1875 33.984375 37.640625 27.21875 
Q 31.109375 20.453125 19.1875 8.296875 
z
" id="DejaVuSans-50"/>
       </defs>
       <use xlink:href="#DejaVuSans-50"/>
       <use x="63.623047" xlink:href="#DejaVuSans-48"/>
      </g>
     </g>
    </g>
    <g id="xtick_3">
     <g id="line2d_3">
      <g>
       <use style="stroke:#000000;stroke-width:0.8;" x="166.436559" xlink:href="#mea88aae195" y="307.584"/>
      </g>
     </g>
     <g id="text_3">
      <!-- 40 -->
      <g transform="translate(160.074059 322.182437)scale(0.1 -0.1)">
       <defs>
        <path d="M 37.796875 64.3125 
L 12.890625 25.390625 
L 37.796875 25.390625 
z
M 35.203125 72.90625 
L 47.609375 72.90625 
L 47.609375 25.390625 
L 58.015625 25.390625 
L 58.015625 17.1875 
L 47.609375 17.1875 
L 47.609375 0 
L 37.796875 0 
L 37.796875 17.1875 
L 4.890625 17.1875 
L 4.890625 26.703125 
z
" id="DejaVuSans-52"/>
       </defs>
       <use xlink:href="#DejaVuSans-52"/>
       <use x="63.623047" xlink:href="#DejaVuSans-48"/>
      </g>
     </g>
    </g>
    <g id="xtick_4">
     <g id="line2d_4">
      <g>
       <use style="stroke:#000000;stroke-width:0.8;" x="207.74946" xlink:href="#mea88aae195" y="307.584"/>
      </g>
     </g>
     <g id="text_4">
      <!-- 60 -->
      <g transform="translate(201.38696 322.182437)scale(0.1 -0.1)">
       <defs>
        <path d="M 33.015625 40.375 
Q 26.375 40.375 22.484375 35.828125 
Q 18.609375 31.296875 18.609375 23.390625 
Q 18.609375 15.53125 22.484375 10.953125 
Q 26.375 6.390625 33.015625 6.390625 
Q 39.65625 6.390625 43.53125 10.953125 
Q 47.40625 15.53125 47.40625 23.390625 
Q 47.40625 31.296875 43.53125 35.828125 
Q 39.65625 40.375 33.015625 40.375 
z
M 52.59375 71.296875 
L 52.59375 62.3125 
Q 48.875 64.0625 45.09375 64.984375 
Q 41.3125 65.921875 37.59375 65.921875 
Q 27.828125 65.921875 22.671875 59.328125 
Q 17.53125 52.734375 16.796875 39.40625 
Q 19.671875 43.65625 24.015625 45.921875 
Q 28.375 48.1875 33.59375 48.1875 
Q 44.578125 48.1875 50.953125 41.515625 
Q 57.328125 34.859375 57.328125 23.390625 
Q 57.328125 12.15625 50.6875 5.359375 
Q 44.046875 -1.421875 33.015625 -1.421875 
Q 20.359375 -1.421875 13.671875 8.265625 
Q 6.984375 17.96875 6.984375 36.375 
Q 6.984375 53.65625 15.1875 63.9375 
Q 23.390625 74.21875 37.203125 74.21875 
Q 40.921875 74.21875 44.703125 73.484375 
Q 48.484375 72.75 52.59375 71.296875 
z
" id="DejaVuSans-54"/>
       </defs>
       <use xlink:href="#DejaVuSans-54"/>
       <use x="63.623047" xlink:href="#DejaVuSans-48"/>
      </g>
     </g>
    </g>
    <g id="xtick_5">
     <g id="line2d_5">
      <g>
       <use style="stroke:#000000;stroke-width:0.8;" x="249.062361" xlink:href="#mea88aae195" y="307.584"/>
      </g>
     </g>
     <g id="text_5">
      <!-- 80 -->
      <g transform="translate(242.699861 322.182437)scale(0.1 -0.1)">
       <defs>
        <path d="M 31.78125 34.625 
Q 24.75 34.625 20.71875 30.859375 
Q 16.703125 27.09375 16.703125 20.515625 
Q 16.703125 13.921875 20.71875 10.15625 
Q 24.75 6.390625 31.78125 6.390625 
Q 38.8125 6.390625 42.859375 10.171875 
Q 46.921875 13.96875 46.921875 20.515625 
Q 46.921875 27.09375 42.890625 30.859375 
Q 38.875 34.625 31.78125 34.625 
z
M 21.921875 38.8125 
Q 15.578125 40.375 12.03125 44.71875 
Q 8.5 49.078125 8.5 55.328125 
Q 8.5 64.0625 14.71875 69.140625 
Q 20.953125 74.21875 31.78125 74.21875 
Q 42.671875 74.21875 48.875 69.140625 
Q 55.078125 64.0625 55.078125 55.328125 
Q 55.078125 49.078125 51.53125 44.71875 
Q 48 40.375 41.703125 38.8125 
Q 48.828125 37.15625 52.796875 32.3125 
Q 56.78125 27.484375 56.78125 20.515625 
Q 56.78125 9.90625 50.3125 4.234375 
Q 43.84375 -1.421875 31.78125 -1.421875 
Q 19.734375 -1.421875 13.25 4.234375 
Q 6.78125 9.90625 6.78125 20.515625 
Q 6.78125 27.484375 10.78125 32.3125 
Q 14.796875 37.15625 21.921875 38.8125 
z
M 18.3125 54.390625 
Q 18.3125 48.734375 21.84375 45.5625 
Q 25.390625 42.390625 31.78125 42.390625 
Q 38.140625 42.390625 41.71875 45.5625 
Q 45.3125 48.734375 45.3125 54.390625 
Q 45.3125 60.0625 41.71875 63.234375 
Q 38.140625 66.40625 31.78125 66.40625 
Q 25.390625 66.40625 21.84375 63.234375 
Q 18.3125 60.0625 18.3125 54.390625 
z
" id="DejaVuSans-56"/>
       </defs>
       <use xlink:href="#DejaVuSans-56"/>
       <use x="63.623047" xlink:href="#DejaVuSans-48"/>
      </g>
     </g>
    </g>
    <g id="xtick_6">
     <g id="line2d_6">
      <g>
       <use style="stroke:#000000;stroke-width:0.8;" x="290.375263" xlink:href="#mea88aae195" y="307.584"/>
      </g>
     </g>
     <g id="text_6">
      <!-- 100 -->
      <g transform="translate(280.831513 322.182437)scale(0.1 -0.1)">
       <defs>
        <path d="M 12.40625 8.296875 
L 28.515625 8.296875 
L 28.515625 63.921875 
L 10.984375 60.40625 
L 10.984375 69.390625 
L 28.421875 72.90625 
L 38.28125 72.90625 
L 38.28125 8.296875 
L 54.390625 8.296875 
L 54.390625 0 
L 12.40625 0 
z
" id="DejaVuSans-49"/>
       </defs>
       <use xlink:href="#DejaVuSans-49"/>
       <use x="63.623047" xlink:href="#DejaVuSans-48"/>
       <use x="127.246094" xlink:href="#DejaVuSans-48"/>
      </g>
     </g>
    </g>
    <g id="xtick_7">
     <g id="line2d_7">
      <g>
       <use style="stroke:#000000;stroke-width:0.8;" x="331.688164" xlink:href="#mea88aae195" y="307.584"/>
      </g>
     </g>
     <g id="text_7">
      <!-- 120 -->
      <g transform="translate(322.144414 322.182437)scale(0.1 -0.1)">
       <use xlink:href="#DejaVuSans-49"/>
       <use x="63.623047" xlink:href="#DejaVuSans-50"/>
       <use x="127.246094" xlink:href="#DejaVuSans-48"/>
      </g>
     </g>
    </g>
    <g id="xtick_8">
     <g id="line2d_8">
      <g>
       <use style="stroke:#000000;stroke-width:0.8;" x="373.001066" xlink:href="#mea88aae195" y="307.584"/>
      </g>
     </g>
     <g id="text_8">
      <!-- 140 -->
      <g transform="translate(363.457316 322.182437)scale(0.1 -0.1)">
       <use xlink:href="#DejaVuSans-49"/>
       <use x="63.623047" xlink:href="#DejaVuSans-52"/>
       <use x="127.246094" xlink:href="#DejaVuSans-48"/>
      </g>
     </g>
    </g>
    <g id="xtick_9">
     <g id="line2d_9">
      <g>
       <use style="stroke:#000000;stroke-width:0.8;" x="414.313967" xlink:href="#mea88aae195" y="307.584"/>
      </g>
     </g>
     <g id="text_9">
      <!-- 160 -->
      <g transform="translate(404.770217 322.182437)scale(0.1 -0.1)">
       <use xlink:href="#DejaVuSans-49"/>
       <use x="63.623047" xlink:href="#DejaVuSans-54"/>
       <use x="127.246094" xlink:href="#DejaVuSans-48"/>
      </g>
     </g>
    </g>
   </g>
   <g id="matplotlib.axis_2">
    <g id="ytick_1">
     <g id="line2d_10">
      <defs>
       <path d="M 0 0 
L -3.5 0 
" id="mfe7c675005" style="stroke:#000000;stroke-width:0.8;"/>
      </defs>
      <g>
       <use style="stroke:#000000;stroke-width:0.8;" x="57.6" xlink:href="#mfe7c675005" y="284.851077"/>
      </g>
     </g>
     <g id="text_10">
      <!-- −20 -->
      <g transform="translate(29.495313 288.650296)scale(0.1 -0.1)">
       <defs>
        <path d="M 10.59375 35.5 
L 73.1875 35.5 
L 73.1875 27.203125 
L 10.59375 27.203125 
z
" id="DejaVuSans-8722"/>
       </defs>
       <use xlink:href="#DejaVuSans-8722"/>
       <use x="83.789062" xlink:href="#DejaVuSans-50"/>
       <use x="147.412109" xlink:href="#DejaVuSans-48"/>
      </g>
     </g>
    </g>
    <g id="ytick_2">
     <g id="line2d_11">
      <g>
       <use style="stroke:#000000;stroke-width:0.8;" x="57.6" xlink:href="#mfe7c675005" y="243.538175"/>
      </g>
     </g>
     <g id="text_11">
      <!-- 0 -->
      <g transform="translate(44.2375 247.337394)scale(0.1 -0.1)">
       <use xlink:href="#DejaVuSans-48"/>
      </g>
     </g>
    </g>
    <g id="ytick_3">
     <g id="line2d_12">
      <g>
       <use style="stroke:#000000;stroke-width:0.8;" x="57.6" xlink:href="#mfe7c675005" y="202.225274"/>
      </g>
     </g>
     <g id="text_12">
      <!-- 20 -->
      <g transform="translate(37.875 206.024493)scale(0.1 -0.1)">
       <use xlink:href="#DejaVuSans-50"/>
       <use x="63.623047" xlink:href="#DejaVuSans-48"/>
      </g>
     </g>
    </g>
    <g id="ytick_4">
     <g id="line2d_13">
      <g>
       <use style="stroke:#000000;stroke-width:0.8;" x="57.6" xlink:href="#mfe7c675005" y="160.912373"/>
      </g>
     </g>
     <g id="text_13">
      <!-- 40 -->
      <g transform="translate(37.875 164.711591)scale(0.1 -0.1)">
       <use xlink:href="#DejaVuSans-52"/>
       <use x="63.623047" xlink:href="#DejaVuSans-48"/>
      </g>
     </g>
    </g>
    <g id="ytick_5">
     <g id="line2d_14">
      <g>
       <use style="stroke:#000000;stroke-width:0.8;" x="57.6" xlink:href="#mfe7c675005" y="119.599471"/>
      </g>
     </g>
     <g id="text_14">
      <!-- 60 -->
      <g transform="translate(37.875 123.39869)scale(0.1 -0.1)">
       <use xlink:href="#DejaVuSans-54"/>
       <use x="63.623047" xlink:href="#DejaVuSans-48"/>
      </g>
     </g>
    </g>
    <g id="ytick_6">
     <g id="line2d_15">
      <g>
       <use style="stroke:#000000;stroke-width:0.8;" x="57.6" xlink:href="#mfe7c675005" y="78.28657"/>
      </g>
     </g>
     <g id="text_15">
      <!-- 80 -->
      <g transform="translate(37.875 82.085789)scale(0.1 -0.1)">
       <use xlink:href="#DejaVuSans-56"/>
       <use x="63.623047" xlink:href="#DejaVuSans-48"/>
      </g>
     </g>
    </g>
   </g>
   <g id="line2d_16">
    <path clip-path="url(#pe2d10f7244)" d="M 83.810756 243.538175 
L 84.126638 221.7973 
L 84.702553 189.154523 
L 84.399125 183.489486 
L 83.517237 174.745547 
L 82.578449 165.968758 
L 82.173867 160.245319 
L 82.123326 154.726286 
L 82.278238 152.070798 
L 82.57856 149.499262 
L 83.043259 147.02263 
L 83.6913 144.65185 
L 84.541652 142.397874 
L 85.61328 140.271652 
L 86.920734 138.207694 
L 88.452854 136.142084 
L 90.190036 134.088136 
L 92.112679 132.059162 
L 94.201182 130.068477 
L 96.435941 128.129392 
L 98.797357 126.255222 
L 101.265825 124.45928 
L 103.821745 122.754878 
L 106.445515 121.155331 
L 109.117533 119.67395 
L 111.818196 118.32405 
L 114.527903 117.118943 
L 117.227053 116.071944 
L 119.896043 115.196363 
L 122.515271 114.505516 
L 125.065135 114.012716 
L 127.526034 113.731274 
L 129.878365 113.674506 
L 132.194576 113.860125 
L 134.554246 114.286132 
L 136.948472 114.936268 
L 139.368352 115.794271 
L 141.804981 116.843884 
L 144.249457 118.068844 
L 146.692877 119.452894 
L 149.126337 120.979773 
L 153.927768 124.396979 
L 158.582524 128.190384 
L 163.01938 132.229908 
L 167.167113 136.385475 
L 170.954496 140.527006 
L 172.690799 142.551857 
L 174.272413 144.677463 
L 175.673491 147.02948 
L 176.916557 149.574959 
L 178.024135 152.280955 
L 179.018748 155.114518 
L 180.759173 161.032559 
L 184.709989 175.753766 
L 185.611727 178.421759 
L 186.60321 180.920791 
L 187.706963 183.217915 
L 188.945509 185.280183 
L 190.341371 187.074647 
L 191.917073 188.56836 
L 193.695138 189.728374 
L 195.661381 190.553237 
L 197.778075 191.080867 
L 200.032429 191.337374 
L 202.411654 191.34887 
L 204.90296 191.141463 
L 207.493558 190.741265 
L 210.170657 190.174385 
L 215.733201 188.645021 
L 221.488272 186.762254 
L 233.166727 182.772036 
L 238.885472 181.082348 
L 241.66996 180.405245 
L 247.069021 179.437036 
L 257.824494 177.860991 
L 295.52603 172.687727 
L 306.227376 170.788231 
L 319.567464 168.19518 
L 362.22647 159.722475 
L 396.910698 152.980544 
L 396.910698 152.980544 
" style="fill:none;stroke:#fea952;stroke-linecap:square;"/>
   </g>
   <g id="line2d_17">
    <path clip-path="url(#pe2d10f7244)" d="M 75.548558 243.458682 
L 75.865564 221.639519 
L 76.446373 189.479679 
L 76.168719 184.217938 
L 75.30693 175.673497 
L 74.343684 166.646169 
L 73.914596 160.479164 
L 73.832727 157.368572 
L 73.874769 154.245094 
L 74.071435 151.11235 
L 74.457696 147.975518 
L 75.073072 144.844015 
L 75.960583 141.735303 
L 77.163235 138.679111 
L 78.633324 135.850064 
L 80.284411 133.285352 
L 82.144141 130.80632 
L 84.192469 128.404877 
L 86.411892 126.078254 
L 88.78611 123.827704 
L 91.299391 121.657446 
L 93.936315 119.573867 
L 96.681723 117.584962 
L 99.520796 115.699946 
L 102.439205 113.92901 
L 105.423339 112.283201 
L 108.460601 110.774428 
L 111.539781 109.415609 
L 114.651509 108.221032 
L 117.788774 107.207017 
L 120.947412 106.393054 
L 124.126303 105.803646 
L 127.326691 105.471099 
L 130.538405 105.438331 
L 133.662544 105.728993 
L 136.719484 106.312302 
L 139.709665 107.14871 
L 142.637193 108.205799 
L 145.5067 109.456901 
L 148.321777 110.879516 
L 151.084368 112.453963 
L 153.794689 114.162389 
L 156.451378 115.988089 
L 161.591939 119.927737 
L 166.472476 124.149093 
L 171.048117 128.531434 
L 175.267543 132.956263 
L 179.319663 137.619475 
L 181.370972 140.448906 
L 183.098063 143.403744 
L 184.563389 146.445072 
L 185.820379 149.544385 
L 186.913526 152.67675 
L 188.751983 158.938468 
L 192.537573 173.108172 
L 194.050683 177.34233 
L 195.4673 180.207069 
L 196.431764 181.648259 
L 196.891516 182.109096 
L 197.659848 182.535983 
L 198.71219 182.871259 
L 200.07235 183.07489 
L 201.726148 183.114775 
L 203.641511 182.975743 
L 205.781898 182.657921 
L 208.112663 182.172204 
L 213.227191 180.771639 
L 218.788744 178.953107 
L 230.722106 174.879377 
L 236.933156 173.05373 
L 240.08697 172.295721 
L 245.798191 171.272771 
L 256.724399 169.671973 
L 294.140445 164.542152 
L 304.697869 162.66845 
L 317.93802 160.094863 
L 360.649895 151.611702 
L 395.334123 144.86977 
L 395.334123 144.86977 
" style="fill:none;stroke:#ffffff;stroke-linecap:square;"/>
   </g>
   <g id="line2d_18">
    <path clip-path="url(#pe2d10f7244)" d="M 92.072954 243.617669 
L 92.387711 221.955081 
L 92.958733 188.829367 
L 92.629532 182.761033 
L 91.727544 173.817598 
L 90.813214 165.291347 
L 90.433137 160.011474 
L 90.371883 155.207478 
L 90.699424 151.023007 
L 91.013445 149.201244 
L 91.422017 147.568397 
L 91.920069 146.116638 
L 92.593236 144.693241 
L 93.557057 143.130036 
L 94.761566 141.477848 
L 96.187602 139.771394 
L 97.813466 138.04007 
L 99.616253 136.309249 
L 101.572491 134.601338 
L 103.658398 132.936577 
L 105.849927 131.333598 
L 110.451825 128.381652 
L 112.811726 127.064699 
L 115.175791 125.873672 
L 117.516026 124.822277 
L 119.802597 123.922855 
L 122.003311 123.18571 
L 124.083129 122.617979 
L 126.003967 122.221786 
L 127.725376 121.99145 
L 129.218324 121.910681 
L 130.726608 121.991257 
L 132.389008 122.259963 
L 134.18728 122.723825 
L 136.099511 123.382744 
L 138.103262 124.230866 
L 140.177137 125.258173 
L 142.301386 126.451825 
L 146.630493 129.278354 
L 150.963924 132.581836 
L 155.192806 136.225929 
L 159.21956 140.071199 
L 162.953056 143.975987 
L 166.061935 147.48424 
L 167.173854 148.90602 
L 168.248918 150.655215 
L 169.269725 152.704847 
L 170.227891 155.017525 
L 171.12397 157.552286 
L 172.766362 163.12665 
L 176.882406 178.39936 
L 177.931529 181.468854 
L 179.155738 184.499252 
L 180.623655 187.47197 
L 182.423718 190.353296 
L 184.656935 193.071097 
L 187.402381 195.488461 
L 190.498759 197.347652 
L 193.662913 198.570491 
L 196.843959 199.290475 
L 199.992508 199.599858 
L 203.09716 199.582964 
L 206.16441 199.307183 
L 209.205219 198.824609 
L 212.228651 198.176565 
L 218.239211 196.518403 
L 224.187801 194.571401 
L 235.611347 190.664695 
L 240.837788 189.110965 
L 243.25295 188.514768 
L 248.339851 187.601301 
L 258.92459 186.05001 
L 294.175678 181.280114 
L 305.053945 179.406673 
L 318.518188 176.829913 
L 377.143132 165.240198 
L 398.487273 161.091317 
L 398.487273 161.091317 
" style="fill:none;stroke:#ffffff;stroke-linecap:square;"/>
   </g>
   <g id="patch_3">
    <path d="M 57.6 307.584 
L 57.6 41.472 
" style="fill:none;stroke:#000000;stroke-linecap:square;stroke-linejoin:miter;stroke-width:0.8;"/>
   </g>
   <g id="patch_4">
    <path d="M 414.72 307.584 
L 414.72 41.472 
" style="fill:none;stroke:#000000;stroke-linecap:square;stroke-linejoin:miter;stroke-width:0.8;"/>
   </g>
   <g id="patch_5">
    <path d="M 57.6 307.584 
L 414.72 307.584 
" style="fill:none;stroke:#000000;stroke-linecap:square;stroke-linejoin:miter;stroke-width:0.8;"/>
   </g>
   <g id="patch_6">
    <path d="M 57.6 41.472 
L 414.72 41.472 
" style="fill:none;stroke:#000000;stroke-linecap:square;stroke-linejoin:miter;stroke-width:0.8;"/>
   </g>
  </g>
 </g>
 <defs>
  <clipPath id="pe2d10f7244">
   <rect height="266.112" width="357.12" x="57.6" y="41.472"/>
  </clipPath>
 </defs>
</svg>
