<?xml version="1.0" encoding="utf-8" standalone="no"?>
<!DOCTYPE svg PUBLIC "-//W3C//DTD SVG 1.1//EN"
  "http://www.w3.org/Graphics/SVG/1.1/DTD/svg11.dtd">
<!-- Created with matplotlib (https://matplotlib.org/) -->
<svg height="345.6pt" version="1.1" viewBox="0 0 460.8 345.6" width="460.8pt" xmlns="http://www.w3.org/2000/svg" xmlns:xlink="http://www.w3.org/1999/xlink">
 <metadata>
  <rdf:RDF xmlns:cc="http://creativecommons.org/ns#" xmlns:dc="http://purl.org/dc/elements/1.1/" xmlns:rdf="http://www.w3.org/1999/02/22-rdf-syntax-ns#">
   <cc:Work>
    <dc:type rdf:resource="http://purl.org/dc/dcmitype/StillImage"/>
    <dc:date>2021-05-28T14:22:09.553119</dc:date>
    <dc:format>image/svg+xml</dc:format>
    <dc:creator>
     <cc:Agent>
      <dc:title>Matplotlib v3.3.3, https://matplotlib.org/</dc:title>
     </cc:Agent>
    </dc:creator>
   </cc:Work>
  </rdf:RDF>
 </metadata>
 <defs>
  <style type="text/css">*{stroke-linecap:butt;stroke-linejoin:round;}</style>
 </defs>
 <g id="figure_1">
  <g id="patch_1">
   <path d="M 0 345.6 
L 460.8 345.6 
L 460.8 0 
L 0 0 
z
" style="fill:#ffffff;"/>
  </g>
  <g id="axes_1">
   <g id="patch_2">
    <path d="M 57.6 307.584 
L 414.72 307.584 
L 414.72 41.472 
L 57.6 41.472 
z
" style="fill:#7d9051;"/>
   </g>
   <g id="matplotlib.axis_1">
    <g id="xtick_1">
     <g id="line2d_1">
      <defs>
       <path d="M 0 0 
L 0 3.5 
" id="m88efa5e612" style="stroke:#000000;stroke-width:0.8;"/>
      </defs>
      <g>
       <use style="stroke:#000000;stroke-width:0.8;" x="70.915801" xlink:href="#m88efa5e612" y="307.584"/>
      </g>
     </g>
     <g id="text_1">
      <!-- −150 -->
      <g transform="translate(57.182208 322.182437)scale(0.1 -0.1)">
       <defs>
        <path d="M 10.59375 35.5 
L 73.1875 35.5 
L 73.1875 27.203125 
L 10.59375 27.203125 
z
" id="DejaVuSans-8722"/>
        <path d="M 12.40625 8.296875 
L 28.515625 8.296875 
L 28.515625 63.921875 
L 10.984375 60.40625 
L 10.984375 69.390625 
L 28.421875 72.90625 
L 38.28125 72.90625 
L 38.28125 8.296875 
L 54.390625 8.296875 
L 54.390625 0 
L 12.40625 0 
z
" id="DejaVuSans-49"/>
        <path d="M 10.796875 72.90625 
L 49.515625 72.90625 
L 49.515625 64.59375 
L 19.828125 64.59375 
L 19.828125 46.734375 
Q 21.96875 47.46875 24.109375 47.828125 
Q 26.265625 48.1875 28.421875 48.1875 
Q 40.625 48.1875 47.75 41.5 
Q 54.890625 34.8125 54.890625 23.390625 
Q 54.890625 11.625 47.5625 5.09375 
Q 40.234375 -1.421875 26.90625 -1.421875 
Q 22.3125 -1.421875 17.546875 -0.640625 
Q 12.796875 0.140625 7.71875 1.703125 
L 7.71875 11.625 
Q 12.109375 9.234375 16.796875 8.0625 
Q 21.484375 6.890625 26.703125 6.890625 
Q 35.15625 6.890625 40.078125 11.328125 
Q 45.015625 15.765625 45.015625 23.390625 
Q 45.015625 31 40.078125 35.4375 
Q 35.15625 39.890625 26.703125 39.890625 
Q 22.75 39.890625 18.8125 39.015625 
Q 14.890625 38.140625 10.796875 36.28125 
z
" id="DejaVuSans-53"/>
        <path d="M 31.78125 66.40625 
Q 24.171875 66.40625 20.328125 58.90625 
Q 16.5 51.421875 16.5 36.375 
Q 16.5 21.390625 20.328125 13.890625 
Q 24.171875 6.390625 31.78125 6.390625 
Q 39.453125 6.390625 43.28125 13.890625 
Q 47.125 21.390625 47.125 36.375 
Q 47.125 51.421875 43.28125 58.90625 
Q 39.453125 66.40625 31.78125 66.40625 
z
M 31.78125 74.21875 
Q 44.046875 74.21875 50.515625 64.515625 
Q 56.984375 54.828125 56.984375 36.375 
Q 56.984375 17.96875 50.515625 8.265625 
Q 44.046875 -1.421875 31.78125 -1.421875 
Q 19.53125 -1.421875 13.0625 8.265625 
Q 6.59375 17.96875 6.59375 36.375 
Q 6.59375 54.828125 13.0625 64.515625 
Q 19.53125 74.21875 31.78125 74.21875 
z
" id="DejaVuSans-48"/>
       </defs>
       <use xlink:href="#DejaVuSans-8722"/>
       <use x="83.789062" xlink:href="#DejaVuSans-49"/>
       <use x="147.412109" xlink:href="#DejaVuSans-53"/>
       <use x="211.035156" xlink:href="#DejaVuSans-48"/>
      </g>
     </g>
    </g>
    <g id="xtick_2">
     <g id="line2d_2">
      <g>
       <use style="stroke:#000000;stroke-width:0.8;" x="137.348392" xlink:href="#m88efa5e612" y="307.584"/>
      </g>
     </g>
     <g id="text_2">
      <!-- −100 -->
      <g transform="translate(123.614798 322.182437)scale(0.1 -0.1)">
       <use xlink:href="#DejaVuSans-8722"/>
       <use x="83.789062" xlink:href="#DejaVuSans-49"/>
       <use x="147.412109" xlink:href="#DejaVuSans-48"/>
       <use x="211.035156" xlink:href="#DejaVuSans-48"/>
      </g>
     </g>
    </g>
    <g id="xtick_3">
     <g id="line2d_3">
      <g>
       <use style="stroke:#000000;stroke-width:0.8;" x="203.780982" xlink:href="#m88efa5e612" y="307.584"/>
      </g>
     </g>
     <g id="text_3">
      <!-- −50 -->
      <g transform="translate(193.228638 322.182437)scale(0.1 -0.1)">
       <use xlink:href="#DejaVuSans-8722"/>
       <use x="83.789062" xlink:href="#DejaVuSans-53"/>
       <use x="147.412109" xlink:href="#DejaVuSans-48"/>
      </g>
     </g>
    </g>
    <g id="xtick_4">
     <g id="line2d_4">
      <g>
       <use style="stroke:#000000;stroke-width:0.8;" x="270.213572" xlink:href="#m88efa5e612" y="307.584"/>
      </g>
     </g>
     <g id="text_4">
      <!-- 0 -->
      <g transform="translate(267.032322 322.182437)scale(0.1 -0.1)">
       <use xlink:href="#DejaVuSans-48"/>
      </g>
     </g>
    </g>
    <g id="xtick_5">
     <g id="line2d_5">
      <g>
       <use style="stroke:#000000;stroke-width:0.8;" x="336.646162" xlink:href="#m88efa5e612" y="307.584"/>
      </g>
     </g>
     <g id="text_5">
      <!-- 50 -->
      <g transform="translate(330.283662 322.182437)scale(0.1 -0.1)">
       <use xlink:href="#DejaVuSans-53"/>
       <use x="63.623047" xlink:href="#DejaVuSans-48"/>
      </g>
     </g>
    </g>
    <g id="xtick_6">
     <g id="line2d_6">
      <g>
       <use style="stroke:#000000;stroke-width:0.8;" x="403.078752" xlink:href="#m88efa5e612" y="307.584"/>
      </g>
     </g>
     <g id="text_6">
      <!-- 100 -->
      <g transform="translate(393.535002 322.182437)scale(0.1 -0.1)">
       <use xlink:href="#DejaVuSans-49"/>
       <use x="63.623047" xlink:href="#DejaVuSans-48"/>
       <use x="127.246094" xlink:href="#DejaVuSans-48"/>
      </g>
     </g>
    </g>
   </g>
   <g id="matplotlib.axis_2">
    <g id="ytick_1">
     <g id="line2d_7">
      <defs>
       <path d="M 0 0 
L -3.5 0 
" id="m52b761c982" style="stroke:#000000;stroke-width:0.8;"/>
      </defs>
      <g>
       <use style="stroke:#000000;stroke-width:0.8;" x="57.6" xlink:href="#m52b761c982" y="295.442161"/>
      </g>
     </g>
     <g id="text_7">
      <!-- 0 -->
      <g transform="translate(44.2375 299.24138)scale(0.1 -0.1)">
       <use xlink:href="#DejaVuSans-48"/>
      </g>
     </g>
    </g>
    <g id="ytick_2">
     <g id="line2d_8">
      <g>
       <use style="stroke:#000000;stroke-width:0.8;" x="57.6" xlink:href="#m52b761c982" y="262.225866"/>
      </g>
     </g>
     <g id="text_8">
      <!-- 25 -->
      <g transform="translate(37.875 266.025085)scale(0.1 -0.1)">
       <defs>
        <path d="M 19.1875 8.296875 
L 53.609375 8.296875 
L 53.609375 0 
L 7.328125 0 
L 7.328125 8.296875 
Q 12.9375 14.109375 22.625 23.890625 
Q 32.328125 33.6875 34.8125 36.53125 
Q 39.546875 41.84375 41.421875 45.53125 
Q 43.3125 49.21875 43.3125 52.78125 
Q 43.3125 58.59375 39.234375 62.25 
Q 35.15625 65.921875 28.609375 65.921875 
Q 23.96875 65.921875 18.8125 64.3125 
Q 13.671875 62.703125 7.8125 59.421875 
L 7.8125 69.390625 
Q 13.765625 71.78125 18.9375 73 
Q 24.125 74.21875 28.421875 74.21875 
Q 39.75 74.21875 46.484375 68.546875 
Q 53.21875 62.890625 53.21875 53.421875 
Q 53.21875 48.921875 51.53125 44.890625 
Q 49.859375 40.875 45.40625 35.40625 
Q 44.1875 33.984375 37.640625 27.21875 
Q 31.109375 20.453125 19.1875 8.296875 
z
" id="DejaVuSans-50"/>
       </defs>
       <use xlink:href="#DejaVuSans-50"/>
       <use x="63.623047" xlink:href="#DejaVuSans-53"/>
      </g>
     </g>
    </g>
    <g id="ytick_3">
     <g id="line2d_9">
      <g>
       <use style="stroke:#000000;stroke-width:0.8;" x="57.6" xlink:href="#m52b761c982" y="229.009571"/>
      </g>
     </g>
     <g id="text_9">
      <!-- 50 -->
      <g transform="translate(37.875 232.80879)scale(0.1 -0.1)">
       <use xlink:href="#DejaVuSans-53"/>
       <use x="63.623047" xlink:href="#DejaVuSans-48"/>
      </g>
     </g>
    </g>
    <g id="ytick_4">
     <g id="line2d_10">
      <g>
       <use style="stroke:#000000;stroke-width:0.8;" x="57.6" xlink:href="#m52b761c982" y="195.793276"/>
      </g>
     </g>
     <g id="text_10">
      <!-- 75 -->
      <g transform="translate(37.875 199.592495)scale(0.1 -0.1)">
       <defs>
        <path d="M 8.203125 72.90625 
L 55.078125 72.90625 
L 55.078125 68.703125 
L 28.609375 0 
L 18.3125 0 
L 43.21875 64.59375 
L 8.203125 64.59375 
z
" id="DejaVuSans-55"/>
       </defs>
       <use xlink:href="#DejaVuSans-55"/>
       <use x="63.623047" xlink:href="#DejaVuSans-53"/>
      </g>
     </g>
    </g>
    <g id="ytick_5">
     <g id="line2d_11">
      <g>
       <use style="stroke:#000000;stroke-width:0.8;" x="57.6" xlink:href="#m52b761c982" y="162.576981"/>
      </g>
     </g>
     <g id="text_11">
      <!-- 100 -->
      <g transform="translate(31.5125 166.3762)scale(0.1 -0.1)">
       <use xlink:href="#DejaVuSans-49"/>
       <use x="63.623047" xlink:href="#DejaVuSans-48"/>
       <use x="127.246094" xlink:href="#DejaVuSans-48"/>
      </g>
     </g>
    </g>
    <g id="ytick_6">
     <g id="line2d_12">
      <g>
       <use style="stroke:#000000;stroke-width:0.8;" x="57.6" xlink:href="#m52b761c982" y="129.360686"/>
      </g>
     </g>
     <g id="text_12">
      <!-- 125 -->
      <g transform="translate(31.5125 133.159905)scale(0.1 -0.1)">
       <use xlink:href="#DejaVuSans-49"/>
       <use x="63.623047" xlink:href="#DejaVuSans-50"/>
       <use x="127.246094" xlink:href="#DejaVuSans-53"/>
      </g>
     </g>
    </g>
    <g id="ytick_7">
     <g id="line2d_13">
      <g>
       <use style="stroke:#000000;stroke-width:0.8;" x="57.6" xlink:href="#m52b761c982" y="96.144391"/>
      </g>
     </g>
     <g id="text_13">
      <!-- 150 -->
      <g transform="translate(31.5125 99.94361)scale(0.1 -0.1)">
       <use xlink:href="#DejaVuSans-49"/>
       <use x="63.623047" xlink:href="#DejaVuSans-53"/>
       <use x="127.246094" xlink:href="#DejaVuSans-48"/>
      </g>
     </g>
    </g>
    <g id="ytick_8">
     <g id="line2d_14">
      <g>
       <use style="stroke:#000000;stroke-width:0.8;" x="57.6" xlink:href="#m52b761c982" y="62.928096"/>
      </g>
     </g>
     <g id="text_14">
      <!-- 175 -->
      <g transform="translate(31.5125 66.727314)scale(0.1 -0.1)">
       <use xlink:href="#DejaVuSans-49"/>
       <use x="63.623047" xlink:href="#DejaVuSans-55"/>
       <use x="127.246094" xlink:href="#DejaVuSans-53"/>
      </g>
     </g>
    </g>
   </g>
   <g id="line2d_15">
    <path clip-path="url(#p622abe6bb7)" d="M 270.213572 295.442161 
L 270.531152 270.968822 
L 270.793276 262.230925 
L 271.1106 258.604147 
L 271.716434 254.779297 
L 274.284497 241.154187 
L 274.624878 237.570882 
L 274.650533 235.888042 
L 274.55877 234.293001 
L 274.333794 232.797202 
L 273.959809 231.412088 
L 273.421021 230.149103 
L 272.701632 229.019689 
L 271.756962 228.040638 
L 270.597565 227.246817 
L 269.244957 226.617608 
L 267.720651 226.132393 
L 266.046163 225.770557 
L 262.332701 225.334545 
L 258.276689 225.144632 
L 249.82549 224.84334 
L 245.774542 224.40208 
L 243.868032 224.036636 
L 242.069519 223.547158 
L 240.400517 222.91303 
L 238.882541 222.113633 
L 236.103242 220.202759 
L 233.412897 217.986554 
L 230.834906 215.50768 
L 228.392666 212.808801 
L 226.109577 209.932578 
L 224.009037 206.921674 
L 222.114446 203.818752 
L 220.449203 200.666473 
L 219.036705 197.5075 
L 217.890656 194.350502 
L 216.96745 191.034397 
L 216.258228 187.568415 
L 215.76285 183.995803 
L 215.481172 180.35981 
L 215.413053 176.703681 
L 215.55835 173.070666 
L 215.916921 169.504012 
L 216.488624 166.046965 
L 217.273316 162.742775 
L 217.809452 161.154903 
L 218.512518 159.602101 
L 219.361215 158.080565 
L 221.410292 155.116081 
L 223.786273 152.23103 
L 231.171545 143.748268 
L 233.151046 140.87674 
L 233.954518 139.415625 
L 234.605403 137.932539 
L 235.0824 136.423681 
L 235.364207 134.885246 
L 235.445455 133.324307 
L 235.347212 131.75087 
L 235.087838 130.165537 
L 234.685688 128.568908 
L 233.526494 125.344161 
L 232.01649 122.081432 
L 226.089147 110.432122 
L 224.817895 107.057913 
L 224.344436 105.366171 
L 224.003565 103.672138 
L 223.811086 101.943873 
L 223.757535 100.15582 
L 223.98903 96.441074 
L 224.541681 92.60934 
L 226.562872 81.226633 
L 226.836448 77.741368 
L 226.810249 76.102479 
L 226.649331 74.546324 
L 226.334147 73.083086 
L 225.845151 71.722944 
L 225.162797 70.476078 
L 224.290482 69.346673 
L 223.254013 68.325918 
L 222.067462 67.404501 
L 220.744898 66.573109 
L 219.300392 65.822429 
L 216.101834 64.525952 
L 212.58435 63.440568 
L 206.956367 62.045315 
L 199.386729 60.228437 
L 195.827034 59.170992 
L 194.152714 58.572422 
L 194.152714 58.572422 
" style="fill:none;stroke:#fea952;stroke-linecap:square;"/>
   </g>
   <g id="line2d_16">
    <path clip-path="url(#p622abe6bb7)" d="M 264.899162 295.396323 
L 265.218145 270.838423 
L 265.489633 261.889725 
L 265.851079 257.840934 
L 266.495029 253.788345 
L 269.00579 240.537495 
L 269.310888 237.48987 
L 269.303274 235.083455 
L 269.071431 233.497467 
L 268.754473 232.425852 
L 268.355973 232.065562 
L 267.632922 231.681834 
L 266.598136 231.327103 
L 265.290323 231.031142 
L 262.025911 230.64029 
L 258.139708 230.457473 
L 249.364379 230.137905 
L 244.77404 229.621663 
L 242.47239 229.164719 
L 240.181917 228.515257 
L 237.924137 227.615433 
L 235.974853 226.562273 
L 232.808768 224.373069 
L 229.799864 221.884122 
L 226.954391 219.139024 
L 224.282541 216.178063 
L 221.797725 213.039503 
L 219.515875 209.760078 
L 217.454957 206.374961 
L 215.63478 202.917335 
L 214.077213 199.417603 
L 212.797944 195.87015 
L 211.779273 192.186731 
L 211.005969 188.380091 
L 210.470797 184.484912 
L 210.169496 180.536296 
L 210.100137 176.569611 
L 210.262867 172.620203 
L 210.660004 168.723067 
L 211.296502 164.912539 
L 212.237987 161.042624 
L 212.967984 158.962818 
L 213.871124 157.013181 
L 214.907776 155.180232 
L 217.256561 151.800726 
L 219.804521 148.710987 
L 226.881694 140.611035 
L 228.494113 138.315876 
L 229.537983 136.330572 
L 230.056784 134.608992 
L 230.141177 133.655495 
L 230.102339 132.608979 
L 229.934192 131.463607 
L 229.209644 128.897486 
L 228.020054 126.027698 
L 225.61649 121.292717 
L 222.896548 116.125517 
L 221.164206 112.429622 
L 219.69994 108.490249 
L 219.13426 106.414557 
L 218.721614 104.260395 
L 218.498861 102.102972 
L 218.446334 99.965558 
L 218.718112 95.761022 
L 219.311002 91.66857 
L 221.276813 80.676512 
L 221.52252 77.826315 
L 221.453886 75.665432 
L 221.183015 74.274323 
L 220.956695 73.724732 
L 220.561301 73.133262 
L 219.994371 72.523511 
L 219.239018 71.90394 
L 218.294179 71.288936 
L 215.882254 70.119491 
L 212.891981 69.064761 
L 209.473372 68.114926 
L 195.985307 64.790739 
L 192.363633 63.576844 
L 192.363633 63.576844 
" style="fill:none;stroke:#ffffff;stroke-linecap:square;"/>
   </g>
   <g id="line2d_17">
    <path clip-path="url(#p622abe6bb7)" d="M 275.527982 295.488 
L 275.844159 271.099221 
L 276.190782 261.028545 
L 276.623557 257.60867 
L 277.690741 251.91526 
L 279.256552 243.82424 
L 279.798353 239.713586 
L 279.938867 237.651894 
L 279.956367 235.582797 
L 279.814265 233.502546 
L 279.464666 231.411851 
L 278.848188 229.326709 
L 277.903545 227.293927 
L 276.52618 225.329447 
L 274.759452 223.655423 
L 272.839158 222.428071 
L 270.856992 221.553381 
L 268.843166 220.937684 
L 266.802004 220.509972 
L 262.639492 220.0288 
L 256.310456 219.777563 
L 250.286602 219.548774 
L 246.775044 219.182498 
L 243.957122 218.579059 
L 242.876897 218.210627 
L 241.790229 217.664993 
L 239.397716 216.032448 
L 237.025931 214.088985 
L 234.71542 211.876337 
L 232.502791 209.43954 
L 230.421429 206.825654 
L 228.5022 204.08327 
L 226.773936 201.262543 
L 225.263626 198.415611 
L 223.996196 195.597397 
L 222.983368 192.830854 
L 222.155626 189.882063 
L 221.510488 186.756739 
L 221.054903 183.506695 
L 220.792848 180.183323 
L 220.725969 176.837752 
L 220.853832 173.521129 
L 221.173838 170.284956 
L 221.680745 167.181392 
L 222.308645 164.442925 
L 222.65092 163.346988 
L 223.153913 162.19102 
L 224.623093 159.725089 
L 226.619038 157.105688 
L 230.264274 152.955593 
L 234.18954 148.484531 
L 236.67674 145.209221 
L 237.807979 143.437604 
L 238.821079 141.551423 
L 239.672824 139.534507 
L 240.310027 137.381265 
L 240.671629 135.1615 
L 240.749732 132.993118 
L 240.592086 130.892762 
L 240.241483 128.867467 
L 239.73618 126.914344 
L 238.386081 123.192543 
L 236.748404 119.661919 
L 231.014088 108.434621 
L 229.93585 105.625577 
L 229.285516 103.083881 
L 229.123311 101.784774 
L 229.117394 98.785394 
L 229.483423 95.370764 
L 230.477024 89.751275 
L 231.563453 83.803748 
L 232.054913 79.728736 
L 232.150376 77.656422 
L 232.096667 75.555822 
L 231.844776 73.427217 
L 231.335361 71.285058 
L 230.507287 69.171565 
L 229.368899 67.227423 
L 228.019662 65.560083 
L 226.513655 64.128326 
L 224.895906 62.905062 
L 223.195617 61.857282 
L 221.430892 60.953546 
L 217.75377 59.4746 
L 213.9415 58.302164 
L 208.147988 56.86602 
L 200.824034 55.111875 
L 197.616115 54.166569 
L 195.941795 53.568 
L 195.941795 53.568 
" style="fill:none;stroke:#ffffff;stroke-linecap:square;"/>
   </g>
   <g id="patch_3">
    <path d="M 57.6 307.584 
L 57.6 41.472 
" style="fill:none;stroke:#000000;stroke-linecap:square;stroke-linejoin:miter;stroke-width:0.8;"/>
   </g>
   <g id="patch_4">
    <path d="M 414.72 307.584 
L 414.72 41.472 
" style="fill:none;stroke:#000000;stroke-linecap:square;stroke-linejoin:miter;stroke-width:0.8;"/>
   </g>
   <g id="patch_5">
    <path d="M 57.6 307.584 
L 414.72 307.584 
" style="fill:none;stroke:#000000;stroke-linecap:square;stroke-linejoin:miter;stroke-width:0.8;"/>
   </g>
   <g id="patch_6">
    <path d="M 57.6 41.472 
L 414.72 41.472 
" style="fill:none;stroke:#000000;stroke-linecap:square;stroke-linejoin:miter;stroke-width:0.8;"/>
   </g>
  </g>
 </g>
 <defs>
  <clipPath id="p622abe6bb7">
   <rect height="266.112" width="357.12" x="57.6" y="41.472"/>
  </clipPath>
 </defs>
</svg>
