<?xml version="1.0" encoding="utf-8" standalone="no"?>
<!DOCTYPE svg PUBLIC "-//W3C//DTD SVG 1.1//EN"
  "http://www.w3.org/Graphics/SVG/1.1/DTD/svg11.dtd">
<!-- Created with matplotlib (https://matplotlib.org/) -->
<svg height="345.6pt" version="1.1" viewBox="0 0 460.8 345.6" width="460.8pt" xmlns="http://www.w3.org/2000/svg" xmlns:xlink="http://www.w3.org/1999/xlink">
 <metadata>
  <rdf:RDF xmlns:cc="http://creativecommons.org/ns#" xmlns:dc="http://purl.org/dc/elements/1.1/" xmlns:rdf="http://www.w3.org/1999/02/22-rdf-syntax-ns#">
   <cc:Work>
    <dc:type rdf:resource="http://purl.org/dc/dcmitype/StillImage"/>
    <dc:date>2021-06-19T13:42:39.910524</dc:date>
    <dc:format>image/svg+xml</dc:format>
    <dc:creator>
     <cc:Agent>
      <dc:title>Matplotlib v3.3.3, https://matplotlib.org/</dc:title>
     </cc:Agent>
    </dc:creator>
   </cc:Work>
  </rdf:RDF>
 </metadata>
 <defs>
  <style type="text/css">*{stroke-linecap:butt;stroke-linejoin:round;}</style>
 </defs>
 <g id="figure_1">
  <g id="patch_1">
   <path d="M 0 345.6 
L 460.8 345.6 
L 460.8 0 
L 0 0 
z
" style="fill:#ffffff;"/>
  </g>
  <g id="axes_1">
   <g id="patch_2">
    <path d="M 57.6 307.584 
L 414.72 307.584 
L 414.72 41.472 
L 57.6 41.472 
z
" style="fill:#7d9051;"/>
   </g>
   <g id="matplotlib.axis_1">
    <g id="xtick_1">
     <g id="line2d_1">
      <defs>
       <path d="M 0 0 
L 0 3.5 
" id="m9a14f84e76" style="stroke:#000000;stroke-width:0.8;"/>
      </defs>
      <g>
       <use style="stroke:#000000;stroke-width:0.8;" x="84.918394" xlink:href="#m9a14f84e76" y="307.584"/>
      </g>
     </g>
     <g id="text_1">
      <!-- 0 -->
      <g transform="translate(81.737144 322.182437)scale(0.1 -0.1)">
       <defs>
        <path d="M 31.78125 66.40625 
Q 24.171875 66.40625 20.328125 58.90625 
Q 16.5 51.421875 16.5 36.375 
Q 16.5 21.390625 20.328125 13.890625 
Q 24.171875 6.390625 31.78125 6.390625 
Q 39.453125 6.390625 43.28125 13.890625 
Q 47.125 21.390625 47.125 36.375 
Q 47.125 51.421875 43.28125 58.90625 
Q 39.453125 66.40625 31.78125 66.40625 
z
M 31.78125 74.21875 
Q 44.046875 74.21875 50.515625 64.515625 
Q 56.984375 54.828125 56.984375 36.375 
Q 56.984375 17.96875 50.515625 8.265625 
Q 44.046875 -1.421875 31.78125 -1.421875 
Q 19.53125 -1.421875 13.0625 8.265625 
Q 6.59375 17.96875 6.59375 36.375 
Q 6.59375 54.828125 13.0625 64.515625 
Q 19.53125 74.21875 31.78125 74.21875 
z
" id="DejaVuSans-48"/>
       </defs>
       <use xlink:href="#DejaVuSans-48"/>
      </g>
     </g>
    </g>
    <g id="xtick_2">
     <g id="line2d_2">
      <g>
       <use style="stroke:#000000;stroke-width:0.8;" x="139.906549" xlink:href="#m9a14f84e76" y="307.584"/>
      </g>
     </g>
     <g id="text_2">
      <!-- 20 -->
      <g transform="translate(133.544049 322.182437)scale(0.1 -0.1)">
       <defs>
        <path d="M 19.1875 8.296875 
L 53.609375 8.296875 
L 53.609375 0 
L 7.328125 0 
L 7.328125 8.296875 
Q 12.9375 14.109375 22.625 23.890625 
Q 32.328125 33.6875 34.8125 36.53125 
Q 39.546875 41.84375 41.421875 45.53125 
Q 43.3125 49.21875 43.3125 52.78125 
Q 43.3125 58.59375 39.234375 62.25 
Q 35.15625 65.921875 28.609375 65.921875 
Q 23.96875 65.921875 18.8125 64.3125 
Q 13.671875 62.703125 7.8125 59.421875 
L 7.8125 69.390625 
Q 13.765625 71.78125 18.9375 73 
Q 24.125 74.21875 28.421875 74.21875 
Q 39.75 74.21875 46.484375 68.546875 
Q 53.21875 62.890625 53.21875 53.421875 
Q 53.21875 48.921875 51.53125 44.890625 
Q 49.859375 40.875 45.40625 35.40625 
Q 44.1875 33.984375 37.640625 27.21875 
Q 31.109375 20.453125 19.1875 8.296875 
z
" id="DejaVuSans-50"/>
       </defs>
       <use xlink:href="#DejaVuSans-50"/>
       <use x="63.623047" xlink:href="#DejaVuSans-48"/>
      </g>
     </g>
    </g>
    <g id="xtick_3">
     <g id="line2d_3">
      <g>
       <use style="stroke:#000000;stroke-width:0.8;" x="194.894704" xlink:href="#m9a14f84e76" y="307.584"/>
      </g>
     </g>
     <g id="text_3">
      <!-- 40 -->
      <g transform="translate(188.532204 322.182437)scale(0.1 -0.1)">
       <defs>
        <path d="M 37.796875 64.3125 
L 12.890625 25.390625 
L 37.796875 25.390625 
z
M 35.203125 72.90625 
L 47.609375 72.90625 
L 47.609375 25.390625 
L 58.015625 25.390625 
L 58.015625 17.1875 
L 47.609375 17.1875 
L 47.609375 0 
L 37.796875 0 
L 37.796875 17.1875 
L 4.890625 17.1875 
L 4.890625 26.703125 
z
" id="DejaVuSans-52"/>
       </defs>
       <use xlink:href="#DejaVuSans-52"/>
       <use x="63.623047" xlink:href="#DejaVuSans-48"/>
      </g>
     </g>
    </g>
    <g id="xtick_4">
     <g id="line2d_4">
      <g>
       <use style="stroke:#000000;stroke-width:0.8;" x="249.882858" xlink:href="#m9a14f84e76" y="307.584"/>
      </g>
     </g>
     <g id="text_4">
      <!-- 60 -->
      <g transform="translate(243.520358 322.182437)scale(0.1 -0.1)">
       <defs>
        <path d="M 33.015625 40.375 
Q 26.375 40.375 22.484375 35.828125 
Q 18.609375 31.296875 18.609375 23.390625 
Q 18.609375 15.53125 22.484375 10.953125 
Q 26.375 6.390625 33.015625 6.390625 
Q 39.65625 6.390625 43.53125 10.953125 
Q 47.40625 15.53125 47.40625 23.390625 
Q 47.40625 31.296875 43.53125 35.828125 
Q 39.65625 40.375 33.015625 40.375 
z
M 52.59375 71.296875 
L 52.59375 62.3125 
Q 48.875 64.0625 45.09375 64.984375 
Q 41.3125 65.921875 37.59375 65.921875 
Q 27.828125 65.921875 22.671875 59.328125 
Q 17.53125 52.734375 16.796875 39.40625 
Q 19.671875 43.65625 24.015625 45.921875 
Q 28.375 48.1875 33.59375 48.1875 
Q 44.578125 48.1875 50.953125 41.515625 
Q 57.328125 34.859375 57.328125 23.390625 
Q 57.328125 12.15625 50.6875 5.359375 
Q 44.046875 -1.421875 33.015625 -1.421875 
Q 20.359375 -1.421875 13.671875 8.265625 
Q 6.984375 17.96875 6.984375 36.375 
Q 6.984375 53.65625 15.1875 63.9375 
Q 23.390625 74.21875 37.203125 74.21875 
Q 40.921875 74.21875 44.703125 73.484375 
Q 48.484375 72.75 52.59375 71.296875 
z
" id="DejaVuSans-54"/>
       </defs>
       <use xlink:href="#DejaVuSans-54"/>
       <use x="63.623047" xlink:href="#DejaVuSans-48"/>
      </g>
     </g>
    </g>
    <g id="xtick_5">
     <g id="line2d_5">
      <g>
       <use style="stroke:#000000;stroke-width:0.8;" x="304.871013" xlink:href="#m9a14f84e76" y="307.584"/>
      </g>
     </g>
     <g id="text_5">
      <!-- 80 -->
      <g transform="translate(298.508513 322.182437)scale(0.1 -0.1)">
       <defs>
        <path d="M 31.78125 34.625 
Q 24.75 34.625 20.71875 30.859375 
Q 16.703125 27.09375 16.703125 20.515625 
Q 16.703125 13.921875 20.71875 10.15625 
Q 24.75 6.390625 31.78125 6.390625 
Q 38.8125 6.390625 42.859375 10.171875 
Q 46.921875 13.96875 46.921875 20.515625 
Q 46.921875 27.09375 42.890625 30.859375 
Q 38.875 34.625 31.78125 34.625 
z
M 21.921875 38.8125 
Q 15.578125 40.375 12.03125 44.71875 
Q 8.5 49.078125 8.5 55.328125 
Q 8.5 64.0625 14.71875 69.140625 
Q 20.953125 74.21875 31.78125 74.21875 
Q 42.671875 74.21875 48.875 69.140625 
Q 55.078125 64.0625 55.078125 55.328125 
Q 55.078125 49.078125 51.53125 44.71875 
Q 48 40.375 41.703125 38.8125 
Q 48.828125 37.15625 52.796875 32.3125 
Q 56.78125 27.484375 56.78125 20.515625 
Q 56.78125 9.90625 50.3125 4.234375 
Q 43.84375 -1.421875 31.78125 -1.421875 
Q 19.734375 -1.421875 13.25 4.234375 
Q 6.78125 9.90625 6.78125 20.515625 
Q 6.78125 27.484375 10.78125 32.3125 
Q 14.796875 37.15625 21.921875 38.8125 
z
M 18.3125 54.390625 
Q 18.3125 48.734375 21.84375 45.5625 
Q 25.390625 42.390625 31.78125 42.390625 
Q 38.140625 42.390625 41.71875 45.5625 
Q 45.3125 48.734375 45.3125 54.390625 
Q 45.3125 60.0625 41.71875 63.234375 
Q 38.140625 66.40625 31.78125 66.40625 
Q 25.390625 66.40625 21.84375 63.234375 
Q 18.3125 60.0625 18.3125 54.390625 
z
" id="DejaVuSans-56"/>
       </defs>
       <use xlink:href="#DejaVuSans-56"/>
       <use x="63.623047" xlink:href="#DejaVuSans-48"/>
      </g>
     </g>
    </g>
    <g id="xtick_6">
     <g id="line2d_6">
      <g>
       <use style="stroke:#000000;stroke-width:0.8;" x="359.859168" xlink:href="#m9a14f84e76" y="307.584"/>
      </g>
     </g>
     <g id="text_6">
      <!-- 100 -->
      <g transform="translate(350.315418 322.182437)scale(0.1 -0.1)">
       <defs>
        <path d="M 12.40625 8.296875 
L 28.515625 8.296875 
L 28.515625 63.921875 
L 10.984375 60.40625 
L 10.984375 69.390625 
L 28.421875 72.90625 
L 38.28125 72.90625 
L 38.28125 8.296875 
L 54.390625 8.296875 
L 54.390625 0 
L 12.40625 0 
z
" id="DejaVuSans-49"/>
       </defs>
       <use xlink:href="#DejaVuSans-49"/>
       <use x="63.623047" xlink:href="#DejaVuSans-48"/>
       <use x="127.246094" xlink:href="#DejaVuSans-48"/>
      </g>
     </g>
    </g>
   </g>
   <g id="matplotlib.axis_2">
    <g id="ytick_1">
     <g id="line2d_7">
      <defs>
       <path d="M 0 0 
L -3.5 0 
" id="m3c0a9f3b0e" style="stroke:#000000;stroke-width:0.8;"/>
      </defs>
      <g>
       <use style="stroke:#000000;stroke-width:0.8;" x="57.6" xlink:href="#m3c0a9f3b0e" y="297.420852"/>
      </g>
     </g>
     <g id="text_7">
      <!-- 0 -->
      <g transform="translate(44.2375 301.220071)scale(0.1 -0.1)">
       <use xlink:href="#DejaVuSans-48"/>
      </g>
     </g>
    </g>
    <g id="ytick_2">
     <g id="line2d_8">
      <g>
       <use style="stroke:#000000;stroke-width:0.8;" x="57.6" xlink:href="#m3c0a9f3b0e" y="242.432698"/>
      </g>
     </g>
     <g id="text_8">
      <!-- 20 -->
      <g transform="translate(37.875 246.231917)scale(0.1 -0.1)">
       <use xlink:href="#DejaVuSans-50"/>
       <use x="63.623047" xlink:href="#DejaVuSans-48"/>
      </g>
     </g>
    </g>
    <g id="ytick_3">
     <g id="line2d_9">
      <g>
       <use style="stroke:#000000;stroke-width:0.8;" x="57.6" xlink:href="#m3c0a9f3b0e" y="187.444543"/>
      </g>
     </g>
     <g id="text_9">
      <!-- 40 -->
      <g transform="translate(37.875 191.243762)scale(0.1 -0.1)">
       <use xlink:href="#DejaVuSans-52"/>
       <use x="63.623047" xlink:href="#DejaVuSans-48"/>
      </g>
     </g>
    </g>
    <g id="ytick_4">
     <g id="line2d_10">
      <g>
       <use style="stroke:#000000;stroke-width:0.8;" x="57.6" xlink:href="#m3c0a9f3b0e" y="132.456388"/>
      </g>
     </g>
     <g id="text_10">
      <!-- 60 -->
      <g transform="translate(37.875 136.255607)scale(0.1 -0.1)">
       <use xlink:href="#DejaVuSans-54"/>
       <use x="63.623047" xlink:href="#DejaVuSans-48"/>
      </g>
     </g>
    </g>
    <g id="ytick_5">
     <g id="line2d_11">
      <g>
       <use style="stroke:#000000;stroke-width:0.8;" x="57.6" xlink:href="#m3c0a9f3b0e" y="77.468234"/>
      </g>
     </g>
     <g id="text_11">
      <!-- 80 -->
      <g transform="translate(37.875 81.267452)scale(0.1 -0.1)">
       <use xlink:href="#DejaVuSans-56"/>
       <use x="63.623047" xlink:href="#DejaVuSans-48"/>
      </g>
     </g>
    </g>
   </g>
   <g id="line2d_12">
    <path clip-path="url(#p419e46b904)" d="M 84.918394 297.420852 
L 85.272204 272.100448 
L 86.106214 221.430075 
L 85.72313 210.446633 
L 84.922248 192.103399 
L 84.829269 184.818599 
L 85.012385 177.597541 
L 85.569043 170.462722 
L 86.017902 166.934682 
L 86.596689 163.436639 
L 88.14794 156.502836 
L 90.018967 149.471238 
L 92.179798 142.37942 
L 94.641698 135.306258 
L 97.41593 128.330629 
L 100.513759 121.53141 
L 103.946449 114.987477 
L 105.791887 111.835892 
L 107.725265 108.777707 
L 109.74799 105.822782 
L 111.861471 102.980977 
L 114.067115 100.26215 
L 116.366331 97.676162 
L 118.785786 95.184869 
L 121.34455 92.74692 
L 124.032641 90.367359 
L 126.840075 88.051233 
L 129.756867 85.803587 
L 132.773032 83.629467 
L 135.878588 81.53392 
L 139.06355 79.521991 
L 145.631756 75.769171 
L 152.397777 72.411373 
L 155.830008 70.893222 
L 159.281741 69.488964 
L 162.742991 68.203646 
L 166.203775 67.042312 
L 169.654108 66.010009 
L 173.084006 65.111783 
L 176.483486 64.352679 
L 179.902474 63.731773 
L 183.391635 63.242366 
L 186.942092 62.880841 
L 190.544969 62.643581 
L 194.191388 62.526971 
L 197.872473 62.527394 
L 205.303131 62.864873 
L 212.765928 63.627089 
L 220.189849 64.78511 
L 227.503879 66.310006 
L 234.637002 68.172845 
L 241.518203 70.344698 
L 248.197906 72.819099 
L 255.268508 75.702352 
L 262.613765 78.98911 
L 269.988746 82.651609 
L 273.610842 84.615085 
L 277.14852 86.662084 
L 280.571164 88.789137 
L 283.848157 90.992771 
L 286.948883 93.269518 
L 289.842725 95.615906 
L 292.499068 98.028465 
L 294.887295 100.503724 
L 296.976789 103.038212 
L 298.736935 105.62846 
L 300.137116 108.270996 
L 301.146715 110.962351 
L 301.62369 113.771858 
L 301.493849 116.75756 
L 300.828352 119.899042 
L 299.698359 123.175894 
L 298.175032 126.567702 
L 296.32953 130.054055 
L 294.233014 133.614539 
L 289.571579 140.876253 
L 284.760011 148.189546 
L 282.475828 151.814503 
L 280.367592 155.391117 
L 278.506465 158.898976 
L 276.963605 162.317668 
L 275.810175 165.62678 
L 275.117333 168.805899 
L 274.956241 171.834614 
L 275.398058 174.692512 
L 276.369838 177.421308 
L 277.730504 180.077638 
L 279.449027 182.663475 
L 281.494375 185.18079 
L 283.835516 187.631553 
L 286.44142 190.017738 
L 289.281055 192.341314 
L 292.323391 194.604254 
L 295.537397 196.808528 
L 302.356291 201.048966 
L 309.48949 205.0784 
L 320.235564 210.761416 
L 336.680864 219.290999 
L 343.247203 222.198945 
L 349.958917 224.84075 
L 356.783482 227.274937 
L 367.160779 230.664964 
L 391.460727 238.380038 
L 394.882378 239.567205 
L 394.882378 239.567205 
" style="fill:none;stroke:#fea952;stroke-linecap:square;"/>
   </g>
   <g id="line2d_13">
    <path clip-path="url(#p419e46b904)" d="M 73.921272 297.315045 
L 74.276438 271.897881 
L 75.112006 221.704433 
L 74.738167 210.974337 
L 73.926934 192.329128 
L 73.832727 184.663806 
L 74.03652 176.905965 
L 74.287689 172.998106 
L 74.659353 169.074724 
L 75.16779 165.139422 
L 75.829585 161.19669 
L 77.496177 153.766448 
L 79.469297 146.364417 
L 81.756571 138.871683 
L 84.376438 131.360078 
L 87.349699 123.901309 
L 90.700277 116.567191 
L 92.525614 112.969506 
L 94.456133 109.43034 
L 96.49611 105.959123 
L 98.650178 102.565568 
L 100.923316 99.259779 
L 103.320827 96.052391 
L 105.848267 92.954728 
L 108.476915 90.014243 
L 111.19953 87.22267 
L 114.054999 84.512217 
L 117.033948 81.884071 
L 120.127273 79.339965 
L 123.326069 76.882111 
L 126.621574 74.513139 
L 130.00515 72.236038 
L 133.468258 70.054119 
L 137.002466 67.97097 
L 140.599447 65.99043 
L 144.250997 64.116576 
L 147.94905 62.353703 
L 151.685708 60.706335 
L 155.453269 59.179226 
L 159.244258 57.777392 
L 163.051466 56.506144 
L 166.867988 55.371145 
L 170.687263 54.378493 
L 174.518401 53.532036 
L 178.374845 52.840757 
L 182.277562 52.301309 
L 186.219432 51.906979 
L 190.193451 51.651569 
L 194.192651 51.52934 
L 198.210055 51.534945 
L 202.238644 51.663382 
L 206.271344 51.909945 
L 214.320467 52.739881 
L 222.299649 53.991749 
L 230.150452 55.635572 
L 237.814229 57.644165 
L 245.232693 59.993348 
L 252.270164 62.6032 
L 259.667821 65.622971 
L 267.395524 69.085441 
L 275.229842 72.983166 
L 279.118776 75.096128 
L 282.953487 77.321301 
L 286.708083 79.663014 
L 290.357111 82.128156 
L 293.875264 84.727087 
L 297.236675 87.474813 
L 300.413461 90.392348 
L 303.37297 93.507925 
L 306.073018 96.857071 
L 308.454697 100.479383 
L 310.434089 104.408325 
L 311.989202 109.121603 
L 312.610936 114.249668 
L 312.252717 119.036736 
L 311.225172 123.484291 
L 309.730639 127.681586 
L 307.894852 131.712893 
L 305.806305 135.634255 
L 303.538687 139.475625 
L 298.742546 146.945953 
L 291.950029 157.399071 
L 290.082551 160.54548 
L 288.530554 163.422859 
L 287.348459 165.937433 
L 286.099441 169.390019 
L 285.824761 170.154393 
L 285.758339 171.003005 
L 286.158046 172.40744 
L 286.889854 173.990422 
L 287.984394 175.72839 
L 289.446693 177.584178 
L 291.262553 179.520635 
L 293.405963 181.506391 
L 295.84466 183.517088 
L 298.543602 185.534697 
L 301.466902 187.546301 
L 307.844318 191.518518 
L 314.700028 195.393454 
L 325.312442 201.005741 
L 341.251354 209.288074 
L 347.37008 212.003369 
L 353.725193 214.508129 
L 360.286781 216.850218 
L 370.446627 220.169675 
L 395.065621 227.990013 
L 398.487273 229.17718 
L 398.487273 229.17718 
" style="fill:none;stroke:#ffffff;stroke-linecap:square;"/>
   </g>
   <g id="line2d_14">
    <path clip-path="url(#p419e46b904)" d="M 95.915516 297.52666 
L 96.267969 272.303015 
L 97.100422 221.155718 
L 96.708093 209.918929 
L 95.917563 191.877671 
L 95.82581 184.973393 
L 95.98825 178.289117 
L 96.478734 171.85072 
L 96.868014 168.729942 
L 97.363792 165.676587 
L 98.799704 159.239224 
L 100.568638 152.578059 
L 102.603026 145.887156 
L 104.906957 139.252438 
L 107.482161 132.75995 
L 110.32724 126.495629 
L 113.436765 120.544615 
L 116.800352 114.989847 
L 118.572664 112.385786 
L 120.402114 109.909562 
L 122.285963 107.569573 
L 124.255747 105.338081 
L 126.372041 103.147069 
L 128.634101 100.981623 
L 131.031335 98.850647 
L 133.552876 96.7625 
L 138.92449 92.745796 
L 144.658842 88.989863 
L 150.664064 85.547911 
L 156.846504 82.469042 
L 163.110212 79.798702 
L 169.356084 77.57848 
L 175.480749 75.845073 
L 178.448571 75.173323 
L 181.430103 74.62279 
L 184.505708 74.183423 
L 187.664752 73.854703 
L 190.896486 73.635593 
L 197.53489 73.519842 
L 204.334917 73.819801 
L 211.211389 74.514297 
L 218.08005 75.57847 
L 224.857306 76.984439 
L 231.459775 78.701526 
L 237.803713 80.696048 
L 244.125647 83.034998 
L 250.869195 85.781734 
L 257.832006 88.89278 
L 264.74765 92.320053 
L 271.343553 96.002868 
L 274.434245 97.915259 
L 277.339203 99.857387 
L 280.022501 101.811949 
L 282.448776 103.756999 
L 284.584675 105.664581 
L 286.401619 107.499522 
L 287.880561 109.219354 
L 289.019173 110.777536 
L 290.636443 113.294049 
L 290.734981 114.478383 
L 290.431531 116.313794 
L 289.66608 118.670202 
L 288.455212 121.422512 
L 286.852756 124.473855 
L 284.927341 127.753453 
L 280.400612 134.806553 
L 275.455542 142.326548 
L 273.001627 146.229934 
L 270.652633 150.236754 
L 268.482375 154.375094 
L 266.578752 158.697903 
L 265.064764 163.284978 
L 264.135225 168.22178 
L 264.08772 173.514836 
L 265.037777 178.382019 
L 266.581629 182.435175 
L 268.571155 186.164855 
L 270.91366 189.59856 
L 273.542056 192.777402 
L 276.408478 195.742472 
L 279.476877 198.529085 
L 282.71745 201.165541 
L 286.10318 203.673811 
L 289.607891 206.070755 
L 296.868264 210.579415 
L 304.278951 214.763346 
L 315.158687 220.517092 
L 332.110373 229.293924 
L 339.124325 232.394521 
L 346.19264 235.17337 
L 353.280183 237.699657 
L 363.87493 241.160253 
L 387.855833 248.770063 
L 391.277484 249.95723 
L 391.277484 249.95723 
" style="fill:none;stroke:#ffffff;stroke-linecap:square;"/>
   </g>
   <g id="patch_3">
    <path d="M 57.6 307.584 
L 57.6 41.472 
" style="fill:none;stroke:#000000;stroke-linecap:square;stroke-linejoin:miter;stroke-width:0.8;"/>
   </g>
   <g id="patch_4">
    <path d="M 414.72 307.584 
L 414.72 41.472 
" style="fill:none;stroke:#000000;stroke-linecap:square;stroke-linejoin:miter;stroke-width:0.8;"/>
   </g>
   <g id="patch_5">
    <path d="M 57.6 307.584 
L 414.72 307.584 
" style="fill:none;stroke:#000000;stroke-linecap:square;stroke-linejoin:miter;stroke-width:0.8;"/>
   </g>
   <g id="patch_6">
    <path d="M 57.6 41.472 
L 414.72 41.472 
" style="fill:none;stroke:#000000;stroke-linecap:square;stroke-linejoin:miter;stroke-width:0.8;"/>
   </g>
  </g>
 </g>
 <defs>
  <clipPath id="p419e46b904">
   <rect height="266.112" width="357.12" x="57.6" y="41.472"/>
  </clipPath>
 </defs>
</svg>
