<?xml version="1.0" encoding="utf-8" standalone="no"?>
<!DOCTYPE svg PUBLIC "-//W3C//DTD SVG 1.1//EN"
  "http://www.w3.org/Graphics/SVG/1.1/DTD/svg11.dtd">
<!-- Created with matplotlib (https://matplotlib.org/) -->
<svg height="345.6pt" version="1.1" viewBox="0 0 460.8 345.6" width="460.8pt" xmlns="http://www.w3.org/2000/svg" xmlns:xlink="http://www.w3.org/1999/xlink">
 <metadata>
  <rdf:RDF xmlns:cc="http://creativecommons.org/ns#" xmlns:dc="http://purl.org/dc/elements/1.1/" xmlns:rdf="http://www.w3.org/1999/02/22-rdf-syntax-ns#">
   <cc:Work>
    <dc:type rdf:resource="http://purl.org/dc/dcmitype/StillImage"/>
    <dc:date>2021-07-08T13:13:07.166612</dc:date>
    <dc:format>image/svg+xml</dc:format>
    <dc:creator>
     <cc:Agent>
      <dc:title>Matplotlib v3.3.3, https://matplotlib.org/</dc:title>
     </cc:Agent>
    </dc:creator>
   </cc:Work>
  </rdf:RDF>
 </metadata>
 <defs>
  <style type="text/css">*{stroke-linecap:butt;stroke-linejoin:round;}</style>
 </defs>
 <g id="figure_1">
  <g id="patch_1">
   <path d="M 0 345.6 
L 460.8 345.6 
L 460.8 0 
L 0 0 
z
" style="fill:#ffffff;"/>
  </g>
  <g id="axes_1">
   <g id="patch_2">
    <path d="M 57.6 307.584 
L 414.72 307.584 
L 414.72 41.472 
L 57.6 41.472 
z
" style="fill:#7d9051;"/>
   </g>
   <g id="matplotlib.axis_1">
    <g id="xtick_1">
     <g id="line2d_1">
      <defs>
       <path d="M 0 0 
L 0 3.5 
" id="m0de042fdab" style="stroke:#000000;stroke-width:0.8;"/>
      </defs>
      <g>
       <use style="stroke:#000000;stroke-width:0.8;" x="83.166756" xlink:href="#m0de042fdab" y="307.584"/>
      </g>
     </g>
     <g id="text_1">
      <!-- 0 -->
      <g transform="translate(79.985506 322.182437)scale(0.1 -0.1)">
       <defs>
        <path d="M 31.78125 66.40625 
Q 24.171875 66.40625 20.328125 58.90625 
Q 16.5 51.421875 16.5 36.375 
Q 16.5 21.390625 20.328125 13.890625 
Q 24.171875 6.390625 31.78125 6.390625 
Q 39.453125 6.390625 43.28125 13.890625 
Q 47.125 21.390625 47.125 36.375 
Q 47.125 51.421875 43.28125 58.90625 
Q 39.453125 66.40625 31.78125 66.40625 
z
M 31.78125 74.21875 
Q 44.046875 74.21875 50.515625 64.515625 
Q 56.984375 54.828125 56.984375 36.375 
Q 56.984375 17.96875 50.515625 8.265625 
Q 44.046875 -1.421875 31.78125 -1.421875 
Q 19.53125 -1.421875 13.0625 8.265625 
Q 6.59375 17.96875 6.59375 36.375 
Q 6.59375 54.828125 13.0625 64.515625 
Q 19.53125 74.21875 31.78125 74.21875 
z
" id="DejaVuSans-48"/>
       </defs>
       <use xlink:href="#DejaVuSans-48"/>
      </g>
     </g>
    </g>
    <g id="xtick_2">
     <g id="line2d_2">
      <g>
       <use style="stroke:#000000;stroke-width:0.8;" x="124.359534" xlink:href="#m0de042fdab" y="307.584"/>
      </g>
     </g>
     <g id="text_2">
      <!-- 20 -->
      <g transform="translate(117.997034 322.182437)scale(0.1 -0.1)">
       <defs>
        <path d="M 19.1875 8.296875 
L 53.609375 8.296875 
L 53.609375 0 
L 7.328125 0 
L 7.328125 8.296875 
Q 12.9375 14.109375 22.625 23.890625 
Q 32.328125 33.6875 34.8125 36.53125 
Q 39.546875 41.84375 41.421875 45.53125 
Q 43.3125 49.21875 43.3125 52.78125 
Q 43.3125 58.59375 39.234375 62.25 
Q 35.15625 65.921875 28.609375 65.921875 
Q 23.96875 65.921875 18.8125 64.3125 
Q 13.671875 62.703125 7.8125 59.421875 
L 7.8125 69.390625 
Q 13.765625 71.78125 18.9375 73 
Q 24.125 74.21875 28.421875 74.21875 
Q 39.75 74.21875 46.484375 68.546875 
Q 53.21875 62.890625 53.21875 53.421875 
Q 53.21875 48.921875 51.53125 44.890625 
Q 49.859375 40.875 45.40625 35.40625 
Q 44.1875 33.984375 37.640625 27.21875 
Q 31.109375 20.453125 19.1875 8.296875 
z
" id="DejaVuSans-50"/>
       </defs>
       <use xlink:href="#DejaVuSans-50"/>
       <use x="63.623047" xlink:href="#DejaVuSans-48"/>
      </g>
     </g>
    </g>
    <g id="xtick_3">
     <g id="line2d_3">
      <g>
       <use style="stroke:#000000;stroke-width:0.8;" x="165.552312" xlink:href="#m0de042fdab" y="307.584"/>
      </g>
     </g>
     <g id="text_3">
      <!-- 40 -->
      <g transform="translate(159.189812 322.182437)scale(0.1 -0.1)">
       <defs>
        <path d="M 37.796875 64.3125 
L 12.890625 25.390625 
L 37.796875 25.390625 
z
M 35.203125 72.90625 
L 47.609375 72.90625 
L 47.609375 25.390625 
L 58.015625 25.390625 
L 58.015625 17.1875 
L 47.609375 17.1875 
L 47.609375 0 
L 37.796875 0 
L 37.796875 17.1875 
L 4.890625 17.1875 
L 4.890625 26.703125 
z
" id="DejaVuSans-52"/>
       </defs>
       <use xlink:href="#DejaVuSans-52"/>
       <use x="63.623047" xlink:href="#DejaVuSans-48"/>
      </g>
     </g>
    </g>
    <g id="xtick_4">
     <g id="line2d_4">
      <g>
       <use style="stroke:#000000;stroke-width:0.8;" x="206.74509" xlink:href="#m0de042fdab" y="307.584"/>
      </g>
     </g>
     <g id="text_4">
      <!-- 60 -->
      <g transform="translate(200.38259 322.182437)scale(0.1 -0.1)">
       <defs>
        <path d="M 33.015625 40.375 
Q 26.375 40.375 22.484375 35.828125 
Q 18.609375 31.296875 18.609375 23.390625 
Q 18.609375 15.53125 22.484375 10.953125 
Q 26.375 6.390625 33.015625 6.390625 
Q 39.65625 6.390625 43.53125 10.953125 
Q 47.40625 15.53125 47.40625 23.390625 
Q 47.40625 31.296875 43.53125 35.828125 
Q 39.65625 40.375 33.015625 40.375 
z
M 52.59375 71.296875 
L 52.59375 62.3125 
Q 48.875 64.0625 45.09375 64.984375 
Q 41.3125 65.921875 37.59375 65.921875 
Q 27.828125 65.921875 22.671875 59.328125 
Q 17.53125 52.734375 16.796875 39.40625 
Q 19.671875 43.65625 24.015625 45.921875 
Q 28.375 48.1875 33.59375 48.1875 
Q 44.578125 48.1875 50.953125 41.515625 
Q 57.328125 34.859375 57.328125 23.390625 
Q 57.328125 12.15625 50.6875 5.359375 
Q 44.046875 -1.421875 33.015625 -1.421875 
Q 20.359375 -1.421875 13.671875 8.265625 
Q 6.984375 17.96875 6.984375 36.375 
Q 6.984375 53.65625 15.1875 63.9375 
Q 23.390625 74.21875 37.203125 74.21875 
Q 40.921875 74.21875 44.703125 73.484375 
Q 48.484375 72.75 52.59375 71.296875 
z
" id="DejaVuSans-54"/>
       </defs>
       <use xlink:href="#DejaVuSans-54"/>
       <use x="63.623047" xlink:href="#DejaVuSans-48"/>
      </g>
     </g>
    </g>
    <g id="xtick_5">
     <g id="line2d_5">
      <g>
       <use style="stroke:#000000;stroke-width:0.8;" x="247.937869" xlink:href="#m0de042fdab" y="307.584"/>
      </g>
     </g>
     <g id="text_5">
      <!-- 80 -->
      <g transform="translate(241.575369 322.182437)scale(0.1 -0.1)">
       <defs>
        <path d="M 31.78125 34.625 
Q 24.75 34.625 20.71875 30.859375 
Q 16.703125 27.09375 16.703125 20.515625 
Q 16.703125 13.921875 20.71875 10.15625 
Q 24.75 6.390625 31.78125 6.390625 
Q 38.8125 6.390625 42.859375 10.171875 
Q 46.921875 13.96875 46.921875 20.515625 
Q 46.921875 27.09375 42.890625 30.859375 
Q 38.875 34.625 31.78125 34.625 
z
M 21.921875 38.8125 
Q 15.578125 40.375 12.03125 44.71875 
Q 8.5 49.078125 8.5 55.328125 
Q 8.5 64.0625 14.71875 69.140625 
Q 20.953125 74.21875 31.78125 74.21875 
Q 42.671875 74.21875 48.875 69.140625 
Q 55.078125 64.0625 55.078125 55.328125 
Q 55.078125 49.078125 51.53125 44.71875 
Q 48 40.375 41.703125 38.8125 
Q 48.828125 37.15625 52.796875 32.3125 
Q 56.78125 27.484375 56.78125 20.515625 
Q 56.78125 9.90625 50.3125 4.234375 
Q 43.84375 -1.421875 31.78125 -1.421875 
Q 19.734375 -1.421875 13.25 4.234375 
Q 6.78125 9.90625 6.78125 20.515625 
Q 6.78125 27.484375 10.78125 32.3125 
Q 14.796875 37.15625 21.921875 38.8125 
z
M 18.3125 54.390625 
Q 18.3125 48.734375 21.84375 45.5625 
Q 25.390625 42.390625 31.78125 42.390625 
Q 38.140625 42.390625 41.71875 45.5625 
Q 45.3125 48.734375 45.3125 54.390625 
Q 45.3125 60.0625 41.71875 63.234375 
Q 38.140625 66.40625 31.78125 66.40625 
Q 25.390625 66.40625 21.84375 63.234375 
Q 18.3125 60.0625 18.3125 54.390625 
z
" id="DejaVuSans-56"/>
       </defs>
       <use xlink:href="#DejaVuSans-56"/>
       <use x="63.623047" xlink:href="#DejaVuSans-48"/>
      </g>
     </g>
    </g>
    <g id="xtick_6">
     <g id="line2d_6">
      <g>
       <use style="stroke:#000000;stroke-width:0.8;" x="289.130647" xlink:href="#m0de042fdab" y="307.584"/>
      </g>
     </g>
     <g id="text_6">
      <!-- 100 -->
      <g transform="translate(279.586897 322.182437)scale(0.1 -0.1)">
       <defs>
        <path d="M 12.40625 8.296875 
L 28.515625 8.296875 
L 28.515625 63.921875 
L 10.984375 60.40625 
L 10.984375 69.390625 
L 28.421875 72.90625 
L 38.28125 72.90625 
L 38.28125 8.296875 
L 54.390625 8.296875 
L 54.390625 0 
L 12.40625 0 
z
" id="DejaVuSans-49"/>
       </defs>
       <use xlink:href="#DejaVuSans-49"/>
       <use x="63.623047" xlink:href="#DejaVuSans-48"/>
       <use x="127.246094" xlink:href="#DejaVuSans-48"/>
      </g>
     </g>
    </g>
    <g id="xtick_7">
     <g id="line2d_7">
      <g>
       <use style="stroke:#000000;stroke-width:0.8;" x="330.323425" xlink:href="#m0de042fdab" y="307.584"/>
      </g>
     </g>
     <g id="text_7">
      <!-- 120 -->
      <g transform="translate(320.779675 322.182437)scale(0.1 -0.1)">
       <use xlink:href="#DejaVuSans-49"/>
       <use x="63.623047" xlink:href="#DejaVuSans-50"/>
       <use x="127.246094" xlink:href="#DejaVuSans-48"/>
      </g>
     </g>
    </g>
    <g id="xtick_8">
     <g id="line2d_8">
      <g>
       <use style="stroke:#000000;stroke-width:0.8;" x="371.516203" xlink:href="#m0de042fdab" y="307.584"/>
      </g>
     </g>
     <g id="text_8">
      <!-- 140 -->
      <g transform="translate(361.972453 322.182437)scale(0.1 -0.1)">
       <use xlink:href="#DejaVuSans-49"/>
       <use x="63.623047" xlink:href="#DejaVuSans-52"/>
       <use x="127.246094" xlink:href="#DejaVuSans-48"/>
      </g>
     </g>
    </g>
    <g id="xtick_9">
     <g id="line2d_9">
      <g>
       <use style="stroke:#000000;stroke-width:0.8;" x="412.708981" xlink:href="#m0de042fdab" y="307.584"/>
      </g>
     </g>
     <g id="text_9">
      <!-- 160 -->
      <g transform="translate(403.165231 322.182437)scale(0.1 -0.1)">
       <use xlink:href="#DejaVuSans-49"/>
       <use x="63.623047" xlink:href="#DejaVuSans-54"/>
       <use x="127.246094" xlink:href="#DejaVuSans-48"/>
      </g>
     </g>
    </g>
   </g>
   <g id="matplotlib.axis_2">
    <g id="ytick_1">
     <g id="line2d_10">
      <defs>
       <path d="M 0 0 
L -3.5 0 
" id="me54c4c485a" style="stroke:#000000;stroke-width:0.8;"/>
      </defs>
      <g>
       <use style="stroke:#000000;stroke-width:0.8;" x="57.6" xlink:href="#me54c4c485a" y="303.816888"/>
      </g>
     </g>
     <g id="text_10">
      <!-- −20 -->
      <g transform="translate(29.495313 307.616107)scale(0.1 -0.1)">
       <defs>
        <path d="M 10.59375 35.5 
L 73.1875 35.5 
L 73.1875 27.203125 
L 10.59375 27.203125 
z
" id="DejaVuSans-8722"/>
       </defs>
       <use xlink:href="#DejaVuSans-8722"/>
       <use x="83.789062" xlink:href="#DejaVuSans-50"/>
       <use x="147.412109" xlink:href="#DejaVuSans-48"/>
      </g>
     </g>
    </g>
    <g id="ytick_2">
     <g id="line2d_11">
      <g>
       <use style="stroke:#000000;stroke-width:0.8;" x="57.6" xlink:href="#me54c4c485a" y="262.62411"/>
      </g>
     </g>
     <g id="text_11">
      <!-- 0 -->
      <g transform="translate(44.2375 266.423329)scale(0.1 -0.1)">
       <use xlink:href="#DejaVuSans-48"/>
      </g>
     </g>
    </g>
    <g id="ytick_3">
     <g id="line2d_12">
      <g>
       <use style="stroke:#000000;stroke-width:0.8;" x="57.6" xlink:href="#me54c4c485a" y="221.431332"/>
      </g>
     </g>
     <g id="text_12">
      <!-- 20 -->
      <g transform="translate(37.875 225.23055)scale(0.1 -0.1)">
       <use xlink:href="#DejaVuSans-50"/>
       <use x="63.623047" xlink:href="#DejaVuSans-48"/>
      </g>
     </g>
    </g>
    <g id="ytick_4">
     <g id="line2d_13">
      <g>
       <use style="stroke:#000000;stroke-width:0.8;" x="57.6" xlink:href="#me54c4c485a" y="180.238553"/>
      </g>
     </g>
     <g id="text_13">
      <!-- 40 -->
      <g transform="translate(37.875 184.037772)scale(0.1 -0.1)">
       <use xlink:href="#DejaVuSans-52"/>
       <use x="63.623047" xlink:href="#DejaVuSans-48"/>
      </g>
     </g>
    </g>
    <g id="ytick_5">
     <g id="line2d_14">
      <g>
       <use style="stroke:#000000;stroke-width:0.8;" x="57.6" xlink:href="#me54c4c485a" y="139.045775"/>
      </g>
     </g>
     <g id="text_14">
      <!-- 60 -->
      <g transform="translate(37.875 142.844994)scale(0.1 -0.1)">
       <use xlink:href="#DejaVuSans-54"/>
       <use x="63.623047" xlink:href="#DejaVuSans-48"/>
      </g>
     </g>
    </g>
    <g id="ytick_6">
     <g id="line2d_15">
      <g>
       <use style="stroke:#000000;stroke-width:0.8;" x="57.6" xlink:href="#me54c4c485a" y="97.852997"/>
      </g>
     </g>
     <g id="text_15">
      <!-- 80 -->
      <g transform="translate(37.875 101.652216)scale(0.1 -0.1)">
       <use xlink:href="#DejaVuSans-56"/>
       <use x="63.623047" xlink:href="#DejaVuSans-48"/>
      </g>
     </g>
    </g>
    <g id="ytick_7">
     <g id="line2d_16">
      <g>
       <use style="stroke:#000000;stroke-width:0.8;" x="57.6" xlink:href="#me54c4c485a" y="56.660219"/>
      </g>
     </g>
     <g id="text_16">
      <!-- 100 -->
      <g transform="translate(31.5125 60.459438)scale(0.1 -0.1)">
       <use xlink:href="#DejaVuSans-49"/>
       <use x="63.623047" xlink:href="#DejaVuSans-48"/>
       <use x="127.246094" xlink:href="#DejaVuSans-48"/>
      </g>
     </g>
    </g>
   </g>
   <g id="line2d_17">
    <path clip-path="url(#p0408998220)" d="M 83.166756 262.62411 
L 83.481719 240.946449 
L 84.06694 208.412389 
L 83.841252 202.860447 
L 83.159562 194.390394 
L 82.432118 185.901388 
L 82.125089 180.315753 
L 82.102755 174.848043 
L 82.236477 172.174203 
L 82.487127 169.548797 
L 82.869957 166.97814 
L 83.400218 164.468552 
L 84.093161 162.026349 
L 84.964039 159.657849 
L 86.013288 157.35546 
L 87.223173 155.105789 
L 88.581687 152.906455 
L 90.076821 150.755073 
L 91.696566 148.649262 
L 95.26186 144.564818 
L 99.181503 140.63406 
L 103.359431 136.837924 
L 109.900461 131.354438 
L 122.828526 120.859302 
L 131.531194 113.223334 
L 138.319853 107.415139 
L 142.930817 103.798214 
L 147.585411 100.568312 
L 149.922502 99.147476 
L 152.262618 97.882171 
L 154.603134 96.79199 
L 156.941421 95.896526 
L 159.274852 95.215369 
L 161.600799 94.768113 
L 163.916637 94.574349 
L 166.228129 94.722342 
L 168.542872 95.257522 
L 170.860989 96.135229 
L 173.182601 97.310803 
L 175.50783 98.739584 
L 177.836798 100.376913 
L 182.50644 104.098575 
L 191.895959 112.079442 
L 194.254515 113.926131 
L 196.617786 115.62409 
L 198.985894 117.128659 
L 201.35896 118.395178 
L 203.737106 119.378986 
L 206.120455 120.035426 
L 208.509128 120.319836 
L 210.910435 120.204652 
L 213.329918 119.721365 
L 215.765046 118.9139 
L 218.213286 117.826178 
L 220.672107 116.502125 
L 223.138978 114.985663 
L 228.086741 111.551208 
L 237.96747 104.306028 
L 240.419801 102.672565 
L 242.859929 101.198081 
L 245.285321 99.9265 
L 247.693447 98.901746 
L 250.081774 98.167742 
L 252.447772 97.768412 
L 254.788907 97.747679 
L 257.094321 98.120748 
L 259.358565 98.847387 
L 261.587229 99.888365 
L 263.785903 101.204452 
L 265.960175 102.756417 
L 268.115635 104.505028 
L 272.392477 108.435265 
L 283.146619 118.955999 
L 285.352797 120.865465 
L 287.590466 122.618499 
L 289.865216 124.175869 
L 292.182636 125.498344 
L 294.548315 126.546694 
L 296.967843 127.281687 
L 299.444103 127.761371 
L 301.972716 128.077388 
L 304.548372 128.240903 
L 307.165763 128.26308 
L 309.81958 128.155083 
L 315.215256 127.593222 
L 320.692933 126.644634 
L 326.210139 125.398631 
L 331.724407 123.944526 
L 342.574245 120.76926 
L 352.959864 117.617239 
L 358.030295 115.782616 
L 363.048274 113.765069 
L 370.503372 110.488109 
L 385.304628 103.55427 
L 392.73249 100.18233 
L 395.222567 99.107599 
L 395.222567 99.107599 
" style="fill:none;stroke:#fea952;stroke-linecap:square;"/>
   </g>
   <g id="line2d_18">
    <path clip-path="url(#p0408998220)" d="M 74.928581 262.544847 
L 75.244666 240.789127 
L 75.83182 208.650291 
L 75.622802 203.435671 
L 74.954819 195.136036 
L 74.210758 186.4334 
L 73.888142 180.478531 
L 73.874483 174.436537 
L 74.035213 171.391221 
L 74.338437 168.335269 
L 74.80937 165.274987 
L 75.474523 162.219739 
L 76.360741 159.183204 
L 77.46726 156.241403 
L 78.757492 153.453252 
L 80.213971 150.776253 
L 81.816433 148.204844 
L 83.54658 145.73215 
L 85.38788 143.350745 
L 87.325261 141.053176 
L 91.433264 136.681434 
L 95.76719 132.565982 
L 100.229526 128.664958 
L 106.95312 123.144979 
L 117.445793 114.622317 
L 126.107742 107.021724 
L 133.159528 100.992924 
L 138.116134 97.112959 
L 140.67899 95.273569 
L 143.305624 93.528623 
L 146.004025 91.900453 
L 148.784051 90.414014 
L 151.656779 89.098305 
L 154.632837 87.988034 
L 157.719161 87.125028 
L 160.913888 86.558244 
L 164.443032 86.352628 
L 168.083966 86.695533 
L 171.460122 87.552754 
L 174.582739 88.785237 
L 177.495744 90.291501 
L 180.246016 91.999896 
L 182.87175 93.855942 
L 187.850262 97.828219 
L 196.97492 105.59269 
L 201.035829 108.670336 
L 202.864968 109.860469 
L 204.508298 110.782329 
L 207.094507 111.854654 
L 208.114401 112.090741 
L 209.29668 112.125692 
L 210.736926 111.901507 
L 212.420041 111.384972 
L 214.307222 110.572458 
L 216.357629 109.483644 
L 218.537167 108.152133 
L 223.189496 104.926195 
L 233.400298 97.449299 
L 236.159007 95.621364 
L 239.034497 93.901515 
L 242.05942 92.345778 
L 245.273213 91.026706 
L 248.710672 90.044081 
L 252.374814 89.530179 
L 256.104974 89.61492 
L 259.611772 90.276244 
L 262.845102 91.382948 
L 265.818559 92.819445 
L 268.572245 94.498878 
L 271.150517 96.358437 
L 273.591946 98.350045 
L 278.177447 102.569438 
L 288.538181 112.726644 
L 292.244605 115.820499 
L 293.948577 117.020454 
L 295.520485 117.966242 
L 296.942937 118.663828 
L 298.534631 119.193488 
L 300.465781 119.586411 
L 302.494688 119.855385 
L 304.618174 120.002643 
L 306.830771 120.031338 
L 311.494496 119.751666 
L 316.422257 119.065361 
L 321.548611 118.036908 
L 326.812365 116.741089 
L 334.847795 114.474001 
L 350.233017 109.843044 
L 355.016281 108.115183 
L 359.813978 106.187924 
L 367.058015 103.004573 
L 381.844361 96.077616 
L 389.467784 92.618238 
L 391.957861 91.543506 
L 391.957861 91.543506 
" style="fill:none;stroke:#ffffff;stroke-linecap:square;"/>
   </g>
   <g id="line2d_19">
    <path clip-path="url(#p0408998220)" d="M 91.40493 262.703372 
L 91.718773 241.103771 
L 92.30206 208.174487 
L 92.059702 202.285223 
L 91.364306 193.644751 
L 90.480816 182.725454 
L 90.308692 177.661199 
L 90.437741 172.957186 
L 90.930544 168.681294 
L 91.325912 166.717365 
L 91.825581 164.869495 
L 92.460817 163.074295 
L 93.269083 161.257668 
L 94.232376 159.435325 
L 95.34694 157.608065 
L 96.607061 155.777996 
L 99.53257 152.120099 
L 102.93352 148.481405 
L 106.721181 144.87473 
L 110.800934 141.303808 
L 117.258632 136.001557 
L 128.211259 127.096287 
L 136.954646 119.424943 
L 143.480179 113.837353 
L 147.7455 110.483468 
L 151.865198 107.608002 
L 155.741186 105.350328 
L 157.549488 104.485675 
L 159.250004 103.805017 
L 160.830542 103.305711 
L 163.390242 102.796071 
L 164.372292 102.749152 
L 165.625622 102.96229 
L 167.139239 103.48522 
L 168.869457 104.330104 
L 170.769643 105.479271 
L 172.801847 106.897884 
L 177.162618 110.368932 
L 186.816998 118.566194 
L 189.447396 120.616827 
L 192.199744 122.577844 
L 195.10682 124.396849 
L 198.209621 126.008026 
L 201.549445 127.321778 
L 205.146402 128.216197 
L 208.903854 128.54893 
L 212.52419 128.283612 
L 215.922911 127.541224 
L 219.11005 126.442827 
L 222.11935 125.079899 
L 224.986585 123.520606 
L 227.740789 121.819193 
L 232.983987 118.17622 
L 242.534641 111.162758 
L 246.68536 108.494647 
L 248.511223 107.507223 
L 250.113681 106.776787 
L 252.52073 106.006645 
L 253.47284 105.880438 
L 254.576869 105.965251 
L 255.872027 106.311826 
L 257.355899 106.957286 
L 258.99956 107.910027 
L 260.769833 109.154397 
L 262.639324 110.660011 
L 266.607507 114.301091 
L 277.755058 125.185354 
L 280.272047 127.350816 
L 282.936328 129.416498 
L 285.781856 131.331284 
L 288.844788 133.030447 
L 292.153693 134.429561 
L 295.401055 135.369887 
L 298.422425 135.936331 
L 301.450744 136.299392 
L 304.478571 136.479163 
L 307.500754 136.494822 
L 310.513661 136.364349 
L 313.514531 136.104484 
L 319.470741 135.258012 
L 325.349887 134.069547 
L 331.128224 132.64293 
L 339.538735 130.269262 
L 355.686711 125.391433 
L 361.044309 123.450048 
L 366.28257 121.342214 
L 373.948729 117.971645 
L 388.764894 111.030924 
L 395.997197 107.746422 
L 398.487273 106.671691 
L 398.487273 106.671691 
" style="fill:none;stroke:#ffffff;stroke-linecap:square;"/>
   </g>
   <g id="patch_3">
    <path d="M 57.6 307.584 
L 57.6 41.472 
" style="fill:none;stroke:#000000;stroke-linecap:square;stroke-linejoin:miter;stroke-width:0.8;"/>
   </g>
   <g id="patch_4">
    <path d="M 414.72 307.584 
L 414.72 41.472 
" style="fill:none;stroke:#000000;stroke-linecap:square;stroke-linejoin:miter;stroke-width:0.8;"/>
   </g>
   <g id="patch_5">
    <path d="M 57.6 307.584 
L 414.72 307.584 
" style="fill:none;stroke:#000000;stroke-linecap:square;stroke-linejoin:miter;stroke-width:0.8;"/>
   </g>
   <g id="patch_6">
    <path d="M 57.6 41.472 
L 414.72 41.472 
" style="fill:none;stroke:#000000;stroke-linecap:square;stroke-linejoin:miter;stroke-width:0.8;"/>
   </g>
  </g>
 </g>
 <defs>
  <clipPath id="p0408998220">
   <rect height="266.112" width="357.12" x="57.6" y="41.472"/>
  </clipPath>
 </defs>
</svg>
