<?xml version="1.0" encoding="utf-8" standalone="no"?>
<!DOCTYPE svg PUBLIC "-//W3C//DTD SVG 1.1//EN"
  "http://www.w3.org/Graphics/SVG/1.1/DTD/svg11.dtd">
<!-- Created with matplotlib (https://matplotlib.org/) -->
<svg height="345.6pt" version="1.1" viewBox="0 0 460.8 345.6" width="460.8pt" xmlns="http://www.w3.org/2000/svg" xmlns:xlink="http://www.w3.org/1999/xlink">
 <metadata>
  <rdf:RDF xmlns:cc="http://creativecommons.org/ns#" xmlns:dc="http://purl.org/dc/elements/1.1/" xmlns:rdf="http://www.w3.org/1999/02/22-rdf-syntax-ns#">
   <cc:Work>
    <dc:type rdf:resource="http://purl.org/dc/dcmitype/StillImage"/>
    <dc:date>2021-06-17T15:41:05.280905</dc:date>
    <dc:format>image/svg+xml</dc:format>
    <dc:creator>
     <cc:Agent>
      <dc:title>Matplotlib v3.3.3, https://matplotlib.org/</dc:title>
     </cc:Agent>
    </dc:creator>
   </cc:Work>
  </rdf:RDF>
 </metadata>
 <defs>
  <style type="text/css">*{stroke-linecap:butt;stroke-linejoin:round;}</style>
 </defs>
 <g id="figure_1">
  <g id="patch_1">
   <path d="M 0 345.6 
L 460.8 345.6 
L 460.8 0 
L 0 0 
z
" style="fill:#ffffff;"/>
  </g>
  <g id="axes_1">
   <g id="patch_2">
    <path d="M 57.6 307.584 
L 414.72 307.584 
L 414.72 41.472 
L 57.6 41.472 
z
" style="fill:#7d9051;"/>
   </g>
   <g id="matplotlib.axis_1">
    <g id="xtick_1">
     <g id="line2d_1">
      <defs>
       <path d="M 0 0 
L 0 3.5 
" id="mac9356cbc5" style="stroke:#000000;stroke-width:0.8;"/>
      </defs>
      <g>
       <use style="stroke:#000000;stroke-width:0.8;" x="58.499086" xlink:href="#mac9356cbc5" y="307.584"/>
      </g>
     </g>
     <g id="text_1">
      <!-- −100 -->
      <g transform="translate(44.765492 322.182437)scale(0.1 -0.1)">
       <defs>
        <path d="M 10.59375 35.5 
L 73.1875 35.5 
L 73.1875 27.203125 
L 10.59375 27.203125 
z
" id="DejaVuSans-8722"/>
        <path d="M 12.40625 8.296875 
L 28.515625 8.296875 
L 28.515625 63.921875 
L 10.984375 60.40625 
L 10.984375 69.390625 
L 28.421875 72.90625 
L 38.28125 72.90625 
L 38.28125 8.296875 
L 54.390625 8.296875 
L 54.390625 0 
L 12.40625 0 
z
" id="DejaVuSans-49"/>
        <path d="M 31.78125 66.40625 
Q 24.171875 66.40625 20.328125 58.90625 
Q 16.5 51.421875 16.5 36.375 
Q 16.5 21.390625 20.328125 13.890625 
Q 24.171875 6.390625 31.78125 6.390625 
Q 39.453125 6.390625 43.28125 13.890625 
Q 47.125 21.390625 47.125 36.375 
Q 47.125 51.421875 43.28125 58.90625 
Q 39.453125 66.40625 31.78125 66.40625 
z
M 31.78125 74.21875 
Q 44.046875 74.21875 50.515625 64.515625 
Q 56.984375 54.828125 56.984375 36.375 
Q 56.984375 17.96875 50.515625 8.265625 
Q 44.046875 -1.421875 31.78125 -1.421875 
Q 19.53125 -1.421875 13.0625 8.265625 
Q 6.59375 17.96875 6.59375 36.375 
Q 6.59375 54.828125 13.0625 64.515625 
Q 19.53125 74.21875 31.78125 74.21875 
z
" id="DejaVuSans-48"/>
       </defs>
       <use xlink:href="#DejaVuSans-8722"/>
       <use x="83.789062" xlink:href="#DejaVuSans-49"/>
       <use x="147.412109" xlink:href="#DejaVuSans-48"/>
       <use x="211.035156" xlink:href="#DejaVuSans-48"/>
      </g>
     </g>
    </g>
    <g id="xtick_2">
     <g id="line2d_2">
      <g>
       <use style="stroke:#000000;stroke-width:0.8;" x="111.91799" xlink:href="#mac9356cbc5" y="307.584"/>
      </g>
     </g>
     <g id="text_2">
      <!-- −80 -->
      <g transform="translate(101.365647 322.182437)scale(0.1 -0.1)">
       <defs>
        <path d="M 31.78125 34.625 
Q 24.75 34.625 20.71875 30.859375 
Q 16.703125 27.09375 16.703125 20.515625 
Q 16.703125 13.921875 20.71875 10.15625 
Q 24.75 6.390625 31.78125 6.390625 
Q 38.8125 6.390625 42.859375 10.171875 
Q 46.921875 13.96875 46.921875 20.515625 
Q 46.921875 27.09375 42.890625 30.859375 
Q 38.875 34.625 31.78125 34.625 
z
M 21.921875 38.8125 
Q 15.578125 40.375 12.03125 44.71875 
Q 8.5 49.078125 8.5 55.328125 
Q 8.5 64.0625 14.71875 69.140625 
Q 20.953125 74.21875 31.78125 74.21875 
Q 42.671875 74.21875 48.875 69.140625 
Q 55.078125 64.0625 55.078125 55.328125 
Q 55.078125 49.078125 51.53125 44.71875 
Q 48 40.375 41.703125 38.8125 
Q 48.828125 37.15625 52.796875 32.3125 
Q 56.78125 27.484375 56.78125 20.515625 
Q 56.78125 9.90625 50.3125 4.234375 
Q 43.84375 -1.421875 31.78125 -1.421875 
Q 19.734375 -1.421875 13.25 4.234375 
Q 6.78125 9.90625 6.78125 20.515625 
Q 6.78125 27.484375 10.78125 32.3125 
Q 14.796875 37.15625 21.921875 38.8125 
z
M 18.3125 54.390625 
Q 18.3125 48.734375 21.84375 45.5625 
Q 25.390625 42.390625 31.78125 42.390625 
Q 38.140625 42.390625 41.71875 45.5625 
Q 45.3125 48.734375 45.3125 54.390625 
Q 45.3125 60.0625 41.71875 63.234375 
Q 38.140625 66.40625 31.78125 66.40625 
Q 25.390625 66.40625 21.84375 63.234375 
Q 18.3125 60.0625 18.3125 54.390625 
z
" id="DejaVuSans-56"/>
       </defs>
       <use xlink:href="#DejaVuSans-8722"/>
       <use x="83.789062" xlink:href="#DejaVuSans-56"/>
       <use x="147.412109" xlink:href="#DejaVuSans-48"/>
      </g>
     </g>
    </g>
    <g id="xtick_3">
     <g id="line2d_3">
      <g>
       <use style="stroke:#000000;stroke-width:0.8;" x="165.336895" xlink:href="#mac9356cbc5" y="307.584"/>
      </g>
     </g>
     <g id="text_3">
      <!-- −60 -->
      <g transform="translate(154.784551 322.182437)scale(0.1 -0.1)">
       <defs>
        <path d="M 33.015625 40.375 
Q 26.375 40.375 22.484375 35.828125 
Q 18.609375 31.296875 18.609375 23.390625 
Q 18.609375 15.53125 22.484375 10.953125 
Q 26.375 6.390625 33.015625 6.390625 
Q 39.65625 6.390625 43.53125 10.953125 
Q 47.40625 15.53125 47.40625 23.390625 
Q 47.40625 31.296875 43.53125 35.828125 
Q 39.65625 40.375 33.015625 40.375 
z
M 52.59375 71.296875 
L 52.59375 62.3125 
Q 48.875 64.0625 45.09375 64.984375 
Q 41.3125 65.921875 37.59375 65.921875 
Q 27.828125 65.921875 22.671875 59.328125 
Q 17.53125 52.734375 16.796875 39.40625 
Q 19.671875 43.65625 24.015625 45.921875 
Q 28.375 48.1875 33.59375 48.1875 
Q 44.578125 48.1875 50.953125 41.515625 
Q 57.328125 34.859375 57.328125 23.390625 
Q 57.328125 12.15625 50.6875 5.359375 
Q 44.046875 -1.421875 33.015625 -1.421875 
Q 20.359375 -1.421875 13.671875 8.265625 
Q 6.984375 17.96875 6.984375 36.375 
Q 6.984375 53.65625 15.1875 63.9375 
Q 23.390625 74.21875 37.203125 74.21875 
Q 40.921875 74.21875 44.703125 73.484375 
Q 48.484375 72.75 52.59375 71.296875 
z
" id="DejaVuSans-54"/>
       </defs>
       <use xlink:href="#DejaVuSans-8722"/>
       <use x="83.789062" xlink:href="#DejaVuSans-54"/>
       <use x="147.412109" xlink:href="#DejaVuSans-48"/>
      </g>
     </g>
    </g>
    <g id="xtick_4">
     <g id="line2d_4">
      <g>
       <use style="stroke:#000000;stroke-width:0.8;" x="218.7558" xlink:href="#mac9356cbc5" y="307.584"/>
      </g>
     </g>
     <g id="text_4">
      <!-- −40 -->
      <g transform="translate(208.203456 322.182437)scale(0.1 -0.1)">
       <defs>
        <path d="M 37.796875 64.3125 
L 12.890625 25.390625 
L 37.796875 25.390625 
z
M 35.203125 72.90625 
L 47.609375 72.90625 
L 47.609375 25.390625 
L 58.015625 25.390625 
L 58.015625 17.1875 
L 47.609375 17.1875 
L 47.609375 0 
L 37.796875 0 
L 37.796875 17.1875 
L 4.890625 17.1875 
L 4.890625 26.703125 
z
" id="DejaVuSans-52"/>
       </defs>
       <use xlink:href="#DejaVuSans-8722"/>
       <use x="83.789062" xlink:href="#DejaVuSans-52"/>
       <use x="147.412109" xlink:href="#DejaVuSans-48"/>
      </g>
     </g>
    </g>
    <g id="xtick_5">
     <g id="line2d_5">
      <g>
       <use style="stroke:#000000;stroke-width:0.8;" x="272.174704" xlink:href="#mac9356cbc5" y="307.584"/>
      </g>
     </g>
     <g id="text_5">
      <!-- −20 -->
      <g transform="translate(261.62236 322.182437)scale(0.1 -0.1)">
       <defs>
        <path d="M 19.1875 8.296875 
L 53.609375 8.296875 
L 53.609375 0 
L 7.328125 0 
L 7.328125 8.296875 
Q 12.9375 14.109375 22.625 23.890625 
Q 32.328125 33.6875 34.8125 36.53125 
Q 39.546875 41.84375 41.421875 45.53125 
Q 43.3125 49.21875 43.3125 52.78125 
Q 43.3125 58.59375 39.234375 62.25 
Q 35.15625 65.921875 28.609375 65.921875 
Q 23.96875 65.921875 18.8125 64.3125 
Q 13.671875 62.703125 7.8125 59.421875 
L 7.8125 69.390625 
Q 13.765625 71.78125 18.9375 73 
Q 24.125 74.21875 28.421875 74.21875 
Q 39.75 74.21875 46.484375 68.546875 
Q 53.21875 62.890625 53.21875 53.421875 
Q 53.21875 48.921875 51.53125 44.890625 
Q 49.859375 40.875 45.40625 35.40625 
Q 44.1875 33.984375 37.640625 27.21875 
Q 31.109375 20.453125 19.1875 8.296875 
z
" id="DejaVuSans-50"/>
       </defs>
       <use xlink:href="#DejaVuSans-8722"/>
       <use x="83.789062" xlink:href="#DejaVuSans-50"/>
       <use x="147.412109" xlink:href="#DejaVuSans-48"/>
      </g>
     </g>
    </g>
    <g id="xtick_6">
     <g id="line2d_6">
      <g>
       <use style="stroke:#000000;stroke-width:0.8;" x="325.593609" xlink:href="#mac9356cbc5" y="307.584"/>
      </g>
     </g>
     <g id="text_6">
      <!-- 0 -->
      <g transform="translate(322.412359 322.182437)scale(0.1 -0.1)">
       <use xlink:href="#DejaVuSans-48"/>
      </g>
     </g>
    </g>
    <g id="xtick_7">
     <g id="line2d_7">
      <g>
       <use style="stroke:#000000;stroke-width:0.8;" x="379.012513" xlink:href="#mac9356cbc5" y="307.584"/>
      </g>
     </g>
     <g id="text_7">
      <!-- 20 -->
      <g transform="translate(372.650013 322.182437)scale(0.1 -0.1)">
       <use xlink:href="#DejaVuSans-50"/>
       <use x="63.623047" xlink:href="#DejaVuSans-48"/>
      </g>
     </g>
    </g>
   </g>
   <g id="matplotlib.axis_2">
    <g id="ytick_1">
     <g id="line2d_8">
      <defs>
       <path d="M 0 0 
L -3.5 0 
" id="mfe720009b5" style="stroke:#000000;stroke-width:0.8;"/>
      </defs>
      <g>
       <use style="stroke:#000000;stroke-width:0.8;" x="57.6" xlink:href="#mfe720009b5" y="295.385212"/>
      </g>
     </g>
     <g id="text_8">
      <!-- 0 -->
      <g transform="translate(44.2375 299.184431)scale(0.1 -0.1)">
       <use xlink:href="#DejaVuSans-48"/>
      </g>
     </g>
    </g>
    <g id="ytick_2">
     <g id="line2d_9">
      <g>
       <use style="stroke:#000000;stroke-width:0.8;" x="57.6" xlink:href="#mfe720009b5" y="241.966307"/>
      </g>
     </g>
     <g id="text_9">
      <!-- 20 -->
      <g transform="translate(37.875 245.765526)scale(0.1 -0.1)">
       <use xlink:href="#DejaVuSans-50"/>
       <use x="63.623047" xlink:href="#DejaVuSans-48"/>
      </g>
     </g>
    </g>
    <g id="ytick_3">
     <g id="line2d_10">
      <g>
       <use style="stroke:#000000;stroke-width:0.8;" x="57.6" xlink:href="#mfe720009b5" y="188.547403"/>
      </g>
     </g>
     <g id="text_10">
      <!-- 40 -->
      <g transform="translate(37.875 192.346622)scale(0.1 -0.1)">
       <use xlink:href="#DejaVuSans-52"/>
       <use x="63.623047" xlink:href="#DejaVuSans-48"/>
      </g>
     </g>
    </g>
    <g id="ytick_4">
     <g id="line2d_11">
      <g>
       <use style="stroke:#000000;stroke-width:0.8;" x="57.6" xlink:href="#mfe720009b5" y="135.128498"/>
      </g>
     </g>
     <g id="text_11">
      <!-- 60 -->
      <g transform="translate(37.875 138.927717)scale(0.1 -0.1)">
       <use xlink:href="#DejaVuSans-54"/>
       <use x="63.623047" xlink:href="#DejaVuSans-48"/>
      </g>
     </g>
    </g>
    <g id="ytick_5">
     <g id="line2d_12">
      <g>
       <use style="stroke:#000000;stroke-width:0.8;" x="57.6" xlink:href="#mfe720009b5" y="81.709594"/>
      </g>
     </g>
     <g id="text_12">
      <!-- 80 -->
      <g transform="translate(37.875 85.508813)scale(0.1 -0.1)">
       <use xlink:href="#DejaVuSans-56"/>
       <use x="63.623047" xlink:href="#DejaVuSans-48"/>
      </g>
     </g>
    </g>
   </g>
   <g id="line2d_13">
    <path clip-path="url(#p921865aaa0)" d="M 325.593609 295.385212 
L 325.937321 270.7874 
L 326.758969 228.621751 
L 326.905621 225.045898 
L 327.203949 221.359847 
L 328.141873 213.739797 
L 331.638184 190.383754 
L 332.021829 186.635715 
L 332.272758 182.984101 
L 332.362532 179.449572 
L 332.262712 176.052792 
L 331.944858 172.814422 
L 331.380532 169.755124 
L 330.541295 166.895562 
L 329.398707 164.256397 
L 327.92433 161.858291 
L 326.038092 159.774033 
L 323.711422 158.03575 
L 320.993129 156.603107 
L 317.932023 155.435771 
L 314.576914 154.493407 
L 310.976611 153.735683 
L 307.179924 153.122264 
L 299.192635 152.167007 
L 286.959059 150.808069 
L 283.009067 150.213473 
L 279.204358 149.480847 
L 275.593741 148.569856 
L 272.226026 147.440166 
L 269.150023 146.051445 
L 266.414541 144.363357 
L 264.068389 142.33557 
L 262.122878 139.930744 
L 260.528954 137.167639 
L 259.244885 134.090073 
L 258.228939 130.741862 
L 257.439383 127.166826 
L 256.834483 123.40878 
L 256.372507 119.511541 
L 255.710395 111.474758 
L 255.119184 103.407014 
L 254.745834 99.471074 
L 254.265012 95.658847 
L 253.634983 92.014148 
L 252.814016 88.580796 
L 251.760377 85.402608 
L 250.432333 82.5234 
L 248.788153 79.98699 
L 246.786102 77.837196 
L 244.401231 75.949177 
L 241.663598 74.173904 
L 238.613976 72.51891 
L 235.293142 70.991729 
L 231.74187 69.599893 
L 228.000936 68.350936 
L 224.111116 67.252391 
L 220.113183 66.311792 
L 216.047915 65.536671 
L 211.956086 64.934562 
L 207.878471 64.512998 
L 203.855846 64.279513 
L 199.928986 64.241639 
L 196.138666 64.40691 
L 192.525662 64.782859 
L 189.130749 65.37702 
L 185.994702 66.196925 
L 183.158296 67.250108 
L 180.662308 68.544103 
L 178.366205 70.194085 
L 176.11236 72.280708 
L 173.915902 74.759722 
L 171.791961 77.586874 
L 169.755667 80.717914 
L 167.822148 84.108589 
L 166.006535 87.714649 
L 164.323957 91.491841 
L 162.789543 95.395914 
L 161.418423 99.382618 
L 160.225727 103.4077 
L 159.226583 107.42691 
L 158.436122 111.395994 
L 157.869473 115.270703 
L 157.541765 119.006785 
L 157.468128 122.559988 
L 157.663692 125.886061 
L 158.143586 128.940753 
L 158.92294 131.679811 
L 160.170797 134.13011 
L 162.000704 136.364998 
L 164.344548 138.409934 
L 167.134211 140.290379 
L 170.301579 142.031792 
L 173.778536 143.659634 
L 177.496967 145.199363 
L 185.385789 148.116326 
L 193.423123 150.986359 
L 197.327193 152.467426 
L 201.064045 154.013141 
L 204.565563 155.648963 
L 207.763633 157.400352 
L 210.590138 159.292767 
L 212.976963 161.351669 
L 214.855993 163.602518 
L 216.159113 166.070773 
L 217.006485 168.822536 
L 217.572302 171.879046 
L 217.869485 175.198466 
L 217.91096 178.73896 
L 217.70965 182.458692 
L 217.27848 186.315826 
L 216.630373 190.268526 
L 215.778254 194.274955 
L 214.735046 198.293278 
L 213.513674 202.281659 
L 212.127061 206.198261 
L 210.588133 210.001248 
L 208.909811 213.648785 
L 207.105022 217.099034 
L 205.186688 220.310161 
L 203.167735 223.240328 
L 201.061085 225.8477 
L 198.879662 228.09044 
L 196.636392 229.926714 
L 194.239171 231.367291 
L 191.601047 232.470134 
L 188.742667 233.264191 
L 185.684682 233.778411 
L 182.44774 234.041742 
L 179.052489 234.083134 
L 175.51958 233.931534 
L 171.86966 233.615892 
L 164.301384 232.608275 
L 152.587616 230.590249 
L 144.778437 229.244898 
L 137.161981 228.169734 
L 133.477646 227.805844 
L 129.903438 227.596348 
L 129.903438 227.596348 
" style="fill:none;stroke:#fea952;stroke-linecap:square;"/>
   </g>
   <g id="line2d_14">
    <path clip-path="url(#p921865aaa0)" d="M 314.910322 295.282424 
L 315.255353 270.590614 
L 316.084162 228.183958 
L 316.256661 224.184034 
L 316.586148 220.174315 
L 317.575823 212.158099 
L 321.009936 189.295859 
L 321.592422 182.71283 
L 321.683361 179.763398 
L 321.630025 177.096414 
L 321.438332 174.752482 
L 321.129126 172.763753 
L 320.736909 171.140227 
L 320.002834 169.027187 
L 319.643654 168.332908 
L 318.730146 167.487209 
L 317.186333 166.585666 
L 315.043019 165.72153 
L 312.376594 164.948156 
L 309.272564 164.282692 
L 305.811358 163.718028 
L 298.095612 162.794317 
L 285.368737 161.372824 
L 280.988933 160.704528 
L 276.590655 159.839984 
L 272.195972 158.698939 
L 267.829884 157.177574 
L 263.539322 155.143376 
L 259.428321 152.446421 
L 255.76236 149.055172 
L 252.868486 145.269228 
L 250.668993 141.28156 
L 249.02138 137.192187 
L 247.796554 133.045883 
L 246.89137 128.864647 
L 246.224982 124.666423 
L 245.73208 120.473044 
L 245.052687 112.220713 
L 244.146031 100.80799 
L 243.737362 97.478674 
L 243.244128 94.498762 
L 242.672994 91.942767 
L 242.058885 89.877451 
L 240.969698 87.268126 
L 240.154655 86.213776 
L 238.588341 84.913187 
L 236.567678 83.564046 
L 234.150135 82.22547 
L 231.394617 80.938823 
L 228.358537 79.733808 
L 225.097249 78.632559 
L 221.664333 77.652219 
L 218.112166 76.80651 
L 214.492555 76.10663 
L 210.8574 75.5617 
L 207.259394 75.178828 
L 203.752808 74.962797 
L 200.394394 74.915278 
L 197.244391 75.033318 
L 194.367488 75.306682 
L 191.833142 75.713376 
L 189.713599 76.212562 
L 186.896896 77.220109 
L 185.624346 78.033891 
L 184.108895 79.365805 
L 182.457737 81.176904 
L 180.748247 83.41166 
L 179.036511 86.010277 
L 177.364656 88.913142 
L 175.765825 92.061997 
L 174.267321 95.39987 
L 172.892513 98.870561 
L 171.661957 102.417942 
L 170.593942 105.985157 
L 169.704592 109.513652 
L 169.007456 112.941978 
L 168.51239 116.204239 
L 168.223252 119.228148 
L 168.13349 121.932894 
L 168.218023 124.227969 
L 168.443253 126.831428 
L 168.437115 127.361716 
L 169.024488 128.314554 
L 170.316208 129.550902 
L 172.281475 130.928283 
L 174.831614 132.355949 
L 177.86592 133.788643 
L 181.287992 135.210805 
L 188.95118 138.045022 
L 197.212648 140.997231 
L 201.410873 142.594902 
L 205.586101 144.333565 
L 209.697286 146.278339 
L 213.707484 148.522637 
L 217.568518 151.202935 
L 221.178513 154.504936 
L 224.303887 158.614485 
L 226.36974 162.926531 
L 227.511781 166.877813 
L 228.213521 170.926351 
L 228.552533 175.07332 
L 228.579129 179.316315 
L 228.327299 183.645587 
L 227.821478 188.044515 
L 227.080409 192.491123 
L 226.119232 196.959605 
L 224.950562 201.421602 
L 223.584915 205.847227 
L 222.030698 210.205898 
L 220.293786 214.467058 
L 218.376642 218.600785 
L 216.276784 222.578264 
L 213.98431 226.371928 
L 211.478004 229.954686 
L 208.719629 233.296852 
L 205.646957 236.357658 
L 202.139456 239.084195 
L 198.359853 241.224428 
L 194.460705 242.76409 
L 190.51434 243.800051 
L 186.550966 244.427013 
L 182.577977 244.724729 
L 178.594463 244.757092 
L 174.599091 244.575588 
L 170.593439 244.223174 
L 162.577004 243.151979 
L 150.729629 241.111231 
L 143.168247 239.806643 
L 136.111888 238.801784 
L 132.852505 238.47132 
L 129.278297 238.261823 
L 129.278297 238.261823 
" style="fill:none;stroke:#ffffff;stroke-linecap:square;"/>
   </g>
   <g id="line2d_15">
    <path clip-path="url(#p921865aaa0)" d="M 336.276895 295.488 
L 336.61929 270.984186 
L 337.554582 225.907763 
L 338.21421 219.006457 
L 339.276948 211.517739 
L 341.748115 195.559852 
L 342.680474 187.368148 
L 342.953094 183.255372 
L 343.041703 179.135746 
L 342.895398 175.009169 
L 342.451385 170.876361 
L 341.631938 166.746496 
L 340.345682 162.650897 
L 338.499975 158.660854 
L 335.845825 154.689394 
L 332.43253 151.215159 
L 328.692697 148.584291 
L 324.799924 146.620548 
L 320.821027 145.150012 
L 316.777234 144.038659 
L 312.680658 143.188674 
L 308.54849 142.526501 
L 300.289658 141.539697 
L 288.54938 140.243313 
L 285.029201 139.722418 
L 281.818061 139.121709 
L 278.991511 138.440772 
L 276.622169 137.702759 
L 274.760724 136.959514 
L 273.40076 136.280294 
L 272.374419 135.615968 
L 271.377269 134.592259 
L 270.388915 133.053718 
L 269.468391 130.987958 
L 268.661325 128.437842 
L 267.987396 125.469004 
L 267.443984 122.151136 
L 266.665969 114.725091 
L 265.345638 98.134159 
L 264.792661 93.83902 
L 264.025838 89.529535 
L 262.955038 85.218826 
L 261.461869 80.927764 
L 259.397319 76.712013 
L 256.606607 72.705854 
L 253.417549 69.460616 
L 250.214122 66.985167 
L 246.759518 64.783762 
L 243.077818 62.812351 
L 239.191667 61.044635 
L 235.125203 59.465978 
L 230.904624 58.069313 
L 226.557899 56.852563 
L 222.114201 55.817074 
L 217.603275 54.966712 
L 213.054771 54.307424 
L 208.497548 53.847169 
L 203.958884 53.596229 
L 199.463578 53.568 
L 195.032941 53.780502 
L 190.683835 54.259036 
L 186.428355 55.040664 
L 182.275805 56.181288 
L 178.241034 57.765189 
L 174.427719 59.868096 
L 171.108064 62.354279 
L 168.115824 65.195612 
L 165.374067 68.34254 
L 162.835676 71.762089 
L 160.474823 75.425551 
L 158.279641 79.304036 
L 156.247245 83.3673 
L 154.380593 87.583811 
L 152.686573 91.921268 
L 151.174889 96.347294 
L 149.857511 100.830244 
L 148.748574 105.340167 
L 147.864788 109.850011 
L 147.226556 114.337168 
L 146.860278 118.785422 
L 146.802767 123.187082 
L 147.109361 127.544153 
L 147.867676 131.864592 
L 149.402627 136.528194 
L 151.904478 140.898503 
L 154.976921 144.415442 
L 158.372887 147.268966 
L 161.986947 149.652475 
L 165.771543 151.707636 
L 169.691152 153.530625 
L 173.705941 155.187922 
L 181.820398 158.18763 
L 193.243513 162.339951 
L 196.541989 163.692717 
L 199.43384 165.019587 
L 201.819782 166.278066 
L 205.408099 168.590551 
L 205.948485 169.215015 
L 206.50119 170.76726 
L 206.931082 172.831741 
L 207.186437 175.323612 
L 207.242791 178.161605 
L 207.092002 181.271797 
L 206.735482 184.587137 
L 206.180338 188.045929 
L 205.437276 191.590306 
L 204.51953 195.164954 
L 203.442433 198.716091 
L 202.223425 202.190624 
L 200.882479 205.535438 
L 199.442981 208.696785 
L 197.93326 211.619804 
L 196.389066 214.248393 
L 194.857465 216.52597 
L 193.40254 218.398547 
L 191.133329 220.769232 
L 190.118489 221.510154 
L 188.741389 222.176178 
L 186.970995 222.72833 
L 184.818398 223.129808 
L 182.317503 223.358755 
L 179.510516 223.409175 
L 176.440069 223.287481 
L 173.14588 223.00861 
L 166.025765 222.064572 
L 154.445603 220.069267 
L 146.388626 218.683152 
L 138.212073 217.537684 
L 134.102787 217.140369 
L 130.528579 216.930872 
L 130.528579 216.930872 
" style="fill:none;stroke:#ffffff;stroke-linecap:square;"/>
   </g>
   <g id="patch_3">
    <path d="M 57.6 307.584 
L 57.6 41.472 
" style="fill:none;stroke:#000000;stroke-linecap:square;stroke-linejoin:miter;stroke-width:0.8;"/>
   </g>
   <g id="patch_4">
    <path d="M 414.72 307.584 
L 414.72 41.472 
" style="fill:none;stroke:#000000;stroke-linecap:square;stroke-linejoin:miter;stroke-width:0.8;"/>
   </g>
   <g id="patch_5">
    <path d="M 57.6 307.584 
L 414.72 307.584 
" style="fill:none;stroke:#000000;stroke-linecap:square;stroke-linejoin:miter;stroke-width:0.8;"/>
   </g>
   <g id="patch_6">
    <path d="M 57.6 41.472 
L 414.72 41.472 
" style="fill:none;stroke:#000000;stroke-linecap:square;stroke-linejoin:miter;stroke-width:0.8;"/>
   </g>
  </g>
 </g>
 <defs>
  <clipPath id="p921865aaa0">
   <rect height="266.112" width="357.12" x="57.6" y="41.472"/>
  </clipPath>
 </defs>
</svg>
