<?xml version="1.0" encoding="utf-8" standalone="no"?>
<!DOCTYPE svg PUBLIC "-//W3C//DTD SVG 1.1//EN"
  "http://www.w3.org/Graphics/SVG/1.1/DTD/svg11.dtd">
<!-- Created with matplotlib (https://matplotlib.org/) -->
<svg height="345.6pt" version="1.1" viewBox="0 0 460.8 345.6" width="460.8pt" xmlns="http://www.w3.org/2000/svg" xmlns:xlink="http://www.w3.org/1999/xlink">
 <metadata>
  <rdf:RDF xmlns:cc="http://creativecommons.org/ns#" xmlns:dc="http://purl.org/dc/elements/1.1/" xmlns:rdf="http://www.w3.org/1999/02/22-rdf-syntax-ns#">
   <cc:Work>
    <dc:type rdf:resource="http://purl.org/dc/dcmitype/StillImage"/>
    <dc:date>2021-06-17T13:46:45.925687</dc:date>
    <dc:format>image/svg+xml</dc:format>
    <dc:creator>
     <cc:Agent>
      <dc:title>Matplotlib v3.3.3, https://matplotlib.org/</dc:title>
     </cc:Agent>
    </dc:creator>
   </cc:Work>
  </rdf:RDF>
 </metadata>
 <defs>
  <style type="text/css">*{stroke-linecap:butt;stroke-linejoin:round;}</style>
 </defs>
 <g id="figure_1">
  <g id="patch_1">
   <path d="M 0 345.6 
L 460.8 345.6 
L 460.8 0 
L 0 0 
z
" style="fill:#ffffff;"/>
  </g>
  <g id="axes_1">
   <g id="patch_2">
    <path d="M 57.6 307.584 
L 414.72 307.584 
L 414.72 41.472 
L 57.6 41.472 
z
" style="fill:#7d9051;"/>
   </g>
   <g id="matplotlib.axis_1">
    <g id="xtick_1">
     <g id="line2d_1">
      <defs>
       <path d="M 0 0 
L 0 3.5 
" id="m5becee6e56" style="stroke:#000000;stroke-width:0.8;"/>
      </defs>
      <g>
       <use style="stroke:#000000;stroke-width:0.8;" x="64.228719" xlink:href="#m5becee6e56" y="307.584"/>
      </g>
     </g>
     <g id="text_1">
      <!-- −150 -->
      <g transform="translate(50.495125 322.182437)scale(0.1 -0.1)">
       <defs>
        <path d="M 10.59375 35.5 
L 73.1875 35.5 
L 73.1875 27.203125 
L 10.59375 27.203125 
z
" id="DejaVuSans-8722"/>
        <path d="M 12.40625 8.296875 
L 28.515625 8.296875 
L 28.515625 63.921875 
L 10.984375 60.40625 
L 10.984375 69.390625 
L 28.421875 72.90625 
L 38.28125 72.90625 
L 38.28125 8.296875 
L 54.390625 8.296875 
L 54.390625 0 
L 12.40625 0 
z
" id="DejaVuSans-49"/>
        <path d="M 10.796875 72.90625 
L 49.515625 72.90625 
L 49.515625 64.59375 
L 19.828125 64.59375 
L 19.828125 46.734375 
Q 21.96875 47.46875 24.109375 47.828125 
Q 26.265625 48.1875 28.421875 48.1875 
Q 40.625 48.1875 47.75 41.5 
Q 54.890625 34.8125 54.890625 23.390625 
Q 54.890625 11.625 47.5625 5.09375 
Q 40.234375 -1.421875 26.90625 -1.421875 
Q 22.3125 -1.421875 17.546875 -0.640625 
Q 12.796875 0.140625 7.71875 1.703125 
L 7.71875 11.625 
Q 12.109375 9.234375 16.796875 8.0625 
Q 21.484375 6.890625 26.703125 6.890625 
Q 35.15625 6.890625 40.078125 11.328125 
Q 45.015625 15.765625 45.015625 23.390625 
Q 45.015625 31 40.078125 35.4375 
Q 35.15625 39.890625 26.703125 39.890625 
Q 22.75 39.890625 18.8125 39.015625 
Q 14.890625 38.140625 10.796875 36.28125 
z
" id="DejaVuSans-53"/>
        <path d="M 31.78125 66.40625 
Q 24.171875 66.40625 20.328125 58.90625 
Q 16.5 51.421875 16.5 36.375 
Q 16.5 21.390625 20.328125 13.890625 
Q 24.171875 6.390625 31.78125 6.390625 
Q 39.453125 6.390625 43.28125 13.890625 
Q 47.125 21.390625 47.125 36.375 
Q 47.125 51.421875 43.28125 58.90625 
Q 39.453125 66.40625 31.78125 66.40625 
z
M 31.78125 74.21875 
Q 44.046875 74.21875 50.515625 64.515625 
Q 56.984375 54.828125 56.984375 36.375 
Q 56.984375 17.96875 50.515625 8.265625 
Q 44.046875 -1.421875 31.78125 -1.421875 
Q 19.53125 -1.421875 13.0625 8.265625 
Q 6.59375 17.96875 6.59375 36.375 
Q 6.59375 54.828125 13.0625 64.515625 
Q 19.53125 74.21875 31.78125 74.21875 
z
" id="DejaVuSans-48"/>
       </defs>
       <use xlink:href="#DejaVuSans-8722"/>
       <use x="83.789062" xlink:href="#DejaVuSans-49"/>
       <use x="147.412109" xlink:href="#DejaVuSans-53"/>
       <use x="211.035156" xlink:href="#DejaVuSans-48"/>
      </g>
     </g>
    </g>
    <g id="xtick_2">
     <g id="line2d_2">
      <g>
       <use style="stroke:#000000;stroke-width:0.8;" x="129.534689" xlink:href="#m5becee6e56" y="307.584"/>
      </g>
     </g>
     <g id="text_2">
      <!-- −100 -->
      <g transform="translate(115.801096 322.182437)scale(0.1 -0.1)">
       <use xlink:href="#DejaVuSans-8722"/>
       <use x="83.789062" xlink:href="#DejaVuSans-49"/>
       <use x="147.412109" xlink:href="#DejaVuSans-48"/>
       <use x="211.035156" xlink:href="#DejaVuSans-48"/>
      </g>
     </g>
    </g>
    <g id="xtick_3">
     <g id="line2d_3">
      <g>
       <use style="stroke:#000000;stroke-width:0.8;" x="194.84066" xlink:href="#m5becee6e56" y="307.584"/>
      </g>
     </g>
     <g id="text_3">
      <!-- −50 -->
      <g transform="translate(184.288316 322.182437)scale(0.1 -0.1)">
       <use xlink:href="#DejaVuSans-8722"/>
       <use x="83.789062" xlink:href="#DejaVuSans-53"/>
       <use x="147.412109" xlink:href="#DejaVuSans-48"/>
      </g>
     </g>
    </g>
    <g id="xtick_4">
     <g id="line2d_4">
      <g>
       <use style="stroke:#000000;stroke-width:0.8;" x="260.14663" xlink:href="#m5becee6e56" y="307.584"/>
      </g>
     </g>
     <g id="text_4">
      <!-- 0 -->
      <g transform="translate(256.96538 322.182437)scale(0.1 -0.1)">
       <use xlink:href="#DejaVuSans-48"/>
      </g>
     </g>
    </g>
    <g id="xtick_5">
     <g id="line2d_5">
      <g>
       <use style="stroke:#000000;stroke-width:0.8;" x="325.452601" xlink:href="#m5becee6e56" y="307.584"/>
      </g>
     </g>
     <g id="text_5">
      <!-- 50 -->
      <g transform="translate(319.090101 322.182437)scale(0.1 -0.1)">
       <use xlink:href="#DejaVuSans-53"/>
       <use x="63.623047" xlink:href="#DejaVuSans-48"/>
      </g>
     </g>
    </g>
    <g id="xtick_6">
     <g id="line2d_6">
      <g>
       <use style="stroke:#000000;stroke-width:0.8;" x="390.758571" xlink:href="#m5becee6e56" y="307.584"/>
      </g>
     </g>
     <g id="text_6">
      <!-- 100 -->
      <g transform="translate(381.214821 322.182437)scale(0.1 -0.1)">
       <use xlink:href="#DejaVuSans-49"/>
       <use x="63.623047" xlink:href="#DejaVuSans-48"/>
       <use x="127.246094" xlink:href="#DejaVuSans-48"/>
      </g>
     </g>
    </g>
   </g>
   <g id="matplotlib.axis_2">
    <g id="ytick_1">
     <g id="line2d_7">
      <defs>
       <path d="M 0 0 
L -3.5 0 
" id="md122a28995" style="stroke:#000000;stroke-width:0.8;"/>
      </defs>
      <g>
       <use style="stroke:#000000;stroke-width:0.8;" x="57.6" xlink:href="#md122a28995" y="295.437736"/>
      </g>
     </g>
     <g id="text_7">
      <!-- 0 -->
      <g transform="translate(44.2375 299.236954)scale(0.1 -0.1)">
       <use xlink:href="#DejaVuSans-48"/>
      </g>
     </g>
    </g>
    <g id="ytick_2">
     <g id="line2d_8">
      <g>
       <use style="stroke:#000000;stroke-width:0.8;" x="57.6" xlink:href="#md122a28995" y="262.78475"/>
      </g>
     </g>
     <g id="text_8">
      <!-- 25 -->
      <g transform="translate(37.875 266.583969)scale(0.1 -0.1)">
       <defs>
        <path d="M 19.1875 8.296875 
L 53.609375 8.296875 
L 53.609375 0 
L 7.328125 0 
L 7.328125 8.296875 
Q 12.9375 14.109375 22.625 23.890625 
Q 32.328125 33.6875 34.8125 36.53125 
Q 39.546875 41.84375 41.421875 45.53125 
Q 43.3125 49.21875 43.3125 52.78125 
Q 43.3125 58.59375 39.234375 62.25 
Q 35.15625 65.921875 28.609375 65.921875 
Q 23.96875 65.921875 18.8125 64.3125 
Q 13.671875 62.703125 7.8125 59.421875 
L 7.8125 69.390625 
Q 13.765625 71.78125 18.9375 73 
Q 24.125 74.21875 28.421875 74.21875 
Q 39.75 74.21875 46.484375 68.546875 
Q 53.21875 62.890625 53.21875 53.421875 
Q 53.21875 48.921875 51.53125 44.890625 
Q 49.859375 40.875 45.40625 35.40625 
Q 44.1875 33.984375 37.640625 27.21875 
Q 31.109375 20.453125 19.1875 8.296875 
z
" id="DejaVuSans-50"/>
       </defs>
       <use xlink:href="#DejaVuSans-50"/>
       <use x="63.623047" xlink:href="#DejaVuSans-53"/>
      </g>
     </g>
    </g>
    <g id="ytick_3">
     <g id="line2d_9">
      <g>
       <use style="stroke:#000000;stroke-width:0.8;" x="57.6" xlink:href="#md122a28995" y="230.131765"/>
      </g>
     </g>
     <g id="text_9">
      <!-- 50 -->
      <g transform="translate(37.875 233.930984)scale(0.1 -0.1)">
       <use xlink:href="#DejaVuSans-53"/>
       <use x="63.623047" xlink:href="#DejaVuSans-48"/>
      </g>
     </g>
    </g>
    <g id="ytick_4">
     <g id="line2d_10">
      <g>
       <use style="stroke:#000000;stroke-width:0.8;" x="57.6" xlink:href="#md122a28995" y="197.47878"/>
      </g>
     </g>
     <g id="text_10">
      <!-- 75 -->
      <g transform="translate(37.875 201.277999)scale(0.1 -0.1)">
       <defs>
        <path d="M 8.203125 72.90625 
L 55.078125 72.90625 
L 55.078125 68.703125 
L 28.609375 0 
L 18.3125 0 
L 43.21875 64.59375 
L 8.203125 64.59375 
z
" id="DejaVuSans-55"/>
       </defs>
       <use xlink:href="#DejaVuSans-55"/>
       <use x="63.623047" xlink:href="#DejaVuSans-53"/>
      </g>
     </g>
    </g>
    <g id="ytick_5">
     <g id="line2d_11">
      <g>
       <use style="stroke:#000000;stroke-width:0.8;" x="57.6" xlink:href="#md122a28995" y="164.825795"/>
      </g>
     </g>
     <g id="text_11">
      <!-- 100 -->
      <g transform="translate(31.5125 168.625013)scale(0.1 -0.1)">
       <use xlink:href="#DejaVuSans-49"/>
       <use x="63.623047" xlink:href="#DejaVuSans-48"/>
       <use x="127.246094" xlink:href="#DejaVuSans-48"/>
      </g>
     </g>
    </g>
    <g id="ytick_6">
     <g id="line2d_12">
      <g>
       <use style="stroke:#000000;stroke-width:0.8;" x="57.6" xlink:href="#md122a28995" y="132.17281"/>
      </g>
     </g>
     <g id="text_12">
      <!-- 125 -->
      <g transform="translate(31.5125 135.972028)scale(0.1 -0.1)">
       <use xlink:href="#DejaVuSans-49"/>
       <use x="63.623047" xlink:href="#DejaVuSans-50"/>
       <use x="127.246094" xlink:href="#DejaVuSans-53"/>
      </g>
     </g>
    </g>
    <g id="ytick_7">
     <g id="line2d_13">
      <g>
       <use style="stroke:#000000;stroke-width:0.8;" x="57.6" xlink:href="#md122a28995" y="99.519824"/>
      </g>
     </g>
     <g id="text_13">
      <!-- 150 -->
      <g transform="translate(31.5125 103.319043)scale(0.1 -0.1)">
       <use xlink:href="#DejaVuSans-49"/>
       <use x="63.623047" xlink:href="#DejaVuSans-53"/>
       <use x="127.246094" xlink:href="#DejaVuSans-48"/>
      </g>
     </g>
    </g>
    <g id="ytick_8">
     <g id="line2d_14">
      <g>
       <use style="stroke:#000000;stroke-width:0.8;" x="57.6" xlink:href="#md122a28995" y="66.866839"/>
      </g>
     </g>
     <g id="text_14">
      <!-- 175 -->
      <g transform="translate(31.5125 70.666058)scale(0.1 -0.1)">
       <use xlink:href="#DejaVuSans-49"/>
       <use x="63.623047" xlink:href="#DejaVuSans-55"/>
       <use x="127.246094" xlink:href="#DejaVuSans-53"/>
      </g>
     </g>
    </g>
   </g>
   <g id="line2d_15">
    <path clip-path="url(#p4265f942e9)" d="M 260.14663 295.437736 
L 260.412915 278.254278 
L 260.839949 259.341329 
L 261.33321 252.398879 
L 261.949786 243.720816 
L 262.050965 238.563791 
L 261.913109 235.163826 
L 261.558746 231.803988 
L 260.63743 226.73011 
L 259.49274 221.362904 
L 258.066768 215.935211 
L 256.917765 212.416078 
L 255.580615 209.069461 
L 254.030067 205.97512 
L 252.240866 203.212813 
L 251.24888 201.981097 
L 250.187761 200.8623 
L 249.054353 199.866391 
L 247.793398 199.038856 
L 246.36566 198.403258 
L 244.792012 197.936679 
L 243.093329 197.616203 
L 239.404355 197.321896 
L 235.465733 197.337006 
L 227.507517 197.562152 
L 223.821912 197.405528 
L 222.125545 197.179708 
L 220.554634 196.824996 
L 219.130054 196.318475 
L 217.872678 195.637228 
L 216.80338 194.758339 
L 215.865672 193.676576 
L 214.990875 192.415031 
L 214.181586 190.993271 
L 213.440397 189.430864 
L 212.172701 185.96238 
L 211.208544 182.166119 
L 210.568682 178.198624 
L 210.273869 174.216435 
L 210.344863 170.376094 
L 210.80242 166.834143 
L 211.182645 165.223982 
L 211.667295 163.747122 
L 212.258963 162.42313 
L 213.029432 161.252484 
L 214.031455 160.212366 
L 215.23909 159.287396 
L 216.626389 158.462196 
L 218.167408 157.721386 
L 221.606826 156.431425 
L 227.270224 154.744946 
L 231.07931 153.60685 
L 234.67303 152.314195 
L 236.324265 151.571462 
L 237.843823 150.743953 
L 239.20576 149.81629 
L 240.384129 148.773094 
L 241.352986 147.598985 
L 242.164423 146.301552 
L 242.889705 144.904921 
L 244.09307 141.851799 
L 244.985604 138.515075 
L 245.589831 134.970208 
L 245.928277 131.292654 
L 246.023464 127.557872 
L 245.897917 123.841319 
L 245.57416 120.218452 
L 245.074717 116.764728 
L 244.371927 113.534356 
L 243.85186 111.972796 
L 242.488604 108.922972 
L 240.785186 105.948231 
L 238.850409 103.0214 
L 232.745939 94.256639 
L 230.973743 91.249719 
L 229.514199 88.154844 
L 228.446323 84.951111 
L 227.643864 81.664205 
L 227.041832 78.312178 
L 226.423873 73.191505 
L 225.914389 66.261766 
L 225.316411 57.586961 
L 224.956273 54.156337 
L 224.956273 54.156337 
" style="fill:none;stroke:#fea952;stroke-linecap:square;"/>
   </g>
   <g id="line2d_16">
    <path clip-path="url(#p4265f942e9)" d="M 254.922394 295.387471 
L 255.189483 278.149714 
L 255.624323 259.037337 
L 256.126057 251.973762 
L 256.729281 243.517101 
L 256.82828 238.700646 
L 256.708474 235.618741 
L 256.40302 232.648771 
L 255.515765 227.761475 
L 254.415117 222.59291 
L 253.078127 217.487185 
L 252.031657 214.265706 
L 250.85543 211.298315 
L 249.559265 208.678284 
L 248.171914 206.489822 
L 246.739235 204.786944 
L 245.668611 203.811743 
L 244.880531 203.412205 
L 243.823441 203.070589 
L 242.524997 202.809676 
L 239.351634 202.546107 
L 235.637893 202.558646 
L 227.405572 202.785635 
L 223.132515 202.584321 
L 220.974827 202.275885 
L 218.804372 201.747572 
L 216.641247 200.912058 
L 214.555284 199.673323 
L 212.855626 198.180385 
L 211.572408 196.653664 
L 210.450439 194.999524 
L 209.461315 193.232515 
L 208.586712 191.363972 
L 207.815367 189.405006 
L 206.559321 185.264226 
L 205.672315 180.915164 
L 205.159398 176.470505 
L 205.042824 172.041178 
L 205.14557 169.863729 
L 205.366369 167.725113 
L 205.717786 165.633451 
L 206.218624 163.594979 
L 206.897432 161.615557 
L 207.89487 159.550873 
L 209.266909 157.627765 
L 210.854629 156.064723 
L 212.568224 154.797224 
L 214.362814 153.753545 
L 216.216377 152.874878 
L 220.041426 151.446981 
L 225.812533 149.727945 
L 231.046441 148.10904 
L 233.825635 146.983215 
L 235.742681 145.904481 
L 236.354473 145.447881 
L 236.923468 144.82869 
L 238.093417 142.833501 
L 239.082594 140.371833 
L 239.855127 137.52848 
L 240.396702 134.398742 
L 240.7082 131.078267 
L 240.799991 127.660337 
L 240.688375 124.236083 
L 240.393775 120.895787 
L 239.940344 117.730844 
L 239.415121 115.185186 
L 238.514805 112.708477 
L 237.192154 110.115038 
L 235.515946 107.412835 
L 232.544818 103.156276 
L 229.345697 98.599506 
L 227.277753 95.330437 
L 225.41315 91.812476 
L 224.605005 89.942296 
L 223.392914 86.277093 
L 222.514864 82.658454 
L 221.868378 79.040559 
L 221.219221 73.646222 
L 220.699544 66.578872 
L 220.116174 58.089647 
L 219.765028 54.744674 
L 219.765028 54.744674 
" style="fill:none;stroke:#ffffff;stroke-linecap:square;"/>
   </g>
   <g id="line2d_17">
    <path clip-path="url(#p4265f942e9)" d="M 265.370866 295.488 
L 265.636346 278.358841 
L 266.152978 257.969121 
L 267.277176 240.27093 
L 267.222904 236.572583 
L 266.950779 232.837228 
L 266.421541 229.179811 
L 264.997453 222.020955 
L 263.603729 216.305101 
L 262.457283 212.467568 
L 261.089037 208.688083 
L 259.446155 205.032314 
L 258.500869 203.271955 
L 257.459371 201.56928 
L 256.309819 199.935803 
L 255.039564 198.385838 
L 253.636288 196.937655 
L 251.920876 195.49853 
L 249.918185 194.26597 
L 247.850789 193.39431 
L 245.760582 192.802768 
L 243.661661 192.42273 
L 241.558866 192.201334 
L 237.364537 192.078552 
L 224.511309 192.226734 
L 222.304897 191.902421 
L 221.190072 191.601133 
L 220.751134 191.336292 
L 220.158935 190.699488 
L 219.531312 189.830538 
L 218.294082 187.497756 
L 217.204682 184.557268 
L 216.347278 181.223474 
L 215.769268 177.699558 
L 215.498255 174.185518 
L 215.544157 170.888459 
L 215.887054 168.034835 
L 216.437158 165.878688 
L 216.791954 164.877204 
L 217.208282 164.360008 
L 217.909956 163.777568 
L 218.889964 163.170847 
L 221.558252 161.982105 
L 224.925693 160.864233 
L 234.785686 157.866023 
L 236.816197 157.078857 
L 238.822896 156.159709 
L 240.784952 155.061931 
L 242.668839 153.728099 
L 244.413785 152.098306 
L 245.782504 150.36928 
L 246.800978 148.709356 
L 247.685994 146.976341 
L 248.449891 145.180928 
L 249.656294 141.436357 
L 250.489689 137.534501 
L 251.001005 133.530145 
L 251.229089 129.479652 
L 251.205331 125.441844 
L 250.956283 121.477134 
L 250.504742 117.645892 
L 249.837184 113.867973 
L 249.328733 111.883526 
L 248.682999 109.984011 
L 247.9243 108.165124 
L 246.153077 104.740791 
L 244.163888 101.548215 
L 241.041329 97.074337 
L 237.196879 91.520895 
L 235.636551 88.893155 
L 234.423392 86.367392 
L 233.499732 83.625129 
L 232.772864 80.669957 
L 232.215286 77.583797 
L 231.628524 72.736788 
L 231.129235 65.94466 
L 230.516649 57.084274 
L 230.147518 53.568 
L 230.147518 53.568 
" style="fill:none;stroke:#ffffff;stroke-linecap:square;"/>
   </g>
   <g id="patch_3">
    <path d="M 57.6 307.584 
L 57.6 41.472 
" style="fill:none;stroke:#000000;stroke-linecap:square;stroke-linejoin:miter;stroke-width:0.8;"/>
   </g>
   <g id="patch_4">
    <path d="M 414.72 307.584 
L 414.72 41.472 
" style="fill:none;stroke:#000000;stroke-linecap:square;stroke-linejoin:miter;stroke-width:0.8;"/>
   </g>
   <g id="patch_5">
    <path d="M 57.6 307.584 
L 414.72 307.584 
" style="fill:none;stroke:#000000;stroke-linecap:square;stroke-linejoin:miter;stroke-width:0.8;"/>
   </g>
   <g id="patch_6">
    <path d="M 57.6 41.472 
L 414.72 41.472 
" style="fill:none;stroke:#000000;stroke-linecap:square;stroke-linejoin:miter;stroke-width:0.8;"/>
   </g>
  </g>
 </g>
 <defs>
  <clipPath id="p4265f942e9">
   <rect height="266.112" width="357.12" x="57.6" y="41.472"/>
  </clipPath>
 </defs>
</svg>
