<?xml version="1.0" encoding="utf-8" standalone="no"?>
<!DOCTYPE svg PUBLIC "-//W3C//DTD SVG 1.1//EN"
  "http://www.w3.org/Graphics/SVG/1.1/DTD/svg11.dtd">
<!-- Created with matplotlib (https://matplotlib.org/) -->
<svg height="345.6pt" version="1.1" viewBox="0 0 460.8 345.6" width="460.8pt" xmlns="http://www.w3.org/2000/svg" xmlns:xlink="http://www.w3.org/1999/xlink">
 <metadata>
  <rdf:RDF xmlns:cc="http://creativecommons.org/ns#" xmlns:dc="http://purl.org/dc/elements/1.1/" xmlns:rdf="http://www.w3.org/1999/02/22-rdf-syntax-ns#">
   <cc:Work>
    <dc:type rdf:resource="http://purl.org/dc/dcmitype/StillImage"/>
    <dc:date>2021-06-24T08:54:34.151499</dc:date>
    <dc:format>image/svg+xml</dc:format>
    <dc:creator>
     <cc:Agent>
      <dc:title>Matplotlib v3.3.3, https://matplotlib.org/</dc:title>
     </cc:Agent>
    </dc:creator>
   </cc:Work>
  </rdf:RDF>
 </metadata>
 <defs>
  <style type="text/css">*{stroke-linecap:butt;stroke-linejoin:round;}</style>
 </defs>
 <g id="figure_1">
  <g id="patch_1">
   <path d="M 0 345.6 
L 460.8 345.6 
L 460.8 0 
L 0 0 
z
" style="fill:#ffffff;"/>
  </g>
  <g id="axes_1">
   <g id="patch_2">
    <path d="M 57.6 307.584 
L 414.72 307.584 
L 414.72 41.472 
L 57.6 41.472 
z
" style="fill:#7d9051;"/>
   </g>
   <g id="matplotlib.axis_1">
    <g id="xtick_1">
     <g id="line2d_1">
      <defs>
       <path d="M 0 0 
L 0 3.5 
" id="md24c57cadd" style="stroke:#000000;stroke-width:0.8;"/>
      </defs>
      <g>
       <use style="stroke:#000000;stroke-width:0.8;" x="75.811461" xlink:href="#md24c57cadd" y="307.584"/>
      </g>
     </g>
     <g id="text_1">
      <!-- −20 -->
      <g transform="translate(65.259118 322.182437)scale(0.1 -0.1)">
       <defs>
        <path d="M 10.59375 35.5 
L 73.1875 35.5 
L 73.1875 27.203125 
L 10.59375 27.203125 
z
" id="DejaVuSans-8722"/>
        <path d="M 19.1875 8.296875 
L 53.609375 8.296875 
L 53.609375 0 
L 7.328125 0 
L 7.328125 8.296875 
Q 12.9375 14.109375 22.625 23.890625 
Q 32.328125 33.6875 34.8125 36.53125 
Q 39.546875 41.84375 41.421875 45.53125 
Q 43.3125 49.21875 43.3125 52.78125 
Q 43.3125 58.59375 39.234375 62.25 
Q 35.15625 65.921875 28.609375 65.921875 
Q 23.96875 65.921875 18.8125 64.3125 
Q 13.671875 62.703125 7.8125 59.421875 
L 7.8125 69.390625 
Q 13.765625 71.78125 18.9375 73 
Q 24.125 74.21875 28.421875 74.21875 
Q 39.75 74.21875 46.484375 68.546875 
Q 53.21875 62.890625 53.21875 53.421875 
Q 53.21875 48.921875 51.53125 44.890625 
Q 49.859375 40.875 45.40625 35.40625 
Q 44.1875 33.984375 37.640625 27.21875 
Q 31.109375 20.453125 19.1875 8.296875 
z
" id="DejaVuSans-50"/>
        <path d="M 31.78125 66.40625 
Q 24.171875 66.40625 20.328125 58.90625 
Q 16.5 51.421875 16.5 36.375 
Q 16.5 21.390625 20.328125 13.890625 
Q 24.171875 6.390625 31.78125 6.390625 
Q 39.453125 6.390625 43.28125 13.890625 
Q 47.125 21.390625 47.125 36.375 
Q 47.125 51.421875 43.28125 58.90625 
Q 39.453125 66.40625 31.78125 66.40625 
z
M 31.78125 74.21875 
Q 44.046875 74.21875 50.515625 64.515625 
Q 56.984375 54.828125 56.984375 36.375 
Q 56.984375 17.96875 50.515625 8.265625 
Q 44.046875 -1.421875 31.78125 -1.421875 
Q 19.53125 -1.421875 13.0625 8.265625 
Q 6.59375 17.96875 6.59375 36.375 
Q 6.59375 54.828125 13.0625 64.515625 
Q 19.53125 74.21875 31.78125 74.21875 
z
" id="DejaVuSans-48"/>
       </defs>
       <use xlink:href="#DejaVuSans-8722"/>
       <use x="83.789062" xlink:href="#DejaVuSans-50"/>
       <use x="147.412109" xlink:href="#DejaVuSans-48"/>
      </g>
     </g>
    </g>
    <g id="xtick_2">
     <g id="line2d_2">
      <g>
       <use style="stroke:#000000;stroke-width:0.8;" x="121.117801" xlink:href="#md24c57cadd" y="307.584"/>
      </g>
     </g>
     <g id="text_2">
      <!-- 0 -->
      <g transform="translate(117.936551 322.182437)scale(0.1 -0.1)">
       <use xlink:href="#DejaVuSans-48"/>
      </g>
     </g>
    </g>
    <g id="xtick_3">
     <g id="line2d_3">
      <g>
       <use style="stroke:#000000;stroke-width:0.8;" x="166.424141" xlink:href="#md24c57cadd" y="307.584"/>
      </g>
     </g>
     <g id="text_3">
      <!-- 20 -->
      <g transform="translate(160.061641 322.182437)scale(0.1 -0.1)">
       <use xlink:href="#DejaVuSans-50"/>
       <use x="63.623047" xlink:href="#DejaVuSans-48"/>
      </g>
     </g>
    </g>
    <g id="xtick_4">
     <g id="line2d_4">
      <g>
       <use style="stroke:#000000;stroke-width:0.8;" x="211.73048" xlink:href="#md24c57cadd" y="307.584"/>
      </g>
     </g>
     <g id="text_4">
      <!-- 40 -->
      <g transform="translate(205.36798 322.182437)scale(0.1 -0.1)">
       <defs>
        <path d="M 37.796875 64.3125 
L 12.890625 25.390625 
L 37.796875 25.390625 
z
M 35.203125 72.90625 
L 47.609375 72.90625 
L 47.609375 25.390625 
L 58.015625 25.390625 
L 58.015625 17.1875 
L 47.609375 17.1875 
L 47.609375 0 
L 37.796875 0 
L 37.796875 17.1875 
L 4.890625 17.1875 
L 4.890625 26.703125 
z
" id="DejaVuSans-52"/>
       </defs>
       <use xlink:href="#DejaVuSans-52"/>
       <use x="63.623047" xlink:href="#DejaVuSans-48"/>
      </g>
     </g>
    </g>
    <g id="xtick_5">
     <g id="line2d_5">
      <g>
       <use style="stroke:#000000;stroke-width:0.8;" x="257.03682" xlink:href="#md24c57cadd" y="307.584"/>
      </g>
     </g>
     <g id="text_5">
      <!-- 60 -->
      <g transform="translate(250.67432 322.182437)scale(0.1 -0.1)">
       <defs>
        <path d="M 33.015625 40.375 
Q 26.375 40.375 22.484375 35.828125 
Q 18.609375 31.296875 18.609375 23.390625 
Q 18.609375 15.53125 22.484375 10.953125 
Q 26.375 6.390625 33.015625 6.390625 
Q 39.65625 6.390625 43.53125 10.953125 
Q 47.40625 15.53125 47.40625 23.390625 
Q 47.40625 31.296875 43.53125 35.828125 
Q 39.65625 40.375 33.015625 40.375 
z
M 52.59375 71.296875 
L 52.59375 62.3125 
Q 48.875 64.0625 45.09375 64.984375 
Q 41.3125 65.921875 37.59375 65.921875 
Q 27.828125 65.921875 22.671875 59.328125 
Q 17.53125 52.734375 16.796875 39.40625 
Q 19.671875 43.65625 24.015625 45.921875 
Q 28.375 48.1875 33.59375 48.1875 
Q 44.578125 48.1875 50.953125 41.515625 
Q 57.328125 34.859375 57.328125 23.390625 
Q 57.328125 12.15625 50.6875 5.359375 
Q 44.046875 -1.421875 33.015625 -1.421875 
Q 20.359375 -1.421875 13.671875 8.265625 
Q 6.984375 17.96875 6.984375 36.375 
Q 6.984375 53.65625 15.1875 63.9375 
Q 23.390625 74.21875 37.203125 74.21875 
Q 40.921875 74.21875 44.703125 73.484375 
Q 48.484375 72.75 52.59375 71.296875 
z
" id="DejaVuSans-54"/>
       </defs>
       <use xlink:href="#DejaVuSans-54"/>
       <use x="63.623047" xlink:href="#DejaVuSans-48"/>
      </g>
     </g>
    </g>
    <g id="xtick_6">
     <g id="line2d_6">
      <g>
       <use style="stroke:#000000;stroke-width:0.8;" x="302.34316" xlink:href="#md24c57cadd" y="307.584"/>
      </g>
     </g>
     <g id="text_6">
      <!-- 80 -->
      <g transform="translate(295.98066 322.182437)scale(0.1 -0.1)">
       <defs>
        <path d="M 31.78125 34.625 
Q 24.75 34.625 20.71875 30.859375 
Q 16.703125 27.09375 16.703125 20.515625 
Q 16.703125 13.921875 20.71875 10.15625 
Q 24.75 6.390625 31.78125 6.390625 
Q 38.8125 6.390625 42.859375 10.171875 
Q 46.921875 13.96875 46.921875 20.515625 
Q 46.921875 27.09375 42.890625 30.859375 
Q 38.875 34.625 31.78125 34.625 
z
M 21.921875 38.8125 
Q 15.578125 40.375 12.03125 44.71875 
Q 8.5 49.078125 8.5 55.328125 
Q 8.5 64.0625 14.71875 69.140625 
Q 20.953125 74.21875 31.78125 74.21875 
Q 42.671875 74.21875 48.875 69.140625 
Q 55.078125 64.0625 55.078125 55.328125 
Q 55.078125 49.078125 51.53125 44.71875 
Q 48 40.375 41.703125 38.8125 
Q 48.828125 37.15625 52.796875 32.3125 
Q 56.78125 27.484375 56.78125 20.515625 
Q 56.78125 9.90625 50.3125 4.234375 
Q 43.84375 -1.421875 31.78125 -1.421875 
Q 19.734375 -1.421875 13.25 4.234375 
Q 6.78125 9.90625 6.78125 20.515625 
Q 6.78125 27.484375 10.78125 32.3125 
Q 14.796875 37.15625 21.921875 38.8125 
z
M 18.3125 54.390625 
Q 18.3125 48.734375 21.84375 45.5625 
Q 25.390625 42.390625 31.78125 42.390625 
Q 38.140625 42.390625 41.71875 45.5625 
Q 45.3125 48.734375 45.3125 54.390625 
Q 45.3125 60.0625 41.71875 63.234375 
Q 38.140625 66.40625 31.78125 66.40625 
Q 25.390625 66.40625 21.84375 63.234375 
Q 18.3125 60.0625 18.3125 54.390625 
z
" id="DejaVuSans-56"/>
       </defs>
       <use xlink:href="#DejaVuSans-56"/>
       <use x="63.623047" xlink:href="#DejaVuSans-48"/>
      </g>
     </g>
    </g>
    <g id="xtick_7">
     <g id="line2d_7">
      <g>
       <use style="stroke:#000000;stroke-width:0.8;" x="347.649499" xlink:href="#md24c57cadd" y="307.584"/>
      </g>
     </g>
     <g id="text_7">
      <!-- 100 -->
      <g transform="translate(338.105749 322.182437)scale(0.1 -0.1)">
       <defs>
        <path d="M 12.40625 8.296875 
L 28.515625 8.296875 
L 28.515625 63.921875 
L 10.984375 60.40625 
L 10.984375 69.390625 
L 28.421875 72.90625 
L 38.28125 72.90625 
L 38.28125 8.296875 
L 54.390625 8.296875 
L 54.390625 0 
L 12.40625 0 
z
" id="DejaVuSans-49"/>
       </defs>
       <use xlink:href="#DejaVuSans-49"/>
       <use x="63.623047" xlink:href="#DejaVuSans-48"/>
       <use x="127.246094" xlink:href="#DejaVuSans-48"/>
      </g>
     </g>
    </g>
    <g id="xtick_8">
     <g id="line2d_8">
      <g>
       <use style="stroke:#000000;stroke-width:0.8;" x="392.955839" xlink:href="#md24c57cadd" y="307.584"/>
      </g>
     </g>
     <g id="text_8">
      <!-- 120 -->
      <g transform="translate(383.412089 322.182437)scale(0.1 -0.1)">
       <use xlink:href="#DejaVuSans-49"/>
       <use x="63.623047" xlink:href="#DejaVuSans-50"/>
       <use x="127.246094" xlink:href="#DejaVuSans-48"/>
      </g>
     </g>
    </g>
   </g>
   <g id="matplotlib.axis_2">
    <g id="ytick_1">
     <g id="line2d_9">
      <defs>
       <path d="M 0 0 
L -3.5 0 
" id="mdb4cd457c7" style="stroke:#000000;stroke-width:0.8;"/>
      </defs>
      <g>
       <use style="stroke:#000000;stroke-width:0.8;" x="57.6" xlink:href="#mdb4cd457c7" y="295.400822"/>
      </g>
     </g>
     <g id="text_9">
      <!-- 0 -->
      <g transform="translate(44.2375 299.200041)scale(0.1 -0.1)">
       <use xlink:href="#DejaVuSans-48"/>
      </g>
     </g>
    </g>
    <g id="ytick_2">
     <g id="line2d_10">
      <g>
       <use style="stroke:#000000;stroke-width:0.8;" x="57.6" xlink:href="#mdb4cd457c7" y="250.094482"/>
      </g>
     </g>
     <g id="text_10">
      <!-- 20 -->
      <g transform="translate(37.875 253.893701)scale(0.1 -0.1)">
       <use xlink:href="#DejaVuSans-50"/>
       <use x="63.623047" xlink:href="#DejaVuSans-48"/>
      </g>
     </g>
    </g>
    <g id="ytick_3">
     <g id="line2d_11">
      <g>
       <use style="stroke:#000000;stroke-width:0.8;" x="57.6" xlink:href="#mdb4cd457c7" y="204.788143"/>
      </g>
     </g>
     <g id="text_11">
      <!-- 40 -->
      <g transform="translate(37.875 208.587361)scale(0.1 -0.1)">
       <use xlink:href="#DejaVuSans-52"/>
       <use x="63.623047" xlink:href="#DejaVuSans-48"/>
      </g>
     </g>
    </g>
    <g id="ytick_4">
     <g id="line2d_12">
      <g>
       <use style="stroke:#000000;stroke-width:0.8;" x="57.6" xlink:href="#mdb4cd457c7" y="159.481803"/>
      </g>
     </g>
     <g id="text_12">
      <!-- 60 -->
      <g transform="translate(37.875 163.281022)scale(0.1 -0.1)">
       <use xlink:href="#DejaVuSans-54"/>
       <use x="63.623047" xlink:href="#DejaVuSans-48"/>
      </g>
     </g>
    </g>
    <g id="ytick_5">
     <g id="line2d_13">
      <g>
       <use style="stroke:#000000;stroke-width:0.8;" x="57.6" xlink:href="#mdb4cd457c7" y="114.175463"/>
      </g>
     </g>
     <g id="text_13">
      <!-- 80 -->
      <g transform="translate(37.875 117.974682)scale(0.1 -0.1)">
       <use xlink:href="#DejaVuSans-56"/>
       <use x="63.623047" xlink:href="#DejaVuSans-48"/>
      </g>
     </g>
    </g>
    <g id="ytick_6">
     <g id="line2d_14">
      <g>
       <use style="stroke:#000000;stroke-width:0.8;" x="57.6" xlink:href="#mdb4cd457c7" y="68.869124"/>
      </g>
     </g>
     <g id="text_14">
      <!-- 100 -->
      <g transform="translate(31.5125 72.668342)scale(0.1 -0.1)">
       <use xlink:href="#DejaVuSans-49"/>
       <use x="63.623047" xlink:href="#DejaVuSans-48"/>
       <use x="127.246094" xlink:href="#DejaVuSans-48"/>
      </g>
     </g>
    </g>
   </g>
   <g id="line2d_15">
    <path clip-path="url(#pe66880b3e3)" d="M 121.117801 295.400822 
L 121.409315 274.538604 
L 122.114517 232.797467 
L 121.873684 223.77964 
L 121.3597 208.728042 
L 121.311739 202.738044 
L 121.455187 196.785251 
L 121.857601 190.882797 
L 122.586537 185.043812 
L 123.667157 179.245242 
L 125.572859 170.300005 
L 127.047418 164.251986 
L 128.729574 158.231899 
L 130.657317 152.32165 
L 132.868642 146.603142 
L 135.401539 141.158282 
L 136.800451 138.564064 
L 138.294002 136.068973 
L 139.886942 133.683245 
L 141.584021 131.417119 
L 143.389988 129.280834 
L 145.341802 127.299167 
L 147.462583 125.479258 
L 149.736317 123.804883 
L 152.146989 122.25982 
L 154.678587 120.827846 
L 157.315096 119.49274 
L 162.838792 117.048238 
L 168.589965 114.796535 
L 180.262298 110.352403 
L 185.927235 107.900415 
L 188.660848 106.560162 
L 191.307206 105.122106 
L 193.850293 103.570024 
L 196.3025 101.884569 
L 198.692443 100.069919 
L 203.318838 96.129299 
L 207.79608 91.900701 
L 220.998922 79.012381 
L 225.545586 75.157216 
L 227.883704 73.398111 
L 230.276113 71.776747 
L 232.731139 70.312191 
L 235.257106 69.02351 
L 237.862342 67.92977 
L 240.557327 66.985438 
L 246.201438 65.371306 
L 252.117938 64.125537 
L 258.227071 63.250919 
L 264.449079 62.750234 
L 270.704206 62.626269 
L 276.912695 62.881809 
L 282.99479 63.519639 
L 288.870732 64.542544 
L 291.706473 65.19927 
L 294.460767 65.953309 
L 299.965002 67.803685 
L 305.570699 70.11823 
L 311.178828 72.858938 
L 316.69036 75.987806 
L 322.006266 79.46683 
L 327.027516 83.258004 
L 329.396699 85.258772 
L 331.655081 87.323326 
L 333.790285 89.446916 
L 335.789932 91.624791 
L 337.641643 93.8522 
L 339.33304 96.124393 
L 340.851743 98.43662 
L 342.240796 100.853838 
L 343.548349 103.432198 
L 344.76968 106.153743 
L 345.900071 109.000516 
L 346.934802 111.95456 
L 347.869152 114.997916 
L 348.698402 118.112628 
L 349.417831 121.280739 
L 350.02272 124.484289 
L 350.50835 127.705323 
L 350.869999 130.925883 
L 351.102948 134.128011 
L 351.202477 137.29375 
L 351.163867 140.405143 
L 350.982397 143.444231 
L 350.653347 146.393058 
L 350.171999 149.233667 
L 349.53363 151.948099 
L 348.733523 154.518397 
L 347.718 156.963555 
L 346.450907 159.319627 
L 344.953807 161.59425 
L 343.248264 163.795059 
L 341.355841 165.92969 
L 339.298101 168.005779 
L 337.096606 170.030962 
L 332.348607 173.959154 
L 327.284349 177.775352 
L 314.372133 187.226764 
L 309.559444 191.132048 
L 307.314824 193.141959 
L 307.314824 193.141959 
" style="fill:none;stroke:#fea952;stroke-linecap:square;"/>
   </g>
   <g id="line2d_16">
    <path clip-path="url(#pe66880b3e3)" d="M 112.056952 295.313644 
L 112.349584 274.371704 
L 113.054767 232.963338 
L 112.818903 224.122461 
L 112.299394 208.860026 
L 112.251438 202.605641 
L 112.407914 196.281824 
L 112.84977 189.900169 
L 113.661961 183.475845 
L 114.787986 177.437785 
L 116.754131 168.217554 
L 118.297744 161.896191 
L 120.081961 155.525356 
L 122.15829 149.179499 
L 124.584382 142.931955 
L 125.948763 139.868253 
L 127.425955 136.857512 
L 129.025665 133.91011 
L 130.758153 131.037317 
L 132.634066 128.251638 
L 134.664123 125.567198 
L 136.934263 122.92236 
L 139.440888 120.422701 
L 142.089544 118.182887 
L 144.846796 116.176045 
L 147.6858 114.372845 
L 150.584982 112.743975 
L 153.52641 111.261553 
L 159.474088 108.634835 
L 165.411429 106.311048 
L 176.773174 101.989832 
L 181.93826 99.764405 
L 186.586698 97.387548 
L 188.717728 96.102538 
L 190.822945 94.667849 
L 192.930326 93.076737 
L 197.159952 89.482894 
L 201.431196 85.451295 
L 212.621358 74.417868 
L 217.511135 70.025531 
L 220.097898 67.91641 
L 222.800205 65.897137 
L 225.63386 63.99497 
L 228.613258 62.240659 
L 231.74954 60.668658 
L 234.865874 59.378293 
L 237.902141 58.321918 
L 241.010635 57.375845 
L 244.18358 56.537573 
L 247.413164 55.805185 
L 254.010686 54.652736 
L 260.739425 53.91159 
L 267.534834 53.57982 
L 274.33217 53.659687 
L 281.067179 54.157616 
L 284.391522 54.566667 
L 287.67672 55.084946 
L 290.915114 55.714912 
L 294.09912 56.459601 
L 297.194174 57.314151 
L 300.230565 58.280775 
L 306.353054 60.58628 
L 312.484074 63.358798 
L 318.547704 66.567364 
L 324.463133 70.185409 
L 327.339124 72.141039 
L 330.146352 74.191471 
L 332.873885 76.335104 
L 335.510555 78.570922 
L 338.044868 80.898592 
L 340.464855 83.318564 
L 342.757853 85.832153 
L 344.910186 88.441575 
L 346.906734 91.149885 
L 348.708202 93.921908 
L 350.322275 96.755513 
L 351.815333 99.722272 
L 353.191315 102.809697 
L 354.451889 106.00502 
L 355.597024 109.295145 
L 356.625403 112.666684 
L 357.534701 116.10604 
L 358.321766 119.599512 
L 358.982726 123.133406 
L 359.513021 126.694154 
L 359.907384 130.268429 
L 360.159741 133.84327 
L 360.263048 137.406186 
L 360.209024 140.945247 
L 359.987773 144.44911 
L 359.587258 147.906934 
L 358.992625 151.308063 
L 358.185405 154.641308 
L 357.101765 157.993896 
L 355.698391 161.2554 
L 354.019871 164.301329 
L 352.116102 167.144755 
L 350.028663 169.806113 
L 347.791501 172.308471 
L 345.432776 174.674537 
L 342.976792 176.925162 
L 337.860001 181.151588 
L 332.607642 185.108096 
L 319.985945 194.339547 
L 315.604067 197.882538 
L 313.359446 199.892449 
L 313.359446 199.892449 
" style="fill:none;stroke:#ffffff;stroke-linecap:square;"/>
   </g>
   <g id="line2d_17">
    <path clip-path="url(#pe66880b3e3)" d="M 130.17865 295.488 
L 130.469046 274.705505 
L 131.174267 232.631597 
L 130.928464 223.436819 
L 130.420007 208.596058 
L 130.372039 202.870446 
L 130.502459 197.288678 
L 130.865432 191.865425 
L 131.511113 186.611778 
L 132.546328 181.052699 
L 134.391588 172.382457 
L 135.797093 166.607781 
L 137.377186 160.938442 
L 139.156345 155.463801 
L 141.152902 150.27433 
L 143.377124 145.459052 
L 145.829851 141.100628 
L 147.139819 139.114852 
L 148.50392 137.267041 
L 149.845713 135.639308 
L 151.242716 134.175634 
L 152.835622 132.775628 
L 154.625838 131.43372 
L 156.608179 130.146794 
L 158.772193 128.911717 
L 163.586668 126.57682 
L 168.936602 124.367591 
L 186.832195 117.426122 
L 189.916211 116.036425 
L 192.987303 114.521843 
L 196.027713 112.856663 
L 198.982858 111.037511 
L 201.782055 109.101289 
L 204.45456 107.0631 
L 209.477723 102.775705 
L 214.160963 98.350107 
L 226.973828 85.824655 
L 230.993274 82.398022 
L 232.967203 80.899086 
L 234.918366 79.558525 
L 236.849019 78.383724 
L 238.764673 77.378362 
L 240.858809 76.481247 
L 245.670063 74.889155 
L 250.848085 73.599219 
L 256.296135 72.630584 
L 261.918476 71.995731 
L 267.620141 71.702155 
L 273.30636 71.753167 
L 278.881874 72.147912 
L 284.250309 72.88062 
L 289.313826 73.938939 
L 294.157461 75.355427 
L 299.169661 77.224344 
L 304.277224 79.51658 
L 309.358012 82.187091 
L 314.294779 85.186438 
L 318.973473 88.460076 
L 323.282842 91.946622 
L 327.115716 95.575268 
L 328.822011 97.417429 
L 330.373101 99.262825 
L 331.759346 101.098902 
L 332.995284 102.951333 
L 334.159317 104.952163 
L 335.281364 107.142123 
L 336.348046 109.497789 
L 337.348254 111.996013 
L 338.27258 114.613975 
L 339.862103 120.119217 
L 341.062715 125.835172 
L 341.832613 131.583337 
L 342.046155 134.412753 
L 342.141907 137.181314 
L 342.11871 139.865039 
L 341.977021 142.439352 
L 341.719437 144.879183 
L 341.351372 147.15927 
L 340.881856 149.25489 
L 340.36528 151.042898 
L 339.737608 152.67171 
L 338.881942 154.337925 
L 337.791512 156.043744 
L 336.467866 157.784004 
L 334.920181 159.550908 
L 333.163425 161.337021 
L 329.100265 164.946932 
L 324.449932 168.597506 
L 316.767389 174.197508 
L 308.758321 180.11398 
L 303.514822 184.381558 
L 301.270201 186.391469 
L 301.270201 186.391469 
" style="fill:none;stroke:#ffffff;stroke-linecap:square;"/>
   </g>
   <g id="patch_3">
    <path d="M 57.6 307.584 
L 57.6 41.472 
" style="fill:none;stroke:#000000;stroke-linecap:square;stroke-linejoin:miter;stroke-width:0.8;"/>
   </g>
   <g id="patch_4">
    <path d="M 414.72 307.584 
L 414.72 41.472 
" style="fill:none;stroke:#000000;stroke-linecap:square;stroke-linejoin:miter;stroke-width:0.8;"/>
   </g>
   <g id="patch_5">
    <path d="M 57.6 307.584 
L 414.72 307.584 
" style="fill:none;stroke:#000000;stroke-linecap:square;stroke-linejoin:miter;stroke-width:0.8;"/>
   </g>
   <g id="patch_6">
    <path d="M 57.6 41.472 
L 414.72 41.472 
" style="fill:none;stroke:#000000;stroke-linecap:square;stroke-linejoin:miter;stroke-width:0.8;"/>
   </g>
  </g>
 </g>
 <defs>
  <clipPath id="pe66880b3e3">
   <rect height="266.112" width="357.12" x="57.6" y="41.472"/>
  </clipPath>
 </defs>
</svg>
