<?xml version="1.0" encoding="utf-8" standalone="no"?>
<!DOCTYPE svg PUBLIC "-//W3C//DTD SVG 1.1//EN"
  "http://www.w3.org/Graphics/SVG/1.1/DTD/svg11.dtd">
<!-- Created with matplotlib (https://matplotlib.org/) -->
<svg height="345.6pt" version="1.1" viewBox="0 0 460.8 345.6" width="460.8pt" xmlns="http://www.w3.org/2000/svg" xmlns:xlink="http://www.w3.org/1999/xlink">
 <metadata>
  <rdf:RDF xmlns:cc="http://creativecommons.org/ns#" xmlns:dc="http://purl.org/dc/elements/1.1/" xmlns:rdf="http://www.w3.org/1999/02/22-rdf-syntax-ns#">
   <cc:Work>
    <dc:type rdf:resource="http://purl.org/dc/dcmitype/StillImage"/>
    <dc:date>2021-06-19T07:49:37.210038</dc:date>
    <dc:format>image/svg+xml</dc:format>
    <dc:creator>
     <cc:Agent>
      <dc:title>Matplotlib v3.3.3, https://matplotlib.org/</dc:title>
     </cc:Agent>
    </dc:creator>
   </cc:Work>
  </rdf:RDF>
 </metadata>
 <defs>
  <style type="text/css">*{stroke-linecap:butt;stroke-linejoin:round;}</style>
 </defs>
 <g id="figure_1">
  <g id="patch_1">
   <path d="M 0 345.6 
L 460.8 345.6 
L 460.8 0 
L 0 0 
z
" style="fill:#ffffff;"/>
  </g>
  <g id="axes_1">
   <g id="patch_2">
    <path d="M 57.6 307.584 
L 414.72 307.584 
L 414.72 41.472 
L 57.6 41.472 
z
" style="fill:#7d9051;"/>
   </g>
   <g id="matplotlib.axis_1">
    <g id="xtick_1">
     <g id="line2d_1">
      <defs>
       <path d="M 0 0 
L 0 3.5 
" id="m7039250e00" style="stroke:#000000;stroke-width:0.8;"/>
      </defs>
      <g>
       <use style="stroke:#000000;stroke-width:0.8;" x="59.25681" xlink:href="#m7039250e00" y="307.584"/>
      </g>
     </g>
     <g id="text_1">
      <!-- −120 -->
      <g transform="translate(45.523216 322.182437)scale(0.1 -0.1)">
       <defs>
        <path d="M 10.59375 35.5 
L 73.1875 35.5 
L 73.1875 27.203125 
L 10.59375 27.203125 
z
" id="DejaVuSans-8722"/>
        <path d="M 12.40625 8.296875 
L 28.515625 8.296875 
L 28.515625 63.921875 
L 10.984375 60.40625 
L 10.984375 69.390625 
L 28.421875 72.90625 
L 38.28125 72.90625 
L 38.28125 8.296875 
L 54.390625 8.296875 
L 54.390625 0 
L 12.40625 0 
z
" id="DejaVuSans-49"/>
        <path d="M 19.1875 8.296875 
L 53.609375 8.296875 
L 53.609375 0 
L 7.328125 0 
L 7.328125 8.296875 
Q 12.9375 14.109375 22.625 23.890625 
Q 32.328125 33.6875 34.8125 36.53125 
Q 39.546875 41.84375 41.421875 45.53125 
Q 43.3125 49.21875 43.3125 52.78125 
Q 43.3125 58.59375 39.234375 62.25 
Q 35.15625 65.921875 28.609375 65.921875 
Q 23.96875 65.921875 18.8125 64.3125 
Q 13.671875 62.703125 7.8125 59.421875 
L 7.8125 69.390625 
Q 13.765625 71.78125 18.9375 73 
Q 24.125 74.21875 28.421875 74.21875 
Q 39.75 74.21875 46.484375 68.546875 
Q 53.21875 62.890625 53.21875 53.421875 
Q 53.21875 48.921875 51.53125 44.890625 
Q 49.859375 40.875 45.40625 35.40625 
Q 44.1875 33.984375 37.640625 27.21875 
Q 31.109375 20.453125 19.1875 8.296875 
z
" id="DejaVuSans-50"/>
        <path d="M 31.78125 66.40625 
Q 24.171875 66.40625 20.328125 58.90625 
Q 16.5 51.421875 16.5 36.375 
Q 16.5 21.390625 20.328125 13.890625 
Q 24.171875 6.390625 31.78125 6.390625 
Q 39.453125 6.390625 43.28125 13.890625 
Q 47.125 21.390625 47.125 36.375 
Q 47.125 51.421875 43.28125 58.90625 
Q 39.453125 66.40625 31.78125 66.40625 
z
M 31.78125 74.21875 
Q 44.046875 74.21875 50.515625 64.515625 
Q 56.984375 54.828125 56.984375 36.375 
Q 56.984375 17.96875 50.515625 8.265625 
Q 44.046875 -1.421875 31.78125 -1.421875 
Q 19.53125 -1.421875 13.0625 8.265625 
Q 6.59375 17.96875 6.59375 36.375 
Q 6.59375 54.828125 13.0625 64.515625 
Q 19.53125 74.21875 31.78125 74.21875 
z
" id="DejaVuSans-48"/>
       </defs>
       <use xlink:href="#DejaVuSans-8722"/>
       <use x="83.789062" xlink:href="#DejaVuSans-49"/>
       <use x="147.412109" xlink:href="#DejaVuSans-50"/>
       <use x="211.035156" xlink:href="#DejaVuSans-48"/>
      </g>
     </g>
    </g>
    <g id="xtick_2">
     <g id="line2d_2">
      <g>
       <use style="stroke:#000000;stroke-width:0.8;" x="109.125624" xlink:href="#m7039250e00" y="307.584"/>
      </g>
     </g>
     <g id="text_2">
      <!-- −100 -->
      <g transform="translate(95.39203 322.182437)scale(0.1 -0.1)">
       <use xlink:href="#DejaVuSans-8722"/>
       <use x="83.789062" xlink:href="#DejaVuSans-49"/>
       <use x="147.412109" xlink:href="#DejaVuSans-48"/>
       <use x="211.035156" xlink:href="#DejaVuSans-48"/>
      </g>
     </g>
    </g>
    <g id="xtick_3">
     <g id="line2d_3">
      <g>
       <use style="stroke:#000000;stroke-width:0.8;" x="158.994437" xlink:href="#m7039250e00" y="307.584"/>
      </g>
     </g>
     <g id="text_3">
      <!-- −80 -->
      <g transform="translate(148.442094 322.182437)scale(0.1 -0.1)">
       <defs>
        <path d="M 31.78125 34.625 
Q 24.75 34.625 20.71875 30.859375 
Q 16.703125 27.09375 16.703125 20.515625 
Q 16.703125 13.921875 20.71875 10.15625 
Q 24.75 6.390625 31.78125 6.390625 
Q 38.8125 6.390625 42.859375 10.171875 
Q 46.921875 13.96875 46.921875 20.515625 
Q 46.921875 27.09375 42.890625 30.859375 
Q 38.875 34.625 31.78125 34.625 
z
M 21.921875 38.8125 
Q 15.578125 40.375 12.03125 44.71875 
Q 8.5 49.078125 8.5 55.328125 
Q 8.5 64.0625 14.71875 69.140625 
Q 20.953125 74.21875 31.78125 74.21875 
Q 42.671875 74.21875 48.875 69.140625 
Q 55.078125 64.0625 55.078125 55.328125 
Q 55.078125 49.078125 51.53125 44.71875 
Q 48 40.375 41.703125 38.8125 
Q 48.828125 37.15625 52.796875 32.3125 
Q 56.78125 27.484375 56.78125 20.515625 
Q 56.78125 9.90625 50.3125 4.234375 
Q 43.84375 -1.421875 31.78125 -1.421875 
Q 19.734375 -1.421875 13.25 4.234375 
Q 6.78125 9.90625 6.78125 20.515625 
Q 6.78125 27.484375 10.78125 32.3125 
Q 14.796875 37.15625 21.921875 38.8125 
z
M 18.3125 54.390625 
Q 18.3125 48.734375 21.84375 45.5625 
Q 25.390625 42.390625 31.78125 42.390625 
Q 38.140625 42.390625 41.71875 45.5625 
Q 45.3125 48.734375 45.3125 54.390625 
Q 45.3125 60.0625 41.71875 63.234375 
Q 38.140625 66.40625 31.78125 66.40625 
Q 25.390625 66.40625 21.84375 63.234375 
Q 18.3125 60.0625 18.3125 54.390625 
z
" id="DejaVuSans-56"/>
       </defs>
       <use xlink:href="#DejaVuSans-8722"/>
       <use x="83.789062" xlink:href="#DejaVuSans-56"/>
       <use x="147.412109" xlink:href="#DejaVuSans-48"/>
      </g>
     </g>
    </g>
    <g id="xtick_4">
     <g id="line2d_4">
      <g>
       <use style="stroke:#000000;stroke-width:0.8;" x="208.863251" xlink:href="#m7039250e00" y="307.584"/>
      </g>
     </g>
     <g id="text_4">
      <!-- −60 -->
      <g transform="translate(198.310907 322.182437)scale(0.1 -0.1)">
       <defs>
        <path d="M 33.015625 40.375 
Q 26.375 40.375 22.484375 35.828125 
Q 18.609375 31.296875 18.609375 23.390625 
Q 18.609375 15.53125 22.484375 10.953125 
Q 26.375 6.390625 33.015625 6.390625 
Q 39.65625 6.390625 43.53125 10.953125 
Q 47.40625 15.53125 47.40625 23.390625 
Q 47.40625 31.296875 43.53125 35.828125 
Q 39.65625 40.375 33.015625 40.375 
z
M 52.59375 71.296875 
L 52.59375 62.3125 
Q 48.875 64.0625 45.09375 64.984375 
Q 41.3125 65.921875 37.59375 65.921875 
Q 27.828125 65.921875 22.671875 59.328125 
Q 17.53125 52.734375 16.796875 39.40625 
Q 19.671875 43.65625 24.015625 45.921875 
Q 28.375 48.1875 33.59375 48.1875 
Q 44.578125 48.1875 50.953125 41.515625 
Q 57.328125 34.859375 57.328125 23.390625 
Q 57.328125 12.15625 50.6875 5.359375 
Q 44.046875 -1.421875 33.015625 -1.421875 
Q 20.359375 -1.421875 13.671875 8.265625 
Q 6.984375 17.96875 6.984375 36.375 
Q 6.984375 53.65625 15.1875 63.9375 
Q 23.390625 74.21875 37.203125 74.21875 
Q 40.921875 74.21875 44.703125 73.484375 
Q 48.484375 72.75 52.59375 71.296875 
z
" id="DejaVuSans-54"/>
       </defs>
       <use xlink:href="#DejaVuSans-8722"/>
       <use x="83.789062" xlink:href="#DejaVuSans-54"/>
       <use x="147.412109" xlink:href="#DejaVuSans-48"/>
      </g>
     </g>
    </g>
    <g id="xtick_5">
     <g id="line2d_5">
      <g>
       <use style="stroke:#000000;stroke-width:0.8;" x="258.732065" xlink:href="#m7039250e00" y="307.584"/>
      </g>
     </g>
     <g id="text_5">
      <!-- −40 -->
      <g transform="translate(248.179721 322.182437)scale(0.1 -0.1)">
       <defs>
        <path d="M 37.796875 64.3125 
L 12.890625 25.390625 
L 37.796875 25.390625 
z
M 35.203125 72.90625 
L 47.609375 72.90625 
L 47.609375 25.390625 
L 58.015625 25.390625 
L 58.015625 17.1875 
L 47.609375 17.1875 
L 47.609375 0 
L 37.796875 0 
L 37.796875 17.1875 
L 4.890625 17.1875 
L 4.890625 26.703125 
z
" id="DejaVuSans-52"/>
       </defs>
       <use xlink:href="#DejaVuSans-8722"/>
       <use x="83.789062" xlink:href="#DejaVuSans-52"/>
       <use x="147.412109" xlink:href="#DejaVuSans-48"/>
      </g>
     </g>
    </g>
    <g id="xtick_6">
     <g id="line2d_6">
      <g>
       <use style="stroke:#000000;stroke-width:0.8;" x="308.600879" xlink:href="#m7039250e00" y="307.584"/>
      </g>
     </g>
     <g id="text_6">
      <!-- −20 -->
      <g transform="translate(298.048535 322.182437)scale(0.1 -0.1)">
       <use xlink:href="#DejaVuSans-8722"/>
       <use x="83.789062" xlink:href="#DejaVuSans-50"/>
       <use x="147.412109" xlink:href="#DejaVuSans-48"/>
      </g>
     </g>
    </g>
    <g id="xtick_7">
     <g id="line2d_7">
      <g>
       <use style="stroke:#000000;stroke-width:0.8;" x="358.469692" xlink:href="#m7039250e00" y="307.584"/>
      </g>
     </g>
     <g id="text_7">
      <!-- 0 -->
      <g transform="translate(355.288442 322.182437)scale(0.1 -0.1)">
       <use xlink:href="#DejaVuSans-48"/>
      </g>
     </g>
    </g>
    <g id="xtick_8">
     <g id="line2d_8">
      <g>
       <use style="stroke:#000000;stroke-width:0.8;" x="408.338506" xlink:href="#m7039250e00" y="307.584"/>
      </g>
     </g>
     <g id="text_8">
      <!-- 20 -->
      <g transform="translate(401.976006 322.182437)scale(0.1 -0.1)">
       <use xlink:href="#DejaVuSans-50"/>
       <use x="63.623047" xlink:href="#DejaVuSans-48"/>
      </g>
     </g>
    </g>
   </g>
   <g id="matplotlib.axis_2">
    <g id="ytick_1">
     <g id="line2d_9">
      <defs>
       <path d="M 0 0 
L -3.5 0 
" id="m26a5c76b55" style="stroke:#000000;stroke-width:0.8;"/>
      </defs>
      <g>
       <use style="stroke:#000000;stroke-width:0.8;" x="57.6" xlink:href="#m26a5c76b55" y="295.392043"/>
      </g>
     </g>
     <g id="text_9">
      <!-- 0 -->
      <g transform="translate(44.2375 299.191262)scale(0.1 -0.1)">
       <use xlink:href="#DejaVuSans-48"/>
      </g>
     </g>
    </g>
    <g id="ytick_2">
     <g id="line2d_10">
      <g>
       <use style="stroke:#000000;stroke-width:0.8;" x="57.6" xlink:href="#m26a5c76b55" y="245.523229"/>
      </g>
     </g>
     <g id="text_10">
      <!-- 20 -->
      <g transform="translate(37.875 249.322448)scale(0.1 -0.1)">
       <use xlink:href="#DejaVuSans-50"/>
       <use x="63.623047" xlink:href="#DejaVuSans-48"/>
      </g>
     </g>
    </g>
    <g id="ytick_3">
     <g id="line2d_11">
      <g>
       <use style="stroke:#000000;stroke-width:0.8;" x="57.6" xlink:href="#m26a5c76b55" y="195.654416"/>
      </g>
     </g>
     <g id="text_11">
      <!-- 40 -->
      <g transform="translate(37.875 199.453634)scale(0.1 -0.1)">
       <use xlink:href="#DejaVuSans-52"/>
       <use x="63.623047" xlink:href="#DejaVuSans-48"/>
      </g>
     </g>
    </g>
    <g id="ytick_4">
     <g id="line2d_12">
      <g>
       <use style="stroke:#000000;stroke-width:0.8;" x="57.6" xlink:href="#m26a5c76b55" y="145.785602"/>
      </g>
     </g>
     <g id="text_12">
      <!-- 60 -->
      <g transform="translate(37.875 149.584821)scale(0.1 -0.1)">
       <use xlink:href="#DejaVuSans-54"/>
       <use x="63.623047" xlink:href="#DejaVuSans-48"/>
      </g>
     </g>
    </g>
    <g id="ytick_5">
     <g id="line2d_13">
      <g>
       <use style="stroke:#000000;stroke-width:0.8;" x="57.6" xlink:href="#m26a5c76b55" y="95.916788"/>
      </g>
     </g>
     <g id="text_13">
      <!-- 80 -->
      <g transform="translate(37.875 99.716007)scale(0.1 -0.1)">
       <use xlink:href="#DejaVuSans-56"/>
       <use x="63.623047" xlink:href="#DejaVuSans-48"/>
      </g>
     </g>
    </g>
    <g id="ytick_6">
     <g id="line2d_14">
      <g>
       <use style="stroke:#000000;stroke-width:0.8;" x="57.6" xlink:href="#m26a5c76b55" y="46.047974"/>
      </g>
     </g>
     <g id="text_14">
      <!-- 100 -->
      <g transform="translate(31.5125 49.847193)scale(0.1 -0.1)">
       <use xlink:href="#DejaVuSans-49"/>
       <use x="63.623047" xlink:href="#DejaVuSans-48"/>
       <use x="127.246094" xlink:href="#DejaVuSans-48"/>
      </g>
     </g>
    </g>
   </g>
   <g id="line2d_15">
    <path clip-path="url(#pbdb9298071)" d="M 358.469692 295.392043 
L 358.790563 272.428942 
L 359.652148 229.776911 
L 360.02765 223.158365 
L 360.87053 213.168555 
L 361.994371 199.848808 
L 362.332589 193.238528 
L 362.38911 186.690699 
L 362.064509 180.227362 
L 361.728219 177.034267 
L 361.259365 173.87056 
L 359.917263 167.601167 
L 358.232535 161.217948 
L 356.240003 154.762386 
L 353.935445 148.319765 
L 351.314641 141.975371 
L 348.373371 135.814488 
L 345.107413 129.9224 
L 343.351358 127.103806 
L 341.512547 124.384393 
L 339.590455 121.77482 
L 337.584553 119.28575 
L 335.494313 116.927841 
L 333.319208 114.711756 
L 331.027432 112.605394 
L 328.594871 110.571154 
L 326.032538 108.611446 
L 323.351446 106.728677 
L 320.562607 104.925254 
L 317.677033 103.203588 
L 314.705737 101.566085 
L 308.550029 98.553204 
L 302.183583 95.905876 
L 295.6945 93.643367 
L 289.170879 91.784943 
L 282.700819 90.34987 
L 276.372423 89.357413 
L 273.231963 89.134912 
L 270.043274 89.207744 
L 266.813091 89.539327 
L 263.54815 90.093075 
L 260.255187 90.832404 
L 253.612138 92.721472 
L 233.710982 99.037878 
L 230.468931 99.801154 
L 227.266216 100.38417 
L 224.109572 100.750342 
L 221.005736 100.863085 
L 217.961443 100.685815 
L 214.98343 100.181949 
L 212.07502 99.285594 
L 209.230817 97.988861 
L 206.444473 96.342167 
L 203.709641 94.395932 
L 201.019974 92.200572 
L 198.369125 89.806507 
L 193.158491 84.623933 
L 185.474994 76.620237 
L 182.92376 74.092721 
L 180.366914 71.719428 
L 177.798108 69.550776 
L 175.210996 67.637182 
L 172.599229 66.029065 
L 169.956461 64.776843 
L 167.276345 63.930934 
L 164.552532 63.541758 
L 161.696361 63.54468 
L 158.646393 63.829677 
L 155.437119 64.379078 
L 152.10303 65.175213 
L 148.678617 66.200413 
L 145.198372 67.437007 
L 141.696786 68.867326 
L 138.208351 70.473698 
L 134.767556 72.238456 
L 131.408895 74.143927 
L 128.166857 76.172443 
L 125.075934 78.306333 
L 122.170618 80.527928 
L 119.485398 82.819557 
L 117.054768 85.16355 
L 114.913218 87.542237 
L 113.095238 89.937949 
L 111.635321 92.333016 
L 110.567958 94.709766 
L 109.96743 97.145395 
L 109.850633 99.720885 
L 110.16598 102.424247 
L 110.861884 105.243494 
L 111.886758 108.166637 
L 113.189015 111.181689 
L 114.717068 114.276661 
L 118.244215 120.658414 
L 123.938731 130.530744 
L 125.738233 133.853489 
L 127.402423 137.172239 
L 128.879713 140.475003 
L 130.118516 143.749796 
L 131.067244 146.984629 
L 131.674312 150.167513 
L 131.888132 153.286461 
L 131.773123 156.369445 
L 131.440529 159.452429 
L 130.909001 162.535413 
L 130.197189 165.618397 
L 129.323743 168.701381 
L 128.307312 171.784365 
L 125.920099 177.950333 
L 123.184751 184.116301 
L 117.266453 196.448237 
L 114.381904 202.614205 
L 111.746023 208.780173 
L 110.567958 211.863157 
L 110.567958 211.863157 
" style="fill:none;stroke:#fea952;stroke-linecap:square;"/>
   </g>
   <g id="line2d_16">
    <path clip-path="url(#pbdb9298071)" d="M 348.496391 295.296086 
L 348.818492 272.245234 
L 349.690185 229.291904 
L 350.083352 222.392285 
L 350.938427 212.257915 
L 352.038407 199.253214 
L 352.361073 193.026875 
L 352.420917 187.023974 
L 352.145605 181.272001 
L 351.862209 178.496387 
L 351.471865 175.789095 
L 350.248381 170.048342 
L 348.671528 164.057503 
L 346.810914 158.013268 
L 344.669725 152.010615 
L 342.253912 146.144199 
L 339.573168 140.508352 
L 336.642175 135.196459 
L 333.482009 130.299323 
L 331.824594 128.033203 
L 330.12115 125.90191 
L 328.37629 123.914235 
L 326.570004 122.055064 
L 324.629205 120.256448 
L 322.535767 118.493477 
L 320.300699 116.773673 
L 317.93556 115.103885 
L 312.863065 111.93867 
L 307.416352 109.04121 
L 301.695593 106.447884 
L 295.80232 104.189732 
L 289.839585 102.293532 
L 283.912728 100.782222 
L 278.130692 99.674562 
L 275.667549 99.306237 
L 273.459713 99.106074 
L 271.061742 99.12937 
L 268.480867 99.372661 
L 265.733049 99.824578 
L 262.837337 100.466118 
L 256.674735 102.213387 
L 239.647764 107.742846 
L 235.996616 108.746215 
L 232.25518 109.613659 
L 228.415469 110.291498 
L 224.471618 110.717531 
L 220.425945 110.819981 
L 216.297576 110.519812 
L 212.045918 109.713317 
L 207.937501 108.360664 
L 204.156374 106.575244 
L 200.661547 104.46828 
L 197.402963 102.122623 
L 194.335083 99.602475 
L 191.421259 96.962141 
L 185.953259 91.52035 
L 176.138517 81.402743 
L 173.933005 79.340502 
L 171.867027 77.569392 
L 169.981706 76.130148 
L 168.328527 75.042224 
L 165.865626 73.804425 
L 164.562737 73.515515 
L 162.624292 73.475183 
L 160.329336 73.660427 
L 157.753592 74.080103 
L 154.963532 74.729975 
L 152.017943 75.598543 
L 148.969913 76.670177 
L 145.868505 77.926724 
L 142.76005 79.348268 
L 139.689106 80.913379 
L 136.699183 82.599032 
L 133.833284 84.380217 
L 131.134294 86.229225 
L 128.645175 88.114498 
L 126.408804 89.99886 
L 124.467074 91.836905 
L 122.858361 93.571387 
L 121.611572 95.129096 
L 119.930952 97.597236 
L 119.757223 98.565282 
L 119.849107 100.03406 
L 120.273921 101.943569 
L 121.042959 104.211903 
L 122.132167 106.766265 
L 123.499652 109.54991 
L 126.867822 115.647491 
L 132.708931 125.781057 
L 134.653858 129.382742 
L 136.506926 133.099897 
L 138.208327 136.946135 
L 139.689153 140.942869 
L 140.864401 145.116029 
L 141.62472 149.485363 
L 141.854962 153.658268 
L 141.689349 157.439212 
L 141.269286 161.146975 
L 140.627103 164.779169 
L 139.793266 168.337081 
L 138.795986 171.82429 
L 137.661264 175.245511 
L 135.074263 181.909781 
L 132.208315 188.364977 
L 126.275963 200.726631 
L 123.509034 206.635578 
L 121.062763 212.34027 
L 119.884698 215.423254 
L 119.884698 215.423254 
" style="fill:none;stroke:#ffffff;stroke-linecap:square;"/>
   </g>
   <g id="line2d_17">
    <path clip-path="url(#pbdb9298071)" d="M 368.442994 295.488 
L 368.762633 272.61265 
L 369.614111 230.261918 
L 369.971948 223.924446 
L 370.802634 214.079196 
L 371.950334 200.444403 
L 372.304106 193.450182 
L 372.357303 186.357424 
L 372.232026 182.779014 
L 371.983414 179.182724 
L 371.594229 175.572147 
L 371.046866 171.952024 
L 370.361049 168.484128 
L 368.730687 161.782306 
L 366.773469 154.951645 
L 364.478887 148.067433 
L 361.834034 141.205449 
L 358.822785 134.441738 
L 357.173575 131.120624 
L 355.424683 127.852882 
L 353.572651 124.648342 
L 351.613578 121.517067 
L 349.543086 118.469463 
L 347.356315 115.516438 
L 345.047955 112.66959 
L 342.612336 109.941448 
L 340.068413 107.368447 
L 337.425659 104.954339 
L 334.653976 102.648832 
L 331.764378 100.449218 
L 328.767332 98.353468 
L 325.672928 96.360176 
L 322.491 94.468506 
L 319.231214 92.678115 
L 315.903111 90.989099 
L 312.516146 89.401927 
L 309.079692 87.917399 
L 302.09541 85.260897 
L 295.023416 83.031349 
L 287.934567 81.244346 
L 284.405028 80.522784 
L 280.896123 79.919659 
L 277.077297 79.408589 
L 273.004213 79.16375 
L 269.024807 79.286118 
L 265.145315 79.705992 
L 261.363252 80.361571 
L 257.673037 81.19869 
L 250.549542 83.229557 
L 231.425348 89.32954 
L 228.682682 89.988649 
L 226.116962 90.476841 
L 223.747526 90.783152 
L 221.585527 90.906188 
L 219.62531 90.851819 
L 217.920941 90.650581 
L 216.212539 90.210525 
L 214.305259 89.402478 
L 212.227399 88.216055 
L 210.016319 86.669241 
L 207.704865 84.798669 
L 205.316991 82.650873 
L 200.363723 77.727516 
L 192.494496 69.534863 
L 189.709004 66.7827 
L 186.800823 64.098355 
L 183.72919 61.532159 
L 180.440285 59.144215 
L 176.869931 57.015905 
L 172.958441 55.265583 
L 168.687063 54.057444 
L 164.542328 53.568 
L 160.76843 53.614177 
L 156.96345 53.998927 
L 153.120645 54.678052 
L 149.242527 55.620451 
L 145.339291 56.802283 
L 141.426832 58.203837 
L 137.525068 59.807927 
L 133.656652 61.599129 
L 129.846007 63.563532 
L 126.118607 65.688822 
L 122.50043 67.964669 
L 119.017574 70.383441 
L 115.69606 72.941357 
L 112.561993 75.640253 
L 109.642462 78.490195 
L 106.968075 81.513088 
L 104.578905 84.746803 
L 102.53692 88.247059 
L 100.884199 92.32214 
L 100.003907 96.693554 
L 99.944043 100.876488 
L 100.482853 104.814434 
L 101.449847 108.543419 
L 102.730557 112.121372 
L 104.245863 115.597113 
L 105.934485 119.003412 
L 109.620609 125.669337 
L 115.16853 135.280431 
L 118.29792 141.24458 
L 119.551099 144.003872 
L 120.547878 146.556723 
L 121.270088 148.853229 
L 121.723904 150.849664 
L 121.921301 152.914655 
L 121.856896 155.299679 
L 121.611773 157.757883 
L 121.190899 160.291658 
L 120.601112 162.899713 
L 119.8515 165.578473 
L 117.919913 171.128941 
L 115.507403 176.904901 
L 112.744819 182.876574 
L 105.254774 198.592832 
L 102.429282 205.220076 
L 101.251218 208.30306 
L 101.251218 208.30306 
" style="fill:none;stroke:#ffffff;stroke-linecap:square;"/>
   </g>
   <g id="patch_3">
    <path d="M 57.6 307.584 
L 57.6 41.472 
" style="fill:none;stroke:#000000;stroke-linecap:square;stroke-linejoin:miter;stroke-width:0.8;"/>
   </g>
   <g id="patch_4">
    <path d="M 414.72 307.584 
L 414.72 41.472 
" style="fill:none;stroke:#000000;stroke-linecap:square;stroke-linejoin:miter;stroke-width:0.8;"/>
   </g>
   <g id="patch_5">
    <path d="M 57.6 307.584 
L 414.72 307.584 
" style="fill:none;stroke:#000000;stroke-linecap:square;stroke-linejoin:miter;stroke-width:0.8;"/>
   </g>
   <g id="patch_6">
    <path d="M 57.6 41.472 
L 414.72 41.472 
" style="fill:none;stroke:#000000;stroke-linecap:square;stroke-linejoin:miter;stroke-width:0.8;"/>
   </g>
  </g>
 </g>
 <defs>
  <clipPath id="pbdb9298071">
   <rect height="266.112" width="357.12" x="57.6" y="41.472"/>
  </clipPath>
 </defs>
</svg>
