<?xml version="1.0" encoding="utf-8" standalone="no"?>
<!DOCTYPE svg PUBLIC "-//W3C//DTD SVG 1.1//EN"
  "http://www.w3.org/Graphics/SVG/1.1/DTD/svg11.dtd">
<!-- Created with matplotlib (https://matplotlib.org/) -->
<svg height="345.6pt" version="1.1" viewBox="0 0 460.8 345.6" width="460.8pt" xmlns="http://www.w3.org/2000/svg" xmlns:xlink="http://www.w3.org/1999/xlink">
 <metadata>
  <rdf:RDF xmlns:cc="http://creativecommons.org/ns#" xmlns:dc="http://purl.org/dc/elements/1.1/" xmlns:rdf="http://www.w3.org/1999/02/22-rdf-syntax-ns#">
   <cc:Work>
    <dc:type rdf:resource="http://purl.org/dc/dcmitype/StillImage"/>
    <dc:date>2021-06-24T09:26:12.750582</dc:date>
    <dc:format>image/svg+xml</dc:format>
    <dc:creator>
     <cc:Agent>
      <dc:title>Matplotlib v3.3.3, https://matplotlib.org/</dc:title>
     </cc:Agent>
    </dc:creator>
   </cc:Work>
  </rdf:RDF>
 </metadata>
 <defs>
  <style type="text/css">*{stroke-linecap:butt;stroke-linejoin:round;}</style>
 </defs>
 <g id="figure_1">
  <g id="patch_1">
   <path d="M 0 345.6 
L 460.8 345.6 
L 460.8 0 
L 0 0 
z
" style="fill:#ffffff;"/>
  </g>
  <g id="axes_1">
   <g id="patch_2">
    <path d="M 57.6 307.584 
L 414.72 307.584 
L 414.72 41.472 
L 57.6 41.472 
z
" style="fill:#7d9051;"/>
   </g>
   <g id="matplotlib.axis_1">
    <g id="xtick_1">
     <g id="line2d_1">
      <defs>
       <path d="M 0 0 
L 0 3.5 
" id="m665704dce3" style="stroke:#000000;stroke-width:0.8;"/>
      </defs>
      <g>
       <use style="stroke:#000000;stroke-width:0.8;" x="68.473576" xlink:href="#m665704dce3" y="307.584"/>
      </g>
     </g>
     <g id="text_1">
      <!-- −150 -->
      <g transform="translate(54.739983 322.182437)scale(0.1 -0.1)">
       <defs>
        <path d="M 10.59375 35.5 
L 73.1875 35.5 
L 73.1875 27.203125 
L 10.59375 27.203125 
z
" id="DejaVuSans-8722"/>
        <path d="M 12.40625 8.296875 
L 28.515625 8.296875 
L 28.515625 63.921875 
L 10.984375 60.40625 
L 10.984375 69.390625 
L 28.421875 72.90625 
L 38.28125 72.90625 
L 38.28125 8.296875 
L 54.390625 8.296875 
L 54.390625 0 
L 12.40625 0 
z
" id="DejaVuSans-49"/>
        <path d="M 10.796875 72.90625 
L 49.515625 72.90625 
L 49.515625 64.59375 
L 19.828125 64.59375 
L 19.828125 46.734375 
Q 21.96875 47.46875 24.109375 47.828125 
Q 26.265625 48.1875 28.421875 48.1875 
Q 40.625 48.1875 47.75 41.5 
Q 54.890625 34.8125 54.890625 23.390625 
Q 54.890625 11.625 47.5625 5.09375 
Q 40.234375 -1.421875 26.90625 -1.421875 
Q 22.3125 -1.421875 17.546875 -0.640625 
Q 12.796875 0.140625 7.71875 1.703125 
L 7.71875 11.625 
Q 12.109375 9.234375 16.796875 8.0625 
Q 21.484375 6.890625 26.703125 6.890625 
Q 35.15625 6.890625 40.078125 11.328125 
Q 45.015625 15.765625 45.015625 23.390625 
Q 45.015625 31 40.078125 35.4375 
Q 35.15625 39.890625 26.703125 39.890625 
Q 22.75 39.890625 18.8125 39.015625 
Q 14.890625 38.140625 10.796875 36.28125 
z
" id="DejaVuSans-53"/>
        <path d="M 31.78125 66.40625 
Q 24.171875 66.40625 20.328125 58.90625 
Q 16.5 51.421875 16.5 36.375 
Q 16.5 21.390625 20.328125 13.890625 
Q 24.171875 6.390625 31.78125 6.390625 
Q 39.453125 6.390625 43.28125 13.890625 
Q 47.125 21.390625 47.125 36.375 
Q 47.125 51.421875 43.28125 58.90625 
Q 39.453125 66.40625 31.78125 66.40625 
z
M 31.78125 74.21875 
Q 44.046875 74.21875 50.515625 64.515625 
Q 56.984375 54.828125 56.984375 36.375 
Q 56.984375 17.96875 50.515625 8.265625 
Q 44.046875 -1.421875 31.78125 -1.421875 
Q 19.53125 -1.421875 13.0625 8.265625 
Q 6.59375 17.96875 6.59375 36.375 
Q 6.59375 54.828125 13.0625 64.515625 
Q 19.53125 74.21875 31.78125 74.21875 
z
" id="DejaVuSans-48"/>
       </defs>
       <use xlink:href="#DejaVuSans-8722"/>
       <use x="83.789062" xlink:href="#DejaVuSans-49"/>
       <use x="147.412109" xlink:href="#DejaVuSans-53"/>
       <use x="211.035156" xlink:href="#DejaVuSans-48"/>
      </g>
     </g>
    </g>
    <g id="xtick_2">
     <g id="line2d_2">
      <g>
       <use style="stroke:#000000;stroke-width:0.8;" x="145.528507" xlink:href="#m665704dce3" y="307.584"/>
      </g>
     </g>
     <g id="text_2">
      <!-- −100 -->
      <g transform="translate(131.794914 322.182437)scale(0.1 -0.1)">
       <use xlink:href="#DejaVuSans-8722"/>
       <use x="83.789062" xlink:href="#DejaVuSans-49"/>
       <use x="147.412109" xlink:href="#DejaVuSans-48"/>
       <use x="211.035156" xlink:href="#DejaVuSans-48"/>
      </g>
     </g>
    </g>
    <g id="xtick_3">
     <g id="line2d_3">
      <g>
       <use style="stroke:#000000;stroke-width:0.8;" x="222.583439" xlink:href="#m665704dce3" y="307.584"/>
      </g>
     </g>
     <g id="text_3">
      <!-- −50 -->
      <g transform="translate(212.031095 322.182437)scale(0.1 -0.1)">
       <use xlink:href="#DejaVuSans-8722"/>
       <use x="83.789062" xlink:href="#DejaVuSans-53"/>
       <use x="147.412109" xlink:href="#DejaVuSans-48"/>
      </g>
     </g>
    </g>
    <g id="xtick_4">
     <g id="line2d_4">
      <g>
       <use style="stroke:#000000;stroke-width:0.8;" x="299.63837" xlink:href="#m665704dce3" y="307.584"/>
      </g>
     </g>
     <g id="text_4">
      <!-- 0 -->
      <g transform="translate(296.45712 322.182437)scale(0.1 -0.1)">
       <use xlink:href="#DejaVuSans-48"/>
      </g>
     </g>
    </g>
    <g id="xtick_5">
     <g id="line2d_5">
      <g>
       <use style="stroke:#000000;stroke-width:0.8;" x="376.693301" xlink:href="#m665704dce3" y="307.584"/>
      </g>
     </g>
     <g id="text_5">
      <!-- 50 -->
      <g transform="translate(370.330801 322.182437)scale(0.1 -0.1)">
       <use xlink:href="#DejaVuSans-53"/>
       <use x="63.623047" xlink:href="#DejaVuSans-48"/>
      </g>
     </g>
    </g>
   </g>
   <g id="matplotlib.axis_2">
    <g id="ytick_1">
     <g id="line2d_6">
      <defs>
       <path d="M 0 0 
L -3.5 0 
" id="m4e8f1d8269" style="stroke:#000000;stroke-width:0.8;"/>
      </defs>
      <g>
       <use style="stroke:#000000;stroke-width:0.8;" x="57.6" xlink:href="#m4e8f1d8269" y="295.428693"/>
      </g>
     </g>
     <g id="text_6">
      <!-- 0 -->
      <g transform="translate(44.2375 299.227911)scale(0.1 -0.1)">
       <use xlink:href="#DejaVuSans-48"/>
      </g>
     </g>
    </g>
    <g id="ytick_2">
     <g id="line2d_7">
      <g>
       <use style="stroke:#000000;stroke-width:0.8;" x="57.6" xlink:href="#m4e8f1d8269" y="264.60672"/>
      </g>
     </g>
     <g id="text_7">
      <!-- 20 -->
      <g transform="translate(37.875 268.405939)scale(0.1 -0.1)">
       <defs>
        <path d="M 19.1875 8.296875 
L 53.609375 8.296875 
L 53.609375 0 
L 7.328125 0 
L 7.328125 8.296875 
Q 12.9375 14.109375 22.625 23.890625 
Q 32.328125 33.6875 34.8125 36.53125 
Q 39.546875 41.84375 41.421875 45.53125 
Q 43.3125 49.21875 43.3125 52.78125 
Q 43.3125 58.59375 39.234375 62.25 
Q 35.15625 65.921875 28.609375 65.921875 
Q 23.96875 65.921875 18.8125 64.3125 
Q 13.671875 62.703125 7.8125 59.421875 
L 7.8125 69.390625 
Q 13.765625 71.78125 18.9375 73 
Q 24.125 74.21875 28.421875 74.21875 
Q 39.75 74.21875 46.484375 68.546875 
Q 53.21875 62.890625 53.21875 53.421875 
Q 53.21875 48.921875 51.53125 44.890625 
Q 49.859375 40.875 45.40625 35.40625 
Q 44.1875 33.984375 37.640625 27.21875 
Q 31.109375 20.453125 19.1875 8.296875 
z
" id="DejaVuSans-50"/>
       </defs>
       <use xlink:href="#DejaVuSans-50"/>
       <use x="63.623047" xlink:href="#DejaVuSans-48"/>
      </g>
     </g>
    </g>
    <g id="ytick_3">
     <g id="line2d_8">
      <g>
       <use style="stroke:#000000;stroke-width:0.8;" x="57.6" xlink:href="#m4e8f1d8269" y="233.784748"/>
      </g>
     </g>
     <g id="text_8">
      <!-- 40 -->
      <g transform="translate(37.875 237.583967)scale(0.1 -0.1)">
       <defs>
        <path d="M 37.796875 64.3125 
L 12.890625 25.390625 
L 37.796875 25.390625 
z
M 35.203125 72.90625 
L 47.609375 72.90625 
L 47.609375 25.390625 
L 58.015625 25.390625 
L 58.015625 17.1875 
L 47.609375 17.1875 
L 47.609375 0 
L 37.796875 0 
L 37.796875 17.1875 
L 4.890625 17.1875 
L 4.890625 26.703125 
z
" id="DejaVuSans-52"/>
       </defs>
       <use xlink:href="#DejaVuSans-52"/>
       <use x="63.623047" xlink:href="#DejaVuSans-48"/>
      </g>
     </g>
    </g>
    <g id="ytick_4">
     <g id="line2d_9">
      <g>
       <use style="stroke:#000000;stroke-width:0.8;" x="57.6" xlink:href="#m4e8f1d8269" y="202.962775"/>
      </g>
     </g>
     <g id="text_9">
      <!-- 60 -->
      <g transform="translate(37.875 206.761994)scale(0.1 -0.1)">
       <defs>
        <path d="M 33.015625 40.375 
Q 26.375 40.375 22.484375 35.828125 
Q 18.609375 31.296875 18.609375 23.390625 
Q 18.609375 15.53125 22.484375 10.953125 
Q 26.375 6.390625 33.015625 6.390625 
Q 39.65625 6.390625 43.53125 10.953125 
Q 47.40625 15.53125 47.40625 23.390625 
Q 47.40625 31.296875 43.53125 35.828125 
Q 39.65625 40.375 33.015625 40.375 
z
M 52.59375 71.296875 
L 52.59375 62.3125 
Q 48.875 64.0625 45.09375 64.984375 
Q 41.3125 65.921875 37.59375 65.921875 
Q 27.828125 65.921875 22.671875 59.328125 
Q 17.53125 52.734375 16.796875 39.40625 
Q 19.671875 43.65625 24.015625 45.921875 
Q 28.375 48.1875 33.59375 48.1875 
Q 44.578125 48.1875 50.953125 41.515625 
Q 57.328125 34.859375 57.328125 23.390625 
Q 57.328125 12.15625 50.6875 5.359375 
Q 44.046875 -1.421875 33.015625 -1.421875 
Q 20.359375 -1.421875 13.671875 8.265625 
Q 6.984375 17.96875 6.984375 36.375 
Q 6.984375 53.65625 15.1875 63.9375 
Q 23.390625 74.21875 37.203125 74.21875 
Q 40.921875 74.21875 44.703125 73.484375 
Q 48.484375 72.75 52.59375 71.296875 
z
" id="DejaVuSans-54"/>
       </defs>
       <use xlink:href="#DejaVuSans-54"/>
       <use x="63.623047" xlink:href="#DejaVuSans-48"/>
      </g>
     </g>
    </g>
    <g id="ytick_5">
     <g id="line2d_10">
      <g>
       <use style="stroke:#000000;stroke-width:0.8;" x="57.6" xlink:href="#m4e8f1d8269" y="172.140803"/>
      </g>
     </g>
     <g id="text_10">
      <!-- 80 -->
      <g transform="translate(37.875 175.940022)scale(0.1 -0.1)">
       <defs>
        <path d="M 31.78125 34.625 
Q 24.75 34.625 20.71875 30.859375 
Q 16.703125 27.09375 16.703125 20.515625 
Q 16.703125 13.921875 20.71875 10.15625 
Q 24.75 6.390625 31.78125 6.390625 
Q 38.8125 6.390625 42.859375 10.171875 
Q 46.921875 13.96875 46.921875 20.515625 
Q 46.921875 27.09375 42.890625 30.859375 
Q 38.875 34.625 31.78125 34.625 
z
M 21.921875 38.8125 
Q 15.578125 40.375 12.03125 44.71875 
Q 8.5 49.078125 8.5 55.328125 
Q 8.5 64.0625 14.71875 69.140625 
Q 20.953125 74.21875 31.78125 74.21875 
Q 42.671875 74.21875 48.875 69.140625 
Q 55.078125 64.0625 55.078125 55.328125 
Q 55.078125 49.078125 51.53125 44.71875 
Q 48 40.375 41.703125 38.8125 
Q 48.828125 37.15625 52.796875 32.3125 
Q 56.78125 27.484375 56.78125 20.515625 
Q 56.78125 9.90625 50.3125 4.234375 
Q 43.84375 -1.421875 31.78125 -1.421875 
Q 19.734375 -1.421875 13.25 4.234375 
Q 6.78125 9.90625 6.78125 20.515625 
Q 6.78125 27.484375 10.78125 32.3125 
Q 14.796875 37.15625 21.921875 38.8125 
z
M 18.3125 54.390625 
Q 18.3125 48.734375 21.84375 45.5625 
Q 25.390625 42.390625 31.78125 42.390625 
Q 38.140625 42.390625 41.71875 45.5625 
Q 45.3125 48.734375 45.3125 54.390625 
Q 45.3125 60.0625 41.71875 63.234375 
Q 38.140625 66.40625 31.78125 66.40625 
Q 25.390625 66.40625 21.84375 63.234375 
Q 18.3125 60.0625 18.3125 54.390625 
z
" id="DejaVuSans-56"/>
       </defs>
       <use xlink:href="#DejaVuSans-56"/>
       <use x="63.623047" xlink:href="#DejaVuSans-48"/>
      </g>
     </g>
    </g>
    <g id="ytick_6">
     <g id="line2d_11">
      <g>
       <use style="stroke:#000000;stroke-width:0.8;" x="57.6" xlink:href="#m4e8f1d8269" y="141.31883"/>
      </g>
     </g>
     <g id="text_11">
      <!-- 100 -->
      <g transform="translate(31.5125 145.118049)scale(0.1 -0.1)">
       <use xlink:href="#DejaVuSans-49"/>
       <use x="63.623047" xlink:href="#DejaVuSans-48"/>
       <use x="127.246094" xlink:href="#DejaVuSans-48"/>
      </g>
     </g>
    </g>
    <g id="ytick_7">
     <g id="line2d_12">
      <g>
       <use style="stroke:#000000;stroke-width:0.8;" x="57.6" xlink:href="#m4e8f1d8269" y="110.496858"/>
      </g>
     </g>
     <g id="text_12">
      <!-- 120 -->
      <g transform="translate(31.5125 114.296077)scale(0.1 -0.1)">
       <use xlink:href="#DejaVuSans-49"/>
       <use x="63.623047" xlink:href="#DejaVuSans-50"/>
       <use x="127.246094" xlink:href="#DejaVuSans-48"/>
      </g>
     </g>
    </g>
    <g id="ytick_8">
     <g id="line2d_13">
      <g>
       <use style="stroke:#000000;stroke-width:0.8;" x="57.6" xlink:href="#m4e8f1d8269" y="79.674886"/>
      </g>
     </g>
     <g id="text_13">
      <!-- 140 -->
      <g transform="translate(31.5125 83.474104)scale(0.1 -0.1)">
       <use xlink:href="#DejaVuSans-49"/>
       <use x="63.623047" xlink:href="#DejaVuSans-52"/>
       <use x="127.246094" xlink:href="#DejaVuSans-48"/>
      </g>
     </g>
    </g>
    <g id="ytick_9">
     <g id="line2d_14">
      <g>
       <use style="stroke:#000000;stroke-width:0.8;" x="57.6" xlink:href="#m4e8f1d8269" y="48.852913"/>
      </g>
     </g>
     <g id="text_14">
      <!-- 160 -->
      <g transform="translate(31.5125 52.652132)scale(0.1 -0.1)">
       <use xlink:href="#DejaVuSans-49"/>
       <use x="63.623047" xlink:href="#DejaVuSans-54"/>
       <use x="127.246094" xlink:href="#DejaVuSans-48"/>
      </g>
     </g>
    </g>
   </g>
   <g id="line2d_15">
    <path clip-path="url(#p8b20a6360a)" d="M 299.63837 295.428693 
L 299.912759 277.181235 
L 300.390819 254.854373 
L 300.774239 250.622585 
L 301.68434 244.085383 
L 302.897809 235.369115 
L 303.236566 231.162595 
L 303.237869 227.146998 
L 303.074756 225.231852 
L 302.782617 223.389707 
L 302.346563 221.628983 
L 301.751708 219.958106 
L 300.983164 218.385497 
L 300.030096 216.918285 
L 298.901723 215.552031 
L 297.613236 214.277807 
L 296.179824 213.086687 
L 294.61668 211.969742 
L 291.161953 209.922672 
L 287.370581 208.06518 
L 281.318147 205.478173 
L 273.204206 202.025788 
L 269.401797 200.137602 
L 265.885065 198.027898 
L 262.44901 195.590312 
L 257.343605 191.549574 
L 250.563259 186.11722 
L 247.157167 183.670213 
L 243.724208 181.573514 
L 241.993842 180.696575 
L 240.252189 179.955268 
L 238.497722 179.36561 
L 236.728919 178.943621 
L 234.944256 178.705318 
L 233.135816 178.712116 
L 231.29925 178.992797 
L 229.438381 179.514431 
L 227.557033 180.244088 
L 225.65903 181.148837 
L 221.828353 183.351893 
L 216.053021 187.146419 
L 212.227865 189.618547 
L 208.458451 191.737283 
L 206.604206 192.581803 
L 204.775369 193.239185 
L 202.975762 193.676498 
L 201.20921 193.860813 
L 199.479537 193.759199 
L 197.738993 193.41368 
L 195.94591 192.895973 
L 194.11323 192.217679 
L 192.253894 191.390404 
L 190.380845 190.425751 
L 186.645374 188.130728 
L 183.010354 185.425444 
L 179.579321 182.402729 
L 176.455812 179.155418 
L 173.743362 175.776341 
L 172.573639 174.0664 
L 171.545508 172.358331 
L 170.671909 170.663737 
L 169.965786 168.994221 
L 169.456767 167.305618 
L 169.152558 165.549822 
L 169.033218 163.732531 
L 169.078803 161.859441 
L 169.269371 159.936249 
L 170.005688 155.962347 
L 171.082628 151.856399 
L 174.761798 139.20203 
L 175.60584 135.023647 
L 175.86643 132.967543 
L 175.992809 130.941093 
L 175.942683 126.917574 
L 175.628704 122.887147 
L 174.816926 116.832582 
L 172.563645 102.695859 
L 172.144125 98.662668 
L 171.953277 94.635465 
L 172.045337 90.61567 
L 172.354343 86.601556 
L 173.125679 80.588446 
L 174.160868 74.582245 
L 177.992616 54.571556 
L 177.992616 54.571556 
" style="fill:none;stroke:#fea952;stroke-linecap:square;"/>
   </g>
   <g id="line2d_16">
    <path clip-path="url(#p8b20a6360a)" d="M 293.474261 295.369385 
L 293.749552 277.060244 
L 294.244158 254.387133 
L 294.658607 249.848757 
L 295.589684 243.160761 
L 296.761713 234.779135 
L 297.07405 231.010409 
L 297.095711 227.670125 
L 296.79899 224.871587 
L 296.213315 222.664757 
L 295.813669 221.743485 
L 295.277119 220.843712 
L 294.567166 219.935109 
L 293.673505 219.018934 
L 292.595966 218.102234 
L 289.926514 216.296218 
L 286.673142 214.551019 
L 282.976007 212.858713 
L 268.438984 206.57895 
L 264.326172 204.334017 
L 260.520522 201.818711 
L 256.906585 199.104341 
L 245.340164 189.916665 
L 242.355258 187.904337 
L 239.579651 186.368562 
L 237.06721 185.361725 
L 234.967428 184.869669 
L 234.067103 184.805758 
L 232.963102 184.928398 
L 231.667391 185.261715 
L 230.209555 185.808608 
L 228.620972 186.555006 
L 225.152116 188.543459 
L 219.445141 192.293581 
L 215.366093 194.924325 
L 213.231301 196.179787 
L 211.013512 197.347222 
L 208.689399 198.382814 
L 206.230986 199.229255 
L 203.615457 199.807611 
L 200.847691 200.014597 
L 198.279254 199.805609 
L 196.029025 199.33616 
L 193.806251 198.677116 
L 191.607346 197.849757 
L 189.43145 196.870693 
L 187.280378 195.753683 
L 185.158211 194.510767 
L 181.025439 191.690359 
L 177.09453 188.489407 
L 173.43964 184.97885 
L 171.741003 183.126606 
L 170.142515 181.21786 
L 168.655514 179.256796 
L 167.292208 177.245432 
L 166.066341 175.182954 
L 164.994447 173.065025 
L 164.063718 170.773363 
L 163.382864 168.35798 
L 163.001413 165.953765 
L 162.870648 163.582554 
L 162.944451 161.251591 
L 163.182781 158.95994 
L 164.022619 154.478215 
L 165.170376 150.111394 
L 168.745956 137.85689 
L 169.490366 134.248574 
L 169.828531 130.903337 
L 169.790773 127.309708 
L 169.505351 123.597298 
L 168.731441 117.815755 
L 166.440293 103.406009 
L 165.992215 99.054801 
L 165.788998 94.597709 
L 165.894033 90.214148 
L 166.226868 85.927902 
L 166.733568 81.701964 
L 167.730538 75.4718 
L 169.299448 67.356205 
L 171.580055 55.570451 
L 171.910459 53.568 
L 171.910459 53.568 
" style="fill:none;stroke:#ffffff;stroke-linecap:square;"/>
   </g>
   <g id="line2d_17">
    <path clip-path="url(#p8b20a6360a)" d="M 305.802479 295.488 
L 306.075966 277.302227 
L 306.53748 255.321614 
L 306.88987 251.396413 
L 307.778996 245.010005 
L 308.759506 238.258067 
L 309.25349 233.643709 
L 309.449352 228.974272 
L 309.380026 226.62387 
L 309.163066 224.266329 
L 308.766244 221.907826 
L 308.153906 219.56149 
L 307.290102 217.251456 
L 306.152659 215.02751 
L 304.783073 212.992859 
L 303.23628 211.168953 
L 301.552966 209.53668 
L 299.763683 208.071139 
L 297.890832 206.746746 
L 293.959711 204.429739 
L 289.869947 202.430206 
L 283.663079 199.777204 
L 275.858445 196.462087 
L 272.451547 194.780477 
L 269.374199 192.945999 
L 266.20532 190.702583 
L 261.244746 186.776645 
L 254.231895 181.163346 
L 250.489206 178.483955 
L 246.510854 176.074936 
L 244.408033 175.024587 
L 242.216028 174.112058 
L 239.928235 173.369496 
L 237.544798 172.833457 
L 234.921084 172.540968 
L 232.20453 172.618475 
L 229.635398 173.057197 
L 227.209371 173.767147 
L 224.904511 174.679568 
L 222.697088 175.742669 
L 218.504591 178.160327 
L 205.903389 186.127343 
L 203.319752 187.249115 
L 201.57073 187.707028 
L 200.67982 187.712788 
L 199.448961 187.4912 
L 198.08557 187.114829 
L 196.619113 186.585601 
L 193.481311 185.097818 
L 190.219929 183.108546 
L 186.990373 180.718087 
L 183.931022 178.036672 
L 181.17062 175.184229 
L 178.831209 172.295886 
L 177.024674 169.533708 
L 175.867854 167.215079 
L 175.530669 166.253255 
L 175.303704 165.14588 
L 175.195788 163.882508 
L 175.213155 162.467291 
L 175.618159 159.233765 
L 176.453265 155.564918 
L 178.235203 149.467876 
L 180.187879 142.85014 
L 181.297649 138.197013 
L 181.721314 135.79872 
L 182.018872 133.351239 
L 182.157088 130.978848 
L 182.094592 126.525441 
L 181.752056 122.176996 
L 181.216785 117.932954 
L 179.886397 109.751152 
L 178.686997 101.985708 
L 178.296034 98.270534 
L 178.117556 94.67322 
L 178.196641 91.017192 
L 178.481818 87.275211 
L 179.212092 81.565859 
L 180.215265 75.741572 
L 184.074773 55.575112 
L 184.074773 55.575112 
" style="fill:none;stroke:#ffffff;stroke-linecap:square;"/>
   </g>
   <g id="patch_3">
    <path d="M 57.6 307.584 
L 57.6 41.472 
" style="fill:none;stroke:#000000;stroke-linecap:square;stroke-linejoin:miter;stroke-width:0.8;"/>
   </g>
   <g id="patch_4">
    <path d="M 414.72 307.584 
L 414.72 41.472 
" style="fill:none;stroke:#000000;stroke-linecap:square;stroke-linejoin:miter;stroke-width:0.8;"/>
   </g>
   <g id="patch_5">
    <path d="M 57.6 307.584 
L 414.72 307.584 
" style="fill:none;stroke:#000000;stroke-linecap:square;stroke-linejoin:miter;stroke-width:0.8;"/>
   </g>
   <g id="patch_6">
    <path d="M 57.6 41.472 
L 414.72 41.472 
" style="fill:none;stroke:#000000;stroke-linecap:square;stroke-linejoin:miter;stroke-width:0.8;"/>
   </g>
  </g>
 </g>
 <defs>
  <clipPath id="p8b20a6360a">
   <rect height="266.112" width="357.12" x="57.6" y="41.472"/>
  </clipPath>
 </defs>
</svg>
