<?xml version="1.0" encoding="utf-8" standalone="no"?>
<!DOCTYPE svg PUBLIC "-//W3C//DTD SVG 1.1//EN"
  "http://www.w3.org/Graphics/SVG/1.1/DTD/svg11.dtd">
<!-- Created with matplotlib (https://matplotlib.org/) -->
<svg height="345.6pt" version="1.1" viewBox="0 0 460.8 345.6" width="460.8pt" xmlns="http://www.w3.org/2000/svg" xmlns:xlink="http://www.w3.org/1999/xlink">
 <metadata>
  <rdf:RDF xmlns:cc="http://creativecommons.org/ns#" xmlns:dc="http://purl.org/dc/elements/1.1/" xmlns:rdf="http://www.w3.org/1999/02/22-rdf-syntax-ns#">
   <cc:Work>
    <dc:type rdf:resource="http://purl.org/dc/dcmitype/StillImage"/>
    <dc:date>2021-06-28T10:10:13.880651</dc:date>
    <dc:format>image/svg+xml</dc:format>
    <dc:creator>
     <cc:Agent>
      <dc:title>Matplotlib v3.3.3, https://matplotlib.org/</dc:title>
     </cc:Agent>
    </dc:creator>
   </cc:Work>
  </rdf:RDF>
 </metadata>
 <defs>
  <style type="text/css">*{stroke-linecap:butt;stroke-linejoin:round;}</style>
 </defs>
 <g id="figure_1">
  <g id="patch_1">
   <path d="M 0 345.6 
L 460.8 345.6 
L 460.8 0 
L 0 0 
z
" style="fill:#ffffff;"/>
  </g>
  <g id="axes_1">
   <g id="patch_2">
    <path d="M 57.6 307.584 
L 414.72 307.584 
L 414.72 41.472 
L 57.6 41.472 
z
" style="fill:#7d9051;"/>
   </g>
   <g id="matplotlib.axis_1">
    <g id="xtick_1">
     <g id="line2d_1">
      <defs>
       <path d="M 0 0 
L 0 3.5 
" id="me9329012e2" style="stroke:#000000;stroke-width:0.8;"/>
      </defs>
      <g>
       <use style="stroke:#000000;stroke-width:0.8;" x="73.438732" xlink:href="#me9329012e2" y="307.584"/>
      </g>
     </g>
     <g id="text_1">
      <!-- −100 -->
      <g transform="translate(59.705138 322.182437)scale(0.1 -0.1)">
       <defs>
        <path d="M 10.59375 35.5 
L 73.1875 35.5 
L 73.1875 27.203125 
L 10.59375 27.203125 
z
" id="DejaVuSans-8722"/>
        <path d="M 12.40625 8.296875 
L 28.515625 8.296875 
L 28.515625 63.921875 
L 10.984375 60.40625 
L 10.984375 69.390625 
L 28.421875 72.90625 
L 38.28125 72.90625 
L 38.28125 8.296875 
L 54.390625 8.296875 
L 54.390625 0 
L 12.40625 0 
z
" id="DejaVuSans-49"/>
        <path d="M 31.78125 66.40625 
Q 24.171875 66.40625 20.328125 58.90625 
Q 16.5 51.421875 16.5 36.375 
Q 16.5 21.390625 20.328125 13.890625 
Q 24.171875 6.390625 31.78125 6.390625 
Q 39.453125 6.390625 43.28125 13.890625 
Q 47.125 21.390625 47.125 36.375 
Q 47.125 51.421875 43.28125 58.90625 
Q 39.453125 66.40625 31.78125 66.40625 
z
M 31.78125 74.21875 
Q 44.046875 74.21875 50.515625 64.515625 
Q 56.984375 54.828125 56.984375 36.375 
Q 56.984375 17.96875 50.515625 8.265625 
Q 44.046875 -1.421875 31.78125 -1.421875 
Q 19.53125 -1.421875 13.0625 8.265625 
Q 6.59375 17.96875 6.59375 36.375 
Q 6.59375 54.828125 13.0625 64.515625 
Q 19.53125 74.21875 31.78125 74.21875 
z
" id="DejaVuSans-48"/>
       </defs>
       <use xlink:href="#DejaVuSans-8722"/>
       <use x="83.789062" xlink:href="#DejaVuSans-49"/>
       <use x="147.412109" xlink:href="#DejaVuSans-48"/>
       <use x="211.035156" xlink:href="#DejaVuSans-48"/>
      </g>
     </g>
    </g>
    <g id="xtick_2">
     <g id="line2d_2">
      <g>
       <use style="stroke:#000000;stroke-width:0.8;" x="134.486043" xlink:href="#me9329012e2" y="307.584"/>
      </g>
     </g>
     <g id="text_2">
      <!-- −80 -->
      <g transform="translate(123.933699 322.182437)scale(0.1 -0.1)">
       <defs>
        <path d="M 31.78125 34.625 
Q 24.75 34.625 20.71875 30.859375 
Q 16.703125 27.09375 16.703125 20.515625 
Q 16.703125 13.921875 20.71875 10.15625 
Q 24.75 6.390625 31.78125 6.390625 
Q 38.8125 6.390625 42.859375 10.171875 
Q 46.921875 13.96875 46.921875 20.515625 
Q 46.921875 27.09375 42.890625 30.859375 
Q 38.875 34.625 31.78125 34.625 
z
M 21.921875 38.8125 
Q 15.578125 40.375 12.03125 44.71875 
Q 8.5 49.078125 8.5 55.328125 
Q 8.5 64.0625 14.71875 69.140625 
Q 20.953125 74.21875 31.78125 74.21875 
Q 42.671875 74.21875 48.875 69.140625 
Q 55.078125 64.0625 55.078125 55.328125 
Q 55.078125 49.078125 51.53125 44.71875 
Q 48 40.375 41.703125 38.8125 
Q 48.828125 37.15625 52.796875 32.3125 
Q 56.78125 27.484375 56.78125 20.515625 
Q 56.78125 9.90625 50.3125 4.234375 
Q 43.84375 -1.421875 31.78125 -1.421875 
Q 19.734375 -1.421875 13.25 4.234375 
Q 6.78125 9.90625 6.78125 20.515625 
Q 6.78125 27.484375 10.78125 32.3125 
Q 14.796875 37.15625 21.921875 38.8125 
z
M 18.3125 54.390625 
Q 18.3125 48.734375 21.84375 45.5625 
Q 25.390625 42.390625 31.78125 42.390625 
Q 38.140625 42.390625 41.71875 45.5625 
Q 45.3125 48.734375 45.3125 54.390625 
Q 45.3125 60.0625 41.71875 63.234375 
Q 38.140625 66.40625 31.78125 66.40625 
Q 25.390625 66.40625 21.84375 63.234375 
Q 18.3125 60.0625 18.3125 54.390625 
z
" id="DejaVuSans-56"/>
       </defs>
       <use xlink:href="#DejaVuSans-8722"/>
       <use x="83.789062" xlink:href="#DejaVuSans-56"/>
       <use x="147.412109" xlink:href="#DejaVuSans-48"/>
      </g>
     </g>
    </g>
    <g id="xtick_3">
     <g id="line2d_3">
      <g>
       <use style="stroke:#000000;stroke-width:0.8;" x="195.533354" xlink:href="#me9329012e2" y="307.584"/>
      </g>
     </g>
     <g id="text_3">
      <!-- −60 -->
      <g transform="translate(184.98101 322.182437)scale(0.1 -0.1)">
       <defs>
        <path d="M 33.015625 40.375 
Q 26.375 40.375 22.484375 35.828125 
Q 18.609375 31.296875 18.609375 23.390625 
Q 18.609375 15.53125 22.484375 10.953125 
Q 26.375 6.390625 33.015625 6.390625 
Q 39.65625 6.390625 43.53125 10.953125 
Q 47.40625 15.53125 47.40625 23.390625 
Q 47.40625 31.296875 43.53125 35.828125 
Q 39.65625 40.375 33.015625 40.375 
z
M 52.59375 71.296875 
L 52.59375 62.3125 
Q 48.875 64.0625 45.09375 64.984375 
Q 41.3125 65.921875 37.59375 65.921875 
Q 27.828125 65.921875 22.671875 59.328125 
Q 17.53125 52.734375 16.796875 39.40625 
Q 19.671875 43.65625 24.015625 45.921875 
Q 28.375 48.1875 33.59375 48.1875 
Q 44.578125 48.1875 50.953125 41.515625 
Q 57.328125 34.859375 57.328125 23.390625 
Q 57.328125 12.15625 50.6875 5.359375 
Q 44.046875 -1.421875 33.015625 -1.421875 
Q 20.359375 -1.421875 13.671875 8.265625 
Q 6.984375 17.96875 6.984375 36.375 
Q 6.984375 53.65625 15.1875 63.9375 
Q 23.390625 74.21875 37.203125 74.21875 
Q 40.921875 74.21875 44.703125 73.484375 
Q 48.484375 72.75 52.59375 71.296875 
z
" id="DejaVuSans-54"/>
       </defs>
       <use xlink:href="#DejaVuSans-8722"/>
       <use x="83.789062" xlink:href="#DejaVuSans-54"/>
       <use x="147.412109" xlink:href="#DejaVuSans-48"/>
      </g>
     </g>
    </g>
    <g id="xtick_4">
     <g id="line2d_4">
      <g>
       <use style="stroke:#000000;stroke-width:0.8;" x="256.580665" xlink:href="#me9329012e2" y="307.584"/>
      </g>
     </g>
     <g id="text_4">
      <!-- −40 -->
      <g transform="translate(246.028322 322.182437)scale(0.1 -0.1)">
       <defs>
        <path d="M 37.796875 64.3125 
L 12.890625 25.390625 
L 37.796875 25.390625 
z
M 35.203125 72.90625 
L 47.609375 72.90625 
L 47.609375 25.390625 
L 58.015625 25.390625 
L 58.015625 17.1875 
L 47.609375 17.1875 
L 47.609375 0 
L 37.796875 0 
L 37.796875 17.1875 
L 4.890625 17.1875 
L 4.890625 26.703125 
z
" id="DejaVuSans-52"/>
       </defs>
       <use xlink:href="#DejaVuSans-8722"/>
       <use x="83.789062" xlink:href="#DejaVuSans-52"/>
       <use x="147.412109" xlink:href="#DejaVuSans-48"/>
      </g>
     </g>
    </g>
    <g id="xtick_5">
     <g id="line2d_5">
      <g>
       <use style="stroke:#000000;stroke-width:0.8;" x="317.627977" xlink:href="#me9329012e2" y="307.584"/>
      </g>
     </g>
     <g id="text_5">
      <!-- −20 -->
      <g transform="translate(307.075633 322.182437)scale(0.1 -0.1)">
       <defs>
        <path d="M 19.1875 8.296875 
L 53.609375 8.296875 
L 53.609375 0 
L 7.328125 0 
L 7.328125 8.296875 
Q 12.9375 14.109375 22.625 23.890625 
Q 32.328125 33.6875 34.8125 36.53125 
Q 39.546875 41.84375 41.421875 45.53125 
Q 43.3125 49.21875 43.3125 52.78125 
Q 43.3125 58.59375 39.234375 62.25 
Q 35.15625 65.921875 28.609375 65.921875 
Q 23.96875 65.921875 18.8125 64.3125 
Q 13.671875 62.703125 7.8125 59.421875 
L 7.8125 69.390625 
Q 13.765625 71.78125 18.9375 73 
Q 24.125 74.21875 28.421875 74.21875 
Q 39.75 74.21875 46.484375 68.546875 
Q 53.21875 62.890625 53.21875 53.421875 
Q 53.21875 48.921875 51.53125 44.890625 
Q 49.859375 40.875 45.40625 35.40625 
Q 44.1875 33.984375 37.640625 27.21875 
Q 31.109375 20.453125 19.1875 8.296875 
z
" id="DejaVuSans-50"/>
       </defs>
       <use xlink:href="#DejaVuSans-8722"/>
       <use x="83.789062" xlink:href="#DejaVuSans-50"/>
       <use x="147.412109" xlink:href="#DejaVuSans-48"/>
      </g>
     </g>
    </g>
    <g id="xtick_6">
     <g id="line2d_6">
      <g>
       <use style="stroke:#000000;stroke-width:0.8;" x="378.675288" xlink:href="#me9329012e2" y="307.584"/>
      </g>
     </g>
     <g id="text_6">
      <!-- 0 -->
      <g transform="translate(375.494038 322.182437)scale(0.1 -0.1)">
       <use xlink:href="#DejaVuSans-48"/>
      </g>
     </g>
    </g>
   </g>
   <g id="matplotlib.axis_2">
    <g id="ytick_1">
     <g id="line2d_7">
      <defs>
       <path d="M 0 0 
L -3.5 0 
" id="m7cb87859be" style="stroke:#000000;stroke-width:0.8;"/>
      </defs>
      <g>
       <use style="stroke:#000000;stroke-width:0.8;" x="57.6" xlink:href="#m7cb87859be" y="300.057089"/>
      </g>
     </g>
     <g id="text_7">
      <!-- 0 -->
      <g transform="translate(44.2375 303.856308)scale(0.1 -0.1)">
       <use xlink:href="#DejaVuSans-48"/>
      </g>
     </g>
    </g>
    <g id="ytick_2">
     <g id="line2d_8">
      <g>
       <use style="stroke:#000000;stroke-width:0.8;" x="57.6" xlink:href="#m7cb87859be" y="269.533433"/>
      </g>
     </g>
     <g id="text_8">
      <!-- 10 -->
      <g transform="translate(37.875 273.332652)scale(0.1 -0.1)">
       <use xlink:href="#DejaVuSans-49"/>
       <use x="63.623047" xlink:href="#DejaVuSans-48"/>
      </g>
     </g>
    </g>
    <g id="ytick_3">
     <g id="line2d_9">
      <g>
       <use style="stroke:#000000;stroke-width:0.8;" x="57.6" xlink:href="#m7cb87859be" y="239.009778"/>
      </g>
     </g>
     <g id="text_9">
      <!-- 20 -->
      <g transform="translate(37.875 242.808997)scale(0.1 -0.1)">
       <use xlink:href="#DejaVuSans-50"/>
       <use x="63.623047" xlink:href="#DejaVuSans-48"/>
      </g>
     </g>
    </g>
    <g id="ytick_4">
     <g id="line2d_10">
      <g>
       <use style="stroke:#000000;stroke-width:0.8;" x="57.6" xlink:href="#m7cb87859be" y="208.486122"/>
      </g>
     </g>
     <g id="text_10">
      <!-- 30 -->
      <g transform="translate(37.875 212.285341)scale(0.1 -0.1)">
       <defs>
        <path d="M 40.578125 39.3125 
Q 47.65625 37.796875 51.625 33 
Q 55.609375 28.21875 55.609375 21.1875 
Q 55.609375 10.40625 48.1875 4.484375 
Q 40.765625 -1.421875 27.09375 -1.421875 
Q 22.515625 -1.421875 17.65625 -0.515625 
Q 12.796875 0.390625 7.625 2.203125 
L 7.625 11.71875 
Q 11.71875 9.328125 16.59375 8.109375 
Q 21.484375 6.890625 26.8125 6.890625 
Q 36.078125 6.890625 40.9375 10.546875 
Q 45.796875 14.203125 45.796875 21.1875 
Q 45.796875 27.640625 41.28125 31.265625 
Q 36.765625 34.90625 28.71875 34.90625 
L 20.21875 34.90625 
L 20.21875 43.015625 
L 29.109375 43.015625 
Q 36.375 43.015625 40.234375 45.921875 
Q 44.09375 48.828125 44.09375 54.296875 
Q 44.09375 59.90625 40.109375 62.90625 
Q 36.140625 65.921875 28.71875 65.921875 
Q 24.65625 65.921875 20.015625 65.03125 
Q 15.375 64.15625 9.8125 62.3125 
L 9.8125 71.09375 
Q 15.4375 72.65625 20.34375 73.4375 
Q 25.25 74.21875 29.59375 74.21875 
Q 40.828125 74.21875 47.359375 69.109375 
Q 53.90625 64.015625 53.90625 55.328125 
Q 53.90625 49.265625 50.4375 45.09375 
Q 46.96875 40.921875 40.578125 39.3125 
z
" id="DejaVuSans-51"/>
       </defs>
       <use xlink:href="#DejaVuSans-51"/>
       <use x="63.623047" xlink:href="#DejaVuSans-48"/>
      </g>
     </g>
    </g>
    <g id="ytick_5">
     <g id="line2d_11">
      <g>
       <use style="stroke:#000000;stroke-width:0.8;" x="57.6" xlink:href="#m7cb87859be" y="177.962467"/>
      </g>
     </g>
     <g id="text_11">
      <!-- 40 -->
      <g transform="translate(37.875 181.761686)scale(0.1 -0.1)">
       <use xlink:href="#DejaVuSans-52"/>
       <use x="63.623047" xlink:href="#DejaVuSans-48"/>
      </g>
     </g>
    </g>
    <g id="ytick_6">
     <g id="line2d_12">
      <g>
       <use style="stroke:#000000;stroke-width:0.8;" x="57.6" xlink:href="#m7cb87859be" y="147.438811"/>
      </g>
     </g>
     <g id="text_12">
      <!-- 50 -->
      <g transform="translate(37.875 151.23803)scale(0.1 -0.1)">
       <defs>
        <path d="M 10.796875 72.90625 
L 49.515625 72.90625 
L 49.515625 64.59375 
L 19.828125 64.59375 
L 19.828125 46.734375 
Q 21.96875 47.46875 24.109375 47.828125 
Q 26.265625 48.1875 28.421875 48.1875 
Q 40.625 48.1875 47.75 41.5 
Q 54.890625 34.8125 54.890625 23.390625 
Q 54.890625 11.625 47.5625 5.09375 
Q 40.234375 -1.421875 26.90625 -1.421875 
Q 22.3125 -1.421875 17.546875 -0.640625 
Q 12.796875 0.140625 7.71875 1.703125 
L 7.71875 11.625 
Q 12.109375 9.234375 16.796875 8.0625 
Q 21.484375 6.890625 26.703125 6.890625 
Q 35.15625 6.890625 40.078125 11.328125 
Q 45.015625 15.765625 45.015625 23.390625 
Q 45.015625 31 40.078125 35.4375 
Q 35.15625 39.890625 26.703125 39.890625 
Q 22.75 39.890625 18.8125 39.015625 
Q 14.890625 38.140625 10.796875 36.28125 
z
" id="DejaVuSans-53"/>
       </defs>
       <use xlink:href="#DejaVuSans-53"/>
       <use x="63.623047" xlink:href="#DejaVuSans-48"/>
      </g>
     </g>
    </g>
    <g id="ytick_7">
     <g id="line2d_13">
      <g>
       <use style="stroke:#000000;stroke-width:0.8;" x="57.6" xlink:href="#m7cb87859be" y="116.915156"/>
      </g>
     </g>
     <g id="text_13">
      <!-- 60 -->
      <g transform="translate(37.875 120.714374)scale(0.1 -0.1)">
       <use xlink:href="#DejaVuSans-54"/>
       <use x="63.623047" xlink:href="#DejaVuSans-48"/>
      </g>
     </g>
    </g>
    <g id="ytick_8">
     <g id="line2d_14">
      <g>
       <use style="stroke:#000000;stroke-width:0.8;" x="57.6" xlink:href="#m7cb87859be" y="86.3915"/>
      </g>
     </g>
     <g id="text_14">
      <!-- 70 -->
      <g transform="translate(37.875 90.190719)scale(0.1 -0.1)">
       <defs>
        <path d="M 8.203125 72.90625 
L 55.078125 72.90625 
L 55.078125 68.703125 
L 28.609375 0 
L 18.3125 0 
L 43.21875 64.59375 
L 8.203125 64.59375 
z
" id="DejaVuSans-55"/>
       </defs>
       <use xlink:href="#DejaVuSans-55"/>
       <use x="63.623047" xlink:href="#DejaVuSans-48"/>
      </g>
     </g>
    </g>
    <g id="ytick_9">
     <g id="line2d_15">
      <g>
       <use style="stroke:#000000;stroke-width:0.8;" x="57.6" xlink:href="#m7cb87859be" y="55.867844"/>
      </g>
     </g>
     <g id="text_15">
      <!-- 80 -->
      <g transform="translate(37.875 59.667063)scale(0.1 -0.1)">
       <use xlink:href="#DejaVuSans-56"/>
       <use x="63.623047" xlink:href="#DejaVuSans-48"/>
      </g>
     </g>
    </g>
   </g>
   <g id="line2d_16">
    <path clip-path="url(#p8fc53b100b)" d="M 378.675288 300.057089 
L 378.997408 275.962277 
L 380.007066 223.759572 
L 380.172385 219.679683 
L 380.506994 215.485606 
L 381.557115 206.840531 
L 383.608424 193.551765 
L 384.923061 184.728272 
L 385.899117 176.133153 
L 386.180823 171.97476 
L 386.282659 167.937691 
L 386.172881 164.043356 
L 385.81975 160.313166 
L 385.191523 156.768531 
L 384.256457 153.430861 
L 382.982811 150.321566 
L 381.338844 147.462056 
L 379.290921 144.771867 
L 376.850503 142.163043 
L 374.05349 139.645751 
L 370.93578 137.230161 
L 367.533274 134.926441 
L 363.88187 132.74476 
L 360.017467 130.695288 
L 355.975966 128.788192 
L 351.793265 127.033642 
L 347.505263 125.441807 
L 343.147861 124.022855 
L 338.756957 122.786955 
L 334.36845 121.744277 
L 330.018241 120.904989 
L 325.742228 120.279259 
L 321.576311 119.877257 
L 317.556388 119.709152 
L 313.71836 119.785112 
L 310.098125 120.115306 
L 306.620089 120.765237 
L 303.182907 121.773799 
L 299.783856 123.111248 
L 296.420212 124.747842 
L 293.089254 126.653838 
L 289.788257 128.799491 
L 286.514498 131.155059 
L 283.265254 133.690799 
L 276.829419 139.18382 
L 270.458966 145.040609 
L 257.827064 156.893704 
L 251.522044 162.414119 
L 245.232054 167.517279 
L 242.159724 170.204809 
L 236.153168 175.901215 
L 230.269165 181.866933 
L 218.573213 193.842399 
L 212.61346 199.470194 
L 209.573307 202.110554 
L 206.480653 204.603394 
L 203.32626 206.924841 
L 200.10089 209.051024 
L 196.795306 210.958069 
L 193.400269 212.622106 
L 189.906543 214.019262 
L 186.248041 215.230859 
L 182.384311 216.348443 
L 178.344567 217.363473 
L 174.158022 218.267409 
L 169.85389 219.051709 
L 165.461384 219.707833 
L 161.009718 220.227241 
L 156.528107 220.601391 
L 152.045762 220.821744 
L 147.591899 220.879759 
L 143.195731 220.766896 
L 138.886471 220.474613 
L 134.693332 219.99437 
L 130.64553 219.317626 
L 126.772276 218.435842 
L 123.102785 217.340476 
L 119.666271 216.022988 
L 116.491947 214.474837 
L 113.609027 212.687483 
L 110.924632 210.580559 
L 108.331902 208.101679 
L 105.839074 205.284276 
L 103.454386 202.16178 
L 101.186074 198.767623 
L 99.042376 195.135237 
L 97.031531 191.298054 
L 95.161774 187.289505 
L 93.441345 183.143021 
L 91.87848 178.892036 
L 90.481417 174.569979 
L 89.258393 170.210283 
L 88.217646 165.846379 
L 87.367413 161.511699 
L 86.715932 157.239674 
L 86.271441 153.063737 
L 86.042176 149.017319 
L 86.036376 145.133851 
L 86.262277 141.446765 
L 86.744722 137.822522 
L 87.493269 134.117636 
L 88.49323 130.350618 
L 89.729918 126.539978 
L 91.188645 122.704227 
L 92.854724 118.861874 
L 94.713468 115.031432 
L 96.750188 111.23141 
L 98.950198 107.480319 
L 101.29881 103.79667 
L 103.781335 100.198973 
L 106.383088 96.705739 
L 109.08938 93.335478 
L 111.885524 90.106701 
L 114.756833 87.037918 
L 117.688618 84.147641 
L 120.666192 81.454379 
L 123.674869 78.976644 
L 126.69996 76.732945 
L 129.820616 74.744188 
L 133.115808 73.004693 
L 136.570575 71.493094 
L 140.169957 70.188028 
L 143.898993 69.068127 
L 147.742724 68.112027 
L 151.68619 67.298363 
L 159.812483 66.01288 
L 168.158193 65.040755 
L 189.197001 62.859704 
L 197.368175 61.638316 
L 201.341561 60.867383 
L 201.341561 60.867383 
" style="fill:none;stroke:#fea952;stroke-linecap:square;"/>
   </g>
   <g id="line2d_17">
    <path clip-path="url(#p8fc53b100b)" d="M 366.466391 299.939623 
L 366.789836 275.747422 
L 367.807615 223.265244 
L 368.001595 218.708681 
L 368.370921 214.14893 
L 369.479062 205.054027 
L 371.541878 191.689123 
L 372.809303 183.202543 
L 373.717575 175.307927 
L 373.975243 171.666873 
L 374.078044 168.281726 
L 374.017766 165.194063 
L 373.797645 162.443884 
L 373.434724 160.062259 
L 372.958143 158.058935 
L 372.39795 156.406932 
L 371.624014 154.857531 
L 370.374537 153.112674 
L 368.68284 151.238297 
L 366.575547 149.297245 
L 364.090578 147.340263 
L 361.270905 145.407553 
L 358.161338 143.531163 
L 354.807058 141.737144 
L 351.253064 140.047196 
L 347.54409 138.479842 
L 343.724751 137.051229 
L 339.839827 135.775637 
L 335.934641 134.665739 
L 332.055525 133.732661 
L 328.2504 132.985788 
L 324.569489 132.432269 
L 321.06618 132.076058 
L 317.797983 131.916223 
L 314.827357 131.944104 
L 312.340852 132.11702 
L 310.05774 132.480762 
L 307.653429 133.135374 
L 305.125676 134.090134 
L 302.484014 135.345072 
L 299.74328 136.890776 
L 296.919236 138.710097 
L 294.026154 140.780338 
L 291.075768 143.075192 
L 285.036099 148.223808 
L 278.840649 153.918579 
L 265.967287 165.99358 
L 259.198837 171.908213 
L 253.270757 176.706959 
L 250.460237 179.158716 
L 244.798858 184.522294 
L 239.05376 190.346429 
L 227.058575 202.621328 
L 220.619435 208.6884 
L 217.235525 211.616415 
L 213.71755 214.436923 
L 210.046106 217.118694 
L 206.202179 219.626715 
L 202.168876 221.92145 
L 197.933813 223.958682 
L 193.744974 225.609664 
L 189.640561 226.959533 
L 185.359592 228.18984 
L 180.921385 229.297918 
L 176.346791 230.27908 
L 171.657648 231.127197 
L 166.876351 231.835027 
L 162.025501 232.394375 
L 157.127603 232.796127 
L 152.204787 233.030171 
L 147.278547 233.0852 
L 142.369501 232.94837 
L 137.497195 232.604777 
L 132.680003 232.03669 
L 127.935273 231.222477 
L 123.279949 230.135185 
L 118.732123 228.740839 
L 114.314192 226.996876 
L 110.058444 224.851784 
L 106.07072 222.291904 
L 102.487172 219.405536 
L 99.187878 216.192278 
L 96.135742 212.69483 
L 93.303154 208.945839 
L 90.671187 204.973114 
L 88.227884 200.802487 
L 85.96657 196.459218 
L 83.884492 191.968594 
L 81.981808 187.356094 
L 80.260871 182.647316 
L 78.725762 177.867788 
L 77.382009 173.04268 
L 76.236487 168.196442 
L 75.297493 163.352353 
L 74.575052 158.531963 
L 74.081529 153.754401 
L 73.832727 149.035555 
L 73.849765 144.387198 
L 74.159573 139.8357 
L 74.777085 135.404543 
L 75.692498 130.985102 
L 76.880031 126.581723 
L 78.317841 122.199992 
L 79.986912 117.847052 
L 81.870234 113.531589 
L 83.952244 109.263675 
L 86.218451 105.054561 
L 88.655209 100.916467 
L 91.249594 96.86239 
L 93.989368 92.905939 
L 96.86301 89.061193 
L 99.859811 85.342605 
L 102.970045 81.764927 
L 106.185208 78.343195 
L 109.498355 75.092777 
L 112.904545 72.029529 
L 116.401411 69.170126 
L 120.138225 66.436605 
L 124.120806 63.946821 
L 128.221651 61.819068 
L 132.408779 60.014836 
L 136.658171 58.494511 
L 140.951787 57.219712 
L 145.275489 56.154447 
L 149.617317 55.265461 
L 153.966217 54.522114 
L 162.640793 53.360933 
L 175.409912 52.060098 
L 187.539104 50.763326 
L 195.042611 49.652378 
L 199.015997 48.881444 
L 199.015997 48.881444 
" style="fill:none;stroke:#ffffff;stroke-linecap:square;"/>
   </g>
   <g id="line2d_18">
    <path clip-path="url(#p8fc53b100b)" d="M 390.884185 300.174556 
L 391.204979 276.177132 
L 392.206517 224.2539 
L 392.343175 220.650685 
L 392.643067 216.822282 
L 393.635168 208.627035 
L 395.67497 195.414407 
L 397.036818 186.254 
L 397.617015 181.617656 
L 398.080659 176.958379 
L 398.386403 172.282647 
L 398.487273 167.593656 
L 398.327997 162.89265 
L 397.841855 158.182449 
L 396.948322 153.474803 
L 395.554771 148.802787 
L 393.567672 144.236199 
L 391.053673 140.06658 
L 388.207305 136.43106 
L 385.018167 133.087788 
L 381.531433 129.994257 
L 377.780982 127.120058 
L 373.795642 124.445329 
L 369.602401 121.958357 
L 365.227877 119.653431 
L 360.698867 117.529188 
L 356.042439 115.587442 
L 351.285775 113.832384 
L 346.455894 112.270073 
L 341.579273 110.908172 
L 336.681376 109.755893 
L 331.786082 108.82419 
L 326.914967 108.126249 
L 322.086441 107.678457 
L 317.314793 107.50208 
L 312.609363 107.62612 
L 307.855399 108.113592 
L 303.182438 109.049712 
L 298.712384 110.412223 
L 294.442035 112.132363 
L 290.356411 114.150612 
L 286.435228 116.4169 
L 282.657277 118.888886 
L 279.002842 121.529781 
L 275.45474 124.306406 
L 268.62274 130.143832 
L 262.077283 136.162638 
L 249.686841 147.793828 
L 243.845251 152.920025 
L 237.193351 158.327598 
L 233.859211 161.250902 
L 227.507478 167.280136 
L 221.48457 173.387436 
L 210.087851 185.06347 
L 204.607485 190.251987 
L 201.911089 192.604694 
L 199.243756 194.769865 
L 196.606413 196.730989 
L 193.999601 198.475333 
L 191.421735 199.994689 
L 188.866726 201.28553 
L 186.068113 202.428859 
L 182.855522 203.502186 
L 179.409031 204.507047 
L 175.767749 205.429029 
L 171.969252 206.255737 
L 168.050131 206.97622 
L 164.046417 207.580639 
L 159.993936 208.060106 
L 155.928611 208.406656 
L 151.886738 208.613318 
L 147.905252 208.674319 
L 144.02196 208.585422 
L 140.275746 208.344449 
L 136.706662 207.95205 
L 133.355786 207.412775 
L 130.264603 206.736499 
L 127.473447 205.940113 
L 125.01835 205.0491 
L 122.92545 204.097891 
L 121.147333 203.083062 
L 119.362093 201.755582 
L 117.475927 200.011081 
L 115.542406 197.873721 
L 113.605618 195.377721 
L 111.700961 192.562132 
L 109.856869 189.467988 
L 108.096491 186.13689 
L 106.439056 182.610415 
L 104.900882 178.929949 
L 103.496089 175.136755 
L 102.237071 171.272169 
L 101.134776 167.377885 
L 100.198805 163.496315 
L 99.437332 159.671044 
L 98.856812 155.947385 
L 98.461352 152.373073 
L 98.251624 148.999083 
L 98.222986 145.880504 
L 98.364981 143.057829 
L 98.712359 140.240501 
L 99.29404 137.25017 
L 100.106429 134.119514 
L 101.141994 130.879964 
L 102.390378 127.561401 
L 103.839215 124.19216 
L 105.474692 120.799189 
L 107.281926 117.40826 
L 109.245187 114.044172 
L 111.348025 110.73095 
L 113.573303 107.492007 
L 115.903167 104.350284 
L 118.31895 101.328351 
L 120.801004 98.448475 
L 123.328457 95.732642 
L 125.878881 93.202505 
L 128.42784 90.879229 
L 130.948327 88.783161 
L 133.261694 87.029285 
L 135.520426 85.541555 
L 138.009965 84.190317 
L 140.732371 82.971353 
L 143.681742 81.881544 
L 146.846199 80.916542 
L 150.209959 80.069607 
L 153.755063 79.331265 
L 161.313769 78.129691 
L 169.37363 77.189568 
L 190.854898 74.956081 
L 195.268555 74.347463 
L 199.693739 73.624255 
L 203.667125 72.853321 
L 203.667125 72.853321 
" style="fill:none;stroke:#ffffff;stroke-linecap:square;"/>
   </g>
   <g id="patch_3">
    <path d="M 57.6 307.584 
L 57.6 41.472 
" style="fill:none;stroke:#000000;stroke-linecap:square;stroke-linejoin:miter;stroke-width:0.8;"/>
   </g>
   <g id="patch_4">
    <path d="M 414.72 307.584 
L 414.72 41.472 
" style="fill:none;stroke:#000000;stroke-linecap:square;stroke-linejoin:miter;stroke-width:0.8;"/>
   </g>
   <g id="patch_5">
    <path d="M 57.6 307.584 
L 414.72 307.584 
" style="fill:none;stroke:#000000;stroke-linecap:square;stroke-linejoin:miter;stroke-width:0.8;"/>
   </g>
   <g id="patch_6">
    <path d="M 57.6 41.472 
L 414.72 41.472 
" style="fill:none;stroke:#000000;stroke-linecap:square;stroke-linejoin:miter;stroke-width:0.8;"/>
   </g>
  </g>
 </g>
 <defs>
  <clipPath id="p8fc53b100b">
   <rect height="266.112" width="357.12" x="57.6" y="41.472"/>
  </clipPath>
 </defs>
</svg>
