<?xml version="1.0" encoding="utf-8" standalone="no"?>
<!DOCTYPE svg PUBLIC "-//W3C//DTD SVG 1.1//EN"
  "http://www.w3.org/Graphics/SVG/1.1/DTD/svg11.dtd">
<!-- Created with matplotlib (https://matplotlib.org/) -->
<svg height="345.6pt" version="1.1" viewBox="0 0 460.8 345.6" width="460.8pt" xmlns="http://www.w3.org/2000/svg" xmlns:xlink="http://www.w3.org/1999/xlink">
 <metadata>
  <rdf:RDF xmlns:cc="http://creativecommons.org/ns#" xmlns:dc="http://purl.org/dc/elements/1.1/" xmlns:rdf="http://www.w3.org/1999/02/22-rdf-syntax-ns#">
   <cc:Work>
    <dc:type rdf:resource="http://purl.org/dc/dcmitype/StillImage"/>
    <dc:date>2021-06-17T21:31:40.223208</dc:date>
    <dc:format>image/svg+xml</dc:format>
    <dc:creator>
     <cc:Agent>
      <dc:title>Matplotlib v3.3.3, https://matplotlib.org/</dc:title>
     </cc:Agent>
    </dc:creator>
   </cc:Work>
  </rdf:RDF>
 </metadata>
 <defs>
  <style type="text/css">*{stroke-linecap:butt;stroke-linejoin:round;}</style>
 </defs>
 <g id="figure_1">
  <g id="patch_1">
   <path d="M 0 345.6 
L 460.8 345.6 
L 460.8 0 
L 0 0 
z
" style="fill:#ffffff;"/>
  </g>
  <g id="axes_1">
   <g id="patch_2">
    <path d="M 57.6 307.584 
L 414.72 307.584 
L 414.72 41.472 
L 57.6 41.472 
z
" style="fill:#7d9051;"/>
   </g>
   <g id="matplotlib.axis_1">
    <g id="xtick_1">
     <g id="line2d_1">
      <defs>
       <path d="M 0 0 
L 0 3.5 
" id="m8d1925441d" style="stroke:#000000;stroke-width:0.8;"/>
      </defs>
      <g>
       <use style="stroke:#000000;stroke-width:0.8;" x="78.13626" xlink:href="#m8d1925441d" y="307.584"/>
      </g>
     </g>
     <g id="text_1">
      <!-- −20 -->
      <g transform="translate(67.583916 322.182437)scale(0.1 -0.1)">
       <defs>
        <path d="M 10.59375 35.5 
L 73.1875 35.5 
L 73.1875 27.203125 
L 10.59375 27.203125 
z
" id="DejaVuSans-8722"/>
        <path d="M 19.1875 8.296875 
L 53.609375 8.296875 
L 53.609375 0 
L 7.328125 0 
L 7.328125 8.296875 
Q 12.9375 14.109375 22.625 23.890625 
Q 32.328125 33.6875 34.8125 36.53125 
Q 39.546875 41.84375 41.421875 45.53125 
Q 43.3125 49.21875 43.3125 52.78125 
Q 43.3125 58.59375 39.234375 62.25 
Q 35.15625 65.921875 28.609375 65.921875 
Q 23.96875 65.921875 18.8125 64.3125 
Q 13.671875 62.703125 7.8125 59.421875 
L 7.8125 69.390625 
Q 13.765625 71.78125 18.9375 73 
Q 24.125 74.21875 28.421875 74.21875 
Q 39.75 74.21875 46.484375 68.546875 
Q 53.21875 62.890625 53.21875 53.421875 
Q 53.21875 48.921875 51.53125 44.890625 
Q 49.859375 40.875 45.40625 35.40625 
Q 44.1875 33.984375 37.640625 27.21875 
Q 31.109375 20.453125 19.1875 8.296875 
z
" id="DejaVuSans-50"/>
        <path d="M 31.78125 66.40625 
Q 24.171875 66.40625 20.328125 58.90625 
Q 16.5 51.421875 16.5 36.375 
Q 16.5 21.390625 20.328125 13.890625 
Q 24.171875 6.390625 31.78125 6.390625 
Q 39.453125 6.390625 43.28125 13.890625 
Q 47.125 21.390625 47.125 36.375 
Q 47.125 51.421875 43.28125 58.90625 
Q 39.453125 66.40625 31.78125 66.40625 
z
M 31.78125 74.21875 
Q 44.046875 74.21875 50.515625 64.515625 
Q 56.984375 54.828125 56.984375 36.375 
Q 56.984375 17.96875 50.515625 8.265625 
Q 44.046875 -1.421875 31.78125 -1.421875 
Q 19.53125 -1.421875 13.0625 8.265625 
Q 6.59375 17.96875 6.59375 36.375 
Q 6.59375 54.828125 13.0625 64.515625 
Q 19.53125 74.21875 31.78125 74.21875 
z
" id="DejaVuSans-48"/>
       </defs>
       <use xlink:href="#DejaVuSans-8722"/>
       <use x="83.789062" xlink:href="#DejaVuSans-50"/>
       <use x="147.412109" xlink:href="#DejaVuSans-48"/>
      </g>
     </g>
    </g>
    <g id="xtick_2">
     <g id="line2d_2">
      <g>
       <use style="stroke:#000000;stroke-width:0.8;" x="128.38685" xlink:href="#m8d1925441d" y="307.584"/>
      </g>
     </g>
     <g id="text_2">
      <!-- 0 -->
      <g transform="translate(125.2056 322.182437)scale(0.1 -0.1)">
       <use xlink:href="#DejaVuSans-48"/>
      </g>
     </g>
    </g>
    <g id="xtick_3">
     <g id="line2d_3">
      <g>
       <use style="stroke:#000000;stroke-width:0.8;" x="178.63744" xlink:href="#m8d1925441d" y="307.584"/>
      </g>
     </g>
     <g id="text_3">
      <!-- 20 -->
      <g transform="translate(172.27494 322.182437)scale(0.1 -0.1)">
       <use xlink:href="#DejaVuSans-50"/>
       <use x="63.623047" xlink:href="#DejaVuSans-48"/>
      </g>
     </g>
    </g>
    <g id="xtick_4">
     <g id="line2d_4">
      <g>
       <use style="stroke:#000000;stroke-width:0.8;" x="228.88803" xlink:href="#m8d1925441d" y="307.584"/>
      </g>
     </g>
     <g id="text_4">
      <!-- 40 -->
      <g transform="translate(222.52553 322.182437)scale(0.1 -0.1)">
       <defs>
        <path d="M 37.796875 64.3125 
L 12.890625 25.390625 
L 37.796875 25.390625 
z
M 35.203125 72.90625 
L 47.609375 72.90625 
L 47.609375 25.390625 
L 58.015625 25.390625 
L 58.015625 17.1875 
L 47.609375 17.1875 
L 47.609375 0 
L 37.796875 0 
L 37.796875 17.1875 
L 4.890625 17.1875 
L 4.890625 26.703125 
z
" id="DejaVuSans-52"/>
       </defs>
       <use xlink:href="#DejaVuSans-52"/>
       <use x="63.623047" xlink:href="#DejaVuSans-48"/>
      </g>
     </g>
    </g>
    <g id="xtick_5">
     <g id="line2d_5">
      <g>
       <use style="stroke:#000000;stroke-width:0.8;" x="279.13862" xlink:href="#m8d1925441d" y="307.584"/>
      </g>
     </g>
     <g id="text_5">
      <!-- 60 -->
      <g transform="translate(272.77612 322.182437)scale(0.1 -0.1)">
       <defs>
        <path d="M 33.015625 40.375 
Q 26.375 40.375 22.484375 35.828125 
Q 18.609375 31.296875 18.609375 23.390625 
Q 18.609375 15.53125 22.484375 10.953125 
Q 26.375 6.390625 33.015625 6.390625 
Q 39.65625 6.390625 43.53125 10.953125 
Q 47.40625 15.53125 47.40625 23.390625 
Q 47.40625 31.296875 43.53125 35.828125 
Q 39.65625 40.375 33.015625 40.375 
z
M 52.59375 71.296875 
L 52.59375 62.3125 
Q 48.875 64.0625 45.09375 64.984375 
Q 41.3125 65.921875 37.59375 65.921875 
Q 27.828125 65.921875 22.671875 59.328125 
Q 17.53125 52.734375 16.796875 39.40625 
Q 19.671875 43.65625 24.015625 45.921875 
Q 28.375 48.1875 33.59375 48.1875 
Q 44.578125 48.1875 50.953125 41.515625 
Q 57.328125 34.859375 57.328125 23.390625 
Q 57.328125 12.15625 50.6875 5.359375 
Q 44.046875 -1.421875 33.015625 -1.421875 
Q 20.359375 -1.421875 13.671875 8.265625 
Q 6.984375 17.96875 6.984375 36.375 
Q 6.984375 53.65625 15.1875 63.9375 
Q 23.390625 74.21875 37.203125 74.21875 
Q 40.921875 74.21875 44.703125 73.484375 
Q 48.484375 72.75 52.59375 71.296875 
z
" id="DejaVuSans-54"/>
       </defs>
       <use xlink:href="#DejaVuSans-54"/>
       <use x="63.623047" xlink:href="#DejaVuSans-48"/>
      </g>
     </g>
    </g>
    <g id="xtick_6">
     <g id="line2d_6">
      <g>
       <use style="stroke:#000000;stroke-width:0.8;" x="329.38921" xlink:href="#m8d1925441d" y="307.584"/>
      </g>
     </g>
     <g id="text_6">
      <!-- 80 -->
      <g transform="translate(323.02671 322.182437)scale(0.1 -0.1)">
       <defs>
        <path d="M 31.78125 34.625 
Q 24.75 34.625 20.71875 30.859375 
Q 16.703125 27.09375 16.703125 20.515625 
Q 16.703125 13.921875 20.71875 10.15625 
Q 24.75 6.390625 31.78125 6.390625 
Q 38.8125 6.390625 42.859375 10.171875 
Q 46.921875 13.96875 46.921875 20.515625 
Q 46.921875 27.09375 42.890625 30.859375 
Q 38.875 34.625 31.78125 34.625 
z
M 21.921875 38.8125 
Q 15.578125 40.375 12.03125 44.71875 
Q 8.5 49.078125 8.5 55.328125 
Q 8.5 64.0625 14.71875 69.140625 
Q 20.953125 74.21875 31.78125 74.21875 
Q 42.671875 74.21875 48.875 69.140625 
Q 55.078125 64.0625 55.078125 55.328125 
Q 55.078125 49.078125 51.53125 44.71875 
Q 48 40.375 41.703125 38.8125 
Q 48.828125 37.15625 52.796875 32.3125 
Q 56.78125 27.484375 56.78125 20.515625 
Q 56.78125 9.90625 50.3125 4.234375 
Q 43.84375 -1.421875 31.78125 -1.421875 
Q 19.734375 -1.421875 13.25 4.234375 
Q 6.78125 9.90625 6.78125 20.515625 
Q 6.78125 27.484375 10.78125 32.3125 
Q 14.796875 37.15625 21.921875 38.8125 
z
M 18.3125 54.390625 
Q 18.3125 48.734375 21.84375 45.5625 
Q 25.390625 42.390625 31.78125 42.390625 
Q 38.140625 42.390625 41.71875 45.5625 
Q 45.3125 48.734375 45.3125 54.390625 
Q 45.3125 60.0625 41.71875 63.234375 
Q 38.140625 66.40625 31.78125 66.40625 
Q 25.390625 66.40625 21.84375 63.234375 
Q 18.3125 60.0625 18.3125 54.390625 
z
" id="DejaVuSans-56"/>
       </defs>
       <use xlink:href="#DejaVuSans-56"/>
       <use x="63.623047" xlink:href="#DejaVuSans-48"/>
      </g>
     </g>
    </g>
    <g id="xtick_7">
     <g id="line2d_7">
      <g>
       <use style="stroke:#000000;stroke-width:0.8;" x="379.6398" xlink:href="#m8d1925441d" y="307.584"/>
      </g>
     </g>
     <g id="text_7">
      <!-- 100 -->
      <g transform="translate(370.09605 322.182437)scale(0.1 -0.1)">
       <defs>
        <path d="M 12.40625 8.296875 
L 28.515625 8.296875 
L 28.515625 63.921875 
L 10.984375 60.40625 
L 10.984375 69.390625 
L 28.421875 72.90625 
L 38.28125 72.90625 
L 38.28125 8.296875 
L 54.390625 8.296875 
L 54.390625 0 
L 12.40625 0 
z
" id="DejaVuSans-49"/>
       </defs>
       <use xlink:href="#DejaVuSans-49"/>
       <use x="63.623047" xlink:href="#DejaVuSans-48"/>
       <use x="127.246094" xlink:href="#DejaVuSans-48"/>
      </g>
     </g>
    </g>
   </g>
   <g id="matplotlib.axis_2">
    <g id="ytick_1">
     <g id="line2d_8">
      <defs>
       <path d="M 0 0 
L -3.5 0 
" id="m1f5d3bfb1e" style="stroke:#000000;stroke-width:0.8;"/>
      </defs>
      <g>
       <use style="stroke:#000000;stroke-width:0.8;" x="57.6" xlink:href="#m1f5d3bfb1e" y="295.391308"/>
      </g>
     </g>
     <g id="text_8">
      <!-- 0 -->
      <g transform="translate(44.2375 299.190527)scale(0.1 -0.1)">
       <use xlink:href="#DejaVuSans-48"/>
      </g>
     </g>
    </g>
    <g id="ytick_2">
     <g id="line2d_9">
      <g>
       <use style="stroke:#000000;stroke-width:0.8;" x="57.6" xlink:href="#m1f5d3bfb1e" y="245.140718"/>
      </g>
     </g>
     <g id="text_9">
      <!-- 20 -->
      <g transform="translate(37.875 248.939937)scale(0.1 -0.1)">
       <use xlink:href="#DejaVuSans-50"/>
       <use x="63.623047" xlink:href="#DejaVuSans-48"/>
      </g>
     </g>
    </g>
    <g id="ytick_3">
     <g id="line2d_10">
      <g>
       <use style="stroke:#000000;stroke-width:0.8;" x="57.6" xlink:href="#m1f5d3bfb1e" y="194.890128"/>
      </g>
     </g>
     <g id="text_10">
      <!-- 40 -->
      <g transform="translate(37.875 198.689347)scale(0.1 -0.1)">
       <use xlink:href="#DejaVuSans-52"/>
       <use x="63.623047" xlink:href="#DejaVuSans-48"/>
      </g>
     </g>
    </g>
    <g id="ytick_4">
     <g id="line2d_11">
      <g>
       <use style="stroke:#000000;stroke-width:0.8;" x="57.6" xlink:href="#m1f5d3bfb1e" y="144.639538"/>
      </g>
     </g>
     <g id="text_11">
      <!-- 60 -->
      <g transform="translate(37.875 148.438757)scale(0.1 -0.1)">
       <use xlink:href="#DejaVuSans-54"/>
       <use x="63.623047" xlink:href="#DejaVuSans-48"/>
      </g>
     </g>
    </g>
    <g id="ytick_5">
     <g id="line2d_12">
      <g>
       <use style="stroke:#000000;stroke-width:0.8;" x="57.6" xlink:href="#m1f5d3bfb1e" y="94.388948"/>
      </g>
     </g>
     <g id="text_12">
      <!-- 80 -->
      <g transform="translate(37.875 98.188167)scale(0.1 -0.1)">
       <use xlink:href="#DejaVuSans-56"/>
       <use x="63.623047" xlink:href="#DejaVuSans-48"/>
      </g>
     </g>
    </g>
    <g id="ytick_6">
     <g id="line2d_13">
      <g>
       <use style="stroke:#000000;stroke-width:0.8;" x="57.6" xlink:href="#m1f5d3bfb1e" y="44.138358"/>
      </g>
     </g>
     <g id="text_13">
      <!-- 100 -->
      <g transform="translate(31.5125 47.937577)scale(0.1 -0.1)">
       <use xlink:href="#DejaVuSans-49"/>
       <use x="63.623047" xlink:href="#DejaVuSans-48"/>
       <use x="127.246094" xlink:href="#DejaVuSans-48"/>
      </g>
     </g>
    </g>
   </g>
   <g id="line2d_14">
    <path clip-path="url(#p236b172284)" d="M 128.38685 295.391308 
L 128.710177 272.252411 
L 129.523333 225.966163 
L 129.312044 212.682208 
L 129.047933 196.077264 
L 129.112488 189.459206 
L 129.353874 182.866 
L 129.82514 176.305102 
L 130.579334 169.783967 
L 132.528285 156.599945 
L 134.28137 146.61031 
L 135.668985 139.989803 
L 137.281579 133.455226 
L 139.161894 127.053321 
L 141.352674 120.830827 
L 143.896661 114.834486 
L 145.314463 111.935729 
L 148.468474 106.274293 
L 152.049141 100.367081 
L 156.012621 94.309323 
L 160.31123 88.29432 
L 164.897285 82.515373 
L 167.283204 79.774826 
L 169.723103 77.165781 
L 172.211022 74.712399 
L 174.741 72.438845 
L 177.307078 70.369279 
L 179.903294 68.527865 
L 182.523689 66.938765 
L 185.162301 65.626142 
L 187.813171 64.614159 
L 190.470338 63.926977 
L 193.161073 63.614613 
L 195.913651 63.687331 
L 198.723617 64.109666 
L 201.586517 64.846153 
L 204.497897 65.861327 
L 207.453302 67.119723 
L 210.448278 68.585876 
L 216.539124 71.99959 
L 225.860812 77.791708 
L 232.146915 81.687059 
L 238.448759 85.278553 
L 241.594447 86.87169 
L 244.730708 88.282469 
L 247.853086 89.475422 
L 251.010535 90.471329 
L 254.246411 91.328382 
L 260.902027 92.708559 
L 267.717108 93.781218 
L 284.777654 96.202022 
L 291.341087 97.499824 
L 294.515507 98.301961 
L 297.601258 99.233799 
L 300.585486 100.315995 
L 303.455339 101.569209 
L 306.197962 103.014098 
L 308.800502 104.67132 
L 311.360305 106.548142 
L 313.968321 108.625733 
L 316.602097 110.885604 
L 319.239181 113.309265 
L 321.857122 115.878225 
L 324.433467 118.573995 
L 326.945765 121.378085 
L 329.371564 124.272006 
L 331.688413 127.237267 
L 333.873859 130.255379 
L 335.905451 133.307851 
L 337.760737 136.376195 
L 339.417265 139.441921 
L 340.852583 142.486538 
L 342.04424 145.491557 
L 342.969784 148.438487 
L 343.606763 151.30884 
L 343.932725 154.084126 
L 343.925218 156.745854 
L 343.552328 159.431296 
L 342.815843 162.269133 
L 341.743862 165.227989 
L 340.364486 168.276487 
L 338.705816 171.383251 
L 336.795953 174.516905 
L 334.662997 177.646073 
L 332.33505 180.739378 
L 329.840211 183.765444 
L 327.206582 186.692895 
L 324.462263 189.490354 
L 321.635355 192.126446 
L 318.753958 194.569794 
L 315.846173 196.789021 
L 312.940102 198.752752 
L 310.063844 200.42961 
L 307.2455 201.78822 
L 304.513171 202.797204 
L 301.894958 203.425186 
L 299.308356 203.64417 
L 296.655891 203.469567 
L 293.943206 202.935114 
L 291.175949 202.074545 
L 288.359764 200.921597 
L 285.500298 199.510007 
L 282.603195 197.87351 
L 279.6741 196.045842 
L 273.742521 191.951938 
L 264.746356 185.220701 
L 258.748913 180.73321 
L 252.80416 176.560588 
L 249.865657 174.676693 
L 246.957263 172.972724 
L 246.957263 172.972724 
" style="fill:none;stroke:#fea952;stroke-linecap:square;"/>
   </g>
   <g id="line2d_15">
    <path clip-path="url(#p236b172284)" d="M 118.337197 295.294617 
L 118.661764 272.067296 
L 119.473531 226.045833 
L 119.264478 212.908683 
L 119.01541 199.446187 
L 119.066556 189.169188 
L 119.323001 182.244345 
L 119.828543 175.269278 
L 120.628255 168.376527 
L 122.611415 154.968821 
L 123.779958 148.08944 
L 125.129815 141.153495 
L 126.71134 134.204714 
L 128.577693 127.286379 
L 130.785305 120.442456 
L 132.035681 117.062735 
L 133.394112 113.719319 
L 134.86857 110.418781 
L 136.467123 107.168188 
L 139.832214 101.134267 
L 143.587645 94.944171 
L 147.770222 88.558869 
L 152.352375 82.157424 
L 154.787442 79.005875 
L 157.317294 75.916236 
L 159.942738 72.910248 
L 162.66644 70.009777 
L 165.493442 67.237174 
L 168.43174 64.615923 
L 171.492833 62.171753 
L 174.691946 59.934453 
L 178.047381 57.940569 
L 181.577923 56.236941 
L 185.29685 54.884153 
L 189.311415 53.943902 
L 193.426486 53.568 
L 197.407396 53.74884 
L 201.227506 54.376454 
L 204.895515 55.356401 
L 208.43513 56.61454 
L 211.872139 58.093165 
L 215.228536 59.7454 
L 221.759803 63.411844 
L 231.199335 69.276719 
L 237.238084 73.021906 
L 242.989521 76.312709 
L 245.717351 77.706182 
L 248.317629 78.894238 
L 250.876227 79.890774 
L 253.583682 80.756197 
L 256.441312 81.52087 
L 262.550755 82.794601 
L 269.087013 83.824902 
L 286.582144 86.315228 
L 290.186854 86.977608 
L 293.803238 87.755971 
L 297.420866 88.680955 
L 301.027489 89.78574 
L 304.60744 91.105742 
L 308.139707 92.677552 
L 311.596081 94.536765 
L 314.74302 96.5663 
L 317.622339 98.687365 
L 320.512771 100.998477 
L 323.40286 103.485976 
L 326.278266 106.13597 
L 329.122742 108.934477 
L 331.918751 111.867625 
L 334.647862 114.921881 
L 337.290993 118.084315 
L 339.828533 121.342921 
L 342.240349 124.68701 
L 344.505648 128.107709 
L 346.60264 131.598579 
L 348.507856 135.15636 
L 350.194939 138.781775 
L 351.63258 142.480143 
L 352.781214 146.261169 
L 353.58827 150.136495 
L 353.982803 154.112469 
L 353.879827 158.128111 
L 353.280186 161.955905 
L 352.264939 165.692501 
L 350.900273 169.371056 
L 349.230188 173.009794 
L 347.287666 176.613617 
L 345.100337 180.177478 
L 342.693151 183.689375 
L 340.089537 187.132561 
L 337.311771 190.4871 
L 334.380903 193.730933 
L 331.316367 196.840601 
L 328.135275 199.791686 
L 324.85132 202.558977 
L 321.473139 205.116213 
L 318.001905 207.435091 
L 314.427989 209.482737 
L 310.726978 211.216061 
L 306.857225 212.57014 
L 302.742778 213.43948 
L 298.64822 213.672584 
L 294.71316 213.330129 
L 290.958777 212.531887 
L 287.368177 211.375391 
L 283.911016 209.933451 
L 280.557344 208.260555 
L 277.282957 206.399936 
L 274.070389 204.3887 
L 267.790058 200.049657 
L 258.691739 193.242327 
L 250.086669 186.881466 
L 244.785228 183.348147 
L 241.876834 181.644178 
L 241.876834 181.644178 
" style="fill:none;stroke:#ffffff;stroke-linecap:square;"/>
   </g>
   <g id="line2d_16">
    <path clip-path="url(#p236b172284)" d="M 138.436503 295.488 
L 138.75859 272.437525 
L 139.573135 225.886493 
L 139.35961 212.455733 
L 139.097968 196.1182 
L 139.158421 189.749224 
L 139.384747 183.487655 
L 139.821736 177.340926 
L 140.530414 171.191407 
L 142.445154 158.231069 
L 144.133605 148.594836 
L 145.449601 142.301602 
L 146.95769 136.171427 
L 148.688611 130.254342 
L 150.669667 124.598919 
L 152.924751 119.250191 
L 154.161804 116.70327 
L 157.104735 111.41432 
L 160.510637 105.789991 
L 164.25502 100.059778 
L 168.270085 94.431217 
L 172.477276 89.114509 
L 176.779765 84.321784 
L 178.928602 82.187624 
L 181.05026 80.261767 
L 183.121323 78.566804 
L 185.114642 77.121277 
L 186.999996 75.936962 
L 188.746679 75.015344 
L 191.62926 73.910051 
L 192.895659 73.661225 
L 194.419905 73.625822 
L 196.219727 73.842878 
L 198.277519 74.335906 
L 200.560664 75.108114 
L 203.034465 76.146281 
L 205.66802 77.426351 
L 211.318444 80.587336 
L 220.522289 86.306697 
L 227.055746 90.352211 
L 233.907997 94.244396 
L 237.471544 96.037198 
L 241.143787 97.670699 
L 244.829944 99.060071 
L 248.437388 100.186461 
L 252.05151 101.135893 
L 255.660458 101.93854 
L 262.819258 103.214021 
L 273.24102 104.670956 
L 282.973163 106.088815 
L 288.878935 107.243678 
L 291.610147 107.922967 
L 294.175026 108.681857 
L 296.563532 109.526248 
L 298.77097 110.460866 
L 300.799842 111.491431 
L 302.857983 112.776339 
L 305.098272 114.408918 
L 307.423871 116.25299 
L 309.801334 118.285232 
L 314.591501 122.821972 
L 319.243668 127.834289 
L 321.452135 130.459696 
L 323.548293 133.131612 
L 325.50737 135.823747 
L 327.305254 138.507993 
L 328.918834 141.153812 
L 330.326674 143.727482 
L 331.510228 146.191301 
L 332.455901 148.50297 
L 333.158354 150.615806 
L 333.625256 152.481185 
L 333.882647 154.055782 
L 333.970609 155.363596 
L 333.82447 156.906687 
L 333.366746 158.845765 
L 332.58745 161.084922 
L 331.498784 163.543179 
L 330.123966 166.152885 
L 328.491569 168.856332 
L 326.632844 171.60277 
L 324.580562 174.346194 
L 322.368651 177.043787 
L 320.032261 179.654856 
L 317.608158 182.140107 
L 315.135435 184.461205 
L 312.656596 186.58061 
L 310.219208 188.461829 
L 307.878298 190.070413 
L 305.699698 191.376483 
L 303.764023 192.360379 
L 301.047139 193.410893 
L 299.968493 193.615756 
L 298.598621 193.609006 
L 296.927635 193.33834 
L 294.983721 192.773698 
L 292.808512 191.909743 
L 290.443251 190.75946 
L 287.923432 189.347084 
L 285.277812 187.702983 
L 279.694984 183.854219 
L 270.800973 177.199075 
L 264.613404 172.571554 
L 258.228356 168.099916 
L 254.946086 166.00524 
L 252.037692 164.30127 
L 252.037692 164.30127 
" style="fill:none;stroke:#ffffff;stroke-linecap:square;"/>
   </g>
   <g id="patch_3">
    <path d="M 57.6 307.584 
L 57.6 41.472 
" style="fill:none;stroke:#000000;stroke-linecap:square;stroke-linejoin:miter;stroke-width:0.8;"/>
   </g>
   <g id="patch_4">
    <path d="M 414.72 307.584 
L 414.72 41.472 
" style="fill:none;stroke:#000000;stroke-linecap:square;stroke-linejoin:miter;stroke-width:0.8;"/>
   </g>
   <g id="patch_5">
    <path d="M 57.6 307.584 
L 414.72 307.584 
" style="fill:none;stroke:#000000;stroke-linecap:square;stroke-linejoin:miter;stroke-width:0.8;"/>
   </g>
   <g id="patch_6">
    <path d="M 57.6 41.472 
L 414.72 41.472 
" style="fill:none;stroke:#000000;stroke-linecap:square;stroke-linejoin:miter;stroke-width:0.8;"/>
   </g>
  </g>
 </g>
 <defs>
  <clipPath id="p236b172284">
   <rect height="266.112" width="357.12" x="57.6" y="41.472"/>
  </clipPath>
 </defs>
</svg>
