<?xml version="1.0" encoding="utf-8" standalone="no"?>
<!DOCTYPE svg PUBLIC "-//W3C//DTD SVG 1.1//EN"
  "http://www.w3.org/Graphics/SVG/1.1/DTD/svg11.dtd">
<!-- Created with matplotlib (https://matplotlib.org/) -->
<svg height="345.6pt" version="1.1" viewBox="0 0 460.8 345.6" width="460.8pt" xmlns="http://www.w3.org/2000/svg" xmlns:xlink="http://www.w3.org/1999/xlink">
 <metadata>
  <rdf:RDF xmlns:cc="http://creativecommons.org/ns#" xmlns:dc="http://purl.org/dc/elements/1.1/" xmlns:rdf="http://www.w3.org/1999/02/22-rdf-syntax-ns#">
   <cc:Work>
    <dc:type rdf:resource="http://purl.org/dc/dcmitype/StillImage"/>
    <dc:date>2021-06-19T01:10:30.058070</dc:date>
    <dc:format>image/svg+xml</dc:format>
    <dc:creator>
     <cc:Agent>
      <dc:title>Matplotlib v3.3.3, https://matplotlib.org/</dc:title>
     </cc:Agent>
    </dc:creator>
   </cc:Work>
  </rdf:RDF>
 </metadata>
 <defs>
  <style type="text/css">*{stroke-linecap:butt;stroke-linejoin:round;}</style>
 </defs>
 <g id="figure_1">
  <g id="patch_1">
   <path d="M 0 345.6 
L 460.8 345.6 
L 460.8 0 
L 0 0 
z
" style="fill:#ffffff;"/>
  </g>
  <g id="axes_1">
   <g id="patch_2">
    <path d="M 57.6 307.584 
L 414.72 307.584 
L 414.72 41.472 
L 57.6 41.472 
z
" style="fill:#7d9051;"/>
   </g>
   <g id="matplotlib.axis_1">
    <g id="xtick_1">
     <g id="line2d_1">
      <defs>
       <path d="M 0 0 
L 0 3.5 
" id="m20a8c6e1ae" style="stroke:#000000;stroke-width:0.8;"/>
      </defs>
      <g>
       <use style="stroke:#000000;stroke-width:0.8;" x="101.607292" xlink:href="#m20a8c6e1ae" y="307.584"/>
      </g>
     </g>
     <g id="text_1">
      <!-- −100 -->
      <g transform="translate(87.873698 322.182437)scale(0.1 -0.1)">
       <defs>
        <path d="M 10.59375 35.5 
L 73.1875 35.5 
L 73.1875 27.203125 
L 10.59375 27.203125 
z
" id="DejaVuSans-8722"/>
        <path d="M 12.40625 8.296875 
L 28.515625 8.296875 
L 28.515625 63.921875 
L 10.984375 60.40625 
L 10.984375 69.390625 
L 28.421875 72.90625 
L 38.28125 72.90625 
L 38.28125 8.296875 
L 54.390625 8.296875 
L 54.390625 0 
L 12.40625 0 
z
" id="DejaVuSans-49"/>
        <path d="M 31.78125 66.40625 
Q 24.171875 66.40625 20.328125 58.90625 
Q 16.5 51.421875 16.5 36.375 
Q 16.5 21.390625 20.328125 13.890625 
Q 24.171875 6.390625 31.78125 6.390625 
Q 39.453125 6.390625 43.28125 13.890625 
Q 47.125 21.390625 47.125 36.375 
Q 47.125 51.421875 43.28125 58.90625 
Q 39.453125 66.40625 31.78125 66.40625 
z
M 31.78125 74.21875 
Q 44.046875 74.21875 50.515625 64.515625 
Q 56.984375 54.828125 56.984375 36.375 
Q 56.984375 17.96875 50.515625 8.265625 
Q 44.046875 -1.421875 31.78125 -1.421875 
Q 19.53125 -1.421875 13.0625 8.265625 
Q 6.59375 17.96875 6.59375 36.375 
Q 6.59375 54.828125 13.0625 64.515625 
Q 19.53125 74.21875 31.78125 74.21875 
z
" id="DejaVuSans-48"/>
       </defs>
       <use xlink:href="#DejaVuSans-8722"/>
       <use x="83.789062" xlink:href="#DejaVuSans-49"/>
       <use x="147.412109" xlink:href="#DejaVuSans-48"/>
       <use x="211.035156" xlink:href="#DejaVuSans-48"/>
      </g>
     </g>
    </g>
    <g id="xtick_2">
     <g id="line2d_2">
      <g>
       <use style="stroke:#000000;stroke-width:0.8;" x="162.146461" xlink:href="#m20a8c6e1ae" y="307.584"/>
      </g>
     </g>
     <g id="text_2">
      <!-- −50 -->
      <g transform="translate(151.594117 322.182437)scale(0.1 -0.1)">
       <defs>
        <path d="M 10.796875 72.90625 
L 49.515625 72.90625 
L 49.515625 64.59375 
L 19.828125 64.59375 
L 19.828125 46.734375 
Q 21.96875 47.46875 24.109375 47.828125 
Q 26.265625 48.1875 28.421875 48.1875 
Q 40.625 48.1875 47.75 41.5 
Q 54.890625 34.8125 54.890625 23.390625 
Q 54.890625 11.625 47.5625 5.09375 
Q 40.234375 -1.421875 26.90625 -1.421875 
Q 22.3125 -1.421875 17.546875 -0.640625 
Q 12.796875 0.140625 7.71875 1.703125 
L 7.71875 11.625 
Q 12.109375 9.234375 16.796875 8.0625 
Q 21.484375 6.890625 26.703125 6.890625 
Q 35.15625 6.890625 40.078125 11.328125 
Q 45.015625 15.765625 45.015625 23.390625 
Q 45.015625 31 40.078125 35.4375 
Q 35.15625 39.890625 26.703125 39.890625 
Q 22.75 39.890625 18.8125 39.015625 
Q 14.890625 38.140625 10.796875 36.28125 
z
" id="DejaVuSans-53"/>
       </defs>
       <use xlink:href="#DejaVuSans-8722"/>
       <use x="83.789062" xlink:href="#DejaVuSans-53"/>
       <use x="147.412109" xlink:href="#DejaVuSans-48"/>
      </g>
     </g>
    </g>
    <g id="xtick_3">
     <g id="line2d_3">
      <g>
       <use style="stroke:#000000;stroke-width:0.8;" x="222.685629" xlink:href="#m20a8c6e1ae" y="307.584"/>
      </g>
     </g>
     <g id="text_3">
      <!-- 0 -->
      <g transform="translate(219.504379 322.182437)scale(0.1 -0.1)">
       <use xlink:href="#DejaVuSans-48"/>
      </g>
     </g>
    </g>
    <g id="xtick_4">
     <g id="line2d_4">
      <g>
       <use style="stroke:#000000;stroke-width:0.8;" x="283.224798" xlink:href="#m20a8c6e1ae" y="307.584"/>
      </g>
     </g>
     <g id="text_4">
      <!-- 50 -->
      <g transform="translate(276.862298 322.182437)scale(0.1 -0.1)">
       <use xlink:href="#DejaVuSans-53"/>
       <use x="63.623047" xlink:href="#DejaVuSans-48"/>
      </g>
     </g>
    </g>
    <g id="xtick_5">
     <g id="line2d_5">
      <g>
       <use style="stroke:#000000;stroke-width:0.8;" x="343.763967" xlink:href="#m20a8c6e1ae" y="307.584"/>
      </g>
     </g>
     <g id="text_5">
      <!-- 100 -->
      <g transform="translate(334.220217 322.182437)scale(0.1 -0.1)">
       <use xlink:href="#DejaVuSans-49"/>
       <use x="63.623047" xlink:href="#DejaVuSans-48"/>
       <use x="127.246094" xlink:href="#DejaVuSans-48"/>
      </g>
     </g>
    </g>
    <g id="xtick_6">
     <g id="line2d_6">
      <g>
       <use style="stroke:#000000;stroke-width:0.8;" x="404.303135" xlink:href="#m20a8c6e1ae" y="307.584"/>
      </g>
     </g>
     <g id="text_6">
      <!-- 150 -->
      <g transform="translate(394.759385 322.182437)scale(0.1 -0.1)">
       <use xlink:href="#DejaVuSans-49"/>
       <use x="63.623047" xlink:href="#DejaVuSans-53"/>
       <use x="127.246094" xlink:href="#DejaVuSans-48"/>
      </g>
     </g>
    </g>
   </g>
   <g id="matplotlib.axis_2">
    <g id="ytick_1">
     <g id="line2d_7">
      <defs>
       <path d="M 0 0 
L -3.5 0 
" id="mf874c8fc3e" style="stroke:#000000;stroke-width:0.8;"/>
      </defs>
      <g>
       <use style="stroke:#000000;stroke-width:0.8;" x="57.6" xlink:href="#mf874c8fc3e" y="295.441404"/>
      </g>
     </g>
     <g id="text_7">
      <!-- 0 -->
      <g transform="translate(44.2375 299.240623)scale(0.1 -0.1)">
       <use xlink:href="#DejaVuSans-48"/>
      </g>
     </g>
    </g>
    <g id="ytick_2">
     <g id="line2d_8">
      <g>
       <use style="stroke:#000000;stroke-width:0.8;" x="57.6" xlink:href="#mf874c8fc3e" y="265.17182"/>
      </g>
     </g>
     <g id="text_8">
      <!-- 25 -->
      <g transform="translate(37.875 268.971039)scale(0.1 -0.1)">
       <defs>
        <path d="M 19.1875 8.296875 
L 53.609375 8.296875 
L 53.609375 0 
L 7.328125 0 
L 7.328125 8.296875 
Q 12.9375 14.109375 22.625 23.890625 
Q 32.328125 33.6875 34.8125 36.53125 
Q 39.546875 41.84375 41.421875 45.53125 
Q 43.3125 49.21875 43.3125 52.78125 
Q 43.3125 58.59375 39.234375 62.25 
Q 35.15625 65.921875 28.609375 65.921875 
Q 23.96875 65.921875 18.8125 64.3125 
Q 13.671875 62.703125 7.8125 59.421875 
L 7.8125 69.390625 
Q 13.765625 71.78125 18.9375 73 
Q 24.125 74.21875 28.421875 74.21875 
Q 39.75 74.21875 46.484375 68.546875 
Q 53.21875 62.890625 53.21875 53.421875 
Q 53.21875 48.921875 51.53125 44.890625 
Q 49.859375 40.875 45.40625 35.40625 
Q 44.1875 33.984375 37.640625 27.21875 
Q 31.109375 20.453125 19.1875 8.296875 
z
" id="DejaVuSans-50"/>
       </defs>
       <use xlink:href="#DejaVuSans-50"/>
       <use x="63.623047" xlink:href="#DejaVuSans-53"/>
      </g>
     </g>
    </g>
    <g id="ytick_3">
     <g id="line2d_9">
      <g>
       <use style="stroke:#000000;stroke-width:0.8;" x="57.6" xlink:href="#mf874c8fc3e" y="234.902236"/>
      </g>
     </g>
     <g id="text_9">
      <!-- 50 -->
      <g transform="translate(37.875 238.701455)scale(0.1 -0.1)">
       <use xlink:href="#DejaVuSans-53"/>
       <use x="63.623047" xlink:href="#DejaVuSans-48"/>
      </g>
     </g>
    </g>
    <g id="ytick_4">
     <g id="line2d_10">
      <g>
       <use style="stroke:#000000;stroke-width:0.8;" x="57.6" xlink:href="#mf874c8fc3e" y="204.632651"/>
      </g>
     </g>
     <g id="text_10">
      <!-- 75 -->
      <g transform="translate(37.875 208.43187)scale(0.1 -0.1)">
       <defs>
        <path d="M 8.203125 72.90625 
L 55.078125 72.90625 
L 55.078125 68.703125 
L 28.609375 0 
L 18.3125 0 
L 43.21875 64.59375 
L 8.203125 64.59375 
z
" id="DejaVuSans-55"/>
       </defs>
       <use xlink:href="#DejaVuSans-55"/>
       <use x="63.623047" xlink:href="#DejaVuSans-53"/>
      </g>
     </g>
    </g>
    <g id="ytick_5">
     <g id="line2d_11">
      <g>
       <use style="stroke:#000000;stroke-width:0.8;" x="57.6" xlink:href="#mf874c8fc3e" y="174.363067"/>
      </g>
     </g>
     <g id="text_11">
      <!-- 100 -->
      <g transform="translate(31.5125 178.162286)scale(0.1 -0.1)">
       <use xlink:href="#DejaVuSans-49"/>
       <use x="63.623047" xlink:href="#DejaVuSans-48"/>
       <use x="127.246094" xlink:href="#DejaVuSans-48"/>
      </g>
     </g>
    </g>
    <g id="ytick_6">
     <g id="line2d_12">
      <g>
       <use style="stroke:#000000;stroke-width:0.8;" x="57.6" xlink:href="#mf874c8fc3e" y="144.093483"/>
      </g>
     </g>
     <g id="text_12">
      <!-- 125 -->
      <g transform="translate(31.5125 147.892701)scale(0.1 -0.1)">
       <use xlink:href="#DejaVuSans-49"/>
       <use x="63.623047" xlink:href="#DejaVuSans-50"/>
       <use x="127.246094" xlink:href="#DejaVuSans-53"/>
      </g>
     </g>
    </g>
    <g id="ytick_7">
     <g id="line2d_13">
      <g>
       <use style="stroke:#000000;stroke-width:0.8;" x="57.6" xlink:href="#mf874c8fc3e" y="113.823898"/>
      </g>
     </g>
     <g id="text_13">
      <!-- 150 -->
      <g transform="translate(31.5125 117.623117)scale(0.1 -0.1)">
       <use xlink:href="#DejaVuSans-49"/>
       <use x="63.623047" xlink:href="#DejaVuSans-53"/>
       <use x="127.246094" xlink:href="#DejaVuSans-48"/>
      </g>
     </g>
    </g>
    <g id="ytick_8">
     <g id="line2d_14">
      <g>
       <use style="stroke:#000000;stroke-width:0.8;" x="57.6" xlink:href="#mf874c8fc3e" y="83.554314"/>
      </g>
     </g>
     <g id="text_14">
      <!-- 175 -->
      <g transform="translate(31.5125 87.353533)scale(0.1 -0.1)">
       <use xlink:href="#DejaVuSans-49"/>
       <use x="63.623047" xlink:href="#DejaVuSans-55"/>
       <use x="127.246094" xlink:href="#DejaVuSans-53"/>
      </g>
     </g>
    </g>
    <g id="ytick_9">
     <g id="line2d_15">
      <g>
       <use style="stroke:#000000;stroke-width:0.8;" x="57.6" xlink:href="#mf874c8fc3e" y="53.28473"/>
      </g>
     </g>
     <g id="text_15">
      <!-- 200 -->
      <g transform="translate(31.5125 57.083948)scale(0.1 -0.1)">
       <use xlink:href="#DejaVuSans-50"/>
       <use x="63.623047" xlink:href="#DejaVuSans-48"/>
       <use x="127.246094" xlink:href="#DejaVuSans-48"/>
      </g>
     </g>
    </g>
   </g>
   <g id="line2d_16">
    <path clip-path="url(#p570d659664)" d="M 222.685629 295.441404 
L 222.964363 277.919341 
L 223.216346 263.573801 
L 222.986933 258.675038 
L 222.155719 247.131001 
L 222.146508 243.920332 
L 222.362756 240.796209 
L 222.872102 237.784596 
L 223.742184 234.911456 
L 224.33762 233.538608 
L 225.849964 230.927072 
L 227.719454 228.462194 
L 229.860315 226.10531 
L 233.392791 222.687897 
L 239.421948 216.984442 
L 241.633025 214.587571 
L 243.600818 212.066711 
L 252.130321 199.949384 
L 253.842502 197.146842 
L 255.368372 194.308131 
L 256.6527 191.434986 
L 257.640254 188.529143 
L 258.275803 185.592336 
L 258.494265 182.608252 
L 258.317498 179.566486 
L 257.820683 176.477635 
L 257.079001 173.352294 
L 255.671811 168.619046 
L 252.726994 159.120831 
L 251.982403 155.984215 
L 251.457683 152.781751 
L 250.966256 147.764919 
L 250.302513 139.303942 
L 249.869784 136.048766 
L 249.227536 132.951807 
L 248.299795 130.069317 
L 247.705123 128.726078 
L 247.010588 127.457551 
L 246.206694 126.270768 
L 245.258612 125.191476 
L 244.150511 124.231366 
L 242.901385 123.376388 
L 241.53023 122.61249 
L 238.497814 121.301728 
L 235.205226 120.186669 
L 226.832768 117.517524 
L 223.826292 116.202188 
L 222.472431 115.435241 
L 221.243481 114.576705 
L 220.158438 113.61253 
L 219.236297 112.528664 
L 217.707072 110.046578 
L 216.449158 107.238981 
L 215.451045 104.173493 
L 214.701223 100.917735 
L 214.188184 97.539326 
L 213.900417 94.105886 
L 213.826413 90.685036 
L 213.954664 87.344396 
L 214.27366 84.151586 
L 214.801547 81.150211 
L 215.684203 78.234284 
L 216.887274 75.371976 
L 218.344467 72.552194 
L 220.861721 68.377988 
L 227.939008 57.307787 
L 228.7118 55.905292 
L 228.7118 55.905292 
" style="fill:none;stroke:#fea952;stroke-linecap:square;"/>
   </g>
   <g id="line2d_17">
    <path clip-path="url(#p570d659664)" d="M 217.84272 295.394809 
L 218.122223 277.821239 
L 218.336253 262.188597 
L 218.033429 257.426038 
L 217.384815 248.962634 
L 217.284381 245.457764 
L 217.398883 241.908404 
L 217.825963 238.332523 
L 218.190571 236.543947 
L 218.67481 234.76323 
L 219.298972 232.984329 
L 220.062518 231.26277 
L 220.941185 229.638263 
L 222.964801 226.651703 
L 225.235006 223.952876 
L 227.645993 221.466978 
L 232.531616 216.89184 
L 235.917333 213.641746 
L 237.889176 211.515188 
L 239.647221 209.269388 
L 248.027353 197.376139 
L 250.330128 193.507419 
L 251.582662 190.991399 
L 252.5625 188.547396 
L 253.241988 186.189819 
L 253.599271 183.930281 
L 253.625733 181.514317 
L 253.340448 178.899483 
L 252.780846 176.107898 
L 251.54616 171.649485 
L 248.032105 160.309934 
L 247.217763 156.852633 
L 246.647556 153.346222 
L 246.135726 148.11409 
L 245.493073 139.87423 
L 245.10714 136.928061 
L 244.573251 134.291051 
L 243.871245 132.029901 
L 243.00078 130.173685 
L 242.087159 128.85178 
L 241.41499 128.227973 
L 240.544295 127.607236 
L 238.25585 126.421758 
L 235.383681 125.334719 
L 225.015956 122.006972 
L 223.217846 121.270913 
L 221.439134 120.416143 
L 219.698827 119.405513 
L 218.026452 118.197018 
L 216.4697 116.750866 
L 215.209407 115.219407 
L 214.225202 113.723408 
L 213.348153 112.157446 
L 211.881873 108.850144 
L 210.754686 105.356774 
L 209.926649 101.729757 
L 209.369062 98.021003 
L 209.060543 94.283558 
L 208.984615 90.571324 
L 209.128619 86.937909 
L 209.483858 83.434834 
L 210.12704 79.883354 
L 211.177546 76.460591 
L 212.547762 73.221493 
L 214.145489 70.138789 
L 216.795559 65.746967 
L 223.697191 54.970496 
L 224.469983 53.568 
L 224.469983 53.568 
" style="fill:none;stroke:#ffffff;stroke-linecap:square;"/>
   </g>
   <g id="line2d_18">
    <path clip-path="url(#p570d659664)" d="M 227.528539 295.488 
L 227.806503 278.017442 
L 228.057802 263.446328 
L 227.81578 258.303318 
L 226.998095 247.045339 
L 226.984051 244.152958 
L 227.158767 241.47017 
L 227.553633 239.025245 
L 228.185395 236.838583 
L 229.146391 234.78592 
L 230.526052 232.705731 
L 232.287642 230.592462 
L 234.365415 228.44359 
L 239.142002 223.971851 
L 242.926563 220.327138 
L 245.376873 217.659955 
L 247.554414 214.864034 
L 256.23329 202.522629 
L 258.071591 199.507085 
L 259.748467 196.374701 
L 261.196707 193.110677 
L 262.339487 189.700957 
L 262.768975 187.939184 
L 263.089873 186.122125 
L 263.279002 184.286053 
L 263.335385 182.468617 
L 263.114871 178.902297 
L 262.549424 175.431239 
L 261.743748 172.04996 
L 260.281982 167.135045 
L 257.421882 157.931728 
L 256.747043 155.115796 
L 256.267809 152.217281 
L 255.796786 147.415748 
L 255.111953 138.733653 
L 254.632429 135.16947 
L 253.881821 131.612563 
L 253.364667 129.850153 
L 252.728345 128.108733 
L 251.953207 126.400197 
L 251.020396 124.741417 
L 249.845333 123.074481 
L 248.430066 121.531172 
L 246.886032 120.23476 
L 245.258475 119.145541 
L 243.575667 118.222487 
L 240.114827 116.736511 
L 236.622812 115.555644 
L 228.649579 113.028077 
L 226.213451 111.988233 
L 224.46051 110.956392 
L 223.847175 110.474194 
L 223.263187 109.837921 
L 222.065992 107.93571 
L 221.016443 105.627818 
L 220.147404 102.990212 
L 219.475798 100.105712 
L 219.007305 97.057648 
L 218.74029 93.928214 
L 218.668212 90.798748 
L 218.780709 87.750883 
L 219.063463 84.868338 
L 219.476053 82.417068 
L 220.190859 80.007977 
L 221.226786 77.522459 
L 222.543445 74.965599 
L 224.927883 71.009009 
L 232.180824 59.645079 
L 232.953616 58.242584 
L 232.953616 58.242584 
" style="fill:none;stroke:#ffffff;stroke-linecap:square;"/>
   </g>
   <g id="patch_3">
    <path d="M 57.6 307.584 
L 57.6 41.472 
" style="fill:none;stroke:#000000;stroke-linecap:square;stroke-linejoin:miter;stroke-width:0.8;"/>
   </g>
   <g id="patch_4">
    <path d="M 414.72 307.584 
L 414.72 41.472 
" style="fill:none;stroke:#000000;stroke-linecap:square;stroke-linejoin:miter;stroke-width:0.8;"/>
   </g>
   <g id="patch_5">
    <path d="M 57.6 307.584 
L 414.72 307.584 
" style="fill:none;stroke:#000000;stroke-linecap:square;stroke-linejoin:miter;stroke-width:0.8;"/>
   </g>
   <g id="patch_6">
    <path d="M 57.6 41.472 
L 414.72 41.472 
" style="fill:none;stroke:#000000;stroke-linecap:square;stroke-linejoin:miter;stroke-width:0.8;"/>
   </g>
  </g>
 </g>
 <defs>
  <clipPath id="p570d659664">
   <rect height="266.112" width="357.12" x="57.6" y="41.472"/>
  </clipPath>
 </defs>
</svg>
