<?xml version="1.0" encoding="utf-8" standalone="no"?>
<!DOCTYPE svg PUBLIC "-//W3C//DTD SVG 1.1//EN"
  "http://www.w3.org/Graphics/SVG/1.1/DTD/svg11.dtd">
<!-- Created with matplotlib (https://matplotlib.org/) -->
<svg height="345.6pt" version="1.1" viewBox="0 0 460.8 345.6" width="460.8pt" xmlns="http://www.w3.org/2000/svg" xmlns:xlink="http://www.w3.org/1999/xlink">
 <metadata>
  <rdf:RDF xmlns:cc="http://creativecommons.org/ns#" xmlns:dc="http://purl.org/dc/elements/1.1/" xmlns:rdf="http://www.w3.org/1999/02/22-rdf-syntax-ns#">
   <cc:Work>
    <dc:type rdf:resource="http://purl.org/dc/dcmitype/StillImage"/>
    <dc:date>2021-06-17T16:08:48.463095</dc:date>
    <dc:format>image/svg+xml</dc:format>
    <dc:creator>
     <cc:Agent>
      <dc:title>Matplotlib v3.3.3, https://matplotlib.org/</dc:title>
     </cc:Agent>
    </dc:creator>
   </cc:Work>
  </rdf:RDF>
 </metadata>
 <defs>
  <style type="text/css">*{stroke-linecap:butt;stroke-linejoin:round;}</style>
 </defs>
 <g id="figure_1">
  <g id="patch_1">
   <path d="M 0 345.6 
L 460.8 345.6 
L 460.8 0 
L 0 0 
z
" style="fill:#ffffff;"/>
  </g>
  <g id="axes_1">
   <g id="patch_2">
    <path d="M 57.6 307.584 
L 414.72 307.584 
L 414.72 41.472 
L 57.6 41.472 
z
" style="fill:#7d9051;"/>
   </g>
   <g id="matplotlib.axis_1">
    <g id="xtick_1">
     <g id="line2d_1">
      <defs>
       <path d="M 0 0 
L 0 3.5 
" id="mc0532ef4b5" style="stroke:#000000;stroke-width:0.8;"/>
      </defs>
      <g>
       <use style="stroke:#000000;stroke-width:0.8;" x="67.590498" xlink:href="#mc0532ef4b5" y="307.584"/>
      </g>
     </g>
     <g id="text_1">
      <!-- −75 -->
      <g transform="translate(57.038154 322.182437)scale(0.1 -0.1)">
       <defs>
        <path d="M 10.59375 35.5 
L 73.1875 35.5 
L 73.1875 27.203125 
L 10.59375 27.203125 
z
" id="DejaVuSans-8722"/>
        <path d="M 8.203125 72.90625 
L 55.078125 72.90625 
L 55.078125 68.703125 
L 28.609375 0 
L 18.3125 0 
L 43.21875 64.59375 
L 8.203125 64.59375 
z
" id="DejaVuSans-55"/>
        <path d="M 10.796875 72.90625 
L 49.515625 72.90625 
L 49.515625 64.59375 
L 19.828125 64.59375 
L 19.828125 46.734375 
Q 21.96875 47.46875 24.109375 47.828125 
Q 26.265625 48.1875 28.421875 48.1875 
Q 40.625 48.1875 47.75 41.5 
Q 54.890625 34.8125 54.890625 23.390625 
Q 54.890625 11.625 47.5625 5.09375 
Q 40.234375 -1.421875 26.90625 -1.421875 
Q 22.3125 -1.421875 17.546875 -0.640625 
Q 12.796875 0.140625 7.71875 1.703125 
L 7.71875 11.625 
Q 12.109375 9.234375 16.796875 8.0625 
Q 21.484375 6.890625 26.703125 6.890625 
Q 35.15625 6.890625 40.078125 11.328125 
Q 45.015625 15.765625 45.015625 23.390625 
Q 45.015625 31 40.078125 35.4375 
Q 35.15625 39.890625 26.703125 39.890625 
Q 22.75 39.890625 18.8125 39.015625 
Q 14.890625 38.140625 10.796875 36.28125 
z
" id="DejaVuSans-53"/>
       </defs>
       <use xlink:href="#DejaVuSans-8722"/>
       <use x="83.789062" xlink:href="#DejaVuSans-55"/>
       <use x="147.412109" xlink:href="#DejaVuSans-53"/>
      </g>
     </g>
    </g>
    <g id="xtick_2">
     <g id="line2d_2">
      <g>
       <use style="stroke:#000000;stroke-width:0.8;" x="109.866752" xlink:href="#mc0532ef4b5" y="307.584"/>
      </g>
     </g>
     <g id="text_2">
      <!-- −50 -->
      <g transform="translate(99.314409 322.182437)scale(0.1 -0.1)">
       <defs>
        <path d="M 31.78125 66.40625 
Q 24.171875 66.40625 20.328125 58.90625 
Q 16.5 51.421875 16.5 36.375 
Q 16.5 21.390625 20.328125 13.890625 
Q 24.171875 6.390625 31.78125 6.390625 
Q 39.453125 6.390625 43.28125 13.890625 
Q 47.125 21.390625 47.125 36.375 
Q 47.125 51.421875 43.28125 58.90625 
Q 39.453125 66.40625 31.78125 66.40625 
z
M 31.78125 74.21875 
Q 44.046875 74.21875 50.515625 64.515625 
Q 56.984375 54.828125 56.984375 36.375 
Q 56.984375 17.96875 50.515625 8.265625 
Q 44.046875 -1.421875 31.78125 -1.421875 
Q 19.53125 -1.421875 13.0625 8.265625 
Q 6.59375 17.96875 6.59375 36.375 
Q 6.59375 54.828125 13.0625 64.515625 
Q 19.53125 74.21875 31.78125 74.21875 
z
" id="DejaVuSans-48"/>
       </defs>
       <use xlink:href="#DejaVuSans-8722"/>
       <use x="83.789062" xlink:href="#DejaVuSans-53"/>
       <use x="147.412109" xlink:href="#DejaVuSans-48"/>
      </g>
     </g>
    </g>
    <g id="xtick_3">
     <g id="line2d_3">
      <g>
       <use style="stroke:#000000;stroke-width:0.8;" x="152.143007" xlink:href="#mc0532ef4b5" y="307.584"/>
      </g>
     </g>
     <g id="text_3">
      <!-- −25 -->
      <g transform="translate(141.590663 322.182437)scale(0.1 -0.1)">
       <defs>
        <path d="M 19.1875 8.296875 
L 53.609375 8.296875 
L 53.609375 0 
L 7.328125 0 
L 7.328125 8.296875 
Q 12.9375 14.109375 22.625 23.890625 
Q 32.328125 33.6875 34.8125 36.53125 
Q 39.546875 41.84375 41.421875 45.53125 
Q 43.3125 49.21875 43.3125 52.78125 
Q 43.3125 58.59375 39.234375 62.25 
Q 35.15625 65.921875 28.609375 65.921875 
Q 23.96875 65.921875 18.8125 64.3125 
Q 13.671875 62.703125 7.8125 59.421875 
L 7.8125 69.390625 
Q 13.765625 71.78125 18.9375 73 
Q 24.125 74.21875 28.421875 74.21875 
Q 39.75 74.21875 46.484375 68.546875 
Q 53.21875 62.890625 53.21875 53.421875 
Q 53.21875 48.921875 51.53125 44.890625 
Q 49.859375 40.875 45.40625 35.40625 
Q 44.1875 33.984375 37.640625 27.21875 
Q 31.109375 20.453125 19.1875 8.296875 
z
" id="DejaVuSans-50"/>
       </defs>
       <use xlink:href="#DejaVuSans-8722"/>
       <use x="83.789062" xlink:href="#DejaVuSans-50"/>
       <use x="147.412109" xlink:href="#DejaVuSans-53"/>
      </g>
     </g>
    </g>
    <g id="xtick_4">
     <g id="line2d_4">
      <g>
       <use style="stroke:#000000;stroke-width:0.8;" x="194.419262" xlink:href="#mc0532ef4b5" y="307.584"/>
      </g>
     </g>
     <g id="text_4">
      <!-- 0 -->
      <g transform="translate(191.238012 322.182437)scale(0.1 -0.1)">
       <use xlink:href="#DejaVuSans-48"/>
      </g>
     </g>
    </g>
    <g id="xtick_5">
     <g id="line2d_5">
      <g>
       <use style="stroke:#000000;stroke-width:0.8;" x="236.695517" xlink:href="#mc0532ef4b5" y="307.584"/>
      </g>
     </g>
     <g id="text_5">
      <!-- 25 -->
      <g transform="translate(230.333017 322.182437)scale(0.1 -0.1)">
       <use xlink:href="#DejaVuSans-50"/>
       <use x="63.623047" xlink:href="#DejaVuSans-53"/>
      </g>
     </g>
    </g>
    <g id="xtick_6">
     <g id="line2d_6">
      <g>
       <use style="stroke:#000000;stroke-width:0.8;" x="278.971771" xlink:href="#mc0532ef4b5" y="307.584"/>
      </g>
     </g>
     <g id="text_6">
      <!-- 50 -->
      <g transform="translate(272.609271 322.182437)scale(0.1 -0.1)">
       <use xlink:href="#DejaVuSans-53"/>
       <use x="63.623047" xlink:href="#DejaVuSans-48"/>
      </g>
     </g>
    </g>
    <g id="xtick_7">
     <g id="line2d_7">
      <g>
       <use style="stroke:#000000;stroke-width:0.8;" x="321.248026" xlink:href="#mc0532ef4b5" y="307.584"/>
      </g>
     </g>
     <g id="text_7">
      <!-- 75 -->
      <g transform="translate(314.885526 322.182437)scale(0.1 -0.1)">
       <use xlink:href="#DejaVuSans-55"/>
       <use x="63.623047" xlink:href="#DejaVuSans-53"/>
      </g>
     </g>
    </g>
    <g id="xtick_8">
     <g id="line2d_8">
      <g>
       <use style="stroke:#000000;stroke-width:0.8;" x="363.524281" xlink:href="#mc0532ef4b5" y="307.584"/>
      </g>
     </g>
     <g id="text_8">
      <!-- 100 -->
      <g transform="translate(353.980531 322.182437)scale(0.1 -0.1)">
       <defs>
        <path d="M 12.40625 8.296875 
L 28.515625 8.296875 
L 28.515625 63.921875 
L 10.984375 60.40625 
L 10.984375 69.390625 
L 28.421875 72.90625 
L 38.28125 72.90625 
L 38.28125 8.296875 
L 54.390625 8.296875 
L 54.390625 0 
L 12.40625 0 
z
" id="DejaVuSans-49"/>
       </defs>
       <use xlink:href="#DejaVuSans-49"/>
       <use x="63.623047" xlink:href="#DejaVuSans-48"/>
       <use x="127.246094" xlink:href="#DejaVuSans-48"/>
      </g>
     </g>
    </g>
    <g id="xtick_9">
     <g id="line2d_9">
      <g>
       <use style="stroke:#000000;stroke-width:0.8;" x="405.800536" xlink:href="#mc0532ef4b5" y="307.584"/>
      </g>
     </g>
     <g id="text_9">
      <!-- 125 -->
      <g transform="translate(396.256786 322.182437)scale(0.1 -0.1)">
       <use xlink:href="#DejaVuSans-49"/>
       <use x="63.623047" xlink:href="#DejaVuSans-50"/>
       <use x="127.246094" xlink:href="#DejaVuSans-53"/>
      </g>
     </g>
    </g>
   </g>
   <g id="matplotlib.axis_2">
    <g id="ytick_1">
     <g id="line2d_10">
      <defs>
       <path d="M 0 0 
L -3.5 0 
" id="m151eac6540" style="stroke:#000000;stroke-width:0.8;"/>
      </defs>
      <g>
       <use style="stroke:#000000;stroke-width:0.8;" x="57.6" xlink:href="#m151eac6540" y="295.422922"/>
      </g>
     </g>
     <g id="text_10">
      <!-- 0 -->
      <g transform="translate(44.2375 299.222141)scale(0.1 -0.1)">
       <use xlink:href="#DejaVuSans-48"/>
      </g>
     </g>
    </g>
    <g id="ytick_2">
     <g id="line2d_11">
      <g>
       <use style="stroke:#000000;stroke-width:0.8;" x="57.6" xlink:href="#m151eac6540" y="261.601918"/>
      </g>
     </g>
     <g id="text_11">
      <!-- 20 -->
      <g transform="translate(37.875 265.401137)scale(0.1 -0.1)">
       <use xlink:href="#DejaVuSans-50"/>
       <use x="63.623047" xlink:href="#DejaVuSans-48"/>
      </g>
     </g>
    </g>
    <g id="ytick_3">
     <g id="line2d_12">
      <g>
       <use style="stroke:#000000;stroke-width:0.8;" x="57.6" xlink:href="#m151eac6540" y="227.780914"/>
      </g>
     </g>
     <g id="text_12">
      <!-- 40 -->
      <g transform="translate(37.875 231.580133)scale(0.1 -0.1)">
       <defs>
        <path d="M 37.796875 64.3125 
L 12.890625 25.390625 
L 37.796875 25.390625 
z
M 35.203125 72.90625 
L 47.609375 72.90625 
L 47.609375 25.390625 
L 58.015625 25.390625 
L 58.015625 17.1875 
L 47.609375 17.1875 
L 47.609375 0 
L 37.796875 0 
L 37.796875 17.1875 
L 4.890625 17.1875 
L 4.890625 26.703125 
z
" id="DejaVuSans-52"/>
       </defs>
       <use xlink:href="#DejaVuSans-52"/>
       <use x="63.623047" xlink:href="#DejaVuSans-48"/>
      </g>
     </g>
    </g>
    <g id="ytick_4">
     <g id="line2d_13">
      <g>
       <use style="stroke:#000000;stroke-width:0.8;" x="57.6" xlink:href="#m151eac6540" y="193.959911"/>
      </g>
     </g>
     <g id="text_13">
      <!-- 60 -->
      <g transform="translate(37.875 197.759129)scale(0.1 -0.1)">
       <defs>
        <path d="M 33.015625 40.375 
Q 26.375 40.375 22.484375 35.828125 
Q 18.609375 31.296875 18.609375 23.390625 
Q 18.609375 15.53125 22.484375 10.953125 
Q 26.375 6.390625 33.015625 6.390625 
Q 39.65625 6.390625 43.53125 10.953125 
Q 47.40625 15.53125 47.40625 23.390625 
Q 47.40625 31.296875 43.53125 35.828125 
Q 39.65625 40.375 33.015625 40.375 
z
M 52.59375 71.296875 
L 52.59375 62.3125 
Q 48.875 64.0625 45.09375 64.984375 
Q 41.3125 65.921875 37.59375 65.921875 
Q 27.828125 65.921875 22.671875 59.328125 
Q 17.53125 52.734375 16.796875 39.40625 
Q 19.671875 43.65625 24.015625 45.921875 
Q 28.375 48.1875 33.59375 48.1875 
Q 44.578125 48.1875 50.953125 41.515625 
Q 57.328125 34.859375 57.328125 23.390625 
Q 57.328125 12.15625 50.6875 5.359375 
Q 44.046875 -1.421875 33.015625 -1.421875 
Q 20.359375 -1.421875 13.671875 8.265625 
Q 6.984375 17.96875 6.984375 36.375 
Q 6.984375 53.65625 15.1875 63.9375 
Q 23.390625 74.21875 37.203125 74.21875 
Q 40.921875 74.21875 44.703125 73.484375 
Q 48.484375 72.75 52.59375 71.296875 
z
" id="DejaVuSans-54"/>
       </defs>
       <use xlink:href="#DejaVuSans-54"/>
       <use x="63.623047" xlink:href="#DejaVuSans-48"/>
      </g>
     </g>
    </g>
    <g id="ytick_5">
     <g id="line2d_14">
      <g>
       <use style="stroke:#000000;stroke-width:0.8;" x="57.6" xlink:href="#m151eac6540" y="160.138907"/>
      </g>
     </g>
     <g id="text_14">
      <!-- 80 -->
      <g transform="translate(37.875 163.938126)scale(0.1 -0.1)">
       <defs>
        <path d="M 31.78125 34.625 
Q 24.75 34.625 20.71875 30.859375 
Q 16.703125 27.09375 16.703125 20.515625 
Q 16.703125 13.921875 20.71875 10.15625 
Q 24.75 6.390625 31.78125 6.390625 
Q 38.8125 6.390625 42.859375 10.171875 
Q 46.921875 13.96875 46.921875 20.515625 
Q 46.921875 27.09375 42.890625 30.859375 
Q 38.875 34.625 31.78125 34.625 
z
M 21.921875 38.8125 
Q 15.578125 40.375 12.03125 44.71875 
Q 8.5 49.078125 8.5 55.328125 
Q 8.5 64.0625 14.71875 69.140625 
Q 20.953125 74.21875 31.78125 74.21875 
Q 42.671875 74.21875 48.875 69.140625 
Q 55.078125 64.0625 55.078125 55.328125 
Q 55.078125 49.078125 51.53125 44.71875 
Q 48 40.375 41.703125 38.8125 
Q 48.828125 37.15625 52.796875 32.3125 
Q 56.78125 27.484375 56.78125 20.515625 
Q 56.78125 9.90625 50.3125 4.234375 
Q 43.84375 -1.421875 31.78125 -1.421875 
Q 19.734375 -1.421875 13.25 4.234375 
Q 6.78125 9.90625 6.78125 20.515625 
Q 6.78125 27.484375 10.78125 32.3125 
Q 14.796875 37.15625 21.921875 38.8125 
z
M 18.3125 54.390625 
Q 18.3125 48.734375 21.84375 45.5625 
Q 25.390625 42.390625 31.78125 42.390625 
Q 38.140625 42.390625 41.71875 45.5625 
Q 45.3125 48.734375 45.3125 54.390625 
Q 45.3125 60.0625 41.71875 63.234375 
Q 38.140625 66.40625 31.78125 66.40625 
Q 25.390625 66.40625 21.84375 63.234375 
Q 18.3125 60.0625 18.3125 54.390625 
z
" id="DejaVuSans-56"/>
       </defs>
       <use xlink:href="#DejaVuSans-56"/>
       <use x="63.623047" xlink:href="#DejaVuSans-48"/>
      </g>
     </g>
    </g>
    <g id="ytick_6">
     <g id="line2d_15">
      <g>
       <use style="stroke:#000000;stroke-width:0.8;" x="57.6" xlink:href="#m151eac6540" y="126.317903"/>
      </g>
     </g>
     <g id="text_15">
      <!-- 100 -->
      <g transform="translate(31.5125 130.117122)scale(0.1 -0.1)">
       <use xlink:href="#DejaVuSans-49"/>
       <use x="63.623047" xlink:href="#DejaVuSans-48"/>
       <use x="127.246094" xlink:href="#DejaVuSans-48"/>
      </g>
     </g>
    </g>
    <g id="ytick_7">
     <g id="line2d_16">
      <g>
       <use style="stroke:#000000;stroke-width:0.8;" x="57.6" xlink:href="#m151eac6540" y="92.496899"/>
      </g>
     </g>
     <g id="text_16">
      <!-- 120 -->
      <g transform="translate(31.5125 96.296118)scale(0.1 -0.1)">
       <use xlink:href="#DejaVuSans-49"/>
       <use x="63.623047" xlink:href="#DejaVuSans-50"/>
       <use x="127.246094" xlink:href="#DejaVuSans-48"/>
      </g>
     </g>
    </g>
    <g id="ytick_8">
     <g id="line2d_17">
      <g>
       <use style="stroke:#000000;stroke-width:0.8;" x="57.6" xlink:href="#m151eac6540" y="58.675895"/>
      </g>
     </g>
     <g id="text_17">
      <!-- 140 -->
      <g transform="translate(31.5125 62.475114)scale(0.1 -0.1)">
       <use xlink:href="#DejaVuSans-49"/>
       <use x="63.623047" xlink:href="#DejaVuSans-52"/>
       <use x="127.246094" xlink:href="#DejaVuSans-48"/>
      </g>
     </g>
    </g>
   </g>
   <g id="line2d_18">
    <path clip-path="url(#p690eb28e79)" d="M 194.419262 295.422922 
L 194.72035 275.399955 
L 195.144758 250.891888 
L 194.86431 246.186994 
L 194.059946 238.855967 
L 193.204423 231.48845 
L 192.833026 226.718682 
L 192.779952 222.175972 
L 192.915418 220.020173 
L 193.181624 217.95763 
L 193.595623 216.000506 
L 194.174468 214.160966 
L 194.935211 212.451173 
L 195.894907 210.88329 
L 197.061881 209.440657 
L 198.4224 208.095897 
L 199.960424 206.845103 
L 201.659914 205.684369 
L 203.504832 204.609788 
L 205.479137 203.617454 
L 209.751756 201.863897 
L 214.349456 200.392444 
L 219.143924 199.171843 
L 224.006848 198.170838 
L 231.148901 197.012707 
L 235.621591 196.42396 
L 237.817747 196.269217 
L 240.093335 196.314906 
L 242.434664 196.533251 
L 247.25979 197.376808 
L 252.18361 198.577681 
L 261.889272 201.162552 
L 266.452083 202.102139 
L 268.61307 202.386505 
L 270.675527 202.510218 
L 272.625762 202.445503 
L 274.450088 202.164584 
L 276.134815 201.639686 
L 277.666252 200.843032 
L 279.100899 199.759936 
L 280.498921 198.411897 
L 281.852134 196.825412 
L 283.152353 195.02698 
L 284.391392 193.0431 
L 285.561066 190.90027 
L 286.65319 188.62499 
L 287.659578 186.243756 
L 288.572046 183.783069 
L 289.382408 181.269427 
L 290.082478 178.729327 
L 290.664073 176.18927 
L 291.119005 173.675753 
L 291.439091 171.215276 
L 291.616145 168.834336 
L 291.641981 166.559432 
L 291.508415 164.417063 
L 291.207261 162.433727 
L 290.730333 160.635924 
L 290.021315 158.995823 
L 289.046104 157.460373 
L 287.829839 156.018241 
L 286.397658 154.658093 
L 284.774702 153.368596 
L 282.986108 152.138416 
L 279.012566 149.810675 
L 272.438449 146.48061 
L 265.731103 143.072396 
L 261.520709 140.605726 
L 259.56928 139.280032 
L 257.753882 137.877655 
L 256.099653 136.38726 
L 253.020297 133.2338 
L 250.044707 129.936472 
L 247.175013 126.510776 
L 244.413343 122.972208 
L 240.478046 117.486622 
L 236.797786 111.83425 
L 233.379752 106.067395 
L 231.250294 102.185052 
L 230.280167 100.167692 
L 229.427572 98.020877 
L 228.008413 93.424493 
L 226.859692 88.567129 
L 224.29742 76.40562 
L 223.046869 71.983254 
L 222.30668 69.95245 
L 221.467693 68.070437 
L 220.513269 66.358618 
L 219.426766 64.838398 
L 218.191545 63.53118 
L 216.790963 62.458367 
L 215.227561 61.62698 
L 213.523037 61.017112 
L 211.689486 60.609774 
L 209.739004 60.385981 
L 207.683688 60.326744 
L 205.535635 60.413077 
L 201.009699 60.946501 
L 196.257966 61.834354 
L 179.245871 65.539942 
L 174.675582 66.142986 
L 174.675582 66.142986 
" style="fill:none;stroke:#fea952;stroke-linecap:square;"/>
   </g>
   <g id="line2d_19">
    <path clip-path="url(#p690eb28e79)" d="M 187.655374 295.357844 
L 187.957452 275.267191 
L 188.387214 251.191914 
L 188.131532 246.838233 
L 187.3459 239.678158 
L 186.467531 232.095654 
L 186.072386 226.938153 
L 185.994292 224.347006 
L 186.029066 221.751759 
L 186.206863 219.15432 
L 186.563865 216.557746 
L 187.143324 213.970174 
L 187.994384 211.411243 
L 189.165973 208.919842 
L 190.635912 206.629188 
L 192.306811 204.629865 
L 194.154583 202.848025 
L 196.145436 201.259382 
L 198.255462 199.839361 
L 200.467106 198.566061 
L 202.766309 197.421086 
L 205.140621 196.389339 
L 210.066726 194.618212 
L 215.147454 193.176298 
L 220.278199 192.007086 
L 225.347081 191.064976 
L 232.573642 189.99217 
L 235.146159 189.676488 
L 237.953532 189.506379 
L 240.721419 189.579928 
L 243.449596 189.845627 
L 246.13882 190.260493 
L 251.392645 191.393303 
L 267.334581 195.395753 
L 270.451193 195.749738 
L 272.438009 195.70657 
L 273.013187 195.638865 
L 273.590628 195.444541 
L 274.405723 194.890671 
L 275.352543 194.022226 
L 276.370493 192.86233 
L 277.415171 191.443804 
L 278.45413 189.802217 
L 279.462972 187.973215 
L 281.317383 183.891955 
L 282.861343 179.472172 
L 284.008016 174.984561 
L 284.693515 170.713655 
L 284.890888 166.98033 
L 284.669207 164.168163 
L 284.311433 162.622344 
L 283.87534 161.821291 
L 283.171761 160.923006 
L 282.189764 159.954133 
L 280.941484 158.941822 
L 277.750572 156.857223 
L 273.838866 154.733519 
L 262.418975 148.970212 
L 257.719637 146.200926 
L 255.434121 144.633057 
L 253.226204 142.903045 
L 251.308554 141.162172 
L 248.04198 137.813185 
L 244.898451 134.326286 
L 241.877727 130.717101 
L 238.97981 127.000996 
L 234.863793 121.259497 
L 231.026421 115.362104 
L 227.47038 109.358859 
L 225.154327 105.116537 
L 223.993593 102.664369 
L 223.010558 100.160115 
L 222.17079 97.620296 
L 220.807903 92.496122 
L 219.218088 84.95976 
L 217.753579 78.118093 
L 216.691644 74.299613 
L 215.559727 71.364423 
L 214.51028 69.484103 
L 213.615031 68.430625 
L 212.948837 67.995797 
L 212.056082 67.620327 
L 210.918437 67.329886 
L 209.544132 67.147374 
L 207.955329 67.085488 
L 206.178912 67.14662 
L 202.168079 67.610776 
L 197.697593 68.443582 
L 180.2621 72.227369 
L 175.424238 72.865628 
L 175.424238 72.865628 
" style="fill:none;stroke:#ffffff;stroke-linecap:square;"/>
   </g>
   <g id="line2d_20">
    <path clip-path="url(#p690eb28e79)" d="M 201.18315 295.488 
L 201.483248 275.53272 
L 201.902302 250.591861 
L 201.597088 245.535755 
L 200.773992 238.033777 
L 199.941315 230.881246 
L 199.593665 226.499211 
L 199.530837 222.600185 
L 199.799384 219.357514 
L 200.354552 216.910689 
L 200.70445 215.982503 
L 201.153901 215.137393 
L 201.816951 214.251449 
L 202.690216 213.343768 
L 203.775412 212.430824 
L 205.064366 211.529377 
L 206.542558 210.653515 
L 209.992962 209.017579 
L 213.969254 207.57151 
L 218.312773 206.329183 
L 222.871498 205.284602 
L 227.500683 204.42086 
L 234.275972 203.413039 
L 237.681963 203.032055 
L 239.465251 203.049884 
L 241.419732 203.220876 
L 245.73168 203.96614 
L 250.421593 205.108356 
L 260.401675 207.761148 
L 265.569585 208.808524 
L 268.208058 209.138569 
L 270.89986 209.270698 
L 273.655215 209.130908 
L 276.462167 208.622599 
L 279.256443 207.640506 
L 281.741876 206.241522 
L 283.796074 204.629201 
L 285.645299 202.801568 
L 287.333776 200.788494 
L 288.889535 198.610157 
L 290.328654 196.283984 
L 291.65916 193.827326 
L 292.883789 191.258248 
L 294.001774 188.595558 
L 295.009961 185.858559 
L 295.903473 183.066682 
L 296.676047 180.23905 
L 297.320129 177.393979 
L 297.826685 174.548361 
L 298.184666 171.716896 
L 298.379909 168.911152 
L 298.393074 166.138534 
L 298.19596 163.401611 
L 297.745314 160.699291 
L 296.939199 157.951822 
L 295.731198 155.369302 
L 294.216868 153.099454 
L 292.487916 151.113475 
L 290.605552 149.362053 
L 288.60792 147.795369 
L 286.520495 146.371049 
L 282.155752 143.821119 
L 275.431221 140.414497 
L 269.04323 137.174581 
L 265.321781 135.010526 
L 262.281559 132.852265 
L 260.890752 131.612349 
L 257.998614 128.654414 
L 255.190963 125.546658 
L 252.472299 122.30445 
L 248.570395 117.223286 
L 244.891606 111.928355 
L 241.448243 106.473879 
L 238.25171 100.914579 
L 236.566742 97.671016 
L 235.844586 95.881639 
L 234.571834 91.78867 
L 233.482069 87.189257 
L 230.84126 74.693148 
L 229.402095 69.666895 
L 228.484791 67.198296 
L 227.37566 64.77645 
L 226.016445 62.425493 
L 224.343252 60.192693 
L 222.304764 58.161279 
L 219.966895 56.486109 
L 217.506285 55.258163 
L 214.989991 54.413896 
L 212.460534 53.889663 
L 209.933876 53.624588 
L 207.412047 53.568 
L 204.892357 53.679533 
L 199.851319 54.282225 
L 194.81834 55.225127 
L 178.229642 58.852514 
L 173.926926 59.420343 
L 173.926926 59.420343 
" style="fill:none;stroke:#ffffff;stroke-linecap:square;"/>
   </g>
   <g id="patch_3">
    <path d="M 57.6 307.584 
L 57.6 41.472 
" style="fill:none;stroke:#000000;stroke-linecap:square;stroke-linejoin:miter;stroke-width:0.8;"/>
   </g>
   <g id="patch_4">
    <path d="M 414.72 307.584 
L 414.72 41.472 
" style="fill:none;stroke:#000000;stroke-linecap:square;stroke-linejoin:miter;stroke-width:0.8;"/>
   </g>
   <g id="patch_5">
    <path d="M 57.6 307.584 
L 414.72 307.584 
" style="fill:none;stroke:#000000;stroke-linecap:square;stroke-linejoin:miter;stroke-width:0.8;"/>
   </g>
   <g id="patch_6">
    <path d="M 57.6 41.472 
L 414.72 41.472 
" style="fill:none;stroke:#000000;stroke-linecap:square;stroke-linejoin:miter;stroke-width:0.8;"/>
   </g>
  </g>
 </g>
 <defs>
  <clipPath id="p690eb28e79">
   <rect height="266.112" width="357.12" x="57.6" y="41.472"/>
  </clipPath>
 </defs>
</svg>
