<?xml version="1.0" encoding="utf-8" standalone="no"?>
<!DOCTYPE svg PUBLIC "-//W3C//DTD SVG 1.1//EN"
  "http://www.w3.org/Graphics/SVG/1.1/DTD/svg11.dtd">
<!-- Created with matplotlib (https://matplotlib.org/) -->
<svg height="345.6pt" version="1.1" viewBox="0 0 460.8 345.6" width="460.8pt" xmlns="http://www.w3.org/2000/svg" xmlns:xlink="http://www.w3.org/1999/xlink">
 <metadata>
  <rdf:RDF xmlns:cc="http://creativecommons.org/ns#" xmlns:dc="http://purl.org/dc/elements/1.1/" xmlns:rdf="http://www.w3.org/1999/02/22-rdf-syntax-ns#">
   <cc:Work>
    <dc:type rdf:resource="http://purl.org/dc/dcmitype/StillImage"/>
    <dc:date>2021-06-06T08:20:11.204384</dc:date>
    <dc:format>image/svg+xml</dc:format>
    <dc:creator>
     <cc:Agent>
      <dc:title>Matplotlib v3.3.3, https://matplotlib.org/</dc:title>
     </cc:Agent>
    </dc:creator>
   </cc:Work>
  </rdf:RDF>
 </metadata>
 <defs>
  <style type="text/css">*{stroke-linecap:butt;stroke-linejoin:round;}</style>
 </defs>
 <g id="figure_1">
  <g id="patch_1">
   <path d="M 0 345.6 
L 460.8 345.6 
L 460.8 0 
L 0 0 
z
" style="fill:#ffffff;"/>
  </g>
  <g id="axes_1">
   <g id="patch_2">
    <path d="M 57.6 307.584 
L 414.72 307.584 
L 414.72 41.472 
L 57.6 41.472 
z
" style="fill:#7d9051;"/>
   </g>
   <g id="matplotlib.axis_1">
    <g id="xtick_1">
     <g id="line2d_1">
      <defs>
       <path d="M 0 0 
L 0 3.5 
" id="mb4dd235e91" style="stroke:#000000;stroke-width:0.8;"/>
      </defs>
      <g>
       <use style="stroke:#000000;stroke-width:0.8;" x="101.056287" xlink:href="#mb4dd235e91" y="307.584"/>
      </g>
     </g>
     <g id="text_1">
      <!-- −50 -->
      <g transform="translate(90.503944 322.182437)scale(0.1 -0.1)">
       <defs>
        <path d="M 10.59375 35.5 
L 73.1875 35.5 
L 73.1875 27.203125 
L 10.59375 27.203125 
z
" id="DejaVuSans-8722"/>
        <path d="M 10.796875 72.90625 
L 49.515625 72.90625 
L 49.515625 64.59375 
L 19.828125 64.59375 
L 19.828125 46.734375 
Q 21.96875 47.46875 24.109375 47.828125 
Q 26.265625 48.1875 28.421875 48.1875 
Q 40.625 48.1875 47.75 41.5 
Q 54.890625 34.8125 54.890625 23.390625 
Q 54.890625 11.625 47.5625 5.09375 
Q 40.234375 -1.421875 26.90625 -1.421875 
Q 22.3125 -1.421875 17.546875 -0.640625 
Q 12.796875 0.140625 7.71875 1.703125 
L 7.71875 11.625 
Q 12.109375 9.234375 16.796875 8.0625 
Q 21.484375 6.890625 26.703125 6.890625 
Q 35.15625 6.890625 40.078125 11.328125 
Q 45.015625 15.765625 45.015625 23.390625 
Q 45.015625 31 40.078125 35.4375 
Q 35.15625 39.890625 26.703125 39.890625 
Q 22.75 39.890625 18.8125 39.015625 
Q 14.890625 38.140625 10.796875 36.28125 
z
" id="DejaVuSans-53"/>
        <path d="M 31.78125 66.40625 
Q 24.171875 66.40625 20.328125 58.90625 
Q 16.5 51.421875 16.5 36.375 
Q 16.5 21.390625 20.328125 13.890625 
Q 24.171875 6.390625 31.78125 6.390625 
Q 39.453125 6.390625 43.28125 13.890625 
Q 47.125 21.390625 47.125 36.375 
Q 47.125 51.421875 43.28125 58.90625 
Q 39.453125 66.40625 31.78125 66.40625 
z
M 31.78125 74.21875 
Q 44.046875 74.21875 50.515625 64.515625 
Q 56.984375 54.828125 56.984375 36.375 
Q 56.984375 17.96875 50.515625 8.265625 
Q 44.046875 -1.421875 31.78125 -1.421875 
Q 19.53125 -1.421875 13.0625 8.265625 
Q 6.59375 17.96875 6.59375 36.375 
Q 6.59375 54.828125 13.0625 64.515625 
Q 19.53125 74.21875 31.78125 74.21875 
z
" id="DejaVuSans-48"/>
       </defs>
       <use xlink:href="#DejaVuSans-8722"/>
       <use x="83.789062" xlink:href="#DejaVuSans-53"/>
       <use x="147.412109" xlink:href="#DejaVuSans-48"/>
      </g>
     </g>
    </g>
    <g id="xtick_2">
     <g id="line2d_2">
      <g>
       <use style="stroke:#000000;stroke-width:0.8;" x="171.127387" xlink:href="#mb4dd235e91" y="307.584"/>
      </g>
     </g>
     <g id="text_2">
      <!-- 0 -->
      <g transform="translate(167.946137 322.182437)scale(0.1 -0.1)">
       <use xlink:href="#DejaVuSans-48"/>
      </g>
     </g>
    </g>
    <g id="xtick_3">
     <g id="line2d_3">
      <g>
       <use style="stroke:#000000;stroke-width:0.8;" x="241.198487" xlink:href="#mb4dd235e91" y="307.584"/>
      </g>
     </g>
     <g id="text_3">
      <!-- 50 -->
      <g transform="translate(234.835987 322.182437)scale(0.1 -0.1)">
       <use xlink:href="#DejaVuSans-53"/>
       <use x="63.623047" xlink:href="#DejaVuSans-48"/>
      </g>
     </g>
    </g>
    <g id="xtick_4">
     <g id="line2d_4">
      <g>
       <use style="stroke:#000000;stroke-width:0.8;" x="311.269587" xlink:href="#mb4dd235e91" y="307.584"/>
      </g>
     </g>
     <g id="text_4">
      <!-- 100 -->
      <g transform="translate(301.725837 322.182437)scale(0.1 -0.1)">
       <defs>
        <path d="M 12.40625 8.296875 
L 28.515625 8.296875 
L 28.515625 63.921875 
L 10.984375 60.40625 
L 10.984375 69.390625 
L 28.421875 72.90625 
L 38.28125 72.90625 
L 38.28125 8.296875 
L 54.390625 8.296875 
L 54.390625 0 
L 12.40625 0 
z
" id="DejaVuSans-49"/>
       </defs>
       <use xlink:href="#DejaVuSans-49"/>
       <use x="63.623047" xlink:href="#DejaVuSans-48"/>
       <use x="127.246094" xlink:href="#DejaVuSans-48"/>
      </g>
     </g>
    </g>
    <g id="xtick_5">
     <g id="line2d_5">
      <g>
       <use style="stroke:#000000;stroke-width:0.8;" x="381.340687" xlink:href="#mb4dd235e91" y="307.584"/>
      </g>
     </g>
     <g id="text_5">
      <!-- 150 -->
      <g transform="translate(371.796937 322.182437)scale(0.1 -0.1)">
       <use xlink:href="#DejaVuSans-49"/>
       <use x="63.623047" xlink:href="#DejaVuSans-53"/>
       <use x="127.246094" xlink:href="#DejaVuSans-48"/>
      </g>
     </g>
    </g>
   </g>
   <g id="matplotlib.axis_2">
    <g id="ytick_1">
     <g id="line2d_6">
      <defs>
       <path d="M 0 0 
L -3.5 0 
" id="m15945196be" style="stroke:#000000;stroke-width:0.8;"/>
      </defs>
      <g>
       <use style="stroke:#000000;stroke-width:0.8;" x="57.6" xlink:href="#m15945196be" y="295.434068"/>
      </g>
     </g>
     <g id="text_6">
      <!-- 0 -->
      <g transform="translate(44.2375 299.233287)scale(0.1 -0.1)">
       <use xlink:href="#DejaVuSans-48"/>
      </g>
     </g>
    </g>
    <g id="ytick_2">
     <g id="line2d_7">
      <g>
       <use style="stroke:#000000;stroke-width:0.8;" x="57.6" xlink:href="#m15945196be" y="260.398518"/>
      </g>
     </g>
     <g id="text_7">
      <!-- 25 -->
      <g transform="translate(37.875 264.197737)scale(0.1 -0.1)">
       <defs>
        <path d="M 19.1875 8.296875 
L 53.609375 8.296875 
L 53.609375 0 
L 7.328125 0 
L 7.328125 8.296875 
Q 12.9375 14.109375 22.625 23.890625 
Q 32.328125 33.6875 34.8125 36.53125 
Q 39.546875 41.84375 41.421875 45.53125 
Q 43.3125 49.21875 43.3125 52.78125 
Q 43.3125 58.59375 39.234375 62.25 
Q 35.15625 65.921875 28.609375 65.921875 
Q 23.96875 65.921875 18.8125 64.3125 
Q 13.671875 62.703125 7.8125 59.421875 
L 7.8125 69.390625 
Q 13.765625 71.78125 18.9375 73 
Q 24.125 74.21875 28.421875 74.21875 
Q 39.75 74.21875 46.484375 68.546875 
Q 53.21875 62.890625 53.21875 53.421875 
Q 53.21875 48.921875 51.53125 44.890625 
Q 49.859375 40.875 45.40625 35.40625 
Q 44.1875 33.984375 37.640625 27.21875 
Q 31.109375 20.453125 19.1875 8.296875 
z
" id="DejaVuSans-50"/>
       </defs>
       <use xlink:href="#DejaVuSans-50"/>
       <use x="63.623047" xlink:href="#DejaVuSans-53"/>
      </g>
     </g>
    </g>
    <g id="ytick_3">
     <g id="line2d_8">
      <g>
       <use style="stroke:#000000;stroke-width:0.8;" x="57.6" xlink:href="#m15945196be" y="225.362968"/>
      </g>
     </g>
     <g id="text_8">
      <!-- 50 -->
      <g transform="translate(37.875 229.162187)scale(0.1 -0.1)">
       <use xlink:href="#DejaVuSans-53"/>
       <use x="63.623047" xlink:href="#DejaVuSans-48"/>
      </g>
     </g>
    </g>
    <g id="ytick_4">
     <g id="line2d_9">
      <g>
       <use style="stroke:#000000;stroke-width:0.8;" x="57.6" xlink:href="#m15945196be" y="190.327418"/>
      </g>
     </g>
     <g id="text_9">
      <!-- 75 -->
      <g transform="translate(37.875 194.126637)scale(0.1 -0.1)">
       <defs>
        <path d="M 8.203125 72.90625 
L 55.078125 72.90625 
L 55.078125 68.703125 
L 28.609375 0 
L 18.3125 0 
L 43.21875 64.59375 
L 8.203125 64.59375 
z
" id="DejaVuSans-55"/>
       </defs>
       <use xlink:href="#DejaVuSans-55"/>
       <use x="63.623047" xlink:href="#DejaVuSans-53"/>
      </g>
     </g>
    </g>
    <g id="ytick_5">
     <g id="line2d_10">
      <g>
       <use style="stroke:#000000;stroke-width:0.8;" x="57.6" xlink:href="#m15945196be" y="155.291868"/>
      </g>
     </g>
     <g id="text_10">
      <!-- 100 -->
      <g transform="translate(31.5125 159.091087)scale(0.1 -0.1)">
       <use xlink:href="#DejaVuSans-49"/>
       <use x="63.623047" xlink:href="#DejaVuSans-48"/>
       <use x="127.246094" xlink:href="#DejaVuSans-48"/>
      </g>
     </g>
    </g>
    <g id="ytick_6">
     <g id="line2d_11">
      <g>
       <use style="stroke:#000000;stroke-width:0.8;" x="57.6" xlink:href="#m15945196be" y="120.256318"/>
      </g>
     </g>
     <g id="text_11">
      <!-- 125 -->
      <g transform="translate(31.5125 124.055537)scale(0.1 -0.1)">
       <use xlink:href="#DejaVuSans-49"/>
       <use x="63.623047" xlink:href="#DejaVuSans-50"/>
       <use x="127.246094" xlink:href="#DejaVuSans-53"/>
      </g>
     </g>
    </g>
    <g id="ytick_7">
     <g id="line2d_12">
      <g>
       <use style="stroke:#000000;stroke-width:0.8;" x="57.6" xlink:href="#m15945196be" y="85.220768"/>
      </g>
     </g>
     <g id="text_12">
      <!-- 150 -->
      <g transform="translate(31.5125 89.019987)scale(0.1 -0.1)">
       <use xlink:href="#DejaVuSans-49"/>
       <use x="63.623047" xlink:href="#DejaVuSans-53"/>
       <use x="127.246094" xlink:href="#DejaVuSans-48"/>
      </g>
     </g>
    </g>
    <g id="ytick_8">
     <g id="line2d_13">
      <g>
       <use style="stroke:#000000;stroke-width:0.8;" x="57.6" xlink:href="#m15945196be" y="50.185218"/>
      </g>
     </g>
     <g id="text_13">
      <!-- 175 -->
      <g transform="translate(31.5125 53.984437)scale(0.1 -0.1)">
       <use xlink:href="#DejaVuSans-49"/>
       <use x="63.623047" xlink:href="#DejaVuSans-55"/>
       <use x="127.246094" xlink:href="#DejaVuSans-53"/>
      </g>
     </g>
    </g>
   </g>
   <g id="line2d_14">
    <path clip-path="url(#p6927c8060e)" d="M 171.127387 295.434068 
L 171.413101 276.996798 
L 171.742895 258.549921 
L 171.610359 254.790864 
L 171.045247 247.163545 
L 170.654229 241.455001 
L 170.549821 237.706182 
L 170.657941 234.034717 
L 171.053597 230.467906 
L 171.8118 227.033052 
L 172.990446 223.737066 
L 174.519599 220.483688 
L 176.349133 217.276702 
L 178.441337 214.140145 
L 180.758502 211.098055 
L 183.262917 208.174469 
L 185.916873 205.393423 
L 188.682659 202.778956 
L 191.522566 200.355104 
L 194.398883 198.145904 
L 197.381198 196.143821 
L 200.544803 194.320355 
L 203.860541 192.668102 
L 207.299253 191.179654 
L 210.831783 189.847607 
L 214.428973 188.664555 
L 219.882216 187.153142 
L 225.316937 185.93531 
L 228.918011 185.332726 
L 230.77893 185.208543 
L 234.618759 185.286363 
L 238.561106 185.675848 
L 250.34554 187.235338 
L 254.04025 187.392526 
L 255.806839 187.319933 
L 257.508624 187.1219 
L 259.137383 186.779939 
L 260.684894 186.275563 
L 262.142936 185.590286 
L 263.538249 184.734991 
L 264.901373 183.740054 
L 266.229789 182.616225 
L 268.772425 180.024898 
L 271.146007 177.047016 
L 273.330383 173.768586 
L 275.305405 170.275614 
L 277.050923 166.654109 
L 278.546786 162.990076 
L 279.772845 159.369522 
L 280.708949 155.878454 
L 281.019921 154.162984 
L 281.179635 152.416346 
L 281.204908 150.64172 
L 280.91939 147.021215 
L 280.297894 143.326897 
L 279.029961 137.702641 
L 277.762777 132.055334 
L 277.142611 128.320035 
L 276.859089 124.638059 
L 276.885609 122.825013 
L 277.046737 121.034833 
L 277.685052 117.501871 
L 278.626018 114.008753 
L 279.812888 110.548009 
L 281.188914 107.112168 
L 283.483489 101.988758 
L 288.200319 91.758746 
L 290.262431 86.604535 
L 302.157973 55.617826 
L 302.157973 55.617826 
" style="fill:none;stroke:#fea952;stroke-linecap:square;"/>
   </g>
   <g id="line2d_15">
    <path clip-path="url(#p6927c8060e)" d="M 165.521959 295.380136 
L 165.808536 276.884605 
L 166.097146 256.934739 
L 165.76482 251.431449 
L 165.052878 241.675445 
L 164.944561 237.636975 
L 165.073551 233.54653 
L 165.54604 229.42361 
L 165.947628 227.359754 
L 166.479833 225.302772 
L 167.12977 223.331621 
L 168.692951 219.615784 
L 170.58204 216.006024 
L 172.753013 212.511342 
L 175.165871 209.143023 
L 177.783179 205.914645 
L 180.569226 202.841738 
L 183.489647 199.941347 
L 186.511408 197.231648 
L 189.603101 194.731643 
L 192.825645 192.412224 
L 196.220939 190.309337 
L 199.756884 188.420996 
L 203.404804 186.731683 
L 207.137141 185.227362 
L 210.926892 183.895339 
L 214.747262 182.724052 
L 220.476631 181.245403 
L 226.317929 180.040467 
L 228.544764 179.739478 
L 230.751558 179.602922 
L 235.088495 179.700391 
L 239.302499 180.119404 
L 252.322706 181.753472 
L 255.158889 181.751819 
L 257.400275 181.450193 
L 258.30046 181.202279 
L 259.213359 180.811027 
L 261.280828 179.460405 
L 263.410845 177.562364 
L 265.518804 175.186685 
L 267.538487 172.423087 
L 269.419154 169.368361 
L 271.120656 166.121506 
L 272.609723 162.782753 
L 273.857718 159.454552 
L 274.839755 156.244168 
L 275.437522 153.652524 
L 275.574515 152.336523 
L 275.538138 149.433571 
L 275.130716 146.204891 
L 274.438119 142.707685 
L 271.874059 131.005494 
L 271.351612 126.749617 
L 271.254001 124.556072 
L 271.30249 122.322496 
L 271.508687 120.166651 
L 272.24559 116.146882 
L 273.297271 112.268584 
L 274.587137 108.519398 
L 276.045183 104.88377 
L 278.407163 99.610807 
L 283.032161 89.587601 
L 285.026646 84.601963 
L 296.940507 53.568 
L 296.940507 53.568 
" style="fill:none;stroke:#ffffff;stroke-linecap:square;"/>
   </g>
   <g id="line2d_16">
    <path clip-path="url(#p6927c8060e)" d="M 176.732816 295.488 
L 177.017666 277.108991 
L 177.346895 258.412365 
L 177.205277 254.443558 
L 176.633928 246.727227 
L 176.255581 241.234556 
L 176.155082 237.775388 
L 176.242331 234.522903 
L 176.561154 231.512202 
L 177.143766 228.763332 
L 178.113234 226.0132 
L 179.439573 223.170246 
L 181.063401 220.309755 
L 182.951081 217.469702 
L 185.065769 214.685699 
L 187.368547 211.991214 
L 189.819009 209.417982 
L 192.375452 206.996422 
L 194.994735 204.755988 
L 197.607557 202.742441 
L 200.258543 200.954707 
L 203.11645 199.301356 
L 206.152493 197.783831 
L 209.336389 196.402088 
L 212.637048 195.154655 
L 217.738147 193.529123 
L 222.924784 192.186221 
L 227.896844 191.140105 
L 229.291259 190.925974 
L 232.430052 190.799278 
L 235.949761 191.021398 
L 241.723949 191.775045 
L 247.871341 192.619923 
L 252.111446 192.962858 
L 254.270405 192.993487 
L 256.45479 192.888047 
L 258.660437 192.607979 
L 260.874491 192.109685 
L 263.069328 191.348847 
L 265.072513 190.369545 
L 266.843116 189.262859 
L 268.521917 188.019703 
L 270.115855 186.656303 
L 271.631115 185.186149 
L 274.44441 181.971117 
L 276.987723 178.456901 
L 279.271492 174.718724 
L 281.295567 170.8296 
L 283.052918 166.861312 
L 284.531882 162.883425 
L 285.717047 158.960686 
L 286.224744 156.878329 
L 286.602319 154.673444 
L 286.784754 152.496169 
L 286.803227 150.354395 
L 286.462514 146.186039 
L 285.782347 142.167365 
L 284.485613 136.414389 
L 283.276347 131.043268 
L 282.718249 127.740386 
L 282.464178 124.720046 
L 282.468728 123.32753 
L 282.816294 120.387233 
L 283.505468 117.310906 
L 284.467574 114.170801 
L 285.66232 110.966512 
L 287.78798 106.040935 
L 294.130606 92.112867 
L 297.474373 83.431385 
L 307.375439 57.667651 
L 307.375439 57.667651 
" style="fill:none;stroke:#ffffff;stroke-linecap:square;"/>
   </g>
   <g id="patch_3">
    <path d="M 57.6 307.584 
L 57.6 41.472 
" style="fill:none;stroke:#000000;stroke-linecap:square;stroke-linejoin:miter;stroke-width:0.8;"/>
   </g>
   <g id="patch_4">
    <path d="M 414.72 307.584 
L 414.72 41.472 
" style="fill:none;stroke:#000000;stroke-linecap:square;stroke-linejoin:miter;stroke-width:0.8;"/>
   </g>
   <g id="patch_5">
    <path d="M 57.6 307.584 
L 414.72 307.584 
" style="fill:none;stroke:#000000;stroke-linecap:square;stroke-linejoin:miter;stroke-width:0.8;"/>
   </g>
   <g id="patch_6">
    <path d="M 57.6 41.472 
L 414.72 41.472 
" style="fill:none;stroke:#000000;stroke-linecap:square;stroke-linejoin:miter;stroke-width:0.8;"/>
   </g>
  </g>
 </g>
 <defs>
  <clipPath id="p6927c8060e">
   <rect height="266.112" width="357.12" x="57.6" y="41.472"/>
  </clipPath>
 </defs>
</svg>
