<?xml version="1.0" encoding="utf-8" standalone="no"?>
<!DOCTYPE svg PUBLIC "-//W3C//DTD SVG 1.1//EN"
  "http://www.w3.org/Graphics/SVG/1.1/DTD/svg11.dtd">
<!-- Created with matplotlib (https://matplotlib.org/) -->
<svg height="345.6pt" version="1.1" viewBox="0 0 460.8 345.6" width="460.8pt" xmlns="http://www.w3.org/2000/svg" xmlns:xlink="http://www.w3.org/1999/xlink">
 <metadata>
  <rdf:RDF xmlns:cc="http://creativecommons.org/ns#" xmlns:dc="http://purl.org/dc/elements/1.1/" xmlns:rdf="http://www.w3.org/1999/02/22-rdf-syntax-ns#">
   <cc:Work>
    <dc:type rdf:resource="http://purl.org/dc/dcmitype/StillImage"/>
    <dc:date>2021-07-10T15:50:28.573945</dc:date>
    <dc:format>image/svg+xml</dc:format>
    <dc:creator>
     <cc:Agent>
      <dc:title>Matplotlib v3.3.3, https://matplotlib.org/</dc:title>
     </cc:Agent>
    </dc:creator>
   </cc:Work>
  </rdf:RDF>
 </metadata>
 <defs>
  <style type="text/css">*{stroke-linecap:butt;stroke-linejoin:round;}</style>
 </defs>
 <g id="figure_1">
  <g id="patch_1">
   <path d="M 0 345.6 
L 460.8 345.6 
L 460.8 0 
L 0 0 
z
" style="fill:#ffffff;"/>
  </g>
  <g id="axes_1">
   <g id="patch_2">
    <path d="M 57.6 307.584 
L 414.72 307.584 
L 414.72 41.472 
L 57.6 41.472 
z
" style="fill:#7d9051;"/>
   </g>
   <g id="matplotlib.axis_1">
    <g id="xtick_1">
     <g id="line2d_1">
      <defs>
       <path d="M 0 0 
L 0 3.5 
" id="ma71e7807f0" style="stroke:#000000;stroke-width:0.8;"/>
      </defs>
      <g>
       <use style="stroke:#000000;stroke-width:0.8;" x="91.855934" xlink:href="#ma71e7807f0" y="307.584"/>
      </g>
     </g>
     <g id="text_1">
      <!-- −150 -->
      <g transform="translate(78.12234 322.182437)scale(0.1 -0.1)">
       <defs>
        <path d="M 10.59375 35.5 
L 73.1875 35.5 
L 73.1875 27.203125 
L 10.59375 27.203125 
z
" id="DejaVuSans-8722"/>
        <path d="M 12.40625 8.296875 
L 28.515625 8.296875 
L 28.515625 63.921875 
L 10.984375 60.40625 
L 10.984375 69.390625 
L 28.421875 72.90625 
L 38.28125 72.90625 
L 38.28125 8.296875 
L 54.390625 8.296875 
L 54.390625 0 
L 12.40625 0 
z
" id="DejaVuSans-49"/>
        <path d="M 10.796875 72.90625 
L 49.515625 72.90625 
L 49.515625 64.59375 
L 19.828125 64.59375 
L 19.828125 46.734375 
Q 21.96875 47.46875 24.109375 47.828125 
Q 26.265625 48.1875 28.421875 48.1875 
Q 40.625 48.1875 47.75 41.5 
Q 54.890625 34.8125 54.890625 23.390625 
Q 54.890625 11.625 47.5625 5.09375 
Q 40.234375 -1.421875 26.90625 -1.421875 
Q 22.3125 -1.421875 17.546875 -0.640625 
Q 12.796875 0.140625 7.71875 1.703125 
L 7.71875 11.625 
Q 12.109375 9.234375 16.796875 8.0625 
Q 21.484375 6.890625 26.703125 6.890625 
Q 35.15625 6.890625 40.078125 11.328125 
Q 45.015625 15.765625 45.015625 23.390625 
Q 45.015625 31 40.078125 35.4375 
Q 35.15625 39.890625 26.703125 39.890625 
Q 22.75 39.890625 18.8125 39.015625 
Q 14.890625 38.140625 10.796875 36.28125 
z
" id="DejaVuSans-53"/>
        <path d="M 31.78125 66.40625 
Q 24.171875 66.40625 20.328125 58.90625 
Q 16.5 51.421875 16.5 36.375 
Q 16.5 21.390625 20.328125 13.890625 
Q 24.171875 6.390625 31.78125 6.390625 
Q 39.453125 6.390625 43.28125 13.890625 
Q 47.125 21.390625 47.125 36.375 
Q 47.125 51.421875 43.28125 58.90625 
Q 39.453125 66.40625 31.78125 66.40625 
z
M 31.78125 74.21875 
Q 44.046875 74.21875 50.515625 64.515625 
Q 56.984375 54.828125 56.984375 36.375 
Q 56.984375 17.96875 50.515625 8.265625 
Q 44.046875 -1.421875 31.78125 -1.421875 
Q 19.53125 -1.421875 13.0625 8.265625 
Q 6.59375 17.96875 6.59375 36.375 
Q 6.59375 54.828125 13.0625 64.515625 
Q 19.53125 74.21875 31.78125 74.21875 
z
" id="DejaVuSans-48"/>
       </defs>
       <use xlink:href="#DejaVuSans-8722"/>
       <use x="83.789062" xlink:href="#DejaVuSans-49"/>
       <use x="147.412109" xlink:href="#DejaVuSans-53"/>
       <use x="211.035156" xlink:href="#DejaVuSans-48"/>
      </g>
     </g>
    </g>
    <g id="xtick_2">
     <g id="line2d_2">
      <g>
       <use style="stroke:#000000;stroke-width:0.8;" x="157.494914" xlink:href="#ma71e7807f0" y="307.584"/>
      </g>
     </g>
     <g id="text_2">
      <!-- −100 -->
      <g transform="translate(143.76132 322.182437)scale(0.1 -0.1)">
       <use xlink:href="#DejaVuSans-8722"/>
       <use x="83.789062" xlink:href="#DejaVuSans-49"/>
       <use x="147.412109" xlink:href="#DejaVuSans-48"/>
       <use x="211.035156" xlink:href="#DejaVuSans-48"/>
      </g>
     </g>
    </g>
    <g id="xtick_3">
     <g id="line2d_3">
      <g>
       <use style="stroke:#000000;stroke-width:0.8;" x="223.133893" xlink:href="#ma71e7807f0" y="307.584"/>
      </g>
     </g>
     <g id="text_3">
      <!-- −50 -->
      <g transform="translate(212.581549 322.182437)scale(0.1 -0.1)">
       <use xlink:href="#DejaVuSans-8722"/>
       <use x="83.789062" xlink:href="#DejaVuSans-53"/>
       <use x="147.412109" xlink:href="#DejaVuSans-48"/>
      </g>
     </g>
    </g>
    <g id="xtick_4">
     <g id="line2d_4">
      <g>
       <use style="stroke:#000000;stroke-width:0.8;" x="288.772873" xlink:href="#ma71e7807f0" y="307.584"/>
      </g>
     </g>
     <g id="text_4">
      <!-- 0 -->
      <g transform="translate(285.591623 322.182437)scale(0.1 -0.1)">
       <use xlink:href="#DejaVuSans-48"/>
      </g>
     </g>
    </g>
    <g id="xtick_5">
     <g id="line2d_5">
      <g>
       <use style="stroke:#000000;stroke-width:0.8;" x="354.411852" xlink:href="#ma71e7807f0" y="307.584"/>
      </g>
     </g>
     <g id="text_5">
      <!-- 50 -->
      <g transform="translate(348.049352 322.182437)scale(0.1 -0.1)">
       <use xlink:href="#DejaVuSans-53"/>
       <use x="63.623047" xlink:href="#DejaVuSans-48"/>
      </g>
     </g>
    </g>
   </g>
   <g id="matplotlib.axis_2">
    <g id="ytick_1">
     <g id="line2d_6">
      <defs>
       <path d="M 0 0 
L -3.5 0 
" id="m0db4784dcd" style="stroke:#000000;stroke-width:0.8;"/>
      </defs>
      <g>
       <use style="stroke:#000000;stroke-width:0.8;" x="57.6" xlink:href="#m0db4784dcd" y="295.437479"/>
      </g>
     </g>
     <g id="text_6">
      <!-- 0 -->
      <g transform="translate(44.2375 299.236698)scale(0.1 -0.1)">
       <use xlink:href="#DejaVuSans-48"/>
      </g>
     </g>
    </g>
    <g id="ytick_2">
     <g id="line2d_7">
      <g>
       <use style="stroke:#000000;stroke-width:0.8;" x="57.6" xlink:href="#m0db4784dcd" y="262.61799"/>
      </g>
     </g>
     <g id="text_7">
      <!-- 25 -->
      <g transform="translate(37.875 266.417208)scale(0.1 -0.1)">
       <defs>
        <path d="M 19.1875 8.296875 
L 53.609375 8.296875 
L 53.609375 0 
L 7.328125 0 
L 7.328125 8.296875 
Q 12.9375 14.109375 22.625 23.890625 
Q 32.328125 33.6875 34.8125 36.53125 
Q 39.546875 41.84375 41.421875 45.53125 
Q 43.3125 49.21875 43.3125 52.78125 
Q 43.3125 58.59375 39.234375 62.25 
Q 35.15625 65.921875 28.609375 65.921875 
Q 23.96875 65.921875 18.8125 64.3125 
Q 13.671875 62.703125 7.8125 59.421875 
L 7.8125 69.390625 
Q 13.765625 71.78125 18.9375 73 
Q 24.125 74.21875 28.421875 74.21875 
Q 39.75 74.21875 46.484375 68.546875 
Q 53.21875 62.890625 53.21875 53.421875 
Q 53.21875 48.921875 51.53125 44.890625 
Q 49.859375 40.875 45.40625 35.40625 
Q 44.1875 33.984375 37.640625 27.21875 
Q 31.109375 20.453125 19.1875 8.296875 
z
" id="DejaVuSans-50"/>
       </defs>
       <use xlink:href="#DejaVuSans-50"/>
       <use x="63.623047" xlink:href="#DejaVuSans-53"/>
      </g>
     </g>
    </g>
    <g id="ytick_3">
     <g id="line2d_8">
      <g>
       <use style="stroke:#000000;stroke-width:0.8;" x="57.6" xlink:href="#m0db4784dcd" y="229.7985"/>
      </g>
     </g>
     <g id="text_8">
      <!-- 50 -->
      <g transform="translate(37.875 233.597719)scale(0.1 -0.1)">
       <use xlink:href="#DejaVuSans-53"/>
       <use x="63.623047" xlink:href="#DejaVuSans-48"/>
      </g>
     </g>
    </g>
    <g id="ytick_4">
     <g id="line2d_9">
      <g>
       <use style="stroke:#000000;stroke-width:0.8;" x="57.6" xlink:href="#m0db4784dcd" y="196.97901"/>
      </g>
     </g>
     <g id="text_9">
      <!-- 75 -->
      <g transform="translate(37.875 200.778229)scale(0.1 -0.1)">
       <defs>
        <path d="M 8.203125 72.90625 
L 55.078125 72.90625 
L 55.078125 68.703125 
L 28.609375 0 
L 18.3125 0 
L 43.21875 64.59375 
L 8.203125 64.59375 
z
" id="DejaVuSans-55"/>
       </defs>
       <use xlink:href="#DejaVuSans-55"/>
       <use x="63.623047" xlink:href="#DejaVuSans-53"/>
      </g>
     </g>
    </g>
    <g id="ytick_5">
     <g id="line2d_10">
      <g>
       <use style="stroke:#000000;stroke-width:0.8;" x="57.6" xlink:href="#m0db4784dcd" y="164.15952"/>
      </g>
     </g>
     <g id="text_10">
      <!-- 100 -->
      <g transform="translate(31.5125 167.958739)scale(0.1 -0.1)">
       <use xlink:href="#DejaVuSans-49"/>
       <use x="63.623047" xlink:href="#DejaVuSans-48"/>
       <use x="127.246094" xlink:href="#DejaVuSans-48"/>
      </g>
     </g>
    </g>
    <g id="ytick_6">
     <g id="line2d_11">
      <g>
       <use style="stroke:#000000;stroke-width:0.8;" x="57.6" xlink:href="#m0db4784dcd" y="131.340031"/>
      </g>
     </g>
     <g id="text_11">
      <!-- 125 -->
      <g transform="translate(31.5125 135.139249)scale(0.1 -0.1)">
       <use xlink:href="#DejaVuSans-49"/>
       <use x="63.623047" xlink:href="#DejaVuSans-50"/>
       <use x="127.246094" xlink:href="#DejaVuSans-53"/>
      </g>
     </g>
    </g>
    <g id="ytick_7">
     <g id="line2d_12">
      <g>
       <use style="stroke:#000000;stroke-width:0.8;" x="57.6" xlink:href="#m0db4784dcd" y="98.520541"/>
      </g>
     </g>
     <g id="text_12">
      <!-- 150 -->
      <g transform="translate(31.5125 102.31976)scale(0.1 -0.1)">
       <use xlink:href="#DejaVuSans-49"/>
       <use x="63.623047" xlink:href="#DejaVuSans-53"/>
       <use x="127.246094" xlink:href="#DejaVuSans-48"/>
      </g>
     </g>
    </g>
    <g id="ytick_8">
     <g id="line2d_13">
      <g>
       <use style="stroke:#000000;stroke-width:0.8;" x="57.6" xlink:href="#m0db4784dcd" y="65.701051"/>
      </g>
     </g>
     <g id="text_13">
      <!-- 175 -->
      <g transform="translate(31.5125 69.50027)scale(0.1 -0.1)">
       <use xlink:href="#DejaVuSans-49"/>
       <use x="63.623047" xlink:href="#DejaVuSans-55"/>
       <use x="127.246094" xlink:href="#DejaVuSans-53"/>
      </g>
     </g>
    </g>
   </g>
   <g id="line2d_14">
    <path clip-path="url(#p2e59339858)" d="M 288.772873 295.437479 
L 289.040515 278.166399 
L 290.23438 222.827467 
L 291.070587 210.51763 
L 291.114088 207.049063 
L 290.972342 203.628493 
L 290.591679 200.270336 
L 289.918431 196.989007 
L 288.980059 193.725663 
L 287.845826 190.434452 
L 286.524759 187.149279 
L 285.025886 183.904049 
L 283.358235 180.732669 
L 281.530833 177.669044 
L 279.552708 174.747078 
L 277.432888 172.000679 
L 275.1804 169.463751 
L 272.781942 167.176169 
L 270.127746 165.174834 
L 267.243311 163.415774 
L 264.178152 161.845402 
L 259.34987 159.726408 
L 247.87453 154.948284 
L 243.221954 152.57712 
L 238.359275 150.301459 
L 228.376861 145.858563 
L 225.232643 144.229354 
L 222.297968 142.444037 
L 219.643588 140.453421 
L 218.443617 139.365753 
L 217.340252 138.208314 
L 216.342335 136.974953 
L 215.482853 135.641713 
L 214.77698 134.197243 
L 214.206842 132.654315 
L 213.754565 131.025697 
L 213.1321 127.562466 
L 212.766594 123.909705 
L 212.038648 114.618986 
L 211.446446 111.107323 
L 211.014346 109.446417 
L 210.467746 107.865819 
L 209.788774 106.378298 
L 208.959556 104.996625 
L 207.947491 103.725984 
L 206.748406 102.555276 
L 205.38707 101.472839 
L 203.888252 100.467015 
L 200.577245 98.638561 
L 195.198841 96.178967 
L 189.920618 93.779234 
L 186.787709 92.0572 
L 185.411334 91.124539 
L 184.194703 90.128568 
L 183.162586 89.057628 
L 182.339751 87.900059 
L 181.750966 86.644199 
L 181.386014 85.29993 
L 181.207591 83.888754 
L 181.199839 82.416447 
L 181.346898 80.888786 
L 181.632911 79.311545 
L 182.558363 76.031428 
L 183.849328 72.622304 
L 186.193587 67.367802 
L 189.414457 60.341527 
L 190.780236 56.923663 
L 191.346456 55.258765 
L 191.346456 55.258765 
" style="fill:none;stroke:#fea952;stroke-linecap:square;"/>
   </g>
   <g id="line2d_15">
    <path clip-path="url(#p2e59339858)" d="M 283.521997 295.386959 
L 283.790448 278.061303 
L 284.997726 222.437979 
L 285.820966 210.392224 
L 285.864721 207.184678 
L 285.743828 204.115205 
L 285.423336 201.199029 
L 284.852868 198.372597 
L 283.993987 195.372882 
L 282.949593 192.332121 
L 281.730003 189.290437 
L 280.346584 186.286983 
L 278.811784 183.36022 
L 277.139294 180.548041 
L 275.344328 177.887744 
L 273.443982 175.415774 
L 271.457615 173.167144 
L 269.505223 171.279504 
L 267.297367 169.597865 
L 264.775906 168.05109 
L 261.97839 166.613555 
L 257.370191 164.590061 
L 245.585009 159.673995 
L 234.605672 154.391226 
L 227.757497 151.375629 
L 224.302119 149.688525 
L 220.913369 147.788097 
L 217.662935 145.587443 
L 216.117013 144.344117 
L 214.642793 142.989008 
L 213.258009 141.511273 
L 211.928823 139.820152 
L 210.764929 137.947235 
L 209.851382 136.017335 
L 209.147201 134.059407 
L 208.612501 132.090318 
L 207.914677 128.156392 
L 207.52839 124.277758 
L 206.841117 115.367261 
L 206.364493 112.429442 
L 205.690729 110.046266 
L 204.852118 108.268199 
L 204.279114 107.483278 
L 203.480283 106.66546 
L 202.460969 105.833135 
L 199.845798 104.180695 
L 196.647576 102.575736 
L 185.654539 97.474813 
L 183.842028 96.404291 
L 182.085037 95.187788 
L 180.413702 93.772505 
L 178.882591 92.099978 
L 177.585224 90.129123 
L 176.683285 88.02001 
L 176.176371 85.958615 
L 175.956546 83.916404 
L 175.972883 81.913277 
L 176.180044 79.951841 
L 176.541433 78.026593 
L 177.616578 74.255758 
L 179.02061 70.558877 
L 181.437825 65.141375 
L 184.566396 58.323967 
L 185.808761 55.232898 
L 186.374982 53.568 
L 186.374982 53.568 
" style="fill:none;stroke:#ffffff;stroke-linecap:square;"/>
   </g>
   <g id="line2d_16">
    <path clip-path="url(#p2e59339858)" d="M 294.023748 295.488 
L 294.290581 278.271496 
L 295.471034 223.216955 
L 296.320208 210.643037 
L 296.363454 206.913448 
L 296.200855 203.141781 
L 295.760023 199.341642 
L 294.983993 195.605417 
L 293.966131 192.078445 
L 292.742059 188.536782 
L 291.319515 185.00812 
L 289.705189 181.521115 
L 287.904687 178.105118 
L 285.922372 174.790046 
L 283.761088 171.606413 
L 281.421794 168.585584 
L 278.903185 165.760359 
L 276.05866 163.072834 
L 272.958124 160.751803 
L 269.710716 158.780458 
L 266.377914 157.077248 
L 261.32955 154.862756 
L 250.164051 150.222574 
L 247.199974 148.732344 
L 243.851685 147.038232 
L 238.774051 144.751641 
L 230.72812 141.163264 
L 227.870077 139.688629 
L 225.33013 138.15682 
L 223.170162 136.562725 
L 221.422495 134.905355 
L 220.200777 133.33619 
L 219.702577 132.377152 
L 219.266482 131.249223 
L 218.59271 128.528144 
L 218.157724 125.300604 
L 217.620713 117.867317 
L 217.236179 113.870711 
L 216.528399 109.785205 
L 215.977094 107.730208 
L 215.244763 105.685371 
L 214.291263 103.676107 
L 213.066994 101.725051 
L 211.615868 99.968691 
L 210.016529 98.445091 
L 208.31317 97.112544 
L 206.535844 95.932205 
L 202.849298 93.904428 
L 197.307965 91.370033 
L 192.338284 89.117782 
L 189.733391 87.710108 
L 187.975705 86.484632 
L 187.094277 85.670995 
L 186.818647 85.268389 
L 186.595657 84.641245 
L 186.458637 83.861104 
L 186.426794 82.919617 
L 186.513752 81.82573 
L 187.055923 79.250952 
L 188.045416 76.280821 
L 189.383224 73.033367 
L 195.75171 58.614428 
L 196.317931 56.94953 
L 196.317931 56.94953 
" style="fill:none;stroke:#ffffff;stroke-linecap:square;"/>
   </g>
   <g id="patch_3">
    <path d="M 57.6 307.584 
L 57.6 41.472 
" style="fill:none;stroke:#000000;stroke-linecap:square;stroke-linejoin:miter;stroke-width:0.8;"/>
   </g>
   <g id="patch_4">
    <path d="M 414.72 307.584 
L 414.72 41.472 
" style="fill:none;stroke:#000000;stroke-linecap:square;stroke-linejoin:miter;stroke-width:0.8;"/>
   </g>
   <g id="patch_5">
    <path d="M 57.6 307.584 
L 414.72 307.584 
" style="fill:none;stroke:#000000;stroke-linecap:square;stroke-linejoin:miter;stroke-width:0.8;"/>
   </g>
   <g id="patch_6">
    <path d="M 57.6 41.472 
L 414.72 41.472 
" style="fill:none;stroke:#000000;stroke-linecap:square;stroke-linejoin:miter;stroke-width:0.8;"/>
   </g>
  </g>
 </g>
 <defs>
  <clipPath id="p2e59339858">
   <rect height="266.112" width="357.12" x="57.6" y="41.472"/>
  </clipPath>
 </defs>
</svg>
