<?xml version="1.0" encoding="utf-8" standalone="no"?>
<!DOCTYPE svg PUBLIC "-//W3C//DTD SVG 1.1//EN"
  "http://www.w3.org/Graphics/SVG/1.1/DTD/svg11.dtd">
<!-- Created with matplotlib (https://matplotlib.org/) -->
<svg height="345.6pt" version="1.1" viewBox="0 0 460.8 345.6" width="460.8pt" xmlns="http://www.w3.org/2000/svg" xmlns:xlink="http://www.w3.org/1999/xlink">
 <metadata>
  <rdf:RDF xmlns:cc="http://creativecommons.org/ns#" xmlns:dc="http://purl.org/dc/elements/1.1/" xmlns:rdf="http://www.w3.org/1999/02/22-rdf-syntax-ns#">
   <cc:Work>
    <dc:type rdf:resource="http://purl.org/dc/dcmitype/StillImage"/>
    <dc:date>2021-06-17T14:59:27.210397</dc:date>
    <dc:format>image/svg+xml</dc:format>
    <dc:creator>
     <cc:Agent>
      <dc:title>Matplotlib v3.3.3, https://matplotlib.org/</dc:title>
     </cc:Agent>
    </dc:creator>
   </cc:Work>
  </rdf:RDF>
 </metadata>
 <defs>
  <style type="text/css">*{stroke-linecap:butt;stroke-linejoin:round;}</style>
 </defs>
 <g id="figure_1">
  <g id="patch_1">
   <path d="M 0 345.6 
L 460.8 345.6 
L 460.8 0 
L 0 0 
z
" style="fill:#ffffff;"/>
  </g>
  <g id="axes_1">
   <g id="patch_2">
    <path d="M 57.6 307.584 
L 414.72 307.584 
L 414.72 41.472 
L 57.6 41.472 
z
" style="fill:#7d9051;"/>
   </g>
   <g id="matplotlib.axis_1">
    <g id="xtick_1">
     <g id="line2d_1">
      <defs>
       <path d="M 0 0 
L 0 3.5 
" id="mfdc1d06187" style="stroke:#000000;stroke-width:0.8;"/>
      </defs>
      <g>
       <use style="stroke:#000000;stroke-width:0.8;" x="70.494258" xlink:href="#mfdc1d06187" y="307.584"/>
      </g>
     </g>
     <g id="text_1">
      <!-- −150 -->
      <g transform="translate(56.760664 322.182437)scale(0.1 -0.1)">
       <defs>
        <path d="M 10.59375 35.5 
L 73.1875 35.5 
L 73.1875 27.203125 
L 10.59375 27.203125 
z
" id="DejaVuSans-8722"/>
        <path d="M 12.40625 8.296875 
L 28.515625 8.296875 
L 28.515625 63.921875 
L 10.984375 60.40625 
L 10.984375 69.390625 
L 28.421875 72.90625 
L 38.28125 72.90625 
L 38.28125 8.296875 
L 54.390625 8.296875 
L 54.390625 0 
L 12.40625 0 
z
" id="DejaVuSans-49"/>
        <path d="M 10.796875 72.90625 
L 49.515625 72.90625 
L 49.515625 64.59375 
L 19.828125 64.59375 
L 19.828125 46.734375 
Q 21.96875 47.46875 24.109375 47.828125 
Q 26.265625 48.1875 28.421875 48.1875 
Q 40.625 48.1875 47.75 41.5 
Q 54.890625 34.8125 54.890625 23.390625 
Q 54.890625 11.625 47.5625 5.09375 
Q 40.234375 -1.421875 26.90625 -1.421875 
Q 22.3125 -1.421875 17.546875 -0.640625 
Q 12.796875 0.140625 7.71875 1.703125 
L 7.71875 11.625 
Q 12.109375 9.234375 16.796875 8.0625 
Q 21.484375 6.890625 26.703125 6.890625 
Q 35.15625 6.890625 40.078125 11.328125 
Q 45.015625 15.765625 45.015625 23.390625 
Q 45.015625 31 40.078125 35.4375 
Q 35.15625 39.890625 26.703125 39.890625 
Q 22.75 39.890625 18.8125 39.015625 
Q 14.890625 38.140625 10.796875 36.28125 
z
" id="DejaVuSans-53"/>
        <path d="M 31.78125 66.40625 
Q 24.171875 66.40625 20.328125 58.90625 
Q 16.5 51.421875 16.5 36.375 
Q 16.5 21.390625 20.328125 13.890625 
Q 24.171875 6.390625 31.78125 6.390625 
Q 39.453125 6.390625 43.28125 13.890625 
Q 47.125 21.390625 47.125 36.375 
Q 47.125 51.421875 43.28125 58.90625 
Q 39.453125 66.40625 31.78125 66.40625 
z
M 31.78125 74.21875 
Q 44.046875 74.21875 50.515625 64.515625 
Q 56.984375 54.828125 56.984375 36.375 
Q 56.984375 17.96875 50.515625 8.265625 
Q 44.046875 -1.421875 31.78125 -1.421875 
Q 19.53125 -1.421875 13.0625 8.265625 
Q 6.59375 17.96875 6.59375 36.375 
Q 6.59375 54.828125 13.0625 64.515625 
Q 19.53125 74.21875 31.78125 74.21875 
z
" id="DejaVuSans-48"/>
       </defs>
       <use xlink:href="#DejaVuSans-8722"/>
       <use x="83.789062" xlink:href="#DejaVuSans-49"/>
       <use x="147.412109" xlink:href="#DejaVuSans-53"/>
       <use x="211.035156" xlink:href="#DejaVuSans-48"/>
      </g>
     </g>
    </g>
    <g id="xtick_2">
     <g id="line2d_2">
      <g>
       <use style="stroke:#000000;stroke-width:0.8;" x="146.27845" xlink:href="#mfdc1d06187" y="307.584"/>
      </g>
     </g>
     <g id="text_2">
      <!-- −100 -->
      <g transform="translate(132.544856 322.182437)scale(0.1 -0.1)">
       <use xlink:href="#DejaVuSans-8722"/>
       <use x="83.789062" xlink:href="#DejaVuSans-49"/>
       <use x="147.412109" xlink:href="#DejaVuSans-48"/>
       <use x="211.035156" xlink:href="#DejaVuSans-48"/>
      </g>
     </g>
    </g>
    <g id="xtick_3">
     <g id="line2d_3">
      <g>
       <use style="stroke:#000000;stroke-width:0.8;" x="222.062641" xlink:href="#mfdc1d06187" y="307.584"/>
      </g>
     </g>
     <g id="text_3">
      <!-- −50 -->
      <g transform="translate(211.510298 322.182437)scale(0.1 -0.1)">
       <use xlink:href="#DejaVuSans-8722"/>
       <use x="83.789062" xlink:href="#DejaVuSans-53"/>
       <use x="147.412109" xlink:href="#DejaVuSans-48"/>
      </g>
     </g>
    </g>
    <g id="xtick_4">
     <g id="line2d_4">
      <g>
       <use style="stroke:#000000;stroke-width:0.8;" x="297.846833" xlink:href="#mfdc1d06187" y="307.584"/>
      </g>
     </g>
     <g id="text_4">
      <!-- 0 -->
      <g transform="translate(294.665583 322.182437)scale(0.1 -0.1)">
       <use xlink:href="#DejaVuSans-48"/>
      </g>
     </g>
    </g>
    <g id="xtick_5">
     <g id="line2d_5">
      <g>
       <use style="stroke:#000000;stroke-width:0.8;" x="373.631025" xlink:href="#mfdc1d06187" y="307.584"/>
      </g>
     </g>
     <g id="text_5">
      <!-- 50 -->
      <g transform="translate(367.268525 322.182437)scale(0.1 -0.1)">
       <use xlink:href="#DejaVuSans-53"/>
       <use x="63.623047" xlink:href="#DejaVuSans-48"/>
      </g>
     </g>
    </g>
   </g>
   <g id="matplotlib.axis_2">
    <g id="ytick_1">
     <g id="line2d_6">
      <defs>
       <path d="M 0 0 
L -3.5 0 
" id="m406aa65b5e" style="stroke:#000000;stroke-width:0.8;"/>
      </defs>
      <g>
       <use style="stroke:#000000;stroke-width:0.8;" x="57.6" xlink:href="#m406aa65b5e" y="295.429671"/>
      </g>
     </g>
     <g id="text_6">
      <!-- 0 -->
      <g transform="translate(44.2375 299.22889)scale(0.1 -0.1)">
       <use xlink:href="#DejaVuSans-48"/>
      </g>
     </g>
    </g>
    <g id="ytick_2">
     <g id="line2d_7">
      <g>
       <use style="stroke:#000000;stroke-width:0.8;" x="57.6" xlink:href="#m406aa65b5e" y="265.115994"/>
      </g>
     </g>
     <g id="text_7">
      <!-- 20 -->
      <g transform="translate(37.875 268.915213)scale(0.1 -0.1)">
       <defs>
        <path d="M 19.1875 8.296875 
L 53.609375 8.296875 
L 53.609375 0 
L 7.328125 0 
L 7.328125 8.296875 
Q 12.9375 14.109375 22.625 23.890625 
Q 32.328125 33.6875 34.8125 36.53125 
Q 39.546875 41.84375 41.421875 45.53125 
Q 43.3125 49.21875 43.3125 52.78125 
Q 43.3125 58.59375 39.234375 62.25 
Q 35.15625 65.921875 28.609375 65.921875 
Q 23.96875 65.921875 18.8125 64.3125 
Q 13.671875 62.703125 7.8125 59.421875 
L 7.8125 69.390625 
Q 13.765625 71.78125 18.9375 73 
Q 24.125 74.21875 28.421875 74.21875 
Q 39.75 74.21875 46.484375 68.546875 
Q 53.21875 62.890625 53.21875 53.421875 
Q 53.21875 48.921875 51.53125 44.890625 
Q 49.859375 40.875 45.40625 35.40625 
Q 44.1875 33.984375 37.640625 27.21875 
Q 31.109375 20.453125 19.1875 8.296875 
z
" id="DejaVuSans-50"/>
       </defs>
       <use xlink:href="#DejaVuSans-50"/>
       <use x="63.623047" xlink:href="#DejaVuSans-48"/>
      </g>
     </g>
    </g>
    <g id="ytick_3">
     <g id="line2d_8">
      <g>
       <use style="stroke:#000000;stroke-width:0.8;" x="57.6" xlink:href="#m406aa65b5e" y="234.802317"/>
      </g>
     </g>
     <g id="text_8">
      <!-- 40 -->
      <g transform="translate(37.875 238.601536)scale(0.1 -0.1)">
       <defs>
        <path d="M 37.796875 64.3125 
L 12.890625 25.390625 
L 37.796875 25.390625 
z
M 35.203125 72.90625 
L 47.609375 72.90625 
L 47.609375 25.390625 
L 58.015625 25.390625 
L 58.015625 17.1875 
L 47.609375 17.1875 
L 47.609375 0 
L 37.796875 0 
L 37.796875 17.1875 
L 4.890625 17.1875 
L 4.890625 26.703125 
z
" id="DejaVuSans-52"/>
       </defs>
       <use xlink:href="#DejaVuSans-52"/>
       <use x="63.623047" xlink:href="#DejaVuSans-48"/>
      </g>
     </g>
    </g>
    <g id="ytick_4">
     <g id="line2d_9">
      <g>
       <use style="stroke:#000000;stroke-width:0.8;" x="57.6" xlink:href="#m406aa65b5e" y="204.488641"/>
      </g>
     </g>
     <g id="text_9">
      <!-- 60 -->
      <g transform="translate(37.875 208.28786)scale(0.1 -0.1)">
       <defs>
        <path d="M 33.015625 40.375 
Q 26.375 40.375 22.484375 35.828125 
Q 18.609375 31.296875 18.609375 23.390625 
Q 18.609375 15.53125 22.484375 10.953125 
Q 26.375 6.390625 33.015625 6.390625 
Q 39.65625 6.390625 43.53125 10.953125 
Q 47.40625 15.53125 47.40625 23.390625 
Q 47.40625 31.296875 43.53125 35.828125 
Q 39.65625 40.375 33.015625 40.375 
z
M 52.59375 71.296875 
L 52.59375 62.3125 
Q 48.875 64.0625 45.09375 64.984375 
Q 41.3125 65.921875 37.59375 65.921875 
Q 27.828125 65.921875 22.671875 59.328125 
Q 17.53125 52.734375 16.796875 39.40625 
Q 19.671875 43.65625 24.015625 45.921875 
Q 28.375 48.1875 33.59375 48.1875 
Q 44.578125 48.1875 50.953125 41.515625 
Q 57.328125 34.859375 57.328125 23.390625 
Q 57.328125 12.15625 50.6875 5.359375 
Q 44.046875 -1.421875 33.015625 -1.421875 
Q 20.359375 -1.421875 13.671875 8.265625 
Q 6.984375 17.96875 6.984375 36.375 
Q 6.984375 53.65625 15.1875 63.9375 
Q 23.390625 74.21875 37.203125 74.21875 
Q 40.921875 74.21875 44.703125 73.484375 
Q 48.484375 72.75 52.59375 71.296875 
z
" id="DejaVuSans-54"/>
       </defs>
       <use xlink:href="#DejaVuSans-54"/>
       <use x="63.623047" xlink:href="#DejaVuSans-48"/>
      </g>
     </g>
    </g>
    <g id="ytick_5">
     <g id="line2d_10">
      <g>
       <use style="stroke:#000000;stroke-width:0.8;" x="57.6" xlink:href="#m406aa65b5e" y="174.174964"/>
      </g>
     </g>
     <g id="text_10">
      <!-- 80 -->
      <g transform="translate(37.875 177.974183)scale(0.1 -0.1)">
       <defs>
        <path d="M 31.78125 34.625 
Q 24.75 34.625 20.71875 30.859375 
Q 16.703125 27.09375 16.703125 20.515625 
Q 16.703125 13.921875 20.71875 10.15625 
Q 24.75 6.390625 31.78125 6.390625 
Q 38.8125 6.390625 42.859375 10.171875 
Q 46.921875 13.96875 46.921875 20.515625 
Q 46.921875 27.09375 42.890625 30.859375 
Q 38.875 34.625 31.78125 34.625 
z
M 21.921875 38.8125 
Q 15.578125 40.375 12.03125 44.71875 
Q 8.5 49.078125 8.5 55.328125 
Q 8.5 64.0625 14.71875 69.140625 
Q 20.953125 74.21875 31.78125 74.21875 
Q 42.671875 74.21875 48.875 69.140625 
Q 55.078125 64.0625 55.078125 55.328125 
Q 55.078125 49.078125 51.53125 44.71875 
Q 48 40.375 41.703125 38.8125 
Q 48.828125 37.15625 52.796875 32.3125 
Q 56.78125 27.484375 56.78125 20.515625 
Q 56.78125 9.90625 50.3125 4.234375 
Q 43.84375 -1.421875 31.78125 -1.421875 
Q 19.734375 -1.421875 13.25 4.234375 
Q 6.78125 9.90625 6.78125 20.515625 
Q 6.78125 27.484375 10.78125 32.3125 
Q 14.796875 37.15625 21.921875 38.8125 
z
M 18.3125 54.390625 
Q 18.3125 48.734375 21.84375 45.5625 
Q 25.390625 42.390625 31.78125 42.390625 
Q 38.140625 42.390625 41.71875 45.5625 
Q 45.3125 48.734375 45.3125 54.390625 
Q 45.3125 60.0625 41.71875 63.234375 
Q 38.140625 66.40625 31.78125 66.40625 
Q 25.390625 66.40625 21.84375 63.234375 
Q 18.3125 60.0625 18.3125 54.390625 
z
" id="DejaVuSans-56"/>
       </defs>
       <use xlink:href="#DejaVuSans-56"/>
       <use x="63.623047" xlink:href="#DejaVuSans-48"/>
      </g>
     </g>
    </g>
    <g id="ytick_6">
     <g id="line2d_11">
      <g>
       <use style="stroke:#000000;stroke-width:0.8;" x="57.6" xlink:href="#m406aa65b5e" y="143.861287"/>
      </g>
     </g>
     <g id="text_11">
      <!-- 100 -->
      <g transform="translate(31.5125 147.660506)scale(0.1 -0.1)">
       <use xlink:href="#DejaVuSans-49"/>
       <use x="63.623047" xlink:href="#DejaVuSans-48"/>
       <use x="127.246094" xlink:href="#DejaVuSans-48"/>
      </g>
     </g>
    </g>
    <g id="ytick_7">
     <g id="line2d_12">
      <g>
       <use style="stroke:#000000;stroke-width:0.8;" x="57.6" xlink:href="#m406aa65b5e" y="113.547611"/>
      </g>
     </g>
     <g id="text_12">
      <!-- 120 -->
      <g transform="translate(31.5125 117.34683)scale(0.1 -0.1)">
       <use xlink:href="#DejaVuSans-49"/>
       <use x="63.623047" xlink:href="#DejaVuSans-50"/>
       <use x="127.246094" xlink:href="#DejaVuSans-48"/>
      </g>
     </g>
    </g>
    <g id="ytick_8">
     <g id="line2d_13">
      <g>
       <use style="stroke:#000000;stroke-width:0.8;" x="57.6" xlink:href="#m406aa65b5e" y="83.233934"/>
      </g>
     </g>
     <g id="text_13">
      <!-- 140 -->
      <g transform="translate(31.5125 87.033153)scale(0.1 -0.1)">
       <use xlink:href="#DejaVuSans-49"/>
       <use x="63.623047" xlink:href="#DejaVuSans-52"/>
       <use x="127.246094" xlink:href="#DejaVuSans-48"/>
      </g>
     </g>
    </g>
    <g id="ytick_9">
     <g id="line2d_14">
      <g>
       <use style="stroke:#000000;stroke-width:0.8;" x="57.6" xlink:href="#m406aa65b5e" y="52.920258"/>
      </g>
     </g>
     <g id="text_14">
      <!-- 160 -->
      <g transform="translate(31.5125 56.719476)scale(0.1 -0.1)">
       <use xlink:href="#DejaVuSans-49"/>
       <use x="63.623047" xlink:href="#DejaVuSans-54"/>
       <use x="127.246094" xlink:href="#DejaVuSans-48"/>
      </g>
     </g>
    </g>
   </g>
   <g id="line2d_15">
    <path clip-path="url(#pba2f1f1d41)" d="M 297.846833 295.429671 
L 298.116698 277.483138 
L 298.588115 255.522189 
L 298.973906 251.344175 
L 299.891356 244.873604 
L 301.114623 236.246177 
L 301.455245 232.095303 
L 301.454595 228.149486 
L 301.288652 226.276091 
L 300.992222 224.481101 
L 300.550249 222.773561 
L 299.947677 221.162519 
L 299.16945 219.657021 
L 298.202448 218.26833 
L 297.054315 216.994482 
L 295.741131 215.824686 
L 294.278982 214.748154 
L 292.683949 213.754094 
L 289.159566 211.970232 
L 285.296649 210.386778 
L 279.148978 208.198533 
L 272.963349 205.975647 
L 269.03295 204.330609 
L 265.407345 202.45437 
L 262.033071 200.303249 
L 258.750637 197.942134 
L 253.932729 194.174141 
L 247.546753 189.129491 
L 244.301655 186.770513 
L 240.981312 184.622479 
L 237.555345 182.761923 
L 233.993374 181.265379 
L 232.135935 180.705 
L 230.210075 180.299697 
L 228.225334 180.029685 
L 224.117364 179.816383 
L 219.888337 179.906798 
L 209.286945 180.422795 
L 205.235178 180.329652 
L 203.287906 180.139746 
L 201.40576 179.827902 
L 199.598279 179.374331 
L 197.875002 178.759248 
L 196.245469 177.962865 
L 194.677635 177.004949 
L 191.62164 174.729795 
L 188.693624 172.034217 
L 185.919685 168.988622 
L 183.325917 165.663418 
L 180.938419 162.129011 
L 178.783287 158.455811 
L 176.886617 154.714223 
L 175.274507 150.974655 
L 173.973054 147.307516 
L 172.913799 143.524533 
L 172.033894 139.454248 
L 171.367844 135.192282 
L 170.950156 130.834257 
L 170.815337 126.475796 
L 170.997894 122.21252 
L 171.532332 118.140053 
L 171.942291 116.205254 
L 172.453159 114.354016 
L 173.069252 112.598291 
L 173.794882 110.950032 
L 174.634362 109.421191 
L 175.651692 108.034933 
L 176.891538 106.795108 
L 178.329211 105.684699 
L 179.940023 104.686686 
L 181.699286 103.784053 
L 185.564416 102.196851 
L 191.858295 100.105943 
L 196.096979 98.706725 
L 200.139452 97.144447 
L 202.02539 96.259617 
L 203.788211 95.282968 
L 205.403228 94.197482 
L 206.845753 92.986142 
L 208.091097 91.631929 
L 209.165834 90.149869 
L 210.119893 88.571817 
L 210.963617 86.906001 
L 212.361437 83.343988 
L 213.442045 79.529653 
L 214.288191 75.528819 
L 215.298815 69.32187 
L 216.598041 61.007543 
L 217.413156 56.982025 
L 217.898293 55.030976 
L 217.898293 55.030976 
" style="fill:none;stroke:#fea952;stroke-linecap:square;"/>
   </g>
   <g id="line2d_16">
    <path clip-path="url(#pba2f1f1d41)" d="M 291.784378 295.371342 
L 292.05513 277.364142 
L 292.543482 255.054037 
L 292.960925 250.569052 
L 293.899668 243.948166 
L 295.080788 235.654916 
L 295.394388 231.944431 
L 295.415505 228.684422 
L 295.12291 226.00029 
L 294.56195 223.946528 
L 294.194123 223.121539 
L 293.69899 222.327348 
L 293.0216 221.521508 
L 292.146543 220.706868 
L 291.072319 219.893451 
L 288.369567 218.307436 
L 285.04598 216.801926 
L 281.258989 215.359743 
L 270.709489 211.603868 
L 266.38196 209.78304 
L 264.250529 208.738096 
L 260.363194 206.467199 
L 256.786319 204.025333 
L 251.749779 200.187732 
L 242.420723 192.87106 
L 239.443544 190.809031 
L 236.508602 189.041946 
L 233.601212 187.615949 
L 230.887366 186.637776 
L 229.392804 186.307095 
L 226.019446 185.935476 
L 222.22217 185.892653 
L 215.964075 186.19529 
L 209.271 186.485509 
L 204.646707 186.36376 
L 202.296907 186.12094 
L 199.930125 185.708315 
L 197.560256 185.084254 
L 195.212938 184.206281 
L 193.084549 183.136388 
L 191.198791 181.97027 
L 189.379387 180.683537 
L 187.62372 179.28758 
L 184.296053 176.20772 
L 181.207245 172.803026 
L 178.358257 169.13892 
L 175.757362 165.277568 
L 173.418058 161.279121 
L 171.357613 157.201565 
L 169.596333 153.099531 
L 168.161708 149.035237 
L 167.00748 144.892797 
L 166.058179 140.477766 
L 165.342374 135.863452 
L 164.894398 131.125037 
L 164.754206 126.336359 
L 164.969572 121.567464 
L 165.228852 119.210921 
L 165.601276 116.88334 
L 166.098006 114.592462 
L 166.732412 112.346578 
L 167.52043 110.155477 
L 168.480589 108.031975 
L 169.746588 105.83421 
L 171.364727 103.747896 
L 173.185579 101.996918 
L 175.136112 100.530974 
L 177.172411 99.292515 
L 179.268119 98.230118 
L 183.564483 96.473475 
L 189.996657 94.336103 
L 195.863791 92.341392 
L 199.087265 90.956393 
L 201.504443 89.554613 
L 202.383125 88.882276 
L 203.183027 88.072771 
L 203.977594 87.013163 
L 204.711337 85.832422 
L 206.003088 83.106836 
L 207.070664 79.930622 
L 207.941446 76.373555 
L 208.663492 72.515685 
L 211.056546 57.699583 
L 212.014717 53.568 
L 212.014717 53.568 
" style="fill:none;stroke:#ffffff;stroke-linecap:square;"/>
   </g>
   <g id="line2d_17">
    <path clip-path="url(#pba2f1f1d41)" d="M 303.909288 295.488 
L 304.178265 277.602135 
L 304.632749 255.990341 
L 304.986888 252.119298 
L 305.883044 245.799042 
L 306.871809 239.112394 
L 307.369717 234.547714 
L 307.565794 229.934658 
L 307.493684 227.614551 
L 307.270368 225.288253 
L 306.861534 222.961911 
L 306.228781 220.649641 
L 305.333404 218.37851 
L 304.144776 216.192504 
L 302.705907 214.209312 
L 301.08703 212.467455 
L 299.33572 210.942505 
L 297.485644 209.602858 
L 295.559792 208.41684 
L 291.543585 206.395897 
L 287.392574 204.697854 
L 279.106705 201.765459 
L 273.396704 199.621581 
L 270.097485 198.115472 
L 267.050465 196.352485 
L 263.978226 194.262981 
L 259.309546 190.707386 
L 251.164685 184.264583 
L 247.677171 181.734378 
L 243.991089 179.359589 
L 240.05791 177.239792 
L 237.985304 176.310783 
L 235.744509 175.461046 
L 233.384503 174.772223 
L 231.027346 174.292299 
L 228.684537 173.984365 
L 224.06799 173.753848 
L 219.577572 173.852033 
L 209.30289 174.36008 
L 205.823649 174.295544 
L 202.881395 173.947488 
L 200.537067 173.312214 
L 199.406389 172.789342 
L 196.891155 171.165115 
L 194.350268 169.067771 
L 191.849597 166.559758 
L 189.444896 163.713681 
L 187.183451 160.606832 
L 185.106344 157.318922 
L 183.250249 153.931611 
L 181.648531 150.529194 
L 180.331553 147.200315 
L 179.285848 143.913341 
L 178.392962 140.323792 
L 177.674895 136.491676 
L 177.169041 132.533522 
L 176.907393 128.565719 
L 176.915537 124.707308 
L 177.20909 121.081998 
L 177.786575 117.818047 
L 178.618074 115.041104 
L 179.522136 113.008171 
L 179.938658 112.32197 
L 180.597497 111.593298 
L 181.522309 110.838424 
L 182.707635 110.080857 
L 184.130454 109.337987 
L 187.564348 107.920227 
L 193.719934 105.875784 
L 198.178269 104.401019 
L 202.714584 102.633113 
L 204.963514 101.562841 
L 207.170186 100.314767 
L 209.302014 98.840351 
L 211.30838 97.090008 
L 212.999167 95.191088 
L 214.354074 93.286576 
L 215.528448 91.311212 
L 216.541084 89.282683 
L 217.411613 87.214461 
L 218.801777 82.997871 
L 219.837062 78.723313 
L 220.634911 74.442383 
L 223.296732 58.445001 
L 223.781868 56.493951 
L 223.781868 56.493951 
" style="fill:none;stroke:#ffffff;stroke-linecap:square;"/>
   </g>
   <g id="patch_3">
    <path d="M 57.6 307.584 
L 57.6 41.472 
" style="fill:none;stroke:#000000;stroke-linecap:square;stroke-linejoin:miter;stroke-width:0.8;"/>
   </g>
   <g id="patch_4">
    <path d="M 414.72 307.584 
L 414.72 41.472 
" style="fill:none;stroke:#000000;stroke-linecap:square;stroke-linejoin:miter;stroke-width:0.8;"/>
   </g>
   <g id="patch_5">
    <path d="M 57.6 307.584 
L 414.72 307.584 
" style="fill:none;stroke:#000000;stroke-linecap:square;stroke-linejoin:miter;stroke-width:0.8;"/>
   </g>
   <g id="patch_6">
    <path d="M 57.6 41.472 
L 414.72 41.472 
" style="fill:none;stroke:#000000;stroke-linecap:square;stroke-linejoin:miter;stroke-width:0.8;"/>
   </g>
  </g>
 </g>
 <defs>
  <clipPath id="pba2f1f1d41">
   <rect height="266.112" width="357.12" x="57.6" y="41.472"/>
  </clipPath>
 </defs>
</svg>
