<?xml version="1.0" encoding="utf-8" standalone="no"?>
<!DOCTYPE svg PUBLIC "-//W3C//DTD SVG 1.1//EN"
  "http://www.w3.org/Graphics/SVG/1.1/DTD/svg11.dtd">
<!-- Created with matplotlib (https://matplotlib.org/) -->
<svg height="345.6pt" version="1.1" viewBox="0 0 460.8 345.6" width="460.8pt" xmlns="http://www.w3.org/2000/svg" xmlns:xlink="http://www.w3.org/1999/xlink">
 <metadata>
  <rdf:RDF xmlns:cc="http://creativecommons.org/ns#" xmlns:dc="http://purl.org/dc/elements/1.1/" xmlns:rdf="http://www.w3.org/1999/02/22-rdf-syntax-ns#">
   <cc:Work>
    <dc:type rdf:resource="http://purl.org/dc/dcmitype/StillImage"/>
    <dc:date>2021-06-24T09:32:02.307182</dc:date>
    <dc:format>image/svg+xml</dc:format>
    <dc:creator>
     <cc:Agent>
      <dc:title>Matplotlib v3.3.3, https://matplotlib.org/</dc:title>
     </cc:Agent>
    </dc:creator>
   </cc:Work>
  </rdf:RDF>
 </metadata>
 <defs>
  <style type="text/css">*{stroke-linecap:butt;stroke-linejoin:round;}</style>
 </defs>
 <g id="figure_1">
  <g id="patch_1">
   <path d="M 0 345.6 
L 460.8 345.6 
L 460.8 0 
L 0 0 
z
" style="fill:#ffffff;"/>
  </g>
  <g id="axes_1">
   <g id="patch_2">
    <path d="M 57.6 307.584 
L 414.72 307.584 
L 414.72 41.472 
L 57.6 41.472 
z
" style="fill:#7d9051;"/>
   </g>
   <g id="matplotlib.axis_1">
    <g id="xtick_1">
     <g id="line2d_1">
      <defs>
       <path d="M 0 0 
L 0 3.5 
" id="mb4dffe9c4f" style="stroke:#000000;stroke-width:0.8;"/>
      </defs>
      <g>
       <use style="stroke:#000000;stroke-width:0.8;" x="104.052224" xlink:href="#mb4dffe9c4f" y="307.584"/>
      </g>
     </g>
     <g id="text_1">
      <!-- −50 -->
      <g transform="translate(93.49988 322.182437)scale(0.1 -0.1)">
       <defs>
        <path d="M 10.59375 35.5 
L 73.1875 35.5 
L 73.1875 27.203125 
L 10.59375 27.203125 
z
" id="DejaVuSans-8722"/>
        <path d="M 10.796875 72.90625 
L 49.515625 72.90625 
L 49.515625 64.59375 
L 19.828125 64.59375 
L 19.828125 46.734375 
Q 21.96875 47.46875 24.109375 47.828125 
Q 26.265625 48.1875 28.421875 48.1875 
Q 40.625 48.1875 47.75 41.5 
Q 54.890625 34.8125 54.890625 23.390625 
Q 54.890625 11.625 47.5625 5.09375 
Q 40.234375 -1.421875 26.90625 -1.421875 
Q 22.3125 -1.421875 17.546875 -0.640625 
Q 12.796875 0.140625 7.71875 1.703125 
L 7.71875 11.625 
Q 12.109375 9.234375 16.796875 8.0625 
Q 21.484375 6.890625 26.703125 6.890625 
Q 35.15625 6.890625 40.078125 11.328125 
Q 45.015625 15.765625 45.015625 23.390625 
Q 45.015625 31 40.078125 35.4375 
Q 35.15625 39.890625 26.703125 39.890625 
Q 22.75 39.890625 18.8125 39.015625 
Q 14.890625 38.140625 10.796875 36.28125 
z
" id="DejaVuSans-53"/>
        <path d="M 31.78125 66.40625 
Q 24.171875 66.40625 20.328125 58.90625 
Q 16.5 51.421875 16.5 36.375 
Q 16.5 21.390625 20.328125 13.890625 
Q 24.171875 6.390625 31.78125 6.390625 
Q 39.453125 6.390625 43.28125 13.890625 
Q 47.125 21.390625 47.125 36.375 
Q 47.125 51.421875 43.28125 58.90625 
Q 39.453125 66.40625 31.78125 66.40625 
z
M 31.78125 74.21875 
Q 44.046875 74.21875 50.515625 64.515625 
Q 56.984375 54.828125 56.984375 36.375 
Q 56.984375 17.96875 50.515625 8.265625 
Q 44.046875 -1.421875 31.78125 -1.421875 
Q 19.53125 -1.421875 13.0625 8.265625 
Q 6.59375 17.96875 6.59375 36.375 
Q 6.59375 54.828125 13.0625 64.515625 
Q 19.53125 74.21875 31.78125 74.21875 
z
" id="DejaVuSans-48"/>
       </defs>
       <use xlink:href="#DejaVuSans-8722"/>
       <use x="83.789062" xlink:href="#DejaVuSans-53"/>
       <use x="147.412109" xlink:href="#DejaVuSans-48"/>
      </g>
     </g>
    </g>
    <g id="xtick_2">
     <g id="line2d_2">
      <g>
       <use style="stroke:#000000;stroke-width:0.8;" x="173.254186" xlink:href="#mb4dffe9c4f" y="307.584"/>
      </g>
     </g>
     <g id="text_2">
      <!-- 0 -->
      <g transform="translate(170.072936 322.182437)scale(0.1 -0.1)">
       <use xlink:href="#DejaVuSans-48"/>
      </g>
     </g>
    </g>
    <g id="xtick_3">
     <g id="line2d_3">
      <g>
       <use style="stroke:#000000;stroke-width:0.8;" x="242.456149" xlink:href="#mb4dffe9c4f" y="307.584"/>
      </g>
     </g>
     <g id="text_3">
      <!-- 50 -->
      <g transform="translate(236.093649 322.182437)scale(0.1 -0.1)">
       <use xlink:href="#DejaVuSans-53"/>
       <use x="63.623047" xlink:href="#DejaVuSans-48"/>
      </g>
     </g>
    </g>
    <g id="xtick_4">
     <g id="line2d_4">
      <g>
       <use style="stroke:#000000;stroke-width:0.8;" x="311.658112" xlink:href="#mb4dffe9c4f" y="307.584"/>
      </g>
     </g>
     <g id="text_4">
      <!-- 100 -->
      <g transform="translate(302.114362 322.182437)scale(0.1 -0.1)">
       <defs>
        <path d="M 12.40625 8.296875 
L 28.515625 8.296875 
L 28.515625 63.921875 
L 10.984375 60.40625 
L 10.984375 69.390625 
L 28.421875 72.90625 
L 38.28125 72.90625 
L 38.28125 8.296875 
L 54.390625 8.296875 
L 54.390625 0 
L 12.40625 0 
z
" id="DejaVuSans-49"/>
       </defs>
       <use xlink:href="#DejaVuSans-49"/>
       <use x="63.623047" xlink:href="#DejaVuSans-48"/>
       <use x="127.246094" xlink:href="#DejaVuSans-48"/>
      </g>
     </g>
    </g>
    <g id="xtick_5">
     <g id="line2d_5">
      <g>
       <use style="stroke:#000000;stroke-width:0.8;" x="380.860074" xlink:href="#mb4dffe9c4f" y="307.584"/>
      </g>
     </g>
     <g id="text_5">
      <!-- 150 -->
      <g transform="translate(371.316324 322.182437)scale(0.1 -0.1)">
       <use xlink:href="#DejaVuSans-49"/>
       <use x="63.623047" xlink:href="#DejaVuSans-53"/>
       <use x="127.246094" xlink:href="#DejaVuSans-48"/>
      </g>
     </g>
    </g>
   </g>
   <g id="matplotlib.axis_2">
    <g id="ytick_1">
     <g id="line2d_6">
      <defs>
       <path d="M 0 0 
L -3.5 0 
" id="mb579010221" style="stroke:#000000;stroke-width:0.8;"/>
      </defs>
      <g>
       <use style="stroke:#000000;stroke-width:0.8;" x="57.6" xlink:href="#mb579010221" y="295.434737"/>
      </g>
     </g>
     <g id="text_6">
      <!-- 0 -->
      <g transform="translate(44.2375 299.233956)scale(0.1 -0.1)">
       <use xlink:href="#DejaVuSans-48"/>
      </g>
     </g>
    </g>
    <g id="ytick_2">
     <g id="line2d_7">
      <g>
       <use style="stroke:#000000;stroke-width:0.8;" x="57.6" xlink:href="#mb579010221" y="260.833756"/>
      </g>
     </g>
     <g id="text_7">
      <!-- 25 -->
      <g transform="translate(37.875 264.632974)scale(0.1 -0.1)">
       <defs>
        <path d="M 19.1875 8.296875 
L 53.609375 8.296875 
L 53.609375 0 
L 7.328125 0 
L 7.328125 8.296875 
Q 12.9375 14.109375 22.625 23.890625 
Q 32.328125 33.6875 34.8125 36.53125 
Q 39.546875 41.84375 41.421875 45.53125 
Q 43.3125 49.21875 43.3125 52.78125 
Q 43.3125 58.59375 39.234375 62.25 
Q 35.15625 65.921875 28.609375 65.921875 
Q 23.96875 65.921875 18.8125 64.3125 
Q 13.671875 62.703125 7.8125 59.421875 
L 7.8125 69.390625 
Q 13.765625 71.78125 18.9375 73 
Q 24.125 74.21875 28.421875 74.21875 
Q 39.75 74.21875 46.484375 68.546875 
Q 53.21875 62.890625 53.21875 53.421875 
Q 53.21875 48.921875 51.53125 44.890625 
Q 49.859375 40.875 45.40625 35.40625 
Q 44.1875 33.984375 37.640625 27.21875 
Q 31.109375 20.453125 19.1875 8.296875 
z
" id="DejaVuSans-50"/>
       </defs>
       <use xlink:href="#DejaVuSans-50"/>
       <use x="63.623047" xlink:href="#DejaVuSans-53"/>
      </g>
     </g>
    </g>
    <g id="ytick_3">
     <g id="line2d_8">
      <g>
       <use style="stroke:#000000;stroke-width:0.8;" x="57.6" xlink:href="#mb579010221" y="226.232774"/>
      </g>
     </g>
     <g id="text_8">
      <!-- 50 -->
      <g transform="translate(37.875 230.031993)scale(0.1 -0.1)">
       <use xlink:href="#DejaVuSans-53"/>
       <use x="63.623047" xlink:href="#DejaVuSans-48"/>
      </g>
     </g>
    </g>
    <g id="ytick_4">
     <g id="line2d_9">
      <g>
       <use style="stroke:#000000;stroke-width:0.8;" x="57.6" xlink:href="#mb579010221" y="191.631793"/>
      </g>
     </g>
     <g id="text_9">
      <!-- 75 -->
      <g transform="translate(37.875 195.431012)scale(0.1 -0.1)">
       <defs>
        <path d="M 8.203125 72.90625 
L 55.078125 72.90625 
L 55.078125 68.703125 
L 28.609375 0 
L 18.3125 0 
L 43.21875 64.59375 
L 8.203125 64.59375 
z
" id="DejaVuSans-55"/>
       </defs>
       <use xlink:href="#DejaVuSans-55"/>
       <use x="63.623047" xlink:href="#DejaVuSans-53"/>
      </g>
     </g>
    </g>
    <g id="ytick_5">
     <g id="line2d_10">
      <g>
       <use style="stroke:#000000;stroke-width:0.8;" x="57.6" xlink:href="#mb579010221" y="157.030812"/>
      </g>
     </g>
     <g id="text_10">
      <!-- 100 -->
      <g transform="translate(31.5125 160.83003)scale(0.1 -0.1)">
       <use xlink:href="#DejaVuSans-49"/>
       <use x="63.623047" xlink:href="#DejaVuSans-48"/>
       <use x="127.246094" xlink:href="#DejaVuSans-48"/>
      </g>
     </g>
    </g>
    <g id="ytick_6">
     <g id="line2d_11">
      <g>
       <use style="stroke:#000000;stroke-width:0.8;" x="57.6" xlink:href="#mb579010221" y="122.42983"/>
      </g>
     </g>
     <g id="text_11">
      <!-- 125 -->
      <g transform="translate(31.5125 126.229049)scale(0.1 -0.1)">
       <use xlink:href="#DejaVuSans-49"/>
       <use x="63.623047" xlink:href="#DejaVuSans-50"/>
       <use x="127.246094" xlink:href="#DejaVuSans-53"/>
      </g>
     </g>
    </g>
    <g id="ytick_7">
     <g id="line2d_12">
      <g>
       <use style="stroke:#000000;stroke-width:0.8;" x="57.6" xlink:href="#mb579010221" y="87.828849"/>
      </g>
     </g>
     <g id="text_12">
      <!-- 150 -->
      <g transform="translate(31.5125 91.628068)scale(0.1 -0.1)">
       <use xlink:href="#DejaVuSans-49"/>
       <use x="63.623047" xlink:href="#DejaVuSans-53"/>
       <use x="127.246094" xlink:href="#DejaVuSans-48"/>
      </g>
     </g>
    </g>
    <g id="ytick_8">
     <g id="line2d_13">
      <g>
       <use style="stroke:#000000;stroke-width:0.8;" x="57.6" xlink:href="#mb579010221" y="53.227867"/>
      </g>
     </g>
     <g id="text_13">
      <!-- 175 -->
      <g transform="translate(31.5125 57.027086)scale(0.1 -0.1)">
       <use xlink:href="#DejaVuSans-49"/>
       <use x="63.623047" xlink:href="#DejaVuSans-55"/>
       <use x="127.246094" xlink:href="#DejaVuSans-53"/>
      </g>
     </g>
    </g>
   </g>
   <g id="line2d_14">
    <path clip-path="url(#pfa546d47bc)" d="M 173.254186 295.434737 
L 173.536356 277.226157 
L 173.940099 251.730189 
L 174.087774 235.334284 
L 174.358984 228.059789 
L 174.56795 222.487108 
L 174.438026 216.525026 
L 174.21758 208.427981 
L 174.298055 204.515162 
L 174.630658 200.810716 
L 175.309138 197.403068 
L 175.807377 195.838178 
L 176.42724 194.380648 
L 177.180447 193.041531 
L 178.078715 191.83188 
L 179.142884 190.776741 
L 180.375276 189.882489 
L 181.75983 189.132181 
L 183.280484 188.508871 
L 184.921177 187.995614 
L 188.498435 187.231482 
L 192.363114 186.704225 
L 202.439069 185.532803 
L 206.297868 184.767078 
L 208.126254 184.25276 
L 209.865884 183.628211 
L 211.500696 182.876488 
L 214.598818 181.112319 
L 217.593296 179.126543 
L 220.496598 176.953498 
L 224.707864 173.417912 
L 228.784107 169.654115 
L 243.484747 155.604966 
L 250.489373 149.206654 
L 253.131332 146.552472 
L 255.584343 143.815775 
L 257.783354 140.977691 
L 259.663311 138.019346 
L 261.159161 134.921865 
L 261.699949 133.281436 
L 262.055726 131.542704 
L 262.249785 129.719497 
L 262.305416 127.825642 
L 262.094563 123.881289 
L 261.322361 117.780556 
L 260.562045 111.790614 
L 260.372322 108.043224 
L 260.442481 106.28478 
L 260.653709 104.621605 
L 261.029297 103.067526 
L 261.592536 101.63637 
L 262.366718 100.341962 
L 263.375705 99.211421 
L 264.610454 98.249453 
L 266.044894 97.436265 
L 267.652955 96.752062 
L 269.408568 96.177051 
L 273.25817 95.275432 
L 279.487467 94.247108 
L 283.639447 93.546705 
L 287.5474 92.649678 
L 289.344692 92.077948 
L 291.002769 91.397681 
L 292.495559 90.589085 
L 293.796995 89.632365 
L 294.881005 88.507729 
L 295.770503 87.231723 
L 296.514209 85.840675 
L 297.124761 84.344465 
L 297.614797 82.752973 
L 298.283879 79.323656 
L 298.622563 75.631762 
L 298.73196 71.756326 
L 298.768974 57.887973 
L 299.097804 54.164658 
L 299.097804 54.164658 
" style="fill:none;stroke:#fea952;stroke-linecap:square;"/>
   </g>
   <g id="line2d_15">
    <path clip-path="url(#pfa546d47bc)" d="M 167.718286 295.381474 
L 168.001308 277.115355 
L 168.40397 251.712369 
L 168.553652 235.184194 
L 168.831696 227.746545 
L 169.03199 222.533834 
L 168.905491 216.725259 
L 168.681574 208.387151 
L 168.774818 204.137154 
L 169.169356 199.903404 
L 169.529984 197.804069 
L 170.033902 195.723507 
L 170.7128 193.671539 
L 171.601989 191.666613 
L 172.735751 189.740968 
L 174.180775 187.900583 
L 175.891511 186.295936 
L 177.737569 185.015094 
L 179.660127 184.009654 
L 181.627603 183.225215 
L 183.625026 182.613326 
L 187.679732 181.756196 
L 191.765494 181.200419 
L 201.479093 180.080511 
L 204.79875 179.437755 
L 207.553028 178.598327 
L 208.850166 178.016063 
L 211.611669 176.451205 
L 214.3335 174.651863 
L 217.021695 172.643732 
L 221.003608 169.303605 
L 224.945934 165.664445 
L 239.798516 151.474503 
L 246.608102 145.258899 
L 249.065897 142.794643 
L 251.278079 140.336533 
L 253.189522 137.888072 
L 254.757216 135.454337 
L 255.901339 133.188561 
L 256.276171 132.171628 
L 256.550665 130.956756 
L 256.716015 129.556945 
L 256.725639 126.294033 
L 256.384768 122.572671 
L 255.041187 112.201905 
L 254.885637 110.026345 
L 254.840567 107.822516 
L 254.95044 105.587276 
L 255.272477 103.321076 
L 255.877735 101.040103 
L 256.841337 98.79469 
L 258.236321 96.655655 
L 259.973292 94.844201 
L 261.880196 93.433363 
L 263.877393 92.342055 
L 265.929786 91.49091 
L 268.021991 90.817346 
L 272.280882 89.826218 
L 278.611362 88.780713 
L 284.28003 87.765379 
L 287.243329 86.956102 
L 289.216479 86.128517 
L 289.811008 85.790367 
L 290.33942 85.34181 
L 290.888304 84.621519 
L 291.388396 83.749008 
L 291.833742 82.715308 
L 292.533545 80.181558 
L 292.966222 77.109641 
L 293.164204 73.620466 
L 293.177482 67.847802 
L 293.163361 59.608682 
L 293.394946 55.403203 
L 293.593893 53.568 
L 293.593893 53.568 
" style="fill:none;stroke:#ffffff;stroke-linecap:square;"/>
   </g>
   <g id="line2d_16">
    <path clip-path="url(#pfa546d47bc)" d="M 178.790087 295.488 
L 179.071405 277.336958 
L 179.476227 251.748009 
L 179.621896 235.484374 
L 179.886272 228.373032 
L 180.07766 224.469704 
L 180.086052 220.401154 
L 179.821292 204.893171 
L 180.09196 201.718027 
L 180.584373 199.08263 
L 181.252492 197.094682 
L 181.976654 195.763178 
L 182.394257 195.257545 
L 183.012983 194.749884 
L 183.859533 194.254708 
L 184.933365 193.792527 
L 187.68717 193.0166 
L 191.082548 192.440994 
L 199.077877 191.557631 
L 203.399045 190.985094 
L 207.796985 190.096401 
L 209.996902 189.463299 
L 212.17874 188.658095 
L 214.151226 187.736912 
L 217.585966 185.773432 
L 220.853092 183.601224 
L 223.9715 181.263265 
L 226.96041 178.799463 
L 231.241006 174.9499 
L 236.655869 169.718658 
L 244.410659 162.221875 
L 254.370645 153.154408 
L 257.196766 150.310301 
L 259.890607 147.295018 
L 262.377185 144.06731 
L 264.569405 140.584355 
L 265.523202 138.735636 
L 266.416983 136.65517 
L 267.123726 134.391243 
L 267.560787 132.128653 
L 267.783555 129.88205 
L 267.838999 127.656842 
L 267.598294 123.282981 
L 266.804311 117.007731 
L 266.082903 111.379324 
L 265.904078 108.263933 
L 266.034941 105.922135 
L 266.343735 104.478049 
L 266.497115 104.028268 
L 266.778119 103.578642 
L 267.340711 103.065544 
L 268.212394 102.530475 
L 269.376125 102.013214 
L 270.795145 101.536756 
L 274.235459 100.724647 
L 280.363572 99.713503 
L 284.76308 98.967635 
L 289.225622 97.92534 
L 291.446056 97.199794 
L 293.63955 96.265578 
L 295.77464 95.049652 
L 297.782981 93.474363 
L 299.42259 91.673648 
L 300.652702 89.841927 
L 301.640022 87.932343 
L 302.415779 85.973622 
L 303.012556 83.983106 
L 303.460369 81.970595 
L 304.010181 77.901542 
L 304.235002 73.803628 
L 304.248874 67.704962 
L 304.227673 60.029546 
L 304.402767 56.59652 
L 304.601714 54.761317 
L 304.601714 54.761317 
" style="fill:none;stroke:#ffffff;stroke-linecap:square;"/>
   </g>
   <g id="patch_3">
    <path d="M 57.6 307.584 
L 57.6 41.472 
" style="fill:none;stroke:#000000;stroke-linecap:square;stroke-linejoin:miter;stroke-width:0.8;"/>
   </g>
   <g id="patch_4">
    <path d="M 414.72 307.584 
L 414.72 41.472 
" style="fill:none;stroke:#000000;stroke-linecap:square;stroke-linejoin:miter;stroke-width:0.8;"/>
   </g>
   <g id="patch_5">
    <path d="M 57.6 307.584 
L 414.72 307.584 
" style="fill:none;stroke:#000000;stroke-linecap:square;stroke-linejoin:miter;stroke-width:0.8;"/>
   </g>
   <g id="patch_6">
    <path d="M 57.6 41.472 
L 414.72 41.472 
" style="fill:none;stroke:#000000;stroke-linecap:square;stroke-linejoin:miter;stroke-width:0.8;"/>
   </g>
  </g>
 </g>
 <defs>
  <clipPath id="pfa546d47bc">
   <rect height="266.112" width="357.12" x="57.6" y="41.472"/>
  </clipPath>
 </defs>
</svg>
