<?xml version="1.0" encoding="utf-8" standalone="no"?>
<!DOCTYPE svg PUBLIC "-//W3C//DTD SVG 1.1//EN"
  "http://www.w3.org/Graphics/SVG/1.1/DTD/svg11.dtd">
<!-- Created with matplotlib (https://matplotlib.org/) -->
<svg height="345.6pt" version="1.1" viewBox="0 0 460.8 345.6" width="460.8pt" xmlns="http://www.w3.org/2000/svg" xmlns:xlink="http://www.w3.org/1999/xlink">
 <metadata>
  <rdf:RDF xmlns:cc="http://creativecommons.org/ns#" xmlns:dc="http://purl.org/dc/elements/1.1/" xmlns:rdf="http://www.w3.org/1999/02/22-rdf-syntax-ns#">
   <cc:Work>
    <dc:type rdf:resource="http://purl.org/dc/dcmitype/StillImage"/>
    <dc:date>2021-05-31T11:43:32.951032</dc:date>
    <dc:format>image/svg+xml</dc:format>
    <dc:creator>
     <cc:Agent>
      <dc:title>Matplotlib v3.3.3, https://matplotlib.org/</dc:title>
     </cc:Agent>
    </dc:creator>
   </cc:Work>
  </rdf:RDF>
 </metadata>
 <defs>
  <style type="text/css">*{stroke-linecap:butt;stroke-linejoin:round;}</style>
 </defs>
 <g id="figure_1">
  <g id="patch_1">
   <path d="M 0 345.6 
L 460.8 345.6 
L 460.8 0 
L 0 0 
z
" style="fill:#ffffff;"/>
  </g>
  <g id="axes_1">
   <g id="patch_2">
    <path d="M 57.6 307.584 
L 414.72 307.584 
L 414.72 41.472 
L 57.6 41.472 
z
" style="fill:#7d9051;"/>
   </g>
   <g id="matplotlib.axis_1">
    <g id="xtick_1">
     <g id="line2d_1">
      <defs>
       <path d="M 0 0 
L 0 3.5 
" id="m3e94881467" style="stroke:#000000;stroke-width:0.8;"/>
      </defs>
      <g>
       <use style="stroke:#000000;stroke-width:0.8;" x="113.378611" xlink:href="#m3e94881467" y="307.584"/>
      </g>
     </g>
     <g id="text_1">
      <!-- −100 -->
      <g transform="translate(99.645017 322.182437)scale(0.1 -0.1)">
       <defs>
        <path d="M 10.59375 35.5 
L 73.1875 35.5 
L 73.1875 27.203125 
L 10.59375 27.203125 
z
" id="DejaVuSans-8722"/>
        <path d="M 12.40625 8.296875 
L 28.515625 8.296875 
L 28.515625 63.921875 
L 10.984375 60.40625 
L 10.984375 69.390625 
L 28.421875 72.90625 
L 38.28125 72.90625 
L 38.28125 8.296875 
L 54.390625 8.296875 
L 54.390625 0 
L 12.40625 0 
z
" id="DejaVuSans-49"/>
        <path d="M 31.78125 66.40625 
Q 24.171875 66.40625 20.328125 58.90625 
Q 16.5 51.421875 16.5 36.375 
Q 16.5 21.390625 20.328125 13.890625 
Q 24.171875 6.390625 31.78125 6.390625 
Q 39.453125 6.390625 43.28125 13.890625 
Q 47.125 21.390625 47.125 36.375 
Q 47.125 51.421875 43.28125 58.90625 
Q 39.453125 66.40625 31.78125 66.40625 
z
M 31.78125 74.21875 
Q 44.046875 74.21875 50.515625 64.515625 
Q 56.984375 54.828125 56.984375 36.375 
Q 56.984375 17.96875 50.515625 8.265625 
Q 44.046875 -1.421875 31.78125 -1.421875 
Q 19.53125 -1.421875 13.0625 8.265625 
Q 6.59375 17.96875 6.59375 36.375 
Q 6.59375 54.828125 13.0625 64.515625 
Q 19.53125 74.21875 31.78125 74.21875 
z
" id="DejaVuSans-48"/>
       </defs>
       <use xlink:href="#DejaVuSans-8722"/>
       <use x="83.789062" xlink:href="#DejaVuSans-49"/>
       <use x="147.412109" xlink:href="#DejaVuSans-48"/>
       <use x="211.035156" xlink:href="#DejaVuSans-48"/>
      </g>
     </g>
    </g>
    <g id="xtick_2">
     <g id="line2d_2">
      <g>
       <use style="stroke:#000000;stroke-width:0.8;" x="184.508507" xlink:href="#m3e94881467" y="307.584"/>
      </g>
     </g>
     <g id="text_2">
      <!-- −50 -->
      <g transform="translate(173.956163 322.182437)scale(0.1 -0.1)">
       <defs>
        <path d="M 10.796875 72.90625 
L 49.515625 72.90625 
L 49.515625 64.59375 
L 19.828125 64.59375 
L 19.828125 46.734375 
Q 21.96875 47.46875 24.109375 47.828125 
Q 26.265625 48.1875 28.421875 48.1875 
Q 40.625 48.1875 47.75 41.5 
Q 54.890625 34.8125 54.890625 23.390625 
Q 54.890625 11.625 47.5625 5.09375 
Q 40.234375 -1.421875 26.90625 -1.421875 
Q 22.3125 -1.421875 17.546875 -0.640625 
Q 12.796875 0.140625 7.71875 1.703125 
L 7.71875 11.625 
Q 12.109375 9.234375 16.796875 8.0625 
Q 21.484375 6.890625 26.703125 6.890625 
Q 35.15625 6.890625 40.078125 11.328125 
Q 45.015625 15.765625 45.015625 23.390625 
Q 45.015625 31 40.078125 35.4375 
Q 35.15625 39.890625 26.703125 39.890625 
Q 22.75 39.890625 18.8125 39.015625 
Q 14.890625 38.140625 10.796875 36.28125 
z
" id="DejaVuSans-53"/>
       </defs>
       <use xlink:href="#DejaVuSans-8722"/>
       <use x="83.789062" xlink:href="#DejaVuSans-53"/>
       <use x="147.412109" xlink:href="#DejaVuSans-48"/>
      </g>
     </g>
    </g>
    <g id="xtick_3">
     <g id="line2d_3">
      <g>
       <use style="stroke:#000000;stroke-width:0.8;" x="255.638402" xlink:href="#m3e94881467" y="307.584"/>
      </g>
     </g>
     <g id="text_3">
      <!-- 0 -->
      <g transform="translate(252.457152 322.182437)scale(0.1 -0.1)">
       <use xlink:href="#DejaVuSans-48"/>
      </g>
     </g>
    </g>
    <g id="xtick_4">
     <g id="line2d_4">
      <g>
       <use style="stroke:#000000;stroke-width:0.8;" x="326.768298" xlink:href="#m3e94881467" y="307.584"/>
      </g>
     </g>
     <g id="text_4">
      <!-- 50 -->
      <g transform="translate(320.405798 322.182437)scale(0.1 -0.1)">
       <use xlink:href="#DejaVuSans-53"/>
       <use x="63.623047" xlink:href="#DejaVuSans-48"/>
      </g>
     </g>
    </g>
    <g id="xtick_5">
     <g id="line2d_5">
      <g>
       <use style="stroke:#000000;stroke-width:0.8;" x="397.898193" xlink:href="#m3e94881467" y="307.584"/>
      </g>
     </g>
     <g id="text_5">
      <!-- 100 -->
      <g transform="translate(388.354443 322.182437)scale(0.1 -0.1)">
       <use xlink:href="#DejaVuSans-49"/>
       <use x="63.623047" xlink:href="#DejaVuSans-48"/>
       <use x="127.246094" xlink:href="#DejaVuSans-48"/>
      </g>
     </g>
    </g>
   </g>
   <g id="matplotlib.axis_2">
    <g id="ytick_1">
     <g id="line2d_6">
      <defs>
       <path d="M 0 0 
L -3.5 0 
" id="ma05b560092" style="stroke:#000000;stroke-width:0.8;"/>
      </defs>
      <g>
       <use style="stroke:#000000;stroke-width:0.8;" x="57.6" xlink:href="#ma05b560092" y="295.433253"/>
      </g>
     </g>
     <g id="text_6">
      <!-- 0 -->
      <g transform="translate(44.2375 299.232472)scale(0.1 -0.1)">
       <use xlink:href="#DejaVuSans-48"/>
      </g>
     </g>
    </g>
    <g id="ytick_2">
     <g id="line2d_7">
      <g>
       <use style="stroke:#000000;stroke-width:0.8;" x="57.6" xlink:href="#ma05b560092" y="259.868305"/>
      </g>
     </g>
     <g id="text_7">
      <!-- 25 -->
      <g transform="translate(37.875 263.667524)scale(0.1 -0.1)">
       <defs>
        <path d="M 19.1875 8.296875 
L 53.609375 8.296875 
L 53.609375 0 
L 7.328125 0 
L 7.328125 8.296875 
Q 12.9375 14.109375 22.625 23.890625 
Q 32.328125 33.6875 34.8125 36.53125 
Q 39.546875 41.84375 41.421875 45.53125 
Q 43.3125 49.21875 43.3125 52.78125 
Q 43.3125 58.59375 39.234375 62.25 
Q 35.15625 65.921875 28.609375 65.921875 
Q 23.96875 65.921875 18.8125 64.3125 
Q 13.671875 62.703125 7.8125 59.421875 
L 7.8125 69.390625 
Q 13.765625 71.78125 18.9375 73 
Q 24.125 74.21875 28.421875 74.21875 
Q 39.75 74.21875 46.484375 68.546875 
Q 53.21875 62.890625 53.21875 53.421875 
Q 53.21875 48.921875 51.53125 44.890625 
Q 49.859375 40.875 45.40625 35.40625 
Q 44.1875 33.984375 37.640625 27.21875 
Q 31.109375 20.453125 19.1875 8.296875 
z
" id="DejaVuSans-50"/>
       </defs>
       <use xlink:href="#DejaVuSans-50"/>
       <use x="63.623047" xlink:href="#DejaVuSans-53"/>
      </g>
     </g>
    </g>
    <g id="ytick_3">
     <g id="line2d_8">
      <g>
       <use style="stroke:#000000;stroke-width:0.8;" x="57.6" xlink:href="#ma05b560092" y="224.303358"/>
      </g>
     </g>
     <g id="text_8">
      <!-- 50 -->
      <g transform="translate(37.875 228.102576)scale(0.1 -0.1)">
       <use xlink:href="#DejaVuSans-53"/>
       <use x="63.623047" xlink:href="#DejaVuSans-48"/>
      </g>
     </g>
    </g>
    <g id="ytick_4">
     <g id="line2d_9">
      <g>
       <use style="stroke:#000000;stroke-width:0.8;" x="57.6" xlink:href="#ma05b560092" y="188.73841"/>
      </g>
     </g>
     <g id="text_9">
      <!-- 75 -->
      <g transform="translate(37.875 192.537629)scale(0.1 -0.1)">
       <defs>
        <path d="M 8.203125 72.90625 
L 55.078125 72.90625 
L 55.078125 68.703125 
L 28.609375 0 
L 18.3125 0 
L 43.21875 64.59375 
L 8.203125 64.59375 
z
" id="DejaVuSans-55"/>
       </defs>
       <use xlink:href="#DejaVuSans-55"/>
       <use x="63.623047" xlink:href="#DejaVuSans-53"/>
      </g>
     </g>
    </g>
    <g id="ytick_5">
     <g id="line2d_10">
      <g>
       <use style="stroke:#000000;stroke-width:0.8;" x="57.6" xlink:href="#ma05b560092" y="153.173462"/>
      </g>
     </g>
     <g id="text_10">
      <!-- 100 -->
      <g transform="translate(31.5125 156.972681)scale(0.1 -0.1)">
       <use xlink:href="#DejaVuSans-49"/>
       <use x="63.623047" xlink:href="#DejaVuSans-48"/>
       <use x="127.246094" xlink:href="#DejaVuSans-48"/>
      </g>
     </g>
    </g>
    <g id="ytick_6">
     <g id="line2d_11">
      <g>
       <use style="stroke:#000000;stroke-width:0.8;" x="57.6" xlink:href="#ma05b560092" y="117.608514"/>
      </g>
     </g>
     <g id="text_11">
      <!-- 125 -->
      <g transform="translate(31.5125 121.407733)scale(0.1 -0.1)">
       <use xlink:href="#DejaVuSans-49"/>
       <use x="63.623047" xlink:href="#DejaVuSans-50"/>
       <use x="127.246094" xlink:href="#DejaVuSans-53"/>
      </g>
     </g>
    </g>
    <g id="ytick_7">
     <g id="line2d_12">
      <g>
       <use style="stroke:#000000;stroke-width:0.8;" x="57.6" xlink:href="#ma05b560092" y="82.043567"/>
      </g>
     </g>
     <g id="text_12">
      <!-- 150 -->
      <g transform="translate(31.5125 85.842785)scale(0.1 -0.1)">
       <use xlink:href="#DejaVuSans-49"/>
       <use x="63.623047" xlink:href="#DejaVuSans-53"/>
       <use x="127.246094" xlink:href="#DejaVuSans-48"/>
      </g>
     </g>
    </g>
    <g id="ytick_8">
     <g id="line2d_13">
      <g>
       <use style="stroke:#000000;stroke-width:0.8;" x="57.6" xlink:href="#ma05b560092" y="46.478619"/>
      </g>
     </g>
     <g id="text_13">
      <!-- 175 -->
      <g transform="translate(31.5125 50.277838)scale(0.1 -0.1)">
       <use xlink:href="#DejaVuSans-49"/>
       <use x="63.623047" xlink:href="#DejaVuSans-55"/>
       <use x="127.246094" xlink:href="#DejaVuSans-53"/>
      </g>
     </g>
    </g>
   </g>
   <g id="line2d_14">
    <path clip-path="url(#p11fdbc5cda)" d="M 255.638402 295.433253 
L 255.928433 276.717391 
L 256.329848 257.983593 
L 256.661771 254.110461 
L 257.445285 248.161453 
L 258.489969 240.229443 
L 258.783809 236.374886 
L 258.789903 232.660671 
L 258.65331 230.871671 
L 258.406697 229.136332 
L 258.037368 227.460844 
L 257.532631 225.8514 
L 256.87979 224.314191 
L 256.03799 222.871671 
L 254.990502 221.533966 
L 253.760817 220.288776 
L 252.372427 219.123799 
L 249.213498 216.985289 
L 245.70165 215.020033 
L 236.611326 210.21911 
L 233.344242 208.085322 
L 231.883748 206.923494 
L 230.569942 205.681977 
L 229.426315 204.348469 
L 228.47636 202.910671 
L 227.720205 201.370301 
L 227.130109 199.743272 
L 226.687758 198.038579 
L 226.374837 196.265216 
L 226.064026 192.548458 
L 226.051163 188.664953 
L 226.335101 176.733504 
L 226.048872 172.902559 
L 225.751928 171.054974 
L 225.328012 169.26464 
L 224.75881 167.540552 
L 224.049937 165.877484 
L 222.303769 162.684982 
L 220.202191 159.635633 
L 217.844187 156.687407 
L 212.754832 150.9262 
L 209.000883 146.558138 
L 206.713875 143.544834 
L 204.714848 140.401483 
L 202.15182 135.313394 
L 198.542333 127.79408 
L 196.843879 123.885753 
L 195.355349 119.982628 
L 194.181038 116.162942 
L 193.425246 112.504934 
L 193.236887 110.761008 
L 193.192268 109.08684 
L 193.304428 107.49221 
L 193.586403 105.986898 
L 194.051231 104.580683 
L 194.731758 103.285036 
L 195.638082 102.097287 
L 196.749114 101.006008 
L 198.043765 99.999767 
L 199.500944 99.067135 
L 202.818533 97.376978 
L 206.533168 95.844098 
L 218.372205 91.274718 
L 221.987882 89.456547 
L 223.638818 88.440706 
L 225.157035 87.338454 
L 226.566737 86.128098 
L 229.200402 83.389214 
L 231.641972 80.333575 
L 235.089991 75.438328 
L 238.480818 70.555845 
L 240.820713 67.5229 
L 243.301867 64.818054 
L 244.61625 63.628973 
L 245.990949 62.57028 
L 247.434297 61.658098 
L 248.95463 60.908547 
L 250.547912 60.320321 
L 252.20113 59.873294 
L 253.909147 59.555364 
L 257.469025 59.258383 
L 261.186449 59.332555 
L 265.020319 59.681059 
L 270.899559 60.506385 
L 278.762519 61.663299 
L 282.611801 62.048111 
L 284.497912 62.149746 
L 284.497912 62.149746 
" style="fill:none;stroke:#fea952;stroke-linecap:square;"/>
   </g>
   <g id="line2d_15">
    <path clip-path="url(#p11fdbc5cda)" d="M 249.948274 295.378506 
L 250.239181 276.603502 
L 250.654147 257.574973 
L 251.011679 253.434435 
L 251.812681 247.352546 
L 252.822952 239.714201 
L 253.095077 236.237457 
L 253.116026 233.093882 
L 252.849709 230.36126 
L 252.295008 228.075779 
L 251.557735 226.379929 
L 250.941658 225.532393 
L 250.103144 224.647902 
L 249.04737 223.741651 
L 246.361791 221.909548 
L 243.08279 220.071976 
L 233.621886 215.060991 
L 231.692826 213.861069 
L 229.801705 212.538523 
L 227.975425 211.059383 
L 226.250467 209.386392 
L 224.678592 207.485297 
L 223.368244 205.418202 
L 222.370776 203.310448 
L 221.622137 201.172537 
L 221.08394 199.027408 
L 220.71862 196.887929 
L 220.374549 192.650456 
L 220.363335 188.49415 
L 220.651984 177.021149 
L 220.43058 173.80553 
L 219.924489 171.048595 
L 219.524115 169.771811 
L 218.318367 167.138437 
L 216.676544 164.474503 
L 214.655204 161.767392 
L 211.09008 157.594893 
L 205.842239 151.662764 
L 203.237109 148.427888 
L 200.796761 144.92647 
L 198.746642 141.276451 
L 193.344681 130.110321 
L 191.55508 125.985553 
L 189.949627 121.759911 
L 188.642227 117.467596 
L 188.140892 115.299935 
L 187.767758 113.115992 
L 187.548515 110.912609 
L 187.5159 108.687588 
L 187.711318 106.444509 
L 188.183533 104.200967 
L 189.01347 101.934643 
L 190.207962 99.833104 
L 191.650617 98.037648 
L 193.257086 96.513091 
L 194.976252 95.206968 
L 196.779754 94.069567 
L 200.574202 92.147874 
L 204.526826 90.519142 
L 215.93731 86.131582 
L 219.005817 84.610121 
L 221.450177 83.021075 
L 223.701767 80.977915 
L 225.932701 78.420824 
L 228.150576 75.462952 
L 235.188888 65.457842 
L 237.952055 62.162411 
L 239.484322 60.598231 
L 241.144219 59.120585 
L 242.950905 57.76001 
L 244.918027 56.554281 
L 246.983809 55.570343 
L 249.062583 54.827202 
L 251.159807 54.278993 
L 253.262836 53.901795 
L 255.363995 53.6721 
L 259.545296 53.569576 
L 263.68549 53.819273 
L 267.769822 54.2943 
L 282.917989 56.365963 
L 284.8041 56.467598 
L 284.8041 56.467598 
" style="fill:none;stroke:#ffffff;stroke-linecap:square;"/>
   </g>
   <g id="line2d_16">
    <path clip-path="url(#p11fdbc5cda)" d="M 261.32853 295.488 
L 261.617685 276.831279 
L 262.130894 256.622254 
L 262.797114 250.952783 
L 264.156987 240.744684 
L 264.472541 236.512315 
L 264.463781 232.22746 
L 264.287096 230.07104 
L 263.963684 227.911404 
L 263.467015 225.758054 
L 262.770254 223.627021 
L 261.794541 221.44613 
L 260.518245 219.363413 
L 259.039346 217.535539 
L 257.41849 215.929649 
L 255.697484 214.505948 
L 253.905499 213.227019 
L 250.196854 210.981838 
L 244.62904 208.070124 
L 239.600766 205.37723 
L 236.886778 203.632122 
L 234.889416 201.977561 
L 234.174038 201.211642 
L 233.584476 200.403141 
L 233.069634 199.430154 
L 232.638081 198.314006 
L 232.291576 197.049749 
L 231.853919 194.103443 
L 231.719552 190.685978 
L 231.875554 184.914647 
L 232.050913 178.623852 
L 231.899692 174.236024 
L 231.667163 171.999587 
L 231.289213 169.743854 
L 230.731535 167.480685 
L 229.993506 165.309293 
L 229.121781 163.297376 
L 228.136564 161.382986 
L 225.905896 157.815578 
L 223.442908 154.535622 
L 219.567399 150.001654 
L 213.475014 143.042075 
L 211.439414 140.374686 
L 209.749348 137.749245 
L 207.255702 132.797256 
L 203.739985 125.47784 
L 202.132678 121.785952 
L 200.76107 118.205345 
L 199.71985 114.858289 
L 199.082733 111.893876 
L 198.868636 109.486093 
L 198.989274 107.772828 
L 199.255554 106.736967 
L 199.625548 106.156927 
L 200.241143 105.498924 
L 201.111278 104.792566 
L 202.222134 104.064702 
L 205.062865 102.606082 
L 208.53951 101.169053 
L 218.694035 97.328986 
L 222.904974 95.417366 
L 224.969947 94.302973 
L 226.981964 93.045479 
L 228.863892 91.655834 
L 230.55526 90.186699 
L 232.12173 88.634706 
L 234.949363 85.365032 
L 237.472537 81.991602 
L 245.114622 71.256919 
L 247.119411 69.037878 
L 249.030992 67.38055 
L 249.950568 66.761914 
L 250.92545 66.246751 
L 252.033241 65.81344 
L 253.242453 65.467595 
L 255.969653 65.036756 
L 259.07593 64.940676 
L 262.497304 65.137861 
L 266.166335 65.561555 
L 280.205949 67.550981 
L 284.191725 67.831894 
L 284.191725 67.831894 
" style="fill:none;stroke:#ffffff;stroke-linecap:square;"/>
   </g>
   <g id="patch_3">
    <path d="M 57.6 307.584 
L 57.6 41.472 
" style="fill:none;stroke:#000000;stroke-linecap:square;stroke-linejoin:miter;stroke-width:0.8;"/>
   </g>
   <g id="patch_4">
    <path d="M 414.72 307.584 
L 414.72 41.472 
" style="fill:none;stroke:#000000;stroke-linecap:square;stroke-linejoin:miter;stroke-width:0.8;"/>
   </g>
   <g id="patch_5">
    <path d="M 57.6 307.584 
L 414.72 307.584 
" style="fill:none;stroke:#000000;stroke-linecap:square;stroke-linejoin:miter;stroke-width:0.8;"/>
   </g>
   <g id="patch_6">
    <path d="M 57.6 41.472 
L 414.72 41.472 
" style="fill:none;stroke:#000000;stroke-linecap:square;stroke-linejoin:miter;stroke-width:0.8;"/>
   </g>
  </g>
 </g>
 <defs>
  <clipPath id="p11fdbc5cda">
   <rect height="266.112" width="357.12" x="57.6" y="41.472"/>
  </clipPath>
 </defs>
</svg>
