<?xml version="1.0" encoding="utf-8" standalone="no"?>
<!DOCTYPE svg PUBLIC "-//W3C//DTD SVG 1.1//EN"
  "http://www.w3.org/Graphics/SVG/1.1/DTD/svg11.dtd">
<!-- Created with matplotlib (https://matplotlib.org/) -->
<svg height="345.6pt" version="1.1" viewBox="0 0 460.8 345.6" width="460.8pt" xmlns="http://www.w3.org/2000/svg" xmlns:xlink="http://www.w3.org/1999/xlink">
 <metadata>
  <rdf:RDF xmlns:cc="http://creativecommons.org/ns#" xmlns:dc="http://purl.org/dc/elements/1.1/" xmlns:rdf="http://www.w3.org/1999/02/22-rdf-syntax-ns#">
   <cc:Work>
    <dc:type rdf:resource="http://purl.org/dc/dcmitype/StillImage"/>
    <dc:date>2021-06-28T02:22:34.310719</dc:date>
    <dc:format>image/svg+xml</dc:format>
    <dc:creator>
     <cc:Agent>
      <dc:title>Matplotlib v3.3.3, https://matplotlib.org/</dc:title>
     </cc:Agent>
    </dc:creator>
   </cc:Work>
  </rdf:RDF>
 </metadata>
 <defs>
  <style type="text/css">*{stroke-linecap:butt;stroke-linejoin:round;}</style>
 </defs>
 <g id="figure_1">
  <g id="patch_1">
   <path d="M 0 345.6 
L 460.8 345.6 
L 460.8 0 
L 0 0 
z
" style="fill:#ffffff;"/>
  </g>
  <g id="axes_1">
   <g id="patch_2">
    <path d="M 57.6 307.584 
L 414.72 307.584 
L 414.72 41.472 
L 57.6 41.472 
z
" style="fill:#7d9051;"/>
   </g>
   <g id="matplotlib.axis_1">
    <g id="xtick_1">
     <g id="line2d_1">
      <defs>
       <path d="M 0 0 
L 0 3.5 
" id="mae1c2c9531" style="stroke:#000000;stroke-width:0.8;"/>
      </defs>
      <g>
       <use style="stroke:#000000;stroke-width:0.8;" x="88.920751" xlink:href="#mae1c2c9531" y="307.584"/>
      </g>
     </g>
     <g id="text_1">
      <!-- −125 -->
      <g transform="translate(75.187157 322.182437)scale(0.1 -0.1)">
       <defs>
        <path d="M 10.59375 35.5 
L 73.1875 35.5 
L 73.1875 27.203125 
L 10.59375 27.203125 
z
" id="DejaVuSans-8722"/>
        <path d="M 12.40625 8.296875 
L 28.515625 8.296875 
L 28.515625 63.921875 
L 10.984375 60.40625 
L 10.984375 69.390625 
L 28.421875 72.90625 
L 38.28125 72.90625 
L 38.28125 8.296875 
L 54.390625 8.296875 
L 54.390625 0 
L 12.40625 0 
z
" id="DejaVuSans-49"/>
        <path d="M 19.1875 8.296875 
L 53.609375 8.296875 
L 53.609375 0 
L 7.328125 0 
L 7.328125 8.296875 
Q 12.9375 14.109375 22.625 23.890625 
Q 32.328125 33.6875 34.8125 36.53125 
Q 39.546875 41.84375 41.421875 45.53125 
Q 43.3125 49.21875 43.3125 52.78125 
Q 43.3125 58.59375 39.234375 62.25 
Q 35.15625 65.921875 28.609375 65.921875 
Q 23.96875 65.921875 18.8125 64.3125 
Q 13.671875 62.703125 7.8125 59.421875 
L 7.8125 69.390625 
Q 13.765625 71.78125 18.9375 73 
Q 24.125 74.21875 28.421875 74.21875 
Q 39.75 74.21875 46.484375 68.546875 
Q 53.21875 62.890625 53.21875 53.421875 
Q 53.21875 48.921875 51.53125 44.890625 
Q 49.859375 40.875 45.40625 35.40625 
Q 44.1875 33.984375 37.640625 27.21875 
Q 31.109375 20.453125 19.1875 8.296875 
z
" id="DejaVuSans-50"/>
        <path d="M 10.796875 72.90625 
L 49.515625 72.90625 
L 49.515625 64.59375 
L 19.828125 64.59375 
L 19.828125 46.734375 
Q 21.96875 47.46875 24.109375 47.828125 
Q 26.265625 48.1875 28.421875 48.1875 
Q 40.625 48.1875 47.75 41.5 
Q 54.890625 34.8125 54.890625 23.390625 
Q 54.890625 11.625 47.5625 5.09375 
Q 40.234375 -1.421875 26.90625 -1.421875 
Q 22.3125 -1.421875 17.546875 -0.640625 
Q 12.796875 0.140625 7.71875 1.703125 
L 7.71875 11.625 
Q 12.109375 9.234375 16.796875 8.0625 
Q 21.484375 6.890625 26.703125 6.890625 
Q 35.15625 6.890625 40.078125 11.328125 
Q 45.015625 15.765625 45.015625 23.390625 
Q 45.015625 31 40.078125 35.4375 
Q 35.15625 39.890625 26.703125 39.890625 
Q 22.75 39.890625 18.8125 39.015625 
Q 14.890625 38.140625 10.796875 36.28125 
z
" id="DejaVuSans-53"/>
       </defs>
       <use xlink:href="#DejaVuSans-8722"/>
       <use x="83.789062" xlink:href="#DejaVuSans-49"/>
       <use x="147.412109" xlink:href="#DejaVuSans-50"/>
       <use x="211.035156" xlink:href="#DejaVuSans-53"/>
      </g>
     </g>
    </g>
    <g id="xtick_2">
     <g id="line2d_2">
      <g>
       <use style="stroke:#000000;stroke-width:0.8;" x="133.002609" xlink:href="#mae1c2c9531" y="307.584"/>
      </g>
     </g>
     <g id="text_2">
      <!-- −100 -->
      <g transform="translate(119.269015 322.182437)scale(0.1 -0.1)">
       <defs>
        <path d="M 31.78125 66.40625 
Q 24.171875 66.40625 20.328125 58.90625 
Q 16.5 51.421875 16.5 36.375 
Q 16.5 21.390625 20.328125 13.890625 
Q 24.171875 6.390625 31.78125 6.390625 
Q 39.453125 6.390625 43.28125 13.890625 
Q 47.125 21.390625 47.125 36.375 
Q 47.125 51.421875 43.28125 58.90625 
Q 39.453125 66.40625 31.78125 66.40625 
z
M 31.78125 74.21875 
Q 44.046875 74.21875 50.515625 64.515625 
Q 56.984375 54.828125 56.984375 36.375 
Q 56.984375 17.96875 50.515625 8.265625 
Q 44.046875 -1.421875 31.78125 -1.421875 
Q 19.53125 -1.421875 13.0625 8.265625 
Q 6.59375 17.96875 6.59375 36.375 
Q 6.59375 54.828125 13.0625 64.515625 
Q 19.53125 74.21875 31.78125 74.21875 
z
" id="DejaVuSans-48"/>
       </defs>
       <use xlink:href="#DejaVuSans-8722"/>
       <use x="83.789062" xlink:href="#DejaVuSans-49"/>
       <use x="147.412109" xlink:href="#DejaVuSans-48"/>
       <use x="211.035156" xlink:href="#DejaVuSans-48"/>
      </g>
     </g>
    </g>
    <g id="xtick_3">
     <g id="line2d_3">
      <g>
       <use style="stroke:#000000;stroke-width:0.8;" x="177.084466" xlink:href="#mae1c2c9531" y="307.584"/>
      </g>
     </g>
     <g id="text_3">
      <!-- −75 -->
      <g transform="translate(166.532122 322.182437)scale(0.1 -0.1)">
       <defs>
        <path d="M 8.203125 72.90625 
L 55.078125 72.90625 
L 55.078125 68.703125 
L 28.609375 0 
L 18.3125 0 
L 43.21875 64.59375 
L 8.203125 64.59375 
z
" id="DejaVuSans-55"/>
       </defs>
       <use xlink:href="#DejaVuSans-8722"/>
       <use x="83.789062" xlink:href="#DejaVuSans-55"/>
       <use x="147.412109" xlink:href="#DejaVuSans-53"/>
      </g>
     </g>
    </g>
    <g id="xtick_4">
     <g id="line2d_4">
      <g>
       <use style="stroke:#000000;stroke-width:0.8;" x="221.166324" xlink:href="#mae1c2c9531" y="307.584"/>
      </g>
     </g>
     <g id="text_4">
      <!-- −50 -->
      <g transform="translate(210.61398 322.182437)scale(0.1 -0.1)">
       <use xlink:href="#DejaVuSans-8722"/>
       <use x="83.789062" xlink:href="#DejaVuSans-53"/>
       <use x="147.412109" xlink:href="#DejaVuSans-48"/>
      </g>
     </g>
    </g>
    <g id="xtick_5">
     <g id="line2d_5">
      <g>
       <use style="stroke:#000000;stroke-width:0.8;" x="265.248181" xlink:href="#mae1c2c9531" y="307.584"/>
      </g>
     </g>
     <g id="text_5">
      <!-- −25 -->
      <g transform="translate(254.695838 322.182437)scale(0.1 -0.1)">
       <use xlink:href="#DejaVuSans-8722"/>
       <use x="83.789062" xlink:href="#DejaVuSans-50"/>
       <use x="147.412109" xlink:href="#DejaVuSans-53"/>
      </g>
     </g>
    </g>
    <g id="xtick_6">
     <g id="line2d_6">
      <g>
       <use style="stroke:#000000;stroke-width:0.8;" x="309.330039" xlink:href="#mae1c2c9531" y="307.584"/>
      </g>
     </g>
     <g id="text_6">
      <!-- 0 -->
      <g transform="translate(306.148789 322.182437)scale(0.1 -0.1)">
       <use xlink:href="#DejaVuSans-48"/>
      </g>
     </g>
    </g>
    <g id="xtick_7">
     <g id="line2d_7">
      <g>
       <use style="stroke:#000000;stroke-width:0.8;" x="353.411897" xlink:href="#mae1c2c9531" y="307.584"/>
      </g>
     </g>
     <g id="text_7">
      <!-- 25 -->
      <g transform="translate(347.049397 322.182437)scale(0.1 -0.1)">
       <use xlink:href="#DejaVuSans-50"/>
       <use x="63.623047" xlink:href="#DejaVuSans-53"/>
      </g>
     </g>
    </g>
    <g id="xtick_8">
     <g id="line2d_8">
      <g>
       <use style="stroke:#000000;stroke-width:0.8;" x="397.493754" xlink:href="#mae1c2c9531" y="307.584"/>
      </g>
     </g>
     <g id="text_8">
      <!-- 50 -->
      <g transform="translate(391.131254 322.182437)scale(0.1 -0.1)">
       <use xlink:href="#DejaVuSans-53"/>
       <use x="63.623047" xlink:href="#DejaVuSans-48"/>
      </g>
     </g>
    </g>
   </g>
   <g id="matplotlib.axis_2">
    <g id="ytick_1">
     <g id="line2d_9">
      <defs>
       <path d="M 0 0 
L -3.5 0 
" id="mfde737486d" style="stroke:#000000;stroke-width:0.8;"/>
      </defs>
      <g>
       <use style="stroke:#000000;stroke-width:0.8;" x="57.6" xlink:href="#mfde737486d" y="295.420143"/>
      </g>
     </g>
     <g id="text_9">
      <!-- 0 -->
      <g transform="translate(44.2375 299.219361)scale(0.1 -0.1)">
       <use xlink:href="#DejaVuSans-48"/>
      </g>
     </g>
    </g>
    <g id="ytick_2">
     <g id="line2d_10">
      <g>
       <use style="stroke:#000000;stroke-width:0.8;" x="57.6" xlink:href="#mfde737486d" y="260.154656"/>
      </g>
     </g>
     <g id="text_10">
      <!-- 20 -->
      <g transform="translate(37.875 263.953875)scale(0.1 -0.1)">
       <use xlink:href="#DejaVuSans-50"/>
       <use x="63.623047" xlink:href="#DejaVuSans-48"/>
      </g>
     </g>
    </g>
    <g id="ytick_3">
     <g id="line2d_11">
      <g>
       <use style="stroke:#000000;stroke-width:0.8;" x="57.6" xlink:href="#mfde737486d" y="224.88917"/>
      </g>
     </g>
     <g id="text_11">
      <!-- 40 -->
      <g transform="translate(37.875 228.688389)scale(0.1 -0.1)">
       <defs>
        <path d="M 37.796875 64.3125 
L 12.890625 25.390625 
L 37.796875 25.390625 
z
M 35.203125 72.90625 
L 47.609375 72.90625 
L 47.609375 25.390625 
L 58.015625 25.390625 
L 58.015625 17.1875 
L 47.609375 17.1875 
L 47.609375 0 
L 37.796875 0 
L 37.796875 17.1875 
L 4.890625 17.1875 
L 4.890625 26.703125 
z
" id="DejaVuSans-52"/>
       </defs>
       <use xlink:href="#DejaVuSans-52"/>
       <use x="63.623047" xlink:href="#DejaVuSans-48"/>
      </g>
     </g>
    </g>
    <g id="ytick_4">
     <g id="line2d_12">
      <g>
       <use style="stroke:#000000;stroke-width:0.8;" x="57.6" xlink:href="#mfde737486d" y="189.623684"/>
      </g>
     </g>
     <g id="text_12">
      <!-- 60 -->
      <g transform="translate(37.875 193.422903)scale(0.1 -0.1)">
       <defs>
        <path d="M 33.015625 40.375 
Q 26.375 40.375 22.484375 35.828125 
Q 18.609375 31.296875 18.609375 23.390625 
Q 18.609375 15.53125 22.484375 10.953125 
Q 26.375 6.390625 33.015625 6.390625 
Q 39.65625 6.390625 43.53125 10.953125 
Q 47.40625 15.53125 47.40625 23.390625 
Q 47.40625 31.296875 43.53125 35.828125 
Q 39.65625 40.375 33.015625 40.375 
z
M 52.59375 71.296875 
L 52.59375 62.3125 
Q 48.875 64.0625 45.09375 64.984375 
Q 41.3125 65.921875 37.59375 65.921875 
Q 27.828125 65.921875 22.671875 59.328125 
Q 17.53125 52.734375 16.796875 39.40625 
Q 19.671875 43.65625 24.015625 45.921875 
Q 28.375 48.1875 33.59375 48.1875 
Q 44.578125 48.1875 50.953125 41.515625 
Q 57.328125 34.859375 57.328125 23.390625 
Q 57.328125 12.15625 50.6875 5.359375 
Q 44.046875 -1.421875 33.015625 -1.421875 
Q 20.359375 -1.421875 13.671875 8.265625 
Q 6.984375 17.96875 6.984375 36.375 
Q 6.984375 53.65625 15.1875 63.9375 
Q 23.390625 74.21875 37.203125 74.21875 
Q 40.921875 74.21875 44.703125 73.484375 
Q 48.484375 72.75 52.59375 71.296875 
z
" id="DejaVuSans-54"/>
       </defs>
       <use xlink:href="#DejaVuSans-54"/>
       <use x="63.623047" xlink:href="#DejaVuSans-48"/>
      </g>
     </g>
    </g>
    <g id="ytick_5">
     <g id="line2d_13">
      <g>
       <use style="stroke:#000000;stroke-width:0.8;" x="57.6" xlink:href="#mfde737486d" y="154.358198"/>
      </g>
     </g>
     <g id="text_13">
      <!-- 80 -->
      <g transform="translate(37.875 158.157417)scale(0.1 -0.1)">
       <defs>
        <path d="M 31.78125 34.625 
Q 24.75 34.625 20.71875 30.859375 
Q 16.703125 27.09375 16.703125 20.515625 
Q 16.703125 13.921875 20.71875 10.15625 
Q 24.75 6.390625 31.78125 6.390625 
Q 38.8125 6.390625 42.859375 10.171875 
Q 46.921875 13.96875 46.921875 20.515625 
Q 46.921875 27.09375 42.890625 30.859375 
Q 38.875 34.625 31.78125 34.625 
z
M 21.921875 38.8125 
Q 15.578125 40.375 12.03125 44.71875 
Q 8.5 49.078125 8.5 55.328125 
Q 8.5 64.0625 14.71875 69.140625 
Q 20.953125 74.21875 31.78125 74.21875 
Q 42.671875 74.21875 48.875 69.140625 
Q 55.078125 64.0625 55.078125 55.328125 
Q 55.078125 49.078125 51.53125 44.71875 
Q 48 40.375 41.703125 38.8125 
Q 48.828125 37.15625 52.796875 32.3125 
Q 56.78125 27.484375 56.78125 20.515625 
Q 56.78125 9.90625 50.3125 4.234375 
Q 43.84375 -1.421875 31.78125 -1.421875 
Q 19.734375 -1.421875 13.25 4.234375 
Q 6.78125 9.90625 6.78125 20.515625 
Q 6.78125 27.484375 10.78125 32.3125 
Q 14.796875 37.15625 21.921875 38.8125 
z
M 18.3125 54.390625 
Q 18.3125 48.734375 21.84375 45.5625 
Q 25.390625 42.390625 31.78125 42.390625 
Q 38.140625 42.390625 41.71875 45.5625 
Q 45.3125 48.734375 45.3125 54.390625 
Q 45.3125 60.0625 41.71875 63.234375 
Q 38.140625 66.40625 31.78125 66.40625 
Q 25.390625 66.40625 21.84375 63.234375 
Q 18.3125 60.0625 18.3125 54.390625 
z
" id="DejaVuSans-56"/>
       </defs>
       <use xlink:href="#DejaVuSans-56"/>
       <use x="63.623047" xlink:href="#DejaVuSans-48"/>
      </g>
     </g>
    </g>
    <g id="ytick_6">
     <g id="line2d_14">
      <g>
       <use style="stroke:#000000;stroke-width:0.8;" x="57.6" xlink:href="#mfde737486d" y="119.092712"/>
      </g>
     </g>
     <g id="text_14">
      <!-- 100 -->
      <g transform="translate(31.5125 122.891931)scale(0.1 -0.1)">
       <use xlink:href="#DejaVuSans-49"/>
       <use x="63.623047" xlink:href="#DejaVuSans-48"/>
       <use x="127.246094" xlink:href="#DejaVuSans-48"/>
      </g>
     </g>
    </g>
    <g id="ytick_7">
     <g id="line2d_15">
      <g>
       <use style="stroke:#000000;stroke-width:0.8;" x="57.6" xlink:href="#mfde737486d" y="83.827226"/>
      </g>
     </g>
     <g id="text_15">
      <!-- 120 -->
      <g transform="translate(31.5125 87.626445)scale(0.1 -0.1)">
       <use xlink:href="#DejaVuSans-49"/>
       <use x="63.623047" xlink:href="#DejaVuSans-50"/>
       <use x="127.246094" xlink:href="#DejaVuSans-48"/>
      </g>
     </g>
    </g>
    <g id="ytick_8">
     <g id="line2d_16">
      <g>
       <use style="stroke:#000000;stroke-width:0.8;" x="57.6" xlink:href="#mfde737486d" y="48.56174"/>
      </g>
     </g>
     <g id="text_16">
      <!-- 140 -->
      <g transform="translate(31.5125 52.360959)scale(0.1 -0.1)">
       <use xlink:href="#DejaVuSans-49"/>
       <use x="63.623047" xlink:href="#DejaVuSans-52"/>
       <use x="127.246094" xlink:href="#DejaVuSans-48"/>
      </g>
     </g>
    </g>
   </g>
   <g id="line2d_17">
    <path clip-path="url(#p28214f557f)" d="M 309.330039 295.420143 
L 309.599682 276.861714 
L 310.197653 248.978458 
L 310.683156 244.011396 
L 311.844823 236.20983 
L 313.064279 228.361469 
L 313.652517 223.311213 
L 313.881181 218.552134 
L 313.812516 216.320782 
L 313.59617 214.209021 
L 313.212878 212.232449 
L 312.643379 210.406665 
L 311.86841 208.747267 
L 310.868708 207.269855 
L 309.622605 206.006135 
L 308.136077 204.962282 
L 306.431331 204.115593 
L 304.53057 203.443368 
L 302.456 202.922904 
L 300.229825 202.531502 
L 295.411482 202.045072 
L 287.602055 201.715847 
L 282.266885 201.498461 
L 277.035854 201.070871 
L 274.514901 200.721497 
L 272.086598 200.251468 
L 269.773149 199.638083 
L 267.596758 198.85864 
L 265.524321 197.913466 
L 263.503772 196.829721 
L 259.593396 194.316707 
L 255.815747 191.45998 
L 250.28902 186.837514 
L 244.78034 182.231341 
L 241.034774 179.403582 
L 237.172523 176.934019 
L 235.182052 175.87743 
L 233.143704 174.963034 
L 231.051242 174.208378 
L 228.887115 173.648423 
L 226.64506 173.289564 
L 224.335778 173.106498 
L 221.969969 173.073924 
L 217.111574 173.359044 
L 212.155482 173.942509 
L 202.292622 175.194811 
L 197.557066 175.458818 
L 195.275708 175.411729 
L 193.066232 175.211509 
L 190.939338 174.832856 
L 188.905727 174.250468 
L 186.976098 173.439044 
L 185.103048 172.4246 
L 183.237022 171.257359 
L 181.3855 169.948328 
L 179.55596 168.508515 
L 175.992745 165.280567 
L 172.607211 161.66157 
L 169.45919 157.73958 
L 166.608515 153.602652 
L 164.11502 149.338841 
L 162.038538 145.036203 
L 160.438901 140.782793 
L 159.836597 138.702066 
L 159.355667 136.591949 
L 158.977294 134.389844 
L 158.522011 129.760375 
L 158.458336 124.915066 
L 158.773853 119.955324 
L 159.456149 114.982559 
L 160.492809 110.098176 
L 161.871421 105.403585 
L 163.57957 101.000192 
L 164.553341 98.939385 
L 165.604841 96.989405 
L 166.732519 95.162929 
L 167.97318 93.441177 
L 169.357292 91.794518 
L 170.873792 90.219353 
L 172.511619 88.712084 
L 176.107003 85.886834 
L 180.05495 83.289978 
L 184.266964 80.89272 
L 188.654548 78.66627 
L 195.371535 75.583873 
L 206.234368 70.920362 
L 210.548269 69.332595 
L 214.95005 67.946937 
L 221.677722 66.155935 
L 230.785833 64.085034 
L 242.188016 61.535611 
L 246.695859 60.393879 
L 246.695859 60.393879 
" style="fill:none;stroke:#fea952;stroke-linecap:square;"/>
   </g>
   <g id="line2d_18">
    <path clip-path="url(#p28214f557f)" d="M 302.277268 295.352285 
L 302.547871 276.727029 
L 303.168182 248.401649 
L 303.694129 243.062877 
L 304.882248 235.083455 
L 306.069146 227.459087 
L 306.616485 222.820872 
L 306.831421 218.769074 
L 306.672058 215.551725 
L 306.252843 213.391163 
L 305.846533 212.222021 
L 305.569364 211.77826 
L 304.998698 211.279167 
L 304.079661 210.765092 
L 302.814292 210.284462 
L 301.234668 209.869452 
L 299.382524 209.53352 
L 295.023313 209.08748 
L 287.354461 208.764598 
L 281.797208 208.535902 
L 276.067632 208.057196 
L 273.174563 207.646068 
L 270.279005 207.069004 
L 267.39509 206.27819 
L 264.670067 205.275856 
L 262.190571 204.128954 
L 259.830624 202.850865 
L 257.579134 201.468386 
L 253.353625 198.484234 
L 249.423005 195.345835 
L 238.755756 186.474735 
L 235.465438 184.146874 
L 232.295223 182.312677 
L 229.284478 181.036608 
L 227.772397 180.612875 
L 226.087682 180.320603 
L 224.238676 180.158927 
L 222.240636 180.121826 
L 217.869472 180.371303 
L 213.111463 180.930519 
L 202.8312 182.227315 
L 200.142558 182.42699 
L 197.411515 182.510413 
L 194.639173 182.436044 
L 191.830001 182.155421 
L 188.997524 181.613382 
L 186.17173 180.752117 
L 183.617147 179.640949 
L 181.362669 178.40421 
L 179.165316 177.016472 
L 177.023603 175.490895 
L 174.937479 173.839164 
L 172.908187 172.072014 
L 170.938078 170.199563 
L 167.18922 166.177271 
L 163.725193 161.846582 
L 160.58851 157.277664 
L 157.827859 152.535369 
L 156.605413 150.117322 
L 155.49818 147.676261 
L 154.514533 145.217189 
L 153.663937 142.743927 
L 152.959848 140.269389 
L 152.404435 137.786333 
L 151.975752 135.241071 
L 151.666989 132.641321 
L 151.472824 129.995188 
L 151.412356 124.598283 
L 151.770051 119.122894 
L 152.530911 113.645672 
L 153.687487 108.245135 
L 155.240598 102.999762 
L 156.169102 100.459479 
L 157.202548 97.986926 
L 158.345302 95.591783 
L 159.603434 93.2841 
L 161.010264 91.039584 
L 162.574072 88.902915 
L 164.27628 86.902739 
L 166.097642 85.0295 
L 168.021671 83.272732 
L 170.034104 81.621949 
L 174.274824 78.599168 
L 178.729877 75.890685 
L 183.316279 73.43844 
L 187.951672 71.194612 
L 194.810036 68.133843 
L 203.710945 64.334125 
L 208.358874 62.627915 
L 213.030763 61.16 
L 220.039692 59.295684 
L 229.290766 57.192215 
L 240.500409 54.687388 
L 244.920035 53.568 
L 244.920035 53.568 
" style="fill:none;stroke:#ffffff;stroke-linecap:square;"/>
   </g>
   <g id="line2d_19">
    <path clip-path="url(#p28214f557f)" d="M 316.38281 295.488 
L 316.651493 276.996398 
L 317.227125 249.555267 
L 317.672182 244.959914 
L 318.807399 237.336206 
L 320.059412 229.26385 
L 320.688549 223.801554 
L 320.872216 221.067885 
L 320.930941 218.335193 
L 320.828889 215.601966 
L 320.520281 212.866317 
L 319.946029 210.132244 
L 319.033916 207.422167 
L 317.709867 204.794601 
L 315.890883 202.31769 
L 313.675845 200.234011 
L 311.273456 198.645397 
L 308.783 197.466095 
L 306.246848 196.602274 
L 303.677332 195.976356 
L 301.077126 195.529483 
L 295.799651 195.002665 
L 287.849649 194.667097 
L 280.308352 194.302158 
L 275.85524 193.796927 
L 273.894192 193.433933 
L 272.151207 192.997976 
L 270.52345 192.441424 
L 268.858071 191.697978 
L 267.176919 190.808578 
L 263.762697 188.627849 
L 260.274889 185.995346 
L 254.86574 181.470968 
L 249.114603 176.66714 
L 244.974003 173.553056 
L 242.777267 172.083629 
L 240.479447 170.704217 
L 238.068881 169.442184 
L 235.53657 168.328249 
L 232.818006 167.380148 
L 230.001833 166.683972 
L 227.202437 166.258525 
L 224.43288 166.054069 
L 221.699302 166.026023 
L 216.353677 166.346786 
L 211.1995 166.954499 
L 201.754044 168.162307 
L 197.702617 168.407223 
L 194.302463 168.267597 
L 192.881152 168.052329 
L 191.639723 167.748819 
L 190.33505 167.237139 
L 188.843427 166.444989 
L 185.747396 164.405762 
L 182.603577 161.825837 
L 179.517639 158.797378 
L 176.580438 155.419902 
L 173.872865 151.797262 
L 171.46885 148.037794 
L 169.436413 144.256422 
L 167.836215 140.578493 
L 166.713346 137.134743 
L 165.978836 133.538617 
L 165.571199 129.525561 
L 165.504315 125.231849 
L 165.777655 120.787755 
L 166.381386 116.319446 
L 167.298132 111.951218 
L 168.502244 107.807408 
L 169.956591 104.013458 
L 171.606249 100.694711 
L 172.454774 99.286275 
L 173.372288 97.979438 
L 174.438304 96.686296 
L 175.649942 95.409206 
L 178.485316 92.916272 
L 181.810051 90.524145 
L 185.537082 88.245712 
L 189.572401 86.081448 
L 193.821376 84.021587 
L 200.394854 81.087396 
L 210.727841 76.749169 
L 214.785481 75.366884 
L 218.987137 74.134015 
L 225.522015 72.489112 
L 236.880594 69.978206 
L 246.223822 67.804563 
L 248.471683 67.219759 
L 248.471683 67.219759 
" style="fill:none;stroke:#ffffff;stroke-linecap:square;"/>
   </g>
   <g id="patch_3">
    <path d="M 57.6 307.584 
L 57.6 41.472 
" style="fill:none;stroke:#000000;stroke-linecap:square;stroke-linejoin:miter;stroke-width:0.8;"/>
   </g>
   <g id="patch_4">
    <path d="M 414.72 307.584 
L 414.72 41.472 
" style="fill:none;stroke:#000000;stroke-linecap:square;stroke-linejoin:miter;stroke-width:0.8;"/>
   </g>
   <g id="patch_5">
    <path d="M 57.6 307.584 
L 414.72 307.584 
" style="fill:none;stroke:#000000;stroke-linecap:square;stroke-linejoin:miter;stroke-width:0.8;"/>
   </g>
   <g id="patch_6">
    <path d="M 57.6 41.472 
L 414.72 41.472 
" style="fill:none;stroke:#000000;stroke-linecap:square;stroke-linejoin:miter;stroke-width:0.8;"/>
   </g>
  </g>
 </g>
 <defs>
  <clipPath id="p28214f557f">
   <rect height="266.112" width="357.12" x="57.6" y="41.472"/>
  </clipPath>
 </defs>
</svg>
