<?xml version="1.0" encoding="utf-8" standalone="no"?>
<!DOCTYPE svg PUBLIC "-//W3C//DTD SVG 1.1//EN"
  "http://www.w3.org/Graphics/SVG/1.1/DTD/svg11.dtd">
<!-- Created with matplotlib (https://matplotlib.org/) -->
<svg height="345.6pt" version="1.1" viewBox="0 0 460.8 345.6" width="460.8pt" xmlns="http://www.w3.org/2000/svg" xmlns:xlink="http://www.w3.org/1999/xlink">
 <metadata>
  <rdf:RDF xmlns:cc="http://creativecommons.org/ns#" xmlns:dc="http://purl.org/dc/elements/1.1/" xmlns:rdf="http://www.w3.org/1999/02/22-rdf-syntax-ns#">
   <cc:Work>
    <dc:type rdf:resource="http://purl.org/dc/dcmitype/StillImage"/>
    <dc:date>2021-06-27T09:24:21.867897</dc:date>
    <dc:format>image/svg+xml</dc:format>
    <dc:creator>
     <cc:Agent>
      <dc:title>Matplotlib v3.3.3, https://matplotlib.org/</dc:title>
     </cc:Agent>
    </dc:creator>
   </cc:Work>
  </rdf:RDF>
 </metadata>
 <defs>
  <style type="text/css">*{stroke-linecap:butt;stroke-linejoin:round;}</style>
 </defs>
 <g id="figure_1">
  <g id="patch_1">
   <path d="M 0 345.6 
L 460.8 345.6 
L 460.8 0 
L 0 0 
z
" style="fill:#ffffff;"/>
  </g>
  <g id="axes_1">
   <g id="patch_2">
    <path d="M 57.6 307.584 
L 414.72 307.584 
L 414.72 41.472 
L 57.6 41.472 
z
" style="fill:#7d9051;"/>
   </g>
   <g id="matplotlib.axis_1">
    <g id="xtick_1">
     <g id="line2d_1">
      <defs>
       <path d="M 0 0 
L 0 3.5 
" id="m3249de542e" style="stroke:#000000;stroke-width:0.8;"/>
      </defs>
      <g>
       <use style="stroke:#000000;stroke-width:0.8;" x="71.6477" xlink:href="#m3249de542e" y="307.584"/>
      </g>
     </g>
     <g id="text_1">
      <!-- −150 -->
      <g transform="translate(57.914106 322.182437)scale(0.1 -0.1)">
       <defs>
        <path d="M 10.59375 35.5 
L 73.1875 35.5 
L 73.1875 27.203125 
L 10.59375 27.203125 
z
" id="DejaVuSans-8722"/>
        <path d="M 12.40625 8.296875 
L 28.515625 8.296875 
L 28.515625 63.921875 
L 10.984375 60.40625 
L 10.984375 69.390625 
L 28.421875 72.90625 
L 38.28125 72.90625 
L 38.28125 8.296875 
L 54.390625 8.296875 
L 54.390625 0 
L 12.40625 0 
z
" id="DejaVuSans-49"/>
        <path d="M 10.796875 72.90625 
L 49.515625 72.90625 
L 49.515625 64.59375 
L 19.828125 64.59375 
L 19.828125 46.734375 
Q 21.96875 47.46875 24.109375 47.828125 
Q 26.265625 48.1875 28.421875 48.1875 
Q 40.625 48.1875 47.75 41.5 
Q 54.890625 34.8125 54.890625 23.390625 
Q 54.890625 11.625 47.5625 5.09375 
Q 40.234375 -1.421875 26.90625 -1.421875 
Q 22.3125 -1.421875 17.546875 -0.640625 
Q 12.796875 0.140625 7.71875 1.703125 
L 7.71875 11.625 
Q 12.109375 9.234375 16.796875 8.0625 
Q 21.484375 6.890625 26.703125 6.890625 
Q 35.15625 6.890625 40.078125 11.328125 
Q 45.015625 15.765625 45.015625 23.390625 
Q 45.015625 31 40.078125 35.4375 
Q 35.15625 39.890625 26.703125 39.890625 
Q 22.75 39.890625 18.8125 39.015625 
Q 14.890625 38.140625 10.796875 36.28125 
z
" id="DejaVuSans-53"/>
        <path d="M 31.78125 66.40625 
Q 24.171875 66.40625 20.328125 58.90625 
Q 16.5 51.421875 16.5 36.375 
Q 16.5 21.390625 20.328125 13.890625 
Q 24.171875 6.390625 31.78125 6.390625 
Q 39.453125 6.390625 43.28125 13.890625 
Q 47.125 21.390625 47.125 36.375 
Q 47.125 51.421875 43.28125 58.90625 
Q 39.453125 66.40625 31.78125 66.40625 
z
M 31.78125 74.21875 
Q 44.046875 74.21875 50.515625 64.515625 
Q 56.984375 54.828125 56.984375 36.375 
Q 56.984375 17.96875 50.515625 8.265625 
Q 44.046875 -1.421875 31.78125 -1.421875 
Q 19.53125 -1.421875 13.0625 8.265625 
Q 6.59375 17.96875 6.59375 36.375 
Q 6.59375 54.828125 13.0625 64.515625 
Q 19.53125 74.21875 31.78125 74.21875 
z
" id="DejaVuSans-48"/>
       </defs>
       <use xlink:href="#DejaVuSans-8722"/>
       <use x="83.789062" xlink:href="#DejaVuSans-49"/>
       <use x="147.412109" xlink:href="#DejaVuSans-53"/>
       <use x="211.035156" xlink:href="#DejaVuSans-48"/>
      </g>
     </g>
    </g>
    <g id="xtick_2">
     <g id="line2d_2">
      <g>
       <use style="stroke:#000000;stroke-width:0.8;" x="115.497886" xlink:href="#m3249de542e" y="307.584"/>
      </g>
     </g>
     <g id="text_2">
      <!-- −125 -->
      <g transform="translate(101.764292 322.182437)scale(0.1 -0.1)">
       <defs>
        <path d="M 19.1875 8.296875 
L 53.609375 8.296875 
L 53.609375 0 
L 7.328125 0 
L 7.328125 8.296875 
Q 12.9375 14.109375 22.625 23.890625 
Q 32.328125 33.6875 34.8125 36.53125 
Q 39.546875 41.84375 41.421875 45.53125 
Q 43.3125 49.21875 43.3125 52.78125 
Q 43.3125 58.59375 39.234375 62.25 
Q 35.15625 65.921875 28.609375 65.921875 
Q 23.96875 65.921875 18.8125 64.3125 
Q 13.671875 62.703125 7.8125 59.421875 
L 7.8125 69.390625 
Q 13.765625 71.78125 18.9375 73 
Q 24.125 74.21875 28.421875 74.21875 
Q 39.75 74.21875 46.484375 68.546875 
Q 53.21875 62.890625 53.21875 53.421875 
Q 53.21875 48.921875 51.53125 44.890625 
Q 49.859375 40.875 45.40625 35.40625 
Q 44.1875 33.984375 37.640625 27.21875 
Q 31.109375 20.453125 19.1875 8.296875 
z
" id="DejaVuSans-50"/>
       </defs>
       <use xlink:href="#DejaVuSans-8722"/>
       <use x="83.789062" xlink:href="#DejaVuSans-49"/>
       <use x="147.412109" xlink:href="#DejaVuSans-50"/>
       <use x="211.035156" xlink:href="#DejaVuSans-53"/>
      </g>
     </g>
    </g>
    <g id="xtick_3">
     <g id="line2d_3">
      <g>
       <use style="stroke:#000000;stroke-width:0.8;" x="159.348072" xlink:href="#m3249de542e" y="307.584"/>
      </g>
     </g>
     <g id="text_3">
      <!-- −100 -->
      <g transform="translate(145.614479 322.182437)scale(0.1 -0.1)">
       <use xlink:href="#DejaVuSans-8722"/>
       <use x="83.789062" xlink:href="#DejaVuSans-49"/>
       <use x="147.412109" xlink:href="#DejaVuSans-48"/>
       <use x="211.035156" xlink:href="#DejaVuSans-48"/>
      </g>
     </g>
    </g>
    <g id="xtick_4">
     <g id="line2d_4">
      <g>
       <use style="stroke:#000000;stroke-width:0.8;" x="203.198259" xlink:href="#m3249de542e" y="307.584"/>
      </g>
     </g>
     <g id="text_4">
      <!-- −75 -->
      <g transform="translate(192.645915 322.182437)scale(0.1 -0.1)">
       <defs>
        <path d="M 8.203125 72.90625 
L 55.078125 72.90625 
L 55.078125 68.703125 
L 28.609375 0 
L 18.3125 0 
L 43.21875 64.59375 
L 8.203125 64.59375 
z
" id="DejaVuSans-55"/>
       </defs>
       <use xlink:href="#DejaVuSans-8722"/>
       <use x="83.789062" xlink:href="#DejaVuSans-55"/>
       <use x="147.412109" xlink:href="#DejaVuSans-53"/>
      </g>
     </g>
    </g>
    <g id="xtick_5">
     <g id="line2d_5">
      <g>
       <use style="stroke:#000000;stroke-width:0.8;" x="247.048445" xlink:href="#m3249de542e" y="307.584"/>
      </g>
     </g>
     <g id="text_5">
      <!-- −50 -->
      <g transform="translate(236.496101 322.182437)scale(0.1 -0.1)">
       <use xlink:href="#DejaVuSans-8722"/>
       <use x="83.789062" xlink:href="#DejaVuSans-53"/>
       <use x="147.412109" xlink:href="#DejaVuSans-48"/>
      </g>
     </g>
    </g>
    <g id="xtick_6">
     <g id="line2d_6">
      <g>
       <use style="stroke:#000000;stroke-width:0.8;" x="290.898631" xlink:href="#m3249de542e" y="307.584"/>
      </g>
     </g>
     <g id="text_6">
      <!-- −25 -->
      <g transform="translate(280.346288 322.182437)scale(0.1 -0.1)">
       <use xlink:href="#DejaVuSans-8722"/>
       <use x="83.789062" xlink:href="#DejaVuSans-50"/>
       <use x="147.412109" xlink:href="#DejaVuSans-53"/>
      </g>
     </g>
    </g>
    <g id="xtick_7">
     <g id="line2d_7">
      <g>
       <use style="stroke:#000000;stroke-width:0.8;" x="334.748818" xlink:href="#m3249de542e" y="307.584"/>
      </g>
     </g>
     <g id="text_7">
      <!-- 0 -->
      <g transform="translate(331.567568 322.182437)scale(0.1 -0.1)">
       <use xlink:href="#DejaVuSans-48"/>
      </g>
     </g>
    </g>
    <g id="xtick_8">
     <g id="line2d_8">
      <g>
       <use style="stroke:#000000;stroke-width:0.8;" x="378.599004" xlink:href="#m3249de542e" y="307.584"/>
      </g>
     </g>
     <g id="text_8">
      <!-- 25 -->
      <g transform="translate(372.236504 322.182437)scale(0.1 -0.1)">
       <use xlink:href="#DejaVuSans-50"/>
       <use x="63.623047" xlink:href="#DejaVuSans-53"/>
      </g>
     </g>
    </g>
   </g>
   <g id="matplotlib.axis_2">
    <g id="ytick_1">
     <g id="line2d_9">
      <defs>
       <path d="M 0 0 
L -3.5 0 
" id="mbda470ca52" style="stroke:#000000;stroke-width:0.8;"/>
      </defs>
      <g>
       <use style="stroke:#000000;stroke-width:0.8;" x="57.6" xlink:href="#mbda470ca52" y="295.420499"/>
      </g>
     </g>
     <g id="text_9">
      <!-- 0 -->
      <g transform="translate(44.2375 299.219718)scale(0.1 -0.1)">
       <use xlink:href="#DejaVuSans-48"/>
      </g>
     </g>
    </g>
    <g id="ytick_2">
     <g id="line2d_10">
      <g>
       <use style="stroke:#000000;stroke-width:0.8;" x="57.6" xlink:href="#mbda470ca52" y="260.34035"/>
      </g>
     </g>
     <g id="text_10">
      <!-- 20 -->
      <g transform="translate(37.875 264.139569)scale(0.1 -0.1)">
       <use xlink:href="#DejaVuSans-50"/>
       <use x="63.623047" xlink:href="#DejaVuSans-48"/>
      </g>
     </g>
    </g>
    <g id="ytick_3">
     <g id="line2d_11">
      <g>
       <use style="stroke:#000000;stroke-width:0.8;" x="57.6" xlink:href="#mbda470ca52" y="225.260201"/>
      </g>
     </g>
     <g id="text_11">
      <!-- 40 -->
      <g transform="translate(37.875 229.05942)scale(0.1 -0.1)">
       <defs>
        <path d="M 37.796875 64.3125 
L 12.890625 25.390625 
L 37.796875 25.390625 
z
M 35.203125 72.90625 
L 47.609375 72.90625 
L 47.609375 25.390625 
L 58.015625 25.390625 
L 58.015625 17.1875 
L 47.609375 17.1875 
L 47.609375 0 
L 37.796875 0 
L 37.796875 17.1875 
L 4.890625 17.1875 
L 4.890625 26.703125 
z
" id="DejaVuSans-52"/>
       </defs>
       <use xlink:href="#DejaVuSans-52"/>
       <use x="63.623047" xlink:href="#DejaVuSans-48"/>
      </g>
     </g>
    </g>
    <g id="ytick_4">
     <g id="line2d_12">
      <g>
       <use style="stroke:#000000;stroke-width:0.8;" x="57.6" xlink:href="#mbda470ca52" y="190.180052"/>
      </g>
     </g>
     <g id="text_12">
      <!-- 60 -->
      <g transform="translate(37.875 193.979271)scale(0.1 -0.1)">
       <defs>
        <path d="M 33.015625 40.375 
Q 26.375 40.375 22.484375 35.828125 
Q 18.609375 31.296875 18.609375 23.390625 
Q 18.609375 15.53125 22.484375 10.953125 
Q 26.375 6.390625 33.015625 6.390625 
Q 39.65625 6.390625 43.53125 10.953125 
Q 47.40625 15.53125 47.40625 23.390625 
Q 47.40625 31.296875 43.53125 35.828125 
Q 39.65625 40.375 33.015625 40.375 
z
M 52.59375 71.296875 
L 52.59375 62.3125 
Q 48.875 64.0625 45.09375 64.984375 
Q 41.3125 65.921875 37.59375 65.921875 
Q 27.828125 65.921875 22.671875 59.328125 
Q 17.53125 52.734375 16.796875 39.40625 
Q 19.671875 43.65625 24.015625 45.921875 
Q 28.375 48.1875 33.59375 48.1875 
Q 44.578125 48.1875 50.953125 41.515625 
Q 57.328125 34.859375 57.328125 23.390625 
Q 57.328125 12.15625 50.6875 5.359375 
Q 44.046875 -1.421875 33.015625 -1.421875 
Q 20.359375 -1.421875 13.671875 8.265625 
Q 6.984375 17.96875 6.984375 36.375 
Q 6.984375 53.65625 15.1875 63.9375 
Q 23.390625 74.21875 37.203125 74.21875 
Q 40.921875 74.21875 44.703125 73.484375 
Q 48.484375 72.75 52.59375 71.296875 
z
" id="DejaVuSans-54"/>
       </defs>
       <use xlink:href="#DejaVuSans-54"/>
       <use x="63.623047" xlink:href="#DejaVuSans-48"/>
      </g>
     </g>
    </g>
    <g id="ytick_5">
     <g id="line2d_13">
      <g>
       <use style="stroke:#000000;stroke-width:0.8;" x="57.6" xlink:href="#mbda470ca52" y="155.099903"/>
      </g>
     </g>
     <g id="text_13">
      <!-- 80 -->
      <g transform="translate(37.875 158.899122)scale(0.1 -0.1)">
       <defs>
        <path d="M 31.78125 34.625 
Q 24.75 34.625 20.71875 30.859375 
Q 16.703125 27.09375 16.703125 20.515625 
Q 16.703125 13.921875 20.71875 10.15625 
Q 24.75 6.390625 31.78125 6.390625 
Q 38.8125 6.390625 42.859375 10.171875 
Q 46.921875 13.96875 46.921875 20.515625 
Q 46.921875 27.09375 42.890625 30.859375 
Q 38.875 34.625 31.78125 34.625 
z
M 21.921875 38.8125 
Q 15.578125 40.375 12.03125 44.71875 
Q 8.5 49.078125 8.5 55.328125 
Q 8.5 64.0625 14.71875 69.140625 
Q 20.953125 74.21875 31.78125 74.21875 
Q 42.671875 74.21875 48.875 69.140625 
Q 55.078125 64.0625 55.078125 55.328125 
Q 55.078125 49.078125 51.53125 44.71875 
Q 48 40.375 41.703125 38.8125 
Q 48.828125 37.15625 52.796875 32.3125 
Q 56.78125 27.484375 56.78125 20.515625 
Q 56.78125 9.90625 50.3125 4.234375 
Q 43.84375 -1.421875 31.78125 -1.421875 
Q 19.734375 -1.421875 13.25 4.234375 
Q 6.78125 9.90625 6.78125 20.515625 
Q 6.78125 27.484375 10.78125 32.3125 
Q 14.796875 37.15625 21.921875 38.8125 
z
M 18.3125 54.390625 
Q 18.3125 48.734375 21.84375 45.5625 
Q 25.390625 42.390625 31.78125 42.390625 
Q 38.140625 42.390625 41.71875 45.5625 
Q 45.3125 48.734375 45.3125 54.390625 
Q 45.3125 60.0625 41.71875 63.234375 
Q 38.140625 66.40625 31.78125 66.40625 
Q 25.390625 66.40625 21.84375 63.234375 
Q 18.3125 60.0625 18.3125 54.390625 
z
" id="DejaVuSans-56"/>
       </defs>
       <use xlink:href="#DejaVuSans-56"/>
       <use x="63.623047" xlink:href="#DejaVuSans-48"/>
      </g>
     </g>
    </g>
    <g id="ytick_6">
     <g id="line2d_14">
      <g>
       <use style="stroke:#000000;stroke-width:0.8;" x="57.6" xlink:href="#mbda470ca52" y="120.019754"/>
      </g>
     </g>
     <g id="text_14">
      <!-- 100 -->
      <g transform="translate(31.5125 123.818973)scale(0.1 -0.1)">
       <use xlink:href="#DejaVuSans-49"/>
       <use x="63.623047" xlink:href="#DejaVuSans-48"/>
       <use x="127.246094" xlink:href="#DejaVuSans-48"/>
      </g>
     </g>
    </g>
    <g id="ytick_7">
     <g id="line2d_15">
      <g>
       <use style="stroke:#000000;stroke-width:0.8;" x="57.6" xlink:href="#mbda470ca52" y="84.939605"/>
      </g>
     </g>
     <g id="text_15">
      <!-- 120 -->
      <g transform="translate(31.5125 88.738824)scale(0.1 -0.1)">
       <use xlink:href="#DejaVuSans-49"/>
       <use x="63.623047" xlink:href="#DejaVuSans-50"/>
       <use x="127.246094" xlink:href="#DejaVuSans-48"/>
      </g>
     </g>
    </g>
    <g id="ytick_8">
     <g id="line2d_16">
      <g>
       <use style="stroke:#000000;stroke-width:0.8;" x="57.6" xlink:href="#mbda470ca52" y="49.859456"/>
      </g>
     </g>
     <g id="text_16">
      <!-- 140 -->
      <g transform="translate(31.5125 53.658675)scale(0.1 -0.1)">
       <use xlink:href="#DejaVuSans-49"/>
       <use x="63.623047" xlink:href="#DejaVuSans-52"/>
       <use x="127.246094" xlink:href="#DejaVuSans-48"/>
      </g>
     </g>
    </g>
   </g>
   <g id="line2d_17">
    <path clip-path="url(#pef83f5060f)" d="M 334.748818 295.420499 
L 335.017043 276.959604 
L 335.607955 249.235312 
L 336.063485 244.381322 
L 337.148536 236.84439 
L 338.287155 229.273331 
L 338.837916 224.358672 
L 339.055368 219.656354 
L 338.994464 217.413262 
L 338.796664 215.257381 
L 338.444114 213.200088 
L 337.918957 211.252757 
L 337.203338 209.426763 
L 336.2794 207.733484 
L 335.140136 206.154087 
L 333.801257 204.660445 
L 332.278986 203.249988 
L 330.589549 201.920145 
L 328.749169 200.668344 
L 326.774069 199.492015 
L 322.484609 197.355491 
L 317.850961 195.490006 
L 313.002916 193.874994 
L 308.070267 192.489889 
L 303.182806 191.314126 
L 296.220262 189.898006 
L 293.969584 189.598915 
L 291.639323 189.501344 
L 289.242464 189.577965 
L 286.79199 189.801446 
L 281.782133 190.579676 
L 274.189835 192.165243 
L 269.228107 193.182258 
L 264.467405 193.912172 
L 262.194899 194.101142 
L 260.011601 194.136349 
L 257.930495 193.990463 
L 255.964565 193.636153 
L 254.126796 193.046091 
L 252.430171 192.192948 
L 250.90537 191.060248 
L 249.560871 189.667569 
L 248.376345 188.041659 
L 247.331469 186.209265 
L 246.405916 184.197136 
L 245.57936 182.032019 
L 244.141937 177.349812 
L 240.091732 162.413243 
L 239.241495 160.074882 
L 238.286999 157.851011 
L 237.207917 155.768376 
L 235.983923 153.853726 
L 234.594693 152.133809 
L 233.000416 150.59965 
L 231.19422 149.212569 
L 229.205184 147.954753 
L 227.062385 146.80839 
L 222.431817 144.778772 
L 217.535145 142.981216 
L 210.200067 140.40828 
L 205.655888 138.567443 
L 203.574795 137.555924 
L 201.659806 136.45992 
L 199.939999 135.26162 
L 198.444453 133.943211 
L 197.202245 132.486881 
L 196.242456 130.874817 
L 195.612881 129.098573 
L 195.316232 127.172691 
L 195.313959 125.113839 
L 195.567515 122.938689 
L 196.03835 120.663909 
L 196.687915 118.306169 
L 198.369041 113.408486 
L 202.179903 103.351058 
L 203.692857 98.458026 
L 204.216293 96.103774 
L 204.532971 93.833257 
L 204.60434 91.663145 
L 204.391853 89.610107 
L 203.856961 87.690814 
L 203.041501 85.828782 
L 202.023704 83.944769 
L 200.819604 82.051304 
L 199.445239 80.160915 
L 197.916645 78.286133 
L 196.249857 76.439484 
L 194.460913 74.6335 
L 190.580699 71.193636 
L 186.404293 68.066772 
L 182.059984 65.35314 
L 179.864957 64.182608 
L 177.676063 63.15297 
L 175.509338 62.276756 
L 173.380819 61.566494 
L 171.306542 61.034714 
L 169.302542 60.693943 
L 167.324181 60.573775 
L 165.317729 60.682377 
L 163.285596 61.000139 
L 161.230189 61.507454 
L 159.153916 62.184712 
L 157.059183 63.012305 
L 152.823973 65.040058 
L 148.54382 67.433843 
L 133.487442 76.429769 
L 129.243404 78.529421 
L 129.243404 78.529421 
" style="fill:none;stroke:#fea952;stroke-linecap:square;"/>
   </g>
   <g id="line2d_18">
    <path clip-path="url(#pef83f5060f)" d="M 327.733113 295.352998 
L 328.002293 276.825627 
L 328.613555 248.684817 
L 329.106834 243.470449 
L 330.217154 235.757828 
L 331.324733 228.407683 
L 331.837509 223.89073 
L 332.041923 219.846784 
L 331.881437 216.442416 
L 331.386666 213.812806 
L 331.044501 212.787331 
L 330.589238 211.837961 
L 329.915784 210.837122 
L 329.032785 209.806935 
L 327.939434 208.762969 
L 326.643628 207.721384 
L 325.159063 206.696264 
L 321.693666 204.737103 
L 317.694688 202.942601 
L 313.317703 201.338029 
L 308.713984 199.929484 
L 304.029181 198.712102 
L 297.155923 197.218945 
L 293.676072 196.608803 
L 291.86349 196.513792 
L 289.879677 196.564998 
L 285.495485 197.058041 
L 280.704276 197.943148 
L 270.416427 200.096921 
L 265.048817 200.904069 
L 262.308021 201.11626 
L 259.520978 201.135203 
L 256.686081 200.895251 
L 253.819737 200.316302 
L 250.974862 199.314264 
L 248.246364 197.825038 
L 245.857746 195.933251 
L 243.890149 193.798863 
L 242.281568 191.517053 
L 240.957441 189.141235 
L 239.851285 186.699434 
L 238.909614 184.208981 
L 237.359089 179.143592 
L 233.498044 164.810733 
L 232.057506 161.078718 
L 231.296578 159.547364 
L 230.525968 158.262286 
L 229.729844 157.189293 
L 228.727121 156.164147 
L 227.444338 155.142414 
L 225.895575 154.141122 
L 224.10794 153.172031 
L 219.949923 151.341156 
L 215.241546 149.611757 
L 207.678151 146.955387 
L 202.588831 144.877581 
L 200.089738 143.64518 
L 197.648888 142.216413 
L 195.300399 140.524584 
L 193.106498 138.496332 
L 191.173795 136.076095 
L 189.629528 133.218715 
L 188.67863 130.166676 
L 188.300206 127.180434 
L 188.345118 124.301486 
L 188.697109 121.516649 
L 189.274328 118.800398 
L 190.017 116.132792 
L 191.81227 110.911803 
L 196.255013 98.952301 
L 197.267525 95.134603 
L 197.625589 92.385437 
L 197.63338 91.493643 
L 197.430214 90.505347 
L 196.868649 89.163533 
L 196.10337 87.709649 
L 195.144827 86.177025 
L 194.007579 84.594483 
L 191.265315 81.376995 
L 188.022405 78.226902 
L 184.43327 75.286659 
L 180.660133 72.68301 
L 176.878574 70.531324 
L 173.288549 68.932038 
L 170.130382 67.951456 
L 168.877164 67.697066 
L 167.703377 67.57955 
L 166.401648 67.614173 
L 164.966837 67.811755 
L 163.40592 68.177602 
L 161.73192 68.709938 
L 158.103094 70.237407 
L 154.185087 72.283536 
L 147.922679 76.007359 
L 139.031026 81.377224 
L 134.35122 83.877853 
L 132.235621 84.875389 
L 132.235621 84.875389 
" style="fill:none;stroke:#ffffff;stroke-linecap:square;"/>
   </g>
   <g id="line2d_19">
    <path clip-path="url(#pef83f5060f)" d="M 341.764523 295.488 
L 342.031794 277.09358 
L 342.602355 249.785808 
L 343.020135 245.292195 
L 344.079918 237.930951 
L 345.249578 230.138979 
L 345.838324 224.826613 
L 346.01106 222.151115 
L 346.068813 219.465924 
L 345.981149 216.772241 
L 345.711891 214.072346 
L 345.218138 211.373267 
L 344.451248 208.692707 
L 343.362174 206.066196 
L 341.969562 203.629007 
L 340.364488 201.471052 
L 338.569729 199.513956 
L 336.618539 197.737007 
L 334.53547 196.118905 
L 332.339274 194.640424 
L 330.045324 193.28528 
L 327.667284 192.040072 
L 322.710704 189.837706 
L 317.573549 187.966923 
L 312.364126 186.380493 
L 307.196371 185.042149 
L 299.784726 183.435328 
L 297.144493 182.943118 
L 294.263096 182.589027 
L 291.415156 182.488896 
L 288.60525 182.590931 
L 285.834945 182.850998 
L 280.423407 183.696469 
L 272.732579 185.302221 
L 268.039787 186.267594 
L 263.885993 186.920274 
L 260.502224 187.137495 
L 258.109394 186.956005 
L 256.613977 186.560858 
L 255.952994 186.187244 
L 255.231592 185.536274 
L 254.471123 184.566265 
L 253.705496 183.277295 
L 252.960546 181.694838 
L 252.249106 179.855057 
L 250.924785 175.556031 
L 247.548269 162.726185 
L 246.68542 160.015754 
L 245.688765 157.307683 
L 244.516492 154.623303 
L 243.119255 151.989388 
L 241.441879 149.445167 
L 239.459542 147.078325 
L 237.273712 145.035154 
L 234.944103 143.282725 
L 232.514793 141.768384 
L 230.016831 140.444749 
L 227.475307 139.271833 
L 222.356209 137.250555 
L 210.623553 133.057475 
L 207.059853 131.466667 
L 204.579599 129.998657 
L 203.230696 128.897666 
L 202.855384 128.530919 
L 202.547131 128.03047 
L 202.332257 127.164948 
L 202.282801 125.926193 
L 202.437921 124.360729 
L 202.802373 122.527419 
L 203.358831 120.479545 
L 204.925813 115.905168 
L 208.837989 105.563423 
L 209.747408 102.806386 
L 210.541648 99.980763 
L 211.165062 97.072944 
L 211.545209 94.063872 
L 211.583092 90.940852 
L 211.150327 87.726572 
L 210.283708 84.87628 
L 209.214354 82.49403 
L 207.944037 80.179888 
L 206.494382 77.925582 
L 204.8829 75.727347 
L 203.124876 73.585175 
L 201.2344 71.501974 
L 199.224883 69.482843 
L 197.109291 67.534512 
L 194.900198 65.664929 
L 192.609734 63.88297 
L 190.249444 62.198256 
L 187.830083 60.621066 
L 185.361318 59.162351 
L 182.85134 57.833892 
L 180.306379 56.648656 
L 177.730127 55.621475 
L 175.123166 54.770253 
L 172.482701 54.117972 
L 169.727921 53.69082 
L 166.944984 53.568 
L 164.233811 53.750581 
L 161.604356 54.188524 
L 159.054459 54.837307 
L 156.575911 55.659487 
L 154.158761 56.62386 
L 149.473153 58.875913 
L 144.945256 61.410969 
L 130.261348 70.19944 
L 126.251187 72.183453 
L 126.251187 72.183453 
" style="fill:none;stroke:#ffffff;stroke-linecap:square;"/>
   </g>
   <g id="patch_3">
    <path d="M 57.6 307.584 
L 57.6 41.472 
" style="fill:none;stroke:#000000;stroke-linecap:square;stroke-linejoin:miter;stroke-width:0.8;"/>
   </g>
   <g id="patch_4">
    <path d="M 414.72 307.584 
L 414.72 41.472 
" style="fill:none;stroke:#000000;stroke-linecap:square;stroke-linejoin:miter;stroke-width:0.8;"/>
   </g>
   <g id="patch_5">
    <path d="M 57.6 307.584 
L 414.72 307.584 
" style="fill:none;stroke:#000000;stroke-linecap:square;stroke-linejoin:miter;stroke-width:0.8;"/>
   </g>
   <g id="patch_6">
    <path d="M 57.6 41.472 
L 414.72 41.472 
" style="fill:none;stroke:#000000;stroke-linecap:square;stroke-linejoin:miter;stroke-width:0.8;"/>
   </g>
  </g>
 </g>
 <defs>
  <clipPath id="pef83f5060f">
   <rect height="266.112" width="357.12" x="57.6" y="41.472"/>
  </clipPath>
 </defs>
</svg>
