<?xml version="1.0" encoding="utf-8" standalone="no"?>
<!DOCTYPE svg PUBLIC "-//W3C//DTD SVG 1.1//EN"
  "http://www.w3.org/Graphics/SVG/1.1/DTD/svg11.dtd">
<!-- Created with matplotlib (https://matplotlib.org/) -->
<svg height="345.6pt" version="1.1" viewBox="0 0 460.8 345.6" width="460.8pt" xmlns="http://www.w3.org/2000/svg" xmlns:xlink="http://www.w3.org/1999/xlink">
 <metadata>
  <rdf:RDF xmlns:cc="http://creativecommons.org/ns#" xmlns:dc="http://purl.org/dc/elements/1.1/" xmlns:rdf="http://www.w3.org/1999/02/22-rdf-syntax-ns#">
   <cc:Work>
    <dc:type rdf:resource="http://purl.org/dc/dcmitype/StillImage"/>
    <dc:date>2021-06-17T20:57:08.722725</dc:date>
    <dc:format>image/svg+xml</dc:format>
    <dc:creator>
     <cc:Agent>
      <dc:title>Matplotlib v3.3.3, https://matplotlib.org/</dc:title>
     </cc:Agent>
    </dc:creator>
   </cc:Work>
  </rdf:RDF>
 </metadata>
 <defs>
  <style type="text/css">*{stroke-linecap:butt;stroke-linejoin:round;}</style>
 </defs>
 <g id="figure_1">
  <g id="patch_1">
   <path d="M 0 345.6 
L 460.8 345.6 
L 460.8 0 
L 0 0 
z
" style="fill:#ffffff;"/>
  </g>
  <g id="axes_1">
   <g id="patch_2">
    <path d="M 57.6 307.584 
L 414.72 307.584 
L 414.72 41.472 
L 57.6 41.472 
z
" style="fill:#7d9051;"/>
   </g>
   <g id="matplotlib.axis_1">
    <g id="xtick_1">
     <g id="line2d_1">
      <defs>
       <path d="M 0 0 
L 0 3.5 
" id="m14b77a0c8f" style="stroke:#000000;stroke-width:0.8;"/>
      </defs>
      <g>
       <use style="stroke:#000000;stroke-width:0.8;" x="84.019674" xlink:href="#m14b77a0c8f" y="307.584"/>
      </g>
     </g>
     <g id="text_1">
      <!-- −100 -->
      <g transform="translate(70.286081 322.182437)scale(0.1 -0.1)">
       <defs>
        <path d="M 10.59375 35.5 
L 73.1875 35.5 
L 73.1875 27.203125 
L 10.59375 27.203125 
z
" id="DejaVuSans-8722"/>
        <path d="M 12.40625 8.296875 
L 28.515625 8.296875 
L 28.515625 63.921875 
L 10.984375 60.40625 
L 10.984375 69.390625 
L 28.421875 72.90625 
L 38.28125 72.90625 
L 38.28125 8.296875 
L 54.390625 8.296875 
L 54.390625 0 
L 12.40625 0 
z
" id="DejaVuSans-49"/>
        <path d="M 31.78125 66.40625 
Q 24.171875 66.40625 20.328125 58.90625 
Q 16.5 51.421875 16.5 36.375 
Q 16.5 21.390625 20.328125 13.890625 
Q 24.171875 6.390625 31.78125 6.390625 
Q 39.453125 6.390625 43.28125 13.890625 
Q 47.125 21.390625 47.125 36.375 
Q 47.125 51.421875 43.28125 58.90625 
Q 39.453125 66.40625 31.78125 66.40625 
z
M 31.78125 74.21875 
Q 44.046875 74.21875 50.515625 64.515625 
Q 56.984375 54.828125 56.984375 36.375 
Q 56.984375 17.96875 50.515625 8.265625 
Q 44.046875 -1.421875 31.78125 -1.421875 
Q 19.53125 -1.421875 13.0625 8.265625 
Q 6.59375 17.96875 6.59375 36.375 
Q 6.59375 54.828125 13.0625 64.515625 
Q 19.53125 74.21875 31.78125 74.21875 
z
" id="DejaVuSans-48"/>
       </defs>
       <use xlink:href="#DejaVuSans-8722"/>
       <use x="83.789062" xlink:href="#DejaVuSans-49"/>
       <use x="147.412109" xlink:href="#DejaVuSans-48"/>
       <use x="211.035156" xlink:href="#DejaVuSans-48"/>
      </g>
     </g>
    </g>
    <g id="xtick_2">
     <g id="line2d_2">
      <g>
       <use style="stroke:#000000;stroke-width:0.8;" x="146.445129" xlink:href="#m14b77a0c8f" y="307.584"/>
      </g>
     </g>
     <g id="text_2">
      <!-- −50 -->
      <g transform="translate(135.892786 322.182437)scale(0.1 -0.1)">
       <defs>
        <path d="M 10.796875 72.90625 
L 49.515625 72.90625 
L 49.515625 64.59375 
L 19.828125 64.59375 
L 19.828125 46.734375 
Q 21.96875 47.46875 24.109375 47.828125 
Q 26.265625 48.1875 28.421875 48.1875 
Q 40.625 48.1875 47.75 41.5 
Q 54.890625 34.8125 54.890625 23.390625 
Q 54.890625 11.625 47.5625 5.09375 
Q 40.234375 -1.421875 26.90625 -1.421875 
Q 22.3125 -1.421875 17.546875 -0.640625 
Q 12.796875 0.140625 7.71875 1.703125 
L 7.71875 11.625 
Q 12.109375 9.234375 16.796875 8.0625 
Q 21.484375 6.890625 26.703125 6.890625 
Q 35.15625 6.890625 40.078125 11.328125 
Q 45.015625 15.765625 45.015625 23.390625 
Q 45.015625 31 40.078125 35.4375 
Q 35.15625 39.890625 26.703125 39.890625 
Q 22.75 39.890625 18.8125 39.015625 
Q 14.890625 38.140625 10.796875 36.28125 
z
" id="DejaVuSans-53"/>
       </defs>
       <use xlink:href="#DejaVuSans-8722"/>
       <use x="83.789062" xlink:href="#DejaVuSans-53"/>
       <use x="147.412109" xlink:href="#DejaVuSans-48"/>
      </g>
     </g>
    </g>
    <g id="xtick_3">
     <g id="line2d_3">
      <g>
       <use style="stroke:#000000;stroke-width:0.8;" x="208.870584" xlink:href="#m14b77a0c8f" y="307.584"/>
      </g>
     </g>
     <g id="text_3">
      <!-- 0 -->
      <g transform="translate(205.689334 322.182437)scale(0.1 -0.1)">
       <use xlink:href="#DejaVuSans-48"/>
      </g>
     </g>
    </g>
    <g id="xtick_4">
     <g id="line2d_4">
      <g>
       <use style="stroke:#000000;stroke-width:0.8;" x="271.29604" xlink:href="#m14b77a0c8f" y="307.584"/>
      </g>
     </g>
     <g id="text_4">
      <!-- 50 -->
      <g transform="translate(264.93354 322.182437)scale(0.1 -0.1)">
       <use xlink:href="#DejaVuSans-53"/>
       <use x="63.623047" xlink:href="#DejaVuSans-48"/>
      </g>
     </g>
    </g>
    <g id="xtick_5">
     <g id="line2d_5">
      <g>
       <use style="stroke:#000000;stroke-width:0.8;" x="333.721495" xlink:href="#m14b77a0c8f" y="307.584"/>
      </g>
     </g>
     <g id="text_5">
      <!-- 100 -->
      <g transform="translate(324.177745 322.182437)scale(0.1 -0.1)">
       <use xlink:href="#DejaVuSans-49"/>
       <use x="63.623047" xlink:href="#DejaVuSans-48"/>
       <use x="127.246094" xlink:href="#DejaVuSans-48"/>
      </g>
     </g>
    </g>
    <g id="xtick_6">
     <g id="line2d_6">
      <g>
       <use style="stroke:#000000;stroke-width:0.8;" x="396.14695" xlink:href="#m14b77a0c8f" y="307.584"/>
      </g>
     </g>
     <g id="text_6">
      <!-- 150 -->
      <g transform="translate(386.6032 322.182437)scale(0.1 -0.1)">
       <use xlink:href="#DejaVuSans-49"/>
       <use x="63.623047" xlink:href="#DejaVuSans-53"/>
       <use x="127.246094" xlink:href="#DejaVuSans-48"/>
      </g>
     </g>
    </g>
   </g>
   <g id="matplotlib.axis_2">
    <g id="ytick_1">
     <g id="line2d_7">
      <defs>
       <path d="M 0 0 
L -3.5 0 
" id="mf12aed6175" style="stroke:#000000;stroke-width:0.8;"/>
      </defs>
      <g>
       <use style="stroke:#000000;stroke-width:0.8;" x="57.6" xlink:href="#mf12aed6175" y="295.439953"/>
      </g>
     </g>
     <g id="text_7">
      <!-- 0 -->
      <g transform="translate(44.2375 299.239171)scale(0.1 -0.1)">
       <use xlink:href="#DejaVuSans-48"/>
      </g>
     </g>
    </g>
    <g id="ytick_2">
     <g id="line2d_8">
      <g>
       <use style="stroke:#000000;stroke-width:0.8;" x="57.6" xlink:href="#mf12aed6175" y="264.227225"/>
      </g>
     </g>
     <g id="text_8">
      <!-- 25 -->
      <g transform="translate(37.875 268.026444)scale(0.1 -0.1)">
       <defs>
        <path d="M 19.1875 8.296875 
L 53.609375 8.296875 
L 53.609375 0 
L 7.328125 0 
L 7.328125 8.296875 
Q 12.9375 14.109375 22.625 23.890625 
Q 32.328125 33.6875 34.8125 36.53125 
Q 39.546875 41.84375 41.421875 45.53125 
Q 43.3125 49.21875 43.3125 52.78125 
Q 43.3125 58.59375 39.234375 62.25 
Q 35.15625 65.921875 28.609375 65.921875 
Q 23.96875 65.921875 18.8125 64.3125 
Q 13.671875 62.703125 7.8125 59.421875 
L 7.8125 69.390625 
Q 13.765625 71.78125 18.9375 73 
Q 24.125 74.21875 28.421875 74.21875 
Q 39.75 74.21875 46.484375 68.546875 
Q 53.21875 62.890625 53.21875 53.421875 
Q 53.21875 48.921875 51.53125 44.890625 
Q 49.859375 40.875 45.40625 35.40625 
Q 44.1875 33.984375 37.640625 27.21875 
Q 31.109375 20.453125 19.1875 8.296875 
z
" id="DejaVuSans-50"/>
       </defs>
       <use xlink:href="#DejaVuSans-50"/>
       <use x="63.623047" xlink:href="#DejaVuSans-53"/>
      </g>
     </g>
    </g>
    <g id="ytick_3">
     <g id="line2d_9">
      <g>
       <use style="stroke:#000000;stroke-width:0.8;" x="57.6" xlink:href="#mf12aed6175" y="233.014498"/>
      </g>
     </g>
     <g id="text_9">
      <!-- 50 -->
      <g transform="translate(37.875 236.813716)scale(0.1 -0.1)">
       <use xlink:href="#DejaVuSans-53"/>
       <use x="63.623047" xlink:href="#DejaVuSans-48"/>
      </g>
     </g>
    </g>
    <g id="ytick_4">
     <g id="line2d_10">
      <g>
       <use style="stroke:#000000;stroke-width:0.8;" x="57.6" xlink:href="#mf12aed6175" y="201.80177"/>
      </g>
     </g>
     <g id="text_10">
      <!-- 75 -->
      <g transform="translate(37.875 205.600989)scale(0.1 -0.1)">
       <defs>
        <path d="M 8.203125 72.90625 
L 55.078125 72.90625 
L 55.078125 68.703125 
L 28.609375 0 
L 18.3125 0 
L 43.21875 64.59375 
L 8.203125 64.59375 
z
" id="DejaVuSans-55"/>
       </defs>
       <use xlink:href="#DejaVuSans-55"/>
       <use x="63.623047" xlink:href="#DejaVuSans-53"/>
      </g>
     </g>
    </g>
    <g id="ytick_5">
     <g id="line2d_11">
      <g>
       <use style="stroke:#000000;stroke-width:0.8;" x="57.6" xlink:href="#mf12aed6175" y="170.589042"/>
      </g>
     </g>
     <g id="text_11">
      <!-- 100 -->
      <g transform="translate(31.5125 174.388261)scale(0.1 -0.1)">
       <use xlink:href="#DejaVuSans-49"/>
       <use x="63.623047" xlink:href="#DejaVuSans-48"/>
       <use x="127.246094" xlink:href="#DejaVuSans-48"/>
      </g>
     </g>
    </g>
    <g id="ytick_6">
     <g id="line2d_12">
      <g>
       <use style="stroke:#000000;stroke-width:0.8;" x="57.6" xlink:href="#mf12aed6175" y="139.376315"/>
      </g>
     </g>
     <g id="text_12">
      <!-- 125 -->
      <g transform="translate(31.5125 143.175534)scale(0.1 -0.1)">
       <use xlink:href="#DejaVuSans-49"/>
       <use x="63.623047" xlink:href="#DejaVuSans-50"/>
       <use x="127.246094" xlink:href="#DejaVuSans-53"/>
      </g>
     </g>
    </g>
    <g id="ytick_7">
     <g id="line2d_13">
      <g>
       <use style="stroke:#000000;stroke-width:0.8;" x="57.6" xlink:href="#mf12aed6175" y="108.163587"/>
      </g>
     </g>
     <g id="text_13">
      <!-- 150 -->
      <g transform="translate(31.5125 111.962806)scale(0.1 -0.1)">
       <use xlink:href="#DejaVuSans-49"/>
       <use x="63.623047" xlink:href="#DejaVuSans-53"/>
       <use x="127.246094" xlink:href="#DejaVuSans-48"/>
      </g>
     </g>
    </g>
    <g id="ytick_8">
     <g id="line2d_14">
      <g>
       <use style="stroke:#000000;stroke-width:0.8;" x="57.6" xlink:href="#mf12aed6175" y="76.95086"/>
      </g>
     </g>
     <g id="text_14">
      <!-- 175 -->
      <g transform="translate(31.5125 80.750078)scale(0.1 -0.1)">
       <use xlink:href="#DejaVuSans-49"/>
       <use x="63.623047" xlink:href="#DejaVuSans-55"/>
       <use x="127.246094" xlink:href="#DejaVuSans-53"/>
      </g>
     </g>
    </g>
    <g id="ytick_9">
     <g id="line2d_15">
      <g>
       <use style="stroke:#000000;stroke-width:0.8;" x="57.6" xlink:href="#mf12aed6175" y="45.738132"/>
      </g>
     </g>
     <g id="text_15">
      <!-- 200 -->
      <g transform="translate(31.5125 49.537351)scale(0.1 -0.1)">
       <use xlink:href="#DejaVuSans-50"/>
       <use x="63.623047" xlink:href="#DejaVuSans-48"/>
       <use x="127.246094" xlink:href="#DejaVuSans-48"/>
      </g>
     </g>
    </g>
   </g>
   <g id="line2d_16">
    <path clip-path="url(#pf3947f52d0)" d="M 208.870584 295.439953 
L 209.125123 279.014423 
L 209.400352 260.927554 
L 209.089681 254.243481 
L 208.701341 245.88839 
L 208.709766 242.590233 
L 208.888332 239.337666 
L 209.288083 236.144364 
L 209.960059 233.024005 
L 210.875442 229.920627 
L 211.966933 226.790657 
L 213.22785 223.666357 
L 214.651515 220.57999 
L 216.231248 217.563818 
L 217.960369 214.650104 
L 219.832199 211.871108 
L 221.840058 209.259095 
L 223.977267 206.846325 
L 225.09229 205.724739 
L 226.302269 204.690158 
L 227.658197 203.760462 
L 229.139293 202.922801 
L 232.393869 201.472205 
L 235.899756 200.235597 
L 244.67299 197.405832 
L 247.749306 196.108852 
L 249.111562 195.373602 
L 250.328843 194.563385 
L 251.380369 193.665352 
L 252.245359 192.666658 
L 252.903033 191.554457 
L 253.336361 190.337064 
L 253.556725 189.036175 
L 253.585965 187.659009 
L 253.445919 186.212785 
L 253.158427 184.704723 
L 252.228462 181.531961 
L 250.970784 178.198479 
L 247.539407 169.540644 
L 246.510608 166.099466 
L 246.157227 164.41246 
L 245.94031 162.757468 
L 245.881697 161.141709 
L 245.990304 159.537575 
L 246.247182 157.915035 
L 247.125916 154.629089 
L 248.358237 151.312576 
L 253.150691 139.878472 
L 253.9983 136.779618 
L 254.23537 135.276136 
L 254.32134 133.808069 
L 254.236251 132.379004 
L 253.960146 130.99253 
L 253.450215 129.658754 
L 252.696818 128.381287 
L 251.729745 127.153967 
L 250.578791 125.970636 
L 247.844406 123.711297 
L 244.732004 121.553988 
L 238.326512 117.34834 
L 235.510103 115.201437 
L 234.302757 114.095406 
L 233.26904 112.959442 
L 232.438744 111.787384 
L 231.841663 110.573073 
L 231.507589 109.310347 
L 231.412686 108.00394 
L 231.503108 106.664831 
L 231.763626 105.296235 
L 232.179014 103.901365 
L 233.413492 101.045662 
L 235.084724 98.123435 
L 237.070895 95.160396 
L 240.374187 90.69556 
L 244.743905 84.839584 
L 246.639819 82.011081 
L 250.227073 76.514765 
L 254.938358 69.786352 
L 264.542704 56.443111 
L 264.542704 56.443111 
" style="fill:none;stroke:#fea952;stroke-linecap:square;"/>
   </g>
   <g id="line2d_17">
    <path clip-path="url(#pf3947f52d0)" d="M 203.876779 295.391905 
L 204.132087 278.914471 
L 204.408766 261.083964 
L 204.104315 254.537645 
L 203.70748 245.930254 
L 203.719661 242.39212 
L 203.921768 238.814564 
L 204.382072 235.210844 
L 205.152829 231.670883 
L 206.140346 228.333409 
L 207.313609 224.977655 
L 208.667572 221.630612 
L 210.198089 218.320036 
L 211.901998 215.074241 
L 213.777314 211.922018 
L 215.823503 208.892727 
L 218.041817 206.016601 
L 220.435602 203.325386 
L 221.846818 201.929041 
L 223.478169 200.571316 
L 225.199691 199.413492 
L 226.984137 198.417726 
L 230.666085 196.786571 
L 234.38804 195.475858 
L 242.848777 192.756892 
L 245.377316 191.714075 
L 247.085592 190.765791 
L 248.198162 189.879769 
L 248.41247 189.502982 
L 248.563814 188.930168 
L 248.61518 188.140358 
L 248.540229 187.147989 
L 247.990296 184.668497 
L 246.979225 181.702079 
L 242.161373 169.128301 
L 241.622659 167.123356 
L 241.205542 165.061468 
L 240.949557 162.938511 
L 240.899068 160.804364 
L 241.057702 158.756655 
L 241.385854 156.771404 
L 241.848129 154.845399 
L 243.057866 151.151328 
L 244.483975 147.645098 
L 247.88018 139.778048 
L 248.773762 137.150236 
L 249.249874 134.984187 
L 249.338389 133.354374 
L 249.148551 132.195698 
L 248.774189 131.472141 
L 248.149793 130.635969 
L 247.284351 129.72391 
L 244.941916 127.775279 
L 242.009345 125.740577 
L 235.390919 121.388475 
L 232.136675 118.88388 
L 230.609124 117.456578 
L 229.193928 115.846285 
L 227.957169 113.990991 
L 227.013735 111.850379 
L 226.526677 109.67218 
L 226.429996 107.667491 
L 226.597163 105.730963 
L 226.977315 103.870885 
L 227.528565 102.081003 
L 228.218798 100.349673 
L 229.922227 97.017766 
L 231.935796 93.808834 
L 235.266533 89.170463 
L 241.540124 80.694656 
L 248.000177 70.940998 
L 253.787598 62.853654 
L 260.459307 53.568 
L 260.459307 53.568 
" style="fill:none;stroke:#ffffff;stroke-linecap:square;"/>
   </g>
   <g id="line2d_18">
    <path clip-path="url(#pf3947f52d0)" d="M 213.86439 295.488 
L 214.11816 279.114374 
L 214.391939 260.771143 
L 214.075046 253.949317 
L 213.695202 245.846526 
L 213.75636 241.307227 
L 213.999544 238.450602 
L 214.442166 235.743111 
L 215.167621 232.949234 
L 216.095088 230.057748 
L 217.184978 227.150239 
L 218.42853 224.263824 
L 219.816057 221.434974 
L 221.336804 218.699661 
L 222.978709 216.093357 
L 224.728098 213.650845 
L 226.569343 211.405766 
L 228.337761 209.520436 
L 229.126368 208.809001 
L 230.116703 208.107432 
L 232.637719 206.77747 
L 235.721015 205.56598 
L 240.976111 203.878221 
L 246.497204 202.054772 
L 250.121296 200.503629 
L 251.878674 199.530944 
L 253.572095 198.360978 
L 255.155326 196.934924 
L 256.544071 195.208601 
L 257.607905 193.229145 
L 258.260253 191.171147 
L 258.549637 189.142183 
L 258.55675 187.177661 
L 258.351609 185.277581 
L 257.98661 183.428381 
L 256.923012 179.828551 
L 255.594882 176.312181 
L 252.289918 168.000175 
L 251.398558 165.075576 
L 250.931064 162.576424 
L 250.864327 161.479055 
L 250.922906 160.318496 
L 251.416614 157.709956 
L 252.357849 154.794391 
L 253.630219 151.658553 
L 257.279958 143.15529 
L 258.486413 139.479616 
L 258.931387 137.557471 
L 259.220865 135.568086 
L 259.306547 133.511242 
L 259.134113 131.403635 
L 258.624884 129.209102 
L 257.751879 127.12181 
L 256.619446 125.290432 
L 255.309698 123.671965 
L 253.87323 122.217362 
L 252.343438 120.88592 
L 249.108681 118.479687 
L 238.883531 111.518995 
L 237.344152 110.072599 
L 236.4885 108.948515 
L 236.395376 108.340389 
L 236.409052 107.598699 
L 236.549937 106.721585 
L 237.249292 104.6172 
L 238.482027 102.164748 
L 240.156316 99.481986 
L 243.233841 95.19405 
L 248.852614 87.678407 
L 250.860726 84.680227 
L 254.350867 79.331627 
L 258.991592 72.703833 
L 268.626102 59.318222 
L 268.626102 59.318222 
" style="fill:none;stroke:#ffffff;stroke-linecap:square;"/>
   </g>
   <g id="patch_3">
    <path d="M 57.6 307.584 
L 57.6 41.472 
" style="fill:none;stroke:#000000;stroke-linecap:square;stroke-linejoin:miter;stroke-width:0.8;"/>
   </g>
   <g id="patch_4">
    <path d="M 414.72 307.584 
L 414.72 41.472 
" style="fill:none;stroke:#000000;stroke-linecap:square;stroke-linejoin:miter;stroke-width:0.8;"/>
   </g>
   <g id="patch_5">
    <path d="M 57.6 307.584 
L 414.72 307.584 
" style="fill:none;stroke:#000000;stroke-linecap:square;stroke-linejoin:miter;stroke-width:0.8;"/>
   </g>
   <g id="patch_6">
    <path d="M 57.6 41.472 
L 414.72 41.472 
" style="fill:none;stroke:#000000;stroke-linecap:square;stroke-linejoin:miter;stroke-width:0.8;"/>
   </g>
  </g>
 </g>
 <defs>
  <clipPath id="pf3947f52d0">
   <rect height="266.112" width="357.12" x="57.6" y="41.472"/>
  </clipPath>
 </defs>
</svg>
