<?xml version="1.0" encoding="utf-8" standalone="no"?>
<!DOCTYPE svg PUBLIC "-//W3C//DTD SVG 1.1//EN"
  "http://www.w3.org/Graphics/SVG/1.1/DTD/svg11.dtd">
<!-- Created with matplotlib (https://matplotlib.org/) -->
<svg height="345.6pt" version="1.1" viewBox="0 0 460.8 345.6" width="460.8pt" xmlns="http://www.w3.org/2000/svg" xmlns:xlink="http://www.w3.org/1999/xlink">
 <metadata>
  <rdf:RDF xmlns:cc="http://creativecommons.org/ns#" xmlns:dc="http://purl.org/dc/elements/1.1/" xmlns:rdf="http://www.w3.org/1999/02/22-rdf-syntax-ns#">
   <cc:Work>
    <dc:type rdf:resource="http://purl.org/dc/dcmitype/StillImage"/>
    <dc:date>2021-05-27T11:31:44.440850</dc:date>
    <dc:format>image/svg+xml</dc:format>
    <dc:creator>
     <cc:Agent>
      <dc:title>Matplotlib v3.3.3, https://matplotlib.org/</dc:title>
     </cc:Agent>
    </dc:creator>
   </cc:Work>
  </rdf:RDF>
 </metadata>
 <defs>
  <style type="text/css">*{stroke-linecap:butt;stroke-linejoin:round;}</style>
 </defs>
 <g id="figure_1">
  <g id="patch_1">
   <path d="M 0 345.6 
L 460.8 345.6 
L 460.8 0 
L 0 0 
z
" style="fill:#ffffff;"/>
  </g>
  <g id="axes_1">
   <g id="patch_2">
    <path d="M 57.6 307.584 
L 414.72 307.584 
L 414.72 41.472 
L 57.6 41.472 
z
" style="fill:#7d9051;"/>
   </g>
   <g id="matplotlib.axis_1">
    <g id="xtick_1">
     <g id="line2d_1">
      <defs>
       <path d="M 0 0 
L 0 3.5 
" id="m69ddcfd60c" style="stroke:#000000;stroke-width:0.8;"/>
      </defs>
      <g>
       <use style="stroke:#000000;stroke-width:0.8;" x="86.487222" xlink:href="#m69ddcfd60c" y="307.584"/>
      </g>
     </g>
     <g id="text_1">
      <!-- −100 -->
      <g transform="translate(72.753628 322.182437)scale(0.1 -0.1)">
       <defs>
        <path d="M 10.59375 35.5 
L 73.1875 35.5 
L 73.1875 27.203125 
L 10.59375 27.203125 
z
" id="DejaVuSans-8722"/>
        <path d="M 12.40625 8.296875 
L 28.515625 8.296875 
L 28.515625 63.921875 
L 10.984375 60.40625 
L 10.984375 69.390625 
L 28.421875 72.90625 
L 38.28125 72.90625 
L 38.28125 8.296875 
L 54.390625 8.296875 
L 54.390625 0 
L 12.40625 0 
z
" id="DejaVuSans-49"/>
        <path d="M 31.78125 66.40625 
Q 24.171875 66.40625 20.328125 58.90625 
Q 16.5 51.421875 16.5 36.375 
Q 16.5 21.390625 20.328125 13.890625 
Q 24.171875 6.390625 31.78125 6.390625 
Q 39.453125 6.390625 43.28125 13.890625 
Q 47.125 21.390625 47.125 36.375 
Q 47.125 51.421875 43.28125 58.90625 
Q 39.453125 66.40625 31.78125 66.40625 
z
M 31.78125 74.21875 
Q 44.046875 74.21875 50.515625 64.515625 
Q 56.984375 54.828125 56.984375 36.375 
Q 56.984375 17.96875 50.515625 8.265625 
Q 44.046875 -1.421875 31.78125 -1.421875 
Q 19.53125 -1.421875 13.0625 8.265625 
Q 6.59375 17.96875 6.59375 36.375 
Q 6.59375 54.828125 13.0625 64.515625 
Q 19.53125 74.21875 31.78125 74.21875 
z
" id="DejaVuSans-48"/>
       </defs>
       <use xlink:href="#DejaVuSans-8722"/>
       <use x="83.789062" xlink:href="#DejaVuSans-49"/>
       <use x="147.412109" xlink:href="#DejaVuSans-48"/>
       <use x="211.035156" xlink:href="#DejaVuSans-48"/>
      </g>
     </g>
    </g>
    <g id="xtick_2">
     <g id="line2d_2">
      <g>
       <use style="stroke:#000000;stroke-width:0.8;" x="151.528419" xlink:href="#m69ddcfd60c" y="307.584"/>
      </g>
     </g>
     <g id="text_2">
      <!-- −50 -->
      <g transform="translate(140.976075 322.182437)scale(0.1 -0.1)">
       <defs>
        <path d="M 10.796875 72.90625 
L 49.515625 72.90625 
L 49.515625 64.59375 
L 19.828125 64.59375 
L 19.828125 46.734375 
Q 21.96875 47.46875 24.109375 47.828125 
Q 26.265625 48.1875 28.421875 48.1875 
Q 40.625 48.1875 47.75 41.5 
Q 54.890625 34.8125 54.890625 23.390625 
Q 54.890625 11.625 47.5625 5.09375 
Q 40.234375 -1.421875 26.90625 -1.421875 
Q 22.3125 -1.421875 17.546875 -0.640625 
Q 12.796875 0.140625 7.71875 1.703125 
L 7.71875 11.625 
Q 12.109375 9.234375 16.796875 8.0625 
Q 21.484375 6.890625 26.703125 6.890625 
Q 35.15625 6.890625 40.078125 11.328125 
Q 45.015625 15.765625 45.015625 23.390625 
Q 45.015625 31 40.078125 35.4375 
Q 35.15625 39.890625 26.703125 39.890625 
Q 22.75 39.890625 18.8125 39.015625 
Q 14.890625 38.140625 10.796875 36.28125 
z
" id="DejaVuSans-53"/>
       </defs>
       <use xlink:href="#DejaVuSans-8722"/>
       <use x="83.789062" xlink:href="#DejaVuSans-53"/>
       <use x="147.412109" xlink:href="#DejaVuSans-48"/>
      </g>
     </g>
    </g>
    <g id="xtick_3">
     <g id="line2d_3">
      <g>
       <use style="stroke:#000000;stroke-width:0.8;" x="216.569615" xlink:href="#m69ddcfd60c" y="307.584"/>
      </g>
     </g>
     <g id="text_3">
      <!-- 0 -->
      <g transform="translate(213.388365 322.182437)scale(0.1 -0.1)">
       <use xlink:href="#DejaVuSans-48"/>
      </g>
     </g>
    </g>
    <g id="xtick_4">
     <g id="line2d_4">
      <g>
       <use style="stroke:#000000;stroke-width:0.8;" x="281.610812" xlink:href="#m69ddcfd60c" y="307.584"/>
      </g>
     </g>
     <g id="text_4">
      <!-- 50 -->
      <g transform="translate(275.248312 322.182437)scale(0.1 -0.1)">
       <use xlink:href="#DejaVuSans-53"/>
       <use x="63.623047" xlink:href="#DejaVuSans-48"/>
      </g>
     </g>
    </g>
    <g id="xtick_5">
     <g id="line2d_5">
      <g>
       <use style="stroke:#000000;stroke-width:0.8;" x="346.652009" xlink:href="#m69ddcfd60c" y="307.584"/>
      </g>
     </g>
     <g id="text_5">
      <!-- 100 -->
      <g transform="translate(337.108259 322.182437)scale(0.1 -0.1)">
       <use xlink:href="#DejaVuSans-49"/>
       <use x="63.623047" xlink:href="#DejaVuSans-48"/>
       <use x="127.246094" xlink:href="#DejaVuSans-48"/>
      </g>
     </g>
    </g>
    <g id="xtick_6">
     <g id="line2d_6">
      <g>
       <use style="stroke:#000000;stroke-width:0.8;" x="411.693205" xlink:href="#m69ddcfd60c" y="307.584"/>
      </g>
     </g>
     <g id="text_6">
      <!-- 150 -->
      <g transform="translate(402.149455 322.182437)scale(0.1 -0.1)">
       <use xlink:href="#DejaVuSans-49"/>
       <use x="63.623047" xlink:href="#DejaVuSans-53"/>
       <use x="127.246094" xlink:href="#DejaVuSans-48"/>
      </g>
     </g>
    </g>
   </g>
   <g id="matplotlib.axis_2">
    <g id="ytick_1">
     <g id="line2d_7">
      <defs>
       <path d="M 0 0 
L -3.5 0 
" id="m90bf3a27c1" style="stroke:#000000;stroke-width:0.8;"/>
      </defs>
      <g>
       <use style="stroke:#000000;stroke-width:0.8;" x="57.6" xlink:href="#m90bf3a27c1" y="295.437939"/>
      </g>
     </g>
     <g id="text_7">
      <!-- 0 -->
      <g transform="translate(44.2375 299.237158)scale(0.1 -0.1)">
       <use xlink:href="#DejaVuSans-48"/>
      </g>
     </g>
    </g>
    <g id="ytick_2">
     <g id="line2d_8">
      <g>
       <use style="stroke:#000000;stroke-width:0.8;" x="57.6" xlink:href="#m90bf3a27c1" y="262.917341"/>
      </g>
     </g>
     <g id="text_8">
      <!-- 25 -->
      <g transform="translate(37.875 266.71656)scale(0.1 -0.1)">
       <defs>
        <path d="M 19.1875 8.296875 
L 53.609375 8.296875 
L 53.609375 0 
L 7.328125 0 
L 7.328125 8.296875 
Q 12.9375 14.109375 22.625 23.890625 
Q 32.328125 33.6875 34.8125 36.53125 
Q 39.546875 41.84375 41.421875 45.53125 
Q 43.3125 49.21875 43.3125 52.78125 
Q 43.3125 58.59375 39.234375 62.25 
Q 35.15625 65.921875 28.609375 65.921875 
Q 23.96875 65.921875 18.8125 64.3125 
Q 13.671875 62.703125 7.8125 59.421875 
L 7.8125 69.390625 
Q 13.765625 71.78125 18.9375 73 
Q 24.125 74.21875 28.421875 74.21875 
Q 39.75 74.21875 46.484375 68.546875 
Q 53.21875 62.890625 53.21875 53.421875 
Q 53.21875 48.921875 51.53125 44.890625 
Q 49.859375 40.875 45.40625 35.40625 
Q 44.1875 33.984375 37.640625 27.21875 
Q 31.109375 20.453125 19.1875 8.296875 
z
" id="DejaVuSans-50"/>
       </defs>
       <use xlink:href="#DejaVuSans-50"/>
       <use x="63.623047" xlink:href="#DejaVuSans-53"/>
      </g>
     </g>
    </g>
    <g id="ytick_3">
     <g id="line2d_9">
      <g>
       <use style="stroke:#000000;stroke-width:0.8;" x="57.6" xlink:href="#m90bf3a27c1" y="230.396743"/>
      </g>
     </g>
     <g id="text_9">
      <!-- 50 -->
      <g transform="translate(37.875 234.195961)scale(0.1 -0.1)">
       <use xlink:href="#DejaVuSans-53"/>
       <use x="63.623047" xlink:href="#DejaVuSans-48"/>
      </g>
     </g>
    </g>
    <g id="ytick_4">
     <g id="line2d_10">
      <g>
       <use style="stroke:#000000;stroke-width:0.8;" x="57.6" xlink:href="#m90bf3a27c1" y="197.876144"/>
      </g>
     </g>
     <g id="text_10">
      <!-- 75 -->
      <g transform="translate(37.875 201.675363)scale(0.1 -0.1)">
       <defs>
        <path d="M 8.203125 72.90625 
L 55.078125 72.90625 
L 55.078125 68.703125 
L 28.609375 0 
L 18.3125 0 
L 43.21875 64.59375 
L 8.203125 64.59375 
z
" id="DejaVuSans-55"/>
       </defs>
       <use xlink:href="#DejaVuSans-55"/>
       <use x="63.623047" xlink:href="#DejaVuSans-53"/>
      </g>
     </g>
    </g>
    <g id="ytick_5">
     <g id="line2d_11">
      <g>
       <use style="stroke:#000000;stroke-width:0.8;" x="57.6" xlink:href="#m90bf3a27c1" y="165.355546"/>
      </g>
     </g>
     <g id="text_11">
      <!-- 100 -->
      <g transform="translate(31.5125 169.154765)scale(0.1 -0.1)">
       <use xlink:href="#DejaVuSans-49"/>
       <use x="63.623047" xlink:href="#DejaVuSans-48"/>
       <use x="127.246094" xlink:href="#DejaVuSans-48"/>
      </g>
     </g>
    </g>
    <g id="ytick_6">
     <g id="line2d_12">
      <g>
       <use style="stroke:#000000;stroke-width:0.8;" x="57.6" xlink:href="#m90bf3a27c1" y="132.834948"/>
      </g>
     </g>
     <g id="text_12">
      <!-- 125 -->
      <g transform="translate(31.5125 136.634166)scale(0.1 -0.1)">
       <use xlink:href="#DejaVuSans-49"/>
       <use x="63.623047" xlink:href="#DejaVuSans-50"/>
       <use x="127.246094" xlink:href="#DejaVuSans-53"/>
      </g>
     </g>
    </g>
    <g id="ytick_7">
     <g id="line2d_13">
      <g>
       <use style="stroke:#000000;stroke-width:0.8;" x="57.6" xlink:href="#m90bf3a27c1" y="100.314349"/>
      </g>
     </g>
     <g id="text_13">
      <!-- 150 -->
      <g transform="translate(31.5125 104.113568)scale(0.1 -0.1)">
       <use xlink:href="#DejaVuSans-49"/>
       <use x="63.623047" xlink:href="#DejaVuSans-53"/>
       <use x="127.246094" xlink:href="#DejaVuSans-48"/>
      </g>
     </g>
    </g>
    <g id="ytick_8">
     <g id="line2d_14">
      <g>
       <use style="stroke:#000000;stroke-width:0.8;" x="57.6" xlink:href="#m90bf3a27c1" y="67.793751"/>
      </g>
     </g>
     <g id="text_14">
      <!-- 175 -->
      <g transform="translate(31.5125 71.59297)scale(0.1 -0.1)">
       <use xlink:href="#DejaVuSans-49"/>
       <use x="63.623047" xlink:href="#DejaVuSans-55"/>
       <use x="127.246094" xlink:href="#DejaVuSans-53"/>
      </g>
     </g>
    </g>
   </g>
   <g id="line2d_15">
    <path clip-path="url(#p9f3a7eb299)" d="M 216.569615 295.437939 
L 216.83482 278.324149 
L 217.375157 256.066528 
L 218.026138 240.630948 
L 217.994299 235.507525 
L 217.704741 230.406649 
L 217.17097 226.950911 
L 216.256993 223.398493 
L 214.481235 217.992829 
L 212.097379 210.891647 
L 211.215416 207.493861 
L 210.727889 204.26148 
L 210.676052 202.722208 
L 210.775641 201.242158 
L 211.044261 199.827285 
L 211.499518 198.483545 
L 212.149353 197.22209 
L 212.979079 196.044532 
L 213.972354 194.942522 
L 215.112838 193.907708 
L 217.77007 192.006278 
L 220.820052 190.273443 
L 225.845469 187.844194 
L 232.700551 184.57185 
L 235.900187 182.771095 
L 238.773587 180.771558 
L 244.402069 176.508039 
L 250.214215 172.109476 
L 252.998629 169.81606 
L 255.600319 167.436691 
L 257.943071 164.953972 
L 259.950672 162.350507 
L 260.804974 160.998058 
L 261.546908 159.608898 
L 262.166947 158.180852 
L 263.092913 155.150628 
L 263.667705 151.890089 
L 263.922168 148.455157 
L 263.887149 144.901756 
L 263.593492 141.285808 
L 263.072042 137.663238 
L 262.353644 134.089967 
L 261.469144 130.62192 
L 260.449386 127.315018 
L 259.30416 124.192763 
L 257.934607 121.104699 
L 256.341925 118.04404 
L 254.547991 115.035108 
L 252.574684 112.102224 
L 250.443882 109.269709 
L 248.177464 106.561883 
L 245.797308 104.003069 
L 243.325293 101.617586 
L 240.783297 99.429756 
L 239.433127 98.44985 
L 237.963567 97.581603 
L 236.3915 96.810873 
L 233.007376 95.505399 
L 229.415824 94.420302 
L 220.41582 91.929301 
L 217.161919 90.724635 
L 215.676666 90.02111 
L 214.30839 89.231269 
L 213.073973 88.34097 
L 211.990299 87.336073 
L 211.074252 86.202437 
L 210.323186 84.9478 
L 209.715034 83.594941 
L 209.237546 82.152278 
L 208.878472 80.628232 
L 208.466569 77.369665 
L 208.381326 73.886589 
L 208.524746 70.246359 
L 209.425085 55.460929 
L 209.372256 53.726407 
L 209.372256 53.726407 
" style="fill:none;stroke:#fea952;stroke-linecap:square;"/>
   </g>
   <g id="line2d_16">
    <path clip-path="url(#p9f3a7eb299)" d="M 211.36656 295.387879 
L 211.632566 278.22001 
L 212.17811 255.811596 
L 212.822994 240.591129 
L 212.794665 235.702713 
L 212.540321 231.041515 
L 212.10758 228.149394 
L 211.285703 224.934905 
L 209.570001 219.711569 
L 207.087427 212.296878 
L 206.098104 208.435881 
L 205.745251 206.456531 
L 205.527541 204.436607 
L 205.484496 202.372881 
L 205.66366 200.271625 
L 206.116121 198.157639 
L 206.873913 196.100677 
L 207.89589 194.225036 
L 209.114056 192.560873 
L 210.475922 191.089049 
L 211.94441 189.780318 
L 213.49458 188.604569 
L 216.772929 186.549352 
L 220.199197 184.758796 
L 231.696583 179.2062 
L 234.287081 177.620397 
L 244.175047 170.19153 
L 248.274222 166.991228 
L 250.755927 164.853874 
L 252.948007 162.721018 
L 254.783401 160.610788 
L 256.21527 158.54675 
L 257.245328 156.492082 
L 257.995837 154.104632 
L 258.488871 151.386137 
L 258.719107 148.405796 
L 258.69466 145.236934 
L 258.433022 141.952018 
L 257.957714 138.621329 
L 257.296167 135.313162 
L 256.478603 132.0946 
L 255.537746 129.032597 
L 254.513727 126.22403 
L 253.283283 123.436965 
L 251.835692 120.645606 
L 250.1924 117.881705 
L 248.37617 115.175784 
L 246.410822 112.55737 
L 244.321162 110.055195 
L 242.133067 107.697338 
L 239.873706 105.511277 
L 237.727021 103.640867 
L 236.78635 102.929678 
L 235.673038 102.253622 
L 232.979885 101.022298 
L 229.789445 99.942546 
L 224.412361 98.470364 
L 218.724994 96.850215 
L 214.9345 95.42707 
L 213.075348 94.527487 
L 211.264661 93.451459 
L 209.535979 92.156318 
L 207.943171 90.6064 
L 206.609771 88.875019 
L 205.577356 87.081198 
L 204.775273 85.229888 
L 204.17292 83.345532 
L 203.739221 81.442105 
L 203.445927 79.52686 
L 203.185997 75.675305 
L 203.234116 71.815319 
L 203.613267 66.087105 
L 204.147092 58.868453 
L 204.224201 55.619335 
L 204.171372 53.884813 
L 204.171372 53.884813 
" style="fill:none;stroke:#ffffff;stroke-linecap:square;"/>
   </g>
   <g id="line2d_17">
    <path clip-path="url(#p9f3a7eb299)" d="M 221.77267 295.488 
L 222.037073 278.428289 
L 222.572203 256.321461 
L 223.229281 240.670767 
L 223.193932 235.312336 
L 223.022913 231.706368 
L 222.610255 227.745106 
L 221.766325 223.791724 
L 220.64059 219.96413 
L 216.677562 207.96931 
L 216.081839 205.251502 
L 215.867609 203.071536 
L 215.972402 201.49693 
L 216.125123 200.866414 
L 216.402816 200.219145 
L 216.844102 199.528192 
L 217.468785 198.795994 
L 218.281265 198.035099 
L 220.431346 196.477507 
L 223.16605 194.917857 
L 228.024604 192.569197 
L 235.168965 189.152375 
L 238.746372 187.126956 
L 241.978877 184.870388 
L 247.499829 180.688729 
L 253.480119 176.160175 
L 256.450612 173.7094 
L 259.307961 171.0874 
L 261.972284 168.246346 
L 263.203656 166.726053 
L 264.349819 165.129317 
L 265.394677 163.449365 
L 266.319732 161.681199 
L 267.088567 159.869623 
L 267.699689 158.052413 
L 268.189988 156.196624 
L 268.846538 152.39404 
L 269.12523 148.504517 
L 269.079638 144.566578 
L 268.753962 140.619599 
L 268.18637 136.705146 
L 267.411122 132.866773 
L 266.459685 129.149239 
L 265.361027 125.597439 
L 264.094592 122.161497 
L 262.585932 118.772432 
L 260.848158 115.442473 
L 258.903582 112.188511 
L 256.773197 109.028664 
L 254.476941 105.982047 
L 252.033765 103.068571 
L 249.461549 100.308799 
L 246.77688 97.723894 
L 243.839573 95.218644 
L 242.079905 93.970022 
L 240.254096 92.909584 
L 238.384486 92.004388 
L 234.577955 90.544798 
L 230.774177 89.397438 
L 222.106646 87.008387 
L 219.389338 86.022201 
L 217.352118 85.011079 
L 216.037428 84.065746 
L 215.538733 83.529855 
L 215.069016 82.814402 
L 214.654794 81.959993 
L 214.302171 80.959025 
L 213.805199 78.535583 
L 213.592484 75.628656 
L 213.62704 72.348499 
L 213.984392 66.945545 
L 214.546903 59.244062 
L 214.625969 55.302522 
L 214.573139 53.568 
L 214.573139 53.568 
" style="fill:none;stroke:#ffffff;stroke-linecap:square;"/>
   </g>
   <g id="patch_3">
    <path d="M 57.6 307.584 
L 57.6 41.472 
" style="fill:none;stroke:#000000;stroke-linecap:square;stroke-linejoin:miter;stroke-width:0.8;"/>
   </g>
   <g id="patch_4">
    <path d="M 414.72 307.584 
L 414.72 41.472 
" style="fill:none;stroke:#000000;stroke-linecap:square;stroke-linejoin:miter;stroke-width:0.8;"/>
   </g>
   <g id="patch_5">
    <path d="M 57.6 307.584 
L 414.72 307.584 
" style="fill:none;stroke:#000000;stroke-linecap:square;stroke-linejoin:miter;stroke-width:0.8;"/>
   </g>
   <g id="patch_6">
    <path d="M 57.6 41.472 
L 414.72 41.472 
" style="fill:none;stroke:#000000;stroke-linecap:square;stroke-linejoin:miter;stroke-width:0.8;"/>
   </g>
  </g>
 </g>
 <defs>
  <clipPath id="p9f3a7eb299">
   <rect height="266.112" width="357.12" x="57.6" y="41.472"/>
  </clipPath>
 </defs>
</svg>
