<?xml version="1.0" encoding="utf-8" standalone="no"?>
<!DOCTYPE svg PUBLIC "-//W3C//DTD SVG 1.1//EN"
  "http://www.w3.org/Graphics/SVG/1.1/DTD/svg11.dtd">
<!-- Created with matplotlib (https://matplotlib.org/) -->
<svg height="345.6pt" version="1.1" viewBox="0 0 460.8 345.6" width="460.8pt" xmlns="http://www.w3.org/2000/svg" xmlns:xlink="http://www.w3.org/1999/xlink">
 <metadata>
  <rdf:RDF xmlns:cc="http://creativecommons.org/ns#" xmlns:dc="http://purl.org/dc/elements/1.1/" xmlns:rdf="http://www.w3.org/1999/02/22-rdf-syntax-ns#">
   <cc:Work>
    <dc:type rdf:resource="http://purl.org/dc/dcmitype/StillImage"/>
    <dc:date>2021-06-25T23:42:02.215129</dc:date>
    <dc:format>image/svg+xml</dc:format>
    <dc:creator>
     <cc:Agent>
      <dc:title>Matplotlib v3.3.3, https://matplotlib.org/</dc:title>
     </cc:Agent>
    </dc:creator>
   </cc:Work>
  </rdf:RDF>
 </metadata>
 <defs>
  <style type="text/css">*{stroke-linecap:butt;stroke-linejoin:round;}</style>
 </defs>
 <g id="figure_1">
  <g id="patch_1">
   <path d="M 0 345.6 
L 460.8 345.6 
L 460.8 0 
L 0 0 
z
" style="fill:#ffffff;"/>
  </g>
  <g id="axes_1">
   <g id="patch_2">
    <path d="M 57.6 307.584 
L 414.72 307.584 
L 414.72 41.472 
L 57.6 41.472 
z
" style="fill:#7d9051;"/>
   </g>
   <g id="matplotlib.axis_1">
    <g id="xtick_1">
     <g id="line2d_1">
      <defs>
       <path d="M 0 0 
L 0 3.5 
" id="m1de3183650" style="stroke:#000000;stroke-width:0.8;"/>
      </defs>
      <g>
       <use style="stroke:#000000;stroke-width:0.8;" x="71.042577" xlink:href="#m1de3183650" y="307.584"/>
      </g>
     </g>
     <g id="text_1">
      <!-- −100 -->
      <g transform="translate(57.308983 322.182437)scale(0.1 -0.1)">
       <defs>
        <path d="M 10.59375 35.5 
L 73.1875 35.5 
L 73.1875 27.203125 
L 10.59375 27.203125 
z
" id="DejaVuSans-8722"/>
        <path d="M 12.40625 8.296875 
L 28.515625 8.296875 
L 28.515625 63.921875 
L 10.984375 60.40625 
L 10.984375 69.390625 
L 28.421875 72.90625 
L 38.28125 72.90625 
L 38.28125 8.296875 
L 54.390625 8.296875 
L 54.390625 0 
L 12.40625 0 
z
" id="DejaVuSans-49"/>
        <path d="M 31.78125 66.40625 
Q 24.171875 66.40625 20.328125 58.90625 
Q 16.5 51.421875 16.5 36.375 
Q 16.5 21.390625 20.328125 13.890625 
Q 24.171875 6.390625 31.78125 6.390625 
Q 39.453125 6.390625 43.28125 13.890625 
Q 47.125 21.390625 47.125 36.375 
Q 47.125 51.421875 43.28125 58.90625 
Q 39.453125 66.40625 31.78125 66.40625 
z
M 31.78125 74.21875 
Q 44.046875 74.21875 50.515625 64.515625 
Q 56.984375 54.828125 56.984375 36.375 
Q 56.984375 17.96875 50.515625 8.265625 
Q 44.046875 -1.421875 31.78125 -1.421875 
Q 19.53125 -1.421875 13.0625 8.265625 
Q 6.59375 17.96875 6.59375 36.375 
Q 6.59375 54.828125 13.0625 64.515625 
Q 19.53125 74.21875 31.78125 74.21875 
z
" id="DejaVuSans-48"/>
       </defs>
       <use xlink:href="#DejaVuSans-8722"/>
       <use x="83.789062" xlink:href="#DejaVuSans-49"/>
       <use x="147.412109" xlink:href="#DejaVuSans-48"/>
       <use x="211.035156" xlink:href="#DejaVuSans-48"/>
      </g>
     </g>
    </g>
    <g id="xtick_2">
     <g id="line2d_2">
      <g>
       <use style="stroke:#000000;stroke-width:0.8;" x="138.39636" xlink:href="#m1de3183650" y="307.584"/>
      </g>
     </g>
     <g id="text_2">
      <!-- −50 -->
      <g transform="translate(127.844016 322.182437)scale(0.1 -0.1)">
       <defs>
        <path d="M 10.796875 72.90625 
L 49.515625 72.90625 
L 49.515625 64.59375 
L 19.828125 64.59375 
L 19.828125 46.734375 
Q 21.96875 47.46875 24.109375 47.828125 
Q 26.265625 48.1875 28.421875 48.1875 
Q 40.625 48.1875 47.75 41.5 
Q 54.890625 34.8125 54.890625 23.390625 
Q 54.890625 11.625 47.5625 5.09375 
Q 40.234375 -1.421875 26.90625 -1.421875 
Q 22.3125 -1.421875 17.546875 -0.640625 
Q 12.796875 0.140625 7.71875 1.703125 
L 7.71875 11.625 
Q 12.109375 9.234375 16.796875 8.0625 
Q 21.484375 6.890625 26.703125 6.890625 
Q 35.15625 6.890625 40.078125 11.328125 
Q 45.015625 15.765625 45.015625 23.390625 
Q 45.015625 31 40.078125 35.4375 
Q 35.15625 39.890625 26.703125 39.890625 
Q 22.75 39.890625 18.8125 39.015625 
Q 14.890625 38.140625 10.796875 36.28125 
z
" id="DejaVuSans-53"/>
       </defs>
       <use xlink:href="#DejaVuSans-8722"/>
       <use x="83.789062" xlink:href="#DejaVuSans-53"/>
       <use x="147.412109" xlink:href="#DejaVuSans-48"/>
      </g>
     </g>
    </g>
    <g id="xtick_3">
     <g id="line2d_3">
      <g>
       <use style="stroke:#000000;stroke-width:0.8;" x="205.750143" xlink:href="#m1de3183650" y="307.584"/>
      </g>
     </g>
     <g id="text_3">
      <!-- 0 -->
      <g transform="translate(202.568893 322.182437)scale(0.1 -0.1)">
       <use xlink:href="#DejaVuSans-48"/>
      </g>
     </g>
    </g>
    <g id="xtick_4">
     <g id="line2d_4">
      <g>
       <use style="stroke:#000000;stroke-width:0.8;" x="273.103926" xlink:href="#m1de3183650" y="307.584"/>
      </g>
     </g>
     <g id="text_4">
      <!-- 50 -->
      <g transform="translate(266.741426 322.182437)scale(0.1 -0.1)">
       <use xlink:href="#DejaVuSans-53"/>
       <use x="63.623047" xlink:href="#DejaVuSans-48"/>
      </g>
     </g>
    </g>
    <g id="xtick_5">
     <g id="line2d_5">
      <g>
       <use style="stroke:#000000;stroke-width:0.8;" x="340.457709" xlink:href="#m1de3183650" y="307.584"/>
      </g>
     </g>
     <g id="text_5">
      <!-- 100 -->
      <g transform="translate(330.913959 322.182437)scale(0.1 -0.1)">
       <use xlink:href="#DejaVuSans-49"/>
       <use x="63.623047" xlink:href="#DejaVuSans-48"/>
       <use x="127.246094" xlink:href="#DejaVuSans-48"/>
      </g>
     </g>
    </g>
    <g id="xtick_6">
     <g id="line2d_6">
      <g>
       <use style="stroke:#000000;stroke-width:0.8;" x="407.811492" xlink:href="#m1de3183650" y="307.584"/>
      </g>
     </g>
     <g id="text_6">
      <!-- 150 -->
      <g transform="translate(398.267742 322.182437)scale(0.1 -0.1)">
       <use xlink:href="#DejaVuSans-49"/>
       <use x="63.623047" xlink:href="#DejaVuSans-53"/>
       <use x="127.246094" xlink:href="#DejaVuSans-48"/>
      </g>
     </g>
    </g>
   </g>
   <g id="matplotlib.axis_2">
    <g id="ytick_1">
     <g id="line2d_7">
      <defs>
       <path d="M 0 0 
L -3.5 0 
" id="mf90618ae59" style="stroke:#000000;stroke-width:0.8;"/>
      </defs>
      <g>
       <use style="stroke:#000000;stroke-width:0.8;" x="57.6" xlink:href="#mf90618ae59" y="295.436159"/>
      </g>
     </g>
     <g id="text_7">
      <!-- 0 -->
      <g transform="translate(44.2375 299.235378)scale(0.1 -0.1)">
       <use xlink:href="#DejaVuSans-48"/>
      </g>
     </g>
    </g>
    <g id="ytick_2">
     <g id="line2d_8">
      <g>
       <use style="stroke:#000000;stroke-width:0.8;" x="57.6" xlink:href="#mf90618ae59" y="261.759268"/>
      </g>
     </g>
     <g id="text_8">
      <!-- 25 -->
      <g transform="translate(37.875 265.558487)scale(0.1 -0.1)">
       <defs>
        <path d="M 19.1875 8.296875 
L 53.609375 8.296875 
L 53.609375 0 
L 7.328125 0 
L 7.328125 8.296875 
Q 12.9375 14.109375 22.625 23.890625 
Q 32.328125 33.6875 34.8125 36.53125 
Q 39.546875 41.84375 41.421875 45.53125 
Q 43.3125 49.21875 43.3125 52.78125 
Q 43.3125 58.59375 39.234375 62.25 
Q 35.15625 65.921875 28.609375 65.921875 
Q 23.96875 65.921875 18.8125 64.3125 
Q 13.671875 62.703125 7.8125 59.421875 
L 7.8125 69.390625 
Q 13.765625 71.78125 18.9375 73 
Q 24.125 74.21875 28.421875 74.21875 
Q 39.75 74.21875 46.484375 68.546875 
Q 53.21875 62.890625 53.21875 53.421875 
Q 53.21875 48.921875 51.53125 44.890625 
Q 49.859375 40.875 45.40625 35.40625 
Q 44.1875 33.984375 37.640625 27.21875 
Q 31.109375 20.453125 19.1875 8.296875 
z
" id="DejaVuSans-50"/>
       </defs>
       <use xlink:href="#DejaVuSans-50"/>
       <use x="63.623047" xlink:href="#DejaVuSans-53"/>
      </g>
     </g>
    </g>
    <g id="ytick_3">
     <g id="line2d_9">
      <g>
       <use style="stroke:#000000;stroke-width:0.8;" x="57.6" xlink:href="#mf90618ae59" y="228.082377"/>
      </g>
     </g>
     <g id="text_9">
      <!-- 50 -->
      <g transform="translate(37.875 231.881595)scale(0.1 -0.1)">
       <use xlink:href="#DejaVuSans-53"/>
       <use x="63.623047" xlink:href="#DejaVuSans-48"/>
      </g>
     </g>
    </g>
    <g id="ytick_4">
     <g id="line2d_10">
      <g>
       <use style="stroke:#000000;stroke-width:0.8;" x="57.6" xlink:href="#mf90618ae59" y="194.405485"/>
      </g>
     </g>
     <g id="text_10">
      <!-- 75 -->
      <g transform="translate(37.875 198.204704)scale(0.1 -0.1)">
       <defs>
        <path d="M 8.203125 72.90625 
L 55.078125 72.90625 
L 55.078125 68.703125 
L 28.609375 0 
L 18.3125 0 
L 43.21875 64.59375 
L 8.203125 64.59375 
z
" id="DejaVuSans-55"/>
       </defs>
       <use xlink:href="#DejaVuSans-55"/>
       <use x="63.623047" xlink:href="#DejaVuSans-53"/>
      </g>
     </g>
    </g>
    <g id="ytick_5">
     <g id="line2d_11">
      <g>
       <use style="stroke:#000000;stroke-width:0.8;" x="57.6" xlink:href="#mf90618ae59" y="160.728594"/>
      </g>
     </g>
     <g id="text_11">
      <!-- 100 -->
      <g transform="translate(31.5125 164.527812)scale(0.1 -0.1)">
       <use xlink:href="#DejaVuSans-49"/>
       <use x="63.623047" xlink:href="#DejaVuSans-48"/>
       <use x="127.246094" xlink:href="#DejaVuSans-48"/>
      </g>
     </g>
    </g>
    <g id="ytick_6">
     <g id="line2d_12">
      <g>
       <use style="stroke:#000000;stroke-width:0.8;" x="57.6" xlink:href="#mf90618ae59" y="127.051702"/>
      </g>
     </g>
     <g id="text_12">
      <!-- 125 -->
      <g transform="translate(31.5125 130.850921)scale(0.1 -0.1)">
       <use xlink:href="#DejaVuSans-49"/>
       <use x="63.623047" xlink:href="#DejaVuSans-50"/>
       <use x="127.246094" xlink:href="#DejaVuSans-53"/>
      </g>
     </g>
    </g>
    <g id="ytick_7">
     <g id="line2d_13">
      <g>
       <use style="stroke:#000000;stroke-width:0.8;" x="57.6" xlink:href="#mf90618ae59" y="93.374811"/>
      </g>
     </g>
     <g id="text_13">
      <!-- 150 -->
      <g transform="translate(31.5125 97.17403)scale(0.1 -0.1)">
       <use xlink:href="#DejaVuSans-49"/>
       <use x="63.623047" xlink:href="#DejaVuSans-53"/>
       <use x="127.246094" xlink:href="#DejaVuSans-48"/>
      </g>
     </g>
    </g>
    <g id="ytick_8">
     <g id="line2d_14">
      <g>
       <use style="stroke:#000000;stroke-width:0.8;" x="57.6" xlink:href="#mf90618ae59" y="59.697919"/>
      </g>
     </g>
     <g id="text_14">
      <!-- 175 -->
      <g transform="translate(31.5125 63.497138)scale(0.1 -0.1)">
       <use xlink:href="#DejaVuSans-49"/>
       <use x="63.623047" xlink:href="#DejaVuSans-55"/>
       <use x="127.246094" xlink:href="#DejaVuSans-53"/>
      </g>
     </g>
    </g>
   </g>
   <g id="line2d_15">
    <path clip-path="url(#p119b4f224f)" d="M 205.750143 295.436159 
L 206.024777 277.713876 
L 206.540214 256.43241 
L 207.511274 238.617431 
L 207.416968 233.327133 
L 207.141129 229.830199 
L 206.636305 226.36467 
L 205.814802 222.938991 
L 204.738891 219.545617 
L 202.830179 214.495054 
L 199.556728 206.102488 
L 198.45795 202.726125 
L 197.604434 199.324262 
L 197.079458 195.887263 
L 196.669622 190.565038 
L 196.496726 185.061331 
L 196.555893 181.357769 
L 196.784561 177.673143 
L 197.20841 174.047295 
L 197.853117 170.520061 
L 198.744361 167.131281 
L 199.907818 163.920793 
L 200.599652 162.394857 
L 201.38902 160.92824 
L 202.290054 159.518762 
L 204.386389 156.849346 
L 206.807188 154.342862 
L 209.470982 151.955564 
L 213.744078 148.502394 
L 219.531653 143.90701 
L 222.280757 141.514678 
L 224.82478 139.000923 
L 227.412699 136.397154 
L 231.738332 132.437846 
L 237.637944 127.063806 
L 240.345976 124.338312 
L 242.716001 121.588489 
L 243.732819 120.204762 
L 244.615404 118.815324 
L 245.347178 117.420298 
L 245.911565 116.019807 
L 246.291988 114.613976 
L 246.471869 113.202927 
L 246.384255 111.781297 
L 245.996718 110.344764 
L 245.34447 108.895022 
L 244.46272 107.433763 
L 243.386682 105.962679 
L 240.792581 102.997805 
L 236.324538 98.519112 
L 233.372044 95.532138 
L 230.769149 92.560014 
L 229.686829 91.083752 
L 228.797541 89.616279 
L 228.136499 88.159288 
L 227.738911 86.714471 
L 227.63999 85.283519 
L 227.798888 83.809691 
L 228.142103 82.246849 
L 228.655863 80.61259 
L 229.3264 78.924512 
L 231.082717 75.457292 
L 233.30089 71.985971 
L 235.870755 68.651333 
L 238.682146 65.594161 
L 241.624901 62.955238 
L 243.111112 61.836614 
L 244.588853 60.875347 
L 246.044353 60.089033 
L 247.46384 59.495271 
L 248.833545 59.111659 
L 250.196806 58.952221 
L 251.603651 59.00701 
L 253.050346 59.257662 
L 254.533154 59.685816 
L 256.048339 60.273109 
L 259.160898 61.851666 
L 262.358136 63.846433 
L 267.247388 67.297639 
L 273.783826 71.984938 
L 276.992271 74.034792 
L 278.568475 74.922002 
L 278.568475 74.922002 
" style="fill:none;stroke:#fea952;stroke-linecap:square;"/>
   </g>
   <g id="line2d_16">
    <path clip-path="url(#p119b4f224f)" d="M 200.36209 295.384319 
L 200.637554 277.606034 
L 201.161051 256.118702 
L 202.122994 238.601974 
L 202.039954 233.675741 
L 201.793796 230.493399 
L 201.371225 227.510418 
L 200.65485 224.49099 
L 199.668918 221.37022 
L 197.829428 216.501616 
L 194.456836 207.841714 
L 193.259327 204.143208 
L 192.301534 200.279803 
L 191.71298 196.371736 
L 191.287634 190.825821 
L 191.108502 185.032231 
L 191.174195 181.091063 
L 191.424072 177.126372 
L 191.891847 173.170959 
L 192.614848 169.257391 
L 193.635166 165.419575 
L 195.000342 161.695825 
L 195.854936 159.841139 
L 196.849098 158.026014 
L 197.955262 156.318234 
L 199.154422 154.709936 
L 201.766997 151.752651 
L 204.575848 149.072977 
L 207.489918 146.595476 
L 218.567418 137.610203 
L 220.948227 135.258445 
L 223.726062 132.467458 
L 228.150027 128.418161 
L 233.86733 123.214614 
L 236.342062 120.732417 
L 238.373969 118.39779 
L 239.843747 116.312306 
L 240.710332 114.612336 
L 241.181933 113.18474 
L 241.082838 112.555552 
L 240.731008 111.678865 
L 240.113684 110.614908 
L 239.250625 109.416205 
L 236.927426 106.752054 
L 232.524418 102.339177 
L 229.397445 99.17032 
L 226.423613 95.74594 
L 225.078638 93.876311 
L 223.890657 91.842553 
L 222.94131 89.588909 
L 222.363438 87.086074 
L 222.282733 84.705937 
L 222.536001 82.653913 
L 223.001819 80.630902 
L 223.648162 78.623437 
L 224.453259 76.625316 
L 225.400563 74.636604 
L 226.476178 72.66201 
L 228.96329 68.789249 
L 231.824369 65.093164 
L 234.982534 61.676678 
L 236.654897 60.107521 
L 238.384574 58.650114 
L 240.172969 57.319854 
L 242.02774 56.134619 
L 243.965041 55.118091 
L 246.010659 54.306623 
L 248.207632 53.759833 
L 250.40649 53.568 
L 252.523517 53.697805 
L 254.545128 54.080845 
L 256.48052 54.661717 
L 258.346704 55.399576 
L 261.934432 57.232 
L 265.397885 59.397418 
L 270.428506 62.948582 
L 276.753062 67.488557 
L 279.635294 69.339237 
L 281.211498 70.226447 
L 281.211498 70.226447 
" style="fill:none;stroke:#ffffff;stroke-linecap:square;"/>
   </g>
   <g id="line2d_17">
    <path clip-path="url(#p119b4f224f)" d="M 211.138196 295.488 
L 211.412 277.821719 
L 211.919376 256.746118 
L 212.899555 238.632888 
L 212.870535 234.872485 
L 212.668547 231.07638 
L 212.239953 227.202825 
L 211.474776 223.280951 
L 210.415113 219.534571 
L 209.168332 215.943695 
L 206.491477 209.154128 
L 204.65662 204.363262 
L 203.656573 201.309043 
L 202.907334 198.368721 
L 202.445937 195.402791 
L 202.05161 190.304255 
L 201.88495 185.090432 
L 201.937591 181.624474 
L 202.145051 178.219915 
L 202.524973 174.923631 
L 203.091387 171.782731 
L 203.853555 168.842987 
L 204.815295 166.145761 
L 205.928942 163.830467 
L 207.430722 161.61197 
L 209.355648 159.404292 
L 211.651757 157.201121 
L 215.632129 153.875262 
L 224.514903 146.743107 
L 227.443995 144.034748 
L 231.099337 140.32685 
L 235.326638 136.457531 
L 241.408558 130.912997 
L 244.349889 127.944207 
L 247.058034 124.779188 
L 248.281098 123.093873 
L 249.38706 121.318343 
L 250.344918 119.434349 
L 251.112799 117.427278 
L 251.637034 115.295364 
L 251.849968 112.871479 
L 251.586577 110.377854 
L 250.910599 108.133976 
L 249.957931 106.11118 
L 248.811757 104.252619 
L 247.522739 102.509154 
L 244.657736 99.243557 
L 240.124658 94.699048 
L 236.143199 90.587276 
L 234.295019 88.291193 
L 233.114385 86.342867 
L 232.997247 85.861101 
L 233.061775 84.96547 
L 233.282387 83.862796 
L 233.663565 82.601744 
L 234.87932 79.763824 
L 236.61429 76.717192 
L 238.745231 73.672608 
L 241.135883 70.815325 
L 243.63308 68.319718 
L 246.049256 66.353374 
L 248.123664 65.059976 
L 249.459458 64.463485 
L 249.987122 64.336442 
L 250.683786 64.316214 
L 251.555564 64.434479 
L 252.585788 64.709915 
L 255.024044 65.738115 
L 257.823225 67.329821 
L 260.862423 69.349407 
L 272.566088 77.634908 
L 275.925452 79.617556 
L 275.925452 79.617556 
" style="fill:none;stroke:#ffffff;stroke-linecap:square;"/>
   </g>
   <g id="patch_3">
    <path d="M 57.6 307.584 
L 57.6 41.472 
" style="fill:none;stroke:#000000;stroke-linecap:square;stroke-linejoin:miter;stroke-width:0.8;"/>
   </g>
   <g id="patch_4">
    <path d="M 414.72 307.584 
L 414.72 41.472 
" style="fill:none;stroke:#000000;stroke-linecap:square;stroke-linejoin:miter;stroke-width:0.8;"/>
   </g>
   <g id="patch_5">
    <path d="M 57.6 307.584 
L 414.72 307.584 
" style="fill:none;stroke:#000000;stroke-linecap:square;stroke-linejoin:miter;stroke-width:0.8;"/>
   </g>
   <g id="patch_6">
    <path d="M 57.6 41.472 
L 414.72 41.472 
" style="fill:none;stroke:#000000;stroke-linecap:square;stroke-linejoin:miter;stroke-width:0.8;"/>
   </g>
  </g>
 </g>
 <defs>
  <clipPath id="p119b4f224f">
   <rect height="266.112" width="357.12" x="57.6" y="41.472"/>
  </clipPath>
 </defs>
</svg>
