<?xml version="1.0" encoding="utf-8" standalone="no"?>
<!DOCTYPE svg PUBLIC "-//W3C//DTD SVG 1.1//EN"
  "http://www.w3.org/Graphics/SVG/1.1/DTD/svg11.dtd">
<!-- Created with matplotlib (https://matplotlib.org/) -->
<svg height="345.6pt" version="1.1" viewBox="0 0 460.8 345.6" width="460.8pt" xmlns="http://www.w3.org/2000/svg" xmlns:xlink="http://www.w3.org/1999/xlink">
 <metadata>
  <rdf:RDF xmlns:cc="http://creativecommons.org/ns#" xmlns:dc="http://purl.org/dc/elements/1.1/" xmlns:rdf="http://www.w3.org/1999/02/22-rdf-syntax-ns#">
   <cc:Work>
    <dc:type rdf:resource="http://purl.org/dc/dcmitype/StillImage"/>
    <dc:date>2021-06-14T15:51:48.548856</dc:date>
    <dc:format>image/svg+xml</dc:format>
    <dc:creator>
     <cc:Agent>
      <dc:title>Matplotlib v3.3.3, https://matplotlib.org/</dc:title>
     </cc:Agent>
    </dc:creator>
   </cc:Work>
  </rdf:RDF>
 </metadata>
 <defs>
  <style type="text/css">*{stroke-linecap:butt;stroke-linejoin:round;}</style>
 </defs>
 <g id="figure_1">
  <g id="patch_1">
   <path d="M 0 345.6 
L 460.8 345.6 
L 460.8 0 
L 0 0 
z
" style="fill:#ffffff;"/>
  </g>
  <g id="axes_1">
   <g id="patch_2">
    <path d="M 57.6 307.584 
L 414.72 307.584 
L 414.72 41.472 
L 57.6 41.472 
z
" style="fill:#7d9051;"/>
   </g>
   <g id="matplotlib.axis_1">
    <g id="xtick_1">
     <g id="line2d_1">
      <defs>
       <path d="M 0 0 
L 0 3.5 
" id="mff99cb7f72" style="stroke:#000000;stroke-width:0.8;"/>
      </defs>
      <g>
       <use style="stroke:#000000;stroke-width:0.8;" x="62.537387" xlink:href="#mff99cb7f72" y="307.584"/>
      </g>
     </g>
     <g id="text_1">
      <!-- −75 -->
      <g transform="translate(51.985043 322.182437)scale(0.1 -0.1)">
       <defs>
        <path d="M 10.59375 35.5 
L 73.1875 35.5 
L 73.1875 27.203125 
L 10.59375 27.203125 
z
" id="DejaVuSans-8722"/>
        <path d="M 8.203125 72.90625 
L 55.078125 72.90625 
L 55.078125 68.703125 
L 28.609375 0 
L 18.3125 0 
L 43.21875 64.59375 
L 8.203125 64.59375 
z
" id="DejaVuSans-55"/>
        <path d="M 10.796875 72.90625 
L 49.515625 72.90625 
L 49.515625 64.59375 
L 19.828125 64.59375 
L 19.828125 46.734375 
Q 21.96875 47.46875 24.109375 47.828125 
Q 26.265625 48.1875 28.421875 48.1875 
Q 40.625 48.1875 47.75 41.5 
Q 54.890625 34.8125 54.890625 23.390625 
Q 54.890625 11.625 47.5625 5.09375 
Q 40.234375 -1.421875 26.90625 -1.421875 
Q 22.3125 -1.421875 17.546875 -0.640625 
Q 12.796875 0.140625 7.71875 1.703125 
L 7.71875 11.625 
Q 12.109375 9.234375 16.796875 8.0625 
Q 21.484375 6.890625 26.703125 6.890625 
Q 35.15625 6.890625 40.078125 11.328125 
Q 45.015625 15.765625 45.015625 23.390625 
Q 45.015625 31 40.078125 35.4375 
Q 35.15625 39.890625 26.703125 39.890625 
Q 22.75 39.890625 18.8125 39.015625 
Q 14.890625 38.140625 10.796875 36.28125 
z
" id="DejaVuSans-53"/>
       </defs>
       <use xlink:href="#DejaVuSans-8722"/>
       <use x="83.789062" xlink:href="#DejaVuSans-55"/>
       <use x="147.412109" xlink:href="#DejaVuSans-53"/>
      </g>
     </g>
    </g>
    <g id="xtick_2">
     <g id="line2d_2">
      <g>
       <use style="stroke:#000000;stroke-width:0.8;" x="108.456623" xlink:href="#mff99cb7f72" y="307.584"/>
      </g>
     </g>
     <g id="text_2">
      <!-- −50 -->
      <g transform="translate(97.90428 322.182437)scale(0.1 -0.1)">
       <defs>
        <path d="M 31.78125 66.40625 
Q 24.171875 66.40625 20.328125 58.90625 
Q 16.5 51.421875 16.5 36.375 
Q 16.5 21.390625 20.328125 13.890625 
Q 24.171875 6.390625 31.78125 6.390625 
Q 39.453125 6.390625 43.28125 13.890625 
Q 47.125 21.390625 47.125 36.375 
Q 47.125 51.421875 43.28125 58.90625 
Q 39.453125 66.40625 31.78125 66.40625 
z
M 31.78125 74.21875 
Q 44.046875 74.21875 50.515625 64.515625 
Q 56.984375 54.828125 56.984375 36.375 
Q 56.984375 17.96875 50.515625 8.265625 
Q 44.046875 -1.421875 31.78125 -1.421875 
Q 19.53125 -1.421875 13.0625 8.265625 
Q 6.59375 17.96875 6.59375 36.375 
Q 6.59375 54.828125 13.0625 64.515625 
Q 19.53125 74.21875 31.78125 74.21875 
z
" id="DejaVuSans-48"/>
       </defs>
       <use xlink:href="#DejaVuSans-8722"/>
       <use x="83.789062" xlink:href="#DejaVuSans-53"/>
       <use x="147.412109" xlink:href="#DejaVuSans-48"/>
      </g>
     </g>
    </g>
    <g id="xtick_3">
     <g id="line2d_3">
      <g>
       <use style="stroke:#000000;stroke-width:0.8;" x="154.37586" xlink:href="#mff99cb7f72" y="307.584"/>
      </g>
     </g>
     <g id="text_3">
      <!-- −25 -->
      <g transform="translate(143.823516 322.182437)scale(0.1 -0.1)">
       <defs>
        <path d="M 19.1875 8.296875 
L 53.609375 8.296875 
L 53.609375 0 
L 7.328125 0 
L 7.328125 8.296875 
Q 12.9375 14.109375 22.625 23.890625 
Q 32.328125 33.6875 34.8125 36.53125 
Q 39.546875 41.84375 41.421875 45.53125 
Q 43.3125 49.21875 43.3125 52.78125 
Q 43.3125 58.59375 39.234375 62.25 
Q 35.15625 65.921875 28.609375 65.921875 
Q 23.96875 65.921875 18.8125 64.3125 
Q 13.671875 62.703125 7.8125 59.421875 
L 7.8125 69.390625 
Q 13.765625 71.78125 18.9375 73 
Q 24.125 74.21875 28.421875 74.21875 
Q 39.75 74.21875 46.484375 68.546875 
Q 53.21875 62.890625 53.21875 53.421875 
Q 53.21875 48.921875 51.53125 44.890625 
Q 49.859375 40.875 45.40625 35.40625 
Q 44.1875 33.984375 37.640625 27.21875 
Q 31.109375 20.453125 19.1875 8.296875 
z
" id="DejaVuSans-50"/>
       </defs>
       <use xlink:href="#DejaVuSans-8722"/>
       <use x="83.789062" xlink:href="#DejaVuSans-50"/>
       <use x="147.412109" xlink:href="#DejaVuSans-53"/>
      </g>
     </g>
    </g>
    <g id="xtick_4">
     <g id="line2d_4">
      <g>
       <use style="stroke:#000000;stroke-width:0.8;" x="200.295097" xlink:href="#mff99cb7f72" y="307.584"/>
      </g>
     </g>
     <g id="text_4">
      <!-- 0 -->
      <g transform="translate(197.113847 322.182437)scale(0.1 -0.1)">
       <use xlink:href="#DejaVuSans-48"/>
      </g>
     </g>
    </g>
    <g id="xtick_5">
     <g id="line2d_5">
      <g>
       <use style="stroke:#000000;stroke-width:0.8;" x="246.214333" xlink:href="#mff99cb7f72" y="307.584"/>
      </g>
     </g>
     <g id="text_5">
      <!-- 25 -->
      <g transform="translate(239.851833 322.182437)scale(0.1 -0.1)">
       <use xlink:href="#DejaVuSans-50"/>
       <use x="63.623047" xlink:href="#DejaVuSans-53"/>
      </g>
     </g>
    </g>
    <g id="xtick_6">
     <g id="line2d_6">
      <g>
       <use style="stroke:#000000;stroke-width:0.8;" x="292.13357" xlink:href="#mff99cb7f72" y="307.584"/>
      </g>
     </g>
     <g id="text_6">
      <!-- 50 -->
      <g transform="translate(285.77107 322.182437)scale(0.1 -0.1)">
       <use xlink:href="#DejaVuSans-53"/>
       <use x="63.623047" xlink:href="#DejaVuSans-48"/>
      </g>
     </g>
    </g>
    <g id="xtick_7">
     <g id="line2d_7">
      <g>
       <use style="stroke:#000000;stroke-width:0.8;" x="338.052807" xlink:href="#mff99cb7f72" y="307.584"/>
      </g>
     </g>
     <g id="text_7">
      <!-- 75 -->
      <g transform="translate(331.690307 322.182437)scale(0.1 -0.1)">
       <use xlink:href="#DejaVuSans-55"/>
       <use x="63.623047" xlink:href="#DejaVuSans-53"/>
      </g>
     </g>
    </g>
    <g id="xtick_8">
     <g id="line2d_8">
      <g>
       <use style="stroke:#000000;stroke-width:0.8;" x="383.972044" xlink:href="#mff99cb7f72" y="307.584"/>
      </g>
     </g>
     <g id="text_8">
      <!-- 100 -->
      <g transform="translate(374.428294 322.182437)scale(0.1 -0.1)">
       <defs>
        <path d="M 12.40625 8.296875 
L 28.515625 8.296875 
L 28.515625 63.921875 
L 10.984375 60.40625 
L 10.984375 69.390625 
L 28.421875 72.90625 
L 38.28125 72.90625 
L 38.28125 8.296875 
L 54.390625 8.296875 
L 54.390625 0 
L 12.40625 0 
z
" id="DejaVuSans-49"/>
       </defs>
       <use xlink:href="#DejaVuSans-49"/>
       <use x="63.623047" xlink:href="#DejaVuSans-48"/>
       <use x="127.246094" xlink:href="#DejaVuSans-48"/>
      </g>
     </g>
    </g>
   </g>
   <g id="matplotlib.axis_2">
    <g id="ytick_1">
     <g id="line2d_9">
      <defs>
       <path d="M 0 0 
L -3.5 0 
" id="m146076bd98" style="stroke:#000000;stroke-width:0.8;"/>
      </defs>
      <g>
       <use style="stroke:#000000;stroke-width:0.8;" x="57.6" xlink:href="#m146076bd98" y="295.417314"/>
      </g>
     </g>
     <g id="text_9">
      <!-- 0 -->
      <g transform="translate(44.2375 299.216533)scale(0.1 -0.1)">
       <use xlink:href="#DejaVuSans-48"/>
      </g>
     </g>
    </g>
    <g id="ytick_2">
     <g id="line2d_10">
      <g>
       <use style="stroke:#000000;stroke-width:0.8;" x="57.6" xlink:href="#m146076bd98" y="258.681925"/>
      </g>
     </g>
     <g id="text_10">
      <!-- 20 -->
      <g transform="translate(37.875 262.481144)scale(0.1 -0.1)">
       <use xlink:href="#DejaVuSans-50"/>
       <use x="63.623047" xlink:href="#DejaVuSans-48"/>
      </g>
     </g>
    </g>
    <g id="ytick_3">
     <g id="line2d_11">
      <g>
       <use style="stroke:#000000;stroke-width:0.8;" x="57.6" xlink:href="#m146076bd98" y="221.946535"/>
      </g>
     </g>
     <g id="text_11">
      <!-- 40 -->
      <g transform="translate(37.875 225.745754)scale(0.1 -0.1)">
       <defs>
        <path d="M 37.796875 64.3125 
L 12.890625 25.390625 
L 37.796875 25.390625 
z
M 35.203125 72.90625 
L 47.609375 72.90625 
L 47.609375 25.390625 
L 58.015625 25.390625 
L 58.015625 17.1875 
L 47.609375 17.1875 
L 47.609375 0 
L 37.796875 0 
L 37.796875 17.1875 
L 4.890625 17.1875 
L 4.890625 26.703125 
z
" id="DejaVuSans-52"/>
       </defs>
       <use xlink:href="#DejaVuSans-52"/>
       <use x="63.623047" xlink:href="#DejaVuSans-48"/>
      </g>
     </g>
    </g>
    <g id="ytick_4">
     <g id="line2d_12">
      <g>
       <use style="stroke:#000000;stroke-width:0.8;" x="57.6" xlink:href="#m146076bd98" y="185.211146"/>
      </g>
     </g>
     <g id="text_12">
      <!-- 60 -->
      <g transform="translate(37.875 189.010365)scale(0.1 -0.1)">
       <defs>
        <path d="M 33.015625 40.375 
Q 26.375 40.375 22.484375 35.828125 
Q 18.609375 31.296875 18.609375 23.390625 
Q 18.609375 15.53125 22.484375 10.953125 
Q 26.375 6.390625 33.015625 6.390625 
Q 39.65625 6.390625 43.53125 10.953125 
Q 47.40625 15.53125 47.40625 23.390625 
Q 47.40625 31.296875 43.53125 35.828125 
Q 39.65625 40.375 33.015625 40.375 
z
M 52.59375 71.296875 
L 52.59375 62.3125 
Q 48.875 64.0625 45.09375 64.984375 
Q 41.3125 65.921875 37.59375 65.921875 
Q 27.828125 65.921875 22.671875 59.328125 
Q 17.53125 52.734375 16.796875 39.40625 
Q 19.671875 43.65625 24.015625 45.921875 
Q 28.375 48.1875 33.59375 48.1875 
Q 44.578125 48.1875 50.953125 41.515625 
Q 57.328125 34.859375 57.328125 23.390625 
Q 57.328125 12.15625 50.6875 5.359375 
Q 44.046875 -1.421875 33.015625 -1.421875 
Q 20.359375 -1.421875 13.671875 8.265625 
Q 6.984375 17.96875 6.984375 36.375 
Q 6.984375 53.65625 15.1875 63.9375 
Q 23.390625 74.21875 37.203125 74.21875 
Q 40.921875 74.21875 44.703125 73.484375 
Q 48.484375 72.75 52.59375 71.296875 
z
" id="DejaVuSans-54"/>
       </defs>
       <use xlink:href="#DejaVuSans-54"/>
       <use x="63.623047" xlink:href="#DejaVuSans-48"/>
      </g>
     </g>
    </g>
    <g id="ytick_5">
     <g id="line2d_13">
      <g>
       <use style="stroke:#000000;stroke-width:0.8;" x="57.6" xlink:href="#m146076bd98" y="148.475757"/>
      </g>
     </g>
     <g id="text_13">
      <!-- 80 -->
      <g transform="translate(37.875 152.274976)scale(0.1 -0.1)">
       <defs>
        <path d="M 31.78125 34.625 
Q 24.75 34.625 20.71875 30.859375 
Q 16.703125 27.09375 16.703125 20.515625 
Q 16.703125 13.921875 20.71875 10.15625 
Q 24.75 6.390625 31.78125 6.390625 
Q 38.8125 6.390625 42.859375 10.171875 
Q 46.921875 13.96875 46.921875 20.515625 
Q 46.921875 27.09375 42.890625 30.859375 
Q 38.875 34.625 31.78125 34.625 
z
M 21.921875 38.8125 
Q 15.578125 40.375 12.03125 44.71875 
Q 8.5 49.078125 8.5 55.328125 
Q 8.5 64.0625 14.71875 69.140625 
Q 20.953125 74.21875 31.78125 74.21875 
Q 42.671875 74.21875 48.875 69.140625 
Q 55.078125 64.0625 55.078125 55.328125 
Q 55.078125 49.078125 51.53125 44.71875 
Q 48 40.375 41.703125 38.8125 
Q 48.828125 37.15625 52.796875 32.3125 
Q 56.78125 27.484375 56.78125 20.515625 
Q 56.78125 9.90625 50.3125 4.234375 
Q 43.84375 -1.421875 31.78125 -1.421875 
Q 19.734375 -1.421875 13.25 4.234375 
Q 6.78125 9.90625 6.78125 20.515625 
Q 6.78125 27.484375 10.78125 32.3125 
Q 14.796875 37.15625 21.921875 38.8125 
z
M 18.3125 54.390625 
Q 18.3125 48.734375 21.84375 45.5625 
Q 25.390625 42.390625 31.78125 42.390625 
Q 38.140625 42.390625 41.71875 45.5625 
Q 45.3125 48.734375 45.3125 54.390625 
Q 45.3125 60.0625 41.71875 63.234375 
Q 38.140625 66.40625 31.78125 66.40625 
Q 25.390625 66.40625 21.84375 63.234375 
Q 18.3125 60.0625 18.3125 54.390625 
z
" id="DejaVuSans-56"/>
       </defs>
       <use xlink:href="#DejaVuSans-56"/>
       <use x="63.623047" xlink:href="#DejaVuSans-48"/>
      </g>
     </g>
    </g>
    <g id="ytick_6">
     <g id="line2d_14">
      <g>
       <use style="stroke:#000000;stroke-width:0.8;" x="57.6" xlink:href="#m146076bd98" y="111.740367"/>
      </g>
     </g>
     <g id="text_14">
      <!-- 100 -->
      <g transform="translate(31.5125 115.539586)scale(0.1 -0.1)">
       <use xlink:href="#DejaVuSans-49"/>
       <use x="63.623047" xlink:href="#DejaVuSans-48"/>
       <use x="127.246094" xlink:href="#DejaVuSans-48"/>
      </g>
     </g>
    </g>
    <g id="ytick_7">
     <g id="line2d_15">
      <g>
       <use style="stroke:#000000;stroke-width:0.8;" x="57.6" xlink:href="#m146076bd98" y="75.004978"/>
      </g>
     </g>
     <g id="text_15">
      <!-- 120 -->
      <g transform="translate(31.5125 78.804197)scale(0.1 -0.1)">
       <use xlink:href="#DejaVuSans-49"/>
       <use x="63.623047" xlink:href="#DejaVuSans-50"/>
       <use x="127.246094" xlink:href="#DejaVuSans-48"/>
      </g>
     </g>
    </g>
   </g>
   <g id="line2d_16">
    <path clip-path="url(#pa5e99ff773)" d="M 200.295097 295.417314 
L 200.575979 276.08535 
L 201.177647 247.075219 
L 201.534793 242.148423 
L 202.362787 234.65759 
L 203.466778 224.669814 
L 203.784955 219.756436 
L 203.808693 214.944441 
L 203.677673 212.587645 
L 203.434073 210.269612 
L 203.064905 207.994817 
L 202.557176 205.767731 
L 201.897899 203.592828 
L 201.046793 201.486187 
L 199.987923 199.455013 
L 198.744821 197.490467 
L 197.341016 195.583711 
L 195.800039 193.725906 
L 192.400685 190.121795 
L 186.861107 184.861797 
L 181.357591 179.565073 
L 178.022349 175.895673 
L 176.525449 173.992981 
L 175.173735 172.033178 
L 173.990738 170.007423 
L 172.999987 167.906879 
L 171.312341 163.470849 
L 169.818931 158.77287 
L 168.553347 153.882795 
L 167.54918 148.870476 
L 166.840018 143.805767 
L 166.459452 138.758522 
L 166.441072 133.798593 
L 166.818468 128.995834 
L 167.166079 126.675222 
L 167.62523 124.420098 
L 168.20012 122.239193 
L 168.912554 120.111221 
L 169.774516 118.009279 
L 170.775472 115.93367 
L 171.904887 113.884698 
L 174.50696 109.867882 
L 177.49646 105.961262 
L 180.789116 102.167269 
L 184.300653 98.488334 
L 189.794014 93.190983 
L 198.889951 84.937401 
L 206.391568 78.28758 
L 210.320886 75.006585 
L 214.352558 71.873565 
L 218.474096 68.97754 
L 222.673012 66.407532 
L 226.936818 64.252564 
L 229.089152 63.358539 
L 231.253025 62.601658 
L 233.426876 61.993047 
L 235.609144 61.543834 
L 237.86148 61.230359 
L 240.233685 61.021027 
L 245.260354 60.911725 
L 250.534465 61.20979 
L 255.901327 61.90908 
L 261.206254 63.003456 
L 263.787151 63.696883 
L 266.294556 64.486778 
L 268.709133 65.372375 
L 271.011545 66.352905 
L 273.182458 67.427602 
L 275.202534 68.595698 
L 277.052437 69.856425 
L 278.712833 71.209016 
L 280.164383 72.652703 
L 281.384102 74.239879 
L 282.377027 76.012203 
L 283.165859 77.952807 
L 283.7733 80.044825 
L 284.222052 82.271389 
L 284.534817 84.615632 
L 284.843188 89.589688 
L 284.880029 94.832055 
L 284.865567 105.581974 
L 285.177491 110.819653 
L 285.492697 113.345136 
L 285.944335 115.785893 
L 286.555106 118.125057 
L 288.095136 122.646454 
L 289.891557 127.089464 
L 291.896295 131.468784 
L 295.188838 137.9505 
L 301.036959 148.643127 
L 305.607291 157.230298 
L 306.684774 159.396994 
L 306.684774 159.396994 
" style="fill:none;stroke:#fea952;stroke-linecap:square;"/>
   </g>
   <g id="line2d_17">
    <path clip-path="url(#pa5e99ff773)" d="M 192.948359 295.346628 
L 193.23024 275.945051 
L 193.844337 246.625639 
L 194.224533 241.413818 
L 195.068482 233.778574 
L 196.141254 224.107442 
L 196.439784 219.58905 
L 196.472942 215.352254 
L 196.181875 211.446547 
L 195.526037 207.899077 
L 195.085772 206.345004 
L 194.531836 204.882493 
L 193.779386 203.383578 
L 192.828275 201.846387 
L 191.686082 200.274262 
L 188.889287 197.041696 
L 185.546157 193.700618 
L 176.019891 184.613688 
L 174.105669 182.581311 
L 172.248052 180.438474 
L 170.477421 178.164421 
L 168.829266 175.738211 
L 167.34572 173.141636 
L 166.171553 170.618343 
L 164.341883 165.792974 
L 162.732147 160.711179 
L 161.370636 155.428179 
L 160.2894 149.9997 
L 159.524017 144.480808 
L 159.114261 138.925024 
L 159.105709 133.383867 
L 159.268358 130.63443 
L 159.552455 127.907438 
L 159.966708 125.209406 
L 160.520834 122.547368 
L 161.233131 119.906679 
L 162.114845 117.323624 
L 163.156768 114.81789 
L 164.341138 112.386995 
L 165.651852 110.027355 
L 167.074295 107.734921 
L 170.201812 103.335612 
L 173.626681 99.160147 
L 177.260195 95.186413 
L 181.017121 91.399374 
L 186.698521 86.05131 
L 199.65389 74.406658 
L 205.753101 69.252031 
L 210.046303 65.920774 
L 214.527606 62.780382 
L 219.211236 59.927126 
L 221.635399 58.640852 
L 224.11849 57.467538 
L 226.663394 56.423465 
L 229.272236 55.526629 
L 231.945564 54.796849 
L 234.596354 54.266898 
L 237.215658 53.91172 
L 239.919156 53.680685 
L 242.696795 53.568 
L 245.536806 53.56985 
L 251.351006 53.908227 
L 257.248997 54.686661 
L 260.192522 55.241314 
L 263.112632 55.908016 
L 265.994715 56.6893 
L 268.824456 57.589013 
L 271.587859 58.612753 
L 274.271126 59.768478 
L 276.860257 61.067308 
L 279.340134 62.52447 
L 281.69272 64.160169 
L 283.893872 65.999756 
L 285.989956 68.175845 
L 287.793819 70.648906 
L 289.183284 73.245541 
L 290.221524 75.904114 
L 290.975556 78.593249 
L 291.5046 81.299766 
L 291.857565 84.018211 
L 292.18935 89.473639 
L 292.226743 94.905121 
L 292.206245 105.275372 
L 292.468004 109.909722 
L 293.053082 113.929752 
L 293.54536 115.863221 
L 294.940785 119.97875 
L 296.601971 124.097827 
L 298.491516 128.231097 
L 301.664292 134.47947 
L 307.482923 145.117634 
L 311.031091 151.71258 
L 313.263307 156.125532 
L 313.263307 156.125532 
" style="fill:none;stroke:#ffffff;stroke-linecap:square;"/>
   </g>
   <g id="line2d_18">
    <path clip-path="url(#pa5e99ff773)" d="M 207.641835 295.488 
L 207.921717 276.225648 
L 208.510956 247.524799 
L 208.845054 242.883028 
L 209.657092 235.536606 
L 210.792301 225.232186 
L 211.130125 219.923822 
L 211.144444 214.536629 
L 210.984514 211.819777 
L 210.686272 209.092678 
L 210.228187 206.361741 
L 209.588316 203.636386 
L 208.710027 200.840653 
L 207.561749 198.089882 
L 206.19646 195.526448 
L 204.661367 193.134547 
L 202.995951 190.89316 
L 201.233202 188.780172 
L 197.526625 184.858309 
L 191.881021 179.497097 
L 186.695292 174.516459 
L 183.796646 171.352871 
L 181.518203 168.328144 
L 180.635755 166.87321 
L 179.828422 165.195415 
L 178.2828 161.148725 
L 176.905716 156.834562 
L 175.736059 152.33741 
L 174.80896 147.741252 
L 174.156019 143.130726 
L 173.804643 138.59202 
L 173.776435 134.213319 
L 174.084481 130.08423 
L 174.729625 126.292828 
L 175.167109 124.571706 
L 175.710264 122.898818 
L 176.392265 121.200667 
L 178.157923 117.742041 
L 180.41883 114.230146 
L 183.110173 110.701071 
L 186.155506 107.185376 
L 189.472794 103.706428 
L 194.775193 98.591669 
L 203.807245 90.396319 
L 211.141562 83.892677 
L 214.88867 80.76114 
L 218.658813 77.826356 
L 222.420586 75.174698 
L 226.134788 72.887938 
L 229.755145 71.03759 
L 233.233813 69.676686 
L 234.908188 69.189245 
L 236.621934 68.820771 
L 240.548214 68.361369 
L 244.983903 68.2536 
L 249.717923 68.511352 
L 254.553657 69.131499 
L 259.299876 70.098897 
L 263.764656 71.384543 
L 267.751965 72.937333 
L 271.064933 74.666926 
L 273.531793 76.418276 
L 274.974386 77.830852 
L 275.57077 78.778864 
L 276.110194 80.0015 
L 276.571045 81.4964 
L 276.939505 83.243012 
L 277.212068 85.213053 
L 277.497027 89.705737 
L 277.533314 94.758989 
L 277.524889 105.888577 
L 277.886978 111.729583 
L 278.26826 114.681946 
L 278.835587 117.642035 
L 279.564852 120.386893 
L 281.249487 125.314158 
L 283.181142 130.0811 
L 285.301074 134.706472 
L 288.713384 141.421529 
L 294.590995 152.168619 
L 299.028758 160.50176 
L 300.106242 162.668455 
L 300.106242 162.668455 
" style="fill:none;stroke:#ffffff;stroke-linecap:square;"/>
   </g>
   <g id="patch_3">
    <path d="M 57.6 307.584 
L 57.6 41.472 
" style="fill:none;stroke:#000000;stroke-linecap:square;stroke-linejoin:miter;stroke-width:0.8;"/>
   </g>
   <g id="patch_4">
    <path d="M 414.72 307.584 
L 414.72 41.472 
" style="fill:none;stroke:#000000;stroke-linecap:square;stroke-linejoin:miter;stroke-width:0.8;"/>
   </g>
   <g id="patch_5">
    <path d="M 57.6 307.584 
L 414.72 307.584 
" style="fill:none;stroke:#000000;stroke-linecap:square;stroke-linejoin:miter;stroke-width:0.8;"/>
   </g>
   <g id="patch_6">
    <path d="M 57.6 41.472 
L 414.72 41.472 
" style="fill:none;stroke:#000000;stroke-linecap:square;stroke-linejoin:miter;stroke-width:0.8;"/>
   </g>
  </g>
 </g>
 <defs>
  <clipPath id="pa5e99ff773">
   <rect height="266.112" width="357.12" x="57.6" y="41.472"/>
  </clipPath>
 </defs>
</svg>
