<?xml version="1.0" encoding="utf-8" standalone="no"?>
<!DOCTYPE svg PUBLIC "-//W3C//DTD SVG 1.1//EN"
  "http://www.w3.org/Graphics/SVG/1.1/DTD/svg11.dtd">
<!-- Created with matplotlib (https://matplotlib.org/) -->
<svg height="345.6pt" version="1.1" viewBox="0 0 460.8 345.6" width="460.8pt" xmlns="http://www.w3.org/2000/svg" xmlns:xlink="http://www.w3.org/1999/xlink">
 <metadata>
  <rdf:RDF xmlns:cc="http://creativecommons.org/ns#" xmlns:dc="http://purl.org/dc/elements/1.1/" xmlns:rdf="http://www.w3.org/1999/02/22-rdf-syntax-ns#">
   <cc:Work>
    <dc:type rdf:resource="http://purl.org/dc/dcmitype/StillImage"/>
    <dc:date>2021-06-24T10:24:00.897547</dc:date>
    <dc:format>image/svg+xml</dc:format>
    <dc:creator>
     <cc:Agent>
      <dc:title>Matplotlib v3.3.3, https://matplotlib.org/</dc:title>
     </cc:Agent>
    </dc:creator>
   </cc:Work>
  </rdf:RDF>
 </metadata>
 <defs>
  <style type="text/css">*{stroke-linecap:butt;stroke-linejoin:round;}</style>
 </defs>
 <g id="figure_1">
  <g id="patch_1">
   <path d="M 0 345.6 
L 460.8 345.6 
L 460.8 0 
L 0 0 
z
" style="fill:#ffffff;"/>
  </g>
  <g id="axes_1">
   <g id="patch_2">
    <path d="M 57.6 307.584 
L 414.72 307.584 
L 414.72 41.472 
L 57.6 41.472 
z
" style="fill:#7d9051;"/>
   </g>
   <g id="matplotlib.axis_1">
    <g id="xtick_1">
     <g id="line2d_1">
      <defs>
       <path d="M 0 0 
L 0 3.5 
" id="m98dca976fd" style="stroke:#000000;stroke-width:0.8;"/>
      </defs>
      <g>
       <use style="stroke:#000000;stroke-width:0.8;" x="95.440548" xlink:href="#m98dca976fd" y="307.584"/>
      </g>
     </g>
     <g id="text_1">
      <!-- −120 -->
      <g transform="translate(81.706955 322.182437)scale(0.1 -0.1)">
       <defs>
        <path d="M 10.59375 35.5 
L 73.1875 35.5 
L 73.1875 27.203125 
L 10.59375 27.203125 
z
" id="DejaVuSans-8722"/>
        <path d="M 12.40625 8.296875 
L 28.515625 8.296875 
L 28.515625 63.921875 
L 10.984375 60.40625 
L 10.984375 69.390625 
L 28.421875 72.90625 
L 38.28125 72.90625 
L 38.28125 8.296875 
L 54.390625 8.296875 
L 54.390625 0 
L 12.40625 0 
z
" id="DejaVuSans-49"/>
        <path d="M 19.1875 8.296875 
L 53.609375 8.296875 
L 53.609375 0 
L 7.328125 0 
L 7.328125 8.296875 
Q 12.9375 14.109375 22.625 23.890625 
Q 32.328125 33.6875 34.8125 36.53125 
Q 39.546875 41.84375 41.421875 45.53125 
Q 43.3125 49.21875 43.3125 52.78125 
Q 43.3125 58.59375 39.234375 62.25 
Q 35.15625 65.921875 28.609375 65.921875 
Q 23.96875 65.921875 18.8125 64.3125 
Q 13.671875 62.703125 7.8125 59.421875 
L 7.8125 69.390625 
Q 13.765625 71.78125 18.9375 73 
Q 24.125 74.21875 28.421875 74.21875 
Q 39.75 74.21875 46.484375 68.546875 
Q 53.21875 62.890625 53.21875 53.421875 
Q 53.21875 48.921875 51.53125 44.890625 
Q 49.859375 40.875 45.40625 35.40625 
Q 44.1875 33.984375 37.640625 27.21875 
Q 31.109375 20.453125 19.1875 8.296875 
z
" id="DejaVuSans-50"/>
        <path d="M 31.78125 66.40625 
Q 24.171875 66.40625 20.328125 58.90625 
Q 16.5 51.421875 16.5 36.375 
Q 16.5 21.390625 20.328125 13.890625 
Q 24.171875 6.390625 31.78125 6.390625 
Q 39.453125 6.390625 43.28125 13.890625 
Q 47.125 21.390625 47.125 36.375 
Q 47.125 51.421875 43.28125 58.90625 
Q 39.453125 66.40625 31.78125 66.40625 
z
M 31.78125 74.21875 
Q 44.046875 74.21875 50.515625 64.515625 
Q 56.984375 54.828125 56.984375 36.375 
Q 56.984375 17.96875 50.515625 8.265625 
Q 44.046875 -1.421875 31.78125 -1.421875 
Q 19.53125 -1.421875 13.0625 8.265625 
Q 6.59375 17.96875 6.59375 36.375 
Q 6.59375 54.828125 13.0625 64.515625 
Q 19.53125 74.21875 31.78125 74.21875 
z
" id="DejaVuSans-48"/>
       </defs>
       <use xlink:href="#DejaVuSans-8722"/>
       <use x="83.789062" xlink:href="#DejaVuSans-49"/>
       <use x="147.412109" xlink:href="#DejaVuSans-50"/>
       <use x="211.035156" xlink:href="#DejaVuSans-48"/>
      </g>
     </g>
    </g>
    <g id="xtick_2">
     <g id="line2d_2">
      <g>
       <use style="stroke:#000000;stroke-width:0.8;" x="137.776047" xlink:href="#m98dca976fd" y="307.584"/>
      </g>
     </g>
     <g id="text_2">
      <!-- −100 -->
      <g transform="translate(124.042453 322.182437)scale(0.1 -0.1)">
       <use xlink:href="#DejaVuSans-8722"/>
       <use x="83.789062" xlink:href="#DejaVuSans-49"/>
       <use x="147.412109" xlink:href="#DejaVuSans-48"/>
       <use x="211.035156" xlink:href="#DejaVuSans-48"/>
      </g>
     </g>
    </g>
    <g id="xtick_3">
     <g id="line2d_3">
      <g>
       <use style="stroke:#000000;stroke-width:0.8;" x="180.111546" xlink:href="#m98dca976fd" y="307.584"/>
      </g>
     </g>
     <g id="text_3">
      <!-- −80 -->
      <g transform="translate(169.559202 322.182437)scale(0.1 -0.1)">
       <defs>
        <path d="M 31.78125 34.625 
Q 24.75 34.625 20.71875 30.859375 
Q 16.703125 27.09375 16.703125 20.515625 
Q 16.703125 13.921875 20.71875 10.15625 
Q 24.75 6.390625 31.78125 6.390625 
Q 38.8125 6.390625 42.859375 10.171875 
Q 46.921875 13.96875 46.921875 20.515625 
Q 46.921875 27.09375 42.890625 30.859375 
Q 38.875 34.625 31.78125 34.625 
z
M 21.921875 38.8125 
Q 15.578125 40.375 12.03125 44.71875 
Q 8.5 49.078125 8.5 55.328125 
Q 8.5 64.0625 14.71875 69.140625 
Q 20.953125 74.21875 31.78125 74.21875 
Q 42.671875 74.21875 48.875 69.140625 
Q 55.078125 64.0625 55.078125 55.328125 
Q 55.078125 49.078125 51.53125 44.71875 
Q 48 40.375 41.703125 38.8125 
Q 48.828125 37.15625 52.796875 32.3125 
Q 56.78125 27.484375 56.78125 20.515625 
Q 56.78125 9.90625 50.3125 4.234375 
Q 43.84375 -1.421875 31.78125 -1.421875 
Q 19.734375 -1.421875 13.25 4.234375 
Q 6.78125 9.90625 6.78125 20.515625 
Q 6.78125 27.484375 10.78125 32.3125 
Q 14.796875 37.15625 21.921875 38.8125 
z
M 18.3125 54.390625 
Q 18.3125 48.734375 21.84375 45.5625 
Q 25.390625 42.390625 31.78125 42.390625 
Q 38.140625 42.390625 41.71875 45.5625 
Q 45.3125 48.734375 45.3125 54.390625 
Q 45.3125 60.0625 41.71875 63.234375 
Q 38.140625 66.40625 31.78125 66.40625 
Q 25.390625 66.40625 21.84375 63.234375 
Q 18.3125 60.0625 18.3125 54.390625 
z
" id="DejaVuSans-56"/>
       </defs>
       <use xlink:href="#DejaVuSans-8722"/>
       <use x="83.789062" xlink:href="#DejaVuSans-56"/>
       <use x="147.412109" xlink:href="#DejaVuSans-48"/>
      </g>
     </g>
    </g>
    <g id="xtick_4">
     <g id="line2d_4">
      <g>
       <use style="stroke:#000000;stroke-width:0.8;" x="222.447044" xlink:href="#m98dca976fd" y="307.584"/>
      </g>
     </g>
     <g id="text_4">
      <!-- −60 -->
      <g transform="translate(211.8947 322.182437)scale(0.1 -0.1)">
       <defs>
        <path d="M 33.015625 40.375 
Q 26.375 40.375 22.484375 35.828125 
Q 18.609375 31.296875 18.609375 23.390625 
Q 18.609375 15.53125 22.484375 10.953125 
Q 26.375 6.390625 33.015625 6.390625 
Q 39.65625 6.390625 43.53125 10.953125 
Q 47.40625 15.53125 47.40625 23.390625 
Q 47.40625 31.296875 43.53125 35.828125 
Q 39.65625 40.375 33.015625 40.375 
z
M 52.59375 71.296875 
L 52.59375 62.3125 
Q 48.875 64.0625 45.09375 64.984375 
Q 41.3125 65.921875 37.59375 65.921875 
Q 27.828125 65.921875 22.671875 59.328125 
Q 17.53125 52.734375 16.796875 39.40625 
Q 19.671875 43.65625 24.015625 45.921875 
Q 28.375 48.1875 33.59375 48.1875 
Q 44.578125 48.1875 50.953125 41.515625 
Q 57.328125 34.859375 57.328125 23.390625 
Q 57.328125 12.15625 50.6875 5.359375 
Q 44.046875 -1.421875 33.015625 -1.421875 
Q 20.359375 -1.421875 13.671875 8.265625 
Q 6.984375 17.96875 6.984375 36.375 
Q 6.984375 53.65625 15.1875 63.9375 
Q 23.390625 74.21875 37.203125 74.21875 
Q 40.921875 74.21875 44.703125 73.484375 
Q 48.484375 72.75 52.59375 71.296875 
z
" id="DejaVuSans-54"/>
       </defs>
       <use xlink:href="#DejaVuSans-8722"/>
       <use x="83.789062" xlink:href="#DejaVuSans-54"/>
       <use x="147.412109" xlink:href="#DejaVuSans-48"/>
      </g>
     </g>
    </g>
    <g id="xtick_5">
     <g id="line2d_5">
      <g>
       <use style="stroke:#000000;stroke-width:0.8;" x="264.782543" xlink:href="#m98dca976fd" y="307.584"/>
      </g>
     </g>
     <g id="text_5">
      <!-- −40 -->
      <g transform="translate(254.230199 322.182437)scale(0.1 -0.1)">
       <defs>
        <path d="M 37.796875 64.3125 
L 12.890625 25.390625 
L 37.796875 25.390625 
z
M 35.203125 72.90625 
L 47.609375 72.90625 
L 47.609375 25.390625 
L 58.015625 25.390625 
L 58.015625 17.1875 
L 47.609375 17.1875 
L 47.609375 0 
L 37.796875 0 
L 37.796875 17.1875 
L 4.890625 17.1875 
L 4.890625 26.703125 
z
" id="DejaVuSans-52"/>
       </defs>
       <use xlink:href="#DejaVuSans-8722"/>
       <use x="83.789062" xlink:href="#DejaVuSans-52"/>
       <use x="147.412109" xlink:href="#DejaVuSans-48"/>
      </g>
     </g>
    </g>
    <g id="xtick_6">
     <g id="line2d_6">
      <g>
       <use style="stroke:#000000;stroke-width:0.8;" x="307.118041" xlink:href="#m98dca976fd" y="307.584"/>
      </g>
     </g>
     <g id="text_6">
      <!-- −20 -->
      <g transform="translate(296.565698 322.182437)scale(0.1 -0.1)">
       <use xlink:href="#DejaVuSans-8722"/>
       <use x="83.789062" xlink:href="#DejaVuSans-50"/>
       <use x="147.412109" xlink:href="#DejaVuSans-48"/>
      </g>
     </g>
    </g>
    <g id="xtick_7">
     <g id="line2d_7">
      <g>
       <use style="stroke:#000000;stroke-width:0.8;" x="349.45354" xlink:href="#m98dca976fd" y="307.584"/>
      </g>
     </g>
     <g id="text_7">
      <!-- 0 -->
      <g transform="translate(346.27229 322.182437)scale(0.1 -0.1)">
       <use xlink:href="#DejaVuSans-48"/>
      </g>
     </g>
    </g>
    <g id="xtick_8">
     <g id="line2d_8">
      <g>
       <use style="stroke:#000000;stroke-width:0.8;" x="391.789039" xlink:href="#m98dca976fd" y="307.584"/>
      </g>
     </g>
     <g id="text_8">
      <!-- 20 -->
      <g transform="translate(385.426539 322.182437)scale(0.1 -0.1)">
       <use xlink:href="#DejaVuSans-50"/>
       <use x="63.623047" xlink:href="#DejaVuSans-48"/>
      </g>
     </g>
    </g>
   </g>
   <g id="matplotlib.axis_2">
    <g id="ytick_1">
     <g id="line2d_9">
      <defs>
       <path d="M 0 0 
L -3.5 0 
" id="mb1cecb0892" style="stroke:#000000;stroke-width:0.8;"/>
      </defs>
      <g>
       <use style="stroke:#000000;stroke-width:0.8;" x="57.6" xlink:href="#mb1cecb0892" y="295.406539"/>
      </g>
     </g>
     <g id="text_9">
      <!-- 0 -->
      <g transform="translate(44.2375 299.205757)scale(0.1 -0.1)">
       <use xlink:href="#DejaVuSans-48"/>
      </g>
     </g>
    </g>
    <g id="ytick_2">
     <g id="line2d_10">
      <g>
       <use style="stroke:#000000;stroke-width:0.8;" x="57.6" xlink:href="#mb1cecb0892" y="253.07104"/>
      </g>
     </g>
     <g id="text_10">
      <!-- 20 -->
      <g transform="translate(37.875 256.870259)scale(0.1 -0.1)">
       <use xlink:href="#DejaVuSans-50"/>
       <use x="63.623047" xlink:href="#DejaVuSans-48"/>
      </g>
     </g>
    </g>
    <g id="ytick_3">
     <g id="line2d_11">
      <g>
       <use style="stroke:#000000;stroke-width:0.8;" x="57.6" xlink:href="#mb1cecb0892" y="210.735541"/>
      </g>
     </g>
     <g id="text_11">
      <!-- 40 -->
      <g transform="translate(37.875 214.53476)scale(0.1 -0.1)">
       <use xlink:href="#DejaVuSans-52"/>
       <use x="63.623047" xlink:href="#DejaVuSans-48"/>
      </g>
     </g>
    </g>
    <g id="ytick_4">
     <g id="line2d_12">
      <g>
       <use style="stroke:#000000;stroke-width:0.8;" x="57.6" xlink:href="#mb1cecb0892" y="168.400043"/>
      </g>
     </g>
     <g id="text_12">
      <!-- 60 -->
      <g transform="translate(37.875 172.199261)scale(0.1 -0.1)">
       <use xlink:href="#DejaVuSans-54"/>
       <use x="63.623047" xlink:href="#DejaVuSans-48"/>
      </g>
     </g>
    </g>
    <g id="ytick_5">
     <g id="line2d_13">
      <g>
       <use style="stroke:#000000;stroke-width:0.8;" x="57.6" xlink:href="#mb1cecb0892" y="126.064544"/>
      </g>
     </g>
     <g id="text_13">
      <!-- 80 -->
      <g transform="translate(37.875 129.863763)scale(0.1 -0.1)">
       <use xlink:href="#DejaVuSans-56"/>
       <use x="63.623047" xlink:href="#DejaVuSans-48"/>
      </g>
     </g>
    </g>
    <g id="ytick_6">
     <g id="line2d_14">
      <g>
       <use style="stroke:#000000;stroke-width:0.8;" x="57.6" xlink:href="#mb1cecb0892" y="83.729045"/>
      </g>
     </g>
     <g id="text_14">
      <!-- 100 -->
      <g transform="translate(31.5125 87.528264)scale(0.1 -0.1)">
       <use xlink:href="#DejaVuSans-49"/>
       <use x="63.623047" xlink:href="#DejaVuSans-48"/>
       <use x="127.246094" xlink:href="#DejaVuSans-48"/>
      </g>
     </g>
    </g>
   </g>
   <g id="line2d_15">
    <path clip-path="url(#p5ab2ba4783)" d="M 349.45354 295.406539 
L 349.777241 273.127522 
L 350.359815 236.897062 
L 350.03075 228.42424 
L 349.347586 214.26928 
L 349.262931 208.654322 
L 349.407301 203.096467 
L 349.86153 197.615868 
L 350.706451 192.232679 
L 351.300681 189.583912 
L 352.105015 186.948044 
L 353.179209 184.309263 
L 354.484661 181.671108 
L 355.982772 179.037115 
L 359.402572 173.795768 
L 365.012217 166.053411 
L 368.62161 161.012889 
L 371.766442 156.102225 
L 373.068147 153.704435 
L 374.137912 151.349722 
L 374.937138 149.041625 
L 375.427223 146.783681 
L 375.569568 144.579429 
L 375.325574 142.432405 
L 374.710236 140.334839 
L 373.780969 138.276495 
L 372.562795 136.257211 
L 371.080738 134.276826 
L 369.359819 132.335178 
L 367.425063 130.432107 
L 365.301492 128.56745 
L 363.01413 126.741046 
L 358.048123 123.202353 
L 352.727226 119.814736 
L 344.518367 115.013755 
L 324.456877 103.772992 
L 319.420859 101.290793 
L 314.294438 98.955863 
L 309.092168 96.780714 
L 303.8286 94.777853 
L 298.518289 92.95979 
L 293.175787 91.339035 
L 287.815645 89.928097 
L 282.433361 88.720417 
L 274.148804 87.120149 
L 268.51565 86.227933 
L 262.834828 85.518528 
L 257.140988 85.028881 
L 251.468779 84.795939 
L 245.852853 84.85665 
L 240.327857 85.247963 
L 234.928444 86.006824 
L 232.286659 86.535632 
L 229.683417 87.255144 
L 227.112409 88.22956 
L 224.57077 89.425427 
L 222.055635 90.809294 
L 219.564142 92.347708 
L 214.640621 95.75437 
L 202.545047 104.633952 
L 200.139573 106.204467 
L 197.731962 107.628461 
L 195.319352 108.87248 
L 192.898877 109.903073 
L 190.467673 110.686788 
L 188.022878 111.190172 
L 185.561625 111.379773 
L 183.088305 111.272718 
L 180.609725 110.921975 
L 178.12665 110.347852 
L 175.639844 109.57066 
L 173.150072 108.610708 
L 170.658099 107.488305 
L 165.67061 104.837386 
L 160.683493 101.780378 
L 153.2169 96.788867 
L 145.785559 91.797582 
L 140.861113 88.740978 
L 114.211259 73.572495 
L 92.580597 60.895194 
L 92.580597 60.895194 
" style="fill:none;stroke:#fea952;stroke-linecap:square;"/>
   </g>
   <g id="line2d_16">
    <path clip-path="url(#p5ab2ba4783)" d="M 340.986832 295.325077 
L 341.311685 272.965836 
L 341.896076 237.135573 
L 341.575499 228.872023 
L 340.882809 214.467571 
L 340.796639 208.537367 
L 340.958937 202.533501 
L 341.471949 196.472752 
L 341.893837 193.428113 
L 342.444703 190.379222 
L 343.202239 187.112674 
L 344.262801 183.755639 
L 345.590392 180.554049 
L 347.124716 177.485061 
L 348.815886 174.528509 
L 352.496501 168.896996 
L 358.164607 161.073248 
L 361.577737 156.314418 
L 364.325164 152.062526 
L 366.136909 148.579213 
L 366.977723 146.238033 
L 367.15662 145.535503 
L 367.200861 144.815852 
L 366.993138 143.818827 
L 366.530972 142.650203 
L 365.78381 141.33039 
L 364.744268 139.892957 
L 363.422307 138.371545 
L 361.838362 136.794539 
L 360.018288 135.18406 
L 355.783287 131.924571 
L 350.94673 128.67903 
L 345.731436 125.49176 
L 334.99353 119.354438 
L 323.022861 112.573784 
L 318.265158 110.13698 
L 313.41806 107.836499 
L 308.497977 105.68506 
L 303.521426 103.695137 
L 298.505051 101.878936 
L 293.465624 100.248363 
L 288.420054 98.814969 
L 283.341247 97.580457 
L 275.432948 95.955765 
L 270.078945 95.026111 
L 264.704516 94.258902 
L 259.349496 93.686964 
L 254.054668 93.341557 
L 248.861421 93.251779 
L 243.811086 93.443874 
L 238.943718 93.940584 
L 234.542316 94.696747 
L 232.684171 95.172672 
L 230.717186 95.89098 
L 228.652453 96.843758 
L 226.504095 98.013666 
L 222.005792 100.903624 
L 217.288311 104.325501 
L 209.805348 109.887909 
L 204.449983 113.492275 
L 201.612384 115.154024 
L 198.636333 116.662821 
L 195.496665 117.961812 
L 192.175231 118.979919 
L 188.673209 119.632259 
L 185.195479 119.838952 
L 181.901947 119.656293 
L 178.702332 119.171437 
L 175.600933 118.429469 
L 172.593844 117.470892 
L 169.672859 116.330861 
L 166.828337 115.039775 
L 164.050946 113.624362 
L 158.666552 110.515453 
L 153.473418 107.180791 
L 138.936664 97.47292 
L 134.350012 94.785042 
L 124.484116 89.301314 
L 112.333378 82.286038 
L 88.337484 68.222387 
L 88.337484 68.222387 
" style="fill:none;stroke:#ffffff;stroke-linecap:square;"/>
   </g>
   <g id="line2d_17">
    <path clip-path="url(#p5ab2ba4783)" d="M 357.920248 295.488 
L 358.242797 273.289208 
L 358.861826 239.595464 
L 358.740767 233.741777 
L 358.182941 222.316806 
L 357.812364 214.07099 
L 357.729223 208.771278 
L 357.855665 203.659432 
L 358.251111 198.758984 
L 358.968198 194.086137 
L 359.399123 192.05515 
L 359.94723 190.140449 
L 360.768026 188.064477 
L 361.844606 185.857154 
L 363.149658 183.54572 
L 366.308643 178.694539 
L 371.859826 171.033574 
L 375.665483 165.71136 
L 377.488875 162.966719 
L 379.207719 160.141924 
L 380.777 157.20663 
L 382.138916 154.120231 
L 383.211574 150.837586 
L 383.876723 147.329329 
L 383.982516 143.623355 
L 383.450286 140.048957 
L 382.427335 136.850852 
L 381.030966 133.902787 
L 379.34178 131.184033 
L 377.417207 128.660695 
L 375.297332 126.298812 
L 373.011764 124.069674 
L 370.584696 121.950839 
L 368.037964 119.925412 
L 362.670224 116.108132 
L 357.081506 112.553054 
L 348.688542 107.644805 
L 328.257548 96.206839 
L 322.989957 93.612687 
L 317.622764 91.170363 
L 312.168613 88.892288 
L 306.640029 86.791136 
L 301.049413 84.879865 
L 295.409028 83.171758 
L 289.731007 81.680481 
L 284.138931 80.426877 
L 275.536661 78.767566 
L 269.639482 77.835748 
L 263.647606 77.090529 
L 257.589996 76.573695 
L 251.494808 76.328879 
L 245.389868 76.402218 
L 239.303588 76.843045 
L 236.276857 77.217697 
L 233.266547 77.704422 
L 230.031002 78.374518 
L 226.682663 79.337616 
L 223.507632 80.568139 
L 220.489086 82.007096 
L 217.607176 83.604921 
L 214.843116 85.318932 
L 209.608713 88.944695 
L 197.916171 97.54415 
L 193.851541 100.102897 
L 192.00237 101.082139 
L 190.301088 101.844334 
L 188.760116 102.393657 
L 187.372546 102.748084 
L 185.927772 102.920594 
L 184.274663 102.889143 
L 182.517118 102.672512 
L 180.652367 102.266235 
L 178.685843 101.670428 
L 176.627285 100.890555 
L 174.487862 99.936836 
L 170.008672 97.566004 
L 165.319003 94.694913 
L 157.983955 89.791227 
L 150.331017 84.654012 
L 145.029127 81.370806 
L 118.501013 66.27251 
L 96.82371 53.568 
L 96.82371 53.568 
" style="fill:none;stroke:#ffffff;stroke-linecap:square;"/>
   </g>
   <g id="patch_3">
    <path d="M 57.6 307.584 
L 57.6 41.472 
" style="fill:none;stroke:#000000;stroke-linecap:square;stroke-linejoin:miter;stroke-width:0.8;"/>
   </g>
   <g id="patch_4">
    <path d="M 414.72 307.584 
L 414.72 41.472 
" style="fill:none;stroke:#000000;stroke-linecap:square;stroke-linejoin:miter;stroke-width:0.8;"/>
   </g>
   <g id="patch_5">
    <path d="M 57.6 307.584 
L 414.72 307.584 
" style="fill:none;stroke:#000000;stroke-linecap:square;stroke-linejoin:miter;stroke-width:0.8;"/>
   </g>
   <g id="patch_6">
    <path d="M 57.6 41.472 
L 414.72 41.472 
" style="fill:none;stroke:#000000;stroke-linecap:square;stroke-linejoin:miter;stroke-width:0.8;"/>
   </g>
  </g>
 </g>
 <defs>
  <clipPath id="p5ab2ba4783">
   <rect height="266.112" width="357.12" x="57.6" y="41.472"/>
  </clipPath>
 </defs>
</svg>
