<?xml version="1.0" encoding="utf-8" standalone="no"?>
<!DOCTYPE svg PUBLIC "-//W3C//DTD SVG 1.1//EN"
  "http://www.w3.org/Graphics/SVG/1.1/DTD/svg11.dtd">
<!-- Created with matplotlib (https://matplotlib.org/) -->
<svg height="345.6pt" version="1.1" viewBox="0 0 460.8 345.6" width="460.8pt" xmlns="http://www.w3.org/2000/svg" xmlns:xlink="http://www.w3.org/1999/xlink">
 <metadata>
  <rdf:RDF xmlns:cc="http://creativecommons.org/ns#" xmlns:dc="http://purl.org/dc/elements/1.1/" xmlns:rdf="http://www.w3.org/1999/02/22-rdf-syntax-ns#">
   <cc:Work>
    <dc:type rdf:resource="http://purl.org/dc/dcmitype/StillImage"/>
    <dc:date>2021-07-05T21:28:05.928604</dc:date>
    <dc:format>image/svg+xml</dc:format>
    <dc:creator>
     <cc:Agent>
      <dc:title>Matplotlib v3.3.3, https://matplotlib.org/</dc:title>
     </cc:Agent>
    </dc:creator>
   </cc:Work>
  </rdf:RDF>
 </metadata>
 <defs>
  <style type="text/css">*{stroke-linecap:butt;stroke-linejoin:round;}</style>
 </defs>
 <g id="figure_1">
  <g id="patch_1">
   <path d="M 0 345.6 
L 460.8 345.6 
L 460.8 0 
L 0 0 
z
" style="fill:#ffffff;"/>
  </g>
  <g id="axes_1">
   <g id="patch_2">
    <path d="M 57.6 307.584 
L 414.72 307.584 
L 414.72 41.472 
L 57.6 41.472 
z
" style="fill:#7d9051;"/>
   </g>
   <g id="matplotlib.axis_1">
    <g id="xtick_1">
     <g id="line2d_1">
      <defs>
       <path d="M 0 0 
L 0 3.5 
" id="mb83a49a659" style="stroke:#000000;stroke-width:0.8;"/>
      </defs>
      <g>
       <use style="stroke:#000000;stroke-width:0.8;" x="60.8578" xlink:href="#mb83a49a659" y="307.584"/>
      </g>
     </g>
     <g id="text_1">
      <!-- −160 -->
      <g transform="translate(47.124207 322.182437)scale(0.1 -0.1)">
       <defs>
        <path d="M 10.59375 35.5 
L 73.1875 35.5 
L 73.1875 27.203125 
L 10.59375 27.203125 
z
" id="DejaVuSans-8722"/>
        <path d="M 12.40625 8.296875 
L 28.515625 8.296875 
L 28.515625 63.921875 
L 10.984375 60.40625 
L 10.984375 69.390625 
L 28.421875 72.90625 
L 38.28125 72.90625 
L 38.28125 8.296875 
L 54.390625 8.296875 
L 54.390625 0 
L 12.40625 0 
z
" id="DejaVuSans-49"/>
        <path d="M 33.015625 40.375 
Q 26.375 40.375 22.484375 35.828125 
Q 18.609375 31.296875 18.609375 23.390625 
Q 18.609375 15.53125 22.484375 10.953125 
Q 26.375 6.390625 33.015625 6.390625 
Q 39.65625 6.390625 43.53125 10.953125 
Q 47.40625 15.53125 47.40625 23.390625 
Q 47.40625 31.296875 43.53125 35.828125 
Q 39.65625 40.375 33.015625 40.375 
z
M 52.59375 71.296875 
L 52.59375 62.3125 
Q 48.875 64.0625 45.09375 64.984375 
Q 41.3125 65.921875 37.59375 65.921875 
Q 27.828125 65.921875 22.671875 59.328125 
Q 17.53125 52.734375 16.796875 39.40625 
Q 19.671875 43.65625 24.015625 45.921875 
Q 28.375 48.1875 33.59375 48.1875 
Q 44.578125 48.1875 50.953125 41.515625 
Q 57.328125 34.859375 57.328125 23.390625 
Q 57.328125 12.15625 50.6875 5.359375 
Q 44.046875 -1.421875 33.015625 -1.421875 
Q 20.359375 -1.421875 13.671875 8.265625 
Q 6.984375 17.96875 6.984375 36.375 
Q 6.984375 53.65625 15.1875 63.9375 
Q 23.390625 74.21875 37.203125 74.21875 
Q 40.921875 74.21875 44.703125 73.484375 
Q 48.484375 72.75 52.59375 71.296875 
z
" id="DejaVuSans-54"/>
        <path d="M 31.78125 66.40625 
Q 24.171875 66.40625 20.328125 58.90625 
Q 16.5 51.421875 16.5 36.375 
Q 16.5 21.390625 20.328125 13.890625 
Q 24.171875 6.390625 31.78125 6.390625 
Q 39.453125 6.390625 43.28125 13.890625 
Q 47.125 21.390625 47.125 36.375 
Q 47.125 51.421875 43.28125 58.90625 
Q 39.453125 66.40625 31.78125 66.40625 
z
M 31.78125 74.21875 
Q 44.046875 74.21875 50.515625 64.515625 
Q 56.984375 54.828125 56.984375 36.375 
Q 56.984375 17.96875 50.515625 8.265625 
Q 44.046875 -1.421875 31.78125 -1.421875 
Q 19.53125 -1.421875 13.0625 8.265625 
Q 6.59375 17.96875 6.59375 36.375 
Q 6.59375 54.828125 13.0625 64.515625 
Q 19.53125 74.21875 31.78125 74.21875 
z
" id="DejaVuSans-48"/>
       </defs>
       <use xlink:href="#DejaVuSans-8722"/>
       <use x="83.789062" xlink:href="#DejaVuSans-49"/>
       <use x="147.412109" xlink:href="#DejaVuSans-54"/>
       <use x="211.035156" xlink:href="#DejaVuSans-48"/>
      </g>
     </g>
    </g>
    <g id="xtick_2">
     <g id="line2d_2">
      <g>
       <use style="stroke:#000000;stroke-width:0.8;" x="101.396174" xlink:href="#mb83a49a659" y="307.584"/>
      </g>
     </g>
     <g id="text_2">
      <!-- −140 -->
      <g transform="translate(87.662581 322.182437)scale(0.1 -0.1)">
       <defs>
        <path d="M 37.796875 64.3125 
L 12.890625 25.390625 
L 37.796875 25.390625 
z
M 35.203125 72.90625 
L 47.609375 72.90625 
L 47.609375 25.390625 
L 58.015625 25.390625 
L 58.015625 17.1875 
L 47.609375 17.1875 
L 47.609375 0 
L 37.796875 0 
L 37.796875 17.1875 
L 4.890625 17.1875 
L 4.890625 26.703125 
z
" id="DejaVuSans-52"/>
       </defs>
       <use xlink:href="#DejaVuSans-8722"/>
       <use x="83.789062" xlink:href="#DejaVuSans-49"/>
       <use x="147.412109" xlink:href="#DejaVuSans-52"/>
       <use x="211.035156" xlink:href="#DejaVuSans-48"/>
      </g>
     </g>
    </g>
    <g id="xtick_3">
     <g id="line2d_3">
      <g>
       <use style="stroke:#000000;stroke-width:0.8;" x="141.934548" xlink:href="#mb83a49a659" y="307.584"/>
      </g>
     </g>
     <g id="text_3">
      <!-- −120 -->
      <g transform="translate(128.200954 322.182437)scale(0.1 -0.1)">
       <defs>
        <path d="M 19.1875 8.296875 
L 53.609375 8.296875 
L 53.609375 0 
L 7.328125 0 
L 7.328125 8.296875 
Q 12.9375 14.109375 22.625 23.890625 
Q 32.328125 33.6875 34.8125 36.53125 
Q 39.546875 41.84375 41.421875 45.53125 
Q 43.3125 49.21875 43.3125 52.78125 
Q 43.3125 58.59375 39.234375 62.25 
Q 35.15625 65.921875 28.609375 65.921875 
Q 23.96875 65.921875 18.8125 64.3125 
Q 13.671875 62.703125 7.8125 59.421875 
L 7.8125 69.390625 
Q 13.765625 71.78125 18.9375 73 
Q 24.125 74.21875 28.421875 74.21875 
Q 39.75 74.21875 46.484375 68.546875 
Q 53.21875 62.890625 53.21875 53.421875 
Q 53.21875 48.921875 51.53125 44.890625 
Q 49.859375 40.875 45.40625 35.40625 
Q 44.1875 33.984375 37.640625 27.21875 
Q 31.109375 20.453125 19.1875 8.296875 
z
" id="DejaVuSans-50"/>
       </defs>
       <use xlink:href="#DejaVuSans-8722"/>
       <use x="83.789062" xlink:href="#DejaVuSans-49"/>
       <use x="147.412109" xlink:href="#DejaVuSans-50"/>
       <use x="211.035156" xlink:href="#DejaVuSans-48"/>
      </g>
     </g>
    </g>
    <g id="xtick_4">
     <g id="line2d_4">
      <g>
       <use style="stroke:#000000;stroke-width:0.8;" x="182.472922" xlink:href="#mb83a49a659" y="307.584"/>
      </g>
     </g>
     <g id="text_4">
      <!-- −100 -->
      <g transform="translate(168.739328 322.182437)scale(0.1 -0.1)">
       <use xlink:href="#DejaVuSans-8722"/>
       <use x="83.789062" xlink:href="#DejaVuSans-49"/>
       <use x="147.412109" xlink:href="#DejaVuSans-48"/>
       <use x="211.035156" xlink:href="#DejaVuSans-48"/>
      </g>
     </g>
    </g>
    <g id="xtick_5">
     <g id="line2d_5">
      <g>
       <use style="stroke:#000000;stroke-width:0.8;" x="223.011296" xlink:href="#mb83a49a659" y="307.584"/>
      </g>
     </g>
     <g id="text_5">
      <!-- −80 -->
      <g transform="translate(212.458952 322.182437)scale(0.1 -0.1)">
       <defs>
        <path d="M 31.78125 34.625 
Q 24.75 34.625 20.71875 30.859375 
Q 16.703125 27.09375 16.703125 20.515625 
Q 16.703125 13.921875 20.71875 10.15625 
Q 24.75 6.390625 31.78125 6.390625 
Q 38.8125 6.390625 42.859375 10.171875 
Q 46.921875 13.96875 46.921875 20.515625 
Q 46.921875 27.09375 42.890625 30.859375 
Q 38.875 34.625 31.78125 34.625 
z
M 21.921875 38.8125 
Q 15.578125 40.375 12.03125 44.71875 
Q 8.5 49.078125 8.5 55.328125 
Q 8.5 64.0625 14.71875 69.140625 
Q 20.953125 74.21875 31.78125 74.21875 
Q 42.671875 74.21875 48.875 69.140625 
Q 55.078125 64.0625 55.078125 55.328125 
Q 55.078125 49.078125 51.53125 44.71875 
Q 48 40.375 41.703125 38.8125 
Q 48.828125 37.15625 52.796875 32.3125 
Q 56.78125 27.484375 56.78125 20.515625 
Q 56.78125 9.90625 50.3125 4.234375 
Q 43.84375 -1.421875 31.78125 -1.421875 
Q 19.734375 -1.421875 13.25 4.234375 
Q 6.78125 9.90625 6.78125 20.515625 
Q 6.78125 27.484375 10.78125 32.3125 
Q 14.796875 37.15625 21.921875 38.8125 
z
M 18.3125 54.390625 
Q 18.3125 48.734375 21.84375 45.5625 
Q 25.390625 42.390625 31.78125 42.390625 
Q 38.140625 42.390625 41.71875 45.5625 
Q 45.3125 48.734375 45.3125 54.390625 
Q 45.3125 60.0625 41.71875 63.234375 
Q 38.140625 66.40625 31.78125 66.40625 
Q 25.390625 66.40625 21.84375 63.234375 
Q 18.3125 60.0625 18.3125 54.390625 
z
" id="DejaVuSans-56"/>
       </defs>
       <use xlink:href="#DejaVuSans-8722"/>
       <use x="83.789062" xlink:href="#DejaVuSans-56"/>
       <use x="147.412109" xlink:href="#DejaVuSans-48"/>
      </g>
     </g>
    </g>
    <g id="xtick_6">
     <g id="line2d_6">
      <g>
       <use style="stroke:#000000;stroke-width:0.8;" x="263.549669" xlink:href="#mb83a49a659" y="307.584"/>
      </g>
     </g>
     <g id="text_6">
      <!-- −60 -->
      <g transform="translate(252.997326 322.182437)scale(0.1 -0.1)">
       <use xlink:href="#DejaVuSans-8722"/>
       <use x="83.789062" xlink:href="#DejaVuSans-54"/>
       <use x="147.412109" xlink:href="#DejaVuSans-48"/>
      </g>
     </g>
    </g>
    <g id="xtick_7">
     <g id="line2d_7">
      <g>
       <use style="stroke:#000000;stroke-width:0.8;" x="304.088043" xlink:href="#mb83a49a659" y="307.584"/>
      </g>
     </g>
     <g id="text_7">
      <!-- −40 -->
      <g transform="translate(293.535699 322.182437)scale(0.1 -0.1)">
       <use xlink:href="#DejaVuSans-8722"/>
       <use x="83.789062" xlink:href="#DejaVuSans-52"/>
       <use x="147.412109" xlink:href="#DejaVuSans-48"/>
      </g>
     </g>
    </g>
    <g id="xtick_8">
     <g id="line2d_8">
      <g>
       <use style="stroke:#000000;stroke-width:0.8;" x="344.626417" xlink:href="#mb83a49a659" y="307.584"/>
      </g>
     </g>
     <g id="text_8">
      <!-- −20 -->
      <g transform="translate(334.074073 322.182437)scale(0.1 -0.1)">
       <use xlink:href="#DejaVuSans-8722"/>
       <use x="83.789062" xlink:href="#DejaVuSans-50"/>
       <use x="147.412109" xlink:href="#DejaVuSans-48"/>
      </g>
     </g>
    </g>
    <g id="xtick_9">
     <g id="line2d_9">
      <g>
       <use style="stroke:#000000;stroke-width:0.8;" x="385.164791" xlink:href="#mb83a49a659" y="307.584"/>
      </g>
     </g>
     <g id="text_9">
      <!-- 0 -->
      <g transform="translate(381.983541 322.182437)scale(0.1 -0.1)">
       <use xlink:href="#DejaVuSans-48"/>
      </g>
     </g>
    </g>
   </g>
   <g id="matplotlib.axis_2">
    <g id="ytick_1">
     <g id="line2d_10">
      <defs>
       <path d="M 0 0 
L -3.5 0 
" id="m381b8f7b7e" style="stroke:#000000;stroke-width:0.8;"/>
      </defs>
      <g>
       <use style="stroke:#000000;stroke-width:0.8;" x="57.6" xlink:href="#m381b8f7b7e" y="276.015466"/>
      </g>
     </g>
     <g id="text_10">
      <!-- −20 -->
      <g transform="translate(29.495313 279.814685)scale(0.1 -0.1)">
       <use xlink:href="#DejaVuSans-8722"/>
       <use x="83.789062" xlink:href="#DejaVuSans-50"/>
       <use x="147.412109" xlink:href="#DejaVuSans-48"/>
      </g>
     </g>
    </g>
    <g id="ytick_2">
     <g id="line2d_11">
      <g>
       <use style="stroke:#000000;stroke-width:0.8;" x="57.6" xlink:href="#m381b8f7b7e" y="235.477092"/>
      </g>
     </g>
     <g id="text_11">
      <!-- 0 -->
      <g transform="translate(44.2375 239.276311)scale(0.1 -0.1)">
       <use xlink:href="#DejaVuSans-48"/>
      </g>
     </g>
    </g>
    <g id="ytick_3">
     <g id="line2d_12">
      <g>
       <use style="stroke:#000000;stroke-width:0.8;" x="57.6" xlink:href="#m381b8f7b7e" y="194.938718"/>
      </g>
     </g>
     <g id="text_12">
      <!-- 20 -->
      <g transform="translate(37.875 198.737937)scale(0.1 -0.1)">
       <use xlink:href="#DejaVuSans-50"/>
       <use x="63.623047" xlink:href="#DejaVuSans-48"/>
      </g>
     </g>
    </g>
    <g id="ytick_4">
     <g id="line2d_13">
      <g>
       <use style="stroke:#000000;stroke-width:0.8;" x="57.6" xlink:href="#m381b8f7b7e" y="154.400345"/>
      </g>
     </g>
     <g id="text_13">
      <!-- 40 -->
      <g transform="translate(37.875 158.199563)scale(0.1 -0.1)">
       <use xlink:href="#DejaVuSans-52"/>
       <use x="63.623047" xlink:href="#DejaVuSans-48"/>
      </g>
     </g>
    </g>
    <g id="ytick_5">
     <g id="line2d_14">
      <g>
       <use style="stroke:#000000;stroke-width:0.8;" x="57.6" xlink:href="#m381b8f7b7e" y="113.861971"/>
      </g>
     </g>
     <g id="text_14">
      <!-- 60 -->
      <g transform="translate(37.875 117.66119)scale(0.1 -0.1)">
       <use xlink:href="#DejaVuSans-54"/>
       <use x="63.623047" xlink:href="#DejaVuSans-48"/>
      </g>
     </g>
    </g>
    <g id="ytick_6">
     <g id="line2d_15">
      <g>
       <use style="stroke:#000000;stroke-width:0.8;" x="57.6" xlink:href="#m381b8f7b7e" y="73.323597"/>
      </g>
     </g>
     <g id="text_15">
      <!-- 80 -->
      <g transform="translate(37.875 77.122816)scale(0.1 -0.1)">
       <use xlink:href="#DejaVuSans-56"/>
       <use x="63.623047" xlink:href="#DejaVuSans-48"/>
      </g>
     </g>
    </g>
   </g>
   <g id="line2d_16">
    <path clip-path="url(#p69bc4aafc7)" d="M 385.164791 235.477092 
L 385.474751 214.143811 
L 386.161899 182.092595 
L 386.718374 176.390818 
L 387.569061 170.455015 
L 389.446963 158.442993 
L 390.121122 152.647606 
L 390.314774 149.864 
L 390.383385 147.179856 
L 390.304891 144.612725 
L 390.057224 142.18016 
L 389.61832 139.899712 
L 388.966112 137.788934 
L 388.078534 135.865377 
L 386.933521 134.146593 
L 385.488506 132.575338 
L 383.736532 131.086283 
L 381.708952 129.684859 
L 379.437116 128.376497 
L 376.952376 127.166628 
L 374.286084 126.06068 
L 371.469591 125.064085 
L 368.534248 124.182273 
L 365.511406 123.420674 
L 362.432418 122.784719 
L 359.328634 122.279838 
L 356.231405 121.911461 
L 353.172084 121.685019 
L 350.182021 121.605942 
L 347.292567 121.67966 
L 344.535075 121.911603 
L 341.940896 122.307203 
L 339.54138 122.871889 
L 337.36788 123.611091 
L 335.404367 124.63853 
L 333.601218 126.036217 
L 331.939391 127.762024 
L 330.399845 129.773819 
L 328.963538 132.029472 
L 327.611427 134.486854 
L 325.08363 139.838283 
L 320.200563 151.108153 
L 318.904662 153.79799 
L 317.540624 156.352513 
L 316.089407 158.729594 
L 314.53197 160.887102 
L 312.84927 162.782906 
L 311.022266 164.374877 
L 309.031916 165.620885 
L 306.890847 166.541141 
L 304.631448 167.2013 
L 302.264319 167.627391 
L 299.800063 167.845445 
L 297.24928 167.881492 
L 294.622572 167.761562 
L 289.183787 167.157894 
L 283.568519 166.242685 
L 272.147774 164.310612 
L 266.51192 163.710234 
L 263.749728 163.592566 
L 261.038826 163.631286 
L 258.389818 163.852424 
L 255.781101 164.250303 
L 253.183312 164.789656 
L 248.016333 166.219373 
L 242.880518 167.994746 
L 235.216938 170.984728 
L 227.576439 173.926534 
L 222.481659 175.61626 
L 219.930799 176.324619 
L 217.376232 176.917505 
L 214.816913 177.376564 
L 212.251795 177.683442 
L 209.679835 177.819786 
L 207.084543 177.730094 
L 204.454333 177.392949 
L 201.795515 176.841127 
L 199.114398 176.107404 
L 193.710504 174.225356 
L 188.293125 172.009011 
L 180.252185 168.631263 
L 175.021919 166.726327 
L 172.464822 165.976256 
L 169.954829 165.404815 
L 167.498248 165.044783 
L 165.101388 164.928933 
L 162.77056 165.090042 
L 160.512072 165.560886 
L 158.349013 166.387133 
L 156.291864 167.565457 
L 154.328022 169.055143 
L 152.444883 170.815477 
L 150.629843 172.805743 
L 148.870298 174.985227 
L 145.467281 179.748986 
L 138.772635 189.755653 
L 137.048658 192.119638 
L 135.279348 194.34712 
L 133.452101 196.397385 
L 131.554313 198.229718 
L 129.573381 199.803402 
L 127.496702 201.077724 
L 125.311671 202.011968 
L 123.028213 202.642906 
L 120.668986 203.047392 
L 118.240483 203.244837 
L 115.7492 203.254649 
L 113.201631 203.096241 
L 110.604271 202.789021 
L 105.286153 201.805789 
L 99.846804 200.460234 
L 88.812236 197.303281 
L 83.32093 195.802445 
L 77.916219 194.560411 
L 75.262572 194.08497 
L 75.262572 194.08497 
" style="fill:none;stroke:#fea952;stroke-linecap:square;"/>
   </g>
   <g id="line2d_17">
    <path clip-path="url(#p69bc4aafc7)" d="M 377.057491 235.399089 
L 377.368554 213.988988 
L 378.081293 181.430635 
L 378.684201 175.301577 
L 379.562644 169.177648 
L 381.405771 157.40683 
L 382.032996 152.084926 
L 382.279498 147.427647 
L 382.095666 143.712474 
L 381.604355 141.185834 
L 381.331015 140.360415 
L 380.965811 139.634837 
L 380.237834 138.753108 
L 379.126647 137.755867 
L 377.662731 136.710704 
L 375.88773 135.665959 
L 373.846028 134.655619 
L 371.581562 133.703974 
L 369.136934 132.828948 
L 366.553437 132.044256 
L 363.87141 131.36075 
L 361.130682 130.787211 
L 358.371076 130.330768 
L 355.632935 129.997018 
L 352.957737 129.78986 
L 350.388803 129.710979 
L 347.972136 129.758804 
L 345.757326 129.92662 
L 343.798165 130.199284 
L 341.126831 130.794731 
L 340.371448 131.046532 
L 339.441443 131.659931 
L 338.378065 132.689282 
L 337.238754 134.128554 
L 336.066939 135.937934 
L 334.886942 138.064742 
L 332.526544 143.053469 
L 327.504748 154.62714 
L 326.056602 157.616908 
L 324.460625 160.5772 
L 322.663233 163.475034 
L 320.595626 166.269151 
L 318.175585 168.895578 
L 315.324386 171.247006 
L 312.233489 173.069664 
L 309.164701 174.323428 
L 306.067772 175.180734 
L 302.978948 175.70351 
L 299.914626 175.95231 
L 296.879487 175.980729 
L 293.873234 175.834534 
L 287.944474 175.170291 
L 282.140798 174.223663 
L 271.147088 172.356295 
L 266.16685 171.810562 
L 263.865518 171.699414 
L 261.713305 171.710857 
L 259.612256 171.867412 
L 257.429269 172.188686 
L 252.90721 173.223227 
L 248.187289 174.702874 
L 243.284614 176.513053 
L 230.235896 181.585625 
L 224.651024 183.428317 
L 221.763779 184.222377 
L 218.807642 184.897822 
L 215.780008 185.426833 
L 212.680995 185.779748 
L 209.399805 185.922624 
L 206.053721 185.771972 
L 202.806744 185.331453 
L 199.655433 184.661257 
L 196.592183 183.81278 
L 193.609572 182.830546 
L 187.868919 180.621123 
L 174.97651 175.286938 
L 170.665034 173.881643 
L 168.77914 173.426794 
L 167.106829 173.143004 
L 165.660465 173.017309 
L 163.405166 173.134815 
L 162.37879 173.422422 
L 161.191773 174.024968 
L 159.864636 174.978006 
L 158.435518 176.278688 
L 156.938279 177.898682 
L 155.395695 179.797043 
L 152.21313 184.246531 
L 145.323384 194.532899 
L 143.397273 197.162402 
L 141.332074 199.74146 
L 139.083624 202.230081 
L 136.597494 204.578002 
L 133.813817 206.713764 
L 130.684136 208.532565 
L 127.470976 209.826813 
L 124.398272 210.633984 
L 121.325996 211.128402 
L 118.272419 211.352448 
L 115.246035 211.346696 
L 112.249282 211.147789 
L 109.281661 210.78809 
L 103.428982 209.697893 
L 97.685967 208.274656 
L 86.620489 205.109089 
L 81.398319 203.678862 
L 76.486374 202.541008 
L 73.832727 202.065567 
L 73.832727 202.065567 
" style="fill:none;stroke:#ffffff;stroke-linecap:square;"/>
   </g>
   <g id="line2d_18">
    <path clip-path="url(#p69bc4aafc7)" d="M 393.27209 235.555096 
L 393.580947 214.298634 
L 394.242506 182.754554 
L 394.752548 177.480059 
L 395.575479 171.732382 
L 397.488154 159.479155 
L 398.209248 153.210285 
L 398.419801 150.071179 
L 398.487273 146.932065 
L 398.370868 143.791505 
L 398.018782 140.647846 
L 397.364636 137.506183 
L 396.327869 134.392034 
L 394.826054 131.370338 
L 392.901232 128.658349 
L 390.739177 126.397568 
L 388.346417 124.416699 
L 385.755172 122.659015 
L 382.986502 121.087036 
L 380.058725 119.677636 
L 376.990607 118.417386 
L 373.802248 117.299222 
L 370.515059 116.32029 
L 367.151403 115.480599 
L 363.734154 114.782228 
L 360.286192 114.228908 
L 356.829875 113.825905 
L 353.38643 113.580178 
L 349.975239 113.500904 
L 346.612999 113.600515 
L 343.312825 113.896586 
L 340.083627 114.415122 
L 336.930826 115.195992 
L 333.608929 116.427451 
L 330.437286 118.230527 
L 327.760993 120.412503 
L 325.500718 122.834765 
L 323.560937 125.419083 
L 321.860136 128.12101 
L 320.335913 130.908966 
L 317.640717 136.623096 
L 311.752722 149.979071 
L 310.620623 152.127827 
L 309.515581 153.984154 
L 308.468313 155.505052 
L 306.720146 157.502749 
L 305.830343 158.172105 
L 304.616994 158.758855 
L 303.195123 159.221866 
L 301.54969 159.551272 
L 299.685499 159.73858 
L 297.619073 159.782255 
L 295.37191 159.68859 
L 290.423101 159.145498 
L 284.99624 158.261707 
L 276.210571 156.724437 
L 270.029454 155.882143 
L 266.85699 155.609906 
L 263.633938 155.485718 
L 260.364348 155.551715 
L 257.16738 155.837436 
L 254.132933 156.311919 
L 251.172674 156.935248 
L 248.283598 157.681034 
L 242.702816 159.443184 
L 237.358755 161.419288 
L 224.916982 166.267442 
L 220.312295 167.804202 
L 215.944822 168.937188 
L 213.853817 169.326294 
L 209.959866 169.716949 
L 208.115365 169.688217 
L 206.101923 169.454446 
L 203.935598 169.020997 
L 201.636613 168.402028 
L 196.718528 166.696333 
L 191.475963 164.552207 
L 183.15404 161.060687 
L 177.303988 158.946446 
L 174.26461 158.070868 
L 171.130518 157.382837 
L 167.889666 156.946562 
L 164.542311 156.840557 
L 161.115869 157.153016 
L 157.618977 157.986958 
L 154.319236 159.351844 
L 151.391956 161.105945 
L 148.791409 163.132281 
L 146.454247 165.352266 
L 144.321406 167.712805 
L 142.3449 170.17341 
L 138.721432 175.251441 
L 132.221886 184.978407 
L 129.226622 188.952781 
L 127.820577 190.56469 
L 126.511132 191.881433 
L 125.332946 192.89304 
L 124.309268 193.622883 
L 123.152366 194.197124 
L 121.658155 194.651828 
L 120.011976 194.966382 
L 118.208548 195.137225 
L 116.252366 195.162603 
L 114.15398 195.044693 
L 111.92688 194.789953 
L 107.143323 193.913685 
L 102.00764 192.645813 
L 91.003983 189.497473 
L 85.243542 187.926027 
L 79.346063 186.579813 
L 76.692416 186.104372 
L 76.692416 186.104372 
" style="fill:none;stroke:#ffffff;stroke-linecap:square;"/>
   </g>
   <g id="patch_3">
    <path d="M 57.6 307.584 
L 57.6 41.472 
" style="fill:none;stroke:#000000;stroke-linecap:square;stroke-linejoin:miter;stroke-width:0.8;"/>
   </g>
   <g id="patch_4">
    <path d="M 414.72 307.584 
L 414.72 41.472 
" style="fill:none;stroke:#000000;stroke-linecap:square;stroke-linejoin:miter;stroke-width:0.8;"/>
   </g>
   <g id="patch_5">
    <path d="M 57.6 307.584 
L 414.72 307.584 
" style="fill:none;stroke:#000000;stroke-linecap:square;stroke-linejoin:miter;stroke-width:0.8;"/>
   </g>
   <g id="patch_6">
    <path d="M 57.6 41.472 
L 414.72 41.472 
" style="fill:none;stroke:#000000;stroke-linecap:square;stroke-linejoin:miter;stroke-width:0.8;"/>
   </g>
  </g>
 </g>
 <defs>
  <clipPath id="p69bc4aafc7">
   <rect height="266.112" width="357.12" x="57.6" y="41.472"/>
  </clipPath>
 </defs>
</svg>
