<?xml version="1.0" encoding="utf-8" standalone="no"?>
<!DOCTYPE svg PUBLIC "-//W3C//DTD SVG 1.1//EN"
  "http://www.w3.org/Graphics/SVG/1.1/DTD/svg11.dtd">
<!-- Created with matplotlib (https://matplotlib.org/) -->
<svg height="345.6pt" version="1.1" viewBox="0 0 460.8 345.6" width="460.8pt" xmlns="http://www.w3.org/2000/svg" xmlns:xlink="http://www.w3.org/1999/xlink">
 <metadata>
  <rdf:RDF xmlns:cc="http://creativecommons.org/ns#" xmlns:dc="http://purl.org/dc/elements/1.1/" xmlns:rdf="http://www.w3.org/1999/02/22-rdf-syntax-ns#">
   <cc:Work>
    <dc:type rdf:resource="http://purl.org/dc/dcmitype/StillImage"/>
    <dc:date>2021-05-27T14:39:15.882335</dc:date>
    <dc:format>image/svg+xml</dc:format>
    <dc:creator>
     <cc:Agent>
      <dc:title>Matplotlib v3.3.3, https://matplotlib.org/</dc:title>
     </cc:Agent>
    </dc:creator>
   </cc:Work>
  </rdf:RDF>
 </metadata>
 <defs>
  <style type="text/css">*{stroke-linecap:butt;stroke-linejoin:round;}</style>
 </defs>
 <g id="figure_1">
  <g id="patch_1">
   <path d="M 0 345.6 
L 460.8 345.6 
L 460.8 0 
L 0 0 
z
" style="fill:#ffffff;"/>
  </g>
  <g id="axes_1">
   <g id="patch_2">
    <path d="M 57.6 307.584 
L 414.72 307.584 
L 414.72 41.472 
L 57.6 41.472 
z
" style="fill:#7d9051;"/>
   </g>
   <g id="matplotlib.axis_1">
    <g id="xtick_1">
     <g id="line2d_1">
      <defs>
       <path d="M 0 0 
L 0 3.5 
" id="m8c0503f1c9" style="stroke:#000000;stroke-width:0.8;"/>
      </defs>
      <g>
       <use style="stroke:#000000;stroke-width:0.8;" x="63.848813" xlink:href="#m8c0503f1c9" y="307.584"/>
      </g>
     </g>
     <g id="text_1">
      <!-- −100 -->
      <g transform="translate(50.115219 322.182437)scale(0.1 -0.1)">
       <defs>
        <path d="M 10.59375 35.5 
L 73.1875 35.5 
L 73.1875 27.203125 
L 10.59375 27.203125 
z
" id="DejaVuSans-8722"/>
        <path d="M 12.40625 8.296875 
L 28.515625 8.296875 
L 28.515625 63.921875 
L 10.984375 60.40625 
L 10.984375 69.390625 
L 28.421875 72.90625 
L 38.28125 72.90625 
L 38.28125 8.296875 
L 54.390625 8.296875 
L 54.390625 0 
L 12.40625 0 
z
" id="DejaVuSans-49"/>
        <path d="M 31.78125 66.40625 
Q 24.171875 66.40625 20.328125 58.90625 
Q 16.5 51.421875 16.5 36.375 
Q 16.5 21.390625 20.328125 13.890625 
Q 24.171875 6.390625 31.78125 6.390625 
Q 39.453125 6.390625 43.28125 13.890625 
Q 47.125 21.390625 47.125 36.375 
Q 47.125 51.421875 43.28125 58.90625 
Q 39.453125 66.40625 31.78125 66.40625 
z
M 31.78125 74.21875 
Q 44.046875 74.21875 50.515625 64.515625 
Q 56.984375 54.828125 56.984375 36.375 
Q 56.984375 17.96875 50.515625 8.265625 
Q 44.046875 -1.421875 31.78125 -1.421875 
Q 19.53125 -1.421875 13.0625 8.265625 
Q 6.59375 17.96875 6.59375 36.375 
Q 6.59375 54.828125 13.0625 64.515625 
Q 19.53125 74.21875 31.78125 74.21875 
z
" id="DejaVuSans-48"/>
       </defs>
       <use xlink:href="#DejaVuSans-8722"/>
       <use x="83.789062" xlink:href="#DejaVuSans-49"/>
       <use x="147.412109" xlink:href="#DejaVuSans-48"/>
       <use x="211.035156" xlink:href="#DejaVuSans-48"/>
      </g>
     </g>
    </g>
    <g id="xtick_2">
     <g id="line2d_2">
      <g>
       <use style="stroke:#000000;stroke-width:0.8;" x="127.559443" xlink:href="#m8c0503f1c9" y="307.584"/>
      </g>
     </g>
     <g id="text_2">
      <!-- −50 -->
      <g transform="translate(117.007099 322.182437)scale(0.1 -0.1)">
       <defs>
        <path d="M 10.796875 72.90625 
L 49.515625 72.90625 
L 49.515625 64.59375 
L 19.828125 64.59375 
L 19.828125 46.734375 
Q 21.96875 47.46875 24.109375 47.828125 
Q 26.265625 48.1875 28.421875 48.1875 
Q 40.625 48.1875 47.75 41.5 
Q 54.890625 34.8125 54.890625 23.390625 
Q 54.890625 11.625 47.5625 5.09375 
Q 40.234375 -1.421875 26.90625 -1.421875 
Q 22.3125 -1.421875 17.546875 -0.640625 
Q 12.796875 0.140625 7.71875 1.703125 
L 7.71875 11.625 
Q 12.109375 9.234375 16.796875 8.0625 
Q 21.484375 6.890625 26.703125 6.890625 
Q 35.15625 6.890625 40.078125 11.328125 
Q 45.015625 15.765625 45.015625 23.390625 
Q 45.015625 31 40.078125 35.4375 
Q 35.15625 39.890625 26.703125 39.890625 
Q 22.75 39.890625 18.8125 39.015625 
Q 14.890625 38.140625 10.796875 36.28125 
z
" id="DejaVuSans-53"/>
       </defs>
       <use xlink:href="#DejaVuSans-8722"/>
       <use x="83.789062" xlink:href="#DejaVuSans-53"/>
       <use x="147.412109" xlink:href="#DejaVuSans-48"/>
      </g>
     </g>
    </g>
    <g id="xtick_3">
     <g id="line2d_3">
      <g>
       <use style="stroke:#000000;stroke-width:0.8;" x="191.270072" xlink:href="#m8c0503f1c9" y="307.584"/>
      </g>
     </g>
     <g id="text_3">
      <!-- 0 -->
      <g transform="translate(188.088822 322.182437)scale(0.1 -0.1)">
       <use xlink:href="#DejaVuSans-48"/>
      </g>
     </g>
    </g>
    <g id="xtick_4">
     <g id="line2d_4">
      <g>
       <use style="stroke:#000000;stroke-width:0.8;" x="254.980702" xlink:href="#m8c0503f1c9" y="307.584"/>
      </g>
     </g>
     <g id="text_4">
      <!-- 50 -->
      <g transform="translate(248.618202 322.182437)scale(0.1 -0.1)">
       <use xlink:href="#DejaVuSans-53"/>
       <use x="63.623047" xlink:href="#DejaVuSans-48"/>
      </g>
     </g>
    </g>
    <g id="xtick_5">
     <g id="line2d_5">
      <g>
       <use style="stroke:#000000;stroke-width:0.8;" x="318.691331" xlink:href="#m8c0503f1c9" y="307.584"/>
      </g>
     </g>
     <g id="text_5">
      <!-- 100 -->
      <g transform="translate(309.147581 322.182437)scale(0.1 -0.1)">
       <use xlink:href="#DejaVuSans-49"/>
       <use x="63.623047" xlink:href="#DejaVuSans-48"/>
       <use x="127.246094" xlink:href="#DejaVuSans-48"/>
      </g>
     </g>
    </g>
    <g id="xtick_6">
     <g id="line2d_6">
      <g>
       <use style="stroke:#000000;stroke-width:0.8;" x="382.401961" xlink:href="#m8c0503f1c9" y="307.584"/>
      </g>
     </g>
     <g id="text_6">
      <!-- 150 -->
      <g transform="translate(372.858211 322.182437)scale(0.1 -0.1)">
       <use xlink:href="#DejaVuSans-49"/>
       <use x="63.623047" xlink:href="#DejaVuSans-53"/>
       <use x="127.246094" xlink:href="#DejaVuSans-48"/>
      </g>
     </g>
    </g>
   </g>
   <g id="matplotlib.axis_2">
    <g id="ytick_1">
     <g id="line2d_7">
      <defs>
       <path d="M 0 0 
L -3.5 0 
" id="mcd7abdc5d8" style="stroke:#000000;stroke-width:0.8;"/>
      </defs>
      <g>
       <use style="stroke:#000000;stroke-width:0.8;" x="57.6" xlink:href="#mcd7abdc5d8" y="295.438964"/>
      </g>
     </g>
     <g id="text_7">
      <!-- 0 -->
      <g transform="translate(44.2375 299.238182)scale(0.1 -0.1)">
       <use xlink:href="#DejaVuSans-48"/>
      </g>
     </g>
    </g>
    <g id="ytick_2">
     <g id="line2d_8">
      <g>
       <use style="stroke:#000000;stroke-width:0.8;" x="57.6" xlink:href="#mcd7abdc5d8" y="263.583649"/>
      </g>
     </g>
     <g id="text_8">
      <!-- 25 -->
      <g transform="translate(37.875 267.382867)scale(0.1 -0.1)">
       <defs>
        <path d="M 19.1875 8.296875 
L 53.609375 8.296875 
L 53.609375 0 
L 7.328125 0 
L 7.328125 8.296875 
Q 12.9375 14.109375 22.625 23.890625 
Q 32.328125 33.6875 34.8125 36.53125 
Q 39.546875 41.84375 41.421875 45.53125 
Q 43.3125 49.21875 43.3125 52.78125 
Q 43.3125 58.59375 39.234375 62.25 
Q 35.15625 65.921875 28.609375 65.921875 
Q 23.96875 65.921875 18.8125 64.3125 
Q 13.671875 62.703125 7.8125 59.421875 
L 7.8125 69.390625 
Q 13.765625 71.78125 18.9375 73 
Q 24.125 74.21875 28.421875 74.21875 
Q 39.75 74.21875 46.484375 68.546875 
Q 53.21875 62.890625 53.21875 53.421875 
Q 53.21875 48.921875 51.53125 44.890625 
Q 49.859375 40.875 45.40625 35.40625 
Q 44.1875 33.984375 37.640625 27.21875 
Q 31.109375 20.453125 19.1875 8.296875 
z
" id="DejaVuSans-50"/>
       </defs>
       <use xlink:href="#DejaVuSans-50"/>
       <use x="63.623047" xlink:href="#DejaVuSans-53"/>
      </g>
     </g>
    </g>
    <g id="ytick_3">
     <g id="line2d_9">
      <g>
       <use style="stroke:#000000;stroke-width:0.8;" x="57.6" xlink:href="#mcd7abdc5d8" y="231.728334"/>
      </g>
     </g>
     <g id="text_9">
      <!-- 50 -->
      <g transform="translate(37.875 235.527553)scale(0.1 -0.1)">
       <use xlink:href="#DejaVuSans-53"/>
       <use x="63.623047" xlink:href="#DejaVuSans-48"/>
      </g>
     </g>
    </g>
    <g id="ytick_4">
     <g id="line2d_10">
      <g>
       <use style="stroke:#000000;stroke-width:0.8;" x="57.6" xlink:href="#mcd7abdc5d8" y="199.873019"/>
      </g>
     </g>
     <g id="text_10">
      <!-- 75 -->
      <g transform="translate(37.875 203.672238)scale(0.1 -0.1)">
       <defs>
        <path d="M 8.203125 72.90625 
L 55.078125 72.90625 
L 55.078125 68.703125 
L 28.609375 0 
L 18.3125 0 
L 43.21875 64.59375 
L 8.203125 64.59375 
z
" id="DejaVuSans-55"/>
       </defs>
       <use xlink:href="#DejaVuSans-55"/>
       <use x="63.623047" xlink:href="#DejaVuSans-53"/>
      </g>
     </g>
    </g>
    <g id="ytick_5">
     <g id="line2d_11">
      <g>
       <use style="stroke:#000000;stroke-width:0.8;" x="57.6" xlink:href="#mcd7abdc5d8" y="168.017704"/>
      </g>
     </g>
     <g id="text_11">
      <!-- 100 -->
      <g transform="translate(31.5125 171.816923)scale(0.1 -0.1)">
       <use xlink:href="#DejaVuSans-49"/>
       <use x="63.623047" xlink:href="#DejaVuSans-48"/>
       <use x="127.246094" xlink:href="#DejaVuSans-48"/>
      </g>
     </g>
    </g>
    <g id="ytick_6">
     <g id="line2d_12">
      <g>
       <use style="stroke:#000000;stroke-width:0.8;" x="57.6" xlink:href="#mcd7abdc5d8" y="136.16239"/>
      </g>
     </g>
     <g id="text_12">
      <!-- 125 -->
      <g transform="translate(31.5125 139.961608)scale(0.1 -0.1)">
       <use xlink:href="#DejaVuSans-49"/>
       <use x="63.623047" xlink:href="#DejaVuSans-50"/>
       <use x="127.246094" xlink:href="#DejaVuSans-53"/>
      </g>
     </g>
    </g>
    <g id="ytick_7">
     <g id="line2d_13">
      <g>
       <use style="stroke:#000000;stroke-width:0.8;" x="57.6" xlink:href="#mcd7abdc5d8" y="104.307075"/>
      </g>
     </g>
     <g id="text_13">
      <!-- 150 -->
      <g transform="translate(31.5125 108.106294)scale(0.1 -0.1)">
       <use xlink:href="#DejaVuSans-49"/>
       <use x="63.623047" xlink:href="#DejaVuSans-53"/>
       <use x="127.246094" xlink:href="#DejaVuSans-48"/>
      </g>
     </g>
    </g>
    <g id="ytick_8">
     <g id="line2d_14">
      <g>
       <use style="stroke:#000000;stroke-width:0.8;" x="57.6" xlink:href="#mcd7abdc5d8" y="72.45176"/>
      </g>
     </g>
     <g id="text_14">
      <!-- 175 -->
      <g transform="translate(31.5125 76.250979)scale(0.1 -0.1)">
       <use xlink:href="#DejaVuSans-49"/>
       <use x="63.623047" xlink:href="#DejaVuSans-55"/>
       <use x="127.246094" xlink:href="#DejaVuSans-53"/>
      </g>
     </g>
    </g>
   </g>
   <g id="line2d_15">
    <path clip-path="url(#pd846c6577d)" d="M 191.270072 295.438964 
L 191.529851 278.675275 
L 191.827471 258.546577 
L 191.598473 241.705221 
L 191.833743 236.698243 
L 192.158463 233.385346 
L 193.147725 226.732225 
L 194.358423 219.949457 
L 195.516436 214.911134 
L 196.453652 211.631189 
L 197.551758 208.449065 
L 198.835375 205.394479 
L 200.329123 202.49715 
L 201.162491 201.116744 
L 202.098936 199.801546 
L 203.169336 198.561518 
L 205.643242 196.27079 
L 208.446687 194.172204 
L 212.96891 191.226312 
L 217.459038 188.305738 
L 220.205422 186.25216 
L 222.593737 184.028946 
L 223.610643 182.831114 
L 224.486461 181.563739 
L 225.204002 180.217777 
L 225.76101 178.798531 
L 226.176108 177.320844 
L 226.463415 175.789985 
L 226.711147 172.589816 
L 226.617176 169.240156 
L 226.082653 164.027543 
L 225.228398 156.947436 
L 224.994788 153.446491 
L 225.040818 150.027797 
L 225.619999 144.986967 
L 226.732236 136.161049 
L 227.673643 130.901579 
L 228.508993 127.535957 
L 229.562928 124.353254 
L 230.880353 121.413787 
L 231.651907 120.054115 
L 232.506173 118.777869 
L 233.448764 117.592591 
L 234.541407 116.529282 
L 235.825459 115.603122 
L 237.275978 114.797912 
L 238.868024 114.097454 
L 242.376929 112.945997 
L 246.152643 112.019164 
L 253.706373 110.321012 
L 257.085327 109.290516 
L 258.588032 108.673219 
L 259.932966 107.966289 
L 261.095189 107.15353 
L 262.04976 106.218742 
L 262.771736 105.145728 
L 263.227259 103.927743 
L 263.419553 102.578743 
L 263.379305 101.113573 
L 263.137199 99.547081 
L 262.72392 97.894112 
L 261.506587 94.388131 
L 259.163924 88.851748 
L 257.615702 85.149092 
L 256.364717 81.575616 
L 255.927402 79.874437 
L 255.656451 78.250092 
L 255.582551 76.717428 
L 255.736387 75.291291 
L 256.148644 73.986528 
L 256.792252 72.787847 
L 257.609791 71.665761 
L 258.586417 70.61382 
L 259.707288 69.625572 
L 262.322388 67.814356 
L 265.336343 66.180511 
L 268.630408 64.672434 
L 282.232826 58.865753 
L 283.736155 58.058871 
L 283.736155 58.058871 
" style="fill:none;stroke:#fea952;stroke-linecap:square;"/>
   </g>
   <g id="line2d_16">
    <path clip-path="url(#pd846c6577d)" d="M 186.173458 295.389927 
L 186.434022 278.573266 
L 186.73134 258.632158 
L 186.503865 241.554069 
L 186.755761 236.260089 
L 187.107891 232.700065 
L 188.11749 225.910875 
L 189.371627 218.896008 
L 190.599135 213.570224 
L 191.61148 210.040197 
L 192.818442 206.558668 
L 194.256831 203.1551 
L 195.965771 199.862943 
L 197.010566 198.160495 
L 198.240702 196.471094 
L 199.585618 194.937315 
L 201.015603 193.538423 
L 204.039793 191.06175 
L 207.160419 188.893009 
L 215.732568 183.277611 
L 217.854409 181.556778 
L 219.417584 179.933504 
L 220.459473 178.355701 
L 220.854089 177.420125 
L 221.397115 175.232773 
L 221.614415 172.624638 
L 221.537127 169.653665 
L 221.027234 164.676096 
L 220.148723 157.36551 
L 219.898248 153.502717 
L 219.968262 149.530745 
L 220.761108 142.654712 
L 221.697786 135.365944 
L 222.327829 131.625618 
L 223.140967 127.890458 
L 224.204233 124.208424 
L 225.597707 120.629798 
L 226.447482 118.898327 
L 227.416341 117.219001 
L 228.516972 115.605464 
L 229.894112 113.939874 
L 231.559812 112.395522 
L 233.351699 111.146846 
L 235.223382 110.132643 
L 237.149584 109.299033 
L 241.099387 108.011854 
L 245.067253 107.039223 
L 252.336097 105.411814 
L 255.148627 104.575956 
L 257.012037 103.789442 
L 258.181415 103.208478 
L 258.324625 102.718701 
L 258.342259 101.892064 
L 258.192553 100.783351 
L 257.393913 97.948671 
L 256.077402 94.568457 
L 252.842613 86.936691 
L 251.428362 82.844585 
L 250.900013 80.713035 
L 250.565515 78.49556 
L 250.515097 76.170808 
L 250.876361 73.755705 
L 251.658148 71.575443 
L 252.672825 69.78648 
L 253.87454 68.197941 
L 255.21568 66.79073 
L 256.663214 65.537602 
L 258.195136 64.411239 
L 261.453271 62.447271 
L 264.892115 60.753595 
L 270.181693 58.510719 
L 276.898225 55.74609 
L 279.822439 54.374883 
L 281.325768 53.568 
L 281.325768 53.568 
" style="fill:none;stroke:#ffffff;stroke-linecap:square;"/>
   </g>
   <g id="line2d_17">
    <path clip-path="url(#pd846c6577d)" d="M 196.366687 295.488 
L 196.625681 278.777285 
L 196.923603 258.460996 
L 196.693082 241.856374 
L 196.911726 237.136397 
L 197.209034 234.070628 
L 198.177961 227.553574 
L 199.345218 221.002905 
L 200.433737 216.252043 
L 201.295824 213.222181 
L 202.285074 210.339462 
L 203.413918 207.633858 
L 204.692475 205.131357 
L 205.95717 203.131999 
L 206.753054 202.185721 
L 208.779556 200.288429 
L 211.296831 198.39767 
L 215.69516 195.532755 
L 220.428182 192.44845 
L 223.551775 190.096611 
L 225.051457 188.775783 
L 226.47923 187.327556 
L 227.803702 185.728724 
L 228.984107 183.96146 
L 229.948531 182.079852 
L 230.667932 180.176936 
L 231.185499 178.260994 
L 231.529716 176.347198 
L 231.728592 174.443885 
L 231.790588 170.68224 
L 231.546263 166.989454 
L 230.688828 159.877961 
L 230.173929 154.929636 
L 230.068897 151.919468 
L 230.260404 149.00331 
L 232.030234 135.281405 
L 232.639706 132.048792 
L 233.381304 129.032106 
L 234.271769 126.303816 
L 235.313224 123.929246 
L 236.495374 121.950275 
L 237.523002 120.663042 
L 238.299219 120.059398 
L 239.328574 119.463181 
L 240.586464 118.895875 
L 243.654471 117.880141 
L 247.238032 116.999105 
L 255.076648 115.23021 
L 259.022026 114.005077 
L 260.959425 113.184801 
L 262.853895 112.143137 
L 264.661275 110.795084 
L 266.278492 109.064038 
L 267.545638 106.931153 
L 268.273103 104.647008 
L 268.514482 102.438785 
L 268.416351 100.335083 
L 268.081845 98.310811 
L 267.576734 96.335882 
L 266.226876 92.465437 
L 263.849801 86.846643 
L 261.785018 81.763503 
L 260.95479 79.03584 
L 260.596414 76.826878 
L 260.639139 76.397613 
L 260.911679 75.789215 
L 261.345042 75.133582 
L 261.957155 74.436909 
L 263.719983 72.977895 
L 266.12059 71.509703 
L 269.019453 70.074358 
L 273.989978 67.966326 
L 281.113357 65.02748 
L 284.643213 63.356624 
L 286.146542 62.549741 
L 286.146542 62.549741 
" style="fill:none;stroke:#ffffff;stroke-linecap:square;"/>
   </g>
   <g id="patch_3">
    <path d="M 57.6 307.584 
L 57.6 41.472 
" style="fill:none;stroke:#000000;stroke-linecap:square;stroke-linejoin:miter;stroke-width:0.8;"/>
   </g>
   <g id="patch_4">
    <path d="M 414.72 307.584 
L 414.72 41.472 
" style="fill:none;stroke:#000000;stroke-linecap:square;stroke-linejoin:miter;stroke-width:0.8;"/>
   </g>
   <g id="patch_5">
    <path d="M 57.6 307.584 
L 414.72 307.584 
" style="fill:none;stroke:#000000;stroke-linecap:square;stroke-linejoin:miter;stroke-width:0.8;"/>
   </g>
   <g id="patch_6">
    <path d="M 57.6 41.472 
L 414.72 41.472 
" style="fill:none;stroke:#000000;stroke-linecap:square;stroke-linejoin:miter;stroke-width:0.8;"/>
   </g>
  </g>
 </g>
 <defs>
  <clipPath id="pd846c6577d">
   <rect height="266.112" width="357.12" x="57.6" y="41.472"/>
  </clipPath>
 </defs>
</svg>
