<?xml version="1.0" encoding="utf-8" standalone="no"?>
<!DOCTYPE svg PUBLIC "-//W3C//DTD SVG 1.1//EN"
  "http://www.w3.org/Graphics/SVG/1.1/DTD/svg11.dtd">
<!-- Created with matplotlib (https://matplotlib.org/) -->
<svg height="345.6pt" version="1.1" viewBox="0 0 460.8 345.6" width="460.8pt" xmlns="http://www.w3.org/2000/svg" xmlns:xlink="http://www.w3.org/1999/xlink">
 <metadata>
  <rdf:RDF xmlns:cc="http://creativecommons.org/ns#" xmlns:dc="http://purl.org/dc/elements/1.1/" xmlns:rdf="http://www.w3.org/1999/02/22-rdf-syntax-ns#">
   <cc:Work>
    <dc:type rdf:resource="http://purl.org/dc/dcmitype/StillImage"/>
    <dc:date>2021-06-19T00:11:15.038543</dc:date>
    <dc:format>image/svg+xml</dc:format>
    <dc:creator>
     <cc:Agent>
      <dc:title>Matplotlib v3.3.3, https://matplotlib.org/</dc:title>
     </cc:Agent>
    </dc:creator>
   </cc:Work>
  </rdf:RDF>
 </metadata>
 <defs>
  <style type="text/css">*{stroke-linecap:butt;stroke-linejoin:round;}</style>
 </defs>
 <g id="figure_1">
  <g id="patch_1">
   <path d="M 0 345.6 
L 460.8 345.6 
L 460.8 0 
L 0 0 
z
" style="fill:#ffffff;"/>
  </g>
  <g id="axes_1">
   <g id="patch_2">
    <path d="M 57.6 307.584 
L 414.72 307.584 
L 414.72 41.472 
L 57.6 41.472 
z
" style="fill:#7d9051;"/>
   </g>
   <g id="matplotlib.axis_1">
    <g id="xtick_1">
     <g id="line2d_1">
      <defs>
       <path d="M 0 0 
L 0 3.5 
" id="ma1b96c3705" style="stroke:#000000;stroke-width:0.8;"/>
      </defs>
      <g>
       <use style="stroke:#000000;stroke-width:0.8;" x="74.390334" xlink:href="#ma1b96c3705" y="307.584"/>
      </g>
     </g>
     <g id="text_1">
      <!-- −140 -->
      <g transform="translate(60.65674 322.182437)scale(0.1 -0.1)">
       <defs>
        <path d="M 10.59375 35.5 
L 73.1875 35.5 
L 73.1875 27.203125 
L 10.59375 27.203125 
z
" id="DejaVuSans-8722"/>
        <path d="M 12.40625 8.296875 
L 28.515625 8.296875 
L 28.515625 63.921875 
L 10.984375 60.40625 
L 10.984375 69.390625 
L 28.421875 72.90625 
L 38.28125 72.90625 
L 38.28125 8.296875 
L 54.390625 8.296875 
L 54.390625 0 
L 12.40625 0 
z
" id="DejaVuSans-49"/>
        <path d="M 37.796875 64.3125 
L 12.890625 25.390625 
L 37.796875 25.390625 
z
M 35.203125 72.90625 
L 47.609375 72.90625 
L 47.609375 25.390625 
L 58.015625 25.390625 
L 58.015625 17.1875 
L 47.609375 17.1875 
L 47.609375 0 
L 37.796875 0 
L 37.796875 17.1875 
L 4.890625 17.1875 
L 4.890625 26.703125 
z
" id="DejaVuSans-52"/>
        <path d="M 31.78125 66.40625 
Q 24.171875 66.40625 20.328125 58.90625 
Q 16.5 51.421875 16.5 36.375 
Q 16.5 21.390625 20.328125 13.890625 
Q 24.171875 6.390625 31.78125 6.390625 
Q 39.453125 6.390625 43.28125 13.890625 
Q 47.125 21.390625 47.125 36.375 
Q 47.125 51.421875 43.28125 58.90625 
Q 39.453125 66.40625 31.78125 66.40625 
z
M 31.78125 74.21875 
Q 44.046875 74.21875 50.515625 64.515625 
Q 56.984375 54.828125 56.984375 36.375 
Q 56.984375 17.96875 50.515625 8.265625 
Q 44.046875 -1.421875 31.78125 -1.421875 
Q 19.53125 -1.421875 13.0625 8.265625 
Q 6.59375 17.96875 6.59375 36.375 
Q 6.59375 54.828125 13.0625 64.515625 
Q 19.53125 74.21875 31.78125 74.21875 
z
" id="DejaVuSans-48"/>
       </defs>
       <use xlink:href="#DejaVuSans-8722"/>
       <use x="83.789062" xlink:href="#DejaVuSans-49"/>
       <use x="147.412109" xlink:href="#DejaVuSans-52"/>
       <use x="211.035156" xlink:href="#DejaVuSans-48"/>
      </g>
     </g>
    </g>
    <g id="xtick_2">
     <g id="line2d_2">
      <g>
       <use style="stroke:#000000;stroke-width:0.8;" x="119.091338" xlink:href="#ma1b96c3705" y="307.584"/>
      </g>
     </g>
     <g id="text_2">
      <!-- −120 -->
      <g transform="translate(105.357744 322.182437)scale(0.1 -0.1)">
       <defs>
        <path d="M 19.1875 8.296875 
L 53.609375 8.296875 
L 53.609375 0 
L 7.328125 0 
L 7.328125 8.296875 
Q 12.9375 14.109375 22.625 23.890625 
Q 32.328125 33.6875 34.8125 36.53125 
Q 39.546875 41.84375 41.421875 45.53125 
Q 43.3125 49.21875 43.3125 52.78125 
Q 43.3125 58.59375 39.234375 62.25 
Q 35.15625 65.921875 28.609375 65.921875 
Q 23.96875 65.921875 18.8125 64.3125 
Q 13.671875 62.703125 7.8125 59.421875 
L 7.8125 69.390625 
Q 13.765625 71.78125 18.9375 73 
Q 24.125 74.21875 28.421875 74.21875 
Q 39.75 74.21875 46.484375 68.546875 
Q 53.21875 62.890625 53.21875 53.421875 
Q 53.21875 48.921875 51.53125 44.890625 
Q 49.859375 40.875 45.40625 35.40625 
Q 44.1875 33.984375 37.640625 27.21875 
Q 31.109375 20.453125 19.1875 8.296875 
z
" id="DejaVuSans-50"/>
       </defs>
       <use xlink:href="#DejaVuSans-8722"/>
       <use x="83.789062" xlink:href="#DejaVuSans-49"/>
       <use x="147.412109" xlink:href="#DejaVuSans-50"/>
       <use x="211.035156" xlink:href="#DejaVuSans-48"/>
      </g>
     </g>
    </g>
    <g id="xtick_3">
     <g id="line2d_3">
      <g>
       <use style="stroke:#000000;stroke-width:0.8;" x="163.792341" xlink:href="#ma1b96c3705" y="307.584"/>
      </g>
     </g>
     <g id="text_3">
      <!-- −100 -->
      <g transform="translate(150.058748 322.182437)scale(0.1 -0.1)">
       <use xlink:href="#DejaVuSans-8722"/>
       <use x="83.789062" xlink:href="#DejaVuSans-49"/>
       <use x="147.412109" xlink:href="#DejaVuSans-48"/>
       <use x="211.035156" xlink:href="#DejaVuSans-48"/>
      </g>
     </g>
    </g>
    <g id="xtick_4">
     <g id="line2d_4">
      <g>
       <use style="stroke:#000000;stroke-width:0.8;" x="208.493345" xlink:href="#ma1b96c3705" y="307.584"/>
      </g>
     </g>
     <g id="text_4">
      <!-- −80 -->
      <g transform="translate(197.941002 322.182437)scale(0.1 -0.1)">
       <defs>
        <path d="M 31.78125 34.625 
Q 24.75 34.625 20.71875 30.859375 
Q 16.703125 27.09375 16.703125 20.515625 
Q 16.703125 13.921875 20.71875 10.15625 
Q 24.75 6.390625 31.78125 6.390625 
Q 38.8125 6.390625 42.859375 10.171875 
Q 46.921875 13.96875 46.921875 20.515625 
Q 46.921875 27.09375 42.890625 30.859375 
Q 38.875 34.625 31.78125 34.625 
z
M 21.921875 38.8125 
Q 15.578125 40.375 12.03125 44.71875 
Q 8.5 49.078125 8.5 55.328125 
Q 8.5 64.0625 14.71875 69.140625 
Q 20.953125 74.21875 31.78125 74.21875 
Q 42.671875 74.21875 48.875 69.140625 
Q 55.078125 64.0625 55.078125 55.328125 
Q 55.078125 49.078125 51.53125 44.71875 
Q 48 40.375 41.703125 38.8125 
Q 48.828125 37.15625 52.796875 32.3125 
Q 56.78125 27.484375 56.78125 20.515625 
Q 56.78125 9.90625 50.3125 4.234375 
Q 43.84375 -1.421875 31.78125 -1.421875 
Q 19.734375 -1.421875 13.25 4.234375 
Q 6.78125 9.90625 6.78125 20.515625 
Q 6.78125 27.484375 10.78125 32.3125 
Q 14.796875 37.15625 21.921875 38.8125 
z
M 18.3125 54.390625 
Q 18.3125 48.734375 21.84375 45.5625 
Q 25.390625 42.390625 31.78125 42.390625 
Q 38.140625 42.390625 41.71875 45.5625 
Q 45.3125 48.734375 45.3125 54.390625 
Q 45.3125 60.0625 41.71875 63.234375 
Q 38.140625 66.40625 31.78125 66.40625 
Q 25.390625 66.40625 21.84375 63.234375 
Q 18.3125 60.0625 18.3125 54.390625 
z
" id="DejaVuSans-56"/>
       </defs>
       <use xlink:href="#DejaVuSans-8722"/>
       <use x="83.789062" xlink:href="#DejaVuSans-56"/>
       <use x="147.412109" xlink:href="#DejaVuSans-48"/>
      </g>
     </g>
    </g>
    <g id="xtick_5">
     <g id="line2d_5">
      <g>
       <use style="stroke:#000000;stroke-width:0.8;" x="253.194349" xlink:href="#ma1b96c3705" y="307.584"/>
      </g>
     </g>
     <g id="text_5">
      <!-- −60 -->
      <g transform="translate(242.642006 322.182437)scale(0.1 -0.1)">
       <defs>
        <path d="M 33.015625 40.375 
Q 26.375 40.375 22.484375 35.828125 
Q 18.609375 31.296875 18.609375 23.390625 
Q 18.609375 15.53125 22.484375 10.953125 
Q 26.375 6.390625 33.015625 6.390625 
Q 39.65625 6.390625 43.53125 10.953125 
Q 47.40625 15.53125 47.40625 23.390625 
Q 47.40625 31.296875 43.53125 35.828125 
Q 39.65625 40.375 33.015625 40.375 
z
M 52.59375 71.296875 
L 52.59375 62.3125 
Q 48.875 64.0625 45.09375 64.984375 
Q 41.3125 65.921875 37.59375 65.921875 
Q 27.828125 65.921875 22.671875 59.328125 
Q 17.53125 52.734375 16.796875 39.40625 
Q 19.671875 43.65625 24.015625 45.921875 
Q 28.375 48.1875 33.59375 48.1875 
Q 44.578125 48.1875 50.953125 41.515625 
Q 57.328125 34.859375 57.328125 23.390625 
Q 57.328125 12.15625 50.6875 5.359375 
Q 44.046875 -1.421875 33.015625 -1.421875 
Q 20.359375 -1.421875 13.671875 8.265625 
Q 6.984375 17.96875 6.984375 36.375 
Q 6.984375 53.65625 15.1875 63.9375 
Q 23.390625 74.21875 37.203125 74.21875 
Q 40.921875 74.21875 44.703125 73.484375 
Q 48.484375 72.75 52.59375 71.296875 
z
" id="DejaVuSans-54"/>
       </defs>
       <use xlink:href="#DejaVuSans-8722"/>
       <use x="83.789062" xlink:href="#DejaVuSans-54"/>
       <use x="147.412109" xlink:href="#DejaVuSans-48"/>
      </g>
     </g>
    </g>
    <g id="xtick_6">
     <g id="line2d_6">
      <g>
       <use style="stroke:#000000;stroke-width:0.8;" x="297.895353" xlink:href="#ma1b96c3705" y="307.584"/>
      </g>
     </g>
     <g id="text_6">
      <!-- −40 -->
      <g transform="translate(287.34301 322.182437)scale(0.1 -0.1)">
       <use xlink:href="#DejaVuSans-8722"/>
       <use x="83.789062" xlink:href="#DejaVuSans-52"/>
       <use x="147.412109" xlink:href="#DejaVuSans-48"/>
      </g>
     </g>
    </g>
    <g id="xtick_7">
     <g id="line2d_7">
      <g>
       <use style="stroke:#000000;stroke-width:0.8;" x="342.596357" xlink:href="#ma1b96c3705" y="307.584"/>
      </g>
     </g>
     <g id="text_7">
      <!-- −20 -->
      <g transform="translate(332.044014 322.182437)scale(0.1 -0.1)">
       <use xlink:href="#DejaVuSans-8722"/>
       <use x="83.789062" xlink:href="#DejaVuSans-50"/>
       <use x="147.412109" xlink:href="#DejaVuSans-48"/>
      </g>
     </g>
    </g>
    <g id="xtick_8">
     <g id="line2d_8">
      <g>
       <use style="stroke:#000000;stroke-width:0.8;" x="387.297361" xlink:href="#ma1b96c3705" y="307.584"/>
      </g>
     </g>
     <g id="text_8">
      <!-- 0 -->
      <g transform="translate(384.116111 322.182437)scale(0.1 -0.1)">
       <use xlink:href="#DejaVuSans-48"/>
      </g>
     </g>
    </g>
   </g>
   <g id="matplotlib.axis_2">
    <g id="ytick_1">
     <g id="line2d_9">
      <defs>
       <path d="M 0 0 
L -3.5 0 
" id="m7bf5a94ae9" style="stroke:#000000;stroke-width:0.8;"/>
      </defs>
      <g>
       <use style="stroke:#000000;stroke-width:0.8;" x="57.6" xlink:href="#m7bf5a94ae9" y="275.319676"/>
      </g>
     </g>
     <g id="text_9">
      <!-- 0 -->
      <g transform="translate(44.2375 279.118894)scale(0.1 -0.1)">
       <use xlink:href="#DejaVuSans-48"/>
      </g>
     </g>
    </g>
    <g id="ytick_2">
     <g id="line2d_10">
      <g>
       <use style="stroke:#000000;stroke-width:0.8;" x="57.6" xlink:href="#m7bf5a94ae9" y="230.618672"/>
      </g>
     </g>
     <g id="text_10">
      <!-- 20 -->
      <g transform="translate(37.875 234.41789)scale(0.1 -0.1)">
       <use xlink:href="#DejaVuSans-50"/>
       <use x="63.623047" xlink:href="#DejaVuSans-48"/>
      </g>
     </g>
    </g>
    <g id="ytick_3">
     <g id="line2d_11">
      <g>
       <use style="stroke:#000000;stroke-width:0.8;" x="57.6" xlink:href="#m7bf5a94ae9" y="185.917668"/>
      </g>
     </g>
     <g id="text_11">
      <!-- 40 -->
      <g transform="translate(37.875 189.716886)scale(0.1 -0.1)">
       <use xlink:href="#DejaVuSans-52"/>
       <use x="63.623047" xlink:href="#DejaVuSans-48"/>
      </g>
     </g>
    </g>
    <g id="ytick_4">
     <g id="line2d_12">
      <g>
       <use style="stroke:#000000;stroke-width:0.8;" x="57.6" xlink:href="#m7bf5a94ae9" y="141.216664"/>
      </g>
     </g>
     <g id="text_12">
      <!-- 60 -->
      <g transform="translate(37.875 145.015882)scale(0.1 -0.1)">
       <use xlink:href="#DejaVuSans-54"/>
       <use x="63.623047" xlink:href="#DejaVuSans-48"/>
      </g>
     </g>
    </g>
    <g id="ytick_5">
     <g id="line2d_13">
      <g>
       <use style="stroke:#000000;stroke-width:0.8;" x="57.6" xlink:href="#m7bf5a94ae9" y="96.51566"/>
      </g>
     </g>
     <g id="text_13">
      <!-- 80 -->
      <g transform="translate(37.875 100.314879)scale(0.1 -0.1)">
       <use xlink:href="#DejaVuSans-56"/>
       <use x="63.623047" xlink:href="#DejaVuSans-48"/>
      </g>
     </g>
    </g>
    <g id="ytick_6">
     <g id="line2d_14">
      <g>
       <use style="stroke:#000000;stroke-width:0.8;" x="57.6" xlink:href="#m7bf5a94ae9" y="51.814656"/>
      </g>
     </g>
     <g id="text_14">
      <!-- 100 -->
      <g transform="translate(31.5125 55.613875)scale(0.1 -0.1)">
       <use xlink:href="#DejaVuSans-49"/>
       <use x="63.623047" xlink:href="#DejaVuSans-48"/>
       <use x="127.246094" xlink:href="#DejaVuSans-48"/>
      </g>
     </g>
    </g>
   </g>
   <g id="line2d_15">
    <path clip-path="url(#p4be780dce3)" d="M 387.297361 275.319676 
L 387.58498 254.736197 
L 388.498058 210.627584 
L 389.478003 178.264965 
L 389.432243 169.452463 
L 389.140081 157.568116 
L 389.329935 148.14634 
L 389.547027 138.570442 
L 389.487819 132.280377 
L 389.112114 126.191048 
L 388.7645 123.255314 
L 388.288471 120.41015 
L 387.667597 117.669016 
L 386.885449 115.045375 
L 385.925595 112.552689 
L 384.771606 110.204419 
L 383.407052 108.014027 
L 381.81891 105.949803 
L 380.016523 103.971127 
L 378.017012 102.0781 
L 375.837495 100.270823 
L 373.495094 98.549394 
L 371.006929 96.913914 
L 368.390119 95.364482 
L 365.661784 93.9012 
L 362.839045 92.524166 
L 356.978833 90.029243 
L 350.946443 87.880515 
L 344.878835 86.07878 
L 338.91297 84.624838 
L 333.185807 83.519489 
L 330.383725 83.115324 
L 327.542692 82.829644 
L 321.762103 82.589909 
L 315.8807 82.752632 
L 309.935143 83.270157 
L 303.96209 84.094831 
L 297.998203 85.178998 
L 292.08014 86.475006 
L 286.244562 87.935199 
L 277.726045 90.329092 
L 272.218877 92.16232 
L 266.809467 94.325577 
L 261.479487 96.756983 
L 256.210606 99.394658 
L 248.38175 103.602559 
L 232.76528 112.157593 
L 222.211657 117.657703 
L 216.908274 120.882848 
L 200.983945 131.099768 
L 195.686864 134.084253 
L 193.04305 135.396001 
L 190.403174 136.557337 
L 187.767828 137.545699 
L 185.137602 138.338524 
L 182.513088 138.913252 
L 179.894875 139.247321 
L 177.283555 139.318168 
L 174.681845 139.044221 
L 172.091157 138.388777 
L 169.510128 137.396573 
L 166.937391 136.112349 
L 164.371581 134.580843 
L 161.811334 132.846794 
L 156.702064 128.95002 
L 146.490198 120.694456 
L 143.930659 118.795288 
L 141.365759 117.051485 
L 138.794135 115.507788 
L 136.21442 114.208934 
L 133.625249 113.199663 
L 131.025258 112.524712 
L 128.413081 112.228822 
L 125.78958 112.274131 
L 123.157044 112.57817 
L 120.516248 113.118763 
L 117.867965 113.873731 
L 115.21297 114.820899 
L 112.552039 115.93809 
L 109.885944 117.203126 
L 104.541364 120.088027 
L 99.185425 123.29819 
L 85.786543 131.582325 
L 80.43964 134.533758 
L 77.771996 135.843147 
L 77.771996 135.843147 
" style="fill:none;stroke:#fea952;stroke-linecap:square;"/>
   </g>
   <g id="line2d_16">
    <path clip-path="url(#p4be780dce3)" d="M 378.357574 275.233662 
L 378.646296 254.571526 
L 379.562916 210.326892 
L 380.537871 178.229746 
L 380.49495 169.680473 
L 380.200382 157.473343 
L 380.393383 147.890949 
L 380.606828 138.565517 
L 380.556871 132.687012 
L 380.233934 127.242295 
L 379.569138 122.385101 
L 379.100007 120.223149 
L 378.542417 118.258009 
L 377.901891 116.495704 
L 377.183425 114.931648 
L 376.321295 113.465562 
L 375.209671 111.970197 
L 373.870083 110.463312 
L 372.310396 108.960087 
L 370.543252 107.474862 
L 368.584495 106.020218 
L 366.451959 104.606731 
L 364.164607 103.243076 
L 359.203885 100.691956 
L 353.860578 98.408007 
L 348.292792 96.417805 
L 342.657811 94.738701 
L 337.113533 93.382076 
L 331.909504 92.368118 
L 327.005299 91.753678 
L 321.865925 91.529507 
L 316.533982 91.668932 
L 311.055005 92.139943 
L 305.475086 92.906075 
L 299.839582 93.927513 
L 294.192482 95.162077 
L 288.57613 96.566014 
L 280.411828 98.856328 
L 275.427451 100.506913 
L 270.434577 102.497833 
L 265.420329 104.781754 
L 260.372927 107.306818 
L 252.711722 111.42423 
L 236.863859 120.102959 
L 226.778361 125.343561 
L 221.736017 128.40748 
L 205.486698 138.823265 
L 199.660405 142.092883 
L 196.64307 143.579341 
L 193.542586 144.928196 
L 190.347994 146.105485 
L 187.05005 147.071779 
L 183.64463 147.781556 
L 180.137339 148.184233 
L 176.347374 148.209217 
L 172.489063 147.711337 
L 168.883221 146.733616 
L 165.517283 145.395597 
L 162.355262 143.789021 
L 159.358104 141.983021 
L 156.492634 140.032796 
L 151.064525 135.888705 
L 141.162926 127.874106 
L 136.76448 124.716694 
L 134.773693 123.492977 
L 132.96745 122.538663 
L 131.378857 121.853039 
L 130.019005 121.408104 
L 128.56746 121.167689 
L 126.815292 121.155297 
L 124.949994 121.336739 
L 122.967256 121.716422 
L 120.871942 122.294142 
L 118.673851 123.064048 
L 116.384533 124.015167 
L 111.576345 126.398309 
L 106.521072 129.29524 
L 98.570057 134.23282 
L 90.211439 139.35069 
L 84.378908 142.559301 
L 81.711265 143.868691 
L 81.711265 143.868691 
" style="fill:none;stroke:#ffffff;stroke-linecap:square;"/>
   </g>
   <g id="line2d_17">
    <path clip-path="url(#p4be780dce3)" d="M 396.237148 275.405689 
L 396.523664 254.900868 
L 397.433201 210.928276 
L 398.383158 181.309343 
L 398.414559 172.257605 
L 398.18398 163.319067 
L 398.079779 157.662888 
L 398.266487 148.401731 
L 398.487227 138.575368 
L 398.418767 131.873743 
L 398.260727 128.506819 
L 397.990293 125.139801 
L 397.582135 121.780022 
L 397.007803 118.435199 
L 396.235187 115.114883 
L 395.22848 111.832742 
L 393.949299 108.609674 
L 392.359788 105.477191 
L 390.49281 102.562493 
L 388.428149 99.929408 
L 386.162963 97.478942 
L 383.723627 95.196114 
L 381.131739 93.066784 
L 378.405694 91.07857 
L 375.561899 89.221097 
L 372.615631 87.485889 
L 369.581582 85.866128 
L 366.474204 84.356375 
L 363.307894 82.952304 
L 356.856297 80.448176 
L 350.343089 78.333905 
L 343.88488 76.597024 
L 337.596335 75.230024 
L 334.462111 74.67086 
L 331.278198 74.219982 
L 328.080085 73.905609 
L 324.87213 73.718637 
L 318.442211 73.69223 
L 312.017313 74.074868 
L 305.624723 74.805616 
L 299.291923 75.82744 
L 293.04751 77.086141 
L 286.921615 78.529463 
L 278.025167 80.929244 
L 271.998406 82.764856 
L 266.073261 84.950449 
L 260.340527 87.416945 
L 254.775587 90.090269 
L 246.689166 94.335971 
L 226.157022 105.507869 
L 220.504528 108.372893 
L 214.838606 111.64145 
L 209.367541 115.099176 
L 198.959748 121.852471 
L 194.062846 124.790725 
L 189.44303 127.212662 
L 187.263762 128.186478 
L 185.187662 128.985913 
L 183.225155 129.60527 
L 181.381545 130.044949 
L 178.219735 130.427118 
L 176.874626 130.377105 
L 175.299094 130.043938 
L 173.502973 129.39755 
L 171.519519 128.435678 
L 169.385058 127.178665 
L 167.130033 125.660792 
L 162.339603 122.011336 
L 151.817471 113.514807 
L 148.957174 111.401957 
L 145.967038 109.386277 
L 142.814576 107.522599 
L 139.461389 105.879205 
L 135.871641 104.546287 
L 132.031512 103.641321 
L 128.258702 103.289954 
L 124.763868 103.392965 
L 121.364095 103.819602 
L 118.06524 104.521103 
L 114.863988 105.453321 
L 111.75209 106.577751 
L 108.719544 107.861012 
L 105.756559 109.273727 
L 100.006699 112.383223 
L 94.454398 115.712375 
L 81.361648 123.813961 
L 76.500371 126.508214 
L 73.832727 127.817604 
L 73.832727 127.817604 
" style="fill:none;stroke:#ffffff;stroke-linecap:square;"/>
   </g>
   <g id="patch_3">
    <path d="M 57.6 307.584 
L 57.6 41.472 
" style="fill:none;stroke:#000000;stroke-linecap:square;stroke-linejoin:miter;stroke-width:0.8;"/>
   </g>
   <g id="patch_4">
    <path d="M 414.72 307.584 
L 414.72 41.472 
" style="fill:none;stroke:#000000;stroke-linecap:square;stroke-linejoin:miter;stroke-width:0.8;"/>
   </g>
   <g id="patch_5">
    <path d="M 57.6 307.584 
L 414.72 307.584 
" style="fill:none;stroke:#000000;stroke-linecap:square;stroke-linejoin:miter;stroke-width:0.8;"/>
   </g>
   <g id="patch_6">
    <path d="M 57.6 41.472 
L 414.72 41.472 
" style="fill:none;stroke:#000000;stroke-linecap:square;stroke-linejoin:miter;stroke-width:0.8;"/>
   </g>
  </g>
 </g>
 <defs>
  <clipPath id="p4be780dce3">
   <rect height="266.112" width="357.12" x="57.6" y="41.472"/>
  </clipPath>
 </defs>
</svg>
