<?xml version="1.0" encoding="utf-8" standalone="no"?>
<!DOCTYPE svg PUBLIC "-//W3C//DTD SVG 1.1//EN"
  "http://www.w3.org/Graphics/SVG/1.1/DTD/svg11.dtd">
<!-- Created with matplotlib (https://matplotlib.org/) -->
<svg height="345.6pt" version="1.1" viewBox="0 0 460.8 345.6" width="460.8pt" xmlns="http://www.w3.org/2000/svg" xmlns:xlink="http://www.w3.org/1999/xlink">
 <metadata>
  <rdf:RDF xmlns:cc="http://creativecommons.org/ns#" xmlns:dc="http://purl.org/dc/elements/1.1/" xmlns:rdf="http://www.w3.org/1999/02/22-rdf-syntax-ns#">
   <cc:Work>
    <dc:type rdf:resource="http://purl.org/dc/dcmitype/StillImage"/>
    <dc:date>2021-06-17T21:43:20.237157</dc:date>
    <dc:format>image/svg+xml</dc:format>
    <dc:creator>
     <cc:Agent>
      <dc:title>Matplotlib v3.3.3, https://matplotlib.org/</dc:title>
     </cc:Agent>
    </dc:creator>
   </cc:Work>
  </rdf:RDF>
 </metadata>
 <defs>
  <style type="text/css">*{stroke-linecap:butt;stroke-linejoin:round;}</style>
 </defs>
 <g id="figure_1">
  <g id="patch_1">
   <path d="M 0 345.6 
L 460.8 345.6 
L 460.8 0 
L 0 0 
z
" style="fill:#ffffff;"/>
  </g>
  <g id="axes_1">
   <g id="patch_2">
    <path d="M 57.6 307.584 
L 414.72 307.584 
L 414.72 41.472 
L 57.6 41.472 
z
" style="fill:#7d9051;"/>
   </g>
   <g id="matplotlib.axis_1">
    <g id="xtick_1">
     <g id="line2d_1">
      <defs>
       <path d="M 0 0 
L 0 3.5 
" id="m4f14f9b7e0" style="stroke:#000000;stroke-width:0.8;"/>
      </defs>
      <g>
       <use style="stroke:#000000;stroke-width:0.8;" x="103.624905" xlink:href="#m4f14f9b7e0" y="307.584"/>
      </g>
     </g>
     <g id="text_1">
      <!-- −100 -->
      <g transform="translate(89.891311 322.182437)scale(0.1 -0.1)">
       <defs>
        <path d="M 10.59375 35.5 
L 73.1875 35.5 
L 73.1875 27.203125 
L 10.59375 27.203125 
z
" id="DejaVuSans-8722"/>
        <path d="M 12.40625 8.296875 
L 28.515625 8.296875 
L 28.515625 63.921875 
L 10.984375 60.40625 
L 10.984375 69.390625 
L 28.421875 72.90625 
L 38.28125 72.90625 
L 38.28125 8.296875 
L 54.390625 8.296875 
L 54.390625 0 
L 12.40625 0 
z
" id="DejaVuSans-49"/>
        <path d="M 31.78125 66.40625 
Q 24.171875 66.40625 20.328125 58.90625 
Q 16.5 51.421875 16.5 36.375 
Q 16.5 21.390625 20.328125 13.890625 
Q 24.171875 6.390625 31.78125 6.390625 
Q 39.453125 6.390625 43.28125 13.890625 
Q 47.125 21.390625 47.125 36.375 
Q 47.125 51.421875 43.28125 58.90625 
Q 39.453125 66.40625 31.78125 66.40625 
z
M 31.78125 74.21875 
Q 44.046875 74.21875 50.515625 64.515625 
Q 56.984375 54.828125 56.984375 36.375 
Q 56.984375 17.96875 50.515625 8.265625 
Q 44.046875 -1.421875 31.78125 -1.421875 
Q 19.53125 -1.421875 13.0625 8.265625 
Q 6.59375 17.96875 6.59375 36.375 
Q 6.59375 54.828125 13.0625 64.515625 
Q 19.53125 74.21875 31.78125 74.21875 
z
" id="DejaVuSans-48"/>
       </defs>
       <use xlink:href="#DejaVuSans-8722"/>
       <use x="83.789062" xlink:href="#DejaVuSans-49"/>
       <use x="147.412109" xlink:href="#DejaVuSans-48"/>
       <use x="211.035156" xlink:href="#DejaVuSans-48"/>
      </g>
     </g>
    </g>
    <g id="xtick_2">
     <g id="line2d_2">
      <g>
       <use style="stroke:#000000;stroke-width:0.8;" x="167.423068" xlink:href="#m4f14f9b7e0" y="307.584"/>
      </g>
     </g>
     <g id="text_2">
      <!-- −50 -->
      <g transform="translate(156.870724 322.182437)scale(0.1 -0.1)">
       <defs>
        <path d="M 10.796875 72.90625 
L 49.515625 72.90625 
L 49.515625 64.59375 
L 19.828125 64.59375 
L 19.828125 46.734375 
Q 21.96875 47.46875 24.109375 47.828125 
Q 26.265625 48.1875 28.421875 48.1875 
Q 40.625 48.1875 47.75 41.5 
Q 54.890625 34.8125 54.890625 23.390625 
Q 54.890625 11.625 47.5625 5.09375 
Q 40.234375 -1.421875 26.90625 -1.421875 
Q 22.3125 -1.421875 17.546875 -0.640625 
Q 12.796875 0.140625 7.71875 1.703125 
L 7.71875 11.625 
Q 12.109375 9.234375 16.796875 8.0625 
Q 21.484375 6.890625 26.703125 6.890625 
Q 35.15625 6.890625 40.078125 11.328125 
Q 45.015625 15.765625 45.015625 23.390625 
Q 45.015625 31 40.078125 35.4375 
Q 35.15625 39.890625 26.703125 39.890625 
Q 22.75 39.890625 18.8125 39.015625 
Q 14.890625 38.140625 10.796875 36.28125 
z
" id="DejaVuSans-53"/>
       </defs>
       <use xlink:href="#DejaVuSans-8722"/>
       <use x="83.789062" xlink:href="#DejaVuSans-53"/>
       <use x="147.412109" xlink:href="#DejaVuSans-48"/>
      </g>
     </g>
    </g>
    <g id="xtick_3">
     <g id="line2d_3">
      <g>
       <use style="stroke:#000000;stroke-width:0.8;" x="231.221231" xlink:href="#m4f14f9b7e0" y="307.584"/>
      </g>
     </g>
     <g id="text_3">
      <!-- 0 -->
      <g transform="translate(228.039981 322.182437)scale(0.1 -0.1)">
       <use xlink:href="#DejaVuSans-48"/>
      </g>
     </g>
    </g>
    <g id="xtick_4">
     <g id="line2d_4">
      <g>
       <use style="stroke:#000000;stroke-width:0.8;" x="295.019393" xlink:href="#m4f14f9b7e0" y="307.584"/>
      </g>
     </g>
     <g id="text_4">
      <!-- 50 -->
      <g transform="translate(288.656893 322.182437)scale(0.1 -0.1)">
       <use xlink:href="#DejaVuSans-53"/>
       <use x="63.623047" xlink:href="#DejaVuSans-48"/>
      </g>
     </g>
    </g>
    <g id="xtick_5">
     <g id="line2d_5">
      <g>
       <use style="stroke:#000000;stroke-width:0.8;" x="358.817556" xlink:href="#m4f14f9b7e0" y="307.584"/>
      </g>
     </g>
     <g id="text_5">
      <!-- 100 -->
      <g transform="translate(349.273806 322.182437)scale(0.1 -0.1)">
       <use xlink:href="#DejaVuSans-49"/>
       <use x="63.623047" xlink:href="#DejaVuSans-48"/>
       <use x="127.246094" xlink:href="#DejaVuSans-48"/>
      </g>
     </g>
    </g>
   </g>
   <g id="matplotlib.axis_2">
    <g id="ytick_1">
     <g id="line2d_6">
      <defs>
       <path d="M 0 0 
L -3.5 0 
" id="ma6ce2c2f02" style="stroke:#000000;stroke-width:0.8;"/>
      </defs>
      <g>
       <use style="stroke:#000000;stroke-width:0.8;" x="57.6" xlink:href="#ma6ce2c2f02" y="295.438896"/>
      </g>
     </g>
     <g id="text_6">
      <!-- 0 -->
      <g transform="translate(44.2375 299.238115)scale(0.1 -0.1)">
       <use xlink:href="#DejaVuSans-48"/>
      </g>
     </g>
    </g>
    <g id="ytick_2">
     <g id="line2d_7">
      <g>
       <use style="stroke:#000000;stroke-width:0.8;" x="57.6" xlink:href="#ma6ce2c2f02" y="263.539815"/>
      </g>
     </g>
     <g id="text_7">
      <!-- 25 -->
      <g transform="translate(37.875 267.339033)scale(0.1 -0.1)">
       <defs>
        <path d="M 19.1875 8.296875 
L 53.609375 8.296875 
L 53.609375 0 
L 7.328125 0 
L 7.328125 8.296875 
Q 12.9375 14.109375 22.625 23.890625 
Q 32.328125 33.6875 34.8125 36.53125 
Q 39.546875 41.84375 41.421875 45.53125 
Q 43.3125 49.21875 43.3125 52.78125 
Q 43.3125 58.59375 39.234375 62.25 
Q 35.15625 65.921875 28.609375 65.921875 
Q 23.96875 65.921875 18.8125 64.3125 
Q 13.671875 62.703125 7.8125 59.421875 
L 7.8125 69.390625 
Q 13.765625 71.78125 18.9375 73 
Q 24.125 74.21875 28.421875 74.21875 
Q 39.75 74.21875 46.484375 68.546875 
Q 53.21875 62.890625 53.21875 53.421875 
Q 53.21875 48.921875 51.53125 44.890625 
Q 49.859375 40.875 45.40625 35.40625 
Q 44.1875 33.984375 37.640625 27.21875 
Q 31.109375 20.453125 19.1875 8.296875 
z
" id="DejaVuSans-50"/>
       </defs>
       <use xlink:href="#DejaVuSans-50"/>
       <use x="63.623047" xlink:href="#DejaVuSans-53"/>
      </g>
     </g>
    </g>
    <g id="ytick_3">
     <g id="line2d_8">
      <g>
       <use style="stroke:#000000;stroke-width:0.8;" x="57.6" xlink:href="#ma6ce2c2f02" y="231.640733"/>
      </g>
     </g>
     <g id="text_8">
      <!-- 50 -->
      <g transform="translate(37.875 235.439952)scale(0.1 -0.1)">
       <use xlink:href="#DejaVuSans-53"/>
       <use x="63.623047" xlink:href="#DejaVuSans-48"/>
      </g>
     </g>
    </g>
    <g id="ytick_4">
     <g id="line2d_9">
      <g>
       <use style="stroke:#000000;stroke-width:0.8;" x="57.6" xlink:href="#ma6ce2c2f02" y="199.741652"/>
      </g>
     </g>
     <g id="text_9">
      <!-- 75 -->
      <g transform="translate(37.875 203.540871)scale(0.1 -0.1)">
       <defs>
        <path d="M 8.203125 72.90625 
L 55.078125 72.90625 
L 55.078125 68.703125 
L 28.609375 0 
L 18.3125 0 
L 43.21875 64.59375 
L 8.203125 64.59375 
z
" id="DejaVuSans-55"/>
       </defs>
       <use xlink:href="#DejaVuSans-55"/>
       <use x="63.623047" xlink:href="#DejaVuSans-53"/>
      </g>
     </g>
    </g>
    <g id="ytick_5">
     <g id="line2d_10">
      <g>
       <use style="stroke:#000000;stroke-width:0.8;" x="57.6" xlink:href="#ma6ce2c2f02" y="167.842571"/>
      </g>
     </g>
     <g id="text_10">
      <!-- 100 -->
      <g transform="translate(31.5125 171.641789)scale(0.1 -0.1)">
       <use xlink:href="#DejaVuSans-49"/>
       <use x="63.623047" xlink:href="#DejaVuSans-48"/>
       <use x="127.246094" xlink:href="#DejaVuSans-48"/>
      </g>
     </g>
    </g>
    <g id="ytick_6">
     <g id="line2d_11">
      <g>
       <use style="stroke:#000000;stroke-width:0.8;" x="57.6" xlink:href="#ma6ce2c2f02" y="135.943489"/>
      </g>
     </g>
     <g id="text_11">
      <!-- 125 -->
      <g transform="translate(31.5125 139.742708)scale(0.1 -0.1)">
       <use xlink:href="#DejaVuSans-49"/>
       <use x="63.623047" xlink:href="#DejaVuSans-50"/>
       <use x="127.246094" xlink:href="#DejaVuSans-53"/>
      </g>
     </g>
    </g>
    <g id="ytick_7">
     <g id="line2d_12">
      <g>
       <use style="stroke:#000000;stroke-width:0.8;" x="57.6" xlink:href="#ma6ce2c2f02" y="104.044408"/>
      </g>
     </g>
     <g id="text_12">
      <!-- 150 -->
      <g transform="translate(31.5125 107.843627)scale(0.1 -0.1)">
       <use xlink:href="#DejaVuSans-49"/>
       <use x="63.623047" xlink:href="#DejaVuSans-53"/>
       <use x="127.246094" xlink:href="#DejaVuSans-48"/>
      </g>
     </g>
    </g>
    <g id="ytick_8">
     <g id="line2d_13">
      <g>
       <use style="stroke:#000000;stroke-width:0.8;" x="57.6" xlink:href="#ma6ce2c2f02" y="72.145326"/>
      </g>
     </g>
     <g id="text_13">
      <!-- 175 -->
      <g transform="translate(31.5125 75.944545)scale(0.1 -0.1)">
       <use xlink:href="#DejaVuSans-49"/>
       <use x="63.623047" xlink:href="#DejaVuSans-55"/>
       <use x="127.246094" xlink:href="#DejaVuSans-53"/>
      </g>
     </g>
    </g>
   </g>
   <g id="line2d_14">
    <path clip-path="url(#pc7b738ad01)" d="M 231.221231 295.438896 
L 231.481367 278.652176 
L 231.781637 261.856708 
L 231.553677 256.705814 
L 230.722981 244.57831 
L 230.716134 241.197202 
L 230.936935 237.898951 
L 231.45368 234.708415 
L 232.334662 231.65045 
L 232.962405 230.186835 
L 233.746929 228.775328 
L 234.668974 227.40985 
L 236.848595 224.792655 
L 239.347197 222.286604 
L 247.21617 214.948868 
L 249.449981 212.400944 
L 250.40725 211.080492 
L 251.232416 209.720939 
L 251.906221 208.316205 
L 252.409404 206.860208 
L 252.750374 205.358598 
L 252.958494 203.822977 
L 253.024892 200.661083 
L 252.706013 197.397296 
L 252.099271 194.054385 
L 250.862515 188.941472 
L 249.115199 182.059838 
L 248.418594 178.642647 
L 247.96991 175.271566 
L 247.842596 171.851487 
L 247.976208 168.308844 
L 248.612543 161.076184 
L 249.00556 155.739615 
L 249.033553 152.327047 
L 248.753677 149.094855 
L 248.46597 147.563612 
L 248.062514 146.098118 
L 247.530383 144.705258 
L 246.856648 143.391917 
L 245.996804 142.182372 
L 244.931556 141.087347 
L 243.685792 140.093392 
L 242.284404 139.187062 
L 239.114313 137.583484 
L 235.620403 136.169031 
L 228.457605 133.477182 
L 225.186957 131.984625 
L 223.716435 131.154623 
L 222.388968 130.250874 
L 221.229447 129.259932 
L 220.26276 128.168348 
L 219.513799 126.962675 
L 218.929087 125.624833 
L 218.437532 124.156695 
L 218.037602 122.574748 
L 217.506478 119.135373 
L 217.323447 115.438596 
L 217.476241 111.616307 
L 217.95259 107.800397 
L 218.740225 104.122755 
L 219.826878 100.715272 
L 221.200279 97.709837 
L 221.990677 96.399103 
L 222.848161 95.23834 
L 223.855637 94.247929 
L 225.079405 93.424182 
L 226.493023 92.747482 
L 228.070048 92.198214 
L 229.784038 91.756762 
L 233.517142 91.118838 
L 247.01035 89.398704 
L 248.639651 88.956512 
L 250.115049 88.406357 
L 251.410103 87.728623 
L 252.498368 86.903693 
L 253.353404 85.911952 
L 253.993234 84.76971 
L 254.463215 83.512904 
L 254.777907 82.151353 
L 254.951866 80.694879 
L 254.999653 79.153299 
L 254.774941 75.854104 
L 254.220238 72.332327 
L 253.024222 66.804167 
L 251.361596 59.387462 
L 250.763217 55.836226 
L 250.573216 54.134256 
L 250.573216 54.134256 
" style="fill:none;stroke:#fea952;stroke-linecap:square;"/>
   </g>
   <g id="line2d_15">
    <path clip-path="url(#pc7b738ad01)" d="M 226.117614 295.389792 
L 226.378536 278.550027 
L 226.641309 260.386122 
L 226.338734 255.3755 
L 225.690526 246.492877 
L 225.591906 242.815941 
L 225.709348 239.091682 
L 226.139539 235.337857 
L 226.505176 233.458762 
L 226.989737 231.585926 
L 227.644037 229.638646 
L 228.501309 227.707331 
L 229.517107 225.919121 
L 230.653985 224.25879 
L 233.175078 221.24941 
L 235.874096 218.5467 
L 243.466089 211.486759 
L 245.317761 209.405269 
L 246.630577 207.51359 
L 247.082316 206.649092 
L 247.432251 205.730047 
L 247.862572 203.538559 
L 247.934372 201.029758 
L 247.669803 198.225494 
L 247.119729 195.173971 
L 245.925459 190.235611 
L 244.128335 183.146347 
L 243.374539 179.421638 
L 242.875448 175.58103 
L 242.740105 171.733589 
L 242.886092 167.934635 
L 243.528907 160.62236 
L 243.903522 155.603543 
L 243.938218 152.621801 
L 243.737597 150.037331 
L 243.294757 147.919603 
L 242.696787 146.349089 
L 242.338437 145.741258 
L 241.748395 145.076933 
L 240.914089 144.379063 
L 239.848425 143.672073 
L 237.132829 142.286997 
L 233.845492 140.954322 
L 226.442361 138.16633 
L 222.678231 136.429354 
L 220.844159 135.37355 
L 219.073086 134.130854 
L 217.408511 132.643682 
L 215.92731 130.861521 
L 214.837105 129.006653 
L 214.089302 127.245266 
L 213.489355 125.407639 
L 213.018468 123.500823 
L 212.663772 121.532131 
L 212.270096 117.443817 
L 212.264342 113.222621 
L 212.62466 108.960377 
L 213.343342 104.75331 
L 214.42812 100.695251 
L 215.116826 98.749381 
L 215.913058 96.872382 
L 216.829594 95.07423 
L 217.885484 93.366497 
L 219.270148 91.598678 
L 221.00563 90.013927 
L 222.875673 88.820609 
L 224.814292 87.927609 
L 226.797053 87.255665 
L 228.813872 86.745964 
L 232.909662 86.051267 
L 245.673526 84.473034 
L 247.748544 83.884304 
L 248.900551 83.417675 
L 249.212698 82.982033 
L 249.490456 82.363564 
L 249.710074 81.546057 
L 249.850464 80.536742 
L 249.855152 78.022307 
L 249.503705 74.993624 
L 248.86942 71.602459 
L 245.985389 58.360315 
L 245.500872 54.700512 
L 245.500872 54.700512 
" style="fill:none;stroke:#ffffff;stroke-linecap:square;"/>
   </g>
   <g id="line2d_16">
    <path clip-path="url(#pc7b738ad01)" d="M 236.324847 295.488 
L 236.584197 278.754325 
L 236.883953 261.731467 
L 236.643876 256.332739 
L 235.826161 244.495393 
L 235.814415 241.435616 
L 235.995021 238.58092 
L 236.402183 235.958067 
L 237.025287 233.662254 
L 237.423501 232.666339 
L 237.976751 231.631535 
L 239.53692 229.460487 
L 241.622748 227.190828 
L 245.429105 223.633023 
L 249.589459 219.795126 
L 252.304872 216.950838 
L 253.582201 215.39662 
L 254.770354 213.728631 
L 255.834256 211.928288 
L 256.730125 209.983317 
L 257.386558 207.990368 
L 257.80799 206.044048 
L 258.054416 204.107395 
L 258.14935 202.188844 
L 257.973426 198.419258 
L 257.438829 194.741154 
L 256.676627 191.149899 
L 253.462648 177.863657 
L 253.064373 174.962103 
L 252.945087 171.969386 
L 253.066324 168.683054 
L 253.69618 161.530009 
L 254.107599 155.875687 
L 254.128888 152.032294 
L 254.008261 150.095496 
L 253.769756 148.152378 
L 253.386751 146.208904 
L 252.830272 144.276633 
L 252.071563 142.375665 
L 251.01651 140.434744 
L 249.655171 138.623487 
L 248.114717 137.09776 
L 246.457496 135.807722 
L 244.720382 134.702051 
L 242.926909 133.737517 
L 239.245348 132.102559 
L 227.695683 127.539897 
L 225.704851 126.370894 
L 224.598211 125.475174 
L 224.190493 124.918697 
L 223.768871 124.0044 
L 223.056735 121.648674 
L 222.596567 118.760798 
L 222.426429 115.532913 
L 222.552951 112.141979 
L 222.966025 108.756842 
L 223.641778 105.545461 
L 224.536929 102.681164 
L 225.570965 100.345444 
L 226.705644 98.481931 
L 227.283137 98.027754 
L 228.171755 97.567355 
L 229.343044 97.140764 
L 232.361472 96.451521 
L 236.007857 95.959967 
L 244.170036 95.08245 
L 248.347175 94.324373 
L 250.422865 93.738715 
L 252.481554 92.928411 
L 254.493258 91.79599 
L 256.363912 90.236394 
L 257.806257 88.406229 
L 258.77377 86.557387 
L 259.435974 84.662244 
L 259.84574 82.75665 
L 260.053269 80.853015 
L 260.099534 78.951974 
L 259.829474 75.146279 
L 259.224586 71.32942 
L 257.99373 65.640849 
L 256.381133 58.463576 
L 255.835561 55.26997 
L 255.64556 53.568 
L 255.64556 53.568 
" style="fill:none;stroke:#ffffff;stroke-linecap:square;"/>
   </g>
   <g id="patch_3">
    <path d="M 57.6 307.584 
L 57.6 41.472 
" style="fill:none;stroke:#000000;stroke-linecap:square;stroke-linejoin:miter;stroke-width:0.8;"/>
   </g>
   <g id="patch_4">
    <path d="M 414.72 307.584 
L 414.72 41.472 
" style="fill:none;stroke:#000000;stroke-linecap:square;stroke-linejoin:miter;stroke-width:0.8;"/>
   </g>
   <g id="patch_5">
    <path d="M 57.6 307.584 
L 414.72 307.584 
" style="fill:none;stroke:#000000;stroke-linecap:square;stroke-linejoin:miter;stroke-width:0.8;"/>
   </g>
   <g id="patch_6">
    <path d="M 57.6 41.472 
L 414.72 41.472 
" style="fill:none;stroke:#000000;stroke-linecap:square;stroke-linejoin:miter;stroke-width:0.8;"/>
   </g>
  </g>
 </g>
 <defs>
  <clipPath id="pc7b738ad01">
   <rect height="266.112" width="357.12" x="57.6" y="41.472"/>
  </clipPath>
 </defs>
</svg>
