<?xml version="1.0" encoding="utf-8" standalone="no"?>
<!DOCTYPE svg PUBLIC "-//W3C//DTD SVG 1.1//EN"
  "http://www.w3.org/Graphics/SVG/1.1/DTD/svg11.dtd">
<!-- Created with matplotlib (https://matplotlib.org/) -->
<svg height="345.6pt" version="1.1" viewBox="0 0 460.8 345.6" width="460.8pt" xmlns="http://www.w3.org/2000/svg" xmlns:xlink="http://www.w3.org/1999/xlink">
 <metadata>
  <rdf:RDF xmlns:cc="http://creativecommons.org/ns#" xmlns:dc="http://purl.org/dc/elements/1.1/" xmlns:rdf="http://www.w3.org/1999/02/22-rdf-syntax-ns#">
   <cc:Work>
    <dc:type rdf:resource="http://purl.org/dc/dcmitype/StillImage"/>
    <dc:date>2021-05-20T11:38:20.716866</dc:date>
    <dc:format>image/svg+xml</dc:format>
    <dc:creator>
     <cc:Agent>
      <dc:title>Matplotlib v3.3.3, https://matplotlib.org/</dc:title>
     </cc:Agent>
    </dc:creator>
   </cc:Work>
  </rdf:RDF>
 </metadata>
 <defs>
  <style type="text/css">*{stroke-linecap:butt;stroke-linejoin:round;}</style>
 </defs>
 <g id="figure_1">
  <g id="patch_1">
   <path d="M 0 345.6 
L 460.8 345.6 
L 460.8 0 
L 0 0 
z
" style="fill:#ffffff;"/>
  </g>
  <g id="axes_1">
   <g id="patch_2">
    <path d="M 57.6 307.584 
L 414.72 307.584 
L 414.72 41.472 
L 57.6 41.472 
z
" style="fill:#7d9051;"/>
   </g>
   <g id="matplotlib.axis_1">
    <g id="xtick_1">
     <g id="line2d_1">
      <defs>
       <path d="M 0 0 
L 0 3.5 
" id="m8522bddc04" style="stroke:#000000;stroke-width:0.8;"/>
      </defs>
      <g>
       <use style="stroke:#000000;stroke-width:0.8;" x="96.076241" xlink:href="#m8522bddc04" y="307.584"/>
      </g>
     </g>
     <g id="text_1">
      <!-- −80 -->
      <g transform="translate(85.523897 322.182437)scale(0.1 -0.1)">
       <defs>
        <path d="M 10.59375 35.5 
L 73.1875 35.5 
L 73.1875 27.203125 
L 10.59375 27.203125 
z
" id="DejaVuSans-8722"/>
        <path d="M 31.78125 34.625 
Q 24.75 34.625 20.71875 30.859375 
Q 16.703125 27.09375 16.703125 20.515625 
Q 16.703125 13.921875 20.71875 10.15625 
Q 24.75 6.390625 31.78125 6.390625 
Q 38.8125 6.390625 42.859375 10.171875 
Q 46.921875 13.96875 46.921875 20.515625 
Q 46.921875 27.09375 42.890625 30.859375 
Q 38.875 34.625 31.78125 34.625 
z
M 21.921875 38.8125 
Q 15.578125 40.375 12.03125 44.71875 
Q 8.5 49.078125 8.5 55.328125 
Q 8.5 64.0625 14.71875 69.140625 
Q 20.953125 74.21875 31.78125 74.21875 
Q 42.671875 74.21875 48.875 69.140625 
Q 55.078125 64.0625 55.078125 55.328125 
Q 55.078125 49.078125 51.53125 44.71875 
Q 48 40.375 41.703125 38.8125 
Q 48.828125 37.15625 52.796875 32.3125 
Q 56.78125 27.484375 56.78125 20.515625 
Q 56.78125 9.90625 50.3125 4.234375 
Q 43.84375 -1.421875 31.78125 -1.421875 
Q 19.734375 -1.421875 13.25 4.234375 
Q 6.78125 9.90625 6.78125 20.515625 
Q 6.78125 27.484375 10.78125 32.3125 
Q 14.796875 37.15625 21.921875 38.8125 
z
M 18.3125 54.390625 
Q 18.3125 48.734375 21.84375 45.5625 
Q 25.390625 42.390625 31.78125 42.390625 
Q 38.140625 42.390625 41.71875 45.5625 
Q 45.3125 48.734375 45.3125 54.390625 
Q 45.3125 60.0625 41.71875 63.234375 
Q 38.140625 66.40625 31.78125 66.40625 
Q 25.390625 66.40625 21.84375 63.234375 
Q 18.3125 60.0625 18.3125 54.390625 
z
" id="DejaVuSans-56"/>
        <path d="M 31.78125 66.40625 
Q 24.171875 66.40625 20.328125 58.90625 
Q 16.5 51.421875 16.5 36.375 
Q 16.5 21.390625 20.328125 13.890625 
Q 24.171875 6.390625 31.78125 6.390625 
Q 39.453125 6.390625 43.28125 13.890625 
Q 47.125 21.390625 47.125 36.375 
Q 47.125 51.421875 43.28125 58.90625 
Q 39.453125 66.40625 31.78125 66.40625 
z
M 31.78125 74.21875 
Q 44.046875 74.21875 50.515625 64.515625 
Q 56.984375 54.828125 56.984375 36.375 
Q 56.984375 17.96875 50.515625 8.265625 
Q 44.046875 -1.421875 31.78125 -1.421875 
Q 19.53125 -1.421875 13.0625 8.265625 
Q 6.59375 17.96875 6.59375 36.375 
Q 6.59375 54.828125 13.0625 64.515625 
Q 19.53125 74.21875 31.78125 74.21875 
z
" id="DejaVuSans-48"/>
       </defs>
       <use xlink:href="#DejaVuSans-8722"/>
       <use x="83.789062" xlink:href="#DejaVuSans-56"/>
       <use x="147.412109" xlink:href="#DejaVuSans-48"/>
      </g>
     </g>
    </g>
    <g id="xtick_2">
     <g id="line2d_2">
      <g>
       <use style="stroke:#000000;stroke-width:0.8;" x="145.609439" xlink:href="#m8522bddc04" y="307.584"/>
      </g>
     </g>
     <g id="text_2">
      <!-- −60 -->
      <g transform="translate(135.057096 322.182437)scale(0.1 -0.1)">
       <defs>
        <path d="M 33.015625 40.375 
Q 26.375 40.375 22.484375 35.828125 
Q 18.609375 31.296875 18.609375 23.390625 
Q 18.609375 15.53125 22.484375 10.953125 
Q 26.375 6.390625 33.015625 6.390625 
Q 39.65625 6.390625 43.53125 10.953125 
Q 47.40625 15.53125 47.40625 23.390625 
Q 47.40625 31.296875 43.53125 35.828125 
Q 39.65625 40.375 33.015625 40.375 
z
M 52.59375 71.296875 
L 52.59375 62.3125 
Q 48.875 64.0625 45.09375 64.984375 
Q 41.3125 65.921875 37.59375 65.921875 
Q 27.828125 65.921875 22.671875 59.328125 
Q 17.53125 52.734375 16.796875 39.40625 
Q 19.671875 43.65625 24.015625 45.921875 
Q 28.375 48.1875 33.59375 48.1875 
Q 44.578125 48.1875 50.953125 41.515625 
Q 57.328125 34.859375 57.328125 23.390625 
Q 57.328125 12.15625 50.6875 5.359375 
Q 44.046875 -1.421875 33.015625 -1.421875 
Q 20.359375 -1.421875 13.671875 8.265625 
Q 6.984375 17.96875 6.984375 36.375 
Q 6.984375 53.65625 15.1875 63.9375 
Q 23.390625 74.21875 37.203125 74.21875 
Q 40.921875 74.21875 44.703125 73.484375 
Q 48.484375 72.75 52.59375 71.296875 
z
" id="DejaVuSans-54"/>
       </defs>
       <use xlink:href="#DejaVuSans-8722"/>
       <use x="83.789062" xlink:href="#DejaVuSans-54"/>
       <use x="147.412109" xlink:href="#DejaVuSans-48"/>
      </g>
     </g>
    </g>
    <g id="xtick_3">
     <g id="line2d_3">
      <g>
       <use style="stroke:#000000;stroke-width:0.8;" x="195.142638" xlink:href="#m8522bddc04" y="307.584"/>
      </g>
     </g>
     <g id="text_3">
      <!-- −40 -->
      <g transform="translate(184.590294 322.182437)scale(0.1 -0.1)">
       <defs>
        <path d="M 37.796875 64.3125 
L 12.890625 25.390625 
L 37.796875 25.390625 
z
M 35.203125 72.90625 
L 47.609375 72.90625 
L 47.609375 25.390625 
L 58.015625 25.390625 
L 58.015625 17.1875 
L 47.609375 17.1875 
L 47.609375 0 
L 37.796875 0 
L 37.796875 17.1875 
L 4.890625 17.1875 
L 4.890625 26.703125 
z
" id="DejaVuSans-52"/>
       </defs>
       <use xlink:href="#DejaVuSans-8722"/>
       <use x="83.789062" xlink:href="#DejaVuSans-52"/>
       <use x="147.412109" xlink:href="#DejaVuSans-48"/>
      </g>
     </g>
    </g>
    <g id="xtick_4">
     <g id="line2d_4">
      <g>
       <use style="stroke:#000000;stroke-width:0.8;" x="244.675837" xlink:href="#m8522bddc04" y="307.584"/>
      </g>
     </g>
     <g id="text_4">
      <!-- −20 -->
      <g transform="translate(234.123493 322.182437)scale(0.1 -0.1)">
       <defs>
        <path d="M 19.1875 8.296875 
L 53.609375 8.296875 
L 53.609375 0 
L 7.328125 0 
L 7.328125 8.296875 
Q 12.9375 14.109375 22.625 23.890625 
Q 32.328125 33.6875 34.8125 36.53125 
Q 39.546875 41.84375 41.421875 45.53125 
Q 43.3125 49.21875 43.3125 52.78125 
Q 43.3125 58.59375 39.234375 62.25 
Q 35.15625 65.921875 28.609375 65.921875 
Q 23.96875 65.921875 18.8125 64.3125 
Q 13.671875 62.703125 7.8125 59.421875 
L 7.8125 69.390625 
Q 13.765625 71.78125 18.9375 73 
Q 24.125 74.21875 28.421875 74.21875 
Q 39.75 74.21875 46.484375 68.546875 
Q 53.21875 62.890625 53.21875 53.421875 
Q 53.21875 48.921875 51.53125 44.890625 
Q 49.859375 40.875 45.40625 35.40625 
Q 44.1875 33.984375 37.640625 27.21875 
Q 31.109375 20.453125 19.1875 8.296875 
z
" id="DejaVuSans-50"/>
       </defs>
       <use xlink:href="#DejaVuSans-8722"/>
       <use x="83.789062" xlink:href="#DejaVuSans-50"/>
       <use x="147.412109" xlink:href="#DejaVuSans-48"/>
      </g>
     </g>
    </g>
    <g id="xtick_5">
     <g id="line2d_5">
      <g>
       <use style="stroke:#000000;stroke-width:0.8;" x="294.209036" xlink:href="#m8522bddc04" y="307.584"/>
      </g>
     </g>
     <g id="text_5">
      <!-- 0 -->
      <g transform="translate(291.027786 322.182437)scale(0.1 -0.1)">
       <use xlink:href="#DejaVuSans-48"/>
      </g>
     </g>
    </g>
    <g id="xtick_6">
     <g id="line2d_6">
      <g>
       <use style="stroke:#000000;stroke-width:0.8;" x="343.742234" xlink:href="#m8522bddc04" y="307.584"/>
      </g>
     </g>
     <g id="text_6">
      <!-- 20 -->
      <g transform="translate(337.379734 322.182437)scale(0.1 -0.1)">
       <use xlink:href="#DejaVuSans-50"/>
       <use x="63.623047" xlink:href="#DejaVuSans-48"/>
      </g>
     </g>
    </g>
    <g id="xtick_7">
     <g id="line2d_7">
      <g>
       <use style="stroke:#000000;stroke-width:0.8;" x="393.275433" xlink:href="#m8522bddc04" y="307.584"/>
      </g>
     </g>
     <g id="text_7">
      <!-- 40 -->
      <g transform="translate(386.912933 322.182437)scale(0.1 -0.1)">
       <use xlink:href="#DejaVuSans-52"/>
       <use x="63.623047" xlink:href="#DejaVuSans-48"/>
      </g>
     </g>
    </g>
   </g>
   <g id="matplotlib.axis_2">
    <g id="ytick_1">
     <g id="line2d_8">
      <defs>
       <path d="M 0 0 
L -3.5 0 
" id="m9b768822ea" style="stroke:#000000;stroke-width:0.8;"/>
      </defs>
      <g>
       <use style="stroke:#000000;stroke-width:0.8;" x="57.6" xlink:href="#m9b768822ea" y="295.392689"/>
      </g>
     </g>
     <g id="text_8">
      <!-- 0 -->
      <g transform="translate(44.2375 299.191908)scale(0.1 -0.1)">
       <use xlink:href="#DejaVuSans-48"/>
      </g>
     </g>
    </g>
    <g id="ytick_2">
     <g id="line2d_9">
      <g>
       <use style="stroke:#000000;stroke-width:0.8;" x="57.6" xlink:href="#m9b768822ea" y="245.85949"/>
      </g>
     </g>
     <g id="text_9">
      <!-- 20 -->
      <g transform="translate(37.875 249.658709)scale(0.1 -0.1)">
       <use xlink:href="#DejaVuSans-50"/>
       <use x="63.623047" xlink:href="#DejaVuSans-48"/>
      </g>
     </g>
    </g>
    <g id="ytick_3">
     <g id="line2d_10">
      <g>
       <use style="stroke:#000000;stroke-width:0.8;" x="57.6" xlink:href="#m9b768822ea" y="196.326291"/>
      </g>
     </g>
     <g id="text_10">
      <!-- 40 -->
      <g transform="translate(37.875 200.12551)scale(0.1 -0.1)">
       <use xlink:href="#DejaVuSans-52"/>
       <use x="63.623047" xlink:href="#DejaVuSans-48"/>
      </g>
     </g>
    </g>
    <g id="ytick_4">
     <g id="line2d_11">
      <g>
       <use style="stroke:#000000;stroke-width:0.8;" x="57.6" xlink:href="#m9b768822ea" y="146.793093"/>
      </g>
     </g>
     <g id="text_11">
      <!-- 60 -->
      <g transform="translate(37.875 150.592311)scale(0.1 -0.1)">
       <use xlink:href="#DejaVuSans-54"/>
       <use x="63.623047" xlink:href="#DejaVuSans-48"/>
      </g>
     </g>
    </g>
    <g id="ytick_5">
     <g id="line2d_12">
      <g>
       <use style="stroke:#000000;stroke-width:0.8;" x="57.6" xlink:href="#m9b768822ea" y="97.259894"/>
      </g>
     </g>
     <g id="text_12">
      <!-- 80 -->
      <g transform="translate(37.875 101.059113)scale(0.1 -0.1)">
       <use xlink:href="#DejaVuSans-56"/>
       <use x="63.623047" xlink:href="#DejaVuSans-48"/>
      </g>
     </g>
    </g>
    <g id="ytick_6">
     <g id="line2d_13">
      <g>
       <use style="stroke:#000000;stroke-width:0.8;" x="57.6" xlink:href="#m9b768822ea" y="47.726695"/>
      </g>
     </g>
     <g id="text_13">
      <!-- 100 -->
      <g transform="translate(31.5125 51.525914)scale(0.1 -0.1)">
       <defs>
        <path d="M 12.40625 8.296875 
L 28.515625 8.296875 
L 28.515625 63.921875 
L 10.984375 60.40625 
L 10.984375 69.390625 
L 28.421875 72.90625 
L 38.28125 72.90625 
L 38.28125 8.296875 
L 54.390625 8.296875 
L 54.390625 0 
L 12.40625 0 
z
" id="DejaVuSans-49"/>
       </defs>
       <use xlink:href="#DejaVuSans-49"/>
       <use x="63.623047" xlink:href="#DejaVuSans-48"/>
       <use x="127.246094" xlink:href="#DejaVuSans-48"/>
      </g>
     </g>
    </g>
   </g>
   <g id="line2d_14">
    <path clip-path="url(#pf2d3d12014)" d="M 294.209036 295.392689 
L 294.527746 272.584129 
L 295.318996 226.955723 
L 295.139695 217.125501 
L 294.741591 200.726074 
L 294.721325 194.188315 
L 294.869816 187.677285 
L 295.246623 181.202416 
L 295.911309 174.773143 
L 296.370219 171.578552 
L 297.013604 168.363864 
L 297.908563 165.10135 
L 299.016766 161.801376 
L 300.299885 158.474311 
L 303.237555 151.780379 
L 310.959725 135.297201 
L 312.262327 132.126648 
L 313.394883 129.022314 
L 314.319066 125.994567 
L 314.996545 123.053775 
L 315.388992 120.210305 
L 315.458078 117.474526 
L 315.165475 114.856805 
L 314.472852 112.36751 
L 313.386924 109.993693 
L 311.958341 107.712995 
L 310.214677 105.521667 
L 308.183504 103.415963 
L 305.892395 101.392134 
L 303.368924 99.446434 
L 300.640665 97.575114 
L 297.735189 95.774426 
L 294.680072 94.040623 
L 288.231203 90.758681 
L 281.514643 87.699306 
L 271.420416 83.461971 
L 258.960109 78.270135 
L 246.279827 72.841838 
L 239.688627 70.209245 
L 233.041392 67.821971 
L 226.421628 65.823229 
L 223.148143 65.014311 
L 219.91284 64.35623 
L 216.726156 63.866887 
L 213.598531 63.564185 
L 210.540401 63.466025 
L 207.562206 63.590308 
L 204.674382 63.954935 
L 201.887369 64.577808 
L 199.118352 65.473612 
L 196.290547 66.632549 
L 193.423443 68.035803 
L 190.536524 69.664554 
L 187.649278 71.499986 
L 184.78119 73.52328 
L 181.951748 75.715618 
L 179.180436 78.058183 
L 176.486743 80.532155 
L 173.890154 83.118718 
L 171.410156 85.799054 
L 169.066234 88.554343 
L 166.877876 91.36577 
L 164.864568 94.214514 
L 163.045795 97.081759 
L 161.441045 99.948687 
L 160.069804 102.796479 
L 158.951558 105.606317 
L 158.105793 108.359384 
L 157.508046 111.199751 
L 157.116194 114.261776 
L 156.923236 117.51207 
L 156.922169 120.917248 
L 157.105994 124.443921 
L 157.467708 128.058701 
L 158.00031 131.728202 
L 158.696798 135.419035 
L 159.550172 139.097814 
L 160.55343 142.73115 
L 161.69957 146.285657 
L 162.981591 149.727947 
L 164.392492 153.024631 
L 165.925271 156.142324 
L 167.572927 159.047637 
L 169.328459 161.707183 
L 171.184865 164.087574 
L 173.135143 166.155423 
L 175.172293 167.877343 
L 177.434444 169.171143 
L 180.037326 170.012471 
L 182.940343 170.454691 
L 186.102898 170.551166 
L 189.484392 170.355261 
L 193.044228 169.92034 
L 196.741809 169.299769 
L 204.387814 167.71513 
L 215.874969 165.279897 
L 219.546469 164.666071 
L 223.071532 164.240143 
L 226.409559 164.05548 
L 229.519953 164.165444 
L 232.362116 164.623402 
L 234.895452 165.482716 
L 237.079361 166.796751 
L 238.945618 168.521569 
L 240.567048 170.559751 
L 241.964638 172.884436 
L 243.159372 175.468764 
L 244.172235 178.285876 
L 245.024213 181.308912 
L 245.73629 184.511013 
L 246.329452 187.865319 
L 247.242969 194.923106 
L 248.246006 205.979831 
L 248.914697 213.350982 
L 249.779249 220.471441 
L 250.337436 223.870513 
L 251.007543 227.126333 
L 251.007543 227.126333 
" style="fill:none;stroke:#fea952;stroke-linecap:square;"/>
   </g>
   <g id="line2d_15">
    <path clip-path="url(#pf2d3d12014)" d="M 284.302854 295.297378 
L 284.622787 272.401657 
L 285.413004 227.069006 
L 285.236742 217.395742 
L 284.835301 200.809357 
L 284.815824 194.038103 
L 284.974642 187.200792 
L 285.38062 180.306045 
L 286.105331 173.364492 
L 286.65622 169.634401 
L 287.459899 165.743134 
L 288.517334 161.947569 
L 289.773689 158.236682 
L 291.181121 154.602665 
L 294.27719 147.555054 
L 301.796304 131.532467 
L 303.919812 126.130165 
L 304.665286 123.770596 
L 305.182933 121.699329 
L 305.48551 119.960215 
L 305.62139 117.512358 
L 305.464098 116.488659 
L 304.991319 115.252527 
L 304.206365 113.881331 
L 303.084577 112.399399 
L 301.624936 110.840699 
L 299.843289 109.237505 
L 297.765392 107.616008 
L 295.421943 105.995711 
L 292.845607 104.390312 
L 287.125965 101.257256 
L 280.8637 98.253433 
L 274.302229 95.38311 
L 236.240671 79.4965 
L 230.035104 77.261449 
L 224.045063 75.44058 
L 221.173506 74.722159 
L 218.409216 74.148095 
L 215.771818 73.727453 
L 213.280709 73.465726 
L 210.953454 73.36405 
L 208.803202 73.418911 
L 206.835126 73.623063 
L 204.936664 74.003482 
L 202.875185 74.640275 
L 200.645546 75.530611 
L 198.291314 76.663974 
L 195.851226 78.024905 
L 193.359937 79.595039 
L 190.848887 81.35428 
L 188.34706 83.281429 
L 185.881591 85.354486 
L 183.478232 87.550745 
L 181.161682 89.846749 
L 178.955812 92.218134 
L 176.88378 94.639365 
L 174.96803 97.083367 
L 173.230124 99.521017 
L 171.690335 101.920502 
L 170.366843 104.246551 
L 169.274301 106.45964 
L 168.421404 108.515531 
L 167.800088 110.399521 
L 167.33455 112.457264 
L 167.005422 114.848864 
L 166.829875 117.515173 
L 166.815379 120.401574 
L 166.963405 123.457536 
L 167.271619 126.635733 
L 167.735134 129.891166 
L 168.347191 133.180414 
L 169.099454 136.461011 
L 169.982032 139.690925 
L 170.983258 142.828108 
L 172.089193 145.830114 
L 173.282793 148.653813 
L 174.542598 151.255281 
L 175.840771 153.590141 
L 177.140344 155.614895 
L 178.3918 157.290399 
L 180.481347 159.744697 
L 181.529204 160.218809 
L 183.242409 160.552657 
L 185.529923 160.661109 
L 188.282989 160.521739 
L 191.404512 160.150343 
L 194.813948 159.582523 
L 202.243638 158.043314 
L 210.172358 156.310499 
L 214.241382 155.508873 
L 218.35811 154.830964 
L 222.524322 154.348628 
L 226.759579 154.155025 
L 231.095881 154.384956 
L 235.544384 155.241788 
L 240.002916 156.994175 
L 243.8033 159.521439 
L 246.698287 162.354104 
L 249.057441 165.455366 
L 250.956859 168.727336 
L 252.481772 172.116993 
L 253.707432 175.598586 
L 254.694627 179.158424 
L 255.491575 182.785929 
L 256.137258 186.469451 
L 257.10115 193.944447 
L 258.115789 205.126083 
L 259.132276 215.650734 
L 260.040687 221.873408 
L 260.710794 225.129228 
L 260.710794 225.129228 
" style="fill:none;stroke:#ffffff;stroke-linecap:square;"/>
   </g>
   <g id="line2d_16">
    <path clip-path="url(#pf2d3d12014)" d="M 304.115217 295.488 
L 304.432705 272.7666 
L 305.224988 226.84244 
L 305.042648 216.855259 
L 304.620702 197.4764 
L 304.672799 191.230544 
L 304.909592 185.109482 
L 305.379953 179.122649 
L 306.084219 173.522704 
L 306.567309 170.984594 
L 307.299792 168.25513 
L 308.259843 165.36607 
L 309.41865 162.345957 
L 312.19792 156.005704 
L 320.123147 139.061934 
L 321.568947 135.521989 
L 322.869955 131.914463 
L 323.972846 128.218538 
L 324.810158 124.40822 
L 325.292475 120.460396 
L 325.303404 116.374034 
L 324.709559 112.201253 
L 323.481605 108.246362 
L 321.782529 104.734859 
L 319.710317 101.544658 
L 317.344776 98.643936 
L 314.742071 95.991227 
L 311.9415 93.546764 
L 308.972456 91.27686 
L 305.859386 89.154517 
L 302.624772 87.15854 
L 299.29073 85.272309 
L 292.415317 81.778999 
L 285.423531 78.596443 
L 275.171784 74.29307 
L 262.892896 69.177572 
L 250.018383 63.667705 
L 243.136583 60.92199 
L 236.047681 58.382494 
L 232.440807 57.23858 
L 228.798194 56.205878 
L 225.12278 55.306462 
L 221.416464 54.564364 
L 217.680495 54.006322 
L 213.916352 53.662645 
L 210.127348 53.568 
L 206.321209 53.761705 
L 202.513639 54.286807 
L 198.838075 55.152135 
L 195.361518 56.306949 
L 191.935549 57.734488 
L 188.555572 59.407631 
L 185.221822 61.304204 
L 181.938618 63.404933 
L 178.713493 65.69228 
L 175.556435 68.149807 
L 172.479282 70.76188 
L 169.495254 73.513566 
L 166.618626 76.390688 
L 163.8645 79.379974 
L 161.248689 82.469321 
L 158.787722 85.648172 
L 156.499011 88.908011 
L 154.401255 92.243016 
L 152.515247 95.650823 
L 150.865307 99.133317 
L 149.481712 102.697104 
L 148.411498 106.319248 
L 147.681543 109.942238 
L 147.226966 113.674687 
L 147.016596 117.508968 
L 147.02896 121.432922 
L 147.248583 125.430305 
L 147.663797 129.481669 
L 148.265485 133.565238 
L 149.046405 137.657656 
L 150.00089 141.734616 
L 151.124827 145.771375 
L 152.415882 149.743206 
L 153.873989 153.625779 
L 155.502191 157.39545 
L 157.307945 161.029368 
L 159.305083 164.505134 
L 161.516574 167.799471 
L 163.977929 170.884749 
L 166.739972 173.721353 
L 170.253947 176.476842 
L 174.38754 178.59759 
L 178.545449 179.806133 
L 182.638278 180.356724 
L 186.675872 180.441222 
L 190.685795 180.188782 
L 194.683944 179.690338 
L 198.66967 179.017015 
L 206.53199 177.386946 
L 217.508555 175.050921 
L 220.734828 174.501177 
L 223.618742 174.131658 
L 226.059539 173.955934 
L 229.787987 173.971256 
L 230.355423 174.072063 
L 231.192949 174.689035 
L 232.076656 175.664136 
L 232.972418 177.041536 
L 233.836972 178.820535 
L 234.637038 180.973166 
L 235.353799 183.459401 
L 235.981005 186.236098 
L 236.521645 189.261187 
L 237.384788 195.901765 
L 238.376223 206.83358 
L 239.067678 214.436206 
L 240.003545 222.076781 
L 240.634185 225.867618 
L 241.304292 229.123439 
L 241.304292 229.123439 
" style="fill:none;stroke:#ffffff;stroke-linecap:square;"/>
   </g>
   <g id="patch_3">
    <path d="M 57.6 307.584 
L 57.6 41.472 
" style="fill:none;stroke:#000000;stroke-linecap:square;stroke-linejoin:miter;stroke-width:0.8;"/>
   </g>
   <g id="patch_4">
    <path d="M 414.72 307.584 
L 414.72 41.472 
" style="fill:none;stroke:#000000;stroke-linecap:square;stroke-linejoin:miter;stroke-width:0.8;"/>
   </g>
   <g id="patch_5">
    <path d="M 57.6 307.584 
L 414.72 307.584 
" style="fill:none;stroke:#000000;stroke-linecap:square;stroke-linejoin:miter;stroke-width:0.8;"/>
   </g>
   <g id="patch_6">
    <path d="M 57.6 41.472 
L 414.72 41.472 
" style="fill:none;stroke:#000000;stroke-linecap:square;stroke-linejoin:miter;stroke-width:0.8;"/>
   </g>
  </g>
 </g>
 <defs>
  <clipPath id="pf2d3d12014">
   <rect height="266.112" width="357.12" x="57.6" y="41.472"/>
  </clipPath>
 </defs>
</svg>
