<?xml version="1.0" encoding="utf-8" standalone="no"?>
<!DOCTYPE svg PUBLIC "-//W3C//DTD SVG 1.1//EN"
  "http://www.w3.org/Graphics/SVG/1.1/DTD/svg11.dtd">
<!-- Created with matplotlib (https://matplotlib.org/) -->
<svg height="345.6pt" version="1.1" viewBox="0 0 460.8 345.6" width="460.8pt" xmlns="http://www.w3.org/2000/svg" xmlns:xlink="http://www.w3.org/1999/xlink">
 <metadata>
  <rdf:RDF xmlns:cc="http://creativecommons.org/ns#" xmlns:dc="http://purl.org/dc/elements/1.1/" xmlns:rdf="http://www.w3.org/1999/02/22-rdf-syntax-ns#">
   <cc:Work>
    <dc:type rdf:resource="http://purl.org/dc/dcmitype/StillImage"/>
    <dc:date>2021-06-20T09:08:56.992419</dc:date>
    <dc:format>image/svg+xml</dc:format>
    <dc:creator>
     <cc:Agent>
      <dc:title>Matplotlib v3.3.3, https://matplotlib.org/</dc:title>
     </cc:Agent>
    </dc:creator>
   </cc:Work>
  </rdf:RDF>
 </metadata>
 <defs>
  <style type="text/css">*{stroke-linecap:butt;stroke-linejoin:round;}</style>
 </defs>
 <g id="figure_1">
  <g id="patch_1">
   <path d="M 0 345.6 
L 460.8 345.6 
L 460.8 0 
L 0 0 
z
" style="fill:#ffffff;"/>
  </g>
  <g id="axes_1">
   <g id="patch_2">
    <path d="M 57.6 307.584 
L 414.72 307.584 
L 414.72 41.472 
L 57.6 41.472 
z
" style="fill:#7d9051;"/>
   </g>
   <g id="matplotlib.axis_1">
    <g id="xtick_1">
     <g id="line2d_1">
      <defs>
       <path d="M 0 0 
L 0 3.5 
" id="m602483c0e2" style="stroke:#000000;stroke-width:0.8;"/>
      </defs>
      <g>
       <use style="stroke:#000000;stroke-width:0.8;" x="88.474653" xlink:href="#m602483c0e2" y="307.584"/>
      </g>
     </g>
     <g id="text_1">
      <!-- −140 -->
      <g transform="translate(74.74106 322.182437)scale(0.1 -0.1)">
       <defs>
        <path d="M 10.59375 35.5 
L 73.1875 35.5 
L 73.1875 27.203125 
L 10.59375 27.203125 
z
" id="DejaVuSans-8722"/>
        <path d="M 12.40625 8.296875 
L 28.515625 8.296875 
L 28.515625 63.921875 
L 10.984375 60.40625 
L 10.984375 69.390625 
L 28.421875 72.90625 
L 38.28125 72.90625 
L 38.28125 8.296875 
L 54.390625 8.296875 
L 54.390625 0 
L 12.40625 0 
z
" id="DejaVuSans-49"/>
        <path d="M 37.796875 64.3125 
L 12.890625 25.390625 
L 37.796875 25.390625 
z
M 35.203125 72.90625 
L 47.609375 72.90625 
L 47.609375 25.390625 
L 58.015625 25.390625 
L 58.015625 17.1875 
L 47.609375 17.1875 
L 47.609375 0 
L 37.796875 0 
L 37.796875 17.1875 
L 4.890625 17.1875 
L 4.890625 26.703125 
z
" id="DejaVuSans-52"/>
        <path d="M 31.78125 66.40625 
Q 24.171875 66.40625 20.328125 58.90625 
Q 16.5 51.421875 16.5 36.375 
Q 16.5 21.390625 20.328125 13.890625 
Q 24.171875 6.390625 31.78125 6.390625 
Q 39.453125 6.390625 43.28125 13.890625 
Q 47.125 21.390625 47.125 36.375 
Q 47.125 51.421875 43.28125 58.90625 
Q 39.453125 66.40625 31.78125 66.40625 
z
M 31.78125 74.21875 
Q 44.046875 74.21875 50.515625 64.515625 
Q 56.984375 54.828125 56.984375 36.375 
Q 56.984375 17.96875 50.515625 8.265625 
Q 44.046875 -1.421875 31.78125 -1.421875 
Q 19.53125 -1.421875 13.0625 8.265625 
Q 6.59375 17.96875 6.59375 36.375 
Q 6.59375 54.828125 13.0625 64.515625 
Q 19.53125 74.21875 31.78125 74.21875 
z
" id="DejaVuSans-48"/>
       </defs>
       <use xlink:href="#DejaVuSans-8722"/>
       <use x="83.789062" xlink:href="#DejaVuSans-49"/>
       <use x="147.412109" xlink:href="#DejaVuSans-52"/>
       <use x="211.035156" xlink:href="#DejaVuSans-48"/>
      </g>
     </g>
    </g>
    <g id="xtick_2">
     <g id="line2d_2">
      <g>
       <use style="stroke:#000000;stroke-width:0.8;" x="130.782677" xlink:href="#m602483c0e2" y="307.584"/>
      </g>
     </g>
     <g id="text_2">
      <!-- −120 -->
      <g transform="translate(117.049083 322.182437)scale(0.1 -0.1)">
       <defs>
        <path d="M 19.1875 8.296875 
L 53.609375 8.296875 
L 53.609375 0 
L 7.328125 0 
L 7.328125 8.296875 
Q 12.9375 14.109375 22.625 23.890625 
Q 32.328125 33.6875 34.8125 36.53125 
Q 39.546875 41.84375 41.421875 45.53125 
Q 43.3125 49.21875 43.3125 52.78125 
Q 43.3125 58.59375 39.234375 62.25 
Q 35.15625 65.921875 28.609375 65.921875 
Q 23.96875 65.921875 18.8125 64.3125 
Q 13.671875 62.703125 7.8125 59.421875 
L 7.8125 69.390625 
Q 13.765625 71.78125 18.9375 73 
Q 24.125 74.21875 28.421875 74.21875 
Q 39.75 74.21875 46.484375 68.546875 
Q 53.21875 62.890625 53.21875 53.421875 
Q 53.21875 48.921875 51.53125 44.890625 
Q 49.859375 40.875 45.40625 35.40625 
Q 44.1875 33.984375 37.640625 27.21875 
Q 31.109375 20.453125 19.1875 8.296875 
z
" id="DejaVuSans-50"/>
       </defs>
       <use xlink:href="#DejaVuSans-8722"/>
       <use x="83.789062" xlink:href="#DejaVuSans-49"/>
       <use x="147.412109" xlink:href="#DejaVuSans-50"/>
       <use x="211.035156" xlink:href="#DejaVuSans-48"/>
      </g>
     </g>
    </g>
    <g id="xtick_3">
     <g id="line2d_3">
      <g>
       <use style="stroke:#000000;stroke-width:0.8;" x="173.090701" xlink:href="#m602483c0e2" y="307.584"/>
      </g>
     </g>
     <g id="text_3">
      <!-- −100 -->
      <g transform="translate(159.357107 322.182437)scale(0.1 -0.1)">
       <use xlink:href="#DejaVuSans-8722"/>
       <use x="83.789062" xlink:href="#DejaVuSans-49"/>
       <use x="147.412109" xlink:href="#DejaVuSans-48"/>
       <use x="211.035156" xlink:href="#DejaVuSans-48"/>
      </g>
     </g>
    </g>
    <g id="xtick_4">
     <g id="line2d_4">
      <g>
       <use style="stroke:#000000;stroke-width:0.8;" x="215.398725" xlink:href="#m602483c0e2" y="307.584"/>
      </g>
     </g>
     <g id="text_4">
      <!-- −80 -->
      <g transform="translate(204.846381 322.182437)scale(0.1 -0.1)">
       <defs>
        <path d="M 31.78125 34.625 
Q 24.75 34.625 20.71875 30.859375 
Q 16.703125 27.09375 16.703125 20.515625 
Q 16.703125 13.921875 20.71875 10.15625 
Q 24.75 6.390625 31.78125 6.390625 
Q 38.8125 6.390625 42.859375 10.171875 
Q 46.921875 13.96875 46.921875 20.515625 
Q 46.921875 27.09375 42.890625 30.859375 
Q 38.875 34.625 31.78125 34.625 
z
M 21.921875 38.8125 
Q 15.578125 40.375 12.03125 44.71875 
Q 8.5 49.078125 8.5 55.328125 
Q 8.5 64.0625 14.71875 69.140625 
Q 20.953125 74.21875 31.78125 74.21875 
Q 42.671875 74.21875 48.875 69.140625 
Q 55.078125 64.0625 55.078125 55.328125 
Q 55.078125 49.078125 51.53125 44.71875 
Q 48 40.375 41.703125 38.8125 
Q 48.828125 37.15625 52.796875 32.3125 
Q 56.78125 27.484375 56.78125 20.515625 
Q 56.78125 9.90625 50.3125 4.234375 
Q 43.84375 -1.421875 31.78125 -1.421875 
Q 19.734375 -1.421875 13.25 4.234375 
Q 6.78125 9.90625 6.78125 20.515625 
Q 6.78125 27.484375 10.78125 32.3125 
Q 14.796875 37.15625 21.921875 38.8125 
z
M 18.3125 54.390625 
Q 18.3125 48.734375 21.84375 45.5625 
Q 25.390625 42.390625 31.78125 42.390625 
Q 38.140625 42.390625 41.71875 45.5625 
Q 45.3125 48.734375 45.3125 54.390625 
Q 45.3125 60.0625 41.71875 63.234375 
Q 38.140625 66.40625 31.78125 66.40625 
Q 25.390625 66.40625 21.84375 63.234375 
Q 18.3125 60.0625 18.3125 54.390625 
z
" id="DejaVuSans-56"/>
       </defs>
       <use xlink:href="#DejaVuSans-8722"/>
       <use x="83.789062" xlink:href="#DejaVuSans-56"/>
       <use x="147.412109" xlink:href="#DejaVuSans-48"/>
      </g>
     </g>
    </g>
    <g id="xtick_5">
     <g id="line2d_5">
      <g>
       <use style="stroke:#000000;stroke-width:0.8;" x="257.706749" xlink:href="#m602483c0e2" y="307.584"/>
      </g>
     </g>
     <g id="text_5">
      <!-- −60 -->
      <g transform="translate(247.154405 322.182437)scale(0.1 -0.1)">
       <defs>
        <path d="M 33.015625 40.375 
Q 26.375 40.375 22.484375 35.828125 
Q 18.609375 31.296875 18.609375 23.390625 
Q 18.609375 15.53125 22.484375 10.953125 
Q 26.375 6.390625 33.015625 6.390625 
Q 39.65625 6.390625 43.53125 10.953125 
Q 47.40625 15.53125 47.40625 23.390625 
Q 47.40625 31.296875 43.53125 35.828125 
Q 39.65625 40.375 33.015625 40.375 
z
M 52.59375 71.296875 
L 52.59375 62.3125 
Q 48.875 64.0625 45.09375 64.984375 
Q 41.3125 65.921875 37.59375 65.921875 
Q 27.828125 65.921875 22.671875 59.328125 
Q 17.53125 52.734375 16.796875 39.40625 
Q 19.671875 43.65625 24.015625 45.921875 
Q 28.375 48.1875 33.59375 48.1875 
Q 44.578125 48.1875 50.953125 41.515625 
Q 57.328125 34.859375 57.328125 23.390625 
Q 57.328125 12.15625 50.6875 5.359375 
Q 44.046875 -1.421875 33.015625 -1.421875 
Q 20.359375 -1.421875 13.671875 8.265625 
Q 6.984375 17.96875 6.984375 36.375 
Q 6.984375 53.65625 15.1875 63.9375 
Q 23.390625 74.21875 37.203125 74.21875 
Q 40.921875 74.21875 44.703125 73.484375 
Q 48.484375 72.75 52.59375 71.296875 
z
" id="DejaVuSans-54"/>
       </defs>
       <use xlink:href="#DejaVuSans-8722"/>
       <use x="83.789062" xlink:href="#DejaVuSans-54"/>
       <use x="147.412109" xlink:href="#DejaVuSans-48"/>
      </g>
     </g>
    </g>
    <g id="xtick_6">
     <g id="line2d_6">
      <g>
       <use style="stroke:#000000;stroke-width:0.8;" x="300.014772" xlink:href="#m602483c0e2" y="307.584"/>
      </g>
     </g>
     <g id="text_6">
      <!-- −40 -->
      <g transform="translate(289.462429 322.182437)scale(0.1 -0.1)">
       <use xlink:href="#DejaVuSans-8722"/>
       <use x="83.789062" xlink:href="#DejaVuSans-52"/>
       <use x="147.412109" xlink:href="#DejaVuSans-48"/>
      </g>
     </g>
    </g>
    <g id="xtick_7">
     <g id="line2d_7">
      <g>
       <use style="stroke:#000000;stroke-width:0.8;" x="342.322796" xlink:href="#m602483c0e2" y="307.584"/>
      </g>
     </g>
     <g id="text_7">
      <!-- −20 -->
      <g transform="translate(331.770452 322.182437)scale(0.1 -0.1)">
       <use xlink:href="#DejaVuSans-8722"/>
       <use x="83.789062" xlink:href="#DejaVuSans-50"/>
       <use x="147.412109" xlink:href="#DejaVuSans-48"/>
      </g>
     </g>
    </g>
    <g id="xtick_8">
     <g id="line2d_8">
      <g>
       <use style="stroke:#000000;stroke-width:0.8;" x="384.63082" xlink:href="#m602483c0e2" y="307.584"/>
      </g>
     </g>
     <g id="text_8">
      <!-- 0 -->
      <g transform="translate(381.44957 322.182437)scale(0.1 -0.1)">
       <use xlink:href="#DejaVuSans-48"/>
      </g>
     </g>
    </g>
   </g>
   <g id="matplotlib.axis_2">
    <g id="ytick_1">
     <g id="line2d_9">
      <defs>
       <path d="M 0 0 
L -3.5 0 
" id="m49807ae2b2" style="stroke:#000000;stroke-width:0.8;"/>
      </defs>
      <g>
       <use style="stroke:#000000;stroke-width:0.8;" x="57.6" xlink:href="#m49807ae2b2" y="280.949928"/>
      </g>
     </g>
     <g id="text_9">
      <!-- −20 -->
      <g transform="translate(29.495313 284.749147)scale(0.1 -0.1)">
       <use xlink:href="#DejaVuSans-8722"/>
       <use x="83.789062" xlink:href="#DejaVuSans-50"/>
       <use x="147.412109" xlink:href="#DejaVuSans-48"/>
      </g>
     </g>
    </g>
    <g id="ytick_2">
     <g id="line2d_10">
      <g>
       <use style="stroke:#000000;stroke-width:0.8;" x="57.6" xlink:href="#m49807ae2b2" y="238.641904"/>
      </g>
     </g>
     <g id="text_10">
      <!-- 0 -->
      <g transform="translate(44.2375 242.441123)scale(0.1 -0.1)">
       <use xlink:href="#DejaVuSans-48"/>
      </g>
     </g>
    </g>
    <g id="ytick_3">
     <g id="line2d_11">
      <g>
       <use style="stroke:#000000;stroke-width:0.8;" x="57.6" xlink:href="#m49807ae2b2" y="196.33388"/>
      </g>
     </g>
     <g id="text_11">
      <!-- 20 -->
      <g transform="translate(37.875 200.133099)scale(0.1 -0.1)">
       <use xlink:href="#DejaVuSans-50"/>
       <use x="63.623047" xlink:href="#DejaVuSans-48"/>
      </g>
     </g>
    </g>
    <g id="ytick_4">
     <g id="line2d_12">
      <g>
       <use style="stroke:#000000;stroke-width:0.8;" x="57.6" xlink:href="#m49807ae2b2" y="154.025856"/>
      </g>
     </g>
     <g id="text_12">
      <!-- 40 -->
      <g transform="translate(37.875 157.825075)scale(0.1 -0.1)">
       <use xlink:href="#DejaVuSans-52"/>
       <use x="63.623047" xlink:href="#DejaVuSans-48"/>
      </g>
     </g>
    </g>
    <g id="ytick_5">
     <g id="line2d_13">
      <g>
       <use style="stroke:#000000;stroke-width:0.8;" x="57.6" xlink:href="#m49807ae2b2" y="111.717833"/>
      </g>
     </g>
     <g id="text_13">
      <!-- 60 -->
      <g transform="translate(37.875 115.517051)scale(0.1 -0.1)">
       <use xlink:href="#DejaVuSans-54"/>
       <use x="63.623047" xlink:href="#DejaVuSans-48"/>
      </g>
     </g>
    </g>
    <g id="ytick_6">
     <g id="line2d_14">
      <g>
       <use style="stroke:#000000;stroke-width:0.8;" x="57.6" xlink:href="#m49807ae2b2" y="69.409809"/>
      </g>
     </g>
     <g id="text_14">
      <!-- 80 -->
      <g transform="translate(37.875 73.209028)scale(0.1 -0.1)">
       <use xlink:href="#DejaVuSans-56"/>
       <use x="63.623047" xlink:href="#DejaVuSans-48"/>
      </g>
     </g>
    </g>
   </g>
   <g id="line2d_15">
    <path clip-path="url(#p3538786383)" d="M 384.63082 238.641904 
L 384.95431 216.377346 
L 385.670608 182.930508 
L 386.245438 177.004556 
L 387.123555 170.850062 
L 389.06176 158.403948 
L 389.757905 152.386579 
L 389.958125 149.489309 
L 390.029449 146.68917 
L 389.94913 144.003302 
L 389.694421 141.448846 
L 389.242576 139.042942 
L 388.570849 136.802732 
L 387.656493 134.745355 
L 386.476762 132.887954 
L 385.010733 131.191416 
L 383.269092 129.605007 
L 381.276505 128.128433 
L 379.057637 126.761398 
L 376.637155 125.503609 
L 374.039724 124.35477 
L 371.290011 123.314587 
L 368.41268 122.382765 
L 365.432398 121.55901 
L 362.373831 120.843027 
L 356.120504 119.733198 
L 349.850025 119.050921 
L 343.759722 118.793839 
L 338.046919 118.959595 
L 335.393746 119.200301 
L 332.833043 119.598427 
L 330.295727 120.194999 
L 327.779692 120.972815 
L 325.282832 121.914669 
L 322.803042 123.003358 
L 317.886247 125.552423 
L 313.01246 128.482377 
L 305.74557 133.290401 
L 296.049681 139.749636 
L 291.160961 142.69038 
L 286.192093 145.278023 
L 280.987063 147.598856 
L 272.88926 150.805438 
L 262.07566 155.049131 
L 256.8869 157.363495 
L 251.976905 159.928355 
L 249.657713 161.333349 
L 247.445732 162.835321 
L 245.35347 164.445722 
L 243.393433 166.176005 
L 241.57813 168.03762 
L 239.959851 170.100699 
L 238.564447 172.40622 
L 237.364759 174.921897 
L 236.333629 177.615446 
L 235.443897 180.454584 
L 233.979998 186.440485 
L 230.893643 201.693127 
L 230.1574 204.534734 
L 229.31813 207.231371 
L 228.348675 209.750753 
L 227.221876 212.060596 
L 225.910574 214.128616 
L 224.387612 215.922528 
L 222.62583 217.410048 
L 220.630122 218.645907 
L 218.436481 219.710934 
L 216.0644 220.611997 
L 213.53337 221.355962 
L 210.862884 221.949696 
L 208.072435 222.400065 
L 205.181514 222.713936 
L 202.209613 222.898176 
L 199.176225 222.959651 
L 193.002958 222.741775 
L 186.817649 222.11524 
L 180.776237 221.134981 
L 175.034659 219.855929 
L 169.748855 218.333019 
L 167.287285 217.37642 
L 164.902589 216.154923 
L 162.58588 214.701185 
L 160.328271 213.047867 
L 158.120875 211.227625 
L 153.821175 207.217007 
L 141.202941 194.575469 
L 139.047549 192.722546 
L 136.853499 191.029285 
L 134.611906 189.528343 
L 132.313881 188.252378 
L 129.950539 187.234049 
L 127.512992 186.506014 
L 125.009278 186.047073 
L 122.456182 185.80203 
L 119.857937 185.752551 
L 117.218774 185.880302 
L 114.542928 186.166949 
L 111.83463 186.594157 
L 106.337612 187.796923 
L 100.761583 189.341926 
L 81.112147 195.326962 
L 75.599609 196.596953 
L 75.599609 196.596953 
" style="fill:none;stroke:#fea952;stroke-linecap:square;"/>
   </g>
   <g id="line2d_16">
    <path clip-path="url(#p3538786383)" d="M 376.169607 238.560495 
L 376.494249 216.215765 
L 377.23689 182.244096 
L 377.859826 175.873069 
L 378.766852 169.521805 
L 380.668855 157.327888 
L 381.316433 151.803218 
L 381.571625 146.942096 
L 381.529278 144.842858 
L 381.378207 143.010686 
L 380.83849 140.23921 
L 380.513844 139.282019 
L 380.074388 138.420436 
L 379.31275 137.446953 
L 378.231225 136.403437 
L 376.838085 135.332541 
L 375.155956 134.269769 
L 373.214447 133.242072 
L 371.045857 132.26903 
L 368.683026 131.36458 
L 366.158404 130.53856 
L 363.503751 129.797886 
L 357.928058 128.590375 
L 352.198981 127.764701 
L 346.557754 127.32832 
L 341.253515 127.27569 
L 336.693698 127.561454 
L 334.769721 127.835418 
L 332.794879 128.279119 
L 330.766132 128.889881 
L 328.684315 129.662487 
L 326.552447 130.588918 
L 322.154102 132.85887 
L 317.598935 135.593143 
L 310.50177 140.28878 
L 303.067961 145.291492 
L 297.880882 148.563372 
L 292.474074 151.601154 
L 286.968518 154.234061 
L 281.41551 156.565582 
L 262.995034 163.865162 
L 258.449287 166.033675 
L 254.41105 168.333673 
L 252.606814 169.540691 
L 250.953376 170.789207 
L 248.235895 173.259967 
L 247.198814 174.482043 
L 246.202036 176.04847 
L 245.267118 177.947037 
L 244.408033 180.145811 
L 243.6279 182.604201 
L 242.270994 188.131086 
L 239.084779 203.8154 
L 238.236752 207.049258 
L 237.215246 210.270172 
L 235.953638 213.460644 
L 234.36797 216.591831 
L 232.361108 219.60487 
L 229.846435 222.38782 
L 227.08073 224.603977 
L 224.325753 226.25781 
L 221.441238 227.621067 
L 218.450635 228.730164 
L 215.369812 229.61588 
L 212.211112 230.3032 
L 208.985755 230.812235 
L 205.705077 231.159328 
L 202.381063 231.358044 
L 199.026511 231.419932 
L 195.655003 231.35508 
L 188.918655 230.880421 
L 182.291309 229.997433 
L 175.895129 228.760107 
L 169.848563 227.212618 
L 166.683865 226.220008 
L 163.429674 224.907528 
L 160.405064 223.322281 
L 157.586442 221.527925 
L 154.944964 219.576171 
L 152.452283 217.509808 
L 147.816789 213.179061 
L 135.686868 200.991985 
L 132.145639 198.060274 
L 130.504347 196.926093 
L 128.965508 196.023295 
L 127.528971 195.341746 
L 125.987364 194.828947 
L 124.200859 194.469971 
L 122.295076 194.2621 
L 120.267049 194.20426 
L 118.120057 194.29377 
L 115.861365 194.525207 
L 111.046893 195.377731 
L 105.901617 196.6662 
L 100.494472 198.268325 
L 86.134103 202.724437 
L 80.111473 204.285925 
L 77.366492 204.872029 
L 77.366492 204.872029 
" style="fill:none;stroke:#ffffff;stroke-linecap:square;"/>
   </g>
   <g id="line2d_17">
    <path clip-path="url(#p3538786383)" d="M 393.092033 238.723313 
L 393.414372 216.538927 
L 394.104325 183.616921 
L 394.63105 178.136044 
L 395.480258 172.178319 
L 397.454664 159.480008 
L 398.199376 152.969941 
L 398.416986 149.70477 
L 398.487273 146.436244 
L 398.368981 143.163746 
L 398.010635 139.887005 
L 397.347658 136.612633 
L 396.303208 133.366254 
L 394.799142 130.208692 
L 392.879136 127.355471 
L 390.708715 124.935878 
L 388.306958 122.806577 
L 385.714924 120.924324 
L 382.959318 119.253027 
L 380.059863 117.765145 
L 377.033592 116.44051 
L 373.896996 115.264594 
L 370.666956 114.22697 
L 367.361045 113.320134 
L 363.997529 112.538669 
L 360.595231 111.878667 
L 357.173339 111.337348 
L 353.751171 110.912825 
L 350.347909 110.603977 
L 346.982283 110.410436 
L 343.672175 110.332687 
L 340.434085 110.37233 
L 337.282391 110.5326 
L 334.093794 110.839148 
L 330.896365 111.361435 
L 327.796575 112.110879 
L 324.793252 113.055749 
L 321.88135 114.166852 
L 319.053637 115.417798 
L 316.30201 116.784756 
L 310.995271 119.78128 
L 305.904848 122.998663 
L 289.340065 133.953462 
L 284.923998 136.455483 
L 280.266015 138.694708 
L 275.21247 140.820192 
L 255.910342 148.496292 
L 250.33232 151.1841 
L 247.592559 152.69121 
L 244.904375 154.333025 
L 242.284649 156.129951 
L 239.753563 158.102237 
L 237.335296 160.268575 
L 234.920364 162.815272 
L 232.720888 165.719356 
L 230.926858 168.76397 
L 229.4624 171.896757 
L 228.259224 175.085082 
L 227.259895 178.304966 
L 225.689002 184.749883 
L 222.078048 202.020211 
L 221.421014 204.19257 
L 220.743712 206.040862 
L 219.46004 208.652361 
L 218.928788 209.457235 
L 218.17093 210.216119 
L 216.934492 211.034004 
L 215.431725 211.800802 
L 213.678165 212.49383 
L 211.696929 213.096045 
L 209.514657 213.596191 
L 207.159114 213.987895 
L 204.65795 214.268545 
L 202.038163 214.438308 
L 196.546683 214.455378 
L 190.88547 214.071892 
L 185.24711 213.334353 
L 179.821316 212.298634 
L 174.801516 211.030428 
L 171.144896 209.845312 
L 169.400113 208.987564 
L 167.585318 207.874446 
L 165.711579 206.519563 
L 163.789467 204.945443 
L 159.825562 201.254952 
L 146.719015 188.158952 
L 144.217283 186.023845 
L 141.561359 183.998296 
L 138.719465 182.130592 
L 135.662254 180.481461 
L 132.372108 179.126351 
L 129.038621 178.183081 
L 125.817698 177.624174 
L 122.617289 177.341959 
L 119.448824 177.300842 
L 116.317491 177.466834 
L 113.224491 177.808691 
L 110.168956 178.298117 
L 104.164273 179.619188 
L 98.296089 181.247478 
L 79.08227 187.112441 
L 73.832727 188.321877 
L 73.832727 188.321877 
" style="fill:none;stroke:#ffffff;stroke-linecap:square;"/>
   </g>
   <g id="patch_3">
    <path d="M 57.6 307.584 
L 57.6 41.472 
" style="fill:none;stroke:#000000;stroke-linecap:square;stroke-linejoin:miter;stroke-width:0.8;"/>
   </g>
   <g id="patch_4">
    <path d="M 414.72 307.584 
L 414.72 41.472 
" style="fill:none;stroke:#000000;stroke-linecap:square;stroke-linejoin:miter;stroke-width:0.8;"/>
   </g>
   <g id="patch_5">
    <path d="M 57.6 307.584 
L 414.72 307.584 
" style="fill:none;stroke:#000000;stroke-linecap:square;stroke-linejoin:miter;stroke-width:0.8;"/>
   </g>
   <g id="patch_6">
    <path d="M 57.6 41.472 
L 414.72 41.472 
" style="fill:none;stroke:#000000;stroke-linecap:square;stroke-linejoin:miter;stroke-width:0.8;"/>
   </g>
  </g>
 </g>
 <defs>
  <clipPath id="p3538786383">
   <rect height="266.112" width="357.12" x="57.6" y="41.472"/>
  </clipPath>
 </defs>
</svg>
