<?xml version="1.0" encoding="utf-8" standalone="no"?>
<!DOCTYPE svg PUBLIC "-//W3C//DTD SVG 1.1//EN"
  "http://www.w3.org/Graphics/SVG/1.1/DTD/svg11.dtd">
<!-- Created with matplotlib (https://matplotlib.org/) -->
<svg height="345.6pt" version="1.1" viewBox="0 0 460.8 345.6" width="460.8pt" xmlns="http://www.w3.org/2000/svg" xmlns:xlink="http://www.w3.org/1999/xlink">
 <metadata>
  <rdf:RDF xmlns:cc="http://creativecommons.org/ns#" xmlns:dc="http://purl.org/dc/elements/1.1/" xmlns:rdf="http://www.w3.org/1999/02/22-rdf-syntax-ns#">
   <cc:Work>
    <dc:type rdf:resource="http://purl.org/dc/dcmitype/StillImage"/>
    <dc:date>2021-05-26T11:56:35.415480</dc:date>
    <dc:format>image/svg+xml</dc:format>
    <dc:creator>
     <cc:Agent>
      <dc:title>Matplotlib v3.3.3, https://matplotlib.org/</dc:title>
     </cc:Agent>
    </dc:creator>
   </cc:Work>
  </rdf:RDF>
 </metadata>
 <defs>
  <style type="text/css">*{stroke-linecap:butt;stroke-linejoin:round;}</style>
 </defs>
 <g id="figure_1">
  <g id="patch_1">
   <path d="M 0 345.6 
L 460.8 345.6 
L 460.8 0 
L 0 0 
z
" style="fill:#ffffff;"/>
  </g>
  <g id="axes_1">
   <g id="patch_2">
    <path d="M 57.6 307.584 
L 414.72 307.584 
L 414.72 41.472 
L 57.6 41.472 
z
" style="fill:#7d9051;"/>
   </g>
   <g id="matplotlib.axis_1">
    <g id="xtick_1">
     <g id="line2d_1">
      <defs>
       <path d="M 0 0 
L 0 3.5 
" id="ma624cadd03" style="stroke:#000000;stroke-width:0.8;"/>
      </defs>
      <g>
       <use style="stroke:#000000;stroke-width:0.8;" x="87.760172" xlink:href="#ma624cadd03" y="307.584"/>
      </g>
     </g>
     <g id="text_1">
      <!-- 0 -->
      <g transform="translate(84.578922 322.182437)scale(0.1 -0.1)">
       <defs>
        <path d="M 31.78125 66.40625 
Q 24.171875 66.40625 20.328125 58.90625 
Q 16.5 51.421875 16.5 36.375 
Q 16.5 21.390625 20.328125 13.890625 
Q 24.171875 6.390625 31.78125 6.390625 
Q 39.453125 6.390625 43.28125 13.890625 
Q 47.125 21.390625 47.125 36.375 
Q 47.125 51.421875 43.28125 58.90625 
Q 39.453125 66.40625 31.78125 66.40625 
z
M 31.78125 74.21875 
Q 44.046875 74.21875 50.515625 64.515625 
Q 56.984375 54.828125 56.984375 36.375 
Q 56.984375 17.96875 50.515625 8.265625 
Q 44.046875 -1.421875 31.78125 -1.421875 
Q 19.53125 -1.421875 13.0625 8.265625 
Q 6.59375 17.96875 6.59375 36.375 
Q 6.59375 54.828125 13.0625 64.515625 
Q 19.53125 74.21875 31.78125 74.21875 
z
" id="DejaVuSans-48"/>
       </defs>
       <use xlink:href="#DejaVuSans-48"/>
      </g>
     </g>
    </g>
    <g id="xtick_2">
     <g id="line2d_2">
      <g>
       <use style="stroke:#000000;stroke-width:0.8;" x="143.670183" xlink:href="#ma624cadd03" y="307.584"/>
      </g>
     </g>
     <g id="text_2">
      <!-- 20 -->
      <g transform="translate(137.307683 322.182437)scale(0.1 -0.1)">
       <defs>
        <path d="M 19.1875 8.296875 
L 53.609375 8.296875 
L 53.609375 0 
L 7.328125 0 
L 7.328125 8.296875 
Q 12.9375 14.109375 22.625 23.890625 
Q 32.328125 33.6875 34.8125 36.53125 
Q 39.546875 41.84375 41.421875 45.53125 
Q 43.3125 49.21875 43.3125 52.78125 
Q 43.3125 58.59375 39.234375 62.25 
Q 35.15625 65.921875 28.609375 65.921875 
Q 23.96875 65.921875 18.8125 64.3125 
Q 13.671875 62.703125 7.8125 59.421875 
L 7.8125 69.390625 
Q 13.765625 71.78125 18.9375 73 
Q 24.125 74.21875 28.421875 74.21875 
Q 39.75 74.21875 46.484375 68.546875 
Q 53.21875 62.890625 53.21875 53.421875 
Q 53.21875 48.921875 51.53125 44.890625 
Q 49.859375 40.875 45.40625 35.40625 
Q 44.1875 33.984375 37.640625 27.21875 
Q 31.109375 20.453125 19.1875 8.296875 
z
" id="DejaVuSans-50"/>
       </defs>
       <use xlink:href="#DejaVuSans-50"/>
       <use x="63.623047" xlink:href="#DejaVuSans-48"/>
      </g>
     </g>
    </g>
    <g id="xtick_3">
     <g id="line2d_3">
      <g>
       <use style="stroke:#000000;stroke-width:0.8;" x="199.580194" xlink:href="#ma624cadd03" y="307.584"/>
      </g>
     </g>
     <g id="text_3">
      <!-- 40 -->
      <g transform="translate(193.217694 322.182437)scale(0.1 -0.1)">
       <defs>
        <path d="M 37.796875 64.3125 
L 12.890625 25.390625 
L 37.796875 25.390625 
z
M 35.203125 72.90625 
L 47.609375 72.90625 
L 47.609375 25.390625 
L 58.015625 25.390625 
L 58.015625 17.1875 
L 47.609375 17.1875 
L 47.609375 0 
L 37.796875 0 
L 37.796875 17.1875 
L 4.890625 17.1875 
L 4.890625 26.703125 
z
" id="DejaVuSans-52"/>
       </defs>
       <use xlink:href="#DejaVuSans-52"/>
       <use x="63.623047" xlink:href="#DejaVuSans-48"/>
      </g>
     </g>
    </g>
    <g id="xtick_4">
     <g id="line2d_4">
      <g>
       <use style="stroke:#000000;stroke-width:0.8;" x="255.490205" xlink:href="#ma624cadd03" y="307.584"/>
      </g>
     </g>
     <g id="text_4">
      <!-- 60 -->
      <g transform="translate(249.127705 322.182437)scale(0.1 -0.1)">
       <defs>
        <path d="M 33.015625 40.375 
Q 26.375 40.375 22.484375 35.828125 
Q 18.609375 31.296875 18.609375 23.390625 
Q 18.609375 15.53125 22.484375 10.953125 
Q 26.375 6.390625 33.015625 6.390625 
Q 39.65625 6.390625 43.53125 10.953125 
Q 47.40625 15.53125 47.40625 23.390625 
Q 47.40625 31.296875 43.53125 35.828125 
Q 39.65625 40.375 33.015625 40.375 
z
M 52.59375 71.296875 
L 52.59375 62.3125 
Q 48.875 64.0625 45.09375 64.984375 
Q 41.3125 65.921875 37.59375 65.921875 
Q 27.828125 65.921875 22.671875 59.328125 
Q 17.53125 52.734375 16.796875 39.40625 
Q 19.671875 43.65625 24.015625 45.921875 
Q 28.375 48.1875 33.59375 48.1875 
Q 44.578125 48.1875 50.953125 41.515625 
Q 57.328125 34.859375 57.328125 23.390625 
Q 57.328125 12.15625 50.6875 5.359375 
Q 44.046875 -1.421875 33.015625 -1.421875 
Q 20.359375 -1.421875 13.671875 8.265625 
Q 6.984375 17.96875 6.984375 36.375 
Q 6.984375 53.65625 15.1875 63.9375 
Q 23.390625 74.21875 37.203125 74.21875 
Q 40.921875 74.21875 44.703125 73.484375 
Q 48.484375 72.75 52.59375 71.296875 
z
" id="DejaVuSans-54"/>
       </defs>
       <use xlink:href="#DejaVuSans-54"/>
       <use x="63.623047" xlink:href="#DejaVuSans-48"/>
      </g>
     </g>
    </g>
    <g id="xtick_5">
     <g id="line2d_5">
      <g>
       <use style="stroke:#000000;stroke-width:0.8;" x="311.400216" xlink:href="#ma624cadd03" y="307.584"/>
      </g>
     </g>
     <g id="text_5">
      <!-- 80 -->
      <g transform="translate(305.037716 322.182437)scale(0.1 -0.1)">
       <defs>
        <path d="M 31.78125 34.625 
Q 24.75 34.625 20.71875 30.859375 
Q 16.703125 27.09375 16.703125 20.515625 
Q 16.703125 13.921875 20.71875 10.15625 
Q 24.75 6.390625 31.78125 6.390625 
Q 38.8125 6.390625 42.859375 10.171875 
Q 46.921875 13.96875 46.921875 20.515625 
Q 46.921875 27.09375 42.890625 30.859375 
Q 38.875 34.625 31.78125 34.625 
z
M 21.921875 38.8125 
Q 15.578125 40.375 12.03125 44.71875 
Q 8.5 49.078125 8.5 55.328125 
Q 8.5 64.0625 14.71875 69.140625 
Q 20.953125 74.21875 31.78125 74.21875 
Q 42.671875 74.21875 48.875 69.140625 
Q 55.078125 64.0625 55.078125 55.328125 
Q 55.078125 49.078125 51.53125 44.71875 
Q 48 40.375 41.703125 38.8125 
Q 48.828125 37.15625 52.796875 32.3125 
Q 56.78125 27.484375 56.78125 20.515625 
Q 56.78125 9.90625 50.3125 4.234375 
Q 43.84375 -1.421875 31.78125 -1.421875 
Q 19.734375 -1.421875 13.25 4.234375 
Q 6.78125 9.90625 6.78125 20.515625 
Q 6.78125 27.484375 10.78125 32.3125 
Q 14.796875 37.15625 21.921875 38.8125 
z
M 18.3125 54.390625 
Q 18.3125 48.734375 21.84375 45.5625 
Q 25.390625 42.390625 31.78125 42.390625 
Q 38.140625 42.390625 41.71875 45.5625 
Q 45.3125 48.734375 45.3125 54.390625 
Q 45.3125 60.0625 41.71875 63.234375 
Q 38.140625 66.40625 31.78125 66.40625 
Q 25.390625 66.40625 21.84375 63.234375 
Q 18.3125 60.0625 18.3125 54.390625 
z
" id="DejaVuSans-56"/>
       </defs>
       <use xlink:href="#DejaVuSans-56"/>
       <use x="63.623047" xlink:href="#DejaVuSans-48"/>
      </g>
     </g>
    </g>
    <g id="xtick_6">
     <g id="line2d_6">
      <g>
       <use style="stroke:#000000;stroke-width:0.8;" x="367.310227" xlink:href="#ma624cadd03" y="307.584"/>
      </g>
     </g>
     <g id="text_6">
      <!-- 100 -->
      <g transform="translate(357.766477 322.182437)scale(0.1 -0.1)">
       <defs>
        <path d="M 12.40625 8.296875 
L 28.515625 8.296875 
L 28.515625 63.921875 
L 10.984375 60.40625 
L 10.984375 69.390625 
L 28.421875 72.90625 
L 38.28125 72.90625 
L 38.28125 8.296875 
L 54.390625 8.296875 
L 54.390625 0 
L 12.40625 0 
z
" id="DejaVuSans-49"/>
       </defs>
       <use xlink:href="#DejaVuSans-49"/>
       <use x="63.623047" xlink:href="#DejaVuSans-48"/>
       <use x="127.246094" xlink:href="#DejaVuSans-48"/>
      </g>
     </g>
    </g>
   </g>
   <g id="matplotlib.axis_2">
    <g id="ytick_1">
     <g id="line2d_7">
      <defs>
       <path d="M 0 0 
L -3.5 0 
" id="ma891d7aaf3" style="stroke:#000000;stroke-width:0.8;"/>
      </defs>
      <g>
       <use style="stroke:#000000;stroke-width:0.8;" x="57.6" xlink:href="#ma891d7aaf3" y="261.635662"/>
      </g>
     </g>
     <g id="text_7">
      <!-- 0 -->
      <g transform="translate(44.2375 265.434881)scale(0.1 -0.1)">
       <use xlink:href="#DejaVuSans-48"/>
      </g>
     </g>
    </g>
    <g id="ytick_2">
     <g id="line2d_8">
      <g>
       <use style="stroke:#000000;stroke-width:0.8;" x="57.6" xlink:href="#ma891d7aaf3" y="205.725651"/>
      </g>
     </g>
     <g id="text_8">
      <!-- 20 -->
      <g transform="translate(37.875 209.52487)scale(0.1 -0.1)">
       <use xlink:href="#DejaVuSans-50"/>
       <use x="63.623047" xlink:href="#DejaVuSans-48"/>
      </g>
     </g>
    </g>
    <g id="ytick_3">
     <g id="line2d_9">
      <g>
       <use style="stroke:#000000;stroke-width:0.8;" x="57.6" xlink:href="#ma891d7aaf3" y="149.81564"/>
      </g>
     </g>
     <g id="text_9">
      <!-- 40 -->
      <g transform="translate(37.875 153.614859)scale(0.1 -0.1)">
       <use xlink:href="#DejaVuSans-52"/>
       <use x="63.623047" xlink:href="#DejaVuSans-48"/>
      </g>
     </g>
    </g>
    <g id="ytick_4">
     <g id="line2d_10">
      <g>
       <use style="stroke:#000000;stroke-width:0.8;" x="57.6" xlink:href="#ma891d7aaf3" y="93.905629"/>
      </g>
     </g>
     <g id="text_10">
      <!-- 60 -->
      <g transform="translate(37.875 97.704848)scale(0.1 -0.1)">
       <use xlink:href="#DejaVuSans-54"/>
       <use x="63.623047" xlink:href="#DejaVuSans-48"/>
      </g>
     </g>
    </g>
   </g>
   <g id="line2d_11">
    <path clip-path="url(#pc159c20b95)" d="M 87.760172 261.635662 
L 88.055185 239.568496 
L 88.959501 188.020738 
L 88.788774 184.17544 
L 88.109034 176.243547 
L 85.39324 151.965271 
L 85.137942 148.059648 
L 85.014199 144.247864 
L 85.050204 140.550026 
L 85.274146 136.986242 
L 85.714215 133.576621 
L 86.398603 130.34127 
L 87.3555 127.300298 
L 88.613096 124.473813 
L 90.199583 121.881923 
L 92.146689 119.451482 
L 94.445681 117.101765 
L 97.064057 114.841516 
L 99.969314 112.679476 
L 103.128951 110.624389 
L 106.510465 108.684996 
L 110.081353 106.870041 
L 113.809113 105.188266 
L 117.661243 103.648414 
L 121.60524 102.259226 
L 125.608603 101.029446 
L 129.638828 99.967817 
L 133.663413 99.08308 
L 137.649857 98.383978 
L 141.565656 97.879254 
L 145.378309 97.57765 
L 149.055313 97.487909 
L 152.564165 97.618773 
L 155.872364 97.978986 
L 159.031024 98.655534 
L 162.118424 99.705716 
L 165.142804 101.093733 
L 168.112405 102.783791 
L 171.035469 104.740094 
L 173.920238 106.926846 
L 176.774951 109.308251 
L 182.427178 114.511837 
L 199.519622 131.071492 
L 202.474693 133.593959 
L 205.482122 135.95312 
L 208.550148 138.11318 
L 211.687014 140.038342 
L 214.959127 141.734627 
L 218.408371 143.249145 
L 222.006199 144.607729 
L 225.724067 145.836213 
L 233.405736 148.006218 
L 252.712383 152.962869 
L 256.362913 154.080581 
L 259.876569 155.3007 
L 263.224805 156.64906 
L 266.379076 158.151495 
L 269.310835 159.833839 
L 271.991538 161.721926 
L 274.392638 163.84159 
L 276.485588 166.218665 
L 278.184014 168.924634 
L 279.454566 171.984475 
L 280.348238 175.354268 
L 280.916025 178.990092 
L 281.208921 182.848027 
L 281.27792 186.884152 
L 281.174017 191.054547 
L 280.651481 199.622465 
L 280.049268 208.200414 
L 279.845768 212.383349 
L 279.775331 216.437031 
L 279.888953 220.317539 
L 280.237627 223.980952 
L 280.872348 227.38335 
L 281.84411 230.480813 
L 283.203907 233.229419 
L 285.002734 235.585248 
L 287.258183 237.677222 
L 289.923501 239.657668 
L 292.95316 241.517772 
L 296.301635 243.248721 
L 299.923398 244.8417 
L 303.772924 246.287898 
L 307.804684 247.578499 
L 311.973154 248.70469 
L 316.232806 249.657658 
L 320.538113 250.42859 
L 324.843549 251.008671 
L 329.103588 251.389089 
L 333.272703 251.561029 
L 337.305368 251.515679 
L 341.156055 251.244223 
L 344.779238 250.73785 
L 348.129391 249.987745 
L 351.160987 248.985096 
L 353.828499 247.721087 
L 356.202398 246.120157 
L 358.391451 244.133978 
L 360.407577 241.794594 
L 362.262697 239.134049 
L 363.968729 236.184383 
L 365.537593 232.977641 
L 366.98121 229.545865 
L 368.311497 225.921097 
L 369.540375 222.135381 
L 371.741581 214.209275 
L 373.680185 206.023889 
L 381.131396 171.751894 
L 382.265209 164.511444 
L 383.174505 157.215348 
L 384.253251 146.199628 
L 386.525525 120.424354 
L 387.391089 113.108889 
L 387.391089 113.108889 
" style="fill:none;stroke:#fea952;stroke-linecap:square;"/>
   </g>
   <g id="line2d_12">
    <path clip-path="url(#pc159c20b95)" d="M 76.578688 261.528081 
L 76.874914 239.371721 
L 77.788504 188.516717 
L 77.637658 185.00597 
L 76.996342 177.486625 
L 74.235051 152.694646 
L 73.961827 148.422459 
L 73.832727 144.138994 
L 73.890213 139.848752 
L 74.184132 135.554888 
L 74.774297 131.262452 
L 75.73221 126.984896 
L 77.13911 122.754689 
L 79.075881 118.636117 
L 81.47273 114.890557 
L 84.154019 111.631354 
L 87.138893 108.637249 
L 90.388306 105.870924 
L 93.872494 103.305792 
L 97.56578 100.924476 
L 101.443925 98.716679 
L 105.482917 96.67732 
L 109.658544 94.805109 
L 113.946334 93.101536 
L 118.321709 91.570185 
L 122.760238 90.216307 
L 127.237982 89.046594 
L 131.731904 88.069159 
L 136.220387 87.293721 
L 140.683848 86.732075 
L 145.105483 86.398977 
L 149.472062 86.313676 
L 153.774561 86.502474 
L 158.214302 87.044979 
L 162.631971 88.069206 
L 166.782576 89.542898 
L 170.673706 91.375385 
L 174.331767 93.49096 
L 177.790401 95.828973 
L 181.083177 98.34026 
L 184.240127 100.983089 
L 190.243443 106.515389 
L 206.779416 122.566638 
L 209.376266 124.795922 
L 211.919438 126.809919 
L 214.399106 128.582867 
L 216.833408 130.111015 
L 219.454717 131.496129 
L 222.35858 132.788121 
L 225.514475 133.990329 
L 228.889144 135.1115 
L 236.160858 137.168945 
L 255.986059 142.270806 
L 260.031008 143.517331 
L 264.053659 144.928184 
L 268.033369 146.55377 
L 271.944481 148.452864 
L 275.749805 150.691801 
L 279.391847 153.33905 
L 282.785149 156.45221 
L 285.956571 160.274116 
L 288.511105 164.636468 
L 290.262941 169.118084 
L 291.396335 173.628947 
L 292.06594 178.143586 
L 292.38929 182.656894 
L 292.456454 187.16266 
L 292.340348 191.646341 
L 291.803423 200.441829 
L 291.21806 208.743776 
L 290.952543 216.109761 
L 291.020649 219.258053 
L 291.229991 221.930316 
L 291.866665 225.522429 
L 292.091312 226.443314 
L 292.606909 227.386852 
L 293.927355 228.701738 
L 295.774142 230.128388 
L 298.088039 231.584485 
L 300.803648 233.013045 
L 303.855919 234.374014 
L 307.181975 235.638224 
L 310.721151 236.783528 
L 314.414441 237.792436 
L 318.203766 238.650729 
L 322.031199 239.346719 
L 325.838134 239.870989 
L 329.564358 240.216584 
L 333.14696 240.379734 
L 336.519041 240.361358 
L 339.60831 240.169854 
L 342.336061 239.826019 
L 344.618183 239.371315 
L 347.576366 238.450272 
L 348.688588 237.838863 
L 349.921046 236.834018 
L 351.235177 235.398952 
L 352.583124 233.535562 
L 353.924382 231.270294 
L 355.230423 228.641811 
L 356.483822 225.69333 
L 357.675811 222.468656 
L 358.803903 219.010427 
L 360.879234 211.554734 
L 362.757377 203.630266 
L 370.099954 169.923111 
L 371.178615 163.05384 
L 372.055259 156.032334 
L 373.1118 145.24818 
L 375.41306 119.179245 
L 376.294906 111.726178 
L 376.294906 111.726178 
" style="fill:none;stroke:#ffffff;stroke-linecap:square;"/>
   </g>
   <g id="line2d_13">
    <path clip-path="url(#pc159c20b95)" d="M 98.941657 261.743244 
L 99.235456 239.76527 
L 100.130498 187.52476 
L 99.939891 183.344911 
L 99.221727 175.000469 
L 96.551429 151.235895 
L 96.195672 144.356734 
L 96.210194 141.251299 
L 96.364159 138.417597 
L 96.654133 135.890789 
L 97.064995 133.697644 
L 97.571889 131.845907 
L 98.150312 130.311509 
L 98.926436 128.87329 
L 100.139359 127.27161 
L 101.752469 125.566281 
L 103.739808 123.812108 
L 106.066135 122.05316 
L 108.692122 120.324301 
L 111.577004 118.653313 
L 114.679788 117.062762 
L 117.959682 115.571423 
L 121.376151 114.195291 
L 124.888772 112.948267 
L 128.456967 111.842586 
L 132.039674 110.88904 
L 135.594923 110.097 
L 139.079328 109.474234 
L 142.447465 109.026432 
L 145.651136 108.756323 
L 148.638564 108.662143 
L 151.35377 108.735073 
L 153.530426 108.912992 
L 155.430077 109.241863 
L 157.454271 109.868533 
L 159.611902 110.812082 
L 161.893043 112.076623 
L 164.280538 113.651215 
L 166.757298 115.513433 
L 169.309775 117.633413 
L 174.610912 122.508284 
L 189.081157 136.69036 
L 192.259827 139.576347 
L 195.57312 142.391996 
L 199.044805 145.096321 
L 202.701191 147.643493 
L 206.54062 149.965668 
L 210.463537 151.973125 
L 214.458161 153.710169 
L 218.497923 155.225128 
L 222.558991 156.560926 
L 230.650615 158.843491 
L 249.438708 163.654932 
L 252.694818 164.643831 
L 255.699479 165.673216 
L 258.41624 166.74435 
L 260.81367 167.850125 
L 262.871866 168.975876 
L 264.591229 170.104801 
L 267.014606 172.163214 
L 267.856923 173.212799 
L 268.646191 174.850866 
L 269.300142 177.079589 
L 269.76611 179.836598 
L 270.028553 183.03916 
L 270.099387 186.605645 
L 270.007686 190.462754 
L 269.499539 198.8031 
L 268.880475 207.657052 
L 268.665453 212.189082 
L 268.598119 216.764302 
L 268.757257 221.377025 
L 269.245263 226.031589 
L 270.203089 230.7306 
L 271.821555 235.439196 
L 274.316502 240.015523 
L 277.398558 243.783643 
L 280.589011 246.652706 
L 284.072859 249.186947 
L 287.818282 251.451059 
L 291.799623 253.484396 
L 295.990878 255.309387 
L 300.363872 256.937571 
L 304.888217 258.373469 
L 309.531867 259.616944 
L 314.261845 260.664588 
L 319.045027 261.510461 
L 323.848965 262.146354 
L 328.642819 262.561594 
L 333.398447 262.742324 
L 338.091694 262.669999 
L 342.7038 262.318593 
L 347.222415 261.649681 
L 351.640598 260.604176 
L 355.949242 259.090034 
L 360.080632 256.991902 
L 363.716208 254.401451 
L 366.861855 251.433938 
L 369.579978 248.190237 
L 371.942269 244.732535 
L 374.013076 241.098472 
L 375.844764 237.31347 
L 377.478597 233.398399 
L 378.947183 229.373538 
L 380.276847 225.260335 
L 382.603929 216.863816 
L 384.602994 208.417513 
L 392.162839 173.580678 
L 393.351803 165.969048 
L 394.293752 158.398362 
L 395.394701 147.151076 
L 397.637989 121.669464 
L 398.487273 114.491601 
L 398.487273 114.491601 
" style="fill:none;stroke:#ffffff;stroke-linecap:square;"/>
   </g>
   <g id="patch_3">
    <path d="M 57.6 307.584 
L 57.6 41.472 
" style="fill:none;stroke:#000000;stroke-linecap:square;stroke-linejoin:miter;stroke-width:0.8;"/>
   </g>
   <g id="patch_4">
    <path d="M 414.72 307.584 
L 414.72 41.472 
" style="fill:none;stroke:#000000;stroke-linecap:square;stroke-linejoin:miter;stroke-width:0.8;"/>
   </g>
   <g id="patch_5">
    <path d="M 57.6 307.584 
L 414.72 307.584 
" style="fill:none;stroke:#000000;stroke-linecap:square;stroke-linejoin:miter;stroke-width:0.8;"/>
   </g>
   <g id="patch_6">
    <path d="M 57.6 41.472 
L 414.72 41.472 
" style="fill:none;stroke:#000000;stroke-linecap:square;stroke-linejoin:miter;stroke-width:0.8;"/>
   </g>
  </g>
 </g>
 <defs>
  <clipPath id="pc159c20b95">
   <rect height="266.112" width="357.12" x="57.6" y="41.472"/>
  </clipPath>
 </defs>
</svg>
