<?xml version="1.0" encoding="utf-8" standalone="no"?>
<!DOCTYPE svg PUBLIC "-//W3C//DTD SVG 1.1//EN"
  "http://www.w3.org/Graphics/SVG/1.1/DTD/svg11.dtd">
<!-- Created with matplotlib (https://matplotlib.org/) -->
<svg height="345.6pt" version="1.1" viewBox="0 0 460.8 345.6" width="460.8pt" xmlns="http://www.w3.org/2000/svg" xmlns:xlink="http://www.w3.org/1999/xlink">
 <metadata>
  <rdf:RDF xmlns:cc="http://creativecommons.org/ns#" xmlns:dc="http://purl.org/dc/elements/1.1/" xmlns:rdf="http://www.w3.org/1999/02/22-rdf-syntax-ns#">
   <cc:Work>
    <dc:type rdf:resource="http://purl.org/dc/dcmitype/StillImage"/>
    <dc:date>2021-07-08T01:58:41.970943</dc:date>
    <dc:format>image/svg+xml</dc:format>
    <dc:creator>
     <cc:Agent>
      <dc:title>Matplotlib v3.3.3, https://matplotlib.org/</dc:title>
     </cc:Agent>
    </dc:creator>
   </cc:Work>
  </rdf:RDF>
 </metadata>
 <defs>
  <style type="text/css">*{stroke-linecap:butt;stroke-linejoin:round;}</style>
 </defs>
 <g id="figure_1">
  <g id="patch_1">
   <path d="M 0 345.6 
L 460.8 345.6 
L 460.8 0 
L 0 0 
z
" style="fill:#ffffff;"/>
  </g>
  <g id="axes_1">
   <g id="patch_2">
    <path d="M 57.6 307.584 
L 414.72 307.584 
L 414.72 41.472 
L 57.6 41.472 
z
" style="fill:#7d9051;"/>
   </g>
   <g id="matplotlib.axis_1">
    <g id="xtick_1">
     <g id="line2d_1">
      <defs>
       <path d="M 0 0 
L 0 3.5 
" id="m1b46ec0896" style="stroke:#000000;stroke-width:0.8;"/>
      </defs>
      <g>
       <use style="stroke:#000000;stroke-width:0.8;" x="81.862825" xlink:href="#m1b46ec0896" y="307.584"/>
      </g>
     </g>
     <g id="text_1">
      <!-- 0 -->
      <g transform="translate(78.681575 322.182437)scale(0.1 -0.1)">
       <defs>
        <path d="M 31.78125 66.40625 
Q 24.171875 66.40625 20.328125 58.90625 
Q 16.5 51.421875 16.5 36.375 
Q 16.5 21.390625 20.328125 13.890625 
Q 24.171875 6.390625 31.78125 6.390625 
Q 39.453125 6.390625 43.28125 13.890625 
Q 47.125 21.390625 47.125 36.375 
Q 47.125 51.421875 43.28125 58.90625 
Q 39.453125 66.40625 31.78125 66.40625 
z
M 31.78125 74.21875 
Q 44.046875 74.21875 50.515625 64.515625 
Q 56.984375 54.828125 56.984375 36.375 
Q 56.984375 17.96875 50.515625 8.265625 
Q 44.046875 -1.421875 31.78125 -1.421875 
Q 19.53125 -1.421875 13.0625 8.265625 
Q 6.59375 17.96875 6.59375 36.375 
Q 6.59375 54.828125 13.0625 64.515625 
Q 19.53125 74.21875 31.78125 74.21875 
z
" id="DejaVuSans-48"/>
       </defs>
       <use xlink:href="#DejaVuSans-48"/>
      </g>
     </g>
    </g>
    <g id="xtick_2">
     <g id="line2d_2">
      <g>
       <use style="stroke:#000000;stroke-width:0.8;" x="125.256153" xlink:href="#m1b46ec0896" y="307.584"/>
      </g>
     </g>
     <g id="text_2">
      <!-- 20 -->
      <g transform="translate(118.893653 322.182437)scale(0.1 -0.1)">
       <defs>
        <path d="M 19.1875 8.296875 
L 53.609375 8.296875 
L 53.609375 0 
L 7.328125 0 
L 7.328125 8.296875 
Q 12.9375 14.109375 22.625 23.890625 
Q 32.328125 33.6875 34.8125 36.53125 
Q 39.546875 41.84375 41.421875 45.53125 
Q 43.3125 49.21875 43.3125 52.78125 
Q 43.3125 58.59375 39.234375 62.25 
Q 35.15625 65.921875 28.609375 65.921875 
Q 23.96875 65.921875 18.8125 64.3125 
Q 13.671875 62.703125 7.8125 59.421875 
L 7.8125 69.390625 
Q 13.765625 71.78125 18.9375 73 
Q 24.125 74.21875 28.421875 74.21875 
Q 39.75 74.21875 46.484375 68.546875 
Q 53.21875 62.890625 53.21875 53.421875 
Q 53.21875 48.921875 51.53125 44.890625 
Q 49.859375 40.875 45.40625 35.40625 
Q 44.1875 33.984375 37.640625 27.21875 
Q 31.109375 20.453125 19.1875 8.296875 
z
" id="DejaVuSans-50"/>
       </defs>
       <use xlink:href="#DejaVuSans-50"/>
       <use x="63.623047" xlink:href="#DejaVuSans-48"/>
      </g>
     </g>
    </g>
    <g id="xtick_3">
     <g id="line2d_3">
      <g>
       <use style="stroke:#000000;stroke-width:0.8;" x="168.649481" xlink:href="#m1b46ec0896" y="307.584"/>
      </g>
     </g>
     <g id="text_3">
      <!-- 40 -->
      <g transform="translate(162.286981 322.182437)scale(0.1 -0.1)">
       <defs>
        <path d="M 37.796875 64.3125 
L 12.890625 25.390625 
L 37.796875 25.390625 
z
M 35.203125 72.90625 
L 47.609375 72.90625 
L 47.609375 25.390625 
L 58.015625 25.390625 
L 58.015625 17.1875 
L 47.609375 17.1875 
L 47.609375 0 
L 37.796875 0 
L 37.796875 17.1875 
L 4.890625 17.1875 
L 4.890625 26.703125 
z
" id="DejaVuSans-52"/>
       </defs>
       <use xlink:href="#DejaVuSans-52"/>
       <use x="63.623047" xlink:href="#DejaVuSans-48"/>
      </g>
     </g>
    </g>
    <g id="xtick_4">
     <g id="line2d_4">
      <g>
       <use style="stroke:#000000;stroke-width:0.8;" x="212.042808" xlink:href="#m1b46ec0896" y="307.584"/>
      </g>
     </g>
     <g id="text_4">
      <!-- 60 -->
      <g transform="translate(205.680308 322.182437)scale(0.1 -0.1)">
       <defs>
        <path d="M 33.015625 40.375 
Q 26.375 40.375 22.484375 35.828125 
Q 18.609375 31.296875 18.609375 23.390625 
Q 18.609375 15.53125 22.484375 10.953125 
Q 26.375 6.390625 33.015625 6.390625 
Q 39.65625 6.390625 43.53125 10.953125 
Q 47.40625 15.53125 47.40625 23.390625 
Q 47.40625 31.296875 43.53125 35.828125 
Q 39.65625 40.375 33.015625 40.375 
z
M 52.59375 71.296875 
L 52.59375 62.3125 
Q 48.875 64.0625 45.09375 64.984375 
Q 41.3125 65.921875 37.59375 65.921875 
Q 27.828125 65.921875 22.671875 59.328125 
Q 17.53125 52.734375 16.796875 39.40625 
Q 19.671875 43.65625 24.015625 45.921875 
Q 28.375 48.1875 33.59375 48.1875 
Q 44.578125 48.1875 50.953125 41.515625 
Q 57.328125 34.859375 57.328125 23.390625 
Q 57.328125 12.15625 50.6875 5.359375 
Q 44.046875 -1.421875 33.015625 -1.421875 
Q 20.359375 -1.421875 13.671875 8.265625 
Q 6.984375 17.96875 6.984375 36.375 
Q 6.984375 53.65625 15.1875 63.9375 
Q 23.390625 74.21875 37.203125 74.21875 
Q 40.921875 74.21875 44.703125 73.484375 
Q 48.484375 72.75 52.59375 71.296875 
z
" id="DejaVuSans-54"/>
       </defs>
       <use xlink:href="#DejaVuSans-54"/>
       <use x="63.623047" xlink:href="#DejaVuSans-48"/>
      </g>
     </g>
    </g>
    <g id="xtick_5">
     <g id="line2d_5">
      <g>
       <use style="stroke:#000000;stroke-width:0.8;" x="255.436136" xlink:href="#m1b46ec0896" y="307.584"/>
      </g>
     </g>
     <g id="text_5">
      <!-- 80 -->
      <g transform="translate(249.073636 322.182437)scale(0.1 -0.1)">
       <defs>
        <path d="M 31.78125 34.625 
Q 24.75 34.625 20.71875 30.859375 
Q 16.703125 27.09375 16.703125 20.515625 
Q 16.703125 13.921875 20.71875 10.15625 
Q 24.75 6.390625 31.78125 6.390625 
Q 38.8125 6.390625 42.859375 10.171875 
Q 46.921875 13.96875 46.921875 20.515625 
Q 46.921875 27.09375 42.890625 30.859375 
Q 38.875 34.625 31.78125 34.625 
z
M 21.921875 38.8125 
Q 15.578125 40.375 12.03125 44.71875 
Q 8.5 49.078125 8.5 55.328125 
Q 8.5 64.0625 14.71875 69.140625 
Q 20.953125 74.21875 31.78125 74.21875 
Q 42.671875 74.21875 48.875 69.140625 
Q 55.078125 64.0625 55.078125 55.328125 
Q 55.078125 49.078125 51.53125 44.71875 
Q 48 40.375 41.703125 38.8125 
Q 48.828125 37.15625 52.796875 32.3125 
Q 56.78125 27.484375 56.78125 20.515625 
Q 56.78125 9.90625 50.3125 4.234375 
Q 43.84375 -1.421875 31.78125 -1.421875 
Q 19.734375 -1.421875 13.25 4.234375 
Q 6.78125 9.90625 6.78125 20.515625 
Q 6.78125 27.484375 10.78125 32.3125 
Q 14.796875 37.15625 21.921875 38.8125 
z
M 18.3125 54.390625 
Q 18.3125 48.734375 21.84375 45.5625 
Q 25.390625 42.390625 31.78125 42.390625 
Q 38.140625 42.390625 41.71875 45.5625 
Q 45.3125 48.734375 45.3125 54.390625 
Q 45.3125 60.0625 41.71875 63.234375 
Q 38.140625 66.40625 31.78125 66.40625 
Q 25.390625 66.40625 21.84375 63.234375 
Q 18.3125 60.0625 18.3125 54.390625 
z
" id="DejaVuSans-56"/>
       </defs>
       <use xlink:href="#DejaVuSans-56"/>
       <use x="63.623047" xlink:href="#DejaVuSans-48"/>
      </g>
     </g>
    </g>
    <g id="xtick_6">
     <g id="line2d_6">
      <g>
       <use style="stroke:#000000;stroke-width:0.8;" x="298.829464" xlink:href="#m1b46ec0896" y="307.584"/>
      </g>
     </g>
     <g id="text_6">
      <!-- 100 -->
      <g transform="translate(289.285714 322.182437)scale(0.1 -0.1)">
       <defs>
        <path d="M 12.40625 8.296875 
L 28.515625 8.296875 
L 28.515625 63.921875 
L 10.984375 60.40625 
L 10.984375 69.390625 
L 28.421875 72.90625 
L 38.28125 72.90625 
L 38.28125 8.296875 
L 54.390625 8.296875 
L 54.390625 0 
L 12.40625 0 
z
" id="DejaVuSans-49"/>
       </defs>
       <use xlink:href="#DejaVuSans-49"/>
       <use x="63.623047" xlink:href="#DejaVuSans-48"/>
       <use x="127.246094" xlink:href="#DejaVuSans-48"/>
      </g>
     </g>
    </g>
    <g id="xtick_7">
     <g id="line2d_7">
      <g>
       <use style="stroke:#000000;stroke-width:0.8;" x="342.222792" xlink:href="#m1b46ec0896" y="307.584"/>
      </g>
     </g>
     <g id="text_7">
      <!-- 120 -->
      <g transform="translate(332.679042 322.182437)scale(0.1 -0.1)">
       <use xlink:href="#DejaVuSans-49"/>
       <use x="63.623047" xlink:href="#DejaVuSans-50"/>
       <use x="127.246094" xlink:href="#DejaVuSans-48"/>
      </g>
     </g>
    </g>
    <g id="xtick_8">
     <g id="line2d_8">
      <g>
       <use style="stroke:#000000;stroke-width:0.8;" x="385.61612" xlink:href="#m1b46ec0896" y="307.584"/>
      </g>
     </g>
     <g id="text_8">
      <!-- 140 -->
      <g transform="translate(376.07237 322.182437)scale(0.1 -0.1)">
       <use xlink:href="#DejaVuSans-49"/>
       <use x="63.623047" xlink:href="#DejaVuSans-52"/>
       <use x="127.246094" xlink:href="#DejaVuSans-48"/>
      </g>
     </g>
    </g>
   </g>
   <g id="matplotlib.axis_2">
    <g id="ytick_1">
     <g id="line2d_9">
      <defs>
       <path d="M 0 0 
L -3.5 0 
" id="mfb798ee9b2" style="stroke:#000000;stroke-width:0.8;"/>
      </defs>
      <g>
       <use style="stroke:#000000;stroke-width:0.8;" x="57.6" xlink:href="#mfb798ee9b2" y="295.404503"/>
      </g>
     </g>
     <g id="text_9">
      <!-- 0 -->
      <g transform="translate(44.2375 299.203722)scale(0.1 -0.1)">
       <use xlink:href="#DejaVuSans-48"/>
      </g>
     </g>
    </g>
    <g id="ytick_2">
     <g id="line2d_10">
      <g>
       <use style="stroke:#000000;stroke-width:0.8;" x="57.6" xlink:href="#mfb798ee9b2" y="252.011175"/>
      </g>
     </g>
     <g id="text_10">
      <!-- 20 -->
      <g transform="translate(37.875 255.810394)scale(0.1 -0.1)">
       <use xlink:href="#DejaVuSans-50"/>
       <use x="63.623047" xlink:href="#DejaVuSans-48"/>
      </g>
     </g>
    </g>
    <g id="ytick_3">
     <g id="line2d_11">
      <g>
       <use style="stroke:#000000;stroke-width:0.8;" x="57.6" xlink:href="#mfb798ee9b2" y="208.617847"/>
      </g>
     </g>
     <g id="text_11">
      <!-- 40 -->
      <g transform="translate(37.875 212.417066)scale(0.1 -0.1)">
       <use xlink:href="#DejaVuSans-52"/>
       <use x="63.623047" xlink:href="#DejaVuSans-48"/>
      </g>
     </g>
    </g>
    <g id="ytick_4">
     <g id="line2d_12">
      <g>
       <use style="stroke:#000000;stroke-width:0.8;" x="57.6" xlink:href="#mfb798ee9b2" y="165.22452"/>
      </g>
     </g>
     <g id="text_12">
      <!-- 60 -->
      <g transform="translate(37.875 169.023738)scale(0.1 -0.1)">
       <use xlink:href="#DejaVuSans-54"/>
       <use x="63.623047" xlink:href="#DejaVuSans-48"/>
      </g>
     </g>
    </g>
    <g id="ytick_5">
     <g id="line2d_13">
      <g>
       <use style="stroke:#000000;stroke-width:0.8;" x="57.6" xlink:href="#mfb798ee9b2" y="121.831192"/>
      </g>
     </g>
     <g id="text_13">
      <!-- 80 -->
      <g transform="translate(37.875 125.630411)scale(0.1 -0.1)">
       <use xlink:href="#DejaVuSans-56"/>
       <use x="63.623047" xlink:href="#DejaVuSans-48"/>
      </g>
     </g>
    </g>
    <g id="ytick_6">
     <g id="line2d_14">
      <g>
       <use style="stroke:#000000;stroke-width:0.8;" x="57.6" xlink:href="#mfb798ee9b2" y="78.437864"/>
      </g>
     </g>
     <g id="text_14">
      <!-- 100 -->
      <g transform="translate(31.5125 82.237083)scale(0.1 -0.1)">
       <use xlink:href="#DejaVuSans-49"/>
       <use x="63.623047" xlink:href="#DejaVuSans-48"/>
       <use x="127.246094" xlink:href="#DejaVuSans-48"/>
      </g>
     </g>
    </g>
   </g>
   <g id="line2d_15">
    <path clip-path="url(#p3db93adc4c)" d="M 81.862825 295.404503 
L 82.14203 275.42317 
L 82.794092 238.271059 
L 82.437315 232.242689 
L 81.790745 226.011403 
L 80.323727 213.427081 
L 79.851033 207.317544 
L 79.75596 204.361697 
L 79.784049 201.492089 
L 79.957034 198.723939 
L 80.296651 196.072465 
L 80.824634 193.552886 
L 81.562716 191.180421 
L 82.532634 188.970288 
L 83.75612 186.937706 
L 85.248596 185.039505 
L 86.996295 183.224073 
L 88.977173 181.493961 
L 91.169186 179.851723 
L 93.550288 178.299913 
L 96.098434 176.841083 
L 98.791581 175.477788 
L 101.607683 174.212579 
L 104.524696 173.04801 
L 107.520574 171.986634 
L 110.573274 171.031006 
L 116.760958 169.4472 
L 122.911391 168.31702 
L 128.848215 167.660889 
L 131.681412 167.516975 
L 134.395072 167.499234 
L 137.051503 167.729525 
L 139.725293 168.299605 
L 142.412818 169.166867 
L 145.110456 170.288705 
L 147.814584 171.622513 
L 150.521578 173.125683 
L 155.929671 176.46969 
L 166.620834 183.31539 
L 169.246443 184.81113 
L 171.845932 186.135383 
L 174.41568 187.245545 
L 176.952062 188.099007 
L 179.451455 188.653164 
L 181.910236 188.86541 
L 184.324783 188.693139 
L 186.684456 188.151224 
L 188.985276 187.301732 
L 191.233607 186.172843 
L 193.435813 184.792736 
L 195.598257 183.189591 
L 197.727305 181.391588 
L 199.82932 179.426908 
L 203.977708 175.110235 
L 210.156648 168.089643 
L 214.321094 163.374293 
L 218.58106 158.893992 
L 220.762774 156.812435 
L 222.98746 154.874181 
L 225.261483 153.107408 
L 227.609344 151.484764 
L 232.548002 148.495042 
L 237.723131 145.760742 
L 245.699662 141.914208 
L 253.617991 138.066375 
L 258.689651 135.329767 
L 263.473106 132.336582 
L 265.723964 130.711774 
L 267.863421 128.984422 
L 269.878358 127.141727 
L 271.75566 125.170888 
L 273.453764 123.025608 
L 274.955889 120.685047 
L 276.286091 118.174593 
L 277.468428 115.519636 
L 278.526954 112.745562 
L 280.368801 106.941618 
L 284.490675 92.124392 
L 285.424743 89.31136 
L 286.451508 86.607705 
L 287.595024 84.038815 
L 288.879348 81.630078 
L 290.328536 79.406882 
L 291.966645 77.394616 
L 293.817731 75.618666 
L 295.863929 74.044175 
L 298.062834 72.61394 
L 300.40169 71.319835 
L 302.867742 70.153733 
L 305.448233 69.107507 
L 308.13041 68.17303 
L 310.901515 67.342177 
L 316.659489 65.958832 
L 322.620111 64.89246 
L 328.681336 64.078045 
L 337.738582 63.18663 
L 349.258865 62.324888 
L 354.900636 62.253457 
L 360.565732 62.489406 
L 366.249498 62.966975 
L 374.799967 63.992518 
L 394.785421 66.677549 
L 400.483435 67.223893 
L 400.483435 67.223893 
" style="fill:none;stroke:#fea952;stroke-linecap:square;"/>
   </g>
   <g id="line2d_16">
    <path clip-path="url(#p3db93adc4c)" d="M 73.184561 295.321006 
L 73.464837 275.263317 
L 74.123832 238.652911 
L 73.798508 233.073495 
L 73.173633 227.043212 
L 71.679687 214.20155 
L 71.176853 207.596544 
L 71.07771 204.27675 
L 71.12228 200.950803 
L 71.348696 197.621331 
L 71.80248 194.292495 
L 72.537734 190.974801 
L 73.615639 187.692844 
L 75.097101 184.494565 
L 76.933729 181.573545 
L 78.996325 179.020506 
L 81.287256 176.687552 
L 83.773568 174.548335 
L 86.430629 172.580869 
L 89.238347 170.76822 
L 92.178801 169.097976 
L 95.234926 167.561384 
L 98.389835 166.152511 
L 101.626535 164.867551 
L 104.927842 163.704305 
L 108.276422 162.661794 
L 111.654894 161.739994 
L 115.04599 160.939667 
L 118.432747 160.262275 
L 121.798772 159.709969 
L 125.128561 159.285692 
L 128.407945 158.993398 
L 131.624673 158.838495 
L 135.144633 158.852998 
L 138.861209 159.24164 
L 142.390553 160.04033 
L 145.745253 161.153496 
L 148.949578 162.505365 
L 152.027785 164.035144 
L 154.999203 165.691296 
L 160.668203 169.19882 
L 170.916678 175.774504 
L 175.287768 178.168389 
L 177.183458 179.020057 
L 178.830647 179.6261 
L 181.292607 180.20875 
L 182.382239 180.234666 
L 183.678521 180.009751 
L 185.091027 179.545827 
L 186.624973 178.81895 
L 188.267255 177.820989 
L 189.998695 176.559045 
L 191.801182 175.051218 
L 195.567673 171.400415 
L 199.507698 167.097091 
L 207.953582 157.477343 
L 212.59014 152.614812 
L 215.061749 150.268924 
L 217.662866 148.020865 
L 220.327253 145.967897 
L 222.982715 144.14218 
L 228.406365 140.868373 
L 233.885219 137.976805 
L 241.975336 134.07529 
L 249.593604 130.377191 
L 254.230062 127.884546 
L 258.393497 125.299763 
L 260.272118 123.959248 
L 262.006517 122.580056 
L 263.594305 121.155918 
L 264.950813 119.784489 
L 266.14988 118.338122 
L 267.287228 116.621688 
L 268.358039 114.643982 
L 269.360011 112.42564 
L 270.296096 109.993796 
L 272.009584 104.60865 
L 276.254205 89.389468 
L 277.311447 86.230182 
L 278.522891 83.07836 
L 279.936935 79.955568 
L 281.608926 76.890859 
L 283.598049 73.927852 
L 285.958317 71.13209 
L 288.525215 68.740548 
L 291.131956 66.769035 
L 293.861156 65.020184 
L 296.691741 63.474103 
L 299.606907 62.11096 
L 302.5929 60.912001 
L 305.637929 59.859982 
L 308.731314 58.939233 
L 315.02262 57.435928 
L 321.385583 56.302048 
L 327.73513 55.451115 
L 337.032314 54.53675 
L 349.017949 53.649567 
L 355.157094 53.578582 
L 361.213912 53.834979 
L 367.185329 54.338913 
L 375.979003 55.394315 
L 395.683015 58.045425 
L 401.24229 58.578468 
L 401.24229 58.578468 
" style="fill:none;stroke:#ffffff;stroke-linecap:square;"/>
   </g>
   <g id="line2d_17">
    <path clip-path="url(#p3db93adc4c)" d="M 90.541089 295.488 
L 90.819223 275.583024 
L 91.464353 237.889207 
L 91.076123 231.411882 
L 90.407856 224.979593 
L 88.967768 212.652612 
L 88.525212 207.038544 
L 88.445818 202.033376 
L 88.565373 199.826547 
L 88.790822 197.852434 
L 89.111534 196.130971 
L 89.509794 194.667997 
L 89.968166 193.446011 
L 90.578511 192.301867 
L 91.500866 191.058505 
L 92.705334 189.760594 
L 94.180779 188.439587 
L 95.907742 187.122577 
L 97.862228 185.831606 
L 100.018067 184.584191 
L 102.348236 183.394191 
L 104.825531 182.272646 
L 107.422856 181.228468 
L 112.870126 179.400217 
L 118.475927 177.954733 
L 124.024011 176.92407 
L 129.288484 176.32838 
L 133.645511 176.14547 
L 135.241797 176.217411 
L 137.060032 176.55888 
L 139.080384 177.180239 
L 141.271334 178.072045 
L 143.601382 179.209882 
L 148.578658 182.083952 
L 162.32499 190.856276 
L 165.307007 192.544181 
L 168.404097 194.102378 
L 171.647901 195.471032 
L 175.073476 196.571914 
L 178.705074 197.299675 
L 182.527866 197.52207 
L 186.267326 197.151611 
L 189.690392 196.292698 
L 192.879525 195.057637 
L 195.842241 193.526735 
L 198.60437 191.764482 
L 201.19782 189.820136 
L 203.653428 187.731959 
L 205.997996 185.531552 
L 210.438252 180.905114 
L 216.691939 173.80009 
L 220.688606 169.271244 
L 224.57198 165.173173 
L 228.312055 161.727496 
L 230.195713 160.246919 
L 232.235972 158.827349 
L 236.689639 156.121711 
L 241.561044 153.544678 
L 249.423988 149.753125 
L 257.642377 145.755559 
L 263.149239 142.774987 
L 265.871376 141.13672 
L 268.552714 139.373401 
L 271.17581 137.4643 
L 273.720325 135.388789 
L 276.162412 133.127536 
L 278.560507 130.557287 
L 280.757647 127.713093 
L 282.624549 124.748405 
L 284.214144 121.705205 
L 285.576845 118.613631 
L 286.757812 115.497327 
L 288.728017 109.274585 
L 293.53804 92.392538 
L 294.380124 90.137051 
L 295.253113 88.122062 
L 296.14977 86.369297 
L 297.059024 84.885913 
L 297.974973 83.657141 
L 299.110247 82.496784 
L 300.595902 81.319315 
L 302.264511 80.207697 
L 304.111639 79.165567 
L 306.128576 78.196505 
L 308.303566 77.303012 
L 310.62289 76.486079 
L 315.634694 75.078101 
L 321.041363 73.95171 
L 326.721469 73.069408 
L 332.558985 72.382808 
L 341.374016 71.59729 
L 349.499782 71.000209 
L 354.644178 70.928333 
L 359.917552 71.143833 
L 365.313667 71.595037 
L 373.620931 72.590722 
L 393.887826 75.309672 
L 399.72458 75.869318 
L 399.72458 75.869318 
" style="fill:none;stroke:#ffffff;stroke-linecap:square;"/>
   </g>
   <g id="patch_3">
    <path d="M 57.6 307.584 
L 57.6 41.472 
" style="fill:none;stroke:#000000;stroke-linecap:square;stroke-linejoin:miter;stroke-width:0.8;"/>
   </g>
   <g id="patch_4">
    <path d="M 414.72 307.584 
L 414.72 41.472 
" style="fill:none;stroke:#000000;stroke-linecap:square;stroke-linejoin:miter;stroke-width:0.8;"/>
   </g>
   <g id="patch_5">
    <path d="M 57.6 307.584 
L 414.72 307.584 
" style="fill:none;stroke:#000000;stroke-linecap:square;stroke-linejoin:miter;stroke-width:0.8;"/>
   </g>
   <g id="patch_6">
    <path d="M 57.6 41.472 
L 414.72 41.472 
" style="fill:none;stroke:#000000;stroke-linecap:square;stroke-linejoin:miter;stroke-width:0.8;"/>
   </g>
  </g>
 </g>
 <defs>
  <clipPath id="p3db93adc4c">
   <rect height="266.112" width="357.12" x="57.6" y="41.472"/>
  </clipPath>
 </defs>
</svg>
