<?xml version="1.0" encoding="utf-8" standalone="no"?>
<!DOCTYPE svg PUBLIC "-//W3C//DTD SVG 1.1//EN"
  "http://www.w3.org/Graphics/SVG/1.1/DTD/svg11.dtd">
<!-- Created with matplotlib (https://matplotlib.org/) -->
<svg height="345.6pt" version="1.1" viewBox="0 0 460.8 345.6" width="460.8pt" xmlns="http://www.w3.org/2000/svg" xmlns:xlink="http://www.w3.org/1999/xlink">
 <metadata>
  <rdf:RDF xmlns:cc="http://creativecommons.org/ns#" xmlns:dc="http://purl.org/dc/elements/1.1/" xmlns:rdf="http://www.w3.org/1999/02/22-rdf-syntax-ns#">
   <cc:Work>
    <dc:type rdf:resource="http://purl.org/dc/dcmitype/StillImage"/>
    <dc:date>2021-06-04T07:35:43.658543</dc:date>
    <dc:format>image/svg+xml</dc:format>
    <dc:creator>
     <cc:Agent>
      <dc:title>Matplotlib v3.3.3, https://matplotlib.org/</dc:title>
     </cc:Agent>
    </dc:creator>
   </cc:Work>
  </rdf:RDF>
 </metadata>
 <defs>
  <style type="text/css">*{stroke-linecap:butt;stroke-linejoin:round;}</style>
 </defs>
 <g id="figure_1">
  <g id="patch_1">
   <path d="M 0 345.6 
L 460.8 345.6 
L 460.8 0 
L 0 0 
z
" style="fill:#ffffff;"/>
  </g>
  <g id="axes_1">
   <g id="patch_2">
    <path d="M 57.6 307.584 
L 414.72 307.584 
L 414.72 41.472 
L 57.6 41.472 
z
" style="fill:#7d9051;"/>
   </g>
   <g id="matplotlib.axis_1">
    <g id="xtick_1">
     <g id="line2d_1">
      <defs>
       <path d="M 0 0 
L 0 3.5 
" id="meed3c6523b" style="stroke:#000000;stroke-width:0.8;"/>
      </defs>
      <g>
       <use style="stroke:#000000;stroke-width:0.8;" x="66.676132" xlink:href="#meed3c6523b" y="307.584"/>
      </g>
     </g>
     <g id="text_1">
      <!-- −150 -->
      <g transform="translate(52.942538 322.182437)scale(0.1 -0.1)">
       <defs>
        <path d="M 10.59375 35.5 
L 73.1875 35.5 
L 73.1875 27.203125 
L 10.59375 27.203125 
z
" id="DejaVuSans-8722"/>
        <path d="M 12.40625 8.296875 
L 28.515625 8.296875 
L 28.515625 63.921875 
L 10.984375 60.40625 
L 10.984375 69.390625 
L 28.421875 72.90625 
L 38.28125 72.90625 
L 38.28125 8.296875 
L 54.390625 8.296875 
L 54.390625 0 
L 12.40625 0 
z
" id="DejaVuSans-49"/>
        <path d="M 10.796875 72.90625 
L 49.515625 72.90625 
L 49.515625 64.59375 
L 19.828125 64.59375 
L 19.828125 46.734375 
Q 21.96875 47.46875 24.109375 47.828125 
Q 26.265625 48.1875 28.421875 48.1875 
Q 40.625 48.1875 47.75 41.5 
Q 54.890625 34.8125 54.890625 23.390625 
Q 54.890625 11.625 47.5625 5.09375 
Q 40.234375 -1.421875 26.90625 -1.421875 
Q 22.3125 -1.421875 17.546875 -0.640625 
Q 12.796875 0.140625 7.71875 1.703125 
L 7.71875 11.625 
Q 12.109375 9.234375 16.796875 8.0625 
Q 21.484375 6.890625 26.703125 6.890625 
Q 35.15625 6.890625 40.078125 11.328125 
Q 45.015625 15.765625 45.015625 23.390625 
Q 45.015625 31 40.078125 35.4375 
Q 35.15625 39.890625 26.703125 39.890625 
Q 22.75 39.890625 18.8125 39.015625 
Q 14.890625 38.140625 10.796875 36.28125 
z
" id="DejaVuSans-53"/>
        <path d="M 31.78125 66.40625 
Q 24.171875 66.40625 20.328125 58.90625 
Q 16.5 51.421875 16.5 36.375 
Q 16.5 21.390625 20.328125 13.890625 
Q 24.171875 6.390625 31.78125 6.390625 
Q 39.453125 6.390625 43.28125 13.890625 
Q 47.125 21.390625 47.125 36.375 
Q 47.125 51.421875 43.28125 58.90625 
Q 39.453125 66.40625 31.78125 66.40625 
z
M 31.78125 74.21875 
Q 44.046875 74.21875 50.515625 64.515625 
Q 56.984375 54.828125 56.984375 36.375 
Q 56.984375 17.96875 50.515625 8.265625 
Q 44.046875 -1.421875 31.78125 -1.421875 
Q 19.53125 -1.421875 13.0625 8.265625 
Q 6.59375 17.96875 6.59375 36.375 
Q 6.59375 54.828125 13.0625 64.515625 
Q 19.53125 74.21875 31.78125 74.21875 
z
" id="DejaVuSans-48"/>
       </defs>
       <use xlink:href="#DejaVuSans-8722"/>
       <use x="83.789062" xlink:href="#DejaVuSans-49"/>
       <use x="147.412109" xlink:href="#DejaVuSans-53"/>
       <use x="211.035156" xlink:href="#DejaVuSans-48"/>
      </g>
     </g>
    </g>
    <g id="xtick_2">
     <g id="line2d_2">
      <g>
       <use style="stroke:#000000;stroke-width:0.8;" x="138.878168" xlink:href="#meed3c6523b" y="307.584"/>
      </g>
     </g>
     <g id="text_2">
      <!-- −100 -->
      <g transform="translate(125.144574 322.182437)scale(0.1 -0.1)">
       <use xlink:href="#DejaVuSans-8722"/>
       <use x="83.789062" xlink:href="#DejaVuSans-49"/>
       <use x="147.412109" xlink:href="#DejaVuSans-48"/>
       <use x="211.035156" xlink:href="#DejaVuSans-48"/>
      </g>
     </g>
    </g>
    <g id="xtick_3">
     <g id="line2d_3">
      <g>
       <use style="stroke:#000000;stroke-width:0.8;" x="211.080204" xlink:href="#meed3c6523b" y="307.584"/>
      </g>
     </g>
     <g id="text_3">
      <!-- −50 -->
      <g transform="translate(200.52786 322.182437)scale(0.1 -0.1)">
       <use xlink:href="#DejaVuSans-8722"/>
       <use x="83.789062" xlink:href="#DejaVuSans-53"/>
       <use x="147.412109" xlink:href="#DejaVuSans-48"/>
      </g>
     </g>
    </g>
    <g id="xtick_4">
     <g id="line2d_4">
      <g>
       <use style="stroke:#000000;stroke-width:0.8;" x="283.282239" xlink:href="#meed3c6523b" y="307.584"/>
      </g>
     </g>
     <g id="text_4">
      <!-- 0 -->
      <g transform="translate(280.100989 322.182437)scale(0.1 -0.1)">
       <use xlink:href="#DejaVuSans-48"/>
      </g>
     </g>
    </g>
    <g id="xtick_5">
     <g id="line2d_5">
      <g>
       <use style="stroke:#000000;stroke-width:0.8;" x="355.484275" xlink:href="#meed3c6523b" y="307.584"/>
      </g>
     </g>
     <g id="text_5">
      <!-- 50 -->
      <g transform="translate(349.121775 322.182437)scale(0.1 -0.1)">
       <use xlink:href="#DejaVuSans-53"/>
       <use x="63.623047" xlink:href="#DejaVuSans-48"/>
      </g>
     </g>
    </g>
   </g>
   <g id="matplotlib.axis_2">
    <g id="ytick_1">
     <g id="line2d_6">
      <defs>
       <path d="M 0 0 
L -3.5 0 
" id="mca8f61e917" style="stroke:#000000;stroke-width:0.8;"/>
      </defs>
      <g>
       <use style="stroke:#000000;stroke-width:0.8;" x="57.6" xlink:href="#mca8f61e917" y="295.432428"/>
      </g>
     </g>
     <g id="text_6">
      <!-- 0 -->
      <g transform="translate(44.2375 299.231647)scale(0.1 -0.1)">
       <use xlink:href="#DejaVuSans-48"/>
      </g>
     </g>
    </g>
    <g id="ytick_2">
     <g id="line2d_7">
      <g>
       <use style="stroke:#000000;stroke-width:0.8;" x="57.6" xlink:href="#mca8f61e917" y="259.33141"/>
      </g>
     </g>
     <g id="text_7">
      <!-- 25 -->
      <g transform="translate(37.875 263.130629)scale(0.1 -0.1)">
       <defs>
        <path d="M 19.1875 8.296875 
L 53.609375 8.296875 
L 53.609375 0 
L 7.328125 0 
L 7.328125 8.296875 
Q 12.9375 14.109375 22.625 23.890625 
Q 32.328125 33.6875 34.8125 36.53125 
Q 39.546875 41.84375 41.421875 45.53125 
Q 43.3125 49.21875 43.3125 52.78125 
Q 43.3125 58.59375 39.234375 62.25 
Q 35.15625 65.921875 28.609375 65.921875 
Q 23.96875 65.921875 18.8125 64.3125 
Q 13.671875 62.703125 7.8125 59.421875 
L 7.8125 69.390625 
Q 13.765625 71.78125 18.9375 73 
Q 24.125 74.21875 28.421875 74.21875 
Q 39.75 74.21875 46.484375 68.546875 
Q 53.21875 62.890625 53.21875 53.421875 
Q 53.21875 48.921875 51.53125 44.890625 
Q 49.859375 40.875 45.40625 35.40625 
Q 44.1875 33.984375 37.640625 27.21875 
Q 31.109375 20.453125 19.1875 8.296875 
z
" id="DejaVuSans-50"/>
       </defs>
       <use xlink:href="#DejaVuSans-50"/>
       <use x="63.623047" xlink:href="#DejaVuSans-53"/>
      </g>
     </g>
    </g>
    <g id="ytick_3">
     <g id="line2d_8">
      <g>
       <use style="stroke:#000000;stroke-width:0.8;" x="57.6" xlink:href="#mca8f61e917" y="223.230392"/>
      </g>
     </g>
     <g id="text_8">
      <!-- 50 -->
      <g transform="translate(37.875 227.029611)scale(0.1 -0.1)">
       <use xlink:href="#DejaVuSans-53"/>
       <use x="63.623047" xlink:href="#DejaVuSans-48"/>
      </g>
     </g>
    </g>
    <g id="ytick_4">
     <g id="line2d_9">
      <g>
       <use style="stroke:#000000;stroke-width:0.8;" x="57.6" xlink:href="#mca8f61e917" y="187.129374"/>
      </g>
     </g>
     <g id="text_9">
      <!-- 75 -->
      <g transform="translate(37.875 190.928593)scale(0.1 -0.1)">
       <defs>
        <path d="M 8.203125 72.90625 
L 55.078125 72.90625 
L 55.078125 68.703125 
L 28.609375 0 
L 18.3125 0 
L 43.21875 64.59375 
L 8.203125 64.59375 
z
" id="DejaVuSans-55"/>
       </defs>
       <use xlink:href="#DejaVuSans-55"/>
       <use x="63.623047" xlink:href="#DejaVuSans-53"/>
      </g>
     </g>
    </g>
    <g id="ytick_5">
     <g id="line2d_10">
      <g>
       <use style="stroke:#000000;stroke-width:0.8;" x="57.6" xlink:href="#mca8f61e917" y="151.028356"/>
      </g>
     </g>
     <g id="text_10">
      <!-- 100 -->
      <g transform="translate(31.5125 154.827575)scale(0.1 -0.1)">
       <use xlink:href="#DejaVuSans-49"/>
       <use x="63.623047" xlink:href="#DejaVuSans-48"/>
       <use x="127.246094" xlink:href="#DejaVuSans-48"/>
      </g>
     </g>
    </g>
    <g id="ytick_6">
     <g id="line2d_11">
      <g>
       <use style="stroke:#000000;stroke-width:0.8;" x="57.6" xlink:href="#mca8f61e917" y="114.927338"/>
      </g>
     </g>
     <g id="text_11">
      <!-- 125 -->
      <g transform="translate(31.5125 118.726557)scale(0.1 -0.1)">
       <use xlink:href="#DejaVuSans-49"/>
       <use x="63.623047" xlink:href="#DejaVuSans-50"/>
       <use x="127.246094" xlink:href="#DejaVuSans-53"/>
      </g>
     </g>
    </g>
    <g id="ytick_7">
     <g id="line2d_12">
      <g>
       <use style="stroke:#000000;stroke-width:0.8;" x="57.6" xlink:href="#mca8f61e917" y="78.82632"/>
      </g>
     </g>
     <g id="text_12">
      <!-- 150 -->
      <g transform="translate(31.5125 82.625539)scale(0.1 -0.1)">
       <use xlink:href="#DejaVuSans-49"/>
       <use x="63.623047" xlink:href="#DejaVuSans-53"/>
       <use x="127.246094" xlink:href="#DejaVuSans-48"/>
      </g>
     </g>
    </g>
    <g id="ytick_8">
     <g id="line2d_13">
      <g>
       <use style="stroke:#000000;stroke-width:0.8;" x="57.6" xlink:href="#mca8f61e917" y="42.725303"/>
      </g>
     </g>
     <g id="text_13">
      <!-- 175 -->
      <g transform="translate(31.5125 46.524521)scale(0.1 -0.1)">
       <use xlink:href="#DejaVuSans-49"/>
       <use x="63.623047" xlink:href="#DejaVuSans-55"/>
       <use x="127.246094" xlink:href="#DejaVuSans-53"/>
      </g>
     </g>
    </g>
   </g>
   <g id="line2d_14">
    <path clip-path="url(#pe0b4489244)" d="M 283.282239 295.432428 
L 283.539348 278.334189 
L 283.990789 257.405983 
L 284.374488 253.388327 
L 285.290085 247.128134 
L 286.51088 238.78121 
L 286.84924 234.794715 
L 286.845032 231.043659 
L 286.676683 229.282389 
L 286.377352 227.61114 
L 285.931927 226.040299 
L 285.325293 224.580253 
L 284.542339 223.241389 
L 283.575729 222.017735 
L 282.437671 220.892335 
L 281.142365 219.859101 
L 279.704011 218.911945 
L 278.136807 218.044779 
L 274.67265 216.526065 
L 270.863489 215.254255 
L 266.82292 214.180644 
L 260.576667 212.835312 
L 248.753651 210.563952 
L 244.899195 210.22243 
L 240.926088 210.20059 
L 234.869304 210.490592 
L 228.867872 210.788519 
L 224.993172 210.780767 
L 221.286326 210.460378 
L 219.513755 210.143425 
L 217.804635 209.700888 
L 216.16613 209.116961 
L 214.605401 208.375834 
L 211.519295 206.461687 
L 208.398248 204.074937 
L 205.331451 201.299142 
L 202.408093 198.21786 
L 199.717363 194.91465 
L 197.348453 191.473073 
L 195.390551 187.976685 
L 194.5936 186.23405 
L 193.932847 184.509047 
L 193.419441 182.812121 
L 193.064531 181.153716 
L 192.879266 179.544279 
L 192.946415 177.949296 
L 193.317141 176.329546 
L 193.955183 174.68841 
L 194.82428 173.029266 
L 195.888171 171.355497 
L 198.45529 167.977599 
L 202.860396 162.88556 
L 205.743703 159.513509 
L 208.245831 156.19112 
L 209.263299 154.556999 
L 210.076688 152.945435 
L 210.649738 151.359806 
L 210.946188 149.803495 
L 210.929775 148.27988 
L 210.581764 146.799249 
L 209.930557 145.365595 
L 209.010603 143.97286 
L 207.856351 142.614987 
L 206.50225 141.285918 
L 203.332294 138.68996 
L 197.939705 134.860607 
L 194.321445 132.280086 
L 191.006145 129.620931 
L 189.548227 128.24672 
L 188.269394 126.834678 
L 187.204097 125.378746 
L 186.386783 123.872867 
L 185.851901 122.310981 
L 185.55599 120.691724 
L 185.424422 119.021211 
L 185.444888 117.304611 
L 185.605082 115.547089 
L 186.295428 111.929951 
L 187.397006 108.211134 
L 188.811363 104.431977 
L 191.30399 98.740527 
L 199.705661 80.986007 
L 202.482957 76.015752 
L 206.434133 69.49714 
L 214.457326 56.523008 
L 214.457326 56.523008 
" style="fill:none;stroke:#fea952;stroke-linecap:square;"/>
   </g>
   <g id="line2d_15">
    <path clip-path="url(#pe0b4489244)" d="M 277.506344 295.376856 
L 277.764298 278.220818 
L 278.233068 256.94479 
L 278.648817 252.626258 
L 279.585719 246.220241 
L 280.764149 238.198859 
L 281.074921 234.648785 
L 281.095076 231.593263 
L 280.82028 229.186895 
L 280.33913 227.496112 
L 280.00975 226.821849 
L 279.514269 226.124875 
L 278.835734 225.407875 
L 277.965655 224.683266 
L 276.907495 223.966008 
L 274.27736 222.601482 
L 271.07695 221.37424 
L 267.452372 220.296473 
L 263.54305 219.351311 
L 257.423537 218.107806 
L 246.480709 216.110001 
L 242.984998 215.955293 
L 239.203875 216.038862 
L 226.807687 216.59102 
L 222.465005 216.40701 
L 220.269616 216.146357 
L 218.0659 215.735184 
L 215.865592 215.141859 
L 213.688426 214.334723 
L 211.698701 213.367342 
L 209.898344 212.309043 
L 206.349621 209.832908 
L 202.894103 206.937014 
L 199.582552 203.68823 
L 196.480015 200.14956 
L 193.659827 196.377911 
L 191.202374 192.419116 
L 190.13764 190.378973 
L 189.199609 188.300187 
L 188.404182 186.181746 
L 187.771173 184.020889 
L 187.326262 181.81426 
L 187.108215 179.301318 
L 187.315849 176.660581 
L 187.933533 174.236504 
L 188.838504 172.008176 
L 189.949525 169.930747 
L 191.212768 167.963644 
L 194.038762 164.25492 
L 198.503118 159.093702 
L 201.208953 155.935787 
L 203.342459 153.138087 
L 204.644402 150.982193 
L 205.306843 149.601508 
L 205.322711 149.188061 
L 205.110908 148.549154 
L 204.609613 147.713895 
L 203.810268 146.737276 
L 202.736708 145.665958 
L 199.920121 143.350554 
L 194.622756 139.589444 
L 190.800961 136.859414 
L 187.044231 133.824179 
L 185.266912 132.124143 
L 183.607828 130.245521 
L 182.127465 128.134081 
L 180.922178 125.744271 
L 180.169836 123.349347 
L 179.79766 121.145247 
L 179.648669 118.95235 
L 179.692571 116.7803 
L 179.901808 114.632366 
L 180.252403 112.508369 
L 181.297723 108.32614 
L 182.691057 104.224686 
L 184.317518 100.207631 
L 186.965297 94.383527 
L 195.566897 76.498454 
L 198.502457 71.396552 
L 203.570541 63.187982 
L 209.494263 53.568 
L 209.494263 53.568 
" style="fill:none;stroke:#ffffff;stroke-linecap:square;"/>
   </g>
   <g id="line2d_16">
    <path clip-path="url(#pe0b4489244)" d="M 289.058135 295.488 
L 289.314398 278.447561 
L 289.748511 257.867176 
L 290.100159 254.150396 
L 290.994451 248.036027 
L 291.981575 241.56122 
L 292.478174 237.155666 
L 292.671331 232.719961 
L 292.594988 230.494055 
L 292.36237 228.264048 
L 291.934424 226.035384 
L 291.265996 223.82405 
L 290.311456 221.664393 
L 289.074927 219.660928 
L 287.637189 217.910595 
L 286.039608 216.376794 
L 284.319076 215.034936 
L 282.500528 213.857882 
L 280.600866 212.820559 
L 278.632547 211.901548 
L 274.531241 210.350443 
L 270.27769 209.094964 
L 265.959663 208.054576 
L 259.580345 206.758603 
L 249.410924 204.825307 
L 245.024837 204.447634 
L 240.726967 204.42786 
L 234.52753 204.724549 
L 228.787212 205.01292 
L 225.340747 205.015071 
L 222.303036 204.774399 
L 219.743679 204.259917 
L 218.643833 203.899198 
L 217.512101 203.384326 
L 214.923933 201.795586 
L 212.189014 199.716709 
L 209.446397 197.24559 
L 206.815454 194.484333 
L 204.404941 191.539644 
L 202.316514 188.526476 
L 200.643461 185.574397 
L 199.461512 182.836347 
L 198.802801 180.493173 
L 198.57698 179.238012 
L 198.700748 178.422589 
L 199.071862 177.368643 
L 199.699035 176.127786 
L 200.563574 174.747349 
L 202.871819 171.700277 
L 207.217673 166.677418 
L 210.278454 163.091231 
L 211.754941 161.209934 
L 213.149202 159.244152 
L 214.419883 157.159633 
L 215.508975 154.908677 
L 216.32388 152.440628 
L 216.722015 149.741277 
L 216.552706 146.958253 
L 215.840816 144.410436 
L 214.750205 142.182036 
L 213.411593 140.231825 
L 211.902435 138.492698 
L 210.267791 136.905877 
L 206.744466 134.029366 
L 201.256655 130.131769 
L 196.317868 126.535485 
L 193.829541 124.369298 
L 192.280728 122.623411 
L 191.851387 122.001462 
L 191.533965 121.272616 
L 191.314321 120.238201 
L 191.200174 119.090073 
L 191.197205 117.828922 
L 191.532993 114.999257 
L 192.30421 111.835197 
L 193.451424 108.428343 
L 194.892614 104.857746 
L 197.403898 99.33245 
L 202.398429 88.538907 
L 204.785912 83.734663 
L 207.457175 78.951943 
L 211.332262 72.558576 
L 219.420388 59.478015 
L 219.420388 59.478015 
" style="fill:none;stroke:#ffffff;stroke-linecap:square;"/>
   </g>
   <g id="patch_3">
    <path d="M 57.6 307.584 
L 57.6 41.472 
" style="fill:none;stroke:#000000;stroke-linecap:square;stroke-linejoin:miter;stroke-width:0.8;"/>
   </g>
   <g id="patch_4">
    <path d="M 414.72 307.584 
L 414.72 41.472 
" style="fill:none;stroke:#000000;stroke-linecap:square;stroke-linejoin:miter;stroke-width:0.8;"/>
   </g>
   <g id="patch_5">
    <path d="M 57.6 307.584 
L 414.72 307.584 
" style="fill:none;stroke:#000000;stroke-linecap:square;stroke-linejoin:miter;stroke-width:0.8;"/>
   </g>
   <g id="patch_6">
    <path d="M 57.6 41.472 
L 414.72 41.472 
" style="fill:none;stroke:#000000;stroke-linecap:square;stroke-linejoin:miter;stroke-width:0.8;"/>
   </g>
  </g>
 </g>
 <defs>
  <clipPath id="pe0b4489244">
   <rect height="266.112" width="357.12" x="57.6" y="41.472"/>
  </clipPath>
 </defs>
</svg>
