<?xml version="1.0" encoding="utf-8" standalone="no"?>
<!DOCTYPE svg PUBLIC "-//W3C//DTD SVG 1.1//EN"
  "http://www.w3.org/Graphics/SVG/1.1/DTD/svg11.dtd">
<!-- Created with matplotlib (https://matplotlib.org/) -->
<svg height="345.6pt" version="1.1" viewBox="0 0 460.8 345.6" width="460.8pt" xmlns="http://www.w3.org/2000/svg" xmlns:xlink="http://www.w3.org/1999/xlink">
 <metadata>
  <rdf:RDF xmlns:cc="http://creativecommons.org/ns#" xmlns:dc="http://purl.org/dc/elements/1.1/" xmlns:rdf="http://www.w3.org/1999/02/22-rdf-syntax-ns#">
   <cc:Work>
    <dc:type rdf:resource="http://purl.org/dc/dcmitype/StillImage"/>
    <dc:date>2021-06-04T07:35:43.973801</dc:date>
    <dc:format>image/svg+xml</dc:format>
    <dc:creator>
     <cc:Agent>
      <dc:title>Matplotlib v3.3.3, https://matplotlib.org/</dc:title>
     </cc:Agent>
    </dc:creator>
   </cc:Work>
  </rdf:RDF>
 </metadata>
 <defs>
  <style type="text/css">*{stroke-linecap:butt;stroke-linejoin:round;}</style>
 </defs>
 <g id="figure_1">
  <g id="patch_1">
   <path d="M 0 345.6 
L 460.8 345.6 
L 460.8 0 
L 0 0 
z
" style="fill:#ffffff;"/>
  </g>
  <g id="axes_1">
   <g id="patch_2">
    <path d="M 57.6 307.584 
L 414.72 307.584 
L 414.72 41.472 
L 57.6 41.472 
z
" style="fill:#7d9051;"/>
   </g>
   <g id="matplotlib.axis_1">
    <g id="xtick_1">
     <g id="line2d_1">
      <defs>
       <path d="M 0 0 
L 0 3.5 
" id="m869a7a5fd4" style="stroke:#000000;stroke-width:0.8;"/>
      </defs>
      <g>
       <use style="stroke:#000000;stroke-width:0.8;" x="99.356056" xlink:href="#m869a7a5fd4" y="307.584"/>
      </g>
     </g>
     <g id="text_1">
      <!-- −120 -->
      <g transform="translate(85.622462 322.182437)scale(0.1 -0.1)">
       <defs>
        <path d="M 10.59375 35.5 
L 73.1875 35.5 
L 73.1875 27.203125 
L 10.59375 27.203125 
z
" id="DejaVuSans-8722"/>
        <path d="M 12.40625 8.296875 
L 28.515625 8.296875 
L 28.515625 63.921875 
L 10.984375 60.40625 
L 10.984375 69.390625 
L 28.421875 72.90625 
L 38.28125 72.90625 
L 38.28125 8.296875 
L 54.390625 8.296875 
L 54.390625 0 
L 12.40625 0 
z
" id="DejaVuSans-49"/>
        <path d="M 19.1875 8.296875 
L 53.609375 8.296875 
L 53.609375 0 
L 7.328125 0 
L 7.328125 8.296875 
Q 12.9375 14.109375 22.625 23.890625 
Q 32.328125 33.6875 34.8125 36.53125 
Q 39.546875 41.84375 41.421875 45.53125 
Q 43.3125 49.21875 43.3125 52.78125 
Q 43.3125 58.59375 39.234375 62.25 
Q 35.15625 65.921875 28.609375 65.921875 
Q 23.96875 65.921875 18.8125 64.3125 
Q 13.671875 62.703125 7.8125 59.421875 
L 7.8125 69.390625 
Q 13.765625 71.78125 18.9375 73 
Q 24.125 74.21875 28.421875 74.21875 
Q 39.75 74.21875 46.484375 68.546875 
Q 53.21875 62.890625 53.21875 53.421875 
Q 53.21875 48.921875 51.53125 44.890625 
Q 49.859375 40.875 45.40625 35.40625 
Q 44.1875 33.984375 37.640625 27.21875 
Q 31.109375 20.453125 19.1875 8.296875 
z
" id="DejaVuSans-50"/>
        <path d="M 31.78125 66.40625 
Q 24.171875 66.40625 20.328125 58.90625 
Q 16.5 51.421875 16.5 36.375 
Q 16.5 21.390625 20.328125 13.890625 
Q 24.171875 6.390625 31.78125 6.390625 
Q 39.453125 6.390625 43.28125 13.890625 
Q 47.125 21.390625 47.125 36.375 
Q 47.125 51.421875 43.28125 58.90625 
Q 39.453125 66.40625 31.78125 66.40625 
z
M 31.78125 74.21875 
Q 44.046875 74.21875 50.515625 64.515625 
Q 56.984375 54.828125 56.984375 36.375 
Q 56.984375 17.96875 50.515625 8.265625 
Q 44.046875 -1.421875 31.78125 -1.421875 
Q 19.53125 -1.421875 13.0625 8.265625 
Q 6.59375 17.96875 6.59375 36.375 
Q 6.59375 54.828125 13.0625 64.515625 
Q 19.53125 74.21875 31.78125 74.21875 
z
" id="DejaVuSans-48"/>
       </defs>
       <use xlink:href="#DejaVuSans-8722"/>
       <use x="83.789062" xlink:href="#DejaVuSans-49"/>
       <use x="147.412109" xlink:href="#DejaVuSans-50"/>
       <use x="211.035156" xlink:href="#DejaVuSans-48"/>
      </g>
     </g>
    </g>
    <g id="xtick_2">
     <g id="line2d_2">
      <g>
       <use style="stroke:#000000;stroke-width:0.8;" x="142.041335" xlink:href="#m869a7a5fd4" y="307.584"/>
      </g>
     </g>
     <g id="text_2">
      <!-- −100 -->
      <g transform="translate(128.307742 322.182437)scale(0.1 -0.1)">
       <use xlink:href="#DejaVuSans-8722"/>
       <use x="83.789062" xlink:href="#DejaVuSans-49"/>
       <use x="147.412109" xlink:href="#DejaVuSans-48"/>
       <use x="211.035156" xlink:href="#DejaVuSans-48"/>
      </g>
     </g>
    </g>
    <g id="xtick_3">
     <g id="line2d_3">
      <g>
       <use style="stroke:#000000;stroke-width:0.8;" x="184.726615" xlink:href="#m869a7a5fd4" y="307.584"/>
      </g>
     </g>
     <g id="text_3">
      <!-- −80 -->
      <g transform="translate(174.174271 322.182437)scale(0.1 -0.1)">
       <defs>
        <path d="M 31.78125 34.625 
Q 24.75 34.625 20.71875 30.859375 
Q 16.703125 27.09375 16.703125 20.515625 
Q 16.703125 13.921875 20.71875 10.15625 
Q 24.75 6.390625 31.78125 6.390625 
Q 38.8125 6.390625 42.859375 10.171875 
Q 46.921875 13.96875 46.921875 20.515625 
Q 46.921875 27.09375 42.890625 30.859375 
Q 38.875 34.625 31.78125 34.625 
z
M 21.921875 38.8125 
Q 15.578125 40.375 12.03125 44.71875 
Q 8.5 49.078125 8.5 55.328125 
Q 8.5 64.0625 14.71875 69.140625 
Q 20.953125 74.21875 31.78125 74.21875 
Q 42.671875 74.21875 48.875 69.140625 
Q 55.078125 64.0625 55.078125 55.328125 
Q 55.078125 49.078125 51.53125 44.71875 
Q 48 40.375 41.703125 38.8125 
Q 48.828125 37.15625 52.796875 32.3125 
Q 56.78125 27.484375 56.78125 20.515625 
Q 56.78125 9.90625 50.3125 4.234375 
Q 43.84375 -1.421875 31.78125 -1.421875 
Q 19.734375 -1.421875 13.25 4.234375 
Q 6.78125 9.90625 6.78125 20.515625 
Q 6.78125 27.484375 10.78125 32.3125 
Q 14.796875 37.15625 21.921875 38.8125 
z
M 18.3125 54.390625 
Q 18.3125 48.734375 21.84375 45.5625 
Q 25.390625 42.390625 31.78125 42.390625 
Q 38.140625 42.390625 41.71875 45.5625 
Q 45.3125 48.734375 45.3125 54.390625 
Q 45.3125 60.0625 41.71875 63.234375 
Q 38.140625 66.40625 31.78125 66.40625 
Q 25.390625 66.40625 21.84375 63.234375 
Q 18.3125 60.0625 18.3125 54.390625 
z
" id="DejaVuSans-56"/>
       </defs>
       <use xlink:href="#DejaVuSans-8722"/>
       <use x="83.789062" xlink:href="#DejaVuSans-56"/>
       <use x="147.412109" xlink:href="#DejaVuSans-48"/>
      </g>
     </g>
    </g>
    <g id="xtick_4">
     <g id="line2d_4">
      <g>
       <use style="stroke:#000000;stroke-width:0.8;" x="227.411894" xlink:href="#m869a7a5fd4" y="307.584"/>
      </g>
     </g>
     <g id="text_4">
      <!-- −60 -->
      <g transform="translate(216.859551 322.182437)scale(0.1 -0.1)">
       <defs>
        <path d="M 33.015625 40.375 
Q 26.375 40.375 22.484375 35.828125 
Q 18.609375 31.296875 18.609375 23.390625 
Q 18.609375 15.53125 22.484375 10.953125 
Q 26.375 6.390625 33.015625 6.390625 
Q 39.65625 6.390625 43.53125 10.953125 
Q 47.40625 15.53125 47.40625 23.390625 
Q 47.40625 31.296875 43.53125 35.828125 
Q 39.65625 40.375 33.015625 40.375 
z
M 52.59375 71.296875 
L 52.59375 62.3125 
Q 48.875 64.0625 45.09375 64.984375 
Q 41.3125 65.921875 37.59375 65.921875 
Q 27.828125 65.921875 22.671875 59.328125 
Q 17.53125 52.734375 16.796875 39.40625 
Q 19.671875 43.65625 24.015625 45.921875 
Q 28.375 48.1875 33.59375 48.1875 
Q 44.578125 48.1875 50.953125 41.515625 
Q 57.328125 34.859375 57.328125 23.390625 
Q 57.328125 12.15625 50.6875 5.359375 
Q 44.046875 -1.421875 33.015625 -1.421875 
Q 20.359375 -1.421875 13.671875 8.265625 
Q 6.984375 17.96875 6.984375 36.375 
Q 6.984375 53.65625 15.1875 63.9375 
Q 23.390625 74.21875 37.203125 74.21875 
Q 40.921875 74.21875 44.703125 73.484375 
Q 48.484375 72.75 52.59375 71.296875 
z
" id="DejaVuSans-54"/>
       </defs>
       <use xlink:href="#DejaVuSans-8722"/>
       <use x="83.789062" xlink:href="#DejaVuSans-54"/>
       <use x="147.412109" xlink:href="#DejaVuSans-48"/>
      </g>
     </g>
    </g>
    <g id="xtick_5">
     <g id="line2d_5">
      <g>
       <use style="stroke:#000000;stroke-width:0.8;" x="270.097174" xlink:href="#m869a7a5fd4" y="307.584"/>
      </g>
     </g>
     <g id="text_5">
      <!-- −40 -->
      <g transform="translate(259.54483 322.182437)scale(0.1 -0.1)">
       <defs>
        <path d="M 37.796875 64.3125 
L 12.890625 25.390625 
L 37.796875 25.390625 
z
M 35.203125 72.90625 
L 47.609375 72.90625 
L 47.609375 25.390625 
L 58.015625 25.390625 
L 58.015625 17.1875 
L 47.609375 17.1875 
L 47.609375 0 
L 37.796875 0 
L 37.796875 17.1875 
L 4.890625 17.1875 
L 4.890625 26.703125 
z
" id="DejaVuSans-52"/>
       </defs>
       <use xlink:href="#DejaVuSans-8722"/>
       <use x="83.789062" xlink:href="#DejaVuSans-52"/>
       <use x="147.412109" xlink:href="#DejaVuSans-48"/>
      </g>
     </g>
    </g>
    <g id="xtick_6">
     <g id="line2d_6">
      <g>
       <use style="stroke:#000000;stroke-width:0.8;" x="312.782453" xlink:href="#m869a7a5fd4" y="307.584"/>
      </g>
     </g>
     <g id="text_6">
      <!-- −20 -->
      <g transform="translate(302.23011 322.182437)scale(0.1 -0.1)">
       <use xlink:href="#DejaVuSans-8722"/>
       <use x="83.789062" xlink:href="#DejaVuSans-50"/>
       <use x="147.412109" xlink:href="#DejaVuSans-48"/>
      </g>
     </g>
    </g>
    <g id="xtick_7">
     <g id="line2d_7">
      <g>
       <use style="stroke:#000000;stroke-width:0.8;" x="355.467733" xlink:href="#m869a7a5fd4" y="307.584"/>
      </g>
     </g>
     <g id="text_7">
      <!-- 0 -->
      <g transform="translate(352.286483 322.182437)scale(0.1 -0.1)">
       <use xlink:href="#DejaVuSans-48"/>
      </g>
     </g>
    </g>
    <g id="xtick_8">
     <g id="line2d_8">
      <g>
       <use style="stroke:#000000;stroke-width:0.8;" x="398.153013" xlink:href="#m869a7a5fd4" y="307.584"/>
      </g>
     </g>
     <g id="text_8">
      <!-- 20 -->
      <g transform="translate(391.790513 322.182437)scale(0.1 -0.1)">
       <use xlink:href="#DejaVuSans-50"/>
       <use x="63.623047" xlink:href="#DejaVuSans-48"/>
      </g>
     </g>
    </g>
   </g>
   <g id="matplotlib.axis_2">
    <g id="ytick_1">
     <g id="line2d_9">
      <defs>
       <path d="M 0 0 
L -3.5 0 
" id="m9f1100f3ff" style="stroke:#000000;stroke-width:0.8;"/>
      </defs>
      <g>
       <use style="stroke:#000000;stroke-width:0.8;" x="57.6" xlink:href="#m9f1100f3ff" y="295.405865"/>
      </g>
     </g>
     <g id="text_9">
      <!-- 0 -->
      <g transform="translate(44.2375 299.205084)scale(0.1 -0.1)">
       <use xlink:href="#DejaVuSans-48"/>
      </g>
     </g>
    </g>
    <g id="ytick_2">
     <g id="line2d_10">
      <g>
       <use style="stroke:#000000;stroke-width:0.8;" x="57.6" xlink:href="#m9f1100f3ff" y="252.720586"/>
      </g>
     </g>
     <g id="text_10">
      <!-- 20 -->
      <g transform="translate(37.875 256.519805)scale(0.1 -0.1)">
       <use xlink:href="#DejaVuSans-50"/>
       <use x="63.623047" xlink:href="#DejaVuSans-48"/>
      </g>
     </g>
    </g>
    <g id="ytick_3">
     <g id="line2d_11">
      <g>
       <use style="stroke:#000000;stroke-width:0.8;" x="57.6" xlink:href="#m9f1100f3ff" y="210.035306"/>
      </g>
     </g>
     <g id="text_11">
      <!-- 40 -->
      <g transform="translate(37.875 213.834525)scale(0.1 -0.1)">
       <use xlink:href="#DejaVuSans-52"/>
       <use x="63.623047" xlink:href="#DejaVuSans-48"/>
      </g>
     </g>
    </g>
    <g id="ytick_4">
     <g id="line2d_12">
      <g>
       <use style="stroke:#000000;stroke-width:0.8;" x="57.6" xlink:href="#m9f1100f3ff" y="167.350027"/>
      </g>
     </g>
     <g id="text_12">
      <!-- 60 -->
      <g transform="translate(37.875 171.149246)scale(0.1 -0.1)">
       <use xlink:href="#DejaVuSans-54"/>
       <use x="63.623047" xlink:href="#DejaVuSans-48"/>
      </g>
     </g>
    </g>
    <g id="ytick_5">
     <g id="line2d_13">
      <g>
       <use style="stroke:#000000;stroke-width:0.8;" x="57.6" xlink:href="#m9f1100f3ff" y="124.664747"/>
      </g>
     </g>
     <g id="text_13">
      <!-- 80 -->
      <g transform="translate(37.875 128.463966)scale(0.1 -0.1)">
       <use xlink:href="#DejaVuSans-56"/>
       <use x="63.623047" xlink:href="#DejaVuSans-48"/>
      </g>
     </g>
    </g>
    <g id="ytick_6">
     <g id="line2d_14">
      <g>
       <use style="stroke:#000000;stroke-width:0.8;" x="57.6" xlink:href="#m9f1100f3ff" y="81.979468"/>
      </g>
     </g>
     <g id="text_14">
      <!-- 100 -->
      <g transform="translate(31.5125 85.778687)scale(0.1 -0.1)">
       <use xlink:href="#DejaVuSans-49"/>
       <use x="63.623047" xlink:href="#DejaVuSans-48"/>
       <use x="127.246094" xlink:href="#DejaVuSans-48"/>
      </g>
     </g>
    </g>
   </g>
   <g id="line2d_15">
    <path clip-path="url(#p15d9e5c1aa)" d="M 355.467733 295.405865 
L 355.794108 272.942777 
L 356.496013 239.231606 
L 356.930516 233.490172 
L 357.942785 224.74323 
L 359.003123 215.978315 
L 359.523081 210.204931 
L 359.743945 204.543373 
L 359.702159 201.769506 
L 359.537531 199.041568 
L 359.234037 196.36555 
L 358.775655 193.747442 
L 358.146362 191.193235 
L 357.330135 188.70892 
L 356.338775 186.236717 
L 355.200452 183.724589 
L 353.923693 181.187135 
L 350.988984 176.09465 
L 347.602876 171.076063 
L 343.833597 166.248175 
L 341.826589 163.942243 
L 339.749374 161.727786 
L 337.61048 159.619404 
L 335.418435 157.631697 
L 333.181768 155.779265 
L 330.909008 154.076709 
L 328.608683 152.538628 
L 326.289321 151.179622 
L 323.959451 150.014293 
L 321.627601 149.057239 
L 319.231564 148.296404 
L 316.712849 147.705108 
L 314.085557 147.276013 
L 311.363791 147.001783 
L 308.561654 146.875081 
L 305.693249 146.88857 
L 302.772679 147.034913 
L 299.814045 147.306773 
L 293.838999 148.197699 
L 287.880932 149.502651 
L 282.052665 151.162936 
L 276.467021 153.119858 
L 271.236818 155.314723 
L 268.790265 156.483042 
L 266.466671 157.817116 
L 264.253909 159.419708 
L 262.139043 161.256209 
L 260.109142 163.292012 
L 258.15127 165.492509 
L 254.399882 170.249151 
L 245.376594 182.600342 
L 243.529356 184.872503 
L 241.637746 186.997885 
L 239.688832 188.941883 
L 237.669678 190.669886 
L 235.567353 192.147288 
L 233.368922 193.33948 
L 231.061451 194.211855 
L 228.642832 194.80965 
L 226.126752 195.209066 
L 223.523974 195.421941 
L 220.84526 195.460114 
L 218.101373 195.335422 
L 215.303075 195.059704 
L 212.461129 194.644799 
L 206.689344 193.444777 
L 200.872118 191.830062 
L 195.095552 189.895361 
L 189.445747 187.735379 
L 184.008803 185.444821 
L 178.870822 183.118395 
L 173.929171 180.65005 
L 169.041729 177.88708 
L 164.235358 174.854206 
L 159.53692 171.576146 
L 154.973278 168.077621 
L 150.571295 164.38335 
L 146.357833 160.518053 
L 142.359756 156.506449 
L 138.603926 152.373258 
L 135.058463 148.109284 
L 129.610528 141.166164 
L 126.014087 136.228975 
L 122.593988 131.118503 
L 119.477029 125.897725 
L 116.79001 120.629616 
L 115.647352 117.997492 
L 114.659728 115.377151 
L 113.842987 112.776466 
L 113.21298 110.203307 
L 112.785557 107.665548 
L 112.576566 105.171059 
L 112.601858 102.727714 
L 112.895385 100.321482 
L 113.464769 97.932122 
L 114.286364 95.558188 
L 115.336526 93.198234 
L 116.591611 90.850813 
L 118.027972 88.51448 
L 119.621966 86.187788 
L 123.188271 81.557543 
L 127.101368 76.948508 
L 137.159966 65.442794 
L 140.797207 60.816888 
L 142.43849 58.493088 
L 142.43849 58.493088 
" style="fill:none;stroke:#fea952;stroke-linecap:square;"/>
   </g>
   <g id="line2d_16">
    <path clip-path="url(#p15d9e5c1aa)" d="M 346.931072 295.323731 
L 347.258609 272.779755 
L 347.976319 238.68742 
L 348.440285 232.597258 
L 349.472911 223.674325 
L 350.508315 215.130046 
L 350.998778 209.738478 
L 351.207858 204.671962 
L 351.054854 200.003609 
L 350.824893 197.837834 
L 350.486473 195.78969 
L 350.035842 193.857964 
L 349.40642 191.886351 
L 347.574357 187.561775 
L 345.198417 183.034323 
L 342.354638 178.465037 
L 339.125577 174.00136 
L 335.600119 169.782825 
L 331.875833 165.943576 
L 328.06341 162.611815 
L 326.163829 161.173511 
L 324.292794 159.904388 
L 322.470399 158.81488 
L 320.718004 157.912036 
L 319.043887 157.19393 
L 317.280442 156.607508 
L 315.336791 156.130533 
L 313.229743 155.770065 
L 310.978171 155.530126 
L 308.6018 155.412043 
L 306.120485 155.414929 
L 303.553833 155.536155 
L 298.240799 156.116735 
L 292.810807 157.111101 
L 287.406051 158.466229 
L 282.165341 160.121774 
L 277.227174 162.010347 
L 273.04097 163.886611 
L 271.474243 164.731272 
L 269.851382 165.865607 
L 268.184409 167.284051 
L 266.487118 168.966758 
L 264.769797 170.884764 
L 261.289971 175.289787 
L 252.000742 187.985691 
L 249.906483 190.548203 
L 247.666726 193.042116 
L 245.239674 195.427981 
L 242.578225 197.65469 
L 239.637039 199.651885 
L 236.387933 201.324898 
L 233.10986 202.499518 
L 229.98129 203.24113 
L 226.822654 203.717711 
L 223.645617 203.95813 
L 220.457706 203.988368 
L 217.264265 203.831337 
L 214.069794 203.507209 
L 210.878759 203.033924 
L 207.696033 202.427699 
L 201.37809 200.875236 
L 195.167649 198.959622 
L 189.125894 196.782728 
L 183.321696 194.44271 
L 177.830118 192.036347 
L 172.479654 189.50891 
L 167.184024 186.682989 
L 161.986279 183.568556 
L 156.907023 180.189822 
L 151.967747 176.570101 
L 147.190695 172.731912 
L 142.598744 168.69701 
L 138.215325 164.486319 
L 134.0644 160.119806 
L 130.217802 155.674621 
L 124.656133 148.739013 
L 120.854645 143.689906 
L 117.125966 138.359005 
L 113.596218 132.786208 
L 110.394399 126.999018 
L 108.959036 124.0292 
L 107.658876 121.008403 
L 106.514877 117.935027 
L 105.550853 114.806695 
L 104.794494 111.621196 
L 104.278306 108.378293 
L 104.039968 105.082693 
L 104.127621 101.693975 
L 104.590867 98.342518 
L 105.397211 95.140019 
L 106.486691 92.087391 
L 107.807998 89.172991 
L 109.319036 86.379685 
L 110.985166 83.689523 
L 112.776918 81.086157 
L 116.634096 76.08725 
L 120.697079 71.303475 
L 130.524578 60.0713 
L 133.824056 55.8918 
L 135.465339 53.568 
L 135.465339 53.568 
" style="fill:none;stroke:#ffffff;stroke-linecap:square;"/>
   </g>
   <g id="line2d_17">
    <path clip-path="url(#p15d9e5c1aa)" d="M 364.004394 295.488 
L 364.329607 273.105799 
L 365.015707 239.775792 
L 365.420747 234.383086 
L 366.412659 225.812134 
L 367.497931 216.826585 
L 368.047385 210.671384 
L 368.280032 204.414784 
L 368.223711 201.255239 
L 368.020207 198.079528 
L 367.643181 194.893266 
L 367.064838 191.705194 
L 366.256883 188.528506 
L 365.25385 185.531489 
L 364.114763 182.713176 
L 362.826547 179.887403 
L 361.39759 177.061339 
L 359.835639 174.243588 
L 358.147985 171.443841 
L 356.341544 168.672602 
L 354.422874 165.940992 
L 352.39816 163.260604 
L 350.273148 160.6434 
L 348.053059 158.101661 
L 345.742463 155.647966 
L 343.345126 153.295231 
L 340.863823 151.056815 
L 338.300126 148.946715 
L 335.654187 146.979907 
L 332.924572 145.172867 
L 330.108243 143.544365 
L 327.200898 142.11655 
L 324.211316 140.920548 
L 321.182687 139.985301 
L 318.088906 139.279683 
L 314.94137 138.781962 
L 311.749411 138.473441 
L 308.521509 138.33812 
L 305.266013 138.362211 
L 301.991524 138.533671 
L 298.70706 138.841792 
L 295.422102 139.276894 
L 292.146574 139.830081 
L 285.66531 141.258117 
L 279.348765 143.06539 
L 273.284341 145.19825 
L 267.558 147.610983 
L 264.53956 149.079473 
L 261.4591 150.902961 
L 258.656436 152.973809 
L 256.093678 155.228367 
L 253.731165 157.617266 
L 251.532742 160.100253 
L 247.509794 165.208516 
L 237.152228 179.196803 
L 235.608766 180.953655 
L 234.13799 182.455784 
L 232.761131 183.685082 
L 231.497667 184.642691 
L 230.349911 185.354063 
L 229.013042 185.924193 
L 227.304375 186.37817 
L 225.43085 186.700421 
L 223.40233 186.885752 
L 221.232813 186.931859 
L 218.93848 186.839507 
L 216.536356 186.612199 
L 211.476562 185.777387 
L 206.18397 184.491438 
L 200.779093 182.83396 
L 195.372952 180.892494 
L 190.068877 178.758296 
L 182.583625 175.430975 
L 178.037491 173.166532 
L 173.511808 170.613861 
L 169.0402 167.797662 
L 164.655326 164.743633 
L 160.389029 161.478306 
L 156.27246 158.028978 
L 152.336184 154.42374 
L 148.61023 150.691563 
L 145.124088 146.862468 
L 141.7129 142.761407 
L 136.466901 136.079762 
L 133.054831 131.40101 
L 129.859691 126.636219 
L 127.008057 121.87716 
L 124.620984 117.230032 
L 122.804579 112.819276 
L 122.135122 110.746237 
L 121.631467 108.785419 
L 121.292808 106.952802 
L 121.113165 105.259426 
L 121.076096 103.761453 
L 121.199904 102.300445 
L 121.532326 100.724225 
L 122.086037 99.028985 
L 122.865055 97.223477 
L 123.864185 95.321942 
L 125.070778 93.339437 
L 128.031854 89.182807 
L 131.575062 84.830243 
L 137.564919 78.007132 
L 143.795355 70.814288 
L 147.770357 65.741976 
L 149.411641 63.418176 
L 149.411641 63.418176 
" style="fill:none;stroke:#ffffff;stroke-linecap:square;"/>
   </g>
   <g id="patch_3">
    <path d="M 57.6 307.584 
L 57.6 41.472 
" style="fill:none;stroke:#000000;stroke-linecap:square;stroke-linejoin:miter;stroke-width:0.8;"/>
   </g>
   <g id="patch_4">
    <path d="M 414.72 307.584 
L 414.72 41.472 
" style="fill:none;stroke:#000000;stroke-linecap:square;stroke-linejoin:miter;stroke-width:0.8;"/>
   </g>
   <g id="patch_5">
    <path d="M 57.6 307.584 
L 414.72 307.584 
" style="fill:none;stroke:#000000;stroke-linecap:square;stroke-linejoin:miter;stroke-width:0.8;"/>
   </g>
   <g id="patch_6">
    <path d="M 57.6 41.472 
L 414.72 41.472 
" style="fill:none;stroke:#000000;stroke-linecap:square;stroke-linejoin:miter;stroke-width:0.8;"/>
   </g>
  </g>
 </g>
 <defs>
  <clipPath id="p15d9e5c1aa">
   <rect height="266.112" width="357.12" x="57.6" y="41.472"/>
  </clipPath>
 </defs>
</svg>
