<?xml version="1.0" encoding="utf-8" standalone="no"?>
<!DOCTYPE svg PUBLIC "-//W3C//DTD SVG 1.1//EN"
  "http://www.w3.org/Graphics/SVG/1.1/DTD/svg11.dtd">
<!-- Created with matplotlib (https://matplotlib.org/) -->
<svg height="345.6pt" version="1.1" viewBox="0 0 460.8 345.6" width="460.8pt" xmlns="http://www.w3.org/2000/svg" xmlns:xlink="http://www.w3.org/1999/xlink">
 <metadata>
  <rdf:RDF xmlns:cc="http://creativecommons.org/ns#" xmlns:dc="http://purl.org/dc/elements/1.1/" xmlns:rdf="http://www.w3.org/1999/02/22-rdf-syntax-ns#">
   <cc:Work>
    <dc:type rdf:resource="http://purl.org/dc/dcmitype/StillImage"/>
    <dc:date>2021-06-06T18:22:32.170550</dc:date>
    <dc:format>image/svg+xml</dc:format>
    <dc:creator>
     <cc:Agent>
      <dc:title>Matplotlib v3.3.3, https://matplotlib.org/</dc:title>
     </cc:Agent>
    </dc:creator>
   </cc:Work>
  </rdf:RDF>
 </metadata>
 <defs>
  <style type="text/css">*{stroke-linecap:butt;stroke-linejoin:round;}</style>
 </defs>
 <g id="figure_1">
  <g id="patch_1">
   <path d="M 0 345.6 
L 460.8 345.6 
L 460.8 0 
L 0 0 
z
" style="fill:#ffffff;"/>
  </g>
  <g id="axes_1">
   <g id="patch_2">
    <path d="M 57.6 307.584 
L 414.72 307.584 
L 414.72 41.472 
L 57.6 41.472 
z
" style="fill:#7d9051;"/>
   </g>
   <g id="matplotlib.axis_1">
    <g id="xtick_1">
     <g id="line2d_1">
      <defs>
       <path d="M 0 0 
L 0 3.5 
" id="m22059ce5f7" style="stroke:#000000;stroke-width:0.8;"/>
      </defs>
      <g>
       <use style="stroke:#000000;stroke-width:0.8;" x="96.167752" xlink:href="#m22059ce5f7" y="307.584"/>
      </g>
     </g>
     <g id="text_1">
      <!-- −140 -->
      <g transform="translate(82.434158 322.182437)scale(0.1 -0.1)">
       <defs>
        <path d="M 10.59375 35.5 
L 73.1875 35.5 
L 73.1875 27.203125 
L 10.59375 27.203125 
z
" id="DejaVuSans-8722"/>
        <path d="M 12.40625 8.296875 
L 28.515625 8.296875 
L 28.515625 63.921875 
L 10.984375 60.40625 
L 10.984375 69.390625 
L 28.421875 72.90625 
L 38.28125 72.90625 
L 38.28125 8.296875 
L 54.390625 8.296875 
L 54.390625 0 
L 12.40625 0 
z
" id="DejaVuSans-49"/>
        <path d="M 37.796875 64.3125 
L 12.890625 25.390625 
L 37.796875 25.390625 
z
M 35.203125 72.90625 
L 47.609375 72.90625 
L 47.609375 25.390625 
L 58.015625 25.390625 
L 58.015625 17.1875 
L 47.609375 17.1875 
L 47.609375 0 
L 37.796875 0 
L 37.796875 17.1875 
L 4.890625 17.1875 
L 4.890625 26.703125 
z
" id="DejaVuSans-52"/>
        <path d="M 31.78125 66.40625 
Q 24.171875 66.40625 20.328125 58.90625 
Q 16.5 51.421875 16.5 36.375 
Q 16.5 21.390625 20.328125 13.890625 
Q 24.171875 6.390625 31.78125 6.390625 
Q 39.453125 6.390625 43.28125 13.890625 
Q 47.125 21.390625 47.125 36.375 
Q 47.125 51.421875 43.28125 58.90625 
Q 39.453125 66.40625 31.78125 66.40625 
z
M 31.78125 74.21875 
Q 44.046875 74.21875 50.515625 64.515625 
Q 56.984375 54.828125 56.984375 36.375 
Q 56.984375 17.96875 50.515625 8.265625 
Q 44.046875 -1.421875 31.78125 -1.421875 
Q 19.53125 -1.421875 13.0625 8.265625 
Q 6.59375 17.96875 6.59375 36.375 
Q 6.59375 54.828125 13.0625 64.515625 
Q 19.53125 74.21875 31.78125 74.21875 
z
" id="DejaVuSans-48"/>
       </defs>
       <use xlink:href="#DejaVuSans-8722"/>
       <use x="83.789062" xlink:href="#DejaVuSans-49"/>
       <use x="147.412109" xlink:href="#DejaVuSans-52"/>
       <use x="211.035156" xlink:href="#DejaVuSans-48"/>
      </g>
     </g>
    </g>
    <g id="xtick_2">
     <g id="line2d_2">
      <g>
       <use style="stroke:#000000;stroke-width:0.8;" x="137.425884" xlink:href="#m22059ce5f7" y="307.584"/>
      </g>
     </g>
     <g id="text_2">
      <!-- −120 -->
      <g transform="translate(123.69229 322.182437)scale(0.1 -0.1)">
       <defs>
        <path d="M 19.1875 8.296875 
L 53.609375 8.296875 
L 53.609375 0 
L 7.328125 0 
L 7.328125 8.296875 
Q 12.9375 14.109375 22.625 23.890625 
Q 32.328125 33.6875 34.8125 36.53125 
Q 39.546875 41.84375 41.421875 45.53125 
Q 43.3125 49.21875 43.3125 52.78125 
Q 43.3125 58.59375 39.234375 62.25 
Q 35.15625 65.921875 28.609375 65.921875 
Q 23.96875 65.921875 18.8125 64.3125 
Q 13.671875 62.703125 7.8125 59.421875 
L 7.8125 69.390625 
Q 13.765625 71.78125 18.9375 73 
Q 24.125 74.21875 28.421875 74.21875 
Q 39.75 74.21875 46.484375 68.546875 
Q 53.21875 62.890625 53.21875 53.421875 
Q 53.21875 48.921875 51.53125 44.890625 
Q 49.859375 40.875 45.40625 35.40625 
Q 44.1875 33.984375 37.640625 27.21875 
Q 31.109375 20.453125 19.1875 8.296875 
z
" id="DejaVuSans-50"/>
       </defs>
       <use xlink:href="#DejaVuSans-8722"/>
       <use x="83.789062" xlink:href="#DejaVuSans-49"/>
       <use x="147.412109" xlink:href="#DejaVuSans-50"/>
       <use x="211.035156" xlink:href="#DejaVuSans-48"/>
      </g>
     </g>
    </g>
    <g id="xtick_3">
     <g id="line2d_3">
      <g>
       <use style="stroke:#000000;stroke-width:0.8;" x="178.684015" xlink:href="#m22059ce5f7" y="307.584"/>
      </g>
     </g>
     <g id="text_3">
      <!-- −100 -->
      <g transform="translate(164.950422 322.182437)scale(0.1 -0.1)">
       <use xlink:href="#DejaVuSans-8722"/>
       <use x="83.789062" xlink:href="#DejaVuSans-49"/>
       <use x="147.412109" xlink:href="#DejaVuSans-48"/>
       <use x="211.035156" xlink:href="#DejaVuSans-48"/>
      </g>
     </g>
    </g>
    <g id="xtick_4">
     <g id="line2d_4">
      <g>
       <use style="stroke:#000000;stroke-width:0.8;" x="219.942147" xlink:href="#m22059ce5f7" y="307.584"/>
      </g>
     </g>
     <g id="text_4">
      <!-- −80 -->
      <g transform="translate(209.389803 322.182437)scale(0.1 -0.1)">
       <defs>
        <path d="M 31.78125 34.625 
Q 24.75 34.625 20.71875 30.859375 
Q 16.703125 27.09375 16.703125 20.515625 
Q 16.703125 13.921875 20.71875 10.15625 
Q 24.75 6.390625 31.78125 6.390625 
Q 38.8125 6.390625 42.859375 10.171875 
Q 46.921875 13.96875 46.921875 20.515625 
Q 46.921875 27.09375 42.890625 30.859375 
Q 38.875 34.625 31.78125 34.625 
z
M 21.921875 38.8125 
Q 15.578125 40.375 12.03125 44.71875 
Q 8.5 49.078125 8.5 55.328125 
Q 8.5 64.0625 14.71875 69.140625 
Q 20.953125 74.21875 31.78125 74.21875 
Q 42.671875 74.21875 48.875 69.140625 
Q 55.078125 64.0625 55.078125 55.328125 
Q 55.078125 49.078125 51.53125 44.71875 
Q 48 40.375 41.703125 38.8125 
Q 48.828125 37.15625 52.796875 32.3125 
Q 56.78125 27.484375 56.78125 20.515625 
Q 56.78125 9.90625 50.3125 4.234375 
Q 43.84375 -1.421875 31.78125 -1.421875 
Q 19.734375 -1.421875 13.25 4.234375 
Q 6.78125 9.90625 6.78125 20.515625 
Q 6.78125 27.484375 10.78125 32.3125 
Q 14.796875 37.15625 21.921875 38.8125 
z
M 18.3125 54.390625 
Q 18.3125 48.734375 21.84375 45.5625 
Q 25.390625 42.390625 31.78125 42.390625 
Q 38.140625 42.390625 41.71875 45.5625 
Q 45.3125 48.734375 45.3125 54.390625 
Q 45.3125 60.0625 41.71875 63.234375 
Q 38.140625 66.40625 31.78125 66.40625 
Q 25.390625 66.40625 21.84375 63.234375 
Q 18.3125 60.0625 18.3125 54.390625 
z
" id="DejaVuSans-56"/>
       </defs>
       <use xlink:href="#DejaVuSans-8722"/>
       <use x="83.789062" xlink:href="#DejaVuSans-56"/>
       <use x="147.412109" xlink:href="#DejaVuSans-48"/>
      </g>
     </g>
    </g>
    <g id="xtick_5">
     <g id="line2d_5">
      <g>
       <use style="stroke:#000000;stroke-width:0.8;" x="261.200279" xlink:href="#m22059ce5f7" y="307.584"/>
      </g>
     </g>
     <g id="text_5">
      <!-- −60 -->
      <g transform="translate(250.647935 322.182437)scale(0.1 -0.1)">
       <defs>
        <path d="M 33.015625 40.375 
Q 26.375 40.375 22.484375 35.828125 
Q 18.609375 31.296875 18.609375 23.390625 
Q 18.609375 15.53125 22.484375 10.953125 
Q 26.375 6.390625 33.015625 6.390625 
Q 39.65625 6.390625 43.53125 10.953125 
Q 47.40625 15.53125 47.40625 23.390625 
Q 47.40625 31.296875 43.53125 35.828125 
Q 39.65625 40.375 33.015625 40.375 
z
M 52.59375 71.296875 
L 52.59375 62.3125 
Q 48.875 64.0625 45.09375 64.984375 
Q 41.3125 65.921875 37.59375 65.921875 
Q 27.828125 65.921875 22.671875 59.328125 
Q 17.53125 52.734375 16.796875 39.40625 
Q 19.671875 43.65625 24.015625 45.921875 
Q 28.375 48.1875 33.59375 48.1875 
Q 44.578125 48.1875 50.953125 41.515625 
Q 57.328125 34.859375 57.328125 23.390625 
Q 57.328125 12.15625 50.6875 5.359375 
Q 44.046875 -1.421875 33.015625 -1.421875 
Q 20.359375 -1.421875 13.671875 8.265625 
Q 6.984375 17.96875 6.984375 36.375 
Q 6.984375 53.65625 15.1875 63.9375 
Q 23.390625 74.21875 37.203125 74.21875 
Q 40.921875 74.21875 44.703125 73.484375 
Q 48.484375 72.75 52.59375 71.296875 
z
" id="DejaVuSans-54"/>
       </defs>
       <use xlink:href="#DejaVuSans-8722"/>
       <use x="83.789062" xlink:href="#DejaVuSans-54"/>
       <use x="147.412109" xlink:href="#DejaVuSans-48"/>
      </g>
     </g>
    </g>
    <g id="xtick_6">
     <g id="line2d_6">
      <g>
       <use style="stroke:#000000;stroke-width:0.8;" x="302.45841" xlink:href="#m22059ce5f7" y="307.584"/>
      </g>
     </g>
     <g id="text_6">
      <!-- −40 -->
      <g transform="translate(291.906067 322.182437)scale(0.1 -0.1)">
       <use xlink:href="#DejaVuSans-8722"/>
       <use x="83.789062" xlink:href="#DejaVuSans-52"/>
       <use x="147.412109" xlink:href="#DejaVuSans-48"/>
      </g>
     </g>
    </g>
    <g id="xtick_7">
     <g id="line2d_7">
      <g>
       <use style="stroke:#000000;stroke-width:0.8;" x="343.716542" xlink:href="#m22059ce5f7" y="307.584"/>
      </g>
     </g>
     <g id="text_7">
      <!-- −20 -->
      <g transform="translate(333.164198 322.182437)scale(0.1 -0.1)">
       <use xlink:href="#DejaVuSans-8722"/>
       <use x="83.789062" xlink:href="#DejaVuSans-50"/>
       <use x="147.412109" xlink:href="#DejaVuSans-48"/>
      </g>
     </g>
    </g>
    <g id="xtick_8">
     <g id="line2d_8">
      <g>
       <use style="stroke:#000000;stroke-width:0.8;" x="384.974674" xlink:href="#m22059ce5f7" y="307.584"/>
      </g>
     </g>
     <g id="text_8">
      <!-- 0 -->
      <g transform="translate(381.793424 322.182437)scale(0.1 -0.1)">
       <use xlink:href="#DejaVuSans-48"/>
      </g>
     </g>
    </g>
   </g>
   <g id="matplotlib.axis_2">
    <g id="ytick_1">
     <g id="line2d_9">
      <defs>
       <path d="M 0 0 
L -3.5 0 
" id="md35404eceb" style="stroke:#000000;stroke-width:0.8;"/>
      </defs>
      <g>
       <use style="stroke:#000000;stroke-width:0.8;" x="57.6" xlink:href="#md35404eceb" y="287.5294"/>
      </g>
     </g>
     <g id="text_9">
      <!-- 0 -->
      <g transform="translate(44.2375 291.328619)scale(0.1 -0.1)">
       <use xlink:href="#DejaVuSans-48"/>
      </g>
     </g>
    </g>
    <g id="ytick_2">
     <g id="line2d_10">
      <g>
       <use style="stroke:#000000;stroke-width:0.8;" x="57.6" xlink:href="#md35404eceb" y="246.271269"/>
      </g>
     </g>
     <g id="text_10">
      <!-- 20 -->
      <g transform="translate(37.875 250.070487)scale(0.1 -0.1)">
       <use xlink:href="#DejaVuSans-50"/>
       <use x="63.623047" xlink:href="#DejaVuSans-48"/>
      </g>
     </g>
    </g>
    <g id="ytick_3">
     <g id="line2d_11">
      <g>
       <use style="stroke:#000000;stroke-width:0.8;" x="57.6" xlink:href="#md35404eceb" y="205.013137"/>
      </g>
     </g>
     <g id="text_11">
      <!-- 40 -->
      <g transform="translate(37.875 208.812356)scale(0.1 -0.1)">
       <use xlink:href="#DejaVuSans-52"/>
       <use x="63.623047" xlink:href="#DejaVuSans-48"/>
      </g>
     </g>
    </g>
    <g id="ytick_4">
     <g id="line2d_12">
      <g>
       <use style="stroke:#000000;stroke-width:0.8;" x="57.6" xlink:href="#md35404eceb" y="163.755005"/>
      </g>
     </g>
     <g id="text_12">
      <!-- 60 -->
      <g transform="translate(37.875 167.554224)scale(0.1 -0.1)">
       <use xlink:href="#DejaVuSans-54"/>
       <use x="63.623047" xlink:href="#DejaVuSans-48"/>
      </g>
     </g>
    </g>
    <g id="ytick_5">
     <g id="line2d_13">
      <g>
       <use style="stroke:#000000;stroke-width:0.8;" x="57.6" xlink:href="#md35404eceb" y="122.496874"/>
      </g>
     </g>
     <g id="text_13">
      <!-- 80 -->
      <g transform="translate(37.875 126.296092)scale(0.1 -0.1)">
       <use xlink:href="#DejaVuSans-56"/>
       <use x="63.623047" xlink:href="#DejaVuSans-48"/>
      </g>
     </g>
    </g>
    <g id="ytick_6">
     <g id="line2d_14">
      <g>
       <use style="stroke:#000000;stroke-width:0.8;" x="57.6" xlink:href="#md35404eceb" y="81.238742"/>
      </g>
     </g>
     <g id="text_14">
      <!-- 100 -->
      <g transform="translate(31.5125 85.037961)scale(0.1 -0.1)">
       <use xlink:href="#DejaVuSans-49"/>
       <use x="63.623047" xlink:href="#DejaVuSans-48"/>
       <use x="127.246094" xlink:href="#DejaVuSans-48"/>
      </g>
     </g>
    </g>
   </g>
   <g id="line2d_15">
    <path clip-path="url(#p30520f77ae)" d="M 384.974674 287.5294 
L 385.290137 265.817347 
L 385.988659 233.200507 
L 386.549225 227.42161 
L 387.40555 221.419843 
L 389.295658 209.282584 
L 389.974528 203.414539 
L 390.16978 200.589166 
L 390.239334 197.858514 
L 390.161007 195.239296 
L 389.91262 192.74823 
L 389.471988 190.40203 
L 388.81693 188.217412 
L 387.925264 186.21109 
L 386.774808 184.399781 
L 385.352422 182.78653 
L 383.674174 181.353899 
L 381.761697 180.087869 
L 379.636625 178.974424 
L 377.32059 177.999549 
L 374.835225 177.149225 
L 372.202163 176.409438 
L 366.57948 175.205406 
L 360.625605 174.275319 
L 348.416528 172.788455 
L 342.507454 172.007415 
L 336.959439 171.051793 
L 331.59771 170.13993 
L 326.15328 169.50175 
L 317.901023 168.850349 
L 306.90489 168.055283 
L 301.481206 167.476028 
L 296.149443 166.64928 
L 290.94135 165.480279 
L 288.393602 164.737821 
L 285.888676 163.874265 
L 283.43648 162.836584 
L 281.040015 161.597573 
L 278.69289 160.18412 
L 276.388718 158.623114 
L 271.883678 155.165995 
L 265.288548 149.545879 
L 260.925548 145.823208 
L 256.529921 142.370755 
L 254.303902 140.813081 
L 252.050561 139.403627 
L 249.763509 138.169281 
L 247.436357 137.136932 
L 245.062717 136.333469 
L 242.636201 135.785779 
L 240.150471 135.542383 
L 237.608174 135.609153 
L 235.016388 135.949001 
L 232.382196 136.52484 
L 229.712678 137.299584 
L 224.295987 139.297438 
L 216.083026 142.858831 
L 210.631712 145.176822 
L 207.934496 146.207675 
L 205.265682 147.103651 
L 202.63235 147.827663 
L 200.041582 148.342625 
L 197.500457 148.611449 
L 195.016058 148.597048 
L 192.595464 148.262336 
L 190.215 147.652757 
L 187.847858 146.847613 
L 185.496423 145.8606 
L 183.16308 144.705416 
L 180.850214 143.395757 
L 178.560209 141.945321 
L 174.058323 138.676904 
L 169.676501 135.009741 
L 165.433823 131.053408 
L 161.349366 126.917481 
L 155.561082 120.616549 
L 151.95565 116.511033 
L 150.281121 114.39962 
L 148.741879 112.105559 
L 147.320272 109.65639 
L 145.998649 107.079654 
L 143.584748 101.653638 
L 136.906898 85.178145 
L 135.69081 82.692607 
L 134.398191 80.354902 
L 133.011388 78.192572 
L 131.512751 76.233156 
L 129.884628 74.504195 
L 128.109368 73.033228 
L 126.169318 71.847795 
L 124.072201 70.949315 
L 121.844944 70.306251 
L 119.498701 69.896708 
L 117.044627 69.698795 
L 114.493878 69.690619 
L 111.857608 69.850288 
L 109.146972 70.155907 
L 103.547221 71.11743 
L 97.783865 72.400046 
L 83.245335 75.862001 
L 77.61212 76.889202 
L 74.879174 77.238607 
L 74.879174 77.238607 
" style="fill:none;stroke:#fea952;stroke-linecap:square;"/>
   </g>
   <g id="line2d_16">
    <path clip-path="url(#p30520f77ae)" d="M 376.723429 287.450012 
L 377.040015 265.659775 
L 377.764228 232.531128 
L 378.371705 226.318201 
L 379.256222 220.124547 
L 381.111027 208.233228 
L 381.742535 202.845654 
L 381.991394 198.105163 
L 381.950098 196.058019 
L 381.568037 192.77203 
L 380.959863 190.635175 
L 380.585391 189.856928 
L 379.994992 189.062459 
L 379.119322 188.234499 
L 377.932044 187.396979 
L 376.435352 186.579764 
L 374.649452 185.806876 
L 372.603262 185.09326 
L 370.328608 184.445552 
L 365.219645 183.344213 
L 359.558575 182.457665 
L 347.387379 180.975652 
L 341.214482 180.157112 
L 335.451354 179.164438 
L 330.550039 178.324777 
L 325.416078 177.72038 
L 317.354805 177.083877 
L 306.106301 176.268175 
L 300.332933 175.647369 
L 294.497083 174.733774 
L 291.565878 174.128444 
L 288.632716 173.402371 
L 285.704237 172.538888 
L 282.672952 171.473505 
L 279.646798 170.166498 
L 276.783126 168.666395 
L 274.064745 167.015636 
L 271.473421 165.251024 
L 266.605123 161.508407 
L 259.897733 155.793154 
L 253.736162 150.614886 
L 249.928059 147.808889 
L 248.131438 146.665157 
L 246.417459 145.712046 
L 244.790687 144.952927 
L 243.245943 144.38261 
L 241.832071 143.99813 
L 240.367113 143.791165 
L 238.680985 143.790743 
L 236.778595 144.010264 
L 234.682073 144.449479 
L 232.41889 145.094823 
L 227.493819 146.904224 
L 219.37592 150.424952 
L 213.577592 152.884683 
L 210.560692 154.030234 
L 207.453222 155.060033 
L 204.241037 155.920961 
L 200.909671 156.548462 
L 197.452628 156.862936 
L 193.885803 156.7709 
L 190.548475 156.256031 
L 187.557845 155.464854 
L 184.654183 154.456146 
L 181.835338 153.255584 
L 179.097194 151.885799 
L 176.434947 150.366751 
L 173.843904 148.716274 
L 171.319924 146.950621 
L 166.460389 143.133586 
L 161.838598 139.02932 
L 157.447961 134.746599 
L 153.290797 130.393421 
L 147.515295 123.971839 
L 145.490461 121.638475 
L 143.428987 118.997185 
L 141.605342 116.247923 
L 139.978085 113.42224 
L 138.510622 110.546467 
L 135.932691 104.741577 
L 129.494867 88.804595 
L 127.45233 84.809604 
L 126.457064 83.205572 
L 125.505418 81.890123 
L 123.806963 80.074439 
L 122.919713 79.432609 
L 121.783247 78.877116 
L 120.426056 78.434971 
L 118.835388 78.121631 
L 117.018178 77.950379 
L 114.992731 77.927153 
L 112.782107 78.049961 
L 107.899314 78.694845 
L 102.54131 79.768603 
L 93.90755 81.843738 
L 84.844096 83.957265 
L 78.658566 85.074205 
L 75.92562 85.42361 
L 75.92562 85.42361 
" style="fill:none;stroke:#ffffff;stroke-linecap:square;"/>
   </g>
   <g id="line2d_17">
    <path clip-path="url(#p30520f77ae)" d="M 393.225918 287.608789 
L 393.540259 265.974919 
L 394.21309 233.869886 
L 394.726744 228.525019 
L 395.554878 222.715138 
L 397.480289 210.331941 
L 398.206521 203.983424 
L 398.41873 200.79928 
L 398.487273 197.611864 
L 398.371917 194.420574 
L 398.022463 191.225148 
L 397.375938 188.03203 
L 396.357407 184.866211 
L 394.890665 181.787005 
L 392.964225 178.942634 
L 390.709851 176.510601 
L 388.229025 174.473298 
L 385.59135 172.778758 
L 382.837898 171.369085 
L 379.991727 170.192221 
L 377.067187 169.205191 
L 374.075718 168.373324 
L 367.939316 167.066598 
L 361.692634 166.092973 
L 349.445678 164.601259 
L 343.800425 163.857718 
L 338.467525 162.939147 
L 332.645381 161.955083 
L 326.890481 161.283121 
L 318.447242 160.616821 
L 307.70348 159.842391 
L 302.62948 159.304688 
L 297.801803 158.564786 
L 293.249984 157.558186 
L 289.104401 156.275025 
L 287.226163 155.50667 
L 285.296903 154.528751 
L 283.321035 153.352604 
L 281.304015 151.995204 
L 277.162234 148.823583 
L 270.679363 143.298603 
L 266.117727 139.409893 
L 261.260818 135.609989 
L 258.679746 133.817273 
L 255.969683 132.142097 
L 253.109558 130.626517 
L 250.082027 129.320938 
L 246.879492 128.284328 
L 243.44033 127.573428 
L 239.933829 127.293602 
L 236.535363 127.427563 
L 233.254181 127.887738 
L 230.082319 128.600201 
L 227.006466 129.504345 
L 224.014491 130.549352 
L 218.253861 132.887333 
L 207.685832 137.46896 
L 203.078142 139.14727 
L 201.023663 139.734366 
L 199.173492 140.136788 
L 197.548287 140.359961 
L 196.146313 140.423196 
L 194.642454 140.26864 
L 192.872156 139.84066 
L 191.041533 139.23908 
L 189.157509 138.465616 
L 187.228966 137.525033 
L 185.26548 136.424763 
L 181.270977 133.784988 
L 177.242034 130.639048 
L 173.234555 127.092423 
L 169.293288 123.25549 
L 165.45407 119.239402 
L 159.947573 113.11846 
L 157.133255 109.802055 
L 155.878415 107.963194 
L 154.662459 105.89054 
L 153.486675 103.61284 
L 151.236805 98.5657 
L 144.318928 81.551695 
L 142.912021 78.699682 
L 141.344051 75.900201 
L 139.565713 73.179572 
L 137.520085 70.576189 
L 135.149392 68.150329 
L 132.411772 65.992016 
L 129.418923 64.262981 
L 126.361155 63.021515 
L 123.263832 62.17753 
L 120.162014 61.671785 
L 117.071076 61.447211 
L 113.995025 61.454086 
L 110.933109 61.650614 
L 107.883831 62.001533 
L 101.82418 63.047705 
L 95.839042 64.380881 
L 81.646574 67.766737 
L 76.565673 68.704198 
L 73.832727 69.053603 
L 73.832727 69.053603 
" style="fill:none;stroke:#ffffff;stroke-linecap:square;"/>
   </g>
   <g id="patch_3">
    <path d="M 57.6 307.584 
L 57.6 41.472 
" style="fill:none;stroke:#000000;stroke-linecap:square;stroke-linejoin:miter;stroke-width:0.8;"/>
   </g>
   <g id="patch_4">
    <path d="M 414.72 307.584 
L 414.72 41.472 
" style="fill:none;stroke:#000000;stroke-linecap:square;stroke-linejoin:miter;stroke-width:0.8;"/>
   </g>
   <g id="patch_5">
    <path d="M 57.6 307.584 
L 414.72 307.584 
" style="fill:none;stroke:#000000;stroke-linecap:square;stroke-linejoin:miter;stroke-width:0.8;"/>
   </g>
   <g id="patch_6">
    <path d="M 57.6 41.472 
L 414.72 41.472 
" style="fill:none;stroke:#000000;stroke-linecap:square;stroke-linejoin:miter;stroke-width:0.8;"/>
   </g>
  </g>
 </g>
 <defs>
  <clipPath id="p30520f77ae">
   <rect height="266.112" width="357.12" x="57.6" y="41.472"/>
  </clipPath>
 </defs>
</svg>
