<?xml version="1.0" encoding="utf-8" standalone="no"?>
<!DOCTYPE svg PUBLIC "-//W3C//DTD SVG 1.1//EN"
  "http://www.w3.org/Graphics/SVG/1.1/DTD/svg11.dtd">
<!-- Created with matplotlib (https://matplotlib.org/) -->
<svg height="345.6pt" version="1.1" viewBox="0 0 460.8 345.6" width="460.8pt" xmlns="http://www.w3.org/2000/svg" xmlns:xlink="http://www.w3.org/1999/xlink">
 <metadata>
  <rdf:RDF xmlns:cc="http://creativecommons.org/ns#" xmlns:dc="http://purl.org/dc/elements/1.1/" xmlns:rdf="http://www.w3.org/1999/02/22-rdf-syntax-ns#">
   <cc:Work>
    <dc:type rdf:resource="http://purl.org/dc/dcmitype/StillImage"/>
    <dc:date>2021-06-04T08:48:38.309334</dc:date>
    <dc:format>image/svg+xml</dc:format>
    <dc:creator>
     <cc:Agent>
      <dc:title>Matplotlib v3.3.3, https://matplotlib.org/</dc:title>
     </cc:Agent>
    </dc:creator>
   </cc:Work>
  </rdf:RDF>
 </metadata>
 <defs>
  <style type="text/css">*{stroke-linecap:butt;stroke-linejoin:round;}</style>
 </defs>
 <g id="figure_1">
  <g id="patch_1">
   <path d="M 0 345.6 
L 460.8 345.6 
L 460.8 0 
L 0 0 
z
" style="fill:#ffffff;"/>
  </g>
  <g id="axes_1">
   <g id="patch_2">
    <path d="M 57.6 307.584 
L 414.72 307.584 
L 414.72 41.472 
L 57.6 41.472 
z
" style="fill:#7d9051;"/>
   </g>
   <g id="matplotlib.axis_1">
    <g id="xtick_1">
     <g id="line2d_1">
      <defs>
       <path d="M 0 0 
L 0 3.5 
" id="m20c7db5f90" style="stroke:#000000;stroke-width:0.8;"/>
      </defs>
      <g>
       <use style="stroke:#000000;stroke-width:0.8;" x="71.749549" xlink:href="#m20c7db5f90" y="307.584"/>
      </g>
     </g>
     <g id="text_1">
      <!-- −100 -->
      <g transform="translate(58.015955 322.182437)scale(0.1 -0.1)">
       <defs>
        <path d="M 10.59375 35.5 
L 73.1875 35.5 
L 73.1875 27.203125 
L 10.59375 27.203125 
z
" id="DejaVuSans-8722"/>
        <path d="M 12.40625 8.296875 
L 28.515625 8.296875 
L 28.515625 63.921875 
L 10.984375 60.40625 
L 10.984375 69.390625 
L 28.421875 72.90625 
L 38.28125 72.90625 
L 38.28125 8.296875 
L 54.390625 8.296875 
L 54.390625 0 
L 12.40625 0 
z
" id="DejaVuSans-49"/>
        <path d="M 31.78125 66.40625 
Q 24.171875 66.40625 20.328125 58.90625 
Q 16.5 51.421875 16.5 36.375 
Q 16.5 21.390625 20.328125 13.890625 
Q 24.171875 6.390625 31.78125 6.390625 
Q 39.453125 6.390625 43.28125 13.890625 
Q 47.125 21.390625 47.125 36.375 
Q 47.125 51.421875 43.28125 58.90625 
Q 39.453125 66.40625 31.78125 66.40625 
z
M 31.78125 74.21875 
Q 44.046875 74.21875 50.515625 64.515625 
Q 56.984375 54.828125 56.984375 36.375 
Q 56.984375 17.96875 50.515625 8.265625 
Q 44.046875 -1.421875 31.78125 -1.421875 
Q 19.53125 -1.421875 13.0625 8.265625 
Q 6.59375 17.96875 6.59375 36.375 
Q 6.59375 54.828125 13.0625 64.515625 
Q 19.53125 74.21875 31.78125 74.21875 
z
" id="DejaVuSans-48"/>
       </defs>
       <use xlink:href="#DejaVuSans-8722"/>
       <use x="83.789062" xlink:href="#DejaVuSans-49"/>
       <use x="147.412109" xlink:href="#DejaVuSans-48"/>
       <use x="211.035156" xlink:href="#DejaVuSans-48"/>
      </g>
     </g>
    </g>
    <g id="xtick_2">
     <g id="line2d_2">
      <g>
       <use style="stroke:#000000;stroke-width:0.8;" x="137.276333" xlink:href="#m20c7db5f90" y="307.584"/>
      </g>
     </g>
     <g id="text_2">
      <!-- −50 -->
      <g transform="translate(126.723989 322.182437)scale(0.1 -0.1)">
       <defs>
        <path d="M 10.796875 72.90625 
L 49.515625 72.90625 
L 49.515625 64.59375 
L 19.828125 64.59375 
L 19.828125 46.734375 
Q 21.96875 47.46875 24.109375 47.828125 
Q 26.265625 48.1875 28.421875 48.1875 
Q 40.625 48.1875 47.75 41.5 
Q 54.890625 34.8125 54.890625 23.390625 
Q 54.890625 11.625 47.5625 5.09375 
Q 40.234375 -1.421875 26.90625 -1.421875 
Q 22.3125 -1.421875 17.546875 -0.640625 
Q 12.796875 0.140625 7.71875 1.703125 
L 7.71875 11.625 
Q 12.109375 9.234375 16.796875 8.0625 
Q 21.484375 6.890625 26.703125 6.890625 
Q 35.15625 6.890625 40.078125 11.328125 
Q 45.015625 15.765625 45.015625 23.390625 
Q 45.015625 31 40.078125 35.4375 
Q 35.15625 39.890625 26.703125 39.890625 
Q 22.75 39.890625 18.8125 39.015625 
Q 14.890625 38.140625 10.796875 36.28125 
z
" id="DejaVuSans-53"/>
       </defs>
       <use xlink:href="#DejaVuSans-8722"/>
       <use x="83.789062" xlink:href="#DejaVuSans-53"/>
       <use x="147.412109" xlink:href="#DejaVuSans-48"/>
      </g>
     </g>
    </g>
    <g id="xtick_3">
     <g id="line2d_3">
      <g>
       <use style="stroke:#000000;stroke-width:0.8;" x="202.803117" xlink:href="#m20c7db5f90" y="307.584"/>
      </g>
     </g>
     <g id="text_3">
      <!-- 0 -->
      <g transform="translate(199.621867 322.182437)scale(0.1 -0.1)">
       <use xlink:href="#DejaVuSans-48"/>
      </g>
     </g>
    </g>
    <g id="xtick_4">
     <g id="line2d_4">
      <g>
       <use style="stroke:#000000;stroke-width:0.8;" x="268.329901" xlink:href="#m20c7db5f90" y="307.584"/>
      </g>
     </g>
     <g id="text_4">
      <!-- 50 -->
      <g transform="translate(261.967401 322.182437)scale(0.1 -0.1)">
       <use xlink:href="#DejaVuSans-53"/>
       <use x="63.623047" xlink:href="#DejaVuSans-48"/>
      </g>
     </g>
    </g>
    <g id="xtick_5">
     <g id="line2d_5">
      <g>
       <use style="stroke:#000000;stroke-width:0.8;" x="333.856685" xlink:href="#m20c7db5f90" y="307.584"/>
      </g>
     </g>
     <g id="text_5">
      <!-- 100 -->
      <g transform="translate(324.312935 322.182437)scale(0.1 -0.1)">
       <use xlink:href="#DejaVuSans-49"/>
       <use x="63.623047" xlink:href="#DejaVuSans-48"/>
       <use x="127.246094" xlink:href="#DejaVuSans-48"/>
      </g>
     </g>
    </g>
    <g id="xtick_6">
     <g id="line2d_6">
      <g>
       <use style="stroke:#000000;stroke-width:0.8;" x="399.383469" xlink:href="#m20c7db5f90" y="307.584"/>
      </g>
     </g>
     <g id="text_6">
      <!-- 150 -->
      <g transform="translate(389.839719 322.182437)scale(0.1 -0.1)">
       <use xlink:href="#DejaVuSans-49"/>
       <use x="63.623047" xlink:href="#DejaVuSans-53"/>
       <use x="127.246094" xlink:href="#DejaVuSans-48"/>
      </g>
     </g>
    </g>
   </g>
   <g id="matplotlib.axis_2">
    <g id="ytick_1">
     <g id="line2d_7">
      <defs>
       <path d="M 0 0 
L -3.5 0 
" id="m76b1ef918c" style="stroke:#000000;stroke-width:0.8;"/>
      </defs>
      <g>
       <use style="stroke:#000000;stroke-width:0.8;" x="57.6" xlink:href="#m76b1ef918c" y="295.437566"/>
      </g>
     </g>
     <g id="text_7">
      <!-- 0 -->
      <g transform="translate(44.2375 299.236784)scale(0.1 -0.1)">
       <use xlink:href="#DejaVuSans-48"/>
      </g>
     </g>
    </g>
    <g id="ytick_2">
     <g id="line2d_8">
      <g>
       <use style="stroke:#000000;stroke-width:0.8;" x="57.6" xlink:href="#m76b1ef918c" y="262.674174"/>
      </g>
     </g>
     <g id="text_8">
      <!-- 25 -->
      <g transform="translate(37.875 266.473392)scale(0.1 -0.1)">
       <defs>
        <path d="M 19.1875 8.296875 
L 53.609375 8.296875 
L 53.609375 0 
L 7.328125 0 
L 7.328125 8.296875 
Q 12.9375 14.109375 22.625 23.890625 
Q 32.328125 33.6875 34.8125 36.53125 
Q 39.546875 41.84375 41.421875 45.53125 
Q 43.3125 49.21875 43.3125 52.78125 
Q 43.3125 58.59375 39.234375 62.25 
Q 35.15625 65.921875 28.609375 65.921875 
Q 23.96875 65.921875 18.8125 64.3125 
Q 13.671875 62.703125 7.8125 59.421875 
L 7.8125 69.390625 
Q 13.765625 71.78125 18.9375 73 
Q 24.125 74.21875 28.421875 74.21875 
Q 39.75 74.21875 46.484375 68.546875 
Q 53.21875 62.890625 53.21875 53.421875 
Q 53.21875 48.921875 51.53125 44.890625 
Q 49.859375 40.875 45.40625 35.40625 
Q 44.1875 33.984375 37.640625 27.21875 
Q 31.109375 20.453125 19.1875 8.296875 
z
" id="DejaVuSans-50"/>
       </defs>
       <use xlink:href="#DejaVuSans-50"/>
       <use x="63.623047" xlink:href="#DejaVuSans-53"/>
      </g>
     </g>
    </g>
    <g id="ytick_3">
     <g id="line2d_9">
      <g>
       <use style="stroke:#000000;stroke-width:0.8;" x="57.6" xlink:href="#m76b1ef918c" y="229.910782"/>
      </g>
     </g>
     <g id="text_9">
      <!-- 50 -->
      <g transform="translate(37.875 233.71)scale(0.1 -0.1)">
       <use xlink:href="#DejaVuSans-53"/>
       <use x="63.623047" xlink:href="#DejaVuSans-48"/>
      </g>
     </g>
    </g>
    <g id="ytick_4">
     <g id="line2d_10">
      <g>
       <use style="stroke:#000000;stroke-width:0.8;" x="57.6" xlink:href="#m76b1ef918c" y="197.14739"/>
      </g>
     </g>
     <g id="text_10">
      <!-- 75 -->
      <g transform="translate(37.875 200.946609)scale(0.1 -0.1)">
       <defs>
        <path d="M 8.203125 72.90625 
L 55.078125 72.90625 
L 55.078125 68.703125 
L 28.609375 0 
L 18.3125 0 
L 43.21875 64.59375 
L 8.203125 64.59375 
z
" id="DejaVuSans-55"/>
       </defs>
       <use xlink:href="#DejaVuSans-55"/>
       <use x="63.623047" xlink:href="#DejaVuSans-53"/>
      </g>
     </g>
    </g>
    <g id="ytick_5">
     <g id="line2d_11">
      <g>
       <use style="stroke:#000000;stroke-width:0.8;" x="57.6" xlink:href="#m76b1ef918c" y="164.383998"/>
      </g>
     </g>
     <g id="text_11">
      <!-- 100 -->
      <g transform="translate(31.5125 168.183217)scale(0.1 -0.1)">
       <use xlink:href="#DejaVuSans-49"/>
       <use x="63.623047" xlink:href="#DejaVuSans-48"/>
       <use x="127.246094" xlink:href="#DejaVuSans-48"/>
      </g>
     </g>
    </g>
    <g id="ytick_6">
     <g id="line2d_12">
      <g>
       <use style="stroke:#000000;stroke-width:0.8;" x="57.6" xlink:href="#m76b1ef918c" y="131.620606"/>
      </g>
     </g>
     <g id="text_12">
      <!-- 125 -->
      <g transform="translate(31.5125 135.419825)scale(0.1 -0.1)">
       <use xlink:href="#DejaVuSans-49"/>
       <use x="63.623047" xlink:href="#DejaVuSans-50"/>
       <use x="127.246094" xlink:href="#DejaVuSans-53"/>
      </g>
     </g>
    </g>
    <g id="ytick_7">
     <g id="line2d_13">
      <g>
       <use style="stroke:#000000;stroke-width:0.8;" x="57.6" xlink:href="#m76b1ef918c" y="98.857214"/>
      </g>
     </g>
     <g id="text_13">
      <!-- 150 -->
      <g transform="translate(31.5125 102.656433)scale(0.1 -0.1)">
       <use xlink:href="#DejaVuSans-49"/>
       <use x="63.623047" xlink:href="#DejaVuSans-53"/>
       <use x="127.246094" xlink:href="#DejaVuSans-48"/>
      </g>
     </g>
    </g>
    <g id="ytick_8">
     <g id="line2d_14">
      <g>
       <use style="stroke:#000000;stroke-width:0.8;" x="57.6" xlink:href="#m76b1ef918c" y="66.093822"/>
      </g>
     </g>
     <g id="text_14">
      <!-- 175 -->
      <g transform="translate(31.5125 69.893041)scale(0.1 -0.1)">
       <use xlink:href="#DejaVuSans-49"/>
       <use x="63.623047" xlink:href="#DejaVuSans-55"/>
       <use x="127.246094" xlink:href="#DejaVuSans-53"/>
      </g>
     </g>
    </g>
   </g>
   <g id="line2d_15">
    <path clip-path="url(#p8e17259716)" d="M 202.803117 295.437566 
L 203.070301 278.196007 
L 203.371885 260.938521 
L 203.200189 257.374654 
L 202.503446 250.070747 
L 202.019537 244.612085 
L 201.880967 241.064735 
L 201.992687 237.642174 
L 202.443034 234.388446 
L 202.822797 232.838658 
L 203.320344 231.347595 
L 203.946717 229.920762 
L 204.750618 228.577698 
L 205.756842 227.327078 
L 206.940565 226.158105 
L 208.276965 225.059984 
L 211.308503 223.033118 
L 214.652874 221.160116 
L 221.485781 217.530255 
L 224.577152 215.600671 
L 225.954687 214.569432 
L 227.187024 213.479501 
L 228.249341 212.320083 
L 229.116815 211.080382 
L 229.764622 209.749604 
L 230.161228 208.308726 
L 230.311525 206.755749 
L 230.24533 205.105409 
L 229.992464 203.372443 
L 229.582743 201.571589 
L 228.412014 197.825162 
L 224.236449 186.489186 
L 223.756873 184.740492 
L 223.418628 183.071278 
L 223.251531 181.496282 
L 223.285401 180.030239 
L 223.550058 178.687886 
L 224.075319 177.483961 
L 224.883368 176.441308 
L 225.956119 175.560228 
L 227.262985 174.821645 
L 228.77338 174.206482 
L 230.456716 173.695662 
L 234.219867 172.910744 
L 240.396987 172.039024 
L 244.513151 171.439085 
L 248.342304 170.646064 
L 250.072785 170.129455 
L 251.639754 169.507346 
L 253.012623 168.760659 
L 254.160805 167.870317 
L 255.053714 166.817244 
L 255.736257 165.612136 
L 256.27961 164.28592 
L 256.692595 162.84987 
L 256.984033 161.315257 
L 257.162745 159.693353 
L 257.217275 156.232764 
L 256.926753 152.55828 
L 256.361747 148.760079 
L 255.592826 144.928339 
L 254.211472 139.315107 
L 252.768256 134.133662 
L 252.238893 132.526516 
L 250.839812 129.388532 
L 249.089824 126.332247 
L 246.077002 121.848386 
L 241.984205 115.931348 
L 240.183192 112.945043 
L 238.710408 109.908141 
L 238.13569 108.3632 
L 237.689334 106.79659 
L 237.386775 105.205304 
L 237.057771 101.878183 
L 236.973259 98.362661 
L 237.133893 94.729741 
L 237.540327 91.050426 
L 238.193217 87.395721 
L 239.093218 83.836628 
L 240.240983 80.444152 
L 241.637169 77.289296 
L 243.282429 74.443064 
L 244.198667 73.157871 
L 245.206513 71.969408 
L 246.328561 70.868577 
L 247.555024 69.847865 
L 250.282036 68.016756 
L 253.309239 66.415991 
L 256.558321 64.985481 
L 261.676666 63.027496 
L 268.546806 60.451901 
L 271.825255 59.043925 
L 273.391063 58.283602 
L 273.391063 58.283602 
" style="fill:none;stroke:#fea952;stroke-linecap:square;"/>
   </g>
   <g id="line2d_16">
    <path clip-path="url(#p8e17259716)" d="M 197.561217 295.387131 
L 197.829209 278.09109 
L 198.132947 261.121805 
L 197.97511 257.797283 
L 197.287413 250.593293 
L 196.784798 244.890594 
L 196.639143 241.006994 
L 196.780531 237.082273 
L 197.002287 235.111291 
L 197.351524 233.14081 
L 197.850191 231.179369 
L 198.520356 229.240425 
L 199.448758 227.228472 
L 200.666333 225.291565 
L 202.073399 223.597157 
L 203.612512 222.107905 
L 205.245196 220.783486 
L 208.686789 218.49366 
L 212.2185 216.517499 
L 218.809206 213.022927 
L 221.435596 211.404162 
L 223.321955 209.938131 
L 224.403456 208.785974 
L 224.710447 208.358427 
L 224.943464 207.803752 
L 225.073594 206.965839 
L 225.058118 205.862304 
L 224.880945 204.535389 
L 224.075354 201.382777 
L 222.816679 197.787675 
L 219.843474 189.927174 
L 218.619152 185.781588 
L 218.20574 183.624331 
L 218.010787 181.375202 
L 218.142267 179.016225 
L 218.745299 176.591616 
L 219.931836 174.272791 
L 221.556218 172.390366 
L 223.376897 170.996493 
L 225.285645 169.966731 
L 227.25116 169.190217 
L 229.266716 168.590374 
L 233.418524 167.730213 
L 239.684 166.845594 
L 245.299716 165.968451 
L 248.138447 165.257249 
L 250.162487 164.480109 
L 250.492362 164.233811 
L 250.885447 163.624749 
L 251.24166 162.837087 
L 251.542501 161.871817 
L 251.925683 159.462619 
L 251.984129 156.539756 
L 251.730847 153.252992 
L 251.211291 149.736226 
L 250.485136 146.107985 
L 249.152422 140.68845 
L 247.38845 134.514797 
L 246.23847 131.900048 
L 244.680889 129.167975 
L 241.796212 124.874091 
L 237.543725 118.717421 
L 235.531788 115.362584 
L 234.618593 113.587746 
L 233.797209 111.735852 
L 233.094186 109.799618 
L 232.539452 107.775762 
L 232.181505 105.82597 
L 231.820225 102.097664 
L 231.733094 98.218668 
L 231.914665 94.240123 
L 232.364914 90.216666 
L 233.088215 86.2045 
L 234.093767 82.260065 
L 235.397308 78.439441 
L 237.024242 74.799122 
L 237.970629 73.065205 
L 239.013963 71.399997 
L 240.200578 69.767392 
L 241.535306 68.227444 
L 242.975223 66.839286 
L 244.498558 65.588983 
L 246.088018 64.460551 
L 249.413246 62.505327 
L 252.866503 60.856167 
L 258.134076 58.747926 
L 268.075375 54.975115 
L 271.101269 53.568 
L 271.101269 53.568 
" style="fill:none;stroke:#ffffff;stroke-linecap:square;"/>
   </g>
   <g id="line2d_17">
    <path clip-path="url(#p8e17259716)" d="M 208.045017 295.488 
L 208.311394 278.300924 
L 208.610823 260.755237 
L 208.425267 256.952026 
L 207.71948 249.5482 
L 207.254276 244.333577 
L 207.122792 241.122475 
L 207.204843 238.202074 
L 207.534543 235.636082 
L 208.120333 233.454766 
L 208.834904 231.863831 
L 209.440285 231.056999 
L 210.268618 230.208305 
L 211.308734 229.336482 
L 213.930218 227.572575 
L 217.087248 225.802732 
L 224.162357 222.037582 
L 227.718709 219.797179 
L 229.427612 218.496116 
L 231.052094 217.02087 
L 232.544388 215.325517 
L 233.830174 213.37479 
L 234.818797 211.14078 
L 235.378992 208.813699 
L 235.549456 206.545658 
L 235.432543 204.348514 
L 235.103982 202.209498 
L 234.618107 200.113793 
L 233.334731 196.023243 
L 228.894594 183.699396 
L 228.492275 181.617361 
L 228.354817 180.784156 
L 228.218801 180.695131 
L 228.210518 180.49225 
L 228.53534 180.123963 
L 229.240325 179.676558 
L 230.2956 179.222746 
L 231.646717 178.800949 
L 235.021211 178.091276 
L 241.109974 177.232453 
L 245.464671 176.594148 
L 249.841869 175.669147 
L 252.007123 175.001662 
L 254.144404 174.112429 
L 256.224938 172.903253 
L 258.159123 171.260525 
L 259.615067 169.400677 
L 260.587067 167.599522 
L 261.31756 165.734754 
L 261.842689 163.827923 
L 262.19464 161.889396 
L 262.399807 159.924087 
L 262.450421 155.925773 
L 262.122658 151.863568 
L 261.512203 147.783932 
L 260.700516 143.748692 
L 259.270523 137.941764 
L 257.747262 132.493674 
L 257.089336 130.538236 
L 256.312546 128.668433 
L 254.496744 125.155753 
L 252.465115 121.891937 
L 248.303455 115.912204 
L 245.587145 111.816633 
L 244.177515 109.281094 
L 243.177194 106.926783 
L 242.839216 105.817418 
L 242.417529 103.155817 
L 242.226943 100.105154 
L 242.255383 96.874395 
L 242.506655 93.552375 
L 242.979864 90.22548 
L 243.669667 86.979268 
L 244.565204 83.899471 
L 245.647695 81.072045 
L 246.886619 78.581124 
L 248.196756 76.548349 
L 249.6819 74.897868 
L 251.664206 73.338973 
L 254.11277 71.877345 
L 256.955376 70.510252 
L 261.76787 68.582344 
L 270.552737 65.295072 
L 274.115049 63.759527 
L 275.680857 62.999204 
L 275.680857 62.999204 
" style="fill:none;stroke:#ffffff;stroke-linecap:square;"/>
   </g>
   <g id="patch_3">
    <path d="M 57.6 307.584 
L 57.6 41.472 
" style="fill:none;stroke:#000000;stroke-linecap:square;stroke-linejoin:miter;stroke-width:0.8;"/>
   </g>
   <g id="patch_4">
    <path d="M 414.72 307.584 
L 414.72 41.472 
" style="fill:none;stroke:#000000;stroke-linecap:square;stroke-linejoin:miter;stroke-width:0.8;"/>
   </g>
   <g id="patch_5">
    <path d="M 57.6 307.584 
L 414.72 307.584 
" style="fill:none;stroke:#000000;stroke-linecap:square;stroke-linejoin:miter;stroke-width:0.8;"/>
   </g>
   <g id="patch_6">
    <path d="M 57.6 41.472 
L 414.72 41.472 
" style="fill:none;stroke:#000000;stroke-linecap:square;stroke-linejoin:miter;stroke-width:0.8;"/>
   </g>
  </g>
 </g>
 <defs>
  <clipPath id="p8e17259716">
   <rect height="266.112" width="357.12" x="57.6" y="41.472"/>
  </clipPath>
 </defs>
</svg>
