<?xml version="1.0" encoding="utf-8" standalone="no"?>
<!DOCTYPE svg PUBLIC "-//W3C//DTD SVG 1.1//EN"
  "http://www.w3.org/Graphics/SVG/1.1/DTD/svg11.dtd">
<!-- Created with matplotlib (https://matplotlib.org/) -->
<svg height="345.6pt" version="1.1" viewBox="0 0 460.8 345.6" width="460.8pt" xmlns="http://www.w3.org/2000/svg" xmlns:xlink="http://www.w3.org/1999/xlink">
 <metadata>
  <rdf:RDF xmlns:cc="http://creativecommons.org/ns#" xmlns:dc="http://purl.org/dc/elements/1.1/" xmlns:rdf="http://www.w3.org/1999/02/22-rdf-syntax-ns#">
   <cc:Work>
    <dc:type rdf:resource="http://purl.org/dc/dcmitype/StillImage"/>
    <dc:date>2021-06-14T10:38:50.019394</dc:date>
    <dc:format>image/svg+xml</dc:format>
    <dc:creator>
     <cc:Agent>
      <dc:title>Matplotlib v3.3.3, https://matplotlib.org/</dc:title>
     </cc:Agent>
    </dc:creator>
   </cc:Work>
  </rdf:RDF>
 </metadata>
 <defs>
  <style type="text/css">*{stroke-linecap:butt;stroke-linejoin:round;}</style>
 </defs>
 <g id="figure_1">
  <g id="patch_1">
   <path d="M 0 345.6 
L 460.8 345.6 
L 460.8 0 
L 0 0 
z
" style="fill:#ffffff;"/>
  </g>
  <g id="axes_1">
   <g id="patch_2">
    <path d="M 57.6 307.584 
L 414.72 307.584 
L 414.72 41.472 
L 57.6 41.472 
z
" style="fill:#7d9051;"/>
   </g>
   <g id="matplotlib.axis_1">
    <g id="xtick_1">
     <g id="line2d_1">
      <defs>
       <path d="M 0 0 
L 0 3.5 
" id="md4310abbfa" style="stroke:#000000;stroke-width:0.8;"/>
      </defs>
      <g>
       <use style="stroke:#000000;stroke-width:0.8;" x="85.114666" xlink:href="#md4310abbfa" y="307.584"/>
      </g>
     </g>
     <g id="text_1">
      <!-- 0 -->
      <g transform="translate(81.933416 322.182437)scale(0.1 -0.1)">
       <defs>
        <path d="M 31.78125 66.40625 
Q 24.171875 66.40625 20.328125 58.90625 
Q 16.5 51.421875 16.5 36.375 
Q 16.5 21.390625 20.328125 13.890625 
Q 24.171875 6.390625 31.78125 6.390625 
Q 39.453125 6.390625 43.28125 13.890625 
Q 47.125 21.390625 47.125 36.375 
Q 47.125 51.421875 43.28125 58.90625 
Q 39.453125 66.40625 31.78125 66.40625 
z
M 31.78125 74.21875 
Q 44.046875 74.21875 50.515625 64.515625 
Q 56.984375 54.828125 56.984375 36.375 
Q 56.984375 17.96875 50.515625 8.265625 
Q 44.046875 -1.421875 31.78125 -1.421875 
Q 19.53125 -1.421875 13.0625 8.265625 
Q 6.59375 17.96875 6.59375 36.375 
Q 6.59375 54.828125 13.0625 64.515625 
Q 19.53125 74.21875 31.78125 74.21875 
z
" id="DejaVuSans-48"/>
       </defs>
       <use xlink:href="#DejaVuSans-48"/>
      </g>
     </g>
    </g>
    <g id="xtick_2">
     <g id="line2d_2">
      <g>
       <use style="stroke:#000000;stroke-width:0.8;" x="133.720526" xlink:href="#md4310abbfa" y="307.584"/>
      </g>
     </g>
     <g id="text_2">
      <!-- 20 -->
      <g transform="translate(127.358026 322.182437)scale(0.1 -0.1)">
       <defs>
        <path d="M 19.1875 8.296875 
L 53.609375 8.296875 
L 53.609375 0 
L 7.328125 0 
L 7.328125 8.296875 
Q 12.9375 14.109375 22.625 23.890625 
Q 32.328125 33.6875 34.8125 36.53125 
Q 39.546875 41.84375 41.421875 45.53125 
Q 43.3125 49.21875 43.3125 52.78125 
Q 43.3125 58.59375 39.234375 62.25 
Q 35.15625 65.921875 28.609375 65.921875 
Q 23.96875 65.921875 18.8125 64.3125 
Q 13.671875 62.703125 7.8125 59.421875 
L 7.8125 69.390625 
Q 13.765625 71.78125 18.9375 73 
Q 24.125 74.21875 28.421875 74.21875 
Q 39.75 74.21875 46.484375 68.546875 
Q 53.21875 62.890625 53.21875 53.421875 
Q 53.21875 48.921875 51.53125 44.890625 
Q 49.859375 40.875 45.40625 35.40625 
Q 44.1875 33.984375 37.640625 27.21875 
Q 31.109375 20.453125 19.1875 8.296875 
z
" id="DejaVuSans-50"/>
       </defs>
       <use xlink:href="#DejaVuSans-50"/>
       <use x="63.623047" xlink:href="#DejaVuSans-48"/>
      </g>
     </g>
    </g>
    <g id="xtick_3">
     <g id="line2d_3">
      <g>
       <use style="stroke:#000000;stroke-width:0.8;" x="182.326385" xlink:href="#md4310abbfa" y="307.584"/>
      </g>
     </g>
     <g id="text_3">
      <!-- 40 -->
      <g transform="translate(175.963885 322.182437)scale(0.1 -0.1)">
       <defs>
        <path d="M 37.796875 64.3125 
L 12.890625 25.390625 
L 37.796875 25.390625 
z
M 35.203125 72.90625 
L 47.609375 72.90625 
L 47.609375 25.390625 
L 58.015625 25.390625 
L 58.015625 17.1875 
L 47.609375 17.1875 
L 47.609375 0 
L 37.796875 0 
L 37.796875 17.1875 
L 4.890625 17.1875 
L 4.890625 26.703125 
z
" id="DejaVuSans-52"/>
       </defs>
       <use xlink:href="#DejaVuSans-52"/>
       <use x="63.623047" xlink:href="#DejaVuSans-48"/>
      </g>
     </g>
    </g>
    <g id="xtick_4">
     <g id="line2d_4">
      <g>
       <use style="stroke:#000000;stroke-width:0.8;" x="230.932244" xlink:href="#md4310abbfa" y="307.584"/>
      </g>
     </g>
     <g id="text_4">
      <!-- 60 -->
      <g transform="translate(224.569744 322.182437)scale(0.1 -0.1)">
       <defs>
        <path d="M 33.015625 40.375 
Q 26.375 40.375 22.484375 35.828125 
Q 18.609375 31.296875 18.609375 23.390625 
Q 18.609375 15.53125 22.484375 10.953125 
Q 26.375 6.390625 33.015625 6.390625 
Q 39.65625 6.390625 43.53125 10.953125 
Q 47.40625 15.53125 47.40625 23.390625 
Q 47.40625 31.296875 43.53125 35.828125 
Q 39.65625 40.375 33.015625 40.375 
z
M 52.59375 71.296875 
L 52.59375 62.3125 
Q 48.875 64.0625 45.09375 64.984375 
Q 41.3125 65.921875 37.59375 65.921875 
Q 27.828125 65.921875 22.671875 59.328125 
Q 17.53125 52.734375 16.796875 39.40625 
Q 19.671875 43.65625 24.015625 45.921875 
Q 28.375 48.1875 33.59375 48.1875 
Q 44.578125 48.1875 50.953125 41.515625 
Q 57.328125 34.859375 57.328125 23.390625 
Q 57.328125 12.15625 50.6875 5.359375 
Q 44.046875 -1.421875 33.015625 -1.421875 
Q 20.359375 -1.421875 13.671875 8.265625 
Q 6.984375 17.96875 6.984375 36.375 
Q 6.984375 53.65625 15.1875 63.9375 
Q 23.390625 74.21875 37.203125 74.21875 
Q 40.921875 74.21875 44.703125 73.484375 
Q 48.484375 72.75 52.59375 71.296875 
z
" id="DejaVuSans-54"/>
       </defs>
       <use xlink:href="#DejaVuSans-54"/>
       <use x="63.623047" xlink:href="#DejaVuSans-48"/>
      </g>
     </g>
    </g>
    <g id="xtick_5">
     <g id="line2d_5">
      <g>
       <use style="stroke:#000000;stroke-width:0.8;" x="279.538104" xlink:href="#md4310abbfa" y="307.584"/>
      </g>
     </g>
     <g id="text_5">
      <!-- 80 -->
      <g transform="translate(273.175604 322.182437)scale(0.1 -0.1)">
       <defs>
        <path d="M 31.78125 34.625 
Q 24.75 34.625 20.71875 30.859375 
Q 16.703125 27.09375 16.703125 20.515625 
Q 16.703125 13.921875 20.71875 10.15625 
Q 24.75 6.390625 31.78125 6.390625 
Q 38.8125 6.390625 42.859375 10.171875 
Q 46.921875 13.96875 46.921875 20.515625 
Q 46.921875 27.09375 42.890625 30.859375 
Q 38.875 34.625 31.78125 34.625 
z
M 21.921875 38.8125 
Q 15.578125 40.375 12.03125 44.71875 
Q 8.5 49.078125 8.5 55.328125 
Q 8.5 64.0625 14.71875 69.140625 
Q 20.953125 74.21875 31.78125 74.21875 
Q 42.671875 74.21875 48.875 69.140625 
Q 55.078125 64.0625 55.078125 55.328125 
Q 55.078125 49.078125 51.53125 44.71875 
Q 48 40.375 41.703125 38.8125 
Q 48.828125 37.15625 52.796875 32.3125 
Q 56.78125 27.484375 56.78125 20.515625 
Q 56.78125 9.90625 50.3125 4.234375 
Q 43.84375 -1.421875 31.78125 -1.421875 
Q 19.734375 -1.421875 13.25 4.234375 
Q 6.78125 9.90625 6.78125 20.515625 
Q 6.78125 27.484375 10.78125 32.3125 
Q 14.796875 37.15625 21.921875 38.8125 
z
M 18.3125 54.390625 
Q 18.3125 48.734375 21.84375 45.5625 
Q 25.390625 42.390625 31.78125 42.390625 
Q 38.140625 42.390625 41.71875 45.5625 
Q 45.3125 48.734375 45.3125 54.390625 
Q 45.3125 60.0625 41.71875 63.234375 
Q 38.140625 66.40625 31.78125 66.40625 
Q 25.390625 66.40625 21.84375 63.234375 
Q 18.3125 60.0625 18.3125 54.390625 
z
" id="DejaVuSans-56"/>
       </defs>
       <use xlink:href="#DejaVuSans-56"/>
       <use x="63.623047" xlink:href="#DejaVuSans-48"/>
      </g>
     </g>
    </g>
    <g id="xtick_6">
     <g id="line2d_6">
      <g>
       <use style="stroke:#000000;stroke-width:0.8;" x="328.143963" xlink:href="#md4310abbfa" y="307.584"/>
      </g>
     </g>
     <g id="text_6">
      <!-- 100 -->
      <g transform="translate(318.600213 322.182437)scale(0.1 -0.1)">
       <defs>
        <path d="M 12.40625 8.296875 
L 28.515625 8.296875 
L 28.515625 63.921875 
L 10.984375 60.40625 
L 10.984375 69.390625 
L 28.421875 72.90625 
L 38.28125 72.90625 
L 38.28125 8.296875 
L 54.390625 8.296875 
L 54.390625 0 
L 12.40625 0 
z
" id="DejaVuSans-49"/>
       </defs>
       <use xlink:href="#DejaVuSans-49"/>
       <use x="63.623047" xlink:href="#DejaVuSans-48"/>
       <use x="127.246094" xlink:href="#DejaVuSans-48"/>
      </g>
     </g>
    </g>
    <g id="xtick_7">
     <g id="line2d_7">
      <g>
       <use style="stroke:#000000;stroke-width:0.8;" x="376.749822" xlink:href="#md4310abbfa" y="307.584"/>
      </g>
     </g>
     <g id="text_7">
      <!-- 120 -->
      <g transform="translate(367.206072 322.182437)scale(0.1 -0.1)">
       <use xlink:href="#DejaVuSans-49"/>
       <use x="63.623047" xlink:href="#DejaVuSans-50"/>
       <use x="127.246094" xlink:href="#DejaVuSans-48"/>
      </g>
     </g>
    </g>
   </g>
   <g id="matplotlib.axis_2">
    <g id="ytick_1">
     <g id="line2d_8">
      <defs>
       <path d="M 0 0 
L -3.5 0 
" id="ma5f328dcbc" style="stroke:#000000;stroke-width:0.8;"/>
      </defs>
      <g>
       <use style="stroke:#000000;stroke-width:0.8;" x="57.6" xlink:href="#ma5f328dcbc" y="262.629983"/>
      </g>
     </g>
     <g id="text_8">
      <!-- 0 -->
      <g transform="translate(44.2375 266.429201)scale(0.1 -0.1)">
       <use xlink:href="#DejaVuSans-48"/>
      </g>
     </g>
    </g>
    <g id="ytick_2">
     <g id="line2d_9">
      <g>
       <use style="stroke:#000000;stroke-width:0.8;" x="57.6" xlink:href="#ma5f328dcbc" y="214.024123"/>
      </g>
     </g>
     <g id="text_9">
      <!-- 20 -->
      <g transform="translate(37.875 217.823342)scale(0.1 -0.1)">
       <use xlink:href="#DejaVuSans-50"/>
       <use x="63.623047" xlink:href="#DejaVuSans-48"/>
      </g>
     </g>
    </g>
    <g id="ytick_3">
     <g id="line2d_10">
      <g>
       <use style="stroke:#000000;stroke-width:0.8;" x="57.6" xlink:href="#ma5f328dcbc" y="165.418264"/>
      </g>
     </g>
     <g id="text_10">
      <!-- 40 -->
      <g transform="translate(37.875 169.217483)scale(0.1 -0.1)">
       <use xlink:href="#DejaVuSans-52"/>
       <use x="63.623047" xlink:href="#DejaVuSans-48"/>
      </g>
     </g>
    </g>
    <g id="ytick_4">
     <g id="line2d_11">
      <g>
       <use style="stroke:#000000;stroke-width:0.8;" x="57.6" xlink:href="#ma5f328dcbc" y="116.812405"/>
      </g>
     </g>
     <g id="text_11">
      <!-- 60 -->
      <g transform="translate(37.875 120.611623)scale(0.1 -0.1)">
       <use xlink:href="#DejaVuSans-54"/>
       <use x="63.623047" xlink:href="#DejaVuSans-48"/>
      </g>
     </g>
    </g>
    <g id="ytick_5">
     <g id="line2d_12">
      <g>
       <use style="stroke:#000000;stroke-width:0.8;" x="57.6" xlink:href="#ma5f328dcbc" y="68.206545"/>
      </g>
     </g>
     <g id="text_12">
      <!-- 80 -->
      <g transform="translate(37.875 72.005764)scale(0.1 -0.1)">
       <use xlink:href="#DejaVuSans-56"/>
       <use x="63.623047" xlink:href="#DejaVuSans-48"/>
      </g>
     </g>
    </g>
   </g>
   <g id="line2d_13">
    <path clip-path="url(#p4ef7d7dbcc)" d="M 85.114666 262.629983 
L 85.42741 240.248435 
L 86.172061 198.657238 
L 85.872246 192.07085 
L 85.311206 185.362651 
L 84.032389 171.873166 
L 83.628084 165.238054 
L 83.589496 158.773478 
L 83.756325 155.627981 
L 84.07336 152.552526 
L 84.560192 149.556249 
L 85.236413 146.648285 
L 86.121615 143.837771 
L 87.235389 141.133842 
L 88.571243 138.490286 
L 90.100906 135.860333 
L 91.811303 133.252282 
L 93.689361 130.67443 
L 95.722006 128.135075 
L 97.896166 125.642518 
L 100.198766 123.205054 
L 102.616732 120.830984 
L 105.136992 118.528604 
L 107.746472 116.306214 
L 110.432097 114.172112 
L 113.180795 112.134596 
L 115.979491 110.201964 
L 118.815113 108.382515 
L 121.674586 106.684547 
L 124.544838 105.116358 
L 127.412793 103.686247 
L 130.26538 102.402511 
L 133.089524 101.273451 
L 135.999796 100.253746 
L 139.100801 99.298316 
L 142.364518 98.415812 
L 145.762925 97.614885 
L 149.267998 96.904188 
L 152.851718 96.292371 
L 156.486061 95.788088 
L 160.143006 95.399989 
L 163.794531 95.136725 
L 167.412614 95.00695 
L 170.969233 95.019314 
L 174.436366 95.182469 
L 177.785991 95.505068 
L 180.990086 95.99576 
L 184.02063 96.663199 
L 186.8496 97.516036 
L 189.448974 98.562922 
L 191.790731 99.81251 
L 193.846848 101.273451 
L 195.571456 103.031901 
L 196.962088 105.14462 
L 198.05583 107.576157 
L 198.889765 110.291066 
L 199.500981 113.253897 
L 199.92656 116.429203 
L 200.203589 119.781536 
L 200.460334 126.87549 
L 200.658444 137.957917 
L 200.822952 141.627999 
L 201.098503 145.226971 
L 201.522184 148.719384 
L 202.131078 152.069791 
L 202.962271 155.242744 
L 204.052847 158.202793 
L 205.439892 160.914492 
L 207.108147 163.412245 
L 209.001791 165.764826 
L 211.097066 167.988336 
L 213.370216 170.098879 
L 215.797482 172.112555 
L 218.355107 174.045468 
L 223.766404 177.73341 
L 240.658122 188.533533 
L 243.319886 190.464169 
L 245.874434 192.475063 
L 248.298008 194.582317 
L 250.566849 196.802034 
L 252.657201 199.150314 
L 254.561158 201.703507 
L 256.300728 204.501908 
L 257.897024 207.507546 
L 259.371159 210.682446 
L 262.037404 217.388143 
L 265.648401 227.766835 
L 268.043143 234.456376 
L 269.300077 237.618351 
L 270.62487 240.607831 
L 272.038637 243.386845 
L 273.562491 245.917418 
L 275.217544 248.161578 
L 277.024911 250.081351 
L 279.005704 251.638766 
L 281.181037 252.795848 
L 283.544443 253.557885 
L 286.065869 253.973997 
L 288.731048 254.071953 
L 291.525716 253.879528 
L 294.435606 253.424491 
L 297.446452 252.734616 
L 300.543989 251.837674 
L 303.713951 250.761437 
L 310.214086 248.182166 
L 316.832731 245.218977 
L 333.14887 237.589394 
L 339.283555 235.032125 
L 345.207845 232.662695 
L 353.99131 228.840307 
L 362.683101 224.779097 
L 377.063128 217.733518 
L 391.454228 210.716783 
L 394.348391 209.35497 
L 394.348391 209.35497 
" style="fill:none;stroke:#fea952;stroke-linecap:square;"/>
   </g>
   <g id="line2d_14">
    <path clip-path="url(#p4ef7d7dbcc)" d="M 75.393945 262.536456 
L 75.707888 240.069379 
L 76.456122 198.976189 
L 76.179814 192.8178 
L 75.635982 186.306698 
L 74.335902 172.5655 
L 73.909473 165.461184 
L 73.832727 161.870087 
L 73.881968 158.258614 
L 74.086397 154.631152 
L 74.478019 150.993486 
L 75.091657 147.354426 
L 75.964268 143.727923 
L 77.133119 140.135321 
L 78.559067 136.749482 
L 80.168081 133.602746 
L 81.971915 130.529227 
L 83.954165 127.528073 
L 86.100096 124.599544 
L 88.396142 121.745014 
L 90.829544 118.966888 
L 93.388111 116.268472 
L 96.060068 113.653844 
L 98.83396 111.127728 
L 101.698616 108.695391 
L 104.643139 106.362557 
L 107.656931 104.135339 
L 110.72974 102.020197 
L 113.851741 100.023919 
L 117.013634 98.15362 
L 120.206783 96.416791 
L 123.423384 94.821384 
L 126.656672 93.375973 
L 129.875016 92.099132 
L 133.137449 90.963528 
L 136.563338 89.914156 
L 140.134554 88.953865 
L 143.831146 88.087587 
L 147.632059 87.321658 
L 151.515656 86.66345 
L 155.460147 86.121202 
L 159.443956 85.703984 
L 163.446071 85.421801 
L 167.446408 85.285837 
L 171.426183 85.308888 
L 175.368287 85.50607 
L 179.257587 85.895927 
L 183.080944 86.502105 
L 186.826499 87.355768 
L 190.481285 88.498717 
L 194.025498 89.986407 
L 197.421342 91.888029 
L 200.787217 94.466656 
L 203.691478 97.687145 
L 205.827648 101.156759 
L 207.348487 104.72174 
L 208.41046 108.327 
L 209.135999 111.962536 
L 209.614708 115.628598 
L 209.913865 119.321404 
L 210.180458 126.732799 
L 210.369865 137.522612 
L 210.748921 144.056235 
L 211.086688 146.981156 
L 211.534938 149.606338 
L 212.084034 151.881996 
L 212.707537 153.775884 
L 213.523784 155.515243 
L 214.680891 157.316777 
L 216.076682 159.09796 
L 217.711445 160.864351 
L 219.577089 162.617174 
L 221.658662 164.357057 
L 226.387773 167.809335 
L 231.714226 171.270526 
L 243.378666 178.627988 
L 246.365794 180.664374 
L 249.332765 182.825683 
L 252.252914 185.139112 
L 255.096275 187.633595 
L 257.827949 190.338473 
L 260.450134 193.338999 
L 262.817176 196.57132 
L 264.886178 199.94217 
L 266.714134 203.413679 
L 268.348872 206.953926 
L 269.830248 210.532368 
L 272.462434 217.675614 
L 277.076743 230.86538 
L 279.289285 236.199985 
L 280.366464 238.372017 
L 281.386142 240.147525 
L 283.033428 242.439434 
L 283.570861 243.056195 
L 284.164218 243.543723 
L 285.12732 243.966447 
L 286.422923 244.259384 
L 288.063282 244.373744 
L 290.023812 244.275077 
L 292.264458 243.948875 
L 294.742604 243.397037 
L 297.418752 242.632563 
L 300.258176 241.675249 
L 306.310818 239.279038 
L 312.705052 236.417645 
L 329.297579 228.663659 
L 335.734846 225.98183 
L 341.425553 223.707503 
L 349.940821 220.003185 
L 358.45974 216.023275 
L 372.755814 209.018691 
L 387.315346 201.920714 
L 390.209509 200.558901 
L 390.209509 200.558901 
" style="fill:none;stroke:#ffffff;stroke-linecap:square;"/>
   </g>
   <g id="line2d_15">
    <path clip-path="url(#p4ef7d7dbcc)" d="M 94.835388 262.723509 
L 95.146933 240.42749 
L 95.887999 198.338286 
L 95.564679 191.323901 
L 94.986429 184.418604 
L 93.728875 171.180832 
L 93.346694 165.014923 
L 93.297023 159.288342 
L 93.426254 156.624811 
L 93.668701 154.111567 
L 94.028727 151.758072 
L 94.508557 149.568647 
L 95.11011 147.54022 
L 95.911712 145.518202 
L 96.974406 143.377826 
L 98.229896 141.19144 
L 99.668441 138.97649 
L 101.278626 136.749315 
L 103.047871 134.525137 
L 104.962788 132.318147 
L 107.00942 130.141636 
L 109.173397 128.008123 
L 113.794327 123.917037 
L 118.704658 120.133852 
L 123.778485 116.74111 
L 128.882892 113.815925 
L 133.874089 111.42905 
L 136.304032 110.447769 
L 138.862143 109.543964 
L 144.594483 107.877759 
L 150.903938 106.486718 
L 157.511975 105.454974 
L 164.142991 104.85165 
L 167.37882 104.728063 
L 170.512283 104.72974 
L 173.504444 104.858869 
L 176.314395 105.114208 
L 178.899229 105.489416 
L 181.21476 105.97063 
L 183.217915 106.533355 
L 184.872449 107.139437 
L 187.451434 108.376658 
L 188.096528 109.13248 
L 188.763172 110.430574 
L 189.369071 112.255131 
L 189.865963 114.545258 
L 190.238412 117.229809 
L 190.493313 120.241669 
L 190.740209 127.018181 
L 190.947023 138.393222 
L 191.130148 142.370119 
L 191.448086 146.397707 
L 191.957679 150.457612 
L 192.727218 154.533245 
L 193.840508 158.603491 
L 195.398157 162.629703 
L 197.356001 166.31374 
L 199.535403 169.507713 
L 201.9269 172.431692 
L 204.482687 175.112322 
L 207.163343 177.580584 
L 209.936302 179.868053 
L 212.773782 182.004738 
L 218.54423 185.932805 
L 234.950449 196.402691 
L 239.495955 199.811014 
L 241.49974 201.531039 
L 243.305749 203.265594 
L 244.864269 204.96163 
L 246.30514 206.835694 
L 247.715277 209.061647 
L 249.079913 211.601412 
L 250.393447 214.410966 
L 252.882954 220.658807 
L 256.470455 230.970971 
L 259.009543 238.047371 
L 260.412499 241.556897 
L 261.960456 245.015677 
L 263.710811 248.401672 
L 265.738839 251.68731 
L 268.139545 254.825144 
L 271.016393 257.723268 
L 274.440547 260.221336 
L 278.197856 262.047972 
L 281.961566 263.149323 
L 285.708815 263.688609 
L 289.398815 263.770163 
L 293.02762 263.483978 
L 296.606753 262.900107 
L 300.150299 262.072195 
L 303.669226 261.042785 
L 307.169725 259.847624 
L 314.117354 257.085293 
L 320.960409 254.020309 
L 339.882946 245.267878 
L 352.030577 240.333069 
L 361.015519 236.314108 
L 369.826559 232.126316 
L 398.487273 218.15104 
L 398.487273 218.15104 
" style="fill:none;stroke:#ffffff;stroke-linecap:square;"/>
   </g>
   <g id="patch_3">
    <path d="M 57.6 307.584 
L 57.6 41.472 
" style="fill:none;stroke:#000000;stroke-linecap:square;stroke-linejoin:miter;stroke-width:0.8;"/>
   </g>
   <g id="patch_4">
    <path d="M 414.72 307.584 
L 414.72 41.472 
" style="fill:none;stroke:#000000;stroke-linecap:square;stroke-linejoin:miter;stroke-width:0.8;"/>
   </g>
   <g id="patch_5">
    <path d="M 57.6 307.584 
L 414.72 307.584 
" style="fill:none;stroke:#000000;stroke-linecap:square;stroke-linejoin:miter;stroke-width:0.8;"/>
   </g>
   <g id="patch_6">
    <path d="M 57.6 41.472 
L 414.72 41.472 
" style="fill:none;stroke:#000000;stroke-linecap:square;stroke-linejoin:miter;stroke-width:0.8;"/>
   </g>
  </g>
 </g>
 <defs>
  <clipPath id="p4ef7d7dbcc">
   <rect height="266.112" width="357.12" x="57.6" y="41.472"/>
  </clipPath>
 </defs>
</svg>
