<?xml version="1.0" encoding="utf-8" standalone="no"?>
<!DOCTYPE svg PUBLIC "-//W3C//DTD SVG 1.1//EN"
  "http://www.w3.org/Graphics/SVG/1.1/DTD/svg11.dtd">
<!-- Created with matplotlib (https://matplotlib.org/) -->
<svg height="345.6pt" version="1.1" viewBox="0 0 460.8 345.6" width="460.8pt" xmlns="http://www.w3.org/2000/svg" xmlns:xlink="http://www.w3.org/1999/xlink">
 <metadata>
  <rdf:RDF xmlns:cc="http://creativecommons.org/ns#" xmlns:dc="http://purl.org/dc/elements/1.1/" xmlns:rdf="http://www.w3.org/1999/02/22-rdf-syntax-ns#">
   <cc:Work>
    <dc:type rdf:resource="http://purl.org/dc/dcmitype/StillImage"/>
    <dc:date>2021-06-18T00:34:14.922007</dc:date>
    <dc:format>image/svg+xml</dc:format>
    <dc:creator>
     <cc:Agent>
      <dc:title>Matplotlib v3.3.3, https://matplotlib.org/</dc:title>
     </cc:Agent>
    </dc:creator>
   </cc:Work>
  </rdf:RDF>
 </metadata>
 <defs>
  <style type="text/css">*{stroke-linecap:butt;stroke-linejoin:round;}</style>
 </defs>
 <g id="figure_1">
  <g id="patch_1">
   <path d="M 0 345.6 
L 460.8 345.6 
L 460.8 0 
L 0 0 
z
" style="fill:#ffffff;"/>
  </g>
  <g id="axes_1">
   <g id="patch_2">
    <path d="M 57.6 307.584 
L 414.72 307.584 
L 414.72 41.472 
L 57.6 41.472 
z
" style="fill:#7d9051;"/>
   </g>
   <g id="matplotlib.axis_1">
    <g id="xtick_1">
     <g id="line2d_1">
      <defs>
       <path d="M 0 0 
L 0 3.5 
" id="m67fd70c7b7" style="stroke:#000000;stroke-width:0.8;"/>
      </defs>
      <g>
       <use style="stroke:#000000;stroke-width:0.8;" x="73.701043" xlink:href="#m67fd70c7b7" y="307.584"/>
      </g>
     </g>
     <g id="text_1">
      <!-- −140 -->
      <g transform="translate(59.967449 322.182437)scale(0.1 -0.1)">
       <defs>
        <path d="M 10.59375 35.5 
L 73.1875 35.5 
L 73.1875 27.203125 
L 10.59375 27.203125 
z
" id="DejaVuSans-8722"/>
        <path d="M 12.40625 8.296875 
L 28.515625 8.296875 
L 28.515625 63.921875 
L 10.984375 60.40625 
L 10.984375 69.390625 
L 28.421875 72.90625 
L 38.28125 72.90625 
L 38.28125 8.296875 
L 54.390625 8.296875 
L 54.390625 0 
L 12.40625 0 
z
" id="DejaVuSans-49"/>
        <path d="M 37.796875 64.3125 
L 12.890625 25.390625 
L 37.796875 25.390625 
z
M 35.203125 72.90625 
L 47.609375 72.90625 
L 47.609375 25.390625 
L 58.015625 25.390625 
L 58.015625 17.1875 
L 47.609375 17.1875 
L 47.609375 0 
L 37.796875 0 
L 37.796875 17.1875 
L 4.890625 17.1875 
L 4.890625 26.703125 
z
" id="DejaVuSans-52"/>
        <path d="M 31.78125 66.40625 
Q 24.171875 66.40625 20.328125 58.90625 
Q 16.5 51.421875 16.5 36.375 
Q 16.5 21.390625 20.328125 13.890625 
Q 24.171875 6.390625 31.78125 6.390625 
Q 39.453125 6.390625 43.28125 13.890625 
Q 47.125 21.390625 47.125 36.375 
Q 47.125 51.421875 43.28125 58.90625 
Q 39.453125 66.40625 31.78125 66.40625 
z
M 31.78125 74.21875 
Q 44.046875 74.21875 50.515625 64.515625 
Q 56.984375 54.828125 56.984375 36.375 
Q 56.984375 17.96875 50.515625 8.265625 
Q 44.046875 -1.421875 31.78125 -1.421875 
Q 19.53125 -1.421875 13.0625 8.265625 
Q 6.59375 17.96875 6.59375 36.375 
Q 6.59375 54.828125 13.0625 64.515625 
Q 19.53125 74.21875 31.78125 74.21875 
z
" id="DejaVuSans-48"/>
       </defs>
       <use xlink:href="#DejaVuSans-8722"/>
       <use x="83.789062" xlink:href="#DejaVuSans-49"/>
       <use x="147.412109" xlink:href="#DejaVuSans-52"/>
       <use x="211.035156" xlink:href="#DejaVuSans-48"/>
      </g>
     </g>
    </g>
    <g id="xtick_2">
     <g id="line2d_2">
      <g>
       <use style="stroke:#000000;stroke-width:0.8;" x="118.043275" xlink:href="#m67fd70c7b7" y="307.584"/>
      </g>
     </g>
     <g id="text_2">
      <!-- −120 -->
      <g transform="translate(104.309681 322.182437)scale(0.1 -0.1)">
       <defs>
        <path d="M 19.1875 8.296875 
L 53.609375 8.296875 
L 53.609375 0 
L 7.328125 0 
L 7.328125 8.296875 
Q 12.9375 14.109375 22.625 23.890625 
Q 32.328125 33.6875 34.8125 36.53125 
Q 39.546875 41.84375 41.421875 45.53125 
Q 43.3125 49.21875 43.3125 52.78125 
Q 43.3125 58.59375 39.234375 62.25 
Q 35.15625 65.921875 28.609375 65.921875 
Q 23.96875 65.921875 18.8125 64.3125 
Q 13.671875 62.703125 7.8125 59.421875 
L 7.8125 69.390625 
Q 13.765625 71.78125 18.9375 73 
Q 24.125 74.21875 28.421875 74.21875 
Q 39.75 74.21875 46.484375 68.546875 
Q 53.21875 62.890625 53.21875 53.421875 
Q 53.21875 48.921875 51.53125 44.890625 
Q 49.859375 40.875 45.40625 35.40625 
Q 44.1875 33.984375 37.640625 27.21875 
Q 31.109375 20.453125 19.1875 8.296875 
z
" id="DejaVuSans-50"/>
       </defs>
       <use xlink:href="#DejaVuSans-8722"/>
       <use x="83.789062" xlink:href="#DejaVuSans-49"/>
       <use x="147.412109" xlink:href="#DejaVuSans-50"/>
       <use x="211.035156" xlink:href="#DejaVuSans-48"/>
      </g>
     </g>
    </g>
    <g id="xtick_3">
     <g id="line2d_3">
      <g>
       <use style="stroke:#000000;stroke-width:0.8;" x="162.385508" xlink:href="#m67fd70c7b7" y="307.584"/>
      </g>
     </g>
     <g id="text_3">
      <!-- −100 -->
      <g transform="translate(148.651914 322.182437)scale(0.1 -0.1)">
       <use xlink:href="#DejaVuSans-8722"/>
       <use x="83.789062" xlink:href="#DejaVuSans-49"/>
       <use x="147.412109" xlink:href="#DejaVuSans-48"/>
       <use x="211.035156" xlink:href="#DejaVuSans-48"/>
      </g>
     </g>
    </g>
    <g id="xtick_4">
     <g id="line2d_4">
      <g>
       <use style="stroke:#000000;stroke-width:0.8;" x="206.72774" xlink:href="#m67fd70c7b7" y="307.584"/>
      </g>
     </g>
     <g id="text_4">
      <!-- −80 -->
      <g transform="translate(196.175396 322.182437)scale(0.1 -0.1)">
       <defs>
        <path d="M 31.78125 34.625 
Q 24.75 34.625 20.71875 30.859375 
Q 16.703125 27.09375 16.703125 20.515625 
Q 16.703125 13.921875 20.71875 10.15625 
Q 24.75 6.390625 31.78125 6.390625 
Q 38.8125 6.390625 42.859375 10.171875 
Q 46.921875 13.96875 46.921875 20.515625 
Q 46.921875 27.09375 42.890625 30.859375 
Q 38.875 34.625 31.78125 34.625 
z
M 21.921875 38.8125 
Q 15.578125 40.375 12.03125 44.71875 
Q 8.5 49.078125 8.5 55.328125 
Q 8.5 64.0625 14.71875 69.140625 
Q 20.953125 74.21875 31.78125 74.21875 
Q 42.671875 74.21875 48.875 69.140625 
Q 55.078125 64.0625 55.078125 55.328125 
Q 55.078125 49.078125 51.53125 44.71875 
Q 48 40.375 41.703125 38.8125 
Q 48.828125 37.15625 52.796875 32.3125 
Q 56.78125 27.484375 56.78125 20.515625 
Q 56.78125 9.90625 50.3125 4.234375 
Q 43.84375 -1.421875 31.78125 -1.421875 
Q 19.734375 -1.421875 13.25 4.234375 
Q 6.78125 9.90625 6.78125 20.515625 
Q 6.78125 27.484375 10.78125 32.3125 
Q 14.796875 37.15625 21.921875 38.8125 
z
M 18.3125 54.390625 
Q 18.3125 48.734375 21.84375 45.5625 
Q 25.390625 42.390625 31.78125 42.390625 
Q 38.140625 42.390625 41.71875 45.5625 
Q 45.3125 48.734375 45.3125 54.390625 
Q 45.3125 60.0625 41.71875 63.234375 
Q 38.140625 66.40625 31.78125 66.40625 
Q 25.390625 66.40625 21.84375 63.234375 
Q 18.3125 60.0625 18.3125 54.390625 
z
" id="DejaVuSans-56"/>
       </defs>
       <use xlink:href="#DejaVuSans-8722"/>
       <use x="83.789062" xlink:href="#DejaVuSans-56"/>
       <use x="147.412109" xlink:href="#DejaVuSans-48"/>
      </g>
     </g>
    </g>
    <g id="xtick_5">
     <g id="line2d_5">
      <g>
       <use style="stroke:#000000;stroke-width:0.8;" x="251.069972" xlink:href="#m67fd70c7b7" y="307.584"/>
      </g>
     </g>
     <g id="text_5">
      <!-- −60 -->
      <g transform="translate(240.517628 322.182437)scale(0.1 -0.1)">
       <defs>
        <path d="M 33.015625 40.375 
Q 26.375 40.375 22.484375 35.828125 
Q 18.609375 31.296875 18.609375 23.390625 
Q 18.609375 15.53125 22.484375 10.953125 
Q 26.375 6.390625 33.015625 6.390625 
Q 39.65625 6.390625 43.53125 10.953125 
Q 47.40625 15.53125 47.40625 23.390625 
Q 47.40625 31.296875 43.53125 35.828125 
Q 39.65625 40.375 33.015625 40.375 
z
M 52.59375 71.296875 
L 52.59375 62.3125 
Q 48.875 64.0625 45.09375 64.984375 
Q 41.3125 65.921875 37.59375 65.921875 
Q 27.828125 65.921875 22.671875 59.328125 
Q 17.53125 52.734375 16.796875 39.40625 
Q 19.671875 43.65625 24.015625 45.921875 
Q 28.375 48.1875 33.59375 48.1875 
Q 44.578125 48.1875 50.953125 41.515625 
Q 57.328125 34.859375 57.328125 23.390625 
Q 57.328125 12.15625 50.6875 5.359375 
Q 44.046875 -1.421875 33.015625 -1.421875 
Q 20.359375 -1.421875 13.671875 8.265625 
Q 6.984375 17.96875 6.984375 36.375 
Q 6.984375 53.65625 15.1875 63.9375 
Q 23.390625 74.21875 37.203125 74.21875 
Q 40.921875 74.21875 44.703125 73.484375 
Q 48.484375 72.75 52.59375 71.296875 
z
" id="DejaVuSans-54"/>
       </defs>
       <use xlink:href="#DejaVuSans-8722"/>
       <use x="83.789062" xlink:href="#DejaVuSans-54"/>
       <use x="147.412109" xlink:href="#DejaVuSans-48"/>
      </g>
     </g>
    </g>
    <g id="xtick_6">
     <g id="line2d_6">
      <g>
       <use style="stroke:#000000;stroke-width:0.8;" x="295.412205" xlink:href="#m67fd70c7b7" y="307.584"/>
      </g>
     </g>
     <g id="text_6">
      <!-- −40 -->
      <g transform="translate(284.859861 322.182437)scale(0.1 -0.1)">
       <use xlink:href="#DejaVuSans-8722"/>
       <use x="83.789062" xlink:href="#DejaVuSans-52"/>
       <use x="147.412109" xlink:href="#DejaVuSans-48"/>
      </g>
     </g>
    </g>
    <g id="xtick_7">
     <g id="line2d_7">
      <g>
       <use style="stroke:#000000;stroke-width:0.8;" x="339.754437" xlink:href="#m67fd70c7b7" y="307.584"/>
      </g>
     </g>
     <g id="text_7">
      <!-- −20 -->
      <g transform="translate(329.202093 322.182437)scale(0.1 -0.1)">
       <use xlink:href="#DejaVuSans-8722"/>
       <use x="83.789062" xlink:href="#DejaVuSans-50"/>
       <use x="147.412109" xlink:href="#DejaVuSans-48"/>
      </g>
     </g>
    </g>
    <g id="xtick_8">
     <g id="line2d_8">
      <g>
       <use style="stroke:#000000;stroke-width:0.8;" x="384.096669" xlink:href="#m67fd70c7b7" y="307.584"/>
      </g>
     </g>
     <g id="text_8">
      <!-- 0 -->
      <g transform="translate(380.915419 322.182437)scale(0.1 -0.1)">
       <use xlink:href="#DejaVuSans-48"/>
      </g>
     </g>
    </g>
   </g>
   <g id="matplotlib.axis_2">
    <g id="ytick_1">
     <g id="line2d_9">
      <defs>
       <path d="M 0 0 
L -3.5 0 
" id="ma9ed37d906" style="stroke:#000000;stroke-width:0.8;"/>
      </defs>
      <g>
       <use style="stroke:#000000;stroke-width:0.8;" x="57.6" xlink:href="#ma9ed37d906" y="283.112062"/>
      </g>
     </g>
     <g id="text_9">
      <!-- 0 -->
      <g transform="translate(44.2375 286.911281)scale(0.1 -0.1)">
       <use xlink:href="#DejaVuSans-48"/>
      </g>
     </g>
    </g>
    <g id="ytick_2">
     <g id="line2d_10">
      <g>
       <use style="stroke:#000000;stroke-width:0.8;" x="57.6" xlink:href="#ma9ed37d906" y="238.769829"/>
      </g>
     </g>
     <g id="text_10">
      <!-- 20 -->
      <g transform="translate(37.875 242.569048)scale(0.1 -0.1)">
       <use xlink:href="#DejaVuSans-50"/>
       <use x="63.623047" xlink:href="#DejaVuSans-48"/>
      </g>
     </g>
    </g>
    <g id="ytick_3">
     <g id="line2d_11">
      <g>
       <use style="stroke:#000000;stroke-width:0.8;" x="57.6" xlink:href="#ma9ed37d906" y="194.427597"/>
      </g>
     </g>
     <g id="text_11">
      <!-- 40 -->
      <g transform="translate(37.875 198.226816)scale(0.1 -0.1)">
       <use xlink:href="#DejaVuSans-52"/>
       <use x="63.623047" xlink:href="#DejaVuSans-48"/>
      </g>
     </g>
    </g>
    <g id="ytick_4">
     <g id="line2d_12">
      <g>
       <use style="stroke:#000000;stroke-width:0.8;" x="57.6" xlink:href="#ma9ed37d906" y="150.085365"/>
      </g>
     </g>
     <g id="text_12">
      <!-- 60 -->
      <g transform="translate(37.875 153.884583)scale(0.1 -0.1)">
       <use xlink:href="#DejaVuSans-54"/>
       <use x="63.623047" xlink:href="#DejaVuSans-48"/>
      </g>
     </g>
    </g>
    <g id="ytick_5">
     <g id="line2d_13">
      <g>
       <use style="stroke:#000000;stroke-width:0.8;" x="57.6" xlink:href="#ma9ed37d906" y="105.743132"/>
      </g>
     </g>
     <g id="text_13">
      <!-- 80 -->
      <g transform="translate(37.875 109.542351)scale(0.1 -0.1)">
       <use xlink:href="#DejaVuSans-56"/>
       <use x="63.623047" xlink:href="#DejaVuSans-48"/>
      </g>
     </g>
    </g>
    <g id="ytick_6">
     <g id="line2d_14">
      <g>
       <use style="stroke:#000000;stroke-width:0.8;" x="57.6" xlink:href="#ma9ed37d906" y="61.4009"/>
      </g>
     </g>
     <g id="text_14">
      <!-- 100 -->
      <g transform="translate(31.5125 65.200119)scale(0.1 -0.1)">
       <use xlink:href="#DejaVuSans-49"/>
       <use x="63.623047" xlink:href="#DejaVuSans-48"/>
       <use x="127.246094" xlink:href="#DejaVuSans-48"/>
      </g>
     </g>
    </g>
   </g>
   <g id="line2d_15">
    <path clip-path="url(#paf3169c6e0)" d="M 384.096669 283.112062 
L 384.38198 262.693787 
L 385.184099 224.729251 
L 385.7701 218.569055 
L 386.663515 212.201506 
L 388.634792 199.341997 
L 389.343759 193.09886 
L 389.548379 190.078375 
L 389.622348 187.146016 
L 389.54261 184.317333 
L 389.28611 181.607878 
L 388.829792 179.033202 
L 388.150599 176.608857 
L 387.225476 174.350394 
L 386.031366 172.273365 
L 384.534602 170.308882 
L 382.736323 168.384936 
L 380.665684 166.512392 
L 378.351839 164.702119 
L 375.823946 162.964983 
L 373.111157 161.31185 
L 370.242629 159.753587 
L 367.247517 158.301062 
L 364.154975 156.96514 
L 360.994159 155.756689 
L 357.794224 154.686575 
L 354.584324 153.765665 
L 351.393616 153.004826 
L 348.251254 152.414925 
L 345.186394 152.006828 
L 342.228189 151.791403 
L 339.405797 151.779515 
L 336.74837 151.982032 
L 334.285066 152.409821 
L 331.98918 153.173777 
L 329.80539 154.347275 
L 327.719921 155.884895 
L 325.718997 157.741223 
L 323.788843 159.870839 
L 321.915683 162.228327 
L 318.285248 167.445249 
L 309.242303 181.296102 
L 307.329193 183.841542 
L 305.349101 186.206098 
L 303.288251 188.344354 
L 301.132869 190.210891 
L 298.869178 191.760292 
L 296.483404 192.947141 
L 293.946175 193.880823 
L 291.250973 194.700244 
L 288.418302 195.404267 
L 285.468668 195.991755 
L 282.422574 196.46157 
L 279.300526 196.812573 
L 276.123027 197.043629 
L 272.910582 197.153599 
L 269.683697 197.141346 
L 266.462874 197.005731 
L 263.26862 196.745619 
L 260.121438 196.359871 
L 257.041833 195.847349 
L 254.05031 195.206916 
L 251.167372 194.437435 
L 248.413526 193.537768 
L 245.809274 192.506777 
L 243.375122 191.343325 
L 241.131575 190.046274 
L 239.10468 188.514918 
L 237.290396 186.672275 
L 235.664092 184.552799 
L 234.201137 182.190945 
L 232.876901 179.621167 
L 231.666752 176.877918 
L 229.490195 171.008826 
L 224.321184 155.712141 
L 223.137029 152.821472 
L 221.845285 150.067419 
L 220.421322 147.484435 
L 218.840508 145.106975 
L 217.078212 142.969492 
L 215.109804 141.10644 
L 212.960127 139.466718 
L 210.677699 137.969744 
L 208.273393 136.605755 
L 205.758087 135.364988 
L 203.142655 134.23768 
L 200.437974 133.214066 
L 194.804368 131.438868 
L 188.944274 129.961288 
L 182.9447 128.703217 
L 170.875139 126.533172 
L 159.213391 124.407276 
L 156.242141 124.068447 
L 150.113669 123.76076 
L 143.830772 123.788898 
L 128.184535 124.088391 
L 122.245085 123.803818 
L 119.399849 123.480397 
L 116.656314 123.004727 
L 114.028511 122.353187 
L 111.530469 121.502157 
L 109.176219 120.428015 
L 106.979793 119.107141 
L 104.947764 117.53745 
L 103.068616 115.745315 
L 101.329247 113.749801 
L 99.716551 111.569977 
L 98.217424 109.224909 
L 96.818762 106.733662 
L 95.507462 104.115305 
L 93.094527 98.573524 
L 90.873787 92.752098 
L 85.474817 77.97609 
L 83.101195 72.377109 
L 81.816102 69.720618 
L 81.816102 69.720618 
" style="fill:none;stroke:#fea952;stroke-linecap:square;"/>
   </g>
   <g id="line2d_16">
    <path clip-path="url(#paf3169c6e0)" d="M 375.228633 283.026739 
L 375.515038 262.530438 
L 376.202843 227.333654 
L 376.343742 224.023955 
L 376.978623 217.403177 
L 377.901718 210.830279 
L 379.835862 198.233771 
L 380.495593 192.49945 
L 380.757423 187.395909 
L 380.713639 185.153158 
L 380.553752 183.155543 
L 380.290141 181.42563 
L 379.943973 179.970498 
L 379.537072 178.770552 
L 378.977149 177.648061 
L 378.05564 176.364655 
L 376.787923 174.962616 
L 375.201037 173.497161 
L 373.329161 172.011158 
L 371.209015 170.538077 
L 368.877866 169.104705 
L 366.372806 167.733174 
L 363.730622 166.442363 
L 360.98794 165.248812 
L 358.181506 164.167296 
L 355.348556 163.211131 
L 352.527277 162.392246 
L 349.757365 161.721019 
L 347.080721 161.205784 
L 344.542272 160.851852 
L 342.190837 160.659771 
L 340.079689 160.622321 
L 337.085098 160.824639 
L 336.18708 160.985754 
L 335.068272 161.485301 
L 333.751544 162.386346 
L 332.290109 163.696877 
L 330.732333 165.387839 
L 329.111146 167.412405 
L 325.739051 172.250473 
L 318.388821 183.670349 
L 316.331669 186.62435 
L 314.128486 189.535306 
L 311.734552 192.360394 
L 309.093872 195.048391 
L 306.141971 197.52924 
L 302.819182 199.700495 
L 299.546134 201.269942 
L 296.525855 202.365785 
L 293.390034 203.306856 
L 290.150631 204.101875 
L 286.820509 204.756564 
L 283.413388 205.274494 
L 279.943707 205.657666 
L 276.426438 205.906884 
L 272.876907 206.021982 
L 269.310617 206.001941 
L 265.743087 205.84492 
L 262.189694 205.54819 
L 258.665535 205.107996 
L 255.185321 204.519298 
L 251.763306 203.775402 
L 248.413341 202.86742 
L 245.149121 201.783555 
L 241.984828 200.508211 
L 238.93644 199.021049 
L 235.785548 197.122244 
L 232.785301 194.737039 
L 230.254542 192.070987 
L 228.124782 189.222719 
L 226.317827 186.253306 
L 224.762883 183.200561 
L 223.401135 180.091782 
L 221.074119 173.805075 
L 216.114621 159.073937 
L 215.107891 156.587409 
L 214.078834 154.348958 
L 213.036371 152.394816 
L 211.997853 150.748555 
L 210.982014 149.410433 
L 209.731253 148.157719 
L 208.096373 146.88246 
L 206.301682 145.683357 
L 204.350077 144.559178 
L 202.247781 143.509133 
L 200.003589 142.531991 
L 195.133011 140.786696 
L 189.8337 139.292799 
L 184.2058 138.003628 
L 175.359756 136.32151 
L 155.637422 132.916253 
L 150.068042 132.62909 
L 144.057578 132.654443 
L 131.226407 132.9652 
L 124.59028 132.84756 
L 121.243451 132.615518 
L 117.884854 132.218482 
L 114.522086 131.612539 
L 111.168624 130.747852 
L 107.849241 129.570484 
L 104.605765 128.028034 
L 101.558313 126.125467 
L 98.827169 123.955212 
L 96.383311 121.572496 
L 94.199834 119.024345 
L 92.244429 116.346664 
L 90.484372 113.56648 
L 88.889155 110.704892 
L 87.431439 107.77962 
L 84.8347 101.80224 
L 82.531917 95.762505 
L 77.262883 81.324743 
L 75.11782 76.239111 
L 73.832727 73.582621 
L 73.832727 73.582621 
" style="fill:none;stroke:#ffffff;stroke-linecap:square;"/>
   </g>
   <g id="line2d_17">
    <path clip-path="url(#paf3169c6e0)" d="M 392.964705 283.197385 
L 393.248922 262.857136 
L 394.024455 225.434547 
L 394.561578 219.734933 
L 395.425312 213.572733 
L 397.433723 200.450223 
L 398.191926 193.698269 
L 398.414005 190.302012 
L 398.487273 186.896124 
L 398.371582 183.481508 
L 398.018468 180.060213 
L 397.369442 176.640775 
L 396.357225 173.247216 
L 394.913879 169.930236 
L 393.085583 166.898668 
L 391.013564 164.253109 
L 388.684723 161.807255 
L 386.13033 159.527624 
L 383.374518 157.393081 
L 380.438877 155.391889 
L 377.344449 153.518995 
L 374.112452 151.774 
L 370.764411 150.15976 
L 367.32201 148.681467 
L 363.806812 147.346081 
L 360.239891 146.162019 
L 356.641372 145.139084 
L 353.029867 144.288633 
L 349.421787 143.624066 
L 345.830515 143.161804 
L 342.265542 142.923035 
L 338.731904 142.93671 
L 335.230948 143.244368 
L 331.485034 143.995003 
L 327.79128 145.361801 
L 324.542509 147.209248 
L 321.688297 149.383445 
L 319.147884 151.785568 
L 316.845353 154.353839 
L 314.720221 157.044249 
L 310.831446 162.640025 
L 302.152936 175.967854 
L 300.5299 178.147778 
L 298.96365 180.051803 
L 297.482631 181.640317 
L 296.123766 182.892542 
L 294.919174 183.82009 
L 293.420673 184.624339 
L 291.366494 185.39586 
L 289.111912 186.093633 
L 286.685973 186.70666 
L 284.116827 187.226947 
L 281.43176 187.648646 
L 278.657344 187.967481 
L 272.944258 188.285216 
L 267.182662 188.166543 
L 264.347546 187.943048 
L 261.577341 187.611746 
L 258.898346 187.175399 
L 256.337314 186.63843 
L 253.921404 186.00745 
L 251.67793 185.29198 
L 249.633721 184.505342 
L 246.477601 182.970305 
L 245.424059 182.292796 
L 244.32625 181.273562 
L 243.203401 179.882879 
L 242.084447 178.128585 
L 240.990918 176.041773 
L 239.932369 173.664054 
L 237.906271 168.212576 
L 232.527746 152.350345 
L 231.166168 149.055536 
L 229.611737 145.785881 
L 227.806273 142.574054 
L 225.683162 139.465395 
L 223.174409 136.528551 
L 220.488354 134.055161 
L 217.823882 132.050975 
L 215.053715 130.256131 
L 212.19671 128.652333 
L 209.268392 127.220844 
L 206.281721 125.943368 
L 203.247857 124.802532 
L 197.078048 122.866837 
L 190.833935 121.296502 
L 184.59007 119.988741 
L 172.426293 117.801433 
L 160.218199 115.595937 
L 156.846859 115.220642 
L 153.491184 114.997013 
L 146.860126 114.877087 
L 137.270138 115.098577 
L 128.44925 115.223897 
L 123.246718 114.992117 
L 120.914845 114.742312 
L 118.790543 114.396916 
L 116.888397 113.958523 
L 115.211697 113.43383 
L 113.746673 112.827996 
L 112.401272 112.088815 
L 111.068358 111.119688 
L 109.753922 109.918133 
L 108.45866 108.475258 
L 107.188673 106.79329 
L 105.950476 104.883337 
L 104.74837 102.762432 
L 102.453767 97.970989 
L 100.278032 92.594555 
L 97.08823 83.809703 
L 93.686751 74.627437 
L 91.08457 68.515106 
L 89.799478 65.858615 
L 89.799478 65.858615 
" style="fill:none;stroke:#ffffff;stroke-linecap:square;"/>
   </g>
   <g id="patch_3">
    <path d="M 57.6 307.584 
L 57.6 41.472 
" style="fill:none;stroke:#000000;stroke-linecap:square;stroke-linejoin:miter;stroke-width:0.8;"/>
   </g>
   <g id="patch_4">
    <path d="M 414.72 307.584 
L 414.72 41.472 
" style="fill:none;stroke:#000000;stroke-linecap:square;stroke-linejoin:miter;stroke-width:0.8;"/>
   </g>
   <g id="patch_5">
    <path d="M 57.6 307.584 
L 414.72 307.584 
" style="fill:none;stroke:#000000;stroke-linecap:square;stroke-linejoin:miter;stroke-width:0.8;"/>
   </g>
   <g id="patch_6">
    <path d="M 57.6 41.472 
L 414.72 41.472 
" style="fill:none;stroke:#000000;stroke-linecap:square;stroke-linejoin:miter;stroke-width:0.8;"/>
   </g>
  </g>
 </g>
 <defs>
  <clipPath id="paf3169c6e0">
   <rect height="266.112" width="357.12" x="57.6" y="41.472"/>
  </clipPath>
 </defs>
</svg>
