<?xml version="1.0" encoding="utf-8" standalone="no"?>
<!DOCTYPE svg PUBLIC "-//W3C//DTD SVG 1.1//EN"
  "http://www.w3.org/Graphics/SVG/1.1/DTD/svg11.dtd">
<!-- Created with matplotlib (https://matplotlib.org/) -->
<svg height="345.6pt" version="1.1" viewBox="0 0 460.8 345.6" width="460.8pt" xmlns="http://www.w3.org/2000/svg" xmlns:xlink="http://www.w3.org/1999/xlink">
 <metadata>
  <rdf:RDF xmlns:cc="http://creativecommons.org/ns#" xmlns:dc="http://purl.org/dc/elements/1.1/" xmlns:rdf="http://www.w3.org/1999/02/22-rdf-syntax-ns#">
   <cc:Work>
    <dc:type rdf:resource="http://purl.org/dc/dcmitype/StillImage"/>
    <dc:date>2021-05-22T20:40:16.070504</dc:date>
    <dc:format>image/svg+xml</dc:format>
    <dc:creator>
     <cc:Agent>
      <dc:title>Matplotlib v3.3.3, https://matplotlib.org/</dc:title>
     </cc:Agent>
    </dc:creator>
   </cc:Work>
  </rdf:RDF>
 </metadata>
 <defs>
  <style type="text/css">*{stroke-linecap:butt;stroke-linejoin:round;}</style>
 </defs>
 <g id="figure_1">
  <g id="patch_1">
   <path d="M 0 345.6 
L 460.8 345.6 
L 460.8 0 
L 0 0 
z
" style="fill:#ffffff;"/>
  </g>
  <g id="axes_1">
   <g id="patch_2">
    <path d="M 57.6 307.584 
L 414.72 307.584 
L 414.72 41.472 
L 57.6 41.472 
z
" style="fill:#7d9051;"/>
   </g>
   <g id="matplotlib.axis_1">
    <g id="xtick_1">
     <g id="line2d_1">
      <defs>
       <path d="M 0 0 
L 0 3.5 
" id="m64487f2f69" style="stroke:#000000;stroke-width:0.8;"/>
      </defs>
      <g>
       <use style="stroke:#000000;stroke-width:0.8;" x="104.434081" xlink:href="#m64487f2f69" y="307.584"/>
      </g>
     </g>
     <g id="text_1">
      <!-- −100 -->
      <g transform="translate(90.700488 322.182437)scale(0.1 -0.1)">
       <defs>
        <path d="M 10.59375 35.5 
L 73.1875 35.5 
L 73.1875 27.203125 
L 10.59375 27.203125 
z
" id="DejaVuSans-8722"/>
        <path d="M 12.40625 8.296875 
L 28.515625 8.296875 
L 28.515625 63.921875 
L 10.984375 60.40625 
L 10.984375 69.390625 
L 28.421875 72.90625 
L 38.28125 72.90625 
L 38.28125 8.296875 
L 54.390625 8.296875 
L 54.390625 0 
L 12.40625 0 
z
" id="DejaVuSans-49"/>
        <path d="M 31.78125 66.40625 
Q 24.171875 66.40625 20.328125 58.90625 
Q 16.5 51.421875 16.5 36.375 
Q 16.5 21.390625 20.328125 13.890625 
Q 24.171875 6.390625 31.78125 6.390625 
Q 39.453125 6.390625 43.28125 13.890625 
Q 47.125 21.390625 47.125 36.375 
Q 47.125 51.421875 43.28125 58.90625 
Q 39.453125 66.40625 31.78125 66.40625 
z
M 31.78125 74.21875 
Q 44.046875 74.21875 50.515625 64.515625 
Q 56.984375 54.828125 56.984375 36.375 
Q 56.984375 17.96875 50.515625 8.265625 
Q 44.046875 -1.421875 31.78125 -1.421875 
Q 19.53125 -1.421875 13.0625 8.265625 
Q 6.59375 17.96875 6.59375 36.375 
Q 6.59375 54.828125 13.0625 64.515625 
Q 19.53125 74.21875 31.78125 74.21875 
z
" id="DejaVuSans-48"/>
       </defs>
       <use xlink:href="#DejaVuSans-8722"/>
       <use x="83.789062" xlink:href="#DejaVuSans-49"/>
       <use x="147.412109" xlink:href="#DejaVuSans-48"/>
       <use x="211.035156" xlink:href="#DejaVuSans-48"/>
      </g>
     </g>
    </g>
    <g id="xtick_2">
     <g id="line2d_2">
      <g>
       <use style="stroke:#000000;stroke-width:0.8;" x="166.287207" xlink:href="#m64487f2f69" y="307.584"/>
      </g>
     </g>
     <g id="text_2">
      <!-- −50 -->
      <g transform="translate(155.734863 322.182437)scale(0.1 -0.1)">
       <defs>
        <path d="M 10.796875 72.90625 
L 49.515625 72.90625 
L 49.515625 64.59375 
L 19.828125 64.59375 
L 19.828125 46.734375 
Q 21.96875 47.46875 24.109375 47.828125 
Q 26.265625 48.1875 28.421875 48.1875 
Q 40.625 48.1875 47.75 41.5 
Q 54.890625 34.8125 54.890625 23.390625 
Q 54.890625 11.625 47.5625 5.09375 
Q 40.234375 -1.421875 26.90625 -1.421875 
Q 22.3125 -1.421875 17.546875 -0.640625 
Q 12.796875 0.140625 7.71875 1.703125 
L 7.71875 11.625 
Q 12.109375 9.234375 16.796875 8.0625 
Q 21.484375 6.890625 26.703125 6.890625 
Q 35.15625 6.890625 40.078125 11.328125 
Q 45.015625 15.765625 45.015625 23.390625 
Q 45.015625 31 40.078125 35.4375 
Q 35.15625 39.890625 26.703125 39.890625 
Q 22.75 39.890625 18.8125 39.015625 
Q 14.890625 38.140625 10.796875 36.28125 
z
" id="DejaVuSans-53"/>
       </defs>
       <use xlink:href="#DejaVuSans-8722"/>
       <use x="83.789062" xlink:href="#DejaVuSans-53"/>
       <use x="147.412109" xlink:href="#DejaVuSans-48"/>
      </g>
     </g>
    </g>
    <g id="xtick_3">
     <g id="line2d_3">
      <g>
       <use style="stroke:#000000;stroke-width:0.8;" x="228.140332" xlink:href="#m64487f2f69" y="307.584"/>
      </g>
     </g>
     <g id="text_3">
      <!-- 0 -->
      <g transform="translate(224.959082 322.182437)scale(0.1 -0.1)">
       <use xlink:href="#DejaVuSans-48"/>
      </g>
     </g>
    </g>
    <g id="xtick_4">
     <g id="line2d_4">
      <g>
       <use style="stroke:#000000;stroke-width:0.8;" x="289.993458" xlink:href="#m64487f2f69" y="307.584"/>
      </g>
     </g>
     <g id="text_4">
      <!-- 50 -->
      <g transform="translate(283.630958 322.182437)scale(0.1 -0.1)">
       <use xlink:href="#DejaVuSans-53"/>
       <use x="63.623047" xlink:href="#DejaVuSans-48"/>
      </g>
     </g>
    </g>
    <g id="xtick_5">
     <g id="line2d_5">
      <g>
       <use style="stroke:#000000;stroke-width:0.8;" x="351.846583" xlink:href="#m64487f2f69" y="307.584"/>
      </g>
     </g>
     <g id="text_5">
      <!-- 100 -->
      <g transform="translate(342.302833 322.182437)scale(0.1 -0.1)">
       <use xlink:href="#DejaVuSans-49"/>
       <use x="63.623047" xlink:href="#DejaVuSans-48"/>
       <use x="127.246094" xlink:href="#DejaVuSans-48"/>
      </g>
     </g>
    </g>
    <g id="xtick_6">
     <g id="line2d_6">
      <g>
       <use style="stroke:#000000;stroke-width:0.8;" x="413.699708" xlink:href="#m64487f2f69" y="307.584"/>
      </g>
     </g>
     <g id="text_6">
      <!-- 150 -->
      <g transform="translate(404.155958 322.182437)scale(0.1 -0.1)">
       <use xlink:href="#DejaVuSans-49"/>
       <use x="63.623047" xlink:href="#DejaVuSans-53"/>
       <use x="127.246094" xlink:href="#DejaVuSans-48"/>
      </g>
     </g>
    </g>
   </g>
   <g id="matplotlib.axis_2">
    <g id="ytick_1">
     <g id="line2d_7">
      <defs>
       <path d="M 0 0 
L -3.5 0 
" id="macd5dcd3f7" style="stroke:#000000;stroke-width:0.8;"/>
      </defs>
      <g>
       <use style="stroke:#000000;stroke-width:0.8;" x="57.6" xlink:href="#macd5dcd3f7" y="295.440393"/>
      </g>
     </g>
     <g id="text_7">
      <!-- 0 -->
      <g transform="translate(44.2375 299.239612)scale(0.1 -0.1)">
       <use xlink:href="#DejaVuSans-48"/>
      </g>
     </g>
    </g>
    <g id="ytick_2">
     <g id="line2d_8">
      <g>
       <use style="stroke:#000000;stroke-width:0.8;" x="57.6" xlink:href="#macd5dcd3f7" y="264.51383"/>
      </g>
     </g>
     <g id="text_8">
      <!-- 25 -->
      <g transform="translate(37.875 268.313049)scale(0.1 -0.1)">
       <defs>
        <path d="M 19.1875 8.296875 
L 53.609375 8.296875 
L 53.609375 0 
L 7.328125 0 
L 7.328125 8.296875 
Q 12.9375 14.109375 22.625 23.890625 
Q 32.328125 33.6875 34.8125 36.53125 
Q 39.546875 41.84375 41.421875 45.53125 
Q 43.3125 49.21875 43.3125 52.78125 
Q 43.3125 58.59375 39.234375 62.25 
Q 35.15625 65.921875 28.609375 65.921875 
Q 23.96875 65.921875 18.8125 64.3125 
Q 13.671875 62.703125 7.8125 59.421875 
L 7.8125 69.390625 
Q 13.765625 71.78125 18.9375 73 
Q 24.125 74.21875 28.421875 74.21875 
Q 39.75 74.21875 46.484375 68.546875 
Q 53.21875 62.890625 53.21875 53.421875 
Q 53.21875 48.921875 51.53125 44.890625 
Q 49.859375 40.875 45.40625 35.40625 
Q 44.1875 33.984375 37.640625 27.21875 
Q 31.109375 20.453125 19.1875 8.296875 
z
" id="DejaVuSans-50"/>
       </defs>
       <use xlink:href="#DejaVuSans-50"/>
       <use x="63.623047" xlink:href="#DejaVuSans-53"/>
      </g>
     </g>
    </g>
    <g id="ytick_3">
     <g id="line2d_9">
      <g>
       <use style="stroke:#000000;stroke-width:0.8;" x="57.6" xlink:href="#macd5dcd3f7" y="233.587268"/>
      </g>
     </g>
     <g id="text_9">
      <!-- 50 -->
      <g transform="translate(37.875 237.386487)scale(0.1 -0.1)">
       <use xlink:href="#DejaVuSans-53"/>
       <use x="63.623047" xlink:href="#DejaVuSans-48"/>
      </g>
     </g>
    </g>
    <g id="ytick_4">
     <g id="line2d_10">
      <g>
       <use style="stroke:#000000;stroke-width:0.8;" x="57.6" xlink:href="#macd5dcd3f7" y="202.660705"/>
      </g>
     </g>
     <g id="text_10">
      <!-- 75 -->
      <g transform="translate(37.875 206.459924)scale(0.1 -0.1)">
       <defs>
        <path d="M 8.203125 72.90625 
L 55.078125 72.90625 
L 55.078125 68.703125 
L 28.609375 0 
L 18.3125 0 
L 43.21875 64.59375 
L 8.203125 64.59375 
z
" id="DejaVuSans-55"/>
       </defs>
       <use xlink:href="#DejaVuSans-55"/>
       <use x="63.623047" xlink:href="#DejaVuSans-53"/>
      </g>
     </g>
    </g>
    <g id="ytick_5">
     <g id="line2d_11">
      <g>
       <use style="stroke:#000000;stroke-width:0.8;" x="57.6" xlink:href="#macd5dcd3f7" y="171.734142"/>
      </g>
     </g>
     <g id="text_11">
      <!-- 100 -->
      <g transform="translate(31.5125 175.533361)scale(0.1 -0.1)">
       <use xlink:href="#DejaVuSans-49"/>
       <use x="63.623047" xlink:href="#DejaVuSans-48"/>
       <use x="127.246094" xlink:href="#DejaVuSans-48"/>
      </g>
     </g>
    </g>
    <g id="ytick_6">
     <g id="line2d_12">
      <g>
       <use style="stroke:#000000;stroke-width:0.8;" x="57.6" xlink:href="#macd5dcd3f7" y="140.80758"/>
      </g>
     </g>
     <g id="text_12">
      <!-- 125 -->
      <g transform="translate(31.5125 144.606798)scale(0.1 -0.1)">
       <use xlink:href="#DejaVuSans-49"/>
       <use x="63.623047" xlink:href="#DejaVuSans-50"/>
       <use x="127.246094" xlink:href="#DejaVuSans-53"/>
      </g>
     </g>
    </g>
    <g id="ytick_7">
     <g id="line2d_13">
      <g>
       <use style="stroke:#000000;stroke-width:0.8;" x="57.6" xlink:href="#macd5dcd3f7" y="109.881017"/>
      </g>
     </g>
     <g id="text_13">
      <!-- 150 -->
      <g transform="translate(31.5125 113.680236)scale(0.1 -0.1)">
       <use xlink:href="#DejaVuSans-49"/>
       <use x="63.623047" xlink:href="#DejaVuSans-53"/>
       <use x="127.246094" xlink:href="#DejaVuSans-48"/>
      </g>
     </g>
    </g>
    <g id="ytick_8">
     <g id="line2d_14">
      <g>
       <use style="stroke:#000000;stroke-width:0.8;" x="57.6" xlink:href="#macd5dcd3f7" y="78.954454"/>
      </g>
     </g>
     <g id="text_14">
      <!-- 175 -->
      <g transform="translate(31.5125 82.753673)scale(0.1 -0.1)">
       <use xlink:href="#DejaVuSans-49"/>
       <use x="63.623047" xlink:href="#DejaVuSans-55"/>
       <use x="127.246094" xlink:href="#DejaVuSans-53"/>
      </g>
     </g>
    </g>
    <g id="ytick_9">
     <g id="line2d_15">
      <g>
       <use style="stroke:#000000;stroke-width:0.8;" x="57.6" xlink:href="#macd5dcd3f7" y="48.027892"/>
      </g>
     </g>
     <g id="text_15">
      <!-- 200 -->
      <g transform="translate(31.5125 51.82711)scale(0.1 -0.1)">
       <use xlink:href="#DejaVuSans-50"/>
       <use x="63.623047" xlink:href="#DejaVuSans-48"/>
       <use x="127.246094" xlink:href="#DejaVuSans-48"/>
      </g>
     </g>
    </g>
   </g>
   <g id="line2d_16">
    <path clip-path="url(#p2e5e807258)" d="M 228.140332 295.440393 
L 228.392537 279.165456 
L 228.676048 259.622007 
L 228.420904 243.261944 
L 228.658595 238.403695 
L 228.990598 235.192349 
L 229.536446 231.997161 
L 230.503853 228.762475 
L 231.799688 225.50109 
L 234.814513 218.998113 
L 236.892552 214.236524 
L 237.927236 211.164022 
L 238.286675 209.667702 
L 238.517425 208.202166 
L 238.601918 206.770534 
L 238.522588 205.375928 
L 238.26187 204.021469 
L 237.797966 202.723024 
L 237.134745 201.489232 
L 236.293133 200.312378 
L 235.294059 199.184744 
L 232.907238 197.046274 
L 230.141706 195.012091 
L 221.247092 188.917952 
L 218.640963 186.683606 
L 217.49934 185.493653 
L 216.493247 184.244891 
L 215.643614 182.929604 
L 214.164885 180.106845 
L 212.805025 177.075888 
L 211.591959 173.885986 
L 210.55361 170.586391 
L 209.717902 167.226357 
L 209.11276 163.855137 
L 208.766107 160.521983 
L 208.705868 157.276149 
L 208.959967 154.166886 
L 209.21362 152.678861 
L 209.597558 151.236662 
L 210.142428 149.832503 
L 210.830608 148.461804 
L 212.56641 145.802475 
L 214.663992 143.222049 
L 218.180323 139.419228 
L 221.717686 135.587909 
L 223.852656 132.956818 
L 225.644541 130.221492 
L 226.367772 128.803295 
L 226.952367 127.345304 
L 227.76516 124.321722 
L 228.220844 121.184632 
L 228.4018 117.958037 
L 228.338329 113.002828 
L 228.02518 102.97429 
L 228.167686 99.684454 
L 228.570939 96.461125 
L 229.892307 88.047576 
L 230.792668 82.835726 
L 231.534401 79.436853 
L 232.443469 76.179125 
L 233.566281 73.131621 
L 234.949244 70.363417 
L 235.752785 69.105639 
L 236.638767 67.943591 
L 237.612991 66.885906 
L 238.688875 65.939377 
L 239.869981 65.099051 
L 241.147325 64.35595 
L 243.954785 63.125501 
L 247.039377 62.176193 
L 250.329222 61.436187 
L 255.491607 60.561477 
L 262.422309 59.457274 
L 265.746301 58.770143 
L 267.341511 58.36139 
L 267.341511 58.36139 
" style="fill:none;stroke:#fea952;stroke-linecap:square;"/>
   </g>
   <g id="line2d_17">
    <path clip-path="url(#p2e5e807258)" d="M 223.192311 295.392786 
L 223.445279 279.066421 
L 223.72869 259.715982 
L 223.474948 243.111261 
L 223.730642 237.955968 
L 224.092627 234.488744 
L 224.75815 230.711445 
L 225.875166 227.013067 
L 227.279388 223.488116 
L 230.321017 216.925994 
L 232.243205 212.542785 
L 233.115856 210.008252 
L 233.57777 207.910633 
L 233.663539 206.311242 
L 233.439513 205.0659 
L 233.109808 204.367612 
L 232.589441 203.593817 
L 231.873888 202.760721 
L 229.906853 200.981102 
L 227.36687 199.109098 
L 218.129008 192.760183 
L 216.573695 191.488467 
L 215.070262 190.109284 
L 213.64609 188.598109 
L 212.336778 186.929838 
L 211.297597 185.29547 
L 209.680886 182.199434 
L 208.206046 178.901967 
L 206.894526 175.441398 
L 205.771103 171.856356 
L 204.863367 168.184832 
L 204.202031 164.46335 
L 203.822079 160.726359 
L 203.764982 157.006285 
L 204.082079 153.335389 
L 204.431913 151.405888 
L 204.984444 149.44659 
L 205.720237 147.612276 
L 206.599778 145.895628 
L 207.590242 144.283022 
L 209.801206 141.30859 
L 212.181688 138.579345 
L 218.91598 131.241772 
L 220.576808 129.026231 
L 221.774958 126.961763 
L 222.219254 125.902109 
L 222.888375 123.483778 
L 223.286315 120.816389 
L 223.453711 117.918197 
L 223.394328 113.207856 
L 223.077712 104.638977 
L 223.129696 101.02496 
L 223.437659 97.331667 
L 225.294699 85.470936 
L 226.323849 80.010899 
L 227.222543 76.374233 
L 228.374323 72.803627 
L 229.869258 69.355454 
L 230.779313 67.699425 
L 231.817789 66.105476 
L 232.999175 64.591196 
L 234.344522 63.170762 
L 235.820277 61.907464 
L 237.381739 60.821923 
L 239.00646 59.894798 
L 240.678454 59.105054 
L 244.122301 57.858141 
L 247.650497 56.940991 
L 251.211644 56.241888 
L 264.518055 53.976752 
L 266.113265 53.568 
L 266.113265 53.568 
" style="fill:none;stroke:#ffffff;stroke-linecap:square;"/>
   </g>
   <g id="line2d_18">
    <path clip-path="url(#p2e5e807258)" d="M 233.088353 295.488 
L 233.339796 279.264491 
L 233.642671 261.20035 
L 233.41797 251.317074 
L 233.343896 244.965028 
L 233.485134 240.355228 
L 233.888569 235.895953 
L 234.314742 233.282877 
L 235.132541 230.511883 
L 236.319988 227.514065 
L 239.308009 221.070231 
L 240.834462 217.674689 
L 242.184669 214.147876 
L 242.738615 212.319791 
L 243.174707 210.437326 
L 243.457079 208.493698 
L 243.542182 206.489517 
L 243.381638 204.440614 
L 242.921647 202.356642 
L 242.156419 200.380148 
L 241.159681 198.610853 
L 239.996825 197.030938 
L 238.71423 195.608768 
L 237.343471 194.311687 
L 234.425939 191.985245 
L 229.888759 188.889398 
L 225.625893 186.009612 
L 223.220686 184.156467 
L 221.352589 182.389197 
L 220.649717 181.559944 
L 219.98963 180.563739 
L 218.648884 178.014256 
L 217.404005 175.249809 
L 216.289391 172.330573 
L 215.336116 169.316426 
L 214.572436 166.267882 
L 214.023488 163.246924 
L 213.710135 160.317608 
L 213.646754 157.546012 
L 213.837855 154.998383 
L 214.210672 153.026734 
L 214.564619 152.052729 
L 215.698709 149.956953 
L 217.356372 147.700787 
L 219.427104 145.320611 
L 226.722511 137.324435 
L 229.023782 134.182716 
L 230.052679 132.46949 
L 230.960586 130.644827 
L 231.685481 128.788499 
L 232.227223 126.974179 
L 232.946005 123.35115 
L 233.28524 119.767742 
L 233.362702 116.245063 
L 233.212194 111.107529 
L 232.974211 104.634319 
L 233.008281 101.620157 
L 233.225482 98.794284 
L 235.049028 87.142397 
L 235.967187 82.235028 
L 236.707692 79.197823 
L 237.57619 76.445929 
L 238.575428 74.061124 
L 239.687782 72.105803 
L 240.881459 70.60105 
L 242.358223 69.37618 
L 244.345388 68.297132 
L 246.811563 67.382247 
L 249.675774 66.628043 
L 254.517505 65.722395 
L 265.16929 63.964568 
L 268.569757 63.154781 
L 268.569757 63.154781 
" style="fill:none;stroke:#ffffff;stroke-linecap:square;"/>
   </g>
   <g id="patch_3">
    <path d="M 57.6 307.584 
L 57.6 41.472 
" style="fill:none;stroke:#000000;stroke-linecap:square;stroke-linejoin:miter;stroke-width:0.8;"/>
   </g>
   <g id="patch_4">
    <path d="M 414.72 307.584 
L 414.72 41.472 
" style="fill:none;stroke:#000000;stroke-linecap:square;stroke-linejoin:miter;stroke-width:0.8;"/>
   </g>
   <g id="patch_5">
    <path d="M 57.6 307.584 
L 414.72 307.584 
" style="fill:none;stroke:#000000;stroke-linecap:square;stroke-linejoin:miter;stroke-width:0.8;"/>
   </g>
   <g id="patch_6">
    <path d="M 57.6 41.472 
L 414.72 41.472 
" style="fill:none;stroke:#000000;stroke-linecap:square;stroke-linejoin:miter;stroke-width:0.8;"/>
   </g>
  </g>
 </g>
 <defs>
  <clipPath id="p2e5e807258">
   <rect height="266.112" width="357.12" x="57.6" y="41.472"/>
  </clipPath>
 </defs>
</svg>
