<?xml version="1.0" encoding="utf-8" standalone="no"?>
<!DOCTYPE svg PUBLIC "-//W3C//DTD SVG 1.1//EN"
  "http://www.w3.org/Graphics/SVG/1.1/DTD/svg11.dtd">
<!-- Created with matplotlib (https://matplotlib.org/) -->
<svg height="345.6pt" version="1.1" viewBox="0 0 460.8 345.6" width="460.8pt" xmlns="http://www.w3.org/2000/svg" xmlns:xlink="http://www.w3.org/1999/xlink">
 <metadata>
  <rdf:RDF xmlns:cc="http://creativecommons.org/ns#" xmlns:dc="http://purl.org/dc/elements/1.1/" xmlns:rdf="http://www.w3.org/1999/02/22-rdf-syntax-ns#">
   <cc:Work>
    <dc:type rdf:resource="http://purl.org/dc/dcmitype/StillImage"/>
    <dc:date>2021-06-22T10:22:11.571679</dc:date>
    <dc:format>image/svg+xml</dc:format>
    <dc:creator>
     <cc:Agent>
      <dc:title>Matplotlib v3.3.3, https://matplotlib.org/</dc:title>
     </cc:Agent>
    </dc:creator>
   </cc:Work>
  </rdf:RDF>
 </metadata>
 <defs>
  <style type="text/css">*{stroke-linecap:butt;stroke-linejoin:round;}</style>
 </defs>
 <g id="figure_1">
  <g id="patch_1">
   <path d="M 0 345.6 
L 460.8 345.6 
L 460.8 0 
L 0 0 
z
" style="fill:#ffffff;"/>
  </g>
  <g id="axes_1">
   <g id="patch_2">
    <path d="M 57.6 307.584 
L 414.72 307.584 
L 414.72 41.472 
L 57.6 41.472 
z
" style="fill:#7d9051;"/>
   </g>
   <g id="matplotlib.axis_1">
    <g id="xtick_1">
     <g id="line2d_1">
      <defs>
       <path d="M 0 0 
L 0 3.5 
" id="md8602a65a8" style="stroke:#000000;stroke-width:0.8;"/>
      </defs>
      <g>
       <use style="stroke:#000000;stroke-width:0.8;" x="83.754174" xlink:href="#md8602a65a8" y="307.584"/>
      </g>
     </g>
     <g id="text_1">
      <!-- 0 -->
      <g transform="translate(80.572924 322.182437)scale(0.1 -0.1)">
       <defs>
        <path d="M 31.78125 66.40625 
Q 24.171875 66.40625 20.328125 58.90625 
Q 16.5 51.421875 16.5 36.375 
Q 16.5 21.390625 20.328125 13.890625 
Q 24.171875 6.390625 31.78125 6.390625 
Q 39.453125 6.390625 43.28125 13.890625 
Q 47.125 21.390625 47.125 36.375 
Q 47.125 51.421875 43.28125 58.90625 
Q 39.453125 66.40625 31.78125 66.40625 
z
M 31.78125 74.21875 
Q 44.046875 74.21875 50.515625 64.515625 
Q 56.984375 54.828125 56.984375 36.375 
Q 56.984375 17.96875 50.515625 8.265625 
Q 44.046875 -1.421875 31.78125 -1.421875 
Q 19.53125 -1.421875 13.0625 8.265625 
Q 6.59375 17.96875 6.59375 36.375 
Q 6.59375 54.828125 13.0625 64.515625 
Q 19.53125 74.21875 31.78125 74.21875 
z
" id="DejaVuSans-48"/>
       </defs>
       <use xlink:href="#DejaVuSans-48"/>
      </g>
     </g>
    </g>
    <g id="xtick_2">
     <g id="line2d_2">
      <g>
       <use style="stroke:#000000;stroke-width:0.8;" x="124.975786" xlink:href="#md8602a65a8" y="307.584"/>
      </g>
     </g>
     <g id="text_2">
      <!-- 20 -->
      <g transform="translate(118.613286 322.182437)scale(0.1 -0.1)">
       <defs>
        <path d="M 19.1875 8.296875 
L 53.609375 8.296875 
L 53.609375 0 
L 7.328125 0 
L 7.328125 8.296875 
Q 12.9375 14.109375 22.625 23.890625 
Q 32.328125 33.6875 34.8125 36.53125 
Q 39.546875 41.84375 41.421875 45.53125 
Q 43.3125 49.21875 43.3125 52.78125 
Q 43.3125 58.59375 39.234375 62.25 
Q 35.15625 65.921875 28.609375 65.921875 
Q 23.96875 65.921875 18.8125 64.3125 
Q 13.671875 62.703125 7.8125 59.421875 
L 7.8125 69.390625 
Q 13.765625 71.78125 18.9375 73 
Q 24.125 74.21875 28.421875 74.21875 
Q 39.75 74.21875 46.484375 68.546875 
Q 53.21875 62.890625 53.21875 53.421875 
Q 53.21875 48.921875 51.53125 44.890625 
Q 49.859375 40.875 45.40625 35.40625 
Q 44.1875 33.984375 37.640625 27.21875 
Q 31.109375 20.453125 19.1875 8.296875 
z
" id="DejaVuSans-50"/>
       </defs>
       <use xlink:href="#DejaVuSans-50"/>
       <use x="63.623047" xlink:href="#DejaVuSans-48"/>
      </g>
     </g>
    </g>
    <g id="xtick_3">
     <g id="line2d_3">
      <g>
       <use style="stroke:#000000;stroke-width:0.8;" x="166.197398" xlink:href="#md8602a65a8" y="307.584"/>
      </g>
     </g>
     <g id="text_3">
      <!-- 40 -->
      <g transform="translate(159.834898 322.182437)scale(0.1 -0.1)">
       <defs>
        <path d="M 37.796875 64.3125 
L 12.890625 25.390625 
L 37.796875 25.390625 
z
M 35.203125 72.90625 
L 47.609375 72.90625 
L 47.609375 25.390625 
L 58.015625 25.390625 
L 58.015625 17.1875 
L 47.609375 17.1875 
L 47.609375 0 
L 37.796875 0 
L 37.796875 17.1875 
L 4.890625 17.1875 
L 4.890625 26.703125 
z
" id="DejaVuSans-52"/>
       </defs>
       <use xlink:href="#DejaVuSans-52"/>
       <use x="63.623047" xlink:href="#DejaVuSans-48"/>
      </g>
     </g>
    </g>
    <g id="xtick_4">
     <g id="line2d_4">
      <g>
       <use style="stroke:#000000;stroke-width:0.8;" x="207.41901" xlink:href="#md8602a65a8" y="307.584"/>
      </g>
     </g>
     <g id="text_4">
      <!-- 60 -->
      <g transform="translate(201.05651 322.182437)scale(0.1 -0.1)">
       <defs>
        <path d="M 33.015625 40.375 
Q 26.375 40.375 22.484375 35.828125 
Q 18.609375 31.296875 18.609375 23.390625 
Q 18.609375 15.53125 22.484375 10.953125 
Q 26.375 6.390625 33.015625 6.390625 
Q 39.65625 6.390625 43.53125 10.953125 
Q 47.40625 15.53125 47.40625 23.390625 
Q 47.40625 31.296875 43.53125 35.828125 
Q 39.65625 40.375 33.015625 40.375 
z
M 52.59375 71.296875 
L 52.59375 62.3125 
Q 48.875 64.0625 45.09375 64.984375 
Q 41.3125 65.921875 37.59375 65.921875 
Q 27.828125 65.921875 22.671875 59.328125 
Q 17.53125 52.734375 16.796875 39.40625 
Q 19.671875 43.65625 24.015625 45.921875 
Q 28.375 48.1875 33.59375 48.1875 
Q 44.578125 48.1875 50.953125 41.515625 
Q 57.328125 34.859375 57.328125 23.390625 
Q 57.328125 12.15625 50.6875 5.359375 
Q 44.046875 -1.421875 33.015625 -1.421875 
Q 20.359375 -1.421875 13.671875 8.265625 
Q 6.984375 17.96875 6.984375 36.375 
Q 6.984375 53.65625 15.1875 63.9375 
Q 23.390625 74.21875 37.203125 74.21875 
Q 40.921875 74.21875 44.703125 73.484375 
Q 48.484375 72.75 52.59375 71.296875 
z
" id="DejaVuSans-54"/>
       </defs>
       <use xlink:href="#DejaVuSans-54"/>
       <use x="63.623047" xlink:href="#DejaVuSans-48"/>
      </g>
     </g>
    </g>
    <g id="xtick_5">
     <g id="line2d_5">
      <g>
       <use style="stroke:#000000;stroke-width:0.8;" x="248.640623" xlink:href="#md8602a65a8" y="307.584"/>
      </g>
     </g>
     <g id="text_5">
      <!-- 80 -->
      <g transform="translate(242.278123 322.182437)scale(0.1 -0.1)">
       <defs>
        <path d="M 31.78125 34.625 
Q 24.75 34.625 20.71875 30.859375 
Q 16.703125 27.09375 16.703125 20.515625 
Q 16.703125 13.921875 20.71875 10.15625 
Q 24.75 6.390625 31.78125 6.390625 
Q 38.8125 6.390625 42.859375 10.171875 
Q 46.921875 13.96875 46.921875 20.515625 
Q 46.921875 27.09375 42.890625 30.859375 
Q 38.875 34.625 31.78125 34.625 
z
M 21.921875 38.8125 
Q 15.578125 40.375 12.03125 44.71875 
Q 8.5 49.078125 8.5 55.328125 
Q 8.5 64.0625 14.71875 69.140625 
Q 20.953125 74.21875 31.78125 74.21875 
Q 42.671875 74.21875 48.875 69.140625 
Q 55.078125 64.0625 55.078125 55.328125 
Q 55.078125 49.078125 51.53125 44.71875 
Q 48 40.375 41.703125 38.8125 
Q 48.828125 37.15625 52.796875 32.3125 
Q 56.78125 27.484375 56.78125 20.515625 
Q 56.78125 9.90625 50.3125 4.234375 
Q 43.84375 -1.421875 31.78125 -1.421875 
Q 19.734375 -1.421875 13.25 4.234375 
Q 6.78125 9.90625 6.78125 20.515625 
Q 6.78125 27.484375 10.78125 32.3125 
Q 14.796875 37.15625 21.921875 38.8125 
z
M 18.3125 54.390625 
Q 18.3125 48.734375 21.84375 45.5625 
Q 25.390625 42.390625 31.78125 42.390625 
Q 38.140625 42.390625 41.71875 45.5625 
Q 45.3125 48.734375 45.3125 54.390625 
Q 45.3125 60.0625 41.71875 63.234375 
Q 38.140625 66.40625 31.78125 66.40625 
Q 25.390625 66.40625 21.84375 63.234375 
Q 18.3125 60.0625 18.3125 54.390625 
z
" id="DejaVuSans-56"/>
       </defs>
       <use xlink:href="#DejaVuSans-56"/>
       <use x="63.623047" xlink:href="#DejaVuSans-48"/>
      </g>
     </g>
    </g>
    <g id="xtick_6">
     <g id="line2d_6">
      <g>
       <use style="stroke:#000000;stroke-width:0.8;" x="289.862235" xlink:href="#md8602a65a8" y="307.584"/>
      </g>
     </g>
     <g id="text_6">
      <!-- 100 -->
      <g transform="translate(280.318485 322.182437)scale(0.1 -0.1)">
       <defs>
        <path d="M 12.40625 8.296875 
L 28.515625 8.296875 
L 28.515625 63.921875 
L 10.984375 60.40625 
L 10.984375 69.390625 
L 28.421875 72.90625 
L 38.28125 72.90625 
L 38.28125 8.296875 
L 54.390625 8.296875 
L 54.390625 0 
L 12.40625 0 
z
" id="DejaVuSans-49"/>
       </defs>
       <use xlink:href="#DejaVuSans-49"/>
       <use x="63.623047" xlink:href="#DejaVuSans-48"/>
       <use x="127.246094" xlink:href="#DejaVuSans-48"/>
      </g>
     </g>
    </g>
    <g id="xtick_7">
     <g id="line2d_7">
      <g>
       <use style="stroke:#000000;stroke-width:0.8;" x="331.083847" xlink:href="#md8602a65a8" y="307.584"/>
      </g>
     </g>
     <g id="text_7">
      <!-- 120 -->
      <g transform="translate(321.540097 322.182437)scale(0.1 -0.1)">
       <use xlink:href="#DejaVuSans-49"/>
       <use x="63.623047" xlink:href="#DejaVuSans-50"/>
       <use x="127.246094" xlink:href="#DejaVuSans-48"/>
      </g>
     </g>
    </g>
    <g id="xtick_8">
     <g id="line2d_8">
      <g>
       <use style="stroke:#000000;stroke-width:0.8;" x="372.305459" xlink:href="#md8602a65a8" y="307.584"/>
      </g>
     </g>
     <g id="text_8">
      <!-- 140 -->
      <g transform="translate(362.761709 322.182437)scale(0.1 -0.1)">
       <use xlink:href="#DejaVuSans-49"/>
       <use x="63.623047" xlink:href="#DejaVuSans-52"/>
       <use x="127.246094" xlink:href="#DejaVuSans-48"/>
      </g>
     </g>
    </g>
    <g id="xtick_9">
     <g id="line2d_9">
      <g>
       <use style="stroke:#000000;stroke-width:0.8;" x="413.527072" xlink:href="#md8602a65a8" y="307.584"/>
      </g>
     </g>
     <g id="text_9">
      <!-- 160 -->
      <g transform="translate(403.983322 322.182437)scale(0.1 -0.1)">
       <use xlink:href="#DejaVuSans-49"/>
       <use x="63.623047" xlink:href="#DejaVuSans-54"/>
       <use x="127.246094" xlink:href="#DejaVuSans-48"/>
      </g>
     </g>
    </g>
   </g>
   <g id="matplotlib.axis_2">
    <g id="ytick_1">
     <g id="line2d_10">
      <defs>
       <path d="M 0 0 
L -3.5 0 
" id="m2d2ade5afd" style="stroke:#000000;stroke-width:0.8;"/>
      </defs>
      <g>
       <use style="stroke:#000000;stroke-width:0.8;" x="57.6" xlink:href="#m2d2ade5afd" y="295.910598"/>
      </g>
     </g>
     <g id="text_10">
      <!-- −20 -->
      <g transform="translate(29.495313 299.709817)scale(0.1 -0.1)">
       <defs>
        <path d="M 10.59375 35.5 
L 73.1875 35.5 
L 73.1875 27.203125 
L 10.59375 27.203125 
z
" id="DejaVuSans-8722"/>
       </defs>
       <use xlink:href="#DejaVuSans-8722"/>
       <use x="83.789062" xlink:href="#DejaVuSans-50"/>
       <use x="147.412109" xlink:href="#DejaVuSans-48"/>
      </g>
     </g>
    </g>
    <g id="ytick_2">
     <g id="line2d_11">
      <g>
       <use style="stroke:#000000;stroke-width:0.8;" x="57.6" xlink:href="#m2d2ade5afd" y="254.688986"/>
      </g>
     </g>
     <g id="text_11">
      <!-- 0 -->
      <g transform="translate(44.2375 258.488205)scale(0.1 -0.1)">
       <use xlink:href="#DejaVuSans-48"/>
      </g>
     </g>
    </g>
    <g id="ytick_3">
     <g id="line2d_12">
      <g>
       <use style="stroke:#000000;stroke-width:0.8;" x="57.6" xlink:href="#m2d2ade5afd" y="213.467374"/>
      </g>
     </g>
     <g id="text_12">
      <!-- 20 -->
      <g transform="translate(37.875 217.266593)scale(0.1 -0.1)">
       <use xlink:href="#DejaVuSans-50"/>
       <use x="63.623047" xlink:href="#DejaVuSans-48"/>
      </g>
     </g>
    </g>
    <g id="ytick_4">
     <g id="line2d_13">
      <g>
       <use style="stroke:#000000;stroke-width:0.8;" x="57.6" xlink:href="#m2d2ade5afd" y="172.245762"/>
      </g>
     </g>
     <g id="text_13">
      <!-- 40 -->
      <g transform="translate(37.875 176.04498)scale(0.1 -0.1)">
       <use xlink:href="#DejaVuSans-52"/>
       <use x="63.623047" xlink:href="#DejaVuSans-48"/>
      </g>
     </g>
    </g>
    <g id="ytick_5">
     <g id="line2d_14">
      <g>
       <use style="stroke:#000000;stroke-width:0.8;" x="57.6" xlink:href="#m2d2ade5afd" y="131.024149"/>
      </g>
     </g>
     <g id="text_14">
      <!-- 60 -->
      <g transform="translate(37.875 134.823368)scale(0.1 -0.1)">
       <use xlink:href="#DejaVuSans-54"/>
       <use x="63.623047" xlink:href="#DejaVuSans-48"/>
      </g>
     </g>
    </g>
    <g id="ytick_6">
     <g id="line2d_15">
      <g>
       <use style="stroke:#000000;stroke-width:0.8;" x="57.6" xlink:href="#m2d2ade5afd" y="89.802537"/>
      </g>
     </g>
     <g id="text_15">
      <!-- 80 -->
      <g transform="translate(37.875 93.601756)scale(0.1 -0.1)">
       <use xlink:href="#DejaVuSans-56"/>
       <use x="63.623047" xlink:href="#DejaVuSans-48"/>
      </g>
     </g>
    </g>
    <g id="ytick_7">
     <g id="line2d_16">
      <g>
       <use style="stroke:#000000;stroke-width:0.8;" x="57.6" xlink:href="#m2d2ade5afd" y="48.580925"/>
      </g>
     </g>
     <g id="text_16">
      <!-- 100 -->
      <g transform="translate(31.5125 52.380144)scale(0.1 -0.1)">
       <use xlink:href="#DejaVuSans-49"/>
       <use x="63.623047" xlink:href="#DejaVuSans-48"/>
       <use x="127.246094" xlink:href="#DejaVuSans-48"/>
      </g>
     </g>
    </g>
   </g>
   <g id="line2d_17">
    <path clip-path="url(#pe23a9afba1)" d="M 83.754174 254.688986 
L 84.069357 232.996151 
L 84.644617 200.426511 
L 84.346176 194.781035 
L 83.477334 186.074529 
L 82.552335 177.33625 
L 82.154058 171.63429 
L 82.105205 166.130023 
L 82.25861 163.478503 
L 82.555528 160.908178 
L 83.014679 158.429639 
L 83.65478 156.053478 
L 84.494553 153.790285 
L 85.552714 151.650651 
L 86.837806 149.634382 
L 88.334285 147.728774 
L 90.024744 145.925655 
L 91.891779 144.216853 
L 93.917981 142.594195 
L 96.085947 141.049508 
L 100.77754 138.16136 
L 105.82731 135.487027 
L 111.096008 132.96113 
L 126.82318 125.62025 
L 131.641633 123.003392 
L 136.492201 120.074425 
L 151.379675 110.724817 
L 156.378427 107.937534 
L 161.357478 105.573287 
L 163.832522 104.598255 
L 166.294129 103.787125 
L 168.739461 103.159277 
L 171.165681 102.734092 
L 173.569952 102.530951 
L 175.949437 102.569235 
L 178.303752 102.873165 
L 180.635962 103.438608 
L 182.948401 104.242417 
L 185.243405 105.261445 
L 187.523307 106.472544 
L 189.790442 107.852567 
L 194.295751 111.026795 
L 198.778006 114.598949 
L 212.273215 125.851176 
L 216.85002 129.163242 
L 221.510246 131.999232 
L 226.323251 134.580042 
L 233.737806 138.197737 
L 246.151631 144.112573 
L 250.974481 146.63487 
L 255.632299 149.34757 
L 260.069418 152.318041 
L 262.18782 153.920994 
L 264.230171 155.613652 
L 266.1676 157.457474 
L 267.985897 159.490281 
L 269.700098 161.685036 
L 271.325239 164.014704 
L 274.368489 168.970635 
L 278.641324 176.740484 
L 281.470611 181.828935 
L 284.424822 186.591893 
L 285.986365 188.783724 
L 287.624248 190.813074 
L 289.353507 192.652908 
L 291.189178 194.27619 
L 293.146298 195.655885 
L 295.239903 196.764956 
L 297.461408 197.597168 
L 299.786316 198.179711 
L 302.205792 198.535691 
L 304.711004 198.688217 
L 307.293118 198.660394 
L 309.943301 198.47533 
L 315.412541 197.725903 
L 321.04806 196.624791 
L 335.400573 193.546492 
L 341.061568 192.670208 
L 343.839587 192.400571 
L 349.276111 192.246253 
L 357.395538 192.370253 
L 365.519245 192.739463 
L 376.354951 193.466474 
L 395.318846 194.819433 
L 398.027242 194.970797 
L 398.027242 194.970797 
" style="fill:none;stroke:#fea952;stroke-linecap:square;"/>
   </g>
   <g id="line2d_18">
    <path clip-path="url(#pe23a9afba1)" d="M 75.510233 254.609668 
L 75.826538 232.838719 
L 76.406496 200.74624 
L 76.133255 195.49992 
L 75.284126 186.99115 
L 74.335146 178.004574 
L 73.91293 171.86375 
L 73.832727 168.765502 
L 73.874646 165.653841 
L 74.068751 162.532429 
L 74.449129 159.406463 
L 75.054139 156.285191 
L 75.925406 153.185444 
L 77.104575 150.135552 
L 78.60044 147.219542 
L 80.353848 144.542512 
L 82.319804 142.090079 
L 84.458538 139.844028 
L 86.738308 137.781747 
L 89.133986 135.879864 
L 91.625087 134.116285 
L 94.193998 132.471049 
L 99.501578 129.467025 
L 104.932579 126.749997 
L 115.646755 121.82361 
L 122.989472 118.321514 
L 127.440721 115.909649 
L 132.092611 113.102162 
L 147.272075 103.576637 
L 152.696212 100.56121 
L 155.486107 99.175813 
L 158.335692 97.902716 
L 161.252379 96.768075 
L 164.243869 95.801808 
L 167.316366 95.038707 
L 170.471579 94.51904 
L 173.702581 94.287696 
L 177.004976 94.392764 
L 180.246305 94.860966 
L 183.342837 95.651331 
L 186.294068 96.707474 
L 189.111025 97.980623 
L 191.809979 99.430294 
L 194.408165 101.022817 
L 196.921483 102.72933 
L 201.745514 106.38277 
L 208.60779 112.112809 
L 215.123955 117.592149 
L 219.270712 120.799869 
L 223.312067 123.508302 
L 227.720035 126.006719 
L 232.381366 128.39727 
L 242.247238 133.08251 
L 249.904402 136.771894 
L 255.027396 139.455544 
L 260.096179 142.416292 
L 265.044074 145.743724 
L 267.448626 147.573335 
L 269.913731 149.641551 
L 272.312406 151.961093 
L 274.483272 154.415543 
L 276.461773 156.968193 
L 278.280717 159.588624 
L 281.552459 164.925957 
L 285.874281 172.784074 
L 288.549579 177.603172 
L 291.139367 181.808198 
L 293.631591 185.166776 
L 294.814883 186.476969 
L 295.939399 187.537922 
L 297.005597 188.370649 
L 298.132079 189.044583 
L 299.46521 189.600066 
L 300.986394 190.0232 
L 302.706806 190.306607 
L 304.622175 190.444373 
L 306.718809 190.4361 
L 308.9787 190.287632 
L 313.913094 189.619084 
L 319.28768 188.570605 
L 334.01067 185.420176 
L 340.265111 184.464447 
L 343.458184 184.165076 
L 349.30307 184.001974 
L 357.699879 184.13155 
L 366.01415 184.510008 
L 376.970077 185.245132 
L 395.778877 186.587955 
L 398.487273 186.739319 
L 398.487273 186.739319 
" style="fill:none;stroke:#ffffff;stroke-linecap:square;"/>
   </g>
   <g id="line2d_19">
    <path clip-path="url(#pe23a9afba1)" d="M 91.998114 254.768304 
L 92.312177 233.153584 
L 92.882737 200.106782 
L 92.559096 194.06215 
L 91.670542 185.157907 
L 90.769524 176.667925 
L 90.395187 171.404829 
L 90.335764 166.606206 
L 90.661928 162.409892 
L 90.975218 160.574088 
L 91.384155 158.921512 
L 91.884531 157.445019 
L 92.504989 156.081761 
L 93.321765 154.726251 
L 94.348765 153.367469 
L 95.590951 152.007283 
L 97.045249 150.651959 
L 98.701977 149.308526 
L 100.546806 147.982732 
L 104.730439 145.396237 
L 109.445184 142.89512 
L 114.537119 140.452966 
L 127.976976 134.25151 
L 133.284811 131.535067 
L 138.377425 128.594597 
L 145.860145 123.890891 
L 153.130038 119.293069 
L 157.800417 116.540567 
L 162.257561 114.209868 
L 166.412665 112.428435 
L 168.344388 111.772442 
L 170.162556 111.279846 
L 171.859784 110.949144 
L 173.437324 110.774207 
L 174.893898 110.745707 
L 176.361198 110.885364 
L 177.929087 111.225885 
L 179.602734 111.77736 
L 181.375784 112.542267 
L 183.236634 113.514795 
L 185.17272 114.682318 
L 189.227947 117.52958 
L 193.479886 120.915497 
L 207.326859 132.446812 
L 209.837276 134.323393 
L 212.429581 136.122305 
L 217.539365 139.224255 
L 222.624158 141.947916 
L 230.233443 145.660196 
L 242.39886 151.453252 
L 246.921565 153.814197 
L 251.168419 156.278849 
L 255.094762 158.892359 
L 258.546611 161.585754 
L 260.022794 162.953856 
L 261.488522 164.565019 
L 262.938423 166.401879 
L 264.369762 168.440784 
L 267.184518 173.015313 
L 271.408367 180.696894 
L 274.391644 186.054697 
L 275.995241 188.731504 
L 277.710278 191.375589 
L 279.570901 193.961626 
L 281.616905 196.459371 
L 283.89213 198.828846 
L 286.438957 201.014458 
L 289.286999 202.941121 
L 292.347727 204.48533 
L 295.457606 205.594269 
L 298.586237 206.336221 
L 301.704778 206.764776 
L 304.799832 206.932061 
L 307.867427 206.884689 
L 310.907901 206.663028 
L 316.911989 205.832722 
L 322.808439 204.678977 
L 336.790476 201.672809 
L 341.858024 200.875968 
L 344.22099 200.636067 
L 349.249152 200.490531 
L 357.091197 200.608956 
L 365.024339 200.968917 
L 375.739825 201.687817 
L 394.858815 203.050911 
L 397.567211 203.202274 
L 397.567211 203.202274 
" style="fill:none;stroke:#ffffff;stroke-linecap:square;"/>
   </g>
   <g id="patch_3">
    <path d="M 57.6 307.584 
L 57.6 41.472 
" style="fill:none;stroke:#000000;stroke-linecap:square;stroke-linejoin:miter;stroke-width:0.8;"/>
   </g>
   <g id="patch_4">
    <path d="M 414.72 307.584 
L 414.72 41.472 
" style="fill:none;stroke:#000000;stroke-linecap:square;stroke-linejoin:miter;stroke-width:0.8;"/>
   </g>
   <g id="patch_5">
    <path d="M 57.6 307.584 
L 414.72 307.584 
" style="fill:none;stroke:#000000;stroke-linecap:square;stroke-linejoin:miter;stroke-width:0.8;"/>
   </g>
   <g id="patch_6">
    <path d="M 57.6 41.472 
L 414.72 41.472 
" style="fill:none;stroke:#000000;stroke-linecap:square;stroke-linejoin:miter;stroke-width:0.8;"/>
   </g>
  </g>
 </g>
 <defs>
  <clipPath id="pe23a9afba1">
   <rect height="266.112" width="357.12" x="57.6" y="41.472"/>
  </clipPath>
 </defs>
</svg>
