<?xml version="1.0" encoding="utf-8" standalone="no"?>
<!DOCTYPE svg PUBLIC "-//W3C//DTD SVG 1.1//EN"
  "http://www.w3.org/Graphics/SVG/1.1/DTD/svg11.dtd">
<!-- Created with matplotlib (https://matplotlib.org/) -->
<svg height="345.6pt" version="1.1" viewBox="0 0 460.8 345.6" width="460.8pt" xmlns="http://www.w3.org/2000/svg" xmlns:xlink="http://www.w3.org/1999/xlink">
 <metadata>
  <rdf:RDF xmlns:cc="http://creativecommons.org/ns#" xmlns:dc="http://purl.org/dc/elements/1.1/" xmlns:rdf="http://www.w3.org/1999/02/22-rdf-syntax-ns#">
   <cc:Work>
    <dc:type rdf:resource="http://purl.org/dc/dcmitype/StillImage"/>
    <dc:date>2021-07-07T19:38:37.963128</dc:date>
    <dc:format>image/svg+xml</dc:format>
    <dc:creator>
     <cc:Agent>
      <dc:title>Matplotlib v3.3.3, https://matplotlib.org/</dc:title>
     </cc:Agent>
    </dc:creator>
   </cc:Work>
  </rdf:RDF>
 </metadata>
 <defs>
  <style type="text/css">*{stroke-linecap:butt;stroke-linejoin:round;}</style>
 </defs>
 <g id="figure_1">
  <g id="patch_1">
   <path d="M 0 345.6 
L 460.8 345.6 
L 460.8 0 
L 0 0 
z
" style="fill:#ffffff;"/>
  </g>
  <g id="axes_1">
   <g id="patch_2">
    <path d="M 57.6 307.584 
L 414.72 307.584 
L 414.72 41.472 
L 57.6 41.472 
z
" style="fill:#7d9051;"/>
   </g>
   <g id="matplotlib.axis_1">
    <g id="xtick_1">
     <g id="line2d_1">
      <defs>
       <path d="M 0 0 
L 0 3.5 
" id="m85a2362637" style="stroke:#000000;stroke-width:0.8;"/>
      </defs>
      <g>
       <use style="stroke:#000000;stroke-width:0.8;" x="83.209811" xlink:href="#m85a2362637" y="307.584"/>
      </g>
     </g>
     <g id="text_1">
      <!-- 0 -->
      <g transform="translate(80.028561 322.182437)scale(0.1 -0.1)">
       <defs>
        <path d="M 31.78125 66.40625 
Q 24.171875 66.40625 20.328125 58.90625 
Q 16.5 51.421875 16.5 36.375 
Q 16.5 21.390625 20.328125 13.890625 
Q 24.171875 6.390625 31.78125 6.390625 
Q 39.453125 6.390625 43.28125 13.890625 
Q 47.125 21.390625 47.125 36.375 
Q 47.125 51.421875 43.28125 58.90625 
Q 39.453125 66.40625 31.78125 66.40625 
z
M 31.78125 74.21875 
Q 44.046875 74.21875 50.515625 64.515625 
Q 56.984375 54.828125 56.984375 36.375 
Q 56.984375 17.96875 50.515625 8.265625 
Q 44.046875 -1.421875 31.78125 -1.421875 
Q 19.53125 -1.421875 13.0625 8.265625 
Q 6.59375 17.96875 6.59375 36.375 
Q 6.59375 54.828125 13.0625 64.515625 
Q 19.53125 74.21875 31.78125 74.21875 
z
" id="DejaVuSans-48"/>
       </defs>
       <use xlink:href="#DejaVuSans-48"/>
      </g>
     </g>
    </g>
    <g id="xtick_2">
     <g id="line2d_2">
      <g>
       <use style="stroke:#000000;stroke-width:0.8;" x="125.481596" xlink:href="#m85a2362637" y="307.584"/>
      </g>
     </g>
     <g id="text_2">
      <!-- 20 -->
      <g transform="translate(119.119096 322.182437)scale(0.1 -0.1)">
       <defs>
        <path d="M 19.1875 8.296875 
L 53.609375 8.296875 
L 53.609375 0 
L 7.328125 0 
L 7.328125 8.296875 
Q 12.9375 14.109375 22.625 23.890625 
Q 32.328125 33.6875 34.8125 36.53125 
Q 39.546875 41.84375 41.421875 45.53125 
Q 43.3125 49.21875 43.3125 52.78125 
Q 43.3125 58.59375 39.234375 62.25 
Q 35.15625 65.921875 28.609375 65.921875 
Q 23.96875 65.921875 18.8125 64.3125 
Q 13.671875 62.703125 7.8125 59.421875 
L 7.8125 69.390625 
Q 13.765625 71.78125 18.9375 73 
Q 24.125 74.21875 28.421875 74.21875 
Q 39.75 74.21875 46.484375 68.546875 
Q 53.21875 62.890625 53.21875 53.421875 
Q 53.21875 48.921875 51.53125 44.890625 
Q 49.859375 40.875 45.40625 35.40625 
Q 44.1875 33.984375 37.640625 27.21875 
Q 31.109375 20.453125 19.1875 8.296875 
z
" id="DejaVuSans-50"/>
       </defs>
       <use xlink:href="#DejaVuSans-50"/>
       <use x="63.623047" xlink:href="#DejaVuSans-48"/>
      </g>
     </g>
    </g>
    <g id="xtick_3">
     <g id="line2d_3">
      <g>
       <use style="stroke:#000000;stroke-width:0.8;" x="167.753381" xlink:href="#m85a2362637" y="307.584"/>
      </g>
     </g>
     <g id="text_3">
      <!-- 40 -->
      <g transform="translate(161.390881 322.182437)scale(0.1 -0.1)">
       <defs>
        <path d="M 37.796875 64.3125 
L 12.890625 25.390625 
L 37.796875 25.390625 
z
M 35.203125 72.90625 
L 47.609375 72.90625 
L 47.609375 25.390625 
L 58.015625 25.390625 
L 58.015625 17.1875 
L 47.609375 17.1875 
L 47.609375 0 
L 37.796875 0 
L 37.796875 17.1875 
L 4.890625 17.1875 
L 4.890625 26.703125 
z
" id="DejaVuSans-52"/>
       </defs>
       <use xlink:href="#DejaVuSans-52"/>
       <use x="63.623047" xlink:href="#DejaVuSans-48"/>
      </g>
     </g>
    </g>
    <g id="xtick_4">
     <g id="line2d_4">
      <g>
       <use style="stroke:#000000;stroke-width:0.8;" x="210.025166" xlink:href="#m85a2362637" y="307.584"/>
      </g>
     </g>
     <g id="text_4">
      <!-- 60 -->
      <g transform="translate(203.662666 322.182437)scale(0.1 -0.1)">
       <defs>
        <path d="M 33.015625 40.375 
Q 26.375 40.375 22.484375 35.828125 
Q 18.609375 31.296875 18.609375 23.390625 
Q 18.609375 15.53125 22.484375 10.953125 
Q 26.375 6.390625 33.015625 6.390625 
Q 39.65625 6.390625 43.53125 10.953125 
Q 47.40625 15.53125 47.40625 23.390625 
Q 47.40625 31.296875 43.53125 35.828125 
Q 39.65625 40.375 33.015625 40.375 
z
M 52.59375 71.296875 
L 52.59375 62.3125 
Q 48.875 64.0625 45.09375 64.984375 
Q 41.3125 65.921875 37.59375 65.921875 
Q 27.828125 65.921875 22.671875 59.328125 
Q 17.53125 52.734375 16.796875 39.40625 
Q 19.671875 43.65625 24.015625 45.921875 
Q 28.375 48.1875 33.59375 48.1875 
Q 44.578125 48.1875 50.953125 41.515625 
Q 57.328125 34.859375 57.328125 23.390625 
Q 57.328125 12.15625 50.6875 5.359375 
Q 44.046875 -1.421875 33.015625 -1.421875 
Q 20.359375 -1.421875 13.671875 8.265625 
Q 6.984375 17.96875 6.984375 36.375 
Q 6.984375 53.65625 15.1875 63.9375 
Q 23.390625 74.21875 37.203125 74.21875 
Q 40.921875 74.21875 44.703125 73.484375 
Q 48.484375 72.75 52.59375 71.296875 
z
" id="DejaVuSans-54"/>
       </defs>
       <use xlink:href="#DejaVuSans-54"/>
       <use x="63.623047" xlink:href="#DejaVuSans-48"/>
      </g>
     </g>
    </g>
    <g id="xtick_5">
     <g id="line2d_5">
      <g>
       <use style="stroke:#000000;stroke-width:0.8;" x="252.29695" xlink:href="#m85a2362637" y="307.584"/>
      </g>
     </g>
     <g id="text_5">
      <!-- 80 -->
      <g transform="translate(245.93445 322.182437)scale(0.1 -0.1)">
       <defs>
        <path d="M 31.78125 34.625 
Q 24.75 34.625 20.71875 30.859375 
Q 16.703125 27.09375 16.703125 20.515625 
Q 16.703125 13.921875 20.71875 10.15625 
Q 24.75 6.390625 31.78125 6.390625 
Q 38.8125 6.390625 42.859375 10.171875 
Q 46.921875 13.96875 46.921875 20.515625 
Q 46.921875 27.09375 42.890625 30.859375 
Q 38.875 34.625 31.78125 34.625 
z
M 21.921875 38.8125 
Q 15.578125 40.375 12.03125 44.71875 
Q 8.5 49.078125 8.5 55.328125 
Q 8.5 64.0625 14.71875 69.140625 
Q 20.953125 74.21875 31.78125 74.21875 
Q 42.671875 74.21875 48.875 69.140625 
Q 55.078125 64.0625 55.078125 55.328125 
Q 55.078125 49.078125 51.53125 44.71875 
Q 48 40.375 41.703125 38.8125 
Q 48.828125 37.15625 52.796875 32.3125 
Q 56.78125 27.484375 56.78125 20.515625 
Q 56.78125 9.90625 50.3125 4.234375 
Q 43.84375 -1.421875 31.78125 -1.421875 
Q 19.734375 -1.421875 13.25 4.234375 
Q 6.78125 9.90625 6.78125 20.515625 
Q 6.78125 27.484375 10.78125 32.3125 
Q 14.796875 37.15625 21.921875 38.8125 
z
M 18.3125 54.390625 
Q 18.3125 48.734375 21.84375 45.5625 
Q 25.390625 42.390625 31.78125 42.390625 
Q 38.140625 42.390625 41.71875 45.5625 
Q 45.3125 48.734375 45.3125 54.390625 
Q 45.3125 60.0625 41.71875 63.234375 
Q 38.140625 66.40625 31.78125 66.40625 
Q 25.390625 66.40625 21.84375 63.234375 
Q 18.3125 60.0625 18.3125 54.390625 
z
" id="DejaVuSans-56"/>
       </defs>
       <use xlink:href="#DejaVuSans-56"/>
       <use x="63.623047" xlink:href="#DejaVuSans-48"/>
      </g>
     </g>
    </g>
    <g id="xtick_6">
     <g id="line2d_6">
      <g>
       <use style="stroke:#000000;stroke-width:0.8;" x="294.568735" xlink:href="#m85a2362637" y="307.584"/>
      </g>
     </g>
     <g id="text_6">
      <!-- 100 -->
      <g transform="translate(285.024985 322.182437)scale(0.1 -0.1)">
       <defs>
        <path d="M 12.40625 8.296875 
L 28.515625 8.296875 
L 28.515625 63.921875 
L 10.984375 60.40625 
L 10.984375 69.390625 
L 28.421875 72.90625 
L 38.28125 72.90625 
L 38.28125 8.296875 
L 54.390625 8.296875 
L 54.390625 0 
L 12.40625 0 
z
" id="DejaVuSans-49"/>
       </defs>
       <use xlink:href="#DejaVuSans-49"/>
       <use x="63.623047" xlink:href="#DejaVuSans-48"/>
       <use x="127.246094" xlink:href="#DejaVuSans-48"/>
      </g>
     </g>
    </g>
    <g id="xtick_7">
     <g id="line2d_7">
      <g>
       <use style="stroke:#000000;stroke-width:0.8;" x="336.84052" xlink:href="#m85a2362637" y="307.584"/>
      </g>
     </g>
     <g id="text_7">
      <!-- 120 -->
      <g transform="translate(327.29677 322.182437)scale(0.1 -0.1)">
       <use xlink:href="#DejaVuSans-49"/>
       <use x="63.623047" xlink:href="#DejaVuSans-50"/>
       <use x="127.246094" xlink:href="#DejaVuSans-48"/>
      </g>
     </g>
    </g>
    <g id="xtick_8">
     <g id="line2d_8">
      <g>
       <use style="stroke:#000000;stroke-width:0.8;" x="379.112305" xlink:href="#m85a2362637" y="307.584"/>
      </g>
     </g>
     <g id="text_8">
      <!-- 140 -->
      <g transform="translate(369.568555 322.182437)scale(0.1 -0.1)">
       <use xlink:href="#DejaVuSans-49"/>
       <use x="63.623047" xlink:href="#DejaVuSans-52"/>
       <use x="127.246094" xlink:href="#DejaVuSans-48"/>
      </g>
     </g>
    </g>
   </g>
   <g id="matplotlib.axis_2">
    <g id="ytick_1">
     <g id="line2d_9">
      <defs>
       <path d="M 0 0 
L -3.5 0 
" id="mb843bae5c3" style="stroke:#000000;stroke-width:0.8;"/>
      </defs>
      <g>
       <use style="stroke:#000000;stroke-width:0.8;" x="57.6" xlink:href="#mb843bae5c3" y="269.097192"/>
      </g>
     </g>
     <g id="text_9">
      <!-- 0 -->
      <g transform="translate(44.2375 272.89641)scale(0.1 -0.1)">
       <use xlink:href="#DejaVuSans-48"/>
      </g>
     </g>
    </g>
    <g id="ytick_2">
     <g id="line2d_10">
      <g>
       <use style="stroke:#000000;stroke-width:0.8;" x="57.6" xlink:href="#mb843bae5c3" y="226.825407"/>
      </g>
     </g>
     <g id="text_10">
      <!-- 20 -->
      <g transform="translate(37.875 230.624625)scale(0.1 -0.1)">
       <use xlink:href="#DejaVuSans-50"/>
       <use x="63.623047" xlink:href="#DejaVuSans-48"/>
      </g>
     </g>
    </g>
    <g id="ytick_3">
     <g id="line2d_11">
      <g>
       <use style="stroke:#000000;stroke-width:0.8;" x="57.6" xlink:href="#mb843bae5c3" y="184.553622"/>
      </g>
     </g>
     <g id="text_11">
      <!-- 40 -->
      <g transform="translate(37.875 188.35284)scale(0.1 -0.1)">
       <use xlink:href="#DejaVuSans-52"/>
       <use x="63.623047" xlink:href="#DejaVuSans-48"/>
      </g>
     </g>
    </g>
    <g id="ytick_4">
     <g id="line2d_12">
      <g>
       <use style="stroke:#000000;stroke-width:0.8;" x="57.6" xlink:href="#mb843bae5c3" y="142.281837"/>
      </g>
     </g>
     <g id="text_12">
      <!-- 60 -->
      <g transform="translate(37.875 146.081056)scale(0.1 -0.1)">
       <use xlink:href="#DejaVuSans-54"/>
       <use x="63.623047" xlink:href="#DejaVuSans-48"/>
      </g>
     </g>
    </g>
    <g id="ytick_5">
     <g id="line2d_13">
      <g>
       <use style="stroke:#000000;stroke-width:0.8;" x="57.6" xlink:href="#mb843bae5c3" y="100.010052"/>
      </g>
     </g>
     <g id="text_13">
      <!-- 80 -->
      <g transform="translate(37.875 103.809271)scale(0.1 -0.1)">
       <use xlink:href="#DejaVuSans-56"/>
       <use x="63.623047" xlink:href="#DejaVuSans-48"/>
      </g>
     </g>
    </g>
    <g id="ytick_6">
     <g id="line2d_14">
      <g>
       <use style="stroke:#000000;stroke-width:0.8;" x="57.6" xlink:href="#mb843bae5c3" y="57.738267"/>
      </g>
     </g>
     <g id="text_14">
      <!-- 100 -->
      <g transform="translate(31.5125 61.537486)scale(0.1 -0.1)">
       <use xlink:href="#DejaVuSans-49"/>
       <use x="63.623047" xlink:href="#DejaVuSans-48"/>
       <use x="127.246094" xlink:href="#DejaVuSans-48"/>
      </g>
     </g>
    </g>
   </g>
   <g id="line2d_15">
    <path clip-path="url(#p6a21c3c479)" d="M 83.209811 269.097192 
L 83.533024 246.851704 
L 84.137171 213.468683 
L 83.930746 207.79398 
L 83.295935 199.160349 
L 82.617767 190.510507 
L 82.334264 184.806987 
L 82.320535 179.20433 
L 82.450967 176.454335 
L 82.692199 173.745766 
L 83.058683 171.084027 
L 83.564872 168.474522 
L 84.225217 165.922653 
L 85.054172 163.433825 
L 86.03838 160.974123 
L 87.150327 158.510767 
L 89.730281 153.601499 
L 92.73972 148.762835 
L 96.124333 144.051589 
L 99.829809 139.524576 
L 103.801836 135.238611 
L 107.986103 131.250508 
L 112.328297 127.617081 
L 116.774107 124.395146 
L 119.018896 122.956242 
L 121.315427 121.657708 
L 123.702404 120.509243 
L 126.171967 119.49756 
L 128.716259 118.60937 
L 133.997594 117.150318 
L 139.483543 116.025784 
L 145.111238 115.129464 
L 165.016777 112.25476 
L 170.504348 111.069889 
L 173.21661 110.328033 
L 178.711728 108.496018 
L 184.26795 106.347792 
L 198.165771 100.760806 
L 203.623781 98.906247 
L 206.311304 98.14936 
L 208.964567 97.535708 
L 211.578616 97.087519 
L 214.148499 96.82702 
L 216.669261 96.776442 
L 219.135949 96.958013 
L 221.543609 97.39396 
L 223.875151 98.118303 
L 226.123151 99.131152 
L 228.29716 100.403881 
L 230.406727 101.907861 
L 232.461403 103.614465 
L 234.470737 105.495063 
L 238.391579 109.663733 
L 244.171527 116.506 
L 248.068697 121.12636 
L 252.090096 125.526603 
L 254.171257 127.57261 
L 256.312125 129.477705 
L 258.52225 131.213258 
L 260.811182 132.750642 
L 270.680913 138.727557 
L 275.927321 141.724696 
L 281.295914 144.56075 
L 286.72256 147.11056 
L 292.143127 149.248972 
L 294.831089 150.124792 
L 297.493481 150.850829 
L 300.122288 151.411439 
L 302.709491 151.790976 
L 305.247076 151.973796 
L 307.727025 151.944255 
L 310.141321 151.686708 
L 312.496334 151.167272 
L 314.806519 150.378136 
L 317.075988 149.342762 
L 319.308853 148.084612 
L 321.509225 146.627148 
L 323.681218 144.993833 
L 325.828942 143.208128 
L 330.068035 139.273401 
L 334.2594 135.010665 
L 342.630531 126.251956 
L 346.876089 122.13138 
L 349.028259 120.217905 
L 353.399722 116.72559 
L 364.447788 108.284133 
L 386.730162 91.639599 
L 393.40519 86.633844 
L 393.40519 86.633844 
" style="fill:none;stroke:#fea952;stroke-linecap:square;"/>
   </g>
   <g id="line2d_16">
    <path clip-path="url(#p6a21c3c479)" d="M 74.755845 269.015853 
L 75.080209 246.690261 
L 75.685549 213.683736 
L 75.493502 208.33163 
L 74.870729 199.861821 
L 74.177984 191.006711 
L 73.881125 184.950478 
L 73.875672 178.803792 
L 74.029942 175.704338 
L 74.316856 172.592599 
L 74.759033 169.474071 
L 75.380107 166.356555 
L 76.204077 163.25105 
L 77.204859 160.293053 
L 78.332699 157.495816 
L 79.59214 154.722634 
L 80.975266 151.976757 
L 82.474685 149.261858 
L 85.794782 143.941632 
L 89.500011 138.798542 
L 93.541558 133.873554 
L 97.873674 129.210921 
L 102.45392 124.857457 
L 107.24408 120.862313 
L 109.707461 119.015219 
L 112.21172 117.277508 
L 114.857666 115.596873 
L 117.64992 114.039296 
L 120.497487 112.685902 
L 123.385529 111.515585 
L 126.302191 110.506998 
L 129.237911 109.63931 
L 135.135555 108.248117 
L 141.023314 107.195847 
L 149.720747 105.972178 
L 160.753369 104.419891 
L 165.874929 103.463812 
L 170.6683 102.266875 
L 175.728592 100.585452 
L 181.075721 98.519265 
L 195.328255 92.796847 
L 201.331938 90.768458 
L 204.40625 89.912436 
L 207.535879 89.202941 
L 210.726002 88.676264 
L 213.978899 88.374365 
L 217.289898 88.344896 
L 220.642261 88.638927 
L 224.051876 89.320253 
L 227.348083 90.410197 
L 230.394462 91.835122 
L 233.204987 93.519886 
L 235.808557 95.404294 
L 238.23853 97.441867 
L 240.526708 99.595795 
L 244.784365 104.131243 
L 250.664033 111.090881 
L 254.390989 115.513448 
L 258.017096 119.497769 
L 261.533598 122.828466 
L 263.236117 124.195024 
L 265.230588 125.543354 
L 274.923895 131.415016 
L 279.949885 134.288627 
L 284.994617 136.958398 
L 289.967329 139.303664 
L 294.762289 141.210556 
L 299.256775 142.582399 
L 301.349389 143.046609 
L 303.317011 143.358475 
L 305.146375 143.520039 
L 306.830238 143.537595 
L 308.320347 143.430788 
L 309.763454 143.166802 
L 311.297418 142.686429 
L 312.925724 141.977203 
L 314.6402 141.03622 
L 316.428012 139.87012 
L 318.276137 138.492967 
L 322.112099 135.184569 
L 326.093478 131.290754 
L 338.930241 118.013282 
L 343.669363 113.678915 
L 348.229237 110.036626 
L 359.361787 101.530708 
L 381.66704 84.869005 
L 388.323108 79.87747 
L 388.323108 79.87747 
" style="fill:none;stroke:#ffffff;stroke-linecap:square;"/>
   </g>
   <g id="line2d_17">
    <path clip-path="url(#p6a21c3c479)" d="M 91.663777 269.17853 
L 91.98584 247.013147 
L 92.588792 213.253629 
L 92.36799 207.256331 
L 91.72114 198.458877 
L 90.896932 187.306243 
L 90.740176 182.09377 
L 90.871992 177.204332 
L 91.358333 172.693983 
L 91.749636 170.592488 
L 92.246357 168.594256 
L 92.903484 166.574596 
L 94.708515 162.298901 
L 96.985876 157.941141 
L 99.684657 153.584037 
L 102.748655 149.304636 
L 106.11806 145.175598 
L 109.729999 141.2663 
L 113.518286 137.643559 
L 117.412514 134.371849 
L 121.336495 131.512784 
L 124.980934 129.276121 
L 126.90732 128.332584 
L 128.958404 127.479534 
L 131.130326 126.711742 
L 135.810482 125.408017 
L 140.883183 124.363479 
L 146.275254 123.503305 
L 163.678889 121.073597 
L 169.689344 119.936664 
L 172.734849 119.224705 
L 175.76492 118.389191 
L 181.694865 116.406584 
L 187.460179 114.176318 
L 201.003287 108.724766 
L 205.915625 107.044035 
L 210.393254 105.868475 
L 212.43123 105.498773 
L 214.318098 105.279676 
L 216.048623 105.207988 
L 217.629637 105.277098 
L 219.035343 105.467668 
L 220.402219 105.826409 
L 221.85184 106.427182 
L 223.389333 107.287876 
L 225.004898 108.411428 
L 226.684276 109.787062 
L 228.414766 111.394331 
L 231.998793 115.196222 
L 237.67902 121.921119 
L 241.746404 126.739271 
L 246.163097 131.555436 
L 248.551027 133.888397 
L 251.090653 136.126943 
L 253.808384 138.231492 
L 258.772799 141.417927 
L 266.43793 146.040097 
L 271.904756 149.160766 
L 277.597211 152.163101 
L 283.477791 154.917456 
L 286.480922 156.159502 
L 289.523965 157.287389 
L 292.6068 158.281305 
L 295.730187 159.11926 
L 298.895186 159.776268 
L 302.101972 160.223476 
L 305.347777 160.427553 
L 308.623811 160.350914 
L 311.962295 159.942627 
L 315.229214 159.167742 
L 318.31562 158.069844 
L 321.226252 156.708321 
L 323.977506 155.133004 
L 326.590438 153.384176 
L 329.086299 151.494698 
L 331.484315 149.492467 
L 336.049733 145.247968 
L 340.38583 140.836728 
L 350.559527 130.287821 
L 354.387155 126.756895 
L 358.570207 123.414554 
L 369.533788 115.037558 
L 391.793285 98.410194 
L 398.487273 93.390218 
L 398.487273 93.390218 
" style="fill:none;stroke:#ffffff;stroke-linecap:square;"/>
   </g>
   <g id="patch_3">
    <path d="M 57.6 307.584 
L 57.6 41.472 
" style="fill:none;stroke:#000000;stroke-linecap:square;stroke-linejoin:miter;stroke-width:0.8;"/>
   </g>
   <g id="patch_4">
    <path d="M 414.72 307.584 
L 414.72 41.472 
" style="fill:none;stroke:#000000;stroke-linecap:square;stroke-linejoin:miter;stroke-width:0.8;"/>
   </g>
   <g id="patch_5">
    <path d="M 57.6 307.584 
L 414.72 307.584 
" style="fill:none;stroke:#000000;stroke-linecap:square;stroke-linejoin:miter;stroke-width:0.8;"/>
   </g>
   <g id="patch_6">
    <path d="M 57.6 41.472 
L 414.72 41.472 
" style="fill:none;stroke:#000000;stroke-linecap:square;stroke-linejoin:miter;stroke-width:0.8;"/>
   </g>
  </g>
 </g>
 <defs>
  <clipPath id="p6a21c3c479">
   <rect height="266.112" width="357.12" x="57.6" y="41.472"/>
  </clipPath>
 </defs>
</svg>
