<?xml version="1.0" encoding="utf-8" standalone="no"?>
<!DOCTYPE svg PUBLIC "-//W3C//DTD SVG 1.1//EN"
  "http://www.w3.org/Graphics/SVG/1.1/DTD/svg11.dtd">
<!-- Created with matplotlib (https://matplotlib.org/) -->
<svg height="345.6pt" version="1.1" viewBox="0 0 460.8 345.6" width="460.8pt" xmlns="http://www.w3.org/2000/svg" xmlns:xlink="http://www.w3.org/1999/xlink">
 <metadata>
  <rdf:RDF xmlns:cc="http://creativecommons.org/ns#" xmlns:dc="http://purl.org/dc/elements/1.1/" xmlns:rdf="http://www.w3.org/1999/02/22-rdf-syntax-ns#">
   <cc:Work>
    <dc:type rdf:resource="http://purl.org/dc/dcmitype/StillImage"/>
    <dc:date>2021-06-23T08:33:13.673186</dc:date>
    <dc:format>image/svg+xml</dc:format>
    <dc:creator>
     <cc:Agent>
      <dc:title>Matplotlib v3.3.3, https://matplotlib.org/</dc:title>
     </cc:Agent>
    </dc:creator>
   </cc:Work>
  </rdf:RDF>
 </metadata>
 <defs>
  <style type="text/css">*{stroke-linecap:butt;stroke-linejoin:round;}</style>
 </defs>
 <g id="figure_1">
  <g id="patch_1">
   <path d="M 0 345.6 
L 460.8 345.6 
L 460.8 0 
L 0 0 
z
" style="fill:#ffffff;"/>
  </g>
  <g id="axes_1">
   <g id="patch_2">
    <path d="M 57.6 307.584 
L 414.72 307.584 
L 414.72 41.472 
L 57.6 41.472 
z
" style="fill:#7d9051;"/>
   </g>
   <g id="matplotlib.axis_1">
    <g id="xtick_1">
     <g id="line2d_1">
      <defs>
       <path d="M 0 0 
L 0 3.5 
" id="m1447d86976" style="stroke:#000000;stroke-width:0.8;"/>
      </defs>
      <g>
       <use style="stroke:#000000;stroke-width:0.8;" x="88.838678" xlink:href="#m1447d86976" y="307.584"/>
      </g>
     </g>
     <g id="text_1">
      <!-- −150 -->
      <g transform="translate(75.105085 322.182437)scale(0.1 -0.1)">
       <defs>
        <path d="M 10.59375 35.5 
L 73.1875 35.5 
L 73.1875 27.203125 
L 10.59375 27.203125 
z
" id="DejaVuSans-8722"/>
        <path d="M 12.40625 8.296875 
L 28.515625 8.296875 
L 28.515625 63.921875 
L 10.984375 60.40625 
L 10.984375 69.390625 
L 28.421875 72.90625 
L 38.28125 72.90625 
L 38.28125 8.296875 
L 54.390625 8.296875 
L 54.390625 0 
L 12.40625 0 
z
" id="DejaVuSans-49"/>
        <path d="M 10.796875 72.90625 
L 49.515625 72.90625 
L 49.515625 64.59375 
L 19.828125 64.59375 
L 19.828125 46.734375 
Q 21.96875 47.46875 24.109375 47.828125 
Q 26.265625 48.1875 28.421875 48.1875 
Q 40.625 48.1875 47.75 41.5 
Q 54.890625 34.8125 54.890625 23.390625 
Q 54.890625 11.625 47.5625 5.09375 
Q 40.234375 -1.421875 26.90625 -1.421875 
Q 22.3125 -1.421875 17.546875 -0.640625 
Q 12.796875 0.140625 7.71875 1.703125 
L 7.71875 11.625 
Q 12.109375 9.234375 16.796875 8.0625 
Q 21.484375 6.890625 26.703125 6.890625 
Q 35.15625 6.890625 40.078125 11.328125 
Q 45.015625 15.765625 45.015625 23.390625 
Q 45.015625 31 40.078125 35.4375 
Q 35.15625 39.890625 26.703125 39.890625 
Q 22.75 39.890625 18.8125 39.015625 
Q 14.890625 38.140625 10.796875 36.28125 
z
" id="DejaVuSans-53"/>
        <path d="M 31.78125 66.40625 
Q 24.171875 66.40625 20.328125 58.90625 
Q 16.5 51.421875 16.5 36.375 
Q 16.5 21.390625 20.328125 13.890625 
Q 24.171875 6.390625 31.78125 6.390625 
Q 39.453125 6.390625 43.28125 13.890625 
Q 47.125 21.390625 47.125 36.375 
Q 47.125 51.421875 43.28125 58.90625 
Q 39.453125 66.40625 31.78125 66.40625 
z
M 31.78125 74.21875 
Q 44.046875 74.21875 50.515625 64.515625 
Q 56.984375 54.828125 56.984375 36.375 
Q 56.984375 17.96875 50.515625 8.265625 
Q 44.046875 -1.421875 31.78125 -1.421875 
Q 19.53125 -1.421875 13.0625 8.265625 
Q 6.59375 17.96875 6.59375 36.375 
Q 6.59375 54.828125 13.0625 64.515625 
Q 19.53125 74.21875 31.78125 74.21875 
z
" id="DejaVuSans-48"/>
       </defs>
       <use xlink:href="#DejaVuSans-8722"/>
       <use x="83.789062" xlink:href="#DejaVuSans-49"/>
       <use x="147.412109" xlink:href="#DejaVuSans-53"/>
       <use x="211.035156" xlink:href="#DejaVuSans-48"/>
      </g>
     </g>
    </g>
    <g id="xtick_2">
     <g id="line2d_2">
      <g>
       <use style="stroke:#000000;stroke-width:0.8;" x="155.081574" xlink:href="#m1447d86976" y="307.584"/>
      </g>
     </g>
     <g id="text_2">
      <!-- −100 -->
      <g transform="translate(141.34798 322.182437)scale(0.1 -0.1)">
       <use xlink:href="#DejaVuSans-8722"/>
       <use x="83.789062" xlink:href="#DejaVuSans-49"/>
       <use x="147.412109" xlink:href="#DejaVuSans-48"/>
       <use x="211.035156" xlink:href="#DejaVuSans-48"/>
      </g>
     </g>
    </g>
    <g id="xtick_3">
     <g id="line2d_3">
      <g>
       <use style="stroke:#000000;stroke-width:0.8;" x="221.324469" xlink:href="#m1447d86976" y="307.584"/>
      </g>
     </g>
     <g id="text_3">
      <!-- −50 -->
      <g transform="translate(210.772125 322.182437)scale(0.1 -0.1)">
       <use xlink:href="#DejaVuSans-8722"/>
       <use x="83.789062" xlink:href="#DejaVuSans-53"/>
       <use x="147.412109" xlink:href="#DejaVuSans-48"/>
      </g>
     </g>
    </g>
    <g id="xtick_4">
     <g id="line2d_4">
      <g>
       <use style="stroke:#000000;stroke-width:0.8;" x="287.567364" xlink:href="#m1447d86976" y="307.584"/>
      </g>
     </g>
     <g id="text_4">
      <!-- 0 -->
      <g transform="translate(284.386114 322.182437)scale(0.1 -0.1)">
       <use xlink:href="#DejaVuSans-48"/>
      </g>
     </g>
    </g>
    <g id="xtick_5">
     <g id="line2d_5">
      <g>
       <use style="stroke:#000000;stroke-width:0.8;" x="353.810259" xlink:href="#m1447d86976" y="307.584"/>
      </g>
     </g>
     <g id="text_5">
      <!-- 50 -->
      <g transform="translate(347.447759 322.182437)scale(0.1 -0.1)">
       <use xlink:href="#DejaVuSans-53"/>
       <use x="63.623047" xlink:href="#DejaVuSans-48"/>
      </g>
     </g>
    </g>
   </g>
   <g id="matplotlib.axis_2">
    <g id="ytick_1">
     <g id="line2d_6">
      <defs>
       <path d="M 0 0 
L -3.5 0 
" id="m8bb79f4b24" style="stroke:#000000;stroke-width:0.8;"/>
      </defs>
      <g>
       <use style="stroke:#000000;stroke-width:0.8;" x="57.6" xlink:href="#m8bb79f4b24" y="295.437014"/>
      </g>
     </g>
     <g id="text_6">
      <!-- 0 -->
      <g transform="translate(44.2375 299.236233)scale(0.1 -0.1)">
       <use xlink:href="#DejaVuSans-48"/>
      </g>
     </g>
    </g>
    <g id="ytick_2">
     <g id="line2d_7">
      <g>
       <use style="stroke:#000000;stroke-width:0.8;" x="57.6" xlink:href="#m8bb79f4b24" y="262.315567"/>
      </g>
     </g>
     <g id="text_7">
      <!-- 25 -->
      <g transform="translate(37.875 266.114786)scale(0.1 -0.1)">
       <defs>
        <path d="M 19.1875 8.296875 
L 53.609375 8.296875 
L 53.609375 0 
L 7.328125 0 
L 7.328125 8.296875 
Q 12.9375 14.109375 22.625 23.890625 
Q 32.328125 33.6875 34.8125 36.53125 
Q 39.546875 41.84375 41.421875 45.53125 
Q 43.3125 49.21875 43.3125 52.78125 
Q 43.3125 58.59375 39.234375 62.25 
Q 35.15625 65.921875 28.609375 65.921875 
Q 23.96875 65.921875 18.8125 64.3125 
Q 13.671875 62.703125 7.8125 59.421875 
L 7.8125 69.390625 
Q 13.765625 71.78125 18.9375 73 
Q 24.125 74.21875 28.421875 74.21875 
Q 39.75 74.21875 46.484375 68.546875 
Q 53.21875 62.890625 53.21875 53.421875 
Q 53.21875 48.921875 51.53125 44.890625 
Q 49.859375 40.875 45.40625 35.40625 
Q 44.1875 33.984375 37.640625 27.21875 
Q 31.109375 20.453125 19.1875 8.296875 
z
" id="DejaVuSans-50"/>
       </defs>
       <use xlink:href="#DejaVuSans-50"/>
       <use x="63.623047" xlink:href="#DejaVuSans-53"/>
      </g>
     </g>
    </g>
    <g id="ytick_3">
     <g id="line2d_8">
      <g>
       <use style="stroke:#000000;stroke-width:0.8;" x="57.6" xlink:href="#m8bb79f4b24" y="229.194119"/>
      </g>
     </g>
     <g id="text_8">
      <!-- 50 -->
      <g transform="translate(37.875 232.993338)scale(0.1 -0.1)">
       <use xlink:href="#DejaVuSans-53"/>
       <use x="63.623047" xlink:href="#DejaVuSans-48"/>
      </g>
     </g>
    </g>
    <g id="ytick_4">
     <g id="line2d_9">
      <g>
       <use style="stroke:#000000;stroke-width:0.8;" x="57.6" xlink:href="#m8bb79f4b24" y="196.072672"/>
      </g>
     </g>
     <g id="text_9">
      <!-- 75 -->
      <g transform="translate(37.875 199.87189)scale(0.1 -0.1)">
       <defs>
        <path d="M 8.203125 72.90625 
L 55.078125 72.90625 
L 55.078125 68.703125 
L 28.609375 0 
L 18.3125 0 
L 43.21875 64.59375 
L 8.203125 64.59375 
z
" id="DejaVuSans-55"/>
       </defs>
       <use xlink:href="#DejaVuSans-55"/>
       <use x="63.623047" xlink:href="#DejaVuSans-53"/>
      </g>
     </g>
    </g>
    <g id="ytick_5">
     <g id="line2d_10">
      <g>
       <use style="stroke:#000000;stroke-width:0.8;" x="57.6" xlink:href="#m8bb79f4b24" y="162.951224"/>
      </g>
     </g>
     <g id="text_10">
      <!-- 100 -->
      <g transform="translate(31.5125 166.750443)scale(0.1 -0.1)">
       <use xlink:href="#DejaVuSans-49"/>
       <use x="63.623047" xlink:href="#DejaVuSans-48"/>
       <use x="127.246094" xlink:href="#DejaVuSans-48"/>
      </g>
     </g>
    </g>
    <g id="ytick_6">
     <g id="line2d_11">
      <g>
       <use style="stroke:#000000;stroke-width:0.8;" x="57.6" xlink:href="#m8bb79f4b24" y="129.829776"/>
      </g>
     </g>
     <g id="text_11">
      <!-- 125 -->
      <g transform="translate(31.5125 133.628995)scale(0.1 -0.1)">
       <use xlink:href="#DejaVuSans-49"/>
       <use x="63.623047" xlink:href="#DejaVuSans-50"/>
       <use x="127.246094" xlink:href="#DejaVuSans-53"/>
      </g>
     </g>
    </g>
    <g id="ytick_7">
     <g id="line2d_12">
      <g>
       <use style="stroke:#000000;stroke-width:0.8;" x="57.6" xlink:href="#m8bb79f4b24" y="96.708329"/>
      </g>
     </g>
     <g id="text_12">
      <!-- 150 -->
      <g transform="translate(31.5125 100.507548)scale(0.1 -0.1)">
       <use xlink:href="#DejaVuSans-49"/>
       <use x="63.623047" xlink:href="#DejaVuSans-53"/>
       <use x="127.246094" xlink:href="#DejaVuSans-48"/>
      </g>
     </g>
    </g>
    <g id="ytick_8">
     <g id="line2d_13">
      <g>
       <use style="stroke:#000000;stroke-width:0.8;" x="57.6" xlink:href="#m8bb79f4b24" y="63.586881"/>
      </g>
     </g>
     <g id="text_13">
      <!-- 175 -->
      <g transform="translate(31.5125 67.3861)scale(0.1 -0.1)">
       <use xlink:href="#DejaVuSans-49"/>
       <use x="63.623047" xlink:href="#DejaVuSans-55"/>
       <use x="127.246094" xlink:href="#DejaVuSans-53"/>
      </g>
     </g>
    </g>
   </g>
   <g id="line2d_14">
    <path clip-path="url(#p9acb692e33)" d="M 287.567364 295.437014 
L 287.837468 278.007031 
L 288.326863 257.081431 
L 289.175934 239.589669 
L 289.113148 234.378316 
L 288.895942 230.924059 
L 288.494884 227.490922 
L 287.861196 224.085327 
L 287.038861 220.701994 
L 285.574309 215.653751 
L 282.507346 205.568824 
L 281.649784 202.185491 
L 280.968059 198.779896 
L 280.544451 195.31888 
L 280.521674 191.669471 
L 280.80159 187.879604 
L 282.256539 174.631729 
L 282.262746 171.172177 
L 282.114983 169.545265 
L 281.844612 167.999891 
L 281.435108 166.545776 
L 280.869948 165.192641 
L 280.13261 163.950206 
L 279.216858 162.833022 
L 278.137429 161.840882 
L 276.909252 160.961377 
L 275.547257 160.182096 
L 274.066373 159.490628 
L 270.807654 158.32149 
L 267.25253 157.354678 
L 256.003085 154.67535 
L 252.456694 153.524994 
L 250.788823 152.845735 
L 247.693585 151.249017 
L 243.250526 148.548678 
L 238.936766 145.605162 
L 233.308861 141.447689 
L 223.502574 134.09209 
L 220.60475 132.100033 
L 217.420861 130.219638 
L 212.293662 127.526932 
L 205.457397 123.936657 
L 202.320357 122.03921 
L 199.537285 120.01293 
L 198.317528 118.937267 
L 197.233112 117.812344 
L 196.299653 116.632478 
L 195.532767 115.391983 
L 194.948071 114.085177 
L 194.595736 112.699091 
L 194.496277 111.230374 
L 194.620823 109.68777 
L 194.940505 108.080023 
L 195.426452 106.415876 
L 196.781666 102.953357 
L 199.339735 97.555175 
L 201.058465 93.922126 
L 202.518424 90.343276 
L 203.07919 88.596035 
L 203.488653 86.888574 
L 203.717945 85.229639 
L 203.738195 83.627971 
L 203.520533 82.092316 
L 203.091984 80.611942 
L 202.507786 79.168142 
L 201.781383 77.757692 
L 200.926221 76.377368 
L 198.883404 73.6942 
L 196.486902 71.092846 
L 193.844282 68.547515 
L 184.209923 59.707653 
L 181.790908 57.095242 
L 181.790908 57.095242 
" style="fill:none;stroke:#fea952;stroke-linecap:square;"/>
   </g>
   <g id="line2d_15">
    <path clip-path="url(#p9acb692e33)" d="M 282.268178 295.386029 
L 282.539098 277.900967 
L 283.034512 256.807581 
L 283.876576 239.561868 
L 283.820652 234.649345 
L 283.622961 231.452875 
L 283.270275 228.3783 
L 282.697586 225.277427 
L 281.48686 220.499825 
L 279.467708 213.877515 
L 277.384422 206.92515 
L 276.469333 203.302139 
L 275.727441 199.567235 
L 275.435029 197.568316 
L 275.247714 195.487828 
L 275.231332 191.359221 
L 275.53411 187.298549 
L 277.006586 173.000884 
L 276.894842 170.458557 
L 276.545063 168.588185 
L 276.034119 167.309722 
L 275.630674 166.734721 
L 275.052006 166.149494 
L 274.277457 165.56112 
L 273.30517 164.983869 
L 270.818924 163.906434 
L 267.740899 162.951717 
L 262.362663 161.662322 
L 256.478678 160.289731 
L 252.46019 159.136514 
L 250.457851 158.433008 
L 248.476271 157.613972 
L 245.037123 155.834558 
L 241.871201 153.951764 
L 237.314734 150.94308 
L 231.5164 146.733549 
L 219.140782 137.492789 
L 216.419808 135.750098 
L 213.288953 134.007668 
L 201.034411 127.489257 
L 197.642269 125.242872 
L 196.032154 123.987603 
L 194.502202 122.61521 
L 193.077083 121.100413 
L 191.792041 119.419127 
L 190.695449 117.556314 
L 189.811976 115.390742 
L 189.308414 113.057141 
L 189.214034 110.803899 
L 189.423145 108.654272 
L 189.85352 106.594572 
L 190.446895 104.602597 
L 191.959318 100.755874 
L 194.566474 95.253011 
L 196.888321 90.220998 
L 197.925866 87.360223 
L 198.418937 85.162644 
L 198.491207 84.371673 
L 198.430106 83.565926 
L 198.179461 82.599676 
L 197.796464 81.594544 
L 196.619538 79.465484 
L 194.917973 77.209785 
L 192.767696 74.86796 
L 188.928007 71.234779 
L 181.802121 64.770695 
L 179.008886 61.937807 
L 177.835843 60.622483 
L 177.835843 60.622483 
" style="fill:none;stroke:#ffffff;stroke-linecap:square;"/>
   </g>
   <g id="line2d_16">
    <path clip-path="url(#p9acb692e33)" d="M 292.86655 295.488 
L 293.135839 278.113094 
L 293.619215 257.355281 
L 294.475293 239.617471 
L 294.405645 234.107287 
L 294.168923 230.395242 
L 293.719493 226.603544 
L 293.024807 222.893227 
L 292.147915 219.29432 
L 290.635026 214.081135 
L 287.63027 204.212497 
L 286.494573 199.522556 
L 285.986288 196.564903 
L 285.785461 193.616159 
L 285.910685 190.256351 
L 286.508081 184.703585 
L 287.423302 176.797565 
L 287.60226 172.740926 
L 287.540454 170.692834 
L 287.335124 168.631974 
L 286.945626 166.563358 
L 286.325153 164.503367 
L 285.427264 162.488043 
L 284.2311 160.59069 
L 282.803042 158.931322 
L 281.222853 157.53227 
L 279.541047 156.361635 
L 277.789344 155.380323 
L 275.986419 154.551256 
L 272.271787 153.228329 
L 268.474064 152.197951 
L 255.939326 149.124945 
L 253.101376 148.077499 
L 250.350047 146.663476 
L 246.172349 144.127488 
L 242.034205 141.30518 
L 236.51402 137.227389 
L 226.56831 129.769448 
L 223.368846 127.578556 
L 219.945127 125.560018 
L 214.698422 122.804527 
L 208.126 119.358171 
L 205.32618 117.674694 
L 203.042416 116.038256 
L 201.389141 114.524275 
L 200.370085 113.227652 
L 199.883059 112.341041 
L 199.77852 111.656849 
L 199.818501 110.721267 
L 200.027489 109.565473 
L 200.939191 106.748038 
L 202.373641 103.459674 
L 206.78213 94.02211 
L 207.564347 91.962732 
L 208.232514 89.831846 
L 208.73818 87.614143 
L 209.016953 85.296633 
L 208.985183 82.884269 
L 208.61096 80.618705 
L 208.004508 78.624208 
L 207.219107 76.74174 
L 206.286318 74.966718 
L 205.232903 73.289251 
L 202.848834 70.178615 
L 200.206108 67.317733 
L 197.417103 64.633576 
L 188.031736 56.036452 
L 185.745973 53.568 
L 185.745973 53.568 
" style="fill:none;stroke:#ffffff;stroke-linecap:square;"/>
   </g>
   <g id="patch_3">
    <path d="M 57.6 307.584 
L 57.6 41.472 
" style="fill:none;stroke:#000000;stroke-linecap:square;stroke-linejoin:miter;stroke-width:0.8;"/>
   </g>
   <g id="patch_4">
    <path d="M 414.72 307.584 
L 414.72 41.472 
" style="fill:none;stroke:#000000;stroke-linecap:square;stroke-linejoin:miter;stroke-width:0.8;"/>
   </g>
   <g id="patch_5">
    <path d="M 57.6 307.584 
L 414.72 307.584 
" style="fill:none;stroke:#000000;stroke-linecap:square;stroke-linejoin:miter;stroke-width:0.8;"/>
   </g>
   <g id="patch_6">
    <path d="M 57.6 41.472 
L 414.72 41.472 
" style="fill:none;stroke:#000000;stroke-linecap:square;stroke-linejoin:miter;stroke-width:0.8;"/>
   </g>
  </g>
 </g>
 <defs>
  <clipPath id="p9acb692e33">
   <rect height="266.112" width="357.12" x="57.6" y="41.472"/>
  </clipPath>
 </defs>
</svg>
