<?xml version="1.0" encoding="utf-8" standalone="no"?>
<!DOCTYPE svg PUBLIC "-//W3C//DTD SVG 1.1//EN"
  "http://www.w3.org/Graphics/SVG/1.1/DTD/svg11.dtd">
<!-- Created with matplotlib (https://matplotlib.org/) -->
<svg height="345.6pt" version="1.1" viewBox="0 0 460.8 345.6" width="460.8pt" xmlns="http://www.w3.org/2000/svg" xmlns:xlink="http://www.w3.org/1999/xlink">
 <metadata>
  <rdf:RDF xmlns:cc="http://creativecommons.org/ns#" xmlns:dc="http://purl.org/dc/elements/1.1/" xmlns:rdf="http://www.w3.org/1999/02/22-rdf-syntax-ns#">
   <cc:Work>
    <dc:type rdf:resource="http://purl.org/dc/dcmitype/StillImage"/>
    <dc:date>2021-06-04T07:29:28.162270</dc:date>
    <dc:format>image/svg+xml</dc:format>
    <dc:creator>
     <cc:Agent>
      <dc:title>Matplotlib v3.3.3, https://matplotlib.org/</dc:title>
     </cc:Agent>
    </dc:creator>
   </cc:Work>
  </rdf:RDF>
 </metadata>
 <defs>
  <style type="text/css">*{stroke-linecap:butt;stroke-linejoin:round;}</style>
 </defs>
 <g id="figure_1">
  <g id="patch_1">
   <path d="M 0 345.6 
L 460.8 345.6 
L 460.8 0 
L 0 0 
z
" style="fill:#ffffff;"/>
  </g>
  <g id="axes_1">
   <g id="patch_2">
    <path d="M 57.6 307.584 
L 414.72 307.584 
L 414.72 41.472 
L 57.6 41.472 
z
" style="fill:#7d9051;"/>
   </g>
   <g id="matplotlib.axis_1">
    <g id="xtick_1">
     <g id="line2d_1">
      <defs>
       <path d="M 0 0 
L 0 3.5 
" id="m12211578d9" style="stroke:#000000;stroke-width:0.8;"/>
      </defs>
      <g>
       <use style="stroke:#000000;stroke-width:0.8;" x="82.592567" xlink:href="#m12211578d9" y="307.584"/>
      </g>
     </g>
     <g id="text_1">
      <!-- −100 -->
      <g transform="translate(68.858973 322.182437)scale(0.1 -0.1)">
       <defs>
        <path d="M 10.59375 35.5 
L 73.1875 35.5 
L 73.1875 27.203125 
L 10.59375 27.203125 
z
" id="DejaVuSans-8722"/>
        <path d="M 12.40625 8.296875 
L 28.515625 8.296875 
L 28.515625 63.921875 
L 10.984375 60.40625 
L 10.984375 69.390625 
L 28.421875 72.90625 
L 38.28125 72.90625 
L 38.28125 8.296875 
L 54.390625 8.296875 
L 54.390625 0 
L 12.40625 0 
z
" id="DejaVuSans-49"/>
        <path d="M 31.78125 66.40625 
Q 24.171875 66.40625 20.328125 58.90625 
Q 16.5 51.421875 16.5 36.375 
Q 16.5 21.390625 20.328125 13.890625 
Q 24.171875 6.390625 31.78125 6.390625 
Q 39.453125 6.390625 43.28125 13.890625 
Q 47.125 21.390625 47.125 36.375 
Q 47.125 51.421875 43.28125 58.90625 
Q 39.453125 66.40625 31.78125 66.40625 
z
M 31.78125 74.21875 
Q 44.046875 74.21875 50.515625 64.515625 
Q 56.984375 54.828125 56.984375 36.375 
Q 56.984375 17.96875 50.515625 8.265625 
Q 44.046875 -1.421875 31.78125 -1.421875 
Q 19.53125 -1.421875 13.0625 8.265625 
Q 6.59375 17.96875 6.59375 36.375 
Q 6.59375 54.828125 13.0625 64.515625 
Q 19.53125 74.21875 31.78125 74.21875 
z
" id="DejaVuSans-48"/>
       </defs>
       <use xlink:href="#DejaVuSans-8722"/>
       <use x="83.789062" xlink:href="#DejaVuSans-49"/>
       <use x="147.412109" xlink:href="#DejaVuSans-48"/>
       <use x="211.035156" xlink:href="#DejaVuSans-48"/>
      </g>
     </g>
    </g>
    <g id="xtick_2">
     <g id="line2d_2">
      <g>
       <use style="stroke:#000000;stroke-width:0.8;" x="142.503306" xlink:href="#m12211578d9" y="307.584"/>
      </g>
     </g>
     <g id="text_2">
      <!-- −50 -->
      <g transform="translate(131.950963 322.182437)scale(0.1 -0.1)">
       <defs>
        <path d="M 10.796875 72.90625 
L 49.515625 72.90625 
L 49.515625 64.59375 
L 19.828125 64.59375 
L 19.828125 46.734375 
Q 21.96875 47.46875 24.109375 47.828125 
Q 26.265625 48.1875 28.421875 48.1875 
Q 40.625 48.1875 47.75 41.5 
Q 54.890625 34.8125 54.890625 23.390625 
Q 54.890625 11.625 47.5625 5.09375 
Q 40.234375 -1.421875 26.90625 -1.421875 
Q 22.3125 -1.421875 17.546875 -0.640625 
Q 12.796875 0.140625 7.71875 1.703125 
L 7.71875 11.625 
Q 12.109375 9.234375 16.796875 8.0625 
Q 21.484375 6.890625 26.703125 6.890625 
Q 35.15625 6.890625 40.078125 11.328125 
Q 45.015625 15.765625 45.015625 23.390625 
Q 45.015625 31 40.078125 35.4375 
Q 35.15625 39.890625 26.703125 39.890625 
Q 22.75 39.890625 18.8125 39.015625 
Q 14.890625 38.140625 10.796875 36.28125 
z
" id="DejaVuSans-53"/>
       </defs>
       <use xlink:href="#DejaVuSans-8722"/>
       <use x="83.789062" xlink:href="#DejaVuSans-53"/>
       <use x="147.412109" xlink:href="#DejaVuSans-48"/>
      </g>
     </g>
    </g>
    <g id="xtick_3">
     <g id="line2d_3">
      <g>
       <use style="stroke:#000000;stroke-width:0.8;" x="202.414046" xlink:href="#m12211578d9" y="307.584"/>
      </g>
     </g>
     <g id="text_3">
      <!-- 0 -->
      <g transform="translate(199.232796 322.182437)scale(0.1 -0.1)">
       <use xlink:href="#DejaVuSans-48"/>
      </g>
     </g>
    </g>
    <g id="xtick_4">
     <g id="line2d_4">
      <g>
       <use style="stroke:#000000;stroke-width:0.8;" x="262.324785" xlink:href="#m12211578d9" y="307.584"/>
      </g>
     </g>
     <g id="text_4">
      <!-- 50 -->
      <g transform="translate(255.962285 322.182437)scale(0.1 -0.1)">
       <use xlink:href="#DejaVuSans-53"/>
       <use x="63.623047" xlink:href="#DejaVuSans-48"/>
      </g>
     </g>
    </g>
    <g id="xtick_5">
     <g id="line2d_5">
      <g>
       <use style="stroke:#000000;stroke-width:0.8;" x="322.235525" xlink:href="#m12211578d9" y="307.584"/>
      </g>
     </g>
     <g id="text_5">
      <!-- 100 -->
      <g transform="translate(312.691775 322.182437)scale(0.1 -0.1)">
       <use xlink:href="#DejaVuSans-49"/>
       <use x="63.623047" xlink:href="#DejaVuSans-48"/>
       <use x="127.246094" xlink:href="#DejaVuSans-48"/>
      </g>
     </g>
    </g>
    <g id="xtick_6">
     <g id="line2d_6">
      <g>
       <use style="stroke:#000000;stroke-width:0.8;" x="382.146264" xlink:href="#m12211578d9" y="307.584"/>
      </g>
     </g>
     <g id="text_6">
      <!-- 150 -->
      <g transform="translate(372.602514 322.182437)scale(0.1 -0.1)">
       <use xlink:href="#DejaVuSans-49"/>
       <use x="63.623047" xlink:href="#DejaVuSans-53"/>
       <use x="127.246094" xlink:href="#DejaVuSans-48"/>
      </g>
     </g>
    </g>
   </g>
   <g id="matplotlib.axis_2">
    <g id="ytick_1">
     <g id="line2d_7">
      <defs>
       <path d="M 0 0 
L -3.5 0 
" id="m2a7ff9ae7f" style="stroke:#000000;stroke-width:0.8;"/>
      </defs>
      <g>
       <use style="stroke:#000000;stroke-width:0.8;" x="57.6" xlink:href="#m2a7ff9ae7f" y="295.441888"/>
      </g>
     </g>
     <g id="text_7">
      <!-- 0 -->
      <g transform="translate(44.2375 299.241107)scale(0.1 -0.1)">
       <use xlink:href="#DejaVuSans-48"/>
      </g>
     </g>
    </g>
    <g id="ytick_2">
     <g id="line2d_8">
      <g>
       <use style="stroke:#000000;stroke-width:0.8;" x="57.6" xlink:href="#m2a7ff9ae7f" y="265.486518"/>
      </g>
     </g>
     <g id="text_8">
      <!-- 25 -->
      <g transform="translate(37.875 269.285737)scale(0.1 -0.1)">
       <defs>
        <path d="M 19.1875 8.296875 
L 53.609375 8.296875 
L 53.609375 0 
L 7.328125 0 
L 7.328125 8.296875 
Q 12.9375 14.109375 22.625 23.890625 
Q 32.328125 33.6875 34.8125 36.53125 
Q 39.546875 41.84375 41.421875 45.53125 
Q 43.3125 49.21875 43.3125 52.78125 
Q 43.3125 58.59375 39.234375 62.25 
Q 35.15625 65.921875 28.609375 65.921875 
Q 23.96875 65.921875 18.8125 64.3125 
Q 13.671875 62.703125 7.8125 59.421875 
L 7.8125 69.390625 
Q 13.765625 71.78125 18.9375 73 
Q 24.125 74.21875 28.421875 74.21875 
Q 39.75 74.21875 46.484375 68.546875 
Q 53.21875 62.890625 53.21875 53.421875 
Q 53.21875 48.921875 51.53125 44.890625 
Q 49.859375 40.875 45.40625 35.40625 
Q 44.1875 33.984375 37.640625 27.21875 
Q 31.109375 20.453125 19.1875 8.296875 
z
" id="DejaVuSans-50"/>
       </defs>
       <use xlink:href="#DejaVuSans-50"/>
       <use x="63.623047" xlink:href="#DejaVuSans-53"/>
      </g>
     </g>
    </g>
    <g id="ytick_3">
     <g id="line2d_9">
      <g>
       <use style="stroke:#000000;stroke-width:0.8;" x="57.6" xlink:href="#m2a7ff9ae7f" y="235.531149"/>
      </g>
     </g>
     <g id="text_9">
      <!-- 50 -->
      <g transform="translate(37.875 239.330368)scale(0.1 -0.1)">
       <use xlink:href="#DejaVuSans-53"/>
       <use x="63.623047" xlink:href="#DejaVuSans-48"/>
      </g>
     </g>
    </g>
    <g id="ytick_4">
     <g id="line2d_10">
      <g>
       <use style="stroke:#000000;stroke-width:0.8;" x="57.6" xlink:href="#m2a7ff9ae7f" y="205.575779"/>
      </g>
     </g>
     <g id="text_10">
      <!-- 75 -->
      <g transform="translate(37.875 209.374998)scale(0.1 -0.1)">
       <defs>
        <path d="M 8.203125 72.90625 
L 55.078125 72.90625 
L 55.078125 68.703125 
L 28.609375 0 
L 18.3125 0 
L 43.21875 64.59375 
L 8.203125 64.59375 
z
" id="DejaVuSans-55"/>
       </defs>
       <use xlink:href="#DejaVuSans-55"/>
       <use x="63.623047" xlink:href="#DejaVuSans-53"/>
      </g>
     </g>
    </g>
    <g id="ytick_5">
     <g id="line2d_11">
      <g>
       <use style="stroke:#000000;stroke-width:0.8;" x="57.6" xlink:href="#m2a7ff9ae7f" y="175.620409"/>
      </g>
     </g>
     <g id="text_11">
      <!-- 100 -->
      <g transform="translate(31.5125 179.419628)scale(0.1 -0.1)">
       <use xlink:href="#DejaVuSans-49"/>
       <use x="63.623047" xlink:href="#DejaVuSans-48"/>
       <use x="127.246094" xlink:href="#DejaVuSans-48"/>
      </g>
     </g>
    </g>
    <g id="ytick_6">
     <g id="line2d_12">
      <g>
       <use style="stroke:#000000;stroke-width:0.8;" x="57.6" xlink:href="#m2a7ff9ae7f" y="145.66504"/>
      </g>
     </g>
     <g id="text_12">
      <!-- 125 -->
      <g transform="translate(31.5125 149.464258)scale(0.1 -0.1)">
       <use xlink:href="#DejaVuSans-49"/>
       <use x="63.623047" xlink:href="#DejaVuSans-50"/>
       <use x="127.246094" xlink:href="#DejaVuSans-53"/>
      </g>
     </g>
    </g>
    <g id="ytick_7">
     <g id="line2d_13">
      <g>
       <use style="stroke:#000000;stroke-width:0.8;" x="57.6" xlink:href="#m2a7ff9ae7f" y="115.70967"/>
      </g>
     </g>
     <g id="text_13">
      <!-- 150 -->
      <g transform="translate(31.5125 119.508889)scale(0.1 -0.1)">
       <use xlink:href="#DejaVuSans-49"/>
       <use x="63.623047" xlink:href="#DejaVuSans-53"/>
       <use x="127.246094" xlink:href="#DejaVuSans-48"/>
      </g>
     </g>
    </g>
    <g id="ytick_8">
     <g id="line2d_14">
      <g>
       <use style="stroke:#000000;stroke-width:0.8;" x="57.6" xlink:href="#m2a7ff9ae7f" y="85.7543"/>
      </g>
     </g>
     <g id="text_14">
      <!-- 175 -->
      <g transform="translate(31.5125 89.553519)scale(0.1 -0.1)">
       <use xlink:href="#DejaVuSans-49"/>
       <use x="63.623047" xlink:href="#DejaVuSans-55"/>
       <use x="127.246094" xlink:href="#DejaVuSans-53"/>
      </g>
     </g>
    </g>
    <g id="ytick_9">
     <g id="line2d_15">
      <g>
       <use style="stroke:#000000;stroke-width:0.8;" x="57.6" xlink:href="#m2a7ff9ae7f" y="55.798931"/>
      </g>
     </g>
     <g id="text_15">
      <!-- 200 -->
      <g transform="translate(31.5125 59.598149)scale(0.1 -0.1)">
       <use xlink:href="#DejaVuSans-50"/>
       <use x="63.623047" xlink:href="#DejaVuSans-48"/>
       <use x="127.246094" xlink:href="#DejaVuSans-48"/>
      </g>
     </g>
    </g>
   </g>
   <g id="line2d_16">
    <path clip-path="url(#p56ae454b8d)" d="M 202.414046 295.441888 
L 202.689886 278.101713 
L 202.938234 263.904169 
L 202.698628 259.044936 
L 201.834807 247.583603 
L 201.823085 244.403917 
L 202.043546 241.318038 
L 202.565843 238.35411 
L 203.459632 235.540273 
L 204.069528 234.201101 
L 205.609486 231.66156 
L 207.507562 229.275104 
L 209.681228 227.003352 
L 213.277934 223.726838 
L 219.48127 218.295773 
L 221.794992 216.021829 
L 223.889145 213.632303 
L 227.977472 208.684922 
L 232.141809 203.643023 
L 235.068418 199.763299 
L 236.829804 197.115875 
L 238.379675 194.410904 
L 239.666808 191.64085 
L 240.639976 188.798176 
L 241.251963 185.86299 
L 241.530004 182.832446 
L 241.534546 179.724576 
L 241.326037 176.557411 
L 240.746035 171.734927 
L 239.203417 160.46324 
L 238.599057 154.155436 
L 237.463112 146.252598 
L 236.632639 139.945742 
L 236.283456 135.245203 
L 236.262418 132.132968 
L 236.46145 129.042479 
L 237.039071 124.327585 
L 237.838362 119.502073 
L 238.914911 114.692311 
L 239.814094 111.556956 
L 240.877679 108.522207 
L 242.122137 105.625505 
L 243.563938 102.904294 
L 245.219553 100.396016 
L 246.191651 99.248838 
L 247.325305 98.189742 
L 248.598574 97.208393 
L 251.476186 95.437584 
L 254.648949 93.853714 
L 264.182787 89.396768 
L 266.780794 87.733684 
L 267.87232 86.822357 
L 268.79627 85.844056 
L 269.530704 84.788445 
L 270.05368 83.645186 
L 270.371662 82.422997 
L 270.515686 81.140909 
L 270.500663 79.804057 
L 270.341503 78.417574 
L 269.650415 75.516255 
L 268.561708 72.478025 
L 267.194668 69.343957 
L 261.328889 56.670773 
L 260.796961 55.155936 
L 260.796961 55.155936 
" style="fill:none;stroke:#fea952;stroke-linecap:square;"/>
   </g>
   <g id="line2d_17">
    <path clip-path="url(#p56ae454b8d)" d="M 197.621409 295.395776 
L 197.89801 278.00463 
L 198.10657 262.542922 
L 197.791835 257.821098 
L 197.117749 249.410654 
L 197.011757 245.926738 
L 197.128069 242.399443 
L 197.569241 238.847593 
L 197.947499 237.07255 
L 198.450938 235.307324 
L 199.097824 233.553787 
L 199.883488 231.866885 
L 200.783624 230.278488 
L 202.849604 227.368149 
L 205.164242 224.750066 
L 207.625579 222.348449 
L 212.645121 217.94805 
L 216.172884 214.827909 
L 218.261803 212.7833 
L 220.157693 210.624353 
L 225.347707 204.364659 
L 229.323807 199.469928 
L 231.943698 195.849874 
L 233.431169 193.467901 
L 234.665738 191.119219 
L 235.618413 188.808262 
L 236.271117 186.513227 
L 236.646563 184.041824 
L 236.770602 181.37335 
L 236.67553 178.529241 
L 236.215543 173.993073 
L 234.29507 159.271438 
L 233.846801 154.777975 
L 232.720458 146.944501 
L 231.861928 140.405978 
L 231.576253 137.051627 
L 231.455486 133.642576 
L 231.555721 130.182996 
L 232.074776 125.277252 
L 232.828949 120.254243 
L 233.868422 115.138252 
L 234.755782 111.732099 
L 235.8268 108.368184 
L 237.108913 105.08 
L 238.633212 101.90298 
L 240.434418 98.877119 
L 241.562965 97.29749 
L 242.919716 95.746562 
L 244.399468 94.393564 
L 245.966656 93.202834 
L 249.267787 91.183824 
L 252.662971 89.491674 
L 261.734978 85.276121 
L 263.709055 84.054566 
L 265.172215 82.794687 
L 265.41524 82.438382 
L 265.608761 81.887953 
L 265.72313 81.194767 
L 265.739075 80.35066 
L 265.430499 78.252653 
L 264.671725 75.723906 
L 263.536324 72.890577 
L 261.365035 68.264861 
L 258.216773 61.678704 
L 256.806726 58.258709 
L 256.274799 56.743873 
L 256.274799 56.743873 
" style="fill:none;stroke:#ffffff;stroke-linecap:square;"/>
   </g>
   <g id="line2d_18">
    <path clip-path="url(#p56ae454b8d)" d="M 207.206683 295.488 
L 207.481762 278.198796 
L 207.729209 263.769775 
L 207.476027 258.660293 
L 206.626793 247.492155 
L 206.610112 244.640294 
L 206.786027 242.011126 
L 207.184188 239.635669 
L 207.821441 237.52676 
L 208.795545 235.541104 
L 210.188231 233.535041 
L 211.965966 231.504512 
L 214.065658 229.448545 
L 217.646713 226.287447 
L 222.789656 221.763637 
L 225.328182 219.260358 
L 227.620598 216.640253 
L 231.646536 211.768666 
L 235.914224 206.599437 
L 239.020035 202.475534 
L 240.942768 199.576571 
L 242.677226 196.532828 
L 244.154909 193.322649 
L 245.298724 189.924039 
L 246.011998 186.422956 
L 246.321791 182.933778 
L 246.321035 179.477556 
L 246.09354 176.065049 
L 245.489365 171.047669 
L 243.979828 160.066508 
L 243.351314 153.532896 
L 242.205767 145.560695 
L 241.40335 139.485507 
L 241.075085 135.136639 
L 241.050484 132.347266 
L 241.225348 129.568571 
L 241.779472 125.034762 
L 242.536429 120.450578 
L 243.539088 115.952661 
L 244.361489 113.07112 
L 245.31574 110.331932 
L 246.405577 107.775769 
L 247.630955 105.44021 
L 248.87614 103.494542 
L 249.463586 102.751114 
L 250.251143 101.985921 
L 252.382883 100.446957 
L 255.110293 98.948501 
L 259.886486 96.754481 
L 264.95844 94.407326 
L 268.267893 92.531714 
L 269.852534 91.412803 
L 271.356791 90.113247 
L 272.730586 88.581328 
L 273.889194 86.782203 
L 274.692119 84.85199 
L 275.134563 82.958041 
L 275.308243 81.087051 
L 275.262251 79.257454 
L 275.0399 77.470703 
L 274.675735 75.720538 
L 273.624892 72.299467 
L 272.274725 68.95023 
L 269.972126 64.045387 
L 267.016038 57.876213 
L 265.851052 55.082837 
L 265.319124 53.568 
L 265.319124 53.568 
" style="fill:none;stroke:#ffffff;stroke-linecap:square;"/>
   </g>
   <g id="patch_3">
    <path d="M 57.6 307.584 
L 57.6 41.472 
" style="fill:none;stroke:#000000;stroke-linecap:square;stroke-linejoin:miter;stroke-width:0.8;"/>
   </g>
   <g id="patch_4">
    <path d="M 414.72 307.584 
L 414.72 41.472 
" style="fill:none;stroke:#000000;stroke-linecap:square;stroke-linejoin:miter;stroke-width:0.8;"/>
   </g>
   <g id="patch_5">
    <path d="M 57.6 307.584 
L 414.72 307.584 
" style="fill:none;stroke:#000000;stroke-linecap:square;stroke-linejoin:miter;stroke-width:0.8;"/>
   </g>
   <g id="patch_6">
    <path d="M 57.6 41.472 
L 414.72 41.472 
" style="fill:none;stroke:#000000;stroke-linecap:square;stroke-linejoin:miter;stroke-width:0.8;"/>
   </g>
  </g>
 </g>
 <defs>
  <clipPath id="p56ae454b8d">
   <rect height="266.112" width="357.12" x="57.6" y="41.472"/>
  </clipPath>
 </defs>
</svg>
