<?xml version="1.0" encoding="utf-8" standalone="no"?>
<!DOCTYPE svg PUBLIC "-//W3C//DTD SVG 1.1//EN"
  "http://www.w3.org/Graphics/SVG/1.1/DTD/svg11.dtd">
<!-- Created with matplotlib (https://matplotlib.org/) -->
<svg height="345.6pt" version="1.1" viewBox="0 0 460.8 345.6" width="460.8pt" xmlns="http://www.w3.org/2000/svg" xmlns:xlink="http://www.w3.org/1999/xlink">
 <metadata>
  <rdf:RDF xmlns:cc="http://creativecommons.org/ns#" xmlns:dc="http://purl.org/dc/elements/1.1/" xmlns:rdf="http://www.w3.org/1999/02/22-rdf-syntax-ns#">
   <cc:Work>
    <dc:type rdf:resource="http://purl.org/dc/dcmitype/StillImage"/>
    <dc:date>2021-05-19T09:21:53.158865</dc:date>
    <dc:format>image/svg+xml</dc:format>
    <dc:creator>
     <cc:Agent>
      <dc:title>Matplotlib v3.3.3, https://matplotlib.org/</dc:title>
     </cc:Agent>
    </dc:creator>
   </cc:Work>
  </rdf:RDF>
 </metadata>
 <defs>
  <style type="text/css">*{stroke-linecap:butt;stroke-linejoin:round;}</style>
 </defs>
 <g id="figure_1">
  <g id="patch_1">
   <path d="M 0 345.6 
L 460.8 345.6 
L 460.8 0 
L 0 0 
z
" style="fill:#ffffff;"/>
  </g>
  <g id="axes_1">
   <g id="patch_2">
    <path d="M 57.6 307.584 
L 414.72 307.584 
L 414.72 41.472 
L 57.6 41.472 
z
" style="fill:#7d9051;"/>
   </g>
   <g id="matplotlib.axis_1">
    <g id="xtick_1">
     <g id="line2d_1">
      <defs>
       <path d="M 0 0 
L 0 3.5 
" id="m85b95f03bf" style="stroke:#000000;stroke-width:0.8;"/>
      </defs>
      <g>
       <use style="stroke:#000000;stroke-width:0.8;" x="108.197563" xlink:href="#m85b95f03bf" y="307.584"/>
      </g>
     </g>
     <g id="text_1">
      <!-- −50 -->
      <g transform="translate(97.64522 322.182437)scale(0.1 -0.1)">
       <defs>
        <path d="M 10.59375 35.5 
L 73.1875 35.5 
L 73.1875 27.203125 
L 10.59375 27.203125 
z
" id="DejaVuSans-8722"/>
        <path d="M 10.796875 72.90625 
L 49.515625 72.90625 
L 49.515625 64.59375 
L 19.828125 64.59375 
L 19.828125 46.734375 
Q 21.96875 47.46875 24.109375 47.828125 
Q 26.265625 48.1875 28.421875 48.1875 
Q 40.625 48.1875 47.75 41.5 
Q 54.890625 34.8125 54.890625 23.390625 
Q 54.890625 11.625 47.5625 5.09375 
Q 40.234375 -1.421875 26.90625 -1.421875 
Q 22.3125 -1.421875 17.546875 -0.640625 
Q 12.796875 0.140625 7.71875 1.703125 
L 7.71875 11.625 
Q 12.109375 9.234375 16.796875 8.0625 
Q 21.484375 6.890625 26.703125 6.890625 
Q 35.15625 6.890625 40.078125 11.328125 
Q 45.015625 15.765625 45.015625 23.390625 
Q 45.015625 31 40.078125 35.4375 
Q 35.15625 39.890625 26.703125 39.890625 
Q 22.75 39.890625 18.8125 39.015625 
Q 14.890625 38.140625 10.796875 36.28125 
z
" id="DejaVuSans-53"/>
        <path d="M 31.78125 66.40625 
Q 24.171875 66.40625 20.328125 58.90625 
Q 16.5 51.421875 16.5 36.375 
Q 16.5 21.390625 20.328125 13.890625 
Q 24.171875 6.390625 31.78125 6.390625 
Q 39.453125 6.390625 43.28125 13.890625 
Q 47.125 21.390625 47.125 36.375 
Q 47.125 51.421875 43.28125 58.90625 
Q 39.453125 66.40625 31.78125 66.40625 
z
M 31.78125 74.21875 
Q 44.046875 74.21875 50.515625 64.515625 
Q 56.984375 54.828125 56.984375 36.375 
Q 56.984375 17.96875 50.515625 8.265625 
Q 44.046875 -1.421875 31.78125 -1.421875 
Q 19.53125 -1.421875 13.0625 8.265625 
Q 6.59375 17.96875 6.59375 36.375 
Q 6.59375 54.828125 13.0625 64.515625 
Q 19.53125 74.21875 31.78125 74.21875 
z
" id="DejaVuSans-48"/>
       </defs>
       <use xlink:href="#DejaVuSans-8722"/>
       <use x="83.789062" xlink:href="#DejaVuSans-53"/>
       <use x="147.412109" xlink:href="#DejaVuSans-48"/>
      </g>
     </g>
    </g>
    <g id="xtick_2">
     <g id="line2d_2">
      <g>
       <use style="stroke:#000000;stroke-width:0.8;" x="179.480185" xlink:href="#m85b95f03bf" y="307.584"/>
      </g>
     </g>
     <g id="text_2">
      <!-- 0 -->
      <g transform="translate(176.298935 322.182437)scale(0.1 -0.1)">
       <use xlink:href="#DejaVuSans-48"/>
      </g>
     </g>
    </g>
    <g id="xtick_3">
     <g id="line2d_3">
      <g>
       <use style="stroke:#000000;stroke-width:0.8;" x="250.762806" xlink:href="#m85b95f03bf" y="307.584"/>
      </g>
     </g>
     <g id="text_3">
      <!-- 50 -->
      <g transform="translate(244.400306 322.182437)scale(0.1 -0.1)">
       <use xlink:href="#DejaVuSans-53"/>
       <use x="63.623047" xlink:href="#DejaVuSans-48"/>
      </g>
     </g>
    </g>
    <g id="xtick_4">
     <g id="line2d_4">
      <g>
       <use style="stroke:#000000;stroke-width:0.8;" x="322.045427" xlink:href="#m85b95f03bf" y="307.584"/>
      </g>
     </g>
     <g id="text_4">
      <!-- 100 -->
      <g transform="translate(312.501677 322.182437)scale(0.1 -0.1)">
       <defs>
        <path d="M 12.40625 8.296875 
L 28.515625 8.296875 
L 28.515625 63.921875 
L 10.984375 60.40625 
L 10.984375 69.390625 
L 28.421875 72.90625 
L 38.28125 72.90625 
L 38.28125 8.296875 
L 54.390625 8.296875 
L 54.390625 0 
L 12.40625 0 
z
" id="DejaVuSans-49"/>
       </defs>
       <use xlink:href="#DejaVuSans-49"/>
       <use x="63.623047" xlink:href="#DejaVuSans-48"/>
       <use x="127.246094" xlink:href="#DejaVuSans-48"/>
      </g>
     </g>
    </g>
    <g id="xtick_5">
     <g id="line2d_5">
      <g>
       <use style="stroke:#000000;stroke-width:0.8;" x="393.328048" xlink:href="#m85b95f03bf" y="307.584"/>
      </g>
     </g>
     <g id="text_5">
      <!-- 150 -->
      <g transform="translate(383.784298 322.182437)scale(0.1 -0.1)">
       <use xlink:href="#DejaVuSans-49"/>
       <use x="63.623047" xlink:href="#DejaVuSans-53"/>
       <use x="127.246094" xlink:href="#DejaVuSans-48"/>
      </g>
     </g>
    </g>
   </g>
   <g id="matplotlib.axis_2">
    <g id="ytick_1">
     <g id="line2d_6">
      <defs>
       <path d="M 0 0 
L -3.5 0 
" id="mc6f96dc541" style="stroke:#000000;stroke-width:0.8;"/>
      </defs>
      <g>
       <use style="stroke:#000000;stroke-width:0.8;" x="57.6" xlink:href="#mc6f96dc541" y="295.433136"/>
      </g>
     </g>
     <g id="text_6">
      <!-- 0 -->
      <g transform="translate(44.2375 299.232354)scale(0.1 -0.1)">
       <use xlink:href="#DejaVuSans-48"/>
      </g>
     </g>
    </g>
    <g id="ytick_2">
     <g id="line2d_7">
      <g>
       <use style="stroke:#000000;stroke-width:0.8;" x="57.6" xlink:href="#mc6f96dc541" y="259.791825"/>
      </g>
     </g>
     <g id="text_7">
      <!-- 25 -->
      <g transform="translate(37.875 263.591044)scale(0.1 -0.1)">
       <defs>
        <path d="M 19.1875 8.296875 
L 53.609375 8.296875 
L 53.609375 0 
L 7.328125 0 
L 7.328125 8.296875 
Q 12.9375 14.109375 22.625 23.890625 
Q 32.328125 33.6875 34.8125 36.53125 
Q 39.546875 41.84375 41.421875 45.53125 
Q 43.3125 49.21875 43.3125 52.78125 
Q 43.3125 58.59375 39.234375 62.25 
Q 35.15625 65.921875 28.609375 65.921875 
Q 23.96875 65.921875 18.8125 64.3125 
Q 13.671875 62.703125 7.8125 59.421875 
L 7.8125 69.390625 
Q 13.765625 71.78125 18.9375 73 
Q 24.125 74.21875 28.421875 74.21875 
Q 39.75 74.21875 46.484375 68.546875 
Q 53.21875 62.890625 53.21875 53.421875 
Q 53.21875 48.921875 51.53125 44.890625 
Q 49.859375 40.875 45.40625 35.40625 
Q 44.1875 33.984375 37.640625 27.21875 
Q 31.109375 20.453125 19.1875 8.296875 
z
" id="DejaVuSans-50"/>
       </defs>
       <use xlink:href="#DejaVuSans-50"/>
       <use x="63.623047" xlink:href="#DejaVuSans-53"/>
      </g>
     </g>
    </g>
    <g id="ytick_3">
     <g id="line2d_8">
      <g>
       <use style="stroke:#000000;stroke-width:0.8;" x="57.6" xlink:href="#mc6f96dc541" y="224.150514"/>
      </g>
     </g>
     <g id="text_8">
      <!-- 50 -->
      <g transform="translate(37.875 227.949733)scale(0.1 -0.1)">
       <use xlink:href="#DejaVuSans-53"/>
       <use x="63.623047" xlink:href="#DejaVuSans-48"/>
      </g>
     </g>
    </g>
    <g id="ytick_4">
     <g id="line2d_9">
      <g>
       <use style="stroke:#000000;stroke-width:0.8;" x="57.6" xlink:href="#mc6f96dc541" y="188.509204"/>
      </g>
     </g>
     <g id="text_9">
      <!-- 75 -->
      <g transform="translate(37.875 192.308423)scale(0.1 -0.1)">
       <defs>
        <path d="M 8.203125 72.90625 
L 55.078125 72.90625 
L 55.078125 68.703125 
L 28.609375 0 
L 18.3125 0 
L 43.21875 64.59375 
L 8.203125 64.59375 
z
" id="DejaVuSans-55"/>
       </defs>
       <use xlink:href="#DejaVuSans-55"/>
       <use x="63.623047" xlink:href="#DejaVuSans-53"/>
      </g>
     </g>
    </g>
    <g id="ytick_5">
     <g id="line2d_10">
      <g>
       <use style="stroke:#000000;stroke-width:0.8;" x="57.6" xlink:href="#mc6f96dc541" y="152.867893"/>
      </g>
     </g>
     <g id="text_10">
      <!-- 100 -->
      <g transform="translate(31.5125 156.667112)scale(0.1 -0.1)">
       <use xlink:href="#DejaVuSans-49"/>
       <use x="63.623047" xlink:href="#DejaVuSans-48"/>
       <use x="127.246094" xlink:href="#DejaVuSans-48"/>
      </g>
     </g>
    </g>
    <g id="ytick_6">
     <g id="line2d_11">
      <g>
       <use style="stroke:#000000;stroke-width:0.8;" x="57.6" xlink:href="#mc6f96dc541" y="117.226583"/>
      </g>
     </g>
     <g id="text_11">
      <!-- 125 -->
      <g transform="translate(31.5125 121.025801)scale(0.1 -0.1)">
       <use xlink:href="#DejaVuSans-49"/>
       <use x="63.623047" xlink:href="#DejaVuSans-50"/>
       <use x="127.246094" xlink:href="#DejaVuSans-53"/>
      </g>
     </g>
    </g>
    <g id="ytick_7">
     <g id="line2d_12">
      <g>
       <use style="stroke:#000000;stroke-width:0.8;" x="57.6" xlink:href="#mc6f96dc541" y="81.585272"/>
      </g>
     </g>
     <g id="text_12">
      <!-- 150 -->
      <g transform="translate(31.5125 85.384491)scale(0.1 -0.1)">
       <use xlink:href="#DejaVuSans-49"/>
       <use x="63.623047" xlink:href="#DejaVuSans-53"/>
       <use x="127.246094" xlink:href="#DejaVuSans-48"/>
      </g>
     </g>
    </g>
    <g id="ytick_8">
     <g id="line2d_13">
      <g>
       <use style="stroke:#000000;stroke-width:0.8;" x="57.6" xlink:href="#mc6f96dc541" y="45.943962"/>
      </g>
     </g>
     <g id="text_13">
      <!-- 175 -->
      <g transform="translate(31.5125 49.74318)scale(0.1 -0.1)">
       <use xlink:href="#DejaVuSans-49"/>
       <use x="63.623047" xlink:href="#DejaVuSans-55"/>
       <use x="127.246094" xlink:href="#DejaVuSans-53"/>
      </g>
     </g>
    </g>
   </g>
   <g id="line2d_14">
    <path clip-path="url(#p536c20859b)" d="M 179.480185 295.433136 
L 179.770838 276.677088 
L 180.107621 257.912271 
L 179.868782 252.169496 
L 178.992659 238.659904 
L 178.988296 234.884711 
L 179.226854 231.193162 
L 179.781209 227.610351 
L 180.199584 225.867564 
L 181.347002 222.476279 
L 182.831055 219.124816 
L 184.604055 215.816482 
L 186.631097 212.573076 
L 188.877281 209.4164 
L 191.307703 206.368253 
L 193.88746 203.450434 
L 196.581649 200.684745 
L 199.355368 198.092985 
L 202.173714 195.696955 
L 205.100779 193.487468 
L 208.206081 191.437436 
L 211.462857 189.5418 
L 214.844344 187.795503 
L 218.323777 186.193487 
L 223.66803 184.049926 
L 229.082117 182.202549 
L 234.475711 180.634286 
L 236.300902 180.228804 
L 238.199572 179.956158 
L 242.1689 179.734586 
L 246.286785 179.819997 
L 258.562702 180.422389 
L 262.305734 180.239994 
L 264.057312 179.992813 
L 265.712781 179.616714 
L 267.260027 179.093 
L 268.686937 178.402975 
L 269.981396 177.527941 
L 271.137989 176.470592 
L 272.166862 175.255181 
L 273.079241 173.895352 
L 273.886352 172.404749 
L 274.599423 170.797016 
L 275.78835 167.284742 
L 276.735837 163.467682 
L 277.900835 157.409399 
L 279.447392 149.283721 
L 280.419849 145.445923 
L 281.654392 141.851142 
L 283.217467 138.25936 
L 285.93879 132.827075 
L 289.612838 125.599734 
L 291.187594 122.035218 
L 292.420501 118.528609 
L 292.86962 116.802912 
L 293.186308 115.098762 
L 293.354907 113.418516 
L 293.35976 111.764531 
L 293.185213 110.139164 
L 292.826579 108.540659 
L 292.298772 106.964858 
L 291.615531 105.410514 
L 290.790593 103.876378 
L 288.770586 100.863738 
L 286.348661 97.916955 
L 283.634729 95.026044 
L 279.256745 90.772598 
L 273.423236 85.203704 
L 269.481808 81.068145 
L 265.568386 77.035457 
L 260.186771 71.808561 
L 245.117196 57.682129 
L 245.117196 57.682129 
" style="fill:none;stroke:#fea952;stroke-linecap:square;"/>
   </g>
   <g id="line2d_15">
    <path clip-path="url(#p536c20859b)" d="M 173.777839 295.378271 
L 174.069371 276.562955 
L 174.367139 256.256409 
L 174.04812 250.666189 
L 173.364429 240.781258 
L 173.262508 236.691704 
L 173.3901 232.549071 
L 173.848407 228.371824 
L 174.236141 226.279195 
L 174.748854 224.191467 
L 176.087319 220.272762 
L 177.757777 216.520665 
L 179.721039 212.87099 
L 181.937954 209.333607 
L 184.372172 205.920152 
L 186.989204 202.643964 
L 189.75588 199.51981 
L 192.640119 196.563569 
L 195.610946 193.791932 
L 198.662318 191.203643 
L 201.888171 188.775897 
L 205.271833 186.547657 
L 208.785843 184.506589 
L 212.403967 182.641444 
L 216.100683 180.942048 
L 219.850839 179.399185 
L 225.521604 177.360205 
L 231.172068 175.62902 
L 233.238979 175.067397 
L 235.490331 174.584096 
L 237.739906 174.272105 
L 242.207022 174.032104 
L 246.590263 174.125468 
L 258.426905 174.721396 
L 261.508882 174.593332 
L 263.884451 174.215143 
L 265.493289 173.67853 
L 266.133665 173.319055 
L 266.785486 172.786102 
L 267.431388 172.077911 
L 268.064561 171.180072 
L 268.673466 170.092699 
L 269.783083 167.396319 
L 270.731049 164.121044 
L 271.544742 160.414423 
L 274.403828 145.842212 
L 275.647555 141.650432 
L 277.207511 137.703126 
L 278.996825 133.887178 
L 285.184271 121.586927 
L 286.430141 118.514257 
L 287.262998 115.761017 
L 287.652321 113.401781 
L 287.620924 111.387543 
L 287.419229 110.351825 
L 287.078259 109.259634 
L 286.592996 108.111237 
L 285.193624 105.670632 
L 283.270253 103.090448 
L 280.914766 100.421895 
L 276.810199 96.314621 
L 267.90774 87.733258 
L 261.551948 81.083665 
L 256.272714 75.955839 
L 241.16831 61.796257 
L 241.16831 61.796257 
" style="fill:none;stroke:#ffffff;stroke-linecap:square;"/>
   </g>
   <g id="line2d_16">
    <path clip-path="url(#p536c20859b)" d="M 185.18253 295.488 
L 185.472306 276.79122 
L 185.808761 257.782837 
L 185.557685 251.774349 
L 184.694648 238.575743 
L 184.685035 235.143389 
L 184.882559 231.923065 
L 185.326277 228.941507 
L 186.073241 226.138218 
L 187.218103 223.208573 
L 188.661902 220.245343 
L 190.37589 217.283024 
L 192.327865 214.354477 
L 194.483351 211.490789 
L 196.806325 208.721467 
L 199.259596 206.074749 
L 201.804902 203.577916 
L 204.402773 201.257569 
L 206.972852 199.179906 
L 209.703618 197.248039 
L 212.62021 195.436814 
L 215.695871 193.747914 
L 218.902901 192.181927 
L 223.897945 190.062203 
L 229.028872 188.212767 
L 234.199331 186.625143 
L 237.111473 185.873513 
L 240.338507 185.497454 
L 244.017979 185.447461 
L 250.089446 185.753613 
L 256.516077 186.097053 
L 260.894474 186.063755 
L 263.102585 185.886655 
L 265.320671 185.553719 
L 267.541112 185.018284 
L 269.742652 184.226842 
L 271.880584 183.127419 
L 273.829127 181.736827 
L 275.490493 180.155083 
L 276.902336 178.432451 
L 278.09392 176.610632 
L 279.099238 174.716799 
L 279.950621 172.767912 
L 281.300082 168.747811 
L 282.320281 164.622558 
L 283.51549 158.407102 
L 284.997341 150.594379 
L 285.855867 147.169139 
L 286.918766 144.043431 
L 288.35284 140.738816 
L 290.995891 135.462504 
L 294.793984 127.98206 
L 296.52075 124.054428 
L 297.939274 119.96489 
L 298.476243 117.844807 
L 298.860424 115.668113 
L 299.057492 113.435252 
L 299.029769 111.155631 
L 298.749501 108.890785 
L 298.233929 106.729493 
L 297.519286 104.670083 
L 296.638065 102.709791 
L 295.617916 100.840474 
L 294.481774 99.051772 
L 291.935736 95.675029 
L 289.127888 92.508384 
L 286.169357 89.501513 
L 274.935581 78.561756 
L 270.938773 74.354095 
L 265.479097 68.974314 
L 257.201924 61.220222 
L 249.066082 53.568 
L 249.066082 53.568 
" style="fill:none;stroke:#ffffff;stroke-linecap:square;"/>
   </g>
   <g id="patch_3">
    <path d="M 57.6 307.584 
L 57.6 41.472 
" style="fill:none;stroke:#000000;stroke-linecap:square;stroke-linejoin:miter;stroke-width:0.8;"/>
   </g>
   <g id="patch_4">
    <path d="M 414.72 307.584 
L 414.72 41.472 
" style="fill:none;stroke:#000000;stroke-linecap:square;stroke-linejoin:miter;stroke-width:0.8;"/>
   </g>
   <g id="patch_5">
    <path d="M 57.6 307.584 
L 414.72 307.584 
" style="fill:none;stroke:#000000;stroke-linecap:square;stroke-linejoin:miter;stroke-width:0.8;"/>
   </g>
   <g id="patch_6">
    <path d="M 57.6 41.472 
L 414.72 41.472 
" style="fill:none;stroke:#000000;stroke-linecap:square;stroke-linejoin:miter;stroke-width:0.8;"/>
   </g>
  </g>
 </g>
 <defs>
  <clipPath id="p536c20859b">
   <rect height="266.112" width="357.12" x="57.6" y="41.472"/>
  </clipPath>
 </defs>
</svg>
