<?xml version="1.0" encoding="utf-8" standalone="no"?>
<!DOCTYPE svg PUBLIC "-//W3C//DTD SVG 1.1//EN"
  "http://www.w3.org/Graphics/SVG/1.1/DTD/svg11.dtd">
<!-- Created with matplotlib (https://matplotlib.org/) -->
<svg height="345.6pt" version="1.1" viewBox="0 0 460.8 345.6" width="460.8pt" xmlns="http://www.w3.org/2000/svg" xmlns:xlink="http://www.w3.org/1999/xlink">
 <metadata>
  <rdf:RDF xmlns:cc="http://creativecommons.org/ns#" xmlns:dc="http://purl.org/dc/elements/1.1/" xmlns:rdf="http://www.w3.org/1999/02/22-rdf-syntax-ns#">
   <cc:Work>
    <dc:type rdf:resource="http://purl.org/dc/dcmitype/StillImage"/>
    <dc:date>2021-06-17T18:26:27.210676</dc:date>
    <dc:format>image/svg+xml</dc:format>
    <dc:creator>
     <cc:Agent>
      <dc:title>Matplotlib v3.3.3, https://matplotlib.org/</dc:title>
     </cc:Agent>
    </dc:creator>
   </cc:Work>
  </rdf:RDF>
 </metadata>
 <defs>
  <style type="text/css">*{stroke-linecap:butt;stroke-linejoin:round;}</style>
 </defs>
 <g id="figure_1">
  <g id="patch_1">
   <path d="M 0 345.6 
L 460.8 345.6 
L 460.8 0 
L 0 0 
z
" style="fill:#ffffff;"/>
  </g>
  <g id="axes_1">
   <g id="patch_2">
    <path d="M 57.6 307.584 
L 414.72 307.584 
L 414.72 41.472 
L 57.6 41.472 
z
" style="fill:#7d9051;"/>
   </g>
   <g id="matplotlib.axis_1">
    <g id="xtick_1">
     <g id="line2d_1">
      <defs>
       <path d="M 0 0 
L 0 3.5 
" id="m1c293a89c3" style="stroke:#000000;stroke-width:0.8;"/>
      </defs>
      <g>
       <use style="stroke:#000000;stroke-width:0.8;" x="69.572037" xlink:href="#m1c293a89c3" y="307.584"/>
      </g>
     </g>
     <g id="text_1">
      <!-- −150 -->
      <g transform="translate(55.838444 322.182437)scale(0.1 -0.1)">
       <defs>
        <path d="M 10.59375 35.5 
L 73.1875 35.5 
L 73.1875 27.203125 
L 10.59375 27.203125 
z
" id="DejaVuSans-8722"/>
        <path d="M 12.40625 8.296875 
L 28.515625 8.296875 
L 28.515625 63.921875 
L 10.984375 60.40625 
L 10.984375 69.390625 
L 28.421875 72.90625 
L 38.28125 72.90625 
L 38.28125 8.296875 
L 54.390625 8.296875 
L 54.390625 0 
L 12.40625 0 
z
" id="DejaVuSans-49"/>
        <path d="M 10.796875 72.90625 
L 49.515625 72.90625 
L 49.515625 64.59375 
L 19.828125 64.59375 
L 19.828125 46.734375 
Q 21.96875 47.46875 24.109375 47.828125 
Q 26.265625 48.1875 28.421875 48.1875 
Q 40.625 48.1875 47.75 41.5 
Q 54.890625 34.8125 54.890625 23.390625 
Q 54.890625 11.625 47.5625 5.09375 
Q 40.234375 -1.421875 26.90625 -1.421875 
Q 22.3125 -1.421875 17.546875 -0.640625 
Q 12.796875 0.140625 7.71875 1.703125 
L 7.71875 11.625 
Q 12.109375 9.234375 16.796875 8.0625 
Q 21.484375 6.890625 26.703125 6.890625 
Q 35.15625 6.890625 40.078125 11.328125 
Q 45.015625 15.765625 45.015625 23.390625 
Q 45.015625 31 40.078125 35.4375 
Q 35.15625 39.890625 26.703125 39.890625 
Q 22.75 39.890625 18.8125 39.015625 
Q 14.890625 38.140625 10.796875 36.28125 
z
" id="DejaVuSans-53"/>
        <path d="M 31.78125 66.40625 
Q 24.171875 66.40625 20.328125 58.90625 
Q 16.5 51.421875 16.5 36.375 
Q 16.5 21.390625 20.328125 13.890625 
Q 24.171875 6.390625 31.78125 6.390625 
Q 39.453125 6.390625 43.28125 13.890625 
Q 47.125 21.390625 47.125 36.375 
Q 47.125 51.421875 43.28125 58.90625 
Q 39.453125 66.40625 31.78125 66.40625 
z
M 31.78125 74.21875 
Q 44.046875 74.21875 50.515625 64.515625 
Q 56.984375 54.828125 56.984375 36.375 
Q 56.984375 17.96875 50.515625 8.265625 
Q 44.046875 -1.421875 31.78125 -1.421875 
Q 19.53125 -1.421875 13.0625 8.265625 
Q 6.59375 17.96875 6.59375 36.375 
Q 6.59375 54.828125 13.0625 64.515625 
Q 19.53125 74.21875 31.78125 74.21875 
z
" id="DejaVuSans-48"/>
       </defs>
       <use xlink:href="#DejaVuSans-8722"/>
       <use x="83.789062" xlink:href="#DejaVuSans-49"/>
       <use x="147.412109" xlink:href="#DejaVuSans-53"/>
       <use x="211.035156" xlink:href="#DejaVuSans-48"/>
      </g>
     </g>
    </g>
    <g id="xtick_2">
     <g id="line2d_2">
      <g>
       <use style="stroke:#000000;stroke-width:0.8;" x="129.149566" xlink:href="#m1c293a89c3" y="307.584"/>
      </g>
     </g>
     <g id="text_2">
      <!-- −100 -->
      <g transform="translate(115.415972 322.182437)scale(0.1 -0.1)">
       <use xlink:href="#DejaVuSans-8722"/>
       <use x="83.789062" xlink:href="#DejaVuSans-49"/>
       <use x="147.412109" xlink:href="#DejaVuSans-48"/>
       <use x="211.035156" xlink:href="#DejaVuSans-48"/>
      </g>
     </g>
    </g>
    <g id="xtick_3">
     <g id="line2d_3">
      <g>
       <use style="stroke:#000000;stroke-width:0.8;" x="188.727094" xlink:href="#m1c293a89c3" y="307.584"/>
      </g>
     </g>
     <g id="text_3">
      <!-- −50 -->
      <g transform="translate(178.17475 322.182437)scale(0.1 -0.1)">
       <use xlink:href="#DejaVuSans-8722"/>
       <use x="83.789062" xlink:href="#DejaVuSans-53"/>
       <use x="147.412109" xlink:href="#DejaVuSans-48"/>
      </g>
     </g>
    </g>
    <g id="xtick_4">
     <g id="line2d_4">
      <g>
       <use style="stroke:#000000;stroke-width:0.8;" x="248.304622" xlink:href="#m1c293a89c3" y="307.584"/>
      </g>
     </g>
     <g id="text_4">
      <!-- 0 -->
      <g transform="translate(245.123372 322.182437)scale(0.1 -0.1)">
       <use xlink:href="#DejaVuSans-48"/>
      </g>
     </g>
    </g>
    <g id="xtick_5">
     <g id="line2d_5">
      <g>
       <use style="stroke:#000000;stroke-width:0.8;" x="307.88215" xlink:href="#m1c293a89c3" y="307.584"/>
      </g>
     </g>
     <g id="text_5">
      <!-- 50 -->
      <g transform="translate(301.51965 322.182437)scale(0.1 -0.1)">
       <use xlink:href="#DejaVuSans-53"/>
       <use x="63.623047" xlink:href="#DejaVuSans-48"/>
      </g>
     </g>
    </g>
    <g id="xtick_6">
     <g id="line2d_6">
      <g>
       <use style="stroke:#000000;stroke-width:0.8;" x="367.459678" xlink:href="#m1c293a89c3" y="307.584"/>
      </g>
     </g>
     <g id="text_6">
      <!-- 100 -->
      <g transform="translate(357.915928 322.182437)scale(0.1 -0.1)">
       <use xlink:href="#DejaVuSans-49"/>
       <use x="63.623047" xlink:href="#DejaVuSans-48"/>
       <use x="127.246094" xlink:href="#DejaVuSans-48"/>
      </g>
     </g>
    </g>
   </g>
   <g id="matplotlib.axis_2">
    <g id="ytick_1">
     <g id="line2d_7">
      <defs>
       <path d="M 0 0 
L -3.5 0 
" id="md8ceeea14e" style="stroke:#000000;stroke-width:0.8;"/>
      </defs>
      <g>
       <use style="stroke:#000000;stroke-width:0.8;" x="57.6" xlink:href="#md8ceeea14e" y="295.442145"/>
      </g>
     </g>
     <g id="text_7">
      <!-- 0 -->
      <g transform="translate(44.2375 299.241363)scale(0.1 -0.1)">
       <use xlink:href="#DejaVuSans-48"/>
      </g>
     </g>
    </g>
    <g id="ytick_2">
     <g id="line2d_8">
      <g>
       <use style="stroke:#000000;stroke-width:0.8;" x="57.6" xlink:href="#md8ceeea14e" y="265.653381"/>
      </g>
     </g>
     <g id="text_8">
      <!-- 25 -->
      <g transform="translate(37.875 269.452599)scale(0.1 -0.1)">
       <defs>
        <path d="M 19.1875 8.296875 
L 53.609375 8.296875 
L 53.609375 0 
L 7.328125 0 
L 7.328125 8.296875 
Q 12.9375 14.109375 22.625 23.890625 
Q 32.328125 33.6875 34.8125 36.53125 
Q 39.546875 41.84375 41.421875 45.53125 
Q 43.3125 49.21875 43.3125 52.78125 
Q 43.3125 58.59375 39.234375 62.25 
Q 35.15625 65.921875 28.609375 65.921875 
Q 23.96875 65.921875 18.8125 64.3125 
Q 13.671875 62.703125 7.8125 59.421875 
L 7.8125 69.390625 
Q 13.765625 71.78125 18.9375 73 
Q 24.125 74.21875 28.421875 74.21875 
Q 39.75 74.21875 46.484375 68.546875 
Q 53.21875 62.890625 53.21875 53.421875 
Q 53.21875 48.921875 51.53125 44.890625 
Q 49.859375 40.875 45.40625 35.40625 
Q 44.1875 33.984375 37.640625 27.21875 
Q 31.109375 20.453125 19.1875 8.296875 
z
" id="DejaVuSans-50"/>
       </defs>
       <use xlink:href="#DejaVuSans-50"/>
       <use x="63.623047" xlink:href="#DejaVuSans-53"/>
      </g>
     </g>
    </g>
    <g id="ytick_3">
     <g id="line2d_9">
      <g>
       <use style="stroke:#000000;stroke-width:0.8;" x="57.6" xlink:href="#md8ceeea14e" y="235.864616"/>
      </g>
     </g>
     <g id="text_9">
      <!-- 50 -->
      <g transform="translate(37.875 239.663835)scale(0.1 -0.1)">
       <use xlink:href="#DejaVuSans-53"/>
       <use x="63.623047" xlink:href="#DejaVuSans-48"/>
      </g>
     </g>
    </g>
    <g id="ytick_4">
     <g id="line2d_10">
      <g>
       <use style="stroke:#000000;stroke-width:0.8;" x="57.6" xlink:href="#md8ceeea14e" y="206.075852"/>
      </g>
     </g>
     <g id="text_10">
      <!-- 75 -->
      <g transform="translate(37.875 209.875071)scale(0.1 -0.1)">
       <defs>
        <path d="M 8.203125 72.90625 
L 55.078125 72.90625 
L 55.078125 68.703125 
L 28.609375 0 
L 18.3125 0 
L 43.21875 64.59375 
L 8.203125 64.59375 
z
" id="DejaVuSans-55"/>
       </defs>
       <use xlink:href="#DejaVuSans-55"/>
       <use x="63.623047" xlink:href="#DejaVuSans-53"/>
      </g>
     </g>
    </g>
    <g id="ytick_5">
     <g id="line2d_11">
      <g>
       <use style="stroke:#000000;stroke-width:0.8;" x="57.6" xlink:href="#md8ceeea14e" y="176.287088"/>
      </g>
     </g>
     <g id="text_11">
      <!-- 100 -->
      <g transform="translate(31.5125 180.086307)scale(0.1 -0.1)">
       <use xlink:href="#DejaVuSans-49"/>
       <use x="63.623047" xlink:href="#DejaVuSans-48"/>
       <use x="127.246094" xlink:href="#DejaVuSans-48"/>
      </g>
     </g>
    </g>
    <g id="ytick_6">
     <g id="line2d_12">
      <g>
       <use style="stroke:#000000;stroke-width:0.8;" x="57.6" xlink:href="#md8ceeea14e" y="146.498324"/>
      </g>
     </g>
     <g id="text_12">
      <!-- 125 -->
      <g transform="translate(31.5125 150.297543)scale(0.1 -0.1)">
       <use xlink:href="#DejaVuSans-49"/>
       <use x="63.623047" xlink:href="#DejaVuSans-50"/>
       <use x="127.246094" xlink:href="#DejaVuSans-53"/>
      </g>
     </g>
    </g>
    <g id="ytick_7">
     <g id="line2d_13">
      <g>
       <use style="stroke:#000000;stroke-width:0.8;" x="57.6" xlink:href="#md8ceeea14e" y="116.70956"/>
      </g>
     </g>
     <g id="text_13">
      <!-- 150 -->
      <g transform="translate(31.5125 120.508779)scale(0.1 -0.1)">
       <use xlink:href="#DejaVuSans-49"/>
       <use x="63.623047" xlink:href="#DejaVuSans-53"/>
       <use x="127.246094" xlink:href="#DejaVuSans-48"/>
      </g>
     </g>
    </g>
    <g id="ytick_8">
     <g id="line2d_14">
      <g>
       <use style="stroke:#000000;stroke-width:0.8;" x="57.6" xlink:href="#md8ceeea14e" y="86.920796"/>
      </g>
     </g>
     <g id="text_14">
      <!-- 175 -->
      <g transform="translate(31.5125 90.720015)scale(0.1 -0.1)">
       <use xlink:href="#DejaVuSans-49"/>
       <use x="63.623047" xlink:href="#DejaVuSans-55"/>
       <use x="127.246094" xlink:href="#DejaVuSans-53"/>
      </g>
     </g>
    </g>
    <g id="ytick_9">
     <g id="line2d_15">
      <g>
       <use style="stroke:#000000;stroke-width:0.8;" x="57.6" xlink:href="#md8ceeea14e" y="57.132032"/>
      </g>
     </g>
     <g id="text_15">
      <!-- 200 -->
      <g transform="translate(31.5125 60.931251)scale(0.1 -0.1)">
       <use xlink:href="#DejaVuSans-50"/>
       <use x="63.623047" xlink:href="#DejaVuSans-48"/>
       <use x="127.246094" xlink:href="#DejaVuSans-48"/>
      </g>
     </g>
    </g>
   </g>
   <g id="line2d_16">
    <path clip-path="url(#p1c5a1a6016)" d="M 248.304622 295.442145 
L 248.578928 278.198412 
L 248.991544 262.473901 
L 249.539395 257.568609 
L 250.584611 249.335669 
L 250.817713 246.122926 
L 250.826192 243.007853 
L 250.530768 240.02492 
L 250.244319 238.593778 
L 249.852163 237.208599 
L 249.344393 235.87369 
L 248.691468 234.604377 
L 247.882159 233.40747 
L 246.934019 232.274511 
L 244.691465 230.166597 
L 242.104239 228.21296 
L 237.884337 225.423732 
L 233.67886 222.600953 
L 231.117278 220.587667 
L 229.961769 219.516216 
L 228.913189 218.39028 
L 227.98909 217.2014 
L 227.207027 215.941117 
L 225.850784 213.200625 
L 224.622914 210.216868 
L 223.553548 207.053593 
L 222.672816 203.774547 
L 222.010846 200.443478 
L 221.59777 197.124133 
L 221.463718 193.880259 
L 221.638817 190.775603 
L 222.1532 187.873913 
L 222.547038 186.519102 
L 223.108078 185.229458 
L 223.890072 183.994363 
L 224.865142 182.808124 
L 226.005408 181.665046 
L 228.670014 179.485595 
L 231.660859 177.410456 
L 237.729135 173.3909 
L 240.360504 171.355376 
L 241.477919 170.311247 
L 242.425984 169.241948 
L 243.176818 168.141784 
L 243.702544 167.005062 
L 243.975281 165.826087 
L 243.995503 164.618342 
L 243.796616 163.399061 
L 243.400149 162.168179 
L 242.827626 160.925631 
L 241.240523 158.405275 
L 239.207517 155.837473 
L 234.492641 150.55744 
L 232.155194 147.844166 
L 230.060688 145.081357 
L 229.158355 143.681215 
L 228.381336 142.268494 
L 227.212644 139.39733 
L 225.743121 134.912054 
L 224.527262 130.260533 
L 223.609602 125.514221 
L 223.185487 122.33264 
L 222.926895 119.16186 
L 222.84702 116.023055 
L 222.959058 112.937396 
L 223.295381 109.920784 
L 223.954615 106.951271 
L 224.89343 104.015396 
L 226.04603 101.103691 
L 228.031847 96.760745 
L 232.114149 88.046302 
L 233.266452 85.098317 
L 234.671247 80.614471 
L 236.298664 74.564199 
L 238.466698 65.402684 
L 240.973061 54.706995 
L 240.973061 54.706995 
" style="fill:none;stroke:#fea952;stroke-linecap:square;"/>
   </g>
   <g id="line2d_17">
    <path clip-path="url(#p1c5a1a6016)" d="M 243.53864 295.396289 
L 243.813704 278.101869 
L 244.24637 262.026675 
L 244.815734 256.933226 
L 245.836103 248.925354 
L 246.05285 246.009944 
L 246.071419 243.337725 
L 245.857262 240.960345 
L 245.397356 238.903111 
L 244.743147 237.274103 
L 244.227027 236.466341 
L 242.71922 234.777996 
L 240.636417 233.034842 
L 238.110293 231.257647 
L 230.818519 226.41345 
L 227.876581 224.082601 
L 226.473871 222.764484 
L 225.150079 221.31529 
L 223.939271 219.714496 
L 222.975319 218.134134 
L 221.474086 215.08774 
L 220.132655 211.815074 
L 218.97102 208.363983 
L 218.014634 204.783521 
L 217.293207 201.122125 
L 216.841138 197.426012 
L 216.699642 193.737908 
L 216.921163 190.097061 
L 217.189225 188.306533 
L 217.576453 186.543473 
L 218.1765 184.617765 
L 219.081157 182.679831 
L 220.208106 180.967846 
L 221.49078 179.442064 
L 222.8865 178.061007 
L 225.90186 175.605645 
L 229.051669 173.42187 
L 236.092889 168.683511 
L 237.911605 167.149272 
L 239.209747 165.746298 
L 239.291471 165.385653 
L 239.259944 164.860325 
L 239.071357 164.162733 
L 238.704098 163.31586 
L 237.446276 161.289781 
L 235.607974 158.961569 
L 230.914467 153.705988 
L 228.417875 150.80206 
L 226.054382 147.663255 
L 224.98216 145.978187 
L 224.022167 144.195754 
L 222.714028 140.971857 
L 221.157896 136.212975 
L 219.86911 131.269643 
L 219.180821 127.901258 
L 218.645886 124.495086 
L 218.279487 121.068399 
L 218.097865 117.638246 
L 218.118619 114.221596 
L 218.368512 110.778303 
L 218.961078 107.27912 
L 219.882909 103.938918 
L 221.040389 100.741235 
L 223.039575 96.165596 
L 227.700124 86.248229 
L 228.748724 83.579499 
L 230.08604 79.313487 
L 231.672873 73.415834 
L 233.819697 64.343409 
L 236.344954 53.568 
L 236.344954 53.568 
" style="fill:none;stroke:#ffffff;stroke-linecap:square;"/>
   </g>
   <g id="line2d_18">
    <path clip-path="url(#p1c5a1a6016)" d="M 253.070604 295.488 
L 253.344152 278.294955 
L 253.736718 262.921127 
L 254.263056 258.203991 
L 255.333119 249.745984 
L 255.582576 246.235909 
L 255.580965 242.67798 
L 255.204275 239.089495 
L 254.83028 237.295457 
L 254.306971 235.514087 
L 253.582735 233.693521 
L 252.63979 231.93465 
L 251.537291 230.348599 
L 250.316855 228.916966 
L 249.009987 227.616084 
L 246.227901 225.314606 
L 243.340226 223.288046 
L 236.539201 218.788456 
L 234.357974 217.092732 
L 232.676299 215.46527 
L 232.038909 214.688304 
L 231.438736 213.748099 
L 230.227481 211.31351 
L 229.113173 208.618663 
L 228.136076 205.743203 
L 227.330997 202.765574 
L 226.728486 199.764832 
L 226.354403 196.822254 
L 226.227794 194.02261 
L 226.356472 191.454146 
L 226.729947 189.204354 
L 227.134998 187.779084 
L 227.572038 187.020881 
L 228.239504 186.174185 
L 229.124317 185.269084 
L 231.438168 183.365544 
L 234.270048 181.399042 
L 240.555662 177.228534 
L 243.614582 174.837855 
L 245.044234 173.473221 
L 246.362746 171.928691 
L 247.502765 170.142502 
L 248.346114 168.07928 
L 248.740816 165.905877 
L 248.699535 163.851031 
L 248.333288 161.937797 
L 247.72894 160.173624 
L 246.951155 158.535402 
L 246.043147 156.99314 
L 243.949239 154.098727 
L 241.627989 151.355752 
L 235.892512 144.886272 
L 234.066994 142.49946 
L 232.740504 140.341233 
L 231.711261 137.822803 
L 230.328346 133.611133 
L 229.185414 129.251422 
L 228.325946 124.826633 
L 227.789865 120.420753 
L 227.629721 117.536028 
L 227.637831 114.722922 
L 227.813824 112.063922 
L 228.210797 109.583343 
L 228.903465 107.020523 
L 229.853849 104.372992 
L 231.653662 100.247783 
L 236.528174 89.844376 
L 237.784181 86.617136 
L 239.256454 81.915456 
L 240.924455 75.712563 
L 243.1137 66.461959 
L 245.601168 55.84599 
L 245.601168 55.84599 
" style="fill:none;stroke:#ffffff;stroke-linecap:square;"/>
   </g>
   <g id="patch_3">
    <path d="M 57.6 307.584 
L 57.6 41.472 
" style="fill:none;stroke:#000000;stroke-linecap:square;stroke-linejoin:miter;stroke-width:0.8;"/>
   </g>
   <g id="patch_4">
    <path d="M 414.72 307.584 
L 414.72 41.472 
" style="fill:none;stroke:#000000;stroke-linecap:square;stroke-linejoin:miter;stroke-width:0.8;"/>
   </g>
   <g id="patch_5">
    <path d="M 57.6 307.584 
L 414.72 307.584 
" style="fill:none;stroke:#000000;stroke-linecap:square;stroke-linejoin:miter;stroke-width:0.8;"/>
   </g>
   <g id="patch_6">
    <path d="M 57.6 41.472 
L 414.72 41.472 
" style="fill:none;stroke:#000000;stroke-linecap:square;stroke-linejoin:miter;stroke-width:0.8;"/>
   </g>
  </g>
 </g>
 <defs>
  <clipPath id="p1c5a1a6016">
   <rect height="266.112" width="357.12" x="57.6" y="41.472"/>
  </clipPath>
 </defs>
</svg>
