<?xml version="1.0" encoding="utf-8" standalone="no"?>
<!DOCTYPE svg PUBLIC "-//W3C//DTD SVG 1.1//EN"
  "http://www.w3.org/Graphics/SVG/1.1/DTD/svg11.dtd">
<!-- Created with matplotlib (https://matplotlib.org/) -->
<svg height="345.6pt" version="1.1" viewBox="0 0 460.8 345.6" width="460.8pt" xmlns="http://www.w3.org/2000/svg" xmlns:xlink="http://www.w3.org/1999/xlink">
 <metadata>
  <rdf:RDF xmlns:cc="http://creativecommons.org/ns#" xmlns:dc="http://purl.org/dc/elements/1.1/" xmlns:rdf="http://www.w3.org/1999/02/22-rdf-syntax-ns#">
   <cc:Work>
    <dc:type rdf:resource="http://purl.org/dc/dcmitype/StillImage"/>
    <dc:date>2021-06-17T13:17:37.190341</dc:date>
    <dc:format>image/svg+xml</dc:format>
    <dc:creator>
     <cc:Agent>
      <dc:title>Matplotlib v3.3.3, https://matplotlib.org/</dc:title>
     </cc:Agent>
    </dc:creator>
   </cc:Work>
  </rdf:RDF>
 </metadata>
 <defs>
  <style type="text/css">*{stroke-linecap:butt;stroke-linejoin:round;}</style>
 </defs>
 <g id="figure_1">
  <g id="patch_1">
   <path d="M 0 345.6 
L 460.8 345.6 
L 460.8 0 
L 0 0 
z
" style="fill:#ffffff;"/>
  </g>
  <g id="axes_1">
   <g id="patch_2">
    <path d="M 57.6 307.584 
L 414.72 307.584 
L 414.72 41.472 
L 57.6 41.472 
z
" style="fill:#7d9051;"/>
   </g>
   <g id="matplotlib.axis_1">
    <g id="xtick_1">
     <g id="line2d_1">
      <defs>
       <path d="M 0 0 
L 0 3.5 
" id="m0046eb4261" style="stroke:#000000;stroke-width:0.8;"/>
      </defs>
      <g>
       <use style="stroke:#000000;stroke-width:0.8;" x="86.732363" xlink:href="#m0046eb4261" y="307.584"/>
      </g>
     </g>
     <g id="text_1">
      <!-- −100 -->
      <g transform="translate(72.99877 322.182437)scale(0.1 -0.1)">
       <defs>
        <path d="M 10.59375 35.5 
L 73.1875 35.5 
L 73.1875 27.203125 
L 10.59375 27.203125 
z
" id="DejaVuSans-8722"/>
        <path d="M 12.40625 8.296875 
L 28.515625 8.296875 
L 28.515625 63.921875 
L 10.984375 60.40625 
L 10.984375 69.390625 
L 28.421875 72.90625 
L 38.28125 72.90625 
L 38.28125 8.296875 
L 54.390625 8.296875 
L 54.390625 0 
L 12.40625 0 
z
" id="DejaVuSans-49"/>
        <path d="M 31.78125 66.40625 
Q 24.171875 66.40625 20.328125 58.90625 
Q 16.5 51.421875 16.5 36.375 
Q 16.5 21.390625 20.328125 13.890625 
Q 24.171875 6.390625 31.78125 6.390625 
Q 39.453125 6.390625 43.28125 13.890625 
Q 47.125 21.390625 47.125 36.375 
Q 47.125 51.421875 43.28125 58.90625 
Q 39.453125 66.40625 31.78125 66.40625 
z
M 31.78125 74.21875 
Q 44.046875 74.21875 50.515625 64.515625 
Q 56.984375 54.828125 56.984375 36.375 
Q 56.984375 17.96875 50.515625 8.265625 
Q 44.046875 -1.421875 31.78125 -1.421875 
Q 19.53125 -1.421875 13.0625 8.265625 
Q 6.59375 17.96875 6.59375 36.375 
Q 6.59375 54.828125 13.0625 64.515625 
Q 19.53125 74.21875 31.78125 74.21875 
z
" id="DejaVuSans-48"/>
       </defs>
       <use xlink:href="#DejaVuSans-8722"/>
       <use x="83.789062" xlink:href="#DejaVuSans-49"/>
       <use x="147.412109" xlink:href="#DejaVuSans-48"/>
       <use x="211.035156" xlink:href="#DejaVuSans-48"/>
      </g>
     </g>
    </g>
    <g id="xtick_2">
     <g id="line2d_2">
      <g>
       <use style="stroke:#000000;stroke-width:0.8;" x="161.583573" xlink:href="#m0046eb4261" y="307.584"/>
      </g>
     </g>
     <g id="text_2">
      <!-- −50 -->
      <g transform="translate(151.031229 322.182437)scale(0.1 -0.1)">
       <defs>
        <path d="M 10.796875 72.90625 
L 49.515625 72.90625 
L 49.515625 64.59375 
L 19.828125 64.59375 
L 19.828125 46.734375 
Q 21.96875 47.46875 24.109375 47.828125 
Q 26.265625 48.1875 28.421875 48.1875 
Q 40.625 48.1875 47.75 41.5 
Q 54.890625 34.8125 54.890625 23.390625 
Q 54.890625 11.625 47.5625 5.09375 
Q 40.234375 -1.421875 26.90625 -1.421875 
Q 22.3125 -1.421875 17.546875 -0.640625 
Q 12.796875 0.140625 7.71875 1.703125 
L 7.71875 11.625 
Q 12.109375 9.234375 16.796875 8.0625 
Q 21.484375 6.890625 26.703125 6.890625 
Q 35.15625 6.890625 40.078125 11.328125 
Q 45.015625 15.765625 45.015625 23.390625 
Q 45.015625 31 40.078125 35.4375 
Q 35.15625 39.890625 26.703125 39.890625 
Q 22.75 39.890625 18.8125 39.015625 
Q 14.890625 38.140625 10.796875 36.28125 
z
" id="DejaVuSans-53"/>
       </defs>
       <use xlink:href="#DejaVuSans-8722"/>
       <use x="83.789062" xlink:href="#DejaVuSans-53"/>
       <use x="147.412109" xlink:href="#DejaVuSans-48"/>
      </g>
     </g>
    </g>
    <g id="xtick_3">
     <g id="line2d_3">
      <g>
       <use style="stroke:#000000;stroke-width:0.8;" x="236.434782" xlink:href="#m0046eb4261" y="307.584"/>
      </g>
     </g>
     <g id="text_3">
      <!-- 0 -->
      <g transform="translate(233.253532 322.182437)scale(0.1 -0.1)">
       <use xlink:href="#DejaVuSans-48"/>
      </g>
     </g>
    </g>
    <g id="xtick_4">
     <g id="line2d_4">
      <g>
       <use style="stroke:#000000;stroke-width:0.8;" x="311.285991" xlink:href="#m0046eb4261" y="307.584"/>
      </g>
     </g>
     <g id="text_4">
      <!-- 50 -->
      <g transform="translate(304.923491 322.182437)scale(0.1 -0.1)">
       <use xlink:href="#DejaVuSans-53"/>
       <use x="63.623047" xlink:href="#DejaVuSans-48"/>
      </g>
     </g>
    </g>
    <g id="xtick_5">
     <g id="line2d_5">
      <g>
       <use style="stroke:#000000;stroke-width:0.8;" x="386.137201" xlink:href="#m0046eb4261" y="307.584"/>
      </g>
     </g>
     <g id="text_5">
      <!-- 100 -->
      <g transform="translate(376.593451 322.182437)scale(0.1 -0.1)">
       <use xlink:href="#DejaVuSans-49"/>
       <use x="63.623047" xlink:href="#DejaVuSans-48"/>
       <use x="127.246094" xlink:href="#DejaVuSans-48"/>
      </g>
     </g>
    </g>
   </g>
   <g id="matplotlib.axis_2">
    <g id="ytick_1">
     <g id="line2d_6">
      <defs>
       <path d="M 0 0 
L -3.5 0 
" id="m554901a523" style="stroke:#000000;stroke-width:0.8;"/>
      </defs>
      <g>
       <use style="stroke:#000000;stroke-width:0.8;" x="57.6" xlink:href="#m554901a523" y="295.430389"/>
      </g>
     </g>
     <g id="text_6">
      <!-- 0 -->
      <g transform="translate(44.2375 299.229608)scale(0.1 -0.1)">
       <use xlink:href="#DejaVuSans-48"/>
      </g>
     </g>
    </g>
    <g id="ytick_2">
     <g id="line2d_7">
      <g>
       <use style="stroke:#000000;stroke-width:0.8;" x="57.6" xlink:href="#m554901a523" y="265.489905"/>
      </g>
     </g>
     <g id="text_7">
      <!-- 20 -->
      <g transform="translate(37.875 269.289124)scale(0.1 -0.1)">
       <defs>
        <path d="M 19.1875 8.296875 
L 53.609375 8.296875 
L 53.609375 0 
L 7.328125 0 
L 7.328125 8.296875 
Q 12.9375 14.109375 22.625 23.890625 
Q 32.328125 33.6875 34.8125 36.53125 
Q 39.546875 41.84375 41.421875 45.53125 
Q 43.3125 49.21875 43.3125 52.78125 
Q 43.3125 58.59375 39.234375 62.25 
Q 35.15625 65.921875 28.609375 65.921875 
Q 23.96875 65.921875 18.8125 64.3125 
Q 13.671875 62.703125 7.8125 59.421875 
L 7.8125 69.390625 
Q 13.765625 71.78125 18.9375 73 
Q 24.125 74.21875 28.421875 74.21875 
Q 39.75 74.21875 46.484375 68.546875 
Q 53.21875 62.890625 53.21875 53.421875 
Q 53.21875 48.921875 51.53125 44.890625 
Q 49.859375 40.875 45.40625 35.40625 
Q 44.1875 33.984375 37.640625 27.21875 
Q 31.109375 20.453125 19.1875 8.296875 
z
" id="DejaVuSans-50"/>
       </defs>
       <use xlink:href="#DejaVuSans-50"/>
       <use x="63.623047" xlink:href="#DejaVuSans-48"/>
      </g>
     </g>
    </g>
    <g id="ytick_3">
     <g id="line2d_8">
      <g>
       <use style="stroke:#000000;stroke-width:0.8;" x="57.6" xlink:href="#m554901a523" y="235.549421"/>
      </g>
     </g>
     <g id="text_8">
      <!-- 40 -->
      <g transform="translate(37.875 239.34864)scale(0.1 -0.1)">
       <defs>
        <path d="M 37.796875 64.3125 
L 12.890625 25.390625 
L 37.796875 25.390625 
z
M 35.203125 72.90625 
L 47.609375 72.90625 
L 47.609375 25.390625 
L 58.015625 25.390625 
L 58.015625 17.1875 
L 47.609375 17.1875 
L 47.609375 0 
L 37.796875 0 
L 37.796875 17.1875 
L 4.890625 17.1875 
L 4.890625 26.703125 
z
" id="DejaVuSans-52"/>
       </defs>
       <use xlink:href="#DejaVuSans-52"/>
       <use x="63.623047" xlink:href="#DejaVuSans-48"/>
      </g>
     </g>
    </g>
    <g id="ytick_4">
     <g id="line2d_9">
      <g>
       <use style="stroke:#000000;stroke-width:0.8;" x="57.6" xlink:href="#m554901a523" y="205.608938"/>
      </g>
     </g>
     <g id="text_9">
      <!-- 60 -->
      <g transform="translate(37.875 209.408157)scale(0.1 -0.1)">
       <defs>
        <path d="M 33.015625 40.375 
Q 26.375 40.375 22.484375 35.828125 
Q 18.609375 31.296875 18.609375 23.390625 
Q 18.609375 15.53125 22.484375 10.953125 
Q 26.375 6.390625 33.015625 6.390625 
Q 39.65625 6.390625 43.53125 10.953125 
Q 47.40625 15.53125 47.40625 23.390625 
Q 47.40625 31.296875 43.53125 35.828125 
Q 39.65625 40.375 33.015625 40.375 
z
M 52.59375 71.296875 
L 52.59375 62.3125 
Q 48.875 64.0625 45.09375 64.984375 
Q 41.3125 65.921875 37.59375 65.921875 
Q 27.828125 65.921875 22.671875 59.328125 
Q 17.53125 52.734375 16.796875 39.40625 
Q 19.671875 43.65625 24.015625 45.921875 
Q 28.375 48.1875 33.59375 48.1875 
Q 44.578125 48.1875 50.953125 41.515625 
Q 57.328125 34.859375 57.328125 23.390625 
Q 57.328125 12.15625 50.6875 5.359375 
Q 44.046875 -1.421875 33.015625 -1.421875 
Q 20.359375 -1.421875 13.671875 8.265625 
Q 6.984375 17.96875 6.984375 36.375 
Q 6.984375 53.65625 15.1875 63.9375 
Q 23.390625 74.21875 37.203125 74.21875 
Q 40.921875 74.21875 44.703125 73.484375 
Q 48.484375 72.75 52.59375 71.296875 
z
" id="DejaVuSans-54"/>
       </defs>
       <use xlink:href="#DejaVuSans-54"/>
       <use x="63.623047" xlink:href="#DejaVuSans-48"/>
      </g>
     </g>
    </g>
    <g id="ytick_5">
     <g id="line2d_10">
      <g>
       <use style="stroke:#000000;stroke-width:0.8;" x="57.6" xlink:href="#m554901a523" y="175.668454"/>
      </g>
     </g>
     <g id="text_10">
      <!-- 80 -->
      <g transform="translate(37.875 179.467673)scale(0.1 -0.1)">
       <defs>
        <path d="M 31.78125 34.625 
Q 24.75 34.625 20.71875 30.859375 
Q 16.703125 27.09375 16.703125 20.515625 
Q 16.703125 13.921875 20.71875 10.15625 
Q 24.75 6.390625 31.78125 6.390625 
Q 38.8125 6.390625 42.859375 10.171875 
Q 46.921875 13.96875 46.921875 20.515625 
Q 46.921875 27.09375 42.890625 30.859375 
Q 38.875 34.625 31.78125 34.625 
z
M 21.921875 38.8125 
Q 15.578125 40.375 12.03125 44.71875 
Q 8.5 49.078125 8.5 55.328125 
Q 8.5 64.0625 14.71875 69.140625 
Q 20.953125 74.21875 31.78125 74.21875 
Q 42.671875 74.21875 48.875 69.140625 
Q 55.078125 64.0625 55.078125 55.328125 
Q 55.078125 49.078125 51.53125 44.71875 
Q 48 40.375 41.703125 38.8125 
Q 48.828125 37.15625 52.796875 32.3125 
Q 56.78125 27.484375 56.78125 20.515625 
Q 56.78125 9.90625 50.3125 4.234375 
Q 43.84375 -1.421875 31.78125 -1.421875 
Q 19.734375 -1.421875 13.25 4.234375 
Q 6.78125 9.90625 6.78125 20.515625 
Q 6.78125 27.484375 10.78125 32.3125 
Q 14.796875 37.15625 21.921875 38.8125 
z
M 18.3125 54.390625 
Q 18.3125 48.734375 21.84375 45.5625 
Q 25.390625 42.390625 31.78125 42.390625 
Q 38.140625 42.390625 41.71875 45.5625 
Q 45.3125 48.734375 45.3125 54.390625 
Q 45.3125 60.0625 41.71875 63.234375 
Q 38.140625 66.40625 31.78125 66.40625 
Q 25.390625 66.40625 21.84375 63.234375 
Q 18.3125 60.0625 18.3125 54.390625 
z
" id="DejaVuSans-56"/>
       </defs>
       <use xlink:href="#DejaVuSans-56"/>
       <use x="63.623047" xlink:href="#DejaVuSans-48"/>
      </g>
     </g>
    </g>
    <g id="ytick_6">
     <g id="line2d_11">
      <g>
       <use style="stroke:#000000;stroke-width:0.8;" x="57.6" xlink:href="#m554901a523" y="145.72797"/>
      </g>
     </g>
     <g id="text_11">
      <!-- 100 -->
      <g transform="translate(31.5125 149.527189)scale(0.1 -0.1)">
       <use xlink:href="#DejaVuSans-49"/>
       <use x="63.623047" xlink:href="#DejaVuSans-48"/>
       <use x="127.246094" xlink:href="#DejaVuSans-48"/>
      </g>
     </g>
    </g>
    <g id="ytick_7">
     <g id="line2d_12">
      <g>
       <use style="stroke:#000000;stroke-width:0.8;" x="57.6" xlink:href="#m554901a523" y="115.787487"/>
      </g>
     </g>
     <g id="text_12">
      <!-- 120 -->
      <g transform="translate(31.5125 119.586705)scale(0.1 -0.1)">
       <use xlink:href="#DejaVuSans-49"/>
       <use x="63.623047" xlink:href="#DejaVuSans-50"/>
       <use x="127.246094" xlink:href="#DejaVuSans-48"/>
      </g>
     </g>
    </g>
    <g id="ytick_8">
     <g id="line2d_13">
      <g>
       <use style="stroke:#000000;stroke-width:0.8;" x="57.6" xlink:href="#m554901a523" y="85.847003"/>
      </g>
     </g>
     <g id="text_13">
      <!-- 140 -->
      <g transform="translate(31.5125 89.646222)scale(0.1 -0.1)">
       <use xlink:href="#DejaVuSans-49"/>
       <use x="63.623047" xlink:href="#DejaVuSans-52"/>
       <use x="127.246094" xlink:href="#DejaVuSans-48"/>
      </g>
     </g>
    </g>
    <g id="ytick_9">
     <g id="line2d_14">
      <g>
       <use style="stroke:#000000;stroke-width:0.8;" x="57.6" xlink:href="#m554901a523" y="55.906519"/>
      </g>
     </g>
     <g id="text_14">
      <!-- 160 -->
      <g transform="translate(31.5125 59.705738)scale(0.1 -0.1)">
       <use xlink:href="#DejaVuSans-49"/>
       <use x="63.623047" xlink:href="#DejaVuSans-54"/>
       <use x="127.246094" xlink:href="#DejaVuSans-48"/>
      </g>
     </g>
    </g>
   </g>
   <g id="line2d_15">
    <path clip-path="url(#pe054f44f44)" d="M 236.434782 295.430389 
L 236.701324 277.704797 
L 237.090445 254.058067 
L 236.838197 246.100895 
L 236.522887 236.154431 
L 236.614325 230.243646 
L 236.889651 226.346736 
L 237.391035 222.495818 
L 238.179127 218.70352 
L 239.333056 214.987385 
L 240.783381 211.332835 
L 243.319983 205.925203 
L 247.76918 196.95306 
L 249.366887 193.323363 
L 250.727149 189.642022 
L 251.760994 185.890163 
L 253.940506 175.880152 
L 255.05082 169.60674 
L 255.567441 165.43702 
L 255.826038 161.346769 
L 255.758769 157.395495 
L 255.581732 155.49057 
L 255.297788 153.642705 
L 254.898454 151.859337 
L 254.375252 150.147906 
L 253.719699 148.515849 
L 252.896911 146.976477 
L 251.889808 145.531327 
L 250.716612 144.170176 
L 249.395548 142.882801 
L 247.94484 141.658982 
L 244.727392 139.361119 
L 241.210059 137.194809 
L 232.061507 131.817915 
L 228.642707 129.468044 
L 227.057765 128.209552 
L 225.580095 126.881727 
L 222.923022 124.000259 
L 217.470829 117.694606 
L 214.77175 114.347544 
L 212.217598 110.910113 
L 209.903561 107.411653 
L 207.924826 103.881505 
L 206.376581 100.34901 
L 205.793638 98.591052 
L 205.354013 96.843509 
L 205.069603 95.11005 
L 204.952309 93.394342 
L 205.000068 91.630484 
L 205.197177 89.762872 
L 205.53507 87.810621 
L 206.598931 83.72866 
L 208.123111 79.537518 
L 210.039069 75.390111 
L 212.278265 71.439355 
L 214.772156 67.838166 
L 216.093194 66.216446 
L 217.452204 64.739462 
L 218.840617 63.426327 
L 220.249866 62.296158 
L 221.671383 61.368067 
L 223.096602 60.661171 
L 224.605068 60.15304 
L 226.268807 59.803579 
L 228.067966 59.605395 
L 229.982693 59.551098 
L 231.993137 59.633296 
L 234.079444 59.844599 
L 238.400244 60.624953 
L 242.786275 61.83303 
L 247.078722 63.409703 
L 251.118769 65.295841 
L 254.747599 67.432316 
L 256.358178 68.575952 
L 257.806396 69.759999 
L 259.072402 70.977065 
L 260.166358 72.278711 
L 261.119698 73.713797 
L 261.944473 75.270885 
L 262.652738 76.938538 
L 263.256544 78.705319 
L 264.198994 82.49051 
L 264.868246 86.534956 
L 265.570801 92.88757 
L 266.451295 101.411097 
L 267.084388 105.489857 
L 267.491331 107.443454 
L 267.491331 107.443454 
" style="fill:none;stroke:#fea952;stroke-linecap:square;"/>
   </g>
   <g id="line2d_16">
    <path clip-path="url(#pe054f44f44)" d="M 230.446962 295.372778 
L 230.714381 277.587266 
L 231.103544 254.177762 
L 230.855229 246.348677 
L 230.534806 236.168356 
L 230.562261 232.00054 
L 230.759511 227.789534 
L 231.184629 223.544759 
L 231.908089 219.236658 
L 233.035608 214.934192 
L 234.497105 210.855646 
L 236.175317 206.969709 
L 238.872483 201.433018 
L 242.318317 194.474069 
L 243.788553 191.146326 
L 244.994565 187.911478 
L 245.916752 184.585504 
L 248.448722 172.746304 
L 249.118081 168.794393 
L 249.598666 164.956359 
L 249.838038 161.312765 
L 249.796366 157.949618 
L 249.454395 154.951163 
L 248.818654 152.37984 
L 247.984093 150.400147 
L 247.354017 149.44079 
L 246.537424 148.458729 
L 245.534394 147.459787 
L 243.011955 145.437767 
L 239.917098 143.401891 
L 234.548271 140.266244 
L 228.765175 136.817065 
L 224.919068 134.157587 
L 223.055402 132.663583 
L 221.262028 131.030414 
L 218.432979 127.96218 
L 212.84067 121.491832 
L 210.007087 117.974566 
L 207.275717 114.291698 
L 204.742474 110.448178 
L 202.509027 106.436191 
L 201.540379 104.360613 
L 200.692829 102.233755 
L 199.986479 100.051946 
L 199.444922 97.813016 
L 199.095451 95.518475 
L 198.966406 93.232264 
L 199.045046 91.001985 
L 199.296805 88.741646 
L 199.703162 86.451887 
L 200.250423 84.137515 
L 200.927691 81.806593 
L 202.636563 77.13854 
L 204.768289 72.548249 
L 207.275404 68.148657 
L 208.659752 66.056771 
L 210.129465 64.056273 
L 211.686641 62.16187 
L 213.337564 60.38894 
L 215.094285 58.754893 
L 216.976253 57.282101 
L 219.01064 56.003578 
L 221.185037 54.986382 
L 223.374154 54.292823 
L 225.613163 53.851484 
L 227.898226 53.619705 
L 230.227316 53.568 
L 232.596528 53.675678 
L 234.999226 53.927564 
L 237.426252 54.311908 
L 239.866439 54.81913 
L 244.734659 56.170778 
L 249.492635 57.929709 
L 254.023777 60.059599 
L 256.16852 61.258787 
L 258.214492 62.549903 
L 260.14842 63.940073 
L 261.956361 65.44316 
L 263.656521 67.124383 
L 265.154178 68.96526 
L 266.411294 70.910886 
L 267.456084 72.930063 
L 268.319067 75.002041 
L 269.029167 77.113421 
L 270.090542 81.419542 
L 270.809768 85.78956 
L 271.532583 92.326805 
L 272.380984 100.576778 
L 272.946651 104.268722 
L 273.353594 106.222318 
L 273.353594 106.222318 
" style="fill:none;stroke:#ffffff;stroke-linecap:square;"/>
   </g>
   <g id="line2d_17">
    <path clip-path="url(#pe054f44f44)" d="M 242.422602 295.488 
L 242.688268 277.822328 
L 243.077345 253.938371 
L 242.821165 245.853113 
L 242.510967 236.140505 
L 242.592548 230.587381 
L 242.839459 227.022815 
L 243.280535 223.577991 
L 243.936058 220.351259 
L 244.933836 217.106007 
L 246.250848 213.774989 
L 248.674409 208.60614 
L 253.220043 199.432051 
L 254.945221 195.500401 
L 256.459734 191.372565 
L 257.605236 187.194823 
L 259.819387 177.0186 
L 260.983559 170.419087 
L 261.536215 165.917681 
L 261.814038 161.380774 
L 261.721172 156.841373 
L 261.500363 154.581109 
L 261.141181 152.334247 
L 260.624932 150.108692 
L 259.931849 147.915972 
L 259.000763 145.693144 
L 257.80973 143.552808 
L 256.425598 141.621864 
L 254.895799 139.881622 
L 253.256701 138.305816 
L 251.535522 136.866873 
L 247.928487 134.300458 
L 244.215567 132.015598 
L 235.357839 126.818765 
L 232.366346 124.7785 
L 229.898162 122.733041 
L 227.413065 120.038338 
L 222.100989 113.89738 
L 218.318525 109.123322 
L 216.071038 105.943181 
L 214.15119 102.833112 
L 212.641507 99.866822 
L 211.600797 97.130158 
L 211.043755 94.701625 
L 210.938211 93.55642 
L 210.95509 92.258982 
L 211.09755 90.784098 
L 211.75993 87.448176 
L 212.889766 83.804797 
L 214.419927 80.070804 
L 216.26782 76.443837 
L 218.335562 73.114243 
L 220.499747 70.271023 
L 222.586948 68.097762 
L 224.332126 66.732557 
L 225.008166 66.335959 
L 225.835983 66.013258 
L 226.924451 65.755674 
L 228.237706 65.591086 
L 229.73807 65.534196 
L 233.159663 65.761634 
L 236.934049 66.430775 
L 240.837891 67.495283 
L 244.66481 68.889696 
L 248.213762 70.532083 
L 251.280706 72.314729 
L 253.656431 74.076837 
L 255.178538 75.592161 
L 255.828101 76.516707 
L 256.432862 77.611707 
L 256.986409 78.875036 
L 257.923728 81.864556 
L 258.639543 85.371963 
L 259.177396 89.271727 
L 260.838414 104.479348 
L 261.629068 108.66459 
L 261.629068 108.66459 
" style="fill:none;stroke:#ffffff;stroke-linecap:square;"/>
   </g>
   <g id="patch_3">
    <path d="M 57.6 307.584 
L 57.6 41.472 
" style="fill:none;stroke:#000000;stroke-linecap:square;stroke-linejoin:miter;stroke-width:0.8;"/>
   </g>
   <g id="patch_4">
    <path d="M 414.72 307.584 
L 414.72 41.472 
" style="fill:none;stroke:#000000;stroke-linecap:square;stroke-linejoin:miter;stroke-width:0.8;"/>
   </g>
   <g id="patch_5">
    <path d="M 57.6 307.584 
L 414.72 307.584 
" style="fill:none;stroke:#000000;stroke-linecap:square;stroke-linejoin:miter;stroke-width:0.8;"/>
   </g>
   <g id="patch_6">
    <path d="M 57.6 41.472 
L 414.72 41.472 
" style="fill:none;stroke:#000000;stroke-linecap:square;stroke-linejoin:miter;stroke-width:0.8;"/>
   </g>
  </g>
 </g>
 <defs>
  <clipPath id="pe054f44f44">
   <rect height="266.112" width="357.12" x="57.6" y="41.472"/>
  </clipPath>
 </defs>
</svg>
