<?xml version="1.0" encoding="utf-8" standalone="no"?>
<!DOCTYPE svg PUBLIC "-//W3C//DTD SVG 1.1//EN"
  "http://www.w3.org/Graphics/SVG/1.1/DTD/svg11.dtd">
<!-- Created with matplotlib (https://matplotlib.org/) -->
<svg height="345.6pt" version="1.1" viewBox="0 0 460.8 345.6" width="460.8pt" xmlns="http://www.w3.org/2000/svg" xmlns:xlink="http://www.w3.org/1999/xlink">
 <metadata>
  <rdf:RDF xmlns:cc="http://creativecommons.org/ns#" xmlns:dc="http://purl.org/dc/elements/1.1/" xmlns:rdf="http://www.w3.org/1999/02/22-rdf-syntax-ns#">
   <cc:Work>
    <dc:type rdf:resource="http://purl.org/dc/dcmitype/StillImage"/>
    <dc:date>2021-06-19T00:19:57.738630</dc:date>
    <dc:format>image/svg+xml</dc:format>
    <dc:creator>
     <cc:Agent>
      <dc:title>Matplotlib v3.3.3, https://matplotlib.org/</dc:title>
     </cc:Agent>
    </dc:creator>
   </cc:Work>
  </rdf:RDF>
 </metadata>
 <defs>
  <style type="text/css">*{stroke-linecap:butt;stroke-linejoin:round;}</style>
 </defs>
 <g id="figure_1">
  <g id="patch_1">
   <path d="M 0 345.6 
L 460.8 345.6 
L 460.8 0 
L 0 0 
z
" style="fill:#ffffff;"/>
  </g>
  <g id="axes_1">
   <g id="patch_2">
    <path d="M 57.6 307.584 
L 414.72 307.584 
L 414.72 41.472 
L 57.6 41.472 
z
" style="fill:#7d9051;"/>
   </g>
   <g id="matplotlib.axis_1">
    <g id="xtick_1">
     <g id="line2d_1">
      <defs>
       <path d="M 0 0 
L 0 3.5 
" id="m2b000000b8" style="stroke:#000000;stroke-width:0.8;"/>
      </defs>
      <g>
       <use style="stroke:#000000;stroke-width:0.8;" x="91.856372" xlink:href="#m2b000000b8" y="307.584"/>
      </g>
     </g>
     <g id="text_1">
      <!-- −150 -->
      <g transform="translate(78.122778 322.182437)scale(0.1 -0.1)">
       <defs>
        <path d="M 10.59375 35.5 
L 73.1875 35.5 
L 73.1875 27.203125 
L 10.59375 27.203125 
z
" id="DejaVuSans-8722"/>
        <path d="M 12.40625 8.296875 
L 28.515625 8.296875 
L 28.515625 63.921875 
L 10.984375 60.40625 
L 10.984375 69.390625 
L 28.421875 72.90625 
L 38.28125 72.90625 
L 38.28125 8.296875 
L 54.390625 8.296875 
L 54.390625 0 
L 12.40625 0 
z
" id="DejaVuSans-49"/>
        <path d="M 10.796875 72.90625 
L 49.515625 72.90625 
L 49.515625 64.59375 
L 19.828125 64.59375 
L 19.828125 46.734375 
Q 21.96875 47.46875 24.109375 47.828125 
Q 26.265625 48.1875 28.421875 48.1875 
Q 40.625 48.1875 47.75 41.5 
Q 54.890625 34.8125 54.890625 23.390625 
Q 54.890625 11.625 47.5625 5.09375 
Q 40.234375 -1.421875 26.90625 -1.421875 
Q 22.3125 -1.421875 17.546875 -0.640625 
Q 12.796875 0.140625 7.71875 1.703125 
L 7.71875 11.625 
Q 12.109375 9.234375 16.796875 8.0625 
Q 21.484375 6.890625 26.703125 6.890625 
Q 35.15625 6.890625 40.078125 11.328125 
Q 45.015625 15.765625 45.015625 23.390625 
Q 45.015625 31 40.078125 35.4375 
Q 35.15625 39.890625 26.703125 39.890625 
Q 22.75 39.890625 18.8125 39.015625 
Q 14.890625 38.140625 10.796875 36.28125 
z
" id="DejaVuSans-53"/>
        <path d="M 31.78125 66.40625 
Q 24.171875 66.40625 20.328125 58.90625 
Q 16.5 51.421875 16.5 36.375 
Q 16.5 21.390625 20.328125 13.890625 
Q 24.171875 6.390625 31.78125 6.390625 
Q 39.453125 6.390625 43.28125 13.890625 
Q 47.125 21.390625 47.125 36.375 
Q 47.125 51.421875 43.28125 58.90625 
Q 39.453125 66.40625 31.78125 66.40625 
z
M 31.78125 74.21875 
Q 44.046875 74.21875 50.515625 64.515625 
Q 56.984375 54.828125 56.984375 36.375 
Q 56.984375 17.96875 50.515625 8.265625 
Q 44.046875 -1.421875 31.78125 -1.421875 
Q 19.53125 -1.421875 13.0625 8.265625 
Q 6.59375 17.96875 6.59375 36.375 
Q 6.59375 54.828125 13.0625 64.515625 
Q 19.53125 74.21875 31.78125 74.21875 
z
" id="DejaVuSans-48"/>
       </defs>
       <use xlink:href="#DejaVuSans-8722"/>
       <use x="83.789062" xlink:href="#DejaVuSans-49"/>
       <use x="147.412109" xlink:href="#DejaVuSans-53"/>
       <use x="211.035156" xlink:href="#DejaVuSans-48"/>
      </g>
     </g>
    </g>
    <g id="xtick_2">
     <g id="line2d_2">
      <g>
       <use style="stroke:#000000;stroke-width:0.8;" x="140.831781" xlink:href="#m2b000000b8" y="307.584"/>
      </g>
     </g>
     <g id="text_2">
      <!-- −125 -->
      <g transform="translate(127.098188 322.182437)scale(0.1 -0.1)">
       <defs>
        <path d="M 19.1875 8.296875 
L 53.609375 8.296875 
L 53.609375 0 
L 7.328125 0 
L 7.328125 8.296875 
Q 12.9375 14.109375 22.625 23.890625 
Q 32.328125 33.6875 34.8125 36.53125 
Q 39.546875 41.84375 41.421875 45.53125 
Q 43.3125 49.21875 43.3125 52.78125 
Q 43.3125 58.59375 39.234375 62.25 
Q 35.15625 65.921875 28.609375 65.921875 
Q 23.96875 65.921875 18.8125 64.3125 
Q 13.671875 62.703125 7.8125 59.421875 
L 7.8125 69.390625 
Q 13.765625 71.78125 18.9375 73 
Q 24.125 74.21875 28.421875 74.21875 
Q 39.75 74.21875 46.484375 68.546875 
Q 53.21875 62.890625 53.21875 53.421875 
Q 53.21875 48.921875 51.53125 44.890625 
Q 49.859375 40.875 45.40625 35.40625 
Q 44.1875 33.984375 37.640625 27.21875 
Q 31.109375 20.453125 19.1875 8.296875 
z
" id="DejaVuSans-50"/>
       </defs>
       <use xlink:href="#DejaVuSans-8722"/>
       <use x="83.789062" xlink:href="#DejaVuSans-49"/>
       <use x="147.412109" xlink:href="#DejaVuSans-50"/>
       <use x="211.035156" xlink:href="#DejaVuSans-53"/>
      </g>
     </g>
    </g>
    <g id="xtick_3">
     <g id="line2d_3">
      <g>
       <use style="stroke:#000000;stroke-width:0.8;" x="189.807191" xlink:href="#m2b000000b8" y="307.584"/>
      </g>
     </g>
     <g id="text_3">
      <!-- −100 -->
      <g transform="translate(176.073597 322.182437)scale(0.1 -0.1)">
       <use xlink:href="#DejaVuSans-8722"/>
       <use x="83.789062" xlink:href="#DejaVuSans-49"/>
       <use x="147.412109" xlink:href="#DejaVuSans-48"/>
       <use x="211.035156" xlink:href="#DejaVuSans-48"/>
      </g>
     </g>
    </g>
    <g id="xtick_4">
     <g id="line2d_4">
      <g>
       <use style="stroke:#000000;stroke-width:0.8;" x="238.7826" xlink:href="#m2b000000b8" y="307.584"/>
      </g>
     </g>
     <g id="text_4">
      <!-- −75 -->
      <g transform="translate(228.230256 322.182437)scale(0.1 -0.1)">
       <defs>
        <path d="M 8.203125 72.90625 
L 55.078125 72.90625 
L 55.078125 68.703125 
L 28.609375 0 
L 18.3125 0 
L 43.21875 64.59375 
L 8.203125 64.59375 
z
" id="DejaVuSans-55"/>
       </defs>
       <use xlink:href="#DejaVuSans-8722"/>
       <use x="83.789062" xlink:href="#DejaVuSans-55"/>
       <use x="147.412109" xlink:href="#DejaVuSans-53"/>
      </g>
     </g>
    </g>
    <g id="xtick_5">
     <g id="line2d_5">
      <g>
       <use style="stroke:#000000;stroke-width:0.8;" x="287.758009" xlink:href="#m2b000000b8" y="307.584"/>
      </g>
     </g>
     <g id="text_5">
      <!-- −50 -->
      <g transform="translate(277.205666 322.182437)scale(0.1 -0.1)">
       <use xlink:href="#DejaVuSans-8722"/>
       <use x="83.789062" xlink:href="#DejaVuSans-53"/>
       <use x="147.412109" xlink:href="#DejaVuSans-48"/>
      </g>
     </g>
    </g>
    <g id="xtick_6">
     <g id="line2d_6">
      <g>
       <use style="stroke:#000000;stroke-width:0.8;" x="336.733419" xlink:href="#m2b000000b8" y="307.584"/>
      </g>
     </g>
     <g id="text_6">
      <!-- −25 -->
      <g transform="translate(326.181075 322.182437)scale(0.1 -0.1)">
       <use xlink:href="#DejaVuSans-8722"/>
       <use x="83.789062" xlink:href="#DejaVuSans-50"/>
       <use x="147.412109" xlink:href="#DejaVuSans-53"/>
      </g>
     </g>
    </g>
    <g id="xtick_7">
     <g id="line2d_7">
      <g>
       <use style="stroke:#000000;stroke-width:0.8;" x="385.708828" xlink:href="#m2b000000b8" y="307.584"/>
      </g>
     </g>
     <g id="text_7">
      <!-- 0 -->
      <g transform="translate(382.527578 322.182437)scale(0.1 -0.1)">
       <use xlink:href="#DejaVuSans-48"/>
      </g>
     </g>
    </g>
   </g>
   <g id="matplotlib.axis_2">
    <g id="ytick_1">
     <g id="line2d_8">
      <defs>
       <path d="M 0 0 
L -3.5 0 
" id="m2c2e2638ec" style="stroke:#000000;stroke-width:0.8;"/>
      </defs>
      <g>
       <use style="stroke:#000000;stroke-width:0.8;" x="57.6" xlink:href="#m2c2e2638ec" y="283.606929"/>
      </g>
     </g>
     <g id="text_8">
      <!-- −20 -->
      <g transform="translate(29.495313 287.406148)scale(0.1 -0.1)">
       <use xlink:href="#DejaVuSans-8722"/>
       <use x="83.789062" xlink:href="#DejaVuSans-50"/>
       <use x="147.412109" xlink:href="#DejaVuSans-48"/>
      </g>
     </g>
    </g>
    <g id="ytick_2">
     <g id="line2d_9">
      <g>
       <use style="stroke:#000000;stroke-width:0.8;" x="57.6" xlink:href="#m2c2e2638ec" y="244.426602"/>
      </g>
     </g>
     <g id="text_9">
      <!-- 0 -->
      <g transform="translate(44.2375 248.225821)scale(0.1 -0.1)">
       <use xlink:href="#DejaVuSans-48"/>
      </g>
     </g>
    </g>
    <g id="ytick_3">
     <g id="line2d_10">
      <g>
       <use style="stroke:#000000;stroke-width:0.8;" x="57.6" xlink:href="#m2c2e2638ec" y="205.246275"/>
      </g>
     </g>
     <g id="text_10">
      <!-- 20 -->
      <g transform="translate(37.875 209.045493)scale(0.1 -0.1)">
       <use xlink:href="#DejaVuSans-50"/>
       <use x="63.623047" xlink:href="#DejaVuSans-48"/>
      </g>
     </g>
    </g>
    <g id="ytick_4">
     <g id="line2d_11">
      <g>
       <use style="stroke:#000000;stroke-width:0.8;" x="57.6" xlink:href="#m2c2e2638ec" y="166.065947"/>
      </g>
     </g>
     <g id="text_11">
      <!-- 40 -->
      <g transform="translate(37.875 169.865166)scale(0.1 -0.1)">
       <defs>
        <path d="M 37.796875 64.3125 
L 12.890625 25.390625 
L 37.796875 25.390625 
z
M 35.203125 72.90625 
L 47.609375 72.90625 
L 47.609375 25.390625 
L 58.015625 25.390625 
L 58.015625 17.1875 
L 47.609375 17.1875 
L 47.609375 0 
L 37.796875 0 
L 37.796875 17.1875 
L 4.890625 17.1875 
L 4.890625 26.703125 
z
" id="DejaVuSans-52"/>
       </defs>
       <use xlink:href="#DejaVuSans-52"/>
       <use x="63.623047" xlink:href="#DejaVuSans-48"/>
      </g>
     </g>
    </g>
    <g id="ytick_5">
     <g id="line2d_12">
      <g>
       <use style="stroke:#000000;stroke-width:0.8;" x="57.6" xlink:href="#m2c2e2638ec" y="126.88562"/>
      </g>
     </g>
     <g id="text_12">
      <!-- 60 -->
      <g transform="translate(37.875 130.684838)scale(0.1 -0.1)">
       <defs>
        <path d="M 33.015625 40.375 
Q 26.375 40.375 22.484375 35.828125 
Q 18.609375 31.296875 18.609375 23.390625 
Q 18.609375 15.53125 22.484375 10.953125 
Q 26.375 6.390625 33.015625 6.390625 
Q 39.65625 6.390625 43.53125 10.953125 
Q 47.40625 15.53125 47.40625 23.390625 
Q 47.40625 31.296875 43.53125 35.828125 
Q 39.65625 40.375 33.015625 40.375 
z
M 52.59375 71.296875 
L 52.59375 62.3125 
Q 48.875 64.0625 45.09375 64.984375 
Q 41.3125 65.921875 37.59375 65.921875 
Q 27.828125 65.921875 22.671875 59.328125 
Q 17.53125 52.734375 16.796875 39.40625 
Q 19.671875 43.65625 24.015625 45.921875 
Q 28.375 48.1875 33.59375 48.1875 
Q 44.578125 48.1875 50.953125 41.515625 
Q 57.328125 34.859375 57.328125 23.390625 
Q 57.328125 12.15625 50.6875 5.359375 
Q 44.046875 -1.421875 33.015625 -1.421875 
Q 20.359375 -1.421875 13.671875 8.265625 
Q 6.984375 17.96875 6.984375 36.375 
Q 6.984375 53.65625 15.1875 63.9375 
Q 23.390625 74.21875 37.203125 74.21875 
Q 40.921875 74.21875 44.703125 73.484375 
Q 48.484375 72.75 52.59375 71.296875 
z
" id="DejaVuSans-54"/>
       </defs>
       <use xlink:href="#DejaVuSans-54"/>
       <use x="63.623047" xlink:href="#DejaVuSans-48"/>
      </g>
     </g>
    </g>
    <g id="ytick_6">
     <g id="line2d_13">
      <g>
       <use style="stroke:#000000;stroke-width:0.8;" x="57.6" xlink:href="#m2c2e2638ec" y="87.705292"/>
      </g>
     </g>
     <g id="text_13">
      <!-- 80 -->
      <g transform="translate(37.875 91.504511)scale(0.1 -0.1)">
       <defs>
        <path d="M 31.78125 34.625 
Q 24.75 34.625 20.71875 30.859375 
Q 16.703125 27.09375 16.703125 20.515625 
Q 16.703125 13.921875 20.71875 10.15625 
Q 24.75 6.390625 31.78125 6.390625 
Q 38.8125 6.390625 42.859375 10.171875 
Q 46.921875 13.96875 46.921875 20.515625 
Q 46.921875 27.09375 42.890625 30.859375 
Q 38.875 34.625 31.78125 34.625 
z
M 21.921875 38.8125 
Q 15.578125 40.375 12.03125 44.71875 
Q 8.5 49.078125 8.5 55.328125 
Q 8.5 64.0625 14.71875 69.140625 
Q 20.953125 74.21875 31.78125 74.21875 
Q 42.671875 74.21875 48.875 69.140625 
Q 55.078125 64.0625 55.078125 55.328125 
Q 55.078125 49.078125 51.53125 44.71875 
Q 48 40.375 41.703125 38.8125 
Q 48.828125 37.15625 52.796875 32.3125 
Q 56.78125 27.484375 56.78125 20.515625 
Q 56.78125 9.90625 50.3125 4.234375 
Q 43.84375 -1.421875 31.78125 -1.421875 
Q 19.734375 -1.421875 13.25 4.234375 
Q 6.78125 9.90625 6.78125 20.515625 
Q 6.78125 27.484375 10.78125 32.3125 
Q 14.796875 37.15625 21.921875 38.8125 
z
M 18.3125 54.390625 
Q 18.3125 48.734375 21.84375 45.5625 
Q 25.390625 42.390625 31.78125 42.390625 
Q 38.140625 42.390625 41.71875 45.5625 
Q 45.3125 48.734375 45.3125 54.390625 
Q 45.3125 60.0625 41.71875 63.234375 
Q 38.140625 66.40625 31.78125 66.40625 
Q 25.390625 66.40625 21.84375 63.234375 
Q 18.3125 60.0625 18.3125 54.390625 
z
" id="DejaVuSans-56"/>
       </defs>
       <use xlink:href="#DejaVuSans-56"/>
       <use x="63.623047" xlink:href="#DejaVuSans-48"/>
      </g>
     </g>
    </g>
    <g id="ytick_7">
     <g id="line2d_14">
      <g>
       <use style="stroke:#000000;stroke-width:0.8;" x="57.6" xlink:href="#m2c2e2638ec" y="48.524965"/>
      </g>
     </g>
     <g id="text_14">
      <!-- 100 -->
      <g transform="translate(31.5125 52.324184)scale(0.1 -0.1)">
       <use xlink:href="#DejaVuSans-49"/>
       <use x="63.623047" xlink:href="#DejaVuSans-48"/>
       <use x="127.246094" xlink:href="#DejaVuSans-48"/>
      </g>
     </g>
    </g>
   </g>
   <g id="line2d_15">
    <path clip-path="url(#pebff73871b)" d="M 385.708828 244.426602 
L 386.008404 223.807991 
L 386.670792 192.836997 
L 387.196438 187.371712 
L 387.998703 181.709118 
L 389.769203 170.265544 
L 390.405497 164.721336 
L 390.588792 162.045421 
L 390.654525 159.453362 
L 390.581948 156.959958 
L 390.350316 154.580007 
L 389.938882 152.328308 
L 389.3269 150.219659 
L 388.493623 148.268857 
L 387.418305 146.490702 
L 386.085582 144.899273 
L 384.508089 143.487984 
L 382.707087 142.240631 
L 380.703831 141.141011 
L 378.51958 140.17292 
L 376.175592 139.320156 
L 373.693124 138.566516 
L 368.397781 137.291792 
L 362.803613 136.219122 
L 351.399047 134.161441 
L 345.928774 132.917179 
L 343.326042 132.184481 
L 340.839923 131.356468 
L 336.019017 129.402744 
L 331.232583 127.14764 
L 324.095842 123.46824 
L 316.980801 119.800758 
L 312.232945 117.566842 
L 307.469906 115.644901 
L 305.07959 114.839254 
L 302.681754 114.157603 
L 300.275157 113.61528 
L 297.858558 113.22762 
L 295.430714 113.009957 
L 292.992334 113.003724 
L 290.545437 113.222974 
L 288.090754 113.64197 
L 285.629015 114.234974 
L 283.160948 114.976249 
L 278.208757 116.800659 
L 270.75127 120.005862 
L 265.768662 122.154783 
L 260.784108 124.073181 
L 258.292926 124.881589 
L 255.803447 125.555154 
L 253.316401 126.068137 
L 250.832519 126.394802 
L 248.352529 126.509409 
L 245.852521 126.368235 
L 243.313029 125.967775 
L 240.741458 125.342622 
L 238.145209 124.527369 
L 232.908294 122.464937 
L 227.661508 120.057223 
L 219.902374 116.403631 
L 214.890019 114.343476 
L 212.454171 113.52985 
L 210.075079 112.906648 
L 207.760148 112.508465 
L 205.516779 112.369893 
L 203.352377 112.525526 
L 201.274345 113.009957 
L 199.311134 113.873722 
L 197.476103 115.115131 
L 195.754009 116.69043 
L 194.129609 118.555869 
L 192.58766 120.667695 
L 191.112921 122.982158 
L 188.304102 128.043986 
L 182.822309 138.674208 
L 181.391248 141.18208 
L 179.905458 143.542577 
L 178.349695 145.711945 
L 176.708717 147.646433 
L 174.967282 149.302291 
L 173.110148 150.635766 
L 171.122072 151.603106 
L 169.013474 152.212447 
L 166.810524 152.521969 
L 164.521605 152.56299 
L 162.155097 152.366827 
L 159.719382 151.964797 
L 157.222843 151.388219 
L 152.080817 149.836684 
L 144.121136 146.983199 
L 138.748042 145.095457 
L 133.399865 143.511677 
L 130.756075 142.912066 
L 128.143659 142.482397 
L 125.571 142.253988 
L 123.046479 142.258157 
L 120.552166 142.45288 
L 115.581982 143.194232 
L 110.632772 144.335791 
L 105.700197 145.794756 
L 100.779917 147.488325 
L 93.413057 150.287433 
L 83.593109 154.067878 
L 78.674457 155.792498 
L 76.211062 156.577181 
L 76.211062 156.577181 
" style="fill:none;stroke:#fea952;stroke-linecap:square;"/>
   </g>
   <g id="line2d_16">
    <path clip-path="url(#pebff73871b)" d="M 377.873125 244.351212 
L 378.173767 223.658355 
L 378.860104 192.206859 
L 379.429736 186.331394 
L 380.258573 180.486696 
L 382.329803 166.670807 
L 382.755245 161.846768 
L 382.782734 157.719028 
L 382.413349 154.512404 
L 381.788309 152.323815 
L 381.41062 151.521769 
L 380.860844 150.739311 
L 380.046502 149.92989 
L 378.936455 149.109856 
L 377.528666 148.304966 
L 375.840537 147.536795 
L 373.899264 146.818306 
L 369.380123 145.542264 
L 364.210449 144.445189 
L 346.782007 141.186567 
L 343.805369 140.460062 
L 340.849925 139.619047 
L 338.020271 138.667657 
L 332.756627 136.5274 
L 327.703463 134.144013 
L 320.456276 130.407799 
L 313.567162 126.854196 
L 309.176783 124.782367 
L 304.967127 123.070533 
L 300.959108 121.801974 
L 299.033998 121.352428 
L 295.410683 120.845997 
L 293.69167 120.80852 
L 291.863925 120.947319 
L 289.925878 121.260122 
L 287.883076 121.739848 
L 283.519064 123.146557 
L 278.840995 125.022681 
L 265.98355 130.509204 
L 263.202809 131.526623 
L 260.3395 132.445679 
L 257.386408 133.229667 
L 254.338152 133.837304 
L 251.19426 134.222513 
L 247.910735 134.333011 
L 244.631911 134.108651 
L 241.461981 133.582073 
L 238.39386 132.818764 
L 235.416741 131.873074 
L 232.521124 130.791278 
L 226.953964 128.38097 
L 214.527439 122.613212 
L 210.468514 121.110159 
L 207.277039 120.329624 
L 205.131418 120.15697 
L 204.430087 120.182488 
L 203.70191 120.364101 
L 202.765125 120.897013 
L 201.66357 121.8364 
L 200.458247 123.176719 
L 199.19619 124.878545 
L 197.905347 126.889443 
L 195.276202 131.62082 
L 189.628267 142.557874 
L 188.022951 145.35634 
L 186.273288 148.109267 
L 184.325386 150.780972 
L 182.108364 153.325142 
L 179.537663 155.667473 
L 176.53864 157.681996 
L 173.297518 159.131144 
L 170.103759 159.972292 
L 166.950936 160.356777 
L 163.874282 160.372273 
L 160.878972 160.098284 
L 157.956049 159.599886 
L 155.093288 158.929367 
L 149.511576 157.239583 
L 141.468275 154.356546 
L 136.391429 152.568763 
L 131.666664 151.153662 
L 129.484349 150.644248 
L 127.450675 150.28776 
L 125.58394 150.090043 
L 123.656359 150.070453 
L 119.389272 150.491571 
L 114.998507 151.324019 
L 110.48491 152.515453 
L 105.855062 154.0038 
L 98.705664 156.637755 
L 83.66636 162.368537 
L 78.589397 164.043603 
L 78.589397 164.043603 
" style="fill:none;stroke:#ffffff;stroke-linecap:square;"/>
   </g>
   <g id="line2d_17">
    <path clip-path="url(#pebff73871b)" d="M 393.544531 244.501992 
L 393.843041 223.957628 
L 394.48148 193.467134 
L 394.96314 188.412031 
L 395.738832 182.931541 
L 397.542593 171.254651 
L 398.223243 165.256838 
L 398.422339 162.244073 
L 398.487273 159.225371 
L 398.381162 156.200889 
L 398.058757 153.171509 
L 397.464415 150.144213 
L 396.533095 147.141562 
L 395.198938 144.2139 
L 393.425991 141.459634 
L 391.310319 139.059235 
L 388.969677 137.046077 
L 386.477718 135.371405 
L 383.878996 133.977056 
L 381.198624 132.809046 
L 378.45192 131.822006 
L 375.650728 130.978913 
L 369.933008 129.607587 
L 364.157733 128.500943 
L 353.03204 126.497418 
L 348.052179 125.374297 
L 343.659576 124.045279 
L 339.281407 122.278087 
L 334.761703 120.151267 
L 327.735408 116.52868 
L 320.39444 112.74732 
L 315.289107 110.351318 
L 309.972685 108.219268 
L 307.22231 107.301836 
L 304.4044 106.513232 
L 301.516315 105.878133 
L 298.558279 105.422858 
L 295.450746 105.173917 
L 292.292998 105.198927 
L 289.226949 105.498628 
L 286.255631 106.023818 
L 283.374953 106.730101 
L 280.577562 107.578274 
L 275.2018 109.564491 
L 267.608667 112.827564 
L 260.568977 115.802128 
L 256.246351 117.317499 
L 254.220485 117.880641 
L 252.29465 118.298971 
L 250.470777 118.56709 
L 248.794324 118.685808 
L 247.073131 118.627819 
L 245.164078 118.353476 
L 243.089055 117.866479 
L 240.873678 117.181664 
L 236.115685 115.315351 
L 231.040809 112.987269 
L 223.007496 109.20904 
L 220.223004 108.012656 
L 217.372605 106.911068 
L 214.439827 105.94954 
L 211.403426 105.183992 
L 208.243257 104.687306 
L 204.954773 104.554008 
L 201.573337 104.894082 
L 198.118602 105.837425 
L 194.920359 107.383344 
L 192.187081 109.333248 
L 189.844448 111.544459 
L 187.80097 113.935018 
L 185.979131 116.456845 
L 184.320495 119.074873 
L 181.332001 124.467152 
L 176.016351 134.790542 
L 173.537628 138.975886 
L 172.374004 140.642917 
L 170.396902 142.937108 
L 169.681656 143.589535 
L 168.946625 144.075068 
L 167.923188 144.452602 
L 166.670113 144.687162 
L 165.168927 144.753707 
L 163.431221 144.63537 
L 161.482715 144.329709 
L 159.352397 143.84707 
L 154.650058 142.433784 
L 146.773997 139.609852 
L 141.104655 137.622152 
L 138.157253 136.697874 
L 135.133066 135.869692 
L 132.0278 135.179884 
L 128.836643 134.677034 
L 125.55806 134.417934 
L 122.436598 134.445861 
L 119.56645 134.67906 
L 116.73909 135.04514 
L 111.211546 136.116303 
L 105.844443 137.546093 
L 100.62252 139.230981 
L 93.02952 142.029638 
L 78.603556 147.53669 
L 73.832727 149.11076 
L 73.832727 149.11076 
" style="fill:none;stroke:#ffffff;stroke-linecap:square;"/>
   </g>
   <g id="patch_3">
    <path d="M 57.6 307.584 
L 57.6 41.472 
" style="fill:none;stroke:#000000;stroke-linecap:square;stroke-linejoin:miter;stroke-width:0.8;"/>
   </g>
   <g id="patch_4">
    <path d="M 414.72 307.584 
L 414.72 41.472 
" style="fill:none;stroke:#000000;stroke-linecap:square;stroke-linejoin:miter;stroke-width:0.8;"/>
   </g>
   <g id="patch_5">
    <path d="M 57.6 307.584 
L 414.72 307.584 
" style="fill:none;stroke:#000000;stroke-linecap:square;stroke-linejoin:miter;stroke-width:0.8;"/>
   </g>
   <g id="patch_6">
    <path d="M 57.6 41.472 
L 414.72 41.472 
" style="fill:none;stroke:#000000;stroke-linecap:square;stroke-linejoin:miter;stroke-width:0.8;"/>
   </g>
  </g>
 </g>
 <defs>
  <clipPath id="pebff73871b">
   <rect height="266.112" width="357.12" x="57.6" y="41.472"/>
  </clipPath>
 </defs>
</svg>
