<?xml version="1.0" encoding="utf-8" standalone="no"?>
<!DOCTYPE svg PUBLIC "-//W3C//DTD SVG 1.1//EN"
  "http://www.w3.org/Graphics/SVG/1.1/DTD/svg11.dtd">
<!-- Created with matplotlib (https://matplotlib.org/) -->
<svg height="345.6pt" version="1.1" viewBox="0 0 460.8 345.6" width="460.8pt" xmlns="http://www.w3.org/2000/svg" xmlns:xlink="http://www.w3.org/1999/xlink">
 <metadata>
  <rdf:RDF xmlns:cc="http://creativecommons.org/ns#" xmlns:dc="http://purl.org/dc/elements/1.1/" xmlns:rdf="http://www.w3.org/1999/02/22-rdf-syntax-ns#">
   <cc:Work>
    <dc:type rdf:resource="http://purl.org/dc/dcmitype/StillImage"/>
    <dc:date>2021-06-14T10:12:37.289684</dc:date>
    <dc:format>image/svg+xml</dc:format>
    <dc:creator>
     <cc:Agent>
      <dc:title>Matplotlib v3.3.3, https://matplotlib.org/</dc:title>
     </cc:Agent>
    </dc:creator>
   </cc:Work>
  </rdf:RDF>
 </metadata>
 <defs>
  <style type="text/css">*{stroke-linecap:butt;stroke-linejoin:round;}</style>
 </defs>
 <g id="figure_1">
  <g id="patch_1">
   <path d="M 0 345.6 
L 460.8 345.6 
L 460.8 0 
L 0 0 
z
" style="fill:#ffffff;"/>
  </g>
  <g id="axes_1">
   <g id="patch_2">
    <path d="M 57.6 307.584 
L 414.72 307.584 
L 414.72 41.472 
L 57.6 41.472 
z
" style="fill:#7d9051;"/>
   </g>
   <g id="matplotlib.axis_1">
    <g id="xtick_1">
     <g id="line2d_1">
      <defs>
       <path d="M 0 0 
L 0 3.5 
" id="m02e6e83c19" style="stroke:#000000;stroke-width:0.8;"/>
      </defs>
      <g>
       <use style="stroke:#000000;stroke-width:0.8;" x="61.402559" xlink:href="#m02e6e83c19" y="307.584"/>
      </g>
     </g>
     <g id="text_1">
      <!-- −20 -->
      <g transform="translate(50.850215 322.182437)scale(0.1 -0.1)">
       <defs>
        <path d="M 10.59375 35.5 
L 73.1875 35.5 
L 73.1875 27.203125 
L 10.59375 27.203125 
z
" id="DejaVuSans-8722"/>
        <path d="M 19.1875 8.296875 
L 53.609375 8.296875 
L 53.609375 0 
L 7.328125 0 
L 7.328125 8.296875 
Q 12.9375 14.109375 22.625 23.890625 
Q 32.328125 33.6875 34.8125 36.53125 
Q 39.546875 41.84375 41.421875 45.53125 
Q 43.3125 49.21875 43.3125 52.78125 
Q 43.3125 58.59375 39.234375 62.25 
Q 35.15625 65.921875 28.609375 65.921875 
Q 23.96875 65.921875 18.8125 64.3125 
Q 13.671875 62.703125 7.8125 59.421875 
L 7.8125 69.390625 
Q 13.765625 71.78125 18.9375 73 
Q 24.125 74.21875 28.421875 74.21875 
Q 39.75 74.21875 46.484375 68.546875 
Q 53.21875 62.890625 53.21875 53.421875 
Q 53.21875 48.921875 51.53125 44.890625 
Q 49.859375 40.875 45.40625 35.40625 
Q 44.1875 33.984375 37.640625 27.21875 
Q 31.109375 20.453125 19.1875 8.296875 
z
" id="DejaVuSans-50"/>
        <path d="M 31.78125 66.40625 
Q 24.171875 66.40625 20.328125 58.90625 
Q 16.5 51.421875 16.5 36.375 
Q 16.5 21.390625 20.328125 13.890625 
Q 24.171875 6.390625 31.78125 6.390625 
Q 39.453125 6.390625 43.28125 13.890625 
Q 47.125 21.390625 47.125 36.375 
Q 47.125 51.421875 43.28125 58.90625 
Q 39.453125 66.40625 31.78125 66.40625 
z
M 31.78125 74.21875 
Q 44.046875 74.21875 50.515625 64.515625 
Q 56.984375 54.828125 56.984375 36.375 
Q 56.984375 17.96875 50.515625 8.265625 
Q 44.046875 -1.421875 31.78125 -1.421875 
Q 19.53125 -1.421875 13.0625 8.265625 
Q 6.59375 17.96875 6.59375 36.375 
Q 6.59375 54.828125 13.0625 64.515625 
Q 19.53125 74.21875 31.78125 74.21875 
z
" id="DejaVuSans-48"/>
       </defs>
       <use xlink:href="#DejaVuSans-8722"/>
       <use x="83.789062" xlink:href="#DejaVuSans-50"/>
       <use x="147.412109" xlink:href="#DejaVuSans-48"/>
      </g>
     </g>
    </g>
    <g id="xtick_2">
     <g id="line2d_2">
      <g>
       <use style="stroke:#000000;stroke-width:0.8;" x="104.655366" xlink:href="#m02e6e83c19" y="307.584"/>
      </g>
     </g>
     <g id="text_2">
      <!-- 0 -->
      <g transform="translate(101.474116 322.182437)scale(0.1 -0.1)">
       <use xlink:href="#DejaVuSans-48"/>
      </g>
     </g>
    </g>
    <g id="xtick_3">
     <g id="line2d_3">
      <g>
       <use style="stroke:#000000;stroke-width:0.8;" x="147.908172" xlink:href="#m02e6e83c19" y="307.584"/>
      </g>
     </g>
     <g id="text_3">
      <!-- 20 -->
      <g transform="translate(141.545672 322.182437)scale(0.1 -0.1)">
       <use xlink:href="#DejaVuSans-50"/>
       <use x="63.623047" xlink:href="#DejaVuSans-48"/>
      </g>
     </g>
    </g>
    <g id="xtick_4">
     <g id="line2d_4">
      <g>
       <use style="stroke:#000000;stroke-width:0.8;" x="191.160979" xlink:href="#m02e6e83c19" y="307.584"/>
      </g>
     </g>
     <g id="text_4">
      <!-- 40 -->
      <g transform="translate(184.798479 322.182437)scale(0.1 -0.1)">
       <defs>
        <path d="M 37.796875 64.3125 
L 12.890625 25.390625 
L 37.796875 25.390625 
z
M 35.203125 72.90625 
L 47.609375 72.90625 
L 47.609375 25.390625 
L 58.015625 25.390625 
L 58.015625 17.1875 
L 47.609375 17.1875 
L 47.609375 0 
L 37.796875 0 
L 37.796875 17.1875 
L 4.890625 17.1875 
L 4.890625 26.703125 
z
" id="DejaVuSans-52"/>
       </defs>
       <use xlink:href="#DejaVuSans-52"/>
       <use x="63.623047" xlink:href="#DejaVuSans-48"/>
      </g>
     </g>
    </g>
    <g id="xtick_5">
     <g id="line2d_5">
      <g>
       <use style="stroke:#000000;stroke-width:0.8;" x="234.413786" xlink:href="#m02e6e83c19" y="307.584"/>
      </g>
     </g>
     <g id="text_5">
      <!-- 60 -->
      <g transform="translate(228.051286 322.182437)scale(0.1 -0.1)">
       <defs>
        <path d="M 33.015625 40.375 
Q 26.375 40.375 22.484375 35.828125 
Q 18.609375 31.296875 18.609375 23.390625 
Q 18.609375 15.53125 22.484375 10.953125 
Q 26.375 6.390625 33.015625 6.390625 
Q 39.65625 6.390625 43.53125 10.953125 
Q 47.40625 15.53125 47.40625 23.390625 
Q 47.40625 31.296875 43.53125 35.828125 
Q 39.65625 40.375 33.015625 40.375 
z
M 52.59375 71.296875 
L 52.59375 62.3125 
Q 48.875 64.0625 45.09375 64.984375 
Q 41.3125 65.921875 37.59375 65.921875 
Q 27.828125 65.921875 22.671875 59.328125 
Q 17.53125 52.734375 16.796875 39.40625 
Q 19.671875 43.65625 24.015625 45.921875 
Q 28.375 48.1875 33.59375 48.1875 
Q 44.578125 48.1875 50.953125 41.515625 
Q 57.328125 34.859375 57.328125 23.390625 
Q 57.328125 12.15625 50.6875 5.359375 
Q 44.046875 -1.421875 33.015625 -1.421875 
Q 20.359375 -1.421875 13.671875 8.265625 
Q 6.984375 17.96875 6.984375 36.375 
Q 6.984375 53.65625 15.1875 63.9375 
Q 23.390625 74.21875 37.203125 74.21875 
Q 40.921875 74.21875 44.703125 73.484375 
Q 48.484375 72.75 52.59375 71.296875 
z
" id="DejaVuSans-54"/>
       </defs>
       <use xlink:href="#DejaVuSans-54"/>
       <use x="63.623047" xlink:href="#DejaVuSans-48"/>
      </g>
     </g>
    </g>
    <g id="xtick_6">
     <g id="line2d_6">
      <g>
       <use style="stroke:#000000;stroke-width:0.8;" x="277.666593" xlink:href="#m02e6e83c19" y="307.584"/>
      </g>
     </g>
     <g id="text_6">
      <!-- 80 -->
      <g transform="translate(271.304093 322.182437)scale(0.1 -0.1)">
       <defs>
        <path d="M 31.78125 34.625 
Q 24.75 34.625 20.71875 30.859375 
Q 16.703125 27.09375 16.703125 20.515625 
Q 16.703125 13.921875 20.71875 10.15625 
Q 24.75 6.390625 31.78125 6.390625 
Q 38.8125 6.390625 42.859375 10.171875 
Q 46.921875 13.96875 46.921875 20.515625 
Q 46.921875 27.09375 42.890625 30.859375 
Q 38.875 34.625 31.78125 34.625 
z
M 21.921875 38.8125 
Q 15.578125 40.375 12.03125 44.71875 
Q 8.5 49.078125 8.5 55.328125 
Q 8.5 64.0625 14.71875 69.140625 
Q 20.953125 74.21875 31.78125 74.21875 
Q 42.671875 74.21875 48.875 69.140625 
Q 55.078125 64.0625 55.078125 55.328125 
Q 55.078125 49.078125 51.53125 44.71875 
Q 48 40.375 41.703125 38.8125 
Q 48.828125 37.15625 52.796875 32.3125 
Q 56.78125 27.484375 56.78125 20.515625 
Q 56.78125 9.90625 50.3125 4.234375 
Q 43.84375 -1.421875 31.78125 -1.421875 
Q 19.734375 -1.421875 13.25 4.234375 
Q 6.78125 9.90625 6.78125 20.515625 
Q 6.78125 27.484375 10.78125 32.3125 
Q 14.796875 37.15625 21.921875 38.8125 
z
M 18.3125 54.390625 
Q 18.3125 48.734375 21.84375 45.5625 
Q 25.390625 42.390625 31.78125 42.390625 
Q 38.140625 42.390625 41.71875 45.5625 
Q 45.3125 48.734375 45.3125 54.390625 
Q 45.3125 60.0625 41.71875 63.234375 
Q 38.140625 66.40625 31.78125 66.40625 
Q 25.390625 66.40625 21.84375 63.234375 
Q 18.3125 60.0625 18.3125 54.390625 
z
" id="DejaVuSans-56"/>
       </defs>
       <use xlink:href="#DejaVuSans-56"/>
       <use x="63.623047" xlink:href="#DejaVuSans-48"/>
      </g>
     </g>
    </g>
    <g id="xtick_7">
     <g id="line2d_7">
      <g>
       <use style="stroke:#000000;stroke-width:0.8;" x="320.919399" xlink:href="#m02e6e83c19" y="307.584"/>
      </g>
     </g>
     <g id="text_7">
      <!-- 100 -->
      <g transform="translate(311.375649 322.182437)scale(0.1 -0.1)">
       <defs>
        <path d="M 12.40625 8.296875 
L 28.515625 8.296875 
L 28.515625 63.921875 
L 10.984375 60.40625 
L 10.984375 69.390625 
L 28.421875 72.90625 
L 38.28125 72.90625 
L 38.28125 8.296875 
L 54.390625 8.296875 
L 54.390625 0 
L 12.40625 0 
z
" id="DejaVuSans-49"/>
       </defs>
       <use xlink:href="#DejaVuSans-49"/>
       <use x="63.623047" xlink:href="#DejaVuSans-48"/>
       <use x="127.246094" xlink:href="#DejaVuSans-48"/>
      </g>
     </g>
    </g>
    <g id="xtick_8">
     <g id="line2d_8">
      <g>
       <use style="stroke:#000000;stroke-width:0.8;" x="364.172206" xlink:href="#m02e6e83c19" y="307.584"/>
      </g>
     </g>
     <g id="text_8">
      <!-- 120 -->
      <g transform="translate(354.628456 322.182437)scale(0.1 -0.1)">
       <use xlink:href="#DejaVuSans-49"/>
       <use x="63.623047" xlink:href="#DejaVuSans-50"/>
       <use x="127.246094" xlink:href="#DejaVuSans-48"/>
      </g>
     </g>
    </g>
    <g id="xtick_9">
     <g id="line2d_9">
      <g>
       <use style="stroke:#000000;stroke-width:0.8;" x="407.425013" xlink:href="#m02e6e83c19" y="307.584"/>
      </g>
     </g>
     <g id="text_9">
      <!-- 140 -->
      <g transform="translate(397.881263 322.182437)scale(0.1 -0.1)">
       <use xlink:href="#DejaVuSans-49"/>
       <use x="63.623047" xlink:href="#DejaVuSans-52"/>
       <use x="127.246094" xlink:href="#DejaVuSans-48"/>
      </g>
     </g>
    </g>
   </g>
   <g id="matplotlib.axis_2">
    <g id="ytick_1">
     <g id="line2d_10">
      <defs>
       <path d="M 0 0 
L -3.5 0 
" id="me15642d811" style="stroke:#000000;stroke-width:0.8;"/>
      </defs>
      <g>
       <use style="stroke:#000000;stroke-width:0.8;" x="57.6" xlink:href="#me15642d811" y="295.404773"/>
      </g>
     </g>
     <g id="text_10">
      <!-- 0 -->
      <g transform="translate(44.2375 299.203992)scale(0.1 -0.1)">
       <use xlink:href="#DejaVuSans-48"/>
      </g>
     </g>
    </g>
    <g id="ytick_2">
     <g id="line2d_11">
      <g>
       <use style="stroke:#000000;stroke-width:0.8;" x="57.6" xlink:href="#me15642d811" y="252.151967"/>
      </g>
     </g>
     <g id="text_11">
      <!-- 20 -->
      <g transform="translate(37.875 255.951185)scale(0.1 -0.1)">
       <use xlink:href="#DejaVuSans-50"/>
       <use x="63.623047" xlink:href="#DejaVuSans-48"/>
      </g>
     </g>
    </g>
    <g id="ytick_3">
     <g id="line2d_12">
      <g>
       <use style="stroke:#000000;stroke-width:0.8;" x="57.6" xlink:href="#me15642d811" y="208.89916"/>
      </g>
     </g>
     <g id="text_12">
      <!-- 40 -->
      <g transform="translate(37.875 212.698379)scale(0.1 -0.1)">
       <use xlink:href="#DejaVuSans-52"/>
       <use x="63.623047" xlink:href="#DejaVuSans-48"/>
      </g>
     </g>
    </g>
    <g id="ytick_4">
     <g id="line2d_13">
      <g>
       <use style="stroke:#000000;stroke-width:0.8;" x="57.6" xlink:href="#me15642d811" y="165.646353"/>
      </g>
     </g>
     <g id="text_13">
      <!-- 60 -->
      <g transform="translate(37.875 169.445572)scale(0.1 -0.1)">
       <use xlink:href="#DejaVuSans-54"/>
       <use x="63.623047" xlink:href="#DejaVuSans-48"/>
      </g>
     </g>
    </g>
    <g id="ytick_5">
     <g id="line2d_14">
      <g>
       <use style="stroke:#000000;stroke-width:0.8;" x="57.6" xlink:href="#me15642d811" y="122.393547"/>
      </g>
     </g>
     <g id="text_14">
      <!-- 80 -->
      <g transform="translate(37.875 126.192765)scale(0.1 -0.1)">
       <use xlink:href="#DejaVuSans-56"/>
       <use x="63.623047" xlink:href="#DejaVuSans-48"/>
      </g>
     </g>
    </g>
    <g id="ytick_6">
     <g id="line2d_15">
      <g>
       <use style="stroke:#000000;stroke-width:0.8;" x="57.6" xlink:href="#me15642d811" y="79.14074"/>
      </g>
     </g>
     <g id="text_15">
      <!-- 100 -->
      <g transform="translate(31.5125 82.939959)scale(0.1 -0.1)">
       <use xlink:href="#DejaVuSans-49"/>
       <use x="63.623047" xlink:href="#DejaVuSans-48"/>
       <use x="127.246094" xlink:href="#DejaVuSans-48"/>
      </g>
     </g>
    </g>
   </g>
   <g id="line2d_16">
    <path clip-path="url(#pfe02e0aabd)" d="M 104.655366 295.404773 
L 104.933667 275.488146 
L 105.584545 238.458641 
L 105.235416 232.465864 
L 104.601556 226.281032 
L 103.162995 213.796136 
L 102.699973 207.726537 
L 102.607269 204.785364 
L 102.635577 201.925814 
L 102.80625 199.162291 
L 103.140644 196.509199 
L 103.660115 193.980943 
L 104.386016 191.591926 
L 105.339702 189.356552 
L 106.54253 187.289226 
L 108.062939 185.441899 
L 109.928854 183.837908 
L 112.10085 182.448732 
L 114.539505 181.245851 
L 117.205395 180.200743 
L 120.059098 179.284889 
L 126.172246 177.726857 
L 138.917664 174.906927 
L 141.982201 174.097268 
L 144.919163 173.188698 
L 147.689128 172.152696 
L 150.252673 170.960741 
L 152.570374 169.584312 
L 154.602808 167.99489 
L 156.310553 166.163953 
L 157.697842 164.100764 
L 158.814693 161.846328 
L 159.690358 159.419741 
L 160.354087 156.840099 
L 160.835132 154.126495 
L 161.162742 151.298027 
L 161.474664 145.372877 
L 161.770108 126.826576 
L 162.033103 123.823611 
L 162.435172 120.896735 
L 163.005568 118.065042 
L 163.77354 115.347627 
L 164.76834 112.763587 
L 167.176605 107.694748 
L 169.915101 102.583915 
L 172.962164 97.508683 
L 176.296129 92.546648 
L 179.895331 87.775406 
L 183.738107 83.272551 
L 187.802792 79.115681 
L 189.91158 77.191238 
L 192.067721 75.38239 
L 194.268507 73.698836 
L 196.51123 72.150275 
L 198.793181 70.746407 
L 201.146104 69.486439 
L 203.597896 68.358258 
L 206.140083 67.354584 
L 208.764189 66.468139 
L 211.461742 65.691642 
L 217.043285 64.439374 
L 222.816917 63.539542 
L 228.714842 62.93391 
L 234.669263 62.564239 
L 243.558523 62.324766 
L 267.136933 62.225467 
L 273.363672 62.346525 
L 279.549695 62.684676 
L 285.572854 63.328907 
L 288.485189 63.793612 
L 291.311003 64.368208 
L 294.035028 65.063818 
L 296.641995 65.891566 
L 299.116635 66.862576 
L 301.44368 67.98797 
L 303.607863 69.278872 
L 305.593914 70.746407 
L 307.345148 72.4819 
L 308.835574 74.5432 
L 310.095961 76.891214 
L 311.157081 79.486847 
L 312.049702 82.291005 
L 312.804597 85.264596 
L 314.024286 91.563695 
L 316.164836 104.474944 
L 316.817211 107.539927 
L 317.578022 110.461591 
L 318.478039 113.200842 
L 319.548033 115.718586 
L 320.818774 117.975729 
L 322.321032 119.933177 
L 324.085578 121.551836 
L 326.087044 122.862446 
L 328.269232 123.935249 
L 330.616665 124.790405 
L 333.113867 125.448073 
L 335.74536 125.928414 
L 338.495668 126.251587 
L 341.349313 126.437752 
L 347.304712 126.479697 
L 353.487741 126.215528 
L 369.128669 125.27425 
L 375.13337 125.208753 
L 378.019884 125.32329 
L 378.019884 125.32329 
" style="fill:none;stroke:#fea952;stroke-linecap:square;"/>
   </g>
   <g id="line2d_17">
    <path clip-path="url(#pfe02e0aabd)" d="M 96.005205 295.321547 
L 96.284573 275.328811 
L 96.94207 238.832578 
L 96.623585 233.283521 
L 96.01097 227.297916 
L 94.546049 214.558017 
L 94.053706 207.999062 
L 93.957132 204.699735 
L 94.001466 201.392577 
L 94.223592 198.080537 
L 94.667095 194.768175 
L 95.3832 191.466009 
L 96.429325 188.19733 
L 97.862634 185.006188 
L 99.863271 181.79198 
L 102.423839 178.881963 
L 105.267883 176.550414 
L 108.274114 174.69062 
L 111.382182 173.192062 
L 114.561926 171.963979 
L 117.792383 170.936583 
L 124.314872 169.278048 
L 136.707984 166.543344 
L 141.888762 165.086298 
L 144.041905 164.308591 
L 145.83553 163.522928 
L 148.276823 162.094541 
L 149.131904 161.337028 
L 149.94634 160.260656 
L 150.677729 158.91 
L 151.312658 157.264201 
L 151.836327 155.330143 
L 152.242019 153.131189 
L 152.533037 150.697694 
L 152.82495 145.251795 
L 153.152532 126.071863 
L 153.463026 122.646327 
L 153.954944 119.18854 
L 154.681057 115.71244 
L 155.700559 112.239704 
L 156.909757 109.147667 
L 159.50256 103.7021 
L 162.443712 98.223805 
L 165.719051 92.779039 
L 169.316551 87.436099 
L 173.227081 82.264811 
L 177.445441 77.336681 
L 179.669809 74.986828 
L 181.971591 72.7259 
L 184.351772 70.563966 
L 186.811754 68.511654 
L 189.353308 66.580337 
L 191.978453 64.782362 
L 194.709526 63.120401 
L 197.530042 61.62792 
L 200.42121 60.312086 
L 203.371549 59.15901 
L 206.371269 58.155129 
L 209.411816 57.287475 
L 212.485469 56.543806 
L 218.703493 55.383078 
L 224.96976 54.588705 
L 231.22839 54.084942 
L 237.420808 53.802073 
L 246.447522 53.649319 
L 270.475619 53.616862 
L 277.034849 53.85084 
L 283.642369 54.376749 
L 286.935933 54.786412 
L 290.208905 55.316525 
L 293.451338 55.986611 
L 296.652908 56.818886 
L 299.801792 57.838747 
L 302.882866 59.074912 
L 305.875142 60.558679 
L 308.748737 62.321601 
L 311.683107 64.601984 
L 314.355219 67.41326 
L 316.457459 70.451858 
L 318.103251 73.617758 
L 319.400092 76.862925 
L 320.434296 80.162439 
L 321.272626 83.496914 
L 322.56341 90.179649 
L 324.62586 102.674033 
L 325.79635 107.761351 
L 326.439472 109.817383 
L 327.681293 112.709037 
L 328.168704 113.558466 
L 328.824553 114.314826 
L 329.903549 115.099296 
L 331.230222 115.807227 
L 332.819773 116.425088 
L 334.667234 116.938123 
L 336.754892 117.336961 
L 339.058812 117.619375 
L 341.553108 117.789591 
L 347.012189 117.834083 
L 352.9472 117.581871 
L 368.914669 116.626336 
L 375.476354 116.564994 
L 378.362868 116.679531 
L 378.362868 116.679531 
" style="fill:none;stroke:#ffffff;stroke-linecap:square;"/>
   </g>
   <g id="line2d_18">
    <path clip-path="url(#pfe02e0aabd)" d="M 113.305527 295.488 
L 113.58276 275.647482 
L 114.227021 238.084705 
L 113.847248 231.648207 
L 113.192141 225.264149 
L 111.77994 213.034256 
L 111.346241 207.454013 
L 111.269688 202.459051 
L 111.388908 200.244045 
L 111.614194 198.250224 
L 111.937029 196.495877 
L 112.342707 194.986522 
L 113.221788 192.786472 
L 113.702039 192.001836 
L 114.589824 191.125402 
L 115.927586 190.206844 
L 117.696828 189.29964 
L 119.848865 188.437507 
L 122.325813 187.633195 
L 128.02962 186.175666 
L 141.127345 183.27051 
L 144.538773 182.361416 
L 147.949564 181.291098 
L 151.336351 179.9968 
L 154.669815 178.398554 
L 157.899336 176.39859 
L 160.928794 173.895239 
L 163.489202 170.990879 
L 165.449344 167.940872 
L 166.951658 164.782656 
L 168.068058 161.575281 
L 168.871848 158.350054 
L 169.428244 155.121802 
L 169.792447 151.89836 
L 170.124378 145.493958 
L 170.387684 127.581289 
L 170.603179 125.000896 
L 170.915401 122.60493 
L 171.330079 120.417643 
L 171.846521 118.455551 
L 172.626923 116.379507 
L 174.85065 111.687397 
L 177.38649 106.944026 
L 180.205276 102.238328 
L 183.275706 97.657197 
L 186.563582 93.286 
L 190.030774 89.208422 
L 193.633993 85.505462 
L 197.323688 82.253127 
L 201.044007 79.518188 
L 202.876837 78.372413 
L 204.762166 77.344957 
L 206.774582 76.404429 
L 208.908617 75.550158 
L 211.15711 74.781149 
L 215.963061 73.491821 
L 221.117161 72.515009 
L 226.5394 71.818478 
L 232.150066 71.361497 
L 237.87214 71.097308 
L 246.505302 70.950345 
L 270.019896 70.911981 
L 275.903965 71.114964 
L 281.536165 71.54919 
L 286.761474 72.2707 
L 291.417148 73.308751 
L 293.482197 73.944385 
L 295.350403 74.65024 
L 297.012219 75.417261 
L 299.50472 76.89083 
L 300.335077 77.550541 
L 301.213689 78.634543 
L 302.088671 80.16467 
L 302.914069 82.110769 
L 303.665109 84.419572 
L 304.336568 87.032277 
L 305.485163 92.947741 
L 307.703811 106.275855 
L 308.445826 109.719864 
L 309.359694 113.161832 
L 310.516606 116.584302 
L 312.009982 119.962406 
L 313.956254 123.24242 
L 316.47336 126.307888 
L 319.346602 128.788847 
L 322.270539 130.625597 
L 325.308243 132.063272 
L 328.413558 133.155722 
L 331.5605 133.958024 
L 334.735828 134.519867 
L 337.932523 134.883799 
L 341.145519 135.085912 
L 347.597235 135.125311 
L 354.028282 134.849185 
L 369.342669 133.922164 
L 374.790386 133.852513 
L 377.6769 133.967049 
L 377.6769 133.967049 
" style="fill:none;stroke:#ffffff;stroke-linecap:square;"/>
   </g>
   <g id="patch_3">
    <path d="M 57.6 307.584 
L 57.6 41.472 
" style="fill:none;stroke:#000000;stroke-linecap:square;stroke-linejoin:miter;stroke-width:0.8;"/>
   </g>
   <g id="patch_4">
    <path d="M 414.72 307.584 
L 414.72 41.472 
" style="fill:none;stroke:#000000;stroke-linecap:square;stroke-linejoin:miter;stroke-width:0.8;"/>
   </g>
   <g id="patch_5">
    <path d="M 57.6 307.584 
L 414.72 307.584 
" style="fill:none;stroke:#000000;stroke-linecap:square;stroke-linejoin:miter;stroke-width:0.8;"/>
   </g>
   <g id="patch_6">
    <path d="M 57.6 41.472 
L 414.72 41.472 
" style="fill:none;stroke:#000000;stroke-linecap:square;stroke-linejoin:miter;stroke-width:0.8;"/>
   </g>
  </g>
 </g>
 <defs>
  <clipPath id="pfe02e0aabd">
   <rect height="266.112" width="357.12" x="57.6" y="41.472"/>
  </clipPath>
 </defs>
</svg>
