<?xml version="1.0" encoding="utf-8" standalone="no"?>
<!DOCTYPE svg PUBLIC "-//W3C//DTD SVG 1.1//EN"
  "http://www.w3.org/Graphics/SVG/1.1/DTD/svg11.dtd">
<!-- Created with matplotlib (https://matplotlib.org/) -->
<svg height="345.6pt" version="1.1" viewBox="0 0 460.8 345.6" width="460.8pt" xmlns="http://www.w3.org/2000/svg" xmlns:xlink="http://www.w3.org/1999/xlink">
 <metadata>
  <rdf:RDF xmlns:cc="http://creativecommons.org/ns#" xmlns:dc="http://purl.org/dc/elements/1.1/" xmlns:rdf="http://www.w3.org/1999/02/22-rdf-syntax-ns#">
   <cc:Work>
    <dc:type rdf:resource="http://purl.org/dc/dcmitype/StillImage"/>
    <dc:date>2021-06-19T20:39:13.609536</dc:date>
    <dc:format>image/svg+xml</dc:format>
    <dc:creator>
     <cc:Agent>
      <dc:title>Matplotlib v3.3.3, https://matplotlib.org/</dc:title>
     </cc:Agent>
    </dc:creator>
   </cc:Work>
  </rdf:RDF>
 </metadata>
 <defs>
  <style type="text/css">*{stroke-linecap:butt;stroke-linejoin:round;}</style>
 </defs>
 <g id="figure_1">
  <g id="patch_1">
   <path d="M 0 345.6 
L 460.8 345.6 
L 460.8 0 
L 0 0 
z
" style="fill:#ffffff;"/>
  </g>
  <g id="axes_1">
   <g id="patch_2">
    <path d="M 57.6 307.584 
L 414.72 307.584 
L 414.72 41.472 
L 57.6 41.472 
z
" style="fill:#7d9051;"/>
   </g>
   <g id="matplotlib.axis_1">
    <g id="xtick_1">
     <g id="line2d_1">
      <defs>
       <path d="M 0 0 
L 0 3.5 
" id="m8f4d562f7f" style="stroke:#000000;stroke-width:0.8;"/>
      </defs>
      <g>
       <use style="stroke:#000000;stroke-width:0.8;" x="93.659658" xlink:href="#m8f4d562f7f" y="307.584"/>
      </g>
     </g>
     <g id="text_1">
      <!-- −50 -->
      <g transform="translate(83.107314 322.182437)scale(0.1 -0.1)">
       <defs>
        <path d="M 10.59375 35.5 
L 73.1875 35.5 
L 73.1875 27.203125 
L 10.59375 27.203125 
z
" id="DejaVuSans-8722"/>
        <path d="M 10.796875 72.90625 
L 49.515625 72.90625 
L 49.515625 64.59375 
L 19.828125 64.59375 
L 19.828125 46.734375 
Q 21.96875 47.46875 24.109375 47.828125 
Q 26.265625 48.1875 28.421875 48.1875 
Q 40.625 48.1875 47.75 41.5 
Q 54.890625 34.8125 54.890625 23.390625 
Q 54.890625 11.625 47.5625 5.09375 
Q 40.234375 -1.421875 26.90625 -1.421875 
Q 22.3125 -1.421875 17.546875 -0.640625 
Q 12.796875 0.140625 7.71875 1.703125 
L 7.71875 11.625 
Q 12.109375 9.234375 16.796875 8.0625 
Q 21.484375 6.890625 26.703125 6.890625 
Q 35.15625 6.890625 40.078125 11.328125 
Q 45.015625 15.765625 45.015625 23.390625 
Q 45.015625 31 40.078125 35.4375 
Q 35.15625 39.890625 26.703125 39.890625 
Q 22.75 39.890625 18.8125 39.015625 
Q 14.890625 38.140625 10.796875 36.28125 
z
" id="DejaVuSans-53"/>
        <path d="M 31.78125 66.40625 
Q 24.171875 66.40625 20.328125 58.90625 
Q 16.5 51.421875 16.5 36.375 
Q 16.5 21.390625 20.328125 13.890625 
Q 24.171875 6.390625 31.78125 6.390625 
Q 39.453125 6.390625 43.28125 13.890625 
Q 47.125 21.390625 47.125 36.375 
Q 47.125 51.421875 43.28125 58.90625 
Q 39.453125 66.40625 31.78125 66.40625 
z
M 31.78125 74.21875 
Q 44.046875 74.21875 50.515625 64.515625 
Q 56.984375 54.828125 56.984375 36.375 
Q 56.984375 17.96875 50.515625 8.265625 
Q 44.046875 -1.421875 31.78125 -1.421875 
Q 19.53125 -1.421875 13.0625 8.265625 
Q 6.59375 17.96875 6.59375 36.375 
Q 6.59375 54.828125 13.0625 64.515625 
Q 19.53125 74.21875 31.78125 74.21875 
z
" id="DejaVuSans-48"/>
       </defs>
       <use xlink:href="#DejaVuSans-8722"/>
       <use x="83.789062" xlink:href="#DejaVuSans-53"/>
       <use x="147.412109" xlink:href="#DejaVuSans-48"/>
      </g>
     </g>
    </g>
    <g id="xtick_2">
     <g id="line2d_2">
      <g>
       <use style="stroke:#000000;stroke-width:0.8;" x="169.274167" xlink:href="#m8f4d562f7f" y="307.584"/>
      </g>
     </g>
     <g id="text_2">
      <!-- 0 -->
      <g transform="translate(166.092917 322.182437)scale(0.1 -0.1)">
       <use xlink:href="#DejaVuSans-48"/>
      </g>
     </g>
    </g>
    <g id="xtick_3">
     <g id="line2d_3">
      <g>
       <use style="stroke:#000000;stroke-width:0.8;" x="244.888676" xlink:href="#m8f4d562f7f" y="307.584"/>
      </g>
     </g>
     <g id="text_3">
      <!-- 50 -->
      <g transform="translate(238.526176 322.182437)scale(0.1 -0.1)">
       <use xlink:href="#DejaVuSans-53"/>
       <use x="63.623047" xlink:href="#DejaVuSans-48"/>
      </g>
     </g>
    </g>
    <g id="xtick_4">
     <g id="line2d_4">
      <g>
       <use style="stroke:#000000;stroke-width:0.8;" x="320.503185" xlink:href="#m8f4d562f7f" y="307.584"/>
      </g>
     </g>
     <g id="text_4">
      <!-- 100 -->
      <g transform="translate(310.959435 322.182437)scale(0.1 -0.1)">
       <defs>
        <path d="M 12.40625 8.296875 
L 28.515625 8.296875 
L 28.515625 63.921875 
L 10.984375 60.40625 
L 10.984375 69.390625 
L 28.421875 72.90625 
L 38.28125 72.90625 
L 38.28125 8.296875 
L 54.390625 8.296875 
L 54.390625 0 
L 12.40625 0 
z
" id="DejaVuSans-49"/>
       </defs>
       <use xlink:href="#DejaVuSans-49"/>
       <use x="63.623047" xlink:href="#DejaVuSans-48"/>
       <use x="127.246094" xlink:href="#DejaVuSans-48"/>
      </g>
     </g>
    </g>
    <g id="xtick_5">
     <g id="line2d_5">
      <g>
       <use style="stroke:#000000;stroke-width:0.8;" x="396.117694" xlink:href="#m8f4d562f7f" y="307.584"/>
      </g>
     </g>
     <g id="text_5">
      <!-- 150 -->
      <g transform="translate(386.573944 322.182437)scale(0.1 -0.1)">
       <use xlink:href="#DejaVuSans-49"/>
       <use x="63.623047" xlink:href="#DejaVuSans-53"/>
       <use x="127.246094" xlink:href="#DejaVuSans-48"/>
      </g>
     </g>
    </g>
   </g>
   <g id="matplotlib.axis_2">
    <g id="ytick_1">
     <g id="line2d_6">
      <defs>
       <path d="M 0 0 
L -3.5 0 
" id="m4bd8cc4fec" style="stroke:#000000;stroke-width:0.8;"/>
      </defs>
      <g>
       <use style="stroke:#000000;stroke-width:0.8;" x="57.6" xlink:href="#m4bd8cc4fec" y="295.429801"/>
      </g>
     </g>
     <g id="text_6">
      <!-- 0 -->
      <g transform="translate(44.2375 299.22902)scale(0.1 -0.1)">
       <use xlink:href="#DejaVuSans-48"/>
      </g>
     </g>
    </g>
    <g id="ytick_2">
     <g id="line2d_7">
      <g>
       <use style="stroke:#000000;stroke-width:0.8;" x="57.6" xlink:href="#m4bd8cc4fec" y="265.183998"/>
      </g>
     </g>
     <g id="text_7">
      <!-- 20 -->
      <g transform="translate(37.875 268.983217)scale(0.1 -0.1)">
       <defs>
        <path d="M 19.1875 8.296875 
L 53.609375 8.296875 
L 53.609375 0 
L 7.328125 0 
L 7.328125 8.296875 
Q 12.9375 14.109375 22.625 23.890625 
Q 32.328125 33.6875 34.8125 36.53125 
Q 39.546875 41.84375 41.421875 45.53125 
Q 43.3125 49.21875 43.3125 52.78125 
Q 43.3125 58.59375 39.234375 62.25 
Q 35.15625 65.921875 28.609375 65.921875 
Q 23.96875 65.921875 18.8125 64.3125 
Q 13.671875 62.703125 7.8125 59.421875 
L 7.8125 69.390625 
Q 13.765625 71.78125 18.9375 73 
Q 24.125 74.21875 28.421875 74.21875 
Q 39.75 74.21875 46.484375 68.546875 
Q 53.21875 62.890625 53.21875 53.421875 
Q 53.21875 48.921875 51.53125 44.890625 
Q 49.859375 40.875 45.40625 35.40625 
Q 44.1875 33.984375 37.640625 27.21875 
Q 31.109375 20.453125 19.1875 8.296875 
z
" id="DejaVuSans-50"/>
       </defs>
       <use xlink:href="#DejaVuSans-50"/>
       <use x="63.623047" xlink:href="#DejaVuSans-48"/>
      </g>
     </g>
    </g>
    <g id="ytick_3">
     <g id="line2d_8">
      <g>
       <use style="stroke:#000000;stroke-width:0.8;" x="57.6" xlink:href="#m4bd8cc4fec" y="234.938194"/>
      </g>
     </g>
     <g id="text_8">
      <!-- 40 -->
      <g transform="translate(37.875 238.737413)scale(0.1 -0.1)">
       <defs>
        <path d="M 37.796875 64.3125 
L 12.890625 25.390625 
L 37.796875 25.390625 
z
M 35.203125 72.90625 
L 47.609375 72.90625 
L 47.609375 25.390625 
L 58.015625 25.390625 
L 58.015625 17.1875 
L 47.609375 17.1875 
L 47.609375 0 
L 37.796875 0 
L 37.796875 17.1875 
L 4.890625 17.1875 
L 4.890625 26.703125 
z
" id="DejaVuSans-52"/>
       </defs>
       <use xlink:href="#DejaVuSans-52"/>
       <use x="63.623047" xlink:href="#DejaVuSans-48"/>
      </g>
     </g>
    </g>
    <g id="ytick_4">
     <g id="line2d_9">
      <g>
       <use style="stroke:#000000;stroke-width:0.8;" x="57.6" xlink:href="#m4bd8cc4fec" y="204.692391"/>
      </g>
     </g>
     <g id="text_9">
      <!-- 60 -->
      <g transform="translate(37.875 208.491609)scale(0.1 -0.1)">
       <defs>
        <path d="M 33.015625 40.375 
Q 26.375 40.375 22.484375 35.828125 
Q 18.609375 31.296875 18.609375 23.390625 
Q 18.609375 15.53125 22.484375 10.953125 
Q 26.375 6.390625 33.015625 6.390625 
Q 39.65625 6.390625 43.53125 10.953125 
Q 47.40625 15.53125 47.40625 23.390625 
Q 47.40625 31.296875 43.53125 35.828125 
Q 39.65625 40.375 33.015625 40.375 
z
M 52.59375 71.296875 
L 52.59375 62.3125 
Q 48.875 64.0625 45.09375 64.984375 
Q 41.3125 65.921875 37.59375 65.921875 
Q 27.828125 65.921875 22.671875 59.328125 
Q 17.53125 52.734375 16.796875 39.40625 
Q 19.671875 43.65625 24.015625 45.921875 
Q 28.375 48.1875 33.59375 48.1875 
Q 44.578125 48.1875 50.953125 41.515625 
Q 57.328125 34.859375 57.328125 23.390625 
Q 57.328125 12.15625 50.6875 5.359375 
Q 44.046875 -1.421875 33.015625 -1.421875 
Q 20.359375 -1.421875 13.671875 8.265625 
Q 6.984375 17.96875 6.984375 36.375 
Q 6.984375 53.65625 15.1875 63.9375 
Q 23.390625 74.21875 37.203125 74.21875 
Q 40.921875 74.21875 44.703125 73.484375 
Q 48.484375 72.75 52.59375 71.296875 
z
" id="DejaVuSans-54"/>
       </defs>
       <use xlink:href="#DejaVuSans-54"/>
       <use x="63.623047" xlink:href="#DejaVuSans-48"/>
      </g>
     </g>
    </g>
    <g id="ytick_5">
     <g id="line2d_10">
      <g>
       <use style="stroke:#000000;stroke-width:0.8;" x="57.6" xlink:href="#m4bd8cc4fec" y="174.446587"/>
      </g>
     </g>
     <g id="text_10">
      <!-- 80 -->
      <g transform="translate(37.875 178.245806)scale(0.1 -0.1)">
       <defs>
        <path d="M 31.78125 34.625 
Q 24.75 34.625 20.71875 30.859375 
Q 16.703125 27.09375 16.703125 20.515625 
Q 16.703125 13.921875 20.71875 10.15625 
Q 24.75 6.390625 31.78125 6.390625 
Q 38.8125 6.390625 42.859375 10.171875 
Q 46.921875 13.96875 46.921875 20.515625 
Q 46.921875 27.09375 42.890625 30.859375 
Q 38.875 34.625 31.78125 34.625 
z
M 21.921875 38.8125 
Q 15.578125 40.375 12.03125 44.71875 
Q 8.5 49.078125 8.5 55.328125 
Q 8.5 64.0625 14.71875 69.140625 
Q 20.953125 74.21875 31.78125 74.21875 
Q 42.671875 74.21875 48.875 69.140625 
Q 55.078125 64.0625 55.078125 55.328125 
Q 55.078125 49.078125 51.53125 44.71875 
Q 48 40.375 41.703125 38.8125 
Q 48.828125 37.15625 52.796875 32.3125 
Q 56.78125 27.484375 56.78125 20.515625 
Q 56.78125 9.90625 50.3125 4.234375 
Q 43.84375 -1.421875 31.78125 -1.421875 
Q 19.734375 -1.421875 13.25 4.234375 
Q 6.78125 9.90625 6.78125 20.515625 
Q 6.78125 27.484375 10.78125 32.3125 
Q 14.796875 37.15625 21.921875 38.8125 
z
M 18.3125 54.390625 
Q 18.3125 48.734375 21.84375 45.5625 
Q 25.390625 42.390625 31.78125 42.390625 
Q 38.140625 42.390625 41.71875 45.5625 
Q 45.3125 48.734375 45.3125 54.390625 
Q 45.3125 60.0625 41.71875 63.234375 
Q 38.140625 66.40625 31.78125 66.40625 
Q 25.390625 66.40625 21.84375 63.234375 
Q 18.3125 60.0625 18.3125 54.390625 
z
" id="DejaVuSans-56"/>
       </defs>
       <use xlink:href="#DejaVuSans-56"/>
       <use x="63.623047" xlink:href="#DejaVuSans-48"/>
      </g>
     </g>
    </g>
    <g id="ytick_6">
     <g id="line2d_11">
      <g>
       <use style="stroke:#000000;stroke-width:0.8;" x="57.6" xlink:href="#m4bd8cc4fec" y="144.200783"/>
      </g>
     </g>
     <g id="text_11">
      <!-- 100 -->
      <g transform="translate(31.5125 148.000002)scale(0.1 -0.1)">
       <use xlink:href="#DejaVuSans-49"/>
       <use x="63.623047" xlink:href="#DejaVuSans-48"/>
       <use x="127.246094" xlink:href="#DejaVuSans-48"/>
      </g>
     </g>
    </g>
    <g id="ytick_7">
     <g id="line2d_12">
      <g>
       <use style="stroke:#000000;stroke-width:0.8;" x="57.6" xlink:href="#m4bd8cc4fec" y="113.95498"/>
      </g>
     </g>
     <g id="text_12">
      <!-- 120 -->
      <g transform="translate(31.5125 117.754198)scale(0.1 -0.1)">
       <use xlink:href="#DejaVuSans-49"/>
       <use x="63.623047" xlink:href="#DejaVuSans-50"/>
       <use x="127.246094" xlink:href="#DejaVuSans-48"/>
      </g>
     </g>
    </g>
    <g id="ytick_8">
     <g id="line2d_13">
      <g>
       <use style="stroke:#000000;stroke-width:0.8;" x="57.6" xlink:href="#m4bd8cc4fec" y="83.709176"/>
      </g>
     </g>
     <g id="text_13">
      <!-- 140 -->
      <g transform="translate(31.5125 87.508395)scale(0.1 -0.1)">
       <use xlink:href="#DejaVuSans-49"/>
       <use x="63.623047" xlink:href="#DejaVuSans-52"/>
       <use x="127.246094" xlink:href="#DejaVuSans-48"/>
      </g>
     </g>
    </g>
    <g id="ytick_9">
     <g id="line2d_14">
      <g>
       <use style="stroke:#000000;stroke-width:0.8;" x="57.6" xlink:href="#m4bd8cc4fec" y="53.463372"/>
      </g>
     </g>
     <g id="text_14">
      <!-- 160 -->
      <g transform="translate(31.5125 57.262591)scale(0.1 -0.1)">
       <use xlink:href="#DejaVuSans-49"/>
       <use x="63.623047" xlink:href="#DejaVuSans-54"/>
       <use x="127.246094" xlink:href="#DejaVuSans-48"/>
      </g>
     </g>
    </g>
   </g>
   <g id="line2d_15">
    <path clip-path="url(#p832d677e60)" d="M 169.274167 295.429801 
L 169.543427 277.523452 
L 170.154496 251.644334 
L 171.204529 231.65629 
L 171.181899 227.689309 
L 170.991254 223.744447 
L 170.593822 219.826809 
L 170.262166 217.870448 
L 169.794155 215.905293 
L 168.528314 211.958229 
L 166.954789 208.004868 
L 161.973 196.299528 
L 160.753629 192.513502 
L 160.315824 190.653022 
L 160.01902 188.81744 
L 159.88303 187.009162 
L 159.927662 185.230594 
L 160.17273 183.484143 
L 160.60605 181.761063 
L 161.194666 180.0517 
L 161.927231 178.357097 
L 162.792396 176.678297 
L 164.87514 173.372283 
L 167.352116 170.142006 
L 170.132543 166.995816 
L 173.12564 163.942061 
L 177.815459 159.553009 
L 183.965606 154.102388 
L 185.49039 152.849572 
L 187.115336 151.684288 
L 190.60777 149.57009 
L 194.327028 147.667331 
L 205.686929 142.303073 
L 209.154668 140.321455 
L 210.763562 139.242349 
L 212.269825 138.088967 
L 213.658972 136.849753 
L 214.916517 135.513148 
L 216.027977 134.067596 
L 216.960621 132.493008 
L 217.706161 130.787459 
L 218.286775 128.966635 
L 218.724636 127.046221 
L 219.260807 122.969362 
L 219.492082 118.682361 
L 219.74957 109.979855 
L 220.130597 105.81531 
L 220.461797 103.834612 
L 220.916355 101.942544 
L 221.516448 100.15479 
L 222.284251 98.487036 
L 223.241941 96.954967 
L 224.372122 95.547384 
L 225.634984 94.236988 
L 227.019076 93.015312 
L 228.512949 91.873889 
L 231.784238 89.797938 
L 235.357253 87.941402 
L 239.140397 86.236546 
L 252.713715 80.486138 
L 256.308911 78.625646 
L 259.808482 76.424843 
L 263.362172 73.853689 
L 275.841662 64.36355 
L 279.309222 62.204746 
L 281.010017 61.32245 
L 282.684383 60.599559 
L 284.32899 60.057071 
L 285.940507 59.715985 
L 287.515605 59.597302 
L 289.050954 59.722019 
L 290.543258 60.103957 
L 291.993903 60.728976 
L 293.406576 61.576138 
L 294.784965 62.624502 
L 296.132759 63.853129 
L 297.453645 65.241081 
L 300.029449 68.411198 
L 302.541883 71.967338 
L 311.262346 85.035267 
L 313.854744 88.255516 
L 313.854744 88.255516 
" style="fill:none;stroke:#fea952;stroke-linecap:square;"/>
   </g>
   <g id="line2d_16">
    <path clip-path="url(#p832d677e60)" d="M 163.225286 295.371603 
L 163.495432 277.404722 
L 164.114846 251.305248 
L 165.155409 231.634165 
L 165.071808 226.077884 
L 164.812011 222.479531 
L 164.377583 219.271889 
L 163.490951 215.905907 
L 162.178137 212.288126 
L 159.701104 206.51411 
L 157.07214 200.399969 
L 155.513606 196.118021 
L 154.865304 193.899133 
L 154.344224 191.618597 
L 153.986894 189.271084 
L 153.835773 186.857407 
L 153.937192 184.389991 
L 154.306231 182.008837 
L 154.886492 179.791545 
L 155.642119 177.651375 
L 156.55011 175.58601 
L 157.590495 173.590812 
L 158.74601 171.660273 
L 161.343512 167.971914 
L 164.237498 164.484989 
L 167.334529 161.175712 
L 170.544942 158.031283 
L 175.376063 153.616792 
L 180.125389 149.428517 
L 181.965162 147.933769 
L 183.866138 146.581832 
L 187.780402 144.222349 
L 191.744561 142.19712 
L 204.349488 136.148258 
L 207.085914 134.439511 
L 209.253257 132.704633 
L 210.82329 130.984808 
L 211.417878 130.070127 
L 211.942914 128.94971 
L 212.388972 127.621915 
L 212.749873 126.100411 
L 213.225232 122.564179 
L 213.444964 118.52519 
L 213.715829 109.548213 
L 214.164272 104.817659 
L 214.579996 102.421544 
L 215.181648 100.017582 
L 216.02164 97.625081 
L 217.154793 95.280635 
L 218.525074 93.167684 
L 220.016448 91.349712 
L 221.631958 89.701778 
L 223.346444 88.208637 
L 225.13967 86.852601 
L 226.995466 85.615593 
L 230.843438 83.430979 
L 234.800866 81.53349 
L 240.76241 79.01247 
L 248.296494 75.863804 
L 251.668868 74.256131 
L 254.724597 72.529092 
L 257.977113 70.316057 
L 263.203255 66.3258 
L 268.714052 62.042445 
L 272.5353 59.297949 
L 276.523691 56.835093 
L 278.612277 55.768786 
L 280.789444 54.854862 
L 283.076404 54.139016 
L 285.485991 53.683924 
L 288.005369 53.568 
L 290.550821 53.861751 
L 292.936859 54.548507 
L 295.104976 55.541148 
L 297.068567 56.761352 
L 298.860169 58.154037 
L 300.514717 59.682904 
L 302.062318 61.322857 
L 304.926129 64.859456 
L 307.581687 68.621785 
L 316.051907 81.340345 
L 318.484227 84.361902 
L 318.484227 84.361902 
" style="fill:none;stroke:#ffffff;stroke-linecap:square;"/>
   </g>
   <g id="line2d_17">
    <path clip-path="url(#p832d677e60)" d="M 175.323048 295.488 
L 175.591423 277.642182 
L 176.194145 251.98342 
L 177.253649 231.678416 
L 177.227058 227.4693 
L 177.01773 223.221054 
L 176.557888 218.815738 
L 176.146748 216.469007 
L 175.593763 214.185732 
L 174.176388 209.792218 
L 172.507652 205.605273 
L 167.687862 194.316426 
L 166.641954 191.12787 
L 166.051147 188.363796 
L 165.918132 186.071197 
L 166.03923 184.959449 
L 166.325608 183.730582 
L 166.747213 182.452026 
L 167.994298 179.765782 
L 169.748744 176.955623 
L 171.944791 174.078968 
L 174.49882 171.182458 
L 177.320136 168.300794 
L 181.852015 164.058401 
L 189.015618 157.765374 
L 191.842059 155.838593 
L 195.129298 154.019665 
L 200.668028 151.387024 
L 206.587518 148.626563 
L 210.565771 146.52743 
L 212.5242 145.345258 
L 214.44121 144.045187 
L 216.29668 142.603032 
L 218.064686 140.994873 
L 219.712036 139.200335 
L 221.232664 137.150383 
L 222.503363 134.915888 
L 223.469409 132.625208 
L 224.184577 130.311356 
L 224.699399 127.992032 
L 225.057626 125.677234 
L 225.447555 121.092022 
L 226.096922 106.812961 
L 226.651063 103.867505 
L 227.413709 101.693437 
L 227.958808 100.74225 
L 228.727796 99.745056 
L 229.63801 98.772197 
L 230.691708 97.821986 
L 233.214839 95.992914 
L 236.234072 94.261974 
L 239.655702 92.615004 
L 245.321732 90.218806 
L 253.372742 86.845657 
L 257.415723 84.902399 
L 261.375937 82.634984 
L 265.183341 80.034064 
L 270.683426 75.834555 
L 277.555125 70.550502 
L 280.667264 68.430636 
L 283.407758 66.876114 
L 285.581576 65.975126 
L 287.025841 65.626603 
L 287.551086 65.582287 
L 288.149657 65.659407 
L 288.88283 65.916805 
L 289.744585 66.390924 
L 290.70976 67.094967 
L 291.7508 68.023355 
L 293.975888 70.480591 
L 296.309212 73.581751 
L 299.936258 79.019686 
L 305.087823 86.815338 
L 307.918542 90.59545 
L 309.225261 92.14913 
L 309.225261 92.14913 
" style="fill:none;stroke:#ffffff;stroke-linecap:square;"/>
   </g>
   <g id="patch_3">
    <path d="M 57.6 307.584 
L 57.6 41.472 
" style="fill:none;stroke:#000000;stroke-linecap:square;stroke-linejoin:miter;stroke-width:0.8;"/>
   </g>
   <g id="patch_4">
    <path d="M 414.72 307.584 
L 414.72 41.472 
" style="fill:none;stroke:#000000;stroke-linecap:square;stroke-linejoin:miter;stroke-width:0.8;"/>
   </g>
   <g id="patch_5">
    <path d="M 57.6 307.584 
L 414.72 307.584 
" style="fill:none;stroke:#000000;stroke-linecap:square;stroke-linejoin:miter;stroke-width:0.8;"/>
   </g>
   <g id="patch_6">
    <path d="M 57.6 41.472 
L 414.72 41.472 
" style="fill:none;stroke:#000000;stroke-linecap:square;stroke-linejoin:miter;stroke-width:0.8;"/>
   </g>
  </g>
 </g>
 <defs>
  <clipPath id="p832d677e60">
   <rect height="266.112" width="357.12" x="57.6" y="41.472"/>
  </clipPath>
 </defs>
</svg>
