<?xml version="1.0" encoding="utf-8" standalone="no"?>
<!DOCTYPE svg PUBLIC "-//W3C//DTD SVG 1.1//EN"
  "http://www.w3.org/Graphics/SVG/1.1/DTD/svg11.dtd">
<svg height="720pt" version="1.1" viewBox="0 0 1080 720" width="1080pt" xmlns="http://www.w3.org/2000/svg" xmlns:xlink="http://www.w3.org/1999/xlink">
 <metadata>
  <rdf:RDF xmlns:cc="http://creativecommons.org/ns#" xmlns:dc="http://purl.org/dc/elements/1.1/" xmlns:rdf="http://www.w3.org/1999/02/22-rdf-syntax-ns#">
   <cc:Work>
    <dc:type rdf:resource="http://purl.org/dc/dcmitype/StillImage"/>
    <dc:date>2021-05-14T08:58:26.691487</dc:date>
    <dc:format>image/svg+xml</dc:format>
    <dc:creator>
     <cc:Agent>
      <dc:title>Matplotlib v3.4.2, https://matplotlib.org/</dc:title>
     </cc:Agent>
    </dc:creator>
   </cc:Work>
  </rdf:RDF>
 </metadata>
 <defs>
  <style type="text/css">*{stroke-linecap:butt;stroke-linejoin:round;}</style>
 </defs>
 <g id="figure_1">
  <g id="patch_1">
   <path d="M 0 720 
L 1080 720 
L 1080 0 
L 0 0 
z
" style="fill:#ffffff;"/>
  </g>
  <g id="axes_1">
   <g id="patch_2">
    <path d="M 135 640.8 
L 515.454545 640.8 
L 515.454545 86.4 
L 135 86.4 
z
" style="fill:#7d9051;"/>
   </g>
   <g id="matplotlib.axis_1">
    <g id="xtick_1">
     <g id="line2d_1">
      <defs>
       <path d="M 0 0 
L 0 3.5 
" id="ma498b2d480" style="stroke:#000000;stroke-width:0.8;"/>
      </defs>
      <g>
       <use style="stroke:#000000;stroke-width:0.8;" x="186.669723" xlink:href="#ma498b2d480" y="640.8"/>
      </g>
     </g>
     <g id="text_1">
      <!-- −20 -->
      <g transform="translate(176.117379 655.398438)scale(0.1 -0.1)">
       <defs>
        <path d="M 678 2272 
L 4684 2272 
L 4684 1741 
L 678 1741 
L 678 2272 
z
" id="DejaVuSans-2212" transform="scale(0.015625)"/>
        <path d="M 1228 531 
L 3431 531 
L 3431 0 
L 469 0 
L 469 531 
Q 828 903 1448 1529 
Q 2069 2156 2228 2338 
Q 2531 2678 2651 2914 
Q 2772 3150 2772 3378 
Q 2772 3750 2511 3984 
Q 2250 4219 1831 4219 
Q 1534 4219 1204 4116 
Q 875 4013 500 3803 
L 500 4441 
Q 881 4594 1212 4672 
Q 1544 4750 1819 4750 
Q 2544 4750 2975 4387 
Q 3406 4025 3406 3419 
Q 3406 3131 3298 2873 
Q 3191 2616 2906 2266 
Q 2828 2175 2409 1742 
Q 1991 1309 1228 531 
z
" id="DejaVuSans-32" transform="scale(0.015625)"/>
        <path d="M 2034 4250 
Q 1547 4250 1301 3770 
Q 1056 3291 1056 2328 
Q 1056 1369 1301 889 
Q 1547 409 2034 409 
Q 2525 409 2770 889 
Q 3016 1369 3016 2328 
Q 3016 3291 2770 3770 
Q 2525 4250 2034 4250 
z
M 2034 4750 
Q 2819 4750 3233 4129 
Q 3647 3509 3647 2328 
Q 3647 1150 3233 529 
Q 2819 -91 2034 -91 
Q 1250 -91 836 529 
Q 422 1150 422 2328 
Q 422 3509 836 4129 
Q 1250 4750 2034 4750 
z
" id="DejaVuSans-30" transform="scale(0.015625)"/>
       </defs>
       <use xlink:href="#DejaVuSans-2212"/>
       <use x="83.789062" xlink:href="#DejaVuSans-32"/>
       <use x="147.412109" xlink:href="#DejaVuSans-30"/>
      </g>
     </g>
    </g>
    <g id="xtick_2">
     <g id="line2d_2">
      <g>
       <use style="stroke:#000000;stroke-width:0.8;" x="248.85491" xlink:href="#ma498b2d480" y="640.8"/>
      </g>
     </g>
     <g id="text_2">
      <!-- 0 -->
      <g transform="translate(245.67366 655.398438)scale(0.1 -0.1)">
       <use xlink:href="#DejaVuSans-30"/>
      </g>
     </g>
    </g>
    <g id="xtick_3">
     <g id="line2d_3">
      <g>
       <use style="stroke:#000000;stroke-width:0.8;" x="311.040098" xlink:href="#ma498b2d480" y="640.8"/>
      </g>
     </g>
     <g id="text_3">
      <!-- 20 -->
      <g transform="translate(304.677598 655.398438)scale(0.1 -0.1)">
       <use xlink:href="#DejaVuSans-32"/>
       <use x="63.623047" xlink:href="#DejaVuSans-30"/>
      </g>
     </g>
    </g>
    <g id="xtick_4">
     <g id="line2d_4">
      <g>
       <use style="stroke:#000000;stroke-width:0.8;" x="373.225285" xlink:href="#ma498b2d480" y="640.8"/>
      </g>
     </g>
     <g id="text_4">
      <!-- 40 -->
      <g transform="translate(366.862785 655.398438)scale(0.1 -0.1)">
       <defs>
        <path d="M 2419 4116 
L 825 1625 
L 2419 1625 
L 2419 4116 
z
M 2253 4666 
L 3047 4666 
L 3047 1625 
L 3713 1625 
L 3713 1100 
L 3047 1100 
L 3047 0 
L 2419 0 
L 2419 1100 
L 313 1100 
L 313 1709 
L 2253 4666 
z
" id="DejaVuSans-34" transform="scale(0.015625)"/>
       </defs>
       <use xlink:href="#DejaVuSans-34"/>
       <use x="63.623047" xlink:href="#DejaVuSans-30"/>
      </g>
     </g>
    </g>
    <g id="xtick_5">
     <g id="line2d_5">
      <g>
       <use style="stroke:#000000;stroke-width:0.8;" x="435.410472" xlink:href="#ma498b2d480" y="640.8"/>
      </g>
     </g>
     <g id="text_5">
      <!-- 60 -->
      <g transform="translate(429.047972 655.398438)scale(0.1 -0.1)">
       <defs>
        <path d="M 2113 2584 
Q 1688 2584 1439 2293 
Q 1191 2003 1191 1497 
Q 1191 994 1439 701 
Q 1688 409 2113 409 
Q 2538 409 2786 701 
Q 3034 994 3034 1497 
Q 3034 2003 2786 2293 
Q 2538 2584 2113 2584 
z
M 3366 4563 
L 3366 3988 
Q 3128 4100 2886 4159 
Q 2644 4219 2406 4219 
Q 1781 4219 1451 3797 
Q 1122 3375 1075 2522 
Q 1259 2794 1537 2939 
Q 1816 3084 2150 3084 
Q 2853 3084 3261 2657 
Q 3669 2231 3669 1497 
Q 3669 778 3244 343 
Q 2819 -91 2113 -91 
Q 1303 -91 875 529 
Q 447 1150 447 2328 
Q 447 3434 972 4092 
Q 1497 4750 2381 4750 
Q 2619 4750 2861 4703 
Q 3103 4656 3366 4563 
z
" id="DejaVuSans-36" transform="scale(0.015625)"/>
       </defs>
       <use xlink:href="#DejaVuSans-36"/>
       <use x="63.623047" xlink:href="#DejaVuSans-30"/>
      </g>
     </g>
    </g>
    <g id="xtick_6">
     <g id="line2d_6">
      <g>
       <use style="stroke:#000000;stroke-width:0.8;" x="497.595659" xlink:href="#ma498b2d480" y="640.8"/>
      </g>
     </g>
     <g id="text_6">
      <!-- 80 -->
      <g transform="translate(491.233159 655.398438)scale(0.1 -0.1)">
       <defs>
        <path d="M 2034 2216 
Q 1584 2216 1326 1975 
Q 1069 1734 1069 1313 
Q 1069 891 1326 650 
Q 1584 409 2034 409 
Q 2484 409 2743 651 
Q 3003 894 3003 1313 
Q 3003 1734 2745 1975 
Q 2488 2216 2034 2216 
z
M 1403 2484 
Q 997 2584 770 2862 
Q 544 3141 544 3541 
Q 544 4100 942 4425 
Q 1341 4750 2034 4750 
Q 2731 4750 3128 4425 
Q 3525 4100 3525 3541 
Q 3525 3141 3298 2862 
Q 3072 2584 2669 2484 
Q 3125 2378 3379 2068 
Q 3634 1759 3634 1313 
Q 3634 634 3220 271 
Q 2806 -91 2034 -91 
Q 1263 -91 848 271 
Q 434 634 434 1313 
Q 434 1759 690 2068 
Q 947 2378 1403 2484 
z
M 1172 3481 
Q 1172 3119 1398 2916 
Q 1625 2713 2034 2713 
Q 2441 2713 2670 2916 
Q 2900 3119 2900 3481 
Q 2900 3844 2670 4047 
Q 2441 4250 2034 4250 
Q 1625 4250 1398 4047 
Q 1172 3844 1172 3481 
z
" id="DejaVuSans-38" transform="scale(0.015625)"/>
       </defs>
       <use xlink:href="#DejaVuSans-38"/>
       <use x="63.623047" xlink:href="#DejaVuSans-30"/>
      </g>
     </g>
    </g>
   </g>
   <g id="matplotlib.axis_2">
    <g id="ytick_1">
     <g id="line2d_7">
      <defs>
       <path d="M 0 0 
L -3.5 0 
" id="m9fef11281e" style="stroke:#000000;stroke-width:0.8;"/>
      </defs>
      <g>
       <use style="stroke:#000000;stroke-width:0.8;" x="135" xlink:href="#m9fef11281e" y="615.480344"/>
      </g>
     </g>
     <g id="text_7">
      <!-- 0 -->
      <g transform="translate(121.6375 619.279563)scale(0.1 -0.1)">
       <use xlink:href="#DejaVuSans-30"/>
      </g>
     </g>
    </g>
    <g id="ytick_2">
     <g id="line2d_8">
      <g>
       <use style="stroke:#000000;stroke-width:0.8;" x="135" xlink:href="#m9fef11281e" y="553.295157"/>
      </g>
     </g>
     <g id="text_8">
      <!-- 20 -->
      <g transform="translate(115.275 557.094376)scale(0.1 -0.1)">
       <use xlink:href="#DejaVuSans-32"/>
       <use x="63.623047" xlink:href="#DejaVuSans-30"/>
      </g>
     </g>
    </g>
    <g id="ytick_3">
     <g id="line2d_9">
      <g>
       <use style="stroke:#000000;stroke-width:0.8;" x="135" xlink:href="#m9fef11281e" y="491.10997"/>
      </g>
     </g>
     <g id="text_9">
      <!-- 40 -->
      <g transform="translate(115.275 494.909188)scale(0.1 -0.1)">
       <use xlink:href="#DejaVuSans-34"/>
       <use x="63.623047" xlink:href="#DejaVuSans-30"/>
      </g>
     </g>
    </g>
    <g id="ytick_4">
     <g id="line2d_10">
      <g>
       <use style="stroke:#000000;stroke-width:0.8;" x="135" xlink:href="#m9fef11281e" y="428.924783"/>
      </g>
     </g>
     <g id="text_10">
      <!-- 60 -->
      <g transform="translate(115.275 432.724001)scale(0.1 -0.1)">
       <use xlink:href="#DejaVuSans-36"/>
       <use x="63.623047" xlink:href="#DejaVuSans-30"/>
      </g>
     </g>
    </g>
    <g id="ytick_5">
     <g id="line2d_11">
      <g>
       <use style="stroke:#000000;stroke-width:0.8;" x="135" xlink:href="#m9fef11281e" y="366.739595"/>
      </g>
     </g>
     <g id="text_11">
      <!-- 80 -->
      <g transform="translate(115.275 370.538814)scale(0.1 -0.1)">
       <use xlink:href="#DejaVuSans-38"/>
       <use x="63.623047" xlink:href="#DejaVuSans-30"/>
      </g>
     </g>
    </g>
    <g id="ytick_6">
     <g id="line2d_12">
      <g>
       <use style="stroke:#000000;stroke-width:0.8;" x="135" xlink:href="#m9fef11281e" y="304.554408"/>
      </g>
     </g>
     <g id="text_12">
      <!-- 100 -->
      <g transform="translate(108.9125 308.353627)scale(0.1 -0.1)">
       <defs>
        <path d="M 794 531 
L 1825 531 
L 1825 4091 
L 703 3866 
L 703 4441 
L 1819 4666 
L 2450 4666 
L 2450 531 
L 3481 531 
L 3481 0 
L 794 0 
L 794 531 
z
" id="DejaVuSans-31" transform="scale(0.015625)"/>
       </defs>
       <use xlink:href="#DejaVuSans-31"/>
       <use x="63.623047" xlink:href="#DejaVuSans-30"/>
       <use x="127.246094" xlink:href="#DejaVuSans-30"/>
      </g>
     </g>
    </g>
    <g id="ytick_7">
     <g id="line2d_13">
      <g>
       <use style="stroke:#000000;stroke-width:0.8;" x="135" xlink:href="#m9fef11281e" y="242.369221"/>
      </g>
     </g>
     <g id="text_13">
      <!-- 120 -->
      <g transform="translate(108.9125 246.16844)scale(0.1 -0.1)">
       <use xlink:href="#DejaVuSans-31"/>
       <use x="63.623047" xlink:href="#DejaVuSans-32"/>
       <use x="127.246094" xlink:href="#DejaVuSans-30"/>
      </g>
     </g>
    </g>
    <g id="ytick_8">
     <g id="line2d_14">
      <g>
       <use style="stroke:#000000;stroke-width:0.8;" x="135" xlink:href="#m9fef11281e" y="180.184034"/>
      </g>
     </g>
     <g id="text_14">
      <!-- 140 -->
      <g transform="translate(108.9125 183.983253)scale(0.1 -0.1)">
       <use xlink:href="#DejaVuSans-31"/>
       <use x="63.623047" xlink:href="#DejaVuSans-34"/>
       <use x="127.246094" xlink:href="#DejaVuSans-30"/>
      </g>
     </g>
    </g>
    <g id="ytick_9">
     <g id="line2d_15">
      <g>
       <use style="stroke:#000000;stroke-width:0.8;" x="135" xlink:href="#m9fef11281e" y="117.998847"/>
      </g>
     </g>
     <g id="text_15">
      <!-- 160 -->
      <g transform="translate(108.9125 121.798066)scale(0.1 -0.1)">
       <use xlink:href="#DejaVuSans-31"/>
       <use x="63.623047" xlink:href="#DejaVuSans-36"/>
       <use x="127.246094" xlink:href="#DejaVuSans-30"/>
      </g>
     </g>
    </g>
   </g>
   <g id="line2d_16">
    <path clip-path="url(#pc699e8cbae)" d="M 248.85491 615.480344 
L 249.183034 590.936423 
L 250.183953 533.584167 
L 249.980466 529.254705 
L 249.177657 520.251683 
L 247.478646 506.317032 
L 246.40095 497.075055 
L 245.675109 488.138941 
L 245.5266 483.85727 
L 245.565013 479.738087 
L 245.823336 475.810069 
L 246.334555 472.10189 
L 247.131655 468.642224 
L 248.247624 465.459747 
L 249.715448 462.583132 
L 251.568113 460.041054 
L 253.891798 457.931895 
L 256.714435 456.298189 
L 259.981642 455.084839 
L 263.639037 454.23675 
L 267.632237 453.698825 
L 271.906861 453.415967 
L 276.408527 453.333081 
L 285.875452 453.546838 
L 295.597955 453.899325 
L 300.419093 453.989852 
L 305.140979 453.949772 
L 309.70923 453.72399 
L 314.069465 453.257409 
L 318.167301 452.494933 
L 321.948356 451.381465 
L 325.358247 449.86191 
L 328.342594 447.881171 
L 331.062033 445.474777 
L 333.705958 442.735661 
L 336.263121 439.694834 
L 338.722273 436.383305 
L 341.072166 432.832082 
L 343.301549 429.072177 
L 345.399176 425.134597 
L 347.353796 421.050354 
L 349.154162 416.850456 
L 350.789023 412.565913 
L 352.247132 408.227735 
L 353.51724 403.866931 
L 354.588099 399.51451 
L 355.448458 395.201483 
L 356.08707 390.958858 
L 356.492685 386.817646 
L 356.654056 382.808856 
L 356.559932 378.963497 
L 356.199066 375.312579 
L 355.468209 371.813591 
L 354.300389 368.396719 
L 352.73877 365.052013 
L 350.826519 361.769524 
L 348.6068 358.539306 
L 346.122778 355.351408 
L 343.417618 352.195884 
L 337.516547 345.942159 
L 321.915523 330.177986 
L 318.995209 326.923302 
L 316.242243 323.611455 
L 313.699792 320.232498 
L 311.411019 316.776481 
L 309.419091 313.233456 
L 307.646236 309.612782 
L 305.980806 305.93353 
L 302.941625 298.417763 
L 300.240356 290.723096 
L 297.815806 282.886473 
L 295.606783 274.944837 
L 292.563504 262.916295 
L 286.692605 238.898468 
L 285.576537 234.886522 
L 282.88997 226.58579 
L 278.233027 213.705325 
L 275.106221 205.036447 
L 272.278377 196.465525 
L 271.061398 192.260586 
L 270.020958 188.132681 
L 269.19099 184.099326 
L 268.605426 180.178037 
L 268.2982 176.386328 
L 268.303243 172.741715 
L 268.654489 169.261713 
L 269.385871 165.963837 
L 270.531321 162.865603 
L 272.110047 159.914582 
L 274.096773 157.049236 
L 276.458705 154.273419 
L 279.163046 151.590984 
L 282.177003 149.005784 
L 285.467779 146.521673 
L 289.002581 144.142505 
L 292.748613 141.872133 
L 296.67308 139.71441 
L 300.743188 137.673189 
L 304.926141 135.752325 
L 309.189145 133.955669 
L 313.499404 132.287077 
L 317.824124 130.750401 
L 322.130509 129.349494 
L 326.385765 128.088211 
L 330.557097 126.970404 
L 334.61171 125.999926 
L 338.516808 125.180632 
L 342.360942 124.565408 
L 346.251851 124.190821 
L 350.185526 124.036246 
L 354.157958 124.081056 
L 358.165136 124.304625 
L 362.203053 124.686328 
L 366.267698 125.205537 
L 374.461138 126.573973 
L 382.71338 128.244925 
L 403.390762 132.662941 
L 411.59623 134.093255 
L 415.668894 134.653717 
L 415.668894 134.653717 
" style="fill:none;stroke:#fea952;stroke-linecap:square;"/>
   </g>
   <g id="line2d_17">
    <path clip-path="url(#pc699e8cbae)" d="M 236.418449 615.360688 
L 236.747923 590.717563 
L 237.76063 534.168069 
L 237.580883 530.219192 
L 236.822809 521.679145 
L 235.133036 507.822295 
L 234.018105 498.234816 
L 233.569591 493.404331 
L 233.245546 488.570059 
L 233.090103 483.741292 
L 233.154784 478.921939 
L 233.50283 474.111534 
L 234.21503 469.309574 
L 235.395273 464.526739 
L 237.16944 459.806983 
L 239.664472 455.257985 
L 243.20918 450.831921 
L 247.661683 447.167808 
L 252.384605 444.639181 
L 257.172241 442.969264 
L 261.978638 441.911046 
L 266.811058 441.288927 
L 271.677905 440.981038 
L 276.573447 440.897137 
L 286.352583 441.118956 
L 300.31353 441.553262 
L 304.527037 441.527897 
L 308.385919 441.357554 
L 311.794378 441.030231 
L 314.653943 440.564458 
L 316.885938 440.021367 
L 318.480649 439.499549 
L 320.100723 438.567124 
L 322.113606 436.837326 
L 324.187281 434.730994 
L 326.278152 432.279965 
L 328.350384 429.520084 
L 330.3743 426.488931 
L 332.324898 423.224697 
L 334.180675 419.765694 
L 335.922758 416.150224 
L 337.5343 412.416642 
L 339.000074 408.603518 
L 340.306258 404.74989 
L 341.440366 400.895568 
L 342.39136 397.081514 
L 343.149964 393.350279 
L 343.709263 389.746501 
L 344.065712 386.317409 
L 344.220742 383.113188 
L 344.183207 380.186844 
L 344.024773 377.855505 
L 343.699562 375.835885 
L 343.031131 373.658251 
L 341.992312 371.312486 
L 340.576315 368.813189 
L 338.796381 366.183622 
L 336.680502 363.446057 
L 334.265806 360.617536 
L 328.710217 354.72444 
L 312.658568 338.483929 
L 309.43101 334.873522 
L 306.304248 331.089166 
L 303.330496 327.099638 
L 300.569864 322.871499 
L 298.249199 318.70277 
L 296.315917 314.741502 
L 294.511564 310.74356 
L 291.250743 302.660778 
L 288.38985 294.497404 
L 285.854269 286.292574 
L 283.572259 278.083328 
L 280.475141 265.84057 
L 274.710559 242.231706 
L 273.701087 238.581596 
L 271.163097 230.728297 
L 266.550309 217.970768 
L 263.33456 209.049913 
L 260.331621 199.923114 
L 259.00154 195.300277 
L 257.839159 190.639405 
L 256.890344 185.936174 
L 256.209015 181.182467 
L 255.861174 176.369117 
L 255.929076 171.492756 
L 256.512462 166.568932 
L 257.72055 161.651045 
L 259.564954 156.998857 
L 261.889465 152.828003 
L 264.624694 148.989483 
L 267.700227 145.443414 
L 271.065865 142.15088 
L 274.683874 139.079409 
L 278.523282 136.204025 
L 282.55634 133.506441 
L 286.756536 130.973742 
L 291.097597 128.597131 
L 295.553027 126.370883 
L 300.095966 124.291552 
L 304.699202 122.35738 
L 309.335287 120.567861 
L 313.976702 118.92343 
L 318.596089 117.425243 
L 323.166549 116.075029 
L 327.662047 114.875008 
L 332.058003 113.827889 
L 336.551368 112.899877 
L 341.169111 112.185608 
L 345.76351 111.763375 
L 350.32581 111.6 
L 354.85077 111.663331 
L 359.335586 111.922786 
L 363.77893 112.349533 
L 368.180175 112.916423 
L 376.854144 114.369326 
L 385.349083 116.09038 
L 405.651021 120.433013 
L 413.291779 121.772338 
L 417.364443 122.332799 
L 417.364443 122.332799 
" style="fill:none;stroke:#ffffff;stroke-linecap:square;"/>
   </g>
   <g id="line2d_18">
    <path clip-path="url(#pc699e8cbae)" d="M 261.291372 615.6 
L 261.618146 591.155283 
L 262.607276 533.000266 
L 262.380049 528.290217 
L 261.532504 518.824221 
L 259.824256 504.811769 
L 258.783795 495.915295 
L 258.104672 487.707824 
L 257.963096 483.973247 
L 257.975243 480.554236 
L 258.143843 477.508604 
L 258.454079 474.894206 
L 258.868038 472.757709 
L 259.927047 469.250187 
L 260.121913 468.695982 
L 261.044265 467.957197 
L 262.791043 467.200415 
L 265.299436 466.562454 
L 268.453417 466.108723 
L 272.135817 465.850897 
L 276.243606 465.769025 
L 285.398321 465.97472 
L 295.364465 466.334171 
L 300.524655 466.426441 
L 305.75492 466.371647 
L 311.03254 466.090427 
L 316.344551 465.484587 
L 321.680658 464.425407 
L 327.010774 462.741563 
L 332.235846 460.224272 
L 336.584465 457.195217 
L 340.01046 454.112228 
L 343.224635 450.740328 
L 346.248091 447.109703 
L 349.094163 443.246526 
L 351.770032 439.175233 
L 354.278201 434.919656 
L 356.617677 430.503501 
L 358.784834 425.950484 
L 360.774023 421.28427 
L 362.577973 416.528308 
L 364.188007 411.70558 
L 365.594115 406.838293 
L 366.784837 401.947506 
L 367.746951 397.052687 
L 368.464876 392.171216 
L 368.919658 387.317883 
L 369.087369 382.504524 
L 368.936657 377.74015 
L 368.37336 372.769653 
L 367.236856 367.791298 
L 365.569647 363.135186 
L 363.485229 358.791539 
L 361.076723 354.72586 
L 358.417219 350.894989 
L 355.565053 347.25676 
L 352.56943 343.774231 
L 346.322877 337.159879 
L 331.172478 321.872043 
L 328.559407 318.973082 
L 326.180238 316.133744 
L 324.069087 313.365357 
L 322.252175 310.681463 
L 320.588984 307.764141 
L 318.976555 304.484062 
L 316.003905 297.685819 
L 313.33012 290.594314 
L 310.908682 283.242615 
L 308.690423 275.666715 
L 306.623196 267.903977 
L 303.684141 255.991724 
L 298.674651 235.56523 
L 297.451988 231.191448 
L 294.616842 222.443284 
L 289.915745 209.439882 
L 286.877881 201.022982 
L 284.225133 193.007937 
L 283.121256 189.220894 
L 282.202757 185.625957 
L 281.491636 182.262478 
L 281.001838 179.173607 
L 280.735225 176.403538 
L 280.67741 173.990673 
L 280.796517 171.954493 
L 281.051192 170.27663 
L 281.497687 168.732349 
L 282.330629 167.001161 
L 283.568853 165.108989 
L 285.217182 163.103423 
L 287.260227 161.031087 
L 289.670131 158.932159 
L 292.412276 156.839322 
L 295.448822 154.77857 
L 298.74069 152.770523 
L 302.248564 150.831688 
L 305.933349 148.975496 
L 309.756317 147.213097 
L 313.679088 145.553959 
L 317.663521 144.006293 
L 321.671546 142.577372 
L 329.604982 140.101393 
L 337.165417 138.171963 
L 340.482249 137.461387 
L 343.552773 136.945208 
L 346.740192 136.618268 
L 350.045242 136.472492 
L 353.465146 136.498782 
L 356.994687 136.686465 
L 360.627176 137.023123 
L 368.171298 138.085445 
L 376.038959 139.556235 
L 388.33819 142.203911 
L 401.130504 144.892869 
L 409.900681 146.414173 
L 413.973345 146.974635 
L 413.973345 146.974635 
" style="fill:none;stroke:#ffffff;stroke-linecap:square;"/>
   </g>
   <g id="patch_3">
    <path d="M 135 640.8 
L 135 86.4 
" style="fill:none;stroke:#000000;stroke-linecap:square;stroke-linejoin:miter;stroke-width:0.8;"/>
   </g>
   <g id="patch_4">
    <path d="M 515.454545 640.8 
L 515.454545 86.4 
" style="fill:none;stroke:#000000;stroke-linecap:square;stroke-linejoin:miter;stroke-width:0.8;"/>
   </g>
   <g id="patch_5">
    <path d="M 135 640.8 
L 515.454545 640.8 
" style="fill:none;stroke:#000000;stroke-linecap:square;stroke-linejoin:miter;stroke-width:0.8;"/>
   </g>
   <g id="patch_6">
    <path d="M 135 86.4 
L 515.454545 86.4 
" style="fill:none;stroke:#000000;stroke-linecap:square;stroke-linejoin:miter;stroke-width:0.8;"/>
   </g>
   <g id="text_16">
    <!-- dist to bound ~ 1.07 -->
    <g transform="translate(263.341023 80.4)scale(0.12 -0.12)">
     <defs>
      <path d="M 2906 2969 
L 2906 4863 
L 3481 4863 
L 3481 0 
L 2906 0 
L 2906 525 
Q 2725 213 2448 61 
Q 2172 -91 1784 -91 
Q 1150 -91 751 415 
Q 353 922 353 1747 
Q 353 2572 751 3078 
Q 1150 3584 1784 3584 
Q 2172 3584 2448 3432 
Q 2725 3281 2906 2969 
z
M 947 1747 
Q 947 1113 1208 752 
Q 1469 391 1925 391 
Q 2381 391 2643 752 
Q 2906 1113 2906 1747 
Q 2906 2381 2643 2742 
Q 2381 3103 1925 3103 
Q 1469 3103 1208 2742 
Q 947 2381 947 1747 
z
" id="DejaVuSans-64" transform="scale(0.015625)"/>
      <path d="M 603 3500 
L 1178 3500 
L 1178 0 
L 603 0 
L 603 3500 
z
M 603 4863 
L 1178 4863 
L 1178 4134 
L 603 4134 
L 603 4863 
z
" id="DejaVuSans-69" transform="scale(0.015625)"/>
      <path d="M 2834 3397 
L 2834 2853 
Q 2591 2978 2328 3040 
Q 2066 3103 1784 3103 
Q 1356 3103 1142 2972 
Q 928 2841 928 2578 
Q 928 2378 1081 2264 
Q 1234 2150 1697 2047 
L 1894 2003 
Q 2506 1872 2764 1633 
Q 3022 1394 3022 966 
Q 3022 478 2636 193 
Q 2250 -91 1575 -91 
Q 1294 -91 989 -36 
Q 684 19 347 128 
L 347 722 
Q 666 556 975 473 
Q 1284 391 1588 391 
Q 1994 391 2212 530 
Q 2431 669 2431 922 
Q 2431 1156 2273 1281 
Q 2116 1406 1581 1522 
L 1381 1569 
Q 847 1681 609 1914 
Q 372 2147 372 2553 
Q 372 3047 722 3315 
Q 1072 3584 1716 3584 
Q 2034 3584 2315 3537 
Q 2597 3491 2834 3397 
z
" id="DejaVuSans-73" transform="scale(0.015625)"/>
      <path d="M 1172 4494 
L 1172 3500 
L 2356 3500 
L 2356 3053 
L 1172 3053 
L 1172 1153 
Q 1172 725 1289 603 
Q 1406 481 1766 481 
L 2356 481 
L 2356 0 
L 1766 0 
Q 1100 0 847 248 
Q 594 497 594 1153 
L 594 3053 
L 172 3053 
L 172 3500 
L 594 3500 
L 594 4494 
L 1172 4494 
z
" id="DejaVuSans-74" transform="scale(0.015625)"/>
      <path id="DejaVuSans-20" transform="scale(0.015625)"/>
      <path d="M 1959 3097 
Q 1497 3097 1228 2736 
Q 959 2375 959 1747 
Q 959 1119 1226 758 
Q 1494 397 1959 397 
Q 2419 397 2687 759 
Q 2956 1122 2956 1747 
Q 2956 2369 2687 2733 
Q 2419 3097 1959 3097 
z
M 1959 3584 
Q 2709 3584 3137 3096 
Q 3566 2609 3566 1747 
Q 3566 888 3137 398 
Q 2709 -91 1959 -91 
Q 1206 -91 779 398 
Q 353 888 353 1747 
Q 353 2609 779 3096 
Q 1206 3584 1959 3584 
z
" id="DejaVuSans-6f" transform="scale(0.015625)"/>
      <path d="M 3116 1747 
Q 3116 2381 2855 2742 
Q 2594 3103 2138 3103 
Q 1681 3103 1420 2742 
Q 1159 2381 1159 1747 
Q 1159 1113 1420 752 
Q 1681 391 2138 391 
Q 2594 391 2855 752 
Q 3116 1113 3116 1747 
z
M 1159 2969 
Q 1341 3281 1617 3432 
Q 1894 3584 2278 3584 
Q 2916 3584 3314 3078 
Q 3713 2572 3713 1747 
Q 3713 922 3314 415 
Q 2916 -91 2278 -91 
Q 1894 -91 1617 61 
Q 1341 213 1159 525 
L 1159 0 
L 581 0 
L 581 4863 
L 1159 4863 
L 1159 2969 
z
" id="DejaVuSans-62" transform="scale(0.015625)"/>
      <path d="M 544 1381 
L 544 3500 
L 1119 3500 
L 1119 1403 
Q 1119 906 1312 657 
Q 1506 409 1894 409 
Q 2359 409 2629 706 
Q 2900 1003 2900 1516 
L 2900 3500 
L 3475 3500 
L 3475 0 
L 2900 0 
L 2900 538 
Q 2691 219 2414 64 
Q 2138 -91 1772 -91 
Q 1169 -91 856 284 
Q 544 659 544 1381 
z
M 1991 3584 
L 1991 3584 
z
" id="DejaVuSans-75" transform="scale(0.015625)"/>
      <path d="M 3513 2113 
L 3513 0 
L 2938 0 
L 2938 2094 
Q 2938 2591 2744 2837 
Q 2550 3084 2163 3084 
Q 1697 3084 1428 2787 
Q 1159 2491 1159 1978 
L 1159 0 
L 581 0 
L 581 3500 
L 1159 3500 
L 1159 2956 
Q 1366 3272 1645 3428 
Q 1925 3584 2291 3584 
Q 2894 3584 3203 3211 
Q 3513 2838 3513 2113 
z
" id="DejaVuSans-6e" transform="scale(0.015625)"/>
      <path d="M 4684 2553 
L 4684 1997 
Q 4356 1750 4076 1644 
Q 3797 1538 3494 1538 
Q 3150 1538 2694 1722 
Q 2659 1734 2644 1741 
Q 2622 1750 2575 1766 
Q 2091 1959 1797 1959 
Q 1522 1959 1253 1839 
Q 984 1719 678 1459 
L 678 2016 
Q 1006 2263 1286 2370 
Q 1566 2478 1869 2478 
Q 2213 2478 2672 2291 
Q 2703 2278 2719 2272 
Q 2744 2263 2788 2247 
Q 3272 2053 3566 2053 
Q 3834 2053 4098 2172 
Q 4363 2291 4684 2553 
z
" id="DejaVuSans-7e" transform="scale(0.015625)"/>
      <path d="M 684 794 
L 1344 794 
L 1344 0 
L 684 0 
L 684 794 
z
" id="DejaVuSans-2e" transform="scale(0.015625)"/>
      <path d="M 525 4666 
L 3525 4666 
L 3525 4397 
L 1831 0 
L 1172 0 
L 2766 4134 
L 525 4134 
L 525 4666 
z
" id="DejaVuSans-37" transform="scale(0.015625)"/>
     </defs>
     <use xlink:href="#DejaVuSans-64"/>
     <use x="63.476562" xlink:href="#DejaVuSans-69"/>
     <use x="91.259766" xlink:href="#DejaVuSans-73"/>
     <use x="143.359375" xlink:href="#DejaVuSans-74"/>
     <use x="182.568359" xlink:href="#DejaVuSans-20"/>
     <use x="214.355469" xlink:href="#DejaVuSans-74"/>
     <use x="253.564453" xlink:href="#DejaVuSans-6f"/>
     <use x="314.746094" xlink:href="#DejaVuSans-20"/>
     <use x="346.533203" xlink:href="#DejaVuSans-62"/>
     <use x="410.009766" xlink:href="#DejaVuSans-6f"/>
     <use x="471.191406" xlink:href="#DejaVuSans-75"/>
     <use x="534.570312" xlink:href="#DejaVuSans-6e"/>
     <use x="597.949219" xlink:href="#DejaVuSans-64"/>
     <use x="661.425781" xlink:href="#DejaVuSans-20"/>
     <use x="693.212891" xlink:href="#DejaVuSans-7e"/>
     <use x="777.001953" xlink:href="#DejaVuSans-20"/>
     <use x="808.789062" xlink:href="#DejaVuSans-31"/>
     <use x="872.412109" xlink:href="#DejaVuSans-2e"/>
     <use x="904.199219" xlink:href="#DejaVuSans-30"/>
     <use x="967.822266" xlink:href="#DejaVuSans-37"/>
    </g>
   </g>
  </g>
  <g id="axes_2">
   <g id="patch_7">
    <path d="M 591.545455 640.8 
L 972 640.8 
L 972 86.4 
L 591.545455 86.4 
z
" style="fill:#7d9051;"/>
   </g>
   <g id="matplotlib.axis_3">
    <g id="xtick_7">
     <g id="line2d_19">
      <g>
       <use style="stroke:#000000;stroke-width:0.8;" x="643.215178" xlink:href="#ma498b2d480" y="640.8"/>
      </g>
     </g>
     <g id="text_17">
      <!-- −20 -->
      <g transform="translate(632.662834 655.398438)scale(0.1 -0.1)">
       <use xlink:href="#DejaVuSans-2212"/>
       <use x="83.789062" xlink:href="#DejaVuSans-32"/>
       <use x="147.412109" xlink:href="#DejaVuSans-30"/>
      </g>
     </g>
    </g>
    <g id="xtick_8">
     <g id="line2d_20">
      <g>
       <use style="stroke:#000000;stroke-width:0.8;" x="705.400365" xlink:href="#ma498b2d480" y="640.8"/>
      </g>
     </g>
     <g id="text_18">
      <!-- 0 -->
      <g transform="translate(702.219115 655.398438)scale(0.1 -0.1)">
       <use xlink:href="#DejaVuSans-30"/>
      </g>
     </g>
    </g>
    <g id="xtick_9">
     <g id="line2d_21">
      <g>
       <use style="stroke:#000000;stroke-width:0.8;" x="767.585552" xlink:href="#ma498b2d480" y="640.8"/>
      </g>
     </g>
     <g id="text_19">
      <!-- 20 -->
      <g transform="translate(761.223052 655.398438)scale(0.1 -0.1)">
       <use xlink:href="#DejaVuSans-32"/>
       <use x="63.623047" xlink:href="#DejaVuSans-30"/>
      </g>
     </g>
    </g>
    <g id="xtick_10">
     <g id="line2d_22">
      <g>
       <use style="stroke:#000000;stroke-width:0.8;" x="829.770739" xlink:href="#ma498b2d480" y="640.8"/>
      </g>
     </g>
     <g id="text_20">
      <!-- 40 -->
      <g transform="translate(823.408239 655.398438)scale(0.1 -0.1)">
       <use xlink:href="#DejaVuSans-34"/>
       <use x="63.623047" xlink:href="#DejaVuSans-30"/>
      </g>
     </g>
    </g>
    <g id="xtick_11">
     <g id="line2d_23">
      <g>
       <use style="stroke:#000000;stroke-width:0.8;" x="891.955926" xlink:href="#ma498b2d480" y="640.8"/>
      </g>
     </g>
     <g id="text_21">
      <!-- 60 -->
      <g transform="translate(885.593426 655.398438)scale(0.1 -0.1)">
       <use xlink:href="#DejaVuSans-36"/>
       <use x="63.623047" xlink:href="#DejaVuSans-30"/>
      </g>
     </g>
    </g>
    <g id="xtick_12">
     <g id="line2d_24">
      <g>
       <use style="stroke:#000000;stroke-width:0.8;" x="954.141113" xlink:href="#ma498b2d480" y="640.8"/>
      </g>
     </g>
     <g id="text_22">
      <!-- 80 -->
      <g transform="translate(947.778613 655.398438)scale(0.1 -0.1)">
       <use xlink:href="#DejaVuSans-38"/>
       <use x="63.623047" xlink:href="#DejaVuSans-30"/>
      </g>
     </g>
    </g>
   </g>
   <g id="matplotlib.axis_4">
    <g id="ytick_10">
     <g id="line2d_25">
      <g>
       <use style="stroke:#000000;stroke-width:0.8;" x="591.545455" xlink:href="#m9fef11281e" y="615.480344"/>
      </g>
     </g>
     <g id="text_23">
      <!-- 0 -->
      <g transform="translate(578.182955 619.279563)scale(0.1 -0.1)">
       <use xlink:href="#DejaVuSans-30"/>
      </g>
     </g>
    </g>
    <g id="ytick_11">
     <g id="line2d_26">
      <g>
       <use style="stroke:#000000;stroke-width:0.8;" x="591.545455" xlink:href="#m9fef11281e" y="553.295157"/>
      </g>
     </g>
     <g id="text_24">
      <!-- 20 -->
      <g transform="translate(571.820455 557.094376)scale(0.1 -0.1)">
       <use xlink:href="#DejaVuSans-32"/>
       <use x="63.623047" xlink:href="#DejaVuSans-30"/>
      </g>
     </g>
    </g>
    <g id="ytick_12">
     <g id="line2d_27">
      <g>
       <use style="stroke:#000000;stroke-width:0.8;" x="591.545455" xlink:href="#m9fef11281e" y="491.10997"/>
      </g>
     </g>
     <g id="text_25">
      <!-- 40 -->
      <g transform="translate(571.820455 494.909188)scale(0.1 -0.1)">
       <use xlink:href="#DejaVuSans-34"/>
       <use x="63.623047" xlink:href="#DejaVuSans-30"/>
      </g>
     </g>
    </g>
    <g id="ytick_13">
     <g id="line2d_28">
      <g>
       <use style="stroke:#000000;stroke-width:0.8;" x="591.545455" xlink:href="#m9fef11281e" y="428.924783"/>
      </g>
     </g>
     <g id="text_26">
      <!-- 60 -->
      <g transform="translate(571.820455 432.724001)scale(0.1 -0.1)">
       <use xlink:href="#DejaVuSans-36"/>
       <use x="63.623047" xlink:href="#DejaVuSans-30"/>
      </g>
     </g>
    </g>
    <g id="ytick_14">
     <g id="line2d_29">
      <g>
       <use style="stroke:#000000;stroke-width:0.8;" x="591.545455" xlink:href="#m9fef11281e" y="366.739595"/>
      </g>
     </g>
     <g id="text_27">
      <!-- 80 -->
      <g transform="translate(571.820455 370.538814)scale(0.1 -0.1)">
       <use xlink:href="#DejaVuSans-38"/>
       <use x="63.623047" xlink:href="#DejaVuSans-30"/>
      </g>
     </g>
    </g>
    <g id="ytick_15">
     <g id="line2d_30">
      <g>
       <use style="stroke:#000000;stroke-width:0.8;" x="591.545455" xlink:href="#m9fef11281e" y="304.554408"/>
      </g>
     </g>
     <g id="text_28">
      <!-- 100 -->
      <g transform="translate(565.457955 308.353627)scale(0.1 -0.1)">
       <use xlink:href="#DejaVuSans-31"/>
       <use x="63.623047" xlink:href="#DejaVuSans-30"/>
       <use x="127.246094" xlink:href="#DejaVuSans-30"/>
      </g>
     </g>
    </g>
    <g id="ytick_16">
     <g id="line2d_31">
      <g>
       <use style="stroke:#000000;stroke-width:0.8;" x="591.545455" xlink:href="#m9fef11281e" y="242.369221"/>
      </g>
     </g>
     <g id="text_29">
      <!-- 120 -->
      <g transform="translate(565.457955 246.16844)scale(0.1 -0.1)">
       <use xlink:href="#DejaVuSans-31"/>
       <use x="63.623047" xlink:href="#DejaVuSans-32"/>
       <use x="127.246094" xlink:href="#DejaVuSans-30"/>
      </g>
     </g>
    </g>
    <g id="ytick_17">
     <g id="line2d_32">
      <g>
       <use style="stroke:#000000;stroke-width:0.8;" x="591.545455" xlink:href="#m9fef11281e" y="180.184034"/>
      </g>
     </g>
     <g id="text_30">
      <!-- 140 -->
      <g transform="translate(565.457955 183.983253)scale(0.1 -0.1)">
       <use xlink:href="#DejaVuSans-31"/>
       <use x="63.623047" xlink:href="#DejaVuSans-34"/>
       <use x="127.246094" xlink:href="#DejaVuSans-30"/>
      </g>
     </g>
    </g>
    <g id="ytick_18">
     <g id="line2d_33">
      <g>
       <use style="stroke:#000000;stroke-width:0.8;" x="591.545455" xlink:href="#m9fef11281e" y="117.998847"/>
      </g>
     </g>
     <g id="text_31">
      <!-- 160 -->
      <g transform="translate(565.457955 121.798066)scale(0.1 -0.1)">
       <use xlink:href="#DejaVuSans-31"/>
       <use x="63.623047" xlink:href="#DejaVuSans-36"/>
       <use x="127.246094" xlink:href="#DejaVuSans-30"/>
      </g>
     </g>
    </g>
   </g>
   <g id="line2d_34">
    <path clip-path="url(#p0b1723b284)" d="M 705.400365 615.480344 
L 705.728489 590.936423 
L 706.729407 533.584167 
L 706.525921 529.254705 
L 705.723111 520.251683 
L 704.024101 506.317032 
L 702.946405 497.075055 
L 702.220563 488.138941 
L 702.072054 483.85727 
L 702.110468 479.738087 
L 702.368791 475.810069 
L 702.880009 472.10189 
L 703.67711 468.642224 
L 704.793079 465.459747 
L 706.260903 462.583132 
L 708.113568 460.041054 
L 710.437252 457.931895 
L 713.259889 456.298189 
L 716.527097 455.084839 
L 720.184491 454.23675 
L 724.177692 453.698825 
L 728.452316 453.415967 
L 732.953981 453.333081 
L 742.420906 453.546838 
L 752.143409 453.899325 
L 756.964547 453.989852 
L 761.686433 453.949772 
L 766.254684 453.72399 
L 770.614919 453.257409 
L 774.712755 452.494933 
L 778.49381 451.381465 
L 781.903702 449.86191 
L 784.888048 447.881171 
L 787.607487 445.474777 
L 790.251413 442.735661 
L 792.808576 439.694834 
L 795.267728 436.383305 
L 797.61762 432.832082 
L 799.847004 429.072177 
L 801.94463 425.134597 
L 803.899251 421.050354 
L 805.699616 416.850456 
L 807.334478 412.565913 
L 808.792587 408.227735 
L 810.062695 403.866931 
L 811.133553 399.51451 
L 811.993912 395.201483 
L 812.632524 390.958858 
L 813.03814 386.817646 
L 813.19951 382.808856 
L 813.105387 378.963497 
L 812.744521 375.312579 
L 812.013664 371.813591 
L 810.845843 368.396719 
L 809.284225 365.052013 
L 807.371974 361.769524 
L 805.152254 358.539306 
L 802.668232 355.351408 
L 799.963073 352.195884 
L 794.062001 345.942159 
L 778.460977 330.177986 
L 775.540663 326.923302 
L 772.787698 323.611455 
L 770.245246 320.232498 
L 767.956474 316.776481 
L 765.964546 313.233456 
L 764.191691 309.612782 
L 762.526261 305.93353 
L 759.48708 298.417763 
L 756.785811 290.723096 
L 754.361261 282.886473 
L 752.152238 274.944837 
L 749.108958 262.916295 
L 743.238059 238.898468 
L 742.121992 234.886522 
L 739.435424 226.58579 
L 734.778482 213.705325 
L 731.651675 205.036447 
L 728.823831 196.465525 
L 727.606852 192.260586 
L 726.566413 188.132681 
L 725.736444 184.099326 
L 725.150881 180.178037 
L 724.843654 176.386328 
L 724.848698 172.741715 
L 725.199944 169.261713 
L 725.931325 165.963837 
L 727.076775 162.865603 
L 728.655502 159.914582 
L 730.642228 157.049236 
L 733.004159 154.273419 
L 735.708501 151.590984 
L 738.722457 149.005784 
L 742.013234 146.521673 
L 745.548036 144.142505 
L 749.294068 141.872133 
L 753.218535 139.71441 
L 757.288643 137.673189 
L 761.471596 135.752325 
L 765.734599 133.955669 
L 770.044859 132.287077 
L 774.369578 130.750401 
L 778.675964 129.349494 
L 782.93122 128.088211 
L 787.102552 126.970404 
L 791.157164 125.999926 
L 795.062263 125.180632 
L 798.906397 124.565408 
L 802.797306 124.190821 
L 806.730981 124.036246 
L 810.703412 124.081056 
L 814.710591 124.304625 
L 818.748507 124.686328 
L 822.813153 125.205537 
L 831.006592 126.573973 
L 839.258835 128.244925 
L 859.936217 132.662941 
L 868.141684 134.093255 
L 872.214348 134.653717 
L 872.214348 134.653717 
" style="fill:none;stroke:#fea952;stroke-linecap:square;"/>
   </g>
   <g id="line2d_35">
    <path clip-path="url(#p0b1723b284)" d="M 692.963903 615.360688 
L 693.293377 590.717563 
L 694.306084 534.168069 
L 694.126338 530.219192 
L 693.368264 521.679145 
L 691.678491 507.822295 
L 690.563559 498.234816 
L 690.115045 493.404331 
L 689.791 488.570059 
L 689.635557 483.741292 
L 689.700238 478.921939 
L 690.048284 474.111534 
L 690.760485 469.309574 
L 691.940727 464.526739 
L 693.714895 459.806983 
L 696.209927 455.257985 
L 699.754635 450.831921 
L 704.207137 447.167808 
L 708.930059 444.639181 
L 713.717695 442.969264 
L 718.524092 441.911046 
L 723.356513 441.288927 
L 728.22336 440.981038 
L 733.118902 440.897137 
L 742.898037 441.118956 
L 756.858985 441.553262 
L 761.072492 441.527897 
L 764.931374 441.357554 
L 768.339833 441.030231 
L 771.199398 440.564458 
L 773.431392 440.021367 
L 775.026103 439.499549 
L 776.646177 438.567124 
L 778.65906 436.837326 
L 780.732736 434.730994 
L 782.823606 432.279965 
L 784.895838 429.520084 
L 786.919754 426.488931 
L 788.870352 423.224697 
L 790.726129 419.765694 
L 792.468213 416.150224 
L 794.079754 412.416642 
L 795.545528 408.603518 
L 796.851712 404.74989 
L 797.98582 400.895568 
L 798.936815 397.081514 
L 799.695419 393.350279 
L 800.254718 389.746501 
L 800.611166 386.317409 
L 800.766197 383.113188 
L 800.728662 380.186844 
L 800.570227 377.855505 
L 800.245017 375.835885 
L 799.576586 373.658251 
L 798.537767 371.312486 
L 797.121769 368.813189 
L 795.341835 366.183622 
L 793.225957 363.446057 
L 790.811261 360.617536 
L 785.255672 354.72444 
L 769.204022 338.483929 
L 765.976464 334.873522 
L 762.849703 331.089166 
L 759.875951 327.099638 
L 757.115318 322.871499 
L 754.794653 318.70277 
L 752.861372 314.741502 
L 751.057019 310.74356 
L 747.796198 302.660778 
L 744.935304 294.497404 
L 742.399723 286.292574 
L 740.117714 278.083328 
L 737.020596 265.84057 
L 731.256014 242.231706 
L 730.246541 238.581596 
L 727.708552 230.728297 
L 723.095764 217.970768 
L 719.880014 209.049913 
L 716.877075 199.923114 
L 715.546994 195.300277 
L 714.384613 190.639405 
L 713.435798 185.936174 
L 712.754469 181.182467 
L 712.406629 176.369117 
L 712.474531 171.492756 
L 713.057916 166.568932 
L 714.266004 161.651045 
L 716.110409 156.998857 
L 718.434919 152.828003 
L 721.170149 148.989483 
L 724.245682 145.443414 
L 727.61132 142.15088 
L 731.229328 139.079409 
L 735.068737 136.204025 
L 739.101794 133.506441 
L 743.301991 130.973742 
L 747.643052 128.597131 
L 752.098482 126.370883 
L 756.64142 124.291552 
L 761.244657 122.35738 
L 765.880741 120.567861 
L 770.522156 118.92343 
L 775.141544 117.425243 
L 779.712003 116.075029 
L 784.207502 114.875008 
L 788.603457 113.827889 
L 793.096823 112.899877 
L 797.714565 112.185608 
L 802.308964 111.763375 
L 806.871265 111.6 
L 811.396224 111.663331 
L 815.88104 111.922786 
L 820.324384 112.349533 
L 824.725629 112.916423 
L 833.399599 114.369326 
L 841.894537 116.09038 
L 862.196475 120.433013 
L 869.837233 121.772338 
L 873.909897 122.332799 
L 873.909897 122.332799 
" style="fill:none;stroke:#ffffff;stroke-linecap:square;"/>
   </g>
   <g id="line2d_36">
    <path clip-path="url(#p0b1723b284)" d="M 717.836827 615.6 
L 718.1636 591.155283 
L 719.15273 533.000266 
L 718.925504 528.290217 
L 718.077958 518.824221 
L 716.369711 504.811769 
L 715.32925 495.915295 
L 714.650126 487.707824 
L 714.508551 483.973247 
L 714.520697 480.554236 
L 714.689297 477.508604 
L 714.999534 474.894206 
L 715.413493 472.757709 
L 716.472501 469.250187 
L 716.667368 468.695982 
L 717.58972 467.957197 
L 719.336498 467.200415 
L 721.844891 466.562454 
L 724.998871 466.108723 
L 728.681272 465.850897 
L 732.789061 465.769025 
L 741.943775 465.97472 
L 751.90992 466.334171 
L 757.07011 466.426441 
L 762.300374 466.371647 
L 767.577995 466.090427 
L 772.890006 465.484587 
L 778.226112 464.425407 
L 783.556228 462.741563 
L 788.781301 460.224272 
L 793.129919 457.195217 
L 796.555914 454.112228 
L 799.770089 450.740328 
L 802.793545 447.109703 
L 805.639618 443.246526 
L 808.315486 439.175233 
L 810.823656 434.919656 
L 813.163132 430.503501 
L 815.330289 425.950484 
L 817.319478 421.28427 
L 819.123427 416.528308 
L 820.733462 411.70558 
L 822.13957 406.838293 
L 823.330292 401.947506 
L 824.292406 397.052687 
L 825.010331 392.171216 
L 825.465113 387.317883 
L 825.632824 382.504524 
L 825.482112 377.74015 
L 824.918814 372.769653 
L 823.782311 367.791298 
L 822.115101 363.135186 
L 820.030684 358.791539 
L 817.622178 354.72586 
L 814.962673 350.894989 
L 812.110508 347.25676 
L 809.114885 343.774231 
L 802.868331 337.159879 
L 787.717932 321.872043 
L 785.104862 318.973082 
L 782.725692 316.133744 
L 780.614541 313.365357 
L 778.79763 310.681463 
L 777.134438 307.764141 
L 775.52201 304.484062 
L 772.54936 297.685819 
L 769.875574 290.594314 
L 767.454136 283.242615 
L 765.235878 275.666715 
L 763.168651 267.903977 
L 760.229596 255.991724 
L 755.220105 235.56523 
L 753.997443 231.191448 
L 751.162297 222.443284 
L 746.4612 209.439882 
L 743.423336 201.022982 
L 740.770588 193.007937 
L 739.66671 189.220894 
L 738.748212 185.625957 
L 738.03709 182.262478 
L 737.547292 179.173607 
L 737.28068 176.403538 
L 737.222864 173.990673 
L 737.341971 171.954493 
L 737.596647 170.27663 
L 738.043142 168.732349 
L 738.876084 167.001161 
L 740.114307 165.108989 
L 741.762637 163.103423 
L 743.805682 161.031087 
L 746.215586 158.932159 
L 748.957731 156.839322 
L 751.994277 154.77857 
L 755.286144 152.770523 
L 758.794018 150.831688 
L 762.478804 148.975496 
L 766.301771 147.213097 
L 770.224542 145.553959 
L 774.208976 144.006293 
L 778.217 142.577372 
L 786.150437 140.101393 
L 793.710872 138.171963 
L 797.027703 137.461387 
L 800.098228 136.945208 
L 803.285647 136.618268 
L 806.590697 136.472492 
L 810.0106 136.498782 
L 813.540141 136.686465 
L 817.172631 137.023123 
L 824.716752 138.085445 
L 832.584413 139.556235 
L 844.883645 142.203911 
L 857.675958 144.892869 
L 866.446135 146.414173 
L 870.518799 146.974635 
L 870.518799 146.974635 
" style="fill:none;stroke:#ffffff;stroke-linecap:square;"/>
   </g>
   <g id="patch_8">
    <path d="M 591.545455 640.8 
L 591.545455 86.4 
" style="fill:none;stroke:#000000;stroke-linecap:square;stroke-linejoin:miter;stroke-width:0.8;"/>
   </g>
   <g id="patch_9">
    <path d="M 972 640.8 
L 972 86.4 
" style="fill:none;stroke:#000000;stroke-linecap:square;stroke-linejoin:miter;stroke-width:0.8;"/>
   </g>
   <g id="patch_10">
    <path d="M 591.545455 640.8 
L 972 640.8 
" style="fill:none;stroke:#000000;stroke-linecap:square;stroke-linejoin:miter;stroke-width:0.8;"/>
   </g>
   <g id="patch_11">
    <path d="M 591.545455 86.4 
L 972 86.4 
" style="fill:none;stroke:#000000;stroke-linecap:square;stroke-linejoin:miter;stroke-width:0.8;"/>
   </g>
   <g id="text_32">
    <!-- dist to bound ~ 1.1 -->
    <g transform="translate(723.703977 80.4)scale(0.12 -0.12)">
     <use xlink:href="#DejaVuSans-64"/>
     <use x="63.476562" xlink:href="#DejaVuSans-69"/>
     <use x="91.259766" xlink:href="#DejaVuSans-73"/>
     <use x="143.359375" xlink:href="#DejaVuSans-74"/>
     <use x="182.568359" xlink:href="#DejaVuSans-20"/>
     <use x="214.355469" xlink:href="#DejaVuSans-74"/>
     <use x="253.564453" xlink:href="#DejaVuSans-6f"/>
     <use x="314.746094" xlink:href="#DejaVuSans-20"/>
     <use x="346.533203" xlink:href="#DejaVuSans-62"/>
     <use x="410.009766" xlink:href="#DejaVuSans-6f"/>
     <use x="471.191406" xlink:href="#DejaVuSans-75"/>
     <use x="534.570312" xlink:href="#DejaVuSans-6e"/>
     <use x="597.949219" xlink:href="#DejaVuSans-64"/>
     <use x="661.425781" xlink:href="#DejaVuSans-20"/>
     <use x="693.212891" xlink:href="#DejaVuSans-7e"/>
     <use x="777.001953" xlink:href="#DejaVuSans-20"/>
     <use x="808.789062" xlink:href="#DejaVuSans-31"/>
     <use x="872.412109" xlink:href="#DejaVuSans-2e"/>
     <use x="904.199219" xlink:href="#DejaVuSans-31"/>
    </g>
   </g>
  </g>
  <g id="text_33">
   <!-- members distance = 0 ; oob_ff = 1.1729168617152992 -->
   <g transform="translate(371.679375 23.518125)scale(0.12 -0.12)">
    <defs>
     <path d="M 3328 2828 
Q 3544 3216 3844 3400 
Q 4144 3584 4550 3584 
Q 5097 3584 5394 3201 
Q 5691 2819 5691 2113 
L 5691 0 
L 5113 0 
L 5113 2094 
Q 5113 2597 4934 2840 
Q 4756 3084 4391 3084 
Q 3944 3084 3684 2787 
Q 3425 2491 3425 1978 
L 3425 0 
L 2847 0 
L 2847 2094 
Q 2847 2600 2669 2842 
Q 2491 3084 2119 3084 
Q 1678 3084 1418 2786 
Q 1159 2488 1159 1978 
L 1159 0 
L 581 0 
L 581 3500 
L 1159 3500 
L 1159 2956 
Q 1356 3278 1631 3431 
Q 1906 3584 2284 3584 
Q 2666 3584 2933 3390 
Q 3200 3197 3328 2828 
z
" id="DejaVuSans-6d" transform="scale(0.015625)"/>
     <path d="M 3597 1894 
L 3597 1613 
L 953 1613 
Q 991 1019 1311 708 
Q 1631 397 2203 397 
Q 2534 397 2845 478 
Q 3156 559 3463 722 
L 3463 178 
Q 3153 47 2828 -22 
Q 2503 -91 2169 -91 
Q 1331 -91 842 396 
Q 353 884 353 1716 
Q 353 2575 817 3079 
Q 1281 3584 2069 3584 
Q 2775 3584 3186 3129 
Q 3597 2675 3597 1894 
z
M 3022 2063 
Q 3016 2534 2758 2815 
Q 2500 3097 2075 3097 
Q 1594 3097 1305 2825 
Q 1016 2553 972 2059 
L 3022 2063 
z
" id="DejaVuSans-65" transform="scale(0.015625)"/>
     <path d="M 2631 2963 
Q 2534 3019 2420 3045 
Q 2306 3072 2169 3072 
Q 1681 3072 1420 2755 
Q 1159 2438 1159 1844 
L 1159 0 
L 581 0 
L 581 3500 
L 1159 3500 
L 1159 2956 
Q 1341 3275 1631 3429 
Q 1922 3584 2338 3584 
Q 2397 3584 2469 3576 
Q 2541 3569 2628 3553 
L 2631 2963 
z
" id="DejaVuSans-72" transform="scale(0.015625)"/>
     <path d="M 2194 1759 
Q 1497 1759 1228 1600 
Q 959 1441 959 1056 
Q 959 750 1161 570 
Q 1363 391 1709 391 
Q 2188 391 2477 730 
Q 2766 1069 2766 1631 
L 2766 1759 
L 2194 1759 
z
M 3341 1997 
L 3341 0 
L 2766 0 
L 2766 531 
Q 2569 213 2275 61 
Q 1981 -91 1556 -91 
Q 1019 -91 701 211 
Q 384 513 384 1019 
Q 384 1609 779 1909 
Q 1175 2209 1959 2209 
L 2766 2209 
L 2766 2266 
Q 2766 2663 2505 2880 
Q 2244 3097 1772 3097 
Q 1472 3097 1187 3025 
Q 903 2953 641 2809 
L 641 3341 
Q 956 3463 1253 3523 
Q 1550 3584 1831 3584 
Q 2591 3584 2966 3190 
Q 3341 2797 3341 1997 
z
" id="DejaVuSans-61" transform="scale(0.015625)"/>
     <path d="M 3122 3366 
L 3122 2828 
Q 2878 2963 2633 3030 
Q 2388 3097 2138 3097 
Q 1578 3097 1268 2742 
Q 959 2388 959 1747 
Q 959 1106 1268 751 
Q 1578 397 2138 397 
Q 2388 397 2633 464 
Q 2878 531 3122 666 
L 3122 134 
Q 2881 22 2623 -34 
Q 2366 -91 2075 -91 
Q 1284 -91 818 406 
Q 353 903 353 1747 
Q 353 2603 823 3093 
Q 1294 3584 2113 3584 
Q 2378 3584 2631 3529 
Q 2884 3475 3122 3366 
z
" id="DejaVuSans-63" transform="scale(0.015625)"/>
     <path d="M 678 2906 
L 4684 2906 
L 4684 2381 
L 678 2381 
L 678 2906 
z
M 678 1631 
L 4684 1631 
L 4684 1100 
L 678 1100 
L 678 1631 
z
" id="DejaVuSans-3d" transform="scale(0.015625)"/>
     <path d="M 750 3309 
L 1409 3309 
L 1409 2516 
L 750 2516 
L 750 3309 
z
M 750 794 
L 1409 794 
L 1409 256 
L 897 -744 
L 494 -744 
L 750 256 
L 750 794 
z
" id="DejaVuSans-3b" transform="scale(0.015625)"/>
     <path d="M 3263 -1063 
L 3263 -1509 
L -63 -1509 
L -63 -1063 
L 3263 -1063 
z
" id="DejaVuSans-5f" transform="scale(0.015625)"/>
     <path d="M 2375 4863 
L 2375 4384 
L 1825 4384 
Q 1516 4384 1395 4259 
Q 1275 4134 1275 3809 
L 1275 3500 
L 2222 3500 
L 2222 3053 
L 1275 3053 
L 1275 0 
L 697 0 
L 697 3053 
L 147 3053 
L 147 3500 
L 697 3500 
L 697 3744 
Q 697 4328 969 4595 
Q 1241 4863 1831 4863 
L 2375 4863 
z
" id="DejaVuSans-66" transform="scale(0.015625)"/>
     <path d="M 703 97 
L 703 672 
Q 941 559 1184 500 
Q 1428 441 1663 441 
Q 2288 441 2617 861 
Q 2947 1281 2994 2138 
Q 2813 1869 2534 1725 
Q 2256 1581 1919 1581 
Q 1219 1581 811 2004 
Q 403 2428 403 3163 
Q 403 3881 828 4315 
Q 1253 4750 1959 4750 
Q 2769 4750 3195 4129 
Q 3622 3509 3622 2328 
Q 3622 1225 3098 567 
Q 2575 -91 1691 -91 
Q 1453 -91 1209 -44 
Q 966 3 703 97 
z
M 1959 2075 
Q 2384 2075 2632 2365 
Q 2881 2656 2881 3163 
Q 2881 3666 2632 3958 
Q 2384 4250 1959 4250 
Q 1534 4250 1286 3958 
Q 1038 3666 1038 3163 
Q 1038 2656 1286 2365 
Q 1534 2075 1959 2075 
z
" id="DejaVuSans-39" transform="scale(0.015625)"/>
     <path d="M 691 4666 
L 3169 4666 
L 3169 4134 
L 1269 4134 
L 1269 2991 
Q 1406 3038 1543 3061 
Q 1681 3084 1819 3084 
Q 2600 3084 3056 2656 
Q 3513 2228 3513 1497 
Q 3513 744 3044 326 
Q 2575 -91 1722 -91 
Q 1428 -91 1123 -41 
Q 819 9 494 109 
L 494 744 
Q 775 591 1075 516 
Q 1375 441 1709 441 
Q 2250 441 2565 725 
Q 2881 1009 2881 1497 
Q 2881 1984 2565 2268 
Q 2250 2553 1709 2553 
Q 1456 2553 1204 2497 
Q 953 2441 691 2322 
L 691 4666 
z
" id="DejaVuSans-35" transform="scale(0.015625)"/>
    </defs>
    <use xlink:href="#DejaVuSans-6d"/>
    <use x="97.412109" xlink:href="#DejaVuSans-65"/>
    <use x="158.935547" xlink:href="#DejaVuSans-6d"/>
    <use x="256.347656" xlink:href="#DejaVuSans-62"/>
    <use x="319.824219" xlink:href="#DejaVuSans-65"/>
    <use x="381.347656" xlink:href="#DejaVuSans-72"/>
    <use x="422.460938" xlink:href="#DejaVuSans-73"/>
    <use x="474.560547" xlink:href="#DejaVuSans-20"/>
    <use x="506.347656" xlink:href="#DejaVuSans-64"/>
    <use x="569.824219" xlink:href="#DejaVuSans-69"/>
    <use x="597.607422" xlink:href="#DejaVuSans-73"/>
    <use x="649.707031" xlink:href="#DejaVuSans-74"/>
    <use x="688.916016" xlink:href="#DejaVuSans-61"/>
    <use x="750.195312" xlink:href="#DejaVuSans-6e"/>
    <use x="813.574219" xlink:href="#DejaVuSans-63"/>
    <use x="868.554688" xlink:href="#DejaVuSans-65"/>
    <use x="930.078125" xlink:href="#DejaVuSans-20"/>
    <use x="961.865234" xlink:href="#DejaVuSans-3d"/>
    <use x="1045.654297" xlink:href="#DejaVuSans-20"/>
    <use x="1077.441406" xlink:href="#DejaVuSans-30"/>
    <use x="1141.064453" xlink:href="#DejaVuSans-20"/>
    <use x="1172.851562" xlink:href="#DejaVuSans-3b"/>
    <use x="1206.542969" xlink:href="#DejaVuSans-20"/>
    <use x="1238.330078" xlink:href="#DejaVuSans-6f"/>
    <use x="1299.511719" xlink:href="#DejaVuSans-6f"/>
    <use x="1360.693359" xlink:href="#DejaVuSans-62"/>
    <use x="1424.169922" xlink:href="#DejaVuSans-5f"/>
    <use x="1474.169922" xlink:href="#DejaVuSans-66"/>
    <use x="1509.375" xlink:href="#DejaVuSans-66"/>
    <use x="1544.580078" xlink:href="#DejaVuSans-20"/>
    <use x="1576.367188" xlink:href="#DejaVuSans-3d"/>
    <use x="1660.15625" xlink:href="#DejaVuSans-20"/>
    <use x="1691.943359" xlink:href="#DejaVuSans-31"/>
    <use x="1755.566406" xlink:href="#DejaVuSans-2e"/>
    <use x="1787.353516" xlink:href="#DejaVuSans-31"/>
    <use x="1850.976562" xlink:href="#DejaVuSans-37"/>
    <use x="1914.599609" xlink:href="#DejaVuSans-32"/>
    <use x="1978.222656" xlink:href="#DejaVuSans-39"/>
    <use x="2041.845703" xlink:href="#DejaVuSans-31"/>
    <use x="2105.46875" xlink:href="#DejaVuSans-36"/>
    <use x="2169.091797" xlink:href="#DejaVuSans-38"/>
    <use x="2232.714844" xlink:href="#DejaVuSans-36"/>
    <use x="2296.337891" xlink:href="#DejaVuSans-31"/>
    <use x="2359.960938" xlink:href="#DejaVuSans-37"/>
    <use x="2423.583984" xlink:href="#DejaVuSans-31"/>
    <use x="2487.207031" xlink:href="#DejaVuSans-35"/>
    <use x="2550.830078" xlink:href="#DejaVuSans-32"/>
    <use x="2614.453125" xlink:href="#DejaVuSans-39"/>
    <use x="2678.076172" xlink:href="#DejaVuSans-39"/>
    <use x="2741.699219" xlink:href="#DejaVuSans-32"/>
   </g>
  </g>
 </g>
 <defs>
  <clipPath id="pc699e8cbae">
   <rect height="554.4" width="380.454545" x="135" y="86.4"/>
  </clipPath>
  <clipPath id="p0b1723b284">
   <rect height="554.4" width="380.454545" x="591.545455" y="86.4"/>
  </clipPath>
 </defs>
</svg>
