<?xml version="1.0" encoding="utf-8" standalone="no"?>
<!DOCTYPE svg PUBLIC "-//W3C//DTD SVG 1.1//EN"
  "http://www.w3.org/Graphics/SVG/1.1/DTD/svg11.dtd">
<!-- Created with matplotlib (https://matplotlib.org/) -->
<svg height="345.6pt" version="1.1" viewBox="0 0 460.8 345.6" width="460.8pt" xmlns="http://www.w3.org/2000/svg" xmlns:xlink="http://www.w3.org/1999/xlink">
 <metadata>
  <rdf:RDF xmlns:cc="http://creativecommons.org/ns#" xmlns:dc="http://purl.org/dc/elements/1.1/" xmlns:rdf="http://www.w3.org/1999/02/22-rdf-syntax-ns#">
   <cc:Work>
    <dc:type rdf:resource="http://purl.org/dc/dcmitype/StillImage"/>
    <dc:date>2021-06-25T23:52:27.726531</dc:date>
    <dc:format>image/svg+xml</dc:format>
    <dc:creator>
     <cc:Agent>
      <dc:title>Matplotlib v3.3.3, https://matplotlib.org/</dc:title>
     </cc:Agent>
    </dc:creator>
   </cc:Work>
  </rdf:RDF>
 </metadata>
 <defs>
  <style type="text/css">*{stroke-linecap:butt;stroke-linejoin:round;}</style>
 </defs>
 <g id="figure_1">
  <g id="patch_1">
   <path d="M 0 345.6 
L 460.8 345.6 
L 460.8 0 
L 0 0 
z
" style="fill:#ffffff;"/>
  </g>
  <g id="axes_1">
   <g id="patch_2">
    <path d="M 57.6 307.584 
L 414.72 307.584 
L 414.72 41.472 
L 57.6 41.472 
z
" style="fill:#7d9051;"/>
   </g>
   <g id="matplotlib.axis_1">
    <g id="xtick_1">
     <g id="line2d_1">
      <defs>
       <path d="M 0 0 
L 0 3.5 
" id="m6586f9c58b" style="stroke:#000000;stroke-width:0.8;"/>
      </defs>
      <g>
       <use style="stroke:#000000;stroke-width:0.8;" x="103.275214" xlink:href="#m6586f9c58b" y="307.584"/>
      </g>
     </g>
     <g id="text_1">
      <!-- −100 -->
      <g transform="translate(89.541621 322.182437)scale(0.1 -0.1)">
       <defs>
        <path d="M 10.59375 35.5 
L 73.1875 35.5 
L 73.1875 27.203125 
L 10.59375 27.203125 
z
" id="DejaVuSans-8722"/>
        <path d="M 12.40625 8.296875 
L 28.515625 8.296875 
L 28.515625 63.921875 
L 10.984375 60.40625 
L 10.984375 69.390625 
L 28.421875 72.90625 
L 38.28125 72.90625 
L 38.28125 8.296875 
L 54.390625 8.296875 
L 54.390625 0 
L 12.40625 0 
z
" id="DejaVuSans-49"/>
        <path d="M 31.78125 66.40625 
Q 24.171875 66.40625 20.328125 58.90625 
Q 16.5 51.421875 16.5 36.375 
Q 16.5 21.390625 20.328125 13.890625 
Q 24.171875 6.390625 31.78125 6.390625 
Q 39.453125 6.390625 43.28125 13.890625 
Q 47.125 21.390625 47.125 36.375 
Q 47.125 51.421875 43.28125 58.90625 
Q 39.453125 66.40625 31.78125 66.40625 
z
M 31.78125 74.21875 
Q 44.046875 74.21875 50.515625 64.515625 
Q 56.984375 54.828125 56.984375 36.375 
Q 56.984375 17.96875 50.515625 8.265625 
Q 44.046875 -1.421875 31.78125 -1.421875 
Q 19.53125 -1.421875 13.0625 8.265625 
Q 6.59375 17.96875 6.59375 36.375 
Q 6.59375 54.828125 13.0625 64.515625 
Q 19.53125 74.21875 31.78125 74.21875 
z
" id="DejaVuSans-48"/>
       </defs>
       <use xlink:href="#DejaVuSans-8722"/>
       <use x="83.789062" xlink:href="#DejaVuSans-49"/>
       <use x="147.412109" xlink:href="#DejaVuSans-48"/>
       <use x="211.035156" xlink:href="#DejaVuSans-48"/>
      </g>
     </g>
    </g>
    <g id="xtick_2">
     <g id="line2d_2">
      <g>
       <use style="stroke:#000000;stroke-width:0.8;" x="159.195803" xlink:href="#m6586f9c58b" y="307.584"/>
      </g>
     </g>
     <g id="text_2">
      <!-- −80 -->
      <g transform="translate(148.643459 322.182437)scale(0.1 -0.1)">
       <defs>
        <path d="M 31.78125 34.625 
Q 24.75 34.625 20.71875 30.859375 
Q 16.703125 27.09375 16.703125 20.515625 
Q 16.703125 13.921875 20.71875 10.15625 
Q 24.75 6.390625 31.78125 6.390625 
Q 38.8125 6.390625 42.859375 10.171875 
Q 46.921875 13.96875 46.921875 20.515625 
Q 46.921875 27.09375 42.890625 30.859375 
Q 38.875 34.625 31.78125 34.625 
z
M 21.921875 38.8125 
Q 15.578125 40.375 12.03125 44.71875 
Q 8.5 49.078125 8.5 55.328125 
Q 8.5 64.0625 14.71875 69.140625 
Q 20.953125 74.21875 31.78125 74.21875 
Q 42.671875 74.21875 48.875 69.140625 
Q 55.078125 64.0625 55.078125 55.328125 
Q 55.078125 49.078125 51.53125 44.71875 
Q 48 40.375 41.703125 38.8125 
Q 48.828125 37.15625 52.796875 32.3125 
Q 56.78125 27.484375 56.78125 20.515625 
Q 56.78125 9.90625 50.3125 4.234375 
Q 43.84375 -1.421875 31.78125 -1.421875 
Q 19.734375 -1.421875 13.25 4.234375 
Q 6.78125 9.90625 6.78125 20.515625 
Q 6.78125 27.484375 10.78125 32.3125 
Q 14.796875 37.15625 21.921875 38.8125 
z
M 18.3125 54.390625 
Q 18.3125 48.734375 21.84375 45.5625 
Q 25.390625 42.390625 31.78125 42.390625 
Q 38.140625 42.390625 41.71875 45.5625 
Q 45.3125 48.734375 45.3125 54.390625 
Q 45.3125 60.0625 41.71875 63.234375 
Q 38.140625 66.40625 31.78125 66.40625 
Q 25.390625 66.40625 21.84375 63.234375 
Q 18.3125 60.0625 18.3125 54.390625 
z
" id="DejaVuSans-56"/>
       </defs>
       <use xlink:href="#DejaVuSans-8722"/>
       <use x="83.789062" xlink:href="#DejaVuSans-56"/>
       <use x="147.412109" xlink:href="#DejaVuSans-48"/>
      </g>
     </g>
    </g>
    <g id="xtick_3">
     <g id="line2d_3">
      <g>
       <use style="stroke:#000000;stroke-width:0.8;" x="215.116391" xlink:href="#m6586f9c58b" y="307.584"/>
      </g>
     </g>
     <g id="text_3">
      <!-- −60 -->
      <g transform="translate(204.564048 322.182437)scale(0.1 -0.1)">
       <defs>
        <path d="M 33.015625 40.375 
Q 26.375 40.375 22.484375 35.828125 
Q 18.609375 31.296875 18.609375 23.390625 
Q 18.609375 15.53125 22.484375 10.953125 
Q 26.375 6.390625 33.015625 6.390625 
Q 39.65625 6.390625 43.53125 10.953125 
Q 47.40625 15.53125 47.40625 23.390625 
Q 47.40625 31.296875 43.53125 35.828125 
Q 39.65625 40.375 33.015625 40.375 
z
M 52.59375 71.296875 
L 52.59375 62.3125 
Q 48.875 64.0625 45.09375 64.984375 
Q 41.3125 65.921875 37.59375 65.921875 
Q 27.828125 65.921875 22.671875 59.328125 
Q 17.53125 52.734375 16.796875 39.40625 
Q 19.671875 43.65625 24.015625 45.921875 
Q 28.375 48.1875 33.59375 48.1875 
Q 44.578125 48.1875 50.953125 41.515625 
Q 57.328125 34.859375 57.328125 23.390625 
Q 57.328125 12.15625 50.6875 5.359375 
Q 44.046875 -1.421875 33.015625 -1.421875 
Q 20.359375 -1.421875 13.671875 8.265625 
Q 6.984375 17.96875 6.984375 36.375 
Q 6.984375 53.65625 15.1875 63.9375 
Q 23.390625 74.21875 37.203125 74.21875 
Q 40.921875 74.21875 44.703125 73.484375 
Q 48.484375 72.75 52.59375 71.296875 
z
" id="DejaVuSans-54"/>
       </defs>
       <use xlink:href="#DejaVuSans-8722"/>
       <use x="83.789062" xlink:href="#DejaVuSans-54"/>
       <use x="147.412109" xlink:href="#DejaVuSans-48"/>
      </g>
     </g>
    </g>
    <g id="xtick_4">
     <g id="line2d_4">
      <g>
       <use style="stroke:#000000;stroke-width:0.8;" x="271.03698" xlink:href="#m6586f9c58b" y="307.584"/>
      </g>
     </g>
     <g id="text_4">
      <!-- −40 -->
      <g transform="translate(260.484636 322.182437)scale(0.1 -0.1)">
       <defs>
        <path d="M 37.796875 64.3125 
L 12.890625 25.390625 
L 37.796875 25.390625 
z
M 35.203125 72.90625 
L 47.609375 72.90625 
L 47.609375 25.390625 
L 58.015625 25.390625 
L 58.015625 17.1875 
L 47.609375 17.1875 
L 47.609375 0 
L 37.796875 0 
L 37.796875 17.1875 
L 4.890625 17.1875 
L 4.890625 26.703125 
z
" id="DejaVuSans-52"/>
       </defs>
       <use xlink:href="#DejaVuSans-8722"/>
       <use x="83.789062" xlink:href="#DejaVuSans-52"/>
       <use x="147.412109" xlink:href="#DejaVuSans-48"/>
      </g>
     </g>
    </g>
    <g id="xtick_5">
     <g id="line2d_5">
      <g>
       <use style="stroke:#000000;stroke-width:0.8;" x="326.957569" xlink:href="#m6586f9c58b" y="307.584"/>
      </g>
     </g>
     <g id="text_5">
      <!-- −20 -->
      <g transform="translate(316.405225 322.182437)scale(0.1 -0.1)">
       <defs>
        <path d="M 19.1875 8.296875 
L 53.609375 8.296875 
L 53.609375 0 
L 7.328125 0 
L 7.328125 8.296875 
Q 12.9375 14.109375 22.625 23.890625 
Q 32.328125 33.6875 34.8125 36.53125 
Q 39.546875 41.84375 41.421875 45.53125 
Q 43.3125 49.21875 43.3125 52.78125 
Q 43.3125 58.59375 39.234375 62.25 
Q 35.15625 65.921875 28.609375 65.921875 
Q 23.96875 65.921875 18.8125 64.3125 
Q 13.671875 62.703125 7.8125 59.421875 
L 7.8125 69.390625 
Q 13.765625 71.78125 18.9375 73 
Q 24.125 74.21875 28.421875 74.21875 
Q 39.75 74.21875 46.484375 68.546875 
Q 53.21875 62.890625 53.21875 53.421875 
Q 53.21875 48.921875 51.53125 44.890625 
Q 49.859375 40.875 45.40625 35.40625 
Q 44.1875 33.984375 37.640625 27.21875 
Q 31.109375 20.453125 19.1875 8.296875 
z
" id="DejaVuSans-50"/>
       </defs>
       <use xlink:href="#DejaVuSans-8722"/>
       <use x="83.789062" xlink:href="#DejaVuSans-50"/>
       <use x="147.412109" xlink:href="#DejaVuSans-48"/>
      </g>
     </g>
    </g>
    <g id="xtick_6">
     <g id="line2d_6">
      <g>
       <use style="stroke:#000000;stroke-width:0.8;" x="382.878157" xlink:href="#m6586f9c58b" y="307.584"/>
      </g>
     </g>
     <g id="text_6">
      <!-- 0 -->
      <g transform="translate(379.696907 322.182437)scale(0.1 -0.1)">
       <use xlink:href="#DejaVuSans-48"/>
      </g>
     </g>
    </g>
   </g>
   <g id="matplotlib.axis_2">
    <g id="ytick_1">
     <g id="line2d_7">
      <defs>
       <path d="M 0 0 
L -3.5 0 
" id="m563f69588a" style="stroke:#000000;stroke-width:0.8;"/>
      </defs>
      <g>
       <use style="stroke:#000000;stroke-width:0.8;" x="57.6" xlink:href="#m563f69588a" y="295.380398"/>
      </g>
     </g>
     <g id="text_7">
      <!-- 0 -->
      <g transform="translate(44.2375 299.179617)scale(0.1 -0.1)">
       <use xlink:href="#DejaVuSans-48"/>
      </g>
     </g>
    </g>
    <g id="ytick_2">
     <g id="line2d_8">
      <g>
       <use style="stroke:#000000;stroke-width:0.8;" x="57.6" xlink:href="#m563f69588a" y="239.45981"/>
      </g>
     </g>
     <g id="text_8">
      <!-- 20 -->
      <g transform="translate(37.875 243.259028)scale(0.1 -0.1)">
       <use xlink:href="#DejaVuSans-50"/>
       <use x="63.623047" xlink:href="#DejaVuSans-48"/>
      </g>
     </g>
    </g>
    <g id="ytick_3">
     <g id="line2d_9">
      <g>
       <use style="stroke:#000000;stroke-width:0.8;" x="57.6" xlink:href="#m563f69588a" y="183.539221"/>
      </g>
     </g>
     <g id="text_9">
      <!-- 40 -->
      <g transform="translate(37.875 187.33844)scale(0.1 -0.1)">
       <use xlink:href="#DejaVuSans-52"/>
       <use x="63.623047" xlink:href="#DejaVuSans-48"/>
      </g>
     </g>
    </g>
    <g id="ytick_4">
     <g id="line2d_10">
      <g>
       <use style="stroke:#000000;stroke-width:0.8;" x="57.6" xlink:href="#m563f69588a" y="127.618632"/>
      </g>
     </g>
     <g id="text_10">
      <!-- 60 -->
      <g transform="translate(37.875 131.417851)scale(0.1 -0.1)">
       <use xlink:href="#DejaVuSans-54"/>
       <use x="63.623047" xlink:href="#DejaVuSans-48"/>
      </g>
     </g>
    </g>
    <g id="ytick_5">
     <g id="line2d_11">
      <g>
       <use style="stroke:#000000;stroke-width:0.8;" x="57.6" xlink:href="#m563f69588a" y="71.698044"/>
      </g>
     </g>
     <g id="text_11">
      <!-- 80 -->
      <g transform="translate(37.875 75.497263)scale(0.1 -0.1)">
       <use xlink:href="#DejaVuSans-56"/>
       <use x="63.623047" xlink:href="#DejaVuSans-48"/>
      </g>
     </g>
    </g>
   </g>
   <g id="line2d_12">
    <path clip-path="url(#p892d1c451a)" d="M 382.878157 295.380398 
L 383.173226 273.309057 
L 384.098093 225.490309 
L 384.441082 218.063738 
L 385.112244 210.530537 
L 387.580121 187.783293 
L 388.049331 180.315711 
L 388.132471 176.631133 
L 388.089391 172.987567 
L 387.901157 169.391164 
L 387.548837 165.848077 
L 387.013498 162.364455 
L 386.276207 158.946452 
L 385.318029 155.600219 
L 384.16274 152.261407 
L 382.85127 148.872675 
L 381.390418 145.450688 
L 379.786987 142.012112 
L 378.047777 138.573612 
L 376.179589 135.151852 
L 374.189226 131.763498 
L 372.083487 128.425215 
L 369.869174 125.153668 
L 367.553088 121.965523 
L 365.14203 118.877443 
L 362.642802 115.906095 
L 360.062204 113.068144 
L 357.407037 110.380254 
L 354.684103 107.859091 
L 351.900203 105.52132 
L 349.062138 103.383606 
L 346.176709 101.462614 
L 343.250716 99.775009 
L 340.228469 98.320276 
L 337.058589 97.078259 
L 333.754351 96.036172 
L 330.32903 95.181222 
L 326.7959 94.500622 
L 323.168235 93.981582 
L 319.45931 93.611311 
L 315.682399 93.37702 
L 311.850776 93.26592 
L 304.076493 93.362133 
L 296.242657 93.797633 
L 288.455462 94.470104 
L 273.445777 96.116688 
L 269.823163 96.680543 
L 266.170406 97.523621 
L 262.494515 98.605474 
L 258.802497 99.885657 
L 251.398118 102.879221 
L 229.526837 112.413326 
L 226.005067 113.658356 
L 222.537256 114.697246 
L 219.130412 115.489548 
L 215.791543 115.994815 
L 212.527659 116.172601 
L 209.345768 115.982459 
L 206.252877 115.383942 
L 203.275811 114.273981 
L 200.427126 112.620349 
L 197.692428 110.488862 
L 195.057326 107.945335 
L 192.507429 105.055581 
L 190.028343 101.885416 
L 187.605678 98.500654 
L 182.872038 91.350601 
L 178.191374 84.131938 
L 175.834928 80.661416 
L 173.44855 77.371185 
L 171.017847 74.327061 
L 168.528427 71.594859 
L 165.9659 69.240393 
L 163.315872 67.329478 
L 160.563951 65.927929 
L 157.695746 65.10156 
L 154.650076 64.751701 
L 151.396411 64.723603 
L 147.966341 64.998967 
L 144.391452 65.559496 
L 140.703331 66.38689 
L 136.933568 67.462851 
L 133.113747 68.76908 
L 129.275459 70.287278 
L 125.450289 71.999148 
L 121.669826 73.886389 
L 117.965656 75.930704 
L 114.369368 78.113793 
L 110.912549 80.417359 
L 107.626786 82.823102 
L 104.543667 85.312724 
L 101.69478 87.867926 
L 99.111711 90.470409 
L 96.826049 93.101876 
L 94.869381 95.744026 
L 93.153215 98.546505 
L 91.571288 101.64739 
L 90.128529 105.011033 
L 88.829866 108.601783 
L 87.680229 112.383992 
L 86.684547 116.32201 
L 85.847749 120.380188 
L 85.174765 124.522877 
L 84.670523 128.714428 
L 84.339953 132.919191 
L 84.187983 137.101517 
L 84.219544 141.225757 
L 84.439563 145.256261 
L 84.852971 149.157381 
L 85.464696 152.893467 
L 86.279668 156.42887 
L 87.302815 159.72794 
L 88.539067 162.755029 
L 89.993352 165.474487 
L 91.744997 167.913837 
L 93.849857 170.136737 
L 96.277656 172.161739 
L 98.998118 174.007397 
L 101.980969 175.692263 
L 105.195932 177.23489 
L 108.612732 178.653832 
L 112.201094 179.96764 
L 119.771399 182.35407 
L 131.656679 185.609039 
L 139.580199 187.779018 
L 147.221147 190.122158 
L 150.859968 191.405045 
L 154.337319 192.78688 
L 154.337319 192.78688 
" style="fill:none;stroke:#fea952;stroke-linecap:square;"/>
   </g>
   <g id="line2d_13">
    <path clip-path="url(#p892d1c451a)" d="M 371.694557 295.272797 
L 371.99084 273.112245 
L 372.919962 225.124426 
L 373.293417 217.161484 
L 373.993371 209.324236 
L 376.689415 183.463293 
L 376.949135 176.763361 
L 376.92056 173.572137 
L 376.771927 170.49784 
L 376.494485 167.546834 
L 376.080837 164.722721 
L 375.524203 162.025235 
L 374.74875 159.25738 
L 373.732482 156.298014 
L 372.565235 153.2638 
L 371.254161 150.177293 
L 369.806888 147.060094 
L 368.231428 143.93307 
L 366.536153 140.816534 
L 364.729789 137.730369 
L 362.821455 134.694127 
L 360.820712 131.727087 
L 358.737648 128.848291 
L 356.582975 126.076545 
L 354.368157 123.430372 
L 352.105553 120.927928 
L 349.808575 118.586828 
L 347.491839 116.423893 
L 345.171283 114.454748 
L 342.864176 112.693266 
L 340.588916 111.150806 
L 338.400015 109.852469 
L 336.148345 108.733588 
L 333.69468 107.744496 
L 331.045923 106.887388 
L 328.213486 106.163434 
L 325.211826 105.571991 
L 322.057221 105.110379 
L 318.766864 104.773972 
L 315.358245 104.556439 
L 308.255461 104.445889 
L 300.883306 104.704596 
L 293.368026 105.247097 
L 282.079767 106.390294 
L 272.338398 107.578161 
L 269.328093 108.252717 
L 266.15852 109.172383 
L 262.853042 110.310511 
L 255.914481 113.110886 
L 237.207081 121.403557 
L 233.254601 122.957911 
L 229.214679 124.372033 
L 225.070648 125.590657 
L 220.80384 126.547763 
L 216.399848 127.162378 
L 211.860513 127.336803 
L 207.220904 126.962871 
L 202.345749 125.86339 
L 197.660997 123.946537 
L 193.551701 121.441519 
L 189.925121 118.535814 
L 186.671217 115.345176 
L 183.6973 111.945147 
L 180.933784 108.394907 
L 178.330258 104.74974 
L 173.468713 97.405512 
L 168.938583 90.414481 
L 164.708788 84.349799 
L 162.750707 81.859584 
L 160.961474 79.830495 
L 158.240184 77.295514 
L 157.467608 76.674889 
L 156.419407 76.212611 
L 154.553495 75.935401 
L 152.291388 75.871854 
L 149.6988 76.048088 
L 146.83965 76.47237 
L 143.772905 77.141526 
L 140.552361 78.045328 
L 137.227411 79.169189 
L 133.844027 80.495739 
L 130.445645 82.005691 
L 127.073906 83.678243 
L 123.769248 85.491186 
L 120.571373 87.42076 
L 117.519612 89.441283 
L 114.653175 91.524501 
L 112.011233 93.638584 
L 109.632699 95.746627 
L 107.555389 97.804494 
L 105.813909 99.757916 
L 104.407221 101.584753 
L 103.115805 103.628954 
L 101.849788 106.056124 
L 100.645919 108.814846 
L 99.530577 111.854362 
L 98.523137 115.125494 
L 97.638221 118.580661 
L 96.887149 122.173551 
L 96.278822 125.858691 
L 95.820237 129.590997 
L 95.516695 133.32531 
L 95.371774 137.015934 
L 95.387035 140.61614 
L 95.561407 144.077663 
L 95.89012 147.350223 
L 96.363003 150.381219 
L 96.961861 153.115981 
L 97.656759 155.499428 
L 98.401514 157.480883 
L 99.077918 158.951055 
L 99.866044 160.224033 
L 101.013588 161.548055 
L 102.556691 162.906567 
L 104.49864 164.269391 
L 106.819269 165.608844 
L 109.485342 166.906025 
L 112.457952 168.151509 
L 115.69681 169.343872 
L 122.816828 171.592571 
L 134.565667 174.809859 
L 142.741435 177.050967 
L 150.939831 179.574367 
L 154.990174 181.011495 
L 158.467525 182.39333 
L 158.467525 182.39333 
" style="fill:none;stroke:#ffffff;stroke-linecap:square;"/>
   </g>
   <g id="line2d_14">
    <path clip-path="url(#p892d1c451a)" d="M 394.061757 295.488 
L 394.355611 273.505868 
L 395.276225 225.856191 
L 395.588747 218.965991 
L 396.231116 211.736838 
L 398.733431 188.61286 
L 399.230602 180.568009 
L 399.315807 176.498906 
L 399.258221 172.402998 
L 399.030387 168.284489 
L 398.60319 164.149319 
L 397.946159 160.006189 
L 397.02821 155.867669 
L 395.887309 151.943059 
L 394.592999 148.2248 
L 393.137304 144.48155 
L 391.526674 140.724083 
L 389.767085 136.964131 
L 387.864125 133.214154 
L 385.823026 129.487171 
L 383.648662 125.796627 
L 381.345519 122.156304 
L 378.917636 118.58025 
L 376.368528 115.082754 
L 373.701086 111.678342 
L 370.917447 108.381819 
L 368.018854 105.20836 
L 365.0055 102.17368 
L 361.876368 99.29429 
L 358.629123 96.587893 
L 355.2601 94.073947 
L 351.764502 91.774422 
L 348.101418 89.69755 
L 344.308593 87.906963 
L 340.422498 86.412023 
L 336.46278 85.184955 
L 332.444575 84.199011 
L 328.379974 83.429254 
L 324.27925 82.852784 
L 320.151756 82.448649 
L 316.006552 82.197601 
L 311.852795 82.081802 
L 303.558033 82.190039 
L 295.349292 82.649253 
L 287.317284 83.344051 
L 275.823336 84.587658 
L 271.725695 85.065633 
L 267.307929 85.782924 
L 263.01272 86.794524 
L 258.830509 88.038566 
L 254.751952 89.460803 
L 250.770184 91.012302 
L 243.086931 94.323178 
L 228.984035 100.601647 
L 222.795455 102.944679 
L 220.003863 103.803834 
L 217.456983 104.431332 
L 215.183238 104.827253 
L 213.194805 105.008399 
L 210.160006 104.904493 
L 208.890626 104.601424 
L 207.30255 103.79918 
L 205.459735 102.441911 
L 203.443436 100.545493 
L 201.317557 98.166015 
L 199.122903 95.375925 
L 196.881098 92.251569 
L 192.275364 85.295689 
L 187.444166 77.849396 
L 184.888449 74.094967 
L 182.188312 70.392571 
L 179.284986 66.794538 
L 176.095381 63.359222 
L 172.507357 60.168798 
L 168.391559 57.363441 
L 163.660295 55.180969 
L 158.972085 53.99051 
L 154.746656 53.568 
L 150.501434 53.575351 
L 146.233882 53.949846 
L 141.943254 54.646622 
L 137.633758 55.632254 
L 133.314774 56.880374 
L 129.000084 58.368971 
L 124.70689 60.078818 
L 120.454933 61.992605 
L 116.265745 64.094535 
L 112.162064 66.370222 
L 108.167363 68.806827 
L 104.305485 71.393435 
L 100.600397 74.121703 
L 97.076101 76.986864 
L 93.756861 79.989225 
L 90.668033 83.136325 
L 87.83819 86.445836 
L 85.331541 89.903299 
L 83.190625 93.464056 
L 81.292788 97.238657 
L 79.611138 101.20722 
L 78.129155 105.349204 
L 76.837321 109.642489 
L 75.730872 114.063359 
L 74.80835 118.586826 
L 74.070708 123.187064 
L 73.520809 127.837859 
L 73.163211 132.513072 
L 73.004193 137.1871 
L 73.052053 141.835374 
L 73.31772 146.43486 
L 73.815822 150.96454 
L 74.566389 155.405716 
L 75.597474 159.741759 
L 76.94887 163.956453 
L 78.676619 168.029175 
L 80.908787 171.997919 
L 83.623951 175.603641 
L 86.686126 178.725418 
L 89.998621 181.416911 
L 93.497596 183.745402 
L 97.142668 185.775682 
L 100.906522 187.563755 
L 104.767512 189.156154 
L 108.705377 190.591408 
L 116.72597 193.115568 
L 128.74769 196.408218 
L 136.418963 198.507069 
L 143.502463 200.669948 
L 146.729761 201.798595 
L 150.207112 203.18043 
L 150.207112 203.18043 
" style="fill:none;stroke:#ffffff;stroke-linecap:square;"/>
   </g>
   <g id="patch_3">
    <path d="M 57.6 307.584 
L 57.6 41.472 
" style="fill:none;stroke:#000000;stroke-linecap:square;stroke-linejoin:miter;stroke-width:0.8;"/>
   </g>
   <g id="patch_4">
    <path d="M 414.72 307.584 
L 414.72 41.472 
" style="fill:none;stroke:#000000;stroke-linecap:square;stroke-linejoin:miter;stroke-width:0.8;"/>
   </g>
   <g id="patch_5">
    <path d="M 57.6 307.584 
L 414.72 307.584 
" style="fill:none;stroke:#000000;stroke-linecap:square;stroke-linejoin:miter;stroke-width:0.8;"/>
   </g>
   <g id="patch_6">
    <path d="M 57.6 41.472 
L 414.72 41.472 
" style="fill:none;stroke:#000000;stroke-linecap:square;stroke-linejoin:miter;stroke-width:0.8;"/>
   </g>
  </g>
 </g>
 <defs>
  <clipPath id="p892d1c451a">
   <rect height="266.112" width="357.12" x="57.6" y="41.472"/>
  </clipPath>
 </defs>
</svg>
