<?xml version="1.0" encoding="utf-8" standalone="no"?>
<!DOCTYPE svg PUBLIC "-//W3C//DTD SVG 1.1//EN"
  "http://www.w3.org/Graphics/SVG/1.1/DTD/svg11.dtd">
<!-- Created with matplotlib (https://matplotlib.org/) -->
<svg height="345.6pt" version="1.1" viewBox="0 0 460.8 345.6" width="460.8pt" xmlns="http://www.w3.org/2000/svg" xmlns:xlink="http://www.w3.org/1999/xlink">
 <metadata>
  <rdf:RDF xmlns:cc="http://creativecommons.org/ns#" xmlns:dc="http://purl.org/dc/elements/1.1/" xmlns:rdf="http://www.w3.org/1999/02/22-rdf-syntax-ns#">
   <cc:Work>
    <dc:type rdf:resource="http://purl.org/dc/dcmitype/StillImage"/>
    <dc:date>2021-06-18T04:13:43.611574</dc:date>
    <dc:format>image/svg+xml</dc:format>
    <dc:creator>
     <cc:Agent>
      <dc:title>Matplotlib v3.3.3, https://matplotlib.org/</dc:title>
     </cc:Agent>
    </dc:creator>
   </cc:Work>
  </rdf:RDF>
 </metadata>
 <defs>
  <style type="text/css">*{stroke-linecap:butt;stroke-linejoin:round;}</style>
 </defs>
 <g id="figure_1">
  <g id="patch_1">
   <path d="M 0 345.6 
L 460.8 345.6 
L 460.8 0 
L 0 0 
z
" style="fill:#ffffff;"/>
  </g>
  <g id="axes_1">
   <g id="patch_2">
    <path d="M 57.6 307.584 
L 414.72 307.584 
L 414.72 41.472 
L 57.6 41.472 
z
" style="fill:#7d9051;"/>
   </g>
   <g id="matplotlib.axis_1">
    <g id="xtick_1">
     <g id="line2d_1">
      <defs>
       <path d="M 0 0 
L 0 3.5 
" id="m9547a2f9d0" style="stroke:#000000;stroke-width:0.8;"/>
      </defs>
      <g>
       <use style="stroke:#000000;stroke-width:0.8;" x="59.29567" xlink:href="#m9547a2f9d0" y="307.584"/>
      </g>
     </g>
     <g id="text_1">
      <!-- −120 -->
      <g transform="translate(45.562076 322.182437)scale(0.1 -0.1)">
       <defs>
        <path d="M 10.59375 35.5 
L 73.1875 35.5 
L 73.1875 27.203125 
L 10.59375 27.203125 
z
" id="DejaVuSans-8722"/>
        <path d="M 12.40625 8.296875 
L 28.515625 8.296875 
L 28.515625 63.921875 
L 10.984375 60.40625 
L 10.984375 69.390625 
L 28.421875 72.90625 
L 38.28125 72.90625 
L 38.28125 8.296875 
L 54.390625 8.296875 
L 54.390625 0 
L 12.40625 0 
z
" id="DejaVuSans-49"/>
        <path d="M 19.1875 8.296875 
L 53.609375 8.296875 
L 53.609375 0 
L 7.328125 0 
L 7.328125 8.296875 
Q 12.9375 14.109375 22.625 23.890625 
Q 32.328125 33.6875 34.8125 36.53125 
Q 39.546875 41.84375 41.421875 45.53125 
Q 43.3125 49.21875 43.3125 52.78125 
Q 43.3125 58.59375 39.234375 62.25 
Q 35.15625 65.921875 28.609375 65.921875 
Q 23.96875 65.921875 18.8125 64.3125 
Q 13.671875 62.703125 7.8125 59.421875 
L 7.8125 69.390625 
Q 13.765625 71.78125 18.9375 73 
Q 24.125 74.21875 28.421875 74.21875 
Q 39.75 74.21875 46.484375 68.546875 
Q 53.21875 62.890625 53.21875 53.421875 
Q 53.21875 48.921875 51.53125 44.890625 
Q 49.859375 40.875 45.40625 35.40625 
Q 44.1875 33.984375 37.640625 27.21875 
Q 31.109375 20.453125 19.1875 8.296875 
z
" id="DejaVuSans-50"/>
        <path d="M 31.78125 66.40625 
Q 24.171875 66.40625 20.328125 58.90625 
Q 16.5 51.421875 16.5 36.375 
Q 16.5 21.390625 20.328125 13.890625 
Q 24.171875 6.390625 31.78125 6.390625 
Q 39.453125 6.390625 43.28125 13.890625 
Q 47.125 21.390625 47.125 36.375 
Q 47.125 51.421875 43.28125 58.90625 
Q 39.453125 66.40625 31.78125 66.40625 
z
M 31.78125 74.21875 
Q 44.046875 74.21875 50.515625 64.515625 
Q 56.984375 54.828125 56.984375 36.375 
Q 56.984375 17.96875 50.515625 8.265625 
Q 44.046875 -1.421875 31.78125 -1.421875 
Q 19.53125 -1.421875 13.0625 8.265625 
Q 6.59375 17.96875 6.59375 36.375 
Q 6.59375 54.828125 13.0625 64.515625 
Q 19.53125 74.21875 31.78125 74.21875 
z
" id="DejaVuSans-48"/>
       </defs>
       <use xlink:href="#DejaVuSans-8722"/>
       <use x="83.789062" xlink:href="#DejaVuSans-49"/>
       <use x="147.412109" xlink:href="#DejaVuSans-50"/>
       <use x="211.035156" xlink:href="#DejaVuSans-48"/>
      </g>
     </g>
    </g>
    <g id="xtick_2">
     <g id="line2d_2">
      <g>
       <use style="stroke:#000000;stroke-width:0.8;" x="108.359764" xlink:href="#m9547a2f9d0" y="307.584"/>
      </g>
     </g>
     <g id="text_2">
      <!-- −100 -->
      <g transform="translate(94.62617 322.182437)scale(0.1 -0.1)">
       <use xlink:href="#DejaVuSans-8722"/>
       <use x="83.789062" xlink:href="#DejaVuSans-49"/>
       <use x="147.412109" xlink:href="#DejaVuSans-48"/>
       <use x="211.035156" xlink:href="#DejaVuSans-48"/>
      </g>
     </g>
    </g>
    <g id="xtick_3">
     <g id="line2d_3">
      <g>
       <use style="stroke:#000000;stroke-width:0.8;" x="157.423858" xlink:href="#m9547a2f9d0" y="307.584"/>
      </g>
     </g>
     <g id="text_3">
      <!-- −80 -->
      <g transform="translate(146.871514 322.182437)scale(0.1 -0.1)">
       <defs>
        <path d="M 31.78125 34.625 
Q 24.75 34.625 20.71875 30.859375 
Q 16.703125 27.09375 16.703125 20.515625 
Q 16.703125 13.921875 20.71875 10.15625 
Q 24.75 6.390625 31.78125 6.390625 
Q 38.8125 6.390625 42.859375 10.171875 
Q 46.921875 13.96875 46.921875 20.515625 
Q 46.921875 27.09375 42.890625 30.859375 
Q 38.875 34.625 31.78125 34.625 
z
M 21.921875 38.8125 
Q 15.578125 40.375 12.03125 44.71875 
Q 8.5 49.078125 8.5 55.328125 
Q 8.5 64.0625 14.71875 69.140625 
Q 20.953125 74.21875 31.78125 74.21875 
Q 42.671875 74.21875 48.875 69.140625 
Q 55.078125 64.0625 55.078125 55.328125 
Q 55.078125 49.078125 51.53125 44.71875 
Q 48 40.375 41.703125 38.8125 
Q 48.828125 37.15625 52.796875 32.3125 
Q 56.78125 27.484375 56.78125 20.515625 
Q 56.78125 9.90625 50.3125 4.234375 
Q 43.84375 -1.421875 31.78125 -1.421875 
Q 19.734375 -1.421875 13.25 4.234375 
Q 6.78125 9.90625 6.78125 20.515625 
Q 6.78125 27.484375 10.78125 32.3125 
Q 14.796875 37.15625 21.921875 38.8125 
z
M 18.3125 54.390625 
Q 18.3125 48.734375 21.84375 45.5625 
Q 25.390625 42.390625 31.78125 42.390625 
Q 38.140625 42.390625 41.71875 45.5625 
Q 45.3125 48.734375 45.3125 54.390625 
Q 45.3125 60.0625 41.71875 63.234375 
Q 38.140625 66.40625 31.78125 66.40625 
Q 25.390625 66.40625 21.84375 63.234375 
Q 18.3125 60.0625 18.3125 54.390625 
z
" id="DejaVuSans-56"/>
       </defs>
       <use xlink:href="#DejaVuSans-8722"/>
       <use x="83.789062" xlink:href="#DejaVuSans-56"/>
       <use x="147.412109" xlink:href="#DejaVuSans-48"/>
      </g>
     </g>
    </g>
    <g id="xtick_4">
     <g id="line2d_4">
      <g>
       <use style="stroke:#000000;stroke-width:0.8;" x="206.487952" xlink:href="#m9547a2f9d0" y="307.584"/>
      </g>
     </g>
     <g id="text_4">
      <!-- −60 -->
      <g transform="translate(195.935608 322.182437)scale(0.1 -0.1)">
       <defs>
        <path d="M 33.015625 40.375 
Q 26.375 40.375 22.484375 35.828125 
Q 18.609375 31.296875 18.609375 23.390625 
Q 18.609375 15.53125 22.484375 10.953125 
Q 26.375 6.390625 33.015625 6.390625 
Q 39.65625 6.390625 43.53125 10.953125 
Q 47.40625 15.53125 47.40625 23.390625 
Q 47.40625 31.296875 43.53125 35.828125 
Q 39.65625 40.375 33.015625 40.375 
z
M 52.59375 71.296875 
L 52.59375 62.3125 
Q 48.875 64.0625 45.09375 64.984375 
Q 41.3125 65.921875 37.59375 65.921875 
Q 27.828125 65.921875 22.671875 59.328125 
Q 17.53125 52.734375 16.796875 39.40625 
Q 19.671875 43.65625 24.015625 45.921875 
Q 28.375 48.1875 33.59375 48.1875 
Q 44.578125 48.1875 50.953125 41.515625 
Q 57.328125 34.859375 57.328125 23.390625 
Q 57.328125 12.15625 50.6875 5.359375 
Q 44.046875 -1.421875 33.015625 -1.421875 
Q 20.359375 -1.421875 13.671875 8.265625 
Q 6.984375 17.96875 6.984375 36.375 
Q 6.984375 53.65625 15.1875 63.9375 
Q 23.390625 74.21875 37.203125 74.21875 
Q 40.921875 74.21875 44.703125 73.484375 
Q 48.484375 72.75 52.59375 71.296875 
z
" id="DejaVuSans-54"/>
       </defs>
       <use xlink:href="#DejaVuSans-8722"/>
       <use x="83.789062" xlink:href="#DejaVuSans-54"/>
       <use x="147.412109" xlink:href="#DejaVuSans-48"/>
      </g>
     </g>
    </g>
    <g id="xtick_5">
     <g id="line2d_5">
      <g>
       <use style="stroke:#000000;stroke-width:0.8;" x="255.552046" xlink:href="#m9547a2f9d0" y="307.584"/>
      </g>
     </g>
     <g id="text_5">
      <!-- −40 -->
      <g transform="translate(244.999702 322.182437)scale(0.1 -0.1)">
       <defs>
        <path d="M 37.796875 64.3125 
L 12.890625 25.390625 
L 37.796875 25.390625 
z
M 35.203125 72.90625 
L 47.609375 72.90625 
L 47.609375 25.390625 
L 58.015625 25.390625 
L 58.015625 17.1875 
L 47.609375 17.1875 
L 47.609375 0 
L 37.796875 0 
L 37.796875 17.1875 
L 4.890625 17.1875 
L 4.890625 26.703125 
z
" id="DejaVuSans-52"/>
       </defs>
       <use xlink:href="#DejaVuSans-8722"/>
       <use x="83.789062" xlink:href="#DejaVuSans-52"/>
       <use x="147.412109" xlink:href="#DejaVuSans-48"/>
      </g>
     </g>
    </g>
    <g id="xtick_6">
     <g id="line2d_6">
      <g>
       <use style="stroke:#000000;stroke-width:0.8;" x="304.61614" xlink:href="#m9547a2f9d0" y="307.584"/>
      </g>
     </g>
     <g id="text_6">
      <!-- −20 -->
      <g transform="translate(294.063796 322.182437)scale(0.1 -0.1)">
       <use xlink:href="#DejaVuSans-8722"/>
       <use x="83.789062" xlink:href="#DejaVuSans-50"/>
       <use x="147.412109" xlink:href="#DejaVuSans-48"/>
      </g>
     </g>
    </g>
    <g id="xtick_7">
     <g id="line2d_7">
      <g>
       <use style="stroke:#000000;stroke-width:0.8;" x="353.680233" xlink:href="#m9547a2f9d0" y="307.584"/>
      </g>
     </g>
     <g id="text_7">
      <!-- 0 -->
      <g transform="translate(350.498983 322.182437)scale(0.1 -0.1)">
       <use xlink:href="#DejaVuSans-48"/>
      </g>
     </g>
    </g>
    <g id="xtick_8">
     <g id="line2d_8">
      <g>
       <use style="stroke:#000000;stroke-width:0.8;" x="402.744327" xlink:href="#m9547a2f9d0" y="307.584"/>
      </g>
     </g>
     <g id="text_8">
      <!-- 20 -->
      <g transform="translate(396.381827 322.182437)scale(0.1 -0.1)">
       <use xlink:href="#DejaVuSans-50"/>
       <use x="63.623047" xlink:href="#DejaVuSans-48"/>
      </g>
     </g>
    </g>
   </g>
   <g id="matplotlib.axis_2">
    <g id="ytick_1">
     <g id="line2d_9">
      <defs>
       <path d="M 0 0 
L -3.5 0 
" id="m927514e0a6" style="stroke:#000000;stroke-width:0.8;"/>
      </defs>
      <g>
       <use style="stroke:#000000;stroke-width:0.8;" x="57.6" xlink:href="#m927514e0a6" y="295.393591"/>
      </g>
     </g>
     <g id="text_9">
      <!-- 0 -->
      <g transform="translate(44.2375 299.19281)scale(0.1 -0.1)">
       <use xlink:href="#DejaVuSans-48"/>
      </g>
     </g>
    </g>
    <g id="ytick_2">
     <g id="line2d_10">
      <g>
       <use style="stroke:#000000;stroke-width:0.8;" x="57.6" xlink:href="#m927514e0a6" y="246.329498"/>
      </g>
     </g>
     <g id="text_10">
      <!-- 20 -->
      <g transform="translate(37.875 250.128716)scale(0.1 -0.1)">
       <use xlink:href="#DejaVuSans-50"/>
       <use x="63.623047" xlink:href="#DejaVuSans-48"/>
      </g>
     </g>
    </g>
    <g id="ytick_3">
     <g id="line2d_11">
      <g>
       <use style="stroke:#000000;stroke-width:0.8;" x="57.6" xlink:href="#m927514e0a6" y="197.265404"/>
      </g>
     </g>
     <g id="text_11">
      <!-- 40 -->
      <g transform="translate(37.875 201.064622)scale(0.1 -0.1)">
       <use xlink:href="#DejaVuSans-52"/>
       <use x="63.623047" xlink:href="#DejaVuSans-48"/>
      </g>
     </g>
    </g>
    <g id="ytick_4">
     <g id="line2d_12">
      <g>
       <use style="stroke:#000000;stroke-width:0.8;" x="57.6" xlink:href="#m927514e0a6" y="148.20131"/>
      </g>
     </g>
     <g id="text_12">
      <!-- 60 -->
      <g transform="translate(37.875 152.000528)scale(0.1 -0.1)">
       <use xlink:href="#DejaVuSans-54"/>
       <use x="63.623047" xlink:href="#DejaVuSans-48"/>
      </g>
     </g>
    </g>
    <g id="ytick_5">
     <g id="line2d_13">
      <g>
       <use style="stroke:#000000;stroke-width:0.8;" x="57.6" xlink:href="#m927514e0a6" y="99.137216"/>
      </g>
     </g>
     <g id="text_13">
      <!-- 80 -->
      <g transform="translate(37.875 102.936435)scale(0.1 -0.1)">
       <use xlink:href="#DejaVuSans-56"/>
       <use x="63.623047" xlink:href="#DejaVuSans-48"/>
      </g>
     </g>
    </g>
    <g id="ytick_6">
     <g id="line2d_14">
      <g>
       <use style="stroke:#000000;stroke-width:0.8;" x="57.6" xlink:href="#m927514e0a6" y="50.073122"/>
      </g>
     </g>
     <g id="text_14">
      <!-- 100 -->
      <g transform="translate(31.5125 53.872341)scale(0.1 -0.1)">
       <use xlink:href="#DejaVuSans-49"/>
       <use x="63.623047" xlink:href="#DejaVuSans-48"/>
       <use x="127.246094" xlink:href="#DejaVuSans-48"/>
      </g>
     </g>
    </g>
   </g>
   <g id="line2d_15">
    <path clip-path="url(#p3363e3f46f)" d="M 353.680233 295.393591 
L 353.995926 272.80104 
L 354.986941 224.388235 
L 355.997603 188.87308 
L 355.978599 179.197417 
L 355.698276 159.639832 
L 355.729446 146.321847 
L 355.567977 139.701246 
L 355.163273 133.167869 
L 354.421435 126.767942 
L 353.894749 123.632466 
L 353.248567 120.547686 
L 352.471153 117.51938 
L 351.550769 114.553325 
L 350.475678 111.655301 
L 347.904477 105.722007 
L 344.851253 99.503899 
L 341.368433 93.201132 
L 337.508443 87.013862 
L 335.453392 84.026088 
L 333.323709 81.142246 
L 331.125946 78.387356 
L 328.866657 75.786437 
L 326.552396 73.36451 
L 324.189715 71.146593 
L 321.785168 69.157706 
L 319.345308 67.422869 
L 316.876689 65.9671 
L 314.385863 64.81542 
L 311.879384 63.992848 
L 309.307647 63.515406 
L 306.6243 63.365905 
L 303.840784 63.519544 
L 300.968536 63.951522 
L 298.018995 64.637039 
L 295.003599 65.551294 
L 291.933786 66.669486 
L 288.820994 67.966816 
L 282.51223 70.999684 
L 276.168813 74.451492 
L 266.788884 79.980709 
L 252.265413 88.646156 
L 249.581648 90.511748 
L 246.955531 92.536474 
L 241.843187 96.952066 
L 236.862271 101.670407 
L 227.030291 111.125248 
L 222.047007 115.4167 
L 219.50962 117.35608 
L 216.930717 119.120808 
L 214.302036 120.68307 
L 211.615311 122.015049 
L 208.862281 123.088931 
L 206.03468 123.8769 
L 203.097645 124.291581 
L 200.033851 124.297982 
L 196.861347 123.946863 
L 193.598184 123.288982 
L 190.262408 122.375099 
L 186.87207 121.255973 
L 179.999903 118.605029 
L 166.394973 113.073629 
L 163.128069 111.939059 
L 159.950994 111.00532 
L 156.881797 110.32317 
L 153.938528 109.943369 
L 151.139235 109.916676 
L 148.501967 110.293851 
L 146.044773 111.125652 
L 143.680067 112.38522 
L 141.318336 113.991507 
L 138.974736 115.913986 
L 136.664426 118.12213 
L 134.402561 120.585413 
L 132.2043 123.273309 
L 130.084799 126.155292 
L 128.059216 129.200834 
L 126.142708 132.379409 
L 124.350432 135.660492 
L 122.697546 139.013554 
L 121.199206 142.408071 
L 119.870571 145.813516 
L 118.726796 149.199361 
L 117.78304 152.535081 
L 117.054459 155.79015 
L 116.556211 158.93404 
L 116.303453 161.936226 
L 116.311342 164.766181 
L 116.629684 167.490669 
L 117.279253 170.197799 
L 118.231657 172.889057 
L 119.458506 175.565933 
L 120.93141 178.229913 
L 122.621976 180.882486 
L 124.501815 183.52514 
L 128.715746 188.786641 
L 133.346076 194.026319 
L 145.253128 207.108157 
L 149.552232 212.365194 
L 151.488852 215.004872 
L 151.488852 215.004872 
" style="fill:none;stroke:#fea952;stroke-linecap:square;"/>
   </g>
   <g id="line2d_16">
    <path clip-path="url(#p3363e3f46f)" d="M 343.867869 295.299183 
L 344.184772 272.620296 
L 345.178941 224.080744 
L 346.184953 188.815531 
L 346.167622 179.387521 
L 345.885687 159.572796 
L 345.918035 146.488014 
L 345.767709 140.197399 
L 345.39944 134.147149 
L 344.744194 128.393492 
L 343.743943 122.987674 
L 343.099178 120.427558 
L 342.350619 117.966339 
L 341.424328 115.44535 
L 339.045015 109.941171 
L 336.203407 104.141373 
L 332.970411 98.27702 
L 329.423476 92.574863 
L 325.652839 87.261819 
L 323.717784 84.822458 
L 321.772045 82.565661 
L 319.836328 80.518938 
L 317.9354 78.708005 
L 316.098785 77.154984 
L 314.360757 75.875422 
L 312.758451 74.873925 
L 311.326066 74.138995 
L 310.088246 73.640813 
L 308.761778 73.31303 
L 307.165105 73.16381 
L 305.300192 73.223231 
L 303.189972 73.509589 
L 300.866207 74.027715 
L 298.362093 74.771485 
L 295.708773 75.727129 
L 292.934155 76.875987 
L 287.116454 79.665278 
L 281.072851 82.951011 
L 271.859233 88.382076 
L 255.573244 98.282989 
L 253.252644 100.062282 
L 248.537627 104.126736 
L 243.716809 108.692282 
L 236.185343 116.005165 
L 230.832154 120.869735 
L 228.005914 123.213035 
L 225.051223 125.454354 
L 221.944057 127.556318 
L 218.660638 129.47477 
L 215.181329 131.156982 
L 211.496454 132.541578 
L 207.406548 133.593349 
L 203.118146 134.104378 
L 198.9544 134.051248 
L 194.922022 133.566136 
L 191.005366 132.753057 
L 187.186513 131.693375 
L 183.453541 130.454074 
L 176.237896 127.66807 
L 163.175676 122.34334 
L 160.361116 121.353696 
L 157.82198 120.584396 
L 155.625959 120.055296 
L 152.5285 119.630654 
L 151.648378 119.588554 
L 150.657984 119.786465 
L 149.198641 120.499205 
L 147.541851 121.578289 
L 145.754824 123.007774 
L 143.892349 124.759037 
L 141.998547 126.797693 
L 140.109489 129.087035 
L 138.25547 131.589586 
L 136.462699 134.267676 
L 134.754474 137.083546 
L 133.15197 139.999194 
L 131.674727 142.976082 
L 130.340898 145.974707 
L 129.167265 148.954038 
L 128.168983 151.870786 
L 127.358915 154.678446 
L 126.74632 157.326129 
L 126.334436 159.757282 
L 126.116233 161.908871 
L 126.057853 163.627352 
L 126.171658 165.201097 
L 126.529894 166.924107 
L 127.152211 168.800643 
L 128.046133 170.817871 
L 129.20648 172.955956 
L 130.618101 175.194482 
L 132.259158 177.515561 
L 136.1241 182.351759 
L 140.575628 187.391186 
L 152.758654 200.786883 
L 155.151384 203.634394 
L 157.464113 206.56058 
L 159.400734 209.200258 
L 159.400734 209.200258 
" style="fill:none;stroke:#ffffff;stroke-linecap:square;"/>
   </g>
   <g id="line2d_17">
    <path clip-path="url(#p3363e3f46f)" d="M 363.492598 295.488 
L 363.80708 272.981784 
L 364.794941 224.695727 
L 365.810253 188.930628 
L 365.789576 179.007313 
L 365.510866 159.706869 
L 365.540858 146.15568 
L 365.368244 139.205093 
L 364.927105 132.18859 
L 364.569145 128.666838 
L 364.098677 125.142391 
L 363.499113 121.6206 
L 362.753191 118.107698 
L 361.843128 114.611201 
L 360.750918 111.140312 
L 359.527028 107.865252 
L 356.763939 101.502843 
L 353.4991 94.866425 
L 349.766455 88.125244 
L 347.733673 84.769583 
L 345.59341 81.452862 
L 343.34705 78.196715 
L 340.994578 75.022673 
L 338.534108 71.952253 
L 335.96127 69.007213 
L 333.268464 66.210082 
L 330.44403 63.58518 
L 327.471551 61.160428 
L 324.32986 58.970315 
L 320.994927 57.060275 
L 317.44566 55.491845 
L 313.670523 54.344882 
L 309.853515 53.717782 
L 306.083496 53.568 
L 302.381376 53.815857 
L 298.747101 54.393455 
L 295.171783 55.246363 
L 291.645104 56.331103 
L 288.158798 57.611844 
L 284.707834 59.057645 
L 281.290489 60.640504 
L 274.564143 64.112939 
L 268.017589 67.826184 
L 249.902 78.59209 
L 246.664443 80.588828 
L 243.590052 82.740507 
L 240.658419 85.010666 
L 235.148747 89.777396 
L 230.007734 94.648533 
L 220.508449 103.793332 
L 216.088101 107.620365 
L 213.968017 109.257805 
L 211.917377 110.685298 
L 209.943433 111.891369 
L 208.049294 112.873117 
L 206.228107 113.636284 
L 204.662812 114.16045 
L 203.077143 114.478783 
L 201.113301 114.544716 
L 198.800672 114.327589 
L 196.191001 113.824907 
L 193.338304 113.056822 
L 190.2906 112.057871 
L 183.76191 109.541988 
L 173.257525 105.200007 
L 169.61427 103.803918 
L 165.895022 102.524422 
L 162.080008 101.426243 
L 158.137635 100.591044 
L 154.032094 100.130996 
L 149.74997 100.202699 
L 145.355556 100.999147 
L 141.431561 102.464838 
L 138.161494 104.271235 
L 135.09482 106.404724 
L 132.194649 108.820197 
L 129.436502 111.485223 
L 126.806575 114.373134 
L 124.299111 117.459584 
L 121.914128 120.720998 
L 119.655734 124.133991 
L 117.530942 127.675273 
L 115.548894 131.321789 
L 113.720365 135.051027 
L 112.057515 138.841436 
L 110.573876 142.672993 
L 109.284608 146.527937 
L 108.207164 150.391717 
L 107.362597 154.254171 
L 106.777986 158.110799 
L 106.490672 161.963582 
L 106.564831 165.905009 
L 107.08771 169.780241 
L 108.028612 173.47149 
L 109.311103 176.977471 
L 110.87088 180.313994 
L 112.656339 183.50387 
L 114.625851 186.57049 
L 116.744472 189.534719 
L 118.981256 192.413838 
L 123.695019 197.968194 
L 130.949778 205.906055 
L 137.747603 213.42943 
L 141.64035 218.169808 
L 143.576971 220.809486 
L 143.576971 220.809486 
" style="fill:none;stroke:#ffffff;stroke-linecap:square;"/>
   </g>
   <g id="patch_3">
    <path d="M 57.6 307.584 
L 57.6 41.472 
" style="fill:none;stroke:#000000;stroke-linecap:square;stroke-linejoin:miter;stroke-width:0.8;"/>
   </g>
   <g id="patch_4">
    <path d="M 414.72 307.584 
L 414.72 41.472 
" style="fill:none;stroke:#000000;stroke-linecap:square;stroke-linejoin:miter;stroke-width:0.8;"/>
   </g>
   <g id="patch_5">
    <path d="M 57.6 307.584 
L 414.72 307.584 
" style="fill:none;stroke:#000000;stroke-linecap:square;stroke-linejoin:miter;stroke-width:0.8;"/>
   </g>
   <g id="patch_6">
    <path d="M 57.6 41.472 
L 414.72 41.472 
" style="fill:none;stroke:#000000;stroke-linecap:square;stroke-linejoin:miter;stroke-width:0.8;"/>
   </g>
  </g>
 </g>
 <defs>
  <clipPath id="p3363e3f46f">
   <rect height="266.112" width="357.12" x="57.6" y="41.472"/>
  </clipPath>
 </defs>
</svg>
