<?xml version="1.0" encoding="utf-8" standalone="no"?>
<!DOCTYPE svg PUBLIC "-//W3C//DTD SVG 1.1//EN"
  "http://www.w3.org/Graphics/SVG/1.1/DTD/svg11.dtd">
<!-- Created with matplotlib (https://matplotlib.org/) -->
<svg height="345.6pt" version="1.1" viewBox="0 0 460.8 345.6" width="460.8pt" xmlns="http://www.w3.org/2000/svg" xmlns:xlink="http://www.w3.org/1999/xlink">
 <metadata>
  <rdf:RDF xmlns:cc="http://creativecommons.org/ns#" xmlns:dc="http://purl.org/dc/elements/1.1/" xmlns:rdf="http://www.w3.org/1999/02/22-rdf-syntax-ns#">
   <cc:Work>
    <dc:type rdf:resource="http://purl.org/dc/dcmitype/StillImage"/>
    <dc:date>2021-05-27T11:31:59.630574</dc:date>
    <dc:format>image/svg+xml</dc:format>
    <dc:creator>
     <cc:Agent>
      <dc:title>Matplotlib v3.3.3, https://matplotlib.org/</dc:title>
     </cc:Agent>
    </dc:creator>
   </cc:Work>
  </rdf:RDF>
 </metadata>
 <defs>
  <style type="text/css">*{stroke-linecap:butt;stroke-linejoin:round;}</style>
 </defs>
 <g id="figure_1">
  <g id="patch_1">
   <path d="M 0 345.6 
L 460.8 345.6 
L 460.8 0 
L 0 0 
z
" style="fill:#ffffff;"/>
  </g>
  <g id="axes_1">
   <g id="patch_2">
    <path d="M 57.6 307.584 
L 414.72 307.584 
L 414.72 41.472 
L 57.6 41.472 
z
" style="fill:#7d9051;"/>
   </g>
   <g id="matplotlib.axis_1">
    <g id="xtick_1">
     <g id="line2d_1">
      <defs>
       <path d="M 0 0 
L 0 3.5 
" id="mf2a258fab6" style="stroke:#000000;stroke-width:0.8;"/>
      </defs>
      <g>
       <use style="stroke:#000000;stroke-width:0.8;" x="97.956253" xlink:href="#mf2a258fab6" y="307.584"/>
      </g>
     </g>
     <g id="text_1">
      <!-- −75 -->
      <g transform="translate(87.403909 322.182437)scale(0.1 -0.1)">
       <defs>
        <path d="M 10.59375 35.5 
L 73.1875 35.5 
L 73.1875 27.203125 
L 10.59375 27.203125 
z
" id="DejaVuSans-8722"/>
        <path d="M 8.203125 72.90625 
L 55.078125 72.90625 
L 55.078125 68.703125 
L 28.609375 0 
L 18.3125 0 
L 43.21875 64.59375 
L 8.203125 64.59375 
z
" id="DejaVuSans-55"/>
        <path d="M 10.796875 72.90625 
L 49.515625 72.90625 
L 49.515625 64.59375 
L 19.828125 64.59375 
L 19.828125 46.734375 
Q 21.96875 47.46875 24.109375 47.828125 
Q 26.265625 48.1875 28.421875 48.1875 
Q 40.625 48.1875 47.75 41.5 
Q 54.890625 34.8125 54.890625 23.390625 
Q 54.890625 11.625 47.5625 5.09375 
Q 40.234375 -1.421875 26.90625 -1.421875 
Q 22.3125 -1.421875 17.546875 -0.640625 
Q 12.796875 0.140625 7.71875 1.703125 
L 7.71875 11.625 
Q 12.109375 9.234375 16.796875 8.0625 
Q 21.484375 6.890625 26.703125 6.890625 
Q 35.15625 6.890625 40.078125 11.328125 
Q 45.015625 15.765625 45.015625 23.390625 
Q 45.015625 31 40.078125 35.4375 
Q 35.15625 39.890625 26.703125 39.890625 
Q 22.75 39.890625 18.8125 39.015625 
Q 14.890625 38.140625 10.796875 36.28125 
z
" id="DejaVuSans-53"/>
       </defs>
       <use xlink:href="#DejaVuSans-8722"/>
       <use x="83.789062" xlink:href="#DejaVuSans-55"/>
       <use x="147.412109" xlink:href="#DejaVuSans-53"/>
      </g>
     </g>
    </g>
    <g id="xtick_2">
     <g id="line2d_2">
      <g>
       <use style="stroke:#000000;stroke-width:0.8;" x="142.959449" xlink:href="#mf2a258fab6" y="307.584"/>
      </g>
     </g>
     <g id="text_2">
      <!-- −50 -->
      <g transform="translate(132.407105 322.182437)scale(0.1 -0.1)">
       <defs>
        <path d="M 31.78125 66.40625 
Q 24.171875 66.40625 20.328125 58.90625 
Q 16.5 51.421875 16.5 36.375 
Q 16.5 21.390625 20.328125 13.890625 
Q 24.171875 6.390625 31.78125 6.390625 
Q 39.453125 6.390625 43.28125 13.890625 
Q 47.125 21.390625 47.125 36.375 
Q 47.125 51.421875 43.28125 58.90625 
Q 39.453125 66.40625 31.78125 66.40625 
z
M 31.78125 74.21875 
Q 44.046875 74.21875 50.515625 64.515625 
Q 56.984375 54.828125 56.984375 36.375 
Q 56.984375 17.96875 50.515625 8.265625 
Q 44.046875 -1.421875 31.78125 -1.421875 
Q 19.53125 -1.421875 13.0625 8.265625 
Q 6.59375 17.96875 6.59375 36.375 
Q 6.59375 54.828125 13.0625 64.515625 
Q 19.53125 74.21875 31.78125 74.21875 
z
" id="DejaVuSans-48"/>
       </defs>
       <use xlink:href="#DejaVuSans-8722"/>
       <use x="83.789062" xlink:href="#DejaVuSans-53"/>
       <use x="147.412109" xlink:href="#DejaVuSans-48"/>
      </g>
     </g>
    </g>
    <g id="xtick_3">
     <g id="line2d_3">
      <g>
       <use style="stroke:#000000;stroke-width:0.8;" x="187.962645" xlink:href="#mf2a258fab6" y="307.584"/>
      </g>
     </g>
     <g id="text_3">
      <!-- −25 -->
      <g transform="translate(177.410301 322.182437)scale(0.1 -0.1)">
       <defs>
        <path d="M 19.1875 8.296875 
L 53.609375 8.296875 
L 53.609375 0 
L 7.328125 0 
L 7.328125 8.296875 
Q 12.9375 14.109375 22.625 23.890625 
Q 32.328125 33.6875 34.8125 36.53125 
Q 39.546875 41.84375 41.421875 45.53125 
Q 43.3125 49.21875 43.3125 52.78125 
Q 43.3125 58.59375 39.234375 62.25 
Q 35.15625 65.921875 28.609375 65.921875 
Q 23.96875 65.921875 18.8125 64.3125 
Q 13.671875 62.703125 7.8125 59.421875 
L 7.8125 69.390625 
Q 13.765625 71.78125 18.9375 73 
Q 24.125 74.21875 28.421875 74.21875 
Q 39.75 74.21875 46.484375 68.546875 
Q 53.21875 62.890625 53.21875 53.421875 
Q 53.21875 48.921875 51.53125 44.890625 
Q 49.859375 40.875 45.40625 35.40625 
Q 44.1875 33.984375 37.640625 27.21875 
Q 31.109375 20.453125 19.1875 8.296875 
z
" id="DejaVuSans-50"/>
       </defs>
       <use xlink:href="#DejaVuSans-8722"/>
       <use x="83.789062" xlink:href="#DejaVuSans-50"/>
       <use x="147.412109" xlink:href="#DejaVuSans-53"/>
      </g>
     </g>
    </g>
    <g id="xtick_4">
     <g id="line2d_4">
      <g>
       <use style="stroke:#000000;stroke-width:0.8;" x="232.965841" xlink:href="#mf2a258fab6" y="307.584"/>
      </g>
     </g>
     <g id="text_4">
      <!-- 0 -->
      <g transform="translate(229.784591 322.182437)scale(0.1 -0.1)">
       <use xlink:href="#DejaVuSans-48"/>
      </g>
     </g>
    </g>
    <g id="xtick_5">
     <g id="line2d_5">
      <g>
       <use style="stroke:#000000;stroke-width:0.8;" x="277.969037" xlink:href="#mf2a258fab6" y="307.584"/>
      </g>
     </g>
     <g id="text_5">
      <!-- 25 -->
      <g transform="translate(271.606537 322.182437)scale(0.1 -0.1)">
       <use xlink:href="#DejaVuSans-50"/>
       <use x="63.623047" xlink:href="#DejaVuSans-53"/>
      </g>
     </g>
    </g>
    <g id="xtick_6">
     <g id="line2d_6">
      <g>
       <use style="stroke:#000000;stroke-width:0.8;" x="322.972232" xlink:href="#mf2a258fab6" y="307.584"/>
      </g>
     </g>
     <g id="text_6">
      <!-- 50 -->
      <g transform="translate(316.609732 322.182437)scale(0.1 -0.1)">
       <use xlink:href="#DejaVuSans-53"/>
       <use x="63.623047" xlink:href="#DejaVuSans-48"/>
      </g>
     </g>
    </g>
    <g id="xtick_7">
     <g id="line2d_7">
      <g>
       <use style="stroke:#000000;stroke-width:0.8;" x="367.975428" xlink:href="#mf2a258fab6" y="307.584"/>
      </g>
     </g>
     <g id="text_7">
      <!-- 75 -->
      <g transform="translate(361.612928 322.182437)scale(0.1 -0.1)">
       <use xlink:href="#DejaVuSans-55"/>
       <use x="63.623047" xlink:href="#DejaVuSans-53"/>
      </g>
     </g>
    </g>
    <g id="xtick_8">
     <g id="line2d_8">
      <g>
       <use style="stroke:#000000;stroke-width:0.8;" x="412.978624" xlink:href="#mf2a258fab6" y="307.584"/>
      </g>
     </g>
     <g id="text_8">
      <!-- 100 -->
      <g transform="translate(403.434874 322.182437)scale(0.1 -0.1)">
       <defs>
        <path d="M 12.40625 8.296875 
L 28.515625 8.296875 
L 28.515625 63.921875 
L 10.984375 60.40625 
L 10.984375 69.390625 
L 28.421875 72.90625 
L 38.28125 72.90625 
L 38.28125 8.296875 
L 54.390625 8.296875 
L 54.390625 0 
L 12.40625 0 
z
" id="DejaVuSans-49"/>
       </defs>
       <use xlink:href="#DejaVuSans-49"/>
       <use x="63.623047" xlink:href="#DejaVuSans-48"/>
       <use x="127.246094" xlink:href="#DejaVuSans-48"/>
      </g>
     </g>
    </g>
   </g>
   <g id="matplotlib.axis_2">
    <g id="ytick_1">
     <g id="line2d_9">
      <defs>
       <path d="M 0 0 
L -3.5 0 
" id="m6e21ebb1d6" style="stroke:#000000;stroke-width:0.8;"/>
      </defs>
      <g>
       <use style="stroke:#000000;stroke-width:0.8;" x="57.6" xlink:href="#m6e21ebb1d6" y="295.418724"/>
      </g>
     </g>
     <g id="text_9">
      <!-- 0 -->
      <g transform="translate(44.2375 299.217943)scale(0.1 -0.1)">
       <use xlink:href="#DejaVuSans-48"/>
      </g>
     </g>
    </g>
    <g id="ytick_2">
     <g id="line2d_10">
      <g>
       <use style="stroke:#000000;stroke-width:0.8;" x="57.6" xlink:href="#m6e21ebb1d6" y="259.416168"/>
      </g>
     </g>
     <g id="text_10">
      <!-- 20 -->
      <g transform="translate(37.875 263.215386)scale(0.1 -0.1)">
       <use xlink:href="#DejaVuSans-50"/>
       <use x="63.623047" xlink:href="#DejaVuSans-48"/>
      </g>
     </g>
    </g>
    <g id="ytick_3">
     <g id="line2d_11">
      <g>
       <use style="stroke:#000000;stroke-width:0.8;" x="57.6" xlink:href="#m6e21ebb1d6" y="223.413611"/>
      </g>
     </g>
     <g id="text_11">
      <!-- 40 -->
      <g transform="translate(37.875 227.21283)scale(0.1 -0.1)">
       <defs>
        <path d="M 37.796875 64.3125 
L 12.890625 25.390625 
L 37.796875 25.390625 
z
M 35.203125 72.90625 
L 47.609375 72.90625 
L 47.609375 25.390625 
L 58.015625 25.390625 
L 58.015625 17.1875 
L 47.609375 17.1875 
L 47.609375 0 
L 37.796875 0 
L 37.796875 17.1875 
L 4.890625 17.1875 
L 4.890625 26.703125 
z
" id="DejaVuSans-52"/>
       </defs>
       <use xlink:href="#DejaVuSans-52"/>
       <use x="63.623047" xlink:href="#DejaVuSans-48"/>
      </g>
     </g>
    </g>
    <g id="ytick_4">
     <g id="line2d_12">
      <g>
       <use style="stroke:#000000;stroke-width:0.8;" x="57.6" xlink:href="#m6e21ebb1d6" y="187.411054"/>
      </g>
     </g>
     <g id="text_12">
      <!-- 60 -->
      <g transform="translate(37.875 191.210273)scale(0.1 -0.1)">
       <defs>
        <path d="M 33.015625 40.375 
Q 26.375 40.375 22.484375 35.828125 
Q 18.609375 31.296875 18.609375 23.390625 
Q 18.609375 15.53125 22.484375 10.953125 
Q 26.375 6.390625 33.015625 6.390625 
Q 39.65625 6.390625 43.53125 10.953125 
Q 47.40625 15.53125 47.40625 23.390625 
Q 47.40625 31.296875 43.53125 35.828125 
Q 39.65625 40.375 33.015625 40.375 
z
M 52.59375 71.296875 
L 52.59375 62.3125 
Q 48.875 64.0625 45.09375 64.984375 
Q 41.3125 65.921875 37.59375 65.921875 
Q 27.828125 65.921875 22.671875 59.328125 
Q 17.53125 52.734375 16.796875 39.40625 
Q 19.671875 43.65625 24.015625 45.921875 
Q 28.375 48.1875 33.59375 48.1875 
Q 44.578125 48.1875 50.953125 41.515625 
Q 57.328125 34.859375 57.328125 23.390625 
Q 57.328125 12.15625 50.6875 5.359375 
Q 44.046875 -1.421875 33.015625 -1.421875 
Q 20.359375 -1.421875 13.671875 8.265625 
Q 6.984375 17.96875 6.984375 36.375 
Q 6.984375 53.65625 15.1875 63.9375 
Q 23.390625 74.21875 37.203125 74.21875 
Q 40.921875 74.21875 44.703125 73.484375 
Q 48.484375 72.75 52.59375 71.296875 
z
" id="DejaVuSans-54"/>
       </defs>
       <use xlink:href="#DejaVuSans-54"/>
       <use x="63.623047" xlink:href="#DejaVuSans-48"/>
      </g>
     </g>
    </g>
    <g id="ytick_5">
     <g id="line2d_13">
      <g>
       <use style="stroke:#000000;stroke-width:0.8;" x="57.6" xlink:href="#m6e21ebb1d6" y="151.408498"/>
      </g>
     </g>
     <g id="text_13">
      <!-- 80 -->
      <g transform="translate(37.875 155.207716)scale(0.1 -0.1)">
       <defs>
        <path d="M 31.78125 34.625 
Q 24.75 34.625 20.71875 30.859375 
Q 16.703125 27.09375 16.703125 20.515625 
Q 16.703125 13.921875 20.71875 10.15625 
Q 24.75 6.390625 31.78125 6.390625 
Q 38.8125 6.390625 42.859375 10.171875 
Q 46.921875 13.96875 46.921875 20.515625 
Q 46.921875 27.09375 42.890625 30.859375 
Q 38.875 34.625 31.78125 34.625 
z
M 21.921875 38.8125 
Q 15.578125 40.375 12.03125 44.71875 
Q 8.5 49.078125 8.5 55.328125 
Q 8.5 64.0625 14.71875 69.140625 
Q 20.953125 74.21875 31.78125 74.21875 
Q 42.671875 74.21875 48.875 69.140625 
Q 55.078125 64.0625 55.078125 55.328125 
Q 55.078125 49.078125 51.53125 44.71875 
Q 48 40.375 41.703125 38.8125 
Q 48.828125 37.15625 52.796875 32.3125 
Q 56.78125 27.484375 56.78125 20.515625 
Q 56.78125 9.90625 50.3125 4.234375 
Q 43.84375 -1.421875 31.78125 -1.421875 
Q 19.734375 -1.421875 13.25 4.234375 
Q 6.78125 9.90625 6.78125 20.515625 
Q 6.78125 27.484375 10.78125 32.3125 
Q 14.796875 37.15625 21.921875 38.8125 
z
M 18.3125 54.390625 
Q 18.3125 48.734375 21.84375 45.5625 
Q 25.390625 42.390625 31.78125 42.390625 
Q 38.140625 42.390625 41.71875 45.5625 
Q 45.3125 48.734375 45.3125 54.390625 
Q 45.3125 60.0625 41.71875 63.234375 
Q 38.140625 66.40625 31.78125 66.40625 
Q 25.390625 66.40625 21.84375 63.234375 
Q 18.3125 60.0625 18.3125 54.390625 
z
" id="DejaVuSans-56"/>
       </defs>
       <use xlink:href="#DejaVuSans-56"/>
       <use x="63.623047" xlink:href="#DejaVuSans-48"/>
      </g>
     </g>
    </g>
    <g id="ytick_6">
     <g id="line2d_14">
      <g>
       <use style="stroke:#000000;stroke-width:0.8;" x="57.6" xlink:href="#m6e21ebb1d6" y="115.405941"/>
      </g>
     </g>
     <g id="text_14">
      <!-- 100 -->
      <g transform="translate(31.5125 119.20516)scale(0.1 -0.1)">
       <use xlink:href="#DejaVuSans-49"/>
       <use x="63.623047" xlink:href="#DejaVuSans-48"/>
       <use x="127.246094" xlink:href="#DejaVuSans-48"/>
      </g>
     </g>
    </g>
    <g id="ytick_7">
     <g id="line2d_15">
      <g>
       <use style="stroke:#000000;stroke-width:0.8;" x="57.6" xlink:href="#m6e21ebb1d6" y="79.403384"/>
      </g>
     </g>
     <g id="text_15">
      <!-- 120 -->
      <g transform="translate(31.5125 83.202603)scale(0.1 -0.1)">
       <use xlink:href="#DejaVuSans-49"/>
       <use x="63.623047" xlink:href="#DejaVuSans-50"/>
       <use x="127.246094" xlink:href="#DejaVuSans-48"/>
      </g>
     </g>
    </g>
    <g id="ytick_8">
     <g id="line2d_16">
      <g>
       <use style="stroke:#000000;stroke-width:0.8;" x="57.6" xlink:href="#m6e21ebb1d6" y="43.400828"/>
      </g>
     </g>
     <g id="text_16">
      <!-- 140 -->
      <g transform="translate(31.5125 47.200046)scale(0.1 -0.1)">
       <use xlink:href="#DejaVuSans-49"/>
       <use x="63.623047" xlink:href="#DejaVuSans-52"/>
       <use x="127.246094" xlink:href="#DejaVuSans-48"/>
      </g>
     </g>
    </g>
   </g>
   <g id="line2d_17">
    <path clip-path="url(#p1ccf285abd)" d="M 232.965841 295.418724 
L 233.241119 276.472413 
L 233.833136 248.038996 
L 234.199613 243.196429 
L 235.053404 235.818891 
L 236.191791 225.982173 
L 236.517726 221.154765 
L 236.537333 216.441888 
L 236.398479 214.141031 
L 236.1425 211.883965 
L 235.755881 209.675742 
L 235.225109 207.521417 
L 234.536669 205.426041 
L 233.696789 203.371221 
L 232.726332 201.336662 
L 231.633732 199.324565 
L 229.115842 195.376563 
L 226.210602 191.544826 
L 222.985489 187.846963 
L 219.507986 184.300587 
L 215.84557 180.923307 
L 212.065723 177.732733 
L 208.235924 174.746477 
L 204.423653 171.982149 
L 202.453245 170.739742 
L 200.337216 169.647045 
L 198.096837 168.684602 
L 195.753382 167.832956 
L 190.842329 166.38423 
L 183.234478 164.555714 
L 178.249905 163.339428 
L 173.533735 161.943729 
L 171.329481 161.129959 
L 169.256145 160.212967 
L 167.334998 159.173297 
L 165.587313 157.991493 
L 164.034362 156.648098 
L 162.697417 155.123655 
L 161.516634 153.395038 
L 160.420257 151.467319 
L 159.411688 149.363338 
L 158.494331 147.105938 
L 157.671587 144.71796 
L 156.946862 142.222246 
L 156.323556 139.641639 
L 155.805073 136.998979 
L 155.394816 134.317108 
L 155.096188 131.618868 
L 154.912591 128.927101 
L 154.847429 126.264648 
L 154.904104 123.654352 
L 155.086019 121.119053 
L 155.396578 118.681595 
L 155.839183 116.364817 
L 156.417236 114.191563 
L 157.134142 112.184674 
L 157.993302 110.366991 
L 159.039702 108.68211 
L 160.304298 107.059087 
L 161.769448 105.498959 
L 163.417511 104.002762 
L 165.230843 102.571532 
L 167.191805 101.206304 
L 169.282752 99.908115 
L 173.78404 97.516998 
L 178.593572 95.406467 
L 183.570213 93.58481 
L 188.572828 92.060316 
L 193.460283 90.841273 
L 198.091443 89.935968 
L 200.331475 89.651567 
L 202.594301 89.532602 
L 204.877969 89.561918 
L 207.180523 89.722361 
L 211.834477 90.368009 
L 216.540533 91.332311 
L 233.196365 95.235431 
L 237.943451 95.935387 
L 240.305271 96.130389 
L 245.018207 96.198218 
L 254.695444 96.083674 
L 262.046696 95.728886 
L 266.911979 95.282497 
L 271.699047 94.617303 
L 276.365237 93.689662 
L 280.867886 92.455935 
L 285.164333 90.872481 
L 287.221898 89.935968 
L 289.213692 88.88104 
L 291.143269 87.698549 
L 293.015963 86.39943 
L 296.612031 83.495042 
L 300.044558 80.255346 
L 303.356208 76.767815 
L 308.190363 71.263169 
L 314.611015 63.872617 
L 317.906666 60.352283 
L 319.594488 58.674121 
L 319.594488 58.674121 
" style="fill:none;stroke:#fea952;stroke-linecap:square;"/>
   </g>
   <g id="line2d_18">
    <path clip-path="url(#p1ccf285abd)" d="M 225.765663 295.349449 
L 226.041921 276.334913 
L 226.647268 247.580006 
L 227.038596 242.443308 
L 227.909556 234.917332 
L 229.01432 225.406611 
L 229.319137 220.98839 
L 229.349899 216.875643 
L 229.049875 213.125751 
L 228.384356 209.768961 
L 227.87143 208.150366 
L 226.398559 204.772742 
L 224.442633 201.340836 
L 222.051 197.900645 
L 219.282203 194.49549 
L 216.201282 191.163943 
L 212.876696 187.939925 
L 209.378562 184.853516 
L 205.777763 181.931879 
L 200.583187 178.072977 
L 199.149462 177.137584 
L 197.495106 176.262918 
L 195.637438 175.452077 
L 191.406334 174.011966 
L 186.65592 172.754468 
L 176.327031 170.278442 
L 171.039957 168.698611 
L 168.416993 167.715153 
L 165.829087 166.545632 
L 163.301545 165.138079 
L 160.876478 163.43717 
L 158.62081 161.395815 
L 156.75165 159.185087 
L 155.257611 156.954814 
L 153.927215 154.579837 
L 152.740952 152.074177 
L 151.686549 149.45146 
L 150.756725 146.725955 
L 149.94762 143.912805 
L 149.257754 141.02793 
L 148.687361 138.087805 
L 148.238003 135.10919 
L 147.912367 132.108853 
L 147.714235 129.103277 
L 147.648614 126.108346 
L 147.722057 123.139018 
L 147.943251 120.208987 
L 148.323976 117.330422 
L 148.880618 114.513942 
L 149.636383 111.769292 
L 150.624209 109.107639 
L 151.876454 106.568106 
L 153.359772 104.256529 
L 155.055507 102.129833 
L 156.929477 100.167727 
L 158.956423 98.350678 
L 161.116693 96.662122 
L 163.393763 95.088932 
L 165.772663 93.621094 
L 168.239045 92.251155 
L 173.377332 89.784669 
L 178.693397 87.661956 
L 184.069479 85.869928 
L 189.387032 84.403828 
L 194.53067 83.264153 
L 197.184526 82.792799 
L 199.95344 82.460987 
L 202.686729 82.332684 
L 205.378489 82.378824 
L 208.026505 82.571719 
L 213.192693 83.296757 
L 218.194384 84.324306 
L 234.379497 88.132786 
L 238.535941 88.759293 
L 240.515901 88.932959 
L 244.998353 88.997734 
L 254.450038 88.887345 
L 261.462578 88.552106 
L 266.013685 88.138238 
L 270.408484 87.533391 
L 274.597874 86.709419 
L 278.53539 85.64368 
L 282.181426 84.318884 
L 285.451333 82.741657 
L 287.039032 81.78225 
L 290.190119 79.494355 
L 293.318975 76.756481 
L 296.437053 73.636728 
L 299.562409 70.215379 
L 311.041504 57.114105 
L 314.517591 53.568 
L 314.517591 53.568 
" style="fill:none;stroke:#ffffff;stroke-linecap:square;"/>
   </g>
   <g id="line2d_19">
    <path clip-path="url(#p1ccf285abd)" d="M 240.166019 295.488 
L 240.440318 276.609912 
L 241.019003 248.497985 
L 241.360631 243.94955 
L 242.197251 236.72045 
L 243.369262 226.557736 
L 243.716314 221.321141 
L 243.724768 216.008134 
L 243.553125 213.329605 
L 243.235125 210.642178 
L 242.747326 207.953224 
L 242.065863 205.273873 
L 241.201908 202.701716 
L 240.195837 200.271262 
L 239.054105 197.900581 
L 237.789117 195.588444 
L 236.412214 193.333427 
L 233.363847 188.989476 
L 229.985421 184.860628 
L 226.346856 180.943534 
L 222.514653 177.239493 
L 218.553654 173.753645 
L 214.527937 170.494051 
L 210.501178 167.470886 
L 208.264119 165.891321 
L 205.757028 164.3419 
L 203.179326 163.031173 
L 200.556237 161.917127 
L 197.907337 160.96216 
L 192.601014 159.401796 
L 184.893266 157.548876 
L 180.172779 156.400413 
L 176.027513 155.188847 
L 172.683203 153.880303 
L 170.298148 152.545816 
L 169.447914 151.90038 
L 168.643183 151.062223 
L 167.775656 149.835262 
L 166.913298 148.3548 
L 166.082424 146.652499 
L 165.302112 144.760416 
L 164.58645 142.709965 
L 163.389358 138.255347 
L 162.551629 133.525026 
L 162.110947 128.750925 
L 162.086151 124.169686 
L 162.46918 120.032768 
L 163.198089 116.613834 
L 164.11015 114.165877 
L 164.719632 113.107691 
L 165.55309 111.988342 
L 166.60942 110.830192 
L 167.878598 109.654847 
L 169.344994 108.480942 
L 170.989846 107.323677 
L 174.733045 105.104847 
L 178.940861 103.067613 
L 183.446252 101.256066 
L 188.084711 99.699872 
L 192.692512 98.420363 
L 197.102772 97.433618 
L 200.70951 96.842148 
L 202.501874 96.73252 
L 204.377448 96.745013 
L 208.369175 97.107935 
L 212.650447 97.854657 
L 219.528418 99.461483 
L 226.873397 101.266583 
L 232.013232 102.338075 
L 237.35096 103.11148 
L 240.09464 103.327819 
L 245.038062 103.398702 
L 254.94085 103.280002 
L 262.630814 102.905666 
L 267.810273 102.426756 
L 272.989609 101.701215 
L 278.132599 100.669906 
L 283.200383 99.268191 
L 285.692205 98.406717 
L 288.147241 97.426077 
L 290.59205 96.2991 
L 292.976051 95.020423 
L 295.247506 93.614849 
L 297.413927 92.10077 
L 299.484092 90.494878 
L 303.373167 87.0668 
L 306.9886 83.437458 
L 310.397664 79.701511 
L 322.983564 65.458405 
L 324.671386 63.780243 
L 324.671386 63.780243 
" style="fill:none;stroke:#ffffff;stroke-linecap:square;"/>
   </g>
   <g id="patch_3">
    <path d="M 57.6 307.584 
L 57.6 41.472 
" style="fill:none;stroke:#000000;stroke-linecap:square;stroke-linejoin:miter;stroke-width:0.8;"/>
   </g>
   <g id="patch_4">
    <path d="M 414.72 307.584 
L 414.72 41.472 
" style="fill:none;stroke:#000000;stroke-linecap:square;stroke-linejoin:miter;stroke-width:0.8;"/>
   </g>
   <g id="patch_5">
    <path d="M 57.6 307.584 
L 414.72 307.584 
" style="fill:none;stroke:#000000;stroke-linecap:square;stroke-linejoin:miter;stroke-width:0.8;"/>
   </g>
   <g id="patch_6">
    <path d="M 57.6 41.472 
L 414.72 41.472 
" style="fill:none;stroke:#000000;stroke-linecap:square;stroke-linejoin:miter;stroke-width:0.8;"/>
   </g>
  </g>
 </g>
 <defs>
  <clipPath id="p1ccf285abd">
   <rect height="266.112" width="357.12" x="57.6" y="41.472"/>
  </clipPath>
 </defs>
</svg>
