<?xml version="1.0" encoding="utf-8" standalone="no"?>
<!DOCTYPE svg PUBLIC "-//W3C//DTD SVG 1.1//EN"
  "http://www.w3.org/Graphics/SVG/1.1/DTD/svg11.dtd">
<!-- Created with matplotlib (https://matplotlib.org/) -->
<svg height="345.6pt" version="1.1" viewBox="0 0 460.8 345.6" width="460.8pt" xmlns="http://www.w3.org/2000/svg" xmlns:xlink="http://www.w3.org/1999/xlink">
 <metadata>
  <rdf:RDF xmlns:cc="http://creativecommons.org/ns#" xmlns:dc="http://purl.org/dc/elements/1.1/" xmlns:rdf="http://www.w3.org/1999/02/22-rdf-syntax-ns#">
   <cc:Work>
    <dc:type rdf:resource="http://purl.org/dc/dcmitype/StillImage"/>
    <dc:date>2021-06-24T08:52:29.984993</dc:date>
    <dc:format>image/svg+xml</dc:format>
    <dc:creator>
     <cc:Agent>
      <dc:title>Matplotlib v3.3.3, https://matplotlib.org/</dc:title>
     </cc:Agent>
    </dc:creator>
   </cc:Work>
  </rdf:RDF>
 </metadata>
 <defs>
  <style type="text/css">*{stroke-linecap:butt;stroke-linejoin:round;}</style>
 </defs>
 <g id="figure_1">
  <g id="patch_1">
   <path d="M 0 345.6 
L 460.8 345.6 
L 460.8 0 
L 0 0 
z
" style="fill:#ffffff;"/>
  </g>
  <g id="axes_1">
   <g id="patch_2">
    <path d="M 57.6 307.584 
L 414.72 307.584 
L 414.72 41.472 
L 57.6 41.472 
z
" style="fill:#7d9051;"/>
   </g>
   <g id="matplotlib.axis_1">
    <g id="xtick_1">
     <g id="line2d_1">
      <defs>
       <path d="M 0 0 
L 0 3.5 
" id="m45476249a0" style="stroke:#000000;stroke-width:0.8;"/>
      </defs>
      <g>
       <use style="stroke:#000000;stroke-width:0.8;" x="71.466952" xlink:href="#m45476249a0" y="307.584"/>
      </g>
     </g>
     <g id="text_1">
      <!-- −150 -->
      <g transform="translate(57.733359 322.182437)scale(0.1 -0.1)">
       <defs>
        <path d="M 10.59375 35.5 
L 73.1875 35.5 
L 73.1875 27.203125 
L 10.59375 27.203125 
z
" id="DejaVuSans-8722"/>
        <path d="M 12.40625 8.296875 
L 28.515625 8.296875 
L 28.515625 63.921875 
L 10.984375 60.40625 
L 10.984375 69.390625 
L 28.421875 72.90625 
L 38.28125 72.90625 
L 38.28125 8.296875 
L 54.390625 8.296875 
L 54.390625 0 
L 12.40625 0 
z
" id="DejaVuSans-49"/>
        <path d="M 10.796875 72.90625 
L 49.515625 72.90625 
L 49.515625 64.59375 
L 19.828125 64.59375 
L 19.828125 46.734375 
Q 21.96875 47.46875 24.109375 47.828125 
Q 26.265625 48.1875 28.421875 48.1875 
Q 40.625 48.1875 47.75 41.5 
Q 54.890625 34.8125 54.890625 23.390625 
Q 54.890625 11.625 47.5625 5.09375 
Q 40.234375 -1.421875 26.90625 -1.421875 
Q 22.3125 -1.421875 17.546875 -0.640625 
Q 12.796875 0.140625 7.71875 1.703125 
L 7.71875 11.625 
Q 12.109375 9.234375 16.796875 8.0625 
Q 21.484375 6.890625 26.703125 6.890625 
Q 35.15625 6.890625 40.078125 11.328125 
Q 45.015625 15.765625 45.015625 23.390625 
Q 45.015625 31 40.078125 35.4375 
Q 35.15625 39.890625 26.703125 39.890625 
Q 22.75 39.890625 18.8125 39.015625 
Q 14.890625 38.140625 10.796875 36.28125 
z
" id="DejaVuSans-53"/>
        <path d="M 31.78125 66.40625 
Q 24.171875 66.40625 20.328125 58.90625 
Q 16.5 51.421875 16.5 36.375 
Q 16.5 21.390625 20.328125 13.890625 
Q 24.171875 6.390625 31.78125 6.390625 
Q 39.453125 6.390625 43.28125 13.890625 
Q 47.125 21.390625 47.125 36.375 
Q 47.125 51.421875 43.28125 58.90625 
Q 39.453125 66.40625 31.78125 66.40625 
z
M 31.78125 74.21875 
Q 44.046875 74.21875 50.515625 64.515625 
Q 56.984375 54.828125 56.984375 36.375 
Q 56.984375 17.96875 50.515625 8.265625 
Q 44.046875 -1.421875 31.78125 -1.421875 
Q 19.53125 -1.421875 13.0625 8.265625 
Q 6.59375 17.96875 6.59375 36.375 
Q 6.59375 54.828125 13.0625 64.515625 
Q 19.53125 74.21875 31.78125 74.21875 
z
" id="DejaVuSans-48"/>
       </defs>
       <use xlink:href="#DejaVuSans-8722"/>
       <use x="83.789062" xlink:href="#DejaVuSans-49"/>
       <use x="147.412109" xlink:href="#DejaVuSans-53"/>
       <use x="211.035156" xlink:href="#DejaVuSans-48"/>
      </g>
     </g>
    </g>
    <g id="xtick_2">
     <g id="line2d_2">
      <g>
       <use style="stroke:#000000;stroke-width:0.8;" x="147.824735" xlink:href="#m45476249a0" y="307.584"/>
      </g>
     </g>
     <g id="text_2">
      <!-- −100 -->
      <g transform="translate(134.091141 322.182437)scale(0.1 -0.1)">
       <use xlink:href="#DejaVuSans-8722"/>
       <use x="83.789062" xlink:href="#DejaVuSans-49"/>
       <use x="147.412109" xlink:href="#DejaVuSans-48"/>
       <use x="211.035156" xlink:href="#DejaVuSans-48"/>
      </g>
     </g>
    </g>
    <g id="xtick_3">
     <g id="line2d_3">
      <g>
       <use style="stroke:#000000;stroke-width:0.8;" x="224.182518" xlink:href="#m45476249a0" y="307.584"/>
      </g>
     </g>
     <g id="text_3">
      <!-- −50 -->
      <g transform="translate(213.630174 322.182437)scale(0.1 -0.1)">
       <use xlink:href="#DejaVuSans-8722"/>
       <use x="83.789062" xlink:href="#DejaVuSans-53"/>
       <use x="147.412109" xlink:href="#DejaVuSans-48"/>
      </g>
     </g>
    </g>
    <g id="xtick_4">
     <g id="line2d_4">
      <g>
       <use style="stroke:#000000;stroke-width:0.8;" x="300.540301" xlink:href="#m45476249a0" y="307.584"/>
      </g>
     </g>
     <g id="text_4">
      <!-- 0 -->
      <g transform="translate(297.359051 322.182437)scale(0.1 -0.1)">
       <use xlink:href="#DejaVuSans-48"/>
      </g>
     </g>
    </g>
    <g id="xtick_5">
     <g id="line2d_5">
      <g>
       <use style="stroke:#000000;stroke-width:0.8;" x="376.898084" xlink:href="#m45476249a0" y="307.584"/>
      </g>
     </g>
     <g id="text_5">
      <!-- 50 -->
      <g transform="translate(370.535584 322.182437)scale(0.1 -0.1)">
       <use xlink:href="#DejaVuSans-53"/>
       <use x="63.623047" xlink:href="#DejaVuSans-48"/>
      </g>
     </g>
    </g>
   </g>
   <g id="matplotlib.axis_2">
    <g id="ytick_1">
     <g id="line2d_6">
      <defs>
       <path d="M 0 0 
L -3.5 0 
" id="m0182fc1324" style="stroke:#000000;stroke-width:0.8;"/>
      </defs>
      <g>
       <use style="stroke:#000000;stroke-width:0.8;" x="57.6" xlink:href="#m0182fc1324" y="295.429229"/>
      </g>
     </g>
     <g id="text_6">
      <!-- 0 -->
      <g transform="translate(44.2375 299.228448)scale(0.1 -0.1)">
       <use xlink:href="#DejaVuSans-48"/>
      </g>
     </g>
    </g>
    <g id="ytick_2">
     <g id="line2d_7">
      <g>
       <use style="stroke:#000000;stroke-width:0.8;" x="57.6" xlink:href="#m0182fc1324" y="264.886116"/>
      </g>
     </g>
     <g id="text_7">
      <!-- 20 -->
      <g transform="translate(37.875 268.685335)scale(0.1 -0.1)">
       <defs>
        <path d="M 19.1875 8.296875 
L 53.609375 8.296875 
L 53.609375 0 
L 7.328125 0 
L 7.328125 8.296875 
Q 12.9375 14.109375 22.625 23.890625 
Q 32.328125 33.6875 34.8125 36.53125 
Q 39.546875 41.84375 41.421875 45.53125 
Q 43.3125 49.21875 43.3125 52.78125 
Q 43.3125 58.59375 39.234375 62.25 
Q 35.15625 65.921875 28.609375 65.921875 
Q 23.96875 65.921875 18.8125 64.3125 
Q 13.671875 62.703125 7.8125 59.421875 
L 7.8125 69.390625 
Q 13.765625 71.78125 18.9375 73 
Q 24.125 74.21875 28.421875 74.21875 
Q 39.75 74.21875 46.484375 68.546875 
Q 53.21875 62.890625 53.21875 53.421875 
Q 53.21875 48.921875 51.53125 44.890625 
Q 49.859375 40.875 45.40625 35.40625 
Q 44.1875 33.984375 37.640625 27.21875 
Q 31.109375 20.453125 19.1875 8.296875 
z
" id="DejaVuSans-50"/>
       </defs>
       <use xlink:href="#DejaVuSans-50"/>
       <use x="63.623047" xlink:href="#DejaVuSans-48"/>
      </g>
     </g>
    </g>
    <g id="ytick_3">
     <g id="line2d_8">
      <g>
       <use style="stroke:#000000;stroke-width:0.8;" x="57.6" xlink:href="#m0182fc1324" y="234.343003"/>
      </g>
     </g>
     <g id="text_8">
      <!-- 40 -->
      <g transform="translate(37.875 238.142222)scale(0.1 -0.1)">
       <defs>
        <path d="M 37.796875 64.3125 
L 12.890625 25.390625 
L 37.796875 25.390625 
z
M 35.203125 72.90625 
L 47.609375 72.90625 
L 47.609375 25.390625 
L 58.015625 25.390625 
L 58.015625 17.1875 
L 47.609375 17.1875 
L 47.609375 0 
L 37.796875 0 
L 37.796875 17.1875 
L 4.890625 17.1875 
L 4.890625 26.703125 
z
" id="DejaVuSans-52"/>
       </defs>
       <use xlink:href="#DejaVuSans-52"/>
       <use x="63.623047" xlink:href="#DejaVuSans-48"/>
      </g>
     </g>
    </g>
    <g id="ytick_4">
     <g id="line2d_9">
      <g>
       <use style="stroke:#000000;stroke-width:0.8;" x="57.6" xlink:href="#m0182fc1324" y="203.79989"/>
      </g>
     </g>
     <g id="text_9">
      <!-- 60 -->
      <g transform="translate(37.875 207.599109)scale(0.1 -0.1)">
       <defs>
        <path d="M 33.015625 40.375 
Q 26.375 40.375 22.484375 35.828125 
Q 18.609375 31.296875 18.609375 23.390625 
Q 18.609375 15.53125 22.484375 10.953125 
Q 26.375 6.390625 33.015625 6.390625 
Q 39.65625 6.390625 43.53125 10.953125 
Q 47.40625 15.53125 47.40625 23.390625 
Q 47.40625 31.296875 43.53125 35.828125 
Q 39.65625 40.375 33.015625 40.375 
z
M 52.59375 71.296875 
L 52.59375 62.3125 
Q 48.875 64.0625 45.09375 64.984375 
Q 41.3125 65.921875 37.59375 65.921875 
Q 27.828125 65.921875 22.671875 59.328125 
Q 17.53125 52.734375 16.796875 39.40625 
Q 19.671875 43.65625 24.015625 45.921875 
Q 28.375 48.1875 33.59375 48.1875 
Q 44.578125 48.1875 50.953125 41.515625 
Q 57.328125 34.859375 57.328125 23.390625 
Q 57.328125 12.15625 50.6875 5.359375 
Q 44.046875 -1.421875 33.015625 -1.421875 
Q 20.359375 -1.421875 13.671875 8.265625 
Q 6.984375 17.96875 6.984375 36.375 
Q 6.984375 53.65625 15.1875 63.9375 
Q 23.390625 74.21875 37.203125 74.21875 
Q 40.921875 74.21875 44.703125 73.484375 
Q 48.484375 72.75 52.59375 71.296875 
z
" id="DejaVuSans-54"/>
       </defs>
       <use xlink:href="#DejaVuSans-54"/>
       <use x="63.623047" xlink:href="#DejaVuSans-48"/>
      </g>
     </g>
    </g>
    <g id="ytick_5">
     <g id="line2d_10">
      <g>
       <use style="stroke:#000000;stroke-width:0.8;" x="57.6" xlink:href="#m0182fc1324" y="173.256777"/>
      </g>
     </g>
     <g id="text_10">
      <!-- 80 -->
      <g transform="translate(37.875 177.055995)scale(0.1 -0.1)">
       <defs>
        <path d="M 31.78125 34.625 
Q 24.75 34.625 20.71875 30.859375 
Q 16.703125 27.09375 16.703125 20.515625 
Q 16.703125 13.921875 20.71875 10.15625 
Q 24.75 6.390625 31.78125 6.390625 
Q 38.8125 6.390625 42.859375 10.171875 
Q 46.921875 13.96875 46.921875 20.515625 
Q 46.921875 27.09375 42.890625 30.859375 
Q 38.875 34.625 31.78125 34.625 
z
M 21.921875 38.8125 
Q 15.578125 40.375 12.03125 44.71875 
Q 8.5 49.078125 8.5 55.328125 
Q 8.5 64.0625 14.71875 69.140625 
Q 20.953125 74.21875 31.78125 74.21875 
Q 42.671875 74.21875 48.875 69.140625 
Q 55.078125 64.0625 55.078125 55.328125 
Q 55.078125 49.078125 51.53125 44.71875 
Q 48 40.375 41.703125 38.8125 
Q 48.828125 37.15625 52.796875 32.3125 
Q 56.78125 27.484375 56.78125 20.515625 
Q 56.78125 9.90625 50.3125 4.234375 
Q 43.84375 -1.421875 31.78125 -1.421875 
Q 19.734375 -1.421875 13.25 4.234375 
Q 6.78125 9.90625 6.78125 20.515625 
Q 6.78125 27.484375 10.78125 32.3125 
Q 14.796875 37.15625 21.921875 38.8125 
z
M 18.3125 54.390625 
Q 18.3125 48.734375 21.84375 45.5625 
Q 25.390625 42.390625 31.78125 42.390625 
Q 38.140625 42.390625 41.71875 45.5625 
Q 45.3125 48.734375 45.3125 54.390625 
Q 45.3125 60.0625 41.71875 63.234375 
Q 38.140625 66.40625 31.78125 66.40625 
Q 25.390625 66.40625 21.84375 63.234375 
Q 18.3125 60.0625 18.3125 54.390625 
z
" id="DejaVuSans-56"/>
       </defs>
       <use xlink:href="#DejaVuSans-56"/>
       <use x="63.623047" xlink:href="#DejaVuSans-48"/>
      </g>
     </g>
    </g>
    <g id="ytick_6">
     <g id="line2d_11">
      <g>
       <use style="stroke:#000000;stroke-width:0.8;" x="57.6" xlink:href="#m0182fc1324" y="142.713663"/>
      </g>
     </g>
     <g id="text_11">
      <!-- 100 -->
      <g transform="translate(31.5125 146.512882)scale(0.1 -0.1)">
       <use xlink:href="#DejaVuSans-49"/>
       <use x="63.623047" xlink:href="#DejaVuSans-48"/>
       <use x="127.246094" xlink:href="#DejaVuSans-48"/>
      </g>
     </g>
    </g>
    <g id="ytick_7">
     <g id="line2d_12">
      <g>
       <use style="stroke:#000000;stroke-width:0.8;" x="57.6" xlink:href="#m0182fc1324" y="112.17055"/>
      </g>
     </g>
     <g id="text_12">
      <!-- 120 -->
      <g transform="translate(31.5125 115.969769)scale(0.1 -0.1)">
       <use xlink:href="#DejaVuSans-49"/>
       <use x="63.623047" xlink:href="#DejaVuSans-50"/>
       <use x="127.246094" xlink:href="#DejaVuSans-48"/>
      </g>
     </g>
    </g>
    <g id="ytick_8">
     <g id="line2d_13">
      <g>
       <use style="stroke:#000000;stroke-width:0.8;" x="57.6" xlink:href="#m0182fc1324" y="81.627437"/>
      </g>
     </g>
     <g id="text_13">
      <!-- 140 -->
      <g transform="translate(31.5125 85.426656)scale(0.1 -0.1)">
       <use xlink:href="#DejaVuSans-49"/>
       <use x="63.623047" xlink:href="#DejaVuSans-52"/>
       <use x="127.246094" xlink:href="#DejaVuSans-48"/>
      </g>
     </g>
    </g>
    <g id="ytick_9">
     <g id="line2d_14">
      <g>
       <use style="stroke:#000000;stroke-width:0.8;" x="57.6" xlink:href="#m0182fc1324" y="51.084324"/>
      </g>
     </g>
     <g id="text_14">
      <!-- 160 -->
      <g transform="translate(31.5125 54.883543)scale(0.1 -0.1)">
       <use xlink:href="#DejaVuSans-49"/>
       <use x="63.623047" xlink:href="#DejaVuSans-54"/>
       <use x="127.246094" xlink:href="#DejaVuSans-48"/>
      </g>
     </g>
    </g>
   </g>
   <g id="line2d_15">
    <path clip-path="url(#pf5f7c25403)" d="M 300.540301 295.429229 
L 300.812208 277.346864 
L 301.354003 253.222918 
L 301.948689 245.098153 
L 302.579729 236.966321 
L 302.814443 230.913819 
L 302.755074 226.920774 
L 302.459412 222.97366 
L 301.872928 219.083076 
L 301.420804 217.163384 
L 300.826839 215.26187 
L 299.28739 211.506038 
L 297.402588 207.800898 
L 294.251617 202.306122 
L 291.156152 196.842824 
L 289.370025 193.193645 
L 288.61572 191.361457 
L 287.978589 189.521755 
L 287.477132 187.672705 
L 287.129851 185.812472 
L 286.955247 183.939221 
L 286.987232 182.050543 
L 287.230258 180.146738 
L 287.658629 178.230038 
L 288.246651 176.302673 
L 289.798873 172.424867 
L 291.681372 168.531162 
L 295.614989 160.767429 
L 297.255002 156.933084 
L 297.90338 155.035598 
L 298.40308 153.15421 
L 298.728408 151.291151 
L 298.853671 149.44865 
L 298.753173 147.628938 
L 298.425266 145.839095 
L 297.899119 144.081987 
L 297.195265 142.353518 
L 296.33424 140.649593 
L 294.22281 137.298996 
L 291.729101 133.997434 
L 282.362376 122.355155 
L 280.181297 118.86885 
L 279.27595 117.078566 
L 278.521443 115.251401 
L 277.927492 113.362138 
L 277.477318 111.396015 
L 277.15171 109.364625 
L 276.797357 105.152403 
L 276.710754 100.818198 
L 276.657149 90.057538 
L 276.297465 86.026622 
L 275.968303 84.116102 
L 275.513982 82.290995 
L 274.915293 80.562893 
L 274.153025 78.943386 
L 273.207968 77.444064 
L 272.09184 76.040076 
L 270.83652 74.698354 
L 269.453044 73.418167 
L 267.952447 72.198784 
L 264.64403 69.939507 
L 260.999553 67.914677 
L 257.1073 66.118445 
L 253.055552 64.544966 
L 248.932594 63.188391 
L 244.826708 62.042874 
L 240.826177 61.102567 
L 236.973342 60.372633 
L 233.056889 59.906906 
L 229.057955 59.69424 
L 225.000958 59.711772 
L 220.910318 59.936639 
L 216.810453 60.345977 
L 212.725782 60.916922 
L 206.680679 62.026339 
L 200.807118 63.370765 
L 197.000578 64.463289 
L 193.253899 65.795904 
L 189.555857 67.323594 
L 184.075437 69.882419 
L 175.025585 74.484754 
L 167.760449 78.065335 
L 165.928965 78.899519 
L 165.928965 78.899519 
" style="fill:none;stroke:#fea952;stroke-linecap:square;"/>
   </g>
   <g id="line2d_16">
    <path clip-path="url(#pf5f7c25403)" d="M 294.431961 295.370459 
L 294.704762 277.226967 
L 295.25632 252.857498 
L 295.861605 244.585638 
L 296.588281 234.698673 
L 296.704662 229.083353 
L 296.557197 225.499823 
L 296.185577 222.055339 
L 295.590021 218.984713 
L 294.517177 215.834506 
L 292.978267 212.50258 
L 291.085926 209.015703 
L 285.718714 199.626622 
L 283.72138 195.519171 
L 282.843459 193.360525 
L 282.082927 191.120641 
L 281.472254 188.793737 
L 281.047592 186.379395 
L 280.8475 183.835783 
L 280.92778 181.277039 
L 281.268709 178.814368 
L 281.81588 176.447467 
L 282.523143 174.168023 
L 284.268459 169.830683 
L 286.248404 165.738651 
L 290.047991 158.252712 
L 291.474532 154.957877 
L 292.385513 152.10342 
L 292.754342 149.785498 
L 292.744554 148.729743 
L 292.573364 147.591385 
L 292.241584 146.385804 
L 291.743196 145.108552 
L 291.079109 143.763894 
L 289.290781 140.903211 
L 286.994096 137.856837 
L 278.650208 127.643236 
L 275.954118 123.727616 
L 274.730066 121.625541 
L 273.629777 119.41009 
L 272.694016 117.083441 
L 271.97296 114.725521 
L 271.445687 112.362813 
L 271.076886 110.006322 
L 270.691692 105.342465 
L 270.602184 100.792797 
L 270.562063 90.463978 
L 270.277535 87.06379 
L 269.741936 84.290682 
L 268.985323 82.200705 
L 268.426224 81.245406 
L 267.631154 80.21351 
L 266.687686 79.181929 
L 264.37808 77.152487 
L 261.566802 75.216433 
L 258.345917 73.416812 
L 254.815248 71.780757 
L 251.075879 70.323907 
L 247.228034 69.054373 
L 243.37088 67.975481 
L 237.843149 66.725269 
L 234.410583 66.184155 
L 230.834805 65.874607 
L 227.143612 65.783321 
L 223.365806 65.894734 
L 219.530412 66.191402 
L 215.666234 66.654407 
L 209.877915 67.616769 
L 204.182085 68.837437 
L 200.680809 69.726164 
L 197.24797 70.828563 
L 193.793651 72.158081 
L 188.557211 74.499443 
L 181.435574 78.05901 
L 172.19995 82.721503 
L 168.460987 84.458668 
L 168.460987 84.458668 
" style="fill:none;stroke:#ffffff;stroke-linecap:square;"/>
   </g>
   <g id="line2d_17">
    <path clip-path="url(#pf5f7c25403)" d="M 306.648641 295.488 
L 306.919654 277.466761 
L 307.451686 253.588338 
L 308.035774 245.610667 
L 308.678968 237.304768 
L 308.923056 230.902968 
L 308.853439 226.56692 
L 308.517225 222.187421 
L 307.818868 217.682695 
L 307.251588 215.342055 
L 306.536133 213.08949 
L 305.701891 210.918894 
L 303.779548 206.793517 
L 301.667938 202.909796 
L 296.59359 194.059025 
L 295.018671 190.868119 
L 293.874251 187.922869 
L 293.21211 185.24555 
L 293.062994 184.042659 
L 293.046685 182.824047 
L 293.191806 181.479108 
L 293.501377 180.012609 
L 293.970159 178.437322 
L 295.329288 175.01905 
L 297.114341 171.323674 
L 301.181988 163.282146 
L 303.035471 158.908291 
L 303.807306 156.603692 
L 304.420647 154.205001 
L 304.822963 151.705489 
L 304.952999 149.111801 
L 304.761792 146.528132 
L 304.277168 144.086806 
L 303.556653 141.778171 
L 302.647335 139.598485 
L 301.589371 137.535292 
L 300.415947 135.572703 
L 297.830212 131.887232 
L 295.07744 128.437494 
L 288.543871 120.475495 
L 286.479784 117.52508 
L 284.922123 114.747043 
L 284.34887 113.419362 
L 283.882025 111.998755 
L 283.508949 110.429217 
L 283.027979 106.895211 
L 282.838571 102.940203 
L 282.591015 87.328131 
L 282.317394 84.989454 
L 281.896029 82.640523 
L 281.286029 80.291308 
L 280.442295 77.961449 
L 279.320726 75.686066 
L 277.989712 73.642723 
L 276.552527 71.866643 
L 274.985355 70.214779 
L 273.305377 68.677407 
L 271.526813 67.245081 
L 269.661827 65.90927 
L 265.715166 63.498755 
L 261.544783 61.39956 
L 257.226331 59.579168 
L 252.835615 58.014431 
L 248.449548 56.688208 
L 244.145845 55.587167 
L 239.942867 54.68981 
L 235.643321 54.029261 
L 231.297607 53.666131 
L 226.926764 53.568 
L 222.550828 53.704702 
L 218.189613 54.047954 
L 213.86315 54.570948 
L 207.483531 55.636452 
L 201.299564 56.96511 
L 197.110518 58.042239 
L 192.992944 59.376234 
L 189.005348 60.918276 
L 185.132039 62.613929 
L 179.501847 65.334036 
L 165.228427 72.506186 
L 163.396944 73.34037 
L 163.396944 73.34037 
" style="fill:none;stroke:#ffffff;stroke-linecap:square;"/>
   </g>
   <g id="patch_3">
    <path d="M 57.6 307.584 
L 57.6 41.472 
" style="fill:none;stroke:#000000;stroke-linecap:square;stroke-linejoin:miter;stroke-width:0.8;"/>
   </g>
   <g id="patch_4">
    <path d="M 414.72 307.584 
L 414.72 41.472 
" style="fill:none;stroke:#000000;stroke-linecap:square;stroke-linejoin:miter;stroke-width:0.8;"/>
   </g>
   <g id="patch_5">
    <path d="M 57.6 307.584 
L 414.72 307.584 
" style="fill:none;stroke:#000000;stroke-linecap:square;stroke-linejoin:miter;stroke-width:0.8;"/>
   </g>
   <g id="patch_6">
    <path d="M 57.6 41.472 
L 414.72 41.472 
" style="fill:none;stroke:#000000;stroke-linecap:square;stroke-linejoin:miter;stroke-width:0.8;"/>
   </g>
  </g>
 </g>
 <defs>
  <clipPath id="pf5f7c25403">
   <rect height="266.112" width="357.12" x="57.6" y="41.472"/>
  </clipPath>
 </defs>
</svg>
