<?xml version="1.0" encoding="utf-8" standalone="no"?>
<!DOCTYPE svg PUBLIC "-//W3C//DTD SVG 1.1//EN"
  "http://www.w3.org/Graphics/SVG/1.1/DTD/svg11.dtd">
<!-- Created with matplotlib (https://matplotlib.org/) -->
<svg height="345.6pt" version="1.1" viewBox="0 0 460.8 345.6" width="460.8pt" xmlns="http://www.w3.org/2000/svg" xmlns:xlink="http://www.w3.org/1999/xlink">
 <metadata>
  <rdf:RDF xmlns:cc="http://creativecommons.org/ns#" xmlns:dc="http://purl.org/dc/elements/1.1/" xmlns:rdf="http://www.w3.org/1999/02/22-rdf-syntax-ns#">
   <cc:Work>
    <dc:type rdf:resource="http://purl.org/dc/dcmitype/StillImage"/>
    <dc:date>2021-06-19T14:01:12.477692</dc:date>
    <dc:format>image/svg+xml</dc:format>
    <dc:creator>
     <cc:Agent>
      <dc:title>Matplotlib v3.3.3, https://matplotlib.org/</dc:title>
     </cc:Agent>
    </dc:creator>
   </cc:Work>
  </rdf:RDF>
 </metadata>
 <defs>
  <style type="text/css">*{stroke-linecap:butt;stroke-linejoin:round;}</style>
 </defs>
 <g id="figure_1">
  <g id="patch_1">
   <path d="M 0 345.6 
L 460.8 345.6 
L 460.8 0 
L 0 0 
z
" style="fill:#ffffff;"/>
  </g>
  <g id="axes_1">
   <g id="patch_2">
    <path d="M 57.6 307.584 
L 414.72 307.584 
L 414.72 41.472 
L 57.6 41.472 
z
" style="fill:#7d9051;"/>
   </g>
   <g id="matplotlib.axis_1">
    <g id="xtick_1">
     <g id="line2d_1">
      <defs>
       <path d="M 0 0 
L 0 3.5 
" id="m1af58e4d56" style="stroke:#000000;stroke-width:0.8;"/>
      </defs>
      <g>
       <use style="stroke:#000000;stroke-width:0.8;" x="70.95194" xlink:href="#m1af58e4d56" y="307.584"/>
      </g>
     </g>
     <g id="text_1">
      <!-- −120 -->
      <g transform="translate(57.218346 322.182437)scale(0.1 -0.1)">
       <defs>
        <path d="M 10.59375 35.5 
L 73.1875 35.5 
L 73.1875 27.203125 
L 10.59375 27.203125 
z
" id="DejaVuSans-8722"/>
        <path d="M 12.40625 8.296875 
L 28.515625 8.296875 
L 28.515625 63.921875 
L 10.984375 60.40625 
L 10.984375 69.390625 
L 28.421875 72.90625 
L 38.28125 72.90625 
L 38.28125 8.296875 
L 54.390625 8.296875 
L 54.390625 0 
L 12.40625 0 
z
" id="DejaVuSans-49"/>
        <path d="M 19.1875 8.296875 
L 53.609375 8.296875 
L 53.609375 0 
L 7.328125 0 
L 7.328125 8.296875 
Q 12.9375 14.109375 22.625 23.890625 
Q 32.328125 33.6875 34.8125 36.53125 
Q 39.546875 41.84375 41.421875 45.53125 
Q 43.3125 49.21875 43.3125 52.78125 
Q 43.3125 58.59375 39.234375 62.25 
Q 35.15625 65.921875 28.609375 65.921875 
Q 23.96875 65.921875 18.8125 64.3125 
Q 13.671875 62.703125 7.8125 59.421875 
L 7.8125 69.390625 
Q 13.765625 71.78125 18.9375 73 
Q 24.125 74.21875 28.421875 74.21875 
Q 39.75 74.21875 46.484375 68.546875 
Q 53.21875 62.890625 53.21875 53.421875 
Q 53.21875 48.921875 51.53125 44.890625 
Q 49.859375 40.875 45.40625 35.40625 
Q 44.1875 33.984375 37.640625 27.21875 
Q 31.109375 20.453125 19.1875 8.296875 
z
" id="DejaVuSans-50"/>
        <path d="M 31.78125 66.40625 
Q 24.171875 66.40625 20.328125 58.90625 
Q 16.5 51.421875 16.5 36.375 
Q 16.5 21.390625 20.328125 13.890625 
Q 24.171875 6.390625 31.78125 6.390625 
Q 39.453125 6.390625 43.28125 13.890625 
Q 47.125 21.390625 47.125 36.375 
Q 47.125 51.421875 43.28125 58.90625 
Q 39.453125 66.40625 31.78125 66.40625 
z
M 31.78125 74.21875 
Q 44.046875 74.21875 50.515625 64.515625 
Q 56.984375 54.828125 56.984375 36.375 
Q 56.984375 17.96875 50.515625 8.265625 
Q 44.046875 -1.421875 31.78125 -1.421875 
Q 19.53125 -1.421875 13.0625 8.265625 
Q 6.59375 17.96875 6.59375 36.375 
Q 6.59375 54.828125 13.0625 64.515625 
Q 19.53125 74.21875 31.78125 74.21875 
z
" id="DejaVuSans-48"/>
       </defs>
       <use xlink:href="#DejaVuSans-8722"/>
       <use x="83.789062" xlink:href="#DejaVuSans-49"/>
       <use x="147.412109" xlink:href="#DejaVuSans-50"/>
       <use x="211.035156" xlink:href="#DejaVuSans-48"/>
      </g>
     </g>
    </g>
    <g id="xtick_2">
     <g id="line2d_2">
      <g>
       <use style="stroke:#000000;stroke-width:0.8;" x="112.711281" xlink:href="#m1af58e4d56" y="307.584"/>
      </g>
     </g>
     <g id="text_2">
      <!-- −100 -->
      <g transform="translate(98.977688 322.182437)scale(0.1 -0.1)">
       <use xlink:href="#DejaVuSans-8722"/>
       <use x="83.789062" xlink:href="#DejaVuSans-49"/>
       <use x="147.412109" xlink:href="#DejaVuSans-48"/>
       <use x="211.035156" xlink:href="#DejaVuSans-48"/>
      </g>
     </g>
    </g>
    <g id="xtick_3">
     <g id="line2d_3">
      <g>
       <use style="stroke:#000000;stroke-width:0.8;" x="154.470623" xlink:href="#m1af58e4d56" y="307.584"/>
      </g>
     </g>
     <g id="text_3">
      <!-- −80 -->
      <g transform="translate(143.918279 322.182437)scale(0.1 -0.1)">
       <defs>
        <path d="M 31.78125 34.625 
Q 24.75 34.625 20.71875 30.859375 
Q 16.703125 27.09375 16.703125 20.515625 
Q 16.703125 13.921875 20.71875 10.15625 
Q 24.75 6.390625 31.78125 6.390625 
Q 38.8125 6.390625 42.859375 10.171875 
Q 46.921875 13.96875 46.921875 20.515625 
Q 46.921875 27.09375 42.890625 30.859375 
Q 38.875 34.625 31.78125 34.625 
z
M 21.921875 38.8125 
Q 15.578125 40.375 12.03125 44.71875 
Q 8.5 49.078125 8.5 55.328125 
Q 8.5 64.0625 14.71875 69.140625 
Q 20.953125 74.21875 31.78125 74.21875 
Q 42.671875 74.21875 48.875 69.140625 
Q 55.078125 64.0625 55.078125 55.328125 
Q 55.078125 49.078125 51.53125 44.71875 
Q 48 40.375 41.703125 38.8125 
Q 48.828125 37.15625 52.796875 32.3125 
Q 56.78125 27.484375 56.78125 20.515625 
Q 56.78125 9.90625 50.3125 4.234375 
Q 43.84375 -1.421875 31.78125 -1.421875 
Q 19.734375 -1.421875 13.25 4.234375 
Q 6.78125 9.90625 6.78125 20.515625 
Q 6.78125 27.484375 10.78125 32.3125 
Q 14.796875 37.15625 21.921875 38.8125 
z
M 18.3125 54.390625 
Q 18.3125 48.734375 21.84375 45.5625 
Q 25.390625 42.390625 31.78125 42.390625 
Q 38.140625 42.390625 41.71875 45.5625 
Q 45.3125 48.734375 45.3125 54.390625 
Q 45.3125 60.0625 41.71875 63.234375 
Q 38.140625 66.40625 31.78125 66.40625 
Q 25.390625 66.40625 21.84375 63.234375 
Q 18.3125 60.0625 18.3125 54.390625 
z
" id="DejaVuSans-56"/>
       </defs>
       <use xlink:href="#DejaVuSans-8722"/>
       <use x="83.789062" xlink:href="#DejaVuSans-56"/>
       <use x="147.412109" xlink:href="#DejaVuSans-48"/>
      </g>
     </g>
    </g>
    <g id="xtick_4">
     <g id="line2d_4">
      <g>
       <use style="stroke:#000000;stroke-width:0.8;" x="196.229964" xlink:href="#m1af58e4d56" y="307.584"/>
      </g>
     </g>
     <g id="text_4">
      <!-- −60 -->
      <g transform="translate(185.67762 322.182437)scale(0.1 -0.1)">
       <defs>
        <path d="M 33.015625 40.375 
Q 26.375 40.375 22.484375 35.828125 
Q 18.609375 31.296875 18.609375 23.390625 
Q 18.609375 15.53125 22.484375 10.953125 
Q 26.375 6.390625 33.015625 6.390625 
Q 39.65625 6.390625 43.53125 10.953125 
Q 47.40625 15.53125 47.40625 23.390625 
Q 47.40625 31.296875 43.53125 35.828125 
Q 39.65625 40.375 33.015625 40.375 
z
M 52.59375 71.296875 
L 52.59375 62.3125 
Q 48.875 64.0625 45.09375 64.984375 
Q 41.3125 65.921875 37.59375 65.921875 
Q 27.828125 65.921875 22.671875 59.328125 
Q 17.53125 52.734375 16.796875 39.40625 
Q 19.671875 43.65625 24.015625 45.921875 
Q 28.375 48.1875 33.59375 48.1875 
Q 44.578125 48.1875 50.953125 41.515625 
Q 57.328125 34.859375 57.328125 23.390625 
Q 57.328125 12.15625 50.6875 5.359375 
Q 44.046875 -1.421875 33.015625 -1.421875 
Q 20.359375 -1.421875 13.671875 8.265625 
Q 6.984375 17.96875 6.984375 36.375 
Q 6.984375 53.65625 15.1875 63.9375 
Q 23.390625 74.21875 37.203125 74.21875 
Q 40.921875 74.21875 44.703125 73.484375 
Q 48.484375 72.75 52.59375 71.296875 
z
" id="DejaVuSans-54"/>
       </defs>
       <use xlink:href="#DejaVuSans-8722"/>
       <use x="83.789062" xlink:href="#DejaVuSans-54"/>
       <use x="147.412109" xlink:href="#DejaVuSans-48"/>
      </g>
     </g>
    </g>
    <g id="xtick_5">
     <g id="line2d_5">
      <g>
       <use style="stroke:#000000;stroke-width:0.8;" x="237.989305" xlink:href="#m1af58e4d56" y="307.584"/>
      </g>
     </g>
     <g id="text_5">
      <!-- −40 -->
      <g transform="translate(227.436961 322.182437)scale(0.1 -0.1)">
       <defs>
        <path d="M 37.796875 64.3125 
L 12.890625 25.390625 
L 37.796875 25.390625 
z
M 35.203125 72.90625 
L 47.609375 72.90625 
L 47.609375 25.390625 
L 58.015625 25.390625 
L 58.015625 17.1875 
L 47.609375 17.1875 
L 47.609375 0 
L 37.796875 0 
L 37.796875 17.1875 
L 4.890625 17.1875 
L 4.890625 26.703125 
z
" id="DejaVuSans-52"/>
       </defs>
       <use xlink:href="#DejaVuSans-8722"/>
       <use x="83.789062" xlink:href="#DejaVuSans-52"/>
       <use x="147.412109" xlink:href="#DejaVuSans-48"/>
      </g>
     </g>
    </g>
    <g id="xtick_6">
     <g id="line2d_6">
      <g>
       <use style="stroke:#000000;stroke-width:0.8;" x="279.748646" xlink:href="#m1af58e4d56" y="307.584"/>
      </g>
     </g>
     <g id="text_6">
      <!-- −20 -->
      <g transform="translate(269.196302 322.182437)scale(0.1 -0.1)">
       <use xlink:href="#DejaVuSans-8722"/>
       <use x="83.789062" xlink:href="#DejaVuSans-50"/>
       <use x="147.412109" xlink:href="#DejaVuSans-48"/>
      </g>
     </g>
    </g>
    <g id="xtick_7">
     <g id="line2d_7">
      <g>
       <use style="stroke:#000000;stroke-width:0.8;" x="321.507987" xlink:href="#m1af58e4d56" y="307.584"/>
      </g>
     </g>
     <g id="text_7">
      <!-- 0 -->
      <g transform="translate(318.326737 322.182437)scale(0.1 -0.1)">
       <use xlink:href="#DejaVuSans-48"/>
      </g>
     </g>
    </g>
    <g id="xtick_8">
     <g id="line2d_8">
      <g>
       <use style="stroke:#000000;stroke-width:0.8;" x="363.267329" xlink:href="#m1af58e4d56" y="307.584"/>
      </g>
     </g>
     <g id="text_8">
      <!-- 20 -->
      <g transform="translate(356.904829 322.182437)scale(0.1 -0.1)">
       <use xlink:href="#DejaVuSans-50"/>
       <use x="63.623047" xlink:href="#DejaVuSans-48"/>
      </g>
     </g>
    </g>
    <g id="xtick_9">
     <g id="line2d_9">
      <g>
       <use style="stroke:#000000;stroke-width:0.8;" x="405.02667" xlink:href="#m1af58e4d56" y="307.584"/>
      </g>
     </g>
     <g id="text_9">
      <!-- 40 -->
      <g transform="translate(398.66417 322.182437)scale(0.1 -0.1)">
       <use xlink:href="#DejaVuSans-52"/>
       <use x="63.623047" xlink:href="#DejaVuSans-48"/>
      </g>
     </g>
    </g>
   </g>
   <g id="matplotlib.axis_2">
    <g id="ytick_1">
     <g id="line2d_10">
      <defs>
       <path d="M 0 0 
L -3.5 0 
" id="m00c54acac0" style="stroke:#000000;stroke-width:0.8;"/>
      </defs>
      <g>
       <use style="stroke:#000000;stroke-width:0.8;" x="57.6" xlink:href="#m00c54acac0" y="295.407647"/>
      </g>
     </g>
     <g id="text_10">
      <!-- 0 -->
      <g transform="translate(44.2375 299.206866)scale(0.1 -0.1)">
       <use xlink:href="#DejaVuSans-48"/>
      </g>
     </g>
    </g>
    <g id="ytick_2">
     <g id="line2d_11">
      <g>
       <use style="stroke:#000000;stroke-width:0.8;" x="57.6" xlink:href="#m00c54acac0" y="253.648306"/>
      </g>
     </g>
     <g id="text_11">
      <!-- 20 -->
      <g transform="translate(37.875 257.447525)scale(0.1 -0.1)">
       <use xlink:href="#DejaVuSans-50"/>
       <use x="63.623047" xlink:href="#DejaVuSans-48"/>
      </g>
     </g>
    </g>
    <g id="ytick_3">
     <g id="line2d_12">
      <g>
       <use style="stroke:#000000;stroke-width:0.8;" x="57.6" xlink:href="#m00c54acac0" y="211.888965"/>
      </g>
     </g>
     <g id="text_12">
      <!-- 40 -->
      <g transform="translate(37.875 215.688184)scale(0.1 -0.1)">
       <use xlink:href="#DejaVuSans-52"/>
       <use x="63.623047" xlink:href="#DejaVuSans-48"/>
      </g>
     </g>
    </g>
    <g id="ytick_4">
     <g id="line2d_13">
      <g>
       <use style="stroke:#000000;stroke-width:0.8;" x="57.6" xlink:href="#m00c54acac0" y="170.129624"/>
      </g>
     </g>
     <g id="text_13">
      <!-- 60 -->
      <g transform="translate(37.875 173.928842)scale(0.1 -0.1)">
       <use xlink:href="#DejaVuSans-54"/>
       <use x="63.623047" xlink:href="#DejaVuSans-48"/>
      </g>
     </g>
    </g>
    <g id="ytick_5">
     <g id="line2d_14">
      <g>
       <use style="stroke:#000000;stroke-width:0.8;" x="57.6" xlink:href="#m00c54acac0" y="128.370282"/>
      </g>
     </g>
     <g id="text_14">
      <!-- 80 -->
      <g transform="translate(37.875 132.169501)scale(0.1 -0.1)">
       <use xlink:href="#DejaVuSans-56"/>
       <use x="63.623047" xlink:href="#DejaVuSans-48"/>
      </g>
     </g>
    </g>
    <g id="ytick_6">
     <g id="line2d_15">
      <g>
       <use style="stroke:#000000;stroke-width:0.8;" x="57.6" xlink:href="#m00c54acac0" y="86.610941"/>
      </g>
     </g>
     <g id="text_15">
      <!-- 100 -->
      <g transform="translate(31.5125 90.41016)scale(0.1 -0.1)">
       <use xlink:href="#DejaVuSans-49"/>
       <use x="63.623047" xlink:href="#DejaVuSans-48"/>
       <use x="127.246094" xlink:href="#DejaVuSans-48"/>
      </g>
     </g>
    </g>
    <g id="ytick_7">
     <g id="line2d_16">
      <g>
       <use style="stroke:#000000;stroke-width:0.8;" x="57.6" xlink:href="#m00c54acac0" y="44.8516"/>
      </g>
     </g>
     <g id="text_16">
      <!-- 120 -->
      <g transform="translate(31.5125 48.650819)scale(0.1 -0.1)">
       <use xlink:href="#DejaVuSans-49"/>
       <use x="63.623047" xlink:href="#DejaVuSans-50"/>
       <use x="127.246094" xlink:href="#DejaVuSans-48"/>
      </g>
     </g>
    </g>
   </g>
   <g id="line2d_17">
    <path clip-path="url(#p2f44472f96)" d="M 321.507987 295.407647 
L 321.827283 273.431833 
L 322.414156 237.700277 
L 322.140275 229.36695 
L 321.565303 215.4518 
L 321.501219 209.92252 
L 321.63859 204.437902 
L 322.048518 199.013708 
L 322.802105 193.665702 
L 323.32999 191.025195 
L 323.996544 188.4149 
L 324.81844 185.838101 
L 325.777105 183.290858 
L 328.030453 178.269275 
L 330.60801 173.318625 
L 340.037493 156.094794 
L 342.235323 151.073211 
L 343.158658 148.525967 
L 343.940177 145.949169 
L 345.091919 140.668185 
L 346.563385 132.244379 
L 347.35561 126.405701 
L 347.914284 120.501066 
L 348.16865 114.626721 
L 348.04795 108.878914 
L 347.824839 106.082539 
L 347.481428 103.353892 
L 347.008872 100.705003 
L 346.398326 98.147903 
L 345.640946 95.694623 
L 344.727888 93.357195 
L 343.650306 91.147648 
L 342.365738 88.982212 
L 340.851637 86.781475 
L 339.129037 84.564002 
L 337.218973 82.348358 
L 335.142478 80.153111 
L 332.920587 77.996826 
L 330.574332 75.89807 
L 328.124747 73.875408 
L 325.592867 71.947406 
L 322.999724 70.13263 
L 320.366354 68.449647 
L 317.713789 66.917023 
L 315.063064 65.553323 
L 312.435211 64.377114 
L 309.851266 63.406961 
L 307.332261 62.661431 
L 304.89923 62.15909 
L 302.573208 61.918504 
L 300.375228 61.958239 
L 298.27254 62.332137 
L 296.214743 63.060072 
L 294.196395 64.109655 
L 292.212052 65.448501 
L 290.256272 67.044219 
L 288.32361 68.864423 
L 286.408625 70.876725 
L 282.609912 75.348072 
L 276.908337 82.686131 
L 273.041448 87.621007 
L 269.071088 92.287865 
L 267.033498 94.439818 
L 264.95371 96.427603 
L 262.826283 98.218833 
L 256.272142 103.198005 
L 249.536497 108.012659 
L 242.631955 112.617915 
L 235.571123 116.96889 
L 230.783299 119.706109 
L 225.935352 122.297069 
L 221.031016 124.728471 
L 213.547082 128.142978 
L 205.850225 131.471185 
L 200.623559 133.571476 
L 195.339771 135.517341 
L 190.015333 137.257678 
L 184.666719 138.741387 
L 179.310401 139.917368 
L 173.962854 140.734521 
L 168.64055 141.141745 
L 165.985911 141.161524 
L 163.32646 141.043508 
L 160.662609 140.799508 
L 155.32336 139.980802 
L 149.971462 138.799893 
L 144.610215 137.351268 
L 136.558034 134.883056 
L 125.819867 131.536989 
L 120.457383 130.052932 
L 117.779235 129.399485 
L 117.779235 129.399485 
" style="fill:none;stroke:#fea952;stroke-linecap:square;"/>
   </g>
   <g id="line2d_18">
    <path clip-path="url(#p2f44472f96)" d="M 313.156506 295.327294 
L 313.476937 273.272347 
L 314.064557 237.894961 
L 313.797052 229.746858 
L 313.214952 215.610953 
L 313.150194 209.803858 
L 313.302309 203.927882 
L 313.758819 197.996554 
L 314.612295 192.028411 
L 315.237788 188.958803 
L 316.039625 185.87696 
L 317.001827 182.896288 
L 318.096303 180.01077 
L 320.580143 174.494811 
L 323.304706 169.267027 
L 332.451366 152.601316 
L 334.383391 148.227009 
L 335.166294 146.101958 
L 335.81517 144.01579 
L 336.883816 139.125218 
L 338.297813 131.046873 
L 339.050343 125.524656 
L 339.57622 120.021082 
L 339.816822 114.652807 
L 339.722539 109.543164 
L 339.259371 104.820689 
L 338.88535 102.644615 
L 338.418097 100.61157 
L 337.861538 98.733456 
L 337.221163 97.018176 
L 336.467227 95.408759 
L 335.485045 93.716109 
L 334.256042 91.905129 
L 332.803287 90.017311 
L 331.15148 88.087629 
L 329.325965 86.146597 
L 327.352376 84.221675 
L 325.2566 82.338212 
L 323.064897 80.520076 
L 320.804136 78.790048 
L 318.502121 77.170049 
L 316.188037 75.681201 
L 313.893038 74.343702 
L 311.651015 73.176421 
L 309.499563 72.196044 
L 307.481058 71.415445 
L 305.643493 70.840781 
L 302.724167 70.269008 
L 301.057836 70.20588 
L 300.068024 70.469925 
L 298.867633 71.033039 
L 297.491915 71.919725 
L 295.982397 73.12412 
L 294.373756 74.621978 
L 292.690833 76.38014 
L 289.159288 80.530674 
L 283.512926 87.798185 
L 279.479283 92.941531 
L 275.1357 98.03018 
L 272.804108 100.477513 
L 270.332941 102.816467 
L 265.715661 106.543835 
L 258.904107 111.617286 
L 251.888402 116.520739 
L 244.677553 121.2084 
L 239.76613 124.190774 
L 234.774179 127.042769 
L 229.704034 129.750306 
L 224.557979 132.299088 
L 216.924084 135.781667 
L 209.013805 139.200704 
L 203.574307 141.384721 
L 198.015654 143.428937 
L 192.347499 145.277323 
L 186.578128 146.871591 
L 180.715282 148.15023 
L 174.767684 149.04752 
L 171.765701 149.331303 
L 168.702775 149.493381 
L 165.615652 149.505181 
L 162.564646 149.360559 
L 159.551294 149.07711 
L 153.637898 148.160834 
L 147.869731 146.882988 
L 142.237036 145.358872 
L 134.026083 142.841883 
L 123.521849 139.566486 
L 118.477671 138.166774 
L 115.799523 137.513328 
L 115.799523 137.513328 
" style="fill:none;stroke:#ffffff;stroke-linecap:square;"/>
   </g>
   <g id="line2d_19">
    <path clip-path="url(#p2f44472f96)" d="M 329.859469 295.488 
L 330.177628 273.591319 
L 330.763755 237.505592 
L 330.483498 228.987042 
L 329.915655 215.292647 
L 329.852244 210.041183 
L 329.974871 204.947922 
L 330.338216 200.030862 
L 330.991915 195.302992 
L 331.422192 193.091586 
L 331.953463 190.952839 
L 332.635053 188.779914 
L 334.41085 184.325522 
L 336.652918 179.725526 
L 339.238988 174.976316 
L 344.878942 164.948651 
L 347.623619 159.588272 
L 348.902605 156.796408 
L 350.087255 153.919412 
L 351.151022 150.949977 
L 352.065185 147.882548 
L 353.300022 142.211152 
L 354.347308 136.437567 
L 355.27002 130.388128 
L 355.991697 124.147822 
L 356.432301 117.795704 
L 356.505081 111.404269 
L 356.373361 108.214664 
L 356.111339 105.03965 
L 355.703484 101.887095 
L 355.132394 98.765392 
L 354.378555 95.684237 
L 353.420355 92.655791 
L 352.234613 89.696214 
L 350.833386 86.886536 
L 349.24643 84.248316 
L 347.447231 81.65782 
L 345.454788 79.110692 
L 343.286466 76.609087 
L 340.958992 74.159625 
L 338.488797 71.771978 
L 335.892063 69.457927 
L 333.184597 67.230739 
L 330.381597 65.104763 
L 327.497328 63.095211 
L 324.544671 61.218093 
L 321.53454 59.490343 
L 318.475112 57.930224 
L 315.370859 56.558183 
L 312.221473 55.398477 
L 309.021028 54.482081 
L 305.7585 53.851542 
L 302.422249 53.568 
L 298.913043 53.735361 
L 295.487244 54.458394 
L 292.361462 55.650218 
L 289.525157 57.186272 
L 286.932189 58.977276 
L 284.530147 60.964318 
L 282.273465 63.106868 
L 280.126418 65.373311 
L 276.060535 70.165469 
L 270.303747 77.574077 
L 266.603613 82.300482 
L 263.006476 86.545549 
L 259.574479 90.03874 
L 257.713383 91.614898 
L 251.346516 96.453235 
L 244.823907 101.117357 
L 238.161593 105.56316 
L 231.376115 109.747005 
L 224.484478 113.625922 
L 219.839645 116.021647 
L 215.106511 118.275256 
L 205.188603 122.684834 
L 197.672811 125.758232 
L 192.663888 127.605745 
L 187.683167 129.238033 
L 182.755309 130.611183 
L 177.90552 131.684506 
L 173.158023 132.421522 
L 168.578324 132.790108 
L 166.356169 132.817867 
L 164.088273 132.726457 
L 159.413649 132.210875 
L 154.561307 131.299775 
L 149.546571 130.061391 
L 141.753883 127.763942 
L 128.117886 123.507493 
L 122.437095 121.939089 
L 119.758947 121.285642 
L 119.758947 121.285642 
" style="fill:none;stroke:#ffffff;stroke-linecap:square;"/>
   </g>
   <g id="patch_3">
    <path d="M 57.6 307.584 
L 57.6 41.472 
" style="fill:none;stroke:#000000;stroke-linecap:square;stroke-linejoin:miter;stroke-width:0.8;"/>
   </g>
   <g id="patch_4">
    <path d="M 414.72 307.584 
L 414.72 41.472 
" style="fill:none;stroke:#000000;stroke-linecap:square;stroke-linejoin:miter;stroke-width:0.8;"/>
   </g>
   <g id="patch_5">
    <path d="M 57.6 307.584 
L 414.72 307.584 
" style="fill:none;stroke:#000000;stroke-linecap:square;stroke-linejoin:miter;stroke-width:0.8;"/>
   </g>
   <g id="patch_6">
    <path d="M 57.6 41.472 
L 414.72 41.472 
" style="fill:none;stroke:#000000;stroke-linecap:square;stroke-linejoin:miter;stroke-width:0.8;"/>
   </g>
  </g>
 </g>
 <defs>
  <clipPath id="p2f44472f96">
   <rect height="266.112" width="357.12" x="57.6" y="41.472"/>
  </clipPath>
 </defs>
</svg>
