<?xml version="1.0" encoding="utf-8" standalone="no"?>
<!DOCTYPE svg PUBLIC "-//W3C//DTD SVG 1.1//EN"
  "http://www.w3.org/Graphics/SVG/1.1/DTD/svg11.dtd">
<!-- Created with matplotlib (https://matplotlib.org/) -->
<svg height="345.6pt" version="1.1" viewBox="0 0 460.8 345.6" width="460.8pt" xmlns="http://www.w3.org/2000/svg" xmlns:xlink="http://www.w3.org/1999/xlink">
 <metadata>
  <rdf:RDF xmlns:cc="http://creativecommons.org/ns#" xmlns:dc="http://purl.org/dc/elements/1.1/" xmlns:rdf="http://www.w3.org/1999/02/22-rdf-syntax-ns#">
   <cc:Work>
    <dc:type rdf:resource="http://purl.org/dc/dcmitype/StillImage"/>
    <dc:date>2021-07-02T11:13:47.154014</dc:date>
    <dc:format>image/svg+xml</dc:format>
    <dc:creator>
     <cc:Agent>
      <dc:title>Matplotlib v3.3.3, https://matplotlib.org/</dc:title>
     </cc:Agent>
    </dc:creator>
   </cc:Work>
  </rdf:RDF>
 </metadata>
 <defs>
  <style type="text/css">*{stroke-linecap:butt;stroke-linejoin:round;}</style>
 </defs>
 <g id="figure_1">
  <g id="patch_1">
   <path d="M 0 345.6 
L 460.8 345.6 
L 460.8 0 
L 0 0 
z
" style="fill:#ffffff;"/>
  </g>
  <g id="axes_1">
   <g id="patch_2">
    <path d="M 57.6 307.584 
L 414.72 307.584 
L 414.72 41.472 
L 57.6 41.472 
z
" style="fill:#7d9051;"/>
   </g>
   <g id="matplotlib.axis_1">
    <g id="xtick_1">
     <g id="line2d_1">
      <defs>
       <path d="M 0 0 
L 0 3.5 
" id="m855bc83729" style="stroke:#000000;stroke-width:0.8;"/>
      </defs>
      <g>
       <use style="stroke:#000000;stroke-width:0.8;" x="85.486138" xlink:href="#m855bc83729" y="307.584"/>
      </g>
     </g>
     <g id="text_1">
      <!-- 0 -->
      <g transform="translate(82.304888 322.182437)scale(0.1 -0.1)">
       <defs>
        <path d="M 31.78125 66.40625 
Q 24.171875 66.40625 20.328125 58.90625 
Q 16.5 51.421875 16.5 36.375 
Q 16.5 21.390625 20.328125 13.890625 
Q 24.171875 6.390625 31.78125 6.390625 
Q 39.453125 6.390625 43.28125 13.890625 
Q 47.125 21.390625 47.125 36.375 
Q 47.125 51.421875 43.28125 58.90625 
Q 39.453125 66.40625 31.78125 66.40625 
z
M 31.78125 74.21875 
Q 44.046875 74.21875 50.515625 64.515625 
Q 56.984375 54.828125 56.984375 36.375 
Q 56.984375 17.96875 50.515625 8.265625 
Q 44.046875 -1.421875 31.78125 -1.421875 
Q 19.53125 -1.421875 13.0625 8.265625 
Q 6.59375 17.96875 6.59375 36.375 
Q 6.59375 54.828125 13.0625 64.515625 
Q 19.53125 74.21875 31.78125 74.21875 
z
" id="DejaVuSans-48"/>
       </defs>
       <use xlink:href="#DejaVuSans-48"/>
      </g>
     </g>
    </g>
    <g id="xtick_2">
     <g id="line2d_2">
      <g>
       <use style="stroke:#000000;stroke-width:0.8;" x="135.923269" xlink:href="#m855bc83729" y="307.584"/>
      </g>
     </g>
     <g id="text_2">
      <!-- 20 -->
      <g transform="translate(129.560769 322.182437)scale(0.1 -0.1)">
       <defs>
        <path d="M 19.1875 8.296875 
L 53.609375 8.296875 
L 53.609375 0 
L 7.328125 0 
L 7.328125 8.296875 
Q 12.9375 14.109375 22.625 23.890625 
Q 32.328125 33.6875 34.8125 36.53125 
Q 39.546875 41.84375 41.421875 45.53125 
Q 43.3125 49.21875 43.3125 52.78125 
Q 43.3125 58.59375 39.234375 62.25 
Q 35.15625 65.921875 28.609375 65.921875 
Q 23.96875 65.921875 18.8125 64.3125 
Q 13.671875 62.703125 7.8125 59.421875 
L 7.8125 69.390625 
Q 13.765625 71.78125 18.9375 73 
Q 24.125 74.21875 28.421875 74.21875 
Q 39.75 74.21875 46.484375 68.546875 
Q 53.21875 62.890625 53.21875 53.421875 
Q 53.21875 48.921875 51.53125 44.890625 
Q 49.859375 40.875 45.40625 35.40625 
Q 44.1875 33.984375 37.640625 27.21875 
Q 31.109375 20.453125 19.1875 8.296875 
z
" id="DejaVuSans-50"/>
       </defs>
       <use xlink:href="#DejaVuSans-50"/>
       <use x="63.623047" xlink:href="#DejaVuSans-48"/>
      </g>
     </g>
    </g>
    <g id="xtick_3">
     <g id="line2d_3">
      <g>
       <use style="stroke:#000000;stroke-width:0.8;" x="186.3604" xlink:href="#m855bc83729" y="307.584"/>
      </g>
     </g>
     <g id="text_3">
      <!-- 40 -->
      <g transform="translate(179.9979 322.182437)scale(0.1 -0.1)">
       <defs>
        <path d="M 37.796875 64.3125 
L 12.890625 25.390625 
L 37.796875 25.390625 
z
M 35.203125 72.90625 
L 47.609375 72.90625 
L 47.609375 25.390625 
L 58.015625 25.390625 
L 58.015625 17.1875 
L 47.609375 17.1875 
L 47.609375 0 
L 37.796875 0 
L 37.796875 17.1875 
L 4.890625 17.1875 
L 4.890625 26.703125 
z
" id="DejaVuSans-52"/>
       </defs>
       <use xlink:href="#DejaVuSans-52"/>
       <use x="63.623047" xlink:href="#DejaVuSans-48"/>
      </g>
     </g>
    </g>
    <g id="xtick_4">
     <g id="line2d_4">
      <g>
       <use style="stroke:#000000;stroke-width:0.8;" x="236.797532" xlink:href="#m855bc83729" y="307.584"/>
      </g>
     </g>
     <g id="text_4">
      <!-- 60 -->
      <g transform="translate(230.435032 322.182437)scale(0.1 -0.1)">
       <defs>
        <path d="M 33.015625 40.375 
Q 26.375 40.375 22.484375 35.828125 
Q 18.609375 31.296875 18.609375 23.390625 
Q 18.609375 15.53125 22.484375 10.953125 
Q 26.375 6.390625 33.015625 6.390625 
Q 39.65625 6.390625 43.53125 10.953125 
Q 47.40625 15.53125 47.40625 23.390625 
Q 47.40625 31.296875 43.53125 35.828125 
Q 39.65625 40.375 33.015625 40.375 
z
M 52.59375 71.296875 
L 52.59375 62.3125 
Q 48.875 64.0625 45.09375 64.984375 
Q 41.3125 65.921875 37.59375 65.921875 
Q 27.828125 65.921875 22.671875 59.328125 
Q 17.53125 52.734375 16.796875 39.40625 
Q 19.671875 43.65625 24.015625 45.921875 
Q 28.375 48.1875 33.59375 48.1875 
Q 44.578125 48.1875 50.953125 41.515625 
Q 57.328125 34.859375 57.328125 23.390625 
Q 57.328125 12.15625 50.6875 5.359375 
Q 44.046875 -1.421875 33.015625 -1.421875 
Q 20.359375 -1.421875 13.671875 8.265625 
Q 6.984375 17.96875 6.984375 36.375 
Q 6.984375 53.65625 15.1875 63.9375 
Q 23.390625 74.21875 37.203125 74.21875 
Q 40.921875 74.21875 44.703125 73.484375 
Q 48.484375 72.75 52.59375 71.296875 
z
" id="DejaVuSans-54"/>
       </defs>
       <use xlink:href="#DejaVuSans-54"/>
       <use x="63.623047" xlink:href="#DejaVuSans-48"/>
      </g>
     </g>
    </g>
    <g id="xtick_5">
     <g id="line2d_5">
      <g>
       <use style="stroke:#000000;stroke-width:0.8;" x="287.234663" xlink:href="#m855bc83729" y="307.584"/>
      </g>
     </g>
     <g id="text_5">
      <!-- 80 -->
      <g transform="translate(280.872163 322.182437)scale(0.1 -0.1)">
       <defs>
        <path d="M 31.78125 34.625 
Q 24.75 34.625 20.71875 30.859375 
Q 16.703125 27.09375 16.703125 20.515625 
Q 16.703125 13.921875 20.71875 10.15625 
Q 24.75 6.390625 31.78125 6.390625 
Q 38.8125 6.390625 42.859375 10.171875 
Q 46.921875 13.96875 46.921875 20.515625 
Q 46.921875 27.09375 42.890625 30.859375 
Q 38.875 34.625 31.78125 34.625 
z
M 21.921875 38.8125 
Q 15.578125 40.375 12.03125 44.71875 
Q 8.5 49.078125 8.5 55.328125 
Q 8.5 64.0625 14.71875 69.140625 
Q 20.953125 74.21875 31.78125 74.21875 
Q 42.671875 74.21875 48.875 69.140625 
Q 55.078125 64.0625 55.078125 55.328125 
Q 55.078125 49.078125 51.53125 44.71875 
Q 48 40.375 41.703125 38.8125 
Q 48.828125 37.15625 52.796875 32.3125 
Q 56.78125 27.484375 56.78125 20.515625 
Q 56.78125 9.90625 50.3125 4.234375 
Q 43.84375 -1.421875 31.78125 -1.421875 
Q 19.734375 -1.421875 13.25 4.234375 
Q 6.78125 9.90625 6.78125 20.515625 
Q 6.78125 27.484375 10.78125 32.3125 
Q 14.796875 37.15625 21.921875 38.8125 
z
M 18.3125 54.390625 
Q 18.3125 48.734375 21.84375 45.5625 
Q 25.390625 42.390625 31.78125 42.390625 
Q 38.140625 42.390625 41.71875 45.5625 
Q 45.3125 48.734375 45.3125 54.390625 
Q 45.3125 60.0625 41.71875 63.234375 
Q 38.140625 66.40625 31.78125 66.40625 
Q 25.390625 66.40625 21.84375 63.234375 
Q 18.3125 60.0625 18.3125 54.390625 
z
" id="DejaVuSans-56"/>
       </defs>
       <use xlink:href="#DejaVuSans-56"/>
       <use x="63.623047" xlink:href="#DejaVuSans-48"/>
      </g>
     </g>
    </g>
    <g id="xtick_6">
     <g id="line2d_6">
      <g>
       <use style="stroke:#000000;stroke-width:0.8;" x="337.671794" xlink:href="#m855bc83729" y="307.584"/>
      </g>
     </g>
     <g id="text_6">
      <!-- 100 -->
      <g transform="translate(328.128044 322.182437)scale(0.1 -0.1)">
       <defs>
        <path d="M 12.40625 8.296875 
L 28.515625 8.296875 
L 28.515625 63.921875 
L 10.984375 60.40625 
L 10.984375 69.390625 
L 28.421875 72.90625 
L 38.28125 72.90625 
L 38.28125 8.296875 
L 54.390625 8.296875 
L 54.390625 0 
L 12.40625 0 
z
" id="DejaVuSans-49"/>
       </defs>
       <use xlink:href="#DejaVuSans-49"/>
       <use x="63.623047" xlink:href="#DejaVuSans-48"/>
       <use x="127.246094" xlink:href="#DejaVuSans-48"/>
      </g>
     </g>
    </g>
    <g id="xtick_7">
     <g id="line2d_7">
      <g>
       <use style="stroke:#000000;stroke-width:0.8;" x="388.108925" xlink:href="#m855bc83729" y="307.584"/>
      </g>
     </g>
     <g id="text_7">
      <!-- 120 -->
      <g transform="translate(378.565175 322.182437)scale(0.1 -0.1)">
       <use xlink:href="#DejaVuSans-49"/>
       <use x="63.623047" xlink:href="#DejaVuSans-50"/>
       <use x="127.246094" xlink:href="#DejaVuSans-48"/>
      </g>
     </g>
    </g>
   </g>
   <g id="matplotlib.axis_2">
    <g id="ytick_1">
     <g id="line2d_8">
      <defs>
       <path d="M 0 0 
L -3.5 0 
" id="m3ac74009fc" style="stroke:#000000;stroke-width:0.8;"/>
      </defs>
      <g>
       <use style="stroke:#000000;stroke-width:0.8;" x="57.6" xlink:href="#m3ac74009fc" y="274.233946"/>
      </g>
     </g>
     <g id="text_8">
      <!-- 0 -->
      <g transform="translate(44.2375 278.033165)scale(0.1 -0.1)">
       <use xlink:href="#DejaVuSans-48"/>
      </g>
     </g>
    </g>
    <g id="ytick_2">
     <g id="line2d_9">
      <g>
       <use style="stroke:#000000;stroke-width:0.8;" x="57.6" xlink:href="#m3ac74009fc" y="223.796815"/>
      </g>
     </g>
     <g id="text_9">
      <!-- 20 -->
      <g transform="translate(37.875 227.596034)scale(0.1 -0.1)">
       <use xlink:href="#DejaVuSans-50"/>
       <use x="63.623047" xlink:href="#DejaVuSans-48"/>
      </g>
     </g>
    </g>
    <g id="ytick_3">
     <g id="line2d_10">
      <g>
       <use style="stroke:#000000;stroke-width:0.8;" x="57.6" xlink:href="#m3ac74009fc" y="173.359684"/>
      </g>
     </g>
     <g id="text_10">
      <!-- 40 -->
      <g transform="translate(37.875 177.158902)scale(0.1 -0.1)">
       <use xlink:href="#DejaVuSans-52"/>
       <use x="63.623047" xlink:href="#DejaVuSans-48"/>
      </g>
     </g>
    </g>
    <g id="ytick_4">
     <g id="line2d_11">
      <g>
       <use style="stroke:#000000;stroke-width:0.8;" x="57.6" xlink:href="#m3ac74009fc" y="122.922552"/>
      </g>
     </g>
     <g id="text_11">
      <!-- 60 -->
      <g transform="translate(37.875 126.721771)scale(0.1 -0.1)">
       <use xlink:href="#DejaVuSans-54"/>
       <use x="63.623047" xlink:href="#DejaVuSans-48"/>
      </g>
     </g>
    </g>
    <g id="ytick_5">
     <g id="line2d_12">
      <g>
       <use style="stroke:#000000;stroke-width:0.8;" x="57.6" xlink:href="#m3ac74009fc" y="72.485421"/>
      </g>
     </g>
     <g id="text_12">
      <!-- 80 -->
      <g transform="translate(37.875 76.28464)scale(0.1 -0.1)">
       <use xlink:href="#DejaVuSans-56"/>
       <use x="63.623047" xlink:href="#DejaVuSans-48"/>
      </g>
     </g>
    </g>
   </g>
   <g id="line2d_13">
    <path clip-path="url(#pc92480a264)" d="M 85.486138 274.233946 
L 85.810665 251.009152 
L 86.584327 207.852049 
L 86.279914 201.025082 
L 85.708684 194.076521 
L 84.406136 180.106441 
L 83.994996 173.230837 
L 83.919499 169.852312 
L 83.957399 166.525466 
L 84.128707 163.259417 
L 84.453434 160.063285 
L 84.951592 156.94619 
L 85.643192 153.917252 
L 86.548244 150.985589 
L 87.686761 148.160323 
L 89.055341 145.41911 
L 90.627622 142.733766 
L 92.389174 140.104644 
L 94.325567 137.5321 
L 96.422368 135.016487 
L 98.665148 132.558159 
L 101.039476 130.157471 
L 103.530921 127.814776 
L 108.80744 123.304786 
L 114.37926 119.031022 
L 120.130935 114.996317 
L 125.94702 111.203506 
L 134.539377 105.974037 
L 143.387108 100.845258 
L 149.678966 97.383991 
L 156.175223 94.063212 
L 162.78134 91.032195 
L 166.096053 89.671996 
L 169.402778 88.440215 
L 172.689698 87.355511 
L 175.944996 86.436544 
L 179.156854 85.701974 
L 182.313454 85.170458 
L 185.40298 84.860657 
L 188.413613 84.791229 
L 191.333537 84.980835 
L 194.150933 85.448133 
L 196.931286 86.208774 
L 199.739535 87.252819 
L 202.563041 88.560536 
L 205.38917 90.112196 
L 208.205283 91.888069 
L 210.998745 93.868425 
L 213.756918 96.033534 
L 216.467165 98.363666 
L 219.116851 100.839091 
L 221.693339 103.440079 
L 224.183991 106.146899 
L 226.576171 108.939823 
L 228.857242 111.79912 
L 231.014567 114.705059 
L 233.035511 117.637912 
L 234.907435 120.577947 
L 236.617704 123.505436 
L 238.153681 126.400647 
L 239.502728 129.243852 
L 240.566244 132.152706 
L 241.282516 135.242105 
L 241.69424 138.488175 
L 241.84411 141.867043 
L 241.774824 145.354835 
L 241.529076 148.927677 
L 240.678981 156.233022 
L 239.147778 167.232085 
L 238.739877 170.813891 
L 238.454386 174.313634 
L 238.334 177.707441 
L 238.421417 180.971438 
L 238.759331 184.081752 
L 239.390438 187.014509 
L 240.357435 189.745836 
L 241.703016 192.25186 
L 243.422448 194.643327 
L 245.461445 197.03467 
L 247.788378 199.407541 
L 250.371617 201.743591 
L 253.179533 204.024474 
L 256.180495 206.231841 
L 259.342874 208.347346 
L 262.635041 210.352641 
L 266.025365 212.229378 
L 269.482217 213.959209 
L 272.973968 215.523787 
L 276.468988 216.904764 
L 279.935646 218.083793 
L 283.342314 219.042526 
L 286.657362 219.762616 
L 289.84916 220.225715 
L 292.886078 220.413475 
L 295.736487 220.307549 
L 298.368758 219.889589 
L 300.809847 218.999499 
L 303.118209 217.534504 
L 305.309459 215.562242 
L 307.399211 213.150346 
L 309.403082 210.366454 
L 311.336685 207.278201 
L 313.215636 203.953222 
L 316.87204 196.863632 
L 322.337128 186.144703 
L 324.216079 182.819724 
L 326.149682 179.731471 
L 328.153552 176.947579 
L 330.243305 174.535684 
L 332.434555 172.563421 
L 334.742917 171.098426 
L 337.184006 170.208336 
L 339.74481 169.836787 
L 342.396701 169.85978 
L 345.131871 170.243498 
L 347.942514 170.954121 
L 350.820822 171.957833 
L 353.758987 173.220816 
L 356.749202 174.709251 
L 359.78366 176.389321 
L 365.954071 180.189094 
L 375.34632 186.480566 
L 381.607819 190.67488 
L 387.796448 194.553561 
L 390.843918 196.289994 
L 393.849748 197.846065 
L 393.849748 197.846065 
" style="fill:none;stroke:#fea952;stroke-linecap:square;"/>
   </g>
   <g id="line2d_14">
    <path clip-path="url(#pc92480a264)" d="M 75.399178 274.136896 
L 75.72495 250.82335 
L 76.502085 208.175422 
L 76.221282 201.786726 
L 75.667401 195.040263 
L 74.343423 180.812114 
L 73.910087 173.456196 
L 73.832727 169.737402 
L 73.88382 165.997095 
L 74.092945 162.239782 
L 74.492412 158.471366 
L 75.117265 154.700711 
L 76.00462 150.941666 
L 77.191939 147.215216 
L 78.661626 143.654426 
L 80.350273 140.322252 
L 82.247352 137.118854 
L 84.329748 134.038195 
L 86.576883 131.073456 
L 88.970264 128.217788 
L 91.492993 125.464756 
L 94.129344 122.808576 
L 96.864402 120.244196 
L 102.573446 115.374244 
L 108.508191 110.828174 
L 114.558121 106.587993 
L 120.611889 102.642398 
L 129.43165 97.275342 
L 138.469639 92.03761 
L 145.006659 88.443872 
L 151.856578 84.946992 
L 158.951829 81.699939 
L 162.574783 80.219122 
L 166.241554 78.860923 
L 169.949137 77.647499 
L 173.69601 76.603018 
L 177.481889 75.754579 
L 181.306988 75.133367 
L 185.170418 74.775912 
L 189.067265 74.725003 
L 192.984103 75.029363 
L 196.812808 75.718251 
L 200.446494 76.753644 
L 203.978937 78.099479 
L 207.417849 79.718194 
L 210.769882 81.579664 
L 214.039235 83.658782 
L 217.227368 85.933665 
L 220.33321 88.384447 
L 223.353545 90.99251 
L 226.283412 93.740037 
L 229.116473 96.609761 
L 231.845313 99.584864 
L 234.461684 102.648969 
L 236.956692 105.78621 
L 239.320933 108.981384 
L 241.544582 112.220175 
L 243.617415 115.489488 
L 245.528751 118.77792 
L 247.267257 122.076426 
L 248.976794 125.780005 
L 250.393015 129.874386 
L 251.289767 133.972811 
L 251.771757 138.041184 
L 251.929546 142.067394 
L 251.838473 146.047033 
L 251.56194 149.975443 
L 250.667827 157.639837 
L 248.793906 171.634047 
L 248.535472 174.671231 
L 248.417811 177.437376 
L 248.449832 179.881921 
L 248.621005 181.959594 
L 248.899502 183.647929 
L 249.244764 184.973883 
L 249.893245 186.363199 
L 251.098378 188.098385 
L 252.663708 189.971839 
L 254.55431 191.925673 
L 256.731753 193.91385 
L 259.156595 195.898534 
L 261.789296 197.84748 
L 264.590411 199.732271 
L 267.520442 201.527165 
L 270.539532 203.208376 
L 273.607025 204.75366 
L 276.680902 206.142166 
L 279.717059 207.35457 
L 282.668378 208.373574 
L 285.483556 209.184978 
L 288.105783 209.779718 
L 290.471635 210.157513 
L 292.511471 210.333007 
L 294.913149 210.412515 
L 295.404567 210.482508 
L 296.369816 210.036814 
L 297.68563 208.956683 
L 299.212177 207.257246 
L 300.85325 205.013272 
L 302.554511 202.31538 
L 304.290068 199.253179 
L 307.843623 192.364315 
L 311.571647 184.938727 
L 313.554954 181.181882 
L 315.666248 177.466543 
L 317.962647 173.838371 
L 320.529724 170.34202 
L 323.494912 167.037993 
L 327.029275 164.046431 
L 331.287308 161.621352 
L 335.73558 160.225439 
L 339.832269 159.74974 
L 343.798143 159.870179 
L 347.6045 160.463811 
L 351.264003 161.429213 
L 354.804495 162.690335 
L 358.254094 164.190302 
L 361.635329 165.884177 
L 364.96396 167.733649 
L 371.496801 171.760908 
L 380.99533 178.123242 
L 389.975152 184.063116 
L 395.481443 187.331784 
L 398.487273 188.887855 
L 398.487273 188.887855 
" style="fill:none;stroke:#ffffff;stroke-linecap:square;"/>
   </g>
   <g id="line2d_15">
    <path clip-path="url(#pc92480a264)" d="M 95.573097 274.330997 
L 95.89638 251.194954 
L 96.666568 207.528675 
L 96.338545 200.263439 
L 95.749967 193.112779 
L 94.468849 179.400768 
L 94.079905 173.005478 
L 94.030978 167.053837 
L 94.164469 164.279051 
L 94.414457 161.655204 
L 94.785919 159.191669 
L 95.281763 156.892837 
L 95.90455 154.755962 
L 96.711896 152.666219 
L 97.760409 150.515968 
L 99.007893 148.348677 
L 100.448601 146.171094 
L 102.07425 143.990744 
L 103.874472 141.815186 
L 105.837303 139.651562 
L 107.949607 137.506365 
L 112.566319 133.293564 
L 117.607792 129.21437 
L 122.953982 125.29653 
L 128.484727 121.560132 
L 134.081419 118.019402 
L 142.46179 113.019872 
L 151.308891 107.974646 
L 157.417834 104.719606 
L 163.563757 101.721756 
L 169.617323 99.12487 
L 172.564002 98.019507 
L 175.430259 97.063523 
L 178.193981 96.27007 
L 180.831819 95.649368 
L 183.31992 95.207549 
L 185.635542 94.945402 
L 187.759962 94.857455 
L 189.68297 94.932307 
L 191.489058 95.178014 
L 193.416078 95.663904 
L 195.500132 96.406159 
L 197.708233 97.402878 
L 200.008458 98.644729 
L 202.371331 100.117357 
L 204.770121 101.803186 
L 207.180625 103.682622 
L 209.580786 105.734823 
L 211.950291 107.938145 
L 214.270204 110.270396 
L 216.522668 112.708934 
L 218.690657 115.230677 
L 220.757792 117.812029 
L 222.708202 120.428734 
L 224.526439 123.055649 
L 226.197455 125.666407 
L 227.706657 128.232952 
L 230.028661 132.707698 
L 230.739474 134.431026 
L 231.275266 136.511399 
L 231.616722 138.935166 
L 231.758674 141.666691 
L 231.711175 144.662636 
L 231.496212 147.879912 
L 230.690135 154.826207 
L 229.125134 166.090692 
L 228.685847 169.993735 
L 228.3733 173.956038 
L 228.25019 177.977506 
L 228.393001 182.060956 
L 228.897657 186.20391 
L 229.881374 190.381089 
L 231.470105 194.517789 
L 233.512787 198.14052 
L 235.746518 201.18827 
L 238.259183 204.097501 
L 241.022447 206.889408 
L 244.011482 209.573332 
L 247.202471 212.150414 
L 250.571693 214.616203 
L 254.095337 216.962422 
L 257.749639 219.178117 
L 261.511198 221.250379 
L 265.35741 223.164758 
L 269.267034 224.905408 
L 273.220916 226.454958 
L 277.202915 227.794012 
L 281.201072 228.900074 
L 285.208941 229.745514 
L 289.226685 230.293917 
L 293.260686 230.493943 
L 297.318383 230.270168 
L 301.824367 229.366663 
L 306.215126 227.516489 
L 309.866602 225.032195 
L 312.933287 222.1678 
L 315.586246 219.043447 
L 317.952913 215.719635 
L 320.118859 212.241021 
L 322.141203 208.653266 
L 325.900457 201.362949 
L 331.119302 191.107524 
L 332.76591 188.172906 
L 334.336717 185.624572 
L 335.777381 183.553138 
L 338.198526 180.575501 
L 338.632432 180.191233 
L 339.657351 179.923834 
L 340.995259 179.849381 
L 342.659243 180.023185 
L 344.621026 180.47903 
L 346.837149 181.225331 
L 349.263881 182.25133 
L 351.863076 183.534325 
L 354.603359 185.044993 
L 360.411341 188.617279 
L 369.697309 194.837889 
L 376.156569 199.162521 
L 382.80248 203.318061 
L 386.206393 205.248204 
L 389.212223 206.804275 
L 389.212223 206.804275 
" style="fill:none;stroke:#ffffff;stroke-linecap:square;"/>
   </g>
   <g id="patch_3">
    <path d="M 57.6 307.584 
L 57.6 41.472 
" style="fill:none;stroke:#000000;stroke-linecap:square;stroke-linejoin:miter;stroke-width:0.8;"/>
   </g>
   <g id="patch_4">
    <path d="M 414.72 307.584 
L 414.72 41.472 
" style="fill:none;stroke:#000000;stroke-linecap:square;stroke-linejoin:miter;stroke-width:0.8;"/>
   </g>
   <g id="patch_5">
    <path d="M 57.6 307.584 
L 414.72 307.584 
" style="fill:none;stroke:#000000;stroke-linecap:square;stroke-linejoin:miter;stroke-width:0.8;"/>
   </g>
   <g id="patch_6">
    <path d="M 57.6 41.472 
L 414.72 41.472 
" style="fill:none;stroke:#000000;stroke-linecap:square;stroke-linejoin:miter;stroke-width:0.8;"/>
   </g>
  </g>
 </g>
 <defs>
  <clipPath id="pc92480a264">
   <rect height="266.112" width="357.12" x="57.6" y="41.472"/>
  </clipPath>
 </defs>
</svg>
