<?xml version="1.0" encoding="utf-8" standalone="no"?>
<!DOCTYPE svg PUBLIC "-//W3C//DTD SVG 1.1//EN"
  "http://www.w3.org/Graphics/SVG/1.1/DTD/svg11.dtd">
<!-- Created with matplotlib (https://matplotlib.org/) -->
<svg height="345.6pt" version="1.1" viewBox="0 0 460.8 345.6" width="460.8pt" xmlns="http://www.w3.org/2000/svg" xmlns:xlink="http://www.w3.org/1999/xlink">
 <metadata>
  <rdf:RDF xmlns:cc="http://creativecommons.org/ns#" xmlns:dc="http://purl.org/dc/elements/1.1/" xmlns:rdf="http://www.w3.org/1999/02/22-rdf-syntax-ns#">
   <cc:Work>
    <dc:type rdf:resource="http://purl.org/dc/dcmitype/StillImage"/>
    <dc:date>2021-06-14T14:32:08.951278</dc:date>
    <dc:format>image/svg+xml</dc:format>
    <dc:creator>
     <cc:Agent>
      <dc:title>Matplotlib v3.3.3, https://matplotlib.org/</dc:title>
     </cc:Agent>
    </dc:creator>
   </cc:Work>
  </rdf:RDF>
 </metadata>
 <defs>
  <style type="text/css">*{stroke-linecap:butt;stroke-linejoin:round;}</style>
 </defs>
 <g id="figure_1">
  <g id="patch_1">
   <path d="M 0 345.6 
L 460.8 345.6 
L 460.8 0 
L 0 0 
z
" style="fill:#ffffff;"/>
  </g>
  <g id="axes_1">
   <g id="patch_2">
    <path d="M 57.6 307.584 
L 414.72 307.584 
L 414.72 41.472 
L 57.6 41.472 
z
" style="fill:#7d9051;"/>
   </g>
   <g id="matplotlib.axis_1">
    <g id="xtick_1">
     <g id="line2d_1">
      <defs>
       <path d="M 0 0 
L 0 3.5 
" id="m35b21bdff1" style="stroke:#000000;stroke-width:0.8;"/>
      </defs>
      <g>
       <use style="stroke:#000000;stroke-width:0.8;" x="92.275839" xlink:href="#m35b21bdff1" y="307.584"/>
      </g>
     </g>
     <g id="text_1">
      <!-- −50 -->
      <g transform="translate(81.723495 322.182437)scale(0.1 -0.1)">
       <defs>
        <path d="M 10.59375 35.5 
L 73.1875 35.5 
L 73.1875 27.203125 
L 10.59375 27.203125 
z
" id="DejaVuSans-8722"/>
        <path d="M 10.796875 72.90625 
L 49.515625 72.90625 
L 49.515625 64.59375 
L 19.828125 64.59375 
L 19.828125 46.734375 
Q 21.96875 47.46875 24.109375 47.828125 
Q 26.265625 48.1875 28.421875 48.1875 
Q 40.625 48.1875 47.75 41.5 
Q 54.890625 34.8125 54.890625 23.390625 
Q 54.890625 11.625 47.5625 5.09375 
Q 40.234375 -1.421875 26.90625 -1.421875 
Q 22.3125 -1.421875 17.546875 -0.640625 
Q 12.796875 0.140625 7.71875 1.703125 
L 7.71875 11.625 
Q 12.109375 9.234375 16.796875 8.0625 
Q 21.484375 6.890625 26.703125 6.890625 
Q 35.15625 6.890625 40.078125 11.328125 
Q 45.015625 15.765625 45.015625 23.390625 
Q 45.015625 31 40.078125 35.4375 
Q 35.15625 39.890625 26.703125 39.890625 
Q 22.75 39.890625 18.8125 39.015625 
Q 14.890625 38.140625 10.796875 36.28125 
z
" id="DejaVuSans-53"/>
        <path d="M 31.78125 66.40625 
Q 24.171875 66.40625 20.328125 58.90625 
Q 16.5 51.421875 16.5 36.375 
Q 16.5 21.390625 20.328125 13.890625 
Q 24.171875 6.390625 31.78125 6.390625 
Q 39.453125 6.390625 43.28125 13.890625 
Q 47.125 21.390625 47.125 36.375 
Q 47.125 51.421875 43.28125 58.90625 
Q 39.453125 66.40625 31.78125 66.40625 
z
M 31.78125 74.21875 
Q 44.046875 74.21875 50.515625 64.515625 
Q 56.984375 54.828125 56.984375 36.375 
Q 56.984375 17.96875 50.515625 8.265625 
Q 44.046875 -1.421875 31.78125 -1.421875 
Q 19.53125 -1.421875 13.0625 8.265625 
Q 6.59375 17.96875 6.59375 36.375 
Q 6.59375 54.828125 13.0625 64.515625 
Q 19.53125 74.21875 31.78125 74.21875 
z
" id="DejaVuSans-48"/>
       </defs>
       <use xlink:href="#DejaVuSans-8722"/>
       <use x="83.789062" xlink:href="#DejaVuSans-53"/>
       <use x="147.412109" xlink:href="#DejaVuSans-48"/>
      </g>
     </g>
    </g>
    <g id="xtick_2">
     <g id="line2d_2">
      <g>
       <use style="stroke:#000000;stroke-width:0.8;" x="167.516955" xlink:href="#m35b21bdff1" y="307.584"/>
      </g>
     </g>
     <g id="text_2">
      <!-- 0 -->
      <g transform="translate(164.335705 322.182437)scale(0.1 -0.1)">
       <use xlink:href="#DejaVuSans-48"/>
      </g>
     </g>
    </g>
    <g id="xtick_3">
     <g id="line2d_3">
      <g>
       <use style="stroke:#000000;stroke-width:0.8;" x="242.758072" xlink:href="#m35b21bdff1" y="307.584"/>
      </g>
     </g>
     <g id="text_3">
      <!-- 50 -->
      <g transform="translate(236.395572 322.182437)scale(0.1 -0.1)">
       <use xlink:href="#DejaVuSans-53"/>
       <use x="63.623047" xlink:href="#DejaVuSans-48"/>
      </g>
     </g>
    </g>
    <g id="xtick_4">
     <g id="line2d_4">
      <g>
       <use style="stroke:#000000;stroke-width:0.8;" x="317.999188" xlink:href="#m35b21bdff1" y="307.584"/>
      </g>
     </g>
     <g id="text_4">
      <!-- 100 -->
      <g transform="translate(308.455438 322.182437)scale(0.1 -0.1)">
       <defs>
        <path d="M 12.40625 8.296875 
L 28.515625 8.296875 
L 28.515625 63.921875 
L 10.984375 60.40625 
L 10.984375 69.390625 
L 28.421875 72.90625 
L 38.28125 72.90625 
L 38.28125 8.296875 
L 54.390625 8.296875 
L 54.390625 0 
L 12.40625 0 
z
" id="DejaVuSans-49"/>
       </defs>
       <use xlink:href="#DejaVuSans-49"/>
       <use x="63.623047" xlink:href="#DejaVuSans-48"/>
       <use x="127.246094" xlink:href="#DejaVuSans-48"/>
      </g>
     </g>
    </g>
    <g id="xtick_5">
     <g id="line2d_5">
      <g>
       <use style="stroke:#000000;stroke-width:0.8;" x="393.240304" xlink:href="#m35b21bdff1" y="307.584"/>
      </g>
     </g>
     <g id="text_5">
      <!-- 150 -->
      <g transform="translate(383.696554 322.182437)scale(0.1 -0.1)">
       <use xlink:href="#DejaVuSans-49"/>
       <use x="63.623047" xlink:href="#DejaVuSans-53"/>
       <use x="127.246094" xlink:href="#DejaVuSans-48"/>
      </g>
     </g>
    </g>
   </g>
   <g id="matplotlib.axis_2">
    <g id="ytick_1">
     <g id="line2d_6">
      <defs>
       <path d="M 0 0 
L -3.5 0 
" id="mf88f041e6a" style="stroke:#000000;stroke-width:0.8;"/>
      </defs>
      <g>
       <use style="stroke:#000000;stroke-width:0.8;" x="57.6" xlink:href="#mf88f041e6a" y="295.430089"/>
      </g>
     </g>
     <g id="text_6">
      <!-- 0 -->
      <g transform="translate(44.2375 299.229308)scale(0.1 -0.1)">
       <use xlink:href="#DejaVuSans-48"/>
      </g>
     </g>
    </g>
    <g id="ytick_2">
     <g id="line2d_7">
      <g>
       <use style="stroke:#000000;stroke-width:0.8;" x="57.6" xlink:href="#mf88f041e6a" y="265.333642"/>
      </g>
     </g>
     <g id="text_7">
      <!-- 20 -->
      <g transform="translate(37.875 269.132861)scale(0.1 -0.1)">
       <defs>
        <path d="M 19.1875 8.296875 
L 53.609375 8.296875 
L 53.609375 0 
L 7.328125 0 
L 7.328125 8.296875 
Q 12.9375 14.109375 22.625 23.890625 
Q 32.328125 33.6875 34.8125 36.53125 
Q 39.546875 41.84375 41.421875 45.53125 
Q 43.3125 49.21875 43.3125 52.78125 
Q 43.3125 58.59375 39.234375 62.25 
Q 35.15625 65.921875 28.609375 65.921875 
Q 23.96875 65.921875 18.8125 64.3125 
Q 13.671875 62.703125 7.8125 59.421875 
L 7.8125 69.390625 
Q 13.765625 71.78125 18.9375 73 
Q 24.125 74.21875 28.421875 74.21875 
Q 39.75 74.21875 46.484375 68.546875 
Q 53.21875 62.890625 53.21875 53.421875 
Q 53.21875 48.921875 51.53125 44.890625 
Q 49.859375 40.875 45.40625 35.40625 
Q 44.1875 33.984375 37.640625 27.21875 
Q 31.109375 20.453125 19.1875 8.296875 
z
" id="DejaVuSans-50"/>
       </defs>
       <use xlink:href="#DejaVuSans-50"/>
       <use x="63.623047" xlink:href="#DejaVuSans-48"/>
      </g>
     </g>
    </g>
    <g id="ytick_3">
     <g id="line2d_8">
      <g>
       <use style="stroke:#000000;stroke-width:0.8;" x="57.6" xlink:href="#mf88f041e6a" y="235.237196"/>
      </g>
     </g>
     <g id="text_8">
      <!-- 40 -->
      <g transform="translate(37.875 239.036415)scale(0.1 -0.1)">
       <defs>
        <path d="M 37.796875 64.3125 
L 12.890625 25.390625 
L 37.796875 25.390625 
z
M 35.203125 72.90625 
L 47.609375 72.90625 
L 47.609375 25.390625 
L 58.015625 25.390625 
L 58.015625 17.1875 
L 47.609375 17.1875 
L 47.609375 0 
L 37.796875 0 
L 37.796875 17.1875 
L 4.890625 17.1875 
L 4.890625 26.703125 
z
" id="DejaVuSans-52"/>
       </defs>
       <use xlink:href="#DejaVuSans-52"/>
       <use x="63.623047" xlink:href="#DejaVuSans-48"/>
      </g>
     </g>
    </g>
    <g id="ytick_4">
     <g id="line2d_9">
      <g>
       <use style="stroke:#000000;stroke-width:0.8;" x="57.6" xlink:href="#mf88f041e6a" y="205.140749"/>
      </g>
     </g>
     <g id="text_9">
      <!-- 60 -->
      <g transform="translate(37.875 208.939968)scale(0.1 -0.1)">
       <defs>
        <path d="M 33.015625 40.375 
Q 26.375 40.375 22.484375 35.828125 
Q 18.609375 31.296875 18.609375 23.390625 
Q 18.609375 15.53125 22.484375 10.953125 
Q 26.375 6.390625 33.015625 6.390625 
Q 39.65625 6.390625 43.53125 10.953125 
Q 47.40625 15.53125 47.40625 23.390625 
Q 47.40625 31.296875 43.53125 35.828125 
Q 39.65625 40.375 33.015625 40.375 
z
M 52.59375 71.296875 
L 52.59375 62.3125 
Q 48.875 64.0625 45.09375 64.984375 
Q 41.3125 65.921875 37.59375 65.921875 
Q 27.828125 65.921875 22.671875 59.328125 
Q 17.53125 52.734375 16.796875 39.40625 
Q 19.671875 43.65625 24.015625 45.921875 
Q 28.375 48.1875 33.59375 48.1875 
Q 44.578125 48.1875 50.953125 41.515625 
Q 57.328125 34.859375 57.328125 23.390625 
Q 57.328125 12.15625 50.6875 5.359375 
Q 44.046875 -1.421875 33.015625 -1.421875 
Q 20.359375 -1.421875 13.671875 8.265625 
Q 6.984375 17.96875 6.984375 36.375 
Q 6.984375 53.65625 15.1875 63.9375 
Q 23.390625 74.21875 37.203125 74.21875 
Q 40.921875 74.21875 44.703125 73.484375 
Q 48.484375 72.75 52.59375 71.296875 
z
" id="DejaVuSans-54"/>
       </defs>
       <use xlink:href="#DejaVuSans-54"/>
       <use x="63.623047" xlink:href="#DejaVuSans-48"/>
      </g>
     </g>
    </g>
    <g id="ytick_5">
     <g id="line2d_10">
      <g>
       <use style="stroke:#000000;stroke-width:0.8;" x="57.6" xlink:href="#mf88f041e6a" y="175.044303"/>
      </g>
     </g>
     <g id="text_10">
      <!-- 80 -->
      <g transform="translate(37.875 178.843522)scale(0.1 -0.1)">
       <defs>
        <path d="M 31.78125 34.625 
Q 24.75 34.625 20.71875 30.859375 
Q 16.703125 27.09375 16.703125 20.515625 
Q 16.703125 13.921875 20.71875 10.15625 
Q 24.75 6.390625 31.78125 6.390625 
Q 38.8125 6.390625 42.859375 10.171875 
Q 46.921875 13.96875 46.921875 20.515625 
Q 46.921875 27.09375 42.890625 30.859375 
Q 38.875 34.625 31.78125 34.625 
z
M 21.921875 38.8125 
Q 15.578125 40.375 12.03125 44.71875 
Q 8.5 49.078125 8.5 55.328125 
Q 8.5 64.0625 14.71875 69.140625 
Q 20.953125 74.21875 31.78125 74.21875 
Q 42.671875 74.21875 48.875 69.140625 
Q 55.078125 64.0625 55.078125 55.328125 
Q 55.078125 49.078125 51.53125 44.71875 
Q 48 40.375 41.703125 38.8125 
Q 48.828125 37.15625 52.796875 32.3125 
Q 56.78125 27.484375 56.78125 20.515625 
Q 56.78125 9.90625 50.3125 4.234375 
Q 43.84375 -1.421875 31.78125 -1.421875 
Q 19.734375 -1.421875 13.25 4.234375 
Q 6.78125 9.90625 6.78125 20.515625 
Q 6.78125 27.484375 10.78125 32.3125 
Q 14.796875 37.15625 21.921875 38.8125 
z
M 18.3125 54.390625 
Q 18.3125 48.734375 21.84375 45.5625 
Q 25.390625 42.390625 31.78125 42.390625 
Q 38.140625 42.390625 41.71875 45.5625 
Q 45.3125 48.734375 45.3125 54.390625 
Q 45.3125 60.0625 41.71875 63.234375 
Q 38.140625 66.40625 31.78125 66.40625 
Q 25.390625 66.40625 21.84375 63.234375 
Q 18.3125 60.0625 18.3125 54.390625 
z
" id="DejaVuSans-56"/>
       </defs>
       <use xlink:href="#DejaVuSans-56"/>
       <use x="63.623047" xlink:href="#DejaVuSans-48"/>
      </g>
     </g>
    </g>
    <g id="ytick_6">
     <g id="line2d_11">
      <g>
       <use style="stroke:#000000;stroke-width:0.8;" x="57.6" xlink:href="#mf88f041e6a" y="144.947856"/>
      </g>
     </g>
     <g id="text_11">
      <!-- 100 -->
      <g transform="translate(31.5125 148.747075)scale(0.1 -0.1)">
       <use xlink:href="#DejaVuSans-49"/>
       <use x="63.623047" xlink:href="#DejaVuSans-48"/>
       <use x="127.246094" xlink:href="#DejaVuSans-48"/>
      </g>
     </g>
    </g>
    <g id="ytick_7">
     <g id="line2d_12">
      <g>
       <use style="stroke:#000000;stroke-width:0.8;" x="57.6" xlink:href="#mf88f041e6a" y="114.85141"/>
      </g>
     </g>
     <g id="text_12">
      <!-- 120 -->
      <g transform="translate(31.5125 118.650629)scale(0.1 -0.1)">
       <use xlink:href="#DejaVuSans-49"/>
       <use x="63.623047" xlink:href="#DejaVuSans-50"/>
       <use x="127.246094" xlink:href="#DejaVuSans-48"/>
      </g>
     </g>
    </g>
    <g id="ytick_8">
     <g id="line2d_13">
      <g>
       <use style="stroke:#000000;stroke-width:0.8;" x="57.6" xlink:href="#mf88f041e6a" y="84.754964"/>
      </g>
     </g>
     <g id="text_13">
      <!-- 140 -->
      <g transform="translate(31.5125 88.554182)scale(0.1 -0.1)">
       <use xlink:href="#DejaVuSans-49"/>
       <use x="63.623047" xlink:href="#DejaVuSans-52"/>
       <use x="127.246094" xlink:href="#DejaVuSans-48"/>
      </g>
     </g>
    </g>
    <g id="ytick_9">
     <g id="line2d_14">
      <g>
       <use style="stroke:#000000;stroke-width:0.8;" x="57.6" xlink:href="#mf88f041e6a" y="54.658517"/>
      </g>
     </g>
     <g id="text_14">
      <!-- 160 -->
      <g transform="translate(31.5125 58.457736)scale(0.1 -0.1)">
       <use xlink:href="#DejaVuSans-49"/>
       <use x="63.623047" xlink:href="#DejaVuSans-54"/>
       <use x="127.246094" xlink:href="#DejaVuSans-48"/>
      </g>
     </g>
    </g>
   </g>
   <g id="line2d_15">
    <path clip-path="url(#p6641e367eb)" d="M 167.516955 295.430089 
L 167.784886 277.612163 
L 168.163503 255.805464 
L 167.92057 251.635532 
L 167.221836 245.155121 
L 166.290191 236.514573 
L 166.091836 232.374708 
L 166.230292 228.462025 
L 166.462972 226.615934 
L 166.824433 224.856706 
L 167.329534 223.194365 
L 167.993135 221.638933 
L 168.830094 220.200432 
L 169.887185 218.914871 
L 171.183178 217.798377 
L 172.690922 216.831151 
L 174.383271 215.993396 
L 176.233075 215.265314 
L 180.296456 214.058975 
L 186.893731 212.577061 
L 191.309984 211.576538 
L 195.487307 210.381171 
L 197.418498 209.660925 
L 199.208512 208.832574 
L 200.830199 207.876319 
L 202.256411 206.772364 
L 203.46 205.500909 
L 204.42881 204.044644 
L 205.185561 202.413567 
L 205.755423 200.628848 
L 206.163561 198.711656 
L 206.435144 196.68316 
L 206.669313 192.37693 
L 206.625587 185.612029 
L 206.626736 181.145361 
L 206.88702 176.910883 
L 207.177257 174.933638 
L 207.60778 173.077947 
L 208.203757 171.36498 
L 208.990355 169.815905 
L 209.992742 168.451892 
L 211.227771 167.291579 
L 212.678724 166.324375 
L 214.320407 165.527602 
L 216.127628 164.878581 
L 218.075195 164.354636 
L 222.290593 163.59126 
L 229.036462 162.817313 
L 233.521641 162.284186 
L 237.762033 161.525668 
L 239.727453 161.005194 
L 241.556099 160.360338 
L 243.222777 159.568423 
L 244.702295 158.606771 
L 245.96946 157.452705 
L 247.007042 156.075279 
L 247.831497 154.477303 
L 248.468163 152.686729 
L 248.942378 150.731511 
L 249.279479 148.639603 
L 249.643693 144.157528 
L 249.795112 137.108069 
L 249.928397 132.516988 
L 250.324042 128.273653 
L 250.683594 126.352272 
L 251.184749 124.601688 
L 251.852846 123.049854 
L 252.713221 121.724722 
L 253.791214 120.654247 
L 255.096818 119.870373 
L 256.607776 119.364817 
L 258.301051 119.10519 
L 260.153602 119.059101 
L 262.142392 119.19416 
L 266.436532 119.878164 
L 273.323566 121.453032 
L 277.943353 122.490971 
L 282.370857 123.217024 
L 284.454907 123.382119 
L 286.42177 123.372072 
L 288.248408 123.154494 
L 289.911783 122.696995 
L 291.388855 121.967185 
L 292.752331 120.987462 
L 294.086067 119.813636 
L 295.383745 118.463432 
L 296.639049 116.954577 
L 297.845662 115.304796 
L 300.087549 111.653363 
L 302.058874 107.65094 
L 303.709101 103.439336 
L 304.987699 99.16036 
L 305.844133 94.955819 
L 306.098247 92.925778 
L 306.227871 90.967523 
L 306.226686 89.098781 
L 306.088378 87.337279 
L 305.778688 85.647671 
L 305.27846 83.981458 
L 304.604025 82.336635 
L 303.771715 80.711196 
L 302.797862 79.103137 
L 300.490855 75.931135 
L 297.813658 72.804587 
L 293.389566 68.164898 
L 287.41456 61.988003 
L 284.688368 58.867471 
L 283.447761 57.292165 
L 283.447761 57.292165 
" style="fill:none;stroke:#fea952;stroke-linecap:square;"/>
   </g>
   <g id="line2d_16">
    <path clip-path="url(#p6641e367eb)" d="M 161.497945 295.372178 
L 161.766756 277.494019 
L 162.14984 256.06566 
L 161.92823 252.204479 
L 161.245751 245.875014 
L 160.482626 239.174778 
L 160.14004 234.610884 
L 160.10369 230.013917 
L 160.258251 227.709312 
L 160.566852 225.404483 
L 161.065137 223.106748 
L 161.793059 220.832315 
L 162.790393 218.611834 
L 164.180774 216.377388 
L 165.958448 214.354513 
L 167.93305 212.731967 
L 170.020506 211.436643 
L 172.178701 210.392351 
L 174.386546 209.53625 
L 178.892677 208.205664 
L 185.609413 206.696383 
L 189.772118 205.757018 
L 193.383913 204.74135 
L 196.151101 203.647588 
L 197.885066 202.634347 
L 198.44842 202.166856 
L 198.968578 201.511323 
L 199.451482 200.582673 
L 199.868061 199.375526 
L 200.197505 197.912897 
L 200.432988 196.229322 
L 200.650125 192.342138 
L 200.606517 185.663442 
L 200.612133 180.907864 
L 200.713881 178.482956 
L 200.93155 176.036688 
L 201.313702 173.573284 
L 201.922748 171.100007 
L 202.836759 168.639695 
L 204.139951 166.251439 
L 205.871229 164.064982 
L 207.889103 162.283072 
L 210.050516 160.909177 
L 212.28594 159.862552 
L 214.563885 159.065961 
L 216.869973 158.45724 
L 221.523833 157.621007 
L 228.375528 156.83442 
L 232.587797 156.337777 
L 236.221143 155.706949 
L 238.972836 154.923556 
L 240.649251 154.156527 
L 241.1616 153.831059 
L 241.657758 153.315387 
L 242.160052 152.460734 
L 242.618468 151.267956 
L 242.999752 149.773885 
L 243.291496 148.026488 
L 243.627743 143.957048 
L 243.777027 136.987665 
L 243.923767 132.097158 
L 244.102842 129.633328 
L 244.407456 127.16647 
L 244.896767 124.695626 
L 245.656058 122.221474 
L 246.804341 119.771982 
L 248.471859 117.453575 
L 250.692829 115.49364 
L 253.186883 114.162134 
L 255.695509 113.41506 
L 258.151345 113.087763 
L 260.561434 113.053644 
L 262.947827 113.229002 
L 267.697834 113.992506 
L 274.691002 115.591125 
L 279.043646 116.5731 
L 282.846205 117.216533 
L 285.709823 117.395035 
L 287.245409 117.300488 
L 287.876433 117.078961 
L 288.775555 116.468934 
L 289.746209 115.642608 
L 290.75647 114.613735 
L 292.797746 112.026018 
L 294.747375 108.875884 
L 296.500901 105.339925 
L 297.979406 101.594766 
L 299.119428 97.820495 
L 299.871456 94.208179 
L 300.208582 90.971337 
L 300.167721 88.42248 
L 300.013602 87.378457 
L 299.70917 86.265062 
L 299.246287 85.080078 
L 298.622999 83.829298 
L 296.917666 81.16731 
L 294.678992 78.348075 
L 292.029329 75.416157 
L 281.426549 64.326702 
L 278.718867 61.01633 
L 278.718867 61.01633 
" style="fill:none;stroke:#ffffff;stroke-linecap:square;"/>
   </g>
   <g id="line2d_17">
    <path clip-path="url(#p6641e367eb)" d="M 173.535966 295.488 
L 173.803016 277.730306 
L 174.177166 255.545269 
L 173.91291 251.066584 
L 173.197922 244.435227 
L 172.297213 236.130477 
L 172.11083 232.434291 
L 172.202332 229.214738 
L 172.583729 226.606664 
L 173.195876 224.666031 
L 173.815923 223.475229 
L 174.433305 222.864788 
L 175.361339 222.225659 
L 176.587841 221.594442 
L 178.079605 220.994378 
L 181.700235 219.912285 
L 188.178049 218.457739 
L 192.84785 217.396058 
L 197.590701 216.020991 
L 199.946442 215.123648 
L 202.265924 214.01756 
L 204.514611 212.636251 
L 206.627756 210.910381 
L 208.47158 208.834962 
L 209.889042 206.577964 
L 210.919641 204.244461 
L 211.642785 201.88217 
L 212.129618 199.510415 
L 212.4373 197.136997 
L 212.688502 192.411722 
L 212.644656 185.560616 
L 212.641338 181.382857 
L 212.842491 177.785078 
L 213.292813 175.055888 
L 213.840759 173.380372 
L 214.114254 172.838802 
L 214.566438 172.300086 
L 215.306931 171.739573 
L 216.354874 171.192651 
L 217.691371 170.691201 
L 219.280417 170.252033 
L 223.057353 169.561513 
L 229.697396 168.800207 
L 234.455484 168.230595 
L 236.874719 167.84499 
L 239.302924 167.344388 
L 241.72928 166.681859 
L 244.139362 165.797119 
L 246.503135 164.615312 
L 248.755339 163.057016 
L 250.777321 161.074351 
L 252.356326 158.835172 
L 253.502942 156.493872 
L 254.317857 154.105502 
L 254.885003 151.689138 
L 255.267461 149.252717 
L 255.659643 144.358008 
L 255.813197 137.228473 
L 255.933028 132.936819 
L 256.240628 129.380835 
L 256.71344 126.981902 
L 256.954583 125.995868 
L 256.889599 125.814853 
L 257.006753 125.578612 
L 257.520044 125.314574 
L 258.450756 125.122617 
L 259.74577 125.064558 
L 261.336956 125.159319 
L 265.17523 125.763821 
L 271.95613 127.31494 
L 276.84306 128.408842 
L 279.350321 128.869238 
L 281.895509 129.217515 
L 284.485653 129.401329 
L 287.133718 129.349109 
L 289.844692 128.958262 
L 292.578156 128.093503 
L 294.901277 126.855409 
L 296.729107 125.505991 
L 298.425924 123.984664 
L 300.011019 122.31313 
L 301.49756 120.507985 
L 302.893578 118.583575 
L 304.203204 116.553417 
L 305.427723 114.430841 
L 307.616846 109.961955 
L 309.438796 105.283906 
L 310.85597 100.500224 
L 311.397337 98.098407 
L 311.816811 95.70346 
L 312.104393 93.323344 
L 312.247159 90.963708 
L 312.227507 88.627613 
L 312.009035 86.252077 
L 311.543775 83.916884 
L 310.847751 81.697854 
L 309.961764 79.593191 
L 308.920432 77.593094 
L 307.752058 75.684396 
L 305.123907 72.088392 
L 302.230015 68.714644 
L 297.677676 63.940687 
L 291.891304 57.964248 
L 289.417262 55.143306 
L 288.176655 53.568 
L 288.176655 53.568 
" style="fill:none;stroke:#ffffff;stroke-linecap:square;"/>
   </g>
   <g id="patch_3">
    <path d="M 57.6 307.584 
L 57.6 41.472 
" style="fill:none;stroke:#000000;stroke-linecap:square;stroke-linejoin:miter;stroke-width:0.8;"/>
   </g>
   <g id="patch_4">
    <path d="M 414.72 307.584 
L 414.72 41.472 
" style="fill:none;stroke:#000000;stroke-linecap:square;stroke-linejoin:miter;stroke-width:0.8;"/>
   </g>
   <g id="patch_5">
    <path d="M 57.6 307.584 
L 414.72 307.584 
" style="fill:none;stroke:#000000;stroke-linecap:square;stroke-linejoin:miter;stroke-width:0.8;"/>
   </g>
   <g id="patch_6">
    <path d="M 57.6 41.472 
L 414.72 41.472 
" style="fill:none;stroke:#000000;stroke-linecap:square;stroke-linejoin:miter;stroke-width:0.8;"/>
   </g>
  </g>
 </g>
 <defs>
  <clipPath id="p6641e367eb">
   <rect height="266.112" width="357.12" x="57.6" y="41.472"/>
  </clipPath>
 </defs>
</svg>
