<?xml version="1.0" encoding="utf-8" standalone="no"?>
<!DOCTYPE svg PUBLIC "-//W3C//DTD SVG 1.1//EN"
  "http://www.w3.org/Graphics/SVG/1.1/DTD/svg11.dtd">
<!-- Created with matplotlib (https://matplotlib.org/) -->
<svg height="345.6pt" version="1.1" viewBox="0 0 460.8 345.6" width="460.8pt" xmlns="http://www.w3.org/2000/svg" xmlns:xlink="http://www.w3.org/1999/xlink">
 <metadata>
  <rdf:RDF xmlns:cc="http://creativecommons.org/ns#" xmlns:dc="http://purl.org/dc/elements/1.1/" xmlns:rdf="http://www.w3.org/1999/02/22-rdf-syntax-ns#">
   <cc:Work>
    <dc:type rdf:resource="http://purl.org/dc/dcmitype/StillImage"/>
    <dc:date>2021-05-28T13:30:58.536727</dc:date>
    <dc:format>image/svg+xml</dc:format>
    <dc:creator>
     <cc:Agent>
      <dc:title>Matplotlib v3.3.3, https://matplotlib.org/</dc:title>
     </cc:Agent>
    </dc:creator>
   </cc:Work>
  </rdf:RDF>
 </metadata>
 <defs>
  <style type="text/css">*{stroke-linecap:butt;stroke-linejoin:round;}</style>
 </defs>
 <g id="figure_1">
  <g id="patch_1">
   <path d="M 0 345.6 
L 460.8 345.6 
L 460.8 0 
L 0 0 
z
" style="fill:#ffffff;"/>
  </g>
  <g id="axes_1">
   <g id="patch_2">
    <path d="M 57.6 307.584 
L 414.72 307.584 
L 414.72 41.472 
L 57.6 41.472 
z
" style="fill:#7d9051;"/>
   </g>
   <g id="matplotlib.axis_1">
    <g id="xtick_1">
     <g id="line2d_1">
      <defs>
       <path d="M 0 0 
L 0 3.5 
" id="m14b93b6d14" style="stroke:#000000;stroke-width:0.8;"/>
      </defs>
      <g>
       <use style="stroke:#000000;stroke-width:0.8;" x="65.864156" xlink:href="#m14b93b6d14" y="307.584"/>
      </g>
     </g>
     <g id="text_1">
      <!-- −100 -->
      <g transform="translate(52.130562 322.182437)scale(0.1 -0.1)">
       <defs>
        <path d="M 10.59375 35.5 
L 73.1875 35.5 
L 73.1875 27.203125 
L 10.59375 27.203125 
z
" id="DejaVuSans-8722"/>
        <path d="M 12.40625 8.296875 
L 28.515625 8.296875 
L 28.515625 63.921875 
L 10.984375 60.40625 
L 10.984375 69.390625 
L 28.421875 72.90625 
L 38.28125 72.90625 
L 38.28125 8.296875 
L 54.390625 8.296875 
L 54.390625 0 
L 12.40625 0 
z
" id="DejaVuSans-49"/>
        <path d="M 31.78125 66.40625 
Q 24.171875 66.40625 20.328125 58.90625 
Q 16.5 51.421875 16.5 36.375 
Q 16.5 21.390625 20.328125 13.890625 
Q 24.171875 6.390625 31.78125 6.390625 
Q 39.453125 6.390625 43.28125 13.890625 
Q 47.125 21.390625 47.125 36.375 
Q 47.125 51.421875 43.28125 58.90625 
Q 39.453125 66.40625 31.78125 66.40625 
z
M 31.78125 74.21875 
Q 44.046875 74.21875 50.515625 64.515625 
Q 56.984375 54.828125 56.984375 36.375 
Q 56.984375 17.96875 50.515625 8.265625 
Q 44.046875 -1.421875 31.78125 -1.421875 
Q 19.53125 -1.421875 13.0625 8.265625 
Q 6.59375 17.96875 6.59375 36.375 
Q 6.59375 54.828125 13.0625 64.515625 
Q 19.53125 74.21875 31.78125 74.21875 
z
" id="DejaVuSans-48"/>
       </defs>
       <use xlink:href="#DejaVuSans-8722"/>
       <use x="83.789062" xlink:href="#DejaVuSans-49"/>
       <use x="147.412109" xlink:href="#DejaVuSans-48"/>
       <use x="211.035156" xlink:href="#DejaVuSans-48"/>
      </g>
     </g>
    </g>
    <g id="xtick_2">
     <g id="line2d_2">
      <g>
       <use style="stroke:#000000;stroke-width:0.8;" x="141.522771" xlink:href="#m14b93b6d14" y="307.584"/>
      </g>
     </g>
     <g id="text_2">
      <!-- −50 -->
      <g transform="translate(130.970427 322.182437)scale(0.1 -0.1)">
       <defs>
        <path d="M 10.796875 72.90625 
L 49.515625 72.90625 
L 49.515625 64.59375 
L 19.828125 64.59375 
L 19.828125 46.734375 
Q 21.96875 47.46875 24.109375 47.828125 
Q 26.265625 48.1875 28.421875 48.1875 
Q 40.625 48.1875 47.75 41.5 
Q 54.890625 34.8125 54.890625 23.390625 
Q 54.890625 11.625 47.5625 5.09375 
Q 40.234375 -1.421875 26.90625 -1.421875 
Q 22.3125 -1.421875 17.546875 -0.640625 
Q 12.796875 0.140625 7.71875 1.703125 
L 7.71875 11.625 
Q 12.109375 9.234375 16.796875 8.0625 
Q 21.484375 6.890625 26.703125 6.890625 
Q 35.15625 6.890625 40.078125 11.328125 
Q 45.015625 15.765625 45.015625 23.390625 
Q 45.015625 31 40.078125 35.4375 
Q 35.15625 39.890625 26.703125 39.890625 
Q 22.75 39.890625 18.8125 39.015625 
Q 14.890625 38.140625 10.796875 36.28125 
z
" id="DejaVuSans-53"/>
       </defs>
       <use xlink:href="#DejaVuSans-8722"/>
       <use x="83.789062" xlink:href="#DejaVuSans-53"/>
       <use x="147.412109" xlink:href="#DejaVuSans-48"/>
      </g>
     </g>
    </g>
    <g id="xtick_3">
     <g id="line2d_3">
      <g>
       <use style="stroke:#000000;stroke-width:0.8;" x="217.181385" xlink:href="#m14b93b6d14" y="307.584"/>
      </g>
     </g>
     <g id="text_3">
      <!-- 0 -->
      <g transform="translate(214.000135 322.182437)scale(0.1 -0.1)">
       <use xlink:href="#DejaVuSans-48"/>
      </g>
     </g>
    </g>
    <g id="xtick_4">
     <g id="line2d_4">
      <g>
       <use style="stroke:#000000;stroke-width:0.8;" x="292.84" xlink:href="#m14b93b6d14" y="307.584"/>
      </g>
     </g>
     <g id="text_4">
      <!-- 50 -->
      <g transform="translate(286.4775 322.182437)scale(0.1 -0.1)">
       <use xlink:href="#DejaVuSans-53"/>
       <use x="63.623047" xlink:href="#DejaVuSans-48"/>
      </g>
     </g>
    </g>
    <g id="xtick_5">
     <g id="line2d_5">
      <g>
       <use style="stroke:#000000;stroke-width:0.8;" x="368.498615" xlink:href="#m14b93b6d14" y="307.584"/>
      </g>
     </g>
     <g id="text_5">
      <!-- 100 -->
      <g transform="translate(358.954865 322.182437)scale(0.1 -0.1)">
       <use xlink:href="#DejaVuSans-49"/>
       <use x="63.623047" xlink:href="#DejaVuSans-48"/>
       <use x="127.246094" xlink:href="#DejaVuSans-48"/>
      </g>
     </g>
    </g>
   </g>
   <g id="matplotlib.axis_2">
    <g id="ytick_1">
     <g id="line2d_6">
      <defs>
       <path d="M 0 0 
L -3.5 0 
" id="m2eb83d2bc7" style="stroke:#000000;stroke-width:0.8;"/>
      </defs>
      <g>
       <use style="stroke:#000000;stroke-width:0.8;" x="57.6" xlink:href="#m2eb83d2bc7" y="295.429767"/>
      </g>
     </g>
     <g id="text_6">
      <!-- 0 -->
      <g transform="translate(44.2375 299.228986)scale(0.1 -0.1)">
       <use xlink:href="#DejaVuSans-48"/>
      </g>
     </g>
    </g>
    <g id="ytick_2">
     <g id="line2d_7">
      <g>
       <use style="stroke:#000000;stroke-width:0.8;" x="57.6" xlink:href="#m2eb83d2bc7" y="265.166322"/>
      </g>
     </g>
     <g id="text_7">
      <!-- 20 -->
      <g transform="translate(37.875 268.96554)scale(0.1 -0.1)">
       <defs>
        <path d="M 19.1875 8.296875 
L 53.609375 8.296875 
L 53.609375 0 
L 7.328125 0 
L 7.328125 8.296875 
Q 12.9375 14.109375 22.625 23.890625 
Q 32.328125 33.6875 34.8125 36.53125 
Q 39.546875 41.84375 41.421875 45.53125 
Q 43.3125 49.21875 43.3125 52.78125 
Q 43.3125 58.59375 39.234375 62.25 
Q 35.15625 65.921875 28.609375 65.921875 
Q 23.96875 65.921875 18.8125 64.3125 
Q 13.671875 62.703125 7.8125 59.421875 
L 7.8125 69.390625 
Q 13.765625 71.78125 18.9375 73 
Q 24.125 74.21875 28.421875 74.21875 
Q 39.75 74.21875 46.484375 68.546875 
Q 53.21875 62.890625 53.21875 53.421875 
Q 53.21875 48.921875 51.53125 44.890625 
Q 49.859375 40.875 45.40625 35.40625 
Q 44.1875 33.984375 37.640625 27.21875 
Q 31.109375 20.453125 19.1875 8.296875 
z
" id="DejaVuSans-50"/>
       </defs>
       <use xlink:href="#DejaVuSans-50"/>
       <use x="63.623047" xlink:href="#DejaVuSans-48"/>
      </g>
     </g>
    </g>
    <g id="ytick_3">
     <g id="line2d_8">
      <g>
       <use style="stroke:#000000;stroke-width:0.8;" x="57.6" xlink:href="#m2eb83d2bc7" y="234.902876"/>
      </g>
     </g>
     <g id="text_8">
      <!-- 40 -->
      <g transform="translate(37.875 238.702094)scale(0.1 -0.1)">
       <defs>
        <path d="M 37.796875 64.3125 
L 12.890625 25.390625 
L 37.796875 25.390625 
z
M 35.203125 72.90625 
L 47.609375 72.90625 
L 47.609375 25.390625 
L 58.015625 25.390625 
L 58.015625 17.1875 
L 47.609375 17.1875 
L 47.609375 0 
L 37.796875 0 
L 37.796875 17.1875 
L 4.890625 17.1875 
L 4.890625 26.703125 
z
" id="DejaVuSans-52"/>
       </defs>
       <use xlink:href="#DejaVuSans-52"/>
       <use x="63.623047" xlink:href="#DejaVuSans-48"/>
      </g>
     </g>
    </g>
    <g id="ytick_4">
     <g id="line2d_9">
      <g>
       <use style="stroke:#000000;stroke-width:0.8;" x="57.6" xlink:href="#m2eb83d2bc7" y="204.63943"/>
      </g>
     </g>
     <g id="text_9">
      <!-- 60 -->
      <g transform="translate(37.875 208.438649)scale(0.1 -0.1)">
       <defs>
        <path d="M 33.015625 40.375 
Q 26.375 40.375 22.484375 35.828125 
Q 18.609375 31.296875 18.609375 23.390625 
Q 18.609375 15.53125 22.484375 10.953125 
Q 26.375 6.390625 33.015625 6.390625 
Q 39.65625 6.390625 43.53125 10.953125 
Q 47.40625 15.53125 47.40625 23.390625 
Q 47.40625 31.296875 43.53125 35.828125 
Q 39.65625 40.375 33.015625 40.375 
z
M 52.59375 71.296875 
L 52.59375 62.3125 
Q 48.875 64.0625 45.09375 64.984375 
Q 41.3125 65.921875 37.59375 65.921875 
Q 27.828125 65.921875 22.671875 59.328125 
Q 17.53125 52.734375 16.796875 39.40625 
Q 19.671875 43.65625 24.015625 45.921875 
Q 28.375 48.1875 33.59375 48.1875 
Q 44.578125 48.1875 50.953125 41.515625 
Q 57.328125 34.859375 57.328125 23.390625 
Q 57.328125 12.15625 50.6875 5.359375 
Q 44.046875 -1.421875 33.015625 -1.421875 
Q 20.359375 -1.421875 13.671875 8.265625 
Q 6.984375 17.96875 6.984375 36.375 
Q 6.984375 53.65625 15.1875 63.9375 
Q 23.390625 74.21875 37.203125 74.21875 
Q 40.921875 74.21875 44.703125 73.484375 
Q 48.484375 72.75 52.59375 71.296875 
z
" id="DejaVuSans-54"/>
       </defs>
       <use xlink:href="#DejaVuSans-54"/>
       <use x="63.623047" xlink:href="#DejaVuSans-48"/>
      </g>
     </g>
    </g>
    <g id="ytick_5">
     <g id="line2d_10">
      <g>
       <use style="stroke:#000000;stroke-width:0.8;" x="57.6" xlink:href="#m2eb83d2bc7" y="174.375984"/>
      </g>
     </g>
     <g id="text_10">
      <!-- 80 -->
      <g transform="translate(37.875 178.175203)scale(0.1 -0.1)">
       <defs>
        <path d="M 31.78125 34.625 
Q 24.75 34.625 20.71875 30.859375 
Q 16.703125 27.09375 16.703125 20.515625 
Q 16.703125 13.921875 20.71875 10.15625 
Q 24.75 6.390625 31.78125 6.390625 
Q 38.8125 6.390625 42.859375 10.171875 
Q 46.921875 13.96875 46.921875 20.515625 
Q 46.921875 27.09375 42.890625 30.859375 
Q 38.875 34.625 31.78125 34.625 
z
M 21.921875 38.8125 
Q 15.578125 40.375 12.03125 44.71875 
Q 8.5 49.078125 8.5 55.328125 
Q 8.5 64.0625 14.71875 69.140625 
Q 20.953125 74.21875 31.78125 74.21875 
Q 42.671875 74.21875 48.875 69.140625 
Q 55.078125 64.0625 55.078125 55.328125 
Q 55.078125 49.078125 51.53125 44.71875 
Q 48 40.375 41.703125 38.8125 
Q 48.828125 37.15625 52.796875 32.3125 
Q 56.78125 27.484375 56.78125 20.515625 
Q 56.78125 9.90625 50.3125 4.234375 
Q 43.84375 -1.421875 31.78125 -1.421875 
Q 19.734375 -1.421875 13.25 4.234375 
Q 6.78125 9.90625 6.78125 20.515625 
Q 6.78125 27.484375 10.78125 32.3125 
Q 14.796875 37.15625 21.921875 38.8125 
z
M 18.3125 54.390625 
Q 18.3125 48.734375 21.84375 45.5625 
Q 25.390625 42.390625 31.78125 42.390625 
Q 38.140625 42.390625 41.71875 45.5625 
Q 45.3125 48.734375 45.3125 54.390625 
Q 45.3125 60.0625 41.71875 63.234375 
Q 38.140625 66.40625 31.78125 66.40625 
Q 25.390625 66.40625 21.84375 63.234375 
Q 18.3125 60.0625 18.3125 54.390625 
z
" id="DejaVuSans-56"/>
       </defs>
       <use xlink:href="#DejaVuSans-56"/>
       <use x="63.623047" xlink:href="#DejaVuSans-48"/>
      </g>
     </g>
    </g>
    <g id="ytick_6">
     <g id="line2d_11">
      <g>
       <use style="stroke:#000000;stroke-width:0.8;" x="57.6" xlink:href="#m2eb83d2bc7" y="144.112538"/>
      </g>
     </g>
     <g id="text_11">
      <!-- 100 -->
      <g transform="translate(31.5125 147.911757)scale(0.1 -0.1)">
       <use xlink:href="#DejaVuSans-49"/>
       <use x="63.623047" xlink:href="#DejaVuSans-48"/>
       <use x="127.246094" xlink:href="#DejaVuSans-48"/>
      </g>
     </g>
    </g>
    <g id="ytick_7">
     <g id="line2d_12">
      <g>
       <use style="stroke:#000000;stroke-width:0.8;" x="57.6" xlink:href="#m2eb83d2bc7" y="113.849092"/>
      </g>
     </g>
     <g id="text_12">
      <!-- 120 -->
      <g transform="translate(31.5125 117.648311)scale(0.1 -0.1)">
       <use xlink:href="#DejaVuSans-49"/>
       <use x="63.623047" xlink:href="#DejaVuSans-50"/>
       <use x="127.246094" xlink:href="#DejaVuSans-48"/>
      </g>
     </g>
    </g>
    <g id="ytick_8">
     <g id="line2d_13">
      <g>
       <use style="stroke:#000000;stroke-width:0.8;" x="57.6" xlink:href="#m2eb83d2bc7" y="83.585646"/>
      </g>
     </g>
     <g id="text_13">
      <!-- 140 -->
      <g transform="translate(31.5125 87.384865)scale(0.1 -0.1)">
       <use xlink:href="#DejaVuSans-49"/>
       <use x="63.623047" xlink:href="#DejaVuSans-52"/>
       <use x="127.246094" xlink:href="#DejaVuSans-48"/>
      </g>
     </g>
    </g>
    <g id="ytick_9">
     <g id="line2d_14">
      <g>
       <use style="stroke:#000000;stroke-width:0.8;" x="57.6" xlink:href="#m2eb83d2bc7" y="53.322201"/>
      </g>
     </g>
     <g id="text_14">
      <!-- 160 -->
      <g transform="translate(31.5125 57.121419)scale(0.1 -0.1)">
       <use xlink:href="#DejaVuSans-49"/>
       <use x="63.623047" xlink:href="#DejaVuSans-54"/>
       <use x="127.246094" xlink:href="#DejaVuSans-48"/>
      </g>
     </g>
    </g>
   </g>
   <g id="line2d_15">
    <path clip-path="url(#p1882cbbec6)" d="M 217.181385 295.429767 
L 217.450803 277.512973 
L 217.909119 255.603903 
L 218.208023 251.54124 
L 219.155408 243.292121 
L 219.827712 237.118822 
L 220.093844 233.067763 
L 220.11236 229.10439 
L 219.795867 225.25965 
L 219.484681 223.391439 
L 219.05697 221.564491 
L 218.50181 219.782676 
L 217.751541 218.051208 
L 216.766484 216.369558 
L 215.577691 214.73298 
L 214.216211 213.136726 
L 211.099392 210.046202 
L 207.664425 207.06001 
L 200.833649 201.248707 
L 197.934641 198.347641 
L 196.722907 196.88164 
L 195.711085 195.398997 
L 194.930227 193.894965 
L 194.411382 192.364797 
L 194.1856 190.803745 
L 194.221334 189.166743 
L 194.457245 187.424364 
L 194.8797 185.595323 
L 195.475065 183.698334 
L 196.229706 181.752113 
L 197.129989 179.775374 
L 199.312944 175.805201 
L 201.914859 171.937531 
L 204.826661 168.322082 
L 207.939277 165.108571 
L 209.536806 163.699328 
L 211.143637 162.446715 
L 212.746136 161.369444 
L 214.330668 160.486231 
L 215.8836 159.815791 
L 217.48163 159.425038 
L 219.200573 159.343836 
L 221.025467 159.535325 
L 222.941349 159.962645 
L 224.933257 160.588934 
L 229.085302 162.290977 
L 235.509513 165.414793 
L 239.748523 167.447795 
L 243.812848 169.097131 
L 245.742099 169.685772 
L 247.582792 170.067913 
L 249.319965 170.206695 
L 250.938657 170.065256 
L 252.423904 169.606736 
L 253.796577 168.864206 
L 255.090641 167.907077 
L 256.310775 166.752993 
L 257.46166 165.4196 
L 258.547978 163.924543 
L 259.574409 162.285469 
L 261.466334 158.645848 
L 263.17488 154.641902 
L 264.737494 150.414794 
L 267.574708 141.855751 
L 269.598051 135.900576 
L 272.955739 126.408496 
L 274.796816 120.568143 
L 275.872396 116.642083 
L 276.782013 112.705695 
L 277.487508 108.772404 
L 277.950722 104.855635 
L 278.133496 100.968815 
L 278.022948 97.075802 
L 277.737519 92.931551 
L 277.276929 88.599432 
L 276.61617 84.196709 
L 275.730233 79.840647 
L 274.594109 75.648509 
L 273.18279 71.73756 
L 272.366117 69.924176 
L 271.471267 68.225063 
L 270.495114 66.65488 
L 269.434531 65.228284 
L 268.286393 63.959933 
L 267.047574 62.864485 
L 265.690311 61.95261 
L 264.196715 61.215231 
L 262.578472 60.637394 
L 260.847268 60.20414 
L 259.014789 59.900512 
L 255.092747 59.62231 
L 250.905831 59.683131 
L 244.333315 60.148286 
L 235.515428 60.838291 
L 231.293455 60.943983 
L 229.270111 60.884652 
L 229.270111 60.884652 
" style="fill:none;stroke:#fea952;stroke-linecap:square;"/>
   </g>
   <g id="line2d_16">
    <path clip-path="url(#p1882cbbec6)" d="M 211.128976 295.371535 
L 211.39928 277.394174 
L 211.868096 255.228284 
L 212.186627 250.92656 
L 213.145178 242.576453 
L 213.793319 236.648553 
L 214.042741 232.929204 
L 214.069547 229.450008 
L 213.825437 226.254138 
L 213.278272 223.36496 
L 212.948092 222.18918 
L 212.528898 221.110464 
L 211.869399 219.926749 
L 210.972556 218.660801 
L 209.856676 217.335475 
L 207.080202 214.571814 
L 203.789789 211.709982 
L 196.65809 205.630459 
L 194.925832 203.969259 
L 193.269328 202.203792 
L 191.723467 200.29348 
L 190.339228 198.18794 
L 189.198096 195.8386 
L 188.421025 193.231209 
L 188.134353 190.671655 
L 188.223372 188.354642 
L 188.559818 186.06223 
L 189.104749 183.782869 
L 189.831756 181.510159 
L 190.721395 179.243417 
L 191.758006 176.986674 
L 192.928027 174.747483 
L 194.219152 172.5359 
L 195.619962 170.363724 
L 198.709013 166.190237 
L 200.378924 164.21688 
L 202.122567 162.338379 
L 203.935234 160.569553 
L 205.81553 158.92574 
L 207.766837 157.423542 
L 209.799255 156.082579 
L 211.931597 154.929298 
L 214.445941 153.936319 
L 217.196024 153.379091 
L 219.832225 153.324196 
L 222.343087 153.627794 
L 224.756794 154.188634 
L 227.103151 154.938571 
L 231.661634 156.813974 
L 238.173688 159.979978 
L 242.150008 161.891905 
L 245.579216 163.307918 
L 248.064802 164.034447 
L 249.544115 164.283029 
L 250.197337 163.997943 
L 250.931418 163.509815 
L 251.728803 162.798176 
L 252.565081 161.861713 
L 253.418137 160.712103 
L 255.113078 157.851244 
L 256.738834 154.389597 
L 258.2752 150.502791 
L 260.437046 144.229547 
L 263.909294 133.833431 
L 267.20629 124.516704 
L 268.9738 118.916619 
L 270.438114 113.377929 
L 271.190989 109.750817 
L 271.730177 106.198518 
L 272.029202 102.739295 
L 272.060738 99.301927 
L 271.712648 93.511188 
L 271.281142 89.427434 
L 270.668338 85.318469 
L 269.861038 81.3197 
L 268.855232 77.572133 
L 267.663954 74.223015 
L 266.330944 71.420705 
L 264.947271 69.290246 
L 263.672144 67.888579 
L 263.010883 67.379922 
L 262.161307 66.915421 
L 261.109033 66.509003 
L 259.857875 66.175417 
L 258.422607 65.924163 
L 255.079597 65.674985 
L 251.241444 65.726508 
L 244.862288 66.177816 
L 235.756778 66.886167 
L 231.116047 66.994072 
L 229.092702 66.934741 
L 229.092702 66.934741 
" style="fill:none;stroke:#ffffff;stroke-linecap:square;"/>
   </g>
   <g id="line2d_17">
    <path clip-path="url(#p1882cbbec6)" d="M 223.233794 295.488 
L 223.502326 277.631772 
L 224.065907 254.092837 
L 224.661616 248.152662 
L 225.862105 237.589091 
L 226.144947 233.206322 
L 226.155174 228.758773 
L 226.019222 226.516034 
L 225.766298 224.265163 
L 225.378022 222.011736 
L 224.835669 219.764022 
L 224.055528 217.376172 
L 222.974183 214.991951 
L 221.663569 212.812367 
L 220.182827 210.805159 
L 218.575747 208.937977 
L 215.118581 205.520591 
L 211.53906 202.410037 
L 205.009209 196.866954 
L 202.599954 194.491491 
L 201.082942 192.610055 
L 200.401739 191.498385 
L 200.236848 190.935835 
L 200.219295 189.978843 
L 200.354671 188.786497 
L 200.654651 187.407777 
L 201.118374 185.886509 
L 202.501972 182.564074 
L 204.406737 179.074501 
L 206.709889 175.631138 
L 209.274398 172.427283 
L 211.943321 169.647588 
L 214.520437 167.469888 
L 216.729738 166.043165 
L 217.767236 165.470985 
L 218.568922 165.363476 
L 219.707847 165.442857 
L 221.125904 165.736656 
L 222.763362 166.239297 
L 226.508971 167.76798 
L 232.845337 170.849608 
L 237.347037 173.003686 
L 239.666902 173.999432 
L 242.04648 174.886344 
L 244.51175 175.612093 
L 247.100782 176.101379 
L 249.846832 176.23641 
L 252.724076 175.848622 
L 255.303694 174.930443 
L 257.395818 173.730469 
L 259.249864 172.304339 
L 260.892747 170.70781 
L 262.358239 168.977487 
L 263.67782 167.136984 
L 264.877581 165.202902 
L 266.99588 161.107387 
L 268.831664 156.795005 
L 270.462954 152.377994 
L 273.324801 143.745585 
L 275.286808 137.967722 
L 278.705189 128.300289 
L 280.619832 122.219667 
L 281.754079 118.070667 
L 282.724551 113.855167 
L 283.485986 109.580678 
L 283.990219 105.255046 
L 284.185647 100.888131 
L 284.064789 96.713576 
L 283.76239 92.351914 
L 283.272716 87.77143 
L 282.564002 83.07495 
L 281.599428 78.361595 
L 280.332987 73.724885 
L 279.567857 71.462732 
L 278.701627 69.252105 
L 277.721498 67.103726 
L 276.61159 65.029422 
L 275.352527 63.043705 
L 273.921792 61.166321 
L 272.295862 59.425707 
L 270.423004 57.840392 
L 268.369738 56.525298 
L 266.232123 55.515042 
L 264.047911 54.765785 
L 261.836662 54.232863 
L 259.606971 53.876862 
L 257.362541 53.664883 
L 252.840244 53.568 
L 248.302073 53.766622 
L 231.470863 54.893895 
L 229.447519 54.834564 
L 229.447519 54.834564 
" style="fill:none;stroke:#ffffff;stroke-linecap:square;"/>
   </g>
   <g id="patch_3">
    <path d="M 57.6 307.584 
L 57.6 41.472 
" style="fill:none;stroke:#000000;stroke-linecap:square;stroke-linejoin:miter;stroke-width:0.8;"/>
   </g>
   <g id="patch_4">
    <path d="M 414.72 307.584 
L 414.72 41.472 
" style="fill:none;stroke:#000000;stroke-linecap:square;stroke-linejoin:miter;stroke-width:0.8;"/>
   </g>
   <g id="patch_5">
    <path d="M 57.6 307.584 
L 414.72 307.584 
" style="fill:none;stroke:#000000;stroke-linecap:square;stroke-linejoin:miter;stroke-width:0.8;"/>
   </g>
   <g id="patch_6">
    <path d="M 57.6 41.472 
L 414.72 41.472 
" style="fill:none;stroke:#000000;stroke-linecap:square;stroke-linejoin:miter;stroke-width:0.8;"/>
   </g>
  </g>
 </g>
 <defs>
  <clipPath id="p1882cbbec6">
   <rect height="266.112" width="357.12" x="57.6" y="41.472"/>
  </clipPath>
 </defs>
</svg>
