<?xml version="1.0" encoding="utf-8" standalone="no"?>
<!DOCTYPE svg PUBLIC "-//W3C//DTD SVG 1.1//EN"
  "http://www.w3.org/Graphics/SVG/1.1/DTD/svg11.dtd">
<!-- Created with matplotlib (https://matplotlib.org/) -->
<svg height="345.6pt" version="1.1" viewBox="0 0 460.8 345.6" width="460.8pt" xmlns="http://www.w3.org/2000/svg" xmlns:xlink="http://www.w3.org/1999/xlink">
 <metadata>
  <rdf:RDF xmlns:cc="http://creativecommons.org/ns#" xmlns:dc="http://purl.org/dc/elements/1.1/" xmlns:rdf="http://www.w3.org/1999/02/22-rdf-syntax-ns#">
   <cc:Work>
    <dc:type rdf:resource="http://purl.org/dc/dcmitype/StillImage"/>
    <dc:date>2021-06-17T15:25:45.655339</dc:date>
    <dc:format>image/svg+xml</dc:format>
    <dc:creator>
     <cc:Agent>
      <dc:title>Matplotlib v3.3.3, https://matplotlib.org/</dc:title>
     </cc:Agent>
    </dc:creator>
   </cc:Work>
  </rdf:RDF>
 </metadata>
 <defs>
  <style type="text/css">*{stroke-linecap:butt;stroke-linejoin:round;}</style>
 </defs>
 <g id="figure_1">
  <g id="patch_1">
   <path d="M 0 345.6 
L 460.8 345.6 
L 460.8 0 
L 0 0 
z
" style="fill:#ffffff;"/>
  </g>
  <g id="axes_1">
   <g id="patch_2">
    <path d="M 57.6 307.584 
L 414.72 307.584 
L 414.72 41.472 
L 57.6 41.472 
z
" style="fill:#7d9051;"/>
   </g>
   <g id="matplotlib.axis_1">
    <g id="xtick_1">
     <g id="line2d_1">
      <defs>
       <path d="M 0 0 
L 0 3.5 
" id="ma477e3ebf0" style="stroke:#000000;stroke-width:0.8;"/>
      </defs>
      <g>
       <use style="stroke:#000000;stroke-width:0.8;" x="68.391917" xlink:href="#ma477e3ebf0" y="307.584"/>
      </g>
     </g>
     <g id="text_1">
      <!-- −50 -->
      <g transform="translate(57.839573 322.182437)scale(0.1 -0.1)">
       <defs>
        <path d="M 10.59375 35.5 
L 73.1875 35.5 
L 73.1875 27.203125 
L 10.59375 27.203125 
z
" id="DejaVuSans-8722"/>
        <path d="M 10.796875 72.90625 
L 49.515625 72.90625 
L 49.515625 64.59375 
L 19.828125 64.59375 
L 19.828125 46.734375 
Q 21.96875 47.46875 24.109375 47.828125 
Q 26.265625 48.1875 28.421875 48.1875 
Q 40.625 48.1875 47.75 41.5 
Q 54.890625 34.8125 54.890625 23.390625 
Q 54.890625 11.625 47.5625 5.09375 
Q 40.234375 -1.421875 26.90625 -1.421875 
Q 22.3125 -1.421875 17.546875 -0.640625 
Q 12.796875 0.140625 7.71875 1.703125 
L 7.71875 11.625 
Q 12.109375 9.234375 16.796875 8.0625 
Q 21.484375 6.890625 26.703125 6.890625 
Q 35.15625 6.890625 40.078125 11.328125 
Q 45.015625 15.765625 45.015625 23.390625 
Q 45.015625 31 40.078125 35.4375 
Q 35.15625 39.890625 26.703125 39.890625 
Q 22.75 39.890625 18.8125 39.015625 
Q 14.890625 38.140625 10.796875 36.28125 
z
" id="DejaVuSans-53"/>
        <path d="M 31.78125 66.40625 
Q 24.171875 66.40625 20.328125 58.90625 
Q 16.5 51.421875 16.5 36.375 
Q 16.5 21.390625 20.328125 13.890625 
Q 24.171875 6.390625 31.78125 6.390625 
Q 39.453125 6.390625 43.28125 13.890625 
Q 47.125 21.390625 47.125 36.375 
Q 47.125 51.421875 43.28125 58.90625 
Q 39.453125 66.40625 31.78125 66.40625 
z
M 31.78125 74.21875 
Q 44.046875 74.21875 50.515625 64.515625 
Q 56.984375 54.828125 56.984375 36.375 
Q 56.984375 17.96875 50.515625 8.265625 
Q 44.046875 -1.421875 31.78125 -1.421875 
Q 19.53125 -1.421875 13.0625 8.265625 
Q 6.59375 17.96875 6.59375 36.375 
Q 6.59375 54.828125 13.0625 64.515625 
Q 19.53125 74.21875 31.78125 74.21875 
z
" id="DejaVuSans-48"/>
       </defs>
       <use xlink:href="#DejaVuSans-8722"/>
       <use x="83.789062" xlink:href="#DejaVuSans-53"/>
       <use x="147.412109" xlink:href="#DejaVuSans-48"/>
      </g>
     </g>
    </g>
    <g id="xtick_2">
     <g id="line2d_2">
      <g>
       <use style="stroke:#000000;stroke-width:0.8;" x="109.585392" xlink:href="#ma477e3ebf0" y="307.584"/>
      </g>
     </g>
     <g id="text_2">
      <!-- −25 -->
      <g transform="translate(99.033048 322.182437)scale(0.1 -0.1)">
       <defs>
        <path d="M 19.1875 8.296875 
L 53.609375 8.296875 
L 53.609375 0 
L 7.328125 0 
L 7.328125 8.296875 
Q 12.9375 14.109375 22.625 23.890625 
Q 32.328125 33.6875 34.8125 36.53125 
Q 39.546875 41.84375 41.421875 45.53125 
Q 43.3125 49.21875 43.3125 52.78125 
Q 43.3125 58.59375 39.234375 62.25 
Q 35.15625 65.921875 28.609375 65.921875 
Q 23.96875 65.921875 18.8125 64.3125 
Q 13.671875 62.703125 7.8125 59.421875 
L 7.8125 69.390625 
Q 13.765625 71.78125 18.9375 73 
Q 24.125 74.21875 28.421875 74.21875 
Q 39.75 74.21875 46.484375 68.546875 
Q 53.21875 62.890625 53.21875 53.421875 
Q 53.21875 48.921875 51.53125 44.890625 
Q 49.859375 40.875 45.40625 35.40625 
Q 44.1875 33.984375 37.640625 27.21875 
Q 31.109375 20.453125 19.1875 8.296875 
z
" id="DejaVuSans-50"/>
       </defs>
       <use xlink:href="#DejaVuSans-8722"/>
       <use x="83.789062" xlink:href="#DejaVuSans-50"/>
       <use x="147.412109" xlink:href="#DejaVuSans-53"/>
      </g>
     </g>
    </g>
    <g id="xtick_3">
     <g id="line2d_3">
      <g>
       <use style="stroke:#000000;stroke-width:0.8;" x="150.778866" xlink:href="#ma477e3ebf0" y="307.584"/>
      </g>
     </g>
     <g id="text_3">
      <!-- 0 -->
      <g transform="translate(147.597616 322.182437)scale(0.1 -0.1)">
       <use xlink:href="#DejaVuSans-48"/>
      </g>
     </g>
    </g>
    <g id="xtick_4">
     <g id="line2d_4">
      <g>
       <use style="stroke:#000000;stroke-width:0.8;" x="191.972341" xlink:href="#ma477e3ebf0" y="307.584"/>
      </g>
     </g>
     <g id="text_4">
      <!-- 25 -->
      <g transform="translate(185.609841 322.182437)scale(0.1 -0.1)">
       <use xlink:href="#DejaVuSans-50"/>
       <use x="63.623047" xlink:href="#DejaVuSans-53"/>
      </g>
     </g>
    </g>
    <g id="xtick_5">
     <g id="line2d_5">
      <g>
       <use style="stroke:#000000;stroke-width:0.8;" x="233.165816" xlink:href="#ma477e3ebf0" y="307.584"/>
      </g>
     </g>
     <g id="text_5">
      <!-- 50 -->
      <g transform="translate(226.803316 322.182437)scale(0.1 -0.1)">
       <use xlink:href="#DejaVuSans-53"/>
       <use x="63.623047" xlink:href="#DejaVuSans-48"/>
      </g>
     </g>
    </g>
    <g id="xtick_6">
     <g id="line2d_6">
      <g>
       <use style="stroke:#000000;stroke-width:0.8;" x="274.35929" xlink:href="#ma477e3ebf0" y="307.584"/>
      </g>
     </g>
     <g id="text_6">
      <!-- 75 -->
      <g transform="translate(267.99679 322.182437)scale(0.1 -0.1)">
       <defs>
        <path d="M 8.203125 72.90625 
L 55.078125 72.90625 
L 55.078125 68.703125 
L 28.609375 0 
L 18.3125 0 
L 43.21875 64.59375 
L 8.203125 64.59375 
z
" id="DejaVuSans-55"/>
       </defs>
       <use xlink:href="#DejaVuSans-55"/>
       <use x="63.623047" xlink:href="#DejaVuSans-53"/>
      </g>
     </g>
    </g>
    <g id="xtick_7">
     <g id="line2d_7">
      <g>
       <use style="stroke:#000000;stroke-width:0.8;" x="315.552765" xlink:href="#ma477e3ebf0" y="307.584"/>
      </g>
     </g>
     <g id="text_7">
      <!-- 100 -->
      <g transform="translate(306.009015 322.182437)scale(0.1 -0.1)">
       <defs>
        <path d="M 12.40625 8.296875 
L 28.515625 8.296875 
L 28.515625 63.921875 
L 10.984375 60.40625 
L 10.984375 69.390625 
L 28.421875 72.90625 
L 38.28125 72.90625 
L 38.28125 8.296875 
L 54.390625 8.296875 
L 54.390625 0 
L 12.40625 0 
z
" id="DejaVuSans-49"/>
       </defs>
       <use xlink:href="#DejaVuSans-49"/>
       <use x="63.623047" xlink:href="#DejaVuSans-48"/>
       <use x="127.246094" xlink:href="#DejaVuSans-48"/>
      </g>
     </g>
    </g>
    <g id="xtick_8">
     <g id="line2d_8">
      <g>
       <use style="stroke:#000000;stroke-width:0.8;" x="356.74624" xlink:href="#ma477e3ebf0" y="307.584"/>
      </g>
     </g>
     <g id="text_8">
      <!-- 125 -->
      <g transform="translate(347.20249 322.182437)scale(0.1 -0.1)">
       <use xlink:href="#DejaVuSans-49"/>
       <use x="63.623047" xlink:href="#DejaVuSans-50"/>
       <use x="127.246094" xlink:href="#DejaVuSans-53"/>
      </g>
     </g>
    </g>
    <g id="xtick_9">
     <g id="line2d_9">
      <g>
       <use style="stroke:#000000;stroke-width:0.8;" x="397.939714" xlink:href="#ma477e3ebf0" y="307.584"/>
      </g>
     </g>
     <g id="text_9">
      <!-- 150 -->
      <g transform="translate(388.395964 322.182437)scale(0.1 -0.1)">
       <use xlink:href="#DejaVuSans-49"/>
       <use x="63.623047" xlink:href="#DejaVuSans-53"/>
       <use x="127.246094" xlink:href="#DejaVuSans-48"/>
      </g>
     </g>
    </g>
   </g>
   <g id="matplotlib.axis_2">
    <g id="ytick_1">
     <g id="line2d_10">
      <defs>
       <path d="M 0 0 
L -3.5 0 
" id="mb260926a1e" style="stroke:#000000;stroke-width:0.8;"/>
      </defs>
      <g>
       <use style="stroke:#000000;stroke-width:0.8;" x="57.6" xlink:href="#mb260926a1e" y="295.424589"/>
      </g>
     </g>
     <g id="text_10">
      <!-- 0 -->
      <g transform="translate(44.2375 299.223808)scale(0.1 -0.1)">
       <use xlink:href="#DejaVuSans-48"/>
      </g>
     </g>
    </g>
    <g id="ytick_2">
     <g id="line2d_11">
      <g>
       <use style="stroke:#000000;stroke-width:0.8;" x="57.6" xlink:href="#mb260926a1e" y="262.469809"/>
      </g>
     </g>
     <g id="text_11">
      <!-- 20 -->
      <g transform="translate(37.875 266.269028)scale(0.1 -0.1)">
       <use xlink:href="#DejaVuSans-50"/>
       <use x="63.623047" xlink:href="#DejaVuSans-48"/>
      </g>
     </g>
    </g>
    <g id="ytick_3">
     <g id="line2d_12">
      <g>
       <use style="stroke:#000000;stroke-width:0.8;" x="57.6" xlink:href="#mb260926a1e" y="229.515029"/>
      </g>
     </g>
     <g id="text_12">
      <!-- 40 -->
      <g transform="translate(37.875 233.314248)scale(0.1 -0.1)">
       <defs>
        <path d="M 37.796875 64.3125 
L 12.890625 25.390625 
L 37.796875 25.390625 
z
M 35.203125 72.90625 
L 47.609375 72.90625 
L 47.609375 25.390625 
L 58.015625 25.390625 
L 58.015625 17.1875 
L 47.609375 17.1875 
L 47.609375 0 
L 37.796875 0 
L 37.796875 17.1875 
L 4.890625 17.1875 
L 4.890625 26.703125 
z
" id="DejaVuSans-52"/>
       </defs>
       <use xlink:href="#DejaVuSans-52"/>
       <use x="63.623047" xlink:href="#DejaVuSans-48"/>
      </g>
     </g>
    </g>
    <g id="ytick_4">
     <g id="line2d_13">
      <g>
       <use style="stroke:#000000;stroke-width:0.8;" x="57.6" xlink:href="#mb260926a1e" y="196.56025"/>
      </g>
     </g>
     <g id="text_13">
      <!-- 60 -->
      <g transform="translate(37.875 200.359468)scale(0.1 -0.1)">
       <defs>
        <path d="M 33.015625 40.375 
Q 26.375 40.375 22.484375 35.828125 
Q 18.609375 31.296875 18.609375 23.390625 
Q 18.609375 15.53125 22.484375 10.953125 
Q 26.375 6.390625 33.015625 6.390625 
Q 39.65625 6.390625 43.53125 10.953125 
Q 47.40625 15.53125 47.40625 23.390625 
Q 47.40625 31.296875 43.53125 35.828125 
Q 39.65625 40.375 33.015625 40.375 
z
M 52.59375 71.296875 
L 52.59375 62.3125 
Q 48.875 64.0625 45.09375 64.984375 
Q 41.3125 65.921875 37.59375 65.921875 
Q 27.828125 65.921875 22.671875 59.328125 
Q 17.53125 52.734375 16.796875 39.40625 
Q 19.671875 43.65625 24.015625 45.921875 
Q 28.375 48.1875 33.59375 48.1875 
Q 44.578125 48.1875 50.953125 41.515625 
Q 57.328125 34.859375 57.328125 23.390625 
Q 57.328125 12.15625 50.6875 5.359375 
Q 44.046875 -1.421875 33.015625 -1.421875 
Q 20.359375 -1.421875 13.671875 8.265625 
Q 6.984375 17.96875 6.984375 36.375 
Q 6.984375 53.65625 15.1875 63.9375 
Q 23.390625 74.21875 37.203125 74.21875 
Q 40.921875 74.21875 44.703125 73.484375 
Q 48.484375 72.75 52.59375 71.296875 
z
" id="DejaVuSans-54"/>
       </defs>
       <use xlink:href="#DejaVuSans-54"/>
       <use x="63.623047" xlink:href="#DejaVuSans-48"/>
      </g>
     </g>
    </g>
    <g id="ytick_5">
     <g id="line2d_14">
      <g>
       <use style="stroke:#000000;stroke-width:0.8;" x="57.6" xlink:href="#mb260926a1e" y="163.60547"/>
      </g>
     </g>
     <g id="text_14">
      <!-- 80 -->
      <g transform="translate(37.875 167.404689)scale(0.1 -0.1)">
       <defs>
        <path d="M 31.78125 34.625 
Q 24.75 34.625 20.71875 30.859375 
Q 16.703125 27.09375 16.703125 20.515625 
Q 16.703125 13.921875 20.71875 10.15625 
Q 24.75 6.390625 31.78125 6.390625 
Q 38.8125 6.390625 42.859375 10.171875 
Q 46.921875 13.96875 46.921875 20.515625 
Q 46.921875 27.09375 42.890625 30.859375 
Q 38.875 34.625 31.78125 34.625 
z
M 21.921875 38.8125 
Q 15.578125 40.375 12.03125 44.71875 
Q 8.5 49.078125 8.5 55.328125 
Q 8.5 64.0625 14.71875 69.140625 
Q 20.953125 74.21875 31.78125 74.21875 
Q 42.671875 74.21875 48.875 69.140625 
Q 55.078125 64.0625 55.078125 55.328125 
Q 55.078125 49.078125 51.53125 44.71875 
Q 48 40.375 41.703125 38.8125 
Q 48.828125 37.15625 52.796875 32.3125 
Q 56.78125 27.484375 56.78125 20.515625 
Q 56.78125 9.90625 50.3125 4.234375 
Q 43.84375 -1.421875 31.78125 -1.421875 
Q 19.734375 -1.421875 13.25 4.234375 
Q 6.78125 9.90625 6.78125 20.515625 
Q 6.78125 27.484375 10.78125 32.3125 
Q 14.796875 37.15625 21.921875 38.8125 
z
M 18.3125 54.390625 
Q 18.3125 48.734375 21.84375 45.5625 
Q 25.390625 42.390625 31.78125 42.390625 
Q 38.140625 42.390625 41.71875 45.5625 
Q 45.3125 48.734375 45.3125 54.390625 
Q 45.3125 60.0625 41.71875 63.234375 
Q 38.140625 66.40625 31.78125 66.40625 
Q 25.390625 66.40625 21.84375 63.234375 
Q 18.3125 60.0625 18.3125 54.390625 
z
" id="DejaVuSans-56"/>
       </defs>
       <use xlink:href="#DejaVuSans-56"/>
       <use x="63.623047" xlink:href="#DejaVuSans-48"/>
      </g>
     </g>
    </g>
    <g id="ytick_6">
     <g id="line2d_15">
      <g>
       <use style="stroke:#000000;stroke-width:0.8;" x="57.6" xlink:href="#mb260926a1e" y="130.65069"/>
      </g>
     </g>
     <g id="text_15">
      <!-- 100 -->
      <g transform="translate(31.5125 134.449909)scale(0.1 -0.1)">
       <use xlink:href="#DejaVuSans-49"/>
       <use x="63.623047" xlink:href="#DejaVuSans-48"/>
       <use x="127.246094" xlink:href="#DejaVuSans-48"/>
      </g>
     </g>
    </g>
    <g id="ytick_7">
     <g id="line2d_16">
      <g>
       <use style="stroke:#000000;stroke-width:0.8;" x="57.6" xlink:href="#mb260926a1e" y="97.69591"/>
      </g>
     </g>
     <g id="text_16">
      <!-- 120 -->
      <g transform="translate(31.5125 101.495129)scale(0.1 -0.1)">
       <use xlink:href="#DejaVuSans-49"/>
       <use x="63.623047" xlink:href="#DejaVuSans-50"/>
       <use x="127.246094" xlink:href="#DejaVuSans-48"/>
      </g>
     </g>
    </g>
    <g id="ytick_8">
     <g id="line2d_17">
      <g>
       <use style="stroke:#000000;stroke-width:0.8;" x="57.6" xlink:href="#mb260926a1e" y="64.741131"/>
      </g>
     </g>
     <g id="text_17">
      <!-- 140 -->
      <g transform="translate(31.5125 68.540349)scale(0.1 -0.1)">
       <use xlink:href="#DejaVuSans-49"/>
       <use x="63.623047" xlink:href="#DejaVuSans-52"/>
       <use x="127.246094" xlink:href="#DejaVuSans-48"/>
      </g>
     </g>
    </g>
   </g>
   <g id="line2d_18">
    <path clip-path="url(#p7abaf09d84)" d="M 150.778866 295.424589 
L 151.072243 275.914451 
L 151.501112 252.056391 
L 151.335163 247.628145 
L 150.827357 240.8864 
L 150.150282 231.897406 
L 150.018851 227.482411 
L 150.148222 223.167527 
L 150.630441 218.98809 
L 151.032634 216.960205 
L 151.557558 214.979432 
L 152.216717 213.050187 
L 153.065403 211.187289 
L 154.132983 209.397026 
L 155.392078 207.671025 
L 156.815308 206.000911 
L 160.044658 202.794847 
L 163.601998 199.71184 
L 170.824507 193.647012 
L 174.051607 190.531202 
L 175.473291 188.923137 
L 176.730559 187.270466 
L 177.79603 185.564816 
L 178.642326 183.797811 
L 179.242068 181.961077 
L 179.572335 180.056426 
L 179.64775 178.095191 
L 179.497249 176.083281 
L 179.149766 174.026607 
L 178.634236 171.931078 
L 177.214778 167.647095 
L 174.548617 161.077454 
L 172.750769 156.670863 
L 171.206656 152.297964 
L 170.602088 150.138925 
L 170.147758 148.006037 
L 169.872602 145.905213 
L 169.805555 143.84236 
L 169.975552 141.823389 
L 170.357594 139.842138 
L 170.897943 137.88681 
L 171.582429 135.954862 
L 172.396877 134.043753 
L 174.358979 130.273878 
L 176.67087 126.556846 
L 180.546556 121.035884 
L 185.880226 113.669712 
L 188.363147 109.938766 
L 190.57229 106.148793 
L 192.468522 102.08937 
L 194.146726 97.669834 
L 196.446954 90.713791 
L 198.749624 83.843574 
L 200.43217 79.576614 
L 201.35054 77.596828 
L 202.334915 75.746055 
L 203.396251 74.044209 
L 204.545504 72.511202 
L 205.793629 71.166947 
L 207.151583 70.031356 
L 208.63032 69.124344 
L 210.236929 68.487047 
L 211.963936 68.127862 
L 213.800459 68.017588 
L 215.735614 68.127025 
L 217.758517 68.426972 
L 219.858285 68.88823 
L 224.244882 70.177871 
L 238.117543 74.881372 
L 240.419337 75.480393 
L 242.68916 75.948718 
L 244.91613 76.257148 
L 247.089362 76.37648 
L 249.197974 76.277515 
L 251.260382 75.975677 
L 253.303813 75.517569 
L 255.330592 74.920761 
L 259.343493 73.38133 
L 263.31769 71.497946 
L 269.247111 68.33544 
L 275.194094 65.189708 
L 279.199513 63.336144 
L 283.259246 61.841443 
L 285.315294 61.272592 
L 287.391898 60.846168 
L 291.59795 60.335637 
L 295.858686 60.158758 
L 300.16392 60.251478 
L 304.503462 60.549746 
L 311.054817 61.242437 
L 324.182796 62.718215 
L 328.528919 63.002068 
L 328.528919 63.002068 
" style="fill:none;stroke:#fea952;stroke-linecap:square;"/>
   </g>
   <g id="line2d_19">
    <path clip-path="url(#p7abaf09d84)" d="M 144.188215 295.361178 
L 144.482557 275.785087 
L 144.912439 252.229867 
L 144.758232 248.057878 
L 144.260209 241.446103 
L 143.565058 232.172248 
L 143.428379 227.402517 
L 143.584203 222.572241 
L 143.812645 220.141484 
L 144.165411 217.705871 
L 144.661601 215.271822 
L 145.320596 212.848468 
L 146.218855 210.317725 
L 147.40455 207.811575 
L 148.808253 205.512706 
L 150.375559 203.39607 
L 152.064027 201.432977 
L 153.839441 199.596393 
L 157.535117 196.213688 
L 167.812897 187.462087 
L 170.227715 184.93257 
L 171.851684 182.717808 
L 172.376919 181.751992 
L 172.748019 180.835008 
L 172.986246 179.803171 
L 173.075158 178.586855 
L 172.998396 177.181287 
L 172.749642 175.601127 
L 172.334511 173.868644 
L 171.071585 170.034957 
L 168.462317 163.606813 
L 166.575434 158.974325 
L 164.859831 154.075185 
L 164.155757 151.512068 
L 163.612618 148.861979 
L 163.285125 146.119319 
L 163.23784 143.28936 
L 163.503817 140.575454 
L 164.004752 138.086548 
L 164.685386 135.685713 
L 165.519115 133.370887 
L 166.481677 131.136674 
L 168.708616 126.880635 
L 171.216581 122.856652 
L 175.228283 117.142727 
L 180.435753 109.955091 
L 182.73008 106.516887 
L 184.669381 103.216837 
L 186.34026 99.663445 
L 187.910259 95.537421 
L 190.176102 88.684725 
L 192.580602 81.523256 
L 194.453172 76.803116 
L 195.531465 74.501821 
L 196.742375 72.258334 
L 198.122657 70.090742 
L 199.715494 68.026594 
L 201.565502 66.110897 
L 203.705494 64.413067 
L 206.200087 62.997789 
L 208.894853 62.034177 
L 211.568895 61.548755 
L 214.172597 61.437146 
L 216.702323 61.607349 
L 219.172638 61.989507 
L 221.599875 62.531535 
L 226.366188 63.937617 
L 239.77749 68.502871 
L 243.593359 69.42008 
L 246.780365 69.792771 
L 248.243539 69.756031 
L 249.818572 69.544357 
L 251.442069 69.195021 
L 254.839323 68.105933 
L 258.424476 66.559981 
L 262.180008 64.66338 
L 272.331706 59.252753 
L 276.772012 57.208507 
L 279.09745 56.295806 
L 281.501739 55.489131 
L 283.989526 54.816352 
L 286.454883 54.322159 
L 291.207237 53.756272 
L 295.909823 53.568 
L 300.55103 53.6719 
L 305.124261 53.988092 
L 311.844496 54.698959 
L 324.678858 56.145954 
L 328.891621 56.4211 
L 328.891621 56.4211 
" style="fill:none;stroke:#ffffff;stroke-linecap:square;"/>
   </g>
   <g id="line2d_20">
    <path clip-path="url(#p7abaf09d84)" d="M 157.369517 295.488 
L 157.661929 276.043814 
L 158.089784 251.882914 
L 157.912095 247.198411 
L 157.204019 238.092094 
L 156.735505 231.622565 
L 156.609323 227.562304 
L 156.71224 223.762813 
L 157.095472 220.270308 
L 157.794519 217.110396 
L 158.214579 215.78265 
L 158.726256 214.563002 
L 159.457714 213.281346 
L 160.408597 211.94598 
L 161.56659 210.568845 
L 164.41705 207.726671 
L 167.802778 204.790634 
L 175.301177 198.48438 
L 177.172875 196.743983 
L 178.989483 194.896758 
L 180.718868 192.913704 
L 182.320503 190.762346 
L 183.740376 188.411824 
L 184.907733 185.84363 
L 185.736116 183.087147 
L 186.158423 180.309681 
L 186.220342 177.603527 
L 185.996101 174.985275 
L 185.54989 172.452087 
L 184.933962 169.993512 
L 183.357971 165.259233 
L 180.634917 158.548095 
L 178.185736 152.394438 
L 177.048419 148.765782 
L 176.46008 145.691106 
L 176.373271 144.39536 
L 176.447288 143.071324 
L 176.710436 141.597728 
L 177.110501 140.087907 
L 177.645742 138.538837 
L 179.102898 135.326008 
L 181.020752 131.976787 
L 183.309684 128.5091 
L 188.574709 121.228305 
L 192.67794 115.397764 
L 195.263245 111.266409 
L 196.475199 109.080749 
L 197.587938 106.823936 
L 199.522627 102.169573 
L 201.193826 97.429903 
L 204.918646 86.163891 
L 206.411168 82.350111 
L 207.927455 79.233777 
L 209.375513 76.99581 
L 210.597671 75.649646 
L 211.579004 74.939917 
L 212.358978 74.706968 
L 213.428321 74.59803 
L 214.768905 74.646701 
L 216.344396 74.864438 
L 220.052287 75.770706 
L 224.308427 77.160263 
L 233.891667 80.491111 
L 239.0875 81.935384 
L 241.784962 82.477357 
L 244.554764 82.83819 
L 247.398359 82.960189 
L 250.152408 82.799 
L 252.702193 82.406997 
L 255.165558 81.840116 
L 257.545192 81.128518 
L 262.077305 79.378577 
L 266.353746 77.347994 
L 272.392711 74.127322 
L 278.056482 71.126663 
L 281.627013 69.463782 
L 285.016753 68.193756 
L 286.641063 67.728832 
L 288.328914 67.370178 
L 291.988663 66.915002 
L 295.80755 66.749515 
L 299.77681 66.831056 
L 303.882663 67.111401 
L 310.265138 67.785916 
L 321.396456 69.080436 
L 325.996507 69.463456 
L 328.166216 69.583037 
L 328.166216 69.583037 
" style="fill:none;stroke:#ffffff;stroke-linecap:square;"/>
   </g>
   <g id="patch_3">
    <path d="M 57.6 307.584 
L 57.6 41.472 
" style="fill:none;stroke:#000000;stroke-linecap:square;stroke-linejoin:miter;stroke-width:0.8;"/>
   </g>
   <g id="patch_4">
    <path d="M 414.72 307.584 
L 414.72 41.472 
" style="fill:none;stroke:#000000;stroke-linecap:square;stroke-linejoin:miter;stroke-width:0.8;"/>
   </g>
   <g id="patch_5">
    <path d="M 57.6 307.584 
L 414.72 307.584 
" style="fill:none;stroke:#000000;stroke-linecap:square;stroke-linejoin:miter;stroke-width:0.8;"/>
   </g>
   <g id="patch_6">
    <path d="M 57.6 41.472 
L 414.72 41.472 
" style="fill:none;stroke:#000000;stroke-linecap:square;stroke-linejoin:miter;stroke-width:0.8;"/>
   </g>
  </g>
 </g>
 <defs>
  <clipPath id="p7abaf09d84">
   <rect height="266.112" width="357.12" x="57.6" y="41.472"/>
  </clipPath>
 </defs>
</svg>
