<?xml version="1.0" encoding="utf-8" standalone="no"?>
<!DOCTYPE svg PUBLIC "-//W3C//DTD SVG 1.1//EN"
  "http://www.w3.org/Graphics/SVG/1.1/DTD/svg11.dtd">
<!-- Created with matplotlib (https://matplotlib.org/) -->
<svg height="345.6pt" version="1.1" viewBox="0 0 460.8 345.6" width="460.8pt" xmlns="http://www.w3.org/2000/svg" xmlns:xlink="http://www.w3.org/1999/xlink">
 <metadata>
  <rdf:RDF xmlns:cc="http://creativecommons.org/ns#" xmlns:dc="http://purl.org/dc/elements/1.1/" xmlns:rdf="http://www.w3.org/1999/02/22-rdf-syntax-ns#">
   <cc:Work>
    <dc:type rdf:resource="http://purl.org/dc/dcmitype/StillImage"/>
    <dc:date>2021-06-28T10:23:04.895886</dc:date>
    <dc:format>image/svg+xml</dc:format>
    <dc:creator>
     <cc:Agent>
      <dc:title>Matplotlib v3.3.3, https://matplotlib.org/</dc:title>
     </cc:Agent>
    </dc:creator>
   </cc:Work>
  </rdf:RDF>
 </metadata>
 <defs>
  <style type="text/css">*{stroke-linecap:butt;stroke-linejoin:round;}</style>
 </defs>
 <g id="figure_1">
  <g id="patch_1">
   <path d="M 0 345.6 
L 460.8 345.6 
L 460.8 0 
L 0 0 
z
" style="fill:#ffffff;"/>
  </g>
  <g id="axes_1">
   <g id="patch_2">
    <path d="M 57.6 307.584 
L 414.72 307.584 
L 414.72 41.472 
L 57.6 41.472 
z
" style="fill:#7d9051;"/>
   </g>
   <g id="matplotlib.axis_1">
    <g id="xtick_1">
     <g id="line2d_1">
      <defs>
       <path d="M 0 0 
L 0 3.5 
" id="md01903350a" style="stroke:#000000;stroke-width:0.8;"/>
      </defs>
      <g>
       <use style="stroke:#000000;stroke-width:0.8;" x="64.136386" xlink:href="#md01903350a" y="307.584"/>
      </g>
     </g>
     <g id="text_1">
      <!-- −150 -->
      <g transform="translate(50.402793 322.182437)scale(0.1 -0.1)">
       <defs>
        <path d="M 10.59375 35.5 
L 73.1875 35.5 
L 73.1875 27.203125 
L 10.59375 27.203125 
z
" id="DejaVuSans-8722"/>
        <path d="M 12.40625 8.296875 
L 28.515625 8.296875 
L 28.515625 63.921875 
L 10.984375 60.40625 
L 10.984375 69.390625 
L 28.421875 72.90625 
L 38.28125 72.90625 
L 38.28125 8.296875 
L 54.390625 8.296875 
L 54.390625 0 
L 12.40625 0 
z
" id="DejaVuSans-49"/>
        <path d="M 10.796875 72.90625 
L 49.515625 72.90625 
L 49.515625 64.59375 
L 19.828125 64.59375 
L 19.828125 46.734375 
Q 21.96875 47.46875 24.109375 47.828125 
Q 26.265625 48.1875 28.421875 48.1875 
Q 40.625 48.1875 47.75 41.5 
Q 54.890625 34.8125 54.890625 23.390625 
Q 54.890625 11.625 47.5625 5.09375 
Q 40.234375 -1.421875 26.90625 -1.421875 
Q 22.3125 -1.421875 17.546875 -0.640625 
Q 12.796875 0.140625 7.71875 1.703125 
L 7.71875 11.625 
Q 12.109375 9.234375 16.796875 8.0625 
Q 21.484375 6.890625 26.703125 6.890625 
Q 35.15625 6.890625 40.078125 11.328125 
Q 45.015625 15.765625 45.015625 23.390625 
Q 45.015625 31 40.078125 35.4375 
Q 35.15625 39.890625 26.703125 39.890625 
Q 22.75 39.890625 18.8125 39.015625 
Q 14.890625 38.140625 10.796875 36.28125 
z
" id="DejaVuSans-53"/>
        <path d="M 31.78125 66.40625 
Q 24.171875 66.40625 20.328125 58.90625 
Q 16.5 51.421875 16.5 36.375 
Q 16.5 21.390625 20.328125 13.890625 
Q 24.171875 6.390625 31.78125 6.390625 
Q 39.453125 6.390625 43.28125 13.890625 
Q 47.125 21.390625 47.125 36.375 
Q 47.125 51.421875 43.28125 58.90625 
Q 39.453125 66.40625 31.78125 66.40625 
z
M 31.78125 74.21875 
Q 44.046875 74.21875 50.515625 64.515625 
Q 56.984375 54.828125 56.984375 36.375 
Q 56.984375 17.96875 50.515625 8.265625 
Q 44.046875 -1.421875 31.78125 -1.421875 
Q 19.53125 -1.421875 13.0625 8.265625 
Q 6.59375 17.96875 6.59375 36.375 
Q 6.59375 54.828125 13.0625 64.515625 
Q 19.53125 74.21875 31.78125 74.21875 
z
" id="DejaVuSans-48"/>
       </defs>
       <use xlink:href="#DejaVuSans-8722"/>
       <use x="83.789062" xlink:href="#DejaVuSans-49"/>
       <use x="147.412109" xlink:href="#DejaVuSans-53"/>
       <use x="211.035156" xlink:href="#DejaVuSans-48"/>
      </g>
     </g>
    </g>
    <g id="xtick_2">
     <g id="line2d_2">
      <g>
       <use style="stroke:#000000;stroke-width:0.8;" x="105.775866" xlink:href="#md01903350a" y="307.584"/>
      </g>
     </g>
     <g id="text_2">
      <!-- −125 -->
      <g transform="translate(92.042272 322.182437)scale(0.1 -0.1)">
       <defs>
        <path d="M 19.1875 8.296875 
L 53.609375 8.296875 
L 53.609375 0 
L 7.328125 0 
L 7.328125 8.296875 
Q 12.9375 14.109375 22.625 23.890625 
Q 32.328125 33.6875 34.8125 36.53125 
Q 39.546875 41.84375 41.421875 45.53125 
Q 43.3125 49.21875 43.3125 52.78125 
Q 43.3125 58.59375 39.234375 62.25 
Q 35.15625 65.921875 28.609375 65.921875 
Q 23.96875 65.921875 18.8125 64.3125 
Q 13.671875 62.703125 7.8125 59.421875 
L 7.8125 69.390625 
Q 13.765625 71.78125 18.9375 73 
Q 24.125 74.21875 28.421875 74.21875 
Q 39.75 74.21875 46.484375 68.546875 
Q 53.21875 62.890625 53.21875 53.421875 
Q 53.21875 48.921875 51.53125 44.890625 
Q 49.859375 40.875 45.40625 35.40625 
Q 44.1875 33.984375 37.640625 27.21875 
Q 31.109375 20.453125 19.1875 8.296875 
z
" id="DejaVuSans-50"/>
       </defs>
       <use xlink:href="#DejaVuSans-8722"/>
       <use x="83.789062" xlink:href="#DejaVuSans-49"/>
       <use x="147.412109" xlink:href="#DejaVuSans-50"/>
       <use x="211.035156" xlink:href="#DejaVuSans-53"/>
      </g>
     </g>
    </g>
    <g id="xtick_3">
     <g id="line2d_3">
      <g>
       <use style="stroke:#000000;stroke-width:0.8;" x="147.415345" xlink:href="#md01903350a" y="307.584"/>
      </g>
     </g>
     <g id="text_3">
      <!-- −100 -->
      <g transform="translate(133.681751 322.182437)scale(0.1 -0.1)">
       <use xlink:href="#DejaVuSans-8722"/>
       <use x="83.789062" xlink:href="#DejaVuSans-49"/>
       <use x="147.412109" xlink:href="#DejaVuSans-48"/>
       <use x="211.035156" xlink:href="#DejaVuSans-48"/>
      </g>
     </g>
    </g>
    <g id="xtick_4">
     <g id="line2d_4">
      <g>
       <use style="stroke:#000000;stroke-width:0.8;" x="189.054825" xlink:href="#md01903350a" y="307.584"/>
      </g>
     </g>
     <g id="text_4">
      <!-- −75 -->
      <g transform="translate(178.502481 322.182437)scale(0.1 -0.1)">
       <defs>
        <path d="M 8.203125 72.90625 
L 55.078125 72.90625 
L 55.078125 68.703125 
L 28.609375 0 
L 18.3125 0 
L 43.21875 64.59375 
L 8.203125 64.59375 
z
" id="DejaVuSans-55"/>
       </defs>
       <use xlink:href="#DejaVuSans-8722"/>
       <use x="83.789062" xlink:href="#DejaVuSans-55"/>
       <use x="147.412109" xlink:href="#DejaVuSans-53"/>
      </g>
     </g>
    </g>
    <g id="xtick_5">
     <g id="line2d_5">
      <g>
       <use style="stroke:#000000;stroke-width:0.8;" x="230.694304" xlink:href="#md01903350a" y="307.584"/>
      </g>
     </g>
     <g id="text_5">
      <!-- −50 -->
      <g transform="translate(220.14196 322.182437)scale(0.1 -0.1)">
       <use xlink:href="#DejaVuSans-8722"/>
       <use x="83.789062" xlink:href="#DejaVuSans-53"/>
       <use x="147.412109" xlink:href="#DejaVuSans-48"/>
      </g>
     </g>
    </g>
    <g id="xtick_6">
     <g id="line2d_6">
      <g>
       <use style="stroke:#000000;stroke-width:0.8;" x="272.333783" xlink:href="#md01903350a" y="307.584"/>
      </g>
     </g>
     <g id="text_6">
      <!-- −25 -->
      <g transform="translate(261.78144 322.182437)scale(0.1 -0.1)">
       <use xlink:href="#DejaVuSans-8722"/>
       <use x="83.789062" xlink:href="#DejaVuSans-50"/>
       <use x="147.412109" xlink:href="#DejaVuSans-53"/>
      </g>
     </g>
    </g>
    <g id="xtick_7">
     <g id="line2d_7">
      <g>
       <use style="stroke:#000000;stroke-width:0.8;" x="313.973263" xlink:href="#md01903350a" y="307.584"/>
      </g>
     </g>
     <g id="text_7">
      <!-- 0 -->
      <g transform="translate(310.792013 322.182437)scale(0.1 -0.1)">
       <use xlink:href="#DejaVuSans-48"/>
      </g>
     </g>
    </g>
    <g id="xtick_8">
     <g id="line2d_8">
      <g>
       <use style="stroke:#000000;stroke-width:0.8;" x="355.612742" xlink:href="#md01903350a" y="307.584"/>
      </g>
     </g>
     <g id="text_8">
      <!-- 25 -->
      <g transform="translate(349.250242 322.182437)scale(0.1 -0.1)">
       <use xlink:href="#DejaVuSans-50"/>
       <use x="63.623047" xlink:href="#DejaVuSans-53"/>
      </g>
     </g>
    </g>
    <g id="xtick_9">
     <g id="line2d_9">
      <g>
       <use style="stroke:#000000;stroke-width:0.8;" x="397.252221" xlink:href="#md01903350a" y="307.584"/>
      </g>
     </g>
     <g id="text_9">
      <!-- 50 -->
      <g transform="translate(390.889721 322.182437)scale(0.1 -0.1)">
       <use xlink:href="#DejaVuSans-53"/>
       <use x="63.623047" xlink:href="#DejaVuSans-48"/>
      </g>
     </g>
    </g>
   </g>
   <g id="matplotlib.axis_2">
    <g id="ytick_1">
     <g id="line2d_10">
      <defs>
       <path d="M 0 0 
L -3.5 0 
" id="mee4d842811" style="stroke:#000000;stroke-width:0.8;"/>
      </defs>
      <g>
       <use style="stroke:#000000;stroke-width:0.8;" x="57.6" xlink:href="#mee4d842811" y="295.423902"/>
      </g>
     </g>
     <g id="text_10">
      <!-- 0 -->
      <g transform="translate(44.2375 299.223121)scale(0.1 -0.1)">
       <use xlink:href="#DejaVuSans-48"/>
      </g>
     </g>
    </g>
    <g id="ytick_2">
     <g id="line2d_11">
      <g>
       <use style="stroke:#000000;stroke-width:0.8;" x="57.6" xlink:href="#mee4d842811" y="262.112319"/>
      </g>
     </g>
     <g id="text_11">
      <!-- 20 -->
      <g transform="translate(37.875 265.911537)scale(0.1 -0.1)">
       <use xlink:href="#DejaVuSans-50"/>
       <use x="63.623047" xlink:href="#DejaVuSans-48"/>
      </g>
     </g>
    </g>
    <g id="ytick_3">
     <g id="line2d_12">
      <g>
       <use style="stroke:#000000;stroke-width:0.8;" x="57.6" xlink:href="#mee4d842811" y="228.800735"/>
      </g>
     </g>
     <g id="text_12">
      <!-- 40 -->
      <g transform="translate(37.875 232.599954)scale(0.1 -0.1)">
       <defs>
        <path d="M 37.796875 64.3125 
L 12.890625 25.390625 
L 37.796875 25.390625 
z
M 35.203125 72.90625 
L 47.609375 72.90625 
L 47.609375 25.390625 
L 58.015625 25.390625 
L 58.015625 17.1875 
L 47.609375 17.1875 
L 47.609375 0 
L 37.796875 0 
L 37.796875 17.1875 
L 4.890625 17.1875 
L 4.890625 26.703125 
z
" id="DejaVuSans-52"/>
       </defs>
       <use xlink:href="#DejaVuSans-52"/>
       <use x="63.623047" xlink:href="#DejaVuSans-48"/>
      </g>
     </g>
    </g>
    <g id="ytick_4">
     <g id="line2d_13">
      <g>
       <use style="stroke:#000000;stroke-width:0.8;" x="57.6" xlink:href="#mee4d842811" y="195.489152"/>
      </g>
     </g>
     <g id="text_13">
      <!-- 60 -->
      <g transform="translate(37.875 199.28837)scale(0.1 -0.1)">
       <defs>
        <path d="M 33.015625 40.375 
Q 26.375 40.375 22.484375 35.828125 
Q 18.609375 31.296875 18.609375 23.390625 
Q 18.609375 15.53125 22.484375 10.953125 
Q 26.375 6.390625 33.015625 6.390625 
Q 39.65625 6.390625 43.53125 10.953125 
Q 47.40625 15.53125 47.40625 23.390625 
Q 47.40625 31.296875 43.53125 35.828125 
Q 39.65625 40.375 33.015625 40.375 
z
M 52.59375 71.296875 
L 52.59375 62.3125 
Q 48.875 64.0625 45.09375 64.984375 
Q 41.3125 65.921875 37.59375 65.921875 
Q 27.828125 65.921875 22.671875 59.328125 
Q 17.53125 52.734375 16.796875 39.40625 
Q 19.671875 43.65625 24.015625 45.921875 
Q 28.375 48.1875 33.59375 48.1875 
Q 44.578125 48.1875 50.953125 41.515625 
Q 57.328125 34.859375 57.328125 23.390625 
Q 57.328125 12.15625 50.6875 5.359375 
Q 44.046875 -1.421875 33.015625 -1.421875 
Q 20.359375 -1.421875 13.671875 8.265625 
Q 6.984375 17.96875 6.984375 36.375 
Q 6.984375 53.65625 15.1875 63.9375 
Q 23.390625 74.21875 37.203125 74.21875 
Q 40.921875 74.21875 44.703125 73.484375 
Q 48.484375 72.75 52.59375 71.296875 
z
" id="DejaVuSans-54"/>
       </defs>
       <use xlink:href="#DejaVuSans-54"/>
       <use x="63.623047" xlink:href="#DejaVuSans-48"/>
      </g>
     </g>
    </g>
    <g id="ytick_5">
     <g id="line2d_14">
      <g>
       <use style="stroke:#000000;stroke-width:0.8;" x="57.6" xlink:href="#mee4d842811" y="162.177568"/>
      </g>
     </g>
     <g id="text_14">
      <!-- 80 -->
      <g transform="translate(37.875 165.976787)scale(0.1 -0.1)">
       <defs>
        <path d="M 31.78125 34.625 
Q 24.75 34.625 20.71875 30.859375 
Q 16.703125 27.09375 16.703125 20.515625 
Q 16.703125 13.921875 20.71875 10.15625 
Q 24.75 6.390625 31.78125 6.390625 
Q 38.8125 6.390625 42.859375 10.171875 
Q 46.921875 13.96875 46.921875 20.515625 
Q 46.921875 27.09375 42.890625 30.859375 
Q 38.875 34.625 31.78125 34.625 
z
M 21.921875 38.8125 
Q 15.578125 40.375 12.03125 44.71875 
Q 8.5 49.078125 8.5 55.328125 
Q 8.5 64.0625 14.71875 69.140625 
Q 20.953125 74.21875 31.78125 74.21875 
Q 42.671875 74.21875 48.875 69.140625 
Q 55.078125 64.0625 55.078125 55.328125 
Q 55.078125 49.078125 51.53125 44.71875 
Q 48 40.375 41.703125 38.8125 
Q 48.828125 37.15625 52.796875 32.3125 
Q 56.78125 27.484375 56.78125 20.515625 
Q 56.78125 9.90625 50.3125 4.234375 
Q 43.84375 -1.421875 31.78125 -1.421875 
Q 19.734375 -1.421875 13.25 4.234375 
Q 6.78125 9.90625 6.78125 20.515625 
Q 6.78125 27.484375 10.78125 32.3125 
Q 14.796875 37.15625 21.921875 38.8125 
z
M 18.3125 54.390625 
Q 18.3125 48.734375 21.84375 45.5625 
Q 25.390625 42.390625 31.78125 42.390625 
Q 38.140625 42.390625 41.71875 45.5625 
Q 45.3125 48.734375 45.3125 54.390625 
Q 45.3125 60.0625 41.71875 63.234375 
Q 38.140625 66.40625 31.78125 66.40625 
Q 25.390625 66.40625 21.84375 63.234375 
Q 18.3125 60.0625 18.3125 54.390625 
z
" id="DejaVuSans-56"/>
       </defs>
       <use xlink:href="#DejaVuSans-56"/>
       <use x="63.623047" xlink:href="#DejaVuSans-48"/>
      </g>
     </g>
    </g>
    <g id="ytick_6">
     <g id="line2d_15">
      <g>
       <use style="stroke:#000000;stroke-width:0.8;" x="57.6" xlink:href="#mee4d842811" y="128.865985"/>
      </g>
     </g>
     <g id="text_15">
      <!-- 100 -->
      <g transform="translate(31.5125 132.665203)scale(0.1 -0.1)">
       <use xlink:href="#DejaVuSans-49"/>
       <use x="63.623047" xlink:href="#DejaVuSans-48"/>
       <use x="127.246094" xlink:href="#DejaVuSans-48"/>
      </g>
     </g>
    </g>
    <g id="ytick_7">
     <g id="line2d_16">
      <g>
       <use style="stroke:#000000;stroke-width:0.8;" x="57.6" xlink:href="#mee4d842811" y="95.554401"/>
      </g>
     </g>
     <g id="text_16">
      <!-- 120 -->
      <g transform="translate(31.5125 99.35362)scale(0.1 -0.1)">
       <use xlink:href="#DejaVuSans-49"/>
       <use x="63.623047" xlink:href="#DejaVuSans-50"/>
       <use x="127.246094" xlink:href="#DejaVuSans-48"/>
      </g>
     </g>
    </g>
    <g id="ytick_8">
     <g id="line2d_17">
      <g>
       <use style="stroke:#000000;stroke-width:0.8;" x="57.6" xlink:href="#mee4d842811" y="62.242818"/>
      </g>
     </g>
     <g id="text_17">
      <!-- 140 -->
      <g transform="translate(31.5125 66.042036)scale(0.1 -0.1)">
       <use xlink:href="#DejaVuSans-49"/>
       <use x="63.623047" xlink:href="#DejaVuSans-52"/>
       <use x="127.246094" xlink:href="#DejaVuSans-48"/>
      </g>
     </g>
    </g>
   </g>
   <g id="line2d_18">
    <path clip-path="url(#pd34fdb0400)" d="M 313.973263 295.423902 
L 314.269816 275.702526 
L 314.696117 249.390516 
L 314.477641 242.74299 
L 313.976881 229.433791 
L 313.999022 225.039305 
L 314.210223 220.686733 
L 314.667203 216.388649 
L 315.426681 212.157627 
L 315.982245 210.069439 
L 316.704127 207.997398 
L 317.569563 205.940344 
L 319.640031 201.866551 
L 322.011522 197.838769 
L 328.062038 187.909649 
L 330.052881 183.969747 
L 330.865233 182.001954 
L 331.525185 180.034051 
L 332.009971 178.064877 
L 332.296826 176.09327 
L 332.362983 174.11807 
L 332.242506 172.108676 
L 331.98887 170.042665 
L 331.608427 167.931141 
L 330.492528 163.615963 
L 328.945629 159.251967 
L 327.018547 154.927979 
L 324.762102 150.732823 
L 322.227111 146.755324 
L 319.464394 143.084308 
L 316.524769 139.808599 
L 315.004497 138.346742 
L 313.459055 137.017022 
L 311.817679 135.862613 
L 310.017803 134.903935 
L 308.078074 134.117961 
L 306.017139 133.481664 
L 303.853645 132.972016 
L 299.293569 132.240562 
L 292.150439 131.517574 
L 287.403892 131.016392 
L 282.843816 130.284938 
L 280.680322 129.775291 
L 278.619387 129.138994 
L 276.679658 128.35302 
L 274.879782 127.394342 
L 273.238406 126.239932 
L 271.769691 124.856487 
L 270.462549 123.245396 
L 269.297756 121.435668 
L 268.256091 119.456317 
L 267.318329 117.336354 
L 265.677622 112.790633 
L 261.249961 98.795948 
L 260.382282 96.715981 
L 259.426273 94.785514 
L 258.362712 93.03356 
L 257.172374 91.489129 
L 255.836038 90.181234 
L 254.334478 89.138884 
L 252.67969 88.369379 
L 250.903783 87.844012 
L 249.017711 87.537784 
L 247.032429 87.425699 
L 244.95889 87.48276 
L 242.808047 87.68397 
L 238.318267 88.418846 
L 231.277664 89.977345 
L 226.507767 91.028835 
L 221.779177 91.85701 
L 219.457755 92.124862 
L 217.179521 92.261894 
L 214.955428 92.243108 
L 212.796431 92.043507 
L 208.567686 91.286729 
L 204.371001 90.240392 
L 200.203901 88.950453 
L 196.063914 87.462869 
L 189.899361 84.96144 
L 179.725636 80.455229 
L 161.723717 72.334246 
L 151.913434 67.440018 
L 136.242803 59.54842 
L 136.242803 59.54842 
" style="fill:none;stroke:#fea952;stroke-linecap:square;"/>
   </g>
   <g id="line2d_19">
    <path clip-path="url(#pd34fdb0400)" d="M 307.311254 295.359804 
L 307.608783 275.571762 
L 308.03561 249.545816 
L 307.82222 243.046044 
L 307.31462 229.461077 
L 307.341003 224.800044 
L 307.57476 220.089156 
L 308.087806 215.340798 
L 308.988331 210.4447 
L 309.690814 207.877554 
L 310.563162 205.413795 
L 311.569615 203.044297 
L 313.862622 198.548718 
L 316.35174 194.324039 
L 322.180584 184.779959 
L 323.894682 181.427495 
L 325.056027 178.441425 
L 325.638243 175.870247 
L 325.712609 174.516805 
L 325.432129 171.224024 
L 324.697832 167.602415 
L 323.537017 163.788058 
L 321.993333 159.905752 
L 320.119826 156.071854 
L 317.976514 152.397358 
L 315.630815 148.990134 
L 313.160447 145.955933 
L 310.659203 143.396979 
L 308.685666 141.74283 
L 307.515838 141.078611 
L 306.112679 140.483782 
L 304.489532 139.966483 
L 302.669181 139.528197 
L 298.541993 138.860351 
L 291.502381 138.148296 
L 286.475545 137.613712 
L 281.316208 136.769757 
L 278.714926 136.141112 
L 276.117422 135.31367 
L 273.547644 134.233237 
L 271.047068 132.843815 
L 268.670321 131.089578 
L 266.596036 129.054077 
L 264.860318 126.851152 
L 263.40203 124.53839 
L 262.163258 122.151471 
L 261.095228 119.715319 
L 259.319702 114.781443 
L 255.101208 101.360962 
L 253.731227 98.242814 
L 252.512345 96.250494 
L 251.525267 95.179977 
L 250.789738 94.758006 
L 249.836053 94.420212 
L 248.642169 94.189508 
L 247.215698 94.085495 
L 245.579435 94.116114 
L 241.786324 94.558514 
L 237.460973 95.402951 
L 225.177481 98.063242 
L 222.542825 98.475417 
L 219.857758 98.77516 
L 217.12325 98.923973 
L 214.34211 98.877134 
L 211.742768 98.621977 
L 207.055761 97.775222 
L 202.481147 96.629047 
L 198.01293 95.242202 
L 193.643419 93.669935 
L 187.257624 91.077623 
L 177.016673 86.541934 
L 158.79795 78.319758 
L 148.892817 73.378228 
L 133.306643 65.528841 
L 133.306643 65.528841 
" style="fill:none;stroke:#ffffff;stroke-linecap:square;"/>
   </g>
   <g id="line2d_20">
    <path clip-path="url(#pd34fdb0400)" d="M 320.635271 295.488 
L 320.930849 275.833291 
L 321.356623 249.235215 
L 321.133061 242.439936 
L 320.639142 229.406505 
L 320.657041 225.278567 
L 320.845686 221.284311 
L 321.246601 217.4365 
L 321.86503 213.870554 
L 322.273676 212.261323 
L 322.845093 210.581 
L 324.432765 207.0352 
L 326.503935 203.289326 
L 335.120764 188.813993 
L 336.21108 186.512 
L 337.181814 184.12027 
L 337.994343 181.626677 
L 338.602873 179.024097 
L 338.955408 176.316293 
L 339.013357 173.719335 
L 338.855178 171.296864 
L 338.545611 168.861306 
L 338.096345 166.416749 
L 337.517226 163.967997 
L 336.816771 161.520633 
L 335.081364 156.655967 
L 332.942881 151.880237 
L 330.446326 147.25776 
L 327.629824 142.85697 
L 324.522969 138.748724 
L 322.866592 136.827044 
L 321.142571 135.006269 
L 319.349791 133.296506 
L 317.291769 131.567549 
L 314.949693 129.982395 
L 312.519769 128.729258 
L 310.04347 127.752139 
L 307.544747 126.996845 
L 305.03811 126.415836 
L 300.045145 125.620774 
L 292.798498 124.886851 
L 288.33224 124.419072 
L 284.371424 123.800119 
L 281.121352 122.964317 
L 278.712497 121.944868 
L 277.806491 121.390286 
L 276.943345 120.658897 
L 276.064779 119.639639 
L 275.193482 118.332947 
L 274.348924 116.761164 
L 273.54143 114.957389 
L 272.035541 110.799823 
L 267.398714 96.230934 
L 266.352607 93.759347 
L 265.121319 91.328215 
L 263.639601 88.966509 
L 261.832404 86.727765 
L 259.635212 84.708324 
L 257.143689 83.097792 
L 254.569641 81.980753 
L 251.971513 81.267811 
L 249.393253 80.88606 
L 246.849161 80.765904 
L 244.338345 80.849406 
L 241.855306 81.090128 
L 236.956876 81.897107 
L 229.803231 83.48023 
L 223.088183 84.903429 
L 219.057752 85.474564 
L 215.568747 85.609082 
L 213.850093 85.465038 
L 210.079612 84.798236 
L 206.260855 83.851737 
L 202.394872 82.658703 
L 198.484409 81.255803 
L 192.541098 78.845258 
L 182.4346 74.368523 
L 164.649485 66.348735 
L 154.934052 61.501808 
L 139.178963 53.568 
L 139.178963 53.568 
" style="fill:none;stroke:#ffffff;stroke-linecap:square;"/>
   </g>
   <g id="patch_3">
    <path d="M 57.6 307.584 
L 57.6 41.472 
" style="fill:none;stroke:#000000;stroke-linecap:square;stroke-linejoin:miter;stroke-width:0.8;"/>
   </g>
   <g id="patch_4">
    <path d="M 414.72 307.584 
L 414.72 41.472 
" style="fill:none;stroke:#000000;stroke-linecap:square;stroke-linejoin:miter;stroke-width:0.8;"/>
   </g>
   <g id="patch_5">
    <path d="M 57.6 307.584 
L 414.72 307.584 
" style="fill:none;stroke:#000000;stroke-linecap:square;stroke-linejoin:miter;stroke-width:0.8;"/>
   </g>
   <g id="patch_6">
    <path d="M 57.6 41.472 
L 414.72 41.472 
" style="fill:none;stroke:#000000;stroke-linecap:square;stroke-linejoin:miter;stroke-width:0.8;"/>
   </g>
  </g>
 </g>
 <defs>
  <clipPath id="pd34fdb0400">
   <rect height="266.112" width="357.12" x="57.6" y="41.472"/>
  </clipPath>
 </defs>
</svg>
