<?xml version="1.0" encoding="utf-8" standalone="no"?>
<!DOCTYPE svg PUBLIC "-//W3C//DTD SVG 1.1//EN"
  "http://www.w3.org/Graphics/SVG/1.1/DTD/svg11.dtd">
<!-- Created with matplotlib (https://matplotlib.org/) -->
<svg height="345.6pt" version="1.1" viewBox="0 0 460.8 345.6" width="460.8pt" xmlns="http://www.w3.org/2000/svg" xmlns:xlink="http://www.w3.org/1999/xlink">
 <metadata>
  <rdf:RDF xmlns:cc="http://creativecommons.org/ns#" xmlns:dc="http://purl.org/dc/elements/1.1/" xmlns:rdf="http://www.w3.org/1999/02/22-rdf-syntax-ns#">
   <cc:Work>
    <dc:type rdf:resource="http://purl.org/dc/dcmitype/StillImage"/>
    <dc:date>2021-06-18T10:09:19.336476</dc:date>
    <dc:format>image/svg+xml</dc:format>
    <dc:creator>
     <cc:Agent>
      <dc:title>Matplotlib v3.3.3, https://matplotlib.org/</dc:title>
     </cc:Agent>
    </dc:creator>
   </cc:Work>
  </rdf:RDF>
 </metadata>
 <defs>
  <style type="text/css">*{stroke-linecap:butt;stroke-linejoin:round;}</style>
 </defs>
 <g id="figure_1">
  <g id="patch_1">
   <path d="M 0 345.6 
L 460.8 345.6 
L 460.8 0 
L 0 0 
z
" style="fill:#ffffff;"/>
  </g>
  <g id="axes_1">
   <g id="patch_2">
    <path d="M 57.6 307.584 
L 414.72 307.584 
L 414.72 41.472 
L 57.6 41.472 
z
" style="fill:#7d9051;"/>
   </g>
   <g id="matplotlib.axis_1">
    <g id="xtick_1">
     <g id="line2d_1">
      <defs>
       <path d="M 0 0 
L 0 3.5 
" id="m41fc4be11f" style="stroke:#000000;stroke-width:0.8;"/>
      </defs>
      <g>
       <use style="stroke:#000000;stroke-width:0.8;" x="111.761282" xlink:href="#m41fc4be11f" y="307.584"/>
      </g>
     </g>
     <g id="text_1">
      <!-- −50 -->
      <g transform="translate(101.208938 322.182437)scale(0.1 -0.1)">
       <defs>
        <path d="M 10.59375 35.5 
L 73.1875 35.5 
L 73.1875 27.203125 
L 10.59375 27.203125 
z
" id="DejaVuSans-8722"/>
        <path d="M 10.796875 72.90625 
L 49.515625 72.90625 
L 49.515625 64.59375 
L 19.828125 64.59375 
L 19.828125 46.734375 
Q 21.96875 47.46875 24.109375 47.828125 
Q 26.265625 48.1875 28.421875 48.1875 
Q 40.625 48.1875 47.75 41.5 
Q 54.890625 34.8125 54.890625 23.390625 
Q 54.890625 11.625 47.5625 5.09375 
Q 40.234375 -1.421875 26.90625 -1.421875 
Q 22.3125 -1.421875 17.546875 -0.640625 
Q 12.796875 0.140625 7.71875 1.703125 
L 7.71875 11.625 
Q 12.109375 9.234375 16.796875 8.0625 
Q 21.484375 6.890625 26.703125 6.890625 
Q 35.15625 6.890625 40.078125 11.328125 
Q 45.015625 15.765625 45.015625 23.390625 
Q 45.015625 31 40.078125 35.4375 
Q 35.15625 39.890625 26.703125 39.890625 
Q 22.75 39.890625 18.8125 39.015625 
Q 14.890625 38.140625 10.796875 36.28125 
z
" id="DejaVuSans-53"/>
        <path d="M 31.78125 66.40625 
Q 24.171875 66.40625 20.328125 58.90625 
Q 16.5 51.421875 16.5 36.375 
Q 16.5 21.390625 20.328125 13.890625 
Q 24.171875 6.390625 31.78125 6.390625 
Q 39.453125 6.390625 43.28125 13.890625 
Q 47.125 21.390625 47.125 36.375 
Q 47.125 51.421875 43.28125 58.90625 
Q 39.453125 66.40625 31.78125 66.40625 
z
M 31.78125 74.21875 
Q 44.046875 74.21875 50.515625 64.515625 
Q 56.984375 54.828125 56.984375 36.375 
Q 56.984375 17.96875 50.515625 8.265625 
Q 44.046875 -1.421875 31.78125 -1.421875 
Q 19.53125 -1.421875 13.0625 8.265625 
Q 6.59375 17.96875 6.59375 36.375 
Q 6.59375 54.828125 13.0625 64.515625 
Q 19.53125 74.21875 31.78125 74.21875 
z
" id="DejaVuSans-48"/>
       </defs>
       <use xlink:href="#DejaVuSans-8722"/>
       <use x="83.789062" xlink:href="#DejaVuSans-53"/>
       <use x="147.412109" xlink:href="#DejaVuSans-48"/>
      </g>
     </g>
    </g>
    <g id="xtick_2">
     <g id="line2d_2">
      <g>
       <use style="stroke:#000000;stroke-width:0.8;" x="178.925583" xlink:href="#m41fc4be11f" y="307.584"/>
      </g>
     </g>
     <g id="text_2">
      <!-- 0 -->
      <g transform="translate(175.744333 322.182437)scale(0.1 -0.1)">
       <use xlink:href="#DejaVuSans-48"/>
      </g>
     </g>
    </g>
    <g id="xtick_3">
     <g id="line2d_3">
      <g>
       <use style="stroke:#000000;stroke-width:0.8;" x="246.089884" xlink:href="#m41fc4be11f" y="307.584"/>
      </g>
     </g>
     <g id="text_3">
      <!-- 50 -->
      <g transform="translate(239.727384 322.182437)scale(0.1 -0.1)">
       <use xlink:href="#DejaVuSans-53"/>
       <use x="63.623047" xlink:href="#DejaVuSans-48"/>
      </g>
     </g>
    </g>
    <g id="xtick_4">
     <g id="line2d_4">
      <g>
       <use style="stroke:#000000;stroke-width:0.8;" x="313.254185" xlink:href="#m41fc4be11f" y="307.584"/>
      </g>
     </g>
     <g id="text_4">
      <!-- 100 -->
      <g transform="translate(303.710435 322.182437)scale(0.1 -0.1)">
       <defs>
        <path d="M 12.40625 8.296875 
L 28.515625 8.296875 
L 28.515625 63.921875 
L 10.984375 60.40625 
L 10.984375 69.390625 
L 28.421875 72.90625 
L 38.28125 72.90625 
L 38.28125 8.296875 
L 54.390625 8.296875 
L 54.390625 0 
L 12.40625 0 
z
" id="DejaVuSans-49"/>
       </defs>
       <use xlink:href="#DejaVuSans-49"/>
       <use x="63.623047" xlink:href="#DejaVuSans-48"/>
       <use x="127.246094" xlink:href="#DejaVuSans-48"/>
      </g>
     </g>
    </g>
    <g id="xtick_5">
     <g id="line2d_5">
      <g>
       <use style="stroke:#000000;stroke-width:0.8;" x="380.418486" xlink:href="#m41fc4be11f" y="307.584"/>
      </g>
     </g>
     <g id="text_5">
      <!-- 150 -->
      <g transform="translate(370.874736 322.182437)scale(0.1 -0.1)">
       <use xlink:href="#DejaVuSans-49"/>
       <use x="63.623047" xlink:href="#DejaVuSans-53"/>
       <use x="127.246094" xlink:href="#DejaVuSans-48"/>
      </g>
     </g>
    </g>
   </g>
   <g id="matplotlib.axis_2">
    <g id="ytick_1">
     <g id="line2d_6">
      <defs>
       <path d="M 0 0 
L -3.5 0 
" id="m9907b69dd1" style="stroke:#000000;stroke-width:0.8;"/>
      </defs>
      <g>
       <use style="stroke:#000000;stroke-width:0.8;" x="57.6" xlink:href="#m9907b69dd1" y="295.436305"/>
      </g>
     </g>
     <g id="text_6">
      <!-- 0 -->
      <g transform="translate(44.2375 299.235524)scale(0.1 -0.1)">
       <use xlink:href="#DejaVuSans-48"/>
      </g>
     </g>
    </g>
    <g id="ytick_2">
     <g id="line2d_7">
      <g>
       <use style="stroke:#000000;stroke-width:0.8;" x="57.6" xlink:href="#m9907b69dd1" y="261.854155"/>
      </g>
     </g>
     <g id="text_7">
      <!-- 25 -->
      <g transform="translate(37.875 265.653374)scale(0.1 -0.1)">
       <defs>
        <path d="M 19.1875 8.296875 
L 53.609375 8.296875 
L 53.609375 0 
L 7.328125 0 
L 7.328125 8.296875 
Q 12.9375 14.109375 22.625 23.890625 
Q 32.328125 33.6875 34.8125 36.53125 
Q 39.546875 41.84375 41.421875 45.53125 
Q 43.3125 49.21875 43.3125 52.78125 
Q 43.3125 58.59375 39.234375 62.25 
Q 35.15625 65.921875 28.609375 65.921875 
Q 23.96875 65.921875 18.8125 64.3125 
Q 13.671875 62.703125 7.8125 59.421875 
L 7.8125 69.390625 
Q 13.765625 71.78125 18.9375 73 
Q 24.125 74.21875 28.421875 74.21875 
Q 39.75 74.21875 46.484375 68.546875 
Q 53.21875 62.890625 53.21875 53.421875 
Q 53.21875 48.921875 51.53125 44.890625 
Q 49.859375 40.875 45.40625 35.40625 
Q 44.1875 33.984375 37.640625 27.21875 
Q 31.109375 20.453125 19.1875 8.296875 
z
" id="DejaVuSans-50"/>
       </defs>
       <use xlink:href="#DejaVuSans-50"/>
       <use x="63.623047" xlink:href="#DejaVuSans-53"/>
      </g>
     </g>
    </g>
    <g id="ytick_3">
     <g id="line2d_8">
      <g>
       <use style="stroke:#000000;stroke-width:0.8;" x="57.6" xlink:href="#m9907b69dd1" y="228.272004"/>
      </g>
     </g>
     <g id="text_8">
      <!-- 50 -->
      <g transform="translate(37.875 232.071223)scale(0.1 -0.1)">
       <use xlink:href="#DejaVuSans-53"/>
       <use x="63.623047" xlink:href="#DejaVuSans-48"/>
      </g>
     </g>
    </g>
    <g id="ytick_4">
     <g id="line2d_9">
      <g>
       <use style="stroke:#000000;stroke-width:0.8;" x="57.6" xlink:href="#m9907b69dd1" y="194.689854"/>
      </g>
     </g>
     <g id="text_9">
      <!-- 75 -->
      <g transform="translate(37.875 198.489072)scale(0.1 -0.1)">
       <defs>
        <path d="M 8.203125 72.90625 
L 55.078125 72.90625 
L 55.078125 68.703125 
L 28.609375 0 
L 18.3125 0 
L 43.21875 64.59375 
L 8.203125 64.59375 
z
" id="DejaVuSans-55"/>
       </defs>
       <use xlink:href="#DejaVuSans-55"/>
       <use x="63.623047" xlink:href="#DejaVuSans-53"/>
      </g>
     </g>
    </g>
    <g id="ytick_5">
     <g id="line2d_10">
      <g>
       <use style="stroke:#000000;stroke-width:0.8;" x="57.6" xlink:href="#m9907b69dd1" y="161.107703"/>
      </g>
     </g>
     <g id="text_10">
      <!-- 100 -->
      <g transform="translate(31.5125 164.906922)scale(0.1 -0.1)">
       <use xlink:href="#DejaVuSans-49"/>
       <use x="63.623047" xlink:href="#DejaVuSans-48"/>
       <use x="127.246094" xlink:href="#DejaVuSans-48"/>
      </g>
     </g>
    </g>
    <g id="ytick_6">
     <g id="line2d_11">
      <g>
       <use style="stroke:#000000;stroke-width:0.8;" x="57.6" xlink:href="#m9907b69dd1" y="127.525553"/>
      </g>
     </g>
     <g id="text_11">
      <!-- 125 -->
      <g transform="translate(31.5125 131.324771)scale(0.1 -0.1)">
       <use xlink:href="#DejaVuSans-49"/>
       <use x="63.623047" xlink:href="#DejaVuSans-50"/>
       <use x="127.246094" xlink:href="#DejaVuSans-53"/>
      </g>
     </g>
    </g>
    <g id="ytick_7">
     <g id="line2d_12">
      <g>
       <use style="stroke:#000000;stroke-width:0.8;" x="57.6" xlink:href="#m9907b69dd1" y="93.943402"/>
      </g>
     </g>
     <g id="text_12">
      <!-- 150 -->
      <g transform="translate(31.5125 97.742621)scale(0.1 -0.1)">
       <use xlink:href="#DejaVuSans-49"/>
       <use x="63.623047" xlink:href="#DejaVuSans-53"/>
       <use x="127.246094" xlink:href="#DejaVuSans-48"/>
      </g>
     </g>
    </g>
    <g id="ytick_8">
     <g id="line2d_13">
      <g>
       <use style="stroke:#000000;stroke-width:0.8;" x="57.6" xlink:href="#m9907b69dd1" y="60.361251"/>
      </g>
     </g>
     <g id="text_13">
      <!-- 175 -->
      <g transform="translate(31.5125 64.16047)scale(0.1 -0.1)">
       <use xlink:href="#DejaVuSans-49"/>
       <use x="63.623047" xlink:href="#DejaVuSans-55"/>
       <use x="127.246094" xlink:href="#DejaVuSans-53"/>
      </g>
     </g>
    </g>
   </g>
   <g id="line2d_14">
    <path clip-path="url(#pbbd15beeb4)" d="M 178.925583 295.436305 
L 179.199445 277.763879 
L 179.513236 260.080226 
L 179.369949 256.462984 
L 178.771023 249.1023 
L 178.355992 243.595591 
L 178.241987 239.990179 
L 178.349232 236.474159 
L 178.755814 233.079078 
L 179.539821 229.836486 
L 180.097762 228.282234 
L 180.819023 226.786532 
L 181.730492 225.354463 
L 182.808095 223.978777 
L 184.027761 222.652227 
L 186.796988 220.117546 
L 189.845591 217.692435 
L 196.010594 212.938994 
L 198.741831 210.4947 
L 199.935379 209.230292 
L 200.982115 207.928046 
L 201.857969 206.580715 
L 202.538865 205.18105 
L 203.000733 203.721804 
L 203.213871 202.200063 
L 203.183709 200.622152 
L 202.938871 198.99468 
L 202.50798 197.324253 
L 201.919659 195.617482 
L 200.385225 192.121335 
L 197.618441 186.769731 
L 195.797771 183.207502 
L 194.263336 179.711355 
L 193.675016 178.004583 
L 193.244125 176.334157 
L 192.999287 174.706684 
L 192.969125 173.128774 
L 193.182263 171.607033 
L 193.631283 170.145637 
L 194.276492 168.74 
L 195.098099 167.383591 
L 196.076315 166.069879 
L 198.423411 163.544419 
L 201.159458 161.111373 
L 211.51285 152.569111 
L 214.039951 149.905336 
L 215.132715 148.503605 
L 216.085234 147.046603 
L 217.661313 143.973567 
L 218.93629 140.729262 
L 219.985079 137.355003 
L 221.298038 132.140331 
L 223.416657 123.38475 
L 224.45823 119.980461 
L 225.723104 116.694114 
L 227.26601 113.555175 
L 229.001642 110.513006 
L 231.872408 106.082024 
L 234.975701 101.766841 
L 241.482735 93.29071 
L 245.72462 87.599193 
L 247.7141 84.57872 
L 250.533926 79.672321 
L 255.182603 71.343728 
L 257.159784 68.257053 
L 259.27395 65.463348 
L 260.396928 64.208257 
L 261.571583 63.064683 
L 262.803726 62.045387 
L 264.099165 61.163127 
L 265.463713 60.430662 
L 266.901867 59.856945 
L 268.410242 59.433816 
L 269.982819 59.148368 
L 271.613579 58.987694 
L 275.025572 58.989036 
L 278.598069 59.334581 
L 282.28292 59.921068 
L 297.182826 62.611219 
L 298.964059 62.773235 
L 298.964059 62.773235 
" style="fill:none;stroke:#fea952;stroke-linecap:square;"/>
   </g>
   <g id="line2d_15">
    <path clip-path="url(#pbbd15beeb4)" d="M 173.552688 295.384611 
L 173.827377 277.65634 
L 174.142205 260.230891 
L 174.009357 256.830046 
L 173.417473 249.560755 
L 172.988048 243.83194 
L 172.869224 239.926216 
L 172.999618 235.971862 
L 173.494204 231.989979 
L 173.918259 230.000027 
L 174.48265 228.02108 
L 175.257953 225.948368 
L 176.286126 223.901481 
L 177.500577 222.041081 
L 178.852704 220.342082 
L 180.305916 218.776851 
L 183.404166 215.95108 
L 186.599179 213.410906 
L 192.517691 208.856066 
L 194.834535 206.806378 
L 196.477171 204.999539 
L 197.416191 203.559666 
L 197.67953 202.976506 
L 197.841708 202.302753 
L 197.870356 201.421497 
L 197.736037 200.336765 
L 197.428151 199.075259 
L 196.329397 196.144425 
L 194.732543 192.830484 
L 190.924634 185.470954 
L 189.183508 181.462361 
L 188.472182 179.346669 
L 187.930772 177.133502 
L 187.627124 174.809374 
L 187.647921 172.383476 
L 188.046092 170.028923 
L 188.748009 167.90414 
L 189.680702 165.956227 
L 190.788479 164.174564 
L 192.028188 162.536701 
L 193.367757 161.017306 
L 196.251818 158.24353 
L 199.279474 155.707736 
L 206.492617 149.87854 
L 208.826335 147.671199 
L 210.635365 145.563449 
L 211.375189 144.460844 
L 212.704117 141.900675 
L 213.829945 139.057162 
L 214.796017 135.960617 
L 216.062443 130.932347 
L 218.256462 121.887066 
L 219.40471 118.154917 
L 220.853388 114.423311 
L 222.565048 110.95294 
L 224.434163 107.683021 
L 226.432614 104.535578 
L 229.598128 100.004959 
L 233.963965 94.229357 
L 240.333535 85.885143 
L 242.197749 83.243038 
L 244.006209 80.312568 
L 247.66487 73.708718 
L 250.614334 68.51502 
L 252.799811 65.116781 
L 255.269663 61.880562 
L 256.648819 60.358276 
L 258.146654 58.92457 
L 259.779163 57.604362 
L 261.557923 56.428915 
L 263.472797 55.439978 
L 265.450614 54.683499 
L 267.450612 54.14706 
L 269.45597 53.801116 
L 271.457813 53.616808 
L 273.452281 53.568 
L 277.41437 53.787937 
L 281.335027 54.307876 
L 287.098457 55.378996 
L 294.357821 56.784569 
L 297.669543 57.260164 
L 299.450776 57.42218 
L 299.450776 57.42218 
" style="fill:none;stroke:#ffffff;stroke-linecap:square;"/>
   </g>
   <g id="line2d_16">
    <path clip-path="url(#pbbd15beeb4)" d="M 184.298478 295.488 
L 184.571512 277.871418 
L 184.884267 259.929561 
L 184.730541 256.095921 
L 184.124573 248.643845 
L 183.723935 243.359242 
L 183.614751 240.054143 
L 183.698847 236.976455 
L 184.017424 234.168176 
L 184.596992 231.651893 
L 185.35192 229.671584 
L 185.960406 228.667844 
L 186.763487 227.615472 
L 188.899484 225.414917 
L 191.595684 223.137396 
L 201.100143 215.648724 
L 202.649127 214.183022 
L 204.123338 212.596547 
L 205.48706 210.856553 
L 206.689717 208.931222 
L 207.66154 206.802434 
L 208.321937 204.467102 
L 208.586034 202.097374 
L 208.497063 199.822807 
L 208.141705 197.652594 
L 207.587808 195.573248 
L 206.885978 193.566541 
L 205.190258 189.716687 
L 201.491671 182.579012 
L 199.946781 179.396923 
L 198.87785 176.662498 
L 198.371449 174.603995 
L 198.318433 173.185143 
L 198.514557 172.387135 
L 198.872281 171.523773 
L 199.407719 170.592618 
L 200.124442 169.603056 
L 202.064316 167.495937 
L 204.562016 165.269892 
L 215.307748 156.372981 
L 216.82713 154.845457 
L 218.277547 153.208889 
L 219.630065 151.443762 
L 220.79528 149.632362 
L 222.618509 146.04646 
L 224.042635 142.401362 
L 225.174141 138.74939 
L 226.533633 133.348314 
L 228.576853 124.882434 
L 229.51175 121.806006 
L 230.59282 118.964917 
L 231.966973 116.157411 
L 233.569121 113.342991 
L 236.27528 109.16186 
L 239.269588 104.99689 
L 245.751528 96.55385 
L 250.16022 90.631704 
L 252.32513 87.337177 
L 255.25044 82.246262 
L 259.750873 74.172436 
L 261.519757 71.397326 
L 263.278237 69.046135 
L 264.996513 67.204796 
L 266.640407 65.89734 
L 267.454628 65.421347 
L 268.35312 65.03039 
L 269.369873 64.720571 
L 271.769346 64.358579 
L 274.613143 64.346328 
L 277.815578 64.650442 
L 281.290543 65.201774 
L 294.690911 67.710484 
L 298.477341 68.124289 
L 298.477341 68.124289 
" style="fill:none;stroke:#ffffff;stroke-linecap:square;"/>
   </g>
   <g id="patch_3">
    <path d="M 57.6 307.584 
L 57.6 41.472 
" style="fill:none;stroke:#000000;stroke-linecap:square;stroke-linejoin:miter;stroke-width:0.8;"/>
   </g>
   <g id="patch_4">
    <path d="M 414.72 307.584 
L 414.72 41.472 
" style="fill:none;stroke:#000000;stroke-linecap:square;stroke-linejoin:miter;stroke-width:0.8;"/>
   </g>
   <g id="patch_5">
    <path d="M 57.6 307.584 
L 414.72 307.584 
" style="fill:none;stroke:#000000;stroke-linecap:square;stroke-linejoin:miter;stroke-width:0.8;"/>
   </g>
   <g id="patch_6">
    <path d="M 57.6 41.472 
L 414.72 41.472 
" style="fill:none;stroke:#000000;stroke-linecap:square;stroke-linejoin:miter;stroke-width:0.8;"/>
   </g>
  </g>
 </g>
 <defs>
  <clipPath id="pbbd15beeb4">
   <rect height="266.112" width="357.12" x="57.6" y="41.472"/>
  </clipPath>
 </defs>
</svg>
