<?xml version="1.0" encoding="utf-8" standalone="no"?>
<!DOCTYPE svg PUBLIC "-//W3C//DTD SVG 1.1//EN"
  "http://www.w3.org/Graphics/SVG/1.1/DTD/svg11.dtd">
<!-- Created with matplotlib (https://matplotlib.org/) -->
<svg height="345.6pt" version="1.1" viewBox="0 0 460.8 345.6" width="460.8pt" xmlns="http://www.w3.org/2000/svg" xmlns:xlink="http://www.w3.org/1999/xlink">
 <metadata>
  <rdf:RDF xmlns:cc="http://creativecommons.org/ns#" xmlns:dc="http://purl.org/dc/elements/1.1/" xmlns:rdf="http://www.w3.org/1999/02/22-rdf-syntax-ns#">
   <cc:Work>
    <dc:type rdf:resource="http://purl.org/dc/dcmitype/StillImage"/>
    <dc:date>2021-06-27T09:15:34.008868</dc:date>
    <dc:format>image/svg+xml</dc:format>
    <dc:creator>
     <cc:Agent>
      <dc:title>Matplotlib v3.3.3, https://matplotlib.org/</dc:title>
     </cc:Agent>
    </dc:creator>
   </cc:Work>
  </rdf:RDF>
 </metadata>
 <defs>
  <style type="text/css">*{stroke-linecap:butt;stroke-linejoin:round;}</style>
 </defs>
 <g id="figure_1">
  <g id="patch_1">
   <path d="M 0 345.6 
L 460.8 345.6 
L 460.8 0 
L 0 0 
z
" style="fill:#ffffff;"/>
  </g>
  <g id="axes_1">
   <g id="patch_2">
    <path d="M 57.6 307.584 
L 414.72 307.584 
L 414.72 41.472 
L 57.6 41.472 
z
" style="fill:#7d9051;"/>
   </g>
   <g id="matplotlib.axis_1">
    <g id="xtick_1">
     <g id="line2d_1">
      <defs>
       <path d="M 0 0 
L 0 3.5 
" id="m21a0895b1d" style="stroke:#000000;stroke-width:0.8;"/>
      </defs>
      <g>
       <use style="stroke:#000000;stroke-width:0.8;" x="101.873284" xlink:href="#m21a0895b1d" y="307.584"/>
      </g>
     </g>
     <g id="text_1">
      <!-- −100 -->
      <g transform="translate(88.139691 322.182437)scale(0.1 -0.1)">
       <defs>
        <path d="M 10.59375 35.5 
L 73.1875 35.5 
L 73.1875 27.203125 
L 10.59375 27.203125 
z
" id="DejaVuSans-8722"/>
        <path d="M 12.40625 8.296875 
L 28.515625 8.296875 
L 28.515625 63.921875 
L 10.984375 60.40625 
L 10.984375 69.390625 
L 28.421875 72.90625 
L 38.28125 72.90625 
L 38.28125 8.296875 
L 54.390625 8.296875 
L 54.390625 0 
L 12.40625 0 
z
" id="DejaVuSans-49"/>
        <path d="M 31.78125 66.40625 
Q 24.171875 66.40625 20.328125 58.90625 
Q 16.5 51.421875 16.5 36.375 
Q 16.5 21.390625 20.328125 13.890625 
Q 24.171875 6.390625 31.78125 6.390625 
Q 39.453125 6.390625 43.28125 13.890625 
Q 47.125 21.390625 47.125 36.375 
Q 47.125 51.421875 43.28125 58.90625 
Q 39.453125 66.40625 31.78125 66.40625 
z
M 31.78125 74.21875 
Q 44.046875 74.21875 50.515625 64.515625 
Q 56.984375 54.828125 56.984375 36.375 
Q 56.984375 17.96875 50.515625 8.265625 
Q 44.046875 -1.421875 31.78125 -1.421875 
Q 19.53125 -1.421875 13.0625 8.265625 
Q 6.59375 17.96875 6.59375 36.375 
Q 6.59375 54.828125 13.0625 64.515625 
Q 19.53125 74.21875 31.78125 74.21875 
z
" id="DejaVuSans-48"/>
       </defs>
       <use xlink:href="#DejaVuSans-8722"/>
       <use x="83.789062" xlink:href="#DejaVuSans-49"/>
       <use x="147.412109" xlink:href="#DejaVuSans-48"/>
       <use x="211.035156" xlink:href="#DejaVuSans-48"/>
      </g>
     </g>
    </g>
    <g id="xtick_2">
     <g id="line2d_2">
      <g>
       <use style="stroke:#000000;stroke-width:0.8;" x="165.828189" xlink:href="#m21a0895b1d" y="307.584"/>
      </g>
     </g>
     <g id="text_2">
      <!-- −50 -->
      <g transform="translate(155.275846 322.182437)scale(0.1 -0.1)">
       <defs>
        <path d="M 10.796875 72.90625 
L 49.515625 72.90625 
L 49.515625 64.59375 
L 19.828125 64.59375 
L 19.828125 46.734375 
Q 21.96875 47.46875 24.109375 47.828125 
Q 26.265625 48.1875 28.421875 48.1875 
Q 40.625 48.1875 47.75 41.5 
Q 54.890625 34.8125 54.890625 23.390625 
Q 54.890625 11.625 47.5625 5.09375 
Q 40.234375 -1.421875 26.90625 -1.421875 
Q 22.3125 -1.421875 17.546875 -0.640625 
Q 12.796875 0.140625 7.71875 1.703125 
L 7.71875 11.625 
Q 12.109375 9.234375 16.796875 8.0625 
Q 21.484375 6.890625 26.703125 6.890625 
Q 35.15625 6.890625 40.078125 11.328125 
Q 45.015625 15.765625 45.015625 23.390625 
Q 45.015625 31 40.078125 35.4375 
Q 35.15625 39.890625 26.703125 39.890625 
Q 22.75 39.890625 18.8125 39.015625 
Q 14.890625 38.140625 10.796875 36.28125 
z
" id="DejaVuSans-53"/>
       </defs>
       <use xlink:href="#DejaVuSans-8722"/>
       <use x="83.789062" xlink:href="#DejaVuSans-53"/>
       <use x="147.412109" xlink:href="#DejaVuSans-48"/>
      </g>
     </g>
    </g>
    <g id="xtick_3">
     <g id="line2d_3">
      <g>
       <use style="stroke:#000000;stroke-width:0.8;" x="229.783094" xlink:href="#m21a0895b1d" y="307.584"/>
      </g>
     </g>
     <g id="text_3">
      <!-- 0 -->
      <g transform="translate(226.601844 322.182437)scale(0.1 -0.1)">
       <use xlink:href="#DejaVuSans-48"/>
      </g>
     </g>
    </g>
    <g id="xtick_4">
     <g id="line2d_4">
      <g>
       <use style="stroke:#000000;stroke-width:0.8;" x="293.737999" xlink:href="#m21a0895b1d" y="307.584"/>
      </g>
     </g>
     <g id="text_4">
      <!-- 50 -->
      <g transform="translate(287.375499 322.182437)scale(0.1 -0.1)">
       <use xlink:href="#DejaVuSans-53"/>
       <use x="63.623047" xlink:href="#DejaVuSans-48"/>
      </g>
     </g>
    </g>
    <g id="xtick_5">
     <g id="line2d_5">
      <g>
       <use style="stroke:#000000;stroke-width:0.8;" x="357.692904" xlink:href="#m21a0895b1d" y="307.584"/>
      </g>
     </g>
     <g id="text_5">
      <!-- 100 -->
      <g transform="translate(348.149154 322.182437)scale(0.1 -0.1)">
       <use xlink:href="#DejaVuSans-49"/>
       <use x="63.623047" xlink:href="#DejaVuSans-48"/>
       <use x="127.246094" xlink:href="#DejaVuSans-48"/>
      </g>
     </g>
    </g>
   </g>
   <g id="matplotlib.axis_2">
    <g id="ytick_1">
     <g id="line2d_6">
      <defs>
       <path d="M 0 0 
L -3.5 0 
" id="mac51855efb" style="stroke:#000000;stroke-width:0.8;"/>
      </defs>
      <g>
       <use style="stroke:#000000;stroke-width:0.8;" x="57.6" xlink:href="#mac51855efb" y="295.438775"/>
      </g>
     </g>
     <g id="text_6">
      <!-- 0 -->
      <g transform="translate(44.2375 299.237994)scale(0.1 -0.1)">
       <use xlink:href="#DejaVuSans-48"/>
      </g>
     </g>
    </g>
    <g id="ytick_2">
     <g id="line2d_7">
      <g>
       <use style="stroke:#000000;stroke-width:0.8;" x="57.6" xlink:href="#mac51855efb" y="263.461323"/>
      </g>
     </g>
     <g id="text_7">
      <!-- 25 -->
      <g transform="translate(37.875 267.260542)scale(0.1 -0.1)">
       <defs>
        <path d="M 19.1875 8.296875 
L 53.609375 8.296875 
L 53.609375 0 
L 7.328125 0 
L 7.328125 8.296875 
Q 12.9375 14.109375 22.625 23.890625 
Q 32.328125 33.6875 34.8125 36.53125 
Q 39.546875 41.84375 41.421875 45.53125 
Q 43.3125 49.21875 43.3125 52.78125 
Q 43.3125 58.59375 39.234375 62.25 
Q 35.15625 65.921875 28.609375 65.921875 
Q 23.96875 65.921875 18.8125 64.3125 
Q 13.671875 62.703125 7.8125 59.421875 
L 7.8125 69.390625 
Q 13.765625 71.78125 18.9375 73 
Q 24.125 74.21875 28.421875 74.21875 
Q 39.75 74.21875 46.484375 68.546875 
Q 53.21875 62.890625 53.21875 53.421875 
Q 53.21875 48.921875 51.53125 44.890625 
Q 49.859375 40.875 45.40625 35.40625 
Q 44.1875 33.984375 37.640625 27.21875 
Q 31.109375 20.453125 19.1875 8.296875 
z
" id="DejaVuSans-50"/>
       </defs>
       <use xlink:href="#DejaVuSans-50"/>
       <use x="63.623047" xlink:href="#DejaVuSans-53"/>
      </g>
     </g>
    </g>
    <g id="ytick_3">
     <g id="line2d_8">
      <g>
       <use style="stroke:#000000;stroke-width:0.8;" x="57.6" xlink:href="#mac51855efb" y="231.483871"/>
      </g>
     </g>
     <g id="text_8">
      <!-- 50 -->
      <g transform="translate(37.875 235.283089)scale(0.1 -0.1)">
       <use xlink:href="#DejaVuSans-53"/>
       <use x="63.623047" xlink:href="#DejaVuSans-48"/>
      </g>
     </g>
    </g>
    <g id="ytick_4">
     <g id="line2d_9">
      <g>
       <use style="stroke:#000000;stroke-width:0.8;" x="57.6" xlink:href="#mac51855efb" y="199.506418"/>
      </g>
     </g>
     <g id="text_9">
      <!-- 75 -->
      <g transform="translate(37.875 203.305637)scale(0.1 -0.1)">
       <defs>
        <path d="M 8.203125 72.90625 
L 55.078125 72.90625 
L 55.078125 68.703125 
L 28.609375 0 
L 18.3125 0 
L 43.21875 64.59375 
L 8.203125 64.59375 
z
" id="DejaVuSans-55"/>
       </defs>
       <use xlink:href="#DejaVuSans-55"/>
       <use x="63.623047" xlink:href="#DejaVuSans-53"/>
      </g>
     </g>
    </g>
    <g id="ytick_5">
     <g id="line2d_10">
      <g>
       <use style="stroke:#000000;stroke-width:0.8;" x="57.6" xlink:href="#mac51855efb" y="167.528966"/>
      </g>
     </g>
     <g id="text_10">
      <!-- 100 -->
      <g transform="translate(31.5125 171.328185)scale(0.1 -0.1)">
       <use xlink:href="#DejaVuSans-49"/>
       <use x="63.623047" xlink:href="#DejaVuSans-48"/>
       <use x="127.246094" xlink:href="#DejaVuSans-48"/>
      </g>
     </g>
    </g>
    <g id="ytick_6">
     <g id="line2d_11">
      <g>
       <use style="stroke:#000000;stroke-width:0.8;" x="57.6" xlink:href="#mac51855efb" y="135.551513"/>
      </g>
     </g>
     <g id="text_11">
      <!-- 125 -->
      <g transform="translate(31.5125 139.350732)scale(0.1 -0.1)">
       <use xlink:href="#DejaVuSans-49"/>
       <use x="63.623047" xlink:href="#DejaVuSans-50"/>
       <use x="127.246094" xlink:href="#DejaVuSans-53"/>
      </g>
     </g>
    </g>
    <g id="ytick_7">
     <g id="line2d_12">
      <g>
       <use style="stroke:#000000;stroke-width:0.8;" x="57.6" xlink:href="#mac51855efb" y="103.574061"/>
      </g>
     </g>
     <g id="text_12">
      <!-- 150 -->
      <g transform="translate(31.5125 107.37328)scale(0.1 -0.1)">
       <use xlink:href="#DejaVuSans-49"/>
       <use x="63.623047" xlink:href="#DejaVuSans-53"/>
       <use x="127.246094" xlink:href="#DejaVuSans-48"/>
      </g>
     </g>
    </g>
    <g id="ytick_8">
     <g id="line2d_13">
      <g>
       <use style="stroke:#000000;stroke-width:0.8;" x="57.6" xlink:href="#mac51855efb" y="71.596609"/>
      </g>
     </g>
     <g id="text_13">
      <!-- 175 -->
      <g transform="translate(31.5125 75.395827)scale(0.1 -0.1)">
       <use xlink:href="#DejaVuSans-49"/>
       <use x="63.623047" xlink:href="#DejaVuSans-55"/>
       <use x="127.246094" xlink:href="#DejaVuSans-53"/>
      </g>
     </g>
    </g>
   </g>
   <g id="line2d_14">
    <path clip-path="url(#p3d43da4b5a)" d="M 229.783094 295.438775 
L 230.043869 278.610813 
L 230.544439 258.399654 
L 231.533819 241.461799 
L 231.501411 238.110701 
L 231.302685 234.785946 
L 230.899261 231.493611 
L 230.573269 229.856361 
L 229.572548 226.583258 
L 228.221325 223.317815 
L 225.837813 218.449225 
L 223.43842 213.636985 
L 222.058965 210.471723 
L 221.015895 207.348891 
L 220.663435 205.80556 
L 220.446588 204.275444 
L 220.382526 202.759413 
L 220.488421 201.258336 
L 220.811763 199.772429 
L 221.369135 198.30083 
L 222.131352 196.842791 
L 223.069227 195.397563 
L 225.35521 192.542549 
L 227.993597 189.729805 
L 233.393633 184.207185 
L 235.688309 181.485339 
L 236.63216 180.131664 
L 237.401439 178.781823 
L 237.96696 177.435069 
L 238.299538 176.090653 
L 238.369985 174.747827 
L 238.188698 173.415884 
L 237.798349 172.102941 
L 237.218176 170.806481 
L 236.467413 169.523988 
L 235.565296 168.252945 
L 233.383941 165.735149 
L 230.827993 163.232962 
L 221.153948 154.307631 
L 218.816637 151.626597 
L 208.073134 136.743314 
L 206.129783 133.643848 
L 204.516103 130.585945 
L 203.347062 127.60517 
L 202.965208 126.154819 
L 202.737628 124.737087 
L 202.678692 123.35642 
L 202.802771 122.017262 
L 203.133338 120.723428 
L 203.671618 119.472614 
L 204.398609 118.260093 
L 205.295309 117.081134 
L 206.342716 115.931009 
L 208.813643 113.698345 
L 211.659376 111.524273 
L 222.376319 103.830237 
L 225.027491 101.451667 
L 227.261834 98.920235 
L 229.269921 96.211144 
L 232.03555 91.912793 
L 238.219921 81.681459 
L 240.144466 78.936072 
L 242.231404 76.363332 
L 244.531112 74.014297 
L 247.052163 71.901263 
L 249.747734 69.978683 
L 252.585101 68.210848 
L 257.03544 65.771124 
L 264.698091 61.972743 
L 270.754586 58.853691 
L 272.224398 58.02557 
L 272.224398 58.02557 
" style="fill:none;stroke:#fea952;stroke-linecap:square;"/>
   </g>
   <g id="line2d_15">
    <path clip-path="url(#p3d43da4b5a)" d="M 224.666939 295.389551 
L 224.928502 278.508413 
L 225.438048 258.079897 
L 226.417431 241.455134 
L 226.322751 236.821642 
L 226.061921 233.844284 
L 225.638299 231.206745 
L 224.808884 228.450067 
L 223.589896 225.492059 
L 221.278878 220.771634 
L 218.782396 215.758049 
L 217.252877 212.226429 
L 216.589832 210.38687 
L 216.027924 208.488024 
L 215.597661 206.523478 
L 215.334757 204.491451 
L 215.278817 202.399366 
L 215.489026 200.170439 
L 216.027065 197.960211 
L 216.834934 195.930494 
L 217.83948 194.057596 
L 218.989097 192.310491 
L 221.578394 189.091009 
L 224.357513 186.13031 
L 229.560339 180.81848 
L 231.491384 178.559029 
L 232.684072 176.800934 
L 233.300336 175.437846 
L 233.284463 174.873951 
L 233.128252 174.192836 
L 232.802708 173.391266 
L 232.295093 172.485274 
L 230.753609 170.441682 
L 228.617811 168.191365 
L 224.65754 164.555045 
L 220.277937 160.616137 
L 217.380887 157.763276 
L 214.680858 154.638706 
L 203.778833 139.524762 
L 201.659348 136.132357 
L 199.817328 132.61054 
L 199.04403 130.786309 
L 198.399282 128.907838 
L 197.913488 126.965743 
L 197.625891 124.955291 
L 197.584121 122.884385 
L 197.845616 120.750737 
L 198.433653 118.700947 
L 199.283514 116.841642 
L 200.326281 115.162736 
L 201.512497 113.636166 
L 202.809144 112.230827 
L 205.646576 109.679993 
L 208.696309 107.353217 
L 219.054019 99.939249 
L 221.290123 97.95745 
L 223.20356 95.804487 
L 225.026599 93.352527 
L 227.647519 89.281698 
L 233.987888 78.806156 
L 236.106195 75.794441 
L 238.483009 72.880948 
L 241.16111 70.164549 
L 244.008446 67.78869 
L 246.982965 65.673625 
L 250.04247 63.770972 
L 254.711124 61.213161 
L 262.425751 57.388646 
L 268.243105 54.396121 
L 269.712917 53.568 
L 269.712917 53.568 
" style="fill:none;stroke:#ffffff;stroke-linecap:square;"/>
   </g>
   <g id="line2d_16">
    <path clip-path="url(#p3d43da4b5a)" d="M 234.89925 295.488 
L 235.159237 278.713213 
L 235.650829 258.719411 
L 236.650207 241.468464 
L 236.612464 237.877016 
L 236.390972 234.250403 
L 235.917154 230.494501 
L 235.50824 228.505977 
L 234.972511 226.581578 
L 233.622607 222.905323 
L 232.046208 219.427723 
L 226.865052 208.717017 
L 226.003865 206.209758 
L 225.558418 204.059437 
L 225.487816 202.346233 
L 225.596461 201.584647 
L 225.903336 200.671166 
L 226.423223 199.627985 
L 227.149357 198.484634 
L 229.132027 195.99409 
L 231.629681 193.3293 
L 237.226928 187.59589 
L 239.885234 184.411649 
L 241.07735 182.664994 
L 242.118806 180.762712 
L 242.933641 178.66371 
L 243.408904 176.358701 
L 243.439635 174.057807 
L 243.092932 171.957817 
L 242.468447 170.013046 
L 241.633644 168.221696 
L 240.639733 166.562701 
L 239.522702 165.010044 
L 237.017735 162.133342 
L 234.278322 159.455039 
L 224.927009 150.851986 
L 222.952416 148.614488 
L 212.367434 133.961866 
L 210.600219 131.155338 
L 209.214878 128.561349 
L 208.294842 126.302501 
L 207.849365 124.518883 
L 207.759926 123.283787 
L 207.833023 122.745909 
L 208.059722 122.103587 
L 208.470937 121.357449 
L 209.078121 120.526101 
L 210.850444 118.690575 
L 213.245369 116.717077 
L 217.628506 113.58569 
L 222.468001 110.203504 
L 225.698619 107.721226 
L 228.764859 104.945884 
L 231.320108 102.035983 
L 233.513243 99.069761 
L 236.42358 94.543887 
L 242.451953 84.556763 
L 244.182737 82.077702 
L 245.9798 79.845716 
L 247.901114 77.864044 
L 250.09588 76.013836 
L 252.512502 74.283741 
L 255.127732 72.650724 
L 259.359757 70.329086 
L 266.97043 66.55684 
L 271.691284 64.161416 
L 274.735879 62.483141 
L 274.735879 62.483141 
" style="fill:none;stroke:#ffffff;stroke-linecap:square;"/>
   </g>
   <g id="patch_3">
    <path d="M 57.6 307.584 
L 57.6 41.472 
" style="fill:none;stroke:#000000;stroke-linecap:square;stroke-linejoin:miter;stroke-width:0.8;"/>
   </g>
   <g id="patch_4">
    <path d="M 414.72 307.584 
L 414.72 41.472 
" style="fill:none;stroke:#000000;stroke-linecap:square;stroke-linejoin:miter;stroke-width:0.8;"/>
   </g>
   <g id="patch_5">
    <path d="M 57.6 307.584 
L 414.72 307.584 
" style="fill:none;stroke:#000000;stroke-linecap:square;stroke-linejoin:miter;stroke-width:0.8;"/>
   </g>
   <g id="patch_6">
    <path d="M 57.6 41.472 
L 414.72 41.472 
" style="fill:none;stroke:#000000;stroke-linecap:square;stroke-linejoin:miter;stroke-width:0.8;"/>
   </g>
  </g>
 </g>
 <defs>
  <clipPath id="p3d43da4b5a">
   <rect height="266.112" width="357.12" x="57.6" y="41.472"/>
  </clipPath>
 </defs>
</svg>
