<?xml version="1.0" encoding="utf-8" standalone="no"?>
<!DOCTYPE svg PUBLIC "-//W3C//DTD SVG 1.1//EN"
  "http://www.w3.org/Graphics/SVG/1.1/DTD/svg11.dtd">
<!-- Created with matplotlib (https://matplotlib.org/) -->
<svg height="345.6pt" version="1.1" viewBox="0 0 460.8 345.6" width="460.8pt" xmlns="http://www.w3.org/2000/svg" xmlns:xlink="http://www.w3.org/1999/xlink">
 <metadata>
  <rdf:RDF xmlns:cc="http://creativecommons.org/ns#" xmlns:dc="http://purl.org/dc/elements/1.1/" xmlns:rdf="http://www.w3.org/1999/02/22-rdf-syntax-ns#">
   <cc:Work>
    <dc:type rdf:resource="http://purl.org/dc/dcmitype/StillImage"/>
    <dc:date>2021-06-30T14:07:49.092747</dc:date>
    <dc:format>image/svg+xml</dc:format>
    <dc:creator>
     <cc:Agent>
      <dc:title>Matplotlib v3.3.3, https://matplotlib.org/</dc:title>
     </cc:Agent>
    </dc:creator>
   </cc:Work>
  </rdf:RDF>
 </metadata>
 <defs>
  <style type="text/css">*{stroke-linecap:butt;stroke-linejoin:round;}</style>
 </defs>
 <g id="figure_1">
  <g id="patch_1">
   <path d="M 0 345.6 
L 460.8 345.6 
L 460.8 0 
L 0 0 
z
" style="fill:#ffffff;"/>
  </g>
  <g id="axes_1">
   <g id="patch_2">
    <path d="M 57.6 307.584 
L 414.72 307.584 
L 414.72 41.472 
L 57.6 41.472 
z
" style="fill:#7d9051;"/>
   </g>
   <g id="matplotlib.axis_1">
    <g id="xtick_1">
     <g id="line2d_1">
      <defs>
       <path d="M 0 0 
L 0 3.5 
" id="m2773bc1328" style="stroke:#000000;stroke-width:0.8;"/>
      </defs>
      <g>
       <use style="stroke:#000000;stroke-width:0.8;" x="93.192733" xlink:href="#m2773bc1328" y="307.584"/>
      </g>
     </g>
     <g id="text_1">
      <!-- −140 -->
      <g transform="translate(79.459139 322.182437)scale(0.1 -0.1)">
       <defs>
        <path d="M 10.59375 35.5 
L 73.1875 35.5 
L 73.1875 27.203125 
L 10.59375 27.203125 
z
" id="DejaVuSans-8722"/>
        <path d="M 12.40625 8.296875 
L 28.515625 8.296875 
L 28.515625 63.921875 
L 10.984375 60.40625 
L 10.984375 69.390625 
L 28.421875 72.90625 
L 38.28125 72.90625 
L 38.28125 8.296875 
L 54.390625 8.296875 
L 54.390625 0 
L 12.40625 0 
z
" id="DejaVuSans-49"/>
        <path d="M 37.796875 64.3125 
L 12.890625 25.390625 
L 37.796875 25.390625 
z
M 35.203125 72.90625 
L 47.609375 72.90625 
L 47.609375 25.390625 
L 58.015625 25.390625 
L 58.015625 17.1875 
L 47.609375 17.1875 
L 47.609375 0 
L 37.796875 0 
L 37.796875 17.1875 
L 4.890625 17.1875 
L 4.890625 26.703125 
z
" id="DejaVuSans-52"/>
        <path d="M 31.78125 66.40625 
Q 24.171875 66.40625 20.328125 58.90625 
Q 16.5 51.421875 16.5 36.375 
Q 16.5 21.390625 20.328125 13.890625 
Q 24.171875 6.390625 31.78125 6.390625 
Q 39.453125 6.390625 43.28125 13.890625 
Q 47.125 21.390625 47.125 36.375 
Q 47.125 51.421875 43.28125 58.90625 
Q 39.453125 66.40625 31.78125 66.40625 
z
M 31.78125 74.21875 
Q 44.046875 74.21875 50.515625 64.515625 
Q 56.984375 54.828125 56.984375 36.375 
Q 56.984375 17.96875 50.515625 8.265625 
Q 44.046875 -1.421875 31.78125 -1.421875 
Q 19.53125 -1.421875 13.0625 8.265625 
Q 6.59375 17.96875 6.59375 36.375 
Q 6.59375 54.828125 13.0625 64.515625 
Q 19.53125 74.21875 31.78125 74.21875 
z
" id="DejaVuSans-48"/>
       </defs>
       <use xlink:href="#DejaVuSans-8722"/>
       <use x="83.789062" xlink:href="#DejaVuSans-49"/>
       <use x="147.412109" xlink:href="#DejaVuSans-52"/>
       <use x="211.035156" xlink:href="#DejaVuSans-48"/>
      </g>
     </g>
    </g>
    <g id="xtick_2">
     <g id="line2d_2">
      <g>
       <use style="stroke:#000000;stroke-width:0.8;" x="135.032026" xlink:href="#m2773bc1328" y="307.584"/>
      </g>
     </g>
     <g id="text_2">
      <!-- −120 -->
      <g transform="translate(121.298433 322.182437)scale(0.1 -0.1)">
       <defs>
        <path d="M 19.1875 8.296875 
L 53.609375 8.296875 
L 53.609375 0 
L 7.328125 0 
L 7.328125 8.296875 
Q 12.9375 14.109375 22.625 23.890625 
Q 32.328125 33.6875 34.8125 36.53125 
Q 39.546875 41.84375 41.421875 45.53125 
Q 43.3125 49.21875 43.3125 52.78125 
Q 43.3125 58.59375 39.234375 62.25 
Q 35.15625 65.921875 28.609375 65.921875 
Q 23.96875 65.921875 18.8125 64.3125 
Q 13.671875 62.703125 7.8125 59.421875 
L 7.8125 69.390625 
Q 13.765625 71.78125 18.9375 73 
Q 24.125 74.21875 28.421875 74.21875 
Q 39.75 74.21875 46.484375 68.546875 
Q 53.21875 62.890625 53.21875 53.421875 
Q 53.21875 48.921875 51.53125 44.890625 
Q 49.859375 40.875 45.40625 35.40625 
Q 44.1875 33.984375 37.640625 27.21875 
Q 31.109375 20.453125 19.1875 8.296875 
z
" id="DejaVuSans-50"/>
       </defs>
       <use xlink:href="#DejaVuSans-8722"/>
       <use x="83.789062" xlink:href="#DejaVuSans-49"/>
       <use x="147.412109" xlink:href="#DejaVuSans-50"/>
       <use x="211.035156" xlink:href="#DejaVuSans-48"/>
      </g>
     </g>
    </g>
    <g id="xtick_3">
     <g id="line2d_3">
      <g>
       <use style="stroke:#000000;stroke-width:0.8;" x="176.87132" xlink:href="#m2773bc1328" y="307.584"/>
      </g>
     </g>
     <g id="text_3">
      <!-- −100 -->
      <g transform="translate(163.137726 322.182437)scale(0.1 -0.1)">
       <use xlink:href="#DejaVuSans-8722"/>
       <use x="83.789062" xlink:href="#DejaVuSans-49"/>
       <use x="147.412109" xlink:href="#DejaVuSans-48"/>
       <use x="211.035156" xlink:href="#DejaVuSans-48"/>
      </g>
     </g>
    </g>
    <g id="xtick_4">
     <g id="line2d_4">
      <g>
       <use style="stroke:#000000;stroke-width:0.8;" x="218.710614" xlink:href="#m2773bc1328" y="307.584"/>
      </g>
     </g>
     <g id="text_4">
      <!-- −80 -->
      <g transform="translate(208.15827 322.182437)scale(0.1 -0.1)">
       <defs>
        <path d="M 31.78125 34.625 
Q 24.75 34.625 20.71875 30.859375 
Q 16.703125 27.09375 16.703125 20.515625 
Q 16.703125 13.921875 20.71875 10.15625 
Q 24.75 6.390625 31.78125 6.390625 
Q 38.8125 6.390625 42.859375 10.171875 
Q 46.921875 13.96875 46.921875 20.515625 
Q 46.921875 27.09375 42.890625 30.859375 
Q 38.875 34.625 31.78125 34.625 
z
M 21.921875 38.8125 
Q 15.578125 40.375 12.03125 44.71875 
Q 8.5 49.078125 8.5 55.328125 
Q 8.5 64.0625 14.71875 69.140625 
Q 20.953125 74.21875 31.78125 74.21875 
Q 42.671875 74.21875 48.875 69.140625 
Q 55.078125 64.0625 55.078125 55.328125 
Q 55.078125 49.078125 51.53125 44.71875 
Q 48 40.375 41.703125 38.8125 
Q 48.828125 37.15625 52.796875 32.3125 
Q 56.78125 27.484375 56.78125 20.515625 
Q 56.78125 9.90625 50.3125 4.234375 
Q 43.84375 -1.421875 31.78125 -1.421875 
Q 19.734375 -1.421875 13.25 4.234375 
Q 6.78125 9.90625 6.78125 20.515625 
Q 6.78125 27.484375 10.78125 32.3125 
Q 14.796875 37.15625 21.921875 38.8125 
z
M 18.3125 54.390625 
Q 18.3125 48.734375 21.84375 45.5625 
Q 25.390625 42.390625 31.78125 42.390625 
Q 38.140625 42.390625 41.71875 45.5625 
Q 45.3125 48.734375 45.3125 54.390625 
Q 45.3125 60.0625 41.71875 63.234375 
Q 38.140625 66.40625 31.78125 66.40625 
Q 25.390625 66.40625 21.84375 63.234375 
Q 18.3125 60.0625 18.3125 54.390625 
z
" id="DejaVuSans-56"/>
       </defs>
       <use xlink:href="#DejaVuSans-8722"/>
       <use x="83.789062" xlink:href="#DejaVuSans-56"/>
       <use x="147.412109" xlink:href="#DejaVuSans-48"/>
      </g>
     </g>
    </g>
    <g id="xtick_5">
     <g id="line2d_5">
      <g>
       <use style="stroke:#000000;stroke-width:0.8;" x="260.549908" xlink:href="#m2773bc1328" y="307.584"/>
      </g>
     </g>
     <g id="text_5">
      <!-- −60 -->
      <g transform="translate(249.997564 322.182437)scale(0.1 -0.1)">
       <defs>
        <path d="M 33.015625 40.375 
Q 26.375 40.375 22.484375 35.828125 
Q 18.609375 31.296875 18.609375 23.390625 
Q 18.609375 15.53125 22.484375 10.953125 
Q 26.375 6.390625 33.015625 6.390625 
Q 39.65625 6.390625 43.53125 10.953125 
Q 47.40625 15.53125 47.40625 23.390625 
Q 47.40625 31.296875 43.53125 35.828125 
Q 39.65625 40.375 33.015625 40.375 
z
M 52.59375 71.296875 
L 52.59375 62.3125 
Q 48.875 64.0625 45.09375 64.984375 
Q 41.3125 65.921875 37.59375 65.921875 
Q 27.828125 65.921875 22.671875 59.328125 
Q 17.53125 52.734375 16.796875 39.40625 
Q 19.671875 43.65625 24.015625 45.921875 
Q 28.375 48.1875 33.59375 48.1875 
Q 44.578125 48.1875 50.953125 41.515625 
Q 57.328125 34.859375 57.328125 23.390625 
Q 57.328125 12.15625 50.6875 5.359375 
Q 44.046875 -1.421875 33.015625 -1.421875 
Q 20.359375 -1.421875 13.671875 8.265625 
Q 6.984375 17.96875 6.984375 36.375 
Q 6.984375 53.65625 15.1875 63.9375 
Q 23.390625 74.21875 37.203125 74.21875 
Q 40.921875 74.21875 44.703125 73.484375 
Q 48.484375 72.75 52.59375 71.296875 
z
" id="DejaVuSans-54"/>
       </defs>
       <use xlink:href="#DejaVuSans-8722"/>
       <use x="83.789062" xlink:href="#DejaVuSans-54"/>
       <use x="147.412109" xlink:href="#DejaVuSans-48"/>
      </g>
     </g>
    </g>
    <g id="xtick_6">
     <g id="line2d_6">
      <g>
       <use style="stroke:#000000;stroke-width:0.8;" x="302.389201" xlink:href="#m2773bc1328" y="307.584"/>
      </g>
     </g>
     <g id="text_6">
      <!-- −40 -->
      <g transform="translate(291.836858 322.182437)scale(0.1 -0.1)">
       <use xlink:href="#DejaVuSans-8722"/>
       <use x="83.789062" xlink:href="#DejaVuSans-52"/>
       <use x="147.412109" xlink:href="#DejaVuSans-48"/>
      </g>
     </g>
    </g>
    <g id="xtick_7">
     <g id="line2d_7">
      <g>
       <use style="stroke:#000000;stroke-width:0.8;" x="344.228495" xlink:href="#m2773bc1328" y="307.584"/>
      </g>
     </g>
     <g id="text_7">
      <!-- −20 -->
      <g transform="translate(333.676151 322.182437)scale(0.1 -0.1)">
       <use xlink:href="#DejaVuSans-8722"/>
       <use x="83.789062" xlink:href="#DejaVuSans-50"/>
       <use x="147.412109" xlink:href="#DejaVuSans-48"/>
      </g>
     </g>
    </g>
    <g id="xtick_8">
     <g id="line2d_8">
      <g>
       <use style="stroke:#000000;stroke-width:0.8;" x="386.067789" xlink:href="#m2773bc1328" y="307.584"/>
      </g>
     </g>
     <g id="text_8">
      <!-- 0 -->
      <g transform="translate(382.886539 322.182437)scale(0.1 -0.1)">
       <use xlink:href="#DejaVuSans-48"/>
      </g>
     </g>
    </g>
   </g>
   <g id="matplotlib.axis_2">
    <g id="ytick_1">
     <g id="line2d_9">
      <defs>
       <path d="M 0 0 
L -3.5 0 
" id="m4d5046cda7" style="stroke:#000000;stroke-width:0.8;"/>
      </defs>
      <g>
       <use style="stroke:#000000;stroke-width:0.8;" x="57.6" xlink:href="#m4d5046cda7" y="295.407493"/>
      </g>
     </g>
     <g id="text_9">
      <!-- 0 -->
      <g transform="translate(44.2375 299.206712)scale(0.1 -0.1)">
       <use xlink:href="#DejaVuSans-48"/>
      </g>
     </g>
    </g>
    <g id="ytick_2">
     <g id="line2d_10">
      <g>
       <use style="stroke:#000000;stroke-width:0.8;" x="57.6" xlink:href="#m4d5046cda7" y="253.5682"/>
      </g>
     </g>
     <g id="text_10">
      <!-- 20 -->
      <g transform="translate(37.875 257.367418)scale(0.1 -0.1)">
       <use xlink:href="#DejaVuSans-50"/>
       <use x="63.623047" xlink:href="#DejaVuSans-48"/>
      </g>
     </g>
    </g>
    <g id="ytick_3">
     <g id="line2d_11">
      <g>
       <use style="stroke:#000000;stroke-width:0.8;" x="57.6" xlink:href="#m4d5046cda7" y="211.728906"/>
      </g>
     </g>
     <g id="text_11">
      <!-- 40 -->
      <g transform="translate(37.875 215.528125)scale(0.1 -0.1)">
       <use xlink:href="#DejaVuSans-52"/>
       <use x="63.623047" xlink:href="#DejaVuSans-48"/>
      </g>
     </g>
    </g>
    <g id="ytick_4">
     <g id="line2d_12">
      <g>
       <use style="stroke:#000000;stroke-width:0.8;" x="57.6" xlink:href="#m4d5046cda7" y="169.889612"/>
      </g>
     </g>
     <g id="text_12">
      <!-- 60 -->
      <g transform="translate(37.875 173.688831)scale(0.1 -0.1)">
       <use xlink:href="#DejaVuSans-54"/>
       <use x="63.623047" xlink:href="#DejaVuSans-48"/>
      </g>
     </g>
    </g>
    <g id="ytick_5">
     <g id="line2d_13">
      <g>
       <use style="stroke:#000000;stroke-width:0.8;" x="57.6" xlink:href="#m4d5046cda7" y="128.050318"/>
      </g>
     </g>
     <g id="text_13">
      <!-- 80 -->
      <g transform="translate(37.875 131.849537)scale(0.1 -0.1)">
       <use xlink:href="#DejaVuSans-56"/>
       <use x="63.623047" xlink:href="#DejaVuSans-48"/>
      </g>
     </g>
    </g>
    <g id="ytick_6">
     <g id="line2d_14">
      <g>
       <use style="stroke:#000000;stroke-width:0.8;" x="57.6" xlink:href="#m4d5046cda7" y="86.211025"/>
      </g>
     </g>
     <g id="text_14">
      <!-- 100 -->
      <g transform="translate(31.5125 90.010243)scale(0.1 -0.1)">
       <use xlink:href="#DejaVuSans-49"/>
       <use x="63.623047" xlink:href="#DejaVuSans-48"/>
       <use x="127.246094" xlink:href="#DejaVuSans-48"/>
      </g>
     </g>
    </g>
    <g id="ytick_7">
     <g id="line2d_15">
      <g>
       <use style="stroke:#000000;stroke-width:0.8;" x="57.6" xlink:href="#m4d5046cda7" y="44.371731"/>
      </g>
     </g>
     <g id="text_15">
      <!-- 120 -->
      <g transform="translate(31.5125 48.170949)scale(0.1 -0.1)">
       <use xlink:href="#DejaVuSans-49"/>
       <use x="63.623047" xlink:href="#DejaVuSans-50"/>
       <use x="127.246094" xlink:href="#DejaVuSans-48"/>
      </g>
     </g>
    </g>
   </g>
   <g id="line2d_16">
    <path clip-path="url(#pb04efdfb91)" d="M 386.067789 295.407493 
L 386.387696 273.389604 
L 387.095037 240.316768 
L 387.656356 234.480583 
L 388.513066 228.433698 
L 390.403721 216.213508 
L 391.083196 210.293043 
L 391.278931 207.435527 
L 391.349125 204.667559 
L 391.271623 202.00494 
L 391.024271 199.463475 
L 390.584915 197.058964 
L 389.931401 194.807212 
L 389.041574 192.724019 
L 387.89328 190.82519 
L 386.473847 189.113146 
L 384.799677 187.571044 
L 382.892224 186.185785 
L 380.772944 184.94427 
L 378.463291 183.833402 
L 375.984721 182.84008 
L 373.358688 181.951208 
L 367.750056 180.434415 
L 361.809035 179.178235 
L 349.616387 177.02856 
L 343.708039 175.925487 
L 338.153864 174.663874 
L 335.438852 174.046133 
L 332.625438 173.555034 
L 326.773888 172.870626 
L 320.74017 172.446374 
L 308.690068 171.721233 
L 302.9556 171.091793 
L 300.222681 170.638485 
L 297.602799 170.065405 
L 295.113573 169.35202 
L 292.772623 168.477795 
L 290.597569 167.422194 
L 288.606031 166.164685 
L 286.815628 164.684732 
L 285.281087 162.940254 
L 284.024089 160.922861 
L 283.012689 158.662549 
L 282.214938 156.189317 
L 281.598893 153.533162 
L 281.132605 150.724084 
L 280.52152 144.767148 
L 279.378339 129.298506 
L 278.960053 126.345968 
L 278.404009 123.510488 
L 277.67826 120.822066 
L 276.750861 118.310699 
L 275.589866 116.006385 
L 274.163327 113.939122 
L 272.504656 112.065399 
L 270.677701 110.315819 
L 268.696172 108.681555 
L 266.57378 107.153779 
L 264.324234 105.723663 
L 261.961245 104.382379 
L 256.949778 101.930995 
L 251.64906 99.729004 
L 246.168774 97.705783 
L 227.157192 91.012698 
L 211.661173 85.004587 
L 203.794433 82.204258 
L 198.512333 80.496158 
L 193.203391 78.957511 
L 187.870384 77.624679 
L 182.516094 76.534027 
L 177.143297 75.721916 
L 174.443121 75.466114 
L 171.725169 75.348409 
L 166.244675 75.461169 
L 160.719279 75.927959 
L 152.385196 77.002686 
L 144.048321 78.130153 
L 138.517961 78.690705 
L 133.030022 78.944108 
L 130.307417 78.914304 
L 127.601967 78.758125 
L 124.915854 78.45904 
L 119.592068 77.503744 
L 114.317808 76.186142 
L 109.08442 74.572379 
L 103.883251 72.728599 
L 96.122982 69.676341 
L 80.644701 63.358645 
L 75.466067 61.432113 
L 75.466067 61.432113 
" style="fill:none;stroke:#fea952;stroke-linecap:square;"/>
   </g>
   <g id="line2d_17">
    <path clip-path="url(#pb04efdfb91)" d="M 377.700317 295.326987 
L 378.021363 273.229813 
L 378.754277 239.643867 
L 379.362568 233.369664 
L 380.247654 227.128316 
L 382.102791 215.157276 
L 382.7349 209.7212 
L 382.984808 204.911022 
L 382.943117 202.815524 
L 382.792698 200.96756 
L 382.236159 198.094203 
L 381.881204 197.054166 
L 381.451479 196.166001 
L 380.80462 195.267895 
L 379.882535 194.341774 
L 378.662519 193.405941 
L 377.145981 192.485238 
L 375.350432 191.600716 
L 373.301851 190.766193 
L 371.029569 189.988388 
L 365.932555 188.602508 
L 360.285698 187.406267 
L 348.132717 185.263837 
L 341.96146 184.109039 
L 331.522051 181.849828 
L 326.12275 181.213113 
L 320.284351 180.801809 
L 307.900712 180.051778 
L 301.586335 179.346862 
L 298.434555 178.813059 
L 295.297465 178.10944 
L 292.186083 177.19108 
L 289.119065 176.005914 
L 286.129963 174.497614 
L 283.274717 172.614348 
L 280.532694 170.211557 
L 278.179036 167.365401 
L 276.386018 164.340598 
L 275.048863 161.23131 
L 274.063451 158.079903 
L 273.343988 154.903419 
L 272.823229 151.711673 
L 272.172707 145.331395 
L 271.093211 130.472261 
L 270.748595 127.956254 
L 270.32534 125.691352 
L 269.828528 123.720819 
L 269.277922 122.075832 
L 268.702646 120.75899 
L 267.897732 119.485597 
L 266.717049 118.108963 
L 265.353502 116.771357 
L 263.807523 115.472885 
L 262.084439 114.215427 
L 260.193514 113.000902 
L 255.958193 110.703125 
L 251.215052 108.570229 
L 246.086071 106.571204 
L 237.929416 103.714681 
L 226.760244 99.819056 
L 201.165136 90.148303 
L 196.115085 88.513281 
L 191.092454 87.054733 
L 186.103247 85.803816 
L 181.153089 84.790132 
L 176.354101 84.052476 
L 174.081076 83.826137 
L 169.323096 83.713561 
L 164.297263 83.987063 
L 159.031325 84.549863 
L 142.033976 86.774283 
L 136.012157 87.228349 
L 132.938427 87.311465 
L 129.825163 87.268255 
L 126.675971 87.07459 
L 123.590051 86.721201 
L 117.687724 85.652028 
L 111.948126 84.211456 
L 106.358432 82.483766 
L 100.903411 80.547909 
L 92.941002 77.415595 
L 75.198338 70.238635 
L 72.606559 69.296226 
L 72.606559 69.296226 
" style="fill:none;stroke:#ffffff;stroke-linecap:square;"/>
   </g>
   <g id="line2d_18">
    <path clip-path="url(#pb04efdfb91)" d="M 394.43526 295.488 
L 394.754029 273.549395 
L 395.435796 240.989669 
L 395.950144 235.591502 
L 396.778478 229.73908 
L 398.70465 217.26974 
L 399.431493 210.864886 
L 399.6441 207.647661 
L 399.713441 204.424095 
L 399.600129 201.194357 
L 399.255844 197.959389 
L 398.621167 194.726645 
L 397.626643 191.520221 
L 396.201944 188.393873 
L 394.33508 185.484378 
L 392.143074 182.958397 
L 389.716818 180.800314 
L 387.121929 178.965628 
L 384.399907 177.403302 
L 381.57615 176.066087 
L 378.667591 174.913967 
L 375.687808 173.914028 
L 369.567558 172.266322 
L 363.332373 170.950204 
L 351.100056 168.793283 
L 345.454619 167.741936 
L 340.010337 166.50455 
L 336.877755 165.802917 
L 333.728826 165.260241 
L 327.425025 164.52814 
L 321.195989 164.090939 
L 309.479423 163.390688 
L 304.324865 162.836723 
L 299.908132 162.02137 
L 298.041062 161.51296 
L 296.42618 160.949675 
L 295.065175 160.346775 
L 293.098563 159.157907 
L 292.383139 158.515107 
L 291.662161 157.505123 
L 290.976515 156.093787 
L 290.366426 154.29873 
L 289.853798 152.162906 
L 289.441981 149.736496 
L 288.870334 144.202902 
L 288.014804 131.482389 
L 287.663468 128.124751 
L 287.171511 124.735681 
L 286.482678 121.329625 
L 285.527992 117.923313 
L 284.223801 114.545565 
L 282.477085 111.253779 
L 280.428921 108.392647 
L 278.292263 106.021834 
L 276.0019 103.860281 
L 273.584822 101.890225 
L 271.063121 100.09213 
L 268.454954 98.446423 
L 265.775676 96.934481 
L 260.257049 94.244447 
L 254.606939 91.901359 
L 248.922993 89.804179 
L 230.22668 83.228142 
L 214.543375 77.148763 
L 206.423729 74.260212 
L 200.909581 72.479035 
L 195.314327 70.860288 
L 189.637522 69.445542 
L 183.879099 68.277921 
L 177.932494 67.391356 
L 174.805165 67.106091 
L 171.713349 66.980559 
L 168.660157 66.990979 
L 162.675733 67.330086 
L 156.859074 67.955721 
L 137.991567 70.33942 
L 133.121617 70.576751 
L 128.527963 70.44166 
L 126.241657 70.196879 
L 121.496412 69.35546 
L 116.687489 68.160828 
L 111.810408 66.660991 
L 106.863091 64.909289 
L 99.304962 61.937086 
L 83.620066 55.53763 
L 78.325575 53.568 
L 78.325575 53.568 
" style="fill:none;stroke:#ffffff;stroke-linecap:square;"/>
   </g>
   <g id="patch_3">
    <path d="M 57.6 307.584 
L 57.6 41.472 
" style="fill:none;stroke:#000000;stroke-linecap:square;stroke-linejoin:miter;stroke-width:0.8;"/>
   </g>
   <g id="patch_4">
    <path d="M 414.72 307.584 
L 414.72 41.472 
" style="fill:none;stroke:#000000;stroke-linecap:square;stroke-linejoin:miter;stroke-width:0.8;"/>
   </g>
   <g id="patch_5">
    <path d="M 57.6 307.584 
L 414.72 307.584 
" style="fill:none;stroke:#000000;stroke-linecap:square;stroke-linejoin:miter;stroke-width:0.8;"/>
   </g>
   <g id="patch_6">
    <path d="M 57.6 41.472 
L 414.72 41.472 
" style="fill:none;stroke:#000000;stroke-linecap:square;stroke-linejoin:miter;stroke-width:0.8;"/>
   </g>
  </g>
 </g>
 <defs>
  <clipPath id="pb04efdfb91">
   <rect height="266.112" width="357.12" x="57.6" y="41.472"/>
  </clipPath>
 </defs>
</svg>
