<?xml version="1.0" encoding="utf-8" standalone="no"?>
<!DOCTYPE svg PUBLIC "-//W3C//DTD SVG 1.1//EN"
  "http://www.w3.org/Graphics/SVG/1.1/DTD/svg11.dtd">
<!-- Created with matplotlib (https://matplotlib.org/) -->
<svg height="345.6pt" version="1.1" viewBox="0 0 460.8 345.6" width="460.8pt" xmlns="http://www.w3.org/2000/svg" xmlns:xlink="http://www.w3.org/1999/xlink">
 <metadata>
  <rdf:RDF xmlns:cc="http://creativecommons.org/ns#" xmlns:dc="http://purl.org/dc/elements/1.1/" xmlns:rdf="http://www.w3.org/1999/02/22-rdf-syntax-ns#">
   <cc:Work>
    <dc:type rdf:resource="http://purl.org/dc/dcmitype/StillImage"/>
    <dc:date>2021-05-27T18:40:30.800699</dc:date>
    <dc:format>image/svg+xml</dc:format>
    <dc:creator>
     <cc:Agent>
      <dc:title>Matplotlib v3.3.3, https://matplotlib.org/</dc:title>
     </cc:Agent>
    </dc:creator>
   </cc:Work>
  </rdf:RDF>
 </metadata>
 <defs>
  <style type="text/css">*{stroke-linecap:butt;stroke-linejoin:round;}</style>
 </defs>
 <g id="figure_1">
  <g id="patch_1">
   <path d="M 0 345.6 
L 460.8 345.6 
L 460.8 0 
L 0 0 
z
" style="fill:#ffffff;"/>
  </g>
  <g id="axes_1">
   <g id="patch_2">
    <path d="M 57.6 307.584 
L 414.72 307.584 
L 414.72 41.472 
L 57.6 41.472 
z
" style="fill:#7d9051;"/>
   </g>
   <g id="matplotlib.axis_1">
    <g id="xtick_1">
     <g id="line2d_1">
      <defs>
       <path d="M 0 0 
L 0 3.5 
" id="m61a09f4716" style="stroke:#000000;stroke-width:0.8;"/>
      </defs>
      <g>
       <use style="stroke:#000000;stroke-width:0.8;" x="78.29144" xlink:href="#m61a09f4716" y="307.584"/>
      </g>
     </g>
     <g id="text_1">
      <!-- −100 -->
      <g transform="translate(64.557846 322.182437)scale(0.1 -0.1)">
       <defs>
        <path d="M 10.59375 35.5 
L 73.1875 35.5 
L 73.1875 27.203125 
L 10.59375 27.203125 
z
" id="DejaVuSans-8722"/>
        <path d="M 12.40625 8.296875 
L 28.515625 8.296875 
L 28.515625 63.921875 
L 10.984375 60.40625 
L 10.984375 69.390625 
L 28.421875 72.90625 
L 38.28125 72.90625 
L 38.28125 8.296875 
L 54.390625 8.296875 
L 54.390625 0 
L 12.40625 0 
z
" id="DejaVuSans-49"/>
        <path d="M 31.78125 66.40625 
Q 24.171875 66.40625 20.328125 58.90625 
Q 16.5 51.421875 16.5 36.375 
Q 16.5 21.390625 20.328125 13.890625 
Q 24.171875 6.390625 31.78125 6.390625 
Q 39.453125 6.390625 43.28125 13.890625 
Q 47.125 21.390625 47.125 36.375 
Q 47.125 51.421875 43.28125 58.90625 
Q 39.453125 66.40625 31.78125 66.40625 
z
M 31.78125 74.21875 
Q 44.046875 74.21875 50.515625 64.515625 
Q 56.984375 54.828125 56.984375 36.375 
Q 56.984375 17.96875 50.515625 8.265625 
Q 44.046875 -1.421875 31.78125 -1.421875 
Q 19.53125 -1.421875 13.0625 8.265625 
Q 6.59375 17.96875 6.59375 36.375 
Q 6.59375 54.828125 13.0625 64.515625 
Q 19.53125 74.21875 31.78125 74.21875 
z
" id="DejaVuSans-48"/>
       </defs>
       <use xlink:href="#DejaVuSans-8722"/>
       <use x="83.789062" xlink:href="#DejaVuSans-49"/>
       <use x="147.412109" xlink:href="#DejaVuSans-48"/>
       <use x="211.035156" xlink:href="#DejaVuSans-48"/>
      </g>
     </g>
    </g>
    <g id="xtick_2">
     <g id="line2d_2">
      <g>
       <use style="stroke:#000000;stroke-width:0.8;" x="138.600749" xlink:href="#m61a09f4716" y="307.584"/>
      </g>
     </g>
     <g id="text_2">
      <!-- −50 -->
      <g transform="translate(128.048405 322.182437)scale(0.1 -0.1)">
       <defs>
        <path d="M 10.796875 72.90625 
L 49.515625 72.90625 
L 49.515625 64.59375 
L 19.828125 64.59375 
L 19.828125 46.734375 
Q 21.96875 47.46875 24.109375 47.828125 
Q 26.265625 48.1875 28.421875 48.1875 
Q 40.625 48.1875 47.75 41.5 
Q 54.890625 34.8125 54.890625 23.390625 
Q 54.890625 11.625 47.5625 5.09375 
Q 40.234375 -1.421875 26.90625 -1.421875 
Q 22.3125 -1.421875 17.546875 -0.640625 
Q 12.796875 0.140625 7.71875 1.703125 
L 7.71875 11.625 
Q 12.109375 9.234375 16.796875 8.0625 
Q 21.484375 6.890625 26.703125 6.890625 
Q 35.15625 6.890625 40.078125 11.328125 
Q 45.015625 15.765625 45.015625 23.390625 
Q 45.015625 31 40.078125 35.4375 
Q 35.15625 39.890625 26.703125 39.890625 
Q 22.75 39.890625 18.8125 39.015625 
Q 14.890625 38.140625 10.796875 36.28125 
z
" id="DejaVuSans-53"/>
       </defs>
       <use xlink:href="#DejaVuSans-8722"/>
       <use x="83.789062" xlink:href="#DejaVuSans-53"/>
       <use x="147.412109" xlink:href="#DejaVuSans-48"/>
      </g>
     </g>
    </g>
    <g id="xtick_3">
     <g id="line2d_3">
      <g>
       <use style="stroke:#000000;stroke-width:0.8;" x="198.910057" xlink:href="#m61a09f4716" y="307.584"/>
      </g>
     </g>
     <g id="text_3">
      <!-- 0 -->
      <g transform="translate(195.728807 322.182437)scale(0.1 -0.1)">
       <use xlink:href="#DejaVuSans-48"/>
      </g>
     </g>
    </g>
    <g id="xtick_4">
     <g id="line2d_4">
      <g>
       <use style="stroke:#000000;stroke-width:0.8;" x="259.219366" xlink:href="#m61a09f4716" y="307.584"/>
      </g>
     </g>
     <g id="text_4">
      <!-- 50 -->
      <g transform="translate(252.856866 322.182437)scale(0.1 -0.1)">
       <use xlink:href="#DejaVuSans-53"/>
       <use x="63.623047" xlink:href="#DejaVuSans-48"/>
      </g>
     </g>
    </g>
    <g id="xtick_5">
     <g id="line2d_5">
      <g>
       <use style="stroke:#000000;stroke-width:0.8;" x="319.528674" xlink:href="#m61a09f4716" y="307.584"/>
      </g>
     </g>
     <g id="text_5">
      <!-- 100 -->
      <g transform="translate(309.984924 322.182437)scale(0.1 -0.1)">
       <use xlink:href="#DejaVuSans-49"/>
       <use x="63.623047" xlink:href="#DejaVuSans-48"/>
       <use x="127.246094" xlink:href="#DejaVuSans-48"/>
      </g>
     </g>
    </g>
    <g id="xtick_6">
     <g id="line2d_6">
      <g>
       <use style="stroke:#000000;stroke-width:0.8;" x="379.837982" xlink:href="#m61a09f4716" y="307.584"/>
      </g>
     </g>
     <g id="text_6">
      <!-- 150 -->
      <g transform="translate(370.294232 322.182437)scale(0.1 -0.1)">
       <use xlink:href="#DejaVuSans-49"/>
       <use x="63.623047" xlink:href="#DejaVuSans-53"/>
       <use x="127.246094" xlink:href="#DejaVuSans-48"/>
      </g>
     </g>
    </g>
   </g>
   <g id="matplotlib.axis_2">
    <g id="ytick_1">
     <g id="line2d_7">
      <defs>
       <path d="M 0 0 
L -3.5 0 
" id="m6283d195fc" style="stroke:#000000;stroke-width:0.8;"/>
      </defs>
      <g>
       <use style="stroke:#000000;stroke-width:0.8;" x="57.6" xlink:href="#m6283d195fc" y="295.441581"/>
      </g>
     </g>
     <g id="text_7">
      <!-- 0 -->
      <g transform="translate(44.2375 299.2408)scale(0.1 -0.1)">
       <use xlink:href="#DejaVuSans-48"/>
      </g>
     </g>
    </g>
    <g id="ytick_2">
     <g id="line2d_8">
      <g>
       <use style="stroke:#000000;stroke-width:0.8;" x="57.6" xlink:href="#m6283d195fc" y="265.286927"/>
      </g>
     </g>
     <g id="text_8">
      <!-- 25 -->
      <g transform="translate(37.875 269.086146)scale(0.1 -0.1)">
       <defs>
        <path d="M 19.1875 8.296875 
L 53.609375 8.296875 
L 53.609375 0 
L 7.328125 0 
L 7.328125 8.296875 
Q 12.9375 14.109375 22.625 23.890625 
Q 32.328125 33.6875 34.8125 36.53125 
Q 39.546875 41.84375 41.421875 45.53125 
Q 43.3125 49.21875 43.3125 52.78125 
Q 43.3125 58.59375 39.234375 62.25 
Q 35.15625 65.921875 28.609375 65.921875 
Q 23.96875 65.921875 18.8125 64.3125 
Q 13.671875 62.703125 7.8125 59.421875 
L 7.8125 69.390625 
Q 13.765625 71.78125 18.9375 73 
Q 24.125 74.21875 28.421875 74.21875 
Q 39.75 74.21875 46.484375 68.546875 
Q 53.21875 62.890625 53.21875 53.421875 
Q 53.21875 48.921875 51.53125 44.890625 
Q 49.859375 40.875 45.40625 35.40625 
Q 44.1875 33.984375 37.640625 27.21875 
Q 31.109375 20.453125 19.1875 8.296875 
z
" id="DejaVuSans-50"/>
       </defs>
       <use xlink:href="#DejaVuSans-50"/>
       <use x="63.623047" xlink:href="#DejaVuSans-53"/>
      </g>
     </g>
    </g>
    <g id="ytick_3">
     <g id="line2d_9">
      <g>
       <use style="stroke:#000000;stroke-width:0.8;" x="57.6" xlink:href="#m6283d195fc" y="235.132273"/>
      </g>
     </g>
     <g id="text_9">
      <!-- 50 -->
      <g transform="translate(37.875 238.931492)scale(0.1 -0.1)">
       <use xlink:href="#DejaVuSans-53"/>
       <use x="63.623047" xlink:href="#DejaVuSans-48"/>
      </g>
     </g>
    </g>
    <g id="ytick_4">
     <g id="line2d_10">
      <g>
       <use style="stroke:#000000;stroke-width:0.8;" x="57.6" xlink:href="#m6283d195fc" y="204.977619"/>
      </g>
     </g>
     <g id="text_10">
      <!-- 75 -->
      <g transform="translate(37.875 208.776837)scale(0.1 -0.1)">
       <defs>
        <path d="M 8.203125 72.90625 
L 55.078125 72.90625 
L 55.078125 68.703125 
L 28.609375 0 
L 18.3125 0 
L 43.21875 64.59375 
L 8.203125 64.59375 
z
" id="DejaVuSans-55"/>
       </defs>
       <use xlink:href="#DejaVuSans-55"/>
       <use x="63.623047" xlink:href="#DejaVuSans-53"/>
      </g>
     </g>
    </g>
    <g id="ytick_5">
     <g id="line2d_11">
      <g>
       <use style="stroke:#000000;stroke-width:0.8;" x="57.6" xlink:href="#m6283d195fc" y="174.822964"/>
      </g>
     </g>
     <g id="text_11">
      <!-- 100 -->
      <g transform="translate(31.5125 178.622183)scale(0.1 -0.1)">
       <use xlink:href="#DejaVuSans-49"/>
       <use x="63.623047" xlink:href="#DejaVuSans-48"/>
       <use x="127.246094" xlink:href="#DejaVuSans-48"/>
      </g>
     </g>
    </g>
    <g id="ytick_6">
     <g id="line2d_12">
      <g>
       <use style="stroke:#000000;stroke-width:0.8;" x="57.6" xlink:href="#m6283d195fc" y="144.66831"/>
      </g>
     </g>
     <g id="text_12">
      <!-- 125 -->
      <g transform="translate(31.5125 148.467529)scale(0.1 -0.1)">
       <use xlink:href="#DejaVuSans-49"/>
       <use x="63.623047" xlink:href="#DejaVuSans-50"/>
       <use x="127.246094" xlink:href="#DejaVuSans-53"/>
      </g>
     </g>
    </g>
    <g id="ytick_7">
     <g id="line2d_13">
      <g>
       <use style="stroke:#000000;stroke-width:0.8;" x="57.6" xlink:href="#m6283d195fc" y="114.513656"/>
      </g>
     </g>
     <g id="text_13">
      <!-- 150 -->
      <g transform="translate(31.5125 118.312875)scale(0.1 -0.1)">
       <use xlink:href="#DejaVuSans-49"/>
       <use x="63.623047" xlink:href="#DejaVuSans-53"/>
       <use x="127.246094" xlink:href="#DejaVuSans-48"/>
      </g>
     </g>
    </g>
    <g id="ytick_8">
     <g id="line2d_14">
      <g>
       <use style="stroke:#000000;stroke-width:0.8;" x="57.6" xlink:href="#m6283d195fc" y="84.359002"/>
      </g>
     </g>
     <g id="text_14">
      <!-- 175 -->
      <g transform="translate(31.5125 88.158221)scale(0.1 -0.1)">
       <use xlink:href="#DejaVuSans-49"/>
       <use x="63.623047" xlink:href="#DejaVuSans-55"/>
       <use x="127.246094" xlink:href="#DejaVuSans-53"/>
      </g>
     </g>
    </g>
    <g id="ytick_9">
     <g id="line2d_15">
      <g>
       <use style="stroke:#000000;stroke-width:0.8;" x="57.6" xlink:href="#m6283d195fc" y="54.204348"/>
      </g>
     </g>
     <g id="text_15">
      <!-- 200 -->
      <g transform="translate(31.5125 58.003566)scale(0.1 -0.1)">
       <use xlink:href="#DejaVuSans-50"/>
       <use x="63.623047" xlink:href="#DejaVuSans-48"/>
       <use x="127.246094" xlink:href="#DejaVuSans-48"/>
      </g>
     </g>
    </g>
   </g>
   <g id="line2d_16">
    <path clip-path="url(#pd6d06bc07a)" d="M 198.910057 295.441581 
L 199.187733 277.986047 
L 199.428808 262.102724 
L 199.1695 255.666489 
L 198.845364 247.621195 
L 198.917357 242.857993 
L 199.168908 239.731395 
L 199.635118 236.656332 
L 200.356713 233.642066 
L 201.324503 230.683814 
L 202.498787 227.772846 
L 204.560953 223.477307 
L 206.865471 219.242528 
L 213.18153 208.038635 
L 215.278017 203.690455 
L 220.676571 191.770364 
L 222.196912 188.961005 
L 223.86468 186.310194 
L 225.719451 183.863072 
L 227.800796 181.66478 
L 228.969344 180.694588 
L 230.25671 179.833876 
L 231.647217 179.069196 
L 234.67495 177.774139 
L 237.927125 176.701831 
L 247.776152 173.745535 
L 250.671941 172.488358 
L 251.976685 171.748301 
L 253.165094 170.916 
L 254.221489 169.978006 
L 255.130194 168.920872 
L 255.884367 167.749271 
L 256.497264 166.482774 
L 256.983361 165.130285 
L 257.357131 163.700705 
L 257.825589 160.645883 
L 258.018429 157.389526 
L 258.040433 150.55708 
L 258.101183 147.123427 
L 258.349488 143.77311 
L 258.901143 140.577348 
L 259.326911 139.059681 
L 260.518734 136.129178 
L 262.081943 133.27204 
L 263.896065 130.470957 
L 270.482096 120.858666 
L 271.934467 118.095604 
L 272.513798 116.700472 
L 272.975147 115.293387 
L 273.303456 113.872184 
L 273.483664 112.434702 
L 273.496368 110.985114 
L 273.344323 109.529234 
L 273.045712 108.067354 
L 272.081508 105.126752 
L 270.749202 102.165639 
L 268.378714 97.690602 
L 265.998126 93.182511 
L 264.647866 90.162633 
L 263.65673 87.133885 
L 263.341286 85.616913 
L 263.170165 84.098596 
L 263.163834 81.049835 
L 263.476557 77.98156 
L 264.048512 74.897429 
L 264.819876 71.801103 
L 266.219952 67.141748 
L 269.154703 57.814807 
L 269.953486 54.716803 
L 269.953486 54.716803 
" style="fill:none;stroke:#fea952;stroke-linecap:square;"/>
   </g>
   <g id="line2d_17">
    <path clip-path="url(#pd6d06bc07a)" d="M 194.085536 295.395163 
L 194.363978 277.888318 
L 194.605766 262.230902 
L 194.351177 255.91534 
L 194.020702 247.649349 
L 194.102718 242.545873 
L 194.385496 239.101209 
L 194.919307 235.636881 
L 195.744036 232.227364 
L 196.823334 228.94668 
L 198.103692 225.782543 
L 199.535644 222.721545 
L 201.867977 218.293471 
L 209.55226 204.526234 
L 211.527383 200.260231 
L 215.634716 191.081242 
L 217.209905 187.993557 
L 218.975958 184.966165 
L 220.994127 182.050111 
L 223.327708 179.308431 
L 224.71882 177.952694 
L 226.287736 176.68371 
L 227.931807 175.60623 
L 229.625478 174.688473 
L 233.093189 173.216048 
L 236.579132 172.069221 
L 245.984908 169.265623 
L 248.291572 168.291693 
L 249.961663 167.308203 
L 251.073299 166.309405 
L 251.541431 165.647587 
L 251.956868 164.850915 
L 252.612228 162.826602 
L 253.015052 160.275883 
L 253.194414 157.305613 
L 253.215852 150.517405 
L 253.2838 146.856989 
L 253.572826 143.093654 
L 253.8527 141.187464 
L 254.255741 139.27412 
L 254.798006 137.396196 
L 255.463563 135.61658 
L 257.083582 132.279302 
L 258.952269 129.186994 
L 261.919322 124.89765 
L 265.528076 119.705643 
L 266.923889 117.349335 
L 267.929193 115.19729 
L 268.516183 113.272034 
L 268.697721 111.486259 
L 268.617189 110.494825 
L 268.085998 108.252838 
L 267.092671 105.715494 
L 265.734057 102.949939 
L 260.843742 93.553687 
L 259.466245 89.999062 
L 258.933032 88.116147 
L 258.546895 86.157262 
L 258.347699 84.246866 
L 258.353877 80.672371 
L 258.717756 77.186592 
L 259.352379 73.79086 
L 260.179549 70.479921 
L 261.628109 65.660822 
L 264.497339 56.554998 
L 265.267506 53.568 
L 265.267506 53.568 
" style="fill:none;stroke:#ffffff;stroke-linecap:square;"/>
   </g>
   <g id="line2d_18">
    <path clip-path="url(#pd6d06bc07a)" d="M 203.734578 295.488 
L 204.011487 278.083776 
L 204.25185 261.974546 
L 203.987822 255.417638 
L 203.670027 247.593041 
L 203.731995 243.170114 
L 203.952319 240.361581 
L 204.35093 237.675784 
L 204.969389 235.056767 
L 205.825673 232.420948 
L 206.893881 229.763149 
L 208.827917 225.729235 
L 211.057908 221.630337 
L 217.487086 210.215869 
L 219.681898 205.661241 
L 224.951066 194.007964 
L 226.328467 191.452673 
L 227.779816 189.129746 
L 229.32124 187.073255 
L 230.882773 185.376865 
L 231.650951 184.705466 
L 232.581613 184.061522 
L 234.899713 182.873661 
L 237.72136 181.821538 
L 242.580294 180.390441 
L 247.805435 178.845132 
L 251.320634 177.515264 
L 253.05231 176.685024 
L 254.744422 175.700237 
L 256.368525 174.523796 
L 257.880275 173.123074 
L 259.18709 171.532339 
L 260.227302 169.850954 
L 261.037661 168.114633 
L 261.6512 166.350713 
L 262.102035 164.574808 
L 262.636125 161.015883 
L 262.842444 157.473439 
L 263.12615 144.452566 
L 263.546545 141.880576 
L 264.274176 139.551774 
L 265.439308 137.105739 
L 266.978071 134.544152 
L 269.761931 130.519583 
L 272.769133 126.251715 
L 274.693544 123.212783 
L 276.390312 119.945902 
L 277.098403 118.203653 
L 277.676091 116.37934 
L 278.090729 114.472334 
L 278.308223 112.476983 
L 278.295015 110.483969 
L 278.071458 108.563644 
L 277.678355 106.719476 
L 277.151428 104.946687 
L 275.811884 101.581734 
L 274.246869 98.406297 
L 269.73065 89.793965 
L 268.73039 87.299382 
L 268.135677 85.076563 
L 267.992631 83.950326 
L 267.97379 81.427299 
L 268.235358 78.776528 
L 268.744645 76.003998 
L 269.880279 71.644625 
L 271.817845 65.518394 
L 273.812068 59.074616 
L 274.639466 55.865606 
L 274.639466 55.865606 
" style="fill:none;stroke:#ffffff;stroke-linecap:square;"/>
   </g>
   <g id="patch_3">
    <path d="M 57.6 307.584 
L 57.6 41.472 
" style="fill:none;stroke:#000000;stroke-linecap:square;stroke-linejoin:miter;stroke-width:0.8;"/>
   </g>
   <g id="patch_4">
    <path d="M 414.72 307.584 
L 414.72 41.472 
" style="fill:none;stroke:#000000;stroke-linecap:square;stroke-linejoin:miter;stroke-width:0.8;"/>
   </g>
   <g id="patch_5">
    <path d="M 57.6 307.584 
L 414.72 307.584 
" style="fill:none;stroke:#000000;stroke-linecap:square;stroke-linejoin:miter;stroke-width:0.8;"/>
   </g>
   <g id="patch_6">
    <path d="M 57.6 41.472 
L 414.72 41.472 
" style="fill:none;stroke:#000000;stroke-linecap:square;stroke-linejoin:miter;stroke-width:0.8;"/>
   </g>
  </g>
 </g>
 <defs>
  <clipPath id="pd6d06bc07a">
   <rect height="266.112" width="357.12" x="57.6" y="41.472"/>
  </clipPath>
 </defs>
</svg>
