<?xml version="1.0" encoding="utf-8" standalone="no"?>
<!DOCTYPE svg PUBLIC "-//W3C//DTD SVG 1.1//EN"
  "http://www.w3.org/Graphics/SVG/1.1/DTD/svg11.dtd">
<!-- Created with matplotlib (https://matplotlib.org/) -->
<svg height="345.6pt" version="1.1" viewBox="0 0 460.8 345.6" width="460.8pt" xmlns="http://www.w3.org/2000/svg" xmlns:xlink="http://www.w3.org/1999/xlink">
 <metadata>
  <rdf:RDF xmlns:cc="http://creativecommons.org/ns#" xmlns:dc="http://purl.org/dc/elements/1.1/" xmlns:rdf="http://www.w3.org/1999/02/22-rdf-syntax-ns#">
   <cc:Work>
    <dc:type rdf:resource="http://purl.org/dc/dcmitype/StillImage"/>
    <dc:date>2021-06-17T14:27:47.325612</dc:date>
    <dc:format>image/svg+xml</dc:format>
    <dc:creator>
     <cc:Agent>
      <dc:title>Matplotlib v3.3.3, https://matplotlib.org/</dc:title>
     </cc:Agent>
    </dc:creator>
   </cc:Work>
  </rdf:RDF>
 </metadata>
 <defs>
  <style type="text/css">*{stroke-linecap:butt;stroke-linejoin:round;}</style>
 </defs>
 <g id="figure_1">
  <g id="patch_1">
   <path d="M 0 345.6 
L 460.8 345.6 
L 460.8 0 
L 0 0 
z
" style="fill:#ffffff;"/>
  </g>
  <g id="axes_1">
   <g id="patch_2">
    <path d="M 57.6 307.584 
L 414.72 307.584 
L 414.72 41.472 
L 57.6 41.472 
z
" style="fill:#7d9051;"/>
   </g>
   <g id="matplotlib.axis_1">
    <g id="xtick_1">
     <g id="line2d_1">
      <defs>
       <path d="M 0 0 
L 0 3.5 
" id="m56f0f02466" style="stroke:#000000;stroke-width:0.8;"/>
      </defs>
      <g>
       <use style="stroke:#000000;stroke-width:0.8;" x="65.461157" xlink:href="#m56f0f02466" y="307.584"/>
      </g>
     </g>
     <g id="text_1">
      <!-- −150 -->
      <g transform="translate(51.727563 322.182437)scale(0.1 -0.1)">
       <defs>
        <path d="M 10.59375 35.5 
L 73.1875 35.5 
L 73.1875 27.203125 
L 10.59375 27.203125 
z
" id="DejaVuSans-8722"/>
        <path d="M 12.40625 8.296875 
L 28.515625 8.296875 
L 28.515625 63.921875 
L 10.984375 60.40625 
L 10.984375 69.390625 
L 28.421875 72.90625 
L 38.28125 72.90625 
L 38.28125 8.296875 
L 54.390625 8.296875 
L 54.390625 0 
L 12.40625 0 
z
" id="DejaVuSans-49"/>
        <path d="M 10.796875 72.90625 
L 49.515625 72.90625 
L 49.515625 64.59375 
L 19.828125 64.59375 
L 19.828125 46.734375 
Q 21.96875 47.46875 24.109375 47.828125 
Q 26.265625 48.1875 28.421875 48.1875 
Q 40.625 48.1875 47.75 41.5 
Q 54.890625 34.8125 54.890625 23.390625 
Q 54.890625 11.625 47.5625 5.09375 
Q 40.234375 -1.421875 26.90625 -1.421875 
Q 22.3125 -1.421875 17.546875 -0.640625 
Q 12.796875 0.140625 7.71875 1.703125 
L 7.71875 11.625 
Q 12.109375 9.234375 16.796875 8.0625 
Q 21.484375 6.890625 26.703125 6.890625 
Q 35.15625 6.890625 40.078125 11.328125 
Q 45.015625 15.765625 45.015625 23.390625 
Q 45.015625 31 40.078125 35.4375 
Q 35.15625 39.890625 26.703125 39.890625 
Q 22.75 39.890625 18.8125 39.015625 
Q 14.890625 38.140625 10.796875 36.28125 
z
" id="DejaVuSans-53"/>
        <path d="M 31.78125 66.40625 
Q 24.171875 66.40625 20.328125 58.90625 
Q 16.5 51.421875 16.5 36.375 
Q 16.5 21.390625 20.328125 13.890625 
Q 24.171875 6.390625 31.78125 6.390625 
Q 39.453125 6.390625 43.28125 13.890625 
Q 47.125 21.390625 47.125 36.375 
Q 47.125 51.421875 43.28125 58.90625 
Q 39.453125 66.40625 31.78125 66.40625 
z
M 31.78125 74.21875 
Q 44.046875 74.21875 50.515625 64.515625 
Q 56.984375 54.828125 56.984375 36.375 
Q 56.984375 17.96875 50.515625 8.265625 
Q 44.046875 -1.421875 31.78125 -1.421875 
Q 19.53125 -1.421875 13.0625 8.265625 
Q 6.59375 17.96875 6.59375 36.375 
Q 6.59375 54.828125 13.0625 64.515625 
Q 19.53125 74.21875 31.78125 74.21875 
z
" id="DejaVuSans-48"/>
       </defs>
       <use xlink:href="#DejaVuSans-8722"/>
       <use x="83.789062" xlink:href="#DejaVuSans-49"/>
       <use x="147.412109" xlink:href="#DejaVuSans-53"/>
       <use x="211.035156" xlink:href="#DejaVuSans-48"/>
      </g>
     </g>
    </g>
    <g id="xtick_2">
     <g id="line2d_2">
      <g>
       <use style="stroke:#000000;stroke-width:0.8;" x="111.249451" xlink:href="#m56f0f02466" y="307.584"/>
      </g>
     </g>
     <g id="text_2">
      <!-- −125 -->
      <g transform="translate(97.515857 322.182437)scale(0.1 -0.1)">
       <defs>
        <path d="M 19.1875 8.296875 
L 53.609375 8.296875 
L 53.609375 0 
L 7.328125 0 
L 7.328125 8.296875 
Q 12.9375 14.109375 22.625 23.890625 
Q 32.328125 33.6875 34.8125 36.53125 
Q 39.546875 41.84375 41.421875 45.53125 
Q 43.3125 49.21875 43.3125 52.78125 
Q 43.3125 58.59375 39.234375 62.25 
Q 35.15625 65.921875 28.609375 65.921875 
Q 23.96875 65.921875 18.8125 64.3125 
Q 13.671875 62.703125 7.8125 59.421875 
L 7.8125 69.390625 
Q 13.765625 71.78125 18.9375 73 
Q 24.125 74.21875 28.421875 74.21875 
Q 39.75 74.21875 46.484375 68.546875 
Q 53.21875 62.890625 53.21875 53.421875 
Q 53.21875 48.921875 51.53125 44.890625 
Q 49.859375 40.875 45.40625 35.40625 
Q 44.1875 33.984375 37.640625 27.21875 
Q 31.109375 20.453125 19.1875 8.296875 
z
" id="DejaVuSans-50"/>
       </defs>
       <use xlink:href="#DejaVuSans-8722"/>
       <use x="83.789062" xlink:href="#DejaVuSans-49"/>
       <use x="147.412109" xlink:href="#DejaVuSans-50"/>
       <use x="211.035156" xlink:href="#DejaVuSans-53"/>
      </g>
     </g>
    </g>
    <g id="xtick_3">
     <g id="line2d_3">
      <g>
       <use style="stroke:#000000;stroke-width:0.8;" x="157.037745" xlink:href="#m56f0f02466" y="307.584"/>
      </g>
     </g>
     <g id="text_3">
      <!-- −100 -->
      <g transform="translate(143.304152 322.182437)scale(0.1 -0.1)">
       <use xlink:href="#DejaVuSans-8722"/>
       <use x="83.789062" xlink:href="#DejaVuSans-49"/>
       <use x="147.412109" xlink:href="#DejaVuSans-48"/>
       <use x="211.035156" xlink:href="#DejaVuSans-48"/>
      </g>
     </g>
    </g>
    <g id="xtick_4">
     <g id="line2d_4">
      <g>
       <use style="stroke:#000000;stroke-width:0.8;" x="202.826039" xlink:href="#m56f0f02466" y="307.584"/>
      </g>
     </g>
     <g id="text_4">
      <!-- −75 -->
      <g transform="translate(192.273696 322.182437)scale(0.1 -0.1)">
       <defs>
        <path d="M 8.203125 72.90625 
L 55.078125 72.90625 
L 55.078125 68.703125 
L 28.609375 0 
L 18.3125 0 
L 43.21875 64.59375 
L 8.203125 64.59375 
z
" id="DejaVuSans-55"/>
       </defs>
       <use xlink:href="#DejaVuSans-8722"/>
       <use x="83.789062" xlink:href="#DejaVuSans-55"/>
       <use x="147.412109" xlink:href="#DejaVuSans-53"/>
      </g>
     </g>
    </g>
    <g id="xtick_5">
     <g id="line2d_5">
      <g>
       <use style="stroke:#000000;stroke-width:0.8;" x="248.614334" xlink:href="#m56f0f02466" y="307.584"/>
      </g>
     </g>
     <g id="text_5">
      <!-- −50 -->
      <g transform="translate(238.06199 322.182437)scale(0.1 -0.1)">
       <use xlink:href="#DejaVuSans-8722"/>
       <use x="83.789062" xlink:href="#DejaVuSans-53"/>
       <use x="147.412109" xlink:href="#DejaVuSans-48"/>
      </g>
     </g>
    </g>
    <g id="xtick_6">
     <g id="line2d_6">
      <g>
       <use style="stroke:#000000;stroke-width:0.8;" x="294.402628" xlink:href="#m56f0f02466" y="307.584"/>
      </g>
     </g>
     <g id="text_6">
      <!-- −25 -->
      <g transform="translate(283.850284 322.182437)scale(0.1 -0.1)">
       <use xlink:href="#DejaVuSans-8722"/>
       <use x="83.789062" xlink:href="#DejaVuSans-50"/>
       <use x="147.412109" xlink:href="#DejaVuSans-53"/>
      </g>
     </g>
    </g>
    <g id="xtick_7">
     <g id="line2d_7">
      <g>
       <use style="stroke:#000000;stroke-width:0.8;" x="340.190922" xlink:href="#m56f0f02466" y="307.584"/>
      </g>
     </g>
     <g id="text_7">
      <!-- 0 -->
      <g transform="translate(337.009672 322.182437)scale(0.1 -0.1)">
       <use xlink:href="#DejaVuSans-48"/>
      </g>
     </g>
    </g>
    <g id="xtick_8">
     <g id="line2d_8">
      <g>
       <use style="stroke:#000000;stroke-width:0.8;" x="385.979216" xlink:href="#m56f0f02466" y="307.584"/>
      </g>
     </g>
     <g id="text_8">
      <!-- 25 -->
      <g transform="translate(379.616716 322.182437)scale(0.1 -0.1)">
       <use xlink:href="#DejaVuSans-50"/>
       <use x="63.623047" xlink:href="#DejaVuSans-53"/>
      </g>
     </g>
    </g>
   </g>
   <g id="matplotlib.axis_2">
    <g id="ytick_1">
     <g id="line2d_9">
      <defs>
       <path d="M 0 0 
L -3.5 0 
" id="m2c1f52b9c6" style="stroke:#000000;stroke-width:0.8;"/>
      </defs>
      <g>
       <use style="stroke:#000000;stroke-width:0.8;" x="57.6" xlink:href="#m2c1f52b9c6" y="295.417516"/>
      </g>
     </g>
     <g id="text_9">
      <!-- 0 -->
      <g transform="translate(44.2375 299.216735)scale(0.1 -0.1)">
       <use xlink:href="#DejaVuSans-48"/>
      </g>
     </g>
    </g>
    <g id="ytick_2">
     <g id="line2d_10">
      <g>
       <use style="stroke:#000000;stroke-width:0.8;" x="57.6" xlink:href="#m2c1f52b9c6" y="258.78688"/>
      </g>
     </g>
     <g id="text_10">
      <!-- 20 -->
      <g transform="translate(37.875 262.586099)scale(0.1 -0.1)">
       <use xlink:href="#DejaVuSans-50"/>
       <use x="63.623047" xlink:href="#DejaVuSans-48"/>
      </g>
     </g>
    </g>
    <g id="ytick_3">
     <g id="line2d_11">
      <g>
       <use style="stroke:#000000;stroke-width:0.8;" x="57.6" xlink:href="#m2c1f52b9c6" y="222.156245"/>
      </g>
     </g>
     <g id="text_11">
      <!-- 40 -->
      <g transform="translate(37.875 225.955464)scale(0.1 -0.1)">
       <defs>
        <path d="M 37.796875 64.3125 
L 12.890625 25.390625 
L 37.796875 25.390625 
z
M 35.203125 72.90625 
L 47.609375 72.90625 
L 47.609375 25.390625 
L 58.015625 25.390625 
L 58.015625 17.1875 
L 47.609375 17.1875 
L 47.609375 0 
L 37.796875 0 
L 37.796875 17.1875 
L 4.890625 17.1875 
L 4.890625 26.703125 
z
" id="DejaVuSans-52"/>
       </defs>
       <use xlink:href="#DejaVuSans-52"/>
       <use x="63.623047" xlink:href="#DejaVuSans-48"/>
      </g>
     </g>
    </g>
    <g id="ytick_4">
     <g id="line2d_12">
      <g>
       <use style="stroke:#000000;stroke-width:0.8;" x="57.6" xlink:href="#m2c1f52b9c6" y="185.52561"/>
      </g>
     </g>
     <g id="text_12">
      <!-- 60 -->
      <g transform="translate(37.875 189.324828)scale(0.1 -0.1)">
       <defs>
        <path d="M 33.015625 40.375 
Q 26.375 40.375 22.484375 35.828125 
Q 18.609375 31.296875 18.609375 23.390625 
Q 18.609375 15.53125 22.484375 10.953125 
Q 26.375 6.390625 33.015625 6.390625 
Q 39.65625 6.390625 43.53125 10.953125 
Q 47.40625 15.53125 47.40625 23.390625 
Q 47.40625 31.296875 43.53125 35.828125 
Q 39.65625 40.375 33.015625 40.375 
z
M 52.59375 71.296875 
L 52.59375 62.3125 
Q 48.875 64.0625 45.09375 64.984375 
Q 41.3125 65.921875 37.59375 65.921875 
Q 27.828125 65.921875 22.671875 59.328125 
Q 17.53125 52.734375 16.796875 39.40625 
Q 19.671875 43.65625 24.015625 45.921875 
Q 28.375 48.1875 33.59375 48.1875 
Q 44.578125 48.1875 50.953125 41.515625 
Q 57.328125 34.859375 57.328125 23.390625 
Q 57.328125 12.15625 50.6875 5.359375 
Q 44.046875 -1.421875 33.015625 -1.421875 
Q 20.359375 -1.421875 13.671875 8.265625 
Q 6.984375 17.96875 6.984375 36.375 
Q 6.984375 53.65625 15.1875 63.9375 
Q 23.390625 74.21875 37.203125 74.21875 
Q 40.921875 74.21875 44.703125 73.484375 
Q 48.484375 72.75 52.59375 71.296875 
z
" id="DejaVuSans-54"/>
       </defs>
       <use xlink:href="#DejaVuSans-54"/>
       <use x="63.623047" xlink:href="#DejaVuSans-48"/>
      </g>
     </g>
    </g>
    <g id="ytick_5">
     <g id="line2d_13">
      <g>
       <use style="stroke:#000000;stroke-width:0.8;" x="57.6" xlink:href="#m2c1f52b9c6" y="148.894974"/>
      </g>
     </g>
     <g id="text_13">
      <!-- 80 -->
      <g transform="translate(37.875 152.694193)scale(0.1 -0.1)">
       <defs>
        <path d="M 31.78125 34.625 
Q 24.75 34.625 20.71875 30.859375 
Q 16.703125 27.09375 16.703125 20.515625 
Q 16.703125 13.921875 20.71875 10.15625 
Q 24.75 6.390625 31.78125 6.390625 
Q 38.8125 6.390625 42.859375 10.171875 
Q 46.921875 13.96875 46.921875 20.515625 
Q 46.921875 27.09375 42.890625 30.859375 
Q 38.875 34.625 31.78125 34.625 
z
M 21.921875 38.8125 
Q 15.578125 40.375 12.03125 44.71875 
Q 8.5 49.078125 8.5 55.328125 
Q 8.5 64.0625 14.71875 69.140625 
Q 20.953125 74.21875 31.78125 74.21875 
Q 42.671875 74.21875 48.875 69.140625 
Q 55.078125 64.0625 55.078125 55.328125 
Q 55.078125 49.078125 51.53125 44.71875 
Q 48 40.375 41.703125 38.8125 
Q 48.828125 37.15625 52.796875 32.3125 
Q 56.78125 27.484375 56.78125 20.515625 
Q 56.78125 9.90625 50.3125 4.234375 
Q 43.84375 -1.421875 31.78125 -1.421875 
Q 19.734375 -1.421875 13.25 4.234375 
Q 6.78125 9.90625 6.78125 20.515625 
Q 6.78125 27.484375 10.78125 32.3125 
Q 14.796875 37.15625 21.921875 38.8125 
z
M 18.3125 54.390625 
Q 18.3125 48.734375 21.84375 45.5625 
Q 25.390625 42.390625 31.78125 42.390625 
Q 38.140625 42.390625 41.71875 45.5625 
Q 45.3125 48.734375 45.3125 54.390625 
Q 45.3125 60.0625 41.71875 63.234375 
Q 38.140625 66.40625 31.78125 66.40625 
Q 25.390625 66.40625 21.84375 63.234375 
Q 18.3125 60.0625 18.3125 54.390625 
z
" id="DejaVuSans-56"/>
       </defs>
       <use xlink:href="#DejaVuSans-56"/>
       <use x="63.623047" xlink:href="#DejaVuSans-48"/>
      </g>
     </g>
    </g>
    <g id="ytick_6">
     <g id="line2d_14">
      <g>
       <use style="stroke:#000000;stroke-width:0.8;" x="57.6" xlink:href="#m2c1f52b9c6" y="112.264339"/>
      </g>
     </g>
     <g id="text_14">
      <!-- 100 -->
      <g transform="translate(31.5125 116.063558)scale(0.1 -0.1)">
       <use xlink:href="#DejaVuSans-49"/>
       <use x="63.623047" xlink:href="#DejaVuSans-48"/>
       <use x="127.246094" xlink:href="#DejaVuSans-48"/>
      </g>
     </g>
    </g>
    <g id="ytick_7">
     <g id="line2d_15">
      <g>
       <use style="stroke:#000000;stroke-width:0.8;" x="57.6" xlink:href="#m2c1f52b9c6" y="75.633704"/>
      </g>
     </g>
     <g id="text_15">
      <!-- 120 -->
      <g transform="translate(31.5125 79.432922)scale(0.1 -0.1)">
       <use xlink:href="#DejaVuSans-49"/>
       <use x="63.623047" xlink:href="#DejaVuSans-50"/>
       <use x="127.246094" xlink:href="#DejaVuSans-48"/>
      </g>
     </g>
    </g>
   </g>
   <g id="line2d_16">
    <path clip-path="url(#pd0efe9dbe2)" d="M 340.190922 295.417516 
L 340.471003 276.140678 
L 341.449526 230.358776 
L 341.778186 213.491675 
L 341.899949 198.940461 
L 342.456072 191.313717 
L 343.309815 181.026275 
L 343.520953 175.985125 
L 343.431919 171.103221 
L 343.238193 168.743282 
L 342.925451 166.448712 
L 342.479035 164.228027 
L 341.884287 162.089746 
L 341.12655 160.042389 
L 340.191165 158.094474 
L 339.071306 156.19377 
L 337.779034 154.289559 
L 336.328024 152.392625 
L 334.731954 150.513752 
L 333.0045 148.663725 
L 329.210145 145.093345 
L 325.054369 141.76776 
L 320.646586 138.773245 
L 316.096205 136.196075 
L 313.801732 135.090956 
L 311.512638 134.122526 
L 309.242601 133.301569 
L 307.005296 132.638871 
L 304.814401 132.145216 
L 302.683591 131.831387 
L 300.56937 131.787231 
L 298.421698 132.069844 
L 296.244438 132.640892 
L 294.04145 133.462037 
L 291.816597 134.494943 
L 289.573739 135.701275 
L 285.049458 138.480869 
L 275.954757 144.434367 
L 271.446122 146.99489 
L 269.215 148.036918 
L 267.004489 148.86901 
L 264.818452 149.452828 
L 262.660749 149.750036 
L 260.535244 149.722299 
L 258.411117 149.424104 
L 256.259824 148.943267 
L 254.088633 148.291442 
L 251.904813 147.480283 
L 249.715633 146.521444 
L 247.528363 145.426581 
L 243.188627 142.875397 
L 238.943758 139.919964 
L 234.851907 136.653519 
L 230.971227 133.169296 
L 227.359871 129.560528 
L 224.075991 125.920453 
L 222.575027 124.11781 
L 221.211838 122.252916 
L 220.009982 120.2515 
L 218.950017 118.130408 
L 218.012501 115.906486 
L 216.427041 111.21754 
L 215.09806 106.319432 
L 212.587365 96.434814 
L 211.094568 91.717845 
L 210.220756 89.474658 
L 209.23608 87.330798 
L 208.121095 85.303112 
L 206.85636 83.408444 
L 205.42243 81.663643 
L 202.11653 78.342633 
L 198.357627 75.089576 
L 194.23388 71.983914 
L 189.833444 69.105085 
L 185.244478 66.532532 
L 180.555137 64.345693 
L 178.200375 63.421743 
L 175.853578 62.624011 
L 173.525767 61.962429 
L 171.22796 61.446926 
L 168.971177 61.087432 
L 166.766438 60.893877 
L 164.624762 60.876192 
L 162.52247 61.069426 
L 160.428084 61.489072 
L 158.340928 62.115722 
L 156.260322 62.929971 
L 154.18559 63.91241 
L 152.116053 65.043634 
L 147.989857 67.67481 
L 143.87631 70.668244 
L 129.500245 81.756574 
L 125.376533 84.458907 
L 125.376533 84.458907 
" style="fill:none;stroke:#fea952;stroke-linecap:square;"/>
   </g>
   <g id="line2d_17">
    <path clip-path="url(#pd0efe9dbe2)" d="M 332.865134 295.347032 
L 333.146212 276.00078 
L 334.125713 230.174652 
L 334.452287 213.433925 
L 334.586463 198.510264 
L 335.159151 190.660205 
L 335.994162 180.634675 
L 336.194826 175.984134 
L 336.130352 171.702602 
L 335.743013 167.89257 
L 335.013627 164.632612 
L 334.522386 163.213692 
L 333.879137 161.813404 
L 333.009305 160.307683 
L 331.960078 158.740615 
L 329.377251 155.513681 
L 326.249625 152.290869 
L 322.705616 149.202838 
L 318.878767 146.363852 
L 314.909053 143.877536 
L 310.947261 141.838113 
L 307.161931 140.326023 
L 303.746914 139.393154 
L 301.52518 139.05074 
L 300.280316 139.156287 
L 298.803216 139.505642 
L 297.126415 140.106969 
L 295.286877 140.94702 
L 291.240939 143.229197 
L 284.529314 147.612359 
L 279.704424 150.728184 
L 277.174504 152.227826 
L 274.546282 153.632747 
L 271.795938 154.893367 
L 268.894802 155.947064 
L 265.818136 156.710429 
L 262.565154 157.07554 
L 259.516755 156.977285 
L 256.813079 156.573818 
L 254.153289 155.960008 
L 251.537702 155.159112 
L 248.965604 154.19096 
L 246.436347 153.072659 
L 243.949904 151.819293 
L 241.507094 150.444503 
L 236.759952 147.380534 
L 232.217569 143.974862 
L 227.912149 140.315862 
L 223.882173 136.48844 
L 220.16967 132.57402 
L 216.660555 128.441137 
L 214.931129 126.024498 
L 213.456577 123.526407 
L 212.199226 120.976273 
L 211.122245 118.395765 
L 209.376822 113.209162 
L 207.987703 108.08436 
L 205.564591 98.521143 
L 204.268086 94.377034 
L 202.816486 90.860805 
L 202.027801 89.370531 
L 201.196382 88.059981 
L 200.126883 86.726183 
L 197.224704 83.796272 
L 193.853188 80.867306 
L 190.121284 78.046808 
L 186.138682 75.43129 
L 182.018243 73.110035 
L 177.879167 71.165615 
L 173.850753 69.671055 
L 170.075476 68.681836 
L 166.705943 68.219755 
L 165.295323 68.171566 
L 163.961776 68.252778 
L 162.534784 68.505763 
L 161.010843 68.938016 
L 159.395682 69.551274 
L 157.699433 70.340866 
L 154.107572 72.404782 
L 150.310395 75.009652 
L 146.355132 78.007998 
L 135.849242 86.206888 
L 131.343809 89.359003 
L 129.280146 90.658419 
L 129.280146 90.658419 
" style="fill:none;stroke:#ffffff;stroke-linecap:square;"/>
   </g>
   <g id="line2d_18">
    <path clip-path="url(#pd0efe9dbe2)" d="M 347.51671 295.488 
L 347.795794 276.280577 
L 348.773339 230.542901 
L 349.104086 213.549425 
L 349.213434 199.370658 
L 349.752993 191.967229 
L 350.625469 181.417874 
L 350.84708 175.986115 
L 350.733486 170.503839 
L 350.497206 167.753904 
L 350.107888 165.004853 
L 349.537224 162.264841 
L 348.754947 159.546881 
L 347.730713 156.871086 
L 346.503194 154.375544 
L 345.133307 152.079857 
L 343.597989 149.838503 
L 341.911513 147.649547 
L 340.086657 145.513823 
L 338.135356 143.434342 
L 336.069051 141.415786 
L 333.898849 139.464119 
L 331.635577 137.586283 
L 329.289752 135.789995 
L 326.871514 134.083602 
L 324.390505 132.476007 
L 321.855711 130.976664 
L 319.275265 129.595642 
L 316.656202 128.343798 
L 314.004193 127.233093 
L 311.323271 126.277116 
L 308.615657 125.491923 
L 305.881887 124.897277 
L 302.836567 124.506857 
L 299.61356 124.523721 
L 296.56308 124.983401 
L 293.68566 125.776142 
L 290.956485 126.817104 
L 288.346316 128.042867 
L 285.83073 129.403496 
L 281.021518 132.361406 
L 272.20509 138.14055 
L 268.345963 140.357033 
L 265.114175 141.790955 
L 262.756345 142.424533 
L 261.553733 142.467313 
L 260.009155 142.27439 
L 258.366358 141.926526 
L 256.639563 141.423772 
L 254.844021 140.769605 
L 251.106822 139.033869 
L 247.267646 136.789861 
L 243.426179 134.125136 
L 239.670867 131.135389 
L 236.082296 127.92057 
L 232.736206 124.583866 
L 229.70598 121.232664 
L 227.492547 118.481334 
L 226.563388 116.976593 
L 225.700809 115.284543 
L 224.902757 113.417207 
L 223.477259 109.225918 
L 222.208416 104.554504 
L 219.61014 94.348484 
L 217.92105 89.058657 
L 216.878239 86.416871 
L 215.655674 83.800791 
L 214.21439 81.235692 
L 212.516337 78.756908 
L 210.717978 76.601103 
L 207.008355 72.888994 
L 202.862067 69.311847 
L 198.346476 65.921019 
L 193.528206 62.77888 
L 188.470713 59.955029 
L 185.870453 58.685996 
L 183.231106 57.525772 
L 180.5582 56.485404 
L 177.856404 55.576967 
L 175.129489 54.813988 
L 172.380444 54.212016 
L 169.611875 53.789374 
L 166.826932 53.568 
L 163.9542 53.580818 
L 161.083164 53.886075 
L 158.321385 54.472381 
L 155.671012 55.293429 
L 153.124963 56.308667 
L 150.671747 57.483954 
L 148.298829 58.79056 
L 143.748704 61.701138 
L 139.401936 64.8672 
L 125.376501 75.701256 
L 121.47292 78.259395 
L 121.47292 78.259395 
" style="fill:none;stroke:#ffffff;stroke-linecap:square;"/>
   </g>
   <g id="patch_3">
    <path d="M 57.6 307.584 
L 57.6 41.472 
" style="fill:none;stroke:#000000;stroke-linecap:square;stroke-linejoin:miter;stroke-width:0.8;"/>
   </g>
   <g id="patch_4">
    <path d="M 414.72 307.584 
L 414.72 41.472 
" style="fill:none;stroke:#000000;stroke-linecap:square;stroke-linejoin:miter;stroke-width:0.8;"/>
   </g>
   <g id="patch_5">
    <path d="M 57.6 307.584 
L 414.72 307.584 
" style="fill:none;stroke:#000000;stroke-linecap:square;stroke-linejoin:miter;stroke-width:0.8;"/>
   </g>
   <g id="patch_6">
    <path d="M 57.6 41.472 
L 414.72 41.472 
" style="fill:none;stroke:#000000;stroke-linecap:square;stroke-linejoin:miter;stroke-width:0.8;"/>
   </g>
  </g>
 </g>
 <defs>
  <clipPath id="pd0efe9dbe2">
   <rect height="266.112" width="357.12" x="57.6" y="41.472"/>
  </clipPath>
 </defs>
</svg>
