<?xml version="1.0" encoding="utf-8" standalone="no"?>
<!DOCTYPE svg PUBLIC "-//W3C//DTD SVG 1.1//EN"
  "http://www.w3.org/Graphics/SVG/1.1/DTD/svg11.dtd">
<!-- Created with matplotlib (https://matplotlib.org/) -->
<svg height="345.6pt" version="1.1" viewBox="0 0 460.8 345.6" width="460.8pt" xmlns="http://www.w3.org/2000/svg" xmlns:xlink="http://www.w3.org/1999/xlink">
 <metadata>
  <rdf:RDF xmlns:cc="http://creativecommons.org/ns#" xmlns:dc="http://purl.org/dc/elements/1.1/" xmlns:rdf="http://www.w3.org/1999/02/22-rdf-syntax-ns#">
   <cc:Work>
    <dc:type rdf:resource="http://purl.org/dc/dcmitype/StillImage"/>
    <dc:date>2021-07-08T01:32:50.724469</dc:date>
    <dc:format>image/svg+xml</dc:format>
    <dc:creator>
     <cc:Agent>
      <dc:title>Matplotlib v3.3.3, https://matplotlib.org/</dc:title>
     </cc:Agent>
    </dc:creator>
   </cc:Work>
  </rdf:RDF>
 </metadata>
 <defs>
  <style type="text/css">*{stroke-linecap:butt;stroke-linejoin:round;}</style>
 </defs>
 <g id="figure_1">
  <g id="patch_1">
   <path d="M 0 345.6 
L 460.8 345.6 
L 460.8 0 
L 0 0 
z
" style="fill:#ffffff;"/>
  </g>
  <g id="axes_1">
   <g id="patch_2">
    <path d="M 57.6 307.584 
L 414.72 307.584 
L 414.72 41.472 
L 57.6 41.472 
z
" style="fill:#7d9051;"/>
   </g>
   <g id="matplotlib.axis_1">
    <g id="xtick_1">
     <g id="line2d_1">
      <defs>
       <path d="M 0 0 
L 0 3.5 
" id="mcf9f05cf71" style="stroke:#000000;stroke-width:0.8;"/>
      </defs>
      <g>
       <use style="stroke:#000000;stroke-width:0.8;" x="86.089348" xlink:href="#mcf9f05cf71" y="307.584"/>
      </g>
     </g>
     <g id="text_1">
      <!-- 0 -->
      <g transform="translate(82.908098 322.182437)scale(0.1 -0.1)">
       <defs>
        <path d="M 31.78125 66.40625 
Q 24.171875 66.40625 20.328125 58.90625 
Q 16.5 51.421875 16.5 36.375 
Q 16.5 21.390625 20.328125 13.890625 
Q 24.171875 6.390625 31.78125 6.390625 
Q 39.453125 6.390625 43.28125 13.890625 
Q 47.125 21.390625 47.125 36.375 
Q 47.125 51.421875 43.28125 58.90625 
Q 39.453125 66.40625 31.78125 66.40625 
z
M 31.78125 74.21875 
Q 44.046875 74.21875 50.515625 64.515625 
Q 56.984375 54.828125 56.984375 36.375 
Q 56.984375 17.96875 50.515625 8.265625 
Q 44.046875 -1.421875 31.78125 -1.421875 
Q 19.53125 -1.421875 13.0625 8.265625 
Q 6.59375 17.96875 6.59375 36.375 
Q 6.59375 54.828125 13.0625 64.515625 
Q 19.53125 74.21875 31.78125 74.21875 
z
" id="DejaVuSans-48"/>
       </defs>
       <use xlink:href="#DejaVuSans-48"/>
      </g>
     </g>
    </g>
    <g id="xtick_2">
     <g id="line2d_2">
      <g>
       <use style="stroke:#000000;stroke-width:0.8;" x="144.051493" xlink:href="#mcf9f05cf71" y="307.584"/>
      </g>
     </g>
     <g id="text_2">
      <!-- 20 -->
      <g transform="translate(137.688993 322.182437)scale(0.1 -0.1)">
       <defs>
        <path d="M 19.1875 8.296875 
L 53.609375 8.296875 
L 53.609375 0 
L 7.328125 0 
L 7.328125 8.296875 
Q 12.9375 14.109375 22.625 23.890625 
Q 32.328125 33.6875 34.8125 36.53125 
Q 39.546875 41.84375 41.421875 45.53125 
Q 43.3125 49.21875 43.3125 52.78125 
Q 43.3125 58.59375 39.234375 62.25 
Q 35.15625 65.921875 28.609375 65.921875 
Q 23.96875 65.921875 18.8125 64.3125 
Q 13.671875 62.703125 7.8125 59.421875 
L 7.8125 69.390625 
Q 13.765625 71.78125 18.9375 73 
Q 24.125 74.21875 28.421875 74.21875 
Q 39.75 74.21875 46.484375 68.546875 
Q 53.21875 62.890625 53.21875 53.421875 
Q 53.21875 48.921875 51.53125 44.890625 
Q 49.859375 40.875 45.40625 35.40625 
Q 44.1875 33.984375 37.640625 27.21875 
Q 31.109375 20.453125 19.1875 8.296875 
z
" id="DejaVuSans-50"/>
       </defs>
       <use xlink:href="#DejaVuSans-50"/>
       <use x="63.623047" xlink:href="#DejaVuSans-48"/>
      </g>
     </g>
    </g>
    <g id="xtick_3">
     <g id="line2d_3">
      <g>
       <use style="stroke:#000000;stroke-width:0.8;" x="202.013637" xlink:href="#mcf9f05cf71" y="307.584"/>
      </g>
     </g>
     <g id="text_3">
      <!-- 40 -->
      <g transform="translate(195.651137 322.182437)scale(0.1 -0.1)">
       <defs>
        <path d="M 37.796875 64.3125 
L 12.890625 25.390625 
L 37.796875 25.390625 
z
M 35.203125 72.90625 
L 47.609375 72.90625 
L 47.609375 25.390625 
L 58.015625 25.390625 
L 58.015625 17.1875 
L 47.609375 17.1875 
L 47.609375 0 
L 37.796875 0 
L 37.796875 17.1875 
L 4.890625 17.1875 
L 4.890625 26.703125 
z
" id="DejaVuSans-52"/>
       </defs>
       <use xlink:href="#DejaVuSans-52"/>
       <use x="63.623047" xlink:href="#DejaVuSans-48"/>
      </g>
     </g>
    </g>
    <g id="xtick_4">
     <g id="line2d_4">
      <g>
       <use style="stroke:#000000;stroke-width:0.8;" x="259.975782" xlink:href="#mcf9f05cf71" y="307.584"/>
      </g>
     </g>
     <g id="text_4">
      <!-- 60 -->
      <g transform="translate(253.613282 322.182437)scale(0.1 -0.1)">
       <defs>
        <path d="M 33.015625 40.375 
Q 26.375 40.375 22.484375 35.828125 
Q 18.609375 31.296875 18.609375 23.390625 
Q 18.609375 15.53125 22.484375 10.953125 
Q 26.375 6.390625 33.015625 6.390625 
Q 39.65625 6.390625 43.53125 10.953125 
Q 47.40625 15.53125 47.40625 23.390625 
Q 47.40625 31.296875 43.53125 35.828125 
Q 39.65625 40.375 33.015625 40.375 
z
M 52.59375 71.296875 
L 52.59375 62.3125 
Q 48.875 64.0625 45.09375 64.984375 
Q 41.3125 65.921875 37.59375 65.921875 
Q 27.828125 65.921875 22.671875 59.328125 
Q 17.53125 52.734375 16.796875 39.40625 
Q 19.671875 43.65625 24.015625 45.921875 
Q 28.375 48.1875 33.59375 48.1875 
Q 44.578125 48.1875 50.953125 41.515625 
Q 57.328125 34.859375 57.328125 23.390625 
Q 57.328125 12.15625 50.6875 5.359375 
Q 44.046875 -1.421875 33.015625 -1.421875 
Q 20.359375 -1.421875 13.671875 8.265625 
Q 6.984375 17.96875 6.984375 36.375 
Q 6.984375 53.65625 15.1875 63.9375 
Q 23.390625 74.21875 37.203125 74.21875 
Q 40.921875 74.21875 44.703125 73.484375 
Q 48.484375 72.75 52.59375 71.296875 
z
" id="DejaVuSans-54"/>
       </defs>
       <use xlink:href="#DejaVuSans-54"/>
       <use x="63.623047" xlink:href="#DejaVuSans-48"/>
      </g>
     </g>
    </g>
    <g id="xtick_5">
     <g id="line2d_5">
      <g>
       <use style="stroke:#000000;stroke-width:0.8;" x="317.937927" xlink:href="#mcf9f05cf71" y="307.584"/>
      </g>
     </g>
     <g id="text_5">
      <!-- 80 -->
      <g transform="translate(311.575427 322.182437)scale(0.1 -0.1)">
       <defs>
        <path d="M 31.78125 34.625 
Q 24.75 34.625 20.71875 30.859375 
Q 16.703125 27.09375 16.703125 20.515625 
Q 16.703125 13.921875 20.71875 10.15625 
Q 24.75 6.390625 31.78125 6.390625 
Q 38.8125 6.390625 42.859375 10.171875 
Q 46.921875 13.96875 46.921875 20.515625 
Q 46.921875 27.09375 42.890625 30.859375 
Q 38.875 34.625 31.78125 34.625 
z
M 21.921875 38.8125 
Q 15.578125 40.375 12.03125 44.71875 
Q 8.5 49.078125 8.5 55.328125 
Q 8.5 64.0625 14.71875 69.140625 
Q 20.953125 74.21875 31.78125 74.21875 
Q 42.671875 74.21875 48.875 69.140625 
Q 55.078125 64.0625 55.078125 55.328125 
Q 55.078125 49.078125 51.53125 44.71875 
Q 48 40.375 41.703125 38.8125 
Q 48.828125 37.15625 52.796875 32.3125 
Q 56.78125 27.484375 56.78125 20.515625 
Q 56.78125 9.90625 50.3125 4.234375 
Q 43.84375 -1.421875 31.78125 -1.421875 
Q 19.734375 -1.421875 13.25 4.234375 
Q 6.78125 9.90625 6.78125 20.515625 
Q 6.78125 27.484375 10.78125 32.3125 
Q 14.796875 37.15625 21.921875 38.8125 
z
M 18.3125 54.390625 
Q 18.3125 48.734375 21.84375 45.5625 
Q 25.390625 42.390625 31.78125 42.390625 
Q 38.140625 42.390625 41.71875 45.5625 
Q 45.3125 48.734375 45.3125 54.390625 
Q 45.3125 60.0625 41.71875 63.234375 
Q 38.140625 66.40625 31.78125 66.40625 
Q 25.390625 66.40625 21.84375 63.234375 
Q 18.3125 60.0625 18.3125 54.390625 
z
" id="DejaVuSans-56"/>
       </defs>
       <use xlink:href="#DejaVuSans-56"/>
       <use x="63.623047" xlink:href="#DejaVuSans-48"/>
      </g>
     </g>
    </g>
    <g id="xtick_6">
     <g id="line2d_6">
      <g>
       <use style="stroke:#000000;stroke-width:0.8;" x="375.900072" xlink:href="#mcf9f05cf71" y="307.584"/>
      </g>
     </g>
     <g id="text_6">
      <!-- 100 -->
      <g transform="translate(366.356322 322.182437)scale(0.1 -0.1)">
       <defs>
        <path d="M 12.40625 8.296875 
L 28.515625 8.296875 
L 28.515625 63.921875 
L 10.984375 60.40625 
L 10.984375 69.390625 
L 28.421875 72.90625 
L 38.28125 72.90625 
L 38.28125 8.296875 
L 54.390625 8.296875 
L 54.390625 0 
L 12.40625 0 
z
" id="DejaVuSans-49"/>
       </defs>
       <use xlink:href="#DejaVuSans-49"/>
       <use x="63.623047" xlink:href="#DejaVuSans-48"/>
       <use x="127.246094" xlink:href="#DejaVuSans-48"/>
      </g>
     </g>
    </g>
   </g>
   <g id="matplotlib.axis_2">
    <g id="ytick_1">
     <g id="line2d_7">
      <defs>
       <path d="M 0 0 
L -3.5 0 
" id="m9b8afec466" style="stroke:#000000;stroke-width:0.8;"/>
      </defs>
      <g>
       <use style="stroke:#000000;stroke-width:0.8;" x="57.6" xlink:href="#m9b8afec466" y="285.008101"/>
      </g>
     </g>
     <g id="text_7">
      <!-- 0 -->
      <g transform="translate(44.2375 288.807319)scale(0.1 -0.1)">
       <use xlink:href="#DejaVuSans-48"/>
      </g>
     </g>
    </g>
    <g id="ytick_2">
     <g id="line2d_8">
      <g>
       <use style="stroke:#000000;stroke-width:0.8;" x="57.6" xlink:href="#m9b8afec466" y="227.045956"/>
      </g>
     </g>
     <g id="text_8">
      <!-- 20 -->
      <g transform="translate(37.875 230.845174)scale(0.1 -0.1)">
       <use xlink:href="#DejaVuSans-50"/>
       <use x="63.623047" xlink:href="#DejaVuSans-48"/>
      </g>
     </g>
    </g>
    <g id="ytick_3">
     <g id="line2d_9">
      <g>
       <use style="stroke:#000000;stroke-width:0.8;" x="57.6" xlink:href="#m9b8afec466" y="169.083811"/>
      </g>
     </g>
     <g id="text_9">
      <!-- 40 -->
      <g transform="translate(37.875 172.883029)scale(0.1 -0.1)">
       <use xlink:href="#DejaVuSans-52"/>
       <use x="63.623047" xlink:href="#DejaVuSans-48"/>
      </g>
     </g>
    </g>
    <g id="ytick_4">
     <g id="line2d_10">
      <g>
       <use style="stroke:#000000;stroke-width:0.8;" x="57.6" xlink:href="#m9b8afec466" y="111.121666"/>
      </g>
     </g>
     <g id="text_10">
      <!-- 60 -->
      <g transform="translate(37.875 114.920884)scale(0.1 -0.1)">
       <use xlink:href="#DejaVuSans-54"/>
       <use x="63.623047" xlink:href="#DejaVuSans-48"/>
      </g>
     </g>
    </g>
    <g id="ytick_5">
     <g id="line2d_11">
      <g>
       <use style="stroke:#000000;stroke-width:0.8;" x="57.6" xlink:href="#m9b8afec466" y="53.159521"/>
      </g>
     </g>
     <g id="text_11">
      <!-- 80 -->
      <g transform="translate(37.875 56.95874)scale(0.1 -0.1)">
       <use xlink:href="#DejaVuSans-56"/>
       <use x="63.623047" xlink:href="#DejaVuSans-48"/>
      </g>
     </g>
    </g>
   </g>
   <g id="line2d_12">
    <path clip-path="url(#p8600e2d903)" d="M 86.089348 285.008101 
L 86.395188 262.130975 
L 87.302873 204.886499 
L 86.970434 197.123163 
L 85.583364 173.717705 
L 85.42415 166.00568 
L 85.633038 158.402693 
L 85.91612 154.654114 
L 86.339947 150.947225 
L 86.920758 147.286838 
L 87.674794 143.677762 
L 88.618295 140.124808 
L 90.933112 132.820577 
L 93.692712 125.150964 
L 96.88169 117.340852 
L 98.632383 113.453385 
L 100.484644 109.615124 
L 102.436549 105.854181 
L 104.48617 102.198664 
L 106.631585 98.676685 
L 108.870865 95.316354 
L 111.202088 92.145781 
L 113.623326 89.193077 
L 116.132655 86.486352 
L 118.728148 84.053716 
L 121.407882 81.92328 
L 124.16993 80.123155 
L 127.012366 78.68145 
L 130.048154 77.558562 
L 133.367434 76.690375 
L 136.934051 76.068224 
L 140.711846 75.683447 
L 144.664665 75.527381 
L 148.75635 75.591365 
L 152.950745 75.866734 
L 157.211694 76.344827 
L 161.503039 77.016981 
L 165.788625 77.874533 
L 170.032295 78.90882 
L 174.197892 80.11118 
L 178.249259 81.47295 
L 182.150241 82.985468 
L 185.864681 84.64007 
L 189.356422 86.428094 
L 192.589308 88.340878 
L 195.527182 90.369759 
L 198.133888 92.506073 
L 200.472568 94.840099 
L 202.635185 97.45232 
L 204.628814 100.31938 
L 206.460528 103.417924 
L 208.137403 106.724599 
L 209.666511 110.216048 
L 211.054928 113.868917 
L 212.309728 117.659852 
L 213.437984 121.565496 
L 214.446772 125.562496 
L 215.343165 129.627495 
L 216.827063 137.868076 
L 217.946272 146.1004 
L 218.757387 154.137626 
L 219.317002 161.792917 
L 219.350342 165.551457 
L 219.030135 169.412888 
L 218.405135 173.358991 
L 217.524095 177.371547 
L 216.435768 181.432335 
L 213.832264 189.625732 
L 208.282942 205.78966 
L 207.108689 209.677931 
L 206.117173 213.468679 
L 205.357147 217.143684 
L 204.877364 220.684726 
L 204.726578 224.073586 
L 204.95354 227.292044 
L 205.607005 230.321882 
L 206.735726 233.144879 
L 208.341597 235.855644 
L 210.368314 238.549356 
L 212.777325 241.20865 
L 215.530078 243.816159 
L 218.588022 246.354518 
L 221.912608 248.806361 
L 225.465282 251.154323 
L 229.207496 253.381038 
L 233.100696 255.469141 
L 237.106333 257.401266 
L 241.185855 259.160047 
L 245.30071 260.728118 
L 249.412349 262.088115 
L 253.48222 263.22267 
L 257.471771 264.11442 
L 261.342453 264.745998 
L 265.055713 265.100038 
L 268.573 265.159175 
L 271.855764 264.906044 
L 274.962673 264.247262 
L 277.985049 263.130783 
L 280.933318 261.601239 
L 283.817911 259.703264 
L 286.649253 257.481492 
L 289.437774 254.980556 
L 292.193901 252.24509 
L 297.650686 246.249104 
L 311.455716 230.279217 
L 314.3281 227.274323 
L 317.261942 224.436601 
L 320.26767 221.810685 
L 323.355713 219.44121 
L 326.536497 217.372808 
L 329.803277 215.53119 
L 333.138447 213.805675 
L 336.536146 212.186312 
L 343.495679 209.226234 
L 350.634981 206.571343 
L 357.907155 204.142024 
L 368.961967 200.746838 
L 383.729071 196.266365 
L 391.018832 193.866901 
L 394.619747 192.592532 
L 394.619747 192.592532 
" style="fill:none;stroke:#fea952;stroke-linecap:square;"/>
   </g>
   <g id="line2d_13">
    <path clip-path="url(#p8600e2d903)" d="M 74.497455 284.89657 
L 74.804554 261.926979 
L 75.717916 205.302665 
L 75.398308 197.808959 
L 73.996282 174.06976 
L 73.832727 165.852916 
L 73.89219 161.702958 
L 74.073523 157.529751 
L 74.398727 153.337273 
L 74.890754 149.130526 
L 75.573346 144.916048 
L 76.470686 140.702468 
L 77.534598 136.728329 
L 79.986171 129.006278 
L 82.911554 120.890561 
L 86.311661 112.580716 
L 88.192065 108.415114 
L 90.19541 104.275082 
L 92.325072 100.184749 
L 94.585933 96.167933 
L 96.984855 92.24823 
L 99.531299 88.449265 
L 102.238067 84.795221 
L 105.122116 81.311844 
L 108.205225 78.028203 
L 111.514016 74.979538 
L 115.078297 72.211393 
L 118.926112 69.784548 
L 122.990806 67.80894 
L 127.114732 66.343419 
L 131.375363 65.270389 
L 135.759413 64.53546 
L 140.25451 64.100042 
L 144.845919 63.936369 
L 149.515779 64.023838 
L 154.243344 64.346596 
L 159.005546 64.892033 
L 163.77761 65.649891 
L 168.533634 66.611792 
L 173.2471 67.771072 
L 177.891346 69.122877 
L 182.439985 70.664517 
L 186.867275 72.396133 
L 191.148387 74.321792 
L 195.259416 76.451167 
L 199.176784 78.802033 
L 202.875269 81.40371 
L 206.322805 84.300828 
L 209.402 87.447559 
L 212.152789 90.834192 
L 214.607976 94.420166 
L 216.799507 98.174841 
L 218.756104 102.074052 
L 220.502602 106.097365 
L 222.060151 110.226187 
L 223.44677 114.4426 
L 224.677953 118.728683 
L 225.767229 123.066167 
L 226.726616 127.436277 
L 228.298341 136.196497 
L 229.470881 144.848275 
L 230.313664 153.222809 
L 230.908975 161.69009 
L 230.903118 166.509462 
L 230.479843 171.226339 
L 229.727836 175.845126 
L 228.721355 180.372512 
L 227.524555 184.812158 
L 224.787141 193.417179 
L 219.380351 209.141064 
L 218.323824 212.611386 
L 217.469375 215.816422 
L 216.844611 218.700143 
L 216.458335 221.200018 
L 216.290289 223.258124 
L 216.370934 226.018134 
L 216.709413 227.236413 
L 217.604912 228.886037 
L 218.959719 230.766543 
L 220.749372 232.792541 
L 222.934265 234.896382 
L 225.468548 237.024846 
L 228.304267 239.135213 
L 231.393065 241.192104 
L 234.686703 243.165232 
L 238.137046 245.027896 
L 241.695762 246.756006 
L 245.313871 248.327508 
L 248.941133 249.722132 
L 252.525271 250.921462 
L 256.010974 251.909412 
L 259.338616 252.673297 
L 262.442741 253.205904 
L 265.250592 253.509247 
L 269.451194 253.565741 
L 270.945692 253.37306 
L 272.646623 252.840709 
L 274.56142 251.91706 
L 276.661544 250.58346 
L 278.909271 248.851481 
L 281.271587 246.752689 
L 283.724718 244.32945 
L 288.853577 238.699581 
L 303.075947 222.268981 
L 306.268648 218.941877 
L 309.635016 215.706515 
L 313.210764 212.613703 
L 317.036058 209.722857 
L 320.84366 207.27449 
L 324.47641 205.235127 
L 328.15093 203.341016 
L 331.859087 201.579261 
L 339.347016 198.401586 
L 346.886355 195.601739 
L 354.428353 193.083889 
L 365.644623 189.639199 
L 380.174795 185.232258 
L 387.151305 182.938651 
L 390.75222 181.664281 
L 390.75222 181.664281 
" style="fill:none;stroke:#ffffff;stroke-linecap:square;"/>
   </g>
   <g id="line2d_14">
    <path clip-path="url(#p8600e2d903)" d="M 97.68124 285.119631 
L 97.985822 262.334972 
L 98.962235 208.532389 
L 98.741863 200.43751 
L 98.053637 188.550738 
L 97.340819 177.074825 
L 97.057611 169.724703 
L 97.056732 162.673345 
L 97.433513 155.970954 
L 97.789139 152.763925 
L 98.268171 149.657627 
L 98.878902 146.653056 
L 99.701992 143.521287 
L 101.880054 136.634876 
L 104.47387 129.411367 
L 107.451719 122.100988 
L 110.773879 114.955167 
L 112.548025 111.523613 
L 114.386408 108.229395 
L 116.278314 105.105139 
L 118.210432 102.183442 
L 120.166109 99.496341 
L 122.124536 97.07431 
L 124.060084 94.9445 
L 125.942281 93.127894 
L 127.737467 91.635168 
L 129.413748 90.461761 
L 131.033927 89.553959 
L 132.981576 88.773706 
L 135.359506 88.11036 
L 138.108688 87.600987 
L 141.169183 87.266851 
L 144.483412 87.118393 
L 147.996921 87.158892 
L 151.658146 87.386873 
L 155.417842 87.797622 
L 159.228468 88.384071 
L 163.043616 89.137274 
L 166.817489 90.046568 
L 170.504437 91.099483 
L 174.058534 92.281384 
L 177.433208 93.574802 
L 180.580976 94.958348 
L 183.453429 96.405022 
L 186.001832 97.879723 
L 188.179095 99.335807 
L 189.944971 100.711318 
L 191.543135 102.232639 
L 193.11758 104.070447 
L 194.649651 106.218593 
L 196.121549 108.661008 
L 197.518701 111.375146 
L 198.830421 114.334732 
L 200.049705 117.511647 
L 201.172686 120.877103 
L 202.198015 124.402309 
L 203.126315 128.058824 
L 204.701487 135.654601 
L 205.927408 143.447573 
L 206.844239 151.229133 
L 207.498483 158.797921 
L 207.725029 161.895743 
L 207.797566 164.593451 
L 207.580428 167.599437 
L 207.082435 170.872857 
L 206.326836 174.370582 
L 205.34698 178.052513 
L 202.877386 185.834285 
L 197.185532 202.438256 
L 195.893553 206.744477 
L 194.76497 211.120936 
L 193.869682 215.587225 
L 193.296393 220.169433 
L 193.162866 224.889048 
L 193.621674 229.736063 
L 194.843076 234.625629 
L 196.762038 239.053344 
L 199.078283 242.82525 
L 201.77691 246.332169 
L 204.805277 249.624758 
L 208.12589 252.735935 
L 211.707497 255.684189 
L 215.520948 258.477509 
L 219.5375 261.116542 
L 223.728288 263.596844 
L 228.064347 265.910386 
L 232.516903 268.046525 
L 237.057838 269.992585 
L 241.660288 271.734104 
L 246.299427 273.254767 
L 250.953466 274.535929 
L 255.604927 275.555543 
L 260.242164 276.286092 
L 264.860833 276.690829 
L 269.464238 276.717294 
L 274.260334 276.246346 
L 278.979654 275.121464 
L 283.323475 273.420856 
L 287.305217 271.285418 
L 290.974278 268.823068 
L 294.389235 266.111502 
L 297.603961 263.208423 
L 300.663084 260.16073 
L 306.447794 253.798626 
L 319.835484 238.289453 
L 322.387552 235.606768 
L 324.888868 233.166687 
L 327.324576 231.007668 
L 329.675367 229.159562 
L 332.229333 227.471126 
L 335.130143 225.827252 
L 338.125965 224.270334 
L 344.387601 221.389286 
L 350.978193 218.770689 
L 357.854824 216.353575 
L 364.971054 214.071947 
L 391.08126 206.076111 
L 398.487273 203.520782 
L 398.487273 203.520782 
" style="fill:none;stroke:#ffffff;stroke-linecap:square;"/>
   </g>
   <g id="patch_3">
    <path d="M 57.6 307.584 
L 57.6 41.472 
" style="fill:none;stroke:#000000;stroke-linecap:square;stroke-linejoin:miter;stroke-width:0.8;"/>
   </g>
   <g id="patch_4">
    <path d="M 414.72 307.584 
L 414.72 41.472 
" style="fill:none;stroke:#000000;stroke-linecap:square;stroke-linejoin:miter;stroke-width:0.8;"/>
   </g>
   <g id="patch_5">
    <path d="M 57.6 307.584 
L 414.72 307.584 
" style="fill:none;stroke:#000000;stroke-linecap:square;stroke-linejoin:miter;stroke-width:0.8;"/>
   </g>
   <g id="patch_6">
    <path d="M 57.6 41.472 
L 414.72 41.472 
" style="fill:none;stroke:#000000;stroke-linecap:square;stroke-linejoin:miter;stroke-width:0.8;"/>
   </g>
  </g>
 </g>
 <defs>
  <clipPath id="p8600e2d903">
   <rect height="266.112" width="357.12" x="57.6" y="41.472"/>
  </clipPath>
 </defs>
</svg>
