<?xml version="1.0" encoding="utf-8" standalone="no"?>
<!DOCTYPE svg PUBLIC "-//W3C//DTD SVG 1.1//EN"
  "http://www.w3.org/Graphics/SVG/1.1/DTD/svg11.dtd">
<!-- Created with matplotlib (https://matplotlib.org/) -->
<svg height="345.6pt" version="1.1" viewBox="0 0 460.8 345.6" width="460.8pt" xmlns="http://www.w3.org/2000/svg" xmlns:xlink="http://www.w3.org/1999/xlink">
 <metadata>
  <rdf:RDF xmlns:cc="http://creativecommons.org/ns#" xmlns:dc="http://purl.org/dc/elements/1.1/" xmlns:rdf="http://www.w3.org/1999/02/22-rdf-syntax-ns#">
   <cc:Work>
    <dc:type rdf:resource="http://purl.org/dc/dcmitype/StillImage"/>
    <dc:date>2021-06-17T18:24:29.092829</dc:date>
    <dc:format>image/svg+xml</dc:format>
    <dc:creator>
     <cc:Agent>
      <dc:title>Matplotlib v3.3.3, https://matplotlib.org/</dc:title>
     </cc:Agent>
    </dc:creator>
   </cc:Work>
  </rdf:RDF>
 </metadata>
 <defs>
  <style type="text/css">*{stroke-linecap:butt;stroke-linejoin:round;}</style>
 </defs>
 <g id="figure_1">
  <g id="patch_1">
   <path d="M 0 345.6 
L 460.8 345.6 
L 460.8 0 
L 0 0 
z
" style="fill:#ffffff;"/>
  </g>
  <g id="axes_1">
   <g id="patch_2">
    <path d="M 57.6 307.584 
L 414.72 307.584 
L 414.72 41.472 
L 57.6 41.472 
z
" style="fill:#7d9051;"/>
   </g>
   <g id="matplotlib.axis_1">
    <g id="xtick_1">
     <g id="line2d_1">
      <defs>
       <path d="M 0 0 
L 0 3.5 
" id="mbe23cf9412" style="stroke:#000000;stroke-width:0.8;"/>
      </defs>
      <g>
       <use style="stroke:#000000;stroke-width:0.8;" x="83.719291" xlink:href="#mbe23cf9412" y="307.584"/>
      </g>
     </g>
     <g id="text_1">
      <!-- 0 -->
      <g transform="translate(80.538041 322.182437)scale(0.1 -0.1)">
       <defs>
        <path d="M 31.78125 66.40625 
Q 24.171875 66.40625 20.328125 58.90625 
Q 16.5 51.421875 16.5 36.375 
Q 16.5 21.390625 20.328125 13.890625 
Q 24.171875 6.390625 31.78125 6.390625 
Q 39.453125 6.390625 43.28125 13.890625 
Q 47.125 21.390625 47.125 36.375 
Q 47.125 51.421875 43.28125 58.90625 
Q 39.453125 66.40625 31.78125 66.40625 
z
M 31.78125 74.21875 
Q 44.046875 74.21875 50.515625 64.515625 
Q 56.984375 54.828125 56.984375 36.375 
Q 56.984375 17.96875 50.515625 8.265625 
Q 44.046875 -1.421875 31.78125 -1.421875 
Q 19.53125 -1.421875 13.0625 8.265625 
Q 6.59375 17.96875 6.59375 36.375 
Q 6.59375 54.828125 13.0625 64.515625 
Q 19.53125 74.21875 31.78125 74.21875 
z
" id="DejaVuSans-48"/>
       </defs>
       <use xlink:href="#DejaVuSans-48"/>
      </g>
     </g>
    </g>
    <g id="xtick_2">
     <g id="line2d_2">
      <g>
       <use style="stroke:#000000;stroke-width:0.8;" x="132.636055" xlink:href="#mbe23cf9412" y="307.584"/>
      </g>
     </g>
     <g id="text_2">
      <!-- 25 -->
      <g transform="translate(126.273555 322.182437)scale(0.1 -0.1)">
       <defs>
        <path d="M 19.1875 8.296875 
L 53.609375 8.296875 
L 53.609375 0 
L 7.328125 0 
L 7.328125 8.296875 
Q 12.9375 14.109375 22.625 23.890625 
Q 32.328125 33.6875 34.8125 36.53125 
Q 39.546875 41.84375 41.421875 45.53125 
Q 43.3125 49.21875 43.3125 52.78125 
Q 43.3125 58.59375 39.234375 62.25 
Q 35.15625 65.921875 28.609375 65.921875 
Q 23.96875 65.921875 18.8125 64.3125 
Q 13.671875 62.703125 7.8125 59.421875 
L 7.8125 69.390625 
Q 13.765625 71.78125 18.9375 73 
Q 24.125 74.21875 28.421875 74.21875 
Q 39.75 74.21875 46.484375 68.546875 
Q 53.21875 62.890625 53.21875 53.421875 
Q 53.21875 48.921875 51.53125 44.890625 
Q 49.859375 40.875 45.40625 35.40625 
Q 44.1875 33.984375 37.640625 27.21875 
Q 31.109375 20.453125 19.1875 8.296875 
z
" id="DejaVuSans-50"/>
        <path d="M 10.796875 72.90625 
L 49.515625 72.90625 
L 49.515625 64.59375 
L 19.828125 64.59375 
L 19.828125 46.734375 
Q 21.96875 47.46875 24.109375 47.828125 
Q 26.265625 48.1875 28.421875 48.1875 
Q 40.625 48.1875 47.75 41.5 
Q 54.890625 34.8125 54.890625 23.390625 
Q 54.890625 11.625 47.5625 5.09375 
Q 40.234375 -1.421875 26.90625 -1.421875 
Q 22.3125 -1.421875 17.546875 -0.640625 
Q 12.796875 0.140625 7.71875 1.703125 
L 7.71875 11.625 
Q 12.109375 9.234375 16.796875 8.0625 
Q 21.484375 6.890625 26.703125 6.890625 
Q 35.15625 6.890625 40.078125 11.328125 
Q 45.015625 15.765625 45.015625 23.390625 
Q 45.015625 31 40.078125 35.4375 
Q 35.15625 39.890625 26.703125 39.890625 
Q 22.75 39.890625 18.8125 39.015625 
Q 14.890625 38.140625 10.796875 36.28125 
z
" id="DejaVuSans-53"/>
       </defs>
       <use xlink:href="#DejaVuSans-50"/>
       <use x="63.623047" xlink:href="#DejaVuSans-53"/>
      </g>
     </g>
    </g>
    <g id="xtick_3">
     <g id="line2d_3">
      <g>
       <use style="stroke:#000000;stroke-width:0.8;" x="181.55282" xlink:href="#mbe23cf9412" y="307.584"/>
      </g>
     </g>
     <g id="text_3">
      <!-- 50 -->
      <g transform="translate(175.19032 322.182437)scale(0.1 -0.1)">
       <use xlink:href="#DejaVuSans-53"/>
       <use x="63.623047" xlink:href="#DejaVuSans-48"/>
      </g>
     </g>
    </g>
    <g id="xtick_4">
     <g id="line2d_4">
      <g>
       <use style="stroke:#000000;stroke-width:0.8;" x="230.469585" xlink:href="#mbe23cf9412" y="307.584"/>
      </g>
     </g>
     <g id="text_4">
      <!-- 75 -->
      <g transform="translate(224.107085 322.182437)scale(0.1 -0.1)">
       <defs>
        <path d="M 8.203125 72.90625 
L 55.078125 72.90625 
L 55.078125 68.703125 
L 28.609375 0 
L 18.3125 0 
L 43.21875 64.59375 
L 8.203125 64.59375 
z
" id="DejaVuSans-55"/>
       </defs>
       <use xlink:href="#DejaVuSans-55"/>
       <use x="63.623047" xlink:href="#DejaVuSans-53"/>
      </g>
     </g>
    </g>
    <g id="xtick_5">
     <g id="line2d_5">
      <g>
       <use style="stroke:#000000;stroke-width:0.8;" x="279.38635" xlink:href="#mbe23cf9412" y="307.584"/>
      </g>
     </g>
     <g id="text_5">
      <!-- 100 -->
      <g transform="translate(269.8426 322.182437)scale(0.1 -0.1)">
       <defs>
        <path d="M 12.40625 8.296875 
L 28.515625 8.296875 
L 28.515625 63.921875 
L 10.984375 60.40625 
L 10.984375 69.390625 
L 28.421875 72.90625 
L 38.28125 72.90625 
L 38.28125 8.296875 
L 54.390625 8.296875 
L 54.390625 0 
L 12.40625 0 
z
" id="DejaVuSans-49"/>
       </defs>
       <use xlink:href="#DejaVuSans-49"/>
       <use x="63.623047" xlink:href="#DejaVuSans-48"/>
       <use x="127.246094" xlink:href="#DejaVuSans-48"/>
      </g>
     </g>
    </g>
    <g id="xtick_6">
     <g id="line2d_6">
      <g>
       <use style="stroke:#000000;stroke-width:0.8;" x="328.303114" xlink:href="#mbe23cf9412" y="307.584"/>
      </g>
     </g>
     <g id="text_6">
      <!-- 125 -->
      <g transform="translate(318.759364 322.182437)scale(0.1 -0.1)">
       <use xlink:href="#DejaVuSans-49"/>
       <use x="63.623047" xlink:href="#DejaVuSans-50"/>
       <use x="127.246094" xlink:href="#DejaVuSans-53"/>
      </g>
     </g>
    </g>
    <g id="xtick_7">
     <g id="line2d_7">
      <g>
       <use style="stroke:#000000;stroke-width:0.8;" x="377.219879" xlink:href="#mbe23cf9412" y="307.584"/>
      </g>
     </g>
     <g id="text_7">
      <!-- 150 -->
      <g transform="translate(367.676129 322.182437)scale(0.1 -0.1)">
       <use xlink:href="#DejaVuSans-49"/>
       <use x="63.623047" xlink:href="#DejaVuSans-53"/>
       <use x="127.246094" xlink:href="#DejaVuSans-48"/>
      </g>
     </g>
    </g>
   </g>
   <g id="matplotlib.axis_2">
    <g id="ytick_1">
     <g id="line2d_8">
      <defs>
       <path d="M 0 0 
L -3.5 0 
" id="mf9b36b303e" style="stroke:#000000;stroke-width:0.8;"/>
      </defs>
      <g>
       <use style="stroke:#000000;stroke-width:0.8;" x="57.6" xlink:href="#mf9b36b303e" y="297.779835"/>
      </g>
     </g>
     <g id="text_8">
      <!-- −20 -->
      <g transform="translate(29.495313 301.579053)scale(0.1 -0.1)">
       <defs>
        <path d="M 10.59375 35.5 
L 73.1875 35.5 
L 73.1875 27.203125 
L 10.59375 27.203125 
z
" id="DejaVuSans-8722"/>
       </defs>
       <use xlink:href="#DejaVuSans-8722"/>
       <use x="83.789062" xlink:href="#DejaVuSans-50"/>
       <use x="147.412109" xlink:href="#DejaVuSans-48"/>
      </g>
     </g>
    </g>
    <g id="ytick_2">
     <g id="line2d_9">
      <g>
       <use style="stroke:#000000;stroke-width:0.8;" x="57.6" xlink:href="#mf9b36b303e" y="258.646423"/>
      </g>
     </g>
     <g id="text_9">
      <!-- 0 -->
      <g transform="translate(44.2375 262.445642)scale(0.1 -0.1)">
       <use xlink:href="#DejaVuSans-48"/>
      </g>
     </g>
    </g>
    <g id="ytick_3">
     <g id="line2d_10">
      <g>
       <use style="stroke:#000000;stroke-width:0.8;" x="57.6" xlink:href="#mf9b36b303e" y="219.513011"/>
      </g>
     </g>
     <g id="text_10">
      <!-- 20 -->
      <g transform="translate(37.875 223.31223)scale(0.1 -0.1)">
       <use xlink:href="#DejaVuSans-50"/>
       <use x="63.623047" xlink:href="#DejaVuSans-48"/>
      </g>
     </g>
    </g>
    <g id="ytick_4">
     <g id="line2d_11">
      <g>
       <use style="stroke:#000000;stroke-width:0.8;" x="57.6" xlink:href="#mf9b36b303e" y="180.379599"/>
      </g>
     </g>
     <g id="text_11">
      <!-- 40 -->
      <g transform="translate(37.875 184.178818)scale(0.1 -0.1)">
       <defs>
        <path d="M 37.796875 64.3125 
L 12.890625 25.390625 
L 37.796875 25.390625 
z
M 35.203125 72.90625 
L 47.609375 72.90625 
L 47.609375 25.390625 
L 58.015625 25.390625 
L 58.015625 17.1875 
L 47.609375 17.1875 
L 47.609375 0 
L 37.796875 0 
L 37.796875 17.1875 
L 4.890625 17.1875 
L 4.890625 26.703125 
z
" id="DejaVuSans-52"/>
       </defs>
       <use xlink:href="#DejaVuSans-52"/>
       <use x="63.623047" xlink:href="#DejaVuSans-48"/>
      </g>
     </g>
    </g>
    <g id="ytick_5">
     <g id="line2d_12">
      <g>
       <use style="stroke:#000000;stroke-width:0.8;" x="57.6" xlink:href="#mf9b36b303e" y="141.246187"/>
      </g>
     </g>
     <g id="text_12">
      <!-- 60 -->
      <g transform="translate(37.875 145.045406)scale(0.1 -0.1)">
       <defs>
        <path d="M 33.015625 40.375 
Q 26.375 40.375 22.484375 35.828125 
Q 18.609375 31.296875 18.609375 23.390625 
Q 18.609375 15.53125 22.484375 10.953125 
Q 26.375 6.390625 33.015625 6.390625 
Q 39.65625 6.390625 43.53125 10.953125 
Q 47.40625 15.53125 47.40625 23.390625 
Q 47.40625 31.296875 43.53125 35.828125 
Q 39.65625 40.375 33.015625 40.375 
z
M 52.59375 71.296875 
L 52.59375 62.3125 
Q 48.875 64.0625 45.09375 64.984375 
Q 41.3125 65.921875 37.59375 65.921875 
Q 27.828125 65.921875 22.671875 59.328125 
Q 17.53125 52.734375 16.796875 39.40625 
Q 19.671875 43.65625 24.015625 45.921875 
Q 28.375 48.1875 33.59375 48.1875 
Q 44.578125 48.1875 50.953125 41.515625 
Q 57.328125 34.859375 57.328125 23.390625 
Q 57.328125 12.15625 50.6875 5.359375 
Q 44.046875 -1.421875 33.015625 -1.421875 
Q 20.359375 -1.421875 13.671875 8.265625 
Q 6.984375 17.96875 6.984375 36.375 
Q 6.984375 53.65625 15.1875 63.9375 
Q 23.390625 74.21875 37.203125 74.21875 
Q 40.921875 74.21875 44.703125 73.484375 
Q 48.484375 72.75 52.59375 71.296875 
z
" id="DejaVuSans-54"/>
       </defs>
       <use xlink:href="#DejaVuSans-54"/>
       <use x="63.623047" xlink:href="#DejaVuSans-48"/>
      </g>
     </g>
    </g>
    <g id="ytick_6">
     <g id="line2d_13">
      <g>
       <use style="stroke:#000000;stroke-width:0.8;" x="57.6" xlink:href="#mf9b36b303e" y="102.112776"/>
      </g>
     </g>
     <g id="text_13">
      <!-- 80 -->
      <g transform="translate(37.875 105.911994)scale(0.1 -0.1)">
       <defs>
        <path d="M 31.78125 34.625 
Q 24.75 34.625 20.71875 30.859375 
Q 16.703125 27.09375 16.703125 20.515625 
Q 16.703125 13.921875 20.71875 10.15625 
Q 24.75 6.390625 31.78125 6.390625 
Q 38.8125 6.390625 42.859375 10.171875 
Q 46.921875 13.96875 46.921875 20.515625 
Q 46.921875 27.09375 42.890625 30.859375 
Q 38.875 34.625 31.78125 34.625 
z
M 21.921875 38.8125 
Q 15.578125 40.375 12.03125 44.71875 
Q 8.5 49.078125 8.5 55.328125 
Q 8.5 64.0625 14.71875 69.140625 
Q 20.953125 74.21875 31.78125 74.21875 
Q 42.671875 74.21875 48.875 69.140625 
Q 55.078125 64.0625 55.078125 55.328125 
Q 55.078125 49.078125 51.53125 44.71875 
Q 48 40.375 41.703125 38.8125 
Q 48.828125 37.15625 52.796875 32.3125 
Q 56.78125 27.484375 56.78125 20.515625 
Q 56.78125 9.90625 50.3125 4.234375 
Q 43.84375 -1.421875 31.78125 -1.421875 
Q 19.734375 -1.421875 13.25 4.234375 
Q 6.78125 9.90625 6.78125 20.515625 
Q 6.78125 27.484375 10.78125 32.3125 
Q 14.796875 37.15625 21.921875 38.8125 
z
M 18.3125 54.390625 
Q 18.3125 48.734375 21.84375 45.5625 
Q 25.390625 42.390625 31.78125 42.390625 
Q 38.140625 42.390625 41.71875 45.5625 
Q 45.3125 48.734375 45.3125 54.390625 
Q 45.3125 60.0625 41.71875 63.234375 
Q 38.140625 66.40625 31.78125 66.40625 
Q 25.390625 66.40625 21.84375 63.234375 
Q 18.3125 60.0625 18.3125 54.390625 
z
" id="DejaVuSans-56"/>
       </defs>
       <use xlink:href="#DejaVuSans-56"/>
       <use x="63.623047" xlink:href="#DejaVuSans-48"/>
      </g>
     </g>
    </g>
    <g id="ytick_7">
     <g id="line2d_14">
      <g>
       <use style="stroke:#000000;stroke-width:0.8;" x="57.6" xlink:href="#mf9b36b303e" y="62.979364"/>
      </g>
     </g>
     <g id="text_14">
      <!-- 100 -->
      <g transform="translate(31.5125 66.778583)scale(0.1 -0.1)">
       <use xlink:href="#DejaVuSans-49"/>
       <use x="63.623047" xlink:href="#DejaVuSans-48"/>
       <use x="127.246094" xlink:href="#DejaVuSans-48"/>
      </g>
     </g>
    </g>
   </g>
   <g id="line2d_15">
    <path clip-path="url(#p590311ad58)" d="M 83.719291 258.646423 
L 84.018508 238.052502 
L 84.556275 207.112103 
L 84.214499 201.607936 
L 83.598664 195.877854 
L 82.20256 184.282139 
L 81.75116 178.687606 
L 81.659063 176.000473 
L 81.683441 173.409355 
L 81.844848 170.931195 
L 82.163839 168.582937 
L 82.660967 166.381524 
L 83.356787 164.3439 
L 84.271854 162.487008 
L 85.426721 160.827794 
L 86.837187 159.34331 
L 88.491176 157.995628 
L 90.367437 156.779218 
L 92.444717 155.688551 
L 94.701764 154.718096 
L 97.117325 153.862325 
L 99.670147 153.115707 
L 102.338979 152.472713 
L 107.939661 151.475476 
L 113.74935 150.826377 
L 119.598027 150.481177 
L 125.315672 150.395639 
L 130.732266 150.525524 
L 133.274537 150.657427 
L 135.753394 150.935125 
L 138.236298 151.445284 
L 140.721662 152.157871 
L 143.207897 153.042854 
L 148.176632 155.209879 
L 153.129798 157.706101 
L 160.502569 161.542113 
L 165.361238 163.810196 
L 167.768854 164.767364 
L 170.159876 165.566572 
L 172.532714 166.177789 
L 174.88578 166.570982 
L 177.217487 166.716119 
L 179.526247 166.583167 
L 181.799731 166.163637 
L 184.030231 165.486518 
L 186.223094 164.577999 
L 188.383662 163.464268 
L 190.517282 162.171514 
L 192.629297 160.725926 
L 196.809892 157.481002 
L 203.052367 152.122074 
L 207.257427 148.527295 
L 211.547097 145.159215 
L 213.737023 143.625658 
L 215.964135 142.227343 
L 218.233778 140.990456 
L 220.551298 139.941188 
L 225.308055 138.208494 
L 230.190531 136.766802 
L 235.176463 135.570317 
L 240.243589 134.573246 
L 247.947822 133.351364 
L 260.87881 131.663206 
L 273.703799 130.001614 
L 278.911415 129.643175 
L 286.793192 129.366806 
L 297.273258 128.99996 
L 302.43218 128.608918 
L 307.496318 127.956009 
L 312.435141 126.948644 
L 314.848018 126.283107 
L 317.218117 125.494235 
L 319.550762 124.499371 
L 321.854618 123.247942 
L 324.130878 121.776503 
L 326.380735 120.121609 
L 330.806018 116.407668 
L 337.275764 110.374693 
L 341.490734 106.471132 
L 345.63829 103.003482 
L 347.689771 101.524508 
L 349.727979 100.264175 
L 351.754108 99.259036 
L 353.769351 98.545646 
L 355.774901 98.160558 
L 357.771953 98.140327 
L 359.749909 98.480952 
L 361.699112 99.135998 
L 363.622167 100.078367 
L 365.521677 101.280962 
L 367.400246 102.716685 
L 369.260479 104.358439 
L 371.104979 106.179127 
L 374.757199 110.248915 
L 378.377737 114.709269 
L 387.427191 126.146269 
L 391.100902 130.26647 
L 392.959729 132.120767 
L 392.959729 132.120767 
" style="fill:none;stroke:#fea952;stroke-linecap:square;"/>
   </g>
   <g id="line2d_16">
    <path clip-path="url(#p590311ad58)" d="M 75.89297 258.571123 
L 76.193253 237.903045 
L 76.738053 207.475907 
L 76.426499 202.385121 
L 75.831072 196.83779 
L 74.409594 185.007844 
L 73.92907 178.955694 
L 73.832727 175.926841 
L 73.873307 172.900667 
L 74.089394 169.877684 
L 74.529398 166.85891 
L 75.254238 163.852229 
L 76.336273 160.884226 
L 77.848035 158.015822 
L 79.752773 155.436758 
L 81.893312 153.275768 
L 84.233503 151.428346 
L 86.729081 149.84962 
L 89.353164 148.498331 
L 92.088142 147.340702 
L 94.920309 146.350329 
L 97.836941 145.506745 
L 100.824932 144.793871 
L 103.870273 144.19875 
L 110.07198 143.320189 
L 116.311448 142.800528 
L 122.447715 142.582116 
L 128.334257 142.614124 
L 134.145884 142.879399 
L 137.328624 143.2686 
L 140.393402 143.92173 
L 143.346278 144.784382 
L 146.197601 145.809692 
L 151.636715 148.189567 
L 156.771036 150.778018 
L 166.13793 155.58218 
L 170.250018 157.344373 
L 172.112212 157.987302 
L 173.822653 158.458138 
L 175.37201 158.759417 
L 176.767528 158.902381 
L 178.105954 158.886433 
L 179.526215 158.674439 
L 181.03451 158.255847 
L 182.637005 157.621209 
L 184.32788 156.770421 
L 186.096586 155.712845 
L 189.827164 153.048969 
L 193.7743 149.809926 
L 202.333062 142.443909 
L 207.057594 138.748183 
L 209.575264 136.99718 
L 212.218881 135.354932 
L 215.005658 133.860506 
L 217.748686 132.633498 
L 222.984921 130.734539 
L 228.275952 129.177906 
L 233.595897 127.904891 
L 238.922001 126.85895 
L 246.876323 125.598374 
L 259.86335 123.902678 
L 273.089724 122.199059 
L 278.567275 121.824062 
L 286.588754 121.542794 
L 296.764803 121.189811 
L 301.552586 120.831818 
L 306.092015 120.256341 
L 310.354044 119.403713 
L 314.147662 118.29498 
L 315.814954 117.621821 
L 317.605685 116.675003 
L 319.493357 115.471715 
L 321.454731 114.03955 
L 325.532347 110.624473 
L 331.917375 104.669904 
L 336.360698 100.560152 
L 338.668123 98.564903 
L 341.061237 96.65466 
L 343.573501 94.867686 
L 346.249738 93.252842 
L 349.142303 91.880999 
L 352.293502 90.85937 
L 355.695619 90.334277 
L 359.100239 90.427182 
L 362.24311 91.061997 
L 365.143185 92.107818 
L 367.808786 93.465563 
L 370.274262 95.06245 
L 372.579209 96.848525 
L 374.758707 98.788301 
L 376.840695 100.853855 
L 380.791616 105.264663 
L 384.543962 109.889038 
L 393.350915 121.030953 
L 396.628445 124.725422 
L 398.487273 126.579719 
L 398.487273 126.579719 
" style="fill:none;stroke:#ffffff;stroke-linecap:square;"/>
   </g>
   <g id="line2d_17">
    <path clip-path="url(#p590311ad58)" d="M 91.545611 258.721723 
L 91.843763 238.201958 
L 92.374498 206.748299 
L 92.002498 200.830751 
L 91.366255 194.917917 
L 89.747843 180.923059 
L 89.485399 176.074106 
L 89.600303 171.984706 
L 90.067695 168.910818 
L 90.695672 166.958195 
L 91.100669 166.21883 
L 91.781061 165.410851 
L 92.748849 164.562909 
L 94.005793 163.708815 
L 95.53627 162.87877 
L 97.315385 162.09549 
L 99.31434 161.374321 
L 101.503354 160.72467 
L 106.334863 159.656875 
L 111.586032 158.900159 
L 117.047434 158.436581 
L 122.519995 158.235314 
L 127.810196 158.258713 
L 132.40319 158.435454 
L 134.178163 158.60165 
L 136.079194 158.968837 
L 138.097045 159.53136 
L 140.218193 160.276016 
L 144.716549 162.230192 
L 149.488561 164.634185 
L 157.083604 168.582542 
L 162.469798 171.083196 
L 165.287691 172.190354 
L 168.207539 173.145842 
L 171.242774 173.89744 
L 174.39955 174.382546 
L 177.667446 174.529856 
L 180.94654 174.279902 
L 184.073246 173.652835 
L 187.025953 172.71719 
L 189.809183 171.534789 
L 192.439445 170.158115 
L 194.937977 168.630184 
L 197.326104 166.986674 
L 201.844582 163.473401 
L 208.173927 158.0404 
L 214.129315 153.029703 
L 217.898782 150.254136 
L 219.709389 149.099753 
L 221.461899 148.120407 
L 223.353909 147.248877 
L 227.631189 145.682449 
L 232.10511 144.355698 
L 236.757029 143.235744 
L 241.565178 142.287542 
L 249.019322 141.104353 
L 261.89427 139.423734 
L 274.317873 137.804169 
L 279.255556 137.462287 
L 286.99763 137.190818 
L 297.781714 136.81011 
L 303.311775 136.386017 
L 308.900622 135.655677 
L 311.707614 135.136797 
L 314.516239 134.493576 
L 317.319759 133.70924 
L 320.288572 132.693489 
L 323.286571 131.376921 
L 326.103551 129.820881 
L 328.768398 128.081292 
L 331.30674 126.203667 
L 336.079689 122.190864 
L 342.634153 116.079483 
L 346.620771 112.382112 
L 350.215343 109.352304 
L 353.20622 107.275508 
L 355.2452 106.231921 
L 356.443667 105.853473 
L 357.256708 105.899908 
L 358.25504 106.164179 
L 359.435548 106.691171 
L 360.769091 107.499473 
L 362.221283 108.584845 
L 363.76225 109.928578 
L 367.026305 113.282764 
L 370.452264 117.325287 
L 383.501739 133.56944 
L 387.432185 137.661816 
L 387.432185 137.661816 
" style="fill:none;stroke:#ffffff;stroke-linecap:square;"/>
   </g>
   <g id="patch_3">
    <path d="M 57.6 307.584 
L 57.6 41.472 
" style="fill:none;stroke:#000000;stroke-linecap:square;stroke-linejoin:miter;stroke-width:0.8;"/>
   </g>
   <g id="patch_4">
    <path d="M 414.72 307.584 
L 414.72 41.472 
" style="fill:none;stroke:#000000;stroke-linecap:square;stroke-linejoin:miter;stroke-width:0.8;"/>
   </g>
   <g id="patch_5">
    <path d="M 57.6 307.584 
L 414.72 307.584 
" style="fill:none;stroke:#000000;stroke-linecap:square;stroke-linejoin:miter;stroke-width:0.8;"/>
   </g>
   <g id="patch_6">
    <path d="M 57.6 41.472 
L 414.72 41.472 
" style="fill:none;stroke:#000000;stroke-linecap:square;stroke-linejoin:miter;stroke-width:0.8;"/>
   </g>
  </g>
 </g>
 <defs>
  <clipPath id="p590311ad58">
   <rect height="266.112" width="357.12" x="57.6" y="41.472"/>
  </clipPath>
 </defs>
</svg>
