<?xml version="1.0" encoding="utf-8" standalone="no"?>
<!DOCTYPE svg PUBLIC "-//W3C//DTD SVG 1.1//EN"
  "http://www.w3.org/Graphics/SVG/1.1/DTD/svg11.dtd">
<!-- Created with matplotlib (https://matplotlib.org/) -->
<svg height="345.6pt" version="1.1" viewBox="0 0 460.8 345.6" width="460.8pt" xmlns="http://www.w3.org/2000/svg" xmlns:xlink="http://www.w3.org/1999/xlink">
 <metadata>
  <rdf:RDF xmlns:cc="http://creativecommons.org/ns#" xmlns:dc="http://purl.org/dc/elements/1.1/" xmlns:rdf="http://www.w3.org/1999/02/22-rdf-syntax-ns#">
   <cc:Work>
    <dc:type rdf:resource="http://purl.org/dc/dcmitype/StillImage"/>
    <dc:date>2021-06-04T07:58:52.498247</dc:date>
    <dc:format>image/svg+xml</dc:format>
    <dc:creator>
     <cc:Agent>
      <dc:title>Matplotlib v3.3.3, https://matplotlib.org/</dc:title>
     </cc:Agent>
    </dc:creator>
   </cc:Work>
  </rdf:RDF>
 </metadata>
 <defs>
  <style type="text/css">*{stroke-linecap:butt;stroke-linejoin:round;}</style>
 </defs>
 <g id="figure_1">
  <g id="patch_1">
   <path d="M 0 345.6 
L 460.8 345.6 
L 460.8 0 
L 0 0 
z
" style="fill:#ffffff;"/>
  </g>
  <g id="axes_1">
   <g id="patch_2">
    <path d="M 57.6 307.584 
L 414.72 307.584 
L 414.72 41.472 
L 57.6 41.472 
z
" style="fill:#7d9051;"/>
   </g>
   <g id="matplotlib.axis_1">
    <g id="xtick_1">
     <g id="line2d_1">
      <defs>
       <path d="M 0 0 
L 0 3.5 
" id="m87ad6744a4" style="stroke:#000000;stroke-width:0.8;"/>
      </defs>
      <g>
       <use style="stroke:#000000;stroke-width:0.8;" x="86.880717" xlink:href="#m87ad6744a4" y="307.584"/>
      </g>
     </g>
     <g id="text_1">
      <!-- −125 -->
      <g transform="translate(73.147123 322.182437)scale(0.1 -0.1)">
       <defs>
        <path d="M 10.59375 35.5 
L 73.1875 35.5 
L 73.1875 27.203125 
L 10.59375 27.203125 
z
" id="DejaVuSans-8722"/>
        <path d="M 12.40625 8.296875 
L 28.515625 8.296875 
L 28.515625 63.921875 
L 10.984375 60.40625 
L 10.984375 69.390625 
L 28.421875 72.90625 
L 38.28125 72.90625 
L 38.28125 8.296875 
L 54.390625 8.296875 
L 54.390625 0 
L 12.40625 0 
z
" id="DejaVuSans-49"/>
        <path d="M 19.1875 8.296875 
L 53.609375 8.296875 
L 53.609375 0 
L 7.328125 0 
L 7.328125 8.296875 
Q 12.9375 14.109375 22.625 23.890625 
Q 32.328125 33.6875 34.8125 36.53125 
Q 39.546875 41.84375 41.421875 45.53125 
Q 43.3125 49.21875 43.3125 52.78125 
Q 43.3125 58.59375 39.234375 62.25 
Q 35.15625 65.921875 28.609375 65.921875 
Q 23.96875 65.921875 18.8125 64.3125 
Q 13.671875 62.703125 7.8125 59.421875 
L 7.8125 69.390625 
Q 13.765625 71.78125 18.9375 73 
Q 24.125 74.21875 28.421875 74.21875 
Q 39.75 74.21875 46.484375 68.546875 
Q 53.21875 62.890625 53.21875 53.421875 
Q 53.21875 48.921875 51.53125 44.890625 
Q 49.859375 40.875 45.40625 35.40625 
Q 44.1875 33.984375 37.640625 27.21875 
Q 31.109375 20.453125 19.1875 8.296875 
z
" id="DejaVuSans-50"/>
        <path d="M 10.796875 72.90625 
L 49.515625 72.90625 
L 49.515625 64.59375 
L 19.828125 64.59375 
L 19.828125 46.734375 
Q 21.96875 47.46875 24.109375 47.828125 
Q 26.265625 48.1875 28.421875 48.1875 
Q 40.625 48.1875 47.75 41.5 
Q 54.890625 34.8125 54.890625 23.390625 
Q 54.890625 11.625 47.5625 5.09375 
Q 40.234375 -1.421875 26.90625 -1.421875 
Q 22.3125 -1.421875 17.546875 -0.640625 
Q 12.796875 0.140625 7.71875 1.703125 
L 7.71875 11.625 
Q 12.109375 9.234375 16.796875 8.0625 
Q 21.484375 6.890625 26.703125 6.890625 
Q 35.15625 6.890625 40.078125 11.328125 
Q 45.015625 15.765625 45.015625 23.390625 
Q 45.015625 31 40.078125 35.4375 
Q 35.15625 39.890625 26.703125 39.890625 
Q 22.75 39.890625 18.8125 39.015625 
Q 14.890625 38.140625 10.796875 36.28125 
z
" id="DejaVuSans-53"/>
       </defs>
       <use xlink:href="#DejaVuSans-8722"/>
       <use x="83.789062" xlink:href="#DejaVuSans-49"/>
       <use x="147.412109" xlink:href="#DejaVuSans-50"/>
       <use x="211.035156" xlink:href="#DejaVuSans-53"/>
      </g>
     </g>
    </g>
    <g id="xtick_2">
     <g id="line2d_2">
      <g>
       <use style="stroke:#000000;stroke-width:0.8;" x="136.07774" xlink:href="#m87ad6744a4" y="307.584"/>
      </g>
     </g>
     <g id="text_2">
      <!-- −100 -->
      <g transform="translate(122.344146 322.182437)scale(0.1 -0.1)">
       <defs>
        <path d="M 31.78125 66.40625 
Q 24.171875 66.40625 20.328125 58.90625 
Q 16.5 51.421875 16.5 36.375 
Q 16.5 21.390625 20.328125 13.890625 
Q 24.171875 6.390625 31.78125 6.390625 
Q 39.453125 6.390625 43.28125 13.890625 
Q 47.125 21.390625 47.125 36.375 
Q 47.125 51.421875 43.28125 58.90625 
Q 39.453125 66.40625 31.78125 66.40625 
z
M 31.78125 74.21875 
Q 44.046875 74.21875 50.515625 64.515625 
Q 56.984375 54.828125 56.984375 36.375 
Q 56.984375 17.96875 50.515625 8.265625 
Q 44.046875 -1.421875 31.78125 -1.421875 
Q 19.53125 -1.421875 13.0625 8.265625 
Q 6.59375 17.96875 6.59375 36.375 
Q 6.59375 54.828125 13.0625 64.515625 
Q 19.53125 74.21875 31.78125 74.21875 
z
" id="DejaVuSans-48"/>
       </defs>
       <use xlink:href="#DejaVuSans-8722"/>
       <use x="83.789062" xlink:href="#DejaVuSans-49"/>
       <use x="147.412109" xlink:href="#DejaVuSans-48"/>
       <use x="211.035156" xlink:href="#DejaVuSans-48"/>
      </g>
     </g>
    </g>
    <g id="xtick_3">
     <g id="line2d_3">
      <g>
       <use style="stroke:#000000;stroke-width:0.8;" x="185.274763" xlink:href="#m87ad6744a4" y="307.584"/>
      </g>
     </g>
     <g id="text_3">
      <!-- −75 -->
      <g transform="translate(174.722419 322.182437)scale(0.1 -0.1)">
       <defs>
        <path d="M 8.203125 72.90625 
L 55.078125 72.90625 
L 55.078125 68.703125 
L 28.609375 0 
L 18.3125 0 
L 43.21875 64.59375 
L 8.203125 64.59375 
z
" id="DejaVuSans-55"/>
       </defs>
       <use xlink:href="#DejaVuSans-8722"/>
       <use x="83.789062" xlink:href="#DejaVuSans-55"/>
       <use x="147.412109" xlink:href="#DejaVuSans-53"/>
      </g>
     </g>
    </g>
    <g id="xtick_4">
     <g id="line2d_4">
      <g>
       <use style="stroke:#000000;stroke-width:0.8;" x="234.471787" xlink:href="#m87ad6744a4" y="307.584"/>
      </g>
     </g>
     <g id="text_4">
      <!-- −50 -->
      <g transform="translate(223.919443 322.182437)scale(0.1 -0.1)">
       <use xlink:href="#DejaVuSans-8722"/>
       <use x="83.789062" xlink:href="#DejaVuSans-53"/>
       <use x="147.412109" xlink:href="#DejaVuSans-48"/>
      </g>
     </g>
    </g>
    <g id="xtick_5">
     <g id="line2d_5">
      <g>
       <use style="stroke:#000000;stroke-width:0.8;" x="283.66881" xlink:href="#m87ad6744a4" y="307.584"/>
      </g>
     </g>
     <g id="text_5">
      <!-- −25 -->
      <g transform="translate(273.116466 322.182437)scale(0.1 -0.1)">
       <use xlink:href="#DejaVuSans-8722"/>
       <use x="83.789062" xlink:href="#DejaVuSans-50"/>
       <use x="147.412109" xlink:href="#DejaVuSans-53"/>
      </g>
     </g>
    </g>
    <g id="xtick_6">
     <g id="line2d_6">
      <g>
       <use style="stroke:#000000;stroke-width:0.8;" x="332.865833" xlink:href="#m87ad6744a4" y="307.584"/>
      </g>
     </g>
     <g id="text_6">
      <!-- 0 -->
      <g transform="translate(329.684583 322.182437)scale(0.1 -0.1)">
       <use xlink:href="#DejaVuSans-48"/>
      </g>
     </g>
    </g>
    <g id="xtick_7">
     <g id="line2d_7">
      <g>
       <use style="stroke:#000000;stroke-width:0.8;" x="382.062856" xlink:href="#m87ad6744a4" y="307.584"/>
      </g>
     </g>
     <g id="text_7">
      <!-- 25 -->
      <g transform="translate(375.700356 322.182437)scale(0.1 -0.1)">
       <use xlink:href="#DejaVuSans-50"/>
       <use x="63.623047" xlink:href="#DejaVuSans-53"/>
      </g>
     </g>
    </g>
   </g>
   <g id="matplotlib.axis_2">
    <g id="ytick_1">
     <g id="line2d_8">
      <defs>
       <path d="M 0 0 
L -3.5 0 
" id="mfe30fea774" style="stroke:#000000;stroke-width:0.8;"/>
      </defs>
      <g>
       <use style="stroke:#000000;stroke-width:0.8;" x="57.6" xlink:href="#mfe30fea774" y="295.412269"/>
      </g>
     </g>
     <g id="text_8">
      <!-- 0 -->
      <g transform="translate(44.2375 299.211487)scale(0.1 -0.1)">
       <use xlink:href="#DejaVuSans-48"/>
      </g>
     </g>
    </g>
    <g id="ytick_2">
     <g id="line2d_9">
      <g>
       <use style="stroke:#000000;stroke-width:0.8;" x="57.6" xlink:href="#mfe30fea774" y="256.05465"/>
      </g>
     </g>
     <g id="text_9">
      <!-- 20 -->
      <g transform="translate(37.875 259.853869)scale(0.1 -0.1)">
       <use xlink:href="#DejaVuSans-50"/>
       <use x="63.623047" xlink:href="#DejaVuSans-48"/>
      </g>
     </g>
    </g>
    <g id="ytick_3">
     <g id="line2d_10">
      <g>
       <use style="stroke:#000000;stroke-width:0.8;" x="57.6" xlink:href="#mfe30fea774" y="216.697031"/>
      </g>
     </g>
     <g id="text_10">
      <!-- 40 -->
      <g transform="translate(37.875 220.49625)scale(0.1 -0.1)">
       <defs>
        <path d="M 37.796875 64.3125 
L 12.890625 25.390625 
L 37.796875 25.390625 
z
M 35.203125 72.90625 
L 47.609375 72.90625 
L 47.609375 25.390625 
L 58.015625 25.390625 
L 58.015625 17.1875 
L 47.609375 17.1875 
L 47.609375 0 
L 37.796875 0 
L 37.796875 17.1875 
L 4.890625 17.1875 
L 4.890625 26.703125 
z
" id="DejaVuSans-52"/>
       </defs>
       <use xlink:href="#DejaVuSans-52"/>
       <use x="63.623047" xlink:href="#DejaVuSans-48"/>
      </g>
     </g>
    </g>
    <g id="ytick_4">
     <g id="line2d_11">
      <g>
       <use style="stroke:#000000;stroke-width:0.8;" x="57.6" xlink:href="#mfe30fea774" y="177.339413"/>
      </g>
     </g>
     <g id="text_11">
      <!-- 60 -->
      <g transform="translate(37.875 181.138631)scale(0.1 -0.1)">
       <defs>
        <path d="M 33.015625 40.375 
Q 26.375 40.375 22.484375 35.828125 
Q 18.609375 31.296875 18.609375 23.390625 
Q 18.609375 15.53125 22.484375 10.953125 
Q 26.375 6.390625 33.015625 6.390625 
Q 39.65625 6.390625 43.53125 10.953125 
Q 47.40625 15.53125 47.40625 23.390625 
Q 47.40625 31.296875 43.53125 35.828125 
Q 39.65625 40.375 33.015625 40.375 
z
M 52.59375 71.296875 
L 52.59375 62.3125 
Q 48.875 64.0625 45.09375 64.984375 
Q 41.3125 65.921875 37.59375 65.921875 
Q 27.828125 65.921875 22.671875 59.328125 
Q 17.53125 52.734375 16.796875 39.40625 
Q 19.671875 43.65625 24.015625 45.921875 
Q 28.375 48.1875 33.59375 48.1875 
Q 44.578125 48.1875 50.953125 41.515625 
Q 57.328125 34.859375 57.328125 23.390625 
Q 57.328125 12.15625 50.6875 5.359375 
Q 44.046875 -1.421875 33.015625 -1.421875 
Q 20.359375 -1.421875 13.671875 8.265625 
Q 6.984375 17.96875 6.984375 36.375 
Q 6.984375 53.65625 15.1875 63.9375 
Q 23.390625 74.21875 37.203125 74.21875 
Q 40.921875 74.21875 44.703125 73.484375 
Q 48.484375 72.75 52.59375 71.296875 
z
" id="DejaVuSans-54"/>
       </defs>
       <use xlink:href="#DejaVuSans-54"/>
       <use x="63.623047" xlink:href="#DejaVuSans-48"/>
      </g>
     </g>
    </g>
    <g id="ytick_5">
     <g id="line2d_12">
      <g>
       <use style="stroke:#000000;stroke-width:0.8;" x="57.6" xlink:href="#mfe30fea774" y="137.981794"/>
      </g>
     </g>
     <g id="text_12">
      <!-- 80 -->
      <g transform="translate(37.875 141.781013)scale(0.1 -0.1)">
       <defs>
        <path d="M 31.78125 34.625 
Q 24.75 34.625 20.71875 30.859375 
Q 16.703125 27.09375 16.703125 20.515625 
Q 16.703125 13.921875 20.71875 10.15625 
Q 24.75 6.390625 31.78125 6.390625 
Q 38.8125 6.390625 42.859375 10.171875 
Q 46.921875 13.96875 46.921875 20.515625 
Q 46.921875 27.09375 42.890625 30.859375 
Q 38.875 34.625 31.78125 34.625 
z
M 21.921875 38.8125 
Q 15.578125 40.375 12.03125 44.71875 
Q 8.5 49.078125 8.5 55.328125 
Q 8.5 64.0625 14.71875 69.140625 
Q 20.953125 74.21875 31.78125 74.21875 
Q 42.671875 74.21875 48.875 69.140625 
Q 55.078125 64.0625 55.078125 55.328125 
Q 55.078125 49.078125 51.53125 44.71875 
Q 48 40.375 41.703125 38.8125 
Q 48.828125 37.15625 52.796875 32.3125 
Q 56.78125 27.484375 56.78125 20.515625 
Q 56.78125 9.90625 50.3125 4.234375 
Q 43.84375 -1.421875 31.78125 -1.421875 
Q 19.734375 -1.421875 13.25 4.234375 
Q 6.78125 9.90625 6.78125 20.515625 
Q 6.78125 27.484375 10.78125 32.3125 
Q 14.796875 37.15625 21.921875 38.8125 
z
M 18.3125 54.390625 
Q 18.3125 48.734375 21.84375 45.5625 
Q 25.390625 42.390625 31.78125 42.390625 
Q 38.140625 42.390625 41.71875 45.5625 
Q 45.3125 48.734375 45.3125 54.390625 
Q 45.3125 60.0625 41.71875 63.234375 
Q 38.140625 66.40625 31.78125 66.40625 
Q 25.390625 66.40625 21.84375 63.234375 
Q 18.3125 60.0625 18.3125 54.390625 
z
" id="DejaVuSans-56"/>
       </defs>
       <use xlink:href="#DejaVuSans-56"/>
       <use x="63.623047" xlink:href="#DejaVuSans-48"/>
      </g>
     </g>
    </g>
    <g id="ytick_6">
     <g id="line2d_13">
      <g>
       <use style="stroke:#000000;stroke-width:0.8;" x="57.6" xlink:href="#mfe30fea774" y="98.624175"/>
      </g>
     </g>
     <g id="text_13">
      <!-- 100 -->
      <g transform="translate(31.5125 102.423394)scale(0.1 -0.1)">
       <use xlink:href="#DejaVuSans-49"/>
       <use x="63.623047" xlink:href="#DejaVuSans-48"/>
       <use x="127.246094" xlink:href="#DejaVuSans-48"/>
      </g>
     </g>
    </g>
    <g id="ytick_7">
     <g id="line2d_14">
      <g>
       <use style="stroke:#000000;stroke-width:0.8;" x="57.6" xlink:href="#mfe30fea774" y="59.266557"/>
      </g>
     </g>
     <g id="text_14">
      <!-- 120 -->
      <g transform="translate(31.5125 63.065775)scale(0.1 -0.1)">
       <use xlink:href="#DejaVuSans-49"/>
       <use x="63.623047" xlink:href="#DejaVuSans-50"/>
       <use x="127.246094" xlink:href="#DejaVuSans-48"/>
      </g>
     </g>
    </g>
   </g>
   <g id="line2d_15">
    <path clip-path="url(#p3c41492eb8)" d="M 332.865833 295.412269 
L 333.166765 274.700359 
L 333.833392 243.584889 
L 334.370111 238.064555 
L 335.190219 232.32677 
L 337.00047 220.720726 
L 337.650544 215.113412 
L 337.837429 212.415763 
L 337.903873 209.810531 
L 337.828622 207.314026 
L 337.590422 204.942556 
L 337.168019 202.71243 
L 336.540158 200.639958 
L 335.685585 198.741447 
L 334.583046 197.033208 
L 333.220201 195.507117 
L 331.612641 194.137527 
L 329.781011 192.914462 
L 327.745956 191.827943 
L 325.52812 190.867995 
L 323.148148 190.02464 
L 320.626684 189.2879 
L 315.24186 188.09436 
L 309.538803 187.207556 
L 303.682671 186.547673 
L 292.171805 185.589397 
L 284.27572 184.973992 
L 281.663487 184.97764 
L 279.017568 185.119641 
L 273.652202 185.728008 
L 268.234683 186.617704 
L 257.463432 188.515541 
L 252.219822 189.160906 
L 249.65761 189.328343 
L 247.144303 189.362053 
L 244.686784 189.239361 
L 242.291937 188.937595 
L 239.966642 188.43408 
L 237.717784 187.706144 
L 235.566871 186.716523 
L 233.522476 185.463106 
L 231.572076 183.97595 
L 229.703148 182.285111 
L 227.903169 180.420644 
L 224.459965 176.291052 
L 221.142282 171.827623 
L 216.181955 165.032514 
L 212.739768 160.78645 
L 210.940515 158.83879 
L 209.072458 157.048118 
L 207.123074 155.444491 
L 205.079841 154.057965 
L 202.930235 152.918595 
L 200.645554 152.052314 
L 198.218314 151.443667 
L 195.667823 151.060635 
L 193.01339 150.871197 
L 190.274322 150.843332 
L 184.619512 151.144238 
L 170.35292 152.48258 
L 167.631852 152.594553 
L 164.99992 152.579912 
L 162.47643 152.406638 
L 160.08069 152.042708 
L 157.832009 151.456104 
L 155.749694 150.614802 
L 153.853053 149.486784 
L 152.071242 148.083292 
L 150.326275 146.451021 
L 148.626751 144.611129 
L 146.981267 142.584773 
L 145.39842 140.39311 
L 143.88681 138.057297 
L 142.455032 135.598492 
L 141.111685 133.037852 
L 139.865367 130.396534 
L 138.724676 127.695696 
L 137.698208 124.956495 
L 136.794561 122.200088 
L 136.022334 119.447632 
L 135.390124 116.720285 
L 134.906528 114.039204 
L 134.580145 111.425546 
L 134.419571 108.900469 
L 134.433405 106.48513 
L 134.630245 104.200685 
L 135.030342 101.959956 
L 135.639257 99.670061 
L 136.443553 97.343602 
L 137.429793 94.993186 
L 138.584538 92.631416 
L 139.894352 90.270897 
L 141.345795 87.924232 
L 142.925431 85.604026 
L 144.619822 83.322884 
L 148.299118 78.928208 
L 152.276181 74.841037 
L 156.443509 71.162206 
L 158.564929 69.507429 
L 160.693602 67.992549 
L 162.81609 66.630172 
L 164.918957 65.432902 
L 167.05814 64.41657 
L 169.293075 63.57855 
L 171.615566 62.903762 
L 174.017419 62.377126 
L 176.490438 61.983561 
L 181.617198 61.535324 
L 186.930288 61.438407 
L 192.36415 61.572166 
L 206.04695 62.124048 
L 211.387238 62.115105 
L 213.996139 62.001091 
L 213.996139 62.001091 
" style="fill:none;stroke:#fea952;stroke-linecap:square;"/>
   </g>
   <g id="line2d_16">
    <path clip-path="url(#p3c41492eb8)" d="M 324.994674 295.336537 
L 325.296676 274.550045 
L 325.987936 242.944808 
L 326.569541 237.01004 
L 327.416577 231.089283 
L 329.534482 217.079624 
L 329.968464 212.215072 
L 329.996508 208.100715 
L 329.634616 204.994694 
L 329.071962 203.010039 
L 328.711885 202.276332 
L 328.115378 201.498917 
L 327.24141 200.683765 
L 326.073695 199.858286 
L 324.619235 199.051828 
L 322.898992 198.287468 
L 320.940496 197.580245 
L 318.773409 196.938146 
L 313.930639 195.855905 
L 308.593012 195.022054 
L 302.961868 194.386125 
L 291.52907 193.434636 
L 284.286713 192.845509 
L 282.085328 192.837853 
L 277.361436 193.182924 
L 272.287057 193.905562 
L 255.661051 196.709311 
L 252.733121 197.015676 
L 249.763176 197.199159 
L 246.751805 197.223785 
L 243.702703 197.049129 
L 240.626061 196.630822 
L 237.54253 195.923043 
L 234.427678 194.857094 
L 231.452557 193.427208 
L 228.749685 191.722607 
L 226.29113 189.813115 
L 224.040066 187.752321 
L 221.959513 185.581443 
L 220.01639 183.334157 
L 216.434999 178.728593 
L 208.455926 167.924481 
L 205.493451 164.521253 
L 204.071722 163.127059 
L 202.703101 161.957917 
L 201.393458 161.012925 
L 200.139473 160.278794 
L 198.730992 159.687452 
L 197.04928 159.227898 
L 195.107484 158.91219 
L 192.933315 158.742314 
L 190.559555 158.709686 
L 185.340739 158.982651 
L 170.676563 160.347447 
L 167.588067 160.465955 
L 164.460694 160.432945 
L 161.294253 160.188883 
L 158.093769 159.659337 
L 154.883311 158.754464 
L 151.726 157.380212 
L 148.982356 155.670407 
L 146.693961 153.831834 
L 144.544073 151.792091 
L 142.516178 149.573164 
L 140.599956 147.193434 
L 138.789985 144.669729 
L 137.084515 142.018316 
L 135.484493 139.255332 
L 133.992861 136.396903 
L 132.614055 133.459107 
L 131.35369 130.457845 
L 130.218378 127.408644 
L 129.215669 124.326417 
L 128.354133 121.225153 
L 127.643606 118.117551 
L 127.09567 115.014594 
L 126.724489 111.925099 
L 126.548177 108.855385 
L 126.590941 105.809383 
L 126.88128 102.817058 
L 127.423177 99.937105 
L 128.199773 97.098104 
L 129.185119 94.297948 
L 130.35826 91.535686 
L 131.701626 88.812202 
L 133.199869 86.130269 
L 134.839097 83.494359 
L 136.606386 80.910354 
L 138.489497 78.385274 
L 140.476726 75.927029 
L 142.556856 73.544221 
L 144.719177 71.245977 
L 146.953575 69.041834 
L 149.25069 66.941652 
L 151.602145 64.95559 
L 154.000881 63.094134 
L 156.44161 61.368242 
L 158.921436 59.789664 
L 161.541028 58.323016 
L 164.294497 57.046145 
L 167.096865 56.019611 
L 169.929686 55.214894 
L 172.780286 54.603428 
L 175.640084 54.158104 
L 178.502988 53.853887 
L 184.219001 53.579047 
L 189.890515 53.616577 
L 200.907891 54.075994 
L 208.628074 54.280263 
L 213.652467 54.137073 
L 213.652467 54.137073 
" style="fill:none;stroke:#ffffff;stroke-linecap:square;"/>
   </g>
   <g id="line2d_17">
    <path clip-path="url(#p3c41492eb8)" d="M 340.736993 295.488 
L 341.036853 274.850672 
L 341.678848 244.224969 
L 342.17068 239.119071 
L 342.963861 233.564256 
L 344.807837 221.723673 
L 345.503247 215.657423 
L 345.706394 212.616454 
L 345.771823 209.573372 
L 345.660736 206.527337 
L 345.324438 203.477673 
L 344.701422 200.430166 
L 343.718026 197.408998 
L 342.299208 194.472855 
L 340.454207 191.790084 
L 338.325023 189.515316 
L 335.983871 187.591289 
L 333.488327 185.970637 
L 330.872677 184.604059 
L 328.157248 183.448523 
L 325.355799 182.469035 
L 322.479959 181.637655 
L 319.541459 180.931818 
L 313.528957 179.824619 
L 307.436776 179.025252 
L 298.457898 178.187767 
L 284.264728 177.102476 
L 281.241646 177.117428 
L 278.262168 177.284448 
L 272.441915 177.950084 
L 266.824551 178.873519 
L 256.37971 180.718975 
L 251.706522 181.306136 
L 247.5368 181.500321 
L 245.670866 181.429593 
L 243.957813 181.244367 
L 242.390755 180.945117 
L 241.00789 180.555194 
L 239.681186 180.005837 
L 238.295268 179.203606 
L 236.853022 178.138785 
L 235.366231 176.817901 
L 233.846825 175.259846 
L 230.737301 171.541742 
L 227.530016 167.227869 
L 222.381092 160.181576 
L 218.5217 155.445089 
L 216.387579 153.156327 
L 214.073195 150.969178 
L 211.543048 148.931065 
L 208.766224 147.103005 
L 205.720998 145.558396 
L 202.560115 144.417175 
L 199.387347 143.659437 
L 196.228163 143.209081 
L 193.093465 143.000081 
L 189.989089 142.976978 
L 183.898286 143.305825 
L 167.675638 144.723151 
L 163.658607 144.624392 
L 160.780708 144.157743 
L 159.773389 143.849393 
L 158.723751 143.303161 
L 157.448523 142.33475 
L 156.108477 141.109952 
L 154.737323 139.649095 
L 153.362577 137.976111 
L 152.006855 136.116491 
L 150.689104 134.096278 
L 149.425571 131.941653 
L 147.11668 127.333962 
L 145.178037 122.504346 
L 143.690535 117.670112 
L 142.717386 113.063815 
L 142.435801 110.925993 
L 142.290966 108.945554 
L 142.27587 107.160877 
L 142.37921 105.584313 
L 142.637506 103.982808 
L 143.078741 102.242017 
L 143.701988 100.389257 
L 144.501326 98.450686 
L 145.467451 96.450631 
L 146.588834 94.411524 
L 149.244476 90.297698 
L 152.354335 86.25979 
L 155.795118 82.433786 
L 159.434872 78.946901 
L 163.128978 75.920723 
L 166.710745 73.470681 
L 168.296885 72.542788 
L 169.821784 71.786994 
L 171.489285 71.137488 
L 173.301445 70.59263 
L 175.254551 70.150825 
L 177.340792 69.809019 
L 181.870264 69.402779 
L 186.797701 69.308814 
L 194.739229 69.550827 
L 205.967836 69.995174 
L 211.73091 69.979123 
L 214.339811 69.865109 
L 214.339811 69.865109 
" style="fill:none;stroke:#ffffff;stroke-linecap:square;"/>
   </g>
   <g id="patch_3">
    <path d="M 57.6 307.584 
L 57.6 41.472 
" style="fill:none;stroke:#000000;stroke-linecap:square;stroke-linejoin:miter;stroke-width:0.8;"/>
   </g>
   <g id="patch_4">
    <path d="M 414.72 307.584 
L 414.72 41.472 
" style="fill:none;stroke:#000000;stroke-linecap:square;stroke-linejoin:miter;stroke-width:0.8;"/>
   </g>
   <g id="patch_5">
    <path d="M 57.6 307.584 
L 414.72 307.584 
" style="fill:none;stroke:#000000;stroke-linecap:square;stroke-linejoin:miter;stroke-width:0.8;"/>
   </g>
   <g id="patch_6">
    <path d="M 57.6 41.472 
L 414.72 41.472 
" style="fill:none;stroke:#000000;stroke-linecap:square;stroke-linejoin:miter;stroke-width:0.8;"/>
   </g>
  </g>
 </g>
 <defs>
  <clipPath id="p3c41492eb8">
   <rect height="266.112" width="357.12" x="57.6" y="41.472"/>
  </clipPath>
 </defs>
</svg>
