<?xml version="1.0" encoding="utf-8" standalone="no"?>
<!DOCTYPE svg PUBLIC "-//W3C//DTD SVG 1.1//EN"
  "http://www.w3.org/Graphics/SVG/1.1/DTD/svg11.dtd">
<!-- Created with matplotlib (https://matplotlib.org/) -->
<svg height="345.6pt" version="1.1" viewBox="0 0 460.8 345.6" width="460.8pt" xmlns="http://www.w3.org/2000/svg" xmlns:xlink="http://www.w3.org/1999/xlink">
 <metadata>
  <rdf:RDF xmlns:cc="http://creativecommons.org/ns#" xmlns:dc="http://purl.org/dc/elements/1.1/" xmlns:rdf="http://www.w3.org/1999/02/22-rdf-syntax-ns#">
   <cc:Work>
    <dc:type rdf:resource="http://purl.org/dc/dcmitype/StillImage"/>
    <dc:date>2021-05-27T11:43:05.279856</dc:date>
    <dc:format>image/svg+xml</dc:format>
    <dc:creator>
     <cc:Agent>
      <dc:title>Matplotlib v3.3.3, https://matplotlib.org/</dc:title>
     </cc:Agent>
    </dc:creator>
   </cc:Work>
  </rdf:RDF>
 </metadata>
 <defs>
  <style type="text/css">*{stroke-linecap:butt;stroke-linejoin:round;}</style>
 </defs>
 <g id="figure_1">
  <g id="patch_1">
   <path d="M 0 345.6 
L 460.8 345.6 
L 460.8 0 
L 0 0 
z
" style="fill:#ffffff;"/>
  </g>
  <g id="axes_1">
   <g id="patch_2">
    <path d="M 57.6 307.584 
L 414.72 307.584 
L 414.72 41.472 
L 57.6 41.472 
z
" style="fill:#7d9051;"/>
   </g>
   <g id="matplotlib.axis_1">
    <g id="xtick_1">
     <g id="line2d_1">
      <defs>
       <path d="M 0 0 
L 0 3.5 
" id="m13b8ba9a92" style="stroke:#000000;stroke-width:0.8;"/>
      </defs>
      <g>
       <use style="stroke:#000000;stroke-width:0.8;" x="65.228072" xlink:href="#m13b8ba9a92" y="307.584"/>
      </g>
     </g>
     <g id="text_1">
      <!-- −140 -->
      <g transform="translate(51.494478 322.182437)scale(0.1 -0.1)">
       <defs>
        <path d="M 10.59375 35.5 
L 73.1875 35.5 
L 73.1875 27.203125 
L 10.59375 27.203125 
z
" id="DejaVuSans-8722"/>
        <path d="M 12.40625 8.296875 
L 28.515625 8.296875 
L 28.515625 63.921875 
L 10.984375 60.40625 
L 10.984375 69.390625 
L 28.421875 72.90625 
L 38.28125 72.90625 
L 38.28125 8.296875 
L 54.390625 8.296875 
L 54.390625 0 
L 12.40625 0 
z
" id="DejaVuSans-49"/>
        <path d="M 37.796875 64.3125 
L 12.890625 25.390625 
L 37.796875 25.390625 
z
M 35.203125 72.90625 
L 47.609375 72.90625 
L 47.609375 25.390625 
L 58.015625 25.390625 
L 58.015625 17.1875 
L 47.609375 17.1875 
L 47.609375 0 
L 37.796875 0 
L 37.796875 17.1875 
L 4.890625 17.1875 
L 4.890625 26.703125 
z
" id="DejaVuSans-52"/>
        <path d="M 31.78125 66.40625 
Q 24.171875 66.40625 20.328125 58.90625 
Q 16.5 51.421875 16.5 36.375 
Q 16.5 21.390625 20.328125 13.890625 
Q 24.171875 6.390625 31.78125 6.390625 
Q 39.453125 6.390625 43.28125 13.890625 
Q 47.125 21.390625 47.125 36.375 
Q 47.125 51.421875 43.28125 58.90625 
Q 39.453125 66.40625 31.78125 66.40625 
z
M 31.78125 74.21875 
Q 44.046875 74.21875 50.515625 64.515625 
Q 56.984375 54.828125 56.984375 36.375 
Q 56.984375 17.96875 50.515625 8.265625 
Q 44.046875 -1.421875 31.78125 -1.421875 
Q 19.53125 -1.421875 13.0625 8.265625 
Q 6.59375 17.96875 6.59375 36.375 
Q 6.59375 54.828125 13.0625 64.515625 
Q 19.53125 74.21875 31.78125 74.21875 
z
" id="DejaVuSans-48"/>
       </defs>
       <use xlink:href="#DejaVuSans-8722"/>
       <use x="83.789062" xlink:href="#DejaVuSans-49"/>
       <use x="147.412109" xlink:href="#DejaVuSans-52"/>
       <use x="211.035156" xlink:href="#DejaVuSans-48"/>
      </g>
     </g>
    </g>
    <g id="xtick_2">
     <g id="line2d_2">
      <g>
       <use style="stroke:#000000;stroke-width:0.8;" x="110.742708" xlink:href="#m13b8ba9a92" y="307.584"/>
      </g>
     </g>
     <g id="text_2">
      <!-- −120 -->
      <g transform="translate(97.009114 322.182437)scale(0.1 -0.1)">
       <defs>
        <path d="M 19.1875 8.296875 
L 53.609375 8.296875 
L 53.609375 0 
L 7.328125 0 
L 7.328125 8.296875 
Q 12.9375 14.109375 22.625 23.890625 
Q 32.328125 33.6875 34.8125 36.53125 
Q 39.546875 41.84375 41.421875 45.53125 
Q 43.3125 49.21875 43.3125 52.78125 
Q 43.3125 58.59375 39.234375 62.25 
Q 35.15625 65.921875 28.609375 65.921875 
Q 23.96875 65.921875 18.8125 64.3125 
Q 13.671875 62.703125 7.8125 59.421875 
L 7.8125 69.390625 
Q 13.765625 71.78125 18.9375 73 
Q 24.125 74.21875 28.421875 74.21875 
Q 39.75 74.21875 46.484375 68.546875 
Q 53.21875 62.890625 53.21875 53.421875 
Q 53.21875 48.921875 51.53125 44.890625 
Q 49.859375 40.875 45.40625 35.40625 
Q 44.1875 33.984375 37.640625 27.21875 
Q 31.109375 20.453125 19.1875 8.296875 
z
" id="DejaVuSans-50"/>
       </defs>
       <use xlink:href="#DejaVuSans-8722"/>
       <use x="83.789062" xlink:href="#DejaVuSans-49"/>
       <use x="147.412109" xlink:href="#DejaVuSans-50"/>
       <use x="211.035156" xlink:href="#DejaVuSans-48"/>
      </g>
     </g>
    </g>
    <g id="xtick_3">
     <g id="line2d_3">
      <g>
       <use style="stroke:#000000;stroke-width:0.8;" x="156.257344" xlink:href="#m13b8ba9a92" y="307.584"/>
      </g>
     </g>
     <g id="text_3">
      <!-- −100 -->
      <g transform="translate(142.52375 322.182437)scale(0.1 -0.1)">
       <use xlink:href="#DejaVuSans-8722"/>
       <use x="83.789062" xlink:href="#DejaVuSans-49"/>
       <use x="147.412109" xlink:href="#DejaVuSans-48"/>
       <use x="211.035156" xlink:href="#DejaVuSans-48"/>
      </g>
     </g>
    </g>
    <g id="xtick_4">
     <g id="line2d_4">
      <g>
       <use style="stroke:#000000;stroke-width:0.8;" x="201.77198" xlink:href="#m13b8ba9a92" y="307.584"/>
      </g>
     </g>
     <g id="text_4">
      <!-- −80 -->
      <g transform="translate(191.219636 322.182437)scale(0.1 -0.1)">
       <defs>
        <path d="M 31.78125 34.625 
Q 24.75 34.625 20.71875 30.859375 
Q 16.703125 27.09375 16.703125 20.515625 
Q 16.703125 13.921875 20.71875 10.15625 
Q 24.75 6.390625 31.78125 6.390625 
Q 38.8125 6.390625 42.859375 10.171875 
Q 46.921875 13.96875 46.921875 20.515625 
Q 46.921875 27.09375 42.890625 30.859375 
Q 38.875 34.625 31.78125 34.625 
z
M 21.921875 38.8125 
Q 15.578125 40.375 12.03125 44.71875 
Q 8.5 49.078125 8.5 55.328125 
Q 8.5 64.0625 14.71875 69.140625 
Q 20.953125 74.21875 31.78125 74.21875 
Q 42.671875 74.21875 48.875 69.140625 
Q 55.078125 64.0625 55.078125 55.328125 
Q 55.078125 49.078125 51.53125 44.71875 
Q 48 40.375 41.703125 38.8125 
Q 48.828125 37.15625 52.796875 32.3125 
Q 56.78125 27.484375 56.78125 20.515625 
Q 56.78125 9.90625 50.3125 4.234375 
Q 43.84375 -1.421875 31.78125 -1.421875 
Q 19.734375 -1.421875 13.25 4.234375 
Q 6.78125 9.90625 6.78125 20.515625 
Q 6.78125 27.484375 10.78125 32.3125 
Q 14.796875 37.15625 21.921875 38.8125 
z
M 18.3125 54.390625 
Q 18.3125 48.734375 21.84375 45.5625 
Q 25.390625 42.390625 31.78125 42.390625 
Q 38.140625 42.390625 41.71875 45.5625 
Q 45.3125 48.734375 45.3125 54.390625 
Q 45.3125 60.0625 41.71875 63.234375 
Q 38.140625 66.40625 31.78125 66.40625 
Q 25.390625 66.40625 21.84375 63.234375 
Q 18.3125 60.0625 18.3125 54.390625 
z
" id="DejaVuSans-56"/>
       </defs>
       <use xlink:href="#DejaVuSans-8722"/>
       <use x="83.789062" xlink:href="#DejaVuSans-56"/>
       <use x="147.412109" xlink:href="#DejaVuSans-48"/>
      </g>
     </g>
    </g>
    <g id="xtick_5">
     <g id="line2d_5">
      <g>
       <use style="stroke:#000000;stroke-width:0.8;" x="247.286616" xlink:href="#m13b8ba9a92" y="307.584"/>
      </g>
     </g>
     <g id="text_5">
      <!-- −60 -->
      <g transform="translate(236.734272 322.182437)scale(0.1 -0.1)">
       <defs>
        <path d="M 33.015625 40.375 
Q 26.375 40.375 22.484375 35.828125 
Q 18.609375 31.296875 18.609375 23.390625 
Q 18.609375 15.53125 22.484375 10.953125 
Q 26.375 6.390625 33.015625 6.390625 
Q 39.65625 6.390625 43.53125 10.953125 
Q 47.40625 15.53125 47.40625 23.390625 
Q 47.40625 31.296875 43.53125 35.828125 
Q 39.65625 40.375 33.015625 40.375 
z
M 52.59375 71.296875 
L 52.59375 62.3125 
Q 48.875 64.0625 45.09375 64.984375 
Q 41.3125 65.921875 37.59375 65.921875 
Q 27.828125 65.921875 22.671875 59.328125 
Q 17.53125 52.734375 16.796875 39.40625 
Q 19.671875 43.65625 24.015625 45.921875 
Q 28.375 48.1875 33.59375 48.1875 
Q 44.578125 48.1875 50.953125 41.515625 
Q 57.328125 34.859375 57.328125 23.390625 
Q 57.328125 12.15625 50.6875 5.359375 
Q 44.046875 -1.421875 33.015625 -1.421875 
Q 20.359375 -1.421875 13.671875 8.265625 
Q 6.984375 17.96875 6.984375 36.375 
Q 6.984375 53.65625 15.1875 63.9375 
Q 23.390625 74.21875 37.203125 74.21875 
Q 40.921875 74.21875 44.703125 73.484375 
Q 48.484375 72.75 52.59375 71.296875 
z
" id="DejaVuSans-54"/>
       </defs>
       <use xlink:href="#DejaVuSans-8722"/>
       <use x="83.789062" xlink:href="#DejaVuSans-54"/>
       <use x="147.412109" xlink:href="#DejaVuSans-48"/>
      </g>
     </g>
    </g>
    <g id="xtick_6">
     <g id="line2d_6">
      <g>
       <use style="stroke:#000000;stroke-width:0.8;" x="292.801252" xlink:href="#m13b8ba9a92" y="307.584"/>
      </g>
     </g>
     <g id="text_6">
      <!-- −40 -->
      <g transform="translate(282.248908 322.182437)scale(0.1 -0.1)">
       <use xlink:href="#DejaVuSans-8722"/>
       <use x="83.789062" xlink:href="#DejaVuSans-52"/>
       <use x="147.412109" xlink:href="#DejaVuSans-48"/>
      </g>
     </g>
    </g>
    <g id="xtick_7">
     <g id="line2d_7">
      <g>
       <use style="stroke:#000000;stroke-width:0.8;" x="338.315888" xlink:href="#m13b8ba9a92" y="307.584"/>
      </g>
     </g>
     <g id="text_7">
      <!-- −20 -->
      <g transform="translate(327.763544 322.182437)scale(0.1 -0.1)">
       <use xlink:href="#DejaVuSans-8722"/>
       <use x="83.789062" xlink:href="#DejaVuSans-50"/>
       <use x="147.412109" xlink:href="#DejaVuSans-48"/>
      </g>
     </g>
    </g>
    <g id="xtick_8">
     <g id="line2d_8">
      <g>
       <use style="stroke:#000000;stroke-width:0.8;" x="383.830524" xlink:href="#m13b8ba9a92" y="307.584"/>
      </g>
     </g>
     <g id="text_8">
      <!-- 0 -->
      <g transform="translate(380.649274 322.182437)scale(0.1 -0.1)">
       <use xlink:href="#DejaVuSans-48"/>
      </g>
     </g>
    </g>
   </g>
   <g id="matplotlib.axis_2">
    <g id="ytick_1">
     <g id="line2d_9">
      <defs>
       <path d="M 0 0 
L -3.5 0 
" id="m5056cb081f" style="stroke:#000000;stroke-width:0.8;"/>
      </defs>
      <g>
       <use style="stroke:#000000;stroke-width:0.8;" x="57.6" xlink:href="#m5056cb081f" y="293.6545"/>
      </g>
     </g>
     <g id="text_9">
      <!-- −20 -->
      <g transform="translate(29.495313 297.453719)scale(0.1 -0.1)">
       <use xlink:href="#DejaVuSans-8722"/>
       <use x="83.789062" xlink:href="#DejaVuSans-50"/>
       <use x="147.412109" xlink:href="#DejaVuSans-48"/>
      </g>
     </g>
    </g>
    <g id="ytick_2">
     <g id="line2d_10">
      <g>
       <use style="stroke:#000000;stroke-width:0.8;" x="57.6" xlink:href="#m5056cb081f" y="248.139864"/>
      </g>
     </g>
     <g id="text_10">
      <!-- 0 -->
      <g transform="translate(44.2375 251.939083)scale(0.1 -0.1)">
       <use xlink:href="#DejaVuSans-48"/>
      </g>
     </g>
    </g>
    <g id="ytick_3">
     <g id="line2d_11">
      <g>
       <use style="stroke:#000000;stroke-width:0.8;" x="57.6" xlink:href="#m5056cb081f" y="202.625228"/>
      </g>
     </g>
     <g id="text_11">
      <!-- 20 -->
      <g transform="translate(37.875 206.424447)scale(0.1 -0.1)">
       <use xlink:href="#DejaVuSans-50"/>
       <use x="63.623047" xlink:href="#DejaVuSans-48"/>
      </g>
     </g>
    </g>
    <g id="ytick_4">
     <g id="line2d_12">
      <g>
       <use style="stroke:#000000;stroke-width:0.8;" x="57.6" xlink:href="#m5056cb081f" y="157.110592"/>
      </g>
     </g>
     <g id="text_12">
      <!-- 40 -->
      <g transform="translate(37.875 160.909811)scale(0.1 -0.1)">
       <use xlink:href="#DejaVuSans-52"/>
       <use x="63.623047" xlink:href="#DejaVuSans-48"/>
      </g>
     </g>
    </g>
    <g id="ytick_5">
     <g id="line2d_13">
      <g>
       <use style="stroke:#000000;stroke-width:0.8;" x="57.6" xlink:href="#m5056cb081f" y="111.595956"/>
      </g>
     </g>
     <g id="text_13">
      <!-- 60 -->
      <g transform="translate(37.875 115.395175)scale(0.1 -0.1)">
       <use xlink:href="#DejaVuSans-54"/>
       <use x="63.623047" xlink:href="#DejaVuSans-48"/>
      </g>
     </g>
    </g>
    <g id="ytick_6">
     <g id="line2d_14">
      <g>
       <use style="stroke:#000000;stroke-width:0.8;" x="57.6" xlink:href="#m5056cb081f" y="66.08132"/>
      </g>
     </g>
     <g id="text_14">
      <!-- 80 -->
      <g transform="translate(37.875 69.880539)scale(0.1 -0.1)">
       <use xlink:href="#DejaVuSans-56"/>
       <use x="63.623047" xlink:href="#DejaVuSans-48"/>
      </g>
     </g>
    </g>
   </g>
   <g id="line2d_15">
    <path clip-path="url(#p93d36cd89e)" d="M 383.830524 248.139864 
L 384.123378 227.181732 
L 384.944669 188.218215 
L 385.531913 181.928719 
L 386.425649 175.447705 
L 388.397016 162.370768 
L 389.106857 156.004664 
L 389.312362 152.914978 
L 389.387608 149.906686 
L 389.309608 146.994153 
L 389.055375 144.191743 
L 388.601922 141.513819 
L 387.926262 138.974746 
L 387.005408 136.588886 
L 385.816374 134.370605 
L 384.327089 132.24333 
L 382.539854 130.130484 
L 380.483238 128.046419 
L 378.185809 126.005485 
L 375.676136 124.022035 
L 372.982787 122.11042 
L 370.134332 120.284991 
L 367.159339 118.560102 
L 364.086376 116.950103 
L 360.944013 115.469346 
L 357.760818 114.132183 
L 354.565359 112.952965 
L 351.386205 111.946045 
L 348.251926 111.125773 
L 345.191088 110.506502 
L 342.232262 110.102584 
L 339.404016 109.928369 
L 336.734918 109.99821 
L 334.253538 110.326459 
L 331.861652 110.945765 
L 329.449006 111.864512 
L 327.026122 113.060656 
L 324.60352 114.512151 
L 322.19172 116.19695 
L 319.801243 118.093009 
L 317.442611 120.178281 
L 315.126343 122.430721 
L 312.862961 124.828283 
L 310.662985 127.348922 
L 308.536937 129.970592 
L 304.548703 135.428841 
L 300.982425 141.026666 
L 297.92227 146.587701 
L 295.452404 151.935581 
L 294.542279 154.608684 
L 293.933634 157.431985 
L 293.589064 160.385242 
L 293.471162 163.448213 
L 293.542523 166.600658 
L 294.10341 173.092999 
L 296.19931 189.472713 
L 296.43816 192.612242 
L 296.529619 195.659069 
L 296.436283 198.592952 
L 296.120744 201.39365 
L 295.545597 204.040922 
L 294.673437 206.514525 
L 293.466856 208.794218 
L 291.955731 210.935929 
L 290.207631 213.007146 
L 288.241691 215.004972 
L 286.077046 216.926506 
L 283.73283 218.76885 
L 281.22818 220.529105 
L 278.582229 222.204372 
L 275.814114 223.791751 
L 272.942968 225.288344 
L 269.987927 226.691251 
L 263.902701 229.204414 
L 257.711514 231.308047 
L 251.567447 232.978957 
L 245.62358 234.193952 
L 242.774559 234.623234 
L 239.963417 234.886248 
L 237.128243 234.950271 
L 234.270967 234.833054 
L 231.393522 234.552349 
L 228.497837 234.125908 
L 222.659475 232.906826 
L 216.771328 231.317821 
L 207.879556 228.551364 
L 198.962666 225.751411 
L 193.029864 224.102857 
L 187.124519 222.794453 
L 178.263611 221.306399 
L 166.385244 219.631779 
L 148.563321 217.176686 
L 139.709965 215.701894 
L 133.847734 214.541627 
L 128.02596 213.201572 
L 119.360358 210.899889 
L 110.75567 208.334357 
L 99.341064 204.661076 
L 79.385547 198.146012 
L 76.524346 197.260391 
L 76.524346 197.260391 
" style="fill:none;stroke:#fea952;stroke-linecap:square;"/>
   </g>
   <g id="line2d_16">
    <path clip-path="url(#p93d36cd89e)" d="M 374.728018 248.052286 
L 375.021995 227.014064 
L 375.727764 190.892188 
L 375.869523 187.507573 
L 376.505289 180.752563 
L 377.428685 174.062812 
L 379.362966 161.253081 
L 380.023999 155.400533 
L 380.287944 150.150382 
L 380.24391 147.816588 
L 380.08021 145.711508 
L 379.805127 143.854689 
L 379.433926 142.252474 
L 378.982368 140.889364 
L 378.359283 139.591245 
L 377.377135 138.122226 
L 376.060584 136.524415 
L 374.43761 134.851833 
L 372.541499 133.147267 
L 370.407465 131.445268 
L 368.071208 129.774601 
L 365.568431 128.160004 
L 362.934792 126.623382 
L 360.206092 125.184584 
L 357.418569 123.861874 
L 354.609315 122.672166 
L 351.816793 121.631022 
L 349.081501 120.752385 
L 346.446789 120.047924 
L 343.959839 119.525777 
L 341.6726 119.18829 
L 339.642127 119.028182 
L 337.928696 119.022521 
L 336.535222 119.138791 
L 335.101157 119.452755 
L 333.478676 120.026929 
L 331.70464 120.86929 
L 329.816517 121.974586 
L 327.84853 123.328835 
L 325.830642 124.912806 
L 323.788808 126.704311 
L 321.745645 128.679572 
L 319.721135 130.813995 
L 317.733247 133.082567 
L 313.932013 137.920924 
L 310.461656 142.98969 
L 307.431546 148.076913 
L 304.945078 152.954615 
L 304.069559 154.869508 
L 303.440778 156.527014 
L 302.975228 158.486909 
L 302.685255 160.735378 
L 302.571758 163.242206 
L 302.623679 165.971459 
L 303.13527 171.957756 
L 305.276007 188.782173 
L 305.536988 192.339113 
L 305.627944 195.948516 
L 305.481982 199.612079 
L 305.016152 203.326268 
L 304.130523 207.067857 
L 302.718955 210.772802 
L 300.904753 214.042168 
L 298.912176 216.807143 
L 296.695941 219.391903 
L 294.284787 221.812635 
L 291.7019 224.083622 
L 288.966976 226.216468 
L 286.097678 228.220091 
L 283.110581 230.101036 
L 280.021733 231.863878 
L 276.846968 233.511608 
L 273.60206 235.04597 
L 270.302773 236.467723 
L 266.964841 237.776845 
L 260.235461 240.054073 
L 253.536007 241.866479 
L 246.979872 243.195271 
L 243.622538 243.686578 
L 240.168923 243.986855 
L 236.755118 244.045548 
L 233.387141 243.892973 
L 230.067259 243.558142 
L 226.795281 243.0682 
L 223.569674 242.448326 
L 217.249564 240.910793 
L 211.093854 239.116167 
L 193.647617 233.688872 
L 188.249323 232.315682 
L 182.674656 231.245022 
L 174.013278 229.875611 
L 159.227708 227.865384 
L 147.157295 226.170371 
L 138.00635 224.643984 
L 131.875259 223.428281 
L 125.794892 222.026855 
L 116.833607 219.645105 
L 108.027228 217.018762 
L 96.485991 213.304677 
L 76.693928 206.8419 
L 73.832727 205.956279 
L 73.832727 205.956279 
" style="fill:none;stroke:#ffffff;stroke-linecap:square;"/>
   </g>
   <g id="line2d_17">
    <path clip-path="url(#p93d36cd89e)" d="M 392.93303 248.227443 
L 393.224761 227.349401 
L 394.019815 188.928857 
L 394.558537 183.104875 
L 395.422612 176.832598 
L 397.431066 163.488454 
L 398.189715 156.608796 
L 398.412443 153.142597 
L 398.487273 149.66299 
L 398.375306 146.171718 
L 398.030541 142.671977 
L 397.398717 139.172949 
L 396.418599 135.697017 
L 395.028448 132.288408 
L 393.273465 129.149965 
L 391.277043 126.364434 
L 389.019124 123.736554 
L 386.528866 121.241004 
L 383.830118 118.863702 
L 380.944806 116.598801 
L 377.894366 114.446238 
L 374.700234 112.409979 
L 371.383886 110.496822 
L 367.966661 108.715622 
L 364.469458 107.076818 
L 360.912321 105.5922 
L 357.313925 104.274909 
L 353.69091 103.139705 
L 350.057062 102.203623 
L 346.422338 101.487228 
L 342.791924 101.016877 
L 339.165905 100.828557 
L 335.54114 100.9739 
L 331.971853 101.514127 
L 328.622146 102.438774 
L 325.419336 103.702096 
L 322.347604 105.252023 
L 319.390522 107.049716 
L 316.534909 109.065065 
L 313.771845 111.273211 
L 311.096414 113.652251 
L 308.507042 116.181871 
L 306.004788 118.842572 
L 303.592724 121.615278 
L 301.275439 124.481153 
L 299.058658 127.42157 
L 296.948939 130.418165 
L 294.953462 133.45297 
L 293.079857 136.508625 
L 291.336099 139.568698 
L 289.730452 142.618143 
L 288.271504 145.644002 
L 286.835249 149.001655 
L 285.643779 152.690354 
L 284.89204 156.37706 
L 284.492873 160.035106 
L 284.370566 163.654221 
L 284.461367 167.229857 
L 284.710943 170.757165 
L 285.499867 177.631097 
L 287.122612 190.163253 
L 287.431295 195.369621 
L 287.390584 197.573825 
L 287.225337 199.461032 
L 286.960672 201.013987 
L 286.627919 202.256248 
L 286.02896 203.546268 
L 284.999286 205.064715 
L 283.719321 206.62239 
L 282.198595 208.197309 
L 280.452192 209.769391 
L 278.498685 211.321233 
L 276.358681 212.838119 
L 274.053877 214.307707 
L 271.606495 215.719625 
L 266.373794 218.336533 
L 260.84056 220.631983 
L 255.187567 222.56202 
L 249.598887 224.091434 
L 244.267288 225.192632 
L 241.926581 225.559889 
L 239.757911 225.785641 
L 237.501367 225.854994 
L 235.154793 225.773135 
L 232.719784 225.546556 
L 230.200393 225.183616 
L 224.930536 224.09175 
L 219.391009 222.599991 
L 210.659725 219.88338 
L 201.48976 217.006293 
L 195.142632 215.248508 
L 188.728239 213.833908 
L 179.607304 212.30319 
L 167.582141 210.607881 
L 149.969347 208.183001 
L 141.413581 206.759804 
L 135.820209 205.654972 
L 130.257028 204.376288 
L 121.887109 202.154672 
L 113.484112 199.649952 
L 102.196136 196.017475 
L 82.077166 189.450124 
L 79.215965 188.564503 
L 79.215965 188.564503 
" style="fill:none;stroke:#ffffff;stroke-linecap:square;"/>
   </g>
   <g id="patch_3">
    <path d="M 57.6 307.584 
L 57.6 41.472 
" style="fill:none;stroke:#000000;stroke-linecap:square;stroke-linejoin:miter;stroke-width:0.8;"/>
   </g>
   <g id="patch_4">
    <path d="M 414.72 307.584 
L 414.72 41.472 
" style="fill:none;stroke:#000000;stroke-linecap:square;stroke-linejoin:miter;stroke-width:0.8;"/>
   </g>
   <g id="patch_5">
    <path d="M 57.6 307.584 
L 414.72 307.584 
" style="fill:none;stroke:#000000;stroke-linecap:square;stroke-linejoin:miter;stroke-width:0.8;"/>
   </g>
   <g id="patch_6">
    <path d="M 57.6 41.472 
L 414.72 41.472 
" style="fill:none;stroke:#000000;stroke-linecap:square;stroke-linejoin:miter;stroke-width:0.8;"/>
   </g>
  </g>
 </g>
 <defs>
  <clipPath id="p93d36cd89e">
   <rect height="266.112" width="357.12" x="57.6" y="41.472"/>
  </clipPath>
 </defs>
</svg>
