<?xml version="1.0" encoding="utf-8" standalone="no"?>
<!DOCTYPE svg PUBLIC "-//W3C//DTD SVG 1.1//EN"
  "http://www.w3.org/Graphics/SVG/1.1/DTD/svg11.dtd">
<!-- Created with matplotlib (https://matplotlib.org/) -->
<svg height="345.6pt" version="1.1" viewBox="0 0 460.8 345.6" width="460.8pt" xmlns="http://www.w3.org/2000/svg" xmlns:xlink="http://www.w3.org/1999/xlink">
 <metadata>
  <rdf:RDF xmlns:cc="http://creativecommons.org/ns#" xmlns:dc="http://purl.org/dc/elements/1.1/" xmlns:rdf="http://www.w3.org/1999/02/22-rdf-syntax-ns#">
   <cc:Work>
    <dc:type rdf:resource="http://purl.org/dc/dcmitype/StillImage"/>
    <dc:date>2021-07-09T11:59:05.024328</dc:date>
    <dc:format>image/svg+xml</dc:format>
    <dc:creator>
     <cc:Agent>
      <dc:title>Matplotlib v3.3.3, https://matplotlib.org/</dc:title>
     </cc:Agent>
    </dc:creator>
   </cc:Work>
  </rdf:RDF>
 </metadata>
 <defs>
  <style type="text/css">*{stroke-linecap:butt;stroke-linejoin:round;}</style>
 </defs>
 <g id="figure_1">
  <g id="patch_1">
   <path d="M 0 345.6 
L 460.8 345.6 
L 460.8 0 
L 0 0 
z
" style="fill:#ffffff;"/>
  </g>
  <g id="axes_1">
   <g id="patch_2">
    <path d="M 57.6 307.584 
L 414.72 307.584 
L 414.72 41.472 
L 57.6 41.472 
z
" style="fill:#7d9051;"/>
   </g>
   <g id="matplotlib.axis_1">
    <g id="xtick_1">
     <g id="line2d_1">
      <defs>
       <path d="M 0 0 
L 0 3.5 
" id="mc2568df175" style="stroke:#000000;stroke-width:0.8;"/>
      </defs>
      <g>
       <use style="stroke:#000000;stroke-width:0.8;" x="69.038847" xlink:href="#mc2568df175" y="307.584"/>
      </g>
     </g>
     <g id="text_1">
      <!-- −50 -->
      <g transform="translate(58.486503 322.182437)scale(0.1 -0.1)">
       <defs>
        <path d="M 10.59375 35.5 
L 73.1875 35.5 
L 73.1875 27.203125 
L 10.59375 27.203125 
z
" id="DejaVuSans-8722"/>
        <path d="M 10.796875 72.90625 
L 49.515625 72.90625 
L 49.515625 64.59375 
L 19.828125 64.59375 
L 19.828125 46.734375 
Q 21.96875 47.46875 24.109375 47.828125 
Q 26.265625 48.1875 28.421875 48.1875 
Q 40.625 48.1875 47.75 41.5 
Q 54.890625 34.8125 54.890625 23.390625 
Q 54.890625 11.625 47.5625 5.09375 
Q 40.234375 -1.421875 26.90625 -1.421875 
Q 22.3125 -1.421875 17.546875 -0.640625 
Q 12.796875 0.140625 7.71875 1.703125 
L 7.71875 11.625 
Q 12.109375 9.234375 16.796875 8.0625 
Q 21.484375 6.890625 26.703125 6.890625 
Q 35.15625 6.890625 40.078125 11.328125 
Q 45.015625 15.765625 45.015625 23.390625 
Q 45.015625 31 40.078125 35.4375 
Q 35.15625 39.890625 26.703125 39.890625 
Q 22.75 39.890625 18.8125 39.015625 
Q 14.890625 38.140625 10.796875 36.28125 
z
" id="DejaVuSans-53"/>
        <path d="M 31.78125 66.40625 
Q 24.171875 66.40625 20.328125 58.90625 
Q 16.5 51.421875 16.5 36.375 
Q 16.5 21.390625 20.328125 13.890625 
Q 24.171875 6.390625 31.78125 6.390625 
Q 39.453125 6.390625 43.28125 13.890625 
Q 47.125 21.390625 47.125 36.375 
Q 47.125 51.421875 43.28125 58.90625 
Q 39.453125 66.40625 31.78125 66.40625 
z
M 31.78125 74.21875 
Q 44.046875 74.21875 50.515625 64.515625 
Q 56.984375 54.828125 56.984375 36.375 
Q 56.984375 17.96875 50.515625 8.265625 
Q 44.046875 -1.421875 31.78125 -1.421875 
Q 19.53125 -1.421875 13.0625 8.265625 
Q 6.59375 17.96875 6.59375 36.375 
Q 6.59375 54.828125 13.0625 64.515625 
Q 19.53125 74.21875 31.78125 74.21875 
z
" id="DejaVuSans-48"/>
       </defs>
       <use xlink:href="#DejaVuSans-8722"/>
       <use x="83.789062" xlink:href="#DejaVuSans-53"/>
       <use x="147.412109" xlink:href="#DejaVuSans-48"/>
      </g>
     </g>
    </g>
    <g id="xtick_2">
     <g id="line2d_2">
      <g>
       <use style="stroke:#000000;stroke-width:0.8;" x="112.833234" xlink:href="#mc2568df175" y="307.584"/>
      </g>
     </g>
     <g id="text_2">
      <!-- −25 -->
      <g transform="translate(102.28089 322.182437)scale(0.1 -0.1)">
       <defs>
        <path d="M 19.1875 8.296875 
L 53.609375 8.296875 
L 53.609375 0 
L 7.328125 0 
L 7.328125 8.296875 
Q 12.9375 14.109375 22.625 23.890625 
Q 32.328125 33.6875 34.8125 36.53125 
Q 39.546875 41.84375 41.421875 45.53125 
Q 43.3125 49.21875 43.3125 52.78125 
Q 43.3125 58.59375 39.234375 62.25 
Q 35.15625 65.921875 28.609375 65.921875 
Q 23.96875 65.921875 18.8125 64.3125 
Q 13.671875 62.703125 7.8125 59.421875 
L 7.8125 69.390625 
Q 13.765625 71.78125 18.9375 73 
Q 24.125 74.21875 28.421875 74.21875 
Q 39.75 74.21875 46.484375 68.546875 
Q 53.21875 62.890625 53.21875 53.421875 
Q 53.21875 48.921875 51.53125 44.890625 
Q 49.859375 40.875 45.40625 35.40625 
Q 44.1875 33.984375 37.640625 27.21875 
Q 31.109375 20.453125 19.1875 8.296875 
z
" id="DejaVuSans-50"/>
       </defs>
       <use xlink:href="#DejaVuSans-8722"/>
       <use x="83.789062" xlink:href="#DejaVuSans-50"/>
       <use x="147.412109" xlink:href="#DejaVuSans-53"/>
      </g>
     </g>
    </g>
    <g id="xtick_3">
     <g id="line2d_3">
      <g>
       <use style="stroke:#000000;stroke-width:0.8;" x="156.627621" xlink:href="#mc2568df175" y="307.584"/>
      </g>
     </g>
     <g id="text_3">
      <!-- 0 -->
      <g transform="translate(153.446371 322.182437)scale(0.1 -0.1)">
       <use xlink:href="#DejaVuSans-48"/>
      </g>
     </g>
    </g>
    <g id="xtick_4">
     <g id="line2d_4">
      <g>
       <use style="stroke:#000000;stroke-width:0.8;" x="200.422008" xlink:href="#mc2568df175" y="307.584"/>
      </g>
     </g>
     <g id="text_4">
      <!-- 25 -->
      <g transform="translate(194.059508 322.182437)scale(0.1 -0.1)">
       <use xlink:href="#DejaVuSans-50"/>
       <use x="63.623047" xlink:href="#DejaVuSans-53"/>
      </g>
     </g>
    </g>
    <g id="xtick_5">
     <g id="line2d_5">
      <g>
       <use style="stroke:#000000;stroke-width:0.8;" x="244.216395" xlink:href="#mc2568df175" y="307.584"/>
      </g>
     </g>
     <g id="text_5">
      <!-- 50 -->
      <g transform="translate(237.853895 322.182437)scale(0.1 -0.1)">
       <use xlink:href="#DejaVuSans-53"/>
       <use x="63.623047" xlink:href="#DejaVuSans-48"/>
      </g>
     </g>
    </g>
    <g id="xtick_6">
     <g id="line2d_6">
      <g>
       <use style="stroke:#000000;stroke-width:0.8;" x="288.010782" xlink:href="#mc2568df175" y="307.584"/>
      </g>
     </g>
     <g id="text_6">
      <!-- 75 -->
      <g transform="translate(281.648282 322.182437)scale(0.1 -0.1)">
       <defs>
        <path d="M 8.203125 72.90625 
L 55.078125 72.90625 
L 55.078125 68.703125 
L 28.609375 0 
L 18.3125 0 
L 43.21875 64.59375 
L 8.203125 64.59375 
z
" id="DejaVuSans-55"/>
       </defs>
       <use xlink:href="#DejaVuSans-55"/>
       <use x="63.623047" xlink:href="#DejaVuSans-53"/>
      </g>
     </g>
    </g>
    <g id="xtick_7">
     <g id="line2d_7">
      <g>
       <use style="stroke:#000000;stroke-width:0.8;" x="331.805169" xlink:href="#mc2568df175" y="307.584"/>
      </g>
     </g>
     <g id="text_7">
      <!-- 100 -->
      <g transform="translate(322.261419 322.182437)scale(0.1 -0.1)">
       <defs>
        <path d="M 12.40625 8.296875 
L 28.515625 8.296875 
L 28.515625 63.921875 
L 10.984375 60.40625 
L 10.984375 69.390625 
L 28.421875 72.90625 
L 38.28125 72.90625 
L 38.28125 8.296875 
L 54.390625 8.296875 
L 54.390625 0 
L 12.40625 0 
z
" id="DejaVuSans-49"/>
       </defs>
       <use xlink:href="#DejaVuSans-49"/>
       <use x="63.623047" xlink:href="#DejaVuSans-48"/>
       <use x="127.246094" xlink:href="#DejaVuSans-48"/>
      </g>
     </g>
    </g>
    <g id="xtick_8">
     <g id="line2d_8">
      <g>
       <use style="stroke:#000000;stroke-width:0.8;" x="375.599556" xlink:href="#mc2568df175" y="307.584"/>
      </g>
     </g>
     <g id="text_8">
      <!-- 125 -->
      <g transform="translate(366.055806 322.182437)scale(0.1 -0.1)">
       <use xlink:href="#DejaVuSans-49"/>
       <use x="63.623047" xlink:href="#DejaVuSans-50"/>
       <use x="127.246094" xlink:href="#DejaVuSans-53"/>
      </g>
     </g>
    </g>
   </g>
   <g id="matplotlib.axis_2">
    <g id="ytick_1">
     <g id="line2d_9">
      <defs>
       <path d="M 0 0 
L -3.5 0 
" id="md5eeeda573" style="stroke:#000000;stroke-width:0.8;"/>
      </defs>
      <g>
       <use style="stroke:#000000;stroke-width:0.8;" x="57.6" xlink:href="#md5eeeda573" y="295.420585"/>
      </g>
     </g>
     <g id="text_9">
      <!-- 0 -->
      <g transform="translate(44.2375 299.219804)scale(0.1 -0.1)">
       <use xlink:href="#DejaVuSans-48"/>
      </g>
     </g>
    </g>
    <g id="ytick_2">
     <g id="line2d_10">
      <g>
       <use style="stroke:#000000;stroke-width:0.8;" x="57.6" xlink:href="#md5eeeda573" y="260.385075"/>
      </g>
     </g>
     <g id="text_10">
      <!-- 20 -->
      <g transform="translate(37.875 264.184294)scale(0.1 -0.1)">
       <use xlink:href="#DejaVuSans-50"/>
       <use x="63.623047" xlink:href="#DejaVuSans-48"/>
      </g>
     </g>
    </g>
    <g id="ytick_3">
     <g id="line2d_11">
      <g>
       <use style="stroke:#000000;stroke-width:0.8;" x="57.6" xlink:href="#md5eeeda573" y="225.349566"/>
      </g>
     </g>
     <g id="text_11">
      <!-- 40 -->
      <g transform="translate(37.875 229.148785)scale(0.1 -0.1)">
       <defs>
        <path d="M 37.796875 64.3125 
L 12.890625 25.390625 
L 37.796875 25.390625 
z
M 35.203125 72.90625 
L 47.609375 72.90625 
L 47.609375 25.390625 
L 58.015625 25.390625 
L 58.015625 17.1875 
L 47.609375 17.1875 
L 47.609375 0 
L 37.796875 0 
L 37.796875 17.1875 
L 4.890625 17.1875 
L 4.890625 26.703125 
z
" id="DejaVuSans-52"/>
       </defs>
       <use xlink:href="#DejaVuSans-52"/>
       <use x="63.623047" xlink:href="#DejaVuSans-48"/>
      </g>
     </g>
    </g>
    <g id="ytick_4">
     <g id="line2d_12">
      <g>
       <use style="stroke:#000000;stroke-width:0.8;" x="57.6" xlink:href="#md5eeeda573" y="190.314056"/>
      </g>
     </g>
     <g id="text_12">
      <!-- 60 -->
      <g transform="translate(37.875 194.113275)scale(0.1 -0.1)">
       <defs>
        <path d="M 33.015625 40.375 
Q 26.375 40.375 22.484375 35.828125 
Q 18.609375 31.296875 18.609375 23.390625 
Q 18.609375 15.53125 22.484375 10.953125 
Q 26.375 6.390625 33.015625 6.390625 
Q 39.65625 6.390625 43.53125 10.953125 
Q 47.40625 15.53125 47.40625 23.390625 
Q 47.40625 31.296875 43.53125 35.828125 
Q 39.65625 40.375 33.015625 40.375 
z
M 52.59375 71.296875 
L 52.59375 62.3125 
Q 48.875 64.0625 45.09375 64.984375 
Q 41.3125 65.921875 37.59375 65.921875 
Q 27.828125 65.921875 22.671875 59.328125 
Q 17.53125 52.734375 16.796875 39.40625 
Q 19.671875 43.65625 24.015625 45.921875 
Q 28.375 48.1875 33.59375 48.1875 
Q 44.578125 48.1875 50.953125 41.515625 
Q 57.328125 34.859375 57.328125 23.390625 
Q 57.328125 12.15625 50.6875 5.359375 
Q 44.046875 -1.421875 33.015625 -1.421875 
Q 20.359375 -1.421875 13.671875 8.265625 
Q 6.984375 17.96875 6.984375 36.375 
Q 6.984375 53.65625 15.1875 63.9375 
Q 23.390625 74.21875 37.203125 74.21875 
Q 40.921875 74.21875 44.703125 73.484375 
Q 48.484375 72.75 52.59375 71.296875 
z
" id="DejaVuSans-54"/>
       </defs>
       <use xlink:href="#DejaVuSans-54"/>
       <use x="63.623047" xlink:href="#DejaVuSans-48"/>
      </g>
     </g>
    </g>
    <g id="ytick_5">
     <g id="line2d_13">
      <g>
       <use style="stroke:#000000;stroke-width:0.8;" x="57.6" xlink:href="#md5eeeda573" y="155.278547"/>
      </g>
     </g>
     <g id="text_13">
      <!-- 80 -->
      <g transform="translate(37.875 159.077765)scale(0.1 -0.1)">
       <defs>
        <path d="M 31.78125 34.625 
Q 24.75 34.625 20.71875 30.859375 
Q 16.703125 27.09375 16.703125 20.515625 
Q 16.703125 13.921875 20.71875 10.15625 
Q 24.75 6.390625 31.78125 6.390625 
Q 38.8125 6.390625 42.859375 10.171875 
Q 46.921875 13.96875 46.921875 20.515625 
Q 46.921875 27.09375 42.890625 30.859375 
Q 38.875 34.625 31.78125 34.625 
z
M 21.921875 38.8125 
Q 15.578125 40.375 12.03125 44.71875 
Q 8.5 49.078125 8.5 55.328125 
Q 8.5 64.0625 14.71875 69.140625 
Q 20.953125 74.21875 31.78125 74.21875 
Q 42.671875 74.21875 48.875 69.140625 
Q 55.078125 64.0625 55.078125 55.328125 
Q 55.078125 49.078125 51.53125 44.71875 
Q 48 40.375 41.703125 38.8125 
Q 48.828125 37.15625 52.796875 32.3125 
Q 56.78125 27.484375 56.78125 20.515625 
Q 56.78125 9.90625 50.3125 4.234375 
Q 43.84375 -1.421875 31.78125 -1.421875 
Q 19.734375 -1.421875 13.25 4.234375 
Q 6.78125 9.90625 6.78125 20.515625 
Q 6.78125 27.484375 10.78125 32.3125 
Q 14.796875 37.15625 21.921875 38.8125 
z
M 18.3125 54.390625 
Q 18.3125 48.734375 21.84375 45.5625 
Q 25.390625 42.390625 31.78125 42.390625 
Q 38.140625 42.390625 41.71875 45.5625 
Q 45.3125 48.734375 45.3125 54.390625 
Q 45.3125 60.0625 41.71875 63.234375 
Q 38.140625 66.40625 31.78125 66.40625 
Q 25.390625 66.40625 21.84375 63.234375 
Q 18.3125 60.0625 18.3125 54.390625 
z
" id="DejaVuSans-56"/>
       </defs>
       <use xlink:href="#DejaVuSans-56"/>
       <use x="63.623047" xlink:href="#DejaVuSans-48"/>
      </g>
     </g>
    </g>
    <g id="ytick_6">
     <g id="line2d_14">
      <g>
       <use style="stroke:#000000;stroke-width:0.8;" x="57.6" xlink:href="#md5eeeda573" y="120.243037"/>
      </g>
     </g>
     <g id="text_14">
      <!-- 100 -->
      <g transform="translate(31.5125 124.042256)scale(0.1 -0.1)">
       <use xlink:href="#DejaVuSans-49"/>
       <use x="63.623047" xlink:href="#DejaVuSans-48"/>
       <use x="127.246094" xlink:href="#DejaVuSans-48"/>
      </g>
     </g>
    </g>
    <g id="ytick_7">
     <g id="line2d_15">
      <g>
       <use style="stroke:#000000;stroke-width:0.8;" x="57.6" xlink:href="#md5eeeda573" y="85.207527"/>
      </g>
     </g>
     <g id="text_15">
      <!-- 120 -->
      <g transform="translate(31.5125 89.006746)scale(0.1 -0.1)">
       <use xlink:href="#DejaVuSans-49"/>
       <use x="63.623047" xlink:href="#DejaVuSans-50"/>
       <use x="127.246094" xlink:href="#DejaVuSans-48"/>
      </g>
     </g>
    </g>
    <g id="ytick_8">
     <g id="line2d_16">
      <g>
       <use style="stroke:#000000;stroke-width:0.8;" x="57.6" xlink:href="#md5eeeda573" y="50.172018"/>
      </g>
     </g>
     <g id="text_16">
      <!-- 140 -->
      <g transform="translate(31.5125 53.971236)scale(0.1 -0.1)">
       <use xlink:href="#DejaVuSans-49"/>
       <use x="63.623047" xlink:href="#DejaVuSans-52"/>
       <use x="127.246094" xlink:href="#DejaVuSans-48"/>
      </g>
     </g>
    </g>
   </g>
   <g id="line2d_17">
    <path clip-path="url(#p95f7a19814)" d="M 156.627621 295.420585 
L 156.895506 276.983181 
L 157.387884 247.0049 
L 157.158102 240.013354 
L 156.631426 226.015383 
L 156.654713 221.393476 
L 156.876845 216.815652 
L 157.357474 212.295135 
L 158.156256 207.845151 
L 158.738768 205.649775 
L 159.493002 203.472945 
L 160.395613 201.313148 
L 162.552599 197.038593 
L 165.022982 192.813993 
L 171.344556 182.391542 
L 173.441232 178.246377 
L 174.303637 176.172839 
L 175.010963 174.096646 
L 175.539867 172.016283 
L 175.867006 169.930235 
L 175.969038 167.836988 
L 175.791547 165.732431 
L 175.319876 163.615163 
L 174.590319 161.48773 
L 173.63917 159.352683 
L 172.502723 157.212567 
L 169.819111 152.927326 
L 161.09568 140.214985 
L 159.924774 138.143926 
L 158.931509 136.093281 
L 158.152178 134.065597 
L 157.623075 132.063422 
L 157.380495 130.089305 
L 157.46073 128.145794 
L 157.822303 126.174182 
L 158.389937 124.125787 
L 159.14923 122.018199 
L 160.08578 119.869002 
L 161.185183 117.695785 
L 162.433038 115.516134 
L 163.814943 113.347637 
L 165.316495 111.20788 
L 168.620932 107.084937 
L 170.395012 105.136925 
L 172.231129 103.288002 
L 174.114883 101.555755 
L 176.031869 99.957771 
L 177.967687 98.511638 
L 179.907933 97.234941 
L 181.838205 96.145269 
L 183.744102 95.260209 
L 185.61122 94.597347 
L 187.512358 94.23976 
L 189.521206 94.231217 
L 191.624701 94.530348 
L 193.809777 95.095783 
L 196.063371 95.88615 
L 198.372418 96.860079 
L 203.104614 99.193139 
L 212.659614 104.241688 
L 214.991032 105.342169 
L 217.273388 106.295245 
L 219.493619 107.059546 
L 221.63866 107.593702 
L 223.695447 107.856341 
L 225.650915 107.806093 
L 227.492 107.401587 
L 229.205794 106.6425 
L 230.79774 105.577615 
L 232.282303 104.239216 
L 233.673946 102.659588 
L 234.987133 100.871014 
L 236.236329 98.905781 
L 238.6006 94.574472 
L 244.403895 82.914572 
L 245.661857 80.698304 
L 246.986002 78.595938 
L 248.390794 76.639759 
L 249.890698 74.86205 
L 251.500177 73.295096 
L 253.233695 71.971183 
L 257.12174 69.615913 
L 261.493365 67.370143 
L 266.211962 65.314145 
L 271.140919 63.528189 
L 276.143628 62.092549 
L 281.083477 61.087494 
L 283.48714 60.771522 
L 285.823859 60.593297 
L 288.076558 60.562856 
L 290.228162 60.69023 
L 292.261593 60.985454 
L 294.159776 61.458563 
L 295.905635 62.11959 
L 297.509118 63.009265 
L 298.998203 64.147378 
L 300.382855 65.512546 
L 301.673039 67.083387 
L 302.878719 68.838522 
L 304.009862 70.756569 
L 306.088393 74.995875 
L 307.988353 79.630253 
L 314.382925 96.492262 
L 316.465854 100.787738 
L 316.465854 100.787738 
" style="fill:none;stroke:#fea952;stroke-linecap:square;"/>
   </g>
   <g id="line2d_18">
    <path clip-path="url(#p95f7a19814)" d="M 149.620843 295.35317 
L 149.889681 276.849375 
L 150.382686 247.168237 
L 150.158253 240.332091 
L 149.669879 228.472263 
L 149.615548 223.60019 
L 149.74317 218.670327 
L 150.126176 213.694025 
L 150.842231 208.686836 
L 151.383511 206.048098 
L 152.117828 203.355735 
L 153.027776 200.771031 
L 154.076702 198.284808 
L 156.465668 193.567462 
L 159.060001 189.134003 
L 165.158177 179.100921 
L 166.971402 175.555509 
L 168.219899 172.370111 
L 168.617372 170.93068 
L 168.986723 168.425852 
L 168.952104 167.256076 
L 168.691681 165.888158 
L 168.189642 164.339187 
L 167.450502 162.638997 
L 166.494023 160.817424 
L 164.049132 156.903106 
L 154.995945 143.663567 
L 153.618494 141.198481 
L 152.390869 138.607145 
L 151.377636 135.855864 
L 150.668284 132.91803 
L 150.379356 129.800271 
L 150.568567 126.881844 
L 151.069676 124.302949 
L 151.797603 121.750793 
L 152.725542 119.218966 
L 153.833231 116.705916 
L 155.10413 114.214367 
L 156.523827 111.750407 
L 158.079193 109.322634 
L 159.757968 106.941471 
L 161.548603 104.618654 
L 163.440281 102.366852 
L 165.423055 100.199404 
L 167.48812 98.130159 
L 169.628225 96.173434 
L 171.838249 94.344125 
L 174.116007 92.658088 
L 176.463276 91.132989 
L 178.886942 89.789994 
L 181.399802 88.656896 
L 184.315958 87.711 
L 187.48256 87.232721 
L 190.507739 87.29391 
L 193.380115 87.746691 
L 196.128782 88.483545 
L 198.78656 89.429857 
L 201.377079 90.529874 
L 206.398013 93.008238 
L 215.650653 97.905036 
L 219.554183 99.66973 
L 222.526218 100.643039 
L 224.654265 100.994814 
L 225.309871 100.818304 
L 226.105797 100.373276 
L 227.024569 99.607185 
L 228.025745 98.512625 
L 229.073594 97.112088 
L 230.145231 95.441967 
L 232.325914 91.455531 
L 238.310012 79.455661 
L 239.732768 76.963953 
L 241.294457 74.508666 
L 243.03527 72.121149 
L 245.002701 69.841397 
L 247.247196 67.726288 
L 249.487275 66.049712 
L 253.816375 63.437398 
L 258.593436 60.991281 
L 263.718248 58.765796 
L 269.087111 56.828835 
L 274.600393 55.257499 
L 277.383034 54.635916 
L 280.170218 54.140161 
L 282.954248 53.784712 
L 285.729177 53.586835 
L 288.490652 53.568 
L 291.234935 53.755831 
L 293.95622 54.186358 
L 296.640951 54.905453 
L 299.305231 55.992419 
L 301.764168 57.442037 
L 303.917741 59.157626 
L 305.797682 61.065172 
L 307.448682 63.115841 
L 308.914416 65.279051 
L 310.232126 67.534318 
L 312.538307 72.257611 
L 314.5462 77.161627 
L 320.749314 93.565049 
L 322.704452 97.597226 
L 322.704452 97.597226 
" style="fill:none;stroke:#ffffff;stroke-linecap:square;"/>
   </g>
   <g id="line2d_19">
    <path clip-path="url(#p95f7a19814)" d="M 163.634399 295.488 
L 163.90133 277.116987 
L 164.393082 246.841562 
L 164.15795 239.694616 
L 163.63847 225.986685 
L 163.657295 221.64512 
L 163.855703 217.444155 
L 164.277366 213.397214 
L 164.929001 209.642204 
L 165.359709 207.943815 
L 165.958227 206.174859 
L 167.614193 202.450914 
L 169.770579 198.523009 
L 173.580223 192.311723 
L 176.238228 187.947262 
L 178.764879 183.349455 
L 179.911063 180.937244 
L 180.936386 178.432511 
L 181.802028 175.823182 
L 182.462363 173.101886 
L 182.865799 170.271378 
L 182.951352 167.248123 
L 182.63099 164.208786 
L 181.948071 161.342167 
L 180.990997 158.636274 
L 179.827838 156.066368 
L 178.511424 153.60771 
L 175.58909 148.951547 
L 167.195415 136.766404 
L 165.472148 133.579416 
L 164.577866 131.208814 
L 164.381633 130.378339 
L 164.352893 129.409744 
L 164.57493 128.045414 
L 164.982272 126.500782 
L 165.572919 124.817431 
L 166.338328 123.032088 
L 167.266236 121.177202 
L 169.550693 117.37264 
L 172.297981 113.610249 
L 175.366969 110.074447 
L 178.60154 106.938076 
L 181.819366 104.365187 
L 184.789469 102.500544 
L 187.542156 101.246798 
L 188.534674 101.168524 
L 189.869286 101.314005 
L 191.490772 101.708021 
L 193.340182 102.342443 
L 197.534621 104.215452 
L 204.6118 107.95068 
L 209.668575 110.578341 
L 212.290938 111.808154 
L 214.992594 112.92076 
L 217.800427 113.859001 
L 220.751103 114.544365 
L 223.875444 114.861131 
L 227.154585 114.649955 
L 230.329736 113.808359 
L 233.101717 112.466697 
L 235.489683 110.781955 
L 237.540037 108.871248 
L 239.322147 106.80655 
L 240.900673 104.62994 
L 242.327427 102.369595 
L 244.875286 97.693413 
L 250.497778 86.373483 
L 252.677547 82.683211 
L 253.746319 81.158368 
L 254.778696 79.882703 
L 255.753158 78.863905 
L 256.980115 77.892654 
L 260.427104 75.794428 
L 264.393294 73.749006 
L 268.705675 71.862493 
L 273.194727 70.227544 
L 277.686862 68.927598 
L 281.996737 68.034827 
L 285.918541 67.59976 
L 289.221388 67.624629 
L 291.678601 68.011673 
L 292.506039 68.246761 
L 293.254069 68.576494 
L 294.078665 69.137129 
L 294.968029 69.959919 
L 295.897396 71.050934 
L 296.843022 72.397994 
L 297.787598 73.978821 
L 299.638479 77.734138 
L 301.430506 82.09888 
L 308.016537 99.419475 
L 310.227256 103.978251 
L 310.227256 103.978251 
" style="fill:none;stroke:#ffffff;stroke-linecap:square;"/>
   </g>
   <g id="patch_3">
    <path d="M 57.6 307.584 
L 57.6 41.472 
" style="fill:none;stroke:#000000;stroke-linecap:square;stroke-linejoin:miter;stroke-width:0.8;"/>
   </g>
   <g id="patch_4">
    <path d="M 414.72 307.584 
L 414.72 41.472 
" style="fill:none;stroke:#000000;stroke-linecap:square;stroke-linejoin:miter;stroke-width:0.8;"/>
   </g>
   <g id="patch_5">
    <path d="M 57.6 307.584 
L 414.72 307.584 
" style="fill:none;stroke:#000000;stroke-linecap:square;stroke-linejoin:miter;stroke-width:0.8;"/>
   </g>
   <g id="patch_6">
    <path d="M 57.6 41.472 
L 414.72 41.472 
" style="fill:none;stroke:#000000;stroke-linecap:square;stroke-linejoin:miter;stroke-width:0.8;"/>
   </g>
  </g>
 </g>
 <defs>
  <clipPath id="p95f7a19814">
   <rect height="266.112" width="357.12" x="57.6" y="41.472"/>
  </clipPath>
 </defs>
</svg>
