<?xml version="1.0" encoding="utf-8" standalone="no"?>
<!DOCTYPE svg PUBLIC "-//W3C//DTD SVG 1.1//EN"
  "http://www.w3.org/Graphics/SVG/1.1/DTD/svg11.dtd">
<!-- Created with matplotlib (https://matplotlib.org/) -->
<svg height="345.6pt" version="1.1" viewBox="0 0 460.8 345.6" width="460.8pt" xmlns="http://www.w3.org/2000/svg" xmlns:xlink="http://www.w3.org/1999/xlink">
 <metadata>
  <rdf:RDF xmlns:cc="http://creativecommons.org/ns#" xmlns:dc="http://purl.org/dc/elements/1.1/" xmlns:rdf="http://www.w3.org/1999/02/22-rdf-syntax-ns#">
   <cc:Work>
    <dc:type rdf:resource="http://purl.org/dc/dcmitype/StillImage"/>
    <dc:date>2021-05-28T13:44:29.974279</dc:date>
    <dc:format>image/svg+xml</dc:format>
    <dc:creator>
     <cc:Agent>
      <dc:title>Matplotlib v3.3.3, https://matplotlib.org/</dc:title>
     </cc:Agent>
    </dc:creator>
   </cc:Work>
  </rdf:RDF>
 </metadata>
 <defs>
  <style type="text/css">*{stroke-linecap:butt;stroke-linejoin:round;}</style>
 </defs>
 <g id="figure_1">
  <g id="patch_1">
   <path d="M 0 345.6 
L 460.8 345.6 
L 460.8 0 
L 0 0 
z
" style="fill:#ffffff;"/>
  </g>
  <g id="axes_1">
   <g id="patch_2">
    <path d="M 57.6 307.584 
L 414.72 307.584 
L 414.72 41.472 
L 57.6 41.472 
z
" style="fill:#7d9051;"/>
   </g>
   <g id="matplotlib.axis_1">
    <g id="xtick_1">
     <g id="line2d_1">
      <defs>
       <path d="M 0 0 
L 0 3.5 
" id="m1f1656f683" style="stroke:#000000;stroke-width:0.8;"/>
      </defs>
      <g>
       <use style="stroke:#000000;stroke-width:0.8;" x="84.137655" xlink:href="#m1f1656f683" y="307.584"/>
      </g>
     </g>
     <g id="text_1">
      <!-- −140 -->
      <g transform="translate(70.404062 322.182437)scale(0.1 -0.1)">
       <defs>
        <path d="M 10.59375 35.5 
L 73.1875 35.5 
L 73.1875 27.203125 
L 10.59375 27.203125 
z
" id="DejaVuSans-8722"/>
        <path d="M 12.40625 8.296875 
L 28.515625 8.296875 
L 28.515625 63.921875 
L 10.984375 60.40625 
L 10.984375 69.390625 
L 28.421875 72.90625 
L 38.28125 72.90625 
L 38.28125 8.296875 
L 54.390625 8.296875 
L 54.390625 0 
L 12.40625 0 
z
" id="DejaVuSans-49"/>
        <path d="M 37.796875 64.3125 
L 12.890625 25.390625 
L 37.796875 25.390625 
z
M 35.203125 72.90625 
L 47.609375 72.90625 
L 47.609375 25.390625 
L 58.015625 25.390625 
L 58.015625 17.1875 
L 47.609375 17.1875 
L 47.609375 0 
L 37.796875 0 
L 37.796875 17.1875 
L 4.890625 17.1875 
L 4.890625 26.703125 
z
" id="DejaVuSans-52"/>
        <path d="M 31.78125 66.40625 
Q 24.171875 66.40625 20.328125 58.90625 
Q 16.5 51.421875 16.5 36.375 
Q 16.5 21.390625 20.328125 13.890625 
Q 24.171875 6.390625 31.78125 6.390625 
Q 39.453125 6.390625 43.28125 13.890625 
Q 47.125 21.390625 47.125 36.375 
Q 47.125 51.421875 43.28125 58.90625 
Q 39.453125 66.40625 31.78125 66.40625 
z
M 31.78125 74.21875 
Q 44.046875 74.21875 50.515625 64.515625 
Q 56.984375 54.828125 56.984375 36.375 
Q 56.984375 17.96875 50.515625 8.265625 
Q 44.046875 -1.421875 31.78125 -1.421875 
Q 19.53125 -1.421875 13.0625 8.265625 
Q 6.59375 17.96875 6.59375 36.375 
Q 6.59375 54.828125 13.0625 64.515625 
Q 19.53125 74.21875 31.78125 74.21875 
z
" id="DejaVuSans-48"/>
       </defs>
       <use xlink:href="#DejaVuSans-8722"/>
       <use x="83.789062" xlink:href="#DejaVuSans-49"/>
       <use x="147.412109" xlink:href="#DejaVuSans-52"/>
       <use x="211.035156" xlink:href="#DejaVuSans-48"/>
      </g>
     </g>
    </g>
    <g id="xtick_2">
     <g id="line2d_2">
      <g>
       <use style="stroke:#000000;stroke-width:0.8;" x="125.376263" xlink:href="#m1f1656f683" y="307.584"/>
      </g>
     </g>
     <g id="text_2">
      <!-- −120 -->
      <g transform="translate(111.64267 322.182437)scale(0.1 -0.1)">
       <defs>
        <path d="M 19.1875 8.296875 
L 53.609375 8.296875 
L 53.609375 0 
L 7.328125 0 
L 7.328125 8.296875 
Q 12.9375 14.109375 22.625 23.890625 
Q 32.328125 33.6875 34.8125 36.53125 
Q 39.546875 41.84375 41.421875 45.53125 
Q 43.3125 49.21875 43.3125 52.78125 
Q 43.3125 58.59375 39.234375 62.25 
Q 35.15625 65.921875 28.609375 65.921875 
Q 23.96875 65.921875 18.8125 64.3125 
Q 13.671875 62.703125 7.8125 59.421875 
L 7.8125 69.390625 
Q 13.765625 71.78125 18.9375 73 
Q 24.125 74.21875 28.421875 74.21875 
Q 39.75 74.21875 46.484375 68.546875 
Q 53.21875 62.890625 53.21875 53.421875 
Q 53.21875 48.921875 51.53125 44.890625 
Q 49.859375 40.875 45.40625 35.40625 
Q 44.1875 33.984375 37.640625 27.21875 
Q 31.109375 20.453125 19.1875 8.296875 
z
" id="DejaVuSans-50"/>
       </defs>
       <use xlink:href="#DejaVuSans-8722"/>
       <use x="83.789062" xlink:href="#DejaVuSans-49"/>
       <use x="147.412109" xlink:href="#DejaVuSans-50"/>
       <use x="211.035156" xlink:href="#DejaVuSans-48"/>
      </g>
     </g>
    </g>
    <g id="xtick_3">
     <g id="line2d_3">
      <g>
       <use style="stroke:#000000;stroke-width:0.8;" x="166.614871" xlink:href="#m1f1656f683" y="307.584"/>
      </g>
     </g>
     <g id="text_3">
      <!-- −100 -->
      <g transform="translate(152.881277 322.182437)scale(0.1 -0.1)">
       <use xlink:href="#DejaVuSans-8722"/>
       <use x="83.789062" xlink:href="#DejaVuSans-49"/>
       <use x="147.412109" xlink:href="#DejaVuSans-48"/>
       <use x="211.035156" xlink:href="#DejaVuSans-48"/>
      </g>
     </g>
    </g>
    <g id="xtick_4">
     <g id="line2d_4">
      <g>
       <use style="stroke:#000000;stroke-width:0.8;" x="207.853479" xlink:href="#m1f1656f683" y="307.584"/>
      </g>
     </g>
     <g id="text_4">
      <!-- −80 -->
      <g transform="translate(197.301135 322.182437)scale(0.1 -0.1)">
       <defs>
        <path d="M 31.78125 34.625 
Q 24.75 34.625 20.71875 30.859375 
Q 16.703125 27.09375 16.703125 20.515625 
Q 16.703125 13.921875 20.71875 10.15625 
Q 24.75 6.390625 31.78125 6.390625 
Q 38.8125 6.390625 42.859375 10.171875 
Q 46.921875 13.96875 46.921875 20.515625 
Q 46.921875 27.09375 42.890625 30.859375 
Q 38.875 34.625 31.78125 34.625 
z
M 21.921875 38.8125 
Q 15.578125 40.375 12.03125 44.71875 
Q 8.5 49.078125 8.5 55.328125 
Q 8.5 64.0625 14.71875 69.140625 
Q 20.953125 74.21875 31.78125 74.21875 
Q 42.671875 74.21875 48.875 69.140625 
Q 55.078125 64.0625 55.078125 55.328125 
Q 55.078125 49.078125 51.53125 44.71875 
Q 48 40.375 41.703125 38.8125 
Q 48.828125 37.15625 52.796875 32.3125 
Q 56.78125 27.484375 56.78125 20.515625 
Q 56.78125 9.90625 50.3125 4.234375 
Q 43.84375 -1.421875 31.78125 -1.421875 
Q 19.734375 -1.421875 13.25 4.234375 
Q 6.78125 9.90625 6.78125 20.515625 
Q 6.78125 27.484375 10.78125 32.3125 
Q 14.796875 37.15625 21.921875 38.8125 
z
M 18.3125 54.390625 
Q 18.3125 48.734375 21.84375 45.5625 
Q 25.390625 42.390625 31.78125 42.390625 
Q 38.140625 42.390625 41.71875 45.5625 
Q 45.3125 48.734375 45.3125 54.390625 
Q 45.3125 60.0625 41.71875 63.234375 
Q 38.140625 66.40625 31.78125 66.40625 
Q 25.390625 66.40625 21.84375 63.234375 
Q 18.3125 60.0625 18.3125 54.390625 
z
" id="DejaVuSans-56"/>
       </defs>
       <use xlink:href="#DejaVuSans-8722"/>
       <use x="83.789062" xlink:href="#DejaVuSans-56"/>
       <use x="147.412109" xlink:href="#DejaVuSans-48"/>
      </g>
     </g>
    </g>
    <g id="xtick_5">
     <g id="line2d_5">
      <g>
       <use style="stroke:#000000;stroke-width:0.8;" x="249.092087" xlink:href="#m1f1656f683" y="307.584"/>
      </g>
     </g>
     <g id="text_5">
      <!-- −60 -->
      <g transform="translate(238.539743 322.182437)scale(0.1 -0.1)">
       <defs>
        <path d="M 33.015625 40.375 
Q 26.375 40.375 22.484375 35.828125 
Q 18.609375 31.296875 18.609375 23.390625 
Q 18.609375 15.53125 22.484375 10.953125 
Q 26.375 6.390625 33.015625 6.390625 
Q 39.65625 6.390625 43.53125 10.953125 
Q 47.40625 15.53125 47.40625 23.390625 
Q 47.40625 31.296875 43.53125 35.828125 
Q 39.65625 40.375 33.015625 40.375 
z
M 52.59375 71.296875 
L 52.59375 62.3125 
Q 48.875 64.0625 45.09375 64.984375 
Q 41.3125 65.921875 37.59375 65.921875 
Q 27.828125 65.921875 22.671875 59.328125 
Q 17.53125 52.734375 16.796875 39.40625 
Q 19.671875 43.65625 24.015625 45.921875 
Q 28.375 48.1875 33.59375 48.1875 
Q 44.578125 48.1875 50.953125 41.515625 
Q 57.328125 34.859375 57.328125 23.390625 
Q 57.328125 12.15625 50.6875 5.359375 
Q 44.046875 -1.421875 33.015625 -1.421875 
Q 20.359375 -1.421875 13.671875 8.265625 
Q 6.984375 17.96875 6.984375 36.375 
Q 6.984375 53.65625 15.1875 63.9375 
Q 23.390625 74.21875 37.203125 74.21875 
Q 40.921875 74.21875 44.703125 73.484375 
Q 48.484375 72.75 52.59375 71.296875 
z
" id="DejaVuSans-54"/>
       </defs>
       <use xlink:href="#DejaVuSans-8722"/>
       <use x="83.789062" xlink:href="#DejaVuSans-54"/>
       <use x="147.412109" xlink:href="#DejaVuSans-48"/>
      </g>
     </g>
    </g>
    <g id="xtick_6">
     <g id="line2d_6">
      <g>
       <use style="stroke:#000000;stroke-width:0.8;" x="290.330695" xlink:href="#m1f1656f683" y="307.584"/>
      </g>
     </g>
     <g id="text_6">
      <!-- −40 -->
      <g transform="translate(279.778351 322.182437)scale(0.1 -0.1)">
       <use xlink:href="#DejaVuSans-8722"/>
       <use x="83.789062" xlink:href="#DejaVuSans-52"/>
       <use x="147.412109" xlink:href="#DejaVuSans-48"/>
      </g>
     </g>
    </g>
    <g id="xtick_7">
     <g id="line2d_7">
      <g>
       <use style="stroke:#000000;stroke-width:0.8;" x="331.569303" xlink:href="#m1f1656f683" y="307.584"/>
      </g>
     </g>
     <g id="text_7">
      <!-- −20 -->
      <g transform="translate(321.016959 322.182437)scale(0.1 -0.1)">
       <use xlink:href="#DejaVuSans-8722"/>
       <use x="83.789062" xlink:href="#DejaVuSans-50"/>
       <use x="147.412109" xlink:href="#DejaVuSans-48"/>
      </g>
     </g>
    </g>
    <g id="xtick_8">
     <g id="line2d_8">
      <g>
       <use style="stroke:#000000;stroke-width:0.8;" x="372.807911" xlink:href="#m1f1656f683" y="307.584"/>
      </g>
     </g>
     <g id="text_8">
      <!-- 0 -->
      <g transform="translate(369.626661 322.182437)scale(0.1 -0.1)">
       <use xlink:href="#DejaVuSans-48"/>
      </g>
     </g>
    </g>
    <g id="xtick_9">
     <g id="line2d_9">
      <g>
       <use style="stroke:#000000;stroke-width:0.8;" x="414.046519" xlink:href="#m1f1656f683" y="307.584"/>
      </g>
     </g>
     <g id="text_9">
      <!-- 20 -->
      <g transform="translate(407.684019 322.182437)scale(0.1 -0.1)">
       <use xlink:href="#DejaVuSans-50"/>
       <use x="63.623047" xlink:href="#DejaVuSans-48"/>
      </g>
     </g>
    </g>
   </g>
   <g id="matplotlib.axis_2">
    <g id="ytick_1">
     <g id="line2d_10">
      <defs>
       <path d="M 0 0 
L -3.5 0 
" id="mf11a2d881f" style="stroke:#000000;stroke-width:0.8;"/>
      </defs>
      <g>
       <use style="stroke:#000000;stroke-width:0.8;" x="57.6" xlink:href="#mf11a2d881f" y="295.408649"/>
      </g>
     </g>
     <g id="text_10">
      <!-- 0 -->
      <g transform="translate(44.2375 299.207868)scale(0.1 -0.1)">
       <use xlink:href="#DejaVuSans-48"/>
      </g>
     </g>
    </g>
    <g id="ytick_2">
     <g id="line2d_11">
      <g>
       <use style="stroke:#000000;stroke-width:0.8;" x="57.6" xlink:href="#mf11a2d881f" y="254.170041"/>
      </g>
     </g>
     <g id="text_11">
      <!-- 20 -->
      <g transform="translate(37.875 257.96926)scale(0.1 -0.1)">
       <use xlink:href="#DejaVuSans-50"/>
       <use x="63.623047" xlink:href="#DejaVuSans-48"/>
      </g>
     </g>
    </g>
    <g id="ytick_3">
     <g id="line2d_12">
      <g>
       <use style="stroke:#000000;stroke-width:0.8;" x="57.6" xlink:href="#mf11a2d881f" y="212.931433"/>
      </g>
     </g>
     <g id="text_12">
      <!-- 40 -->
      <g transform="translate(37.875 216.730652)scale(0.1 -0.1)">
       <use xlink:href="#DejaVuSans-52"/>
       <use x="63.623047" xlink:href="#DejaVuSans-48"/>
      </g>
     </g>
    </g>
    <g id="ytick_4">
     <g id="line2d_13">
      <g>
       <use style="stroke:#000000;stroke-width:0.8;" x="57.6" xlink:href="#mf11a2d881f" y="171.692825"/>
      </g>
     </g>
     <g id="text_13">
      <!-- 60 -->
      <g transform="translate(37.875 175.492044)scale(0.1 -0.1)">
       <use xlink:href="#DejaVuSans-54"/>
       <use x="63.623047" xlink:href="#DejaVuSans-48"/>
      </g>
     </g>
    </g>
    <g id="ytick_5">
     <g id="line2d_14">
      <g>
       <use style="stroke:#000000;stroke-width:0.8;" x="57.6" xlink:href="#mf11a2d881f" y="130.454217"/>
      </g>
     </g>
     <g id="text_14">
      <!-- 80 -->
      <g transform="translate(37.875 134.253436)scale(0.1 -0.1)">
       <use xlink:href="#DejaVuSans-56"/>
       <use x="63.623047" xlink:href="#DejaVuSans-48"/>
      </g>
     </g>
    </g>
    <g id="ytick_6">
     <g id="line2d_15">
      <g>
       <use style="stroke:#000000;stroke-width:0.8;" x="57.6" xlink:href="#mf11a2d881f" y="89.21561"/>
      </g>
     </g>
     <g id="text_15">
      <!-- 100 -->
      <g transform="translate(31.5125 93.014828)scale(0.1 -0.1)">
       <use xlink:href="#DejaVuSans-49"/>
       <use x="63.623047" xlink:href="#DejaVuSans-48"/>
       <use x="127.246094" xlink:href="#DejaVuSans-48"/>
      </g>
     </g>
    </g>
    <g id="ytick_7">
     <g id="line2d_16">
      <g>
       <use style="stroke:#000000;stroke-width:0.8;" x="57.6" xlink:href="#mf11a2d881f" y="47.977002"/>
      </g>
     </g>
     <g id="text_16">
      <!-- 120 -->
      <g transform="translate(31.5125 51.77622)scale(0.1 -0.1)">
       <use xlink:href="#DejaVuSans-49"/>
       <use x="63.623047" xlink:href="#DejaVuSans-50"/>
       <use x="127.246094" xlink:href="#DejaVuSans-48"/>
      </g>
     </g>
    </g>
   </g>
   <g id="line2d_17">
    <path clip-path="url(#p9d131461a4)" d="M 372.807911 295.408649 
L 373.123225 273.70687 
L 373.793905 241.144034 
L 374.161629 235.637854 
L 375.005742 227.291934 
L 376.131226 216.16404 
L 376.459947 210.669413 
L 376.493974 205.262079 
L 376.367974 202.600775 
L 376.129297 199.972846 
L 375.764942 197.382146 
L 375.261908 194.832524 
L 374.607193 192.327831 
L 373.801293 189.863217 
L 372.860001 187.430341 
L 371.793265 185.027827 
L 369.323248 180.30837 
L 366.470817 175.693824 
L 363.315548 171.173165 
L 359.937015 166.735371 
L 354.624671 160.209939 
L 344.075854 147.488209 
L 337.125839 139.060807 
L 331.737315 132.837151 
L 326.151476 126.812394 
L 322.29732 122.957877 
L 318.324503 119.268989 
L 314.220639 115.776623 
L 309.973342 112.511672 
L 305.524377 109.549915 
L 300.855542 106.899971 
L 296.014503 104.491996 
L 291.048923 102.256143 
L 270.894485 93.637038 
L 266.021168 91.214109 
L 263.642073 89.914402 
L 261.285432 88.482317 
L 258.930257 86.873257 
L 254.229645 83.245566 
L 249.550914 79.274027 
L 240.301814 71.270209 
L 235.752804 67.723328 
L 233.501856 66.169826 
L 231.268392 64.803399 
L 229.053748 63.654385 
L 226.859258 62.753122 
L 224.686258 62.129946 
L 222.536082 61.815196 
L 220.410064 61.839208 
L 218.331889 62.267901 
L 216.318393 63.116589 
L 214.360644 64.339704 
L 212.44971 65.891676 
L 210.576658 67.726938 
L 208.732556 69.799921 
L 205.09547 74.476776 
L 195.884098 87.139234 
L 193.950022 89.473519 
L 191.964503 91.635408 
L 189.918609 93.579333 
L 187.803407 95.259725 
L 185.609965 96.631016 
L 183.329349 97.647638 
L 180.947344 98.312766 
L 178.463476 98.682876 
L 175.889434 98.792353 
L 173.236903 98.67558 
L 170.517571 98.366941 
L 167.743123 97.900819 
L 162.075629 96.633663 
L 150.593472 93.722443 
L 144.965794 92.628519 
L 142.221209 92.292321 
L 139.538375 92.142478 
L 136.928979 92.213372 
L 134.404707 92.539389 
L 131.977246 93.154911 
L 129.635661 94.02998 
L 127.357597 95.100545 
L 125.137608 96.349847 
L 122.97025 97.761131 
L 120.850078 99.31764 
L 116.729516 102.799305 
L 112.732364 106.660789 
L 106.872751 112.871933 
L 99.085342 121.231657 
L 95.104524 125.143411 
L 93.073281 126.973613 
L 93.073281 126.973613 
" style="fill:none;stroke:#fea952;stroke-linecap:square;"/>
   </g>
   <g id="line2d_18">
    <path clip-path="url(#p9d131461a4)" d="M 364.560571 295.329298 
L 364.877007 273.549373 
L 365.55942 240.676941 
L 365.948629 234.881856 
L 366.807634 226.388646 
L 367.904004 215.582895 
L 368.21426 210.486225 
L 368.25548 205.652131 
L 367.961953 201.121498 
L 367.673208 198.978625 
L 367.282296 196.918357 
L 366.767923 194.891181 
L 366.109234 192.839312 
L 365.321918 190.777311 
L 363.381028 186.623169 
L 360.99351 182.435369 
L 358.2201 178.224006 
L 355.130163 173.99701 
L 350.065089 167.63308 
L 327.369647 140.352474 
L 322.066955 134.481786 
L 318.456108 130.747635 
L 314.775505 127.190894 
L 311.017904 123.839243 
L 307.176232 120.718836 
L 303.345679 117.942142 
L 299.256338 115.426225 
L 294.866333 113.096855 
L 290.215508 110.903048 
L 282.849782 107.742295 
L 269.932953 102.272046 
L 264.68373 99.794465 
L 259.358915 96.962769 
L 256.632757 95.292421 
L 253.997075 93.482995 
L 248.94058 89.574128 
L 244.116697 85.478397 
L 235.13045 77.695309 
L 231.068003 74.511373 
L 227.470053 72.124433 
L 224.585616 70.681265 
L 222.62923 70.062391 
L 221.535362 69.868077 
L 220.688448 70.111411 
L 219.560262 70.74196 
L 218.221999 71.782822 
L 216.73894 73.208835 
L 215.156342 74.972916 
L 211.786658 79.298904 
L 202.235082 92.401354 
L 200.024561 95.052487 
L 197.645617 97.614526 
L 195.04898 100.037212 
L 192.175584 102.25322 
L 188.967996 104.164179 
L 185.54751 105.591483 
L 182.162881 106.470423 
L 178.813944 106.923148 
L 175.526693 107.032094 
L 172.306773 106.870686 
L 169.151061 106.500671 
L 166.055026 105.973937 
L 160.036367 104.625303 
L 146.341224 101.241386 
L 141.761269 100.527208 
L 139.762375 100.387157 
L 137.98542 100.393155 
L 136.431896 100.534101 
L 134.864462 100.88077 
L 133.143583 101.494523 
L 131.402509 102.288284 
L 129.638126 103.26145 
L 127.851152 104.409568 
L 126.04407 105.724462 
L 122.380112 108.807273 
L 118.658974 112.39666 
L 112.952772 118.444927 
L 104.93726 127.04371 
L 100.625429 131.270769 
L 98.594186 133.100971 
L 98.594186 133.100971 
" style="fill:none;stroke:#ffffff;stroke-linecap:square;"/>
   </g>
   <g id="line2d_19">
    <path clip-path="url(#p9d131461a4)" d="M 381.055251 295.488 
L 381.369442 273.864367 
L 382.02839 241.611126 
L 382.37463 236.393852 
L 383.203851 228.195222 
L 384.358448 216.745185 
L 384.705634 210.852602 
L 384.732467 204.872027 
L 384.581888 201.854761 
L 384.296641 198.824195 
L 383.856677 195.785666 
L 383.24152 192.74669 
L 382.446463 189.764482 
L 381.493352 186.887121 
L 380.398085 184.083371 
L 379.175882 181.350615 
L 377.841036 178.685422 
L 374.886212 173.541975 
L 371.632027 168.620888 
L 368.168269 163.892188 
L 364.579746 159.330477 
L 357.357405 150.633315 
L 350.472046 142.281134 
L 343.409883 133.718925 
L 337.858807 127.309742 
L 334.008898 123.102435 
L 330.020804 118.98509 
L 325.87753 114.990702 
L 321.561548 111.153377 
L 317.055155 107.508744 
L 312.212965 104.032761 
L 307.17259 100.954438 
L 302.040806 98.243351 
L 296.873095 95.810792 
L 289.163151 92.502839 
L 276.820627 87.283398 
L 272.197519 85.10969 
L 267.925231 82.866036 
L 265.938108 81.672213 
L 263.86344 80.26352 
L 259.51871 76.917004 
L 254.98513 73.069658 
L 245.473178 64.845109 
L 240.437604 60.935283 
L 237.806144 59.134343 
L 235.066731 57.482365 
L 232.18708 56.025025 
L 229.132901 54.824978 
L 225.880857 53.969196 
L 222.442933 53.568 
L 218.743779 53.761559 
L 215.128416 54.667725 
L 211.948338 56.121767 
L 209.161027 57.937447 
L 206.677422 60.000531 
L 204.414376 62.245041 
L 202.308769 64.626926 
L 198.404282 69.654648 
L 189.533113 81.877114 
L 187.875483 83.89455 
L 186.28339 85.656289 
L 184.788238 87.121453 
L 183.43123 88.26623 
L 182.251934 89.097854 
L 181.111189 89.703793 
L 179.731806 90.155108 
L 178.113009 90.442604 
L 176.252174 90.552612 
L 174.167033 90.480473 
L 171.88408 90.233211 
L 166.834137 89.287818 
L 161.291551 87.921721 
L 152.318012 85.657031 
L 149.179664 84.991989 
L 145.968603 84.441988 
L 142.681149 84.057434 
L 139.314375 83.897798 
L 135.872537 84.03359 
L 132.377518 84.544677 
L 129.09003 85.429052 
L 126.12774 86.565438 
L 123.312685 87.912805 
L 120.63709 89.438245 
L 118.089348 91.112695 
L 115.656087 92.910818 
L 113.323637 94.810357 
L 108.909898 98.835342 
L 104.756909 103.043154 
L 91.398861 117.270257 
L 87.552375 120.846254 
L 87.552375 120.846254 
" style="fill:none;stroke:#ffffff;stroke-linecap:square;"/>
   </g>
   <g id="patch_3">
    <path d="M 57.6 307.584 
L 57.6 41.472 
" style="fill:none;stroke:#000000;stroke-linecap:square;stroke-linejoin:miter;stroke-width:0.8;"/>
   </g>
   <g id="patch_4">
    <path d="M 414.72 307.584 
L 414.72 41.472 
" style="fill:none;stroke:#000000;stroke-linecap:square;stroke-linejoin:miter;stroke-width:0.8;"/>
   </g>
   <g id="patch_5">
    <path d="M 57.6 307.584 
L 414.72 307.584 
" style="fill:none;stroke:#000000;stroke-linecap:square;stroke-linejoin:miter;stroke-width:0.8;"/>
   </g>
   <g id="patch_6">
    <path d="M 57.6 41.472 
L 414.72 41.472 
" style="fill:none;stroke:#000000;stroke-linecap:square;stroke-linejoin:miter;stroke-width:0.8;"/>
   </g>
  </g>
 </g>
 <defs>
  <clipPath id="p9d131461a4">
   <rect height="266.112" width="357.12" x="57.6" y="41.472"/>
  </clipPath>
 </defs>
</svg>
