<?xml version="1.0" encoding="utf-8" standalone="no"?>
<!DOCTYPE svg PUBLIC "-//W3C//DTD SVG 1.1//EN"
  "http://www.w3.org/Graphics/SVG/1.1/DTD/svg11.dtd">
<!-- Created with matplotlib (https://matplotlib.org/) -->
<svg height="345.6pt" version="1.1" viewBox="0 0 460.8 345.6" width="460.8pt" xmlns="http://www.w3.org/2000/svg" xmlns:xlink="http://www.w3.org/1999/xlink">
 <metadata>
  <rdf:RDF xmlns:cc="http://creativecommons.org/ns#" xmlns:dc="http://purl.org/dc/elements/1.1/" xmlns:rdf="http://www.w3.org/1999/02/22-rdf-syntax-ns#">
   <cc:Work>
    <dc:type rdf:resource="http://purl.org/dc/dcmitype/StillImage"/>
    <dc:date>2021-06-17T23:34:06.827817</dc:date>
    <dc:format>image/svg+xml</dc:format>
    <dc:creator>
     <cc:Agent>
      <dc:title>Matplotlib v3.3.3, https://matplotlib.org/</dc:title>
     </cc:Agent>
    </dc:creator>
   </cc:Work>
  </rdf:RDF>
 </metadata>
 <defs>
  <style type="text/css">*{stroke-linecap:butt;stroke-linejoin:round;}</style>
 </defs>
 <g id="figure_1">
  <g id="patch_1">
   <path d="M 0 345.6 
L 460.8 345.6 
L 460.8 0 
L 0 0 
z
" style="fill:#ffffff;"/>
  </g>
  <g id="axes_1">
   <g id="patch_2">
    <path d="M 57.6 307.584 
L 414.72 307.584 
L 414.72 41.472 
L 57.6 41.472 
z
" style="fill:#7d9051;"/>
   </g>
   <g id="matplotlib.axis_1">
    <g id="xtick_1">
     <g id="line2d_1">
      <defs>
       <path d="M 0 0 
L 0 3.5 
" id="md84111c1f1" style="stroke:#000000;stroke-width:0.8;"/>
      </defs>
      <g>
       <use style="stroke:#000000;stroke-width:0.8;" x="81.434377" xlink:href="#md84111c1f1" y="307.584"/>
      </g>
     </g>
     <g id="text_1">
      <!-- −100 -->
      <g transform="translate(67.700783 322.182437)scale(0.1 -0.1)">
       <defs>
        <path d="M 10.59375 35.5 
L 73.1875 35.5 
L 73.1875 27.203125 
L 10.59375 27.203125 
z
" id="DejaVuSans-8722"/>
        <path d="M 12.40625 8.296875 
L 28.515625 8.296875 
L 28.515625 63.921875 
L 10.984375 60.40625 
L 10.984375 69.390625 
L 28.421875 72.90625 
L 38.28125 72.90625 
L 38.28125 8.296875 
L 54.390625 8.296875 
L 54.390625 0 
L 12.40625 0 
z
" id="DejaVuSans-49"/>
        <path d="M 31.78125 66.40625 
Q 24.171875 66.40625 20.328125 58.90625 
Q 16.5 51.421875 16.5 36.375 
Q 16.5 21.390625 20.328125 13.890625 
Q 24.171875 6.390625 31.78125 6.390625 
Q 39.453125 6.390625 43.28125 13.890625 
Q 47.125 21.390625 47.125 36.375 
Q 47.125 51.421875 43.28125 58.90625 
Q 39.453125 66.40625 31.78125 66.40625 
z
M 31.78125 74.21875 
Q 44.046875 74.21875 50.515625 64.515625 
Q 56.984375 54.828125 56.984375 36.375 
Q 56.984375 17.96875 50.515625 8.265625 
Q 44.046875 -1.421875 31.78125 -1.421875 
Q 19.53125 -1.421875 13.0625 8.265625 
Q 6.59375 17.96875 6.59375 36.375 
Q 6.59375 54.828125 13.0625 64.515625 
Q 19.53125 74.21875 31.78125 74.21875 
z
" id="DejaVuSans-48"/>
       </defs>
       <use xlink:href="#DejaVuSans-8722"/>
       <use x="83.789062" xlink:href="#DejaVuSans-49"/>
       <use x="147.412109" xlink:href="#DejaVuSans-48"/>
       <use x="211.035156" xlink:href="#DejaVuSans-48"/>
      </g>
     </g>
    </g>
    <g id="xtick_2">
     <g id="line2d_2">
      <g>
       <use style="stroke:#000000;stroke-width:0.8;" x="139.909601" xlink:href="#md84111c1f1" y="307.584"/>
      </g>
     </g>
     <g id="text_2">
      <!-- −50 -->
      <g transform="translate(129.357257 322.182437)scale(0.1 -0.1)">
       <defs>
        <path d="M 10.796875 72.90625 
L 49.515625 72.90625 
L 49.515625 64.59375 
L 19.828125 64.59375 
L 19.828125 46.734375 
Q 21.96875 47.46875 24.109375 47.828125 
Q 26.265625 48.1875 28.421875 48.1875 
Q 40.625 48.1875 47.75 41.5 
Q 54.890625 34.8125 54.890625 23.390625 
Q 54.890625 11.625 47.5625 5.09375 
Q 40.234375 -1.421875 26.90625 -1.421875 
Q 22.3125 -1.421875 17.546875 -0.640625 
Q 12.796875 0.140625 7.71875 1.703125 
L 7.71875 11.625 
Q 12.109375 9.234375 16.796875 8.0625 
Q 21.484375 6.890625 26.703125 6.890625 
Q 35.15625 6.890625 40.078125 11.328125 
Q 45.015625 15.765625 45.015625 23.390625 
Q 45.015625 31 40.078125 35.4375 
Q 35.15625 39.890625 26.703125 39.890625 
Q 22.75 39.890625 18.8125 39.015625 
Q 14.890625 38.140625 10.796875 36.28125 
z
" id="DejaVuSans-53"/>
       </defs>
       <use xlink:href="#DejaVuSans-8722"/>
       <use x="83.789062" xlink:href="#DejaVuSans-53"/>
       <use x="147.412109" xlink:href="#DejaVuSans-48"/>
      </g>
     </g>
    </g>
    <g id="xtick_3">
     <g id="line2d_3">
      <g>
       <use style="stroke:#000000;stroke-width:0.8;" x="198.384825" xlink:href="#md84111c1f1" y="307.584"/>
      </g>
     </g>
     <g id="text_3">
      <!-- 0 -->
      <g transform="translate(195.203575 322.182437)scale(0.1 -0.1)">
       <use xlink:href="#DejaVuSans-48"/>
      </g>
     </g>
    </g>
    <g id="xtick_4">
     <g id="line2d_4">
      <g>
       <use style="stroke:#000000;stroke-width:0.8;" x="256.860049" xlink:href="#md84111c1f1" y="307.584"/>
      </g>
     </g>
     <g id="text_4">
      <!-- 50 -->
      <g transform="translate(250.497549 322.182437)scale(0.1 -0.1)">
       <use xlink:href="#DejaVuSans-53"/>
       <use x="63.623047" xlink:href="#DejaVuSans-48"/>
      </g>
     </g>
    </g>
    <g id="xtick_5">
     <g id="line2d_5">
      <g>
       <use style="stroke:#000000;stroke-width:0.8;" x="315.335273" xlink:href="#md84111c1f1" y="307.584"/>
      </g>
     </g>
     <g id="text_5">
      <!-- 100 -->
      <g transform="translate(305.791523 322.182437)scale(0.1 -0.1)">
       <use xlink:href="#DejaVuSans-49"/>
       <use x="63.623047" xlink:href="#DejaVuSans-48"/>
       <use x="127.246094" xlink:href="#DejaVuSans-48"/>
      </g>
     </g>
    </g>
    <g id="xtick_6">
     <g id="line2d_6">
      <g>
       <use style="stroke:#000000;stroke-width:0.8;" x="373.810497" xlink:href="#md84111c1f1" y="307.584"/>
      </g>
     </g>
     <g id="text_6">
      <!-- 150 -->
      <g transform="translate(364.266747 322.182437)scale(0.1 -0.1)">
       <use xlink:href="#DejaVuSans-49"/>
       <use x="63.623047" xlink:href="#DejaVuSans-53"/>
       <use x="127.246094" xlink:href="#DejaVuSans-48"/>
      </g>
     </g>
    </g>
   </g>
   <g id="matplotlib.axis_2">
    <g id="ytick_1">
     <g id="line2d_7">
      <defs>
       <path d="M 0 0 
L -3.5 0 
" id="m8c59f2d710" style="stroke:#000000;stroke-width:0.8;"/>
      </defs>
      <g>
       <use style="stroke:#000000;stroke-width:0.8;" x="57.6" xlink:href="#m8c59f2d710" y="295.442993"/>
      </g>
     </g>
     <g id="text_7">
      <!-- 0 -->
      <g transform="translate(44.2375 299.242212)scale(0.1 -0.1)">
       <use xlink:href="#DejaVuSans-48"/>
      </g>
     </g>
    </g>
    <g id="ytick_2">
     <g id="line2d_8">
      <g>
       <use style="stroke:#000000;stroke-width:0.8;" x="57.6" xlink:href="#m8c59f2d710" y="236.967769"/>
      </g>
     </g>
     <g id="text_8">
      <!-- 50 -->
      <g transform="translate(37.875 240.766988)scale(0.1 -0.1)">
       <use xlink:href="#DejaVuSans-53"/>
       <use x="63.623047" xlink:href="#DejaVuSans-48"/>
      </g>
     </g>
    </g>
    <g id="ytick_3">
     <g id="line2d_9">
      <g>
       <use style="stroke:#000000;stroke-width:0.8;" x="57.6" xlink:href="#m8c59f2d710" y="178.492545"/>
      </g>
     </g>
     <g id="text_9">
      <!-- 100 -->
      <g transform="translate(31.5125 182.291764)scale(0.1 -0.1)">
       <use xlink:href="#DejaVuSans-49"/>
       <use x="63.623047" xlink:href="#DejaVuSans-48"/>
       <use x="127.246094" xlink:href="#DejaVuSans-48"/>
      </g>
     </g>
    </g>
    <g id="ytick_4">
     <g id="line2d_10">
      <g>
       <use style="stroke:#000000;stroke-width:0.8;" x="57.6" xlink:href="#m8c59f2d710" y="120.017321"/>
      </g>
     </g>
     <g id="text_10">
      <!-- 150 -->
      <g transform="translate(31.5125 123.816539)scale(0.1 -0.1)">
       <use xlink:href="#DejaVuSans-49"/>
       <use x="63.623047" xlink:href="#DejaVuSans-53"/>
       <use x="127.246094" xlink:href="#DejaVuSans-48"/>
      </g>
     </g>
    </g>
    <g id="ytick_5">
     <g id="line2d_11">
      <g>
       <use style="stroke:#000000;stroke-width:0.8;" x="57.6" xlink:href="#m8c59f2d710" y="61.542096"/>
      </g>
     </g>
     <g id="text_11">
      <!-- 200 -->
      <g transform="translate(31.5125 65.341315)scale(0.1 -0.1)">
       <defs>
        <path d="M 19.1875 8.296875 
L 53.609375 8.296875 
L 53.609375 0 
L 7.328125 0 
L 7.328125 8.296875 
Q 12.9375 14.109375 22.625 23.890625 
Q 32.328125 33.6875 34.8125 36.53125 
Q 39.546875 41.84375 41.421875 45.53125 
Q 43.3125 49.21875 43.3125 52.78125 
Q 43.3125 58.59375 39.234375 62.25 
Q 35.15625 65.921875 28.609375 65.921875 
Q 23.96875 65.921875 18.8125 64.3125 
Q 13.671875 62.703125 7.8125 59.421875 
L 7.8125 69.390625 
Q 13.765625 71.78125 18.9375 73 
Q 24.125 74.21875 28.421875 74.21875 
Q 39.75 74.21875 46.484375 68.546875 
Q 53.21875 62.890625 53.21875 53.421875 
Q 53.21875 48.921875 51.53125 44.890625 
Q 49.859375 40.875 45.40625 35.40625 
Q 44.1875 33.984375 37.640625 27.21875 
Q 31.109375 20.453125 19.1875 8.296875 
z
" id="DejaVuSans-50"/>
       </defs>
       <use xlink:href="#DejaVuSans-50"/>
       <use x="63.623047" xlink:href="#DejaVuSans-48"/>
       <use x="127.246094" xlink:href="#DejaVuSans-48"/>
      </g>
     </g>
    </g>
   </g>
   <g id="line2d_12">
    <path clip-path="url(#pb1f651f6af)" d="M 198.384825 295.442993 
L 198.654056 278.518304 
L 198.892385 263.120152 
L 198.667932 256.892227 
L 198.387366 249.107321 
L 198.457978 244.489352 
L 198.687585 241.451172 
L 199.109681 238.455666 
L 199.747398 235.499336 
L 200.961751 231.02854 
L 202.459156 226.560112 
L 204.240518 222.171888 
L 205.586292 219.3294 
L 207.058937 216.580214 
L 208.65872 213.947391 
L 210.385911 211.453994 
L 212.273215 209.138398 
L 214.482895 207.081968 
L 216.964213 205.237289 
L 219.630362 203.537905 
L 229.164165 197.77477 
L 231.587827 195.906797 
L 233.718886 193.818602 
L 235.504984 191.460676 
L 237.100282 188.903916 
L 238.540008 186.189953 
L 239.82875 183.347434 
L 240.971095 180.405003 
L 241.97163 177.391307 
L 243.216574 172.799803 
L 244.168247 168.209085 
L 244.647414 165.196785 
L 244.853089 162.176261 
L 244.701166 159.091021 
L 244.295122 155.962279 
L 243.134572 149.65916 
L 242.366689 144.975428 
L 242.097607 141.913488 
L 242.14352 138.924738 
L 242.316935 137.464439 
L 242.607901 136.030394 
L 243.020945 134.626997 
L 244.166267 131.909442 
L 245.660108 129.287357 
L 247.40992 126.732523 
L 250.312136 122.964635 
L 254.21387 117.912782 
L 255.970265 115.311361 
L 257.473614 112.621983 
L 258.654371 109.822236 
L 259.608265 106.935264 
L 260.394205 103.980911 
L 261.348969 99.457767 
L 263.906436 85.728768 
L 265.110017 81.272331 
L 266.973304 75.412054 
L 270.03844 66.699119 
L 274.197342 55.102533 
L 274.197342 55.102533 
" style="fill:none;stroke:#fea952;stroke-linecap:square;"/>
   </g>
   <g id="line2d_13">
    <path clip-path="url(#pb1f651f6af)" d="M 193.707024 295.397986 
L 193.976998 278.423547 
L 194.215638 263.229197 
L 193.994982 257.109927 
L 193.709387 249.12648 
L 193.78869 244.203681 
L 194.044389 240.881447 
L 194.522435 237.538593 
L 195.210465 234.359122 
L 196.497439 229.630765 
L 198.087703 224.894506 
L 199.988973 220.220423 
L 201.434461 217.173906 
L 203.027083 214.207872 
L 204.771969 211.344121 
L 206.675315 208.605252 
L 207.759 207.206753 
L 208.975685 205.820243 
L 210.264468 204.5535 
L 212.989017 202.321377 
L 215.81837 200.395379 
L 220.059967 197.863515 
L 225.255743 194.767392 
L 227.460826 193.230558 
L 229.306218 191.669851 
L 230.830185 189.967177 
L 232.308308 187.801406 
L 233.67139 185.440569 
L 234.914686 182.913612 
L 236.035289 180.25099 
L 237.483785 176.071045 
L 238.654987 171.762607 
L 239.555122 167.432599 
L 240.126102 163.536973 
L 240.149996 160.984254 
L 239.894214 158.204626 
L 239.144149 153.692398 
L 237.955449 147.184819 
L 237.531602 143.748089 
L 237.401724 140.191985 
L 237.498142 138.373084 
L 237.732335 136.534226 
L 238.120215 134.70959 
L 238.649887 132.960355 
L 239.298253 131.291029 
L 240.869726 128.171957 
L 242.692822 125.29735 
L 245.652163 121.317122 
L 250.381499 115.230099 
L 251.945538 112.926949 
L 253.212173 110.692225 
L 254.237651 108.280667 
L 255.103376 105.67438 
L 256.158858 101.522692 
L 257.020597 97.12494 
L 259.003827 86.21532 
L 260.188698 81.433667 
L 262.048964 75.400304 
L 264.591477 68.016562 
L 269.778173 53.568 
L 269.778173 53.568 
" style="fill:none;stroke:#ffffff;stroke-linecap:square;"/>
   </g>
   <g id="line2d_14">
    <path clip-path="url(#pb1f651f6af)" d="M 203.062626 295.488 
L 203.331114 278.613061 
L 203.569132 263.011106 
L 203.340881 256.674526 
L 203.065344 249.088162 
L 203.127265 244.775022 
L 203.330781 242.020897 
L 203.696928 239.372739 
L 204.284331 236.63955 
L 205.426062 232.426314 
L 206.83061 228.225718 
L 208.492063 224.123353 
L 210.401394 220.203925 
L 211.805708 217.733808 
L 213.309342 215.406025 
L 214.835733 213.326822 
L 216.412883 211.60562 
L 218.401033 209.95325 
L 220.740849 208.351799 
L 224.729106 205.971199 
L 229.030321 203.445713 
L 231.928784 201.54846 
L 234.744099 199.359593 
L 236.084496 198.11891 
L 237.355178 196.761598 
L 239.426708 194.010956 
L 241.195994 191.164223 
L 242.771782 188.183929 
L 244.167063 185.097547 
L 245.393059 181.931466 
L 246.459476 178.711569 
L 247.778161 173.837 
L 248.781372 168.98557 
L 249.300997 165.674297 
L 249.476735 163.854904 
L 249.480724 160.296555 
L 249.152671 156.856896 
L 248.332715 151.930108 
L 247.218582 145.869611 
L 246.866879 143.125182 
L 246.74772 140.625291 
L 246.901534 138.394652 
L 247.392004 136.293639 
L 248.288095 134.121768 
L 249.562727 131.866778 
L 251.157732 129.532122 
L 253.975296 125.874122 
L 258.04624 120.595465 
L 259.994993 117.695773 
L 261.735056 114.551742 
L 263.071091 111.363805 
L 264.113153 108.196149 
L 264.954165 105.025235 
L 265.95041 100.300732 
L 268.449155 86.845709 
L 269.586247 82.631455 
L 271.403902 76.913271 
L 274.435419 68.296125 
L 278.616512 56.637067 
L 278.616512 56.637067 
" style="fill:none;stroke:#ffffff;stroke-linecap:square;"/>
   </g>
   <g id="patch_3">
    <path d="M 57.6 307.584 
L 57.6 41.472 
" style="fill:none;stroke:#000000;stroke-linecap:square;stroke-linejoin:miter;stroke-width:0.8;"/>
   </g>
   <g id="patch_4">
    <path d="M 414.72 307.584 
L 414.72 41.472 
" style="fill:none;stroke:#000000;stroke-linecap:square;stroke-linejoin:miter;stroke-width:0.8;"/>
   </g>
   <g id="patch_5">
    <path d="M 57.6 307.584 
L 414.72 307.584 
" style="fill:none;stroke:#000000;stroke-linecap:square;stroke-linejoin:miter;stroke-width:0.8;"/>
   </g>
   <g id="patch_6">
    <path d="M 57.6 41.472 
L 414.72 41.472 
" style="fill:none;stroke:#000000;stroke-linecap:square;stroke-linejoin:miter;stroke-width:0.8;"/>
   </g>
  </g>
 </g>
 <defs>
  <clipPath id="pb1f651f6af">
   <rect height="266.112" width="357.12" x="57.6" y="41.472"/>
  </clipPath>
 </defs>
</svg>
