<?xml version="1.0" encoding="utf-8" standalone="no"?>
<!DOCTYPE svg PUBLIC "-//W3C//DTD SVG 1.1//EN"
  "http://www.w3.org/Graphics/SVG/1.1/DTD/svg11.dtd">
<!-- Created with matplotlib (https://matplotlib.org/) -->
<svg height="345.6pt" version="1.1" viewBox="0 0 460.8 345.6" width="460.8pt" xmlns="http://www.w3.org/2000/svg" xmlns:xlink="http://www.w3.org/1999/xlink">
 <metadata>
  <rdf:RDF xmlns:cc="http://creativecommons.org/ns#" xmlns:dc="http://purl.org/dc/elements/1.1/" xmlns:rdf="http://www.w3.org/1999/02/22-rdf-syntax-ns#">
   <cc:Work>
    <dc:type rdf:resource="http://purl.org/dc/dcmitype/StillImage"/>
    <dc:date>2021-07-08T15:07:46.603341</dc:date>
    <dc:format>image/svg+xml</dc:format>
    <dc:creator>
     <cc:Agent>
      <dc:title>Matplotlib v3.3.3, https://matplotlib.org/</dc:title>
     </cc:Agent>
    </dc:creator>
   </cc:Work>
  </rdf:RDF>
 </metadata>
 <defs>
  <style type="text/css">*{stroke-linecap:butt;stroke-linejoin:round;}</style>
 </defs>
 <g id="figure_1">
  <g id="patch_1">
   <path d="M 0 345.6 
L 460.8 345.6 
L 460.8 0 
L 0 0 
z
" style="fill:#ffffff;"/>
  </g>
  <g id="axes_1">
   <g id="patch_2">
    <path d="M 57.6 307.584 
L 414.72 307.584 
L 414.72 41.472 
L 57.6 41.472 
z
" style="fill:#7d9051;"/>
   </g>
   <g id="matplotlib.axis_1">
    <g id="xtick_1">
     <g id="line2d_1">
      <defs>
       <path d="M 0 0 
L 0 3.5 
" id="mbc8be1ec5b" style="stroke:#000000;stroke-width:0.8;"/>
      </defs>
      <g>
       <use style="stroke:#000000;stroke-width:0.8;" x="82.939839" xlink:href="#mbc8be1ec5b" y="307.584"/>
      </g>
     </g>
     <g id="text_1">
      <!-- 0 -->
      <g transform="translate(79.758589 322.182437)scale(0.1 -0.1)">
       <defs>
        <path d="M 31.78125 66.40625 
Q 24.171875 66.40625 20.328125 58.90625 
Q 16.5 51.421875 16.5 36.375 
Q 16.5 21.390625 20.328125 13.890625 
Q 24.171875 6.390625 31.78125 6.390625 
Q 39.453125 6.390625 43.28125 13.890625 
Q 47.125 21.390625 47.125 36.375 
Q 47.125 51.421875 43.28125 58.90625 
Q 39.453125 66.40625 31.78125 66.40625 
z
M 31.78125 74.21875 
Q 44.046875 74.21875 50.515625 64.515625 
Q 56.984375 54.828125 56.984375 36.375 
Q 56.984375 17.96875 50.515625 8.265625 
Q 44.046875 -1.421875 31.78125 -1.421875 
Q 19.53125 -1.421875 13.0625 8.265625 
Q 6.59375 17.96875 6.59375 36.375 
Q 6.59375 54.828125 13.0625 64.515625 
Q 19.53125 74.21875 31.78125 74.21875 
z
" id="DejaVuSans-48"/>
       </defs>
       <use xlink:href="#DejaVuSans-48"/>
      </g>
     </g>
    </g>
    <g id="xtick_2">
     <g id="line2d_2">
      <g>
       <use style="stroke:#000000;stroke-width:0.8;" x="128.477504" xlink:href="#mbc8be1ec5b" y="307.584"/>
      </g>
     </g>
     <g id="text_2">
      <!-- 20 -->
      <g transform="translate(122.115004 322.182437)scale(0.1 -0.1)">
       <defs>
        <path d="M 19.1875 8.296875 
L 53.609375 8.296875 
L 53.609375 0 
L 7.328125 0 
L 7.328125 8.296875 
Q 12.9375 14.109375 22.625 23.890625 
Q 32.328125 33.6875 34.8125 36.53125 
Q 39.546875 41.84375 41.421875 45.53125 
Q 43.3125 49.21875 43.3125 52.78125 
Q 43.3125 58.59375 39.234375 62.25 
Q 35.15625 65.921875 28.609375 65.921875 
Q 23.96875 65.921875 18.8125 64.3125 
Q 13.671875 62.703125 7.8125 59.421875 
L 7.8125 69.390625 
Q 13.765625 71.78125 18.9375 73 
Q 24.125 74.21875 28.421875 74.21875 
Q 39.75 74.21875 46.484375 68.546875 
Q 53.21875 62.890625 53.21875 53.421875 
Q 53.21875 48.921875 51.53125 44.890625 
Q 49.859375 40.875 45.40625 35.40625 
Q 44.1875 33.984375 37.640625 27.21875 
Q 31.109375 20.453125 19.1875 8.296875 
z
" id="DejaVuSans-50"/>
       </defs>
       <use xlink:href="#DejaVuSans-50"/>
       <use x="63.623047" xlink:href="#DejaVuSans-48"/>
      </g>
     </g>
    </g>
    <g id="xtick_3">
     <g id="line2d_3">
      <g>
       <use style="stroke:#000000;stroke-width:0.8;" x="174.015168" xlink:href="#mbc8be1ec5b" y="307.584"/>
      </g>
     </g>
     <g id="text_3">
      <!-- 40 -->
      <g transform="translate(167.652668 322.182437)scale(0.1 -0.1)">
       <defs>
        <path d="M 37.796875 64.3125 
L 12.890625 25.390625 
L 37.796875 25.390625 
z
M 35.203125 72.90625 
L 47.609375 72.90625 
L 47.609375 25.390625 
L 58.015625 25.390625 
L 58.015625 17.1875 
L 47.609375 17.1875 
L 47.609375 0 
L 37.796875 0 
L 37.796875 17.1875 
L 4.890625 17.1875 
L 4.890625 26.703125 
z
" id="DejaVuSans-52"/>
       </defs>
       <use xlink:href="#DejaVuSans-52"/>
       <use x="63.623047" xlink:href="#DejaVuSans-48"/>
      </g>
     </g>
    </g>
    <g id="xtick_4">
     <g id="line2d_4">
      <g>
       <use style="stroke:#000000;stroke-width:0.8;" x="219.552833" xlink:href="#mbc8be1ec5b" y="307.584"/>
      </g>
     </g>
     <g id="text_4">
      <!-- 60 -->
      <g transform="translate(213.190333 322.182437)scale(0.1 -0.1)">
       <defs>
        <path d="M 33.015625 40.375 
Q 26.375 40.375 22.484375 35.828125 
Q 18.609375 31.296875 18.609375 23.390625 
Q 18.609375 15.53125 22.484375 10.953125 
Q 26.375 6.390625 33.015625 6.390625 
Q 39.65625 6.390625 43.53125 10.953125 
Q 47.40625 15.53125 47.40625 23.390625 
Q 47.40625 31.296875 43.53125 35.828125 
Q 39.65625 40.375 33.015625 40.375 
z
M 52.59375 71.296875 
L 52.59375 62.3125 
Q 48.875 64.0625 45.09375 64.984375 
Q 41.3125 65.921875 37.59375 65.921875 
Q 27.828125 65.921875 22.671875 59.328125 
Q 17.53125 52.734375 16.796875 39.40625 
Q 19.671875 43.65625 24.015625 45.921875 
Q 28.375 48.1875 33.59375 48.1875 
Q 44.578125 48.1875 50.953125 41.515625 
Q 57.328125 34.859375 57.328125 23.390625 
Q 57.328125 12.15625 50.6875 5.359375 
Q 44.046875 -1.421875 33.015625 -1.421875 
Q 20.359375 -1.421875 13.671875 8.265625 
Q 6.984375 17.96875 6.984375 36.375 
Q 6.984375 53.65625 15.1875 63.9375 
Q 23.390625 74.21875 37.203125 74.21875 
Q 40.921875 74.21875 44.703125 73.484375 
Q 48.484375 72.75 52.59375 71.296875 
z
" id="DejaVuSans-54"/>
       </defs>
       <use xlink:href="#DejaVuSans-54"/>
       <use x="63.623047" xlink:href="#DejaVuSans-48"/>
      </g>
     </g>
    </g>
    <g id="xtick_5">
     <g id="line2d_5">
      <g>
       <use style="stroke:#000000;stroke-width:0.8;" x="265.090498" xlink:href="#mbc8be1ec5b" y="307.584"/>
      </g>
     </g>
     <g id="text_5">
      <!-- 80 -->
      <g transform="translate(258.727998 322.182437)scale(0.1 -0.1)">
       <defs>
        <path d="M 31.78125 34.625 
Q 24.75 34.625 20.71875 30.859375 
Q 16.703125 27.09375 16.703125 20.515625 
Q 16.703125 13.921875 20.71875 10.15625 
Q 24.75 6.390625 31.78125 6.390625 
Q 38.8125 6.390625 42.859375 10.171875 
Q 46.921875 13.96875 46.921875 20.515625 
Q 46.921875 27.09375 42.890625 30.859375 
Q 38.875 34.625 31.78125 34.625 
z
M 21.921875 38.8125 
Q 15.578125 40.375 12.03125 44.71875 
Q 8.5 49.078125 8.5 55.328125 
Q 8.5 64.0625 14.71875 69.140625 
Q 20.953125 74.21875 31.78125 74.21875 
Q 42.671875 74.21875 48.875 69.140625 
Q 55.078125 64.0625 55.078125 55.328125 
Q 55.078125 49.078125 51.53125 44.71875 
Q 48 40.375 41.703125 38.8125 
Q 48.828125 37.15625 52.796875 32.3125 
Q 56.78125 27.484375 56.78125 20.515625 
Q 56.78125 9.90625 50.3125 4.234375 
Q 43.84375 -1.421875 31.78125 -1.421875 
Q 19.734375 -1.421875 13.25 4.234375 
Q 6.78125 9.90625 6.78125 20.515625 
Q 6.78125 27.484375 10.78125 32.3125 
Q 14.796875 37.15625 21.921875 38.8125 
z
M 18.3125 54.390625 
Q 18.3125 48.734375 21.84375 45.5625 
Q 25.390625 42.390625 31.78125 42.390625 
Q 38.140625 42.390625 41.71875 45.5625 
Q 45.3125 48.734375 45.3125 54.390625 
Q 45.3125 60.0625 41.71875 63.234375 
Q 38.140625 66.40625 31.78125 66.40625 
Q 25.390625 66.40625 21.84375 63.234375 
Q 18.3125 60.0625 18.3125 54.390625 
z
" id="DejaVuSans-56"/>
       </defs>
       <use xlink:href="#DejaVuSans-56"/>
       <use x="63.623047" xlink:href="#DejaVuSans-48"/>
      </g>
     </g>
    </g>
    <g id="xtick_6">
     <g id="line2d_6">
      <g>
       <use style="stroke:#000000;stroke-width:0.8;" x="310.628163" xlink:href="#mbc8be1ec5b" y="307.584"/>
      </g>
     </g>
     <g id="text_6">
      <!-- 100 -->
      <g transform="translate(301.084413 322.182437)scale(0.1 -0.1)">
       <defs>
        <path d="M 12.40625 8.296875 
L 28.515625 8.296875 
L 28.515625 63.921875 
L 10.984375 60.40625 
L 10.984375 69.390625 
L 28.421875 72.90625 
L 38.28125 72.90625 
L 38.28125 8.296875 
L 54.390625 8.296875 
L 54.390625 0 
L 12.40625 0 
z
" id="DejaVuSans-49"/>
       </defs>
       <use xlink:href="#DejaVuSans-49"/>
       <use x="63.623047" xlink:href="#DejaVuSans-48"/>
       <use x="127.246094" xlink:href="#DejaVuSans-48"/>
      </g>
     </g>
    </g>
    <g id="xtick_7">
     <g id="line2d_7">
      <g>
       <use style="stroke:#000000;stroke-width:0.8;" x="356.165827" xlink:href="#mbc8be1ec5b" y="307.584"/>
      </g>
     </g>
     <g id="text_7">
      <!-- 120 -->
      <g transform="translate(346.622077 322.182437)scale(0.1 -0.1)">
       <use xlink:href="#DejaVuSans-49"/>
       <use x="63.623047" xlink:href="#DejaVuSans-50"/>
       <use x="127.246094" xlink:href="#DejaVuSans-48"/>
      </g>
     </g>
    </g>
    <g id="xtick_8">
     <g id="line2d_8">
      <g>
       <use style="stroke:#000000;stroke-width:0.8;" x="401.703492" xlink:href="#mbc8be1ec5b" y="307.584"/>
      </g>
     </g>
     <g id="text_8">
      <!-- 140 -->
      <g transform="translate(392.159742 322.182437)scale(0.1 -0.1)">
       <use xlink:href="#DejaVuSans-49"/>
       <use x="63.623047" xlink:href="#DejaVuSans-52"/>
       <use x="127.246094" xlink:href="#DejaVuSans-48"/>
      </g>
     </g>
    </g>
   </g>
   <g id="matplotlib.axis_2">
    <g id="ytick_1">
     <g id="line2d_9">
      <defs>
       <path d="M 0 0 
L -3.5 0 
" id="mf3332b8b68" style="stroke:#000000;stroke-width:0.8;"/>
      </defs>
      <g>
       <use style="stroke:#000000;stroke-width:0.8;" x="57.6" xlink:href="#mf3332b8b68" y="298.792662"/>
      </g>
     </g>
     <g id="text_9">
      <!-- 0 -->
      <g transform="translate(44.2375 302.591881)scale(0.1 -0.1)">
       <use xlink:href="#DejaVuSans-48"/>
      </g>
     </g>
    </g>
    <g id="ytick_2">
     <g id="line2d_10">
      <g>
       <use style="stroke:#000000;stroke-width:0.8;" x="57.6" xlink:href="#mf3332b8b68" y="253.254997"/>
      </g>
     </g>
     <g id="text_10">
      <!-- 20 -->
      <g transform="translate(37.875 257.054216)scale(0.1 -0.1)">
       <use xlink:href="#DejaVuSans-50"/>
       <use x="63.623047" xlink:href="#DejaVuSans-48"/>
      </g>
     </g>
    </g>
    <g id="ytick_3">
     <g id="line2d_11">
      <g>
       <use style="stroke:#000000;stroke-width:0.8;" x="57.6" xlink:href="#mf3332b8b68" y="207.717332"/>
      </g>
     </g>
     <g id="text_11">
      <!-- 40 -->
      <g transform="translate(37.875 211.516551)scale(0.1 -0.1)">
       <use xlink:href="#DejaVuSans-52"/>
       <use x="63.623047" xlink:href="#DejaVuSans-48"/>
      </g>
     </g>
    </g>
    <g id="ytick_4">
     <g id="line2d_12">
      <g>
       <use style="stroke:#000000;stroke-width:0.8;" x="57.6" xlink:href="#mf3332b8b68" y="162.179668"/>
      </g>
     </g>
     <g id="text_12">
      <!-- 60 -->
      <g transform="translate(37.875 165.978886)scale(0.1 -0.1)">
       <use xlink:href="#DejaVuSans-54"/>
       <use x="63.623047" xlink:href="#DejaVuSans-48"/>
      </g>
     </g>
    </g>
    <g id="ytick_5">
     <g id="line2d_13">
      <g>
       <use style="stroke:#000000;stroke-width:0.8;" x="57.6" xlink:href="#mf3332b8b68" y="116.642003"/>
      </g>
     </g>
     <g id="text_13">
      <!-- 80 -->
      <g transform="translate(37.875 120.441222)scale(0.1 -0.1)">
       <use xlink:href="#DejaVuSans-56"/>
       <use x="63.623047" xlink:href="#DejaVuSans-48"/>
      </g>
     </g>
    </g>
    <g id="ytick_6">
     <g id="line2d_14">
      <g>
       <use style="stroke:#000000;stroke-width:0.8;" x="57.6" xlink:href="#mf3332b8b68" y="71.104338"/>
      </g>
     </g>
     <g id="text_14">
      <!-- 100 -->
      <g transform="translate(31.5125 74.903557)scale(0.1 -0.1)">
       <use xlink:href="#DejaVuSans-49"/>
       <use x="63.623047" xlink:href="#DejaVuSans-48"/>
       <use x="127.246094" xlink:href="#DejaVuSans-48"/>
      </g>
     </g>
    </g>
   </g>
   <g id="line2d_15">
    <path clip-path="url(#p252fe0ba3c)" d="M 82.939839 298.792662 
L 83.232841 277.823926 
L 84.093464 226.896732 
L 84.3197 202.923125 
L 84.654947 190.947963 
L 85.087049 178.884562 
L 84.94672 169.495677 
L 84.697283 156.858626 
L 84.823825 150.652072 
L 85.282602 144.616625 
L 85.675185 141.685674 
L 86.197157 138.824628 
L 86.863958 136.042532 
L 87.691034 133.348427 
L 88.693827 130.751356 
L 89.88778 128.260364 
L 91.282417 125.873214 
L 92.866844 123.577453 
L 94.625875 121.366791 
L 96.544324 119.23494 
L 98.607003 117.175611 
L 100.798728 115.182515 
L 105.508569 111.369868 
L 110.552356 107.74669 
L 115.8086 104.262671 
L 134.124545 92.438137 
L 141.488241 87.147622 
L 153.93022 78.181536 
L 159.002616 74.765775 
L 164.148362 71.562057 
L 169.379939 68.646726 
L 174.709827 66.096126 
L 177.415537 64.981457 
L 180.150506 63.986601 
L 182.916291 63.121098 
L 188.591369 61.698957 
L 194.458376 60.61547 
L 200.470264 59.859184 
L 206.579984 59.418641 
L 212.740487 59.282388 
L 218.904726 59.438967 
L 225.02565 59.876925 
L 231.056211 60.584805 
L 236.94936 61.551152 
L 239.829703 62.127671 
L 242.669107 62.861698 
L 245.47857 63.829405 
L 248.260939 64.999988 
L 251.019064 66.342643 
L 256.473975 69.42095 
L 261.86609 72.817889 
L 269.886373 77.971654 
L 275.221201 81.087014 
L 277.893552 82.456136 
L 280.572993 83.65848 
L 283.262373 84.663241 
L 285.96454 85.439615 
L 288.682342 85.956797 
L 291.418628 86.183982 
L 294.172237 86.069314 
L 296.938889 85.608968 
L 299.716757 84.844188 
L 302.50401 83.81622 
L 305.298822 82.566309 
L 308.099363 81.135699 
L 313.71032 77.897363 
L 324.92054 71.067079 
L 327.709993 69.526434 
L 330.490548 68.135049 
L 333.260377 66.934169 
L 336.017651 65.965039 
L 338.760543 65.268903 
L 341.487222 64.887007 
L 344.195863 64.860595 
L 346.886181 65.158765 
L 349.560126 65.708599 
L 352.219213 66.488317 
L 354.864959 67.476143 
L 357.498879 68.650296 
L 360.12249 69.988999 
L 365.344846 73.072941 
L 370.544156 76.553741 
L 388.73535 89.346378 
L 393.981036 92.456968 
L 393.981036 92.456968 
" style="fill:none;stroke:#fea952;stroke-linecap:square;"/>
   </g>
   <g id="line2d_16">
    <path clip-path="url(#p252fe0ba3c)" d="M 73.832727 298.705039 
L 74.126853 277.656173 
L 74.986098 226.841561 
L 75.214126 202.734261 
L 75.555449 190.56547 
L 75.979578 178.918132 
L 75.842593 169.744715 
L 75.590156 156.772627 
L 75.732202 150.113984 
L 75.935674 146.763874 
L 76.255685 143.407523 
L 76.715541 140.05107 
L 77.340456 136.70189 
L 78.157464 133.369685 
L 79.194862 130.067846 
L 80.48096 126.814864 
L 82.023946 123.666099 
L 83.786725 120.700038 
L 85.740143 117.906714 
L 87.855956 115.274555 
L 90.109562 112.789709 
L 92.479573 110.437529 
L 94.947119 108.20356 
L 97.495146 106.0741 
L 102.769923 102.079053 
L 108.183535 98.363708 
L 116.305197 93.159149 
L 126.489257 86.629412 
L 131.253167 83.312928 
L 151.427259 68.859918 
L 156.833559 65.350896 
L 162.429685 62.047388 
L 168.243471 59.038816 
L 171.240666 57.675195 
L 174.302209 56.422582 
L 177.430538 55.294712 
L 180.556113 54.324695 
L 186.802674 52.768799 
L 193.196763 51.595743 
L 199.698462 50.784412 
L 206.268041 50.316452 
L 212.86567 50.175715 
L 219.451358 50.347854 
L 225.98504 50.820064 
L 232.426746 51.580984 
L 238.736837 52.62075 
L 242.109193 53.310014 
L 245.635139 54.250669 
L 249.010401 55.434566 
L 252.247248 56.811185 
L 255.360283 58.336335 
L 261.269998 61.678514 
L 266.827957 65.180675 
L 274.594142 70.17524 
L 279.373962 72.981354 
L 281.622179 74.146835 
L 283.760412 75.12692 
L 285.777358 75.909841 
L 287.667098 76.492635 
L 289.435919 76.880494 
L 291.039693 77.084336 
L 292.677377 77.085297 
L 294.521423 76.828135 
L 296.565305 76.299277 
L 298.785792 75.502255 
L 301.155669 74.455733 
L 303.650306 73.18881 
L 308.941096 70.13839 
L 320.517312 63.094705 
L 323.634386 61.381707 
L 326.867749 59.779064 
L 330.240364 58.341924 
L 333.777223 57.137376 
L 337.497281 56.249406 
L 341.398419 55.779907 
L 345.199114 55.808488 
L 348.720551 56.237877 
L 352.122808 56.969044 
L 355.404838 57.956087 
L 358.573166 59.157708 
L 361.638293 60.537811 
L 364.612033 62.064912 
L 367.505852 63.711084 
L 373.093163 67.260617 
L 378.462916 70.999156 
L 391.118706 80.018515 
L 395.85973 83.046352 
L 398.487273 84.542362 
L 398.487273 84.542362 
" style="fill:none;stroke:#ffffff;stroke-linecap:square;"/>
   </g>
   <g id="line2d_17">
    <path clip-path="url(#p252fe0ba3c)" d="M 92.04695 298.880285 
L 92.338829 277.991679 
L 93.20083 226.951902 
L 93.425275 203.111989 
L 93.754445 191.330456 
L 94.19452 178.850993 
L 94.050848 169.246639 
L 93.80441 156.944625 
L 93.915449 151.19016 
L 94.309519 145.825727 
L 95.053857 140.947367 
L 95.570453 138.715379 
L 96.187207 136.629008 
L 96.906694 134.687849 
L 97.751614 132.854629 
L 98.778109 131.046391 
L 99.993545 129.248193 
L 101.395795 127.459028 
L 102.979085 125.680171 
L 104.734434 123.913693 
L 108.713479 120.424628 
L 113.222702 116.996427 
L 118.139493 113.617152 
L 126.006425 108.575854 
L 134.102438 103.429752 
L 139.385972 99.87215 
L 146.863326 94.499874 
L 159.073221 85.697964 
L 163.896885 82.446483 
L 168.690538 79.456092 
L 173.452277 76.793088 
L 178.178988 74.517057 
L 182.870473 72.678489 
L 187.795361 71.236513 
L 193.023861 70.095388 
L 198.461656 69.24822 
L 204.054418 68.691755 
L 209.747811 68.420273 
L 215.48765 68.426069 
L 221.219882 68.699786 
L 226.890454 69.230592 
L 232.445105 70.006208 
L 237.550213 70.945328 
L 239.703076 71.472726 
L 241.946739 72.224244 
L 244.27463 73.188792 
L 246.677846 74.348952 
L 251.677952 77.163387 
L 256.904224 80.455103 
L 265.178604 85.768067 
L 271.068439 89.192675 
L 274.164925 90.765438 
L 277.385575 92.19004 
L 280.747388 93.416641 
L 284.261982 94.386595 
L 287.928764 95.0331 
L 291.797564 95.283628 
L 295.667097 95.05333 
L 299.356356 94.3898 
L 302.868208 93.3891 
L 306.222228 92.130185 
L 309.441975 90.676885 
L 312.54842 89.082589 
L 318.479545 85.656335 
L 329.323768 79.039452 
L 334.113348 76.491034 
L 336.28039 75.526414 
L 338.258079 74.792702 
L 340.023805 74.2884 
L 341.576025 73.994107 
L 343.192611 73.912702 
L 345.051812 74.079653 
L 346.997445 74.448153 
L 349.033589 75.020547 
L 351.156753 75.794577 
L 353.359465 76.762781 
L 355.632946 77.913087 
L 360.359689 80.694973 
L 365.285972 83.990047 
L 383.954785 97.098368 
L 389.4748 100.371574 
L 389.4748 100.371574 
" style="fill:none;stroke:#ffffff;stroke-linecap:square;"/>
   </g>
   <g id="patch_3">
    <path d="M 57.6 307.584 
L 57.6 41.472 
" style="fill:none;stroke:#000000;stroke-linecap:square;stroke-linejoin:miter;stroke-width:0.8;"/>
   </g>
   <g id="patch_4">
    <path d="M 414.72 307.584 
L 414.72 41.472 
" style="fill:none;stroke:#000000;stroke-linecap:square;stroke-linejoin:miter;stroke-width:0.8;"/>
   </g>
   <g id="patch_5">
    <path d="M 57.6 307.584 
L 414.72 307.584 
" style="fill:none;stroke:#000000;stroke-linecap:square;stroke-linejoin:miter;stroke-width:0.8;"/>
   </g>
   <g id="patch_6">
    <path d="M 57.6 41.472 
L 414.72 41.472 
" style="fill:none;stroke:#000000;stroke-linecap:square;stroke-linejoin:miter;stroke-width:0.8;"/>
   </g>
  </g>
 </g>
 <defs>
  <clipPath id="p252fe0ba3c">
   <rect height="266.112" width="357.12" x="57.6" y="41.472"/>
  </clipPath>
 </defs>
</svg>
