<?xml version="1.0" encoding="utf-8" standalone="no"?>
<!DOCTYPE svg PUBLIC "-//W3C//DTD SVG 1.1//EN"
  "http://www.w3.org/Graphics/SVG/1.1/DTD/svg11.dtd">
<!-- Created with matplotlib (https://matplotlib.org/) -->
<svg height="720pt" version="1.1" viewBox="0 0 1080 720" width="1080pt" xmlns="http://www.w3.org/2000/svg" xmlns:xlink="http://www.w3.org/1999/xlink">
 <metadata>
  <rdf:RDF xmlns:cc="http://creativecommons.org/ns#" xmlns:dc="http://purl.org/dc/elements/1.1/" xmlns:rdf="http://www.w3.org/1999/02/22-rdf-syntax-ns#">
   <cc:Work>
    <dc:type rdf:resource="http://purl.org/dc/dcmitype/StillImage"/>
    <dc:date>2021-05-26T11:44:19.166079</dc:date>
    <dc:format>image/svg+xml</dc:format>
    <dc:creator>
     <cc:Agent>
      <dc:title>Matplotlib v3.3.3, https://matplotlib.org/</dc:title>
     </cc:Agent>
    </dc:creator>
   </cc:Work>
  </rdf:RDF>
 </metadata>
 <defs>
  <style type="text/css">*{stroke-linecap:butt;stroke-linejoin:round;}</style>
 </defs>
 <g id="figure_1">
  <g id="patch_1">
   <path d="M 0 720 
L 1080 720 
L 1080 0 
L 0 0 
z
" style="fill:#ffffff;"/>
  </g>
  <g id="axes_1">
   <g id="patch_2">
    <path d="M 135 640.8 
L 515.454545 640.8 
L 515.454545 86.4 
L 135 86.4 
z
" style="fill:#7d9051;"/>
   </g>
   <g id="matplotlib.axis_1">
    <g id="xtick_1">
     <g id="line2d_1">
      <defs>
       <path d="M 0 0 
L 0 3.5 
" id="m7a0b217af6" style="stroke:#000000;stroke-width:0.8;"/>
      </defs>
      <g>
       <use style="stroke:#000000;stroke-width:0.8;" x="167.68561" xlink:href="#m7a0b217af6" y="640.8"/>
      </g>
     </g>
     <g id="text_1">
      <!-- 0 -->
      <g transform="translate(164.50436 655.398438)scale(0.1 -0.1)">
       <defs>
        <path d="M 31.78125 66.40625 
Q 24.171875 66.40625 20.328125 58.90625 
Q 16.5 51.421875 16.5 36.375 
Q 16.5 21.390625 20.328125 13.890625 
Q 24.171875 6.390625 31.78125 6.390625 
Q 39.453125 6.390625 43.28125 13.890625 
Q 47.125 21.390625 47.125 36.375 
Q 47.125 51.421875 43.28125 58.90625 
Q 39.453125 66.40625 31.78125 66.40625 
z
M 31.78125 74.21875 
Q 44.046875 74.21875 50.515625 64.515625 
Q 56.984375 54.828125 56.984375 36.375 
Q 56.984375 17.96875 50.515625 8.265625 
Q 44.046875 -1.421875 31.78125 -1.421875 
Q 19.53125 -1.421875 13.0625 8.265625 
Q 6.59375 17.96875 6.59375 36.375 
Q 6.59375 54.828125 13.0625 64.515625 
Q 19.53125 74.21875 31.78125 74.21875 
z
" id="DejaVuSans-48"/>
       </defs>
       <use xlink:href="#DejaVuSans-48"/>
      </g>
     </g>
    </g>
    <g id="xtick_2">
     <g id="line2d_2">
      <g>
       <use style="stroke:#000000;stroke-width:0.8;" x="229.615384" xlink:href="#m7a0b217af6" y="640.8"/>
      </g>
     </g>
     <g id="text_2">
      <!-- 20 -->
      <g transform="translate(223.252884 655.398438)scale(0.1 -0.1)">
       <defs>
        <path d="M 19.1875 8.296875 
L 53.609375 8.296875 
L 53.609375 0 
L 7.328125 0 
L 7.328125 8.296875 
Q 12.9375 14.109375 22.625 23.890625 
Q 32.328125 33.6875 34.8125 36.53125 
Q 39.546875 41.84375 41.421875 45.53125 
Q 43.3125 49.21875 43.3125 52.78125 
Q 43.3125 58.59375 39.234375 62.25 
Q 35.15625 65.921875 28.609375 65.921875 
Q 23.96875 65.921875 18.8125 64.3125 
Q 13.671875 62.703125 7.8125 59.421875 
L 7.8125 69.390625 
Q 13.765625 71.78125 18.9375 73 
Q 24.125 74.21875 28.421875 74.21875 
Q 39.75 74.21875 46.484375 68.546875 
Q 53.21875 62.890625 53.21875 53.421875 
Q 53.21875 48.921875 51.53125 44.890625 
Q 49.859375 40.875 45.40625 35.40625 
Q 44.1875 33.984375 37.640625 27.21875 
Q 31.109375 20.453125 19.1875 8.296875 
z
" id="DejaVuSans-50"/>
       </defs>
       <use xlink:href="#DejaVuSans-50"/>
       <use x="63.623047" xlink:href="#DejaVuSans-48"/>
      </g>
     </g>
    </g>
    <g id="xtick_3">
     <g id="line2d_3">
      <g>
       <use style="stroke:#000000;stroke-width:0.8;" x="291.545157" xlink:href="#m7a0b217af6" y="640.8"/>
      </g>
     </g>
     <g id="text_3">
      <!-- 40 -->
      <g transform="translate(285.182657 655.398438)scale(0.1 -0.1)">
       <defs>
        <path d="M 37.796875 64.3125 
L 12.890625 25.390625 
L 37.796875 25.390625 
z
M 35.203125 72.90625 
L 47.609375 72.90625 
L 47.609375 25.390625 
L 58.015625 25.390625 
L 58.015625 17.1875 
L 47.609375 17.1875 
L 47.609375 0 
L 37.796875 0 
L 37.796875 17.1875 
L 4.890625 17.1875 
L 4.890625 26.703125 
z
" id="DejaVuSans-52"/>
       </defs>
       <use xlink:href="#DejaVuSans-52"/>
       <use x="63.623047" xlink:href="#DejaVuSans-48"/>
      </g>
     </g>
    </g>
    <g id="xtick_4">
     <g id="line2d_4">
      <g>
       <use style="stroke:#000000;stroke-width:0.8;" x="353.47493" xlink:href="#m7a0b217af6" y="640.8"/>
      </g>
     </g>
     <g id="text_4">
      <!-- 60 -->
      <g transform="translate(347.11243 655.398438)scale(0.1 -0.1)">
       <defs>
        <path d="M 33.015625 40.375 
Q 26.375 40.375 22.484375 35.828125 
Q 18.609375 31.296875 18.609375 23.390625 
Q 18.609375 15.53125 22.484375 10.953125 
Q 26.375 6.390625 33.015625 6.390625 
Q 39.65625 6.390625 43.53125 10.953125 
Q 47.40625 15.53125 47.40625 23.390625 
Q 47.40625 31.296875 43.53125 35.828125 
Q 39.65625 40.375 33.015625 40.375 
z
M 52.59375 71.296875 
L 52.59375 62.3125 
Q 48.875 64.0625 45.09375 64.984375 
Q 41.3125 65.921875 37.59375 65.921875 
Q 27.828125 65.921875 22.671875 59.328125 
Q 17.53125 52.734375 16.796875 39.40625 
Q 19.671875 43.65625 24.015625 45.921875 
Q 28.375 48.1875 33.59375 48.1875 
Q 44.578125 48.1875 50.953125 41.515625 
Q 57.328125 34.859375 57.328125 23.390625 
Q 57.328125 12.15625 50.6875 5.359375 
Q 44.046875 -1.421875 33.015625 -1.421875 
Q 20.359375 -1.421875 13.671875 8.265625 
Q 6.984375 17.96875 6.984375 36.375 
Q 6.984375 53.65625 15.1875 63.9375 
Q 23.390625 74.21875 37.203125 74.21875 
Q 40.921875 74.21875 44.703125 73.484375 
Q 48.484375 72.75 52.59375 71.296875 
z
" id="DejaVuSans-54"/>
       </defs>
       <use xlink:href="#DejaVuSans-54"/>
       <use x="63.623047" xlink:href="#DejaVuSans-48"/>
      </g>
     </g>
    </g>
    <g id="xtick_5">
     <g id="line2d_5">
      <g>
       <use style="stroke:#000000;stroke-width:0.8;" x="415.404703" xlink:href="#m7a0b217af6" y="640.8"/>
      </g>
     </g>
     <g id="text_5">
      <!-- 80 -->
      <g transform="translate(409.042203 655.398438)scale(0.1 -0.1)">
       <defs>
        <path d="M 31.78125 34.625 
Q 24.75 34.625 20.71875 30.859375 
Q 16.703125 27.09375 16.703125 20.515625 
Q 16.703125 13.921875 20.71875 10.15625 
Q 24.75 6.390625 31.78125 6.390625 
Q 38.8125 6.390625 42.859375 10.171875 
Q 46.921875 13.96875 46.921875 20.515625 
Q 46.921875 27.09375 42.890625 30.859375 
Q 38.875 34.625 31.78125 34.625 
z
M 21.921875 38.8125 
Q 15.578125 40.375 12.03125 44.71875 
Q 8.5 49.078125 8.5 55.328125 
Q 8.5 64.0625 14.71875 69.140625 
Q 20.953125 74.21875 31.78125 74.21875 
Q 42.671875 74.21875 48.875 69.140625 
Q 55.078125 64.0625 55.078125 55.328125 
Q 55.078125 49.078125 51.53125 44.71875 
Q 48 40.375 41.703125 38.8125 
Q 48.828125 37.15625 52.796875 32.3125 
Q 56.78125 27.484375 56.78125 20.515625 
Q 56.78125 9.90625 50.3125 4.234375 
Q 43.84375 -1.421875 31.78125 -1.421875 
Q 19.734375 -1.421875 13.25 4.234375 
Q 6.78125 9.90625 6.78125 20.515625 
Q 6.78125 27.484375 10.78125 32.3125 
Q 14.796875 37.15625 21.921875 38.8125 
z
M 18.3125 54.390625 
Q 18.3125 48.734375 21.84375 45.5625 
Q 25.390625 42.390625 31.78125 42.390625 
Q 38.140625 42.390625 41.71875 45.5625 
Q 45.3125 48.734375 45.3125 54.390625 
Q 45.3125 60.0625 41.71875 63.234375 
Q 38.140625 66.40625 31.78125 66.40625 
Q 25.390625 66.40625 21.84375 63.234375 
Q 18.3125 60.0625 18.3125 54.390625 
z
" id="DejaVuSans-56"/>
       </defs>
       <use xlink:href="#DejaVuSans-56"/>
       <use x="63.623047" xlink:href="#DejaVuSans-48"/>
      </g>
     </g>
    </g>
    <g id="xtick_6">
     <g id="line2d_6">
      <g>
       <use style="stroke:#000000;stroke-width:0.8;" x="477.334477" xlink:href="#m7a0b217af6" y="640.8"/>
      </g>
     </g>
     <g id="text_6">
      <!-- 100 -->
      <g transform="translate(467.790727 655.398438)scale(0.1 -0.1)">
       <defs>
        <path d="M 12.40625 8.296875 
L 28.515625 8.296875 
L 28.515625 63.921875 
L 10.984375 60.40625 
L 10.984375 69.390625 
L 28.421875 72.90625 
L 38.28125 72.90625 
L 38.28125 8.296875 
L 54.390625 8.296875 
L 54.390625 0 
L 12.40625 0 
z
" id="DejaVuSans-49"/>
       </defs>
       <use xlink:href="#DejaVuSans-49"/>
       <use x="63.623047" xlink:href="#DejaVuSans-48"/>
       <use x="127.246094" xlink:href="#DejaVuSans-48"/>
      </g>
     </g>
    </g>
   </g>
   <g id="matplotlib.axis_2">
    <g id="ytick_1">
     <g id="line2d_7">
      <defs>
       <path d="M 0 0 
L -3.5 0 
" id="mf865b77b82" style="stroke:#000000;stroke-width:0.8;"/>
      </defs>
      <g>
       <use style="stroke:#000000;stroke-width:0.8;" x="135" xlink:href="#mf865b77b82" y="619.375222"/>
      </g>
     </g>
     <g id="text_7">
      <!-- 0 -->
      <g transform="translate(121.6375 623.17444)scale(0.1 -0.1)">
       <use xlink:href="#DejaVuSans-48"/>
      </g>
     </g>
    </g>
    <g id="ytick_2">
     <g id="line2d_8">
      <g>
       <use style="stroke:#000000;stroke-width:0.8;" x="135" xlink:href="#mf865b77b82" y="557.445448"/>
      </g>
     </g>
     <g id="text_8">
      <!-- 20 -->
      <g transform="translate(115.275 561.244667)scale(0.1 -0.1)">
       <use xlink:href="#DejaVuSans-50"/>
       <use x="63.623047" xlink:href="#DejaVuSans-48"/>
      </g>
     </g>
    </g>
    <g id="ytick_3">
     <g id="line2d_9">
      <g>
       <use style="stroke:#000000;stroke-width:0.8;" x="135" xlink:href="#mf865b77b82" y="495.515675"/>
      </g>
     </g>
     <g id="text_9">
      <!-- 40 -->
      <g transform="translate(115.275 499.314894)scale(0.1 -0.1)">
       <use xlink:href="#DejaVuSans-52"/>
       <use x="63.623047" xlink:href="#DejaVuSans-48"/>
      </g>
     </g>
    </g>
    <g id="ytick_4">
     <g id="line2d_10">
      <g>
       <use style="stroke:#000000;stroke-width:0.8;" x="135" xlink:href="#mf865b77b82" y="433.585902"/>
      </g>
     </g>
     <g id="text_10">
      <!-- 60 -->
      <g transform="translate(115.275 437.385121)scale(0.1 -0.1)">
       <use xlink:href="#DejaVuSans-54"/>
       <use x="63.623047" xlink:href="#DejaVuSans-48"/>
      </g>
     </g>
    </g>
    <g id="ytick_5">
     <g id="line2d_11">
      <g>
       <use style="stroke:#000000;stroke-width:0.8;" x="135" xlink:href="#mf865b77b82" y="371.656129"/>
      </g>
     </g>
     <g id="text_11">
      <!-- 80 -->
      <g transform="translate(115.275 375.455347)scale(0.1 -0.1)">
       <use xlink:href="#DejaVuSans-56"/>
       <use x="63.623047" xlink:href="#DejaVuSans-48"/>
      </g>
     </g>
    </g>
    <g id="ytick_6">
     <g id="line2d_12">
      <g>
       <use style="stroke:#000000;stroke-width:0.8;" x="135" xlink:href="#mf865b77b82" y="309.726355"/>
      </g>
     </g>
     <g id="text_12">
      <!-- 100 -->
      <g transform="translate(108.9125 313.525574)scale(0.1 -0.1)">
       <use xlink:href="#DejaVuSans-49"/>
       <use x="63.623047" xlink:href="#DejaVuSans-48"/>
       <use x="127.246094" xlink:href="#DejaVuSans-48"/>
      </g>
     </g>
    </g>
    <g id="ytick_7">
     <g id="line2d_13">
      <g>
       <use style="stroke:#000000;stroke-width:0.8;" x="135" xlink:href="#mf865b77b82" y="247.796582"/>
      </g>
     </g>
     <g id="text_13">
      <!-- 120 -->
      <g transform="translate(108.9125 251.595801)scale(0.1 -0.1)">
       <use xlink:href="#DejaVuSans-49"/>
       <use x="63.623047" xlink:href="#DejaVuSans-50"/>
       <use x="127.246094" xlink:href="#DejaVuSans-48"/>
      </g>
     </g>
    </g>
    <g id="ytick_8">
     <g id="line2d_14">
      <g>
       <use style="stroke:#000000;stroke-width:0.8;" x="135" xlink:href="#mf865b77b82" y="185.866809"/>
      </g>
     </g>
     <g id="text_14">
      <!-- 140 -->
      <g transform="translate(108.9125 189.666028)scale(0.1 -0.1)">
       <use xlink:href="#DejaVuSans-49"/>
       <use x="63.623047" xlink:href="#DejaVuSans-52"/>
       <use x="127.246094" xlink:href="#DejaVuSans-48"/>
      </g>
     </g>
    </g>
    <g id="ytick_9">
     <g id="line2d_15">
      <g>
       <use style="stroke:#000000;stroke-width:0.8;" x="135" xlink:href="#mf865b77b82" y="123.937036"/>
      </g>
     </g>
     <g id="text_15">
      <!-- 160 -->
      <g transform="translate(108.9125 127.736255)scale(0.1 -0.1)">
       <use xlink:href="#DejaVuSans-49"/>
       <use x="63.623047" xlink:href="#DejaVuSans-54"/>
       <use x="127.246094" xlink:href="#DejaVuSans-48"/>
      </g>
     </g>
    </g>
   </g>
   <g id="line2d_16">
    <path clip-path="url(#pdf4d7aec28)" d="M 167.68561 619.375222 
L 168.012387 594.93211 
L 169.01469 537.83593 
L 168.827306 533.581226 
L 168.080312 524.811183 
L 166.494537 511.330323 
L 165.489052 502.379282 
L 164.814435 493.659918 
L 164.67875 489.441414 
L 164.718838 485.345987 
L 164.965718 481.395359 
L 165.45041 477.611248 
L 166.203932 474.015373 
L 167.257304 470.629456 
L 168.641543 467.475214 
L 170.387669 464.574369 
L 172.569877 461.997792 
L 175.209108 459.774865 
L 178.256507 457.86507 
L 181.663215 456.227891 
L 185.380376 454.822809 
L 189.359133 453.609309 
L 193.550629 452.546872 
L 202.376408 450.713119 
L 215.989187 448.082536 
L 220.431115 447.075619 
L 224.743782 445.936144 
L 228.878331 444.623595 
L 232.785904 443.097454 
L 236.417644 441.317205 
L 239.724695 439.24233 
L 242.6582 436.832312 
L 245.277029 434.124563 
L 247.684878 431.196201 
L 249.900122 428.066271 
L 251.941138 424.753813 
L 253.826301 421.277872 
L 255.573987 417.657489 
L 257.202572 413.911707 
L 260.175944 406.120117 
L 262.893425 398.055444 
L 268.148742 381.71621 
L 270.980594 373.746331 
L 272.511884 369.877976 
L 275.780327 362.297208 
L 277.320823 358.289524 
L 280.190066 349.842961 
L 288.435593 323.668824 
L 289.951248 319.566146 
L 291.556629 315.634516 
L 293.270234 311.910257 
L 295.110559 308.429689 
L 297.096103 305.229132 
L 299.245361 302.344908 
L 301.576832 299.813337 
L 304.109013 297.67074 
L 306.860401 295.953438 
L 309.903659 294.796813 
L 313.273379 294.263115 
L 316.930954 294.278967 
L 320.837777 294.770992 
L 324.95524 295.665814 
L 329.244734 296.890055 
L 333.667652 298.370339 
L 342.759331 301.805528 
L 351.921414 305.384367 
L 356.432337 307.044213 
L 360.845039 308.519841 
L 365.12091 309.737874 
L 369.221345 310.624936 
L 373.107734 311.107649 
L 376.74147 311.112637 
L 380.083945 310.566522 
L 383.096552 309.395929 
L 385.777684 307.638116 
L 388.171848 305.409031 
L 390.309608 302.753322 
L 392.221529 299.715642 
L 393.938173 296.34064 
L 395.490105 292.672968 
L 396.907888 288.757276 
L 398.222087 284.638216 
L 400.661986 275.968592 
L 404.309044 262.555162 
L 405.643575 258.153557 
L 407.088468 253.861138 
L 408.674287 249.722557 
L 410.431595 245.782465 
L 412.390958 242.085512 
L 414.582937 238.67635 
L 417.024098 235.504747 
L 419.6911 232.478716 
L 422.55465 229.580273 
L 425.585454 226.791432 
L 428.754219 224.094208 
L 435.38846 218.902673 
L 452.337858 206.268194 
L 455.555756 203.656452 
L 458.647977 200.974464 
L 461.585226 198.204243 
L 464.338211 195.327806 
L 466.877639 192.327167 
L 469.174216 189.184342 
L 471.198648 185.881345 
L 472.964381 182.429707 
L 474.51659 178.85971 
L 475.873575 175.181499 
L 477.05364 171.405219 
L 478.075087 167.541016 
L 478.956217 163.599034 
L 479.715334 159.589419 
L 480.940732 151.407867 
L 481.897699 143.077522 
L 484.076592 122.133301 
L 485.247084 113.921314 
L 485.969596 109.891409 
L 485.969596 109.891409 
" style="fill:none;stroke:#fea952;stroke-linecap:square;"/>
   </g>
   <g id="line2d_17">
    <path clip-path="url(#pdf4d7aec28)" d="M 155.300229 619.256057 
L 155.62835 594.714149 
L 156.64073 538.380898 
L 156.475123 534.495248 
L 155.770323 526.180872 
L 154.193397 512.777325 
L 153.152514 503.484583 
L 152.734939 498.782174 
L 152.434883 494.058099 
L 152.293388 489.32018 
L 152.356997 484.573478 
L 152.680132 479.821747 
L 153.327761 475.070924 
L 154.377095 470.336001 
L 155.915451 465.652081 
L 158.029754 461.087585 
L 160.936069 456.569426 
L 164.590766 452.524373 
L 168.631765 449.279608 
L 172.891501 446.701353 
L 177.283774 444.642022 
L 181.767046 442.975628 
L 186.315853 441.603047 
L 190.906037 440.446541 
L 200.0893 438.540157 
L 213.250952 436.003052 
L 217.267127 435.100601 
L 220.996067 434.130785 
L 224.372349 433.086351 
L 227.334175 431.97583 
L 229.834932 430.825314 
L 231.862152 429.671945 
L 233.755042 428.221525 
L 235.709939 426.25801 
L 237.574909 424.040755 
L 239.355189 421.568867 
L 241.053366 418.848874 
L 242.672006 415.893302 
L 244.215181 412.718925 
L 245.689158 409.34518 
L 248.466206 402.083546 
L 251.097444 394.278314 
L 256.43784 377.683017 
L 259.464118 369.187529 
L 261.148288 364.950444 
L 264.219061 357.853223 
L 265.635948 354.181535 
L 268.368916 346.145355 
L 276.817127 319.376607 
L 278.484389 314.883944 
L 280.304619 310.457246 
L 282.32065 306.120743 
L 284.585468 301.900192 
L 287.164396 297.828249 
L 290.134504 293.954189 
L 293.57626 290.358037 
L 297.55083 287.163499 
L 302.460068 284.375488 
L 307.966115 282.563343 
L 313.327059 281.877277 
L 318.478616 281.990085 
L 323.468138 282.66756 
L 328.354512 283.755448 
L 333.175801 285.144478 
L 337.946193 286.74683 
L 347.297699 290.280986 
L 356.1986 293.76036 
L 360.360444 295.297646 
L 364.238334 296.607771 
L 367.739826 297.63196 
L 370.748024 298.33343 
L 375.597951 299.021491 
L 376.305457 299.0377 
L 377.337591 298.57298 
L 378.523468 297.642394 
L 379.827128 296.155634 
L 381.181589 294.100341 
L 382.531365 291.513984 
L 383.844046 288.456193 
L 385.107967 284.992475 
L 386.326718 281.186829 
L 388.692347 272.784314 
L 392.455915 258.96139 
L 393.904835 254.202119 
L 395.522536 249.429311 
L 397.362428 244.677389 
L 399.487674 239.982254 
L 401.972681 235.386902 
L 404.767726 231.121649 
L 407.732034 227.315156 
L 410.880031 223.773722 
L 414.167842 220.465816 
L 417.557191 217.359631 
L 421.013816 214.42477 
L 428.003454 208.959154 
L 444.532409 196.651186 
L 447.44025 194.299614 
L 450.149731 191.96382 
L 452.63712 189.640175 
L 454.883605 187.326413 
L 456.877172 185.019463 
L 458.613957 182.711876 
L 460.171788 180.240403 
L 461.605635 177.491008 
L 462.896217 174.572658 
L 464.05141 171.487142 
L 465.078977 168.239889 
L 465.987422 164.839124 
L 466.786447 161.295005 
L 468.101954 153.822661 
L 469.13015 145.918172 
L 470.407464 133.454136 
L 471.797423 120.510372 
L 473.055522 111.735519 
L 473.778034 107.705614 
L 473.778034 107.705614 
" style="fill:none;stroke:#ffffff;stroke-linecap:square;"/>
   </g>
   <g id="line2d_18">
    <path clip-path="url(#pdf4d7aec28)" d="M 180.070992 619.494386 
L 180.396423 595.150071 
L 181.38865 537.290961 
L 181.17949 532.667204 
L 180.390301 523.441493 
L 178.795678 509.88332 
L 177.825591 501.273982 
L 177.193988 493.261737 
L 177.064111 489.562647 
L 177.080678 486.118497 
L 177.251304 482.968971 
L 177.573059 480.151571 
L 178.03077 477.694746 
L 178.599156 475.60683 
L 179.83927 472.579312 
L 180.548987 471.471211 
L 181.786452 470.270122 
L 183.621512 469.028788 
L 186.042656 467.81376 
L 188.993707 466.669991 
L 192.402414 465.61557 
L 196.195221 464.647202 
L 204.663516 462.886081 
L 218.727423 460.16202 
L 223.595104 459.050636 
L 228.491498 457.741503 
L 233.384313 456.160839 
L 238.237632 454.219079 
L 243.000356 451.809096 
L 247.587239 448.812716 
L 251.561357 445.443099 
L 254.84412 441.991115 
L 257.794846 438.351647 
L 260.445055 434.563674 
L 262.828909 430.658752 
L 264.980595 426.662442 
L 266.932792 422.596053 
L 268.715986 418.478234 
L 270.358314 414.326213 
L 273.321999 405.986415 
L 277.298297 393.646235 
L 279.859644 385.749403 
L 282.497069 378.305133 
L 283.875479 374.805507 
L 287.341593 366.741192 
L 289.005699 362.397512 
L 292.011215 353.540568 
L 300.054059 327.961041 
L 301.418107 324.248347 
L 302.80864 320.811787 
L 304.219819 317.699771 
L 305.635651 314.959186 
L 307.02781 312.630015 
L 308.356218 310.735627 
L 309.577405 309.268638 
L 311.841203 307.030284 
L 313.219699 306.648953 
L 315.383293 306.567849 
L 318.207416 306.874424 
L 321.555967 307.57618 
L 325.313666 308.635632 
L 329.389111 309.993848 
L 338.220962 313.330071 
L 347.644227 317.008375 
L 352.50423 318.790781 
L 357.451743 320.431912 
L 362.501995 321.843789 
L 367.694665 322.916442 
L 373.090733 323.493592 
L 378.738682 323.336507 
L 384.569939 322.111553 
L 389.887647 319.754157 
L 394.217777 316.703253 
L 397.820228 313.175667 
L 400.792089 309.35101 
L 403.261469 305.330942 
L 405.344981 301.167295 
L 407.136164 296.889742 
L 408.70781 292.522077 
L 410.117456 288.089603 
L 412.631624 279.15287 
L 416.162173 266.148934 
L 417.382315 262.104994 
L 418.6544 258.292965 
L 419.986146 254.767725 
L 421.375517 251.582676 
L 422.809235 248.784122 
L 424.398148 246.231051 
L 426.316163 243.694338 
L 428.50217 241.183711 
L 430.941458 238.69473 
L 433.613716 236.223233 
L 436.494622 233.763646 
L 442.773466 228.846191 
L 460.143307 215.885202 
L 463.671262 213.013291 
L 467.146223 209.985107 
L 470.533333 206.768311 
L 473.792818 203.329198 
L 476.878105 199.634872 
L 479.734474 195.656807 
L 482.225508 191.522287 
L 484.323128 187.368406 
L 486.136963 183.146761 
L 487.695741 178.875856 
L 489.028304 174.570549 
L 490.162752 170.242908 
L 491.125988 165.903063 
L 491.943532 161.559964 
L 493.236809 152.897284 
L 494.221011 144.32165 
L 496.35576 123.75623 
L 497.438645 116.10711 
L 498.161157 112.077204 
L 498.161157 112.077204 
" style="fill:none;stroke:#ffffff;stroke-linecap:square;"/>
   </g>
   <g id="patch_3">
    <path d="M 135 640.8 
L 135 86.4 
" style="fill:none;stroke:#000000;stroke-linecap:square;stroke-linejoin:miter;stroke-width:0.8;"/>
   </g>
   <g id="patch_4">
    <path d="M 515.454545 640.8 
L 515.454545 86.4 
" style="fill:none;stroke:#000000;stroke-linecap:square;stroke-linejoin:miter;stroke-width:0.8;"/>
   </g>
   <g id="patch_5">
    <path d="M 135 640.8 
L 515.454545 640.8 
" style="fill:none;stroke:#000000;stroke-linecap:square;stroke-linejoin:miter;stroke-width:0.8;"/>
   </g>
   <g id="patch_6">
    <path d="M 135 86.4 
L 515.454545 86.4 
" style="fill:none;stroke:#000000;stroke-linecap:square;stroke-linejoin:miter;stroke-width:0.8;"/>
   </g>
   <g id="text_16">
    <!-- dist to bound ~ -0.34 -->
    <g transform="translate(261.176335 80.4)scale(0.12 -0.12)">
     <defs>
      <path d="M 45.40625 46.390625 
L 45.40625 75.984375 
L 54.390625 75.984375 
L 54.390625 0 
L 45.40625 0 
L 45.40625 8.203125 
Q 42.578125 3.328125 38.25 0.953125 
Q 33.9375 -1.421875 27.875 -1.421875 
Q 17.96875 -1.421875 11.734375 6.484375 
Q 5.515625 14.40625 5.515625 27.296875 
Q 5.515625 40.1875 11.734375 48.09375 
Q 17.96875 56 27.875 56 
Q 33.9375 56 38.25 53.625 
Q 42.578125 51.265625 45.40625 46.390625 
z
M 14.796875 27.296875 
Q 14.796875 17.390625 18.875 11.75 
Q 22.953125 6.109375 30.078125 6.109375 
Q 37.203125 6.109375 41.296875 11.75 
Q 45.40625 17.390625 45.40625 27.296875 
Q 45.40625 37.203125 41.296875 42.84375 
Q 37.203125 48.484375 30.078125 48.484375 
Q 22.953125 48.484375 18.875 42.84375 
Q 14.796875 37.203125 14.796875 27.296875 
z
" id="DejaVuSans-100"/>
      <path d="M 9.421875 54.6875 
L 18.40625 54.6875 
L 18.40625 0 
L 9.421875 0 
z
M 9.421875 75.984375 
L 18.40625 75.984375 
L 18.40625 64.59375 
L 9.421875 64.59375 
z
" id="DejaVuSans-105"/>
      <path d="M 44.28125 53.078125 
L 44.28125 44.578125 
Q 40.484375 46.53125 36.375 47.5 
Q 32.28125 48.484375 27.875 48.484375 
Q 21.1875 48.484375 17.84375 46.4375 
Q 14.5 44.390625 14.5 40.28125 
Q 14.5 37.15625 16.890625 35.375 
Q 19.28125 33.59375 26.515625 31.984375 
L 29.59375 31.296875 
Q 39.15625 29.25 43.1875 25.515625 
Q 47.21875 21.78125 47.21875 15.09375 
Q 47.21875 7.46875 41.1875 3.015625 
Q 35.15625 -1.421875 24.609375 -1.421875 
Q 20.21875 -1.421875 15.453125 -0.5625 
Q 10.6875 0.296875 5.421875 2 
L 5.421875 11.28125 
Q 10.40625 8.6875 15.234375 7.390625 
Q 20.0625 6.109375 24.8125 6.109375 
Q 31.15625 6.109375 34.5625 8.28125 
Q 37.984375 10.453125 37.984375 14.40625 
Q 37.984375 18.0625 35.515625 20.015625 
Q 33.0625 21.96875 24.703125 23.78125 
L 21.578125 24.515625 
Q 13.234375 26.265625 9.515625 29.90625 
Q 5.8125 33.546875 5.8125 39.890625 
Q 5.8125 47.609375 11.28125 51.796875 
Q 16.75 56 26.8125 56 
Q 31.78125 56 36.171875 55.265625 
Q 40.578125 54.546875 44.28125 53.078125 
z
" id="DejaVuSans-115"/>
      <path d="M 18.3125 70.21875 
L 18.3125 54.6875 
L 36.8125 54.6875 
L 36.8125 47.703125 
L 18.3125 47.703125 
L 18.3125 18.015625 
Q 18.3125 11.328125 20.140625 9.421875 
Q 21.96875 7.515625 27.59375 7.515625 
L 36.8125 7.515625 
L 36.8125 0 
L 27.59375 0 
Q 17.1875 0 13.234375 3.875 
Q 9.28125 7.765625 9.28125 18.015625 
L 9.28125 47.703125 
L 2.6875 47.703125 
L 2.6875 54.6875 
L 9.28125 54.6875 
L 9.28125 70.21875 
z
" id="DejaVuSans-116"/>
      <path id="DejaVuSans-32"/>
      <path d="M 30.609375 48.390625 
Q 23.390625 48.390625 19.1875 42.75 
Q 14.984375 37.109375 14.984375 27.296875 
Q 14.984375 17.484375 19.15625 11.84375 
Q 23.34375 6.203125 30.609375 6.203125 
Q 37.796875 6.203125 41.984375 11.859375 
Q 46.1875 17.53125 46.1875 27.296875 
Q 46.1875 37.015625 41.984375 42.703125 
Q 37.796875 48.390625 30.609375 48.390625 
z
M 30.609375 56 
Q 42.328125 56 49.015625 48.375 
Q 55.71875 40.765625 55.71875 27.296875 
Q 55.71875 13.875 49.015625 6.21875 
Q 42.328125 -1.421875 30.609375 -1.421875 
Q 18.84375 -1.421875 12.171875 6.21875 
Q 5.515625 13.875 5.515625 27.296875 
Q 5.515625 40.765625 12.171875 48.375 
Q 18.84375 56 30.609375 56 
z
" id="DejaVuSans-111"/>
      <path d="M 48.6875 27.296875 
Q 48.6875 37.203125 44.609375 42.84375 
Q 40.53125 48.484375 33.40625 48.484375 
Q 26.265625 48.484375 22.1875 42.84375 
Q 18.109375 37.203125 18.109375 27.296875 
Q 18.109375 17.390625 22.1875 11.75 
Q 26.265625 6.109375 33.40625 6.109375 
Q 40.53125 6.109375 44.609375 11.75 
Q 48.6875 17.390625 48.6875 27.296875 
z
M 18.109375 46.390625 
Q 20.953125 51.265625 25.265625 53.625 
Q 29.59375 56 35.59375 56 
Q 45.5625 56 51.78125 48.09375 
Q 58.015625 40.1875 58.015625 27.296875 
Q 58.015625 14.40625 51.78125 6.484375 
Q 45.5625 -1.421875 35.59375 -1.421875 
Q 29.59375 -1.421875 25.265625 0.953125 
Q 20.953125 3.328125 18.109375 8.203125 
L 18.109375 0 
L 9.078125 0 
L 9.078125 75.984375 
L 18.109375 75.984375 
z
" id="DejaVuSans-98"/>
      <path d="M 8.5 21.578125 
L 8.5 54.6875 
L 17.484375 54.6875 
L 17.484375 21.921875 
Q 17.484375 14.15625 20.5 10.265625 
Q 23.53125 6.390625 29.59375 6.390625 
Q 36.859375 6.390625 41.078125 11.03125 
Q 45.3125 15.671875 45.3125 23.6875 
L 45.3125 54.6875 
L 54.296875 54.6875 
L 54.296875 0 
L 45.3125 0 
L 45.3125 8.40625 
Q 42.046875 3.421875 37.71875 1 
Q 33.40625 -1.421875 27.6875 -1.421875 
Q 18.265625 -1.421875 13.375 4.4375 
Q 8.5 10.296875 8.5 21.578125 
z
M 31.109375 56 
z
" id="DejaVuSans-117"/>
      <path d="M 54.890625 33.015625 
L 54.890625 0 
L 45.90625 0 
L 45.90625 32.71875 
Q 45.90625 40.484375 42.875 44.328125 
Q 39.84375 48.1875 33.796875 48.1875 
Q 26.515625 48.1875 22.3125 43.546875 
Q 18.109375 38.921875 18.109375 30.90625 
L 18.109375 0 
L 9.078125 0 
L 9.078125 54.6875 
L 18.109375 54.6875 
L 18.109375 46.1875 
Q 21.34375 51.125 25.703125 53.5625 
Q 30.078125 56 35.796875 56 
Q 45.21875 56 50.046875 50.171875 
Q 54.890625 44.34375 54.890625 33.015625 
z
" id="DejaVuSans-110"/>
      <path d="M 73.1875 39.890625 
L 73.1875 31.203125 
Q 68.0625 27.34375 63.6875 25.6875 
Q 59.328125 24.03125 54.59375 24.03125 
Q 49.21875 24.03125 42.09375 26.90625 
Q 41.546875 27.09375 41.3125 27.203125 
Q 40.96875 27.34375 40.234375 27.59375 
Q 32.671875 30.609375 28.078125 30.609375 
Q 23.78125 30.609375 19.578125 28.734375 
Q 15.375 26.859375 10.59375 22.796875 
L 10.59375 31.5 
Q 15.71875 35.359375 20.09375 37.03125 
Q 24.46875 38.71875 29.203125 38.71875 
Q 34.578125 38.71875 41.75 35.796875 
Q 42.234375 35.59375 42.484375 35.5 
Q 42.875 35.359375 43.5625 35.109375 
Q 51.125 32.078125 55.71875 32.078125 
Q 59.90625 32.078125 64.03125 33.9375 
Q 68.171875 35.796875 73.1875 39.890625 
z
" id="DejaVuSans-126"/>
      <path d="M 4.890625 31.390625 
L 31.203125 31.390625 
L 31.203125 23.390625 
L 4.890625 23.390625 
z
" id="DejaVuSans-45"/>
      <path d="M 10.6875 12.40625 
L 21 12.40625 
L 21 0 
L 10.6875 0 
z
" id="DejaVuSans-46"/>
      <path d="M 40.578125 39.3125 
Q 47.65625 37.796875 51.625 33 
Q 55.609375 28.21875 55.609375 21.1875 
Q 55.609375 10.40625 48.1875 4.484375 
Q 40.765625 -1.421875 27.09375 -1.421875 
Q 22.515625 -1.421875 17.65625 -0.515625 
Q 12.796875 0.390625 7.625 2.203125 
L 7.625 11.71875 
Q 11.71875 9.328125 16.59375 8.109375 
Q 21.484375 6.890625 26.8125 6.890625 
Q 36.078125 6.890625 40.9375 10.546875 
Q 45.796875 14.203125 45.796875 21.1875 
Q 45.796875 27.640625 41.28125 31.265625 
Q 36.765625 34.90625 28.71875 34.90625 
L 20.21875 34.90625 
L 20.21875 43.015625 
L 29.109375 43.015625 
Q 36.375 43.015625 40.234375 45.921875 
Q 44.09375 48.828125 44.09375 54.296875 
Q 44.09375 59.90625 40.109375 62.90625 
Q 36.140625 65.921875 28.71875 65.921875 
Q 24.65625 65.921875 20.015625 65.03125 
Q 15.375 64.15625 9.8125 62.3125 
L 9.8125 71.09375 
Q 15.4375 72.65625 20.34375 73.4375 
Q 25.25 74.21875 29.59375 74.21875 
Q 40.828125 74.21875 47.359375 69.109375 
Q 53.90625 64.015625 53.90625 55.328125 
Q 53.90625 49.265625 50.4375 45.09375 
Q 46.96875 40.921875 40.578125 39.3125 
z
" id="DejaVuSans-51"/>
     </defs>
     <use xlink:href="#DejaVuSans-100"/>
     <use x="63.476562" xlink:href="#DejaVuSans-105"/>
     <use x="91.259766" xlink:href="#DejaVuSans-115"/>
     <use x="143.359375" xlink:href="#DejaVuSans-116"/>
     <use x="182.568359" xlink:href="#DejaVuSans-32"/>
     <use x="214.355469" xlink:href="#DejaVuSans-116"/>
     <use x="253.564453" xlink:href="#DejaVuSans-111"/>
     <use x="314.746094" xlink:href="#DejaVuSans-32"/>
     <use x="346.533203" xlink:href="#DejaVuSans-98"/>
     <use x="410.009766" xlink:href="#DejaVuSans-111"/>
     <use x="471.191406" xlink:href="#DejaVuSans-117"/>
     <use x="534.570312" xlink:href="#DejaVuSans-110"/>
     <use x="597.949219" xlink:href="#DejaVuSans-100"/>
     <use x="661.425781" xlink:href="#DejaVuSans-32"/>
     <use x="693.212891" xlink:href="#DejaVuSans-126"/>
     <use x="777.001953" xlink:href="#DejaVuSans-32"/>
     <use x="808.789062" xlink:href="#DejaVuSans-45"/>
     <use x="844.873047" xlink:href="#DejaVuSans-48"/>
     <use x="908.496094" xlink:href="#DejaVuSans-46"/>
     <use x="940.283203" xlink:href="#DejaVuSans-51"/>
     <use x="1003.90625" xlink:href="#DejaVuSans-52"/>
    </g>
   </g>
  </g>
  <g id="axes_2">
   <g id="patch_7">
    <path d="M 591.545455 640.8 
L 972 640.8 
L 972 86.4 
L 591.545455 86.4 
z
" style="fill:#7d9051;"/>
   </g>
   <g id="matplotlib.axis_3">
    <g id="xtick_7">
     <g id="line2d_19">
      <g>
       <use style="stroke:#000000;stroke-width:0.8;" x="624.231065" xlink:href="#m7a0b217af6" y="640.8"/>
      </g>
     </g>
     <g id="text_17">
      <!-- 0 -->
      <g transform="translate(621.049815 655.398438)scale(0.1 -0.1)">
       <use xlink:href="#DejaVuSans-48"/>
      </g>
     </g>
    </g>
    <g id="xtick_8">
     <g id="line2d_20">
      <g>
       <use style="stroke:#000000;stroke-width:0.8;" x="686.160838" xlink:href="#m7a0b217af6" y="640.8"/>
      </g>
     </g>
     <g id="text_18">
      <!-- 20 -->
      <g transform="translate(679.798338 655.398438)scale(0.1 -0.1)">
       <use xlink:href="#DejaVuSans-50"/>
       <use x="63.623047" xlink:href="#DejaVuSans-48"/>
      </g>
     </g>
    </g>
    <g id="xtick_9">
     <g id="line2d_21">
      <g>
       <use style="stroke:#000000;stroke-width:0.8;" x="748.090611" xlink:href="#m7a0b217af6" y="640.8"/>
      </g>
     </g>
     <g id="text_19">
      <!-- 40 -->
      <g transform="translate(741.728111 655.398438)scale(0.1 -0.1)">
       <use xlink:href="#DejaVuSans-52"/>
       <use x="63.623047" xlink:href="#DejaVuSans-48"/>
      </g>
     </g>
    </g>
    <g id="xtick_10">
     <g id="line2d_22">
      <g>
       <use style="stroke:#000000;stroke-width:0.8;" x="810.020385" xlink:href="#m7a0b217af6" y="640.8"/>
      </g>
     </g>
     <g id="text_20">
      <!-- 60 -->
      <g transform="translate(803.657885 655.398438)scale(0.1 -0.1)">
       <use xlink:href="#DejaVuSans-54"/>
       <use x="63.623047" xlink:href="#DejaVuSans-48"/>
      </g>
     </g>
    </g>
    <g id="xtick_11">
     <g id="line2d_23">
      <g>
       <use style="stroke:#000000;stroke-width:0.8;" x="871.950158" xlink:href="#m7a0b217af6" y="640.8"/>
      </g>
     </g>
     <g id="text_21">
      <!-- 80 -->
      <g transform="translate(865.587658 655.398438)scale(0.1 -0.1)">
       <use xlink:href="#DejaVuSans-56"/>
       <use x="63.623047" xlink:href="#DejaVuSans-48"/>
      </g>
     </g>
    </g>
    <g id="xtick_12">
     <g id="line2d_24">
      <g>
       <use style="stroke:#000000;stroke-width:0.8;" x="933.879931" xlink:href="#m7a0b217af6" y="640.8"/>
      </g>
     </g>
     <g id="text_22">
      <!-- 100 -->
      <g transform="translate(924.336181 655.398438)scale(0.1 -0.1)">
       <use xlink:href="#DejaVuSans-49"/>
       <use x="63.623047" xlink:href="#DejaVuSans-48"/>
       <use x="127.246094" xlink:href="#DejaVuSans-48"/>
      </g>
     </g>
    </g>
   </g>
   <g id="matplotlib.axis_4">
    <g id="ytick_10">
     <g id="line2d_25">
      <g>
       <use style="stroke:#000000;stroke-width:0.8;" x="591.545455" xlink:href="#mf865b77b82" y="619.375222"/>
      </g>
     </g>
     <g id="text_23">
      <!-- 0 -->
      <g transform="translate(578.182955 623.17444)scale(0.1 -0.1)">
       <use xlink:href="#DejaVuSans-48"/>
      </g>
     </g>
    </g>
    <g id="ytick_11">
     <g id="line2d_26">
      <g>
       <use style="stroke:#000000;stroke-width:0.8;" x="591.545455" xlink:href="#mf865b77b82" y="557.445448"/>
      </g>
     </g>
     <g id="text_24">
      <!-- 20 -->
      <g transform="translate(571.820455 561.244667)scale(0.1 -0.1)">
       <use xlink:href="#DejaVuSans-50"/>
       <use x="63.623047" xlink:href="#DejaVuSans-48"/>
      </g>
     </g>
    </g>
    <g id="ytick_12">
     <g id="line2d_27">
      <g>
       <use style="stroke:#000000;stroke-width:0.8;" x="591.545455" xlink:href="#mf865b77b82" y="495.515675"/>
      </g>
     </g>
     <g id="text_25">
      <!-- 40 -->
      <g transform="translate(571.820455 499.314894)scale(0.1 -0.1)">
       <use xlink:href="#DejaVuSans-52"/>
       <use x="63.623047" xlink:href="#DejaVuSans-48"/>
      </g>
     </g>
    </g>
    <g id="ytick_13">
     <g id="line2d_28">
      <g>
       <use style="stroke:#000000;stroke-width:0.8;" x="591.545455" xlink:href="#mf865b77b82" y="433.585902"/>
      </g>
     </g>
     <g id="text_26">
      <!-- 60 -->
      <g transform="translate(571.820455 437.385121)scale(0.1 -0.1)">
       <use xlink:href="#DejaVuSans-54"/>
       <use x="63.623047" xlink:href="#DejaVuSans-48"/>
      </g>
     </g>
    </g>
    <g id="ytick_14">
     <g id="line2d_29">
      <g>
       <use style="stroke:#000000;stroke-width:0.8;" x="591.545455" xlink:href="#mf865b77b82" y="371.656129"/>
      </g>
     </g>
     <g id="text_27">
      <!-- 80 -->
      <g transform="translate(571.820455 375.455347)scale(0.1 -0.1)">
       <use xlink:href="#DejaVuSans-56"/>
       <use x="63.623047" xlink:href="#DejaVuSans-48"/>
      </g>
     </g>
    </g>
    <g id="ytick_15">
     <g id="line2d_30">
      <g>
       <use style="stroke:#000000;stroke-width:0.8;" x="591.545455" xlink:href="#mf865b77b82" y="309.726355"/>
      </g>
     </g>
     <g id="text_28">
      <!-- 100 -->
      <g transform="translate(565.457955 313.525574)scale(0.1 -0.1)">
       <use xlink:href="#DejaVuSans-49"/>
       <use x="63.623047" xlink:href="#DejaVuSans-48"/>
       <use x="127.246094" xlink:href="#DejaVuSans-48"/>
      </g>
     </g>
    </g>
    <g id="ytick_16">
     <g id="line2d_31">
      <g>
       <use style="stroke:#000000;stroke-width:0.8;" x="591.545455" xlink:href="#mf865b77b82" y="247.796582"/>
      </g>
     </g>
     <g id="text_29">
      <!-- 120 -->
      <g transform="translate(565.457955 251.595801)scale(0.1 -0.1)">
       <use xlink:href="#DejaVuSans-49"/>
       <use x="63.623047" xlink:href="#DejaVuSans-50"/>
       <use x="127.246094" xlink:href="#DejaVuSans-48"/>
      </g>
     </g>
    </g>
    <g id="ytick_17">
     <g id="line2d_32">
      <g>
       <use style="stroke:#000000;stroke-width:0.8;" x="591.545455" xlink:href="#mf865b77b82" y="185.866809"/>
      </g>
     </g>
     <g id="text_30">
      <!-- 140 -->
      <g transform="translate(565.457955 189.666028)scale(0.1 -0.1)">
       <use xlink:href="#DejaVuSans-49"/>
       <use x="63.623047" xlink:href="#DejaVuSans-52"/>
       <use x="127.246094" xlink:href="#DejaVuSans-48"/>
      </g>
     </g>
    </g>
    <g id="ytick_18">
     <g id="line2d_33">
      <g>
       <use style="stroke:#000000;stroke-width:0.8;" x="591.545455" xlink:href="#mf865b77b82" y="123.937036"/>
      </g>
     </g>
     <g id="text_31">
      <!-- 160 -->
      <g transform="translate(565.457955 127.736255)scale(0.1 -0.1)">
       <use xlink:href="#DejaVuSans-49"/>
       <use x="63.623047" xlink:href="#DejaVuSans-54"/>
       <use x="127.246094" xlink:href="#DejaVuSans-48"/>
      </g>
     </g>
    </g>
   </g>
   <g id="line2d_34">
    <path clip-path="url(#p82ebdcbb71)" d="M 624.231065 619.375222 
L 624.557841 594.93211 
L 625.560145 537.83593 
L 625.372761 533.581226 
L 624.625766 524.811183 
L 623.039992 511.330323 
L 622.034507 502.379282 
L 621.35989 493.659918 
L 621.224204 489.441414 
L 621.264292 485.345987 
L 621.511173 481.395359 
L 621.995865 477.611248 
L 622.749387 474.015373 
L 623.802758 470.629456 
L 625.186998 467.475214 
L 626.933124 464.574369 
L 629.115331 461.997792 
L 631.754563 459.774865 
L 634.801961 457.86507 
L 638.20867 456.227891 
L 641.925831 454.822809 
L 645.904588 453.609309 
L 650.096084 452.546872 
L 658.921862 450.713119 
L 672.534642 448.082536 
L 676.97657 447.075619 
L 681.289237 445.936144 
L 685.423785 444.623595 
L 689.331358 443.097454 
L 692.963099 441.317205 
L 696.27015 439.24233 
L 699.203654 436.832312 
L 701.822484 434.124563 
L 704.230332 431.196201 
L 706.445577 428.066271 
L 708.486592 424.753813 
L 710.371755 421.277872 
L 712.119441 417.657489 
L 713.748027 413.911707 
L 716.721399 406.120117 
L 719.438879 398.055444 
L 724.694196 381.71621 
L 727.526048 373.746331 
L 729.057338 369.877976 
L 732.325782 362.297208 
L 733.866278 358.289524 
L 736.73552 349.842961 
L 744.981048 323.668824 
L 746.496703 319.566146 
L 748.102084 315.634516 
L 749.815689 311.910257 
L 751.656014 308.429689 
L 753.641557 305.229132 
L 755.790816 302.344908 
L 758.122287 299.813337 
L 760.654468 297.67074 
L 763.405856 295.953438 
L 766.449113 294.796813 
L 769.818834 294.263115 
L 773.476409 294.278967 
L 777.383232 294.770992 
L 781.500694 295.665814 
L 785.790188 296.890055 
L 790.213107 298.370339 
L 799.304785 301.805528 
L 808.466868 305.384367 
L 812.977792 307.044213 
L 817.390493 308.519841 
L 821.666365 309.737874 
L 825.766799 310.624936 
L 829.653188 311.107649 
L 833.286924 311.112637 
L 836.6294 310.566522 
L 839.642007 309.395929 
L 842.323138 307.638116 
L 844.717303 305.409031 
L 846.855063 302.753322 
L 848.766983 299.715642 
L 850.483628 296.34064 
L 852.035559 292.672968 
L 853.453343 288.757276 
L 854.767542 284.638216 
L 857.20744 275.968592 
L 860.854499 262.555162 
L 862.189029 258.153557 
L 863.633922 253.861138 
L 865.219741 249.722557 
L 866.97705 245.782465 
L 868.936412 242.085512 
L 871.128392 238.67635 
L 873.569553 235.504747 
L 876.236555 232.478716 
L 879.100104 229.580273 
L 882.130908 226.791432 
L 885.299674 224.094208 
L 891.933915 218.902673 
L 908.883312 206.268194 
L 912.101211 203.656452 
L 915.193431 200.974464 
L 918.130681 198.204243 
L 920.883666 195.327806 
L 923.423093 192.327167 
L 925.71967 189.184342 
L 927.744103 185.881345 
L 929.509836 182.429707 
L 931.062044 178.85971 
L 932.41903 175.181499 
L 933.599095 171.405219 
L 934.620542 167.541016 
L 935.501672 163.599034 
L 936.260788 159.589419 
L 937.486186 151.407867 
L 938.443153 143.077522 
L 940.622046 122.133301 
L 941.792538 113.921314 
L 942.51505 109.891409 
L 942.51505 109.891409 
" style="fill:none;stroke:#fea952;stroke-linecap:square;"/>
   </g>
   <g id="line2d_35">
    <path clip-path="url(#p82ebdcbb71)" d="M 611.845684 619.256057 
L 612.173804 594.714149 
L 613.186185 538.380898 
L 613.020577 534.495248 
L 612.315778 526.180872 
L 610.738851 512.777325 
L 609.697968 503.484583 
L 609.280394 498.782174 
L 608.980337 494.058099 
L 608.838843 489.32018 
L 608.902452 484.573478 
L 609.225587 479.821747 
L 609.873215 475.070924 
L 610.922549 470.336001 
L 612.460906 465.652081 
L 614.575209 461.087585 
L 617.481523 456.569426 
L 621.13622 452.524373 
L 625.177219 449.279608 
L 629.436956 446.701353 
L 633.829228 444.642022 
L 638.312501 442.975628 
L 642.861307 441.603047 
L 647.451492 440.446541 
L 656.634754 438.540157 
L 669.796406 436.003052 
L 673.812581 435.100601 
L 677.541521 434.130785 
L 680.917803 433.086351 
L 683.87963 431.97583 
L 686.380387 430.825314 
L 688.407606 429.671945 
L 690.300496 428.221525 
L 692.255393 426.25801 
L 694.120364 424.040755 
L 695.900644 421.568867 
L 697.598821 418.848874 
L 699.217461 415.893302 
L 700.760636 412.718925 
L 702.234612 409.34518 
L 705.011661 402.083546 
L 707.642898 394.278314 
L 712.983294 377.683017 
L 716.009573 369.187529 
L 717.693743 364.950444 
L 720.764516 357.853223 
L 722.181403 354.181535 
L 724.914371 346.145355 
L 733.362582 319.376607 
L 735.029843 314.883944 
L 736.850073 310.457246 
L 738.866104 306.120743 
L 741.130923 301.900192 
L 743.70985 297.828249 
L 746.679959 293.954189 
L 750.121714 290.358037 
L 754.096285 287.163499 
L 759.005522 284.375488 
L 764.511569 282.563343 
L 769.872514 281.877277 
L 775.02407 281.990085 
L 780.013593 282.66756 
L 784.899967 283.755448 
L 789.721256 285.144478 
L 794.491648 286.74683 
L 803.843154 290.280986 
L 812.744055 293.76036 
L 816.905899 295.297646 
L 820.783789 296.607771 
L 824.28528 297.63196 
L 827.293478 298.33343 
L 832.143406 299.021491 
L 832.850912 299.0377 
L 833.883046 298.57298 
L 835.068923 297.642394 
L 836.372583 296.155634 
L 837.727043 294.100341 
L 839.07682 291.513984 
L 840.389501 288.456193 
L 841.653421 284.992475 
L 842.872173 281.186829 
L 845.237802 272.784314 
L 849.001369 258.96139 
L 850.450289 254.202119 
L 852.06799 249.429311 
L 853.907882 244.677389 
L 856.033128 239.982254 
L 858.518135 235.386902 
L 861.313181 231.121649 
L 864.277488 227.315156 
L 867.425485 223.773722 
L 870.713296 220.465816 
L 874.102646 217.359631 
L 877.55927 214.42477 
L 884.548909 208.959154 
L 901.077863 196.651186 
L 903.985704 194.299614 
L 906.695185 191.96382 
L 909.182574 189.640175 
L 911.429059 187.326413 
L 913.422627 185.019463 
L 915.159412 182.711876 
L 916.717243 180.240403 
L 918.151089 177.491008 
L 919.441672 174.572658 
L 920.596864 171.487142 
L 921.624432 168.239889 
L 922.532876 164.839124 
L 923.331901 161.295005 
L 924.647409 153.822661 
L 925.675605 145.918172 
L 926.952919 133.454136 
L 928.342878 120.510372 
L 929.600977 111.735519 
L 930.323489 107.705614 
L 930.323489 107.705614 
" style="fill:none;stroke:#ffffff;stroke-linecap:square;"/>
   </g>
   <g id="line2d_36">
    <path clip-path="url(#p82ebdcbb71)" d="M 636.616446 619.494386 
L 636.941878 595.150071 
L 637.934104 537.290961 
L 637.724944 532.667204 
L 636.935755 523.441493 
L 635.341132 509.88332 
L 634.371045 501.273982 
L 633.739443 493.261737 
L 633.609566 489.562647 
L 633.626133 486.118497 
L 633.796758 482.968971 
L 634.118514 480.151571 
L 634.576224 477.694746 
L 635.144611 475.60683 
L 636.384725 472.579312 
L 637.094442 471.471211 
L 638.331906 470.270122 
L 640.166967 469.028788 
L 642.588111 467.81376 
L 645.539161 466.669991 
L 648.947869 465.61557 
L 652.740675 464.647202 
L 661.20897 462.886081 
L 675.272878 460.16202 
L 680.140559 459.050636 
L 685.036952 457.741503 
L 689.929767 456.160839 
L 694.783087 454.219079 
L 699.545811 451.809096 
L 704.132693 448.812716 
L 708.106812 445.443099 
L 711.389574 441.991115 
L 714.340301 438.351647 
L 716.99051 434.563674 
L 719.374364 430.658752 
L 721.526049 426.662442 
L 723.478247 422.596053 
L 725.261441 418.478234 
L 726.903768 414.326213 
L 729.867454 405.986415 
L 733.843752 393.646235 
L 736.405098 385.749403 
L 739.042523 378.305133 
L 740.420934 374.805507 
L 743.887048 366.741192 
L 745.551153 362.397512 
L 748.55667 353.540568 
L 756.599513 327.961041 
L 757.963562 324.248347 
L 759.354094 320.811787 
L 760.765273 317.699771 
L 762.181105 314.959186 
L 763.573264 312.630015 
L 764.901673 310.735627 
L 766.12286 309.268638 
L 768.386657 307.030284 
L 769.765154 306.648953 
L 771.928748 306.567849 
L 774.752871 306.874424 
L 778.101421 307.57618 
L 781.859121 308.635632 
L 785.934566 309.993848 
L 794.766417 313.330071 
L 804.189681 317.008375 
L 809.049685 318.790781 
L 813.997198 320.431912 
L 819.04745 321.843789 
L 824.24012 322.916442 
L 829.636187 323.493592 
L 835.284136 323.336507 
L 841.115393 322.111553 
L 846.433102 319.754157 
L 850.763231 316.703253 
L 854.365682 313.175667 
L 857.337543 309.35101 
L 859.806923 305.330942 
L 861.890436 301.167295 
L 863.681618 296.889742 
L 865.253264 292.522077 
L 866.66291 288.089603 
L 869.177079 279.15287 
L 872.707628 266.148934 
L 873.927769 262.104994 
L 875.199854 258.292965 
L 876.5316 254.767725 
L 877.920972 251.582676 
L 879.354689 248.784122 
L 880.943603 246.231051 
L 882.861617 243.694338 
L 885.047624 241.183711 
L 887.486913 238.69473 
L 890.159171 236.223233 
L 893.040077 233.763646 
L 899.318921 228.846191 
L 916.688761 215.885202 
L 920.216717 213.013291 
L 923.691677 209.985107 
L 927.078787 206.768311 
L 930.338273 203.329198 
L 933.42356 199.634872 
L 936.279929 195.656807 
L 938.770963 191.522287 
L 940.868583 187.368406 
L 942.682417 183.146761 
L 944.241196 178.875856 
L 945.573758 174.570549 
L 946.708207 170.242908 
L 947.671443 165.903063 
L 948.488986 161.559964 
L 949.782263 152.897284 
L 950.766465 144.32165 
L 952.901215 123.75623 
L 953.9841 116.10711 
L 954.706612 112.077204 
L 954.706612 112.077204 
" style="fill:none;stroke:#ffffff;stroke-linecap:square;"/>
   </g>
   <g id="patch_8">
    <path d="M 591.545455 640.8 
L 591.545455 86.4 
" style="fill:none;stroke:#000000;stroke-linecap:square;stroke-linejoin:miter;stroke-width:0.8;"/>
   </g>
   <g id="patch_9">
    <path d="M 972 640.8 
L 972 86.4 
" style="fill:none;stroke:#000000;stroke-linecap:square;stroke-linejoin:miter;stroke-width:0.8;"/>
   </g>
   <g id="patch_10">
    <path d="M 591.545455 640.8 
L 972 640.8 
" style="fill:none;stroke:#000000;stroke-linecap:square;stroke-linejoin:miter;stroke-width:0.8;"/>
   </g>
   <g id="patch_11">
    <path d="M 591.545455 86.4 
L 972 86.4 
" style="fill:none;stroke:#000000;stroke-linecap:square;stroke-linejoin:miter;stroke-width:0.8;"/>
   </g>
   <g id="text_32">
    <!-- dist to bound ~ 1.26 -->
    <g transform="translate(719.886477 80.4)scale(0.12 -0.12)">
     <use xlink:href="#DejaVuSans-100"/>
     <use x="63.476562" xlink:href="#DejaVuSans-105"/>
     <use x="91.259766" xlink:href="#DejaVuSans-115"/>
     <use x="143.359375" xlink:href="#DejaVuSans-116"/>
     <use x="182.568359" xlink:href="#DejaVuSans-32"/>
     <use x="214.355469" xlink:href="#DejaVuSans-116"/>
     <use x="253.564453" xlink:href="#DejaVuSans-111"/>
     <use x="314.746094" xlink:href="#DejaVuSans-32"/>
     <use x="346.533203" xlink:href="#DejaVuSans-98"/>
     <use x="410.009766" xlink:href="#DejaVuSans-111"/>
     <use x="471.191406" xlink:href="#DejaVuSans-117"/>
     <use x="534.570312" xlink:href="#DejaVuSans-110"/>
     <use x="597.949219" xlink:href="#DejaVuSans-100"/>
     <use x="661.425781" xlink:href="#DejaVuSans-32"/>
     <use x="693.212891" xlink:href="#DejaVuSans-126"/>
     <use x="777.001953" xlink:href="#DejaVuSans-32"/>
     <use x="808.789062" xlink:href="#DejaVuSans-49"/>
     <use x="872.412109" xlink:href="#DejaVuSans-46"/>
     <use x="904.199219" xlink:href="#DejaVuSans-50"/>
     <use x="967.822266" xlink:href="#DejaVuSans-54"/>
    </g>
   </g>
  </g>
  <g id="text_33">
   <!-- members distance = 0.2 ; oob_ff = -0.1 -->
   <g transform="translate(421.052813 23.518125)scale(0.12 -0.12)">
    <defs>
     <path d="M 52 44.1875 
Q 55.375 50.25 60.0625 53.125 
Q 64.75 56 71.09375 56 
Q 79.640625 56 84.28125 50.015625 
Q 88.921875 44.046875 88.921875 33.015625 
L 88.921875 0 
L 79.890625 0 
L 79.890625 32.71875 
Q 79.890625 40.578125 77.09375 44.375 
Q 74.3125 48.1875 68.609375 48.1875 
Q 61.625 48.1875 57.5625 43.546875 
Q 53.515625 38.921875 53.515625 30.90625 
L 53.515625 0 
L 44.484375 0 
L 44.484375 32.71875 
Q 44.484375 40.625 41.703125 44.40625 
Q 38.921875 48.1875 33.109375 48.1875 
Q 26.21875 48.1875 22.15625 43.53125 
Q 18.109375 38.875 18.109375 30.90625 
L 18.109375 0 
L 9.078125 0 
L 9.078125 54.6875 
L 18.109375 54.6875 
L 18.109375 46.1875 
Q 21.1875 51.21875 25.484375 53.609375 
Q 29.78125 56 35.6875 56 
Q 41.65625 56 45.828125 52.96875 
Q 50 49.953125 52 44.1875 
z
" id="DejaVuSans-109"/>
     <path d="M 56.203125 29.59375 
L 56.203125 25.203125 
L 14.890625 25.203125 
Q 15.484375 15.921875 20.484375 11.0625 
Q 25.484375 6.203125 34.421875 6.203125 
Q 39.59375 6.203125 44.453125 7.46875 
Q 49.3125 8.734375 54.109375 11.28125 
L 54.109375 2.78125 
Q 49.265625 0.734375 44.1875 -0.34375 
Q 39.109375 -1.421875 33.890625 -1.421875 
Q 20.796875 -1.421875 13.15625 6.1875 
Q 5.515625 13.8125 5.515625 26.8125 
Q 5.515625 40.234375 12.765625 48.109375 
Q 20.015625 56 32.328125 56 
Q 43.359375 56 49.78125 48.890625 
Q 56.203125 41.796875 56.203125 29.59375 
z
M 47.21875 32.234375 
Q 47.125 39.59375 43.09375 43.984375 
Q 39.0625 48.390625 32.421875 48.390625 
Q 24.90625 48.390625 20.390625 44.140625 
Q 15.875 39.890625 15.1875 32.171875 
z
" id="DejaVuSans-101"/>
     <path d="M 41.109375 46.296875 
Q 39.59375 47.171875 37.8125 47.578125 
Q 36.03125 48 33.890625 48 
Q 26.265625 48 22.1875 43.046875 
Q 18.109375 38.09375 18.109375 28.8125 
L 18.109375 0 
L 9.078125 0 
L 9.078125 54.6875 
L 18.109375 54.6875 
L 18.109375 46.1875 
Q 20.953125 51.171875 25.484375 53.578125 
Q 30.03125 56 36.53125 56 
Q 37.453125 56 38.578125 55.875 
Q 39.703125 55.765625 41.0625 55.515625 
z
" id="DejaVuSans-114"/>
     <path d="M 34.28125 27.484375 
Q 23.390625 27.484375 19.1875 25 
Q 14.984375 22.515625 14.984375 16.5 
Q 14.984375 11.71875 18.140625 8.90625 
Q 21.296875 6.109375 26.703125 6.109375 
Q 34.1875 6.109375 38.703125 11.40625 
Q 43.21875 16.703125 43.21875 25.484375 
L 43.21875 27.484375 
z
M 52.203125 31.203125 
L 52.203125 0 
L 43.21875 0 
L 43.21875 8.296875 
Q 40.140625 3.328125 35.546875 0.953125 
Q 30.953125 -1.421875 24.3125 -1.421875 
Q 15.921875 -1.421875 10.953125 3.296875 
Q 6 8.015625 6 15.921875 
Q 6 25.140625 12.171875 29.828125 
Q 18.359375 34.515625 30.609375 34.515625 
L 43.21875 34.515625 
L 43.21875 35.40625 
Q 43.21875 41.609375 39.140625 45 
Q 35.0625 48.390625 27.6875 48.390625 
Q 23 48.390625 18.546875 47.265625 
Q 14.109375 46.140625 10.015625 43.890625 
L 10.015625 52.203125 
Q 14.9375 54.109375 19.578125 55.046875 
Q 24.21875 56 28.609375 56 
Q 40.484375 56 46.34375 49.84375 
Q 52.203125 43.703125 52.203125 31.203125 
z
" id="DejaVuSans-97"/>
     <path d="M 48.78125 52.59375 
L 48.78125 44.1875 
Q 44.96875 46.296875 41.140625 47.34375 
Q 37.3125 48.390625 33.40625 48.390625 
Q 24.65625 48.390625 19.8125 42.84375 
Q 14.984375 37.3125 14.984375 27.296875 
Q 14.984375 17.28125 19.8125 11.734375 
Q 24.65625 6.203125 33.40625 6.203125 
Q 37.3125 6.203125 41.140625 7.25 
Q 44.96875 8.296875 48.78125 10.40625 
L 48.78125 2.09375 
Q 45.015625 0.34375 40.984375 -0.53125 
Q 36.96875 -1.421875 32.421875 -1.421875 
Q 20.0625 -1.421875 12.78125 6.34375 
Q 5.515625 14.109375 5.515625 27.296875 
Q 5.515625 40.671875 12.859375 48.328125 
Q 20.21875 56 33.015625 56 
Q 37.15625 56 41.109375 55.140625 
Q 45.0625 54.296875 48.78125 52.59375 
z
" id="DejaVuSans-99"/>
     <path d="M 10.59375 45.40625 
L 73.1875 45.40625 
L 73.1875 37.203125 
L 10.59375 37.203125 
z
M 10.59375 25.484375 
L 73.1875 25.484375 
L 73.1875 17.1875 
L 10.59375 17.1875 
z
" id="DejaVuSans-61"/>
     <path d="M 11.71875 51.703125 
L 22.015625 51.703125 
L 22.015625 39.3125 
L 11.71875 39.3125 
z
M 11.71875 12.40625 
L 22.015625 12.40625 
L 22.015625 4 
L 14.015625 -11.625 
L 7.71875 -11.625 
L 11.71875 4 
z
" id="DejaVuSans-59"/>
     <path d="M 50.984375 -16.609375 
L 50.984375 -23.578125 
L -0.984375 -23.578125 
L -0.984375 -16.609375 
z
" id="DejaVuSans-95"/>
     <path d="M 37.109375 75.984375 
L 37.109375 68.5 
L 28.515625 68.5 
Q 23.6875 68.5 21.796875 66.546875 
Q 19.921875 64.59375 19.921875 59.515625 
L 19.921875 54.6875 
L 34.71875 54.6875 
L 34.71875 47.703125 
L 19.921875 47.703125 
L 19.921875 0 
L 10.890625 0 
L 10.890625 47.703125 
L 2.296875 47.703125 
L 2.296875 54.6875 
L 10.890625 54.6875 
L 10.890625 58.5 
Q 10.890625 67.625 15.140625 71.796875 
Q 19.390625 75.984375 28.609375 75.984375 
z
" id="DejaVuSans-102"/>
    </defs>
    <use xlink:href="#DejaVuSans-109"/>
    <use x="97.412109" xlink:href="#DejaVuSans-101"/>
    <use x="158.935547" xlink:href="#DejaVuSans-109"/>
    <use x="256.347656" xlink:href="#DejaVuSans-98"/>
    <use x="319.824219" xlink:href="#DejaVuSans-101"/>
    <use x="381.347656" xlink:href="#DejaVuSans-114"/>
    <use x="422.460938" xlink:href="#DejaVuSans-115"/>
    <use x="474.560547" xlink:href="#DejaVuSans-32"/>
    <use x="506.347656" xlink:href="#DejaVuSans-100"/>
    <use x="569.824219" xlink:href="#DejaVuSans-105"/>
    <use x="597.607422" xlink:href="#DejaVuSans-115"/>
    <use x="649.707031" xlink:href="#DejaVuSans-116"/>
    <use x="688.916016" xlink:href="#DejaVuSans-97"/>
    <use x="750.195312" xlink:href="#DejaVuSans-110"/>
    <use x="813.574219" xlink:href="#DejaVuSans-99"/>
    <use x="868.554688" xlink:href="#DejaVuSans-101"/>
    <use x="930.078125" xlink:href="#DejaVuSans-32"/>
    <use x="961.865234" xlink:href="#DejaVuSans-61"/>
    <use x="1045.654297" xlink:href="#DejaVuSans-32"/>
    <use x="1077.441406" xlink:href="#DejaVuSans-48"/>
    <use x="1141.064453" xlink:href="#DejaVuSans-46"/>
    <use x="1172.851562" xlink:href="#DejaVuSans-50"/>
    <use x="1236.474609" xlink:href="#DejaVuSans-32"/>
    <use x="1268.261719" xlink:href="#DejaVuSans-59"/>
    <use x="1301.953125" xlink:href="#DejaVuSans-32"/>
    <use x="1333.740234" xlink:href="#DejaVuSans-111"/>
    <use x="1394.921875" xlink:href="#DejaVuSans-111"/>
    <use x="1456.103516" xlink:href="#DejaVuSans-98"/>
    <use x="1519.580078" xlink:href="#DejaVuSans-95"/>
    <use x="1569.580078" xlink:href="#DejaVuSans-102"/>
    <use x="1604.785156" xlink:href="#DejaVuSans-102"/>
    <use x="1639.990234" xlink:href="#DejaVuSans-32"/>
    <use x="1671.777344" xlink:href="#DejaVuSans-61"/>
    <use x="1755.566406" xlink:href="#DejaVuSans-32"/>
    <use x="1787.353516" xlink:href="#DejaVuSans-45"/>
    <use x="1823.4375" xlink:href="#DejaVuSans-48"/>
    <use x="1887.060547" xlink:href="#DejaVuSans-46"/>
    <use x="1918.847656" xlink:href="#DejaVuSans-49"/>
   </g>
  </g>
 </g>
 <defs>
  <clipPath id="pdf4d7aec28">
   <rect height="554.4" width="380.454545" x="135" y="86.4"/>
  </clipPath>
  <clipPath id="p82ebdcbb71">
   <rect height="554.4" width="380.454545" x="591.545455" y="86.4"/>
  </clipPath>
 </defs>
</svg>
