<?xml version="1.0" encoding="utf-8" standalone="no"?>
<!DOCTYPE svg PUBLIC "-//W3C//DTD SVG 1.1//EN"
  "http://www.w3.org/Graphics/SVG/1.1/DTD/svg11.dtd">
<!-- Created with matplotlib (https://matplotlib.org/) -->
<svg height="345.6pt" version="1.1" viewBox="0 0 460.8 345.6" width="460.8pt" xmlns="http://www.w3.org/2000/svg" xmlns:xlink="http://www.w3.org/1999/xlink">
 <metadata>
  <rdf:RDF xmlns:cc="http://creativecommons.org/ns#" xmlns:dc="http://purl.org/dc/elements/1.1/" xmlns:rdf="http://www.w3.org/1999/02/22-rdf-syntax-ns#">
   <cc:Work>
    <dc:type rdf:resource="http://purl.org/dc/dcmitype/StillImage"/>
    <dc:date>2021-06-17T14:09:08.025987</dc:date>
    <dc:format>image/svg+xml</dc:format>
    <dc:creator>
     <cc:Agent>
      <dc:title>Matplotlib v3.3.3, https://matplotlib.org/</dc:title>
     </cc:Agent>
    </dc:creator>
   </cc:Work>
  </rdf:RDF>
 </metadata>
 <defs>
  <style type="text/css">*{stroke-linecap:butt;stroke-linejoin:round;}</style>
 </defs>
 <g id="figure_1">
  <g id="patch_1">
   <path d="M 0 345.6 
L 460.8 345.6 
L 460.8 0 
L 0 0 
z
" style="fill:#ffffff;"/>
  </g>
  <g id="axes_1">
   <g id="patch_2">
    <path d="M 57.6 307.584 
L 414.72 307.584 
L 414.72 41.472 
L 57.6 41.472 
z
" style="fill:#7d9051;"/>
   </g>
   <g id="matplotlib.axis_1">
    <g id="xtick_1">
     <g id="line2d_1">
      <defs>
       <path d="M 0 0 
L 0 3.5 
" id="mcc86fdfc49" style="stroke:#000000;stroke-width:0.8;"/>
      </defs>
      <g>
       <use style="stroke:#000000;stroke-width:0.8;" x="106.519656" xlink:href="#mcc86fdfc49" y="307.584"/>
      </g>
     </g>
     <g id="text_1">
      <!-- −50 -->
      <g transform="translate(95.967313 322.182437)scale(0.1 -0.1)">
       <defs>
        <path d="M 10.59375 35.5 
L 73.1875 35.5 
L 73.1875 27.203125 
L 10.59375 27.203125 
z
" id="DejaVuSans-8722"/>
        <path d="M 10.796875 72.90625 
L 49.515625 72.90625 
L 49.515625 64.59375 
L 19.828125 64.59375 
L 19.828125 46.734375 
Q 21.96875 47.46875 24.109375 47.828125 
Q 26.265625 48.1875 28.421875 48.1875 
Q 40.625 48.1875 47.75 41.5 
Q 54.890625 34.8125 54.890625 23.390625 
Q 54.890625 11.625 47.5625 5.09375 
Q 40.234375 -1.421875 26.90625 -1.421875 
Q 22.3125 -1.421875 17.546875 -0.640625 
Q 12.796875 0.140625 7.71875 1.703125 
L 7.71875 11.625 
Q 12.109375 9.234375 16.796875 8.0625 
Q 21.484375 6.890625 26.703125 6.890625 
Q 35.15625 6.890625 40.078125 11.328125 
Q 45.015625 15.765625 45.015625 23.390625 
Q 45.015625 31 40.078125 35.4375 
Q 35.15625 39.890625 26.703125 39.890625 
Q 22.75 39.890625 18.8125 39.015625 
Q 14.890625 38.140625 10.796875 36.28125 
z
" id="DejaVuSans-53"/>
        <path d="M 31.78125 66.40625 
Q 24.171875 66.40625 20.328125 58.90625 
Q 16.5 51.421875 16.5 36.375 
Q 16.5 21.390625 20.328125 13.890625 
Q 24.171875 6.390625 31.78125 6.390625 
Q 39.453125 6.390625 43.28125 13.890625 
Q 47.125 21.390625 47.125 36.375 
Q 47.125 51.421875 43.28125 58.90625 
Q 39.453125 66.40625 31.78125 66.40625 
z
M 31.78125 74.21875 
Q 44.046875 74.21875 50.515625 64.515625 
Q 56.984375 54.828125 56.984375 36.375 
Q 56.984375 17.96875 50.515625 8.265625 
Q 44.046875 -1.421875 31.78125 -1.421875 
Q 19.53125 -1.421875 13.0625 8.265625 
Q 6.59375 17.96875 6.59375 36.375 
Q 6.59375 54.828125 13.0625 64.515625 
Q 19.53125 74.21875 31.78125 74.21875 
z
" id="DejaVuSans-48"/>
       </defs>
       <use xlink:href="#DejaVuSans-8722"/>
       <use x="83.789062" xlink:href="#DejaVuSans-53"/>
       <use x="147.412109" xlink:href="#DejaVuSans-48"/>
      </g>
     </g>
    </g>
    <g id="xtick_2">
     <g id="line2d_2">
      <g>
       <use style="stroke:#000000;stroke-width:0.8;" x="173.080818" xlink:href="#mcc86fdfc49" y="307.584"/>
      </g>
     </g>
     <g id="text_2">
      <!-- 0 -->
      <g transform="translate(169.899568 322.182437)scale(0.1 -0.1)">
       <use xlink:href="#DejaVuSans-48"/>
      </g>
     </g>
    </g>
    <g id="xtick_3">
     <g id="line2d_3">
      <g>
       <use style="stroke:#000000;stroke-width:0.8;" x="239.64198" xlink:href="#mcc86fdfc49" y="307.584"/>
      </g>
     </g>
     <g id="text_3">
      <!-- 50 -->
      <g transform="translate(233.27948 322.182437)scale(0.1 -0.1)">
       <use xlink:href="#DejaVuSans-53"/>
       <use x="63.623047" xlink:href="#DejaVuSans-48"/>
      </g>
     </g>
    </g>
    <g id="xtick_4">
     <g id="line2d_4">
      <g>
       <use style="stroke:#000000;stroke-width:0.8;" x="306.203142" xlink:href="#mcc86fdfc49" y="307.584"/>
      </g>
     </g>
     <g id="text_4">
      <!-- 100 -->
      <g transform="translate(296.659392 322.182437)scale(0.1 -0.1)">
       <defs>
        <path d="M 12.40625 8.296875 
L 28.515625 8.296875 
L 28.515625 63.921875 
L 10.984375 60.40625 
L 10.984375 69.390625 
L 28.421875 72.90625 
L 38.28125 72.90625 
L 38.28125 8.296875 
L 54.390625 8.296875 
L 54.390625 0 
L 12.40625 0 
z
" id="DejaVuSans-49"/>
       </defs>
       <use xlink:href="#DejaVuSans-49"/>
       <use x="63.623047" xlink:href="#DejaVuSans-48"/>
       <use x="127.246094" xlink:href="#DejaVuSans-48"/>
      </g>
     </g>
    </g>
    <g id="xtick_5">
     <g id="line2d_5">
      <g>
       <use style="stroke:#000000;stroke-width:0.8;" x="372.764304" xlink:href="#mcc86fdfc49" y="307.584"/>
      </g>
     </g>
     <g id="text_5">
      <!-- 150 -->
      <g transform="translate(363.220554 322.182437)scale(0.1 -0.1)">
       <use xlink:href="#DejaVuSans-49"/>
       <use x="63.623047" xlink:href="#DejaVuSans-53"/>
       <use x="127.246094" xlink:href="#DejaVuSans-48"/>
      </g>
     </g>
    </g>
   </g>
   <g id="matplotlib.axis_2">
    <g id="ytick_1">
     <g id="line2d_6">
      <defs>
       <path d="M 0 0 
L -3.5 0 
" id="m0050febfbe" style="stroke:#000000;stroke-width:0.8;"/>
      </defs>
      <g>
       <use style="stroke:#000000;stroke-width:0.8;" x="57.6" xlink:href="#m0050febfbe" y="295.43677"/>
      </g>
     </g>
     <g id="text_6">
      <!-- 0 -->
      <g transform="translate(44.2375 299.235988)scale(0.1 -0.1)">
       <use xlink:href="#DejaVuSans-48"/>
      </g>
     </g>
    </g>
    <g id="ytick_2">
     <g id="line2d_7">
      <g>
       <use style="stroke:#000000;stroke-width:0.8;" x="57.6" xlink:href="#m0050febfbe" y="262.156189"/>
      </g>
     </g>
     <g id="text_7">
      <!-- 25 -->
      <g transform="translate(37.875 265.955407)scale(0.1 -0.1)">
       <defs>
        <path d="M 19.1875 8.296875 
L 53.609375 8.296875 
L 53.609375 0 
L 7.328125 0 
L 7.328125 8.296875 
Q 12.9375 14.109375 22.625 23.890625 
Q 32.328125 33.6875 34.8125 36.53125 
Q 39.546875 41.84375 41.421875 45.53125 
Q 43.3125 49.21875 43.3125 52.78125 
Q 43.3125 58.59375 39.234375 62.25 
Q 35.15625 65.921875 28.609375 65.921875 
Q 23.96875 65.921875 18.8125 64.3125 
Q 13.671875 62.703125 7.8125 59.421875 
L 7.8125 69.390625 
Q 13.765625 71.78125 18.9375 73 
Q 24.125 74.21875 28.421875 74.21875 
Q 39.75 74.21875 46.484375 68.546875 
Q 53.21875 62.890625 53.21875 53.421875 
Q 53.21875 48.921875 51.53125 44.890625 
Q 49.859375 40.875 45.40625 35.40625 
Q 44.1875 33.984375 37.640625 27.21875 
Q 31.109375 20.453125 19.1875 8.296875 
z
" id="DejaVuSans-50"/>
       </defs>
       <use xlink:href="#DejaVuSans-50"/>
       <use x="63.623047" xlink:href="#DejaVuSans-53"/>
      </g>
     </g>
    </g>
    <g id="ytick_3">
     <g id="line2d_8">
      <g>
       <use style="stroke:#000000;stroke-width:0.8;" x="57.6" xlink:href="#m0050febfbe" y="228.875608"/>
      </g>
     </g>
     <g id="text_8">
      <!-- 50 -->
      <g transform="translate(37.875 232.674826)scale(0.1 -0.1)">
       <use xlink:href="#DejaVuSans-53"/>
       <use x="63.623047" xlink:href="#DejaVuSans-48"/>
      </g>
     </g>
    </g>
    <g id="ytick_4">
     <g id="line2d_9">
      <g>
       <use style="stroke:#000000;stroke-width:0.8;" x="57.6" xlink:href="#m0050febfbe" y="195.595027"/>
      </g>
     </g>
     <g id="text_9">
      <!-- 75 -->
      <g transform="translate(37.875 199.394245)scale(0.1 -0.1)">
       <defs>
        <path d="M 8.203125 72.90625 
L 55.078125 72.90625 
L 55.078125 68.703125 
L 28.609375 0 
L 18.3125 0 
L 43.21875 64.59375 
L 8.203125 64.59375 
z
" id="DejaVuSans-55"/>
       </defs>
       <use xlink:href="#DejaVuSans-55"/>
       <use x="63.623047" xlink:href="#DejaVuSans-53"/>
      </g>
     </g>
    </g>
    <g id="ytick_5">
     <g id="line2d_10">
      <g>
       <use style="stroke:#000000;stroke-width:0.8;" x="57.6" xlink:href="#m0050febfbe" y="162.314446"/>
      </g>
     </g>
     <g id="text_10">
      <!-- 100 -->
      <g transform="translate(31.5125 166.113664)scale(0.1 -0.1)">
       <use xlink:href="#DejaVuSans-49"/>
       <use x="63.623047" xlink:href="#DejaVuSans-48"/>
       <use x="127.246094" xlink:href="#DejaVuSans-48"/>
      </g>
     </g>
    </g>
    <g id="ytick_6">
     <g id="line2d_11">
      <g>
       <use style="stroke:#000000;stroke-width:0.8;" x="57.6" xlink:href="#m0050febfbe" y="129.033865"/>
      </g>
     </g>
     <g id="text_11">
      <!-- 125 -->
      <g transform="translate(31.5125 132.833084)scale(0.1 -0.1)">
       <use xlink:href="#DejaVuSans-49"/>
       <use x="63.623047" xlink:href="#DejaVuSans-50"/>
       <use x="127.246094" xlink:href="#DejaVuSans-53"/>
      </g>
     </g>
    </g>
    <g id="ytick_7">
     <g id="line2d_12">
      <g>
       <use style="stroke:#000000;stroke-width:0.8;" x="57.6" xlink:href="#m0050febfbe" y="95.753284"/>
      </g>
     </g>
     <g id="text_12">
      <!-- 150 -->
      <g transform="translate(31.5125 99.552503)scale(0.1 -0.1)">
       <use xlink:href="#DejaVuSans-49"/>
       <use x="63.623047" xlink:href="#DejaVuSans-53"/>
       <use x="127.246094" xlink:href="#DejaVuSans-48"/>
      </g>
     </g>
    </g>
    <g id="ytick_8">
     <g id="line2d_13">
      <g>
       <use style="stroke:#000000;stroke-width:0.8;" x="57.6" xlink:href="#m0050febfbe" y="62.472703"/>
      </g>
     </g>
     <g id="text_13">
      <!-- 175 -->
      <g transform="translate(31.5125 66.271922)scale(0.1 -0.1)">
       <use xlink:href="#DejaVuSans-49"/>
       <use x="63.623047" xlink:href="#DejaVuSans-55"/>
       <use x="127.246094" xlink:href="#DejaVuSans-53"/>
      </g>
     </g>
    </g>
   </g>
   <g id="line2d_14">
    <path clip-path="url(#p2c5c76ea7f)" d="M 173.080818 295.43677 
L 173.352221 277.923043 
L 173.653399 260.384708 
L 173.442831 256.705573 
L 172.835864 250.997819 
L 172.026574 243.38748 
L 171.854821 239.733553 
L 171.976341 236.270078 
L 172.179423 234.630766 
L 172.494639 233.064275 
L 172.934927 231.579006 
L 173.513224 230.183362 
L 174.242471 228.885745 
L 175.173154 227.716911 
L 176.32921 226.690822 
L 177.683744 225.790691 
L 179.209864 224.999731 
L 180.880678 224.301155 
L 184.548815 223.114009 
L 190.4639 221.606499 
L 194.368796 220.587783 
L 197.991896 219.401423 
L 199.63054 218.703409 
L 201.118058 217.913123 
L 202.427556 217.013778 
L 203.532141 215.988588 
L 204.40492 214.820764 
L 205.02962 213.506995 
L 205.425456 212.064599 
L 205.618768 210.507738 
L 205.635899 208.850572 
L 205.503189 207.107261 
L 204.893614 203.41885 
L 203.513981 197.594172 
L 202.591361 193.681553 
L 201.912301 189.877501 
L 201.72996 188.05159 
L 201.687533 186.295302 
L 201.811361 184.6228 
L 202.127786 183.048243 
L 202.663149 181.585793 
L 203.412375 180.234223 
L 204.340295 178.975799 
L 205.428113 177.799913 
L 206.657036 176.695961 
L 209.463007 174.661437 
L 212.607844 172.787383 
L 222.57189 167.279604 
L 225.568532 165.198994 
L 226.921391 164.065087 
L 228.152213 162.854637 
L 229.242203 161.557039 
L 231.131436 158.757059 
L 232.772349 155.759191 
L 234.20462 152.598302 
L 235.467925 149.30926 
L 237.132864 144.211683 
L 242.127888 127.090664 
L 242.891533 123.585923 
L 244.12565 116.429271 
L 245.083006 111.108443 
L 245.873652 107.666986 
L 246.871646 104.362117 
L 248.150204 101.238392 
L 248.917576 99.758383 
L 249.782545 98.340368 
L 251.799303 95.690125 
L 254.142045 93.253928 
L 256.750384 90.992599 
L 259.563932 88.866964 
L 264.036924 85.847236 
L 273.145226 79.930393 
L 277.398547 76.785767 
L 292.779615 65.181305 
L 302.587054 57.822043 
L 302.587054 57.822043 
" style="fill:none;stroke:#fea952;stroke-linecap:square;"/>
   </g>
   <g id="line2d_15">
    <path clip-path="url(#p2c5c76ea7f)" d="M 167.756172 295.385539 
L 168.028394 277.81647 
L 168.333289 260.610353 
L 168.141095 257.201637 
L 167.548211 251.626477 
L 166.712169 243.721517 
L 166.530196 239.680204 
L 166.691844 235.61542 
L 166.959168 233.580325 
L 167.389336 231.550878 
L 168.01562 229.540647 
L 168.871165 227.574575 
L 170.076818 225.568846 
L 171.638406 223.734445 
L 173.382049 222.255878 
L 175.233488 221.063035 
L 177.155809 220.086957 
L 179.129206 219.272554 
L 183.167236 217.971468 
L 195.905088 214.502473 
L 198.103481 213.523726 
L 199.596001 212.534112 
L 199.894581 212.09779 
L 200.141143 211.408456 
L 200.29416 210.452696 
L 200.326368 209.25476 
L 200.014386 206.279105 
L 199.29251 202.748658 
L 196.947991 192.586235 
L 196.613763 190.406629 
L 196.40662 188.180187 
L 196.377174 185.902135 
L 196.590841 183.573677 
L 197.127411 181.217742 
L 198.005949 179.004133 
L 199.126611 177.074047 
L 200.4315 175.359749 
L 201.86965 173.838622 
L 203.404091 172.480177 
L 205.008493 171.253809 
L 208.349936 169.09245 
L 213.444366 166.285721 
L 218.217303 163.686726 
L 220.963169 161.973176 
L 223.187674 160.26853 
L 224.074929 159.429693 
L 224.905232 158.467514 
L 226.515388 156.102519 
L 227.959714 153.48037 
L 229.258514 150.625863 
L 230.434652 147.571258 
L 232.029161 142.692902 
L 236.939201 125.893996 
L 237.656708 122.610683 
L 238.874621 115.545432 
L 239.877663 109.986439 
L 240.746179 106.230494 
L 241.890347 102.480325 
L 242.600713 100.622601 
L 243.422953 98.787356 
L 244.371667 96.985443 
L 245.444177 95.252804 
L 246.613629 93.628264 
L 249.191313 90.659709 
L 252.008011 88.013045 
L 254.985107 85.622147 
L 258.056117 83.424903 
L 264.237041 79.399231 
L 270.068208 75.584539 
L 274.167895 72.552875 
L 289.587363 60.919379 
L 299.384304 53.568 
L 299.384304 53.568 
" style="fill:none;stroke:#ffffff;stroke-linecap:square;"/>
   </g>
   <g id="line2d_16">
    <path clip-path="url(#p2c5c76ea7f)" d="M 178.405465 295.488 
L 178.676047 278.029616 
L 178.973509 260.159062 
L 178.744567 256.209509 
L 178.123517 250.369161 
L 177.340979 243.053443 
L 177.179447 239.786902 
L 177.260837 236.924736 
L 177.599942 234.577672 
L 178.155284 232.792149 
L 178.707903 231.699377 
L 179.276371 231.125765 
L 180.134 230.518346 
L 181.26392 229.912504 
L 184.200164 228.778267 
L 187.788105 227.756698 
L 195.913374 225.683739 
L 200.078703 224.300374 
L 202.128846 223.405851 
L 204.132635 222.302521 
L 206.049945 220.916698 
L 207.797463 219.1763 
L 209.21384 217.107415 
L 210.164659 214.9162 
L 210.709769 212.720742 
L 210.943377 210.56278 
L 210.94543 208.446383 
L 210.775825 206.363086 
L 210.092719 202.268289 
L 208.687312 196.332771 
L 207.468439 190.931515 
L 207.0533 187.922992 
L 207.031881 185.671923 
L 207.32035 184.167453 
L 207.698138 183.3944 
L 208.249089 182.591848 
L 208.986577 181.761204 
L 209.90998 180.911745 
L 212.263205 179.190606 
L 215.162035 177.459705 
L 225.496772 171.729273 
L 227.261698 170.560753 
L 228.989049 169.279993 
L 230.655108 167.861643 
L 232.229496 166.279581 
L 233.579174 164.646564 
L 235.747484 161.411599 
L 237.584985 158.038012 
L 239.150726 154.570742 
L 240.501197 151.047262 
L 242.236568 145.730465 
L 247.316575 128.287331 
L 248.126358 124.561163 
L 249.37668 117.31311 
L 250.288348 112.230448 
L 251.001125 109.103477 
L 251.852945 106.243909 
L 252.877456 103.689429 
L 254.120913 101.427931 
L 255.731617 99.280584 
L 257.709014 97.207561 
L 260.019909 95.195538 
L 262.61511 93.230998 
L 266.913842 90.328065 
L 276.222244 84.276247 
L 280.629198 81.01866 
L 295.971867 69.443231 
L 305.789804 62.076085 
L 305.789804 62.076085 
" style="fill:none;stroke:#ffffff;stroke-linecap:square;"/>
   </g>
   <g id="patch_3">
    <path d="M 57.6 307.584 
L 57.6 41.472 
" style="fill:none;stroke:#000000;stroke-linecap:square;stroke-linejoin:miter;stroke-width:0.8;"/>
   </g>
   <g id="patch_4">
    <path d="M 414.72 307.584 
L 414.72 41.472 
" style="fill:none;stroke:#000000;stroke-linecap:square;stroke-linejoin:miter;stroke-width:0.8;"/>
   </g>
   <g id="patch_5">
    <path d="M 57.6 307.584 
L 414.72 307.584 
" style="fill:none;stroke:#000000;stroke-linecap:square;stroke-linejoin:miter;stroke-width:0.8;"/>
   </g>
   <g id="patch_6">
    <path d="M 57.6 41.472 
L 414.72 41.472 
" style="fill:none;stroke:#000000;stroke-linecap:square;stroke-linejoin:miter;stroke-width:0.8;"/>
   </g>
  </g>
 </g>
 <defs>
  <clipPath id="p2c5c76ea7f">
   <rect height="266.112" width="357.12" x="57.6" y="41.472"/>
  </clipPath>
 </defs>
</svg>
