<?xml version="1.0" encoding="utf-8" standalone="no"?>
<!DOCTYPE svg PUBLIC "-//W3C//DTD SVG 1.1//EN"
  "http://www.w3.org/Graphics/SVG/1.1/DTD/svg11.dtd">
<!-- Created with matplotlib (https://matplotlib.org/) -->
<svg height="345.6pt" version="1.1" viewBox="0 0 460.8 345.6" width="460.8pt" xmlns="http://www.w3.org/2000/svg" xmlns:xlink="http://www.w3.org/1999/xlink">
 <metadata>
  <rdf:RDF xmlns:cc="http://creativecommons.org/ns#" xmlns:dc="http://purl.org/dc/elements/1.1/" xmlns:rdf="http://www.w3.org/1999/02/22-rdf-syntax-ns#">
   <cc:Work>
    <dc:type rdf:resource="http://purl.org/dc/dcmitype/StillImage"/>
    <dc:date>2021-06-17T12:34:42.999749</dc:date>
    <dc:format>image/svg+xml</dc:format>
    <dc:creator>
     <cc:Agent>
      <dc:title>Matplotlib v3.3.3, https://matplotlib.org/</dc:title>
     </cc:Agent>
    </dc:creator>
   </cc:Work>
  </rdf:RDF>
 </metadata>
 <defs>
  <style type="text/css">*{stroke-linecap:butt;stroke-linejoin:round;}</style>
 </defs>
 <g id="figure_1">
  <g id="patch_1">
   <path d="M 0 345.6 
L 460.8 345.6 
L 460.8 0 
L 0 0 
z
" style="fill:#ffffff;"/>
  </g>
  <g id="axes_1">
   <g id="patch_2">
    <path d="M 57.6 307.584 
L 414.72 307.584 
L 414.72 41.472 
L 57.6 41.472 
z
" style="fill:#7d9051;"/>
   </g>
   <g id="matplotlib.axis_1">
    <g id="xtick_1">
     <g id="line2d_1">
      <defs>
       <path d="M 0 0 
L 0 3.5 
" id="m875c4d3435" style="stroke:#000000;stroke-width:0.8;"/>
      </defs>
      <g>
       <use style="stroke:#000000;stroke-width:0.8;" x="88.039365" xlink:href="#m875c4d3435" y="307.584"/>
      </g>
     </g>
     <g id="text_1">
      <!-- −50 -->
      <g transform="translate(77.487021 322.182437)scale(0.1 -0.1)">
       <defs>
        <path d="M 10.59375 35.5 
L 73.1875 35.5 
L 73.1875 27.203125 
L 10.59375 27.203125 
z
" id="DejaVuSans-8722"/>
        <path d="M 10.796875 72.90625 
L 49.515625 72.90625 
L 49.515625 64.59375 
L 19.828125 64.59375 
L 19.828125 46.734375 
Q 21.96875 47.46875 24.109375 47.828125 
Q 26.265625 48.1875 28.421875 48.1875 
Q 40.625 48.1875 47.75 41.5 
Q 54.890625 34.8125 54.890625 23.390625 
Q 54.890625 11.625 47.5625 5.09375 
Q 40.234375 -1.421875 26.90625 -1.421875 
Q 22.3125 -1.421875 17.546875 -0.640625 
Q 12.796875 0.140625 7.71875 1.703125 
L 7.71875 11.625 
Q 12.109375 9.234375 16.796875 8.0625 
Q 21.484375 6.890625 26.703125 6.890625 
Q 35.15625 6.890625 40.078125 11.328125 
Q 45.015625 15.765625 45.015625 23.390625 
Q 45.015625 31 40.078125 35.4375 
Q 35.15625 39.890625 26.703125 39.890625 
Q 22.75 39.890625 18.8125 39.015625 
Q 14.890625 38.140625 10.796875 36.28125 
z
" id="DejaVuSans-53"/>
        <path d="M 31.78125 66.40625 
Q 24.171875 66.40625 20.328125 58.90625 
Q 16.5 51.421875 16.5 36.375 
Q 16.5 21.390625 20.328125 13.890625 
Q 24.171875 6.390625 31.78125 6.390625 
Q 39.453125 6.390625 43.28125 13.890625 
Q 47.125 21.390625 47.125 36.375 
Q 47.125 51.421875 43.28125 58.90625 
Q 39.453125 66.40625 31.78125 66.40625 
z
M 31.78125 74.21875 
Q 44.046875 74.21875 50.515625 64.515625 
Q 56.984375 54.828125 56.984375 36.375 
Q 56.984375 17.96875 50.515625 8.265625 
Q 44.046875 -1.421875 31.78125 -1.421875 
Q 19.53125 -1.421875 13.0625 8.265625 
Q 6.59375 17.96875 6.59375 36.375 
Q 6.59375 54.828125 13.0625 64.515625 
Q 19.53125 74.21875 31.78125 74.21875 
z
" id="DejaVuSans-48"/>
       </defs>
       <use xlink:href="#DejaVuSans-8722"/>
       <use x="83.789062" xlink:href="#DejaVuSans-53"/>
       <use x="147.412109" xlink:href="#DejaVuSans-48"/>
      </g>
     </g>
    </g>
    <g id="xtick_2">
     <g id="line2d_2">
      <g>
       <use style="stroke:#000000;stroke-width:0.8;" x="159.049136" xlink:href="#m875c4d3435" y="307.584"/>
      </g>
     </g>
     <g id="text_2">
      <!-- 0 -->
      <g transform="translate(155.867886 322.182437)scale(0.1 -0.1)">
       <use xlink:href="#DejaVuSans-48"/>
      </g>
     </g>
    </g>
    <g id="xtick_3">
     <g id="line2d_3">
      <g>
       <use style="stroke:#000000;stroke-width:0.8;" x="230.058907" xlink:href="#m875c4d3435" y="307.584"/>
      </g>
     </g>
     <g id="text_3">
      <!-- 50 -->
      <g transform="translate(223.696407 322.182437)scale(0.1 -0.1)">
       <use xlink:href="#DejaVuSans-53"/>
       <use x="63.623047" xlink:href="#DejaVuSans-48"/>
      </g>
     </g>
    </g>
    <g id="xtick_4">
     <g id="line2d_4">
      <g>
       <use style="stroke:#000000;stroke-width:0.8;" x="301.068679" xlink:href="#m875c4d3435" y="307.584"/>
      </g>
     </g>
     <g id="text_4">
      <!-- 100 -->
      <g transform="translate(291.524929 322.182437)scale(0.1 -0.1)">
       <defs>
        <path d="M 12.40625 8.296875 
L 28.515625 8.296875 
L 28.515625 63.921875 
L 10.984375 60.40625 
L 10.984375 69.390625 
L 28.421875 72.90625 
L 38.28125 72.90625 
L 38.28125 8.296875 
L 54.390625 8.296875 
L 54.390625 0 
L 12.40625 0 
z
" id="DejaVuSans-49"/>
       </defs>
       <use xlink:href="#DejaVuSans-49"/>
       <use x="63.623047" xlink:href="#DejaVuSans-48"/>
       <use x="127.246094" xlink:href="#DejaVuSans-48"/>
      </g>
     </g>
    </g>
    <g id="xtick_5">
     <g id="line2d_5">
      <g>
       <use style="stroke:#000000;stroke-width:0.8;" x="372.07845" xlink:href="#m875c4d3435" y="307.584"/>
      </g>
     </g>
     <g id="text_5">
      <!-- 150 -->
      <g transform="translate(362.5347 322.182437)scale(0.1 -0.1)">
       <use xlink:href="#DejaVuSans-49"/>
       <use x="63.623047" xlink:href="#DejaVuSans-53"/>
       <use x="127.246094" xlink:href="#DejaVuSans-48"/>
      </g>
     </g>
    </g>
   </g>
   <g id="matplotlib.axis_2">
    <g id="ytick_1">
     <g id="line2d_6">
      <defs>
       <path d="M 0 0 
L -3.5 0 
" id="mb9d2fc0615" style="stroke:#000000;stroke-width:0.8;"/>
      </defs>
      <g>
       <use style="stroke:#000000;stroke-width:0.8;" x="57.6" xlink:href="#mb9d2fc0615" y="295.433346"/>
      </g>
     </g>
     <g id="text_6">
      <!-- 0 -->
      <g transform="translate(44.2375 299.232564)scale(0.1 -0.1)">
       <use xlink:href="#DejaVuSans-48"/>
      </g>
     </g>
    </g>
    <g id="ytick_2">
     <g id="line2d_7">
      <g>
       <use style="stroke:#000000;stroke-width:0.8;" x="57.6" xlink:href="#mb9d2fc0615" y="259.92846"/>
      </g>
     </g>
     <g id="text_7">
      <!-- 25 -->
      <g transform="translate(37.875 263.727679)scale(0.1 -0.1)">
       <defs>
        <path d="M 19.1875 8.296875 
L 53.609375 8.296875 
L 53.609375 0 
L 7.328125 0 
L 7.328125 8.296875 
Q 12.9375 14.109375 22.625 23.890625 
Q 32.328125 33.6875 34.8125 36.53125 
Q 39.546875 41.84375 41.421875 45.53125 
Q 43.3125 49.21875 43.3125 52.78125 
Q 43.3125 58.59375 39.234375 62.25 
Q 35.15625 65.921875 28.609375 65.921875 
Q 23.96875 65.921875 18.8125 64.3125 
Q 13.671875 62.703125 7.8125 59.421875 
L 7.8125 69.390625 
Q 13.765625 71.78125 18.9375 73 
Q 24.125 74.21875 28.421875 74.21875 
Q 39.75 74.21875 46.484375 68.546875 
Q 53.21875 62.890625 53.21875 53.421875 
Q 53.21875 48.921875 51.53125 44.890625 
Q 49.859375 40.875 45.40625 35.40625 
Q 44.1875 33.984375 37.640625 27.21875 
Q 31.109375 20.453125 19.1875 8.296875 
z
" id="DejaVuSans-50"/>
       </defs>
       <use xlink:href="#DejaVuSans-50"/>
       <use x="63.623047" xlink:href="#DejaVuSans-53"/>
      </g>
     </g>
    </g>
    <g id="ytick_3">
     <g id="line2d_8">
      <g>
       <use style="stroke:#000000;stroke-width:0.8;" x="57.6" xlink:href="#mb9d2fc0615" y="224.423574"/>
      </g>
     </g>
     <g id="text_8">
      <!-- 50 -->
      <g transform="translate(37.875 228.222793)scale(0.1 -0.1)">
       <use xlink:href="#DejaVuSans-53"/>
       <use x="63.623047" xlink:href="#DejaVuSans-48"/>
      </g>
     </g>
    </g>
    <g id="ytick_4">
     <g id="line2d_9">
      <g>
       <use style="stroke:#000000;stroke-width:0.8;" x="57.6" xlink:href="#mb9d2fc0615" y="188.918689"/>
      </g>
     </g>
     <g id="text_9">
      <!-- 75 -->
      <g transform="translate(37.875 192.717907)scale(0.1 -0.1)">
       <defs>
        <path d="M 8.203125 72.90625 
L 55.078125 72.90625 
L 55.078125 68.703125 
L 28.609375 0 
L 18.3125 0 
L 43.21875 64.59375 
L 8.203125 64.59375 
z
" id="DejaVuSans-55"/>
       </defs>
       <use xlink:href="#DejaVuSans-55"/>
       <use x="63.623047" xlink:href="#DejaVuSans-53"/>
      </g>
     </g>
    </g>
    <g id="ytick_5">
     <g id="line2d_10">
      <g>
       <use style="stroke:#000000;stroke-width:0.8;" x="57.6" xlink:href="#mb9d2fc0615" y="153.413803"/>
      </g>
     </g>
     <g id="text_10">
      <!-- 100 -->
      <g transform="translate(31.5125 157.213022)scale(0.1 -0.1)">
       <use xlink:href="#DejaVuSans-49"/>
       <use x="63.623047" xlink:href="#DejaVuSans-48"/>
       <use x="127.246094" xlink:href="#DejaVuSans-48"/>
      </g>
     </g>
    </g>
    <g id="ytick_6">
     <g id="line2d_11">
      <g>
       <use style="stroke:#000000;stroke-width:0.8;" x="57.6" xlink:href="#mb9d2fc0615" y="117.908917"/>
      </g>
     </g>
     <g id="text_11">
      <!-- 125 -->
      <g transform="translate(31.5125 121.708136)scale(0.1 -0.1)">
       <use xlink:href="#DejaVuSans-49"/>
       <use x="63.623047" xlink:href="#DejaVuSans-50"/>
       <use x="127.246094" xlink:href="#DejaVuSans-53"/>
      </g>
     </g>
    </g>
    <g id="ytick_7">
     <g id="line2d_12">
      <g>
       <use style="stroke:#000000;stroke-width:0.8;" x="57.6" xlink:href="#mb9d2fc0615" y="82.404031"/>
      </g>
     </g>
     <g id="text_12">
      <!-- 150 -->
      <g transform="translate(31.5125 86.20325)scale(0.1 -0.1)">
       <use xlink:href="#DejaVuSans-49"/>
       <use x="63.623047" xlink:href="#DejaVuSans-53"/>
       <use x="127.246094" xlink:href="#DejaVuSans-48"/>
      </g>
     </g>
    </g>
    <g id="ytick_8">
     <g id="line2d_13">
      <g>
       <use style="stroke:#000000;stroke-width:0.8;" x="57.6" xlink:href="#mb9d2fc0615" y="46.899146"/>
      </g>
     </g>
     <g id="text_13">
      <!-- 175 -->
      <g transform="translate(31.5125 50.698365)scale(0.1 -0.1)">
       <use xlink:href="#DejaVuSans-49"/>
       <use x="63.623047" xlink:href="#DejaVuSans-55"/>
       <use x="127.246094" xlink:href="#DejaVuSans-53"/>
      </g>
     </g>
    </g>
   </g>
   <g id="line2d_14">
    <path clip-path="url(#p715b0b0edf)" d="M 159.049136 295.433346 
L 159.338677 276.74909 
L 159.669845 258.052406 
L 159.514226 254.224141 
L 158.86646 246.428219 
L 158.417443 240.596523 
L 158.293373 236.781327 
L 158.407675 233.064868 
L 158.844483 229.481995 
L 159.210117 227.751543 
L 159.687926 226.067556 
L 160.288427 224.434389 
L 161.033542 222.864631 
L 161.927857 221.362907 
L 162.955884 219.921634 
L 165.35113 217.190106 
L 168.095388 214.609379 
L 172.595157 210.888323 
L 177.183306 207.1653 
L 180.084685 204.581075 
L 182.715611 201.844303 
L 183.890939 200.399751 
L 184.952194 198.894312 
L 185.897706 197.316095 
L 187.505277 193.950415 
L 188.818918 190.371481 
L 190.458787 184.775805 
L 192.557434 177.304841 
L 193.795936 173.742553 
L 195.294973 170.400915 
L 196.173696 168.837494 
L 197.155357 167.35882 
L 198.252558 165.974755 
L 199.489449 164.704466 
L 200.869878 163.551172 
L 202.375995 162.500815 
L 205.693886 160.652676 
L 209.30031 159.047574 
L 220.422685 154.565775 
L 223.755141 152.808102 
L 225.270726 151.816549 
L 226.66208 150.731106 
L 227.911352 149.537713 
L 229.000691 148.222312 
L 229.920211 146.785023 
L 230.683382 145.2426 
L 231.307382 143.605938 
L 231.809392 141.885934 
L 232.516155 138.239474 
L 232.941107 134.390382 
L 233.89944 122.498913 
L 234.571492 118.710893 
L 235.050939 116.898874 
L 235.648906 115.156043 
L 236.382572 113.493294 
L 238.159514 110.334306 
L 240.226407 107.317077 
L 242.530799 104.416749 
L 245.020236 101.608466 
L 248.986614 97.514251 
L 258.407279 88.07773 
L 260.913805 85.274656 
L 263.32961 82.258915 
L 272.854119 69.658112 
L 275.381137 66.845745 
L 278.038738 64.357429 
L 279.427793 63.264309 
L 280.863037 62.287623 
L 282.348983 61.43918 
L 283.890146 60.730787 
L 285.490709 60.172215 
L 287.148573 59.757071 
L 288.858835 59.472915 
L 292.416929 59.247801 
L 296.125748 59.397346 
L 299.946052 59.822024 
L 305.799699 60.7572 
L 313.6285 62.038149 
L 317.464867 62.469281 
L 319.346374 62.588969 
L 319.346374 62.588969 
" style="fill:none;stroke:#fea952;stroke-linecap:square;"/>
   </g>
   <g id="line2d_15">
    <path clip-path="url(#p715b0b0edf)" d="M 153.368617 295.378691 
L 153.659034 276.635394 
L 153.991433 258.216448 
L 153.847308 254.620779 
L 153.207263 246.922969 
L 152.742441 240.85271 
L 152.612986 236.714304 
L 152.752607 232.524973 
L 152.961691 230.417784 
L 153.286416 228.307609 
L 153.745064 226.200905 
L 154.356143 224.107104 
L 155.156446 221.9984 
L 156.152703 219.957968 
L 157.303009 218.064109 
L 158.575149 216.304944 
L 159.942091 214.664727 
L 162.873779 211.67425 
L 165.951246 208.969068 
L 176.084876 200.547118 
L 178.309111 198.25905 
L 180.079034 195.974792 
L 181.551994 193.360755 
L 182.823755 190.325942 
L 183.941463 186.942969 
L 186.010998 179.467457 
L 187.160785 175.530731 
L 188.553154 171.555198 
L 189.38767 169.575896 
L 190.342794 167.617536 
L 191.44092 165.695502 
L 192.703685 163.829812 
L 194.182489 162.011698 
L 195.847232 160.344931 
L 197.620318 158.891597 
L 199.468597 157.620414 
L 201.367677 156.499993 
L 205.244828 154.599913 
L 209.120869 153.001558 
L 216.327992 150.171671 
L 219.349577 148.767769 
L 221.77649 147.337532 
L 223.536105 145.914387 
L 224.215409 145.160881 
L 224.828592 144.265757 
L 225.375312 143.218823 
L 225.854123 142.014322 
L 226.603378 139.157905 
L 227.100256 135.79433 
L 227.552718 130.059599 
L 228.029625 123.797757 
L 228.625249 119.455536 
L 229.079697 117.257804 
L 229.677628 115.055288 
L 230.451573 112.862789 
L 231.365269 110.829094 
L 233.409885 107.217849 
L 235.724027 103.852997 
L 238.23687 100.697414 
L 240.885514 97.712911 
L 244.987834 93.479274 
L 254.22466 84.233647 
L 256.521025 81.672605 
L 258.798709 78.832223 
L 268.562337 65.936299 
L 271.394685 62.798587 
L 272.917118 61.309426 
L 274.525612 59.893212 
L 276.231822 58.567815 
L 278.046254 57.354367 
L 279.97645 56.277556 
L 282.01835 55.367238 
L 284.110797 54.661577 
L 286.217488 54.153112 
L 288.32597 53.81718 
L 290.428932 53.629624 
L 294.604658 53.611954 
L 298.729914 53.94471 
L 302.79282 54.498539 
L 316.113712 56.628064 
L 319.707014 56.919646 
L 319.707014 56.919646 
" style="fill:none;stroke:#ffffff;stroke-linecap:square;"/>
   </g>
   <g id="line2d_16">
    <path clip-path="url(#p715b0b0edf)" d="M 164.729655 295.488 
L 165.018321 276.862786 
L 165.348258 257.888364 
L 165.181144 253.827504 
L 164.525656 245.933469 
L 164.092445 240.340336 
L 163.973759 236.848349 
L 164.062743 233.604763 
L 164.402549 230.65638 
L 165.019709 228.028007 
L 165.914382 225.771293 
L 166.552704 224.661704 
L 168.262183 222.401729 
L 170.500972 220.095119 
L 173.168113 217.744144 
L 182.501068 210.073907 
L 185.631403 207.071908 
L 187.122112 205.429555 
L 188.534001 203.672863 
L 189.825353 201.813832 
L 190.952527 199.908406 
L 191.937073 197.968929 
L 193.561321 194.039405 
L 194.852574 190.110426 
L 199.038718 175.929907 
L 200.247153 173.184294 
L 201.607029 170.887829 
L 202.322626 169.937813 
L 203.131665 169.064 
L 204.119438 168.210747 
L 205.283393 167.381216 
L 208.08922 165.803758 
L 211.409723 164.322198 
L 222.941045 159.657842 
L 224.916777 158.67188 
L 226.865251 157.56189 
L 228.764962 156.295566 
L 230.58608 154.838843 
L 232.286599 153.161039 
L 233.785972 151.283744 
L 235.011829 149.304289 
L 235.991452 147.266377 
L 236.760641 145.197555 
L 237.355633 143.114951 
L 238.152693 138.947089 
L 238.605603 134.820237 
L 239.514642 123.359608 
L 240.063288 120.163982 
L 240.846239 117.449296 
L 241.399874 116.157493 
L 242.909143 113.450763 
L 244.728788 110.781157 
L 246.824728 108.136085 
L 249.154958 105.504022 
L 252.985393 101.549229 
L 262.589898 91.921814 
L 265.306585 88.876706 
L 267.86051 85.685608 
L 278.260406 72.089266 
L 280.465597 69.800927 
L 282.623764 67.960802 
L 284.721516 66.600805 
L 285.761943 66.094336 
L 286.87062 65.682852 
L 288.079659 65.361031 
L 290.804245 64.984986 
L 293.905243 64.951969 
L 297.31892 65.218317 
L 302.882348 66.022028 
L 312.917321 67.674239 
L 317.104227 68.138604 
L 318.985734 68.258292 
L 318.985734 68.258292 
" style="fill:none;stroke:#ffffff;stroke-linecap:square;"/>
   </g>
   <g id="patch_3">
    <path d="M 57.6 307.584 
L 57.6 41.472 
" style="fill:none;stroke:#000000;stroke-linecap:square;stroke-linejoin:miter;stroke-width:0.8;"/>
   </g>
   <g id="patch_4">
    <path d="M 414.72 307.584 
L 414.72 41.472 
" style="fill:none;stroke:#000000;stroke-linecap:square;stroke-linejoin:miter;stroke-width:0.8;"/>
   </g>
   <g id="patch_5">
    <path d="M 57.6 307.584 
L 414.72 307.584 
" style="fill:none;stroke:#000000;stroke-linecap:square;stroke-linejoin:miter;stroke-width:0.8;"/>
   </g>
   <g id="patch_6">
    <path d="M 57.6 41.472 
L 414.72 41.472 
" style="fill:none;stroke:#000000;stroke-linecap:square;stroke-linejoin:miter;stroke-width:0.8;"/>
   </g>
  </g>
 </g>
 <defs>
  <clipPath id="p715b0b0edf">
   <rect height="266.112" width="357.12" x="57.6" y="41.472"/>
  </clipPath>
 </defs>
</svg>
