<?xml version="1.0" encoding="utf-8" standalone="no"?>
<!DOCTYPE svg PUBLIC "-//W3C//DTD SVG 1.1//EN"
  "http://www.w3.org/Graphics/SVG/1.1/DTD/svg11.dtd">
<!-- Created with matplotlib (https://matplotlib.org/) -->
<svg height="345.6pt" version="1.1" viewBox="0 0 460.8 345.6" width="460.8pt" xmlns="http://www.w3.org/2000/svg" xmlns:xlink="http://www.w3.org/1999/xlink">
 <metadata>
  <rdf:RDF xmlns:cc="http://creativecommons.org/ns#" xmlns:dc="http://purl.org/dc/elements/1.1/" xmlns:rdf="http://www.w3.org/1999/02/22-rdf-syntax-ns#">
   <cc:Work>
    <dc:type rdf:resource="http://purl.org/dc/dcmitype/StillImage"/>
    <dc:date>2021-06-18T01:52:28.386480</dc:date>
    <dc:format>image/svg+xml</dc:format>
    <dc:creator>
     <cc:Agent>
      <dc:title>Matplotlib v3.3.3, https://matplotlib.org/</dc:title>
     </cc:Agent>
    </dc:creator>
   </cc:Work>
  </rdf:RDF>
 </metadata>
 <defs>
  <style type="text/css">*{stroke-linecap:butt;stroke-linejoin:round;}</style>
 </defs>
 <g id="figure_1">
  <g id="patch_1">
   <path d="M 0 345.6 
L 460.8 345.6 
L 460.8 0 
L 0 0 
z
" style="fill:#ffffff;"/>
  </g>
  <g id="axes_1">
   <g id="patch_2">
    <path d="M 57.6 307.584 
L 414.72 307.584 
L 414.72 41.472 
L 57.6 41.472 
z
" style="fill:#7d9051;"/>
   </g>
   <g id="matplotlib.axis_1">
    <g id="xtick_1">
     <g id="line2d_1">
      <defs>
       <path d="M 0 0 
L 0 3.5 
" id="m0aa0c040f0" style="stroke:#000000;stroke-width:0.8;"/>
      </defs>
      <g>
       <use style="stroke:#000000;stroke-width:0.8;" x="94.674074" xlink:href="#m0aa0c040f0" y="307.584"/>
      </g>
     </g>
     <g id="text_1">
      <!-- −50 -->
      <g transform="translate(84.12173 322.182437)scale(0.1 -0.1)">
       <defs>
        <path d="M 10.59375 35.5 
L 73.1875 35.5 
L 73.1875 27.203125 
L 10.59375 27.203125 
z
" id="DejaVuSans-8722"/>
        <path d="M 10.796875 72.90625 
L 49.515625 72.90625 
L 49.515625 64.59375 
L 19.828125 64.59375 
L 19.828125 46.734375 
Q 21.96875 47.46875 24.109375 47.828125 
Q 26.265625 48.1875 28.421875 48.1875 
Q 40.625 48.1875 47.75 41.5 
Q 54.890625 34.8125 54.890625 23.390625 
Q 54.890625 11.625 47.5625 5.09375 
Q 40.234375 -1.421875 26.90625 -1.421875 
Q 22.3125 -1.421875 17.546875 -0.640625 
Q 12.796875 0.140625 7.71875 1.703125 
L 7.71875 11.625 
Q 12.109375 9.234375 16.796875 8.0625 
Q 21.484375 6.890625 26.703125 6.890625 
Q 35.15625 6.890625 40.078125 11.328125 
Q 45.015625 15.765625 45.015625 23.390625 
Q 45.015625 31 40.078125 35.4375 
Q 35.15625 39.890625 26.703125 39.890625 
Q 22.75 39.890625 18.8125 39.015625 
Q 14.890625 38.140625 10.796875 36.28125 
z
" id="DejaVuSans-53"/>
        <path d="M 31.78125 66.40625 
Q 24.171875 66.40625 20.328125 58.90625 
Q 16.5 51.421875 16.5 36.375 
Q 16.5 21.390625 20.328125 13.890625 
Q 24.171875 6.390625 31.78125 6.390625 
Q 39.453125 6.390625 43.28125 13.890625 
Q 47.125 21.390625 47.125 36.375 
Q 47.125 51.421875 43.28125 58.90625 
Q 39.453125 66.40625 31.78125 66.40625 
z
M 31.78125 74.21875 
Q 44.046875 74.21875 50.515625 64.515625 
Q 56.984375 54.828125 56.984375 36.375 
Q 56.984375 17.96875 50.515625 8.265625 
Q 44.046875 -1.421875 31.78125 -1.421875 
Q 19.53125 -1.421875 13.0625 8.265625 
Q 6.59375 17.96875 6.59375 36.375 
Q 6.59375 54.828125 13.0625 64.515625 
Q 19.53125 74.21875 31.78125 74.21875 
z
" id="DejaVuSans-48"/>
       </defs>
       <use xlink:href="#DejaVuSans-8722"/>
       <use x="83.789062" xlink:href="#DejaVuSans-53"/>
       <use x="147.412109" xlink:href="#DejaVuSans-48"/>
      </g>
     </g>
    </g>
    <g id="xtick_2">
     <g id="line2d_2">
      <g>
       <use style="stroke:#000000;stroke-width:0.8;" x="166.10984" xlink:href="#m0aa0c040f0" y="307.584"/>
      </g>
     </g>
     <g id="text_2">
      <!-- 0 -->
      <g transform="translate(162.92859 322.182437)scale(0.1 -0.1)">
       <use xlink:href="#DejaVuSans-48"/>
      </g>
     </g>
    </g>
    <g id="xtick_3">
     <g id="line2d_3">
      <g>
       <use style="stroke:#000000;stroke-width:0.8;" x="237.545607" xlink:href="#m0aa0c040f0" y="307.584"/>
      </g>
     </g>
     <g id="text_3">
      <!-- 50 -->
      <g transform="translate(231.183107 322.182437)scale(0.1 -0.1)">
       <use xlink:href="#DejaVuSans-53"/>
       <use x="63.623047" xlink:href="#DejaVuSans-48"/>
      </g>
     </g>
    </g>
    <g id="xtick_4">
     <g id="line2d_4">
      <g>
       <use style="stroke:#000000;stroke-width:0.8;" x="308.981374" xlink:href="#m0aa0c040f0" y="307.584"/>
      </g>
     </g>
     <g id="text_4">
      <!-- 100 -->
      <g transform="translate(299.437624 322.182437)scale(0.1 -0.1)">
       <defs>
        <path d="M 12.40625 8.296875 
L 28.515625 8.296875 
L 28.515625 63.921875 
L 10.984375 60.40625 
L 10.984375 69.390625 
L 28.421875 72.90625 
L 38.28125 72.90625 
L 38.28125 8.296875 
L 54.390625 8.296875 
L 54.390625 0 
L 12.40625 0 
z
" id="DejaVuSans-49"/>
       </defs>
       <use xlink:href="#DejaVuSans-49"/>
       <use x="63.623047" xlink:href="#DejaVuSans-48"/>
       <use x="127.246094" xlink:href="#DejaVuSans-48"/>
      </g>
     </g>
    </g>
    <g id="xtick_5">
     <g id="line2d_5">
      <g>
       <use style="stroke:#000000;stroke-width:0.8;" x="380.417141" xlink:href="#m0aa0c040f0" y="307.584"/>
      </g>
     </g>
     <g id="text_5">
      <!-- 150 -->
      <g transform="translate(370.873391 322.182437)scale(0.1 -0.1)">
       <use xlink:href="#DejaVuSans-49"/>
       <use x="63.623047" xlink:href="#DejaVuSans-53"/>
       <use x="127.246094" xlink:href="#DejaVuSans-48"/>
      </g>
     </g>
    </g>
   </g>
   <g id="matplotlib.axis_2">
    <g id="ytick_1">
     <g id="line2d_6">
      <defs>
       <path d="M 0 0 
L -3.5 0 
" id="m9700b4cadf" style="stroke:#000000;stroke-width:0.8;"/>
      </defs>
      <g>
       <use style="stroke:#000000;stroke-width:0.8;" x="57.6" xlink:href="#m9700b4cadf" y="295.433018"/>
      </g>
     </g>
     <g id="text_6">
      <!-- 0 -->
      <g transform="translate(44.2375 299.232236)scale(0.1 -0.1)">
       <use xlink:href="#DejaVuSans-48"/>
      </g>
     </g>
    </g>
    <g id="ytick_2">
     <g id="line2d_7">
      <g>
       <use style="stroke:#000000;stroke-width:0.8;" x="57.6" xlink:href="#m9700b4cadf" y="259.715134"/>
      </g>
     </g>
     <g id="text_7">
      <!-- 25 -->
      <g transform="translate(37.875 263.514353)scale(0.1 -0.1)">
       <defs>
        <path d="M 19.1875 8.296875 
L 53.609375 8.296875 
L 53.609375 0 
L 7.328125 0 
L 7.328125 8.296875 
Q 12.9375 14.109375 22.625 23.890625 
Q 32.328125 33.6875 34.8125 36.53125 
Q 39.546875 41.84375 41.421875 45.53125 
Q 43.3125 49.21875 43.3125 52.78125 
Q 43.3125 58.59375 39.234375 62.25 
Q 35.15625 65.921875 28.609375 65.921875 
Q 23.96875 65.921875 18.8125 64.3125 
Q 13.671875 62.703125 7.8125 59.421875 
L 7.8125 69.390625 
Q 13.765625 71.78125 18.9375 73 
Q 24.125 74.21875 28.421875 74.21875 
Q 39.75 74.21875 46.484375 68.546875 
Q 53.21875 62.890625 53.21875 53.421875 
Q 53.21875 48.921875 51.53125 44.890625 
Q 49.859375 40.875 45.40625 35.40625 
Q 44.1875 33.984375 37.640625 27.21875 
Q 31.109375 20.453125 19.1875 8.296875 
z
" id="DejaVuSans-50"/>
       </defs>
       <use xlink:href="#DejaVuSans-50"/>
       <use x="63.623047" xlink:href="#DejaVuSans-53"/>
      </g>
     </g>
    </g>
    <g id="ytick_3">
     <g id="line2d_8">
      <g>
       <use style="stroke:#000000;stroke-width:0.8;" x="57.6" xlink:href="#m9700b4cadf" y="223.997251"/>
      </g>
     </g>
     <g id="text_8">
      <!-- 50 -->
      <g transform="translate(37.875 227.79647)scale(0.1 -0.1)">
       <use xlink:href="#DejaVuSans-53"/>
       <use x="63.623047" xlink:href="#DejaVuSans-48"/>
      </g>
     </g>
    </g>
    <g id="ytick_4">
     <g id="line2d_9">
      <g>
       <use style="stroke:#000000;stroke-width:0.8;" x="57.6" xlink:href="#m9700b4cadf" y="188.279367"/>
      </g>
     </g>
     <g id="text_9">
      <!-- 75 -->
      <g transform="translate(37.875 192.078586)scale(0.1 -0.1)">
       <defs>
        <path d="M 8.203125 72.90625 
L 55.078125 72.90625 
L 55.078125 68.703125 
L 28.609375 0 
L 18.3125 0 
L 43.21875 64.59375 
L 8.203125 64.59375 
z
" id="DejaVuSans-55"/>
       </defs>
       <use xlink:href="#DejaVuSans-55"/>
       <use x="63.623047" xlink:href="#DejaVuSans-53"/>
      </g>
     </g>
    </g>
    <g id="ytick_5">
     <g id="line2d_10">
      <g>
       <use style="stroke:#000000;stroke-width:0.8;" x="57.6" xlink:href="#m9700b4cadf" y="152.561484"/>
      </g>
     </g>
     <g id="text_10">
      <!-- 100 -->
      <g transform="translate(31.5125 156.360703)scale(0.1 -0.1)">
       <use xlink:href="#DejaVuSans-49"/>
       <use x="63.623047" xlink:href="#DejaVuSans-48"/>
       <use x="127.246094" xlink:href="#DejaVuSans-48"/>
      </g>
     </g>
    </g>
    <g id="ytick_6">
     <g id="line2d_11">
      <g>
       <use style="stroke:#000000;stroke-width:0.8;" x="57.6" xlink:href="#m9700b4cadf" y="116.843601"/>
      </g>
     </g>
     <g id="text_11">
      <!-- 125 -->
      <g transform="translate(31.5125 120.642819)scale(0.1 -0.1)">
       <use xlink:href="#DejaVuSans-49"/>
       <use x="63.623047" xlink:href="#DejaVuSans-50"/>
       <use x="127.246094" xlink:href="#DejaVuSans-53"/>
      </g>
     </g>
    </g>
    <g id="ytick_7">
     <g id="line2d_12">
      <g>
       <use style="stroke:#000000;stroke-width:0.8;" x="57.6" xlink:href="#m9700b4cadf" y="81.125717"/>
      </g>
     </g>
     <g id="text_12">
      <!-- 150 -->
      <g transform="translate(31.5125 84.924936)scale(0.1 -0.1)">
       <use xlink:href="#DejaVuSans-49"/>
       <use x="63.623047" xlink:href="#DejaVuSans-53"/>
       <use x="127.246094" xlink:href="#DejaVuSans-48"/>
      </g>
     </g>
    </g>
    <g id="ytick_8">
     <g id="line2d_13">
      <g>
       <use style="stroke:#000000;stroke-width:0.8;" x="57.6" xlink:href="#m9700b4cadf" y="45.407834"/>
      </g>
     </g>
     <g id="text_13">
      <!-- 175 -->
      <g transform="translate(31.5125 49.207053)scale(0.1 -0.1)">
       <use xlink:href="#DejaVuSans-49"/>
       <use x="63.623047" xlink:href="#DejaVuSans-55"/>
       <use x="127.246094" xlink:href="#DejaVuSans-53"/>
      </g>
     </g>
    </g>
   </g>
   <g id="line2d_14">
    <path clip-path="url(#p27fb4f9a13)" d="M 166.10984 295.433018 
L 166.401119 276.636674 
L 166.716074 255.939198 
L 166.471342 250.208442 
L 165.916169 238.729324 
L 165.92581 234.955121 
L 166.13015 231.233087 
L 166.587599 227.578873 
L 167.356567 224.008131 
L 168.972621 218.58157 
L 170.274837 214.87561 
L 171.760167 211.175514 
L 173.431386 207.546827 
L 175.291269 204.055094 
L 177.342591 200.765857 
L 179.588127 197.74466 
L 182.030652 195.057049 
L 183.326652 193.85882 
L 184.67294 192.768566 
L 186.090514 191.789529 
L 187.595294 190.914518 
L 189.180011 190.136081 
L 192.560182 188.83912 
L 196.172872 187.839024 
L 199.959929 187.07617 
L 203.8632 186.490937 
L 211.785776 185.614851 
L 223.284465 184.42283 
L 227.24886 184.44959 
L 233.339545 184.850961 
L 241.376377 185.407628 
L 245.20745 185.415411 
L 248.823962 185.077038 
L 250.530742 184.739186 
L 252.158664 184.268168 
L 253.699322 183.648441 
L 255.14431 182.864461 
L 256.502939 181.918972 
L 257.792414 180.83253 
L 259.01617 179.616307 
L 260.177642 178.281479 
L 262.327465 175.300702 
L 264.269358 171.979595 
L 266.030792 168.407551 
L 267.63924 164.673964 
L 269.82516 158.966243 
L 273.045599 149.859184 
L 273.950244 146.217746 
L 274.580384 142.464402 
L 275.218468 136.715856 
L 275.994117 129.048969 
L 276.563247 125.308502 
L 277.379767 121.685663 
L 278.538568 118.222187 
L 279.275977 116.563251 
L 280.142655 114.964291 
L 281.140084 113.42667 
L 283.463652 110.506281 
L 286.119606 107.743751 
L 290.44878 103.768342 
L 294.81102 99.820004 
L 297.525756 97.105598 
L 299.937497 94.257395 
L 300.990034 92.764892 
L 301.919169 91.217064 
L 302.709017 89.606622 
L 303.932048 86.228348 
L 304.787454 82.690225 
L 305.344165 79.022227 
L 305.671112 75.254323 
L 305.881504 69.480709 
L 306.147199 57.866045 
L 306.442552 54.084405 
L 306.442552 54.084405 
" style="fill:none;stroke:#fea952;stroke-linecap:square;"/>
   </g>
   <g id="line2d_15">
    <path clip-path="url(#p27fb4f9a13)" d="M 160.395244 295.378035 
L 160.687402 276.522295 
L 161.004016 256.118184 
L 160.765989 250.537965 
L 160.253215 240.781113 
L 160.185966 236.759213 
L 160.299169 232.68628 
L 160.668071 228.575061 
L 161.373376 224.444475 
L 162.372834 220.599314 
L 163.561521 216.743194 
L 164.946874 212.808619 
L 166.5379 208.8544 
L 168.34619 204.939066 
L 170.387125 201.120982 
L 172.681506 197.459208 
L 175.257375 194.015823 
L 176.661914 192.397389 
L 178.151018 190.860851 
L 179.730071 189.417621 
L 181.425277 188.066191 
L 183.217768 186.849187 
L 185.075645 185.785092 
L 186.985413 184.859399 
L 188.936476 184.057319 
L 192.930233 182.767721 
L 197.003415 181.813128 
L 201.110056 181.105169 
L 207.228746 180.339985 
L 223.22327 178.708296 
L 227.534804 178.741886 
L 233.809586 179.155462 
L 241.492498 179.693946 
L 244.841112 179.712303 
L 247.714256 179.470952 
L 250.025944 178.966174 
L 250.973995 178.625271 
L 251.879928 178.173677 
L 252.820665 177.548561 
L 253.763893 176.779055 
L 255.637565 174.81055 
L 257.455116 172.31409 
L 259.182848 169.374397 
L 260.806849 166.09021 
L 262.328956 162.561969 
L 264.450638 157.023526 
L 267.532521 148.353988 
L 268.329863 145.182876 
L 268.910976 141.745063 
L 269.527899 136.189481 
L 270.332831 128.268282 
L 270.962722 124.171065 
L 271.909717 120.030914 
L 272.546331 117.96014 
L 273.316383 115.900888 
L 274.251702 113.839961 
L 275.348183 111.854199 
L 276.567623 109.998515 
L 277.883 108.259596 
L 280.71168 105.073244 
L 283.678689 102.183542 
L 293.260345 93.302191 
L 295.267172 90.96381 
L 296.788199 88.70056 
L 297.397277 87.498291 
L 298.412059 84.748698 
L 299.154474 81.726285 
L 299.657832 78.451918 
L 299.963872 74.959263 
L 300.167321 69.392667 
L 300.444596 57.491934 
L 300.75107 53.568 
L 300.75107 53.568 
" style="fill:none;stroke:#ffffff;stroke-linecap:square;"/>
   </g>
   <g id="line2d_16">
    <path clip-path="url(#p27fb4f9a13)" d="M 171.824437 295.488 
L 172.114836 276.751052 
L 172.428131 255.760211 
L 172.176695 249.878919 
L 171.630829 238.681417 
L 171.636173 235.181828 
L 171.813574 231.831691 
L 172.201729 228.647134 
L 172.863212 225.536692 
L 174.383722 220.419947 
L 175.6028 216.9426 
L 176.982434 213.496628 
L 178.516582 210.154588 
L 180.195413 206.989206 
L 182.003676 204.072505 
L 183.918879 201.473498 
L 185.910285 199.253247 
L 187.920603 197.470941 
L 190.114943 196.043943 
L 192.738318 194.836214 
L 195.75196 193.843659 
L 199.093062 193.050207 
L 202.691289 192.424986 
L 208.420322 191.707425 
L 223.34566 190.137363 
L 226.962916 190.157293 
L 232.869504 190.546459 
L 239.127272 191.021068 
L 243.40994 191.161082 
L 247.749515 190.968749 
L 249.933667 190.683123 
L 252.119113 190.228878 
L 254.291385 189.570163 
L 256.424649 188.67161 
L 258.408691 187.555245 
L 260.185212 186.289384 
L 261.820935 184.886005 
L 263.327435 183.367658 
L 264.717718 181.752407 
L 266.004587 180.054867 
L 268.313859 176.460596 
L 270.333826 172.669657 
L 272.124787 168.760314 
L 274.482613 162.849479 
L 277.885636 153.421984 
L 278.558676 151.36438 
L 279.570626 147.252615 
L 280.249792 143.183741 
L 280.909036 137.24223 
L 281.655404 129.829656 
L 282.163772 126.445939 
L 282.849817 123.340412 
L 283.760753 120.543485 
L 284.937127 118.074384 
L 286.621755 115.626599 
L 288.804365 113.144614 
L 291.386343 110.623366 
L 300.303 102.452215 
L 303.233256 99.280327 
L 304.607822 97.550981 
L 305.889875 95.706184 
L 307.050138 93.733569 
L 308.020756 91.714954 
L 308.800966 89.720592 
L 309.452036 87.707997 
L 310.420434 83.654166 
L 311.030499 79.592535 
L 311.378351 75.549383 
L 311.595688 69.568751 
L 311.849801 58.240157 
L 312.134034 54.60081 
L 312.134034 54.60081 
" style="fill:none;stroke:#ffffff;stroke-linecap:square;"/>
   </g>
   <g id="patch_3">
    <path d="M 57.6 307.584 
L 57.6 41.472 
" style="fill:none;stroke:#000000;stroke-linecap:square;stroke-linejoin:miter;stroke-width:0.8;"/>
   </g>
   <g id="patch_4">
    <path d="M 414.72 307.584 
L 414.72 41.472 
" style="fill:none;stroke:#000000;stroke-linecap:square;stroke-linejoin:miter;stroke-width:0.8;"/>
   </g>
   <g id="patch_5">
    <path d="M 57.6 307.584 
L 414.72 307.584 
" style="fill:none;stroke:#000000;stroke-linecap:square;stroke-linejoin:miter;stroke-width:0.8;"/>
   </g>
   <g id="patch_6">
    <path d="M 57.6 41.472 
L 414.72 41.472 
" style="fill:none;stroke:#000000;stroke-linecap:square;stroke-linejoin:miter;stroke-width:0.8;"/>
   </g>
  </g>
 </g>
 <defs>
  <clipPath id="p27fb4f9a13">
   <rect height="266.112" width="357.12" x="57.6" y="41.472"/>
  </clipPath>
 </defs>
</svg>
