<?xml version="1.0" encoding="utf-8" standalone="no"?>
<!DOCTYPE svg PUBLIC "-//W3C//DTD SVG 1.1//EN"
  "http://www.w3.org/Graphics/SVG/1.1/DTD/svg11.dtd">
<!-- Created with matplotlib (https://matplotlib.org/) -->
<svg height="345.6pt" version="1.1" viewBox="0 0 460.8 345.6" width="460.8pt" xmlns="http://www.w3.org/2000/svg" xmlns:xlink="http://www.w3.org/1999/xlink">
 <metadata>
  <rdf:RDF xmlns:cc="http://creativecommons.org/ns#" xmlns:dc="http://purl.org/dc/elements/1.1/" xmlns:rdf="http://www.w3.org/1999/02/22-rdf-syntax-ns#">
   <cc:Work>
    <dc:type rdf:resource="http://purl.org/dc/dcmitype/StillImage"/>
    <dc:date>2021-06-17T15:12:54.106579</dc:date>
    <dc:format>image/svg+xml</dc:format>
    <dc:creator>
     <cc:Agent>
      <dc:title>Matplotlib v3.3.3, https://matplotlib.org/</dc:title>
     </cc:Agent>
    </dc:creator>
   </cc:Work>
  </rdf:RDF>
 </metadata>
 <defs>
  <style type="text/css">*{stroke-linecap:butt;stroke-linejoin:round;}</style>
 </defs>
 <g id="figure_1">
  <g id="patch_1">
   <path d="M 0 345.6 
L 460.8 345.6 
L 460.8 0 
L 0 0 
z
" style="fill:#ffffff;"/>
  </g>
  <g id="axes_1">
   <g id="patch_2">
    <path d="M 57.6 307.584 
L 414.72 307.584 
L 414.72 41.472 
L 57.6 41.472 
z
" style="fill:#7d9051;"/>
   </g>
   <g id="matplotlib.axis_1">
    <g id="xtick_1">
     <g id="line2d_1">
      <defs>
       <path d="M 0 0 
L 0 3.5 
" id="m9d6c340853" style="stroke:#000000;stroke-width:0.8;"/>
      </defs>
      <g>
       <use style="stroke:#000000;stroke-width:0.8;" x="111.383854" xlink:href="#m9d6c340853" y="307.584"/>
      </g>
     </g>
     <g id="text_1">
      <!-- −50 -->
      <g transform="translate(100.831511 322.182437)scale(0.1 -0.1)">
       <defs>
        <path d="M 10.59375 35.5 
L 73.1875 35.5 
L 73.1875 27.203125 
L 10.59375 27.203125 
z
" id="DejaVuSans-8722"/>
        <path d="M 10.796875 72.90625 
L 49.515625 72.90625 
L 49.515625 64.59375 
L 19.828125 64.59375 
L 19.828125 46.734375 
Q 21.96875 47.46875 24.109375 47.828125 
Q 26.265625 48.1875 28.421875 48.1875 
Q 40.625 48.1875 47.75 41.5 
Q 54.890625 34.8125 54.890625 23.390625 
Q 54.890625 11.625 47.5625 5.09375 
Q 40.234375 -1.421875 26.90625 -1.421875 
Q 22.3125 -1.421875 17.546875 -0.640625 
Q 12.796875 0.140625 7.71875 1.703125 
L 7.71875 11.625 
Q 12.109375 9.234375 16.796875 8.0625 
Q 21.484375 6.890625 26.703125 6.890625 
Q 35.15625 6.890625 40.078125 11.328125 
Q 45.015625 15.765625 45.015625 23.390625 
Q 45.015625 31 40.078125 35.4375 
Q 35.15625 39.890625 26.703125 39.890625 
Q 22.75 39.890625 18.8125 39.015625 
Q 14.890625 38.140625 10.796875 36.28125 
z
" id="DejaVuSans-53"/>
        <path d="M 31.78125 66.40625 
Q 24.171875 66.40625 20.328125 58.90625 
Q 16.5 51.421875 16.5 36.375 
Q 16.5 21.390625 20.328125 13.890625 
Q 24.171875 6.390625 31.78125 6.390625 
Q 39.453125 6.390625 43.28125 13.890625 
Q 47.125 21.390625 47.125 36.375 
Q 47.125 51.421875 43.28125 58.90625 
Q 39.453125 66.40625 31.78125 66.40625 
z
M 31.78125 74.21875 
Q 44.046875 74.21875 50.515625 64.515625 
Q 56.984375 54.828125 56.984375 36.375 
Q 56.984375 17.96875 50.515625 8.265625 
Q 44.046875 -1.421875 31.78125 -1.421875 
Q 19.53125 -1.421875 13.0625 8.265625 
Q 6.59375 17.96875 6.59375 36.375 
Q 6.59375 54.828125 13.0625 64.515625 
Q 19.53125 74.21875 31.78125 74.21875 
z
" id="DejaVuSans-48"/>
       </defs>
       <use xlink:href="#DejaVuSans-8722"/>
       <use x="83.789062" xlink:href="#DejaVuSans-53"/>
       <use x="147.412109" xlink:href="#DejaVuSans-48"/>
      </g>
     </g>
    </g>
    <g id="xtick_2">
     <g id="line2d_2">
      <g>
       <use style="stroke:#000000;stroke-width:0.8;" x="179.772678" xlink:href="#m9d6c340853" y="307.584"/>
      </g>
     </g>
     <g id="text_2">
      <!-- 0 -->
      <g transform="translate(176.591428 322.182437)scale(0.1 -0.1)">
       <use xlink:href="#DejaVuSans-48"/>
      </g>
     </g>
    </g>
    <g id="xtick_3">
     <g id="line2d_3">
      <g>
       <use style="stroke:#000000;stroke-width:0.8;" x="248.161502" xlink:href="#m9d6c340853" y="307.584"/>
      </g>
     </g>
     <g id="text_3">
      <!-- 50 -->
      <g transform="translate(241.799002 322.182437)scale(0.1 -0.1)">
       <use xlink:href="#DejaVuSans-53"/>
       <use x="63.623047" xlink:href="#DejaVuSans-48"/>
      </g>
     </g>
    </g>
    <g id="xtick_4">
     <g id="line2d_4">
      <g>
       <use style="stroke:#000000;stroke-width:0.8;" x="316.550325" xlink:href="#m9d6c340853" y="307.584"/>
      </g>
     </g>
     <g id="text_4">
      <!-- 100 -->
      <g transform="translate(307.006575 322.182437)scale(0.1 -0.1)">
       <defs>
        <path d="M 12.40625 8.296875 
L 28.515625 8.296875 
L 28.515625 63.921875 
L 10.984375 60.40625 
L 10.984375 69.390625 
L 28.421875 72.90625 
L 38.28125 72.90625 
L 38.28125 8.296875 
L 54.390625 8.296875 
L 54.390625 0 
L 12.40625 0 
z
" id="DejaVuSans-49"/>
       </defs>
       <use xlink:href="#DejaVuSans-49"/>
       <use x="63.623047" xlink:href="#DejaVuSans-48"/>
       <use x="127.246094" xlink:href="#DejaVuSans-48"/>
      </g>
     </g>
    </g>
    <g id="xtick_5">
     <g id="line2d_5">
      <g>
       <use style="stroke:#000000;stroke-width:0.8;" x="384.939149" xlink:href="#m9d6c340853" y="307.584"/>
      </g>
     </g>
     <g id="text_5">
      <!-- 150 -->
      <g transform="translate(375.395399 322.182437)scale(0.1 -0.1)">
       <use xlink:href="#DejaVuSans-49"/>
       <use x="63.623047" xlink:href="#DejaVuSans-53"/>
       <use x="127.246094" xlink:href="#DejaVuSans-48"/>
      </g>
     </g>
    </g>
   </g>
   <g id="matplotlib.axis_2">
    <g id="ytick_1">
     <g id="line2d_6">
      <defs>
       <path d="M 0 0 
L -3.5 0 
" id="m854af62b77" style="stroke:#000000;stroke-width:0.8;"/>
      </defs>
      <g>
       <use style="stroke:#000000;stroke-width:0.8;" x="57.6" xlink:href="#m854af62b77" y="295.435363"/>
      </g>
     </g>
     <g id="text_6">
      <!-- 0 -->
      <g transform="translate(44.2375 299.234582)scale(0.1 -0.1)">
       <use xlink:href="#DejaVuSans-48"/>
      </g>
     </g>
    </g>
    <g id="ytick_2">
     <g id="line2d_7">
      <g>
       <use style="stroke:#000000;stroke-width:0.8;" x="57.6" xlink:href="#m854af62b77" y="261.240951"/>
      </g>
     </g>
     <g id="text_7">
      <!-- 25 -->
      <g transform="translate(37.875 265.04017)scale(0.1 -0.1)">
       <defs>
        <path d="M 19.1875 8.296875 
L 53.609375 8.296875 
L 53.609375 0 
L 7.328125 0 
L 7.328125 8.296875 
Q 12.9375 14.109375 22.625 23.890625 
Q 32.328125 33.6875 34.8125 36.53125 
Q 39.546875 41.84375 41.421875 45.53125 
Q 43.3125 49.21875 43.3125 52.78125 
Q 43.3125 58.59375 39.234375 62.25 
Q 35.15625 65.921875 28.609375 65.921875 
Q 23.96875 65.921875 18.8125 64.3125 
Q 13.671875 62.703125 7.8125 59.421875 
L 7.8125 69.390625 
Q 13.765625 71.78125 18.9375 73 
Q 24.125 74.21875 28.421875 74.21875 
Q 39.75 74.21875 46.484375 68.546875 
Q 53.21875 62.890625 53.21875 53.421875 
Q 53.21875 48.921875 51.53125 44.890625 
Q 49.859375 40.875 45.40625 35.40625 
Q 44.1875 33.984375 37.640625 27.21875 
Q 31.109375 20.453125 19.1875 8.296875 
z
" id="DejaVuSans-50"/>
       </defs>
       <use xlink:href="#DejaVuSans-50"/>
       <use x="63.623047" xlink:href="#DejaVuSans-53"/>
      </g>
     </g>
    </g>
    <g id="ytick_3">
     <g id="line2d_8">
      <g>
       <use style="stroke:#000000;stroke-width:0.8;" x="57.6" xlink:href="#m854af62b77" y="227.046539"/>
      </g>
     </g>
     <g id="text_8">
      <!-- 50 -->
      <g transform="translate(37.875 230.845758)scale(0.1 -0.1)">
       <use xlink:href="#DejaVuSans-53"/>
       <use x="63.623047" xlink:href="#DejaVuSans-48"/>
      </g>
     </g>
    </g>
    <g id="ytick_4">
     <g id="line2d_9">
      <g>
       <use style="stroke:#000000;stroke-width:0.8;" x="57.6" xlink:href="#m854af62b77" y="192.852127"/>
      </g>
     </g>
     <g id="text_9">
      <!-- 75 -->
      <g transform="translate(37.875 196.651346)scale(0.1 -0.1)">
       <defs>
        <path d="M 8.203125 72.90625 
L 55.078125 72.90625 
L 55.078125 68.703125 
L 28.609375 0 
L 18.3125 0 
L 43.21875 64.59375 
L 8.203125 64.59375 
z
" id="DejaVuSans-55"/>
       </defs>
       <use xlink:href="#DejaVuSans-55"/>
       <use x="63.623047" xlink:href="#DejaVuSans-53"/>
      </g>
     </g>
    </g>
    <g id="ytick_5">
     <g id="line2d_10">
      <g>
       <use style="stroke:#000000;stroke-width:0.8;" x="57.6" xlink:href="#m854af62b77" y="158.657716"/>
      </g>
     </g>
     <g id="text_10">
      <!-- 100 -->
      <g transform="translate(31.5125 162.456934)scale(0.1 -0.1)">
       <use xlink:href="#DejaVuSans-49"/>
       <use x="63.623047" xlink:href="#DejaVuSans-48"/>
       <use x="127.246094" xlink:href="#DejaVuSans-48"/>
      </g>
     </g>
    </g>
    <g id="ytick_6">
     <g id="line2d_11">
      <g>
       <use style="stroke:#000000;stroke-width:0.8;" x="57.6" xlink:href="#m854af62b77" y="124.463304"/>
      </g>
     </g>
     <g id="text_11">
      <!-- 125 -->
      <g transform="translate(31.5125 128.262522)scale(0.1 -0.1)">
       <use xlink:href="#DejaVuSans-49"/>
       <use x="63.623047" xlink:href="#DejaVuSans-50"/>
       <use x="127.246094" xlink:href="#DejaVuSans-53"/>
      </g>
     </g>
    </g>
    <g id="ytick_7">
     <g id="line2d_12">
      <g>
       <use style="stroke:#000000;stroke-width:0.8;" x="57.6" xlink:href="#m854af62b77" y="90.268892"/>
      </g>
     </g>
     <g id="text_12">
      <!-- 150 -->
      <g transform="translate(31.5125 94.068111)scale(0.1 -0.1)">
       <use xlink:href="#DejaVuSans-49"/>
       <use x="63.623047" xlink:href="#DejaVuSans-53"/>
       <use x="127.246094" xlink:href="#DejaVuSans-48"/>
      </g>
     </g>
    </g>
    <g id="ytick_8">
     <g id="line2d_13">
      <g>
       <use style="stroke:#000000;stroke-width:0.8;" x="57.6" xlink:href="#m854af62b77" y="56.07448"/>
      </g>
     </g>
     <g id="text_13">
      <!-- 175 -->
      <g transform="translate(31.5125 59.873699)scale(0.1 -0.1)">
       <use xlink:href="#DejaVuSans-49"/>
       <use x="63.623047" xlink:href="#DejaVuSans-55"/>
       <use x="127.246094" xlink:href="#DejaVuSans-53"/>
      </g>
     </g>
    </g>
   </g>
   <g id="line2d_14">
    <path clip-path="url(#p2d453c69ac)" d="M 179.772678 295.435363 
L 180.051533 277.440737 
L 180.365812 259.428868 
L 180.183279 255.704992 
L 179.646605 249.985236 
L 178.931038 242.358894 
L 178.783556 238.652877 
L 178.900897 235.081794 
L 179.376528 231.693269 
L 179.77791 230.082348 
L 180.303916 228.534926 
L 180.966228 227.056955 
L 181.766305 225.640748 
L 182.691438 224.273269 
L 184.878571 221.676228 
L 187.451038 219.249293 
L 190.332249 216.975923 
L 193.445614 214.839579 
L 196.714544 212.82372 
L 201.74208 209.989661 
L 209.859154 205.66517 
L 213.13302 204.232516 
L 216.518707 203.004669 
L 221.730282 201.407296 
L 230.479147 198.864858 
L 233.898551 197.703677 
L 237.219623 196.364354 
L 240.407336 194.783067 
L 254.130539 187.137156 
L 257.467253 184.968689 
L 260.528306 182.686831 
L 263.194684 180.286283 
L 264.342678 179.039846 
L 265.347374 177.761749 
L 266.193894 176.451332 
L 266.867361 175.107931 
L 267.3529 173.730885 
L 267.622397 172.310208 
L 267.671618 170.838919 
L 267.521506 169.320863 
L 267.193002 167.759881 
L 266.707047 166.159818 
L 265.346553 162.857821 
L 263.607557 159.445617 
L 257.794892 148.85524 
L 256.217223 145.309681 
L 255.590104 143.551304 
L 254.20731 138.253857 
L 251.851816 128.896573 
L 251.056016 125.098381 
L 250.456552 121.345082 
L 250.128542 117.687663 
L 250.147105 114.177112 
L 250.309827 112.492845 
L 250.587361 110.864415 
L 250.989099 109.298196 
L 251.524429 107.80056 
L 252.224806 106.384402 
L 253.103566 105.052198 
L 254.14292 103.794693 
L 255.32508 102.60263 
L 258.046668 100.377813 
L 261.126027 98.303706 
L 272.666726 91.162195 
L 275.59505 88.850017 
L 276.90877 87.60236 
L 278.098478 86.281319 
L 280.231585 83.468644 
L 282.168358 80.494123 
L 283.94561 77.388103 
L 286.392912 72.548893 
L 290.195654 64.255948 
L 293.320676 57.689871 
L 294.151782 56.089446 
L 294.151782 56.089446 
" style="fill:none;stroke:#fea952;stroke-linecap:square;"/>
   </g>
   <g id="line2d_15">
    <path clip-path="url(#p2d453c69ac)" d="M 174.301825 295.382726 
L 174.581523 277.331238 
L 174.898183 259.62389 
L 174.730513 256.152583 
L 174.205652 250.558852 
L 173.467922 242.654458 
L 173.312776 238.593103 
L 173.461903 234.489889 
L 173.696948 232.429719 
L 174.067732 230.370511 
L 174.597896 228.321539 
L 175.311195 226.297577 
L 176.202728 224.365845 
L 177.234792 222.575069 
L 178.393881 220.887415 
L 179.662112 219.296143 
L 181.024245 217.793295 
L 183.979637 215.020538 
L 187.172221 212.509692 
L 190.526286 210.212428 
L 193.969648 208.09101 
L 199.142027 205.175856 
L 207.571827 200.695146 
L 211.198276 199.114922 
L 214.83635 197.798646 
L 220.233563 196.144898 
L 228.778875 193.664659 
L 231.93675 192.596394 
L 234.89637 191.411023 
L 237.777472 189.985482 
L 251.209735 182.510937 
L 254.281125 180.521039 
L 256.97863 178.523563 
L 259.170374 176.579812 
L 260.751763 174.793019 
L 261.7076 173.288629 
L 262.15435 172.127276 
L 262.227067 171.377301 
L 262.167671 170.447563 
L 261.958008 169.3498 
L 261.081995 166.739716 
L 259.674917 163.716468 
L 256.898761 158.653311 
L 253.830952 153.122845 
L 251.913671 149.194672 
L 251.064043 147.147543 
L 250.324114 145.035334 
L 248.911915 139.629281 
L 246.508144 130.070529 
L 245.666333 126.038762 
L 245.018186 121.942727 
L 244.658736 117.806906 
L 244.621686 115.730126 
L 244.701356 113.650984 
L 244.916489 111.573654 
L 245.287815 109.505074 
L 245.837231 107.456658 
L 246.620302 105.375166 
L 247.65779 103.371869 
L 248.88645 101.566667 
L 250.258162 99.942206 
L 251.736501 98.472848 
L 253.294667 97.131611 
L 256.571365 94.737689 
L 259.951974 92.601755 
L 267.993107 87.733408 
L 270.672171 85.830872 
L 272.843309 83.941073 
L 274.768412 81.677484 
L 276.589858 79.088654 
L 278.292178 76.298359 
L 280.678915 71.790444 
L 283.703262 65.330225 
L 287.616064 56.87288 
L 289.296341 53.568 
L 289.296341 53.568 
" style="fill:none;stroke:#ffffff;stroke-linecap:square;"/>
   </g>
   <g id="line2d_16">
    <path clip-path="url(#p2d453c69ac)" d="M 185.243531 295.488 
L 185.521543 277.550237 
L 185.833441 259.233847 
L 185.636046 255.257402 
L 184.887444 247.513857 
L 184.394155 242.06333 
L 184.254335 238.712652 
L 184.33989 235.6737 
L 184.685323 233.016028 
L 185.296637 230.772275 
L 185.729727 229.748065 
L 186.988994 227.659123 
L 188.732897 225.559162 
L 190.922439 223.478048 
L 193.492277 221.442154 
L 196.364943 219.466729 
L 201.064686 216.624846 
L 207.646121 213.026552 
L 213.57884 209.971731 
L 216.609813 208.764991 
L 221.514086 207.169778 
L 234.017174 203.462688 
L 237.704057 202.09952 
L 241.37068 200.454575 
L 249.736014 195.952708 
L 255.216114 192.868802 
L 258.868121 190.61407 
L 262.394285 188.164254 
L 265.691129 185.46386 
L 267.218994 183.992754 
L 268.64393 182.421005 
L 269.942985 180.730479 
L 271.084823 178.903231 
L 272.027123 176.927234 
L 272.728147 174.750549 
L 273.090444 172.49314 
L 273.11617 170.300538 
L 272.875341 168.194163 
L 272.427996 166.169963 
L 271.820257 164.213518 
L 270.256716 160.444669 
L 268.397604 156.802049 
L 262.745408 146.525992 
L 261.370403 143.47182 
L 260.856095 142.067274 
L 259.967105 138.69726 
L 256.799626 125.925566 
L 256.141671 122.428807 
L 255.711998 119.123859 
L 255.557927 116.091559 
L 255.703164 113.412036 
L 256.140967 111.139733 
L 256.791823 109.396936 
L 257.320682 108.53773 
L 258.027677 107.64718 
L 258.91366 106.732412 
L 261.181275 104.861923 
L 263.995459 102.961963 
L 275.944492 95.542748 
L 277.678041 94.236214 
L 279.362672 92.817135 
L 280.974232 91.263648 
L 282.391752 89.672602 
L 284.767589 86.527674 
L 286.882372 83.271004 
L 288.784619 79.940942 
L 291.341735 74.881734 
L 295.168833 66.536407 
L 298.176118 60.211317 
L 299.007224 58.610891 
L 299.007224 58.610891 
" style="fill:none;stroke:#ffffff;stroke-linecap:square;"/>
   </g>
   <g id="patch_3">
    <path d="M 57.6 307.584 
L 57.6 41.472 
" style="fill:none;stroke:#000000;stroke-linecap:square;stroke-linejoin:miter;stroke-width:0.8;"/>
   </g>
   <g id="patch_4">
    <path d="M 414.72 307.584 
L 414.72 41.472 
" style="fill:none;stroke:#000000;stroke-linecap:square;stroke-linejoin:miter;stroke-width:0.8;"/>
   </g>
   <g id="patch_5">
    <path d="M 57.6 307.584 
L 414.72 307.584 
" style="fill:none;stroke:#000000;stroke-linecap:square;stroke-linejoin:miter;stroke-width:0.8;"/>
   </g>
   <g id="patch_6">
    <path d="M 57.6 41.472 
L 414.72 41.472 
" style="fill:none;stroke:#000000;stroke-linecap:square;stroke-linejoin:miter;stroke-width:0.8;"/>
   </g>
  </g>
 </g>
 <defs>
  <clipPath id="p2d453c69ac">
   <rect height="266.112" width="357.12" x="57.6" y="41.472"/>
  </clipPath>
 </defs>
</svg>
