<?xml version="1.0" encoding="utf-8" standalone="no"?>
<!DOCTYPE svg PUBLIC "-//W3C//DTD SVG 1.1//EN"
  "http://www.w3.org/Graphics/SVG/1.1/DTD/svg11.dtd">
<!-- Created with matplotlib (https://matplotlib.org/) -->
<svg height="345.6pt" version="1.1" viewBox="0 0 460.8 345.6" width="460.8pt" xmlns="http://www.w3.org/2000/svg" xmlns:xlink="http://www.w3.org/1999/xlink">
 <metadata>
  <rdf:RDF xmlns:cc="http://creativecommons.org/ns#" xmlns:dc="http://purl.org/dc/elements/1.1/" xmlns:rdf="http://www.w3.org/1999/02/22-rdf-syntax-ns#">
   <cc:Work>
    <dc:type rdf:resource="http://purl.org/dc/dcmitype/StillImage"/>
    <dc:date>2021-07-02T11:02:50.291270</dc:date>
    <dc:format>image/svg+xml</dc:format>
    <dc:creator>
     <cc:Agent>
      <dc:title>Matplotlib v3.3.3, https://matplotlib.org/</dc:title>
     </cc:Agent>
    </dc:creator>
   </cc:Work>
  </rdf:RDF>
 </metadata>
 <defs>
  <style type="text/css">*{stroke-linecap:butt;stroke-linejoin:round;}</style>
 </defs>
 <g id="figure_1">
  <g id="patch_1">
   <path d="M 0 345.6 
L 460.8 345.6 
L 460.8 0 
L 0 0 
z
" style="fill:#ffffff;"/>
  </g>
  <g id="axes_1">
   <g id="patch_2">
    <path d="M 57.6 307.584 
L 414.72 307.584 
L 414.72 41.472 
L 57.6 41.472 
z
" style="fill:#7d9051;"/>
   </g>
   <g id="matplotlib.axis_1">
    <g id="xtick_1">
     <g id="line2d_1">
      <defs>
       <path d="M 0 0 
L 0 3.5 
" id="mcac27f90ab" style="stroke:#000000;stroke-width:0.8;"/>
      </defs>
      <g>
       <use style="stroke:#000000;stroke-width:0.8;" x="94.746571" xlink:href="#mcac27f90ab" y="307.584"/>
      </g>
     </g>
     <g id="text_1">
      <!-- −140 -->
      <g transform="translate(81.012978 322.182437)scale(0.1 -0.1)">
       <defs>
        <path d="M 10.59375 35.5 
L 73.1875 35.5 
L 73.1875 27.203125 
L 10.59375 27.203125 
z
" id="DejaVuSans-8722"/>
        <path d="M 12.40625 8.296875 
L 28.515625 8.296875 
L 28.515625 63.921875 
L 10.984375 60.40625 
L 10.984375 69.390625 
L 28.421875 72.90625 
L 38.28125 72.90625 
L 38.28125 8.296875 
L 54.390625 8.296875 
L 54.390625 0 
L 12.40625 0 
z
" id="DejaVuSans-49"/>
        <path d="M 37.796875 64.3125 
L 12.890625 25.390625 
L 37.796875 25.390625 
z
M 35.203125 72.90625 
L 47.609375 72.90625 
L 47.609375 25.390625 
L 58.015625 25.390625 
L 58.015625 17.1875 
L 47.609375 17.1875 
L 47.609375 0 
L 37.796875 0 
L 37.796875 17.1875 
L 4.890625 17.1875 
L 4.890625 26.703125 
z
" id="DejaVuSans-52"/>
        <path d="M 31.78125 66.40625 
Q 24.171875 66.40625 20.328125 58.90625 
Q 16.5 51.421875 16.5 36.375 
Q 16.5 21.390625 20.328125 13.890625 
Q 24.171875 6.390625 31.78125 6.390625 
Q 39.453125 6.390625 43.28125 13.890625 
Q 47.125 21.390625 47.125 36.375 
Q 47.125 51.421875 43.28125 58.90625 
Q 39.453125 66.40625 31.78125 66.40625 
z
M 31.78125 74.21875 
Q 44.046875 74.21875 50.515625 64.515625 
Q 56.984375 54.828125 56.984375 36.375 
Q 56.984375 17.96875 50.515625 8.265625 
Q 44.046875 -1.421875 31.78125 -1.421875 
Q 19.53125 -1.421875 13.0625 8.265625 
Q 6.59375 17.96875 6.59375 36.375 
Q 6.59375 54.828125 13.0625 64.515625 
Q 19.53125 74.21875 31.78125 74.21875 
z
" id="DejaVuSans-48"/>
       </defs>
       <use xlink:href="#DejaVuSans-8722"/>
       <use x="83.789062" xlink:href="#DejaVuSans-49"/>
       <use x="147.412109" xlink:href="#DejaVuSans-52"/>
       <use x="211.035156" xlink:href="#DejaVuSans-48"/>
      </g>
     </g>
    </g>
    <g id="xtick_2">
     <g id="line2d_2">
      <g>
       <use style="stroke:#000000;stroke-width:0.8;" x="136.35399" xlink:href="#mcac27f90ab" y="307.584"/>
      </g>
     </g>
     <g id="text_2">
      <!-- −120 -->
      <g transform="translate(122.620396 322.182437)scale(0.1 -0.1)">
       <defs>
        <path d="M 19.1875 8.296875 
L 53.609375 8.296875 
L 53.609375 0 
L 7.328125 0 
L 7.328125 8.296875 
Q 12.9375 14.109375 22.625 23.890625 
Q 32.328125 33.6875 34.8125 36.53125 
Q 39.546875 41.84375 41.421875 45.53125 
Q 43.3125 49.21875 43.3125 52.78125 
Q 43.3125 58.59375 39.234375 62.25 
Q 35.15625 65.921875 28.609375 65.921875 
Q 23.96875 65.921875 18.8125 64.3125 
Q 13.671875 62.703125 7.8125 59.421875 
L 7.8125 69.390625 
Q 13.765625 71.78125 18.9375 73 
Q 24.125 74.21875 28.421875 74.21875 
Q 39.75 74.21875 46.484375 68.546875 
Q 53.21875 62.890625 53.21875 53.421875 
Q 53.21875 48.921875 51.53125 44.890625 
Q 49.859375 40.875 45.40625 35.40625 
Q 44.1875 33.984375 37.640625 27.21875 
Q 31.109375 20.453125 19.1875 8.296875 
z
" id="DejaVuSans-50"/>
       </defs>
       <use xlink:href="#DejaVuSans-8722"/>
       <use x="83.789062" xlink:href="#DejaVuSans-49"/>
       <use x="147.412109" xlink:href="#DejaVuSans-50"/>
       <use x="211.035156" xlink:href="#DejaVuSans-48"/>
      </g>
     </g>
    </g>
    <g id="xtick_3">
     <g id="line2d_3">
      <g>
       <use style="stroke:#000000;stroke-width:0.8;" x="177.961409" xlink:href="#mcac27f90ab" y="307.584"/>
      </g>
     </g>
     <g id="text_3">
      <!-- −100 -->
      <g transform="translate(164.227815 322.182437)scale(0.1 -0.1)">
       <use xlink:href="#DejaVuSans-8722"/>
       <use x="83.789062" xlink:href="#DejaVuSans-49"/>
       <use x="147.412109" xlink:href="#DejaVuSans-48"/>
       <use x="211.035156" xlink:href="#DejaVuSans-48"/>
      </g>
     </g>
    </g>
    <g id="xtick_4">
     <g id="line2d_4">
      <g>
       <use style="stroke:#000000;stroke-width:0.8;" x="219.568827" xlink:href="#mcac27f90ab" y="307.584"/>
      </g>
     </g>
     <g id="text_4">
      <!-- −80 -->
      <g transform="translate(209.016483 322.182437)scale(0.1 -0.1)">
       <defs>
        <path d="M 31.78125 34.625 
Q 24.75 34.625 20.71875 30.859375 
Q 16.703125 27.09375 16.703125 20.515625 
Q 16.703125 13.921875 20.71875 10.15625 
Q 24.75 6.390625 31.78125 6.390625 
Q 38.8125 6.390625 42.859375 10.171875 
Q 46.921875 13.96875 46.921875 20.515625 
Q 46.921875 27.09375 42.890625 30.859375 
Q 38.875 34.625 31.78125 34.625 
z
M 21.921875 38.8125 
Q 15.578125 40.375 12.03125 44.71875 
Q 8.5 49.078125 8.5 55.328125 
Q 8.5 64.0625 14.71875 69.140625 
Q 20.953125 74.21875 31.78125 74.21875 
Q 42.671875 74.21875 48.875 69.140625 
Q 55.078125 64.0625 55.078125 55.328125 
Q 55.078125 49.078125 51.53125 44.71875 
Q 48 40.375 41.703125 38.8125 
Q 48.828125 37.15625 52.796875 32.3125 
Q 56.78125 27.484375 56.78125 20.515625 
Q 56.78125 9.90625 50.3125 4.234375 
Q 43.84375 -1.421875 31.78125 -1.421875 
Q 19.734375 -1.421875 13.25 4.234375 
Q 6.78125 9.90625 6.78125 20.515625 
Q 6.78125 27.484375 10.78125 32.3125 
Q 14.796875 37.15625 21.921875 38.8125 
z
M 18.3125 54.390625 
Q 18.3125 48.734375 21.84375 45.5625 
Q 25.390625 42.390625 31.78125 42.390625 
Q 38.140625 42.390625 41.71875 45.5625 
Q 45.3125 48.734375 45.3125 54.390625 
Q 45.3125 60.0625 41.71875 63.234375 
Q 38.140625 66.40625 31.78125 66.40625 
Q 25.390625 66.40625 21.84375 63.234375 
Q 18.3125 60.0625 18.3125 54.390625 
z
" id="DejaVuSans-56"/>
       </defs>
       <use xlink:href="#DejaVuSans-8722"/>
       <use x="83.789062" xlink:href="#DejaVuSans-56"/>
       <use x="147.412109" xlink:href="#DejaVuSans-48"/>
      </g>
     </g>
    </g>
    <g id="xtick_5">
     <g id="line2d_5">
      <g>
       <use style="stroke:#000000;stroke-width:0.8;" x="261.176246" xlink:href="#mcac27f90ab" y="307.584"/>
      </g>
     </g>
     <g id="text_5">
      <!-- −60 -->
      <g transform="translate(250.623902 322.182437)scale(0.1 -0.1)">
       <defs>
        <path d="M 33.015625 40.375 
Q 26.375 40.375 22.484375 35.828125 
Q 18.609375 31.296875 18.609375 23.390625 
Q 18.609375 15.53125 22.484375 10.953125 
Q 26.375 6.390625 33.015625 6.390625 
Q 39.65625 6.390625 43.53125 10.953125 
Q 47.40625 15.53125 47.40625 23.390625 
Q 47.40625 31.296875 43.53125 35.828125 
Q 39.65625 40.375 33.015625 40.375 
z
M 52.59375 71.296875 
L 52.59375 62.3125 
Q 48.875 64.0625 45.09375 64.984375 
Q 41.3125 65.921875 37.59375 65.921875 
Q 27.828125 65.921875 22.671875 59.328125 
Q 17.53125 52.734375 16.796875 39.40625 
Q 19.671875 43.65625 24.015625 45.921875 
Q 28.375 48.1875 33.59375 48.1875 
Q 44.578125 48.1875 50.953125 41.515625 
Q 57.328125 34.859375 57.328125 23.390625 
Q 57.328125 12.15625 50.6875 5.359375 
Q 44.046875 -1.421875 33.015625 -1.421875 
Q 20.359375 -1.421875 13.671875 8.265625 
Q 6.984375 17.96875 6.984375 36.375 
Q 6.984375 53.65625 15.1875 63.9375 
Q 23.390625 74.21875 37.203125 74.21875 
Q 40.921875 74.21875 44.703125 73.484375 
Q 48.484375 72.75 52.59375 71.296875 
z
" id="DejaVuSans-54"/>
       </defs>
       <use xlink:href="#DejaVuSans-8722"/>
       <use x="83.789062" xlink:href="#DejaVuSans-54"/>
       <use x="147.412109" xlink:href="#DejaVuSans-48"/>
      </g>
     </g>
    </g>
    <g id="xtick_6">
     <g id="line2d_6">
      <g>
       <use style="stroke:#000000;stroke-width:0.8;" x="302.783664" xlink:href="#mcac27f90ab" y="307.584"/>
      </g>
     </g>
     <g id="text_6">
      <!-- −40 -->
      <g transform="translate(292.23132 322.182437)scale(0.1 -0.1)">
       <use xlink:href="#DejaVuSans-8722"/>
       <use x="83.789062" xlink:href="#DejaVuSans-52"/>
       <use x="147.412109" xlink:href="#DejaVuSans-48"/>
      </g>
     </g>
    </g>
    <g id="xtick_7">
     <g id="line2d_7">
      <g>
       <use style="stroke:#000000;stroke-width:0.8;" x="344.391083" xlink:href="#mcac27f90ab" y="307.584"/>
      </g>
     </g>
     <g id="text_7">
      <!-- −20 -->
      <g transform="translate(333.838739 322.182437)scale(0.1 -0.1)">
       <use xlink:href="#DejaVuSans-8722"/>
       <use x="83.789062" xlink:href="#DejaVuSans-50"/>
       <use x="147.412109" xlink:href="#DejaVuSans-48"/>
      </g>
     </g>
    </g>
    <g id="xtick_8">
     <g id="line2d_8">
      <g>
       <use style="stroke:#000000;stroke-width:0.8;" x="385.998501" xlink:href="#mcac27f90ab" y="307.584"/>
      </g>
     </g>
     <g id="text_8">
      <!-- 0 -->
      <g transform="translate(382.817251 322.182437)scale(0.1 -0.1)">
       <use xlink:href="#DejaVuSans-48"/>
      </g>
     </g>
    </g>
   </g>
   <g id="matplotlib.axis_2">
    <g id="ytick_1">
     <g id="line2d_9">
      <defs>
       <path d="M 0 0 
L -3.5 0 
" id="m2d97c81a9e" style="stroke:#000000;stroke-width:0.8;"/>
      </defs>
      <g>
       <use style="stroke:#000000;stroke-width:0.8;" x="57.6" xlink:href="#m2d97c81a9e" y="278.998517"/>
      </g>
     </g>
     <g id="text_9">
      <!-- 0 -->
      <g transform="translate(44.2375 282.797736)scale(0.1 -0.1)">
       <use xlink:href="#DejaVuSans-48"/>
      </g>
     </g>
    </g>
    <g id="ytick_2">
     <g id="line2d_10">
      <g>
       <use style="stroke:#000000;stroke-width:0.8;" x="57.6" xlink:href="#m2d97c81a9e" y="237.391099"/>
      </g>
     </g>
     <g id="text_10">
      <!-- 20 -->
      <g transform="translate(37.875 241.190318)scale(0.1 -0.1)">
       <use xlink:href="#DejaVuSans-50"/>
       <use x="63.623047" xlink:href="#DejaVuSans-48"/>
      </g>
     </g>
    </g>
    <g id="ytick_3">
     <g id="line2d_11">
      <g>
       <use style="stroke:#000000;stroke-width:0.8;" x="57.6" xlink:href="#m2d97c81a9e" y="195.78368"/>
      </g>
     </g>
     <g id="text_11">
      <!-- 40 -->
      <g transform="translate(37.875 199.582899)scale(0.1 -0.1)">
       <use xlink:href="#DejaVuSans-52"/>
       <use x="63.623047" xlink:href="#DejaVuSans-48"/>
      </g>
     </g>
    </g>
    <g id="ytick_4">
     <g id="line2d_12">
      <g>
       <use style="stroke:#000000;stroke-width:0.8;" x="57.6" xlink:href="#m2d97c81a9e" y="154.176262"/>
      </g>
     </g>
     <g id="text_12">
      <!-- 60 -->
      <g transform="translate(37.875 157.975481)scale(0.1 -0.1)">
       <use xlink:href="#DejaVuSans-54"/>
       <use x="63.623047" xlink:href="#DejaVuSans-48"/>
      </g>
     </g>
    </g>
    <g id="ytick_5">
     <g id="line2d_13">
      <g>
       <use style="stroke:#000000;stroke-width:0.8;" x="57.6" xlink:href="#m2d97c81a9e" y="112.568843"/>
      </g>
     </g>
     <g id="text_13">
      <!-- 80 -->
      <g transform="translate(37.875 116.368062)scale(0.1 -0.1)">
       <use xlink:href="#DejaVuSans-56"/>
       <use x="63.623047" xlink:href="#DejaVuSans-48"/>
      </g>
     </g>
    </g>
    <g id="ytick_6">
     <g id="line2d_14">
      <g>
       <use style="stroke:#000000;stroke-width:0.8;" x="57.6" xlink:href="#m2d97c81a9e" y="70.961425"/>
      </g>
     </g>
     <g id="text_14">
      <!-- 100 -->
      <g transform="translate(31.5125 74.760643)scale(0.1 -0.1)">
       <use xlink:href="#DejaVuSans-49"/>
       <use x="63.623047" xlink:href="#DejaVuSans-48"/>
       <use x="127.246094" xlink:href="#DejaVuSans-48"/>
      </g>
     </g>
    </g>
   </g>
   <g id="line2d_15">
    <path clip-path="url(#pf07c644432)" d="M 385.998501 278.998517 
L 386.316635 257.102652 
L 387.000816 224.242734 
L 387.424347 218.646279 
L 388.411055 210.120209 
L 389.444618 201.57662 
L 389.951447 195.949022 
L 390.166733 190.430426 
L 390.126002 187.726603 
L 389.965531 185.067549 
L 389.669701 182.459104 
L 389.222894 179.907106 
L 388.609491 177.417397 
L 387.813875 174.995814 
L 386.847176 172.607386 
L 385.736562 170.217993 
L 384.49047 167.834749 
L 383.117337 165.464771 
L 380.0237 160.793072 
L 376.523149 156.259818 
L 372.683183 151.921933 
L 368.5713 147.83634 
L 364.254999 144.059962 
L 359.801779 140.649722 
L 355.279138 137.662544 
L 353.012879 136.345391 
L 350.681567 135.210924 
L 348.224983 134.299468 
L 345.658088 133.584592 
L 342.995842 133.039865 
L 340.253207 132.638857 
L 334.586614 132.162275 
L 325.857837 131.864528 
L 320.060608 131.635756 
L 314.420582 131.13608 
L 311.696923 130.718577 
L 309.057448 130.154055 
L 306.517119 129.416085 
L 304.090897 128.478235 
L 301.793743 127.314076 
L 299.633497 125.867009 
L 297.598523 124.124338 
L 295.674573 122.125487 
L 293.847396 119.909878 
L 292.102744 117.516936 
L 288.804012 112.356743 
L 281.003879 99.112537 
L 279.406431 96.720158 
L 277.76326 94.505253 
L 276.060117 92.507246 
L 274.282752 90.765561 
L 272.416915 89.319619 
L 270.448356 88.208845 
L 268.362827 87.472661 
L 266.168126 87.159656 
L 263.887211 87.260895 
L 261.528563 87.72952 
L 259.100666 88.518673 
L 256.612003 89.581496 
L 254.071056 90.871131 
L 248.866243 93.9434 
L 238.202463 100.74791 
L 235.533053 102.313191 
L 232.879223 103.730417 
L 230.249455 104.952729 
L 227.652233 105.93327 
L 225.096039 106.62518 
L 222.589357 106.981602 
L 220.140668 106.955678 
L 217.745204 106.540332 
L 215.3892 105.785598 
L 213.067648 104.73028 
L 210.77554 103.413182 
L 208.507868 101.873106 
L 206.259626 100.148856 
L 201.801398 96.30305 
L 190.645298 86.181739 
L 188.372211 84.381025 
L 186.073484 82.74537 
L 183.74411 81.313576 
L 181.37908 80.124447 
L 178.973386 79.216786 
L 176.522022 78.629397 
L 174.029674 78.339545 
L 171.505924 78.283556 
L 168.953104 78.438828 
L 166.373546 78.78276 
L 163.769583 79.292749 
L 161.143547 79.946195 
L 155.834585 81.593045 
L 150.465318 83.542495 
L 139.620509 87.625933 
L 134.182283 89.39829 
L 131.467378 90.138021 
L 128.758389 90.749985 
L 123.357724 91.561414 
L 117.935375 92.100967 
L 112.487436 92.458426 
L 104.279124 92.735602 
L 93.294556 92.81947 
L 79.558882 92.888986 
L 74.080056 93.026677 
L 74.080056 93.026677 
" style="fill:none;stroke:#fea952;stroke-linecap:square;"/>
   </g>
   <g id="line2d_16">
    <path clip-path="url(#pf07c644432)" d="M 377.677403 278.918457 
L 377.996669 256.943747 
L 378.696256 223.712289 
L 379.148505 217.775912 
L 380.155057 209.078296 
L 381.431809 198.086949 
L 381.78408 192.980901 
L 381.819631 188.227884 
L 381.472899 183.894211 
L 381.143024 181.897785 
L 380.703772 180.014837 
L 380.100251 178.117848 
L 379.301028 176.114912 
L 377.290209 172.00648 
L 374.775873 167.840457 
L 371.822521 163.704518 
L 368.500935 159.679131 
L 364.88602 155.839268 
L 361.056229 152.25586 
L 357.094089 148.99673 
L 353.087721 146.126818 
L 349.371696 143.827963 
L 347.7869 143.012718 
L 345.992427 142.315875 
L 343.989975 141.737167 
L 341.791936 141.273801 
L 339.416684 140.918188 
L 334.217676 140.475576 
L 325.589993 140.1817 
L 319.46949 139.936218 
L 316.333749 139.70785 
L 313.159727 139.361488 
L 309.956514 138.856025 
L 306.736013 138.145177 
L 303.516823 137.17787 
L 300.329191 135.900947 
L 297.162531 134.227756 
L 294.220798 132.187593 
L 291.603087 129.895113 
L 289.254607 127.41993 
L 287.123306 124.812296 
L 285.165145 122.11224 
L 281.632798 116.578208 
L 274.083363 103.733528 
L 271.430367 99.903545 
L 269.185428 97.343127 
L 267.678417 96.055788 
L 267.187915 95.710784 
L 266.537115 95.472954 
L 265.508858 95.42284 
L 264.100874 95.643451 
L 262.368922 96.171489 
L 260.378181 97.00194 
L 258.184022 98.10512 
L 253.342381 100.958475 
L 242.411709 107.926304 
L 239.453028 109.653551 
L 236.386677 111.276598 
L 233.188613 112.737871 
L 229.82645 113.965696 
L 226.267478 114.863798 
L 222.501261 115.30262 
L 218.719031 115.154826 
L 215.20654 114.465121 
L 211.945565 113.361116 
L 208.921671 111.945401 
L 206.100315 110.297175 
L 203.44371 108.476241 
L 200.918694 106.530199 
L 196.164971 102.424959 
L 185.478036 92.704506 
L 181.715897 89.834695 
L 180.006005 88.748202 
L 178.441539 87.9102 
L 177.034307 87.309194 
L 175.560737 86.895172 
L 173.845108 86.658981 
L 172.011135 86.589689 
L 170.052874 86.687319 
L 167.972934 86.949096 
L 165.778971 87.367986 
L 161.088659 88.628362 
L 156.058165 90.340375 
L 139.370527 96.499927 
L 136.369891 97.42708 
L 133.301007 98.254973 
L 130.160317 98.952527 
L 127.126941 99.464076 
L 121.397018 100.1442 
L 115.696613 100.607597 
L 107.213924 100.990671 
L 98.827726 101.124052 
L 74.327384 101.344484 
L 74.327384 101.344484 
" style="fill:none;stroke:#ffffff;stroke-linecap:square;"/>
   </g>
   <g id="line2d_17">
    <path clip-path="url(#pf07c644432)" d="M 394.3196 279.078578 
L 394.636601 257.261558 
L 395.305376 224.773179 
L 395.700188 219.516646 
L 396.667053 211.162122 
L 397.724921 202.40347 
L 398.2605 196.403696 
L 398.487273 190.305084 
L 398.432374 187.225322 
L 398.234008 184.129801 
L 397.866503 181.023997 
L 397.302763 177.916428 
L 396.51521 174.819956 
L 395.527499 171.873779 
L 394.393324 169.09986 
L 393.110884 166.362287 
L 391.69073 163.663018 
L 390.142538 161.004542 
L 388.47533 158.389889 
L 386.697638 155.822594 
L 382.843139 150.846425 
L 378.641041 146.11237 
L 374.149666 141.661477 
L 369.423648 137.538293 
L 364.512914 133.790254 
L 359.460641 130.467954 
L 356.654062 128.86282 
L 353.576235 127.40913 
L 350.45754 126.283061 
L 347.326201 125.432016 
L 344.199748 124.805929 
L 341.08973 124.359526 
L 334.955552 123.848974 
L 326.125681 123.547356 
L 320.651726 123.335294 
L 315.681437 122.910672 
L 313.437332 122.581128 
L 311.378884 122.162933 
L 309.517416 121.654299 
L 307.852604 121.055523 
L 306.424955 120.400396 
L 305.046195 119.546424 
L 303.593959 118.353563 
L 302.094539 116.831044 
L 300.571487 115.007461 
L 299.040342 112.921632 
L 295.975227 108.135277 
L 287.924394 94.491547 
L 286.089609 91.762111 
L 284.096154 89.106962 
L 281.884336 86.563715 
L 279.380076 84.187994 
L 276.506289 82.072267 
L 273.218296 80.361901 
L 269.537738 79.234538 
L 265.799138 78.846357 
L 262.265564 79.098949 
L 258.956253 79.815589 
L 255.83241 80.865857 
L 252.845824 82.161052 
L 249.95809 83.637142 
L 244.390105 86.928325 
L 231.613078 94.972831 
L 229.371768 96.184235 
L 227.310296 97.167587 
L 225.478015 97.900844 
L 222.677452 98.660585 
L 221.562306 98.756529 
L 220.283869 98.615543 
L 218.832835 98.210081 
L 217.213624 97.51516 
L 215.450764 96.529188 
L 213.572026 95.269971 
L 211.600558 93.767513 
L 207.437826 90.18114 
L 198.3073 81.785425 
L 195.81256 79.658971 
L 193.196678 77.600788 
L 190.431071 75.656045 
L 187.482214 73.87895 
L 184.31662 72.338694 
L 180.912465 71.124379 
L 177.483307 70.363623 
L 174.21424 70.020108 
L 171.000713 69.977422 
L 167.853334 70.190337 
L 164.774158 70.616423 
L 161.760195 71.217513 
L 158.80626 71.959695 
L 153.057391 73.748666 
L 147.496416 75.768647 
L 136.934665 79.749809 
L 131.994676 81.3695 
L 127.35646 82.547443 
L 122.456749 83.288849 
L 117.328014 83.801678 
L 112.115529 84.145257 
L 104.151248 84.415101 
L 93.290484 84.497988 
L 79.388046 84.569256 
L 73.832727 84.708869 
L 73.832727 84.708869 
" style="fill:none;stroke:#ffffff;stroke-linecap:square;"/>
   </g>
   <g id="patch_3">
    <path d="M 57.6 307.584 
L 57.6 41.472 
" style="fill:none;stroke:#000000;stroke-linecap:square;stroke-linejoin:miter;stroke-width:0.8;"/>
   </g>
   <g id="patch_4">
    <path d="M 414.72 307.584 
L 414.72 41.472 
" style="fill:none;stroke:#000000;stroke-linecap:square;stroke-linejoin:miter;stroke-width:0.8;"/>
   </g>
   <g id="patch_5">
    <path d="M 57.6 307.584 
L 414.72 307.584 
" style="fill:none;stroke:#000000;stroke-linecap:square;stroke-linejoin:miter;stroke-width:0.8;"/>
   </g>
   <g id="patch_6">
    <path d="M 57.6 41.472 
L 414.72 41.472 
" style="fill:none;stroke:#000000;stroke-linecap:square;stroke-linejoin:miter;stroke-width:0.8;"/>
   </g>
  </g>
 </g>
 <defs>
  <clipPath id="pf07c644432">
   <rect height="266.112" width="357.12" x="57.6" y="41.472"/>
  </clipPath>
 </defs>
</svg>
