<?xml version="1.0" encoding="utf-8" standalone="no"?>
<!DOCTYPE svg PUBLIC "-//W3C//DTD SVG 1.1//EN"
  "http://www.w3.org/Graphics/SVG/1.1/DTD/svg11.dtd">
<!-- Created with matplotlib (https://matplotlib.org/) -->
<svg height="345.6pt" version="1.1" viewBox="0 0 460.8 345.6" width="460.8pt" xmlns="http://www.w3.org/2000/svg" xmlns:xlink="http://www.w3.org/1999/xlink">
 <metadata>
  <rdf:RDF xmlns:cc="http://creativecommons.org/ns#" xmlns:dc="http://purl.org/dc/elements/1.1/" xmlns:rdf="http://www.w3.org/1999/02/22-rdf-syntax-ns#">
   <cc:Work>
    <dc:type rdf:resource="http://purl.org/dc/dcmitype/StillImage"/>
    <dc:date>2021-06-17T13:11:48.940963</dc:date>
    <dc:format>image/svg+xml</dc:format>
    <dc:creator>
     <cc:Agent>
      <dc:title>Matplotlib v3.3.3, https://matplotlib.org/</dc:title>
     </cc:Agent>
    </dc:creator>
   </cc:Work>
  </rdf:RDF>
 </metadata>
 <defs>
  <style type="text/css">*{stroke-linecap:butt;stroke-linejoin:round;}</style>
 </defs>
 <g id="figure_1">
  <g id="patch_1">
   <path d="M 0 345.6 
L 460.8 345.6 
L 460.8 0 
L 0 0 
z
" style="fill:#ffffff;"/>
  </g>
  <g id="axes_1">
   <g id="patch_2">
    <path d="M 57.6 307.584 
L 414.72 307.584 
L 414.72 41.472 
L 57.6 41.472 
z
" style="fill:#7d9051;"/>
   </g>
   <g id="matplotlib.axis_1">
    <g id="xtick_1">
     <g id="line2d_1">
      <defs>
       <path d="M 0 0 
L 0 3.5 
" id="md53437f80d" style="stroke:#000000;stroke-width:0.8;"/>
      </defs>
      <g>
       <use style="stroke:#000000;stroke-width:0.8;" x="65.039708" xlink:href="#md53437f80d" y="307.584"/>
      </g>
     </g>
     <g id="text_1">
      <!-- −150 -->
      <g transform="translate(51.306114 322.182437)scale(0.1 -0.1)">
       <defs>
        <path d="M 10.59375 35.5 
L 73.1875 35.5 
L 73.1875 27.203125 
L 10.59375 27.203125 
z
" id="DejaVuSans-8722"/>
        <path d="M 12.40625 8.296875 
L 28.515625 8.296875 
L 28.515625 63.921875 
L 10.984375 60.40625 
L 10.984375 69.390625 
L 28.421875 72.90625 
L 38.28125 72.90625 
L 38.28125 8.296875 
L 54.390625 8.296875 
L 54.390625 0 
L 12.40625 0 
z
" id="DejaVuSans-49"/>
        <path d="M 10.796875 72.90625 
L 49.515625 72.90625 
L 49.515625 64.59375 
L 19.828125 64.59375 
L 19.828125 46.734375 
Q 21.96875 47.46875 24.109375 47.828125 
Q 26.265625 48.1875 28.421875 48.1875 
Q 40.625 48.1875 47.75 41.5 
Q 54.890625 34.8125 54.890625 23.390625 
Q 54.890625 11.625 47.5625 5.09375 
Q 40.234375 -1.421875 26.90625 -1.421875 
Q 22.3125 -1.421875 17.546875 -0.640625 
Q 12.796875 0.140625 7.71875 1.703125 
L 7.71875 11.625 
Q 12.109375 9.234375 16.796875 8.0625 
Q 21.484375 6.890625 26.703125 6.890625 
Q 35.15625 6.890625 40.078125 11.328125 
Q 45.015625 15.765625 45.015625 23.390625 
Q 45.015625 31 40.078125 35.4375 
Q 35.15625 39.890625 26.703125 39.890625 
Q 22.75 39.890625 18.8125 39.015625 
Q 14.890625 38.140625 10.796875 36.28125 
z
" id="DejaVuSans-53"/>
        <path d="M 31.78125 66.40625 
Q 24.171875 66.40625 20.328125 58.90625 
Q 16.5 51.421875 16.5 36.375 
Q 16.5 21.390625 20.328125 13.890625 
Q 24.171875 6.390625 31.78125 6.390625 
Q 39.453125 6.390625 43.28125 13.890625 
Q 47.125 21.390625 47.125 36.375 
Q 47.125 51.421875 43.28125 58.90625 
Q 39.453125 66.40625 31.78125 66.40625 
z
M 31.78125 74.21875 
Q 44.046875 74.21875 50.515625 64.515625 
Q 56.984375 54.828125 56.984375 36.375 
Q 56.984375 17.96875 50.515625 8.265625 
Q 44.046875 -1.421875 31.78125 -1.421875 
Q 19.53125 -1.421875 13.0625 8.265625 
Q 6.59375 17.96875 6.59375 36.375 
Q 6.59375 54.828125 13.0625 64.515625 
Q 19.53125 74.21875 31.78125 74.21875 
z
" id="DejaVuSans-48"/>
       </defs>
       <use xlink:href="#DejaVuSans-8722"/>
       <use x="83.789062" xlink:href="#DejaVuSans-49"/>
       <use x="147.412109" xlink:href="#DejaVuSans-53"/>
       <use x="211.035156" xlink:href="#DejaVuSans-48"/>
      </g>
     </g>
    </g>
    <g id="xtick_2">
     <g id="line2d_2">
      <g>
       <use style="stroke:#000000;stroke-width:0.8;" x="124.547127" xlink:href="#md53437f80d" y="307.584"/>
      </g>
     </g>
     <g id="text_2">
      <!-- −100 -->
      <g transform="translate(110.813533 322.182437)scale(0.1 -0.1)">
       <use xlink:href="#DejaVuSans-8722"/>
       <use x="83.789062" xlink:href="#DejaVuSans-49"/>
       <use x="147.412109" xlink:href="#DejaVuSans-48"/>
       <use x="211.035156" xlink:href="#DejaVuSans-48"/>
      </g>
     </g>
    </g>
    <g id="xtick_3">
     <g id="line2d_3">
      <g>
       <use style="stroke:#000000;stroke-width:0.8;" x="184.054546" xlink:href="#md53437f80d" y="307.584"/>
      </g>
     </g>
     <g id="text_3">
      <!-- −50 -->
      <g transform="translate(173.502203 322.182437)scale(0.1 -0.1)">
       <use xlink:href="#DejaVuSans-8722"/>
       <use x="83.789062" xlink:href="#DejaVuSans-53"/>
       <use x="147.412109" xlink:href="#DejaVuSans-48"/>
      </g>
     </g>
    </g>
    <g id="xtick_4">
     <g id="line2d_4">
      <g>
       <use style="stroke:#000000;stroke-width:0.8;" x="243.561966" xlink:href="#md53437f80d" y="307.584"/>
      </g>
     </g>
     <g id="text_4">
      <!-- 0 -->
      <g transform="translate(240.380716 322.182437)scale(0.1 -0.1)">
       <use xlink:href="#DejaVuSans-48"/>
      </g>
     </g>
    </g>
    <g id="xtick_5">
     <g id="line2d_5">
      <g>
       <use style="stroke:#000000;stroke-width:0.8;" x="303.069385" xlink:href="#md53437f80d" y="307.584"/>
      </g>
     </g>
     <g id="text_5">
      <!-- 50 -->
      <g transform="translate(296.706885 322.182437)scale(0.1 -0.1)">
       <use xlink:href="#DejaVuSans-53"/>
       <use x="63.623047" xlink:href="#DejaVuSans-48"/>
      </g>
     </g>
    </g>
    <g id="xtick_6">
     <g id="line2d_6">
      <g>
       <use style="stroke:#000000;stroke-width:0.8;" x="362.576804" xlink:href="#md53437f80d" y="307.584"/>
      </g>
     </g>
     <g id="text_6">
      <!-- 100 -->
      <g transform="translate(353.033054 322.182437)scale(0.1 -0.1)">
       <use xlink:href="#DejaVuSans-49"/>
       <use x="63.623047" xlink:href="#DejaVuSans-48"/>
       <use x="127.246094" xlink:href="#DejaVuSans-48"/>
      </g>
     </g>
    </g>
   </g>
   <g id="matplotlib.axis_2">
    <g id="ytick_1">
     <g id="line2d_7">
      <defs>
       <path d="M 0 0 
L -3.5 0 
" id="m3754aba8bd" style="stroke:#000000;stroke-width:0.8;"/>
      </defs>
      <g>
       <use style="stroke:#000000;stroke-width:0.8;" x="57.6" xlink:href="#m3754aba8bd" y="295.442199"/>
      </g>
     </g>
     <g id="text_7">
      <!-- 0 -->
      <g transform="translate(44.2375 299.241417)scale(0.1 -0.1)">
       <use xlink:href="#DejaVuSans-48"/>
      </g>
     </g>
    </g>
    <g id="ytick_2">
     <g id="line2d_8">
      <g>
       <use style="stroke:#000000;stroke-width:0.8;" x="57.6" xlink:href="#m3754aba8bd" y="265.688489"/>
      </g>
     </g>
     <g id="text_8">
      <!-- 25 -->
      <g transform="translate(37.875 269.487708)scale(0.1 -0.1)">
       <defs>
        <path d="M 19.1875 8.296875 
L 53.609375 8.296875 
L 53.609375 0 
L 7.328125 0 
L 7.328125 8.296875 
Q 12.9375 14.109375 22.625 23.890625 
Q 32.328125 33.6875 34.8125 36.53125 
Q 39.546875 41.84375 41.421875 45.53125 
Q 43.3125 49.21875 43.3125 52.78125 
Q 43.3125 58.59375 39.234375 62.25 
Q 35.15625 65.921875 28.609375 65.921875 
Q 23.96875 65.921875 18.8125 64.3125 
Q 13.671875 62.703125 7.8125 59.421875 
L 7.8125 69.390625 
Q 13.765625 71.78125 18.9375 73 
Q 24.125 74.21875 28.421875 74.21875 
Q 39.75 74.21875 46.484375 68.546875 
Q 53.21875 62.890625 53.21875 53.421875 
Q 53.21875 48.921875 51.53125 44.890625 
Q 49.859375 40.875 45.40625 35.40625 
Q 44.1875 33.984375 37.640625 27.21875 
Q 31.109375 20.453125 19.1875 8.296875 
z
" id="DejaVuSans-50"/>
       </defs>
       <use xlink:href="#DejaVuSans-50"/>
       <use x="63.623047" xlink:href="#DejaVuSans-53"/>
      </g>
     </g>
    </g>
    <g id="ytick_3">
     <g id="line2d_9">
      <g>
       <use style="stroke:#000000;stroke-width:0.8;" x="57.6" xlink:href="#m3754aba8bd" y="235.934779"/>
      </g>
     </g>
     <g id="text_9">
      <!-- 50 -->
      <g transform="translate(37.875 239.733998)scale(0.1 -0.1)">
       <use xlink:href="#DejaVuSans-53"/>
       <use x="63.623047" xlink:href="#DejaVuSans-48"/>
      </g>
     </g>
    </g>
    <g id="ytick_4">
     <g id="line2d_10">
      <g>
       <use style="stroke:#000000;stroke-width:0.8;" x="57.6" xlink:href="#m3754aba8bd" y="206.18107"/>
      </g>
     </g>
     <g id="text_10">
      <!-- 75 -->
      <g transform="translate(37.875 209.980288)scale(0.1 -0.1)">
       <defs>
        <path d="M 8.203125 72.90625 
L 55.078125 72.90625 
L 55.078125 68.703125 
L 28.609375 0 
L 18.3125 0 
L 43.21875 64.59375 
L 8.203125 64.59375 
z
" id="DejaVuSans-55"/>
       </defs>
       <use xlink:href="#DejaVuSans-55"/>
       <use x="63.623047" xlink:href="#DejaVuSans-53"/>
      </g>
     </g>
    </g>
    <g id="ytick_5">
     <g id="line2d_11">
      <g>
       <use style="stroke:#000000;stroke-width:0.8;" x="57.6" xlink:href="#m3754aba8bd" y="176.42736"/>
      </g>
     </g>
     <g id="text_11">
      <!-- 100 -->
      <g transform="translate(31.5125 180.226579)scale(0.1 -0.1)">
       <use xlink:href="#DejaVuSans-49"/>
       <use x="63.623047" xlink:href="#DejaVuSans-48"/>
       <use x="127.246094" xlink:href="#DejaVuSans-48"/>
      </g>
     </g>
    </g>
    <g id="ytick_6">
     <g id="line2d_12">
      <g>
       <use style="stroke:#000000;stroke-width:0.8;" x="57.6" xlink:href="#m3754aba8bd" y="146.673651"/>
      </g>
     </g>
     <g id="text_12">
      <!-- 125 -->
      <g transform="translate(31.5125 150.472869)scale(0.1 -0.1)">
       <use xlink:href="#DejaVuSans-49"/>
       <use x="63.623047" xlink:href="#DejaVuSans-50"/>
       <use x="127.246094" xlink:href="#DejaVuSans-53"/>
      </g>
     </g>
    </g>
    <g id="ytick_7">
     <g id="line2d_13">
      <g>
       <use style="stroke:#000000;stroke-width:0.8;" x="57.6" xlink:href="#m3754aba8bd" y="116.919941"/>
      </g>
     </g>
     <g id="text_13">
      <!-- 150 -->
      <g transform="translate(31.5125 120.71916)scale(0.1 -0.1)">
       <use xlink:href="#DejaVuSans-49"/>
       <use x="63.623047" xlink:href="#DejaVuSans-53"/>
       <use x="127.246094" xlink:href="#DejaVuSans-48"/>
      </g>
     </g>
    </g>
    <g id="ytick_8">
     <g id="line2d_14">
      <g>
       <use style="stroke:#000000;stroke-width:0.8;" x="57.6" xlink:href="#m3754aba8bd" y="87.166231"/>
      </g>
     </g>
     <g id="text_14">
      <!-- 175 -->
      <g transform="translate(31.5125 90.96545)scale(0.1 -0.1)">
       <use xlink:href="#DejaVuSans-49"/>
       <use x="63.623047" xlink:href="#DejaVuSans-55"/>
       <use x="127.246094" xlink:href="#DejaVuSans-53"/>
      </g>
     </g>
    </g>
    <g id="ytick_9">
     <g id="line2d_15">
      <g>
       <use style="stroke:#000000;stroke-width:0.8;" x="57.6" xlink:href="#m3754aba8bd" y="57.412522"/>
      </g>
     </g>
     <g id="text_15">
      <!-- 200 -->
      <g transform="translate(31.5125 61.21174)scale(0.1 -0.1)">
       <use xlink:href="#DejaVuSans-50"/>
       <use x="63.623047" xlink:href="#DejaVuSans-48"/>
       <use x="127.246094" xlink:href="#DejaVuSans-48"/>
      </g>
     </g>
    </g>
   </g>
   <g id="line2d_16">
    <path clip-path="url(#p44e1e95ec5)" d="M 243.561966 295.442199 
L 243.835949 278.218758 
L 244.090456 262.553515 
L 243.879597 254.663509 
L 243.735567 246.785286 
L 243.889733 242.100774 
L 244.159582 239.007225 
L 244.600513 235.943843 
L 245.274211 232.922231 
L 246.180623 229.942765 
L 247.844187 225.528124 
L 252.621011 213.809223 
L 253.564799 210.831063 
L 254.287374 207.811157 
L 256.862504 194.740963 
L 257.307468 191.408274 
L 257.546278 188.152086 
L 257.515621 185.02368 
L 257.152183 182.074334 
L 256.825885 180.682833 
L 256.39265 179.355326 
L 255.844562 178.098224 
L 255.135356 176.930883 
L 254.238426 175.860759 
L 253.175349 174.876416 
L 251.967703 173.966416 
L 249.205016 172.323697 
L 246.122987 170.841101 
L 238.153622 167.234689 
L 235.313291 165.591969 
L 234.053883 164.681969 
L 232.930416 163.697626 
L 231.964469 162.627503 
L 231.177619 161.460161 
L 230.567319 160.199956 
L 230.106014 158.863828 
L 229.77777 157.459224 
L 229.456732 154.474359 
L 229.476737 151.304918 
L 229.867362 146.33495 
L 230.308324 141.28468 
L 230.417815 137.972479 
L 230.231007 134.773477 
L 229.986656 133.235036 
L 229.62043 131.747228 
L 229.112402 130.297513 
L 228.465955 128.867316 
L 226.83395 126.059036 
L 224.876697 123.309502 
L 217.663548 113.96277 
L 216.127162 111.318171 
L 215.541565 109.992135 
L 215.103078 108.661462 
L 214.830736 107.32454 
L 214.743576 105.979759 
L 214.833968 104.629344 
L 215.073422 103.276931 
L 215.449673 101.923033 
L 216.56352 99.212824 
L 218.077407 96.502808 
L 219.893232 93.797077 
L 222.968505 89.75546 
L 228.213879 83.098804 
L 230.936661 79.174702 
L 235.41641 72.757967 
L 241.929185 63.934337 
L 247.556661 56.404596 
L 247.556661 56.404596 
" style="fill:none;stroke:#fea952;stroke-linecap:square;"/>
   </g>
   <g id="line2d_17">
    <path clip-path="url(#p44e1e95ec5)" d="M 238.801592 295.396397 
L 239.076332 278.122328 
L 239.330391 262.62443 
L 239.121405 254.814717 
L 238.974375 248.353931 
L 239.054748 243.410288 
L 239.2683 240.076978 
L 239.655588 236.720946 
L 240.281383 233.291227 
L 241.170903 229.967994 
L 242.250085 226.7795 
L 244.065381 222.210063 
L 247.610005 213.662258 
L 248.556907 210.956868 
L 249.305783 208.314812 
L 251.275255 198.855896 
L 252.151884 194.052987 
L 252.566416 190.977378 
L 252.786157 188.08501 
L 252.774515 185.453985 
L 252.517313 183.161179 
L 252.028785 181.25794 
L 251.486835 179.988912 
L 251.004018 179.353875 
L 250.310406 178.678435 
L 248.325024 177.280778 
L 245.692905 175.888096 
L 240.979117 173.78552 
L 237.591976 172.262954 
L 234.188421 170.491228 
L 232.525148 169.450662 
L 230.916646 168.262611 
L 229.396555 166.887466 
L 228.016925 165.288356 
L 226.893025 163.535131 
L 226.067376 161.753585 
L 225.470319 159.94715 
L 225.065809 158.137952 
L 224.818473 156.337135 
L 224.673322 152.776479 
L 224.830005 149.282033 
L 225.659351 138.114876 
L 225.529348 135.520241 
L 225.127712 133.321627 
L 224.774364 132.258298 
L 223.654943 129.964957 
L 222.056054 127.504606 
L 219.044581 123.599028 
L 215.739036 119.447836 
L 213.622068 116.478659 
L 212.650968 114.901327 
L 211.772316 113.241337 
L 211.020127 111.482052 
L 210.438288 109.611716 
L 210.080111 107.632448 
L 209.993611 105.661811 
L 210.146285 103.799359 
L 210.486652 102.002257 
L 210.984341 100.27256 
L 211.612964 98.606178 
L 213.178461 95.435019 
L 215.044289 92.432592 
L 217.100518 89.557342 
L 221.386948 84.111473 
L 224.364459 80.297872 
L 226.997968 76.500764 
L 231.558928 69.968149 
L 238.120348 61.078464 
L 243.733445 53.568 
L 243.733445 53.568 
" style="fill:none;stroke:#ffffff;stroke-linecap:square;"/>
   </g>
   <g id="line2d_18">
    <path clip-path="url(#p44e1e95ec5)" d="M 248.322339 295.488 
L 248.595566 278.315187 
L 248.850522 262.4826 
L 248.637789 254.512301 
L 248.495633 246.856151 
L 248.637157 242.454626 
L 249.057727 238.221873 
L 249.527596 235.562911 
L 250.233318 232.887863 
L 251.154283 230.151185 
L 252.833615 225.921002 
L 256.560143 216.91003 
L 257.676641 213.692456 
L 258.60926 210.339243 
L 260.618777 200.686634 
L 261.573124 195.428938 
L 262.048521 191.83917 
L 262.306399 188.219163 
L 262.256727 184.593375 
L 262.082557 182.785788 
L 261.787053 180.987488 
L 261.351569 179.205863 
L 260.756514 177.452713 
L 259.913142 175.626401 
L 258.783877 173.872853 
L 257.472834 172.367643 
L 256.040292 171.074397 
L 254.524248 169.950531 
L 251.333234 168.0653 
L 248.046714 166.486503 
L 240.423747 163.050219 
L 238.101434 161.733276 
L 236.464277 160.507786 
L 235.462214 159.385191 
L 235.067262 158.646326 
L 234.741709 157.780507 
L 234.314835 155.650037 
L 234.19082 153.041498 
L 234.319589 150.057149 
L 235.152154 139.692415 
L 235.111884 135.940093 
L 234.932665 134.026713 
L 234.609266 132.097175 
L 234.113149 130.172828 
L 233.450439 128.336728 
L 232.650865 126.598004 
L 230.759741 123.36619 
L 228.637507 120.390673 
L 221.705027 111.446882 
L 220.482008 109.395005 
L 219.767868 107.711207 
L 219.49354 106.297707 
L 219.660192 104.551605 
L 220.287957 102.530142 
L 221.374719 100.280053 
L 222.863127 97.865711 
L 224.66691 95.33685 
L 228.833014 90.045198 
L 232.063298 85.899736 
L 234.875355 81.84864 
L 239.273891 75.547786 
L 245.738022 66.79021 
L 251.379876 59.241192 
L 251.379876 59.241192 
" style="fill:none;stroke:#ffffff;stroke-linecap:square;"/>
   </g>
   <g id="patch_3">
    <path d="M 57.6 307.584 
L 57.6 41.472 
" style="fill:none;stroke:#000000;stroke-linecap:square;stroke-linejoin:miter;stroke-width:0.8;"/>
   </g>
   <g id="patch_4">
    <path d="M 414.72 307.584 
L 414.72 41.472 
" style="fill:none;stroke:#000000;stroke-linecap:square;stroke-linejoin:miter;stroke-width:0.8;"/>
   </g>
   <g id="patch_5">
    <path d="M 57.6 307.584 
L 414.72 307.584 
" style="fill:none;stroke:#000000;stroke-linecap:square;stroke-linejoin:miter;stroke-width:0.8;"/>
   </g>
   <g id="patch_6">
    <path d="M 57.6 41.472 
L 414.72 41.472 
" style="fill:none;stroke:#000000;stroke-linecap:square;stroke-linejoin:miter;stroke-width:0.8;"/>
   </g>
  </g>
 </g>
 <defs>
  <clipPath id="p44e1e95ec5">
   <rect height="266.112" width="357.12" x="57.6" y="41.472"/>
  </clipPath>
 </defs>
</svg>
