<?xml version="1.0" encoding="utf-8" standalone="no"?>
<!DOCTYPE svg PUBLIC "-//W3C//DTD SVG 1.1//EN"
  "http://www.w3.org/Graphics/SVG/1.1/DTD/svg11.dtd">
<!-- Created with matplotlib (https://matplotlib.org/) -->
<svg height="345.6pt" version="1.1" viewBox="0 0 460.8 345.6" width="460.8pt" xmlns="http://www.w3.org/2000/svg" xmlns:xlink="http://www.w3.org/1999/xlink">
 <metadata>
  <rdf:RDF xmlns:cc="http://creativecommons.org/ns#" xmlns:dc="http://purl.org/dc/elements/1.1/" xmlns:rdf="http://www.w3.org/1999/02/22-rdf-syntax-ns#">
   <cc:Work>
    <dc:type rdf:resource="http://purl.org/dc/dcmitype/StillImage"/>
    <dc:date>2021-05-27T22:58:59.135729</dc:date>
    <dc:format>image/svg+xml</dc:format>
    <dc:creator>
     <cc:Agent>
      <dc:title>Matplotlib v3.3.3, https://matplotlib.org/</dc:title>
     </cc:Agent>
    </dc:creator>
   </cc:Work>
  </rdf:RDF>
 </metadata>
 <defs>
  <style type="text/css">*{stroke-linecap:butt;stroke-linejoin:round;}</style>
 </defs>
 <g id="figure_1">
  <g id="patch_1">
   <path d="M 0 345.6 
L 460.8 345.6 
L 460.8 0 
L 0 0 
z
" style="fill:#ffffff;"/>
  </g>
  <g id="axes_1">
   <g id="patch_2">
    <path d="M 57.6 307.584 
L 414.72 307.584 
L 414.72 41.472 
L 57.6 41.472 
z
" style="fill:#7d9051;"/>
   </g>
   <g id="matplotlib.axis_1">
    <g id="xtick_1">
     <g id="line2d_1">
      <defs>
       <path d="M 0 0 
L 0 3.5 
" id="m93b0c32aa1" style="stroke:#000000;stroke-width:0.8;"/>
      </defs>
      <g>
       <use style="stroke:#000000;stroke-width:0.8;" x="92.843019" xlink:href="#m93b0c32aa1" y="307.584"/>
      </g>
     </g>
     <g id="text_1">
      <!-- −50 -->
      <g transform="translate(82.290675 322.182437)scale(0.1 -0.1)">
       <defs>
        <path d="M 10.59375 35.5 
L 73.1875 35.5 
L 73.1875 27.203125 
L 10.59375 27.203125 
z
" id="DejaVuSans-8722"/>
        <path d="M 10.796875 72.90625 
L 49.515625 72.90625 
L 49.515625 64.59375 
L 19.828125 64.59375 
L 19.828125 46.734375 
Q 21.96875 47.46875 24.109375 47.828125 
Q 26.265625 48.1875 28.421875 48.1875 
Q 40.625 48.1875 47.75 41.5 
Q 54.890625 34.8125 54.890625 23.390625 
Q 54.890625 11.625 47.5625 5.09375 
Q 40.234375 -1.421875 26.90625 -1.421875 
Q 22.3125 -1.421875 17.546875 -0.640625 
Q 12.796875 0.140625 7.71875 1.703125 
L 7.71875 11.625 
Q 12.109375 9.234375 16.796875 8.0625 
Q 21.484375 6.890625 26.703125 6.890625 
Q 35.15625 6.890625 40.078125 11.328125 
Q 45.015625 15.765625 45.015625 23.390625 
Q 45.015625 31 40.078125 35.4375 
Q 35.15625 39.890625 26.703125 39.890625 
Q 22.75 39.890625 18.8125 39.015625 
Q 14.890625 38.140625 10.796875 36.28125 
z
" id="DejaVuSans-53"/>
        <path d="M 31.78125 66.40625 
Q 24.171875 66.40625 20.328125 58.90625 
Q 16.5 51.421875 16.5 36.375 
Q 16.5 21.390625 20.328125 13.890625 
Q 24.171875 6.390625 31.78125 6.390625 
Q 39.453125 6.390625 43.28125 13.890625 
Q 47.125 21.390625 47.125 36.375 
Q 47.125 51.421875 43.28125 58.90625 
Q 39.453125 66.40625 31.78125 66.40625 
z
M 31.78125 74.21875 
Q 44.046875 74.21875 50.515625 64.515625 
Q 56.984375 54.828125 56.984375 36.375 
Q 56.984375 17.96875 50.515625 8.265625 
Q 44.046875 -1.421875 31.78125 -1.421875 
Q 19.53125 -1.421875 13.0625 8.265625 
Q 6.59375 17.96875 6.59375 36.375 
Q 6.59375 54.828125 13.0625 64.515625 
Q 19.53125 74.21875 31.78125 74.21875 
z
" id="DejaVuSans-48"/>
       </defs>
       <use xlink:href="#DejaVuSans-8722"/>
       <use x="83.789062" xlink:href="#DejaVuSans-53"/>
       <use x="147.412109" xlink:href="#DejaVuSans-48"/>
      </g>
     </g>
    </g>
    <g id="xtick_2">
     <g id="line2d_2">
      <g>
       <use style="stroke:#000000;stroke-width:0.8;" x="165.666268" xlink:href="#m93b0c32aa1" y="307.584"/>
      </g>
     </g>
     <g id="text_2">
      <!-- 0 -->
      <g transform="translate(162.485018 322.182437)scale(0.1 -0.1)">
       <use xlink:href="#DejaVuSans-48"/>
      </g>
     </g>
    </g>
    <g id="xtick_3">
     <g id="line2d_3">
      <g>
       <use style="stroke:#000000;stroke-width:0.8;" x="238.489518" xlink:href="#m93b0c32aa1" y="307.584"/>
      </g>
     </g>
     <g id="text_3">
      <!-- 50 -->
      <g transform="translate(232.127018 322.182437)scale(0.1 -0.1)">
       <use xlink:href="#DejaVuSans-53"/>
       <use x="63.623047" xlink:href="#DejaVuSans-48"/>
      </g>
     </g>
    </g>
    <g id="xtick_4">
     <g id="line2d_4">
      <g>
       <use style="stroke:#000000;stroke-width:0.8;" x="311.312767" xlink:href="#m93b0c32aa1" y="307.584"/>
      </g>
     </g>
     <g id="text_4">
      <!-- 100 -->
      <g transform="translate(301.769017 322.182437)scale(0.1 -0.1)">
       <defs>
        <path d="M 12.40625 8.296875 
L 28.515625 8.296875 
L 28.515625 63.921875 
L 10.984375 60.40625 
L 10.984375 69.390625 
L 28.421875 72.90625 
L 38.28125 72.90625 
L 38.28125 8.296875 
L 54.390625 8.296875 
L 54.390625 0 
L 12.40625 0 
z
" id="DejaVuSans-49"/>
       </defs>
       <use xlink:href="#DejaVuSans-49"/>
       <use x="63.623047" xlink:href="#DejaVuSans-48"/>
       <use x="127.246094" xlink:href="#DejaVuSans-48"/>
      </g>
     </g>
    </g>
    <g id="xtick_5">
     <g id="line2d_5">
      <g>
       <use style="stroke:#000000;stroke-width:0.8;" x="384.136016" xlink:href="#m93b0c32aa1" y="307.584"/>
      </g>
     </g>
     <g id="text_5">
      <!-- 150 -->
      <g transform="translate(374.592266 322.182437)scale(0.1 -0.1)">
       <use xlink:href="#DejaVuSans-49"/>
       <use x="63.623047" xlink:href="#DejaVuSans-53"/>
       <use x="127.246094" xlink:href="#DejaVuSans-48"/>
      </g>
     </g>
    </g>
   </g>
   <g id="matplotlib.axis_2">
    <g id="ytick_1">
     <g id="line2d_6">
      <defs>
       <path d="M 0 0 
L -3.5 0 
" id="m913ce9660e" style="stroke:#000000;stroke-width:0.8;"/>
      </defs>
      <g>
       <use style="stroke:#000000;stroke-width:0.8;" x="57.6" xlink:href="#m913ce9660e" y="295.43195"/>
      </g>
     </g>
     <g id="text_6">
      <!-- 0 -->
      <g transform="translate(44.2375 299.231168)scale(0.1 -0.1)">
       <use xlink:href="#DejaVuSans-48"/>
      </g>
     </g>
    </g>
    <g id="ytick_2">
     <g id="line2d_7">
      <g>
       <use style="stroke:#000000;stroke-width:0.8;" x="57.6" xlink:href="#m913ce9660e" y="259.020325"/>
      </g>
     </g>
     <g id="text_7">
      <!-- 25 -->
      <g transform="translate(37.875 262.819544)scale(0.1 -0.1)">
       <defs>
        <path d="M 19.1875 8.296875 
L 53.609375 8.296875 
L 53.609375 0 
L 7.328125 0 
L 7.328125 8.296875 
Q 12.9375 14.109375 22.625 23.890625 
Q 32.328125 33.6875 34.8125 36.53125 
Q 39.546875 41.84375 41.421875 45.53125 
Q 43.3125 49.21875 43.3125 52.78125 
Q 43.3125 58.59375 39.234375 62.25 
Q 35.15625 65.921875 28.609375 65.921875 
Q 23.96875 65.921875 18.8125 64.3125 
Q 13.671875 62.703125 7.8125 59.421875 
L 7.8125 69.390625 
Q 13.765625 71.78125 18.9375 73 
Q 24.125 74.21875 28.421875 74.21875 
Q 39.75 74.21875 46.484375 68.546875 
Q 53.21875 62.890625 53.21875 53.421875 
Q 53.21875 48.921875 51.53125 44.890625 
Q 49.859375 40.875 45.40625 35.40625 
Q 44.1875 33.984375 37.640625 27.21875 
Q 31.109375 20.453125 19.1875 8.296875 
z
" id="DejaVuSans-50"/>
       </defs>
       <use xlink:href="#DejaVuSans-50"/>
       <use x="63.623047" xlink:href="#DejaVuSans-53"/>
      </g>
     </g>
    </g>
    <g id="ytick_3">
     <g id="line2d_8">
      <g>
       <use style="stroke:#000000;stroke-width:0.8;" x="57.6" xlink:href="#m913ce9660e" y="222.6087"/>
      </g>
     </g>
     <g id="text_8">
      <!-- 50 -->
      <g transform="translate(37.875 226.407919)scale(0.1 -0.1)">
       <use xlink:href="#DejaVuSans-53"/>
       <use x="63.623047" xlink:href="#DejaVuSans-48"/>
      </g>
     </g>
    </g>
    <g id="ytick_4">
     <g id="line2d_9">
      <g>
       <use style="stroke:#000000;stroke-width:0.8;" x="57.6" xlink:href="#m913ce9660e" y="186.197076"/>
      </g>
     </g>
     <g id="text_9">
      <!-- 75 -->
      <g transform="translate(37.875 189.996294)scale(0.1 -0.1)">
       <defs>
        <path d="M 8.203125 72.90625 
L 55.078125 72.90625 
L 55.078125 68.703125 
L 28.609375 0 
L 18.3125 0 
L 43.21875 64.59375 
L 8.203125 64.59375 
z
" id="DejaVuSans-55"/>
       </defs>
       <use xlink:href="#DejaVuSans-55"/>
       <use x="63.623047" xlink:href="#DejaVuSans-53"/>
      </g>
     </g>
    </g>
    <g id="ytick_5">
     <g id="line2d_10">
      <g>
       <use style="stroke:#000000;stroke-width:0.8;" x="57.6" xlink:href="#m913ce9660e" y="149.785451"/>
      </g>
     </g>
     <g id="text_10">
      <!-- 100 -->
      <g transform="translate(31.5125 153.58467)scale(0.1 -0.1)">
       <use xlink:href="#DejaVuSans-49"/>
       <use x="63.623047" xlink:href="#DejaVuSans-48"/>
       <use x="127.246094" xlink:href="#DejaVuSans-48"/>
      </g>
     </g>
    </g>
    <g id="ytick_6">
     <g id="line2d_11">
      <g>
       <use style="stroke:#000000;stroke-width:0.8;" x="57.6" xlink:href="#m913ce9660e" y="113.373826"/>
      </g>
     </g>
     <g id="text_11">
      <!-- 125 -->
      <g transform="translate(31.5125 117.173045)scale(0.1 -0.1)">
       <use xlink:href="#DejaVuSans-49"/>
       <use x="63.623047" xlink:href="#DejaVuSans-50"/>
       <use x="127.246094" xlink:href="#DejaVuSans-53"/>
      </g>
     </g>
    </g>
    <g id="ytick_7">
     <g id="line2d_12">
      <g>
       <use style="stroke:#000000;stroke-width:0.8;" x="57.6" xlink:href="#m913ce9660e" y="76.962202"/>
      </g>
     </g>
     <g id="text_12">
      <!-- 150 -->
      <g transform="translate(31.5125 80.76142)scale(0.1 -0.1)">
       <use xlink:href="#DejaVuSans-49"/>
       <use x="63.623047" xlink:href="#DejaVuSans-53"/>
       <use x="127.246094" xlink:href="#DejaVuSans-48"/>
      </g>
     </g>
    </g>
   </g>
   <g id="line2d_13">
    <path clip-path="url(#p065d1e1878)" d="M 165.666268 295.43195 
L 165.925589 278.186601 
L 166.292372 257.081424 
L 166.059573 253.050844 
L 165.389278 246.792446 
L 164.495551 238.447914 
L 164.305565 234.445671 
L 164.439054 230.657533 
L 164.66278 228.867367 
L 165.010187 227.159064 
L 165.495547 225.54207 
L 166.133131 224.025831 
L 166.937209 222.619792 
L 167.931528 221.348467 
L 169.117644 220.219727 
L 170.47654 219.218054 
L 171.989203 218.32793 
L 173.636617 217.533837 
L 177.259639 216.171675 
L 181.193485 215.007425 
L 189.385171 212.776087 
L 193.338771 211.460715 
L 195.213457 210.69879 
L 196.994715 209.846683 
L 198.663529 208.888876 
L 200.200883 207.80985 
L 204.675467 204.126315 
L 207.671712 201.420243 
L 210.595314 198.543443 
L 213.374965 195.521268 
L 215.939354 192.37907 
L 218.217173 189.142201 
L 220.137113 185.836015 
L 221.627864 182.485863 
L 222.19001 180.802223 
L 222.618118 179.117098 
L 222.877122 177.415688 
L 222.950313 175.682726 
L 222.856313 173.92068 
L 222.613743 172.132019 
L 221.757379 168.484727 
L 220.530192 164.7606 
L 218.319992 159.073546 
L 216.113403 153.324708 
L 214.892635 149.490741 
L 214.0459 145.67869 
L 213.634675 141.870543 
L 212.724405 131.656115 
L 212.501262 127.459218 
L 212.460362 123.316943 
L 212.669498 119.30804 
L 213.196466 115.511258 
L 213.600322 113.717022 
L 214.109059 112.005347 
L 214.73115 110.386077 
L 215.475071 108.869055 
L 216.349295 107.464126 
L 217.371457 106.167864 
L 218.54523 104.965937 
L 219.858143 103.851832 
L 221.297728 102.819033 
L 222.851516 101.861028 
L 226.25182 100.143338 
L 229.959302 98.646648 
L 233.874207 97.318843 
L 239.917271 95.529794 
L 247.769627 93.249093 
L 251.442529 92.091512 
L 255.207499 91.188388 
L 259.074741 90.507243 
L 266.929483 89.45416 
L 272.742125 88.583752 
L 276.492432 87.797885 
L 280.088497 86.743496 
L 281.814113 86.087737 
L 283.48368 85.331405 
L 285.091367 84.463351 
L 286.636193 83.48483 
L 289.560565 81.247197 
L 292.296972 78.690463 
L 294.884303 75.880648 
L 297.361448 72.883773 
L 302.140734 66.592928 
L 306.945947 60.346098 
L 309.455499 57.40424 
L 309.455499 57.40424 
" style="fill:none;stroke:#fea952;stroke-linecap:square;"/>
   </g>
   <g id="line2d_14">
    <path clip-path="url(#p065d1e1878)" d="M 159.840678 295.375899 
L 160.100851 278.072254 
L 160.471853 257.330836 
L 160.259431 253.597654 
L 159.604712 247.484864 
L 158.872622 241.015104 
L 158.544227 236.606274 
L 158.509821 232.16323 
L 158.658164 229.935068 
L 158.953777 227.706361 
L 159.430274 225.484186 
L 160.125174 223.28381 
L 161.075841 221.133693 
L 162.34821 219.030678 
L 163.915361 217.128153 
L 165.660898 215.530212 
L 167.521918 214.197013 
L 169.459545 213.079933 
L 171.451 212.133493 
L 175.538655 210.60581 
L 179.682616 209.380888 
L 189.452357 206.653663 
L 192.699375 205.443314 
L 195.31663 204.120342 
L 196.576697 203.248499 
L 200.81417 199.763858 
L 203.633686 197.22084 
L 206.360974 194.542067 
L 208.921276 191.765566 
L 211.241146 188.934149 
L 213.250461 186.097137 
L 214.886587 183.311609 
L 216.101887 180.64081 
L 216.85861 178.240333 
L 217.056451 177.169854 
L 217.132726 175.993078 
L 217.083299 174.70359 
L 216.608006 171.804974 
L 215.678367 168.54508 
L 214.399608 165.00089 
L 210.59374 155.188565 
L 209.242069 150.9091 
L 208.693022 148.685358 
L 208.265065 146.401591 
L 207.835238 142.424771 
L 206.909692 132.016331 
L 206.676915 127.591951 
L 206.637885 123.118429 
L 206.880967 118.649595 
L 207.140582 116.43156 
L 207.512804 114.231949 
L 208.015899 112.057243 
L 208.670726 109.916047 
L 209.500375 107.820997 
L 210.528659 105.791126 
L 211.774614 103.856782 
L 213.203425 102.097465 
L 214.775797 100.523863 
L 216.46209 99.118179 
L 218.240178 97.859998 
L 220.093579 96.729319 
L 223.976726 94.780075 
L 228.025785 93.150999 
L 232.160342 91.750781 
L 238.332058 89.923749 
L 245.980304 87.704819 
L 249.977908 86.452759 
L 254.127989 85.463417 
L 258.234761 84.742256 
L 273.346949 82.536815 
L 276.542565 81.759387 
L 279.410105 80.781007 
L 281.973929 79.541743 
L 284.458411 77.882129 
L 286.881739 75.83431 
L 289.25888 73.435453 
L 291.604085 70.738334 
L 295.10739 66.2693 
L 302.467006 56.620547 
L 305.070992 53.568 
L 305.070992 53.568 
" style="fill:none;stroke:#ffffff;stroke-linecap:square;"/>
   </g>
   <g id="line2d_15">
    <path clip-path="url(#p065d1e1878)" d="M 171.491858 295.488 
L 171.750327 278.300948 
L 172.11289 256.832013 
L 171.859714 252.504034 
L 171.173843 246.100027 
L 170.309733 238.079227 
L 170.131136 234.503683 
L 170.219944 231.379998 
L 170.5901 228.833941 
L 171.190421 226.917968 
L 171.947695 225.568781 
L 172.57439 224.909242 
L 173.431163 224.239094 
L 174.518862 223.575927 
L 177.318092 222.321229 
L 180.784154 221.178127 
L 193.326984 217.642286 
L 195.532313 216.857845 
L 197.72754 215.954267 
L 199.894731 214.89946 
L 202.010428 213.657409 
L 205.378087 211.136215 
L 208.536765 208.488771 
L 211.709739 205.619646 
L 214.829655 202.544819 
L 217.828654 199.27697 
L 220.637563 195.823991 
L 223.183885 192.187266 
L 225.387639 188.360421 
L 226.332238 186.371845 
L 227.153842 184.330916 
L 227.836501 182.23672 
L 228.377626 179.993862 
L 228.697793 177.661523 
L 228.767901 175.372375 
L 228.629328 173.13777 
L 228.320362 170.959351 
L 227.874443 168.833449 
L 226.683288 164.716986 
L 225.248578 160.750899 
L 221.047102 149.736724 
L 220.133384 146.476125 
L 219.826736 144.955788 
L 219.434113 141.316316 
L 218.539118 131.2959 
L 218.279625 125.394909 
L 218.340819 121.701387 
L 218.63745 118.324864 
L 219.184745 115.3768 
L 219.961925 112.951157 
L 220.923976 111.071471 
L 221.53949 110.238263 
L 222.314662 109.408011 
L 223.254197 108.585484 
L 225.609452 106.992736 
L 228.526914 105.506601 
L 231.89282 104.142297 
L 235.588073 102.886904 
L 241.502484 101.13584 
L 249.55895 98.793366 
L 252.907149 97.730264 
L 256.28701 96.91336 
L 259.914721 96.27223 
L 267.70888 95.22765 
L 273.84579 94.304116 
L 278.001218 93.424981 
L 282.158013 92.189388 
L 284.218122 91.394467 
L 286.251591 90.45774 
L 288.208804 89.384959 
L 290.047292 88.207652 
L 291.7902 86.937926 
L 295.017928 84.174873 
L 297.954804 81.190676 
L 300.664351 78.064599 
L 304.4272 73.262419 
L 311.424888 64.071648 
L 313.840006 61.240481 
L 313.840006 61.240481 
" style="fill:none;stroke:#ffffff;stroke-linecap:square;"/>
   </g>
   <g id="patch_3">
    <path d="M 57.6 307.584 
L 57.6 41.472 
" style="fill:none;stroke:#000000;stroke-linecap:square;stroke-linejoin:miter;stroke-width:0.8;"/>
   </g>
   <g id="patch_4">
    <path d="M 414.72 307.584 
L 414.72 41.472 
" style="fill:none;stroke:#000000;stroke-linecap:square;stroke-linejoin:miter;stroke-width:0.8;"/>
   </g>
   <g id="patch_5">
    <path d="M 57.6 307.584 
L 414.72 307.584 
" style="fill:none;stroke:#000000;stroke-linecap:square;stroke-linejoin:miter;stroke-width:0.8;"/>
   </g>
   <g id="patch_6">
    <path d="M 57.6 41.472 
L 414.72 41.472 
" style="fill:none;stroke:#000000;stroke-linecap:square;stroke-linejoin:miter;stroke-width:0.8;"/>
   </g>
  </g>
 </g>
 <defs>
  <clipPath id="p065d1e1878">
   <rect height="266.112" width="357.12" x="57.6" y="41.472"/>
  </clipPath>
 </defs>
</svg>
