<?xml version="1.0" encoding="utf-8" standalone="no"?>
<!DOCTYPE svg PUBLIC "-//W3C//DTD SVG 1.1//EN"
  "http://www.w3.org/Graphics/SVG/1.1/DTD/svg11.dtd">
<!-- Created with matplotlib (https://matplotlib.org/) -->
<svg height="345.6pt" version="1.1" viewBox="0 0 460.8 345.6" width="460.8pt" xmlns="http://www.w3.org/2000/svg" xmlns:xlink="http://www.w3.org/1999/xlink">
 <metadata>
  <rdf:RDF xmlns:cc="http://creativecommons.org/ns#" xmlns:dc="http://purl.org/dc/elements/1.1/" xmlns:rdf="http://www.w3.org/1999/02/22-rdf-syntax-ns#">
   <cc:Work>
    <dc:type rdf:resource="http://purl.org/dc/dcmitype/StillImage"/>
    <dc:date>2021-06-17T13:21:14.529748</dc:date>
    <dc:format>image/svg+xml</dc:format>
    <dc:creator>
     <cc:Agent>
      <dc:title>Matplotlib v3.3.3, https://matplotlib.org/</dc:title>
     </cc:Agent>
    </dc:creator>
   </cc:Work>
  </rdf:RDF>
 </metadata>
 <defs>
  <style type="text/css">*{stroke-linecap:butt;stroke-linejoin:round;}</style>
 </defs>
 <g id="figure_1">
  <g id="patch_1">
   <path d="M 0 345.6 
L 460.8 345.6 
L 460.8 0 
L 0 0 
z
" style="fill:#ffffff;"/>
  </g>
  <g id="axes_1">
   <g id="patch_2">
    <path d="M 57.6 307.584 
L 414.72 307.584 
L 414.72 41.472 
L 57.6 41.472 
z
" style="fill:#7d9051;"/>
   </g>
   <g id="matplotlib.axis_1">
    <g id="xtick_1">
     <g id="line2d_1">
      <defs>
       <path d="M 0 0 
L 0 3.5 
" id="m7f07ce784b" style="stroke:#000000;stroke-width:0.8;"/>
      </defs>
      <g>
       <use style="stroke:#000000;stroke-width:0.8;" x="122.391846" xlink:href="#m7f07ce784b" y="307.584"/>
      </g>
     </g>
     <g id="text_1">
      <!-- −50 -->
      <g transform="translate(111.839502 322.182437)scale(0.1 -0.1)">
       <defs>
        <path d="M 10.59375 35.5 
L 73.1875 35.5 
L 73.1875 27.203125 
L 10.59375 27.203125 
z
" id="DejaVuSans-8722"/>
        <path d="M 10.796875 72.90625 
L 49.515625 72.90625 
L 49.515625 64.59375 
L 19.828125 64.59375 
L 19.828125 46.734375 
Q 21.96875 47.46875 24.109375 47.828125 
Q 26.265625 48.1875 28.421875 48.1875 
Q 40.625 48.1875 47.75 41.5 
Q 54.890625 34.8125 54.890625 23.390625 
Q 54.890625 11.625 47.5625 5.09375 
Q 40.234375 -1.421875 26.90625 -1.421875 
Q 22.3125 -1.421875 17.546875 -0.640625 
Q 12.796875 0.140625 7.71875 1.703125 
L 7.71875 11.625 
Q 12.109375 9.234375 16.796875 8.0625 
Q 21.484375 6.890625 26.703125 6.890625 
Q 35.15625 6.890625 40.078125 11.328125 
Q 45.015625 15.765625 45.015625 23.390625 
Q 45.015625 31 40.078125 35.4375 
Q 35.15625 39.890625 26.703125 39.890625 
Q 22.75 39.890625 18.8125 39.015625 
Q 14.890625 38.140625 10.796875 36.28125 
z
" id="DejaVuSans-53"/>
        <path d="M 31.78125 66.40625 
Q 24.171875 66.40625 20.328125 58.90625 
Q 16.5 51.421875 16.5 36.375 
Q 16.5 21.390625 20.328125 13.890625 
Q 24.171875 6.390625 31.78125 6.390625 
Q 39.453125 6.390625 43.28125 13.890625 
Q 47.125 21.390625 47.125 36.375 
Q 47.125 51.421875 43.28125 58.90625 
Q 39.453125 66.40625 31.78125 66.40625 
z
M 31.78125 74.21875 
Q 44.046875 74.21875 50.515625 64.515625 
Q 56.984375 54.828125 56.984375 36.375 
Q 56.984375 17.96875 50.515625 8.265625 
Q 44.046875 -1.421875 31.78125 -1.421875 
Q 19.53125 -1.421875 13.0625 8.265625 
Q 6.59375 17.96875 6.59375 36.375 
Q 6.59375 54.828125 13.0625 64.515625 
Q 19.53125 74.21875 31.78125 74.21875 
z
" id="DejaVuSans-48"/>
       </defs>
       <use xlink:href="#DejaVuSans-8722"/>
       <use x="83.789062" xlink:href="#DejaVuSans-53"/>
       <use x="147.412109" xlink:href="#DejaVuSans-48"/>
      </g>
     </g>
    </g>
    <g id="xtick_2">
     <g id="line2d_2">
      <g>
       <use style="stroke:#000000;stroke-width:0.8;" x="199.977302" xlink:href="#m7f07ce784b" y="307.584"/>
      </g>
     </g>
     <g id="text_2">
      <!-- 0 -->
      <g transform="translate(196.796052 322.182437)scale(0.1 -0.1)">
       <use xlink:href="#DejaVuSans-48"/>
      </g>
     </g>
    </g>
    <g id="xtick_3">
     <g id="line2d_3">
      <g>
       <use style="stroke:#000000;stroke-width:0.8;" x="277.562757" xlink:href="#m7f07ce784b" y="307.584"/>
      </g>
     </g>
     <g id="text_3">
      <!-- 50 -->
      <g transform="translate(271.200257 322.182437)scale(0.1 -0.1)">
       <use xlink:href="#DejaVuSans-53"/>
       <use x="63.623047" xlink:href="#DejaVuSans-48"/>
      </g>
     </g>
    </g>
    <g id="xtick_4">
     <g id="line2d_4">
      <g>
       <use style="stroke:#000000;stroke-width:0.8;" x="355.148213" xlink:href="#m7f07ce784b" y="307.584"/>
      </g>
     </g>
     <g id="text_4">
      <!-- 100 -->
      <g transform="translate(345.604463 322.182437)scale(0.1 -0.1)">
       <defs>
        <path d="M 12.40625 8.296875 
L 28.515625 8.296875 
L 28.515625 63.921875 
L 10.984375 60.40625 
L 10.984375 69.390625 
L 28.421875 72.90625 
L 38.28125 72.90625 
L 38.28125 8.296875 
L 54.390625 8.296875 
L 54.390625 0 
L 12.40625 0 
z
" id="DejaVuSans-49"/>
       </defs>
       <use xlink:href="#DejaVuSans-49"/>
       <use x="63.623047" xlink:href="#DejaVuSans-48"/>
       <use x="127.246094" xlink:href="#DejaVuSans-48"/>
      </g>
     </g>
    </g>
   </g>
   <g id="matplotlib.axis_2">
    <g id="ytick_1">
     <g id="line2d_5">
      <defs>
       <path d="M 0 0 
L -3.5 0 
" id="m477cbd2632" style="stroke:#000000;stroke-width:0.8;"/>
      </defs>
      <g>
       <use style="stroke:#000000;stroke-width:0.8;" x="57.6" xlink:href="#m477cbd2632" y="295.428284"/>
      </g>
     </g>
     <g id="text_5">
      <!-- 0 -->
      <g transform="translate(44.2375 299.227503)scale(0.1 -0.1)">
       <use xlink:href="#DejaVuSans-48"/>
      </g>
     </g>
    </g>
    <g id="ytick_2">
     <g id="line2d_6">
      <g>
       <use style="stroke:#000000;stroke-width:0.8;" x="57.6" xlink:href="#m477cbd2632" y="264.394102"/>
      </g>
     </g>
     <g id="text_6">
      <!-- 20 -->
      <g transform="translate(37.875 268.193321)scale(0.1 -0.1)">
       <defs>
        <path d="M 19.1875 8.296875 
L 53.609375 8.296875 
L 53.609375 0 
L 7.328125 0 
L 7.328125 8.296875 
Q 12.9375 14.109375 22.625 23.890625 
Q 32.328125 33.6875 34.8125 36.53125 
Q 39.546875 41.84375 41.421875 45.53125 
Q 43.3125 49.21875 43.3125 52.78125 
Q 43.3125 58.59375 39.234375 62.25 
Q 35.15625 65.921875 28.609375 65.921875 
Q 23.96875 65.921875 18.8125 64.3125 
Q 13.671875 62.703125 7.8125 59.421875 
L 7.8125 69.390625 
Q 13.765625 71.78125 18.9375 73 
Q 24.125 74.21875 28.421875 74.21875 
Q 39.75 74.21875 46.484375 68.546875 
Q 53.21875 62.890625 53.21875 53.421875 
Q 53.21875 48.921875 51.53125 44.890625 
Q 49.859375 40.875 45.40625 35.40625 
Q 44.1875 33.984375 37.640625 27.21875 
Q 31.109375 20.453125 19.1875 8.296875 
z
" id="DejaVuSans-50"/>
       </defs>
       <use xlink:href="#DejaVuSans-50"/>
       <use x="63.623047" xlink:href="#DejaVuSans-48"/>
      </g>
     </g>
    </g>
    <g id="ytick_3">
     <g id="line2d_7">
      <g>
       <use style="stroke:#000000;stroke-width:0.8;" x="57.6" xlink:href="#m477cbd2632" y="233.35992"/>
      </g>
     </g>
     <g id="text_7">
      <!-- 40 -->
      <g transform="translate(37.875 237.159138)scale(0.1 -0.1)">
       <defs>
        <path d="M 37.796875 64.3125 
L 12.890625 25.390625 
L 37.796875 25.390625 
z
M 35.203125 72.90625 
L 47.609375 72.90625 
L 47.609375 25.390625 
L 58.015625 25.390625 
L 58.015625 17.1875 
L 47.609375 17.1875 
L 47.609375 0 
L 37.796875 0 
L 37.796875 17.1875 
L 4.890625 17.1875 
L 4.890625 26.703125 
z
" id="DejaVuSans-52"/>
       </defs>
       <use xlink:href="#DejaVuSans-52"/>
       <use x="63.623047" xlink:href="#DejaVuSans-48"/>
      </g>
     </g>
    </g>
    <g id="ytick_4">
     <g id="line2d_8">
      <g>
       <use style="stroke:#000000;stroke-width:0.8;" x="57.6" xlink:href="#m477cbd2632" y="202.325737"/>
      </g>
     </g>
     <g id="text_8">
      <!-- 60 -->
      <g transform="translate(37.875 206.124956)scale(0.1 -0.1)">
       <defs>
        <path d="M 33.015625 40.375 
Q 26.375 40.375 22.484375 35.828125 
Q 18.609375 31.296875 18.609375 23.390625 
Q 18.609375 15.53125 22.484375 10.953125 
Q 26.375 6.390625 33.015625 6.390625 
Q 39.65625 6.390625 43.53125 10.953125 
Q 47.40625 15.53125 47.40625 23.390625 
Q 47.40625 31.296875 43.53125 35.828125 
Q 39.65625 40.375 33.015625 40.375 
z
M 52.59375 71.296875 
L 52.59375 62.3125 
Q 48.875 64.0625 45.09375 64.984375 
Q 41.3125 65.921875 37.59375 65.921875 
Q 27.828125 65.921875 22.671875 59.328125 
Q 17.53125 52.734375 16.796875 39.40625 
Q 19.671875 43.65625 24.015625 45.921875 
Q 28.375 48.1875 33.59375 48.1875 
Q 44.578125 48.1875 50.953125 41.515625 
Q 57.328125 34.859375 57.328125 23.390625 
Q 57.328125 12.15625 50.6875 5.359375 
Q 44.046875 -1.421875 33.015625 -1.421875 
Q 20.359375 -1.421875 13.671875 8.265625 
Q 6.984375 17.96875 6.984375 36.375 
Q 6.984375 53.65625 15.1875 63.9375 
Q 23.390625 74.21875 37.203125 74.21875 
Q 40.921875 74.21875 44.703125 73.484375 
Q 48.484375 72.75 52.59375 71.296875 
z
" id="DejaVuSans-54"/>
       </defs>
       <use xlink:href="#DejaVuSans-54"/>
       <use x="63.623047" xlink:href="#DejaVuSans-48"/>
      </g>
     </g>
    </g>
    <g id="ytick_5">
     <g id="line2d_9">
      <g>
       <use style="stroke:#000000;stroke-width:0.8;" x="57.6" xlink:href="#m477cbd2632" y="171.291555"/>
      </g>
     </g>
     <g id="text_9">
      <!-- 80 -->
      <g transform="translate(37.875 175.090774)scale(0.1 -0.1)">
       <defs>
        <path d="M 31.78125 34.625 
Q 24.75 34.625 20.71875 30.859375 
Q 16.703125 27.09375 16.703125 20.515625 
Q 16.703125 13.921875 20.71875 10.15625 
Q 24.75 6.390625 31.78125 6.390625 
Q 38.8125 6.390625 42.859375 10.171875 
Q 46.921875 13.96875 46.921875 20.515625 
Q 46.921875 27.09375 42.890625 30.859375 
Q 38.875 34.625 31.78125 34.625 
z
M 21.921875 38.8125 
Q 15.578125 40.375 12.03125 44.71875 
Q 8.5 49.078125 8.5 55.328125 
Q 8.5 64.0625 14.71875 69.140625 
Q 20.953125 74.21875 31.78125 74.21875 
Q 42.671875 74.21875 48.875 69.140625 
Q 55.078125 64.0625 55.078125 55.328125 
Q 55.078125 49.078125 51.53125 44.71875 
Q 48 40.375 41.703125 38.8125 
Q 48.828125 37.15625 52.796875 32.3125 
Q 56.78125 27.484375 56.78125 20.515625 
Q 56.78125 9.90625 50.3125 4.234375 
Q 43.84375 -1.421875 31.78125 -1.421875 
Q 19.734375 -1.421875 13.25 4.234375 
Q 6.78125 9.90625 6.78125 20.515625 
Q 6.78125 27.484375 10.78125 32.3125 
Q 14.796875 37.15625 21.921875 38.8125 
z
M 18.3125 54.390625 
Q 18.3125 48.734375 21.84375 45.5625 
Q 25.390625 42.390625 31.78125 42.390625 
Q 38.140625 42.390625 41.71875 45.5625 
Q 45.3125 48.734375 45.3125 54.390625 
Q 45.3125 60.0625 41.71875 63.234375 
Q 38.140625 66.40625 31.78125 66.40625 
Q 25.390625 66.40625 21.84375 63.234375 
Q 18.3125 60.0625 18.3125 54.390625 
z
" id="DejaVuSans-56"/>
       </defs>
       <use xlink:href="#DejaVuSans-56"/>
       <use x="63.623047" xlink:href="#DejaVuSans-48"/>
      </g>
     </g>
    </g>
    <g id="ytick_6">
     <g id="line2d_10">
      <g>
       <use style="stroke:#000000;stroke-width:0.8;" x="57.6" xlink:href="#m477cbd2632" y="140.257373"/>
      </g>
     </g>
     <g id="text_10">
      <!-- 100 -->
      <g transform="translate(31.5125 144.056592)scale(0.1 -0.1)">
       <use xlink:href="#DejaVuSans-49"/>
       <use x="63.623047" xlink:href="#DejaVuSans-48"/>
       <use x="127.246094" xlink:href="#DejaVuSans-48"/>
      </g>
     </g>
    </g>
    <g id="ytick_7">
     <g id="line2d_11">
      <g>
       <use style="stroke:#000000;stroke-width:0.8;" x="57.6" xlink:href="#m477cbd2632" y="109.22319"/>
      </g>
     </g>
     <g id="text_11">
      <!-- 120 -->
      <g transform="translate(31.5125 113.022409)scale(0.1 -0.1)">
       <use xlink:href="#DejaVuSans-49"/>
       <use x="63.623047" xlink:href="#DejaVuSans-50"/>
       <use x="127.246094" xlink:href="#DejaVuSans-48"/>
      </g>
     </g>
    </g>
    <g id="ytick_8">
     <g id="line2d_12">
      <g>
       <use style="stroke:#000000;stroke-width:0.8;" x="57.6" xlink:href="#m477cbd2632" y="78.189008"/>
      </g>
     </g>
     <g id="text_12">
      <!-- 140 -->
      <g transform="translate(31.5125 81.988227)scale(0.1 -0.1)">
       <use xlink:href="#DejaVuSans-49"/>
       <use x="63.623047" xlink:href="#DejaVuSans-52"/>
       <use x="127.246094" xlink:href="#DejaVuSans-48"/>
      </g>
     </g>
    </g>
    <g id="ytick_9">
     <g id="line2d_13">
      <g>
       <use style="stroke:#000000;stroke-width:0.8;" x="57.6" xlink:href="#m477cbd2632" y="47.154826"/>
      </g>
     </g>
     <g id="text_13">
      <!-- 160 -->
      <g transform="translate(31.5125 50.954045)scale(0.1 -0.1)">
       <use xlink:href="#DejaVuSans-49"/>
       <use x="63.623047" xlink:href="#DejaVuSans-54"/>
       <use x="127.246094" xlink:href="#DejaVuSans-48"/>
      </g>
     </g>
    </g>
   </g>
   <g id="line2d_14">
    <path clip-path="url(#pa377956a7e)" d="M 199.977302 295.428284 
L 200.253581 277.055193 
L 200.642439 254.564889 
L 200.381051 250.235915 
L 199.632554 243.47872 
L 198.836534 236.686361 
L 198.490663 232.294872 
L 198.440484 228.122185 
L 198.56588 226.147195 
L 198.812722 224.26207 
L 199.19685 222.478531 
L 199.734104 220.808299 
L 200.440325 219.263097 
L 201.331355 217.854645 
L 202.458199 216.625304 
L 203.841759 215.594127 
L 205.45271 214.737879 
L 207.261729 214.033322 
L 209.239494 213.45722 
L 213.583965 212.597435 
L 220.633179 211.690251 
L 225.345556 211.069365 
L 229.794571 210.218726 
L 231.84701 209.649157 
L 233.745638 208.95244 
L 235.461134 208.105338 
L 236.964172 207.084615 
L 238.225431 205.867033 
L 239.252382 204.464191 
L 240.085591 202.912649 
L 240.745374 201.226613 
L 241.252046 199.420292 
L 241.625925 197.507891 
L 242.056565 193.42168 
L 242.199824 189.081637 
L 242.367283 177.866883 
L 242.784632 173.53347 
L 243.149649 171.456268 
L 243.645983 169.457678 
L 244.293951 167.551908 
L 245.0854 165.72165 
L 246.994399 162.191492 
L 249.250975 158.79994 
L 251.750452 155.504746 
L 260.90026 144.120451 
L 263.197468 140.736063 
L 265.161876 137.215675 
L 266.749601 133.520541 
L 268.961503 127.678321 
L 270.314518 123.638846 
L 271.516822 119.527515 
L 272.52261 115.381933 
L 273.286074 111.239707 
L 273.761408 107.138443 
L 273.902806 103.115748 
L 273.664461 99.209226 
L 273.008409 95.40352 
L 271.964321 91.441637 
L 270.566863 87.367491 
L 268.846018 83.280539 
L 266.831768 79.280236 
L 264.554097 75.466038 
L 262.042985 71.937402 
L 259.328417 68.793784 
L 257.904206 67.397437 
L 256.440374 66.13464 
L 254.940669 65.017825 
L 253.408839 64.059425 
L 251.781255 63.227561 
L 250.003987 62.482707 
L 248.095329 61.825817 
L 246.073576 61.257849 
L 241.763962 60.392506 
L 237.221502 59.894328 
L 232.59255 59.770969 
L 228.023464 60.030082 
L 223.660598 60.679319 
L 221.602234 61.152625 
L 219.650309 61.726333 
L 217.823117 62.401397 
L 216.138953 63.178776 
L 214.616111 64.059425 
L 213.242102 65.087613 
L 211.985529 66.296639 
L 210.836328 67.671002 
L 209.784432 69.195201 
L 208.819775 70.853736 
L 207.111914 74.511814 
L 205.632216 78.521232 
L 203.664319 84.922869 
L 201.087432 93.530718 
L 199.637932 97.586638 
L 198.837687 99.498345 
L 198.837687 99.498345 
" style="fill:none;stroke:#fea952;stroke-linecap:square;"/>
   </g>
   <g id="line2d_15">
    <path clip-path="url(#pa377956a7e)" d="M 193.770752 295.368569 
L 194.04794 276.933368 
L 194.441892 254.844243 
L 194.20364 250.839583 
L 193.472554 244.239789 
L 192.655291 237.249436 
L 192.287206 232.499663 
L 192.24612 227.72889 
L 192.41158 225.341339 
L 192.745019 222.955245 
L 193.288171 220.577918 
L 194.088928 218.22822 
L 195.195005 215.944749 
L 196.755864 213.660637 
L 198.749062 211.648646 
L 200.928647 210.11338 
L 203.200152 208.954213 
L 205.525887 208.074155 
L 207.891957 207.398428 
L 212.705052 206.453142 
L 219.872164 205.530245 
L 224.308651 204.949753 
L 228.134846 204.237912 
L 230.99752 203.387131 
L 232.653278 202.619079 
L 233.217145 202.200715 
L 233.784155 201.527645 
L 234.305554 200.650794 
L 234.769189 199.550296 
L 235.16053 198.229387 
L 235.471213 196.705182 
L 235.856114 193.140199 
L 235.993122 189.04085 
L 236.177609 177.405632 
L 236.366983 174.944008 
L 236.671463 172.459231 
L 237.125791 169.960289 
L 237.769525 167.459665 
L 238.596946 165.088383 
L 239.548789 162.916161 
L 240.610563 160.840246 
L 242.984502 156.945247 
L 245.576657 153.33341 
L 249.610389 148.301627 
L 254.693949 142.050943 
L 256.885813 139.05079 
L 258.731847 136.111212 
L 259.506046 134.659035 
L 260.97542 131.243778 
L 263.093665 125.655134 
L 264.961924 119.910871 
L 265.997145 116.07017 
L 266.816969 112.276555 
L 267.384954 108.580553 
L 267.670404 105.033917 
L 267.650772 101.686865 
L 267.301414 98.524274 
L 266.561497 95.137824 
L 265.472393 91.527045 
L 264.065704 87.823503 
L 262.379084 84.150218 
L 260.456037 80.625963 
L 258.347999 77.367348 
L 256.118573 74.488619 
L 253.849909 72.09717 
L 251.648567 70.279658 
L 250.584073 69.586225 
L 249.382141 68.951989 
L 247.984101 68.351683 
L 244.706023 67.312155 
L 240.956287 66.546568 
L 236.929279 66.094282 
L 232.811617 65.973939 
L 228.788757 66.189558 
L 225.051519 66.728299 
L 221.801343 67.54852 
L 219.246169 68.551859 
L 217.545563 69.560313 
L 216.747103 70.278125 
L 215.944741 71.196472 
L 215.149735 72.315833 
L 214.372839 73.626515 
L 212.898904 76.75582 
L 211.537031 80.433814 
L 209.626783 86.647353 
L 206.962143 95.533863 
L 205.363377 99.983323 
L 204.563132 101.89503 
L 204.563132 101.89503 
" style="fill:none;stroke:#ffffff;stroke-linecap:square;"/>
   </g>
   <g id="line2d_16">
    <path clip-path="url(#pa377956a7e)" d="M 206.183851 295.488 
L 206.459221 277.177017 
L 206.842986 254.285535 
L 206.558462 249.632246 
L 205.792553 242.717652 
L 204.827846 234.059249 
L 204.627239 230.235149 
L 204.720181 226.953051 
L 205.105529 224.379143 
L 205.685646 222.581445 
L 206.167337 221.601961 
L 206.754871 221.074875 
L 207.705269 220.521546 
L 208.997572 219.992489 
L 210.587031 219.516013 
L 214.462877 218.741727 
L 221.394194 217.850257 
L 226.382461 217.188977 
L 228.915954 216.753914 
L 231.454296 216.199539 
L 233.985239 215.47606 
L 236.493757 214.517749 
L 238.948162 213.240068 
L 241.275067 211.55015 
L 243.233717 209.533352 
L 244.72061 207.400737 
L 245.865629 205.174503 
L 246.721558 202.90293 
L 247.343562 200.611196 
L 247.780636 198.310599 
L 248.257015 193.703161 
L 248.406527 189.122424 
L 248.556957 178.328133 
L 248.8978 174.60771 
L 249.522442 171.455692 
L 249.990956 170.015433 
L 251.369258 167.032963 
L 253.187062 164.016814 
L 255.377128 160.952468 
L 259.165928 156.225702 
L 264.625185 149.49875 
L 267.282031 145.834443 
L 269.72378 141.879807 
L 270.817705 139.772316 
L 272.523783 135.797303 
L 274.829342 129.701509 
L 276.253054 125.444009 
L 277.529627 121.067318 
L 278.608852 116.599501 
L 279.437625 112.066288 
L 279.958193 107.491548 
L 280.105857 102.898996 
L 280.017157 100.604364 
L 279.806742 98.316366 
L 279.475727 96.098291 
L 278.503323 91.74783 
L 277.143385 87.297716 
L 275.424275 82.815297 
L 273.368306 78.376462 
L 270.991936 74.061353 
L 268.303695 69.95227 
L 266.842125 68.001278 
L 265.299946 66.133881 
L 263.673744 64.361747 
L 261.958503 62.697703 
L 260.147535 61.15651 
L 258.232771 59.755992 
L 256.233604 58.532625 
L 254.180368 57.503134 
L 252.023872 56.61373 
L 249.774021 55.8503 
L 247.441129 55.203544 
L 245.036338 54.667486 
L 242.571638 54.238444 
L 237.513725 53.694374 
L 232.373484 53.568 
L 227.258171 53.870606 
L 224.742081 54.190676 
L 222.269677 54.630339 
L 219.851965 55.19768 
L 217.499275 55.904145 
L 215.221893 56.765933 
L 213.031736 57.805693 
L 210.897377 59.089934 
L 208.93864 60.614914 
L 207.223956 62.315153 
L 205.727916 64.145531 
L 204.419129 66.074569 
L 203.266711 68.080958 
L 202.243154 70.149466 
L 200.492044 74.424672 
L 199.01608 78.807697 
L 193.912487 95.189953 
L 193.112242 97.10166 
L 193.112242 97.10166 
" style="fill:none;stroke:#ffffff;stroke-linecap:square;"/>
   </g>
   <g id="patch_3">
    <path d="M 57.6 307.584 
L 57.6 41.472 
" style="fill:none;stroke:#000000;stroke-linecap:square;stroke-linejoin:miter;stroke-width:0.8;"/>
   </g>
   <g id="patch_4">
    <path d="M 414.72 307.584 
L 414.72 41.472 
" style="fill:none;stroke:#000000;stroke-linecap:square;stroke-linejoin:miter;stroke-width:0.8;"/>
   </g>
   <g id="patch_5">
    <path d="M 57.6 307.584 
L 414.72 307.584 
" style="fill:none;stroke:#000000;stroke-linecap:square;stroke-linejoin:miter;stroke-width:0.8;"/>
   </g>
   <g id="patch_6">
    <path d="M 57.6 41.472 
L 414.72 41.472 
" style="fill:none;stroke:#000000;stroke-linecap:square;stroke-linejoin:miter;stroke-width:0.8;"/>
   </g>
  </g>
 </g>
 <defs>
  <clipPath id="pa377956a7e">
   <rect height="266.112" width="357.12" x="57.6" y="41.472"/>
  </clipPath>
 </defs>
</svg>
