<?xml version="1.0" encoding="utf-8" standalone="no"?>
<!DOCTYPE svg PUBLIC "-//W3C//DTD SVG 1.1//EN"
  "http://www.w3.org/Graphics/SVG/1.1/DTD/svg11.dtd">
<!-- Created with matplotlib (https://matplotlib.org/) -->
<svg height="345.6pt" version="1.1" viewBox="0 0 460.8 345.6" width="460.8pt" xmlns="http://www.w3.org/2000/svg" xmlns:xlink="http://www.w3.org/1999/xlink">
 <metadata>
  <rdf:RDF xmlns:cc="http://creativecommons.org/ns#" xmlns:dc="http://purl.org/dc/elements/1.1/" xmlns:rdf="http://www.w3.org/1999/02/22-rdf-syntax-ns#">
   <cc:Work>
    <dc:type rdf:resource="http://purl.org/dc/dcmitype/StillImage"/>
    <dc:date>2021-06-19T00:58:28.750006</dc:date>
    <dc:format>image/svg+xml</dc:format>
    <dc:creator>
     <cc:Agent>
      <dc:title>Matplotlib v3.3.3, https://matplotlib.org/</dc:title>
     </cc:Agent>
    </dc:creator>
   </cc:Work>
  </rdf:RDF>
 </metadata>
 <defs>
  <style type="text/css">*{stroke-linecap:butt;stroke-linejoin:round;}</style>
 </defs>
 <g id="figure_1">
  <g id="patch_1">
   <path d="M 0 345.6 
L 460.8 345.6 
L 460.8 0 
L 0 0 
z
" style="fill:#ffffff;"/>
  </g>
  <g id="axes_1">
   <g id="patch_2">
    <path d="M 57.6 307.584 
L 414.72 307.584 
L 414.72 41.472 
L 57.6 41.472 
z
" style="fill:#7d9051;"/>
   </g>
   <g id="matplotlib.axis_1">
    <g id="xtick_1">
     <g id="line2d_1">
      <defs>
       <path d="M 0 0 
L 0 3.5 
" id="mf46c1e8ebc" style="stroke:#000000;stroke-width:0.8;"/>
      </defs>
      <g>
       <use style="stroke:#000000;stroke-width:0.8;" x="111.188744" xlink:href="#mf46c1e8ebc" y="307.584"/>
      </g>
     </g>
     <g id="text_1">
      <!-- −100 -->
      <g transform="translate(97.45515 322.182437)scale(0.1 -0.1)">
       <defs>
        <path d="M 10.59375 35.5 
L 73.1875 35.5 
L 73.1875 27.203125 
L 10.59375 27.203125 
z
" id="DejaVuSans-8722"/>
        <path d="M 12.40625 8.296875 
L 28.515625 8.296875 
L 28.515625 63.921875 
L 10.984375 60.40625 
L 10.984375 69.390625 
L 28.421875 72.90625 
L 38.28125 72.90625 
L 38.28125 8.296875 
L 54.390625 8.296875 
L 54.390625 0 
L 12.40625 0 
z
" id="DejaVuSans-49"/>
        <path d="M 31.78125 66.40625 
Q 24.171875 66.40625 20.328125 58.90625 
Q 16.5 51.421875 16.5 36.375 
Q 16.5 21.390625 20.328125 13.890625 
Q 24.171875 6.390625 31.78125 6.390625 
Q 39.453125 6.390625 43.28125 13.890625 
Q 47.125 21.390625 47.125 36.375 
Q 47.125 51.421875 43.28125 58.90625 
Q 39.453125 66.40625 31.78125 66.40625 
z
M 31.78125 74.21875 
Q 44.046875 74.21875 50.515625 64.515625 
Q 56.984375 54.828125 56.984375 36.375 
Q 56.984375 17.96875 50.515625 8.265625 
Q 44.046875 -1.421875 31.78125 -1.421875 
Q 19.53125 -1.421875 13.0625 8.265625 
Q 6.59375 17.96875 6.59375 36.375 
Q 6.59375 54.828125 13.0625 64.515625 
Q 19.53125 74.21875 31.78125 74.21875 
z
" id="DejaVuSans-48"/>
       </defs>
       <use xlink:href="#DejaVuSans-8722"/>
       <use x="83.789062" xlink:href="#DejaVuSans-49"/>
       <use x="147.412109" xlink:href="#DejaVuSans-48"/>
       <use x="211.035156" xlink:href="#DejaVuSans-48"/>
      </g>
     </g>
    </g>
    <g id="xtick_2">
     <g id="line2d_2">
      <g>
       <use style="stroke:#000000;stroke-width:0.8;" x="190.545518" xlink:href="#mf46c1e8ebc" y="307.584"/>
      </g>
     </g>
     <g id="text_2">
      <!-- −50 -->
      <g transform="translate(179.993174 322.182437)scale(0.1 -0.1)">
       <defs>
        <path d="M 10.796875 72.90625 
L 49.515625 72.90625 
L 49.515625 64.59375 
L 19.828125 64.59375 
L 19.828125 46.734375 
Q 21.96875 47.46875 24.109375 47.828125 
Q 26.265625 48.1875 28.421875 48.1875 
Q 40.625 48.1875 47.75 41.5 
Q 54.890625 34.8125 54.890625 23.390625 
Q 54.890625 11.625 47.5625 5.09375 
Q 40.234375 -1.421875 26.90625 -1.421875 
Q 22.3125 -1.421875 17.546875 -0.640625 
Q 12.796875 0.140625 7.71875 1.703125 
L 7.71875 11.625 
Q 12.109375 9.234375 16.796875 8.0625 
Q 21.484375 6.890625 26.703125 6.890625 
Q 35.15625 6.890625 40.078125 11.328125 
Q 45.015625 15.765625 45.015625 23.390625 
Q 45.015625 31 40.078125 35.4375 
Q 35.15625 39.890625 26.703125 39.890625 
Q 22.75 39.890625 18.8125 39.015625 
Q 14.890625 38.140625 10.796875 36.28125 
z
" id="DejaVuSans-53"/>
       </defs>
       <use xlink:href="#DejaVuSans-8722"/>
       <use x="83.789062" xlink:href="#DejaVuSans-53"/>
       <use x="147.412109" xlink:href="#DejaVuSans-48"/>
      </g>
     </g>
    </g>
    <g id="xtick_3">
     <g id="line2d_3">
      <g>
       <use style="stroke:#000000;stroke-width:0.8;" x="269.902291" xlink:href="#mf46c1e8ebc" y="307.584"/>
      </g>
     </g>
     <g id="text_3">
      <!-- 0 -->
      <g transform="translate(266.721041 322.182437)scale(0.1 -0.1)">
       <use xlink:href="#DejaVuSans-48"/>
      </g>
     </g>
    </g>
    <g id="xtick_4">
     <g id="line2d_4">
      <g>
       <use style="stroke:#000000;stroke-width:0.8;" x="349.259065" xlink:href="#mf46c1e8ebc" y="307.584"/>
      </g>
     </g>
     <g id="text_4">
      <!-- 50 -->
      <g transform="translate(342.896565 322.182437)scale(0.1 -0.1)">
       <use xlink:href="#DejaVuSans-53"/>
       <use x="63.623047" xlink:href="#DejaVuSans-48"/>
      </g>
     </g>
    </g>
   </g>
   <g id="matplotlib.axis_2">
    <g id="ytick_1">
     <g id="line2d_5">
      <defs>
       <path d="M 0 0 
L -3.5 0 
" id="mb115626d62" style="stroke:#000000;stroke-width:0.8;"/>
      </defs>
      <g>
       <use style="stroke:#000000;stroke-width:0.8;" x="57.6" xlink:href="#mb115626d62" y="295.426921"/>
      </g>
     </g>
     <g id="text_5">
      <!-- 0 -->
      <g transform="translate(44.2375 299.22614)scale(0.1 -0.1)">
       <use xlink:href="#DejaVuSans-48"/>
      </g>
     </g>
    </g>
    <g id="ytick_2">
     <g id="line2d_6">
      <g>
       <use style="stroke:#000000;stroke-width:0.8;" x="57.6" xlink:href="#mb115626d62" y="263.684212"/>
      </g>
     </g>
     <g id="text_6">
      <!-- 20 -->
      <g transform="translate(37.875 267.48343)scale(0.1 -0.1)">
       <defs>
        <path d="M 19.1875 8.296875 
L 53.609375 8.296875 
L 53.609375 0 
L 7.328125 0 
L 7.328125 8.296875 
Q 12.9375 14.109375 22.625 23.890625 
Q 32.328125 33.6875 34.8125 36.53125 
Q 39.546875 41.84375 41.421875 45.53125 
Q 43.3125 49.21875 43.3125 52.78125 
Q 43.3125 58.59375 39.234375 62.25 
Q 35.15625 65.921875 28.609375 65.921875 
Q 23.96875 65.921875 18.8125 64.3125 
Q 13.671875 62.703125 7.8125 59.421875 
L 7.8125 69.390625 
Q 13.765625 71.78125 18.9375 73 
Q 24.125 74.21875 28.421875 74.21875 
Q 39.75 74.21875 46.484375 68.546875 
Q 53.21875 62.890625 53.21875 53.421875 
Q 53.21875 48.921875 51.53125 44.890625 
Q 49.859375 40.875 45.40625 35.40625 
Q 44.1875 33.984375 37.640625 27.21875 
Q 31.109375 20.453125 19.1875 8.296875 
z
" id="DejaVuSans-50"/>
       </defs>
       <use xlink:href="#DejaVuSans-50"/>
       <use x="63.623047" xlink:href="#DejaVuSans-48"/>
      </g>
     </g>
    </g>
    <g id="ytick_3">
     <g id="line2d_7">
      <g>
       <use style="stroke:#000000;stroke-width:0.8;" x="57.6" xlink:href="#mb115626d62" y="231.941502"/>
      </g>
     </g>
     <g id="text_7">
      <!-- 40 -->
      <g transform="translate(37.875 235.740721)scale(0.1 -0.1)">
       <defs>
        <path d="M 37.796875 64.3125 
L 12.890625 25.390625 
L 37.796875 25.390625 
z
M 35.203125 72.90625 
L 47.609375 72.90625 
L 47.609375 25.390625 
L 58.015625 25.390625 
L 58.015625 17.1875 
L 47.609375 17.1875 
L 47.609375 0 
L 37.796875 0 
L 37.796875 17.1875 
L 4.890625 17.1875 
L 4.890625 26.703125 
z
" id="DejaVuSans-52"/>
       </defs>
       <use xlink:href="#DejaVuSans-52"/>
       <use x="63.623047" xlink:href="#DejaVuSans-48"/>
      </g>
     </g>
    </g>
    <g id="ytick_4">
     <g id="line2d_8">
      <g>
       <use style="stroke:#000000;stroke-width:0.8;" x="57.6" xlink:href="#mb115626d62" y="200.198793"/>
      </g>
     </g>
     <g id="text_8">
      <!-- 60 -->
      <g transform="translate(37.875 203.998011)scale(0.1 -0.1)">
       <defs>
        <path d="M 33.015625 40.375 
Q 26.375 40.375 22.484375 35.828125 
Q 18.609375 31.296875 18.609375 23.390625 
Q 18.609375 15.53125 22.484375 10.953125 
Q 26.375 6.390625 33.015625 6.390625 
Q 39.65625 6.390625 43.53125 10.953125 
Q 47.40625 15.53125 47.40625 23.390625 
Q 47.40625 31.296875 43.53125 35.828125 
Q 39.65625 40.375 33.015625 40.375 
z
M 52.59375 71.296875 
L 52.59375 62.3125 
Q 48.875 64.0625 45.09375 64.984375 
Q 41.3125 65.921875 37.59375 65.921875 
Q 27.828125 65.921875 22.671875 59.328125 
Q 17.53125 52.734375 16.796875 39.40625 
Q 19.671875 43.65625 24.015625 45.921875 
Q 28.375 48.1875 33.59375 48.1875 
Q 44.578125 48.1875 50.953125 41.515625 
Q 57.328125 34.859375 57.328125 23.390625 
Q 57.328125 12.15625 50.6875 5.359375 
Q 44.046875 -1.421875 33.015625 -1.421875 
Q 20.359375 -1.421875 13.671875 8.265625 
Q 6.984375 17.96875 6.984375 36.375 
Q 6.984375 53.65625 15.1875 63.9375 
Q 23.390625 74.21875 37.203125 74.21875 
Q 40.921875 74.21875 44.703125 73.484375 
Q 48.484375 72.75 52.59375 71.296875 
z
" id="DejaVuSans-54"/>
       </defs>
       <use xlink:href="#DejaVuSans-54"/>
       <use x="63.623047" xlink:href="#DejaVuSans-48"/>
      </g>
     </g>
    </g>
    <g id="ytick_5">
     <g id="line2d_9">
      <g>
       <use style="stroke:#000000;stroke-width:0.8;" x="57.6" xlink:href="#mb115626d62" y="168.456083"/>
      </g>
     </g>
     <g id="text_9">
      <!-- 80 -->
      <g transform="translate(37.875 172.255302)scale(0.1 -0.1)">
       <defs>
        <path d="M 31.78125 34.625 
Q 24.75 34.625 20.71875 30.859375 
Q 16.703125 27.09375 16.703125 20.515625 
Q 16.703125 13.921875 20.71875 10.15625 
Q 24.75 6.390625 31.78125 6.390625 
Q 38.8125 6.390625 42.859375 10.171875 
Q 46.921875 13.96875 46.921875 20.515625 
Q 46.921875 27.09375 42.890625 30.859375 
Q 38.875 34.625 31.78125 34.625 
z
M 21.921875 38.8125 
Q 15.578125 40.375 12.03125 44.71875 
Q 8.5 49.078125 8.5 55.328125 
Q 8.5 64.0625 14.71875 69.140625 
Q 20.953125 74.21875 31.78125 74.21875 
Q 42.671875 74.21875 48.875 69.140625 
Q 55.078125 64.0625 55.078125 55.328125 
Q 55.078125 49.078125 51.53125 44.71875 
Q 48 40.375 41.703125 38.8125 
Q 48.828125 37.15625 52.796875 32.3125 
Q 56.78125 27.484375 56.78125 20.515625 
Q 56.78125 9.90625 50.3125 4.234375 
Q 43.84375 -1.421875 31.78125 -1.421875 
Q 19.734375 -1.421875 13.25 4.234375 
Q 6.78125 9.90625 6.78125 20.515625 
Q 6.78125 27.484375 10.78125 32.3125 
Q 14.796875 37.15625 21.921875 38.8125 
z
M 18.3125 54.390625 
Q 18.3125 48.734375 21.84375 45.5625 
Q 25.390625 42.390625 31.78125 42.390625 
Q 38.140625 42.390625 41.71875 45.5625 
Q 45.3125 48.734375 45.3125 54.390625 
Q 45.3125 60.0625 41.71875 63.234375 
Q 38.140625 66.40625 31.78125 66.40625 
Q 25.390625 66.40625 21.84375 63.234375 
Q 18.3125 60.0625 18.3125 54.390625 
z
" id="DejaVuSans-56"/>
       </defs>
       <use xlink:href="#DejaVuSans-56"/>
       <use x="63.623047" xlink:href="#DejaVuSans-48"/>
      </g>
     </g>
    </g>
    <g id="ytick_6">
     <g id="line2d_10">
      <g>
       <use style="stroke:#000000;stroke-width:0.8;" x="57.6" xlink:href="#mb115626d62" y="136.713374"/>
      </g>
     </g>
     <g id="text_10">
      <!-- 100 -->
      <g transform="translate(31.5125 140.512593)scale(0.1 -0.1)">
       <use xlink:href="#DejaVuSans-49"/>
       <use x="63.623047" xlink:href="#DejaVuSans-48"/>
       <use x="127.246094" xlink:href="#DejaVuSans-48"/>
      </g>
     </g>
    </g>
    <g id="ytick_7">
     <g id="line2d_11">
      <g>
       <use style="stroke:#000000;stroke-width:0.8;" x="57.6" xlink:href="#mb115626d62" y="104.970664"/>
      </g>
     </g>
     <g id="text_11">
      <!-- 120 -->
      <g transform="translate(31.5125 108.769883)scale(0.1 -0.1)">
       <use xlink:href="#DejaVuSans-49"/>
       <use x="63.623047" xlink:href="#DejaVuSans-50"/>
       <use x="127.246094" xlink:href="#DejaVuSans-48"/>
      </g>
     </g>
    </g>
    <g id="ytick_8">
     <g id="line2d_12">
      <g>
       <use style="stroke:#000000;stroke-width:0.8;" x="57.6" xlink:href="#mb115626d62" y="73.227955"/>
      </g>
     </g>
     <g id="text_12">
      <!-- 140 -->
      <g transform="translate(31.5125 77.027174)scale(0.1 -0.1)">
       <use xlink:href="#DejaVuSans-49"/>
       <use x="63.623047" xlink:href="#DejaVuSans-52"/>
       <use x="127.246094" xlink:href="#DejaVuSans-48"/>
      </g>
     </g>
    </g>
    <g id="ytick_9">
     <g id="line2d_13">
      <g>
       <use style="stroke:#000000;stroke-width:0.8;" x="57.6" xlink:href="#mb115626d62" y="41.485246"/>
      </g>
     </g>
     <g id="text_13">
      <!-- 160 -->
      <g transform="translate(31.5125 45.284464)scale(0.1 -0.1)">
       <use xlink:href="#DejaVuSans-49"/>
       <use x="63.623047" xlink:href="#DejaVuSans-54"/>
       <use x="127.246094" xlink:href="#DejaVuSans-48"/>
      </g>
     </g>
    </g>
   </g>
   <g id="line2d_14">
    <path clip-path="url(#pd02f7afde2)" d="M 269.902291 295.426921 
L 270.184878 276.634362 
L 270.587977 251.560143 
L 270.366837 245.219792 
L 269.861272 232.524479 
L 269.880257 228.335997 
L 270.086748 224.190804 
L 270.536998 220.101888 
L 271.287258 216.082234 
L 271.853156 214.086766 
L 272.613142 212.083335 
L 273.539174 210.075362 
L 275.777208 206.059474 
L 278.342928 202.066468 
L 283.560098 194.25856 
L 285.762884 190.49839 
L 286.664683 188.666223 
L 287.396029 186.870563 
L 287.928883 185.11483 
L 288.235201 183.402446 
L 288.286944 181.73683 
L 288.056069 180.121403 
L 287.553738 178.546485 
L 286.821868 177.00049 
L 285.878548 175.483987 
L 284.741866 173.997541 
L 283.429914 172.541718 
L 281.960779 171.117086 
L 278.62332 168.363659 
L 274.874203 165.741791 
L 270.858143 163.256014 
L 264.650099 159.792435 
L 256.789073 155.692949 
L 253.043159 153.99491 
L 249.122004 152.633505 
L 245.07234 151.518965 
L 238.859111 150.113657 
L 230.561177 148.266095 
L 226.511512 147.151555 
L 222.590357 145.79015 
L 218.844443 144.092111 
L 211.252566 140.057242 
L 205.434786 136.687357 
L 201.667688 134.261351 
L 198.095761 131.682022 
L 194.809888 128.94098 
L 191.900955 126.029832 
L 190.616243 124.507847 
L 189.459847 122.940188 
L 188.443128 121.325808 
L 187.577448 119.663657 
L 186.834569 117.907809 
L 186.179065 116.023785 
L 185.611513 114.027712 
L 184.742568 109.763913 
L 184.232343 105.24541 
L 184.085446 100.601199 
L 184.306487 95.960278 
L 184.900074 91.451645 
L 185.870816 87.204296 
L 186.499061 85.218915 
L 187.223323 83.347229 
L 188.044179 81.605363 
L 188.962203 80.009441 
L 190.015022 78.529324 
L 191.231216 77.122458 
L 192.597795 75.786348 
L 194.101769 74.5185 
L 195.73015 73.316419 
L 199.30817 71.09958 
L 203.227938 69.115874 
L 207.385538 67.345343 
L 211.677051 65.76803 
L 218.138092 63.720689 
L 224.315905 61.995831 
L 228.306777 61.102315 
L 232.37711 60.500963 
L 236.512069 60.138434 
L 240.696817 59.961382 
L 247.034839 59.926887 
L 261.848123 59.991267 
L 263.939914 59.919224 
L 263.939914 59.919224 
" style="fill:none;stroke:#fea952;stroke-linecap:square;"/>
   </g>
   <g id="line2d_15">
    <path clip-path="url(#pd02f7afde2)" d="M 263.554043 295.365842 
L 263.837559 276.509756 
L 264.241411 251.71852 
L 264.025607 245.524417 
L 263.512809 232.556027 
L 263.535986 228.103165 
L 263.765562 223.602087 
L 264.273614 219.065548 
L 264.655644 216.789549 
L 265.17957 214.350143 
L 265.917348 211.835063 
L 266.848132 209.424643 
L 267.928869 207.10409 
L 270.400004 202.684617 
L 273.080409 198.515429 
L 278.143731 190.946921 
L 280.066923 187.694819 
L 281.321101 185.026862 
L 281.889721 183.205323 
L 282.007735 182.050559 
L 281.815685 181.262866 
L 281.431147 180.353715 
L 280.835512 179.340381 
L 280.025792 178.247555 
L 279.010377 177.099313 
L 276.42695 174.713563 
L 273.238865 172.297658 
L 269.612048 169.918129 
L 265.708581 167.613239 
L 259.670844 164.341163 
L 252.471423 160.644783 
L 249.136903 159.314633 
L 245.506741 158.193669 
L 241.625271 157.221024 
L 226.757416 153.832104 
L 222.332237 152.462591 
L 220.120839 151.638693 
L 217.921259 150.700545 
L 214.044086 148.748684 
L 206.129507 144.465049 
L 202.059002 142.063979 
L 198.029449 139.463966 
L 194.125763 136.636122 
L 190.43431 133.540795 
L 188.697095 131.876758 
L 187.049663 130.124823 
L 185.507303 128.276497 
L 184.087887 126.323388 
L 182.812485 124.258357 
L 181.730673 122.13736 
L 180.83858 119.993978 
L 180.072569 117.760071 
L 179.423132 115.444723 
L 178.883857 113.05758 
L 178.12047 108.109899 
L 177.765098 103.006553 
L 177.815695 97.842689 
L 178.281966 92.714328 
L 178.677629 90.192611 
L 179.187497 87.71399 
L 179.818081 85.288996 
L 180.578335 82.927848 
L 181.48051 80.640925 
L 182.541139 78.43984 
L 183.788906 76.329635 
L 185.212281 74.377498 
L 186.793009 72.583041 
L 188.505936 70.932414 
L 190.331306 69.410899 
L 192.253243 68.00463 
L 194.258364 66.701323 
L 198.471063 64.363002 
L 202.879874 62.329279 
L 207.396264 60.551368 
L 211.928453 58.991846 
L 218.54453 56.996985 
L 225.038603 55.287349 
L 229.509226 54.473575 
L 233.965215 53.962225 
L 238.391415 53.684915 
L 244.947751 53.568 
L 263.721395 53.574444 
L 263.721395 53.574444 
" style="fill:none;stroke:#ffffff;stroke-linecap:square;"/>
   </g>
   <g id="line2d_16">
    <path clip-path="url(#pd02f7afde2)" d="M 276.250539 295.488 
L 276.532197 276.758968 
L 276.934543 251.401767 
L 276.708066 244.915167 
L 276.209736 232.49293 
L 276.224528 228.568828 
L 276.407935 224.779521 
L 276.800382 221.138227 
L 277.394945 217.814324 
L 277.788965 216.338468 
L 278.378152 214.742027 
L 279.149479 213.046635 
L 281.154412 209.434332 
L 283.605448 205.617506 
L 288.976465 197.570198 
L 291.458846 193.30196 
L 292.544269 191.060894 
L 293.470957 188.714264 
L 294.178224 186.232739 
L 294.580682 183.599568 
L 294.571625 180.838629 
L 294.104402 178.192247 
L 293.291791 175.830103 
L 292.212589 173.647266 
L 290.921583 171.627592 
L 289.457941 169.747526 
L 287.849451 167.984123 
L 286.117061 166.318201 
L 284.278152 164.734858 
L 280.343483 161.774335 
L 276.168945 159.045087 
L 271.881886 156.517914 
L 265.537262 153.080565 
L 257.410461 148.947696 
L 253.066228 147.240845 
L 248.713889 145.908306 
L 244.402568 144.831409 
L 230.288986 141.636041 
L 226.731664 140.552051 
L 223.46389 139.277096 
L 219.952417 137.51002 
L 212.48283 133.471814 
L 208.810569 131.310734 
L 205.305927 129.058736 
L 202.065758 126.727922 
L 199.185466 124.341164 
L 196.752247 121.934841 
L 194.831806 119.556989 
L 194.073771 118.39326 
L 193.424223 117.189954 
L 192.285561 114.287499 
L 191.38112 110.813846 
L 190.764185 106.946976 
L 190.461282 102.855358 
L 190.483678 98.701841 
L 190.830882 94.648399 
L 191.488529 90.860504 
L 192.419787 87.509981 
L 193.547218 84.770886 
L 194.135501 83.689248 
L 194.817764 82.68115 
L 195.669422 81.661875 
L 196.689653 80.640282 
L 197.872233 79.626101 
L 200.681529 77.653898 
L 203.992598 75.796663 
L 207.687134 74.081138 
L 211.645836 72.516195 
L 215.75265 71.099342 
L 221.947774 69.229478 
L 227.562358 67.731087 
L 231.15665 67.06333 
L 234.909663 66.624135 
L 238.806878 66.3752 
L 244.885284 66.26493 
L 264.158433 66.264004 
L 264.158433 66.264004 
" style="fill:none;stroke:#ffffff;stroke-linecap:square;"/>
   </g>
   <g id="patch_3">
    <path d="M 57.6 307.584 
L 57.6 41.472 
" style="fill:none;stroke:#000000;stroke-linecap:square;stroke-linejoin:miter;stroke-width:0.8;"/>
   </g>
   <g id="patch_4">
    <path d="M 414.72 307.584 
L 414.72 41.472 
" style="fill:none;stroke:#000000;stroke-linecap:square;stroke-linejoin:miter;stroke-width:0.8;"/>
   </g>
   <g id="patch_5">
    <path d="M 57.6 307.584 
L 414.72 307.584 
" style="fill:none;stroke:#000000;stroke-linecap:square;stroke-linejoin:miter;stroke-width:0.8;"/>
   </g>
   <g id="patch_6">
    <path d="M 57.6 41.472 
L 414.72 41.472 
" style="fill:none;stroke:#000000;stroke-linecap:square;stroke-linejoin:miter;stroke-width:0.8;"/>
   </g>
  </g>
 </g>
 <defs>
  <clipPath id="pd02f7afde2">
   <rect height="266.112" width="357.12" x="57.6" y="41.472"/>
  </clipPath>
 </defs>
</svg>
