<?xml version="1.0" encoding="utf-8" standalone="no"?>
<!DOCTYPE svg PUBLIC "-//W3C//DTD SVG 1.1//EN"
  "http://www.w3.org/Graphics/SVG/1.1/DTD/svg11.dtd">
<!-- Created with matplotlib (https://matplotlib.org/) -->
<svg height="345.6pt" version="1.1" viewBox="0 0 460.8 345.6" width="460.8pt" xmlns="http://www.w3.org/2000/svg" xmlns:xlink="http://www.w3.org/1999/xlink">
 <metadata>
  <rdf:RDF xmlns:cc="http://creativecommons.org/ns#" xmlns:dc="http://purl.org/dc/elements/1.1/" xmlns:rdf="http://www.w3.org/1999/02/22-rdf-syntax-ns#">
   <cc:Work>
    <dc:type rdf:resource="http://purl.org/dc/dcmitype/StillImage"/>
    <dc:date>2021-06-17T13:58:25.298942</dc:date>
    <dc:format>image/svg+xml</dc:format>
    <dc:creator>
     <cc:Agent>
      <dc:title>Matplotlib v3.3.3, https://matplotlib.org/</dc:title>
     </cc:Agent>
    </dc:creator>
   </cc:Work>
  </rdf:RDF>
 </metadata>
 <defs>
  <style type="text/css">*{stroke-linecap:butt;stroke-linejoin:round;}</style>
 </defs>
 <g id="figure_1">
  <g id="patch_1">
   <path d="M 0 345.6 
L 460.8 345.6 
L 460.8 0 
L 0 0 
z
" style="fill:#ffffff;"/>
  </g>
  <g id="axes_1">
   <g id="patch_2">
    <path d="M 57.6 307.584 
L 414.72 307.584 
L 414.72 41.472 
L 57.6 41.472 
z
" style="fill:#7d9051;"/>
   </g>
   <g id="matplotlib.axis_1">
    <g id="xtick_1">
     <g id="line2d_1">
      <defs>
       <path d="M 0 0 
L 0 3.5 
" id="mdfa6f304a7" style="stroke:#000000;stroke-width:0.8;"/>
      </defs>
      <g>
       <use style="stroke:#000000;stroke-width:0.8;" x="74.933601" xlink:href="#mdfa6f304a7" y="307.584"/>
      </g>
     </g>
     <g id="text_1">
      <!-- −150 -->
      <g transform="translate(61.200007 322.182437)scale(0.1 -0.1)">
       <defs>
        <path d="M 10.59375 35.5 
L 73.1875 35.5 
L 73.1875 27.203125 
L 10.59375 27.203125 
z
" id="DejaVuSans-8722"/>
        <path d="M 12.40625 8.296875 
L 28.515625 8.296875 
L 28.515625 63.921875 
L 10.984375 60.40625 
L 10.984375 69.390625 
L 28.421875 72.90625 
L 38.28125 72.90625 
L 38.28125 8.296875 
L 54.390625 8.296875 
L 54.390625 0 
L 12.40625 0 
z
" id="DejaVuSans-49"/>
        <path d="M 10.796875 72.90625 
L 49.515625 72.90625 
L 49.515625 64.59375 
L 19.828125 64.59375 
L 19.828125 46.734375 
Q 21.96875 47.46875 24.109375 47.828125 
Q 26.265625 48.1875 28.421875 48.1875 
Q 40.625 48.1875 47.75 41.5 
Q 54.890625 34.8125 54.890625 23.390625 
Q 54.890625 11.625 47.5625 5.09375 
Q 40.234375 -1.421875 26.90625 -1.421875 
Q 22.3125 -1.421875 17.546875 -0.640625 
Q 12.796875 0.140625 7.71875 1.703125 
L 7.71875 11.625 
Q 12.109375 9.234375 16.796875 8.0625 
Q 21.484375 6.890625 26.703125 6.890625 
Q 35.15625 6.890625 40.078125 11.328125 
Q 45.015625 15.765625 45.015625 23.390625 
Q 45.015625 31 40.078125 35.4375 
Q 35.15625 39.890625 26.703125 39.890625 
Q 22.75 39.890625 18.8125 39.015625 
Q 14.890625 38.140625 10.796875 36.28125 
z
" id="DejaVuSans-53"/>
        <path d="M 31.78125 66.40625 
Q 24.171875 66.40625 20.328125 58.90625 
Q 16.5 51.421875 16.5 36.375 
Q 16.5 21.390625 20.328125 13.890625 
Q 24.171875 6.390625 31.78125 6.390625 
Q 39.453125 6.390625 43.28125 13.890625 
Q 47.125 21.390625 47.125 36.375 
Q 47.125 51.421875 43.28125 58.90625 
Q 39.453125 66.40625 31.78125 66.40625 
z
M 31.78125 74.21875 
Q 44.046875 74.21875 50.515625 64.515625 
Q 56.984375 54.828125 56.984375 36.375 
Q 56.984375 17.96875 50.515625 8.265625 
Q 44.046875 -1.421875 31.78125 -1.421875 
Q 19.53125 -1.421875 13.0625 8.265625 
Q 6.59375 17.96875 6.59375 36.375 
Q 6.59375 54.828125 13.0625 64.515625 
Q 19.53125 74.21875 31.78125 74.21875 
z
" id="DejaVuSans-48"/>
       </defs>
       <use xlink:href="#DejaVuSans-8722"/>
       <use x="83.789062" xlink:href="#DejaVuSans-49"/>
       <use x="147.412109" xlink:href="#DejaVuSans-53"/>
       <use x="211.035156" xlink:href="#DejaVuSans-48"/>
      </g>
     </g>
    </g>
    <g id="xtick_2">
     <g id="line2d_2">
      <g>
       <use style="stroke:#000000;stroke-width:0.8;" x="146.034959" xlink:href="#mdfa6f304a7" y="307.584"/>
      </g>
     </g>
     <g id="text_2">
      <!-- −100 -->
      <g transform="translate(132.301365 322.182437)scale(0.1 -0.1)">
       <use xlink:href="#DejaVuSans-8722"/>
       <use x="83.789062" xlink:href="#DejaVuSans-49"/>
       <use x="147.412109" xlink:href="#DejaVuSans-48"/>
       <use x="211.035156" xlink:href="#DejaVuSans-48"/>
      </g>
     </g>
    </g>
    <g id="xtick_3">
     <g id="line2d_3">
      <g>
       <use style="stroke:#000000;stroke-width:0.8;" x="217.136316" xlink:href="#mdfa6f304a7" y="307.584"/>
      </g>
     </g>
     <g id="text_3">
      <!-- −50 -->
      <g transform="translate(206.583973 322.182437)scale(0.1 -0.1)">
       <use xlink:href="#DejaVuSans-8722"/>
       <use x="83.789062" xlink:href="#DejaVuSans-53"/>
       <use x="147.412109" xlink:href="#DejaVuSans-48"/>
      </g>
     </g>
    </g>
    <g id="xtick_4">
     <g id="line2d_4">
      <g>
       <use style="stroke:#000000;stroke-width:0.8;" x="288.237674" xlink:href="#mdfa6f304a7" y="307.584"/>
      </g>
     </g>
     <g id="text_4">
      <!-- 0 -->
      <g transform="translate(285.056424 322.182437)scale(0.1 -0.1)">
       <use xlink:href="#DejaVuSans-48"/>
      </g>
     </g>
    </g>
    <g id="xtick_5">
     <g id="line2d_5">
      <g>
       <use style="stroke:#000000;stroke-width:0.8;" x="359.339032" xlink:href="#mdfa6f304a7" y="307.584"/>
      </g>
     </g>
     <g id="text_5">
      <!-- 50 -->
      <g transform="translate(352.976532 322.182437)scale(0.1 -0.1)">
       <use xlink:href="#DejaVuSans-53"/>
       <use x="63.623047" xlink:href="#DejaVuSans-48"/>
      </g>
     </g>
    </g>
   </g>
   <g id="matplotlib.axis_2">
    <g id="ytick_1">
     <g id="line2d_6">
      <defs>
       <path d="M 0 0 
L -3.5 0 
" id="me8fade013f" style="stroke:#000000;stroke-width:0.8;"/>
      </defs>
      <g>
       <use style="stroke:#000000;stroke-width:0.8;" x="57.6" xlink:href="#me8fade013f" y="295.433275"/>
      </g>
     </g>
     <g id="text_6">
      <!-- 0 -->
      <g transform="translate(44.2375 299.232494)scale(0.1 -0.1)">
       <use xlink:href="#DejaVuSans-48"/>
      </g>
     </g>
    </g>
    <g id="ytick_2">
     <g id="line2d_7">
      <g>
       <use style="stroke:#000000;stroke-width:0.8;" x="57.6" xlink:href="#me8fade013f" y="259.882596"/>
      </g>
     </g>
     <g id="text_7">
      <!-- 25 -->
      <g transform="translate(37.875 263.681815)scale(0.1 -0.1)">
       <defs>
        <path d="M 19.1875 8.296875 
L 53.609375 8.296875 
L 53.609375 0 
L 7.328125 0 
L 7.328125 8.296875 
Q 12.9375 14.109375 22.625 23.890625 
Q 32.328125 33.6875 34.8125 36.53125 
Q 39.546875 41.84375 41.421875 45.53125 
Q 43.3125 49.21875 43.3125 52.78125 
Q 43.3125 58.59375 39.234375 62.25 
Q 35.15625 65.921875 28.609375 65.921875 
Q 23.96875 65.921875 18.8125 64.3125 
Q 13.671875 62.703125 7.8125 59.421875 
L 7.8125 69.390625 
Q 13.765625 71.78125 18.9375 73 
Q 24.125 74.21875 28.421875 74.21875 
Q 39.75 74.21875 46.484375 68.546875 
Q 53.21875 62.890625 53.21875 53.421875 
Q 53.21875 48.921875 51.53125 44.890625 
Q 49.859375 40.875 45.40625 35.40625 
Q 44.1875 33.984375 37.640625 27.21875 
Q 31.109375 20.453125 19.1875 8.296875 
z
" id="DejaVuSans-50"/>
       </defs>
       <use xlink:href="#DejaVuSans-50"/>
       <use x="63.623047" xlink:href="#DejaVuSans-53"/>
      </g>
     </g>
    </g>
    <g id="ytick_3">
     <g id="line2d_8">
      <g>
       <use style="stroke:#000000;stroke-width:0.8;" x="57.6" xlink:href="#me8fade013f" y="224.331917"/>
      </g>
     </g>
     <g id="text_8">
      <!-- 50 -->
      <g transform="translate(37.875 228.131136)scale(0.1 -0.1)">
       <use xlink:href="#DejaVuSans-53"/>
       <use x="63.623047" xlink:href="#DejaVuSans-48"/>
      </g>
     </g>
    </g>
    <g id="ytick_4">
     <g id="line2d_9">
      <g>
       <use style="stroke:#000000;stroke-width:0.8;" x="57.6" xlink:href="#me8fade013f" y="188.781238"/>
      </g>
     </g>
     <g id="text_9">
      <!-- 75 -->
      <g transform="translate(37.875 192.580457)scale(0.1 -0.1)">
       <defs>
        <path d="M 8.203125 72.90625 
L 55.078125 72.90625 
L 55.078125 68.703125 
L 28.609375 0 
L 18.3125 0 
L 43.21875 64.59375 
L 8.203125 64.59375 
z
" id="DejaVuSans-55"/>
       </defs>
       <use xlink:href="#DejaVuSans-55"/>
       <use x="63.623047" xlink:href="#DejaVuSans-53"/>
      </g>
     </g>
    </g>
    <g id="ytick_5">
     <g id="line2d_10">
      <g>
       <use style="stroke:#000000;stroke-width:0.8;" x="57.6" xlink:href="#me8fade013f" y="153.230559"/>
      </g>
     </g>
     <g id="text_10">
      <!-- 100 -->
      <g transform="translate(31.5125 157.029778)scale(0.1 -0.1)">
       <use xlink:href="#DejaVuSans-49"/>
       <use x="63.623047" xlink:href="#DejaVuSans-48"/>
       <use x="127.246094" xlink:href="#DejaVuSans-48"/>
      </g>
     </g>
    </g>
    <g id="ytick_6">
     <g id="line2d_11">
      <g>
       <use style="stroke:#000000;stroke-width:0.8;" x="57.6" xlink:href="#me8fade013f" y="117.67988"/>
      </g>
     </g>
     <g id="text_11">
      <!-- 125 -->
      <g transform="translate(31.5125 121.479099)scale(0.1 -0.1)">
       <use xlink:href="#DejaVuSans-49"/>
       <use x="63.623047" xlink:href="#DejaVuSans-50"/>
       <use x="127.246094" xlink:href="#DejaVuSans-53"/>
      </g>
     </g>
    </g>
    <g id="ytick_7">
     <g id="line2d_12">
      <g>
       <use style="stroke:#000000;stroke-width:0.8;" x="57.6" xlink:href="#me8fade013f" y="82.129201"/>
      </g>
     </g>
     <g id="text_12">
      <!-- 150 -->
      <g transform="translate(31.5125 85.92842)scale(0.1 -0.1)">
       <use xlink:href="#DejaVuSans-49"/>
       <use x="63.623047" xlink:href="#DejaVuSans-53"/>
       <use x="127.246094" xlink:href="#DejaVuSans-48"/>
      </g>
     </g>
    </g>
    <g id="ytick_8">
     <g id="line2d_13">
      <g>
       <use style="stroke:#000000;stroke-width:0.8;" x="57.6" xlink:href="#me8fade013f" y="46.578522"/>
      </g>
     </g>
     <g id="text_13">
      <!-- 175 -->
      <g transform="translate(31.5125 50.377741)scale(0.1 -0.1)">
       <use xlink:href="#DejaVuSans-49"/>
       <use x="63.623047" xlink:href="#DejaVuSans-55"/>
       <use x="127.246094" xlink:href="#DejaVuSans-53"/>
      </g>
     </g>
    </g>
   </g>
   <g id="line2d_14">
    <path clip-path="url(#p44ff3fae2a)" d="M 288.237674 295.433275 
L 288.527589 276.724921 
L 288.926254 258.00178 
L 289.239925 254.152183 
L 289.976531 248.262084 
L 290.958672 240.408618 
L 291.236863 236.574448 
L 291.246981 232.85684 
L 290.894415 229.29693 
L 290.552558 227.588969 
L 290.08455 225.935861 
L 289.478564 224.342746 
L 288.730722 222.807926 
L 287.852025 221.323984 
L 286.852965 219.887486 
L 284.535716 217.143092 
L 281.862905 214.547282 
L 278.918462 212.07259 
L 274.176079 208.527575 
L 263.059261 200.554699 
L 260.024854 198.35301 
L 256.840687 196.30927 
L 251.900676 193.424071 
L 243.6765 188.65556 
L 240.546096 186.607881 
L 237.586957 184.400676 
L 234.852588 181.981033 
L 232.386615 179.305187 
L 230.150796 176.407859 
L 228.105752 173.328956 
L 226.218376 170.102871 
L 223.610516 165.06302 
L 220.3762 158.149105 
L 216.351101 149.581687 
L 213.980156 144.49218 
L 211.095758 137.558819 
L 206.838651 127.133 
L 204.505664 122.038982 
L 202.800755 118.727898 
L 200.884326 115.499393 
L 198.478425 112.326274 
L 195.700416 109.199899 
L 185.652631 98.577458 
L 183.433506 95.620081 
L 182.545352 94.152238 
L 181.834882 92.691068 
L 181.324656 91.236154 
L 181.037233 89.787078 
L 180.995173 88.343422 
L 181.190412 86.879734 
L 181.589944 85.376712 
L 182.178909 83.843164 
L 182.942449 82.287901 
L 183.865706 80.719732 
L 186.131933 77.57991 
L 188.858722 74.494171 
L 191.927204 71.53299 
L 195.218509 68.766839 
L 198.61377 66.266192 
L 201.994115 64.101521 
L 205.240677 62.343302 
L 206.840765 61.638508 
L 208.497736 61.049134 
L 211.962873 60.17766 
L 215.597176 59.650909 
L 219.361731 59.39091 
L 225.167661 59.330516 
L 236.870718 59.431422 
L 240.656075 59.244856 
L 240.656075 59.244856 
" style="fill:none;stroke:#fea952;stroke-linecap:square;"/>
   </g>
   <g id="line2d_15">
    <path clip-path="url(#p44ff3fae2a)" d="M 282.549829 295.37855 
L 282.84062 276.611079 
L 283.251469 257.612686 
L 283.588171 253.510109 
L 284.606987 245.540586 
L 285.291681 239.918938 
L 285.550352 236.439612 
L 285.572512 233.250518 
L 285.316932 230.413291 
L 284.768068 227.958135 
L 284.365155 226.834258 
L 283.182259 224.571731 
L 281.503013 222.28556 
L 279.36202 219.99095 
L 276.824705 217.704778 
L 273.971928 215.433175 
L 269.288997 212.036957 
L 261.104648 206.219298 
L 256.896476 203.103571 
L 253.913609 201.186441 
L 249.102271 198.376193 
L 242.3341 194.496352 
L 238.918955 192.368368 
L 235.558623 190.024441 
L 232.318943 187.389937 
L 229.307534 184.422781 
L 226.672817 181.268099 
L 224.318835 177.960254 
L 222.199273 174.542865 
L 220.269015 171.054424 
L 217.636223 165.766027 
L 208.757134 146.744871 
L 205.815116 139.672914 
L 201.63205 129.423389 
L 199.420569 124.587785 
L 197.072969 120.127423 
L 195.29248 117.453828 
L 192.926921 114.595892 
L 188.674312 110.104372 
L 184.118043 105.409344 
L 181.196179 102.112231 
L 179.832974 100.379767 
L 178.566922 98.564726 
L 177.429896 96.639544 
L 176.467271 94.573444 
L 175.745242 92.342826 
L 175.351537 89.952729 
L 175.357002 87.591354 
L 175.693204 85.418473 
L 176.279975 83.337396 
L 177.07294 81.336442 
L 178.040772 79.40205 
L 179.160629 77.523354 
L 180.414584 75.693324 
L 183.265075 72.168253 
L 186.482642 68.829636 
L 189.964588 65.707295 
L 193.611344 62.845387 
L 197.328883 60.295119 
L 201.036378 58.110752 
L 202.947799 57.137796 
L 204.934537 56.279322 
L 206.948665 55.576022 
L 208.980281 55.011119 
L 213.068885 54.230261 
L 217.16147 53.812466 
L 221.231115 53.648685 
L 227.233176 53.672196 
L 236.667423 53.746948 
L 240.298462 53.568 
L 240.298462 53.568 
" style="fill:none;stroke:#ffffff;stroke-linecap:square;"/>
   </g>
   <g id="line2d_16">
    <path clip-path="url(#p44ff3fae2a)" d="M 293.92552 295.488 
L 294.214558 276.838764 
L 294.720478 256.621855 
L 295.348623 250.992303 
L 296.625664 240.898299 
L 296.923373 236.709285 
L 296.92145 232.463161 
L 296.762987 230.324363 
L 296.471898 228.18057 
L 296.025563 226.039519 
L 295.401033 223.913586 
L 294.591973 221.851235 
L 293.625132 219.909766 
L 292.521792 218.076237 
L 291.3025 216.344012 
L 289.985049 214.70444 
L 287.115001 211.665711 
L 284.014079 208.888247 
L 280.769282 206.310989 
L 275.811784 202.716465 
L 268.010055 197.17863 
L 263.153232 193.602448 
L 259.767764 191.432099 
L 254.69908 188.471949 
L 246.7296 183.856273 
L 243.864106 181.987774 
L 241.254818 180.053105 
L 238.936504 178.021714 
L 236.821022 175.742798 
L 234.83796 173.185271 
L 232.978883 170.395157 
L 231.223543 167.400486 
L 228.735555 162.59552 
L 225.5495 155.78446 
L 221.465911 147.093053 
L 219.203178 142.239489 
L 216.3764 135.444723 
L 212.045253 124.842612 
L 209.590758 119.490179 
L 207.763235 115.947904 
L 206.709705 114.081628 
L 205.502514 112.178713 
L 202.784837 108.610175 
L 199.820592 105.278327 
L 190.109083 95.042686 
L 188.30009 92.675435 
L 187.202492 90.808692 
L 186.722929 89.621427 
L 186.633344 89.095491 
L 186.68762 88.340996 
L 186.899913 87.416028 
L 187.284878 86.349887 
L 187.844126 85.173753 
L 189.453056 82.601606 
L 191.625298 79.883498 
L 194.23272 77.157577 
L 197.140278 74.534967 
L 200.209805 72.112459 
L 203.297589 69.979791 
L 206.246719 68.223649 
L 208.746992 66.997694 
L 211.433172 66.119749 
L 214.453737 65.521873 
L 217.769738 65.17241 
L 221.330269 65.02447 
L 227.018705 65.046391 
L 235.025762 65.146576 
L 239.133914 65.040128 
L 241.013689 64.921712 
L 241.013689 64.921712 
" style="fill:none;stroke:#ffffff;stroke-linecap:square;"/>
   </g>
   <g id="patch_3">
    <path d="M 57.6 307.584 
L 57.6 41.472 
" style="fill:none;stroke:#000000;stroke-linecap:square;stroke-linejoin:miter;stroke-width:0.8;"/>
   </g>
   <g id="patch_4">
    <path d="M 414.72 307.584 
L 414.72 41.472 
" style="fill:none;stroke:#000000;stroke-linecap:square;stroke-linejoin:miter;stroke-width:0.8;"/>
   </g>
   <g id="patch_5">
    <path d="M 57.6 307.584 
L 414.72 307.584 
" style="fill:none;stroke:#000000;stroke-linecap:square;stroke-linejoin:miter;stroke-width:0.8;"/>
   </g>
   <g id="patch_6">
    <path d="M 57.6 41.472 
L 414.72 41.472 
" style="fill:none;stroke:#000000;stroke-linecap:square;stroke-linejoin:miter;stroke-width:0.8;"/>
   </g>
  </g>
 </g>
 <defs>
  <clipPath id="p44ff3fae2a">
   <rect height="266.112" width="357.12" x="57.6" y="41.472"/>
  </clipPath>
 </defs>
</svg>
