<?xml version="1.0" encoding="utf-8" standalone="no"?>
<!DOCTYPE svg PUBLIC "-//W3C//DTD SVG 1.1//EN"
  "http://www.w3.org/Graphics/SVG/1.1/DTD/svg11.dtd">
<!-- Created with matplotlib (https://matplotlib.org/) -->
<svg height="345.6pt" version="1.1" viewBox="0 0 460.8 345.6" width="460.8pt" xmlns="http://www.w3.org/2000/svg" xmlns:xlink="http://www.w3.org/1999/xlink">
 <metadata>
  <rdf:RDF xmlns:cc="http://creativecommons.org/ns#" xmlns:dc="http://purl.org/dc/elements/1.1/" xmlns:rdf="http://www.w3.org/1999/02/22-rdf-syntax-ns#">
   <cc:Work>
    <dc:type rdf:resource="http://purl.org/dc/dcmitype/StillImage"/>
    <dc:date>2021-06-28T20:59:46.794930</dc:date>
    <dc:format>image/svg+xml</dc:format>
    <dc:creator>
     <cc:Agent>
      <dc:title>Matplotlib v3.3.3, https://matplotlib.org/</dc:title>
     </cc:Agent>
    </dc:creator>
   </cc:Work>
  </rdf:RDF>
 </metadata>
 <defs>
  <style type="text/css">*{stroke-linecap:butt;stroke-linejoin:round;}</style>
 </defs>
 <g id="figure_1">
  <g id="patch_1">
   <path d="M 0 345.6 
L 460.8 345.6 
L 460.8 0 
L 0 0 
z
" style="fill:#ffffff;"/>
  </g>
  <g id="axes_1">
   <g id="patch_2">
    <path d="M 57.6 307.584 
L 414.72 307.584 
L 414.72 41.472 
L 57.6 41.472 
z
" style="fill:#7d9051;"/>
   </g>
   <g id="matplotlib.axis_1">
    <g id="xtick_1">
     <g id="line2d_1">
      <defs>
       <path d="M 0 0 
L 0 3.5 
" id="m782705c0d4" style="stroke:#000000;stroke-width:0.8;"/>
      </defs>
      <g>
       <use style="stroke:#000000;stroke-width:0.8;" x="107.232789" xlink:href="#m782705c0d4" y="307.584"/>
      </g>
     </g>
     <g id="text_1">
      <!-- −100 -->
      <g transform="translate(93.499196 322.182437)scale(0.1 -0.1)">
       <defs>
        <path d="M 10.59375 35.5 
L 73.1875 35.5 
L 73.1875 27.203125 
L 10.59375 27.203125 
z
" id="DejaVuSans-8722"/>
        <path d="M 12.40625 8.296875 
L 28.515625 8.296875 
L 28.515625 63.921875 
L 10.984375 60.40625 
L 10.984375 69.390625 
L 28.421875 72.90625 
L 38.28125 72.90625 
L 38.28125 8.296875 
L 54.390625 8.296875 
L 54.390625 0 
L 12.40625 0 
z
" id="DejaVuSans-49"/>
        <path d="M 31.78125 66.40625 
Q 24.171875 66.40625 20.328125 58.90625 
Q 16.5 51.421875 16.5 36.375 
Q 16.5 21.390625 20.328125 13.890625 
Q 24.171875 6.390625 31.78125 6.390625 
Q 39.453125 6.390625 43.28125 13.890625 
Q 47.125 21.390625 47.125 36.375 
Q 47.125 51.421875 43.28125 58.90625 
Q 39.453125 66.40625 31.78125 66.40625 
z
M 31.78125 74.21875 
Q 44.046875 74.21875 50.515625 64.515625 
Q 56.984375 54.828125 56.984375 36.375 
Q 56.984375 17.96875 50.515625 8.265625 
Q 44.046875 -1.421875 31.78125 -1.421875 
Q 19.53125 -1.421875 13.0625 8.265625 
Q 6.59375 17.96875 6.59375 36.375 
Q 6.59375 54.828125 13.0625 64.515625 
Q 19.53125 74.21875 31.78125 74.21875 
z
" id="DejaVuSans-48"/>
       </defs>
       <use xlink:href="#DejaVuSans-8722"/>
       <use x="83.789062" xlink:href="#DejaVuSans-49"/>
       <use x="147.412109" xlink:href="#DejaVuSans-48"/>
       <use x="211.035156" xlink:href="#DejaVuSans-48"/>
      </g>
     </g>
    </g>
    <g id="xtick_2">
     <g id="line2d_2">
      <g>
       <use style="stroke:#000000;stroke-width:0.8;" x="173.377946" xlink:href="#m782705c0d4" y="307.584"/>
      </g>
     </g>
     <g id="text_2">
      <!-- −50 -->
      <g transform="translate(162.825602 322.182437)scale(0.1 -0.1)">
       <defs>
        <path d="M 10.796875 72.90625 
L 49.515625 72.90625 
L 49.515625 64.59375 
L 19.828125 64.59375 
L 19.828125 46.734375 
Q 21.96875 47.46875 24.109375 47.828125 
Q 26.265625 48.1875 28.421875 48.1875 
Q 40.625 48.1875 47.75 41.5 
Q 54.890625 34.8125 54.890625 23.390625 
Q 54.890625 11.625 47.5625 5.09375 
Q 40.234375 -1.421875 26.90625 -1.421875 
Q 22.3125 -1.421875 17.546875 -0.640625 
Q 12.796875 0.140625 7.71875 1.703125 
L 7.71875 11.625 
Q 12.109375 9.234375 16.796875 8.0625 
Q 21.484375 6.890625 26.703125 6.890625 
Q 35.15625 6.890625 40.078125 11.328125 
Q 45.015625 15.765625 45.015625 23.390625 
Q 45.015625 31 40.078125 35.4375 
Q 35.15625 39.890625 26.703125 39.890625 
Q 22.75 39.890625 18.8125 39.015625 
Q 14.890625 38.140625 10.796875 36.28125 
z
" id="DejaVuSans-53"/>
       </defs>
       <use xlink:href="#DejaVuSans-8722"/>
       <use x="83.789062" xlink:href="#DejaVuSans-53"/>
       <use x="147.412109" xlink:href="#DejaVuSans-48"/>
      </g>
     </g>
    </g>
    <g id="xtick_3">
     <g id="line2d_3">
      <g>
       <use style="stroke:#000000;stroke-width:0.8;" x="239.523103" xlink:href="#m782705c0d4" y="307.584"/>
      </g>
     </g>
     <g id="text_3">
      <!-- 0 -->
      <g transform="translate(236.341853 322.182437)scale(0.1 -0.1)">
       <use xlink:href="#DejaVuSans-48"/>
      </g>
     </g>
    </g>
    <g id="xtick_4">
     <g id="line2d_4">
      <g>
       <use style="stroke:#000000;stroke-width:0.8;" x="305.668259" xlink:href="#m782705c0d4" y="307.584"/>
      </g>
     </g>
     <g id="text_4">
      <!-- 50 -->
      <g transform="translate(299.305759 322.182437)scale(0.1 -0.1)">
       <use xlink:href="#DejaVuSans-53"/>
       <use x="63.623047" xlink:href="#DejaVuSans-48"/>
      </g>
     </g>
    </g>
    <g id="xtick_5">
     <g id="line2d_5">
      <g>
       <use style="stroke:#000000;stroke-width:0.8;" x="371.813416" xlink:href="#m782705c0d4" y="307.584"/>
      </g>
     </g>
     <g id="text_5">
      <!-- 100 -->
      <g transform="translate(362.269666 322.182437)scale(0.1 -0.1)">
       <use xlink:href="#DejaVuSans-49"/>
       <use x="63.623047" xlink:href="#DejaVuSans-48"/>
       <use x="127.246094" xlink:href="#DejaVuSans-48"/>
      </g>
     </g>
    </g>
   </g>
   <g id="matplotlib.axis_2">
    <g id="ytick_1">
     <g id="line2d_6">
      <defs>
       <path d="M 0 0 
L -3.5 0 
" id="mf7ea1262bf" style="stroke:#000000;stroke-width:0.8;"/>
      </defs>
      <g>
       <use style="stroke:#000000;stroke-width:0.8;" x="57.6" xlink:href="#mf7ea1262bf" y="295.43709"/>
      </g>
     </g>
     <g id="text_6">
      <!-- 0 -->
      <g transform="translate(44.2375 299.236308)scale(0.1 -0.1)">
       <use xlink:href="#DejaVuSans-48"/>
      </g>
     </g>
    </g>
    <g id="ytick_2">
     <g id="line2d_7">
      <g>
       <use style="stroke:#000000;stroke-width:0.8;" x="57.6" xlink:href="#mf7ea1262bf" y="262.364511"/>
      </g>
     </g>
     <g id="text_7">
      <!-- 25 -->
      <g transform="translate(37.875 266.16373)scale(0.1 -0.1)">
       <defs>
        <path d="M 19.1875 8.296875 
L 53.609375 8.296875 
L 53.609375 0 
L 7.328125 0 
L 7.328125 8.296875 
Q 12.9375 14.109375 22.625 23.890625 
Q 32.328125 33.6875 34.8125 36.53125 
Q 39.546875 41.84375 41.421875 45.53125 
Q 43.3125 49.21875 43.3125 52.78125 
Q 43.3125 58.59375 39.234375 62.25 
Q 35.15625 65.921875 28.609375 65.921875 
Q 23.96875 65.921875 18.8125 64.3125 
Q 13.671875 62.703125 7.8125 59.421875 
L 7.8125 69.390625 
Q 13.765625 71.78125 18.9375 73 
Q 24.125 74.21875 28.421875 74.21875 
Q 39.75 74.21875 46.484375 68.546875 
Q 53.21875 62.890625 53.21875 53.421875 
Q 53.21875 48.921875 51.53125 44.890625 
Q 49.859375 40.875 45.40625 35.40625 
Q 44.1875 33.984375 37.640625 27.21875 
Q 31.109375 20.453125 19.1875 8.296875 
z
" id="DejaVuSans-50"/>
       </defs>
       <use xlink:href="#DejaVuSans-50"/>
       <use x="63.623047" xlink:href="#DejaVuSans-53"/>
      </g>
     </g>
    </g>
    <g id="ytick_3">
     <g id="line2d_8">
      <g>
       <use style="stroke:#000000;stroke-width:0.8;" x="57.6" xlink:href="#mf7ea1262bf" y="229.291933"/>
      </g>
     </g>
     <g id="text_8">
      <!-- 50 -->
      <g transform="translate(37.875 233.091152)scale(0.1 -0.1)">
       <use xlink:href="#DejaVuSans-53"/>
       <use x="63.623047" xlink:href="#DejaVuSans-48"/>
      </g>
     </g>
    </g>
    <g id="ytick_4">
     <g id="line2d_9">
      <g>
       <use style="stroke:#000000;stroke-width:0.8;" x="57.6" xlink:href="#mf7ea1262bf" y="196.219355"/>
      </g>
     </g>
     <g id="text_9">
      <!-- 75 -->
      <g transform="translate(37.875 200.018573)scale(0.1 -0.1)">
       <defs>
        <path d="M 8.203125 72.90625 
L 55.078125 72.90625 
L 55.078125 68.703125 
L 28.609375 0 
L 18.3125 0 
L 43.21875 64.59375 
L 8.203125 64.59375 
z
" id="DejaVuSans-55"/>
       </defs>
       <use xlink:href="#DejaVuSans-55"/>
       <use x="63.623047" xlink:href="#DejaVuSans-53"/>
      </g>
     </g>
    </g>
    <g id="ytick_5">
     <g id="line2d_10">
      <g>
       <use style="stroke:#000000;stroke-width:0.8;" x="57.6" xlink:href="#mf7ea1262bf" y="163.146776"/>
      </g>
     </g>
     <g id="text_10">
      <!-- 100 -->
      <g transform="translate(31.5125 166.945995)scale(0.1 -0.1)">
       <use xlink:href="#DejaVuSans-49"/>
       <use x="63.623047" xlink:href="#DejaVuSans-48"/>
       <use x="127.246094" xlink:href="#DejaVuSans-48"/>
      </g>
     </g>
    </g>
    <g id="ytick_6">
     <g id="line2d_11">
      <g>
       <use style="stroke:#000000;stroke-width:0.8;" x="57.6" xlink:href="#mf7ea1262bf" y="130.074198"/>
      </g>
     </g>
     <g id="text_11">
      <!-- 125 -->
      <g transform="translate(31.5125 133.873417)scale(0.1 -0.1)">
       <use xlink:href="#DejaVuSans-49"/>
       <use x="63.623047" xlink:href="#DejaVuSans-50"/>
       <use x="127.246094" xlink:href="#DejaVuSans-53"/>
      </g>
     </g>
    </g>
    <g id="ytick_7">
     <g id="line2d_12">
      <g>
       <use style="stroke:#000000;stroke-width:0.8;" x="57.6" xlink:href="#mf7ea1262bf" y="97.00162"/>
      </g>
     </g>
     <g id="text_12">
      <!-- 150 -->
      <g transform="translate(31.5125 100.800838)scale(0.1 -0.1)">
       <use xlink:href="#DejaVuSans-49"/>
       <use x="63.623047" xlink:href="#DejaVuSans-53"/>
       <use x="127.246094" xlink:href="#DejaVuSans-48"/>
      </g>
     </g>
    </g>
    <g id="ytick_8">
     <g id="line2d_13">
      <g>
       <use style="stroke:#000000;stroke-width:0.8;" x="57.6" xlink:href="#mf7ea1262bf" y="63.929041"/>
      </g>
     </g>
     <g id="text_13">
      <!-- 175 -->
      <g transform="translate(31.5125 67.72826)scale(0.1 -0.1)">
       <use xlink:href="#DejaVuSans-49"/>
       <use x="63.623047" xlink:href="#DejaVuSans-55"/>
       <use x="127.246094" xlink:href="#DejaVuSans-53"/>
      </g>
     </g>
    </g>
   </g>
   <g id="line2d_14">
    <path clip-path="url(#p6b3819fbb9)" d="M 239.523103 295.43709 
L 239.792809 278.032823 
L 240.099861 258.875747 
L 239.861402 251.837645 
L 239.563329 243.040017 
L 239.643666 237.816531 
L 239.89521 234.37629 
L 240.355538 230.980427 
L 241.083003 227.641192 
L 242.162388 224.375834 
L 243.525917 221.170186 
L 245.91058 216.433463 
L 250.053224 208.57708 
L 251.511282 205.394269 
L 252.723005 202.160883 
L 253.599981 198.858538 
L 254.064982 195.467435 
L 254.167272 191.995832 
L 254.00817 188.467437 
L 253.501043 183.120224 
L 252.855655 176.013116 
L 252.774123 172.522555 
L 252.988458 169.1056 
L 253.238239 167.432134 
L 253.599981 165.78596 
L 254.657576 162.583381 
L 256.083816 159.484143 
L 257.790556 156.461756 
L 260.68378 152.014325 
L 265.659568 144.610923 
L 267.446599 141.575444 
L 268.985249 138.457876 
L 271.585336 131.808325 
L 274.281725 124.639873 
L 275.477713 120.998739 
L 276.458046 117.395873 
L 277.137086 113.888428 
L 277.429194 110.53356 
L 277.403386 108.931202 
L 277.248731 107.388422 
L 276.954524 105.912362 
L 276.510061 104.510168 
L 275.896187 103.18211 
L 275.110694 101.91993 
L 274.168293 100.717981 
L 273.083692 99.570618 
L 270.546736 97.417059 
L 267.617507 95.41408 
L 264.413688 93.516506 
L 252.736949 87.052869 
L 249.753783 85.070594 
L 245.587824 81.869308 
L 231.860319 70.841179 
L 228.997385 68.899313 
L 226.049638 67.14794 
L 222.997505 65.63102 
L 219.827938 64.377861 
L 216.553987 63.359155 
L 213.195222 62.530942 
L 208.040865 61.549635 
L 199.303478 60.243823 
L 192.357606 59.100264 
L 190.647642 58.754845 
L 190.647642 58.754845 
" style="fill:none;stroke:#fea952;stroke-linecap:square;"/>
   </g>
   <g id="line2d_15">
    <path clip-path="url(#p6b3819fbb9)" d="M 234.231735 295.386179 
L 234.502256 277.926916 
L 234.809489 258.99035 
L 234.574908 252.070328 
L 234.271744 243.057025 
L 234.361347 237.503058 
L 234.64016 233.755306 
L 235.158672 229.983556 
L 236.019904 226.10295 
L 237.257826 222.389269 
L 238.754616 218.88199 
L 241.24695 213.933121 
L 245.274405 206.304627 
L 246.596555 203.43299 
L 247.649009 200.658975 
L 248.382138 197.97804 
L 248.780563 195.191618 
L 248.87808 192.155868 
L 248.734284 188.900215 
L 248.239144 183.680203 
L 247.696289 178.137597 
L 247.492715 174.290921 
L 247.567026 170.336206 
L 247.754823 168.324431 
L 248.069941 166.296414 
L 248.525055 164.287198 
L 249.107594 162.352325 
L 250.578182 158.694367 
L 252.344838 155.285061 
L 254.291951 152.07634 
L 258.332505 146.08948 
L 261.14008 141.85858 
L 262.75367 139.130536 
L 264.082224 136.467522 
L 266.654411 129.888131 
L 269.271933 122.93601 
L 270.393722 119.531019 
L 271.285949 116.277583 
L 271.881633 113.270871 
L 272.138267 110.618775 
L 272.0592 108.422795 
L 271.706763 106.730415 
L 271.403526 105.978028 
L 270.946461 105.184945 
L 270.32286 104.353062 
L 268.575036 102.611493 
L 266.22672 100.827672 
L 263.400981 99.040046 
L 258.558013 96.345683 
L 251.619732 92.548427 
L 248.192646 90.426505 
L 245.123964 88.223247 
L 240.852864 84.841391 
L 230.141324 76.140283 
L 226.21843 73.402486 
L 223.597649 71.837174 
L 220.951012 70.51088 
L 218.170747 69.403284 
L 215.219653 68.479772 
L 212.112523 67.710606 
L 207.201363 66.77423 
L 198.521327 65.477312 
L 191.309844 64.287109 
L 189.59988 63.94169 
L 189.59988 63.94169 
" style="fill:none;stroke:#ffffff;stroke-linecap:square;"/>
   </g>
   <g id="line2d_16">
    <path clip-path="url(#p6b3819fbb9)" d="M 244.81447 295.488 
L 245.083361 278.13873 
L 245.390232 258.761145 
L 245.147897 251.604962 
L 244.854914 243.023009 
L 244.925986 238.130003 
L 245.150259 234.997274 
L 245.552403 231.977298 
L 246.146103 229.179435 
L 247.066949 226.362398 
L 248.297219 223.458382 
L 250.574211 218.933806 
L 254.832044 210.849533 
L 256.426009 207.355549 
L 257.797001 203.66279 
L 258.359595 201.732374 
L 258.817824 199.739037 
L 259.146325 197.731943 
L 259.446618 193.777035 
L 259.396228 189.921206 
L 258.951539 184.352068 
L 258.142882 175.797715 
L 258.06209 172.718956 
L 258.222093 169.886769 
L 258.674907 167.284722 
L 259.517268 164.677314 
L 260.735474 162.00669 
L 262.278709 159.264905 
L 265.04892 155.005431 
L 270.179055 147.363266 
L 272.139529 144.020351 
L 273.888274 140.44823 
L 276.516261 133.728519 
L 279.291516 126.343736 
L 280.561704 122.466459 
L 281.630144 118.514163 
L 282.392539 114.505986 
L 282.620253 112.483156 
L 282.72012 110.448345 
L 282.66861 108.403394 
L 282.438263 106.354049 
L 281.998791 104.313444 
L 281.313358 102.289921 
L 280.388848 100.386191 
L 279.274927 98.654914 
L 278.013725 97.082901 
L 276.637059 95.649553 
L 275.168171 94.332893 
L 272.020881 91.971469 
L 268.684152 89.869835 
L 263.547907 87.012644 
L 257.043275 83.460532 
L 254.219631 81.727074 
L 251.58183 79.838701 
L 247.584623 76.675114 
L 237.863547 68.719386 
L 234.887759 66.501158 
L 231.77634 64.396139 
L 228.501626 62.458706 
L 225.043998 60.751161 
L 221.48513 59.352438 
L 217.88832 58.238538 
L 214.277921 57.351277 
L 208.880367 56.325039 
L 200.085628 55.010334 
L 193.405367 53.913419 
L 191.695403 53.568 
L 191.695403 53.568 
" style="fill:none;stroke:#ffffff;stroke-linecap:square;"/>
   </g>
   <g id="patch_3">
    <path d="M 57.6 307.584 
L 57.6 41.472 
" style="fill:none;stroke:#000000;stroke-linecap:square;stroke-linejoin:miter;stroke-width:0.8;"/>
   </g>
   <g id="patch_4">
    <path d="M 414.72 307.584 
L 414.72 41.472 
" style="fill:none;stroke:#000000;stroke-linecap:square;stroke-linejoin:miter;stroke-width:0.8;"/>
   </g>
   <g id="patch_5">
    <path d="M 57.6 307.584 
L 414.72 307.584 
" style="fill:none;stroke:#000000;stroke-linecap:square;stroke-linejoin:miter;stroke-width:0.8;"/>
   </g>
   <g id="patch_6">
    <path d="M 57.6 41.472 
L 414.72 41.472 
" style="fill:none;stroke:#000000;stroke-linecap:square;stroke-linejoin:miter;stroke-width:0.8;"/>
   </g>
  </g>
 </g>
 <defs>
  <clipPath id="p6b3819fbb9">
   <rect height="266.112" width="357.12" x="57.6" y="41.472"/>
  </clipPath>
 </defs>
</svg>
