<?xml version="1.0" encoding="utf-8" standalone="no"?>
<!DOCTYPE svg PUBLIC "-//W3C//DTD SVG 1.1//EN"
  "http://www.w3.org/Graphics/SVG/1.1/DTD/svg11.dtd">
<!-- Created with matplotlib (https://matplotlib.org/) -->
<svg height="345.6pt" version="1.1" viewBox="0 0 460.8 345.6" width="460.8pt" xmlns="http://www.w3.org/2000/svg" xmlns:xlink="http://www.w3.org/1999/xlink">
 <metadata>
  <rdf:RDF xmlns:cc="http://creativecommons.org/ns#" xmlns:dc="http://purl.org/dc/elements/1.1/" xmlns:rdf="http://www.w3.org/1999/02/22-rdf-syntax-ns#">
   <cc:Work>
    <dc:type rdf:resource="http://purl.org/dc/dcmitype/StillImage"/>
    <dc:date>2021-06-17T14:30:07.508950</dc:date>
    <dc:format>image/svg+xml</dc:format>
    <dc:creator>
     <cc:Agent>
      <dc:title>Matplotlib v3.3.3, https://matplotlib.org/</dc:title>
     </cc:Agent>
    </dc:creator>
   </cc:Work>
  </rdf:RDF>
 </metadata>
 <defs>
  <style type="text/css">*{stroke-linecap:butt;stroke-linejoin:round;}</style>
 </defs>
 <g id="figure_1">
  <g id="patch_1">
   <path d="M 0 345.6 
L 460.8 345.6 
L 460.8 0 
L 0 0 
z
" style="fill:#ffffff;"/>
  </g>
  <g id="axes_1">
   <g id="patch_2">
    <path d="M 57.6 307.584 
L 414.72 307.584 
L 414.72 41.472 
L 57.6 41.472 
z
" style="fill:#7d9051;"/>
   </g>
   <g id="matplotlib.axis_1">
    <g id="xtick_1">
     <g id="line2d_1">
      <defs>
       <path d="M 0 0 
L 0 3.5 
" id="m82f32b6ddc" style="stroke:#000000;stroke-width:0.8;"/>
      </defs>
      <g>
       <use style="stroke:#000000;stroke-width:0.8;" x="84.612507" xlink:href="#m82f32b6ddc" y="307.584"/>
      </g>
     </g>
     <g id="text_1">
      <!-- 0 -->
      <g transform="translate(81.431257 322.182437)scale(0.1 -0.1)">
       <defs>
        <path d="M 31.78125 66.40625 
Q 24.171875 66.40625 20.328125 58.90625 
Q 16.5 51.421875 16.5 36.375 
Q 16.5 21.390625 20.328125 13.890625 
Q 24.171875 6.390625 31.78125 6.390625 
Q 39.453125 6.390625 43.28125 13.890625 
Q 47.125 21.390625 47.125 36.375 
Q 47.125 51.421875 43.28125 58.90625 
Q 39.453125 66.40625 31.78125 66.40625 
z
M 31.78125 74.21875 
Q 44.046875 74.21875 50.515625 64.515625 
Q 56.984375 54.828125 56.984375 36.375 
Q 56.984375 17.96875 50.515625 8.265625 
Q 44.046875 -1.421875 31.78125 -1.421875 
Q 19.53125 -1.421875 13.0625 8.265625 
Q 6.59375 17.96875 6.59375 36.375 
Q 6.59375 54.828125 13.0625 64.515625 
Q 19.53125 74.21875 31.78125 74.21875 
z
" id="DejaVuSans-48"/>
       </defs>
       <use xlink:href="#DejaVuSans-48"/>
      </g>
     </g>
    </g>
    <g id="xtick_2">
     <g id="line2d_2">
      <g>
       <use style="stroke:#000000;stroke-width:0.8;" x="131.488251" xlink:href="#m82f32b6ddc" y="307.584"/>
      </g>
     </g>
     <g id="text_2">
      <!-- 20 -->
      <g transform="translate(125.125751 322.182437)scale(0.1 -0.1)">
       <defs>
        <path d="M 19.1875 8.296875 
L 53.609375 8.296875 
L 53.609375 0 
L 7.328125 0 
L 7.328125 8.296875 
Q 12.9375 14.109375 22.625 23.890625 
Q 32.328125 33.6875 34.8125 36.53125 
Q 39.546875 41.84375 41.421875 45.53125 
Q 43.3125 49.21875 43.3125 52.78125 
Q 43.3125 58.59375 39.234375 62.25 
Q 35.15625 65.921875 28.609375 65.921875 
Q 23.96875 65.921875 18.8125 64.3125 
Q 13.671875 62.703125 7.8125 59.421875 
L 7.8125 69.390625 
Q 13.765625 71.78125 18.9375 73 
Q 24.125 74.21875 28.421875 74.21875 
Q 39.75 74.21875 46.484375 68.546875 
Q 53.21875 62.890625 53.21875 53.421875 
Q 53.21875 48.921875 51.53125 44.890625 
Q 49.859375 40.875 45.40625 35.40625 
Q 44.1875 33.984375 37.640625 27.21875 
Q 31.109375 20.453125 19.1875 8.296875 
z
" id="DejaVuSans-50"/>
       </defs>
       <use xlink:href="#DejaVuSans-50"/>
       <use x="63.623047" xlink:href="#DejaVuSans-48"/>
      </g>
     </g>
    </g>
    <g id="xtick_3">
     <g id="line2d_3">
      <g>
       <use style="stroke:#000000;stroke-width:0.8;" x="178.363994" xlink:href="#m82f32b6ddc" y="307.584"/>
      </g>
     </g>
     <g id="text_3">
      <!-- 40 -->
      <g transform="translate(172.001494 322.182437)scale(0.1 -0.1)">
       <defs>
        <path d="M 37.796875 64.3125 
L 12.890625 25.390625 
L 37.796875 25.390625 
z
M 35.203125 72.90625 
L 47.609375 72.90625 
L 47.609375 25.390625 
L 58.015625 25.390625 
L 58.015625 17.1875 
L 47.609375 17.1875 
L 47.609375 0 
L 37.796875 0 
L 37.796875 17.1875 
L 4.890625 17.1875 
L 4.890625 26.703125 
z
" id="DejaVuSans-52"/>
       </defs>
       <use xlink:href="#DejaVuSans-52"/>
       <use x="63.623047" xlink:href="#DejaVuSans-48"/>
      </g>
     </g>
    </g>
    <g id="xtick_4">
     <g id="line2d_4">
      <g>
       <use style="stroke:#000000;stroke-width:0.8;" x="225.239737" xlink:href="#m82f32b6ddc" y="307.584"/>
      </g>
     </g>
     <g id="text_4">
      <!-- 60 -->
      <g transform="translate(218.877237 322.182437)scale(0.1 -0.1)">
       <defs>
        <path d="M 33.015625 40.375 
Q 26.375 40.375 22.484375 35.828125 
Q 18.609375 31.296875 18.609375 23.390625 
Q 18.609375 15.53125 22.484375 10.953125 
Q 26.375 6.390625 33.015625 6.390625 
Q 39.65625 6.390625 43.53125 10.953125 
Q 47.40625 15.53125 47.40625 23.390625 
Q 47.40625 31.296875 43.53125 35.828125 
Q 39.65625 40.375 33.015625 40.375 
z
M 52.59375 71.296875 
L 52.59375 62.3125 
Q 48.875 64.0625 45.09375 64.984375 
Q 41.3125 65.921875 37.59375 65.921875 
Q 27.828125 65.921875 22.671875 59.328125 
Q 17.53125 52.734375 16.796875 39.40625 
Q 19.671875 43.65625 24.015625 45.921875 
Q 28.375 48.1875 33.59375 48.1875 
Q 44.578125 48.1875 50.953125 41.515625 
Q 57.328125 34.859375 57.328125 23.390625 
Q 57.328125 12.15625 50.6875 5.359375 
Q 44.046875 -1.421875 33.015625 -1.421875 
Q 20.359375 -1.421875 13.671875 8.265625 
Q 6.984375 17.96875 6.984375 36.375 
Q 6.984375 53.65625 15.1875 63.9375 
Q 23.390625 74.21875 37.203125 74.21875 
Q 40.921875 74.21875 44.703125 73.484375 
Q 48.484375 72.75 52.59375 71.296875 
z
" id="DejaVuSans-54"/>
       </defs>
       <use xlink:href="#DejaVuSans-54"/>
       <use x="63.623047" xlink:href="#DejaVuSans-48"/>
      </g>
     </g>
    </g>
    <g id="xtick_5">
     <g id="line2d_5">
      <g>
       <use style="stroke:#000000;stroke-width:0.8;" x="272.115481" xlink:href="#m82f32b6ddc" y="307.584"/>
      </g>
     </g>
     <g id="text_5">
      <!-- 80 -->
      <g transform="translate(265.752981 322.182437)scale(0.1 -0.1)">
       <defs>
        <path d="M 31.78125 34.625 
Q 24.75 34.625 20.71875 30.859375 
Q 16.703125 27.09375 16.703125 20.515625 
Q 16.703125 13.921875 20.71875 10.15625 
Q 24.75 6.390625 31.78125 6.390625 
Q 38.8125 6.390625 42.859375 10.171875 
Q 46.921875 13.96875 46.921875 20.515625 
Q 46.921875 27.09375 42.890625 30.859375 
Q 38.875 34.625 31.78125 34.625 
z
M 21.921875 38.8125 
Q 15.578125 40.375 12.03125 44.71875 
Q 8.5 49.078125 8.5 55.328125 
Q 8.5 64.0625 14.71875 69.140625 
Q 20.953125 74.21875 31.78125 74.21875 
Q 42.671875 74.21875 48.875 69.140625 
Q 55.078125 64.0625 55.078125 55.328125 
Q 55.078125 49.078125 51.53125 44.71875 
Q 48 40.375 41.703125 38.8125 
Q 48.828125 37.15625 52.796875 32.3125 
Q 56.78125 27.484375 56.78125 20.515625 
Q 56.78125 9.90625 50.3125 4.234375 
Q 43.84375 -1.421875 31.78125 -1.421875 
Q 19.734375 -1.421875 13.25 4.234375 
Q 6.78125 9.90625 6.78125 20.515625 
Q 6.78125 27.484375 10.78125 32.3125 
Q 14.796875 37.15625 21.921875 38.8125 
z
M 18.3125 54.390625 
Q 18.3125 48.734375 21.84375 45.5625 
Q 25.390625 42.390625 31.78125 42.390625 
Q 38.140625 42.390625 41.71875 45.5625 
Q 45.3125 48.734375 45.3125 54.390625 
Q 45.3125 60.0625 41.71875 63.234375 
Q 38.140625 66.40625 31.78125 66.40625 
Q 25.390625 66.40625 21.84375 63.234375 
Q 18.3125 60.0625 18.3125 54.390625 
z
" id="DejaVuSans-56"/>
       </defs>
       <use xlink:href="#DejaVuSans-56"/>
       <use x="63.623047" xlink:href="#DejaVuSans-48"/>
      </g>
     </g>
    </g>
    <g id="xtick_6">
     <g id="line2d_6">
      <g>
       <use style="stroke:#000000;stroke-width:0.8;" x="318.991224" xlink:href="#m82f32b6ddc" y="307.584"/>
      </g>
     </g>
     <g id="text_6">
      <!-- 100 -->
      <g transform="translate(309.447474 322.182437)scale(0.1 -0.1)">
       <defs>
        <path d="M 12.40625 8.296875 
L 28.515625 8.296875 
L 28.515625 63.921875 
L 10.984375 60.40625 
L 10.984375 69.390625 
L 28.421875 72.90625 
L 38.28125 72.90625 
L 38.28125 8.296875 
L 54.390625 8.296875 
L 54.390625 0 
L 12.40625 0 
z
" id="DejaVuSans-49"/>
       </defs>
       <use xlink:href="#DejaVuSans-49"/>
       <use x="63.623047" xlink:href="#DejaVuSans-48"/>
       <use x="127.246094" xlink:href="#DejaVuSans-48"/>
      </g>
     </g>
    </g>
    <g id="xtick_7">
     <g id="line2d_7">
      <g>
       <use style="stroke:#000000;stroke-width:0.8;" x="365.866967" xlink:href="#m82f32b6ddc" y="307.584"/>
      </g>
     </g>
     <g id="text_7">
      <!-- 120 -->
      <g transform="translate(356.323217 322.182437)scale(0.1 -0.1)">
       <use xlink:href="#DejaVuSans-49"/>
       <use x="63.623047" xlink:href="#DejaVuSans-50"/>
       <use x="127.246094" xlink:href="#DejaVuSans-48"/>
      </g>
     </g>
    </g>
    <g id="xtick_8">
     <g id="line2d_8">
      <g>
       <use style="stroke:#000000;stroke-width:0.8;" x="412.742711" xlink:href="#m82f32b6ddc" y="307.584"/>
      </g>
     </g>
     <g id="text_8">
      <!-- 140 -->
      <g transform="translate(403.198961 322.182437)scale(0.1 -0.1)">
       <use xlink:href="#DejaVuSans-49"/>
       <use x="63.623047" xlink:href="#DejaVuSans-52"/>
       <use x="127.246094" xlink:href="#DejaVuSans-48"/>
      </g>
     </g>
    </g>
   </g>
   <g id="matplotlib.axis_2">
    <g id="ytick_1">
     <g id="line2d_9">
      <defs>
       <path d="M 0 0 
L -3.5 0 
" id="m820651bf6e" style="stroke:#000000;stroke-width:0.8;"/>
      </defs>
      <g>
       <use style="stroke:#000000;stroke-width:0.8;" x="57.6" xlink:href="#m820651bf6e" y="307.087283"/>
      </g>
     </g>
     <g id="text_9">
      <!-- −20 -->
      <g transform="translate(29.495313 310.886502)scale(0.1 -0.1)">
       <defs>
        <path d="M 10.59375 35.5 
L 73.1875 35.5 
L 73.1875 27.203125 
L 10.59375 27.203125 
z
" id="DejaVuSans-8722"/>
       </defs>
       <use xlink:href="#DejaVuSans-8722"/>
       <use x="83.789062" xlink:href="#DejaVuSans-50"/>
       <use x="147.412109" xlink:href="#DejaVuSans-48"/>
      </g>
     </g>
    </g>
    <g id="ytick_2">
     <g id="line2d_10">
      <g>
       <use style="stroke:#000000;stroke-width:0.8;" x="57.6" xlink:href="#m820651bf6e" y="260.21154"/>
      </g>
     </g>
     <g id="text_10">
      <!-- 0 -->
      <g transform="translate(44.2375 264.010758)scale(0.1 -0.1)">
       <use xlink:href="#DejaVuSans-48"/>
      </g>
     </g>
    </g>
    <g id="ytick_3">
     <g id="line2d_11">
      <g>
       <use style="stroke:#000000;stroke-width:0.8;" x="57.6" xlink:href="#m820651bf6e" y="213.335796"/>
      </g>
     </g>
     <g id="text_11">
      <!-- 20 -->
      <g transform="translate(37.875 217.135015)scale(0.1 -0.1)">
       <use xlink:href="#DejaVuSans-50"/>
       <use x="63.623047" xlink:href="#DejaVuSans-48"/>
      </g>
     </g>
    </g>
    <g id="ytick_4">
     <g id="line2d_12">
      <g>
       <use style="stroke:#000000;stroke-width:0.8;" x="57.6" xlink:href="#m820651bf6e" y="166.460053"/>
      </g>
     </g>
     <g id="text_12">
      <!-- 40 -->
      <g transform="translate(37.875 170.259272)scale(0.1 -0.1)">
       <use xlink:href="#DejaVuSans-52"/>
       <use x="63.623047" xlink:href="#DejaVuSans-48"/>
      </g>
     </g>
    </g>
    <g id="ytick_5">
     <g id="line2d_13">
      <g>
       <use style="stroke:#000000;stroke-width:0.8;" x="57.6" xlink:href="#m820651bf6e" y="119.58431"/>
      </g>
     </g>
     <g id="text_13">
      <!-- 60 -->
      <g transform="translate(37.875 123.383528)scale(0.1 -0.1)">
       <use xlink:href="#DejaVuSans-54"/>
       <use x="63.623047" xlink:href="#DejaVuSans-48"/>
      </g>
     </g>
    </g>
    <g id="ytick_6">
     <g id="line2d_14">
      <g>
       <use style="stroke:#000000;stroke-width:0.8;" x="57.6" xlink:href="#m820651bf6e" y="72.708566"/>
      </g>
     </g>
     <g id="text_14">
      <!-- 80 -->
      <g transform="translate(37.875 76.507785)scale(0.1 -0.1)">
       <use xlink:href="#DejaVuSans-56"/>
       <use x="63.623047" xlink:href="#DejaVuSans-48"/>
      </g>
     </g>
    </g>
   </g>
   <g id="line2d_15">
    <path clip-path="url(#p6d42ab8712)" d="M 84.612507 260.21154 
L 84.914119 238.626658 
L 85.634059 198.517886 
L 85.357487 192.1799 
L 84.530967 182.489639 
L 83.64956 172.774939 
L 83.275409 166.393508 
L 83.242783 160.164135 
L 83.400283 157.126834 
L 83.698052 154.151985 
L 84.154386 151.247735 
L 84.787582 148.422228 
L 85.615936 145.683611 
L 86.657744 143.04003 
L 87.904594 140.447163 
L 89.328262 137.860883 
L 90.91732 135.28963 
L 92.660343 132.74184 
L 94.545902 130.225952 
L 96.562572 127.750405 
L 98.698926 125.323635 
L 100.943536 122.954082 
L 103.284977 120.650183 
L 108.212644 116.2731 
L 113.390511 112.259891 
L 116.044703 110.410834 
L 118.727165 108.67806 
L 121.42647 107.070007 
L 124.131192 105.595113 
L 126.829904 104.261816 
L 129.511179 103.078555 
L 132.222288 102.070025 
L 135.013539 101.245434 
L 137.878062 100.589988 
L 140.808989 100.088891 
L 143.79945 99.727349 
L 146.842576 99.490565 
L 153.059344 99.332093 
L 159.40434 99.495115 
L 169.042046 100.083532 
L 181.828208 100.88861 
L 188.070164 101.03363 
L 194.454277 100.804873 
L 201.174875 100.236915 
L 218.42933 98.49766 
L 225.104632 98.140073 
L 228.316101 98.122468 
L 231.417565 98.2419 
L 234.389613 98.520552 
L 237.21283 98.980609 
L 239.867805 99.644253 
L 242.335125 100.53367 
L 244.595377 101.671043 
L 246.629149 103.078555 
L 248.414546 104.779184 
L 249.957547 106.764512 
L 251.280548 109.009625 
L 252.405946 111.489608 
L 253.356139 114.17955 
L 254.153522 117.054535 
L 254.820494 120.089651 
L 255.852789 126.540621 
L 256.632198 133.333152 
L 257.719098 143.726388 
L 258.650185 150.500848 
L 259.244865 153.767028 
L 259.9555 156.91929 
L 263.354686 169.382041 
L 268.147116 189.875913 
L 270.034344 196.362194 
L 271.090736 199.415207 
L 272.239631 202.304301 
L 273.494018 205.001602 
L 274.866885 207.479233 
L 276.371223 209.709321 
L 278.020019 211.663989 
L 279.826261 213.315363 
L 281.80294 214.635567 
L 283.966441 215.583162 
L 286.314116 216.158954 
L 288.830399 216.398436 
L 291.499728 216.337104 
L 294.306536 216.01045 
L 297.23526 215.453969 
L 300.270334 214.703155 
L 306.597276 212.760501 
L 326.511803 205.959912 
L 329.803627 205.057324 
L 333.046156 204.315343 
L 336.223825 203.769462 
L 339.32107 203.455175 
L 345.43456 203.242126 
L 351.565477 203.313997 
L 357.710554 203.617366 
L 366.947568 204.389617 
L 382.367099 206.077373 
L 391.61555 207.036603 
L 397.773015 207.542533 
L 397.773015 207.542533 
" style="fill:none;stroke:#fea952;stroke-linecap:square;"/>
   </g>
   <g id="line2d_16">
    <path clip-path="url(#p6d42ab8712)" d="M 75.237793 260.121342 
L 75.540561 238.453976 
L 76.263501 198.811208 
L 76.008137 192.874934 
L 75.198845 183.386805 
L 74.296535 173.41863 
L 73.90247 166.597086 
L 73.832727 163.148018 
L 73.880214 159.678638 
L 74.071749 156.19309 
L 74.436533 152.696756 
L 75.00614 149.197612 
L 75.813946 145.707958 
L 76.893666 142.246256 
L 78.208724 138.977089 
L 79.691569 135.926143 
L 81.353196 132.932219 
L 83.179656 129.996053 
L 85.158283 127.11934 
L 87.277322 124.304706 
L 89.525667 121.555619 
L 91.892683 118.876274 
L 94.368095 116.271494 
L 96.941926 113.746625 
L 99.604467 111.307456 
L 102.34628 108.960153 
L 105.158223 106.711206 
L 108.031498 104.567401 
L 110.95772 102.535809 
L 113.929012 100.623798 
L 116.938119 98.839083 
L 119.978559 97.189814 
L 123.04479 95.684735 
L 126.242474 94.291691 
L 129.566164 93.079006 
L 132.922407 92.106475 
L 136.29813 91.348926 
L 139.68374 90.781516 
L 143.072173 90.380452 
L 146.457989 90.123308 
L 153.20388 89.958059 
L 159.886834 90.13239 
L 169.706715 90.731975 
L 182.145477 91.518831 
L 187.888425 91.660243 
L 193.744521 91.456629 
L 200.209992 90.911551 
L 217.805027 89.143321 
L 225.053238 88.765066 
L 228.676853 88.754263 
L 232.29272 88.907687 
L 235.897449 89.267453 
L 239.486319 89.885299 
L 243.047089 90.824641 
L 246.549284 92.15905 
L 249.930564 93.96201 
L 253.09527 96.290131 
L 255.816906 99.026056 
L 258.034616 102.004852 
L 259.817788 105.135488 
L 261.245794 108.367028 
L 262.390253 111.673918 
L 263.310187 115.042343 
L 264.053242 118.46184 
L 265.159116 125.406738 
L 265.959569 132.387865 
L 267.421358 145.760772 
L 268.390497 151.705271 
L 268.979357 154.376966 
L 271.648145 163.860827 
L 273.283372 170.677135 
L 276.377606 184.193114 
L 278.021484 190.427265 
L 279.802336 195.950898 
L 280.740482 198.350957 
L 281.694417 200.45772 
L 282.639035 202.236419 
L 284.34598 204.744767 
L 285.564218 206.048006 
L 286.199609 206.477868 
L 287.202364 206.825978 
L 288.615046 207.025761 
L 290.415971 207.024806 
L 292.556493 206.800088 
L 294.983907 206.353155 
L 297.650748 205.701422 
L 303.549674 203.894525 
L 324.032726 196.918474 
L 327.712384 195.91839 
L 331.458881 195.07554 
L 335.27736 194.442211 
L 338.875039 194.090643 
L 345.445759 193.866984 
L 351.950073 193.94674 
L 358.384639 194.266483 
L 367.901509 195.063128 
L 383.38717 196.757884 
L 392.43663 197.697479 
L 398.487273 198.194633 
L 398.487273 198.194633 
" style="fill:none;stroke:#ffffff;stroke-linecap:square;"/>
   </g>
   <g id="line2d_17">
    <path clip-path="url(#p6d42ab8712)" d="M 93.987222 260.301737 
L 94.287678 238.79934 
L 95.004618 198.224564 
L 94.706837 191.484867 
L 93.86309 181.592472 
L 93.002585 172.131247 
L 92.648347 166.18993 
L 92.605352 160.649632 
L 92.728816 158.060579 
L 92.95957 155.607215 
L 93.302632 153.297857 
L 93.761219 151.136498 
L 94.338207 149.120966 
L 95.106763 147.10297 
L 96.11762 144.968183 
L 97.303328 142.789548 
L 98.654985 140.583207 
L 100.162403 138.364341 
L 101.814482 136.147199 
L 103.599478 133.945191 
L 107.518978 129.63667 
L 111.819177 125.533296 
L 116.393808 121.722378 
L 121.131685 118.285859 
L 125.914821 115.300932 
L 130.615018 112.838898 
L 132.779885 111.865418 
L 134.878412 111.061043 
L 137.10467 110.384394 
L 139.457995 109.83105 
L 141.934238 109.396266 
L 144.526726 109.074245 
L 150.026362 108.738413 
L 155.883029 108.749933 
L 162.022532 109.017063 
L 184.850512 110.369328 
L 191.694977 110.335363 
L 198.649739 109.887127 
L 209.070684 108.829528 
L 219.053634 107.851999 
L 225.156026 107.515081 
L 230.542411 107.576112 
L 232.881776 107.773651 
L 234.939341 108.075918 
L 236.68852 108.463866 
L 238.120965 108.908291 
L 240.163028 109.866978 
L 241.012187 110.532313 
L 241.880477 111.524172 
L 242.743307 112.883762 
L 243.566099 114.612188 
L 244.322024 116.685181 
L 244.996858 119.066726 
L 245.587746 121.717462 
L 246.546462 127.674504 
L 247.304827 134.278439 
L 248.417203 144.896073 
L 249.426671 152.180193 
L 250.099234 155.828785 
L 250.931643 159.461615 
L 254.224635 171.511731 
L 259.110085 192.371003 
L 261.174582 199.427814 
L 262.379135 202.879515 
L 263.738779 206.257646 
L 265.293618 209.545483 
L 267.094736 212.722048 
L 269.205053 215.754106 
L 271.694057 218.583211 
L 274.619262 221.111553 
L 278.041662 223.223128 
L 281.733272 224.688455 
L 285.425867 225.491929 
L 289.045753 225.771111 
L 292.583484 225.649401 
L 296.056579 225.220812 
L 299.486612 224.554783 
L 302.88992 223.704887 
L 309.644879 221.626477 
L 328.99088 215.001349 
L 331.894871 214.196258 
L 334.633431 213.555147 
L 337.170291 213.096713 
L 339.767101 212.819708 
L 345.423361 212.617268 
L 351.180882 212.681254 
L 357.036468 212.96825 
L 365.993628 213.716107 
L 381.347028 215.396861 
L 390.79447 216.375727 
L 397.058758 216.890434 
L 397.058758 216.890434 
" style="fill:none;stroke:#ffffff;stroke-linecap:square;"/>
   </g>
   <g id="patch_3">
    <path d="M 57.6 307.584 
L 57.6 41.472 
" style="fill:none;stroke:#000000;stroke-linecap:square;stroke-linejoin:miter;stroke-width:0.8;"/>
   </g>
   <g id="patch_4">
    <path d="M 414.72 307.584 
L 414.72 41.472 
" style="fill:none;stroke:#000000;stroke-linecap:square;stroke-linejoin:miter;stroke-width:0.8;"/>
   </g>
   <g id="patch_5">
    <path d="M 57.6 307.584 
L 414.72 307.584 
" style="fill:none;stroke:#000000;stroke-linecap:square;stroke-linejoin:miter;stroke-width:0.8;"/>
   </g>
   <g id="patch_6">
    <path d="M 57.6 41.472 
L 414.72 41.472 
" style="fill:none;stroke:#000000;stroke-linecap:square;stroke-linejoin:miter;stroke-width:0.8;"/>
   </g>
  </g>
 </g>
 <defs>
  <clipPath id="p6d42ab8712">
   <rect height="266.112" width="357.12" x="57.6" y="41.472"/>
  </clipPath>
 </defs>
</svg>
