<?xml version="1.0" encoding="utf-8" standalone="no"?>
<!DOCTYPE svg PUBLIC "-//W3C//DTD SVG 1.1//EN"
  "http://www.w3.org/Graphics/SVG/1.1/DTD/svg11.dtd">
<!-- Created with matplotlib (https://matplotlib.org/) -->
<svg height="345.6pt" version="1.1" viewBox="0 0 460.8 345.6" width="460.8pt" xmlns="http://www.w3.org/2000/svg" xmlns:xlink="http://www.w3.org/1999/xlink">
 <metadata>
  <rdf:RDF xmlns:cc="http://creativecommons.org/ns#" xmlns:dc="http://purl.org/dc/elements/1.1/" xmlns:rdf="http://www.w3.org/1999/02/22-rdf-syntax-ns#">
   <cc:Work>
    <dc:type rdf:resource="http://purl.org/dc/dcmitype/StillImage"/>
    <dc:date>2021-05-26T12:27:18.363942</dc:date>
    <dc:format>image/svg+xml</dc:format>
    <dc:creator>
     <cc:Agent>
      <dc:title>Matplotlib v3.3.3, https://matplotlib.org/</dc:title>
     </cc:Agent>
    </dc:creator>
   </cc:Work>
  </rdf:RDF>
 </metadata>
 <defs>
  <style type="text/css">*{stroke-linecap:butt;stroke-linejoin:round;}</style>
 </defs>
 <g id="figure_1">
  <g id="patch_1">
   <path d="M 0 345.6 
L 460.8 345.6 
L 460.8 0 
L 0 0 
z
" style="fill:#ffffff;"/>
  </g>
  <g id="axes_1">
   <g id="patch_2">
    <path d="M 57.6 307.584 
L 414.72 307.584 
L 414.72 41.472 
L 57.6 41.472 
z
" style="fill:#7d9051;"/>
   </g>
   <g id="matplotlib.axis_1">
    <g id="xtick_1">
     <g id="line2d_1">
      <defs>
       <path d="M 0 0 
L 0 3.5 
" id="mf4edddddb6" style="stroke:#000000;stroke-width:0.8;"/>
      </defs>
      <g>
       <use style="stroke:#000000;stroke-width:0.8;" x="86.399353" xlink:href="#mf4edddddb6" y="307.584"/>
      </g>
     </g>
     <g id="text_1">
      <!-- −60 -->
      <g transform="translate(75.847009 322.182437)scale(0.1 -0.1)">
       <defs>
        <path d="M 10.59375 35.5 
L 73.1875 35.5 
L 73.1875 27.203125 
L 10.59375 27.203125 
z
" id="DejaVuSans-8722"/>
        <path d="M 33.015625 40.375 
Q 26.375 40.375 22.484375 35.828125 
Q 18.609375 31.296875 18.609375 23.390625 
Q 18.609375 15.53125 22.484375 10.953125 
Q 26.375 6.390625 33.015625 6.390625 
Q 39.65625 6.390625 43.53125 10.953125 
Q 47.40625 15.53125 47.40625 23.390625 
Q 47.40625 31.296875 43.53125 35.828125 
Q 39.65625 40.375 33.015625 40.375 
z
M 52.59375 71.296875 
L 52.59375 62.3125 
Q 48.875 64.0625 45.09375 64.984375 
Q 41.3125 65.921875 37.59375 65.921875 
Q 27.828125 65.921875 22.671875 59.328125 
Q 17.53125 52.734375 16.796875 39.40625 
Q 19.671875 43.65625 24.015625 45.921875 
Q 28.375 48.1875 33.59375 48.1875 
Q 44.578125 48.1875 50.953125 41.515625 
Q 57.328125 34.859375 57.328125 23.390625 
Q 57.328125 12.15625 50.6875 5.359375 
Q 44.046875 -1.421875 33.015625 -1.421875 
Q 20.359375 -1.421875 13.671875 8.265625 
Q 6.984375 17.96875 6.984375 36.375 
Q 6.984375 53.65625 15.1875 63.9375 
Q 23.390625 74.21875 37.203125 74.21875 
Q 40.921875 74.21875 44.703125 73.484375 
Q 48.484375 72.75 52.59375 71.296875 
z
" id="DejaVuSans-54"/>
        <path d="M 31.78125 66.40625 
Q 24.171875 66.40625 20.328125 58.90625 
Q 16.5 51.421875 16.5 36.375 
Q 16.5 21.390625 20.328125 13.890625 
Q 24.171875 6.390625 31.78125 6.390625 
Q 39.453125 6.390625 43.28125 13.890625 
Q 47.125 21.390625 47.125 36.375 
Q 47.125 51.421875 43.28125 58.90625 
Q 39.453125 66.40625 31.78125 66.40625 
z
M 31.78125 74.21875 
Q 44.046875 74.21875 50.515625 64.515625 
Q 56.984375 54.828125 56.984375 36.375 
Q 56.984375 17.96875 50.515625 8.265625 
Q 44.046875 -1.421875 31.78125 -1.421875 
Q 19.53125 -1.421875 13.0625 8.265625 
Q 6.59375 17.96875 6.59375 36.375 
Q 6.59375 54.828125 13.0625 64.515625 
Q 19.53125 74.21875 31.78125 74.21875 
z
" id="DejaVuSans-48"/>
       </defs>
       <use xlink:href="#DejaVuSans-8722"/>
       <use x="83.789062" xlink:href="#DejaVuSans-54"/>
       <use x="147.412109" xlink:href="#DejaVuSans-48"/>
      </g>
     </g>
    </g>
    <g id="xtick_2">
     <g id="line2d_2">
      <g>
       <use style="stroke:#000000;stroke-width:0.8;" x="129.046606" xlink:href="#mf4edddddb6" y="307.584"/>
      </g>
     </g>
     <g id="text_2">
      <!-- −40 -->
      <g transform="translate(118.494262 322.182437)scale(0.1 -0.1)">
       <defs>
        <path d="M 37.796875 64.3125 
L 12.890625 25.390625 
L 37.796875 25.390625 
z
M 35.203125 72.90625 
L 47.609375 72.90625 
L 47.609375 25.390625 
L 58.015625 25.390625 
L 58.015625 17.1875 
L 47.609375 17.1875 
L 47.609375 0 
L 37.796875 0 
L 37.796875 17.1875 
L 4.890625 17.1875 
L 4.890625 26.703125 
z
" id="DejaVuSans-52"/>
       </defs>
       <use xlink:href="#DejaVuSans-8722"/>
       <use x="83.789062" xlink:href="#DejaVuSans-52"/>
       <use x="147.412109" xlink:href="#DejaVuSans-48"/>
      </g>
     </g>
    </g>
    <g id="xtick_3">
     <g id="line2d_3">
      <g>
       <use style="stroke:#000000;stroke-width:0.8;" x="171.693859" xlink:href="#mf4edddddb6" y="307.584"/>
      </g>
     </g>
     <g id="text_3">
      <!-- −20 -->
      <g transform="translate(161.141515 322.182437)scale(0.1 -0.1)">
       <defs>
        <path d="M 19.1875 8.296875 
L 53.609375 8.296875 
L 53.609375 0 
L 7.328125 0 
L 7.328125 8.296875 
Q 12.9375 14.109375 22.625 23.890625 
Q 32.328125 33.6875 34.8125 36.53125 
Q 39.546875 41.84375 41.421875 45.53125 
Q 43.3125 49.21875 43.3125 52.78125 
Q 43.3125 58.59375 39.234375 62.25 
Q 35.15625 65.921875 28.609375 65.921875 
Q 23.96875 65.921875 18.8125 64.3125 
Q 13.671875 62.703125 7.8125 59.421875 
L 7.8125 69.390625 
Q 13.765625 71.78125 18.9375 73 
Q 24.125 74.21875 28.421875 74.21875 
Q 39.75 74.21875 46.484375 68.546875 
Q 53.21875 62.890625 53.21875 53.421875 
Q 53.21875 48.921875 51.53125 44.890625 
Q 49.859375 40.875 45.40625 35.40625 
Q 44.1875 33.984375 37.640625 27.21875 
Q 31.109375 20.453125 19.1875 8.296875 
z
" id="DejaVuSans-50"/>
       </defs>
       <use xlink:href="#DejaVuSans-8722"/>
       <use x="83.789062" xlink:href="#DejaVuSans-50"/>
       <use x="147.412109" xlink:href="#DejaVuSans-48"/>
      </g>
     </g>
    </g>
    <g id="xtick_4">
     <g id="line2d_4">
      <g>
       <use style="stroke:#000000;stroke-width:0.8;" x="214.341112" xlink:href="#mf4edddddb6" y="307.584"/>
      </g>
     </g>
     <g id="text_4">
      <!-- 0 -->
      <g transform="translate(211.159862 322.182437)scale(0.1 -0.1)">
       <use xlink:href="#DejaVuSans-48"/>
      </g>
     </g>
    </g>
    <g id="xtick_5">
     <g id="line2d_5">
      <g>
       <use style="stroke:#000000;stroke-width:0.8;" x="256.988366" xlink:href="#mf4edddddb6" y="307.584"/>
      </g>
     </g>
     <g id="text_5">
      <!-- 20 -->
      <g transform="translate(250.625866 322.182437)scale(0.1 -0.1)">
       <use xlink:href="#DejaVuSans-50"/>
       <use x="63.623047" xlink:href="#DejaVuSans-48"/>
      </g>
     </g>
    </g>
    <g id="xtick_6">
     <g id="line2d_6">
      <g>
       <use style="stroke:#000000;stroke-width:0.8;" x="299.635619" xlink:href="#mf4edddddb6" y="307.584"/>
      </g>
     </g>
     <g id="text_6">
      <!-- 40 -->
      <g transform="translate(293.273119 322.182437)scale(0.1 -0.1)">
       <use xlink:href="#DejaVuSans-52"/>
       <use x="63.623047" xlink:href="#DejaVuSans-48"/>
      </g>
     </g>
    </g>
    <g id="xtick_7">
     <g id="line2d_7">
      <g>
       <use style="stroke:#000000;stroke-width:0.8;" x="342.282872" xlink:href="#mf4edddddb6" y="307.584"/>
      </g>
     </g>
     <g id="text_7">
      <!-- 60 -->
      <g transform="translate(335.920372 322.182437)scale(0.1 -0.1)">
       <use xlink:href="#DejaVuSans-54"/>
       <use x="63.623047" xlink:href="#DejaVuSans-48"/>
      </g>
     </g>
    </g>
    <g id="xtick_8">
     <g id="line2d_8">
      <g>
       <use style="stroke:#000000;stroke-width:0.8;" x="384.930126" xlink:href="#mf4edddddb6" y="307.584"/>
      </g>
     </g>
     <g id="text_8">
      <!-- 80 -->
      <g transform="translate(378.567626 322.182437)scale(0.1 -0.1)">
       <defs>
        <path d="M 31.78125 34.625 
Q 24.75 34.625 20.71875 30.859375 
Q 16.703125 27.09375 16.703125 20.515625 
Q 16.703125 13.921875 20.71875 10.15625 
Q 24.75 6.390625 31.78125 6.390625 
Q 38.8125 6.390625 42.859375 10.171875 
Q 46.921875 13.96875 46.921875 20.515625 
Q 46.921875 27.09375 42.890625 30.859375 
Q 38.875 34.625 31.78125 34.625 
z
M 21.921875 38.8125 
Q 15.578125 40.375 12.03125 44.71875 
Q 8.5 49.078125 8.5 55.328125 
Q 8.5 64.0625 14.71875 69.140625 
Q 20.953125 74.21875 31.78125 74.21875 
Q 42.671875 74.21875 48.875 69.140625 
Q 55.078125 64.0625 55.078125 55.328125 
Q 55.078125 49.078125 51.53125 44.71875 
Q 48 40.375 41.703125 38.8125 
Q 48.828125 37.15625 52.796875 32.3125 
Q 56.78125 27.484375 56.78125 20.515625 
Q 56.78125 9.90625 50.3125 4.234375 
Q 43.84375 -1.421875 31.78125 -1.421875 
Q 19.734375 -1.421875 13.25 4.234375 
Q 6.78125 9.90625 6.78125 20.515625 
Q 6.78125 27.484375 10.78125 32.3125 
Q 14.796875 37.15625 21.921875 38.8125 
z
M 18.3125 54.390625 
Q 18.3125 48.734375 21.84375 45.5625 
Q 25.390625 42.390625 31.78125 42.390625 
Q 38.140625 42.390625 41.71875 45.5625 
Q 45.3125 48.734375 45.3125 54.390625 
Q 45.3125 60.0625 41.71875 63.234375 
Q 38.140625 66.40625 31.78125 66.40625 
Q 25.390625 66.40625 21.84375 63.234375 
Q 18.3125 60.0625 18.3125 54.390625 
z
" id="DejaVuSans-56"/>
       </defs>
       <use xlink:href="#DejaVuSans-56"/>
       <use x="63.623047" xlink:href="#DejaVuSans-48"/>
      </g>
     </g>
    </g>
   </g>
   <g id="matplotlib.axis_2">
    <g id="ytick_1">
     <g id="line2d_9">
      <defs>
       <path d="M 0 0 
L -3.5 0 
" id="m96f442ecc5" style="stroke:#000000;stroke-width:0.8;"/>
      </defs>
      <g>
       <use style="stroke:#000000;stroke-width:0.8;" x="57.6" xlink:href="#m96f442ecc5" y="295.405939"/>
      </g>
     </g>
     <g id="text_9">
      <!-- 0 -->
      <g transform="translate(44.2375 299.205157)scale(0.1 -0.1)">
       <use xlink:href="#DejaVuSans-48"/>
      </g>
     </g>
    </g>
    <g id="ytick_2">
     <g id="line2d_10">
      <g>
       <use style="stroke:#000000;stroke-width:0.8;" x="57.6" xlink:href="#m96f442ecc5" y="252.758685"/>
      </g>
     </g>
     <g id="text_10">
      <!-- 20 -->
      <g transform="translate(37.875 256.557904)scale(0.1 -0.1)">
       <use xlink:href="#DejaVuSans-50"/>
       <use x="63.623047" xlink:href="#DejaVuSans-48"/>
      </g>
     </g>
    </g>
    <g id="ytick_3">
     <g id="line2d_11">
      <g>
       <use style="stroke:#000000;stroke-width:0.8;" x="57.6" xlink:href="#m96f442ecc5" y="210.111432"/>
      </g>
     </g>
     <g id="text_11">
      <!-- 40 -->
      <g transform="translate(37.875 213.910651)scale(0.1 -0.1)">
       <use xlink:href="#DejaVuSans-52"/>
       <use x="63.623047" xlink:href="#DejaVuSans-48"/>
      </g>
     </g>
    </g>
    <g id="ytick_4">
     <g id="line2d_12">
      <g>
       <use style="stroke:#000000;stroke-width:0.8;" x="57.6" xlink:href="#m96f442ecc5" y="167.464179"/>
      </g>
     </g>
     <g id="text_12">
      <!-- 60 -->
      <g transform="translate(37.875 171.263398)scale(0.1 -0.1)">
       <use xlink:href="#DejaVuSans-54"/>
       <use x="63.623047" xlink:href="#DejaVuSans-48"/>
      </g>
     </g>
    </g>
    <g id="ytick_5">
     <g id="line2d_13">
      <g>
       <use style="stroke:#000000;stroke-width:0.8;" x="57.6" xlink:href="#m96f442ecc5" y="124.816926"/>
      </g>
     </g>
     <g id="text_13">
      <!-- 80 -->
      <g transform="translate(37.875 128.616144)scale(0.1 -0.1)">
       <use xlink:href="#DejaVuSans-56"/>
       <use x="63.623047" xlink:href="#DejaVuSans-48"/>
      </g>
     </g>
    </g>
    <g id="ytick_6">
     <g id="line2d_14">
      <g>
       <use style="stroke:#000000;stroke-width:0.8;" x="57.6" xlink:href="#m96f442ecc5" y="82.169672"/>
      </g>
     </g>
     <g id="text_14">
      <!-- 100 -->
      <g transform="translate(31.5125 85.968891)scale(0.1 -0.1)">
       <defs>
        <path d="M 12.40625 8.296875 
L 28.515625 8.296875 
L 28.515625 63.921875 
L 10.984375 60.40625 
L 10.984375 69.390625 
L 28.421875 72.90625 
L 38.28125 72.90625 
L 38.28125 8.296875 
L 54.390625 8.296875 
L 54.390625 0 
L 12.40625 0 
z
" id="DejaVuSans-49"/>
       </defs>
       <use xlink:href="#DejaVuSans-49"/>
       <use x="63.623047" xlink:href="#DejaVuSans-48"/>
       <use x="127.246094" xlink:href="#DejaVuSans-48"/>
      </g>
     </g>
    </g>
   </g>
   <g id="line2d_15">
    <path clip-path="url(#p9a13189a30)" d="M 214.341112 295.405939 
L 214.667197 272.962862 
L 215.373654 239.276545 
L 215.84401 233.503985 
L 216.948568 224.671645 
L 218.106329 215.816171 
L 218.671268 210.002485 
L 218.905166 204.332741 
L 218.853638 201.571124 
L 218.666146 198.868626 
L 218.324957 196.232958 
L 217.812334 193.671831 
L 217.110546 191.192956 
L 216.201855 188.804044 
L 215.038194 186.531587 
L 213.603191 184.387052 
L 211.926665 182.355609 
L 210.038432 180.42243 
L 207.968308 178.572689 
L 205.746111 176.791555 
L 200.964762 173.375799 
L 188.437281 164.999075 
L 186.071901 163.232991 
L 183.822798 161.40206 
L 181.719789 159.491456 
L 179.792692 157.486349 
L 178.071323 155.371912 
L 176.585498 153.133316 
L 173.916241 148.283877 
L 171.39084 143.027706 
L 169.08417 137.469309 
L 167.071109 131.713194 
L 165.426533 125.86387 
L 164.765825 122.936913 
L 164.225318 120.025844 
L 163.81437 117.143727 
L 163.542341 114.303624 
L 163.418591 111.5186 
L 163.452479 108.801718 
L 163.653364 106.166041 
L 164.030608 103.624633 
L 164.593568 101.190557 
L 165.367184 98.778081 
L 166.359762 96.305041 
L 167.555707 93.789854 
L 168.939428 91.250936 
L 170.495331 88.706706 
L 172.207824 86.175581 
L 174.061314 83.675977 
L 176.040208 81.226311 
L 178.128913 78.845001 
L 180.311837 76.550464 
L 182.573385 74.361116 
L 184.897967 72.295376 
L 187.269989 70.371659 
L 189.673857 68.608384 
L 192.09398 67.023967 
L 194.514764 65.636825 
L 196.920617 64.465376 
L 199.295945 63.528037 
L 201.625157 62.843224 
L 204.023441 62.394049 
L 206.59887 62.14555 
L 209.325175 62.089031 
L 212.176087 62.215798 
L 215.125337 62.517154 
L 218.146658 62.984407 
L 221.213779 63.608859 
L 224.300432 64.381817 
L 227.380349 65.294586 
L 230.42726 66.33847 
L 233.414897 67.504775 
L 236.316991 68.784806 
L 239.107274 70.169867 
L 241.759476 71.651263 
L 244.247328 73.220301 
L 246.544563 74.868284 
L 248.62491 76.586518 
L 250.462102 78.366308 
L 252.02987 80.198958 
L 253.281145 82.174737 
L 254.210452 84.374158 
L 254.853913 86.773893 
L 255.247647 89.350618 
L 255.427776 92.081004 
L 255.430419 94.941727 
L 255.047734 100.960874 
L 253.513473 116.65677 
L 253.396578 119.720429 
L 253.427284 122.704486 
L 253.64171 125.585614 
L 254.075978 128.340488 
L 254.766209 130.945781 
L 255.748522 133.378167 
L 257.019618 135.648339 
L 258.53412 137.792261 
L 260.265035 139.824512 
L 262.185368 141.759669 
L 264.268127 143.61231 
L 268.812943 147.128359 
L 273.683535 150.489284 
L 281.127861 155.494927 
L 285.868111 158.978272 
L 288.090464 160.807554 
L 290.178311 162.714679 
L 292.104659 164.714225 
L 293.842512 166.820771 
L 295.364879 169.048895 
L 296.700866 171.385341 
L 297.905104 173.802523 
L 298.988886 176.293521 
L 299.963506 178.851413 
L 301.630426 184.140204 
L 302.996206 189.613533 
L 304.151189 195.216039 
L 307.837907 215.042796 
L 309.162281 220.541499 
L 309.162281 220.541499 
" style="fill:none;stroke:#fea952;stroke-linecap:square;"/>
   </g>
   <g id="line2d_16">
    <path clip-path="url(#p9a13189a30)" d="M 205.812056 295.323877 
L 206.139301 272.799985 
L 206.864182 238.693089 
L 207.369074 232.541181 
L 208.497362 223.518974 
L 209.626041 214.901703 
L 210.156389 209.504132 
L 210.3772 204.491861 
L 210.207276 199.963635 
L 209.961391 197.906966 
L 209.605437 195.995268 
L 209.138357 194.225403 
L 208.609895 192.691675 
L 207.949376 191.275024 
L 207.024733 189.816178 
L 205.82492 188.315494 
L 204.355261 186.782705 
L 202.633839 185.228136 
L 200.686712 183.658433 
L 196.237538 180.475438 
L 183.334326 171.833647 
L 180.687033 169.847727 
L 178.087276 167.715167 
L 175.570115 165.401874 
L 173.178057 162.871341 
L 170.964775 160.088744 
L 169.173344 157.353683 
L 166.27957 152.082926 
L 163.558966 146.406061 
L 161.075429 140.403861 
L 158.899197 134.156835 
L 157.106423 127.741984 
L 156.379703 124.493991 
L 155.781271 121.229842 
L 155.323777 117.956967 
L 155.021298 114.68225 
L 154.889803 111.412219 
L 154.947695 108.153501 
L 155.216358 104.913663 
L 155.720522 101.702652 
L 156.471502 98.586028 
L 157.451503 95.60105 
L 158.656763 92.642345 
L 160.066323 89.708107 
L 161.662798 86.800972 
L 163.430867 83.927076 
L 165.356456 81.095199 
L 167.426324 78.316085 
L 169.627898 75.601917 
L 171.949254 72.965941 
L 174.379222 70.4222 
L 176.907576 67.98537 
L 179.525334 65.670699 
L 182.225166 63.494066 
L 185.00193 61.472235 
L 187.853349 59.623387 
L 190.780756 57.968141 
L 193.789727 56.531332 
L 196.890028 55.344939 
L 200.054978 54.459545 
L 203.204252 53.904028 
L 206.422084 53.617932 
L 209.704064 53.568 
L 213.043118 53.730529 
L 216.428934 54.08791 
L 219.848307 54.626421 
L 223.285741 55.334894 
L 226.724039 56.203941 
L 230.14483 57.225561 
L 233.528995 58.392983 
L 236.857039 59.700726 
L 240.109382 61.144825 
L 243.26659 62.723282 
L 246.309502 64.436779 
L 249.219147 66.289749 
L 251.976221 68.291916 
L 254.559678 70.46034 
L 256.943516 72.821688 
L 259.235797 75.635392 
L 261.138048 78.855008 
L 262.44888 82.165121 
L 263.285497 85.485512 
L 263.758597 88.789135 
L 263.957223 92.073122 
L 263.950567 95.339985 
L 263.534337 101.814745 
L 262.036722 116.981978 
L 261.93321 122.071437 
L 262.067121 124.257464 
L 262.320978 126.156108 
L 262.675068 127.751806 
L 263.190799 129.211148 
L 263.986152 130.727064 
L 265.02752 132.261683 
L 266.319412 133.816513 
L 267.85425 135.386655 
L 269.614958 136.966791 
L 273.7177 140.150187 
L 278.412357 143.390708 
L 286.077153 148.548271 
L 291.28877 152.392835 
L 293.842976 154.509924 
L 296.320929 156.796928 
L 298.68412 159.286314 
L 300.885079 162.008933 
L 302.769322 164.815013 
L 304.33533 167.581857 
L 305.726358 170.399655 
L 306.959363 173.256576 
L 308.05142 176.142694 
L 309.879136 181.969881 
L 311.335928 187.824521 
L 312.536899 193.656744 
L 316.737896 215.714629 
L 317.430197 218.445527 
L 317.430197 218.445527 
" style="fill:none;stroke:#ffffff;stroke-linecap:square;"/>
   </g>
   <g id="line2d_17">
    <path clip-path="url(#p9a13189a30)" d="M 222.870168 295.488 
L 223.195092 273.125738 
L 223.883126 239.860001 
L 224.318946 234.466789 
L 225.399774 225.824315 
L 226.586616 216.73064 
L 227.186148 210.500838 
L 227.365518 207.347955 
L 227.433132 204.173621 
L 227.362635 200.980794 
L 227.125016 197.773618 
L 226.688522 194.55895 
L 226.019232 191.348394 
L 225.082734 188.160508 
L 223.793815 184.916413 
L 222.127011 181.78815 
L 220.18165 178.957926 
L 218.028411 176.395724 
L 215.721603 174.062156 
L 213.302776 171.917242 
L 210.805509 169.924677 
L 205.691987 166.276159 
L 193.540237 158.164503 
L 189.558319 155.088953 
L 187.869463 153.581038 
L 186.407326 152.101357 
L 185.177871 150.65508 
L 183.997653 148.912949 
L 181.552913 144.484828 
L 179.222713 139.64935 
L 177.092911 134.534756 
L 175.243021 129.269554 
L 173.746642 123.985757 
L 172.669364 118.821846 
L 172.063384 113.924999 
L 171.947378 111.624981 
L 171.957262 109.449935 
L 172.090371 107.418419 
L 172.340693 105.546613 
L 172.715634 103.795086 
L 173.282865 101.955112 
L 174.06276 99.967737 
L 175.045091 97.8716 
L 176.216058 95.700901 
L 177.559796 93.486337 
L 179.059193 91.255962 
L 180.696304 89.035868 
L 182.452518 86.850705 
L 184.308572 84.724061 
L 186.244451 82.678727 
L 188.239195 80.736862 
L 190.2706 78.920053 
L 192.314811 77.249253 
L 194.345784 75.744533 
L 196.334611 74.424547 
L 198.248772 73.305509 
L 200.051507 72.39942 
L 201.701863 71.711134 
L 203.195336 71.226902 
L 204.84263 70.88407 
L 206.775655 70.673168 
L 208.946285 70.610062 
L 211.309055 70.701066 
L 213.82174 70.946399 
L 216.445008 71.342392 
L 219.141817 71.882825 
L 221.876825 72.559693 
L 224.615868 73.363612 
L 227.325525 74.283957 
L 229.972755 75.308824 
L 232.524601 76.424786 
L 234.947958 77.616451 
L 237.209449 78.865748 
L 239.27551 80.150853 
L 241.112904 81.444652 
L 242.690142 82.712696 
L 244.823942 84.762524 
L 245.424242 85.494466 
L 245.972025 86.583194 
L 246.422329 88.062275 
L 246.736698 89.912101 
L 246.898329 92.088886 
L 246.910272 94.543469 
L 246.561131 100.107002 
L 244.990225 116.331562 
L 244.867579 119.808191 
L 244.921358 123.337535 
L 245.2163 126.913765 
L 245.830979 130.524868 
L 246.85735 134.139756 
L 248.306245 137.545185 
L 250.053085 140.569613 
L 252.040721 143.322839 
L 254.210658 145.83251 
L 256.516486 148.132683 
L 258.921295 150.257829 
L 261.394329 152.239762 
L 266.436892 155.882347 
L 278.38588 164.009657 
L 282.337952 167.105183 
L 284.035693 168.632429 
L 285.525197 170.142136 
L 286.799946 171.632609 
L 287.960436 173.282776 
L 289.066402 175.188825 
L 290.08385 177.205392 
L 291.01841 179.330466 
L 292.661222 183.888983 
L 294.044185 188.817574 
L 295.227173 194.057703 
L 296.784865 202.367905 
L 298.904762 213.985377 
L 300.202064 219.906573 
L 300.894365 222.637471 
L 300.894365 222.637471 
" style="fill:none;stroke:#ffffff;stroke-linecap:square;"/>
   </g>
   <g id="patch_3">
    <path d="M 57.6 307.584 
L 57.6 41.472 
" style="fill:none;stroke:#000000;stroke-linecap:square;stroke-linejoin:miter;stroke-width:0.8;"/>
   </g>
   <g id="patch_4">
    <path d="M 414.72 307.584 
L 414.72 41.472 
" style="fill:none;stroke:#000000;stroke-linecap:square;stroke-linejoin:miter;stroke-width:0.8;"/>
   </g>
   <g id="patch_5">
    <path d="M 57.6 307.584 
L 414.72 307.584 
" style="fill:none;stroke:#000000;stroke-linecap:square;stroke-linejoin:miter;stroke-width:0.8;"/>
   </g>
   <g id="patch_6">
    <path d="M 57.6 41.472 
L 414.72 41.472 
" style="fill:none;stroke:#000000;stroke-linecap:square;stroke-linejoin:miter;stroke-width:0.8;"/>
   </g>
  </g>
 </g>
 <defs>
  <clipPath id="p9a13189a30">
   <rect height="266.112" width="357.12" x="57.6" y="41.472"/>
  </clipPath>
 </defs>
</svg>
