<?xml version="1.0" encoding="utf-8" standalone="no"?>
<!DOCTYPE svg PUBLIC "-//W3C//DTD SVG 1.1//EN"
  "http://www.w3.org/Graphics/SVG/1.1/DTD/svg11.dtd">
<!-- Created with matplotlib (https://matplotlib.org/) -->
<svg height="345.6pt" version="1.1" viewBox="0 0 460.8 345.6" width="460.8pt" xmlns="http://www.w3.org/2000/svg" xmlns:xlink="http://www.w3.org/1999/xlink">
 <metadata>
  <rdf:RDF xmlns:cc="http://creativecommons.org/ns#" xmlns:dc="http://purl.org/dc/elements/1.1/" xmlns:rdf="http://www.w3.org/1999/02/22-rdf-syntax-ns#">
   <cc:Work>
    <dc:type rdf:resource="http://purl.org/dc/dcmitype/StillImage"/>
    <dc:date>2021-06-17T15:42:12.502449</dc:date>
    <dc:format>image/svg+xml</dc:format>
    <dc:creator>
     <cc:Agent>
      <dc:title>Matplotlib v3.3.3, https://matplotlib.org/</dc:title>
     </cc:Agent>
    </dc:creator>
   </cc:Work>
  </rdf:RDF>
 </metadata>
 <defs>
  <style type="text/css">*{stroke-linecap:butt;stroke-linejoin:round;}</style>
 </defs>
 <g id="figure_1">
  <g id="patch_1">
   <path d="M 0 345.6 
L 460.8 345.6 
L 460.8 0 
L 0 0 
z
" style="fill:#ffffff;"/>
  </g>
  <g id="axes_1">
   <g id="patch_2">
    <path d="M 57.6 307.584 
L 414.72 307.584 
L 414.72 41.472 
L 57.6 41.472 
z
" style="fill:#7d9051;"/>
   </g>
   <g id="matplotlib.axis_1">
    <g id="xtick_1">
     <g id="line2d_1">
      <defs>
       <path d="M 0 0 
L 0 3.5 
" id="m1ab24c6b20" style="stroke:#000000;stroke-width:0.8;"/>
      </defs>
      <g>
       <use style="stroke:#000000;stroke-width:0.8;" x="68.206881" xlink:href="#m1ab24c6b20" y="307.584"/>
      </g>
     </g>
     <g id="text_1">
      <!-- −100 -->
      <g transform="translate(54.473287 322.182437)scale(0.1 -0.1)">
       <defs>
        <path d="M 10.59375 35.5 
L 73.1875 35.5 
L 73.1875 27.203125 
L 10.59375 27.203125 
z
" id="DejaVuSans-8722"/>
        <path d="M 12.40625 8.296875 
L 28.515625 8.296875 
L 28.515625 63.921875 
L 10.984375 60.40625 
L 10.984375 69.390625 
L 28.421875 72.90625 
L 38.28125 72.90625 
L 38.28125 8.296875 
L 54.390625 8.296875 
L 54.390625 0 
L 12.40625 0 
z
" id="DejaVuSans-49"/>
        <path d="M 31.78125 66.40625 
Q 24.171875 66.40625 20.328125 58.90625 
Q 16.5 51.421875 16.5 36.375 
Q 16.5 21.390625 20.328125 13.890625 
Q 24.171875 6.390625 31.78125 6.390625 
Q 39.453125 6.390625 43.28125 13.890625 
Q 47.125 21.390625 47.125 36.375 
Q 47.125 51.421875 43.28125 58.90625 
Q 39.453125 66.40625 31.78125 66.40625 
z
M 31.78125 74.21875 
Q 44.046875 74.21875 50.515625 64.515625 
Q 56.984375 54.828125 56.984375 36.375 
Q 56.984375 17.96875 50.515625 8.265625 
Q 44.046875 -1.421875 31.78125 -1.421875 
Q 19.53125 -1.421875 13.0625 8.265625 
Q 6.59375 17.96875 6.59375 36.375 
Q 6.59375 54.828125 13.0625 64.515625 
Q 19.53125 74.21875 31.78125 74.21875 
z
" id="DejaVuSans-48"/>
       </defs>
       <use xlink:href="#DejaVuSans-8722"/>
       <use x="83.789062" xlink:href="#DejaVuSans-49"/>
       <use x="147.412109" xlink:href="#DejaVuSans-48"/>
       <use x="211.035156" xlink:href="#DejaVuSans-48"/>
      </g>
     </g>
    </g>
    <g id="xtick_2">
     <g id="line2d_2">
      <g>
       <use style="stroke:#000000;stroke-width:0.8;" x="140.047507" xlink:href="#m1ab24c6b20" y="307.584"/>
      </g>
     </g>
     <g id="text_2">
      <!-- −50 -->
      <g transform="translate(129.495163 322.182437)scale(0.1 -0.1)">
       <defs>
        <path d="M 10.796875 72.90625 
L 49.515625 72.90625 
L 49.515625 64.59375 
L 19.828125 64.59375 
L 19.828125 46.734375 
Q 21.96875 47.46875 24.109375 47.828125 
Q 26.265625 48.1875 28.421875 48.1875 
Q 40.625 48.1875 47.75 41.5 
Q 54.890625 34.8125 54.890625 23.390625 
Q 54.890625 11.625 47.5625 5.09375 
Q 40.234375 -1.421875 26.90625 -1.421875 
Q 22.3125 -1.421875 17.546875 -0.640625 
Q 12.796875 0.140625 7.71875 1.703125 
L 7.71875 11.625 
Q 12.109375 9.234375 16.796875 8.0625 
Q 21.484375 6.890625 26.703125 6.890625 
Q 35.15625 6.890625 40.078125 11.328125 
Q 45.015625 15.765625 45.015625 23.390625 
Q 45.015625 31 40.078125 35.4375 
Q 35.15625 39.890625 26.703125 39.890625 
Q 22.75 39.890625 18.8125 39.015625 
Q 14.890625 38.140625 10.796875 36.28125 
z
" id="DejaVuSans-53"/>
       </defs>
       <use xlink:href="#DejaVuSans-8722"/>
       <use x="83.789062" xlink:href="#DejaVuSans-53"/>
       <use x="147.412109" xlink:href="#DejaVuSans-48"/>
      </g>
     </g>
    </g>
    <g id="xtick_3">
     <g id="line2d_3">
      <g>
       <use style="stroke:#000000;stroke-width:0.8;" x="211.888133" xlink:href="#m1ab24c6b20" y="307.584"/>
      </g>
     </g>
     <g id="text_3">
      <!-- 0 -->
      <g transform="translate(208.706883 322.182437)scale(0.1 -0.1)">
       <use xlink:href="#DejaVuSans-48"/>
      </g>
     </g>
    </g>
    <g id="xtick_4">
     <g id="line2d_4">
      <g>
       <use style="stroke:#000000;stroke-width:0.8;" x="283.728759" xlink:href="#m1ab24c6b20" y="307.584"/>
      </g>
     </g>
     <g id="text_4">
      <!-- 50 -->
      <g transform="translate(277.366259 322.182437)scale(0.1 -0.1)">
       <use xlink:href="#DejaVuSans-53"/>
       <use x="63.623047" xlink:href="#DejaVuSans-48"/>
      </g>
     </g>
    </g>
    <g id="xtick_5">
     <g id="line2d_5">
      <g>
       <use style="stroke:#000000;stroke-width:0.8;" x="355.569385" xlink:href="#m1ab24c6b20" y="307.584"/>
      </g>
     </g>
     <g id="text_5">
      <!-- 100 -->
      <g transform="translate(346.025635 322.182437)scale(0.1 -0.1)">
       <use xlink:href="#DejaVuSans-49"/>
       <use x="63.623047" xlink:href="#DejaVuSans-48"/>
       <use x="127.246094" xlink:href="#DejaVuSans-48"/>
      </g>
     </g>
    </g>
   </g>
   <g id="matplotlib.axis_2">
    <g id="ytick_1">
     <g id="line2d_6">
      <defs>
       <path d="M 0 0 
L -3.5 0 
" id="mea0321ea10" style="stroke:#000000;stroke-width:0.8;"/>
      </defs>
      <g>
       <use style="stroke:#000000;stroke-width:0.8;" x="57.6" xlink:href="#mea0321ea10" y="295.432706"/>
      </g>
     </g>
     <g id="text_6">
      <!-- 0 -->
      <g transform="translate(44.2375 299.231925)scale(0.1 -0.1)">
       <use xlink:href="#DejaVuSans-48"/>
      </g>
     </g>
    </g>
    <g id="ytick_2">
     <g id="line2d_7">
      <g>
       <use style="stroke:#000000;stroke-width:0.8;" x="57.6" xlink:href="#mea0321ea10" y="259.512393"/>
      </g>
     </g>
     <g id="text_7">
      <!-- 25 -->
      <g transform="translate(37.875 263.311612)scale(0.1 -0.1)">
       <defs>
        <path d="M 19.1875 8.296875 
L 53.609375 8.296875 
L 53.609375 0 
L 7.328125 0 
L 7.328125 8.296875 
Q 12.9375 14.109375 22.625 23.890625 
Q 32.328125 33.6875 34.8125 36.53125 
Q 39.546875 41.84375 41.421875 45.53125 
Q 43.3125 49.21875 43.3125 52.78125 
Q 43.3125 58.59375 39.234375 62.25 
Q 35.15625 65.921875 28.609375 65.921875 
Q 23.96875 65.921875 18.8125 64.3125 
Q 13.671875 62.703125 7.8125 59.421875 
L 7.8125 69.390625 
Q 13.765625 71.78125 18.9375 73 
Q 24.125 74.21875 28.421875 74.21875 
Q 39.75 74.21875 46.484375 68.546875 
Q 53.21875 62.890625 53.21875 53.421875 
Q 53.21875 48.921875 51.53125 44.890625 
Q 49.859375 40.875 45.40625 35.40625 
Q 44.1875 33.984375 37.640625 27.21875 
Q 31.109375 20.453125 19.1875 8.296875 
z
" id="DejaVuSans-50"/>
       </defs>
       <use xlink:href="#DejaVuSans-50"/>
       <use x="63.623047" xlink:href="#DejaVuSans-53"/>
      </g>
     </g>
    </g>
    <g id="ytick_3">
     <g id="line2d_8">
      <g>
       <use style="stroke:#000000;stroke-width:0.8;" x="57.6" xlink:href="#mea0321ea10" y="223.59208"/>
      </g>
     </g>
     <g id="text_8">
      <!-- 50 -->
      <g transform="translate(37.875 227.391299)scale(0.1 -0.1)">
       <use xlink:href="#DejaVuSans-53"/>
       <use x="63.623047" xlink:href="#DejaVuSans-48"/>
      </g>
     </g>
    </g>
    <g id="ytick_4">
     <g id="line2d_9">
      <g>
       <use style="stroke:#000000;stroke-width:0.8;" x="57.6" xlink:href="#mea0321ea10" y="187.671767"/>
      </g>
     </g>
     <g id="text_9">
      <!-- 75 -->
      <g transform="translate(37.875 191.470986)scale(0.1 -0.1)">
       <defs>
        <path d="M 8.203125 72.90625 
L 55.078125 72.90625 
L 55.078125 68.703125 
L 28.609375 0 
L 18.3125 0 
L 43.21875 64.59375 
L 8.203125 64.59375 
z
" id="DejaVuSans-55"/>
       </defs>
       <use xlink:href="#DejaVuSans-55"/>
       <use x="63.623047" xlink:href="#DejaVuSans-53"/>
      </g>
     </g>
    </g>
    <g id="ytick_5">
     <g id="line2d_10">
      <g>
       <use style="stroke:#000000;stroke-width:0.8;" x="57.6" xlink:href="#mea0321ea10" y="151.751454"/>
      </g>
     </g>
     <g id="text_10">
      <!-- 100 -->
      <g transform="translate(31.5125 155.550673)scale(0.1 -0.1)">
       <use xlink:href="#DejaVuSans-49"/>
       <use x="63.623047" xlink:href="#DejaVuSans-48"/>
       <use x="127.246094" xlink:href="#DejaVuSans-48"/>
      </g>
     </g>
    </g>
    <g id="ytick_6">
     <g id="line2d_11">
      <g>
       <use style="stroke:#000000;stroke-width:0.8;" x="57.6" xlink:href="#mea0321ea10" y="115.831141"/>
      </g>
     </g>
     <g id="text_11">
      <!-- 125 -->
      <g transform="translate(31.5125 119.63036)scale(0.1 -0.1)">
       <use xlink:href="#DejaVuSans-49"/>
       <use x="63.623047" xlink:href="#DejaVuSans-50"/>
       <use x="127.246094" xlink:href="#DejaVuSans-53"/>
      </g>
     </g>
    </g>
    <g id="ytick_7">
     <g id="line2d_12">
      <g>
       <use style="stroke:#000000;stroke-width:0.8;" x="57.6" xlink:href="#mea0321ea10" y="79.910828"/>
      </g>
     </g>
     <g id="text_12">
      <!-- 150 -->
      <g transform="translate(31.5125 83.710047)scale(0.1 -0.1)">
       <use xlink:href="#DejaVuSans-49"/>
       <use x="63.623047" xlink:href="#DejaVuSans-53"/>
       <use x="127.246094" xlink:href="#DejaVuSans-48"/>
      </g>
     </g>
    </g>
    <g id="ytick_8">
     <g id="line2d_13">
      <g>
       <use style="stroke:#000000;stroke-width:0.8;" x="57.6" xlink:href="#mea0321ea10" y="43.990515"/>
      </g>
     </g>
     <g id="text_13">
      <!-- 175 -->
      <g transform="translate(31.5125 47.789734)scale(0.1 -0.1)">
       <use xlink:href="#DejaVuSans-49"/>
       <use x="63.623047" xlink:href="#DejaVuSans-55"/>
       <use x="127.246094" xlink:href="#DejaVuSans-53"/>
      </g>
     </g>
    </g>
   </g>
   <g id="line2d_14">
    <path clip-path="url(#p530b7828d8)" d="M 211.888133 295.432706 
L 212.181062 276.529834 
L 212.588817 257.60546 
L 212.940359 253.669908 
L 213.773622 247.600462 
L 214.88464 239.507867 
L 215.195389 235.594463 
L 215.197922 231.848408 
L 215.049613 230.056593 
L 214.783456 228.328763 
L 214.385855 226.672303 
L 213.84321 225.094595 
L 213.141925 223.603022 
L 212.218398 222.222354 
L 211.039278 220.96311 
L 209.636342 219.811288 
L 208.041366 218.75289 
L 206.286125 217.773917 
L 202.421958 215.998245 
L 190.287857 211.121471 
L 188.520174 210.227341 
L 186.90999 209.272642 
L 185.489082 208.243373 
L 184.289225 207.125536 
L 183.342196 205.90513 
L 182.679772 204.568156 
L 182.252616 203.098725 
L 181.984698 201.50107 
L 181.867748 199.791377 
L 181.893495 197.985829 
L 182.05367 196.100613 
L 182.74422 192.155913 
L 183.87324 188.086757 
L 185.374568 184.022623 
L 187.182044 180.092992 
L 189.229508 176.427343 
L 191.4508 173.155155 
L 193.779759 170.405908 
L 195.020214 169.239477 
L 196.37446 168.179115 
L 197.832929 167.216299 
L 199.38605 166.342501 
L 202.73797 164.827861 
L 206.353664 163.56699 
L 210.156576 162.491684 
L 218.017823 160.624948 
L 223.835813 159.204733 
L 231.294519 157.106304 
L 235.31246 156.333265 
L 243.661002 155.114151 
L 249.74411 154.09578 
L 253.499433 153.18155 
L 255.244035 152.616685 
L 256.880803 151.963473 
L 258.395391 151.209529 
L 259.773456 150.342469 
L 261.000652 149.349906 
L 262.062633 148.219457 
L 262.920236 146.931717 
L 263.560002 145.486271 
L 264.006144 143.89922 
L 264.282872 142.186666 
L 264.414399 140.36471 
L 264.338698 136.456995 
L 263.972735 132.304882 
L 263.144802 123.782697 
L 263.070221 119.670241 
L 263.202519 117.707526 
L 263.480158 115.828621 
L 263.92735 114.049627 
L 264.568307 112.386644 
L 265.435331 110.824041 
L 266.524849 109.330575 
L 267.807264 107.898935 
L 269.252975 106.521808 
L 272.515896 103.901846 
L 276.076822 101.412192 
L 283.145529 96.589825 
L 286.179732 94.140118 
L 287.468201 92.880041 
L 288.564782 91.586733 
L 289.439878 90.252881 
L 290.06389 88.871173 
L 290.407218 87.434298 
L 290.480747 85.951657 
L 290.328023 84.43923 
L 289.968439 82.899568 
L 289.421387 81.335226 
L 288.706261 79.748757 
L 286.849359 76.519649 
L 284.552879 73.232669 
L 280.62333 68.23837 
L 275.29343 61.567391 
L 272.93877 58.272751 
L 271.906889 56.644581 
L 271.906889 56.644581 
" style="fill:none;stroke:#fea952;stroke-linecap:square;"/>
   </g>
   <g id="line2d_15">
    <path clip-path="url(#p530b7828d8)" d="M 206.141149 295.377412 
L 206.397812 278.307249 
L 206.857646 257.17584 
L 207.237319 252.958416 
L 208.089657 246.749923 
L 209.163036 238.965533 
L 209.449871 235.453395 
L 209.470258 232.322488 
L 209.194943 229.67018 
L 208.642143 227.539954 
L 208.023202 226.150613 
L 207.392388 225.405077 
L 206.458575 224.600096 
L 205.241867 223.772222 
L 203.77825 222.94513 
L 200.272782 221.328529 
L 187.693757 216.249973 
L 185.589039 215.170956 
L 183.538452 213.92706 
L 181.57143 212.448475 
L 179.748701 210.64896 
L 178.192394 208.456681 
L 177.160971 206.17244 
L 176.584511 204.049235 
L 176.250847 201.89329 
L 176.121082 199.70943 
L 176.166878 197.499276 
L 176.367474 195.265114 
L 176.707099 193.011168 
L 177.173162 190.743752 
L 178.443679 186.202413 
L 180.10831 181.721013 
L 182.109197 177.391677 
L 184.400836 173.310484 
L 186.957945 169.571143 
L 188.338555 167.857373 
L 189.842686 166.218983 
L 191.477067 164.714325 
L 193.208112 163.38275 
L 195.014866 162.207366 
L 196.881173 161.169835 
L 200.74517 159.437162 
L 204.724415 158.055508 
L 208.756077 156.917683 
L 216.71374 155.027605 
L 222.29125 153.668921 
L 230.130139 151.47824 
L 234.415309 150.65647 
L 242.812165 149.429931 
L 248.499378 148.48494 
L 251.729078 147.71376 
L 254.319664 146.818431 
L 256.159237 145.873878 
L 257.279105 145.033748 
L 257.664757 144.605599 
L 258.02721 143.930927 
L 258.332488 142.982424 
L 258.550539 141.772848 
L 258.667236 140.333088 
L 258.608556 136.900115 
L 258.259154 132.926072 
L 257.40242 124.019198 
L 257.311889 121.669053 
L 257.335983 119.283722 
L 257.517005 116.867398 
L 257.906312 114.427504 
L 258.564638 111.982697 
L 259.54282 109.59821 
L 260.792298 107.43684 
L 262.243951 105.495893 
L 263.843253 103.737505 
L 265.551136 102.125529 
L 269.172318 99.227301 
L 272.885008 96.632736 
L 279.645867 92.03096 
L 282.161336 90.03118 
L 283.759402 88.434083 
L 284.667023 87.149622 
L 284.762577 86.529075 
L 284.73138 85.746314 
L 284.543343 84.796729 
L 284.181848 83.697031 
L 283.644677 82.471118 
L 282.082595 79.730388 
L 279.982323 76.717049 
L 276.167262 71.868017 
L 270.668521 64.979297 
L 268.084335 61.349332 
L 267.052454 59.721161 
L 267.052454 59.721161 
" style="fill:none;stroke:#ffffff;stroke-linecap:square;"/>
   </g>
   <g id="line2d_16">
    <path clip-path="url(#p530b7828d8)" d="M 217.635117 295.488 
L 217.927161 276.644861 
L 218.319987 258.03508 
L 218.643399 254.381399 
L 219.457588 248.451 
L 220.606245 240.0502 
L 220.940908 235.735532 
L 220.925586 231.374327 
L 220.729866 229.181601 
L 220.37197 226.987347 
L 219.820626 224.803041 
L 219.044277 222.649236 
L 217.918998 220.407642 
L 216.413594 218.294096 
L 214.686168 216.521142 
L 212.814109 215.022481 
L 210.840864 213.733559 
L 208.794001 212.602704 
L 204.571135 210.667961 
L 191.45131 205.283726 
L 189.406734 204.038271 
L 188.491999 203.353578 
L 188.198572 202.963872 
L 187.920721 202.148215 
L 187.718549 201.10885 
L 187.614414 199.873324 
L 187.620113 198.472382 
L 187.972903 195.292657 
L 188.761013 191.786614 
L 189.932397 188.143299 
L 191.418444 184.534463 
L 193.138937 181.124067 
L 194.998574 178.075498 
L 196.873356 175.55677 
L 198.563361 173.764628 
L 199.540809 172.97548 
L 201.890926 171.515167 
L 204.73077 170.218559 
L 207.982914 169.078472 
L 211.557075 168.065685 
L 219.321907 166.222291 
L 225.380376 164.740544 
L 234.28712 162.353895 
L 240.268471 161.394157 
L 248.828123 160.117431 
L 253.138657 159.224589 
L 255.269788 158.64934 
L 257.374305 157.954552 
L 259.441941 157.108514 
L 261.45606 156.074012 
L 263.387676 154.811059 
L 265.189443 153.284994 
L 266.84616 151.405167 
L 268.175715 149.257835 
L 269.092794 147.041614 
L 269.679799 144.816016 
L 270.015205 142.600485 
L 270.161563 140.396332 
L 270.06884 136.013874 
L 269.455433 129.560095 
L 268.887183 123.546196 
L 268.804459 120.056761 
L 269.054003 117.229738 
L 269.593794 115.175078 
L 270.078363 114.211242 
L 270.805748 113.165258 
L 271.771275 112.060365 
L 272.954815 110.918087 
L 275.859475 108.57639 
L 279.268636 106.191649 
L 286.645192 101.14869 
L 288.452949 99.75182 
L 290.198129 98.249056 
L 291.851821 96.596863 
L 293.370163 94.739383 
L 294.677732 92.618418 
L 295.653783 90.206828 
L 296.147413 87.718975 
L 296.198918 85.374239 
L 295.924666 83.132146 
L 295.393534 81.002407 
L 294.660925 78.973422 
L 293.767845 77.026395 
L 292.744835 75.143123 
L 290.402565 71.513032 
L 287.797415 68.010353 
L 277.793205 55.196171 
L 276.761324 53.568 
L 276.761324 53.568 
" style="fill:none;stroke:#ffffff;stroke-linecap:square;"/>
   </g>
   <g id="patch_3">
    <path d="M 57.6 307.584 
L 57.6 41.472 
" style="fill:none;stroke:#000000;stroke-linecap:square;stroke-linejoin:miter;stroke-width:0.8;"/>
   </g>
   <g id="patch_4">
    <path d="M 414.72 307.584 
L 414.72 41.472 
" style="fill:none;stroke:#000000;stroke-linecap:square;stroke-linejoin:miter;stroke-width:0.8;"/>
   </g>
   <g id="patch_5">
    <path d="M 57.6 307.584 
L 414.72 307.584 
" style="fill:none;stroke:#000000;stroke-linecap:square;stroke-linejoin:miter;stroke-width:0.8;"/>
   </g>
   <g id="patch_6">
    <path d="M 57.6 41.472 
L 414.72 41.472 
" style="fill:none;stroke:#000000;stroke-linecap:square;stroke-linejoin:miter;stroke-width:0.8;"/>
   </g>
  </g>
 </g>
 <defs>
  <clipPath id="p530b7828d8">
   <rect height="266.112" width="357.12" x="57.6" y="41.472"/>
  </clipPath>
 </defs>
</svg>
