<?xml version="1.0" encoding="utf-8" standalone="no"?>
<!DOCTYPE svg PUBLIC "-//W3C//DTD SVG 1.1//EN"
  "http://www.w3.org/Graphics/SVG/1.1/DTD/svg11.dtd">
<!-- Created with matplotlib (https://matplotlib.org/) -->
<svg height="345.6pt" version="1.1" viewBox="0 0 460.8 345.6" width="460.8pt" xmlns="http://www.w3.org/2000/svg" xmlns:xlink="http://www.w3.org/1999/xlink">
 <metadata>
  <rdf:RDF xmlns:cc="http://creativecommons.org/ns#" xmlns:dc="http://purl.org/dc/elements/1.1/" xmlns:rdf="http://www.w3.org/1999/02/22-rdf-syntax-ns#">
   <cc:Work>
    <dc:type rdf:resource="http://purl.org/dc/dcmitype/StillImage"/>
    <dc:date>2021-07-07T18:25:21.622328</dc:date>
    <dc:format>image/svg+xml</dc:format>
    <dc:creator>
     <cc:Agent>
      <dc:title>Matplotlib v3.3.3, https://matplotlib.org/</dc:title>
     </cc:Agent>
    </dc:creator>
   </cc:Work>
  </rdf:RDF>
 </metadata>
 <defs>
  <style type="text/css">*{stroke-linecap:butt;stroke-linejoin:round;}</style>
 </defs>
 <g id="figure_1">
  <g id="patch_1">
   <path d="M 0 345.6 
L 460.8 345.6 
L 460.8 0 
L 0 0 
z
" style="fill:#ffffff;"/>
  </g>
  <g id="axes_1">
   <g id="patch_2">
    <path d="M 57.6 307.584 
L 414.72 307.584 
L 414.72 41.472 
L 57.6 41.472 
z
" style="fill:#7d9051;"/>
   </g>
   <g id="matplotlib.axis_1">
    <g id="xtick_1">
     <g id="line2d_1">
      <defs>
       <path d="M 0 0 
L 0 3.5 
" id="me6b3f40cdb" style="stroke:#000000;stroke-width:0.8;"/>
      </defs>
      <g>
       <use style="stroke:#000000;stroke-width:0.8;" x="94.168122" xlink:href="#me6b3f40cdb" y="307.584"/>
      </g>
     </g>
     <g id="text_1">
      <!-- −75 -->
      <g transform="translate(83.615778 322.182437)scale(0.1 -0.1)">
       <defs>
        <path d="M 10.59375 35.5 
L 73.1875 35.5 
L 73.1875 27.203125 
L 10.59375 27.203125 
z
" id="DejaVuSans-8722"/>
        <path d="M 8.203125 72.90625 
L 55.078125 72.90625 
L 55.078125 68.703125 
L 28.609375 0 
L 18.3125 0 
L 43.21875 64.59375 
L 8.203125 64.59375 
z
" id="DejaVuSans-55"/>
        <path d="M 10.796875 72.90625 
L 49.515625 72.90625 
L 49.515625 64.59375 
L 19.828125 64.59375 
L 19.828125 46.734375 
Q 21.96875 47.46875 24.109375 47.828125 
Q 26.265625 48.1875 28.421875 48.1875 
Q 40.625 48.1875 47.75 41.5 
Q 54.890625 34.8125 54.890625 23.390625 
Q 54.890625 11.625 47.5625 5.09375 
Q 40.234375 -1.421875 26.90625 -1.421875 
Q 22.3125 -1.421875 17.546875 -0.640625 
Q 12.796875 0.140625 7.71875 1.703125 
L 7.71875 11.625 
Q 12.109375 9.234375 16.796875 8.0625 
Q 21.484375 6.890625 26.703125 6.890625 
Q 35.15625 6.890625 40.078125 11.328125 
Q 45.015625 15.765625 45.015625 23.390625 
Q 45.015625 31 40.078125 35.4375 
Q 35.15625 39.890625 26.703125 39.890625 
Q 22.75 39.890625 18.8125 39.015625 
Q 14.890625 38.140625 10.796875 36.28125 
z
" id="DejaVuSans-53"/>
       </defs>
       <use xlink:href="#DejaVuSans-8722"/>
       <use x="83.789062" xlink:href="#DejaVuSans-55"/>
       <use x="147.412109" xlink:href="#DejaVuSans-53"/>
      </g>
     </g>
    </g>
    <g id="xtick_2">
     <g id="line2d_2">
      <g>
       <use style="stroke:#000000;stroke-width:0.8;" x="134.952924" xlink:href="#me6b3f40cdb" y="307.584"/>
      </g>
     </g>
     <g id="text_2">
      <!-- −50 -->
      <g transform="translate(124.40058 322.182437)scale(0.1 -0.1)">
       <defs>
        <path d="M 31.78125 66.40625 
Q 24.171875 66.40625 20.328125 58.90625 
Q 16.5 51.421875 16.5 36.375 
Q 16.5 21.390625 20.328125 13.890625 
Q 24.171875 6.390625 31.78125 6.390625 
Q 39.453125 6.390625 43.28125 13.890625 
Q 47.125 21.390625 47.125 36.375 
Q 47.125 51.421875 43.28125 58.90625 
Q 39.453125 66.40625 31.78125 66.40625 
z
M 31.78125 74.21875 
Q 44.046875 74.21875 50.515625 64.515625 
Q 56.984375 54.828125 56.984375 36.375 
Q 56.984375 17.96875 50.515625 8.265625 
Q 44.046875 -1.421875 31.78125 -1.421875 
Q 19.53125 -1.421875 13.0625 8.265625 
Q 6.59375 17.96875 6.59375 36.375 
Q 6.59375 54.828125 13.0625 64.515625 
Q 19.53125 74.21875 31.78125 74.21875 
z
" id="DejaVuSans-48"/>
       </defs>
       <use xlink:href="#DejaVuSans-8722"/>
       <use x="83.789062" xlink:href="#DejaVuSans-53"/>
       <use x="147.412109" xlink:href="#DejaVuSans-48"/>
      </g>
     </g>
    </g>
    <g id="xtick_3">
     <g id="line2d_3">
      <g>
       <use style="stroke:#000000;stroke-width:0.8;" x="175.737725" xlink:href="#me6b3f40cdb" y="307.584"/>
      </g>
     </g>
     <g id="text_3">
      <!-- −25 -->
      <g transform="translate(165.185381 322.182437)scale(0.1 -0.1)">
       <defs>
        <path d="M 19.1875 8.296875 
L 53.609375 8.296875 
L 53.609375 0 
L 7.328125 0 
L 7.328125 8.296875 
Q 12.9375 14.109375 22.625 23.890625 
Q 32.328125 33.6875 34.8125 36.53125 
Q 39.546875 41.84375 41.421875 45.53125 
Q 43.3125 49.21875 43.3125 52.78125 
Q 43.3125 58.59375 39.234375 62.25 
Q 35.15625 65.921875 28.609375 65.921875 
Q 23.96875 65.921875 18.8125 64.3125 
Q 13.671875 62.703125 7.8125 59.421875 
L 7.8125 69.390625 
Q 13.765625 71.78125 18.9375 73 
Q 24.125 74.21875 28.421875 74.21875 
Q 39.75 74.21875 46.484375 68.546875 
Q 53.21875 62.890625 53.21875 53.421875 
Q 53.21875 48.921875 51.53125 44.890625 
Q 49.859375 40.875 45.40625 35.40625 
Q 44.1875 33.984375 37.640625 27.21875 
Q 31.109375 20.453125 19.1875 8.296875 
z
" id="DejaVuSans-50"/>
       </defs>
       <use xlink:href="#DejaVuSans-8722"/>
       <use x="83.789062" xlink:href="#DejaVuSans-50"/>
       <use x="147.412109" xlink:href="#DejaVuSans-53"/>
      </g>
     </g>
    </g>
    <g id="xtick_4">
     <g id="line2d_4">
      <g>
       <use style="stroke:#000000;stroke-width:0.8;" x="216.522526" xlink:href="#me6b3f40cdb" y="307.584"/>
      </g>
     </g>
     <g id="text_4">
      <!-- 0 -->
      <g transform="translate(213.341276 322.182437)scale(0.1 -0.1)">
       <use xlink:href="#DejaVuSans-48"/>
      </g>
     </g>
    </g>
    <g id="xtick_5">
     <g id="line2d_5">
      <g>
       <use style="stroke:#000000;stroke-width:0.8;" x="257.307328" xlink:href="#me6b3f40cdb" y="307.584"/>
      </g>
     </g>
     <g id="text_5">
      <!-- 25 -->
      <g transform="translate(250.944828 322.182437)scale(0.1 -0.1)">
       <use xlink:href="#DejaVuSans-50"/>
       <use x="63.623047" xlink:href="#DejaVuSans-53"/>
      </g>
     </g>
    </g>
    <g id="xtick_6">
     <g id="line2d_6">
      <g>
       <use style="stroke:#000000;stroke-width:0.8;" x="298.092129" xlink:href="#me6b3f40cdb" y="307.584"/>
      </g>
     </g>
     <g id="text_6">
      <!-- 50 -->
      <g transform="translate(291.729629 322.182437)scale(0.1 -0.1)">
       <use xlink:href="#DejaVuSans-53"/>
       <use x="63.623047" xlink:href="#DejaVuSans-48"/>
      </g>
     </g>
    </g>
    <g id="xtick_7">
     <g id="line2d_7">
      <g>
       <use style="stroke:#000000;stroke-width:0.8;" x="338.876931" xlink:href="#me6b3f40cdb" y="307.584"/>
      </g>
     </g>
     <g id="text_7">
      <!-- 75 -->
      <g transform="translate(332.514431 322.182437)scale(0.1 -0.1)">
       <use xlink:href="#DejaVuSans-55"/>
       <use x="63.623047" xlink:href="#DejaVuSans-53"/>
      </g>
     </g>
    </g>
    <g id="xtick_8">
     <g id="line2d_8">
      <g>
       <use style="stroke:#000000;stroke-width:0.8;" x="379.661732" xlink:href="#me6b3f40cdb" y="307.584"/>
      </g>
     </g>
     <g id="text_8">
      <!-- 100 -->
      <g transform="translate(370.117982 322.182437)scale(0.1 -0.1)">
       <defs>
        <path d="M 12.40625 8.296875 
L 28.515625 8.296875 
L 28.515625 63.921875 
L 10.984375 60.40625 
L 10.984375 69.390625 
L 28.421875 72.90625 
L 38.28125 72.90625 
L 38.28125 8.296875 
L 54.390625 8.296875 
L 54.390625 0 
L 12.40625 0 
z
" id="DejaVuSans-49"/>
       </defs>
       <use xlink:href="#DejaVuSans-49"/>
       <use x="63.623047" xlink:href="#DejaVuSans-48"/>
       <use x="127.246094" xlink:href="#DejaVuSans-48"/>
      </g>
     </g>
    </g>
   </g>
   <g id="matplotlib.axis_2">
    <g id="ytick_1">
     <g id="line2d_9">
      <defs>
       <path d="M 0 0 
L -3.5 0 
" id="mf7aee07796" style="stroke:#000000;stroke-width:0.8;"/>
      </defs>
      <g>
       <use style="stroke:#000000;stroke-width:0.8;" x="57.6" xlink:href="#mf7aee07796" y="295.425218"/>
      </g>
     </g>
     <g id="text_9">
      <!-- 0 -->
      <g transform="translate(44.2375 299.224437)scale(0.1 -0.1)">
       <use xlink:href="#DejaVuSans-48"/>
      </g>
     </g>
    </g>
    <g id="ytick_2">
     <g id="line2d_10">
      <g>
       <use style="stroke:#000000;stroke-width:0.8;" x="57.6" xlink:href="#mf7aee07796" y="262.797377"/>
      </g>
     </g>
     <g id="text_10">
      <!-- 20 -->
      <g transform="translate(37.875 266.596595)scale(0.1 -0.1)">
       <use xlink:href="#DejaVuSans-50"/>
       <use x="63.623047" xlink:href="#DejaVuSans-48"/>
      </g>
     </g>
    </g>
    <g id="ytick_3">
     <g id="line2d_11">
      <g>
       <use style="stroke:#000000;stroke-width:0.8;" x="57.6" xlink:href="#mf7aee07796" y="230.169536"/>
      </g>
     </g>
     <g id="text_11">
      <!-- 40 -->
      <g transform="translate(37.875 233.968754)scale(0.1 -0.1)">
       <defs>
        <path d="M 37.796875 64.3125 
L 12.890625 25.390625 
L 37.796875 25.390625 
z
M 35.203125 72.90625 
L 47.609375 72.90625 
L 47.609375 25.390625 
L 58.015625 25.390625 
L 58.015625 17.1875 
L 47.609375 17.1875 
L 47.609375 0 
L 37.796875 0 
L 37.796875 17.1875 
L 4.890625 17.1875 
L 4.890625 26.703125 
z
" id="DejaVuSans-52"/>
       </defs>
       <use xlink:href="#DejaVuSans-52"/>
       <use x="63.623047" xlink:href="#DejaVuSans-48"/>
      </g>
     </g>
    </g>
    <g id="ytick_4">
     <g id="line2d_12">
      <g>
       <use style="stroke:#000000;stroke-width:0.8;" x="57.6" xlink:href="#mf7aee07796" y="197.541694"/>
      </g>
     </g>
     <g id="text_12">
      <!-- 60 -->
      <g transform="translate(37.875 201.340913)scale(0.1 -0.1)">
       <defs>
        <path d="M 33.015625 40.375 
Q 26.375 40.375 22.484375 35.828125 
Q 18.609375 31.296875 18.609375 23.390625 
Q 18.609375 15.53125 22.484375 10.953125 
Q 26.375 6.390625 33.015625 6.390625 
Q 39.65625 6.390625 43.53125 10.953125 
Q 47.40625 15.53125 47.40625 23.390625 
Q 47.40625 31.296875 43.53125 35.828125 
Q 39.65625 40.375 33.015625 40.375 
z
M 52.59375 71.296875 
L 52.59375 62.3125 
Q 48.875 64.0625 45.09375 64.984375 
Q 41.3125 65.921875 37.59375 65.921875 
Q 27.828125 65.921875 22.671875 59.328125 
Q 17.53125 52.734375 16.796875 39.40625 
Q 19.671875 43.65625 24.015625 45.921875 
Q 28.375 48.1875 33.59375 48.1875 
Q 44.578125 48.1875 50.953125 41.515625 
Q 57.328125 34.859375 57.328125 23.390625 
Q 57.328125 12.15625 50.6875 5.359375 
Q 44.046875 -1.421875 33.015625 -1.421875 
Q 20.359375 -1.421875 13.671875 8.265625 
Q 6.984375 17.96875 6.984375 36.375 
Q 6.984375 53.65625 15.1875 63.9375 
Q 23.390625 74.21875 37.203125 74.21875 
Q 40.921875 74.21875 44.703125 73.484375 
Q 48.484375 72.75 52.59375 71.296875 
z
" id="DejaVuSans-54"/>
       </defs>
       <use xlink:href="#DejaVuSans-54"/>
       <use x="63.623047" xlink:href="#DejaVuSans-48"/>
      </g>
     </g>
    </g>
    <g id="ytick_5">
     <g id="line2d_13">
      <g>
       <use style="stroke:#000000;stroke-width:0.8;" x="57.6" xlink:href="#mf7aee07796" y="164.913853"/>
      </g>
     </g>
     <g id="text_13">
      <!-- 80 -->
      <g transform="translate(37.875 168.713072)scale(0.1 -0.1)">
       <defs>
        <path d="M 31.78125 34.625 
Q 24.75 34.625 20.71875 30.859375 
Q 16.703125 27.09375 16.703125 20.515625 
Q 16.703125 13.921875 20.71875 10.15625 
Q 24.75 6.390625 31.78125 6.390625 
Q 38.8125 6.390625 42.859375 10.171875 
Q 46.921875 13.96875 46.921875 20.515625 
Q 46.921875 27.09375 42.890625 30.859375 
Q 38.875 34.625 31.78125 34.625 
z
M 21.921875 38.8125 
Q 15.578125 40.375 12.03125 44.71875 
Q 8.5 49.078125 8.5 55.328125 
Q 8.5 64.0625 14.71875 69.140625 
Q 20.953125 74.21875 31.78125 74.21875 
Q 42.671875 74.21875 48.875 69.140625 
Q 55.078125 64.0625 55.078125 55.328125 
Q 55.078125 49.078125 51.53125 44.71875 
Q 48 40.375 41.703125 38.8125 
Q 48.828125 37.15625 52.796875 32.3125 
Q 56.78125 27.484375 56.78125 20.515625 
Q 56.78125 9.90625 50.3125 4.234375 
Q 43.84375 -1.421875 31.78125 -1.421875 
Q 19.734375 -1.421875 13.25 4.234375 
Q 6.78125 9.90625 6.78125 20.515625 
Q 6.78125 27.484375 10.78125 32.3125 
Q 14.796875 37.15625 21.921875 38.8125 
z
M 18.3125 54.390625 
Q 18.3125 48.734375 21.84375 45.5625 
Q 25.390625 42.390625 31.78125 42.390625 
Q 38.140625 42.390625 41.71875 45.5625 
Q 45.3125 48.734375 45.3125 54.390625 
Q 45.3125 60.0625 41.71875 63.234375 
Q 38.140625 66.40625 31.78125 66.40625 
Q 25.390625 66.40625 21.84375 63.234375 
Q 18.3125 60.0625 18.3125 54.390625 
z
" id="DejaVuSans-56"/>
       </defs>
       <use xlink:href="#DejaVuSans-56"/>
       <use x="63.623047" xlink:href="#DejaVuSans-48"/>
      </g>
     </g>
    </g>
    <g id="ytick_6">
     <g id="line2d_14">
      <g>
       <use style="stroke:#000000;stroke-width:0.8;" x="57.6" xlink:href="#mf7aee07796" y="132.286012"/>
      </g>
     </g>
     <g id="text_14">
      <!-- 100 -->
      <g transform="translate(31.5125 136.085231)scale(0.1 -0.1)">
       <use xlink:href="#DejaVuSans-49"/>
       <use x="63.623047" xlink:href="#DejaVuSans-48"/>
       <use x="127.246094" xlink:href="#DejaVuSans-48"/>
      </g>
     </g>
    </g>
    <g id="ytick_7">
     <g id="line2d_15">
      <g>
       <use style="stroke:#000000;stroke-width:0.8;" x="57.6" xlink:href="#mf7aee07796" y="99.658171"/>
      </g>
     </g>
     <g id="text_15">
      <!-- 120 -->
      <g transform="translate(31.5125 103.45739)scale(0.1 -0.1)">
       <use xlink:href="#DejaVuSans-49"/>
       <use x="63.623047" xlink:href="#DejaVuSans-50"/>
       <use x="127.246094" xlink:href="#DejaVuSans-48"/>
      </g>
     </g>
    </g>
    <g id="ytick_8">
     <g id="line2d_16">
      <g>
       <use style="stroke:#000000;stroke-width:0.8;" x="57.6" xlink:href="#mf7aee07796" y="67.03033"/>
      </g>
     </g>
     <g id="text_16">
      <!-- 140 -->
      <g transform="translate(31.5125 70.829548)scale(0.1 -0.1)">
       <use xlink:href="#DejaVuSans-49"/>
       <use x="63.623047" xlink:href="#DejaVuSans-52"/>
       <use x="127.246094" xlink:href="#DejaVuSans-48"/>
      </g>
     </g>
    </g>
   </g>
   <g id="line2d_17">
    <path clip-path="url(#p9c9c4746ee)" d="M 216.522526 295.425218 
L 216.812993 276.108636 
L 217.208648 250.325299 
L 216.903856 243.76695 
L 216.277519 232.802431 
L 216.192673 228.464135 
L 216.30902 224.183529 
L 216.697571 219.980977 
L 217.429335 215.876839 
L 217.946112 213.868038 
L 219.30828 209.946442 
L 221.058511 206.138837 
L 223.121483 202.422372 
L 225.421873 198.774194 
L 229.152845 193.379976 
L 235.491137 184.40731 
L 237.848763 180.757784 
L 240.009737 177.039056 
L 243.036813 171.326087 
L 251.852538 154.021316 
L 253.988745 150.311399 
L 256.267454 146.707978 
L 258.724702 143.237449 
L 260.084565 141.570681 
L 261.590505 139.960903 
L 264.949892 136.883769 
L 268.621419 133.948948 
L 277.975139 126.859821 
L 281.310301 123.973459 
L 282.80009 122.490862 
L 284.141112 120.972473 
L 285.310685 119.411153 
L 286.28613 117.799765 
L 287.044765 116.131173 
L 287.563912 114.398239 
L 287.871303 112.575792 
L 288.015391 110.652713 
L 288.00457 108.642942 
L 287.847236 106.560423 
L 287.551786 104.419096 
L 287.126613 102.232903 
L 285.920686 97.781687 
L 284.296619 93.318308 
L 282.321577 88.954298 
L 280.062725 84.801192 
L 277.587226 80.970521 
L 274.962245 77.57382 
L 273.614688 76.073062 
L 272.197639 74.66808 
L 269.02086 72.003829 
L 265.452333 69.551795 
L 261.570255 67.333495 
L 257.452819 65.37045 
L 253.178219 63.684176 
L 248.824651 62.296193 
L 244.470309 61.228018 
L 240.193387 60.501172 
L 236.07208 60.137171 
L 231.915111 60.132664 
L 227.541487 60.463935 
L 223.04483 61.121959 
L 218.518763 62.09771 
L 214.056907 63.382162 
L 209.752887 64.966289 
L 205.700322 66.841066 
L 201.992836 68.997467 
L 200.297755 70.178455 
L 198.724052 71.426465 
L 197.283429 72.740368 
L 195.981169 74.156562 
L 194.807508 75.704697 
L 193.751584 77.373514 
L 192.802534 79.151761 
L 191.949496 81.02818 
L 190.488006 85.030516 
L 189.280214 89.290478 
L 187.754112 95.9665 
L 185.796181 104.929147 
L 184.654634 109.234137 
L 184.005197 111.303155 
L 184.005197 111.303155 
" style="fill:none;stroke:#fea952;stroke-linecap:square;"/>
   </g>
   <g id="line2d_18">
    <path clip-path="url(#p9c9c4746ee)" d="M 209.99726 295.362436 
L 210.288682 275.980556 
L 210.686941 250.549734 
L 210.390965 244.173513 
L 209.754697 232.991763 
L 209.667682 228.377329 
L 209.801133 223.703482 
L 210.248237 218.986427 
L 210.620621 216.618908 
L 211.109542 214.25103 
L 211.726812 211.89235 
L 212.468949 209.586863 
L 213.321595 207.34978 
L 215.30159 203.066231 
L 217.561673 199.006006 
L 220.008848 195.129718 
L 223.847171 189.580915 
L 230.046645 180.810013 
L 232.24458 177.414707 
L 234.280985 173.914246 
L 237.213681 168.380891 
L 246.168358 150.816142 
L 248.433017 146.8884 
L 250.887972 143.01417 
L 253.668463 139.112223 
L 255.319156 137.112664 
L 257.077724 135.247322 
L 260.813832 131.836388 
L 264.688877 128.741439 
L 275.329627 120.576462 
L 277.908996 118.171113 
L 279.728262 116.031863 
L 280.793677 114.258493 
L 281.129233 113.312905 
L 281.363975 112.088228 
L 281.489917 110.687846 
L 281.497545 109.134545 
L 281.382909 107.452342 
L 280.790685 103.79465 
L 279.745268 99.890538 
L 278.303013 95.898952 
L 276.533114 91.967061 
L 274.514157 88.235785 
L 272.335888 84.844343 
L 270.106804 81.933606 
L 267.874263 79.555969 
L 265.20602 77.298169 
L 262.104309 75.153025 
L 258.657257 73.172801 
L 254.955852 71.399396 
L 251.092401 69.867412 
L 247.160672 68.606043 
L 243.256958 67.639791 
L 239.481871 66.987834 
L 235.929229 66.661175 
L 232.288832 66.647522 
L 228.376159 66.935903 
L 224.312864 67.523141 
L 220.214797 68.39902 
L 216.194996 69.547518 
L 212.365566 70.946001 
L 208.838327 72.562601 
L 205.72319 74.35167 
L 203.121399 76.247915 
L 201.181302 78.098853 
L 200.321916 79.193871 
L 199.508562 80.446012 
L 198.74305 81.852375 
L 197.359522 85.093044 
L 196.161214 88.82223 
L 195.108538 92.930973 
L 190.880695 111.188416 
L 190.231258 113.257434 
L 190.231258 113.257434 
" style="fill:none;stroke:#ffffff;stroke-linecap:square;"/>
   </g>
   <g id="line2d_19">
    <path clip-path="url(#p9c9c4746ee)" d="M 223.047793 295.488 
L 223.337304 276.236717 
L 223.769796 252.382859 
L 223.54407 245.587694 
L 222.739624 230.561851 
L 222.741305 226.58376 
L 222.950322 222.793352 
L 223.411606 219.211758 
L 224.165413 215.843726 
L 225.294964 212.543104 
L 226.815431 209.211443 
L 228.681293 205.838738 
L 230.834897 202.41867 
L 234.458519 197.179037 
L 240.93563 188.004607 
L 243.452947 184.100862 
L 245.738489 180.163866 
L 248.859944 174.271283 
L 257.536718 157.22649 
L 259.544474 153.734398 
L 261.646936 150.401786 
L 263.780941 147.362675 
L 264.849974 146.028698 
L 266.103286 144.674485 
L 269.085952 141.931149 
L 272.553961 139.156458 
L 282.152164 131.873354 
L 285.913395 128.598885 
L 287.691185 126.810612 
L 289.36384 124.88478 
L 290.893108 122.790442 
L 292.22654 120.50061 
L 293.295854 118.003853 
L 293.998591 115.483574 
L 294.378631 113.063356 
L 294.540864 110.617579 
L 294.511594 108.151339 
L 294.311563 105.668504 
L 293.95734 103.173339 
L 293.462542 100.671157 
L 292.838742 98.168456 
L 291.243792 93.19282 
L 289.24322 88.317174 
L 286.897384 83.621171 
L 284.25698 79.188316 
L 281.358644 75.101938 
L 279.817686 73.214034 
L 278.209189 71.439101 
L 276.521016 69.780191 
L 274.72659 68.204783 
L 272.8357 66.709489 
L 268.800357 63.950565 
L 264.483253 61.49419 
L 259.949786 59.341503 
L 255.264037 57.50094 
L 250.488631 55.986342 
L 245.68366 54.816246 
L 240.904904 54.01451 
L 236.214932 53.613166 
L 231.54139 53.617806 
L 226.706815 53.991968 
L 221.776796 54.720777 
L 216.822728 55.7964 
L 211.918819 57.216806 
L 207.140207 58.986578 
L 202.562317 61.119531 
L 200.372606 62.330124 
L 198.262482 63.643263 
L 196.243 65.06553 
L 194.326705 66.605015 
L 192.479982 68.323362 
L 190.781035 70.214272 
L 189.293099 72.215522 
L 187.994605 74.301017 
L 186.862018 76.451147 
L 185.872215 78.651271 
L 184.236955 83.15771 
L 182.940298 87.744998 
L 181.369044 94.619675 
L 179.468217 103.335438 
L 178.428573 107.279858 
L 177.779136 109.348876 
L 177.779136 109.348876 
" style="fill:none;stroke:#ffffff;stroke-linecap:square;"/>
   </g>
   <g id="patch_3">
    <path d="M 57.6 307.584 
L 57.6 41.472 
" style="fill:none;stroke:#000000;stroke-linecap:square;stroke-linejoin:miter;stroke-width:0.8;"/>
   </g>
   <g id="patch_4">
    <path d="M 414.72 307.584 
L 414.72 41.472 
" style="fill:none;stroke:#000000;stroke-linecap:square;stroke-linejoin:miter;stroke-width:0.8;"/>
   </g>
   <g id="patch_5">
    <path d="M 57.6 307.584 
L 414.72 307.584 
" style="fill:none;stroke:#000000;stroke-linecap:square;stroke-linejoin:miter;stroke-width:0.8;"/>
   </g>
   <g id="patch_6">
    <path d="M 57.6 41.472 
L 414.72 41.472 
" style="fill:none;stroke:#000000;stroke-linecap:square;stroke-linejoin:miter;stroke-width:0.8;"/>
   </g>
  </g>
 </g>
 <defs>
  <clipPath id="p9c9c4746ee">
   <rect height="266.112" width="357.12" x="57.6" y="41.472"/>
  </clipPath>
 </defs>
</svg>
