<?xml version="1.0" encoding="utf-8" standalone="no"?>
<!DOCTYPE svg PUBLIC "-//W3C//DTD SVG 1.1//EN"
  "http://www.w3.org/Graphics/SVG/1.1/DTD/svg11.dtd">
<!-- Created with matplotlib (https://matplotlib.org/) -->
<svg height="345.6pt" version="1.1" viewBox="0 0 460.8 345.6" width="460.8pt" xmlns="http://www.w3.org/2000/svg" xmlns:xlink="http://www.w3.org/1999/xlink">
 <metadata>
  <rdf:RDF xmlns:cc="http://creativecommons.org/ns#" xmlns:dc="http://purl.org/dc/elements/1.1/" xmlns:rdf="http://www.w3.org/1999/02/22-rdf-syntax-ns#">
   <cc:Work>
    <dc:type rdf:resource="http://purl.org/dc/dcmitype/StillImage"/>
    <dc:date>2021-06-20T08:47:14.188986</dc:date>
    <dc:format>image/svg+xml</dc:format>
    <dc:creator>
     <cc:Agent>
      <dc:title>Matplotlib v3.3.3, https://matplotlib.org/</dc:title>
     </cc:Agent>
    </dc:creator>
   </cc:Work>
  </rdf:RDF>
 </metadata>
 <defs>
  <style type="text/css">*{stroke-linecap:butt;stroke-linejoin:round;}</style>
 </defs>
 <g id="figure_1">
  <g id="patch_1">
   <path d="M 0 345.6 
L 460.8 345.6 
L 460.8 0 
L 0 0 
z
" style="fill:#ffffff;"/>
  </g>
  <g id="axes_1">
   <g id="patch_2">
    <path d="M 57.6 307.584 
L 414.72 307.584 
L 414.72 41.472 
L 57.6 41.472 
z
" style="fill:#7d9051;"/>
   </g>
   <g id="matplotlib.axis_1">
    <g id="xtick_1">
     <g id="line2d_1">
      <defs>
       <path d="M 0 0 
L 0 3.5 
" id="mdba539d901" style="stroke:#000000;stroke-width:0.8;"/>
      </defs>
      <g>
       <use style="stroke:#000000;stroke-width:0.8;" x="112.373427" xlink:href="#mdba539d901" y="307.584"/>
      </g>
     </g>
     <g id="text_1">
      <!-- −100 -->
      <g transform="translate(98.639833 322.182437)scale(0.1 -0.1)">
       <defs>
        <path d="M 10.59375 35.5 
L 73.1875 35.5 
L 73.1875 27.203125 
L 10.59375 27.203125 
z
" id="DejaVuSans-8722"/>
        <path d="M 12.40625 8.296875 
L 28.515625 8.296875 
L 28.515625 63.921875 
L 10.984375 60.40625 
L 10.984375 69.390625 
L 28.421875 72.90625 
L 38.28125 72.90625 
L 38.28125 8.296875 
L 54.390625 8.296875 
L 54.390625 0 
L 12.40625 0 
z
" id="DejaVuSans-49"/>
        <path d="M 31.78125 66.40625 
Q 24.171875 66.40625 20.328125 58.90625 
Q 16.5 51.421875 16.5 36.375 
Q 16.5 21.390625 20.328125 13.890625 
Q 24.171875 6.390625 31.78125 6.390625 
Q 39.453125 6.390625 43.28125 13.890625 
Q 47.125 21.390625 47.125 36.375 
Q 47.125 51.421875 43.28125 58.90625 
Q 39.453125 66.40625 31.78125 66.40625 
z
M 31.78125 74.21875 
Q 44.046875 74.21875 50.515625 64.515625 
Q 56.984375 54.828125 56.984375 36.375 
Q 56.984375 17.96875 50.515625 8.265625 
Q 44.046875 -1.421875 31.78125 -1.421875 
Q 19.53125 -1.421875 13.0625 8.265625 
Q 6.59375 17.96875 6.59375 36.375 
Q 6.59375 54.828125 13.0625 64.515625 
Q 19.53125 74.21875 31.78125 74.21875 
z
" id="DejaVuSans-48"/>
       </defs>
       <use xlink:href="#DejaVuSans-8722"/>
       <use x="83.789062" xlink:href="#DejaVuSans-49"/>
       <use x="147.412109" xlink:href="#DejaVuSans-48"/>
       <use x="211.035156" xlink:href="#DejaVuSans-48"/>
      </g>
     </g>
    </g>
    <g id="xtick_2">
     <g id="line2d_2">
      <g>
       <use style="stroke:#000000;stroke-width:0.8;" x="184.399051" xlink:href="#mdba539d901" y="307.584"/>
      </g>
     </g>
     <g id="text_2">
      <!-- −50 -->
      <g transform="translate(173.846707 322.182437)scale(0.1 -0.1)">
       <defs>
        <path d="M 10.796875 72.90625 
L 49.515625 72.90625 
L 49.515625 64.59375 
L 19.828125 64.59375 
L 19.828125 46.734375 
Q 21.96875 47.46875 24.109375 47.828125 
Q 26.265625 48.1875 28.421875 48.1875 
Q 40.625 48.1875 47.75 41.5 
Q 54.890625 34.8125 54.890625 23.390625 
Q 54.890625 11.625 47.5625 5.09375 
Q 40.234375 -1.421875 26.90625 -1.421875 
Q 22.3125 -1.421875 17.546875 -0.640625 
Q 12.796875 0.140625 7.71875 1.703125 
L 7.71875 11.625 
Q 12.109375 9.234375 16.796875 8.0625 
Q 21.484375 6.890625 26.703125 6.890625 
Q 35.15625 6.890625 40.078125 11.328125 
Q 45.015625 15.765625 45.015625 23.390625 
Q 45.015625 31 40.078125 35.4375 
Q 35.15625 39.890625 26.703125 39.890625 
Q 22.75 39.890625 18.8125 39.015625 
Q 14.890625 38.140625 10.796875 36.28125 
z
" id="DejaVuSans-53"/>
       </defs>
       <use xlink:href="#DejaVuSans-8722"/>
       <use x="83.789062" xlink:href="#DejaVuSans-53"/>
       <use x="147.412109" xlink:href="#DejaVuSans-48"/>
      </g>
     </g>
    </g>
    <g id="xtick_3">
     <g id="line2d_3">
      <g>
       <use style="stroke:#000000;stroke-width:0.8;" x="256.424674" xlink:href="#mdba539d901" y="307.584"/>
      </g>
     </g>
     <g id="text_3">
      <!-- 0 -->
      <g transform="translate(253.243424 322.182437)scale(0.1 -0.1)">
       <use xlink:href="#DejaVuSans-48"/>
      </g>
     </g>
    </g>
    <g id="xtick_4">
     <g id="line2d_4">
      <g>
       <use style="stroke:#000000;stroke-width:0.8;" x="328.450298" xlink:href="#mdba539d901" y="307.584"/>
      </g>
     </g>
     <g id="text_4">
      <!-- 50 -->
      <g transform="translate(322.087798 322.182437)scale(0.1 -0.1)">
       <use xlink:href="#DejaVuSans-53"/>
       <use x="63.623047" xlink:href="#DejaVuSans-48"/>
      </g>
     </g>
    </g>
    <g id="xtick_5">
     <g id="line2d_5">
      <g>
       <use style="stroke:#000000;stroke-width:0.8;" x="400.475922" xlink:href="#mdba539d901" y="307.584"/>
      </g>
     </g>
     <g id="text_5">
      <!-- 100 -->
      <g transform="translate(390.932172 322.182437)scale(0.1 -0.1)">
       <use xlink:href="#DejaVuSans-49"/>
       <use x="63.623047" xlink:href="#DejaVuSans-48"/>
       <use x="127.246094" xlink:href="#DejaVuSans-48"/>
      </g>
     </g>
    </g>
   </g>
   <g id="matplotlib.axis_2">
    <g id="ytick_1">
     <g id="line2d_6">
      <defs>
       <path d="M 0 0 
L -3.5 0 
" id="m4fe88cf82a" style="stroke:#000000;stroke-width:0.8;"/>
      </defs>
      <g>
       <use style="stroke:#000000;stroke-width:0.8;" x="57.6" xlink:href="#m4fe88cf82a" y="295.432564"/>
      </g>
     </g>
     <g id="text_6">
      <!-- 0 -->
      <g transform="translate(44.2375 299.231782)scale(0.1 -0.1)">
       <use xlink:href="#DejaVuSans-48"/>
      </g>
     </g>
    </g>
    <g id="ytick_2">
     <g id="line2d_7">
      <g>
       <use style="stroke:#000000;stroke-width:0.8;" x="57.6" xlink:href="#m4fe88cf82a" y="259.419752"/>
      </g>
     </g>
     <g id="text_7">
      <!-- 25 -->
      <g transform="translate(37.875 263.218971)scale(0.1 -0.1)">
       <defs>
        <path d="M 19.1875 8.296875 
L 53.609375 8.296875 
L 53.609375 0 
L 7.328125 0 
L 7.328125 8.296875 
Q 12.9375 14.109375 22.625 23.890625 
Q 32.328125 33.6875 34.8125 36.53125 
Q 39.546875 41.84375 41.421875 45.53125 
Q 43.3125 49.21875 43.3125 52.78125 
Q 43.3125 58.59375 39.234375 62.25 
Q 35.15625 65.921875 28.609375 65.921875 
Q 23.96875 65.921875 18.8125 64.3125 
Q 13.671875 62.703125 7.8125 59.421875 
L 7.8125 69.390625 
Q 13.765625 71.78125 18.9375 73 
Q 24.125 74.21875 28.421875 74.21875 
Q 39.75 74.21875 46.484375 68.546875 
Q 53.21875 62.890625 53.21875 53.421875 
Q 53.21875 48.921875 51.53125 44.890625 
Q 49.859375 40.875 45.40625 35.40625 
Q 44.1875 33.984375 37.640625 27.21875 
Q 31.109375 20.453125 19.1875 8.296875 
z
" id="DejaVuSans-50"/>
       </defs>
       <use xlink:href="#DejaVuSans-50"/>
       <use x="63.623047" xlink:href="#DejaVuSans-53"/>
      </g>
     </g>
    </g>
    <g id="ytick_3">
     <g id="line2d_8">
      <g>
       <use style="stroke:#000000;stroke-width:0.8;" x="57.6" xlink:href="#m4fe88cf82a" y="223.40694"/>
      </g>
     </g>
     <g id="text_8">
      <!-- 50 -->
      <g transform="translate(37.875 227.206159)scale(0.1 -0.1)">
       <use xlink:href="#DejaVuSans-53"/>
       <use x="63.623047" xlink:href="#DejaVuSans-48"/>
      </g>
     </g>
    </g>
    <g id="ytick_4">
     <g id="line2d_9">
      <g>
       <use style="stroke:#000000;stroke-width:0.8;" x="57.6" xlink:href="#m4fe88cf82a" y="187.394128"/>
      </g>
     </g>
     <g id="text_9">
      <!-- 75 -->
      <g transform="translate(37.875 191.193347)scale(0.1 -0.1)">
       <defs>
        <path d="M 8.203125 72.90625 
L 55.078125 72.90625 
L 55.078125 68.703125 
L 28.609375 0 
L 18.3125 0 
L 43.21875 64.59375 
L 8.203125 64.59375 
z
" id="DejaVuSans-55"/>
       </defs>
       <use xlink:href="#DejaVuSans-55"/>
       <use x="63.623047" xlink:href="#DejaVuSans-53"/>
      </g>
     </g>
    </g>
    <g id="ytick_5">
     <g id="line2d_10">
      <g>
       <use style="stroke:#000000;stroke-width:0.8;" x="57.6" xlink:href="#m4fe88cf82a" y="151.381316"/>
      </g>
     </g>
     <g id="text_10">
      <!-- 100 -->
      <g transform="translate(31.5125 155.180535)scale(0.1 -0.1)">
       <use xlink:href="#DejaVuSans-49"/>
       <use x="63.623047" xlink:href="#DejaVuSans-48"/>
       <use x="127.246094" xlink:href="#DejaVuSans-48"/>
      </g>
     </g>
    </g>
    <g id="ytick_6">
     <g id="line2d_11">
      <g>
       <use style="stroke:#000000;stroke-width:0.8;" x="57.6" xlink:href="#m4fe88cf82a" y="115.368504"/>
      </g>
     </g>
     <g id="text_11">
      <!-- 125 -->
      <g transform="translate(31.5125 119.167723)scale(0.1 -0.1)">
       <use xlink:href="#DejaVuSans-49"/>
       <use x="63.623047" xlink:href="#DejaVuSans-50"/>
       <use x="127.246094" xlink:href="#DejaVuSans-53"/>
      </g>
     </g>
    </g>
    <g id="ytick_7">
     <g id="line2d_12">
      <g>
       <use style="stroke:#000000;stroke-width:0.8;" x="57.6" xlink:href="#m4fe88cf82a" y="79.355692"/>
      </g>
     </g>
     <g id="text_12">
      <!-- 150 -->
      <g transform="translate(31.5125 83.154911)scale(0.1 -0.1)">
       <use xlink:href="#DejaVuSans-49"/>
       <use x="63.623047" xlink:href="#DejaVuSans-53"/>
       <use x="127.246094" xlink:href="#DejaVuSans-48"/>
      </g>
     </g>
    </g>
    <g id="ytick_8">
     <g id="line2d_13">
      <g>
       <use style="stroke:#000000;stroke-width:0.8;" x="57.6" xlink:href="#m4fe88cf82a" y="43.342881"/>
      </g>
     </g>
     <g id="text_13">
      <!-- 175 -->
      <g transform="translate(31.5125 47.142099)scale(0.1 -0.1)">
       <use xlink:href="#DejaVuSans-49"/>
       <use x="63.623047" xlink:href="#DejaVuSans-55"/>
       <use x="127.246094" xlink:href="#DejaVuSans-53"/>
      </g>
     </g>
    </g>
   </g>
   <g id="line2d_14">
    <path clip-path="url(#pae57a0949b)" d="M 256.424674 295.432564 
L 256.681155 278.376102 
L 257.054821 253.725283 
L 256.795936 234.68593 
L 257.061911 229.025481 
L 257.42901 225.280212 
L 258.274123 219.68446 
L 259.317265 214.04952 
L 260.576742 208.42377 
L 262.087361 202.864481 
L 263.883927 197.428924 
L 265.257684 193.902241 
L 266.78431 190.472973 
L 268.537165 187.163692 
L 269.619802 185.567025 
L 272.156214 182.476231 
L 275.037824 179.493997 
L 283.957985 170.860709 
L 286.424532 167.97477 
L 287.461757 166.511258 
L 288.338351 165.028418 
L 289.031867 163.522026 
L 289.519857 161.987858 
L 289.779872 160.42169 
L 289.838019 158.789642 
L 289.74121 157.070371 
L 289.4982 155.278455 
L 289.117748 153.428473 
L 287.979547 149.612624 
L 286.396664 145.739455 
L 284.439158 141.925593 
L 282.177089 138.287668 
L 279.680515 134.942309 
L 277.019494 132.006144 
L 275.64921 130.727957 
L 274.264087 129.595804 
L 272.872881 128.624265 
L 271.430104 127.819394 
L 269.889997 127.168625 
L 268.260911 126.6586 
L 266.551197 126.275961 
L 262.923297 125.83941 
L 259.073108 125.752112 
L 255.067446 125.907204 
L 240.787897 126.816053 
L 236.909423 126.7395 
L 233.003303 126.658824 
L 228.909908 126.807057 
L 216.372387 127.53662 
L 212.3962 127.511902 
L 208.66589 127.171802 
L 206.920011 126.849466 
L 205.268087 126.407462 
L 203.720948 125.832183 
L 202.289422 125.110023 
L 200.984337 124.227373 
L 199.808186 123.175619 
L 198.750073 121.964189 
L 197.800744 120.606537 
L 196.950947 119.116118 
L 196.191429 117.506386 
L 194.906217 113.982808 
L 193.871084 110.14344 
L 193.012007 106.095924 
L 190.322946 91.844484 
L 187.62526 80.776892 
L 185.699991 71.494842 
L 182.368281 54.751308 
L 182.368281 54.751308 
" style="fill:none;stroke:#fea952;stroke-linecap:square;"/>
   </g>
   <g id="line2d_15">
    <path clip-path="url(#pae57a0949b)" d="M 250.662891 295.377127 
L 250.920215 278.263007 
L 251.293583 253.822033 
L 251.03642 234.51505 
L 251.321192 228.530143 
L 251.719279 224.505493 
L 252.597079 218.698362 
L 253.677888 212.866875 
L 254.992483 207.003463 
L 256.582465 201.162324 
L 257.817022 197.307388 
L 259.207109 193.50279 
L 260.766971 189.765301 
L 262.597234 185.955577 
L 263.768076 183.929962 
L 265.071035 182.030086 
L 266.474845 180.237369 
L 269.481158 176.908844 
L 274.140837 172.386 
L 278.432515 168.284969 
L 280.774963 165.792326 
L 282.501599 163.579014 
L 283.540902 161.775454 
L 283.835611 161.044161 
L 284.021476 160.216527 
L 284.085083 159.113582 
L 284.031426 157.8447 
L 283.553348 154.92469 
L 282.597242 151.66981 
L 281.21677 148.263324 
L 279.484571 144.86724 
L 277.484767 141.631817 
L 275.313971 138.701899 
L 273.089166 136.219663 
L 270.965022 134.319933 
L 269.187362 133.127061 
L 268.168444 132.667487 
L 267.002477 132.28155 
L 264.247137 131.7457 
L 261.002086 131.520799 
L 257.374024 131.560861 
L 251.427018 131.941972 
L 242.952484 132.517856 
L 238.601768 132.571938 
L 233.151817 132.41896 
L 229.256512 132.558672 
L 216.430366 133.298378 
L 212.021737 133.261772 
L 209.818259 133.110262 
L 207.619741 132.838088 
L 205.430656 132.415707 
L 203.259896 131.808238 
L 201.125705 130.976688 
L 199.061397 129.882975 
L 197.143433 128.522565 
L 195.468451 126.966123 
L 194.027938 125.266107 
L 192.795179 123.460575 
L 191.739831 121.574874 
L 190.833202 119.625494 
L 189.369819 115.579526 
L 188.247128 111.397367 
L 187.348087 107.154807 
L 184.733182 93.242966 
L 181.995091 82.002625 
L 180.046151 72.606285 
L 176.729044 55.934616 
L 176.729044 55.934616 
" style="fill:none;stroke:#ffffff;stroke-linecap:square;"/>
   </g>
   <g id="line2d_16">
    <path clip-path="url(#pae57a0949b)" d="M 262.186458 295.488 
L 262.479254 276.596338 
L 262.835033 255.572289 
L 262.646606 245.962233 
L 262.528298 236.669833 
L 262.689233 231.28169 
L 262.951405 227.778437 
L 263.376669 224.294547 
L 264.600825 217.042342 
L 265.735677 211.630798 
L 267.088322 206.30976 
L 268.68528 201.139598 
L 269.897574 197.806142 
L 271.235516 194.583439 
L 272.619108 191.64477 
L 273.306253 190.397423 
L 274.168569 189.103964 
L 276.359543 186.417454 
L 279.03876 183.640529 
L 288.24479 174.710972 
L 289.723288 173.054032 
L 291.125642 171.306554 
L 292.421915 169.443501 
L 293.572359 167.438062 
L 294.522833 165.268598 
L 295.204103 162.931556 
L 295.538268 160.626853 
L 295.590956 158.465702 
L 295.450994 156.296042 
L 295.142137 154.11777 
L 294.682149 151.932256 
L 294.084912 149.74298 
L 293.361851 147.555438 
L 291.576557 143.215585 
L 289.393745 138.983946 
L 286.869411 134.943519 
L 284.047058 131.182719 
L 282.532541 129.435503 
L 280.949823 127.792626 
L 279.295777 126.266593 
L 277.563152 124.871676 
L 275.680044 123.592261 
L 273.672847 122.511728 
L 271.61155 121.669764 
L 269.519345 121.03565 
L 267.410047 120.578277 
L 265.291281 120.269 
L 261.041539 119.996767 
L 256.797047 120.051214 
L 250.519229 120.453682 
L 242.619025 120.998582 
L 239.050904 121.056593 
L 232.854788 120.898689 
L 228.563305 121.055441 
L 214.490978 121.796342 
L 211.171533 121.665896 
L 208.409366 121.283225 
L 206.316191 120.687678 
L 204.825241 119.932181 
L 204.147921 119.385116 
L 203.472207 118.662271 
L 202.80631 117.752498 
L 202.162064 116.657361 
L 200.97561 113.957652 
L 199.950119 110.690758 
L 199.072425 106.99951 
L 197.930878 100.955342 
L 196.377169 92.537531 
L 195.429409 88.515742 
L 193.662446 81.361963 
L 191.721437 72.23072 
L 188.007519 53.568 
L 188.007519 53.568 
" style="fill:none;stroke:#ffffff;stroke-linecap:square;"/>
   </g>
   <g id="patch_3">
    <path d="M 57.6 307.584 
L 57.6 41.472 
" style="fill:none;stroke:#000000;stroke-linecap:square;stroke-linejoin:miter;stroke-width:0.8;"/>
   </g>
   <g id="patch_4">
    <path d="M 414.72 307.584 
L 414.72 41.472 
" style="fill:none;stroke:#000000;stroke-linecap:square;stroke-linejoin:miter;stroke-width:0.8;"/>
   </g>
   <g id="patch_5">
    <path d="M 57.6 307.584 
L 414.72 307.584 
" style="fill:none;stroke:#000000;stroke-linecap:square;stroke-linejoin:miter;stroke-width:0.8;"/>
   </g>
   <g id="patch_6">
    <path d="M 57.6 41.472 
L 414.72 41.472 
" style="fill:none;stroke:#000000;stroke-linecap:square;stroke-linejoin:miter;stroke-width:0.8;"/>
   </g>
  </g>
 </g>
 <defs>
  <clipPath id="pae57a0949b">
   <rect height="266.112" width="357.12" x="57.6" y="41.472"/>
  </clipPath>
 </defs>
</svg>
