<?xml version="1.0" encoding="utf-8" standalone="no"?>
<!DOCTYPE svg PUBLIC "-//W3C//DTD SVG 1.1//EN"
  "http://www.w3.org/Graphics/SVG/1.1/DTD/svg11.dtd">
<!-- Created with matplotlib (https://matplotlib.org/) -->
<svg height="345.6pt" version="1.1" viewBox="0 0 460.8 345.6" width="460.8pt" xmlns="http://www.w3.org/2000/svg" xmlns:xlink="http://www.w3.org/1999/xlink">
 <metadata>
  <rdf:RDF xmlns:cc="http://creativecommons.org/ns#" xmlns:dc="http://purl.org/dc/elements/1.1/" xmlns:rdf="http://www.w3.org/1999/02/22-rdf-syntax-ns#">
   <cc:Work>
    <dc:type rdf:resource="http://purl.org/dc/dcmitype/StillImage"/>
    <dc:date>2021-05-26T13:08:51.458990</dc:date>
    <dc:format>image/svg+xml</dc:format>
    <dc:creator>
     <cc:Agent>
      <dc:title>Matplotlib v3.3.3, https://matplotlib.org/</dc:title>
     </cc:Agent>
    </dc:creator>
   </cc:Work>
  </rdf:RDF>
 </metadata>
 <defs>
  <style type="text/css">*{stroke-linecap:butt;stroke-linejoin:round;}</style>
 </defs>
 <g id="figure_1">
  <g id="patch_1">
   <path d="M 0 345.6 
L 460.8 345.6 
L 460.8 0 
L 0 0 
z
" style="fill:#ffffff;"/>
  </g>
  <g id="axes_1">
   <g id="patch_2">
    <path d="M 57.6 307.584 
L 414.72 307.584 
L 414.72 41.472 
L 57.6 41.472 
z
" style="fill:#7d9051;"/>
   </g>
   <g id="matplotlib.axis_1">
    <g id="xtick_1">
     <g id="line2d_1">
      <defs>
       <path d="M 0 0 
L 0 3.5 
" id="m1438118a61" style="stroke:#000000;stroke-width:0.8;"/>
      </defs>
      <g>
       <use style="stroke:#000000;stroke-width:0.8;" x="107.825916" xlink:href="#m1438118a61" y="307.584"/>
      </g>
     </g>
     <g id="text_1">
      <!-- −100 -->
      <g transform="translate(94.092322 322.182437)scale(0.1 -0.1)">
       <defs>
        <path d="M 10.59375 35.5 
L 73.1875 35.5 
L 73.1875 27.203125 
L 10.59375 27.203125 
z
" id="DejaVuSans-8722"/>
        <path d="M 12.40625 8.296875 
L 28.515625 8.296875 
L 28.515625 63.921875 
L 10.984375 60.40625 
L 10.984375 69.390625 
L 28.421875 72.90625 
L 38.28125 72.90625 
L 38.28125 8.296875 
L 54.390625 8.296875 
L 54.390625 0 
L 12.40625 0 
z
" id="DejaVuSans-49"/>
        <path d="M 31.78125 66.40625 
Q 24.171875 66.40625 20.328125 58.90625 
Q 16.5 51.421875 16.5 36.375 
Q 16.5 21.390625 20.328125 13.890625 
Q 24.171875 6.390625 31.78125 6.390625 
Q 39.453125 6.390625 43.28125 13.890625 
Q 47.125 21.390625 47.125 36.375 
Q 47.125 51.421875 43.28125 58.90625 
Q 39.453125 66.40625 31.78125 66.40625 
z
M 31.78125 74.21875 
Q 44.046875 74.21875 50.515625 64.515625 
Q 56.984375 54.828125 56.984375 36.375 
Q 56.984375 17.96875 50.515625 8.265625 
Q 44.046875 -1.421875 31.78125 -1.421875 
Q 19.53125 -1.421875 13.0625 8.265625 
Q 6.59375 17.96875 6.59375 36.375 
Q 6.59375 54.828125 13.0625 64.515625 
Q 19.53125 74.21875 31.78125 74.21875 
z
" id="DejaVuSans-48"/>
       </defs>
       <use xlink:href="#DejaVuSans-8722"/>
       <use x="83.789062" xlink:href="#DejaVuSans-49"/>
       <use x="147.412109" xlink:href="#DejaVuSans-48"/>
       <use x="211.035156" xlink:href="#DejaVuSans-48"/>
      </g>
     </g>
    </g>
    <g id="xtick_2">
     <g id="line2d_2">
      <g>
       <use style="stroke:#000000;stroke-width:0.8;" x="178.166433" xlink:href="#m1438118a61" y="307.584"/>
      </g>
     </g>
     <g id="text_2">
      <!-- −50 -->
      <g transform="translate(167.614089 322.182437)scale(0.1 -0.1)">
       <defs>
        <path d="M 10.796875 72.90625 
L 49.515625 72.90625 
L 49.515625 64.59375 
L 19.828125 64.59375 
L 19.828125 46.734375 
Q 21.96875 47.46875 24.109375 47.828125 
Q 26.265625 48.1875 28.421875 48.1875 
Q 40.625 48.1875 47.75 41.5 
Q 54.890625 34.8125 54.890625 23.390625 
Q 54.890625 11.625 47.5625 5.09375 
Q 40.234375 -1.421875 26.90625 -1.421875 
Q 22.3125 -1.421875 17.546875 -0.640625 
Q 12.796875 0.140625 7.71875 1.703125 
L 7.71875 11.625 
Q 12.109375 9.234375 16.796875 8.0625 
Q 21.484375 6.890625 26.703125 6.890625 
Q 35.15625 6.890625 40.078125 11.328125 
Q 45.015625 15.765625 45.015625 23.390625 
Q 45.015625 31 40.078125 35.4375 
Q 35.15625 39.890625 26.703125 39.890625 
Q 22.75 39.890625 18.8125 39.015625 
Q 14.890625 38.140625 10.796875 36.28125 
z
" id="DejaVuSans-53"/>
       </defs>
       <use xlink:href="#DejaVuSans-8722"/>
       <use x="83.789062" xlink:href="#DejaVuSans-53"/>
       <use x="147.412109" xlink:href="#DejaVuSans-48"/>
      </g>
     </g>
    </g>
    <g id="xtick_3">
     <g id="line2d_3">
      <g>
       <use style="stroke:#000000;stroke-width:0.8;" x="248.506949" xlink:href="#m1438118a61" y="307.584"/>
      </g>
     </g>
     <g id="text_3">
      <!-- 0 -->
      <g transform="translate(245.325699 322.182437)scale(0.1 -0.1)">
       <use xlink:href="#DejaVuSans-48"/>
      </g>
     </g>
    </g>
    <g id="xtick_4">
     <g id="line2d_4">
      <g>
       <use style="stroke:#000000;stroke-width:0.8;" x="318.847466" xlink:href="#m1438118a61" y="307.584"/>
      </g>
     </g>
     <g id="text_4">
      <!-- 50 -->
      <g transform="translate(312.484966 322.182437)scale(0.1 -0.1)">
       <use xlink:href="#DejaVuSans-53"/>
       <use x="63.623047" xlink:href="#DejaVuSans-48"/>
      </g>
     </g>
    </g>
    <g id="xtick_5">
     <g id="line2d_5">
      <g>
       <use style="stroke:#000000;stroke-width:0.8;" x="389.187983" xlink:href="#m1438118a61" y="307.584"/>
      </g>
     </g>
     <g id="text_5">
      <!-- 100 -->
      <g transform="translate(379.644233 322.182437)scale(0.1 -0.1)">
       <use xlink:href="#DejaVuSans-49"/>
       <use x="63.623047" xlink:href="#DejaVuSans-48"/>
       <use x="127.246094" xlink:href="#DejaVuSans-48"/>
      </g>
     </g>
    </g>
   </g>
   <g id="matplotlib.axis_2">
    <g id="ytick_1">
     <g id="line2d_6">
      <defs>
       <path d="M 0 0 
L -3.5 0 
" id="m0740845d69" style="stroke:#000000;stroke-width:0.8;"/>
      </defs>
      <g>
       <use style="stroke:#000000;stroke-width:0.8;" x="57.6" xlink:href="#m0740845d69" y="295.433861"/>
      </g>
     </g>
     <g id="text_6">
      <!-- 0 -->
      <g transform="translate(44.2375 299.233079)scale(0.1 -0.1)">
       <use xlink:href="#DejaVuSans-48"/>
      </g>
     </g>
    </g>
    <g id="ytick_2">
     <g id="line2d_7">
      <g>
       <use style="stroke:#000000;stroke-width:0.8;" x="57.6" xlink:href="#m0740845d69" y="260.263602"/>
      </g>
     </g>
     <g id="text_7">
      <!-- 25 -->
      <g transform="translate(37.875 264.062821)scale(0.1 -0.1)">
       <defs>
        <path d="M 19.1875 8.296875 
L 53.609375 8.296875 
L 53.609375 0 
L 7.328125 0 
L 7.328125 8.296875 
Q 12.9375 14.109375 22.625 23.890625 
Q 32.328125 33.6875 34.8125 36.53125 
Q 39.546875 41.84375 41.421875 45.53125 
Q 43.3125 49.21875 43.3125 52.78125 
Q 43.3125 58.59375 39.234375 62.25 
Q 35.15625 65.921875 28.609375 65.921875 
Q 23.96875 65.921875 18.8125 64.3125 
Q 13.671875 62.703125 7.8125 59.421875 
L 7.8125 69.390625 
Q 13.765625 71.78125 18.9375 73 
Q 24.125 74.21875 28.421875 74.21875 
Q 39.75 74.21875 46.484375 68.546875 
Q 53.21875 62.890625 53.21875 53.421875 
Q 53.21875 48.921875 51.53125 44.890625 
Q 49.859375 40.875 45.40625 35.40625 
Q 44.1875 33.984375 37.640625 27.21875 
Q 31.109375 20.453125 19.1875 8.296875 
z
" id="DejaVuSans-50"/>
       </defs>
       <use xlink:href="#DejaVuSans-50"/>
       <use x="63.623047" xlink:href="#DejaVuSans-53"/>
      </g>
     </g>
    </g>
    <g id="ytick_3">
     <g id="line2d_8">
      <g>
       <use style="stroke:#000000;stroke-width:0.8;" x="57.6" xlink:href="#m0740845d69" y="225.093344"/>
      </g>
     </g>
     <g id="text_8">
      <!-- 50 -->
      <g transform="translate(37.875 228.892563)scale(0.1 -0.1)">
       <use xlink:href="#DejaVuSans-53"/>
       <use x="63.623047" xlink:href="#DejaVuSans-48"/>
      </g>
     </g>
    </g>
    <g id="ytick_4">
     <g id="line2d_9">
      <g>
       <use style="stroke:#000000;stroke-width:0.8;" x="57.6" xlink:href="#m0740845d69" y="189.923085"/>
      </g>
     </g>
     <g id="text_9">
      <!-- 75 -->
      <g transform="translate(37.875 193.722304)scale(0.1 -0.1)">
       <defs>
        <path d="M 8.203125 72.90625 
L 55.078125 72.90625 
L 55.078125 68.703125 
L 28.609375 0 
L 18.3125 0 
L 43.21875 64.59375 
L 8.203125 64.59375 
z
" id="DejaVuSans-55"/>
       </defs>
       <use xlink:href="#DejaVuSans-55"/>
       <use x="63.623047" xlink:href="#DejaVuSans-53"/>
      </g>
     </g>
    </g>
    <g id="ytick_5">
     <g id="line2d_10">
      <g>
       <use style="stroke:#000000;stroke-width:0.8;" x="57.6" xlink:href="#m0740845d69" y="154.752827"/>
      </g>
     </g>
     <g id="text_10">
      <!-- 100 -->
      <g transform="translate(31.5125 158.552046)scale(0.1 -0.1)">
       <use xlink:href="#DejaVuSans-49"/>
       <use x="63.623047" xlink:href="#DejaVuSans-48"/>
       <use x="127.246094" xlink:href="#DejaVuSans-48"/>
      </g>
     </g>
    </g>
    <g id="ytick_6">
     <g id="line2d_11">
      <g>
       <use style="stroke:#000000;stroke-width:0.8;" x="57.6" xlink:href="#m0740845d69" y="119.582569"/>
      </g>
     </g>
     <g id="text_11">
      <!-- 125 -->
      <g transform="translate(31.5125 123.381787)scale(0.1 -0.1)">
       <use xlink:href="#DejaVuSans-49"/>
       <use x="63.623047" xlink:href="#DejaVuSans-50"/>
       <use x="127.246094" xlink:href="#DejaVuSans-53"/>
      </g>
     </g>
    </g>
    <g id="ytick_7">
     <g id="line2d_12">
      <g>
       <use style="stroke:#000000;stroke-width:0.8;" x="57.6" xlink:href="#m0740845d69" y="84.41231"/>
      </g>
     </g>
     <g id="text_12">
      <!-- 150 -->
      <g transform="translate(31.5125 88.211529)scale(0.1 -0.1)">
       <use xlink:href="#DejaVuSans-49"/>
       <use x="63.623047" xlink:href="#DejaVuSans-53"/>
       <use x="127.246094" xlink:href="#DejaVuSans-48"/>
      </g>
     </g>
    </g>
    <g id="ytick_8">
     <g id="line2d_13">
      <g>
       <use style="stroke:#000000;stroke-width:0.8;" x="57.6" xlink:href="#m0740845d69" y="49.242052"/>
      </g>
     </g>
     <g id="text_13">
      <!-- 175 -->
      <g transform="translate(31.5125 53.041271)scale(0.1 -0.1)">
       <use xlink:href="#DejaVuSans-49"/>
       <use x="63.623047" xlink:href="#DejaVuSans-55"/>
       <use x="127.246094" xlink:href="#DejaVuSans-53"/>
      </g>
     </g>
    </g>
   </g>
   <g id="line2d_14">
    <path clip-path="url(#pb9bf7307bc)" d="M 248.506949 295.433861 
L 248.793762 276.925701 
L 249.1139 258.395107 
L 248.904389 254.532068 
L 248.296419 248.564506 
L 247.485793 240.607756 
L 247.315443 236.767784 
L 247.44097 233.102097 
L 247.647321 231.353834 
L 247.966803 229.672209 
L 248.412467 228.064912 
L 248.997369 226.539632 
L 249.734561 225.104057 
L 250.672711 223.786389 
L 251.834201 222.599447 
L 253.192656 221.527851 
L 254.721702 220.556221 
L 256.394961 219.669176 
L 260.068622 218.08732 
L 266.001336 215.964413 
L 269.930249 214.536288 
L 273.592008 212.954328 
L 275.256766 212.067209 
L 276.775609 211.09549 
L 278.122162 210.023791 
L 279.27005 208.83673 
L 280.192898 207.518928 
L 280.929569 206.079837 
L 281.541551 204.54504 
L 282.036403 202.923347 
L 282.421685 201.22357 
L 282.893777 197.62501 
L 283.018301 193.819852 
L 282.855732 189.878588 
L 282.466547 185.871712 
L 281.59015 179.892573 
L 280.192898 172.348669 
L 279.021561 166.915227 
L 277.563044 161.402697 
L 276.412807 157.747265 
L 275.107412 154.151974 
L 273.635851 150.654937 
L 271.987115 147.294273 
L 270.150195 144.108096 
L 268.114081 141.134523 
L 267.017887 139.739374 
L 265.804221 138.433755 
L 264.424218 137.232901 
L 262.90059 136.124159 
L 259.513302 134.132382 
L 255.824044 132.357179 
L 246.472104 128.20226 
L 243.156741 126.387759 
L 241.681062 125.397201 
L 240.357001 124.334229 
L 239.207267 123.186188 
L 238.254572 121.940423 
L 237.521627 120.584278 
L 237.042227 119.114719 
L 236.815741 117.544385 
L 236.813241 115.88413 
L 237.005796 114.14481 
L 237.364478 112.33728 
L 238.464503 108.561004 
L 240.637257 102.656377 
L 242.096727 98.686455 
L 243.294965 94.791039 
L 243.723799 92.898407 
L 244.000536 91.056966 
L 244.096248 89.277571 
L 243.982005 87.571076 
L 243.628878 85.948335 
L 243.078325 84.360661 
L 241.593221 81.146098 
L 239.653992 77.931163 
L 237.330086 74.778149 
L 234.690952 71.749353 
L 231.806039 68.90707 
L 228.744795 66.313595 
L 225.576668 64.031222 
L 222.371108 62.122249 
L 219.197563 60.648968 
L 217.601534 60.104836 
L 215.950953 59.699193 
L 214.250495 59.42017 
L 210.718652 59.194498 
L 207.043415 59.332857 
L 203.262189 59.740282 
L 197.473452 60.648182 
L 189.733315 61.914112 
L 185.938062 62.357149 
L 184.075505 62.489637 
L 184.075505 62.489637 
" style="fill:none;stroke:#fea952;stroke-linecap:square;"/>
   </g>
   <g id="line2d_15">
    <path clip-path="url(#pb9bf7307bc)" d="M 242.879968 295.379721 
L 243.167648 276.813077 
L 243.491141 258.619662 
L 243.299524 255.033402 
L 242.705468 249.202552 
L 241.868543 240.942929 
L 241.688503 236.709494 
L 241.852522 232.44248 
L 242.118965 230.303536 
L 242.544154 228.16864 
L 243.158295 226.050087 
L 243.991567 223.969068 
L 245.150486 221.840301 
L 246.650763 219.850683 
L 248.349055 218.181347 
L 250.174621 216.778397 
L 252.085996 215.58441 
L 254.057621 214.55032 
L 258.104156 212.814112 
L 264.123595 210.659705 
L 269.462865 208.656805 
L 272.224135 207.327062 
L 274.076916 206.112036 
L 274.660669 205.608813 
L 275.18381 204.954774 
L 275.702535 203.995621 
L 276.159313 202.902674 
L 276.865228 200.333835 
L 277.274778 197.320552 
L 277.392833 193.96114 
L 277.248728 190.355396 
L 276.886223 186.596858 
L 276.046551 180.859193 
L 274.676088 173.458016 
L 273.557922 168.26226 
L 272.178454 163.037336 
L 270.513546 157.921709 
L 269.236209 154.640995 
L 267.821546 151.51212 
L 266.269357 148.575198 
L 264.582123 145.867975 
L 262.896337 143.570649 
L 262.110255 142.678806 
L 261.113165 141.782932 
L 259.915136 140.89416 
L 256.998437 139.166396 
L 253.554229 137.506333 
L 243.889556 133.201889 
L 241.937713 132.186113 
L 240.020478 131.059986 
L 238.158235 129.785313 
L 236.380873 128.31622 
L 234.737312 126.604573 
L 233.304089 124.615973 
L 232.17185 122.329483 
L 231.472616 119.91801 
L 231.188506 117.55286 
L 231.22017 115.264937 
L 231.48618 113.049512 
L 231.926208 110.891228 
L 233.154907 106.697129 
L 235.370143 100.67563 
L 237.332034 95.178799 
L 238.159046 92.062119 
L 238.481574 89.653451 
L 238.483449 88.767625 
L 238.312221 87.791975 
L 237.361283 85.269016 
L 235.930628 82.559183 
L 234.07818 79.777498 
L 231.875601 77.022836 
L 229.401254 74.38278 
L 226.738293 71.93757 
L 223.975519 69.762415 
L 221.210383 67.927903 
L 218.554293 66.497349 
L 216.258559 65.569473 
L 213.723274 65.022659 
L 210.810092 64.820997 
L 207.568051 64.935589 
L 204.060391 65.310624 
L 198.428041 66.193866 
L 190.456535 67.494686 
L 186.337335 67.970207 
L 184.474777 68.102696 
L 184.474777 68.102696 
" style="fill:none;stroke:#ffffff;stroke-linecap:square;"/>
   </g>
   <g id="line2d_16">
    <path clip-path="url(#pb9bf7307bc)" d="M 254.13393 295.488 
L 254.419876 277.038326 
L 254.736659 258.170553 
L 254.509254 254.030735 
L 253.887371 247.92646 
L 253.103044 240.272582 
L 252.942382 236.826074 
L 253.029418 233.761715 
L 253.389452 231.175779 
L 254.00317 229.110195 
L 254.694659 227.722094 
L 255.319347 227.017546 
L 256.210691 226.277305 
L 257.357407 225.528032 
L 260.302181 224.065535 
L 263.892549 222.666975 
L 272.05141 219.748439 
L 276.238375 217.920472 
L 278.289396 216.807356 
L 280.279856 215.498455 
L 282.167409 213.935545 
L 283.879432 212.064647 
L 285.201986 210.083082 
L 286.156603 208.164054 
L 286.923788 206.187406 
L 287.524429 204.167298 
L 287.978142 202.113305 
L 288.302465 200.032228 
L 288.622558 195.809932 
L 288.58719 191.540616 
L 288.279689 187.268219 
L 287.772781 183.043896 
L 286.784958 176.92693 
L 285.333436 169.370701 
L 284.009824 163.643242 
L 282.357046 157.826598 
L 281.046838 153.95773 
L 279.549971 150.136587 
L 277.84709 146.398233 
L 275.916375 142.778784 
L 273.733327 139.316728 
L 272.538876 137.65788 
L 271.139437 135.908098 
L 269.498186 134.188703 
L 267.73527 132.682871 
L 265.886043 131.354157 
L 263.97655 130.168949 
L 260.060649 128.118172 
L 254.247307 125.531994 
L 249.054652 123.202631 
L 246.293003 121.715533 
L 244.333128 120.352237 
L 243.205055 119.264874 
L 242.871403 118.839073 
L 242.611838 118.311427 
L 242.442976 117.53591 
L 242.406312 116.503324 
L 242.525412 115.240109 
L 242.802748 113.783332 
L 243.7741 110.42488 
L 245.904371 104.637125 
L 247.441627 100.446539 
L 248.783093 96.034541 
L 249.288551 93.734695 
L 249.619654 91.359213 
L 249.710921 88.901691 
L 249.480561 86.374527 
L 248.945534 84.104695 
L 248.257219 82.159547 
L 247.432475 80.245623 
L 246.483684 78.362358 
L 244.255128 74.691504 
L 241.644294 71.165194 
L 238.71459 67.815376 
L 235.52412 64.683124 
L 232.126045 61.815485 
L 228.566647 59.264056 
L 224.881213 57.085859 
L 222.997694 56.157157 
L 221.013422 55.322759 
L 218.94451 54.640198 
L 216.862126 54.146211 
L 214.777716 53.817681 
L 212.698148 53.631975 
L 208.566975 53.606532 
L 204.483908 53.922843 
L 200.461182 54.457581 
L 185.538789 56.74409 
L 183.676232 56.876579 
L 183.676232 56.876579 
" style="fill:none;stroke:#ffffff;stroke-linecap:square;"/>
   </g>
   <g id="patch_3">
    <path d="M 57.6 307.584 
L 57.6 41.472 
" style="fill:none;stroke:#000000;stroke-linecap:square;stroke-linejoin:miter;stroke-width:0.8;"/>
   </g>
   <g id="patch_4">
    <path d="M 414.72 307.584 
L 414.72 41.472 
" style="fill:none;stroke:#000000;stroke-linecap:square;stroke-linejoin:miter;stroke-width:0.8;"/>
   </g>
   <g id="patch_5">
    <path d="M 57.6 307.584 
L 414.72 307.584 
" style="fill:none;stroke:#000000;stroke-linecap:square;stroke-linejoin:miter;stroke-width:0.8;"/>
   </g>
   <g id="patch_6">
    <path d="M 57.6 41.472 
L 414.72 41.472 
" style="fill:none;stroke:#000000;stroke-linecap:square;stroke-linejoin:miter;stroke-width:0.8;"/>
   </g>
  </g>
 </g>
 <defs>
  <clipPath id="pb9bf7307bc">
   <rect height="266.112" width="357.12" x="57.6" y="41.472"/>
  </clipPath>
 </defs>
</svg>
