<?xml version="1.0" encoding="utf-8" standalone="no"?>
<!DOCTYPE svg PUBLIC "-//W3C//DTD SVG 1.1//EN"
  "http://www.w3.org/Graphics/SVG/1.1/DTD/svg11.dtd">
<!-- Created with matplotlib (https://matplotlib.org/) -->
<svg height="720pt" version="1.1" viewBox="0 0 1080 720" width="1080pt" xmlns="http://www.w3.org/2000/svg" xmlns:xlink="http://www.w3.org/1999/xlink">
 <metadata>
  <rdf:RDF xmlns:cc="http://creativecommons.org/ns#" xmlns:dc="http://purl.org/dc/elements/1.1/" xmlns:rdf="http://www.w3.org/1999/02/22-rdf-syntax-ns#">
   <cc:Work>
    <dc:type rdf:resource="http://purl.org/dc/dcmitype/StillImage"/>
    <dc:date>2021-05-27T22:55:19.658299</dc:date>
    <dc:format>image/svg+xml</dc:format>
    <dc:creator>
     <cc:Agent>
      <dc:title>Matplotlib v3.3.3, https://matplotlib.org/</dc:title>
     </cc:Agent>
    </dc:creator>
   </cc:Work>
  </rdf:RDF>
 </metadata>
 <defs>
  <style type="text/css">*{stroke-linecap:butt;stroke-linejoin:round;}</style>
 </defs>
 <g id="figure_1">
  <g id="patch_1">
   <path d="M 0 720 
L 1080 720 
L 1080 0 
L 0 0 
z
" style="fill:#ffffff;"/>
  </g>
  <g id="axes_1">
   <g id="patch_2">
    <path d="M 135 640.8 
L 515.454545 640.8 
L 515.454545 86.4 
L 135 86.4 
z
" style="fill:#7d9051;"/>
   </g>
   <g id="matplotlib.axis_1">
    <g id="xtick_1">
     <g id="line2d_1">
      <defs>
       <path d="M 0 0 
L 0 3.5 
" id="m149e0db8da" style="stroke:#000000;stroke-width:0.8;"/>
      </defs>
      <g>
       <use style="stroke:#000000;stroke-width:0.8;" x="169.372791" xlink:href="#m149e0db8da" y="640.8"/>
      </g>
     </g>
     <g id="text_1">
      <!-- 0 -->
      <g transform="translate(166.191541 655.398438)scale(0.1 -0.1)">
       <defs>
        <path d="M 31.78125 66.40625 
Q 24.171875 66.40625 20.328125 58.90625 
Q 16.5 51.421875 16.5 36.375 
Q 16.5 21.390625 20.328125 13.890625 
Q 24.171875 6.390625 31.78125 6.390625 
Q 39.453125 6.390625 43.28125 13.890625 
Q 47.125 21.390625 47.125 36.375 
Q 47.125 51.421875 43.28125 58.90625 
Q 39.453125 66.40625 31.78125 66.40625 
z
M 31.78125 74.21875 
Q 44.046875 74.21875 50.515625 64.515625 
Q 56.984375 54.828125 56.984375 36.375 
Q 56.984375 17.96875 50.515625 8.265625 
Q 44.046875 -1.421875 31.78125 -1.421875 
Q 19.53125 -1.421875 13.0625 8.265625 
Q 6.59375 17.96875 6.59375 36.375 
Q 6.59375 54.828125 13.0625 64.515625 
Q 19.53125 74.21875 31.78125 74.21875 
z
" id="DejaVuSans-48"/>
       </defs>
       <use xlink:href="#DejaVuSans-48"/>
      </g>
     </g>
    </g>
    <g id="xtick_2">
     <g id="line2d_2">
      <g>
       <use style="stroke:#000000;stroke-width:0.8;" x="241.407435" xlink:href="#m149e0db8da" y="640.8"/>
      </g>
     </g>
     <g id="text_2">
      <!-- 20 -->
      <g transform="translate(235.044935 655.398438)scale(0.1 -0.1)">
       <defs>
        <path d="M 19.1875 8.296875 
L 53.609375 8.296875 
L 53.609375 0 
L 7.328125 0 
L 7.328125 8.296875 
Q 12.9375 14.109375 22.625 23.890625 
Q 32.328125 33.6875 34.8125 36.53125 
Q 39.546875 41.84375 41.421875 45.53125 
Q 43.3125 49.21875 43.3125 52.78125 
Q 43.3125 58.59375 39.234375 62.25 
Q 35.15625 65.921875 28.609375 65.921875 
Q 23.96875 65.921875 18.8125 64.3125 
Q 13.671875 62.703125 7.8125 59.421875 
L 7.8125 69.390625 
Q 13.765625 71.78125 18.9375 73 
Q 24.125 74.21875 28.421875 74.21875 
Q 39.75 74.21875 46.484375 68.546875 
Q 53.21875 62.890625 53.21875 53.421875 
Q 53.21875 48.921875 51.53125 44.890625 
Q 49.859375 40.875 45.40625 35.40625 
Q 44.1875 33.984375 37.640625 27.21875 
Q 31.109375 20.453125 19.1875 8.296875 
z
" id="DejaVuSans-50"/>
       </defs>
       <use xlink:href="#DejaVuSans-50"/>
       <use x="63.623047" xlink:href="#DejaVuSans-48"/>
      </g>
     </g>
    </g>
    <g id="xtick_3">
     <g id="line2d_3">
      <g>
       <use style="stroke:#000000;stroke-width:0.8;" x="313.442079" xlink:href="#m149e0db8da" y="640.8"/>
      </g>
     </g>
     <g id="text_3">
      <!-- 40 -->
      <g transform="translate(307.079579 655.398438)scale(0.1 -0.1)">
       <defs>
        <path d="M 37.796875 64.3125 
L 12.890625 25.390625 
L 37.796875 25.390625 
z
M 35.203125 72.90625 
L 47.609375 72.90625 
L 47.609375 25.390625 
L 58.015625 25.390625 
L 58.015625 17.1875 
L 47.609375 17.1875 
L 47.609375 0 
L 37.796875 0 
L 37.796875 17.1875 
L 4.890625 17.1875 
L 4.890625 26.703125 
z
" id="DejaVuSans-52"/>
       </defs>
       <use xlink:href="#DejaVuSans-52"/>
       <use x="63.623047" xlink:href="#DejaVuSans-48"/>
      </g>
     </g>
    </g>
    <g id="xtick_4">
     <g id="line2d_4">
      <g>
       <use style="stroke:#000000;stroke-width:0.8;" x="385.476724" xlink:href="#m149e0db8da" y="640.8"/>
      </g>
     </g>
     <g id="text_4">
      <!-- 60 -->
      <g transform="translate(379.114224 655.398438)scale(0.1 -0.1)">
       <defs>
        <path d="M 33.015625 40.375 
Q 26.375 40.375 22.484375 35.828125 
Q 18.609375 31.296875 18.609375 23.390625 
Q 18.609375 15.53125 22.484375 10.953125 
Q 26.375 6.390625 33.015625 6.390625 
Q 39.65625 6.390625 43.53125 10.953125 
Q 47.40625 15.53125 47.40625 23.390625 
Q 47.40625 31.296875 43.53125 35.828125 
Q 39.65625 40.375 33.015625 40.375 
z
M 52.59375 71.296875 
L 52.59375 62.3125 
Q 48.875 64.0625 45.09375 64.984375 
Q 41.3125 65.921875 37.59375 65.921875 
Q 27.828125 65.921875 22.671875 59.328125 
Q 17.53125 52.734375 16.796875 39.40625 
Q 19.671875 43.65625 24.015625 45.921875 
Q 28.375 48.1875 33.59375 48.1875 
Q 44.578125 48.1875 50.953125 41.515625 
Q 57.328125 34.859375 57.328125 23.390625 
Q 57.328125 12.15625 50.6875 5.359375 
Q 44.046875 -1.421875 33.015625 -1.421875 
Q 20.359375 -1.421875 13.671875 8.265625 
Q 6.984375 17.96875 6.984375 36.375 
Q 6.984375 53.65625 15.1875 63.9375 
Q 23.390625 74.21875 37.203125 74.21875 
Q 40.921875 74.21875 44.703125 73.484375 
Q 48.484375 72.75 52.59375 71.296875 
z
" id="DejaVuSans-54"/>
       </defs>
       <use xlink:href="#DejaVuSans-54"/>
       <use x="63.623047" xlink:href="#DejaVuSans-48"/>
      </g>
     </g>
    </g>
    <g id="xtick_5">
     <g id="line2d_5">
      <g>
       <use style="stroke:#000000;stroke-width:0.8;" x="457.511368" xlink:href="#m149e0db8da" y="640.8"/>
      </g>
     </g>
     <g id="text_5">
      <!-- 80 -->
      <g transform="translate(451.148868 655.398438)scale(0.1 -0.1)">
       <defs>
        <path d="M 31.78125 34.625 
Q 24.75 34.625 20.71875 30.859375 
Q 16.703125 27.09375 16.703125 20.515625 
Q 16.703125 13.921875 20.71875 10.15625 
Q 24.75 6.390625 31.78125 6.390625 
Q 38.8125 6.390625 42.859375 10.171875 
Q 46.921875 13.96875 46.921875 20.515625 
Q 46.921875 27.09375 42.890625 30.859375 
Q 38.875 34.625 31.78125 34.625 
z
M 21.921875 38.8125 
Q 15.578125 40.375 12.03125 44.71875 
Q 8.5 49.078125 8.5 55.328125 
Q 8.5 64.0625 14.71875 69.140625 
Q 20.953125 74.21875 31.78125 74.21875 
Q 42.671875 74.21875 48.875 69.140625 
Q 55.078125 64.0625 55.078125 55.328125 
Q 55.078125 49.078125 51.53125 44.71875 
Q 48 40.375 41.703125 38.8125 
Q 48.828125 37.15625 52.796875 32.3125 
Q 56.78125 27.484375 56.78125 20.515625 
Q 56.78125 9.90625 50.3125 4.234375 
Q 43.84375 -1.421875 31.78125 -1.421875 
Q 19.734375 -1.421875 13.25 4.234375 
Q 6.78125 9.90625 6.78125 20.515625 
Q 6.78125 27.484375 10.78125 32.3125 
Q 14.796875 37.15625 21.921875 38.8125 
z
M 18.3125 54.390625 
Q 18.3125 48.734375 21.84375 45.5625 
Q 25.390625 42.390625 31.78125 42.390625 
Q 38.140625 42.390625 41.71875 45.5625 
Q 45.3125 48.734375 45.3125 54.390625 
Q 45.3125 60.0625 41.71875 63.234375 
Q 38.140625 66.40625 31.78125 66.40625 
Q 25.390625 66.40625 21.84375 63.234375 
Q 18.3125 60.0625 18.3125 54.390625 
z
" id="DejaVuSans-56"/>
       </defs>
       <use xlink:href="#DejaVuSans-56"/>
       <use x="63.623047" xlink:href="#DejaVuSans-48"/>
      </g>
     </g>
    </g>
   </g>
   <g id="matplotlib.axis_2">
    <g id="ytick_1">
     <g id="line2d_6">
      <defs>
       <path d="M 0 0 
L -3.5 0 
" id="m622d6a54be" style="stroke:#000000;stroke-width:0.8;"/>
      </defs>
      <g>
       <use style="stroke:#000000;stroke-width:0.8;" x="135" xlink:href="#m622d6a54be" y="619.773686"/>
      </g>
     </g>
     <g id="text_6">
      <!-- −20 -->
      <g transform="translate(106.895313 623.572905)scale(0.1 -0.1)">
       <defs>
        <path d="M 10.59375 35.5 
L 73.1875 35.5 
L 73.1875 27.203125 
L 10.59375 27.203125 
z
" id="DejaVuSans-8722"/>
       </defs>
       <use xlink:href="#DejaVuSans-8722"/>
       <use x="83.789062" xlink:href="#DejaVuSans-50"/>
       <use x="147.412109" xlink:href="#DejaVuSans-48"/>
      </g>
     </g>
    </g>
    <g id="ytick_2">
     <g id="line2d_7">
      <g>
       <use style="stroke:#000000;stroke-width:0.8;" x="135" xlink:href="#m622d6a54be" y="547.739042"/>
      </g>
     </g>
     <g id="text_7">
      <!-- 0 -->
      <g transform="translate(121.6375 551.538261)scale(0.1 -0.1)">
       <use xlink:href="#DejaVuSans-48"/>
      </g>
     </g>
    </g>
    <g id="ytick_3">
     <g id="line2d_8">
      <g>
       <use style="stroke:#000000;stroke-width:0.8;" x="135" xlink:href="#m622d6a54be" y="475.704398"/>
      </g>
     </g>
     <g id="text_8">
      <!-- 20 -->
      <g transform="translate(115.275 479.503616)scale(0.1 -0.1)">
       <use xlink:href="#DejaVuSans-50"/>
       <use x="63.623047" xlink:href="#DejaVuSans-48"/>
      </g>
     </g>
    </g>
    <g id="ytick_4">
     <g id="line2d_9">
      <g>
       <use style="stroke:#000000;stroke-width:0.8;" x="135" xlink:href="#m622d6a54be" y="403.669753"/>
      </g>
     </g>
     <g id="text_9">
      <!-- 40 -->
      <g transform="translate(115.275 407.468972)scale(0.1 -0.1)">
       <use xlink:href="#DejaVuSans-52"/>
       <use x="63.623047" xlink:href="#DejaVuSans-48"/>
      </g>
     </g>
    </g>
    <g id="ytick_5">
     <g id="line2d_10">
      <g>
       <use style="stroke:#000000;stroke-width:0.8;" x="135" xlink:href="#m622d6a54be" y="331.635109"/>
      </g>
     </g>
     <g id="text_10">
      <!-- 60 -->
      <g transform="translate(115.275 335.434328)scale(0.1 -0.1)">
       <use xlink:href="#DejaVuSans-54"/>
       <use x="63.623047" xlink:href="#DejaVuSans-48"/>
      </g>
     </g>
    </g>
    <g id="ytick_6">
     <g id="line2d_11">
      <g>
       <use style="stroke:#000000;stroke-width:0.8;" x="135" xlink:href="#m622d6a54be" y="259.600465"/>
      </g>
     </g>
     <g id="text_11">
      <!-- 80 -->
      <g transform="translate(115.275 263.399684)scale(0.1 -0.1)">
       <use xlink:href="#DejaVuSans-56"/>
       <use x="63.623047" xlink:href="#DejaVuSans-48"/>
      </g>
     </g>
    </g>
    <g id="ytick_7">
     <g id="line2d_12">
      <g>
       <use style="stroke:#000000;stroke-width:0.8;" x="135" xlink:href="#m622d6a54be" y="187.565821"/>
      </g>
     </g>
     <g id="text_12">
      <!-- 100 -->
      <g transform="translate(108.9125 191.365039)scale(0.1 -0.1)">
       <defs>
        <path d="M 12.40625 8.296875 
L 28.515625 8.296875 
L 28.515625 63.921875 
L 10.984375 60.40625 
L 10.984375 69.390625 
L 28.421875 72.90625 
L 38.28125 72.90625 
L 38.28125 8.296875 
L 54.390625 8.296875 
L 54.390625 0 
L 12.40625 0 
z
" id="DejaVuSans-49"/>
       </defs>
       <use xlink:href="#DejaVuSans-49"/>
       <use x="63.623047" xlink:href="#DejaVuSans-48"/>
       <use x="127.246094" xlink:href="#DejaVuSans-48"/>
      </g>
     </g>
    </g>
    <g id="ytick_8">
     <g id="line2d_13">
      <g>
       <use style="stroke:#000000;stroke-width:0.8;" x="135" xlink:href="#m622d6a54be" y="115.531176"/>
      </g>
     </g>
     <g id="text_13">
      <!-- 120 -->
      <g transform="translate(108.9125 119.330395)scale(0.1 -0.1)">
       <use xlink:href="#DejaVuSans-49"/>
       <use x="63.623047" xlink:href="#DejaVuSans-50"/>
       <use x="127.246094" xlink:href="#DejaVuSans-48"/>
      </g>
     </g>
    </g>
   </g>
   <g id="line2d_14">
    <path clip-path="url(#pb3315dc745)" d="M 169.372791 547.739042 
L 169.752886 519.307631 
L 170.933449 452.922366 
L 170.756371 448.04873 
L 170.028123 438.106718 
L 168.468134 422.950273 
L 167.480099 412.873025 
L 166.824591 402.968879 
L 166.699471 398.12229 
L 166.751006 393.367662 
L 167.01037 388.721223 
L 167.508738 384.199202 
L 168.277284 379.817826 
L 169.347182 375.593325 
L 170.749608 371.541927 
L 172.515735 367.679859 
L 174.75987 364.066627 
L 177.53397 360.729277 
L 180.775686 357.635352 
L 184.422669 354.752396 
L 188.412571 352.047952 
L 192.683042 349.489564 
L 197.171735 347.044774 
L 206.554387 342.366163 
L 216.061736 337.752466 
L 220.7063 335.388818 
L 225.194993 332.944028 
L 229.465464 330.385639 
L 233.455366 327.681196 
L 237.102349 324.79824 
L 240.344065 321.704315 
L 243.118165 318.366965 
L 245.3623 314.753732 
L 247.019464 310.813943 
L 248.119216 306.546649 
L 248.729051 301.993987 
L 248.916464 297.198093 
L 248.748949 292.201103 
L 248.294003 287.045152 
L 247.619121 281.772376 
L 245.879529 271.044892 
L 244.070134 260.355738 
L 243.307999 255.130874 
L 242.730899 250.041999 
L 242.406329 245.131251 
L 242.401785 240.440763 
L 242.784763 236.012672 
L 243.622756 231.889115 
L 244.983261 228.112226 
L 246.933772 224.724141 
L 249.433452 221.606576 
L 252.370544 218.617594 
L 255.706163 215.76385 
L 259.401426 213.051999 
L 263.41745 210.488699 
L 267.715351 208.080605 
L 272.256245 205.834372 
L 277.001248 203.756656 
L 281.911477 201.854114 
L 286.948049 200.133401 
L 292.07208 198.601174 
L 297.244685 197.264087 
L 302.426982 196.128797 
L 307.580087 195.201959 
L 312.665116 194.49023 
L 317.643186 194.000266 
L 322.475412 193.738721 
L 327.122912 193.712253 
L 331.546802 193.927517 
L 335.869108 194.424863 
L 340.230826 195.227788 
L 344.621522 196.317664 
L 349.030764 197.675865 
L 353.448118 199.283763 
L 357.863152 201.12273 
L 362.265433 203.174141 
L 366.644527 205.419368 
L 370.990002 207.839784 
L 375.291425 210.416761 
L 379.538363 213.131673 
L 383.720383 215.965894 
L 387.827052 218.900794 
L 395.772605 224.99813 
L 403.291559 231.274663 
L 410.300451 237.581377 
L 413.619096 240.787833 
L 416.849709 244.12923 
L 419.993363 247.596816 
L 423.051131 251.18184 
L 426.024087 254.875549 
L 428.913306 258.66919 
L 431.719861 262.554011 
L 437.089273 270.562184 
L 442.140912 278.830049 
L 446.88337 287.287587 
L 451.325236 295.864778 
L 455.475099 304.491605 
L 459.34155 313.098048 
L 471.739511 341.446092 
L 475.708158 351.506525 
L 477.513217 356.533722 
L 479.154761 361.524062 
L 480.599788 366.451414 
L 481.815295 371.289643 
L 482.768277 376.012618 
L 483.425733 380.594205 
L 483.754658 385.008272 
L 483.72205 389.228686 
L 483.294907 393.229314 
L 482.440223 396.984024 
L 481.124997 400.466682 
L 479.29146 403.675418 
L 476.933797 406.639751 
L 474.096932 409.380628 
L 470.825791 411.918998 
L 467.165299 414.275811 
L 463.160381 416.472016 
L 458.855961 418.528561 
L 454.296966 420.466396 
L 449.528321 422.306469 
L 439.541778 425.777125 
L 419.029592 432.46705 
L 414.051296 434.209361 
L 409.22275 436.021502 
L 404.58888 437.924422 
L 400.19461 439.939069 
L 400.19461 439.939069 
" style="fill:none;stroke:#fea952;stroke-linecap:square;"/>
   </g>
   <g id="line2d_15">
    <path clip-path="url(#pb3315dc745)" d="M 154.966529 547.600434 
L 155.348188 519.054106 
L 156.53602 453.445479 
L 156.378075 448.956591 
L 155.688589 439.498614 
L 154.136916 424.425325 
L 153.11598 413.982829 
L 152.709984 408.682016 
L 152.422461 403.340686 
L 152.293388 397.966145 
L 152.36647 392.564718 
L 152.690146 387.143004 
L 153.318468 381.710057 
L 154.311289 376.280794 
L 155.732855 370.880611 
L 157.647658 365.550392 
L 160.277214 360.078662 
L 163.680699 354.857307 
L 167.587076 350.307237 
L 171.841341 346.333269 
L 176.339278 342.826861 
L 181.008556 339.689143 
L 185.792049 336.837536 
L 190.637438 334.204892 
L 200.299083 329.388075 
L 209.527439 324.912584 
L 213.815307 322.73679 
L 217.790978 320.585219 
L 221.382073 318.460105 
L 224.521021 316.379113 
L 227.155455 314.376201 
L 229.264894 312.494995 
L 230.879643 310.765768 
L 232.082323 309.167874 
L 233.068388 307.21852 
L 233.839825 304.633907 
L 234.33311 301.431427 
L 234.517623 297.680786 
L 234.39778 293.467408 
L 234.003654 288.874227 
L 233.381581 283.975111 
L 231.683752 273.502438 
L 229.814071 262.435227 
L 228.992826 256.754275 
L 228.355335 250.992134 
L 227.999407 245.145207 
L 228.048439 239.19937 
L 228.666419 233.143529 
L 230.068401 227.006588 
L 232.497567 220.924245 
L 235.693756 215.711836 
L 239.157406 211.50893 
L 243.00478 207.670354 
L 247.182361 204.149014 
L 251.650244 200.907916 
L 256.375349 197.920151 
L 261.327523 195.16723 
L 266.477529 192.637173 
L 271.79613 190.32288 
L 277.253766 188.220871 
L 282.820561 186.330379 
L 288.46649 184.652721 
L 294.161661 183.190901 
L 299.876674 181.949391 
L 305.583079 180.934109 
L 311.253939 180.152581 
L 316.86455 179.614393 
L 322.393364 179.332026 
L 327.823116 179.32235 
L 333.19367 179.615025 
L 338.477376 180.256005 
L 343.701642 181.245191 
L 348.862705 182.549151 
L 353.958527 184.137891 
L 358.987628 185.984386 
L 363.948356 188.064021 
L 368.838482 190.354054 
L 373.655007 192.833155 
L 378.394115 195.481033 
L 383.05119 198.27816 
L 387.620884 201.205549 
L 392.097199 204.244607 
L 396.473576 207.377027 
L 400.742978 210.584707 
L 408.930807 217.154237 
L 416.597801 223.81133 
L 420.311053 227.220516 
L 423.976588 230.773744 
L 427.523289 234.452748 
L 430.954713 238.24757 
L 434.274339 242.148612 
L 437.485526 246.146572 
L 440.591491 250.232389 
L 443.595294 254.397192 
L 446.499836 258.632261 
L 452.021959 267.278847 
L 457.17802 276.104135 
L 461.986028 285.040757 
L 466.46216 294.021515 
L 470.621071 302.979063 
L 482.919546 330.87366 
L 487.221103 341.301683 
L 489.26752 346.637919 
L 491.198743 352.031945 
L 492.979453 357.469744 
L 494.572511 362.941053 
L 495.937607 368.440101 
L 497.029124 373.966193 
L 497.792827 379.523604 
L 498.161157 385.119579 
L 498.047558 390.758209 
L 497.342492 396.426962 
L 495.918072 402.073934 
L 493.633759 407.614441 
L 490.566946 412.643306 
L 486.944239 417.000767 
L 482.929242 420.762627 
L 478.624968 424.032315 
L 474.092521 426.90804 
L 469.371192 429.471456 
L 464.491741 431.787429 
L 459.483429 433.907386 
L 454.377168 435.872908 
L 444.008929 439.473992 
L 419.113423 447.69767 
L 414.695532 449.348477 
L 410.59309 451.020568 
L 406.19882 453.035216 
L 406.19882 453.035216 
" style="fill:none;stroke:#ffffff;stroke-linecap:square;"/>
   </g>
   <g id="line2d_16">
    <path clip-path="url(#pb3315dc745)" d="M 183.779053 547.87765 
L 184.157584 519.561156 
L 185.330878 452.399253 
L 185.134667 447.140869 
L 184.367657 436.714822 
L 182.799353 421.475222 
L 181.844219 411.76322 
L 181.226722 402.597071 
L 181.105554 398.278435 
L 181.135542 394.170606 
L 181.330594 390.299442 
L 181.699008 386.688346 
L 182.243278 383.354859 
L 182.96151 380.30604 
L 183.851559 377.533461 
L 184.754257 375.281056 
L 185.839041 373.275947 
L 187.480864 371.151316 
L 189.710031 368.937435 
L 192.506061 366.677931 
L 195.816586 364.406761 
L 199.574036 362.141592 
L 203.706031 359.884656 
L 212.80969 355.344252 
L 222.596033 350.592348 
L 227.597294 348.040845 
L 232.599008 345.302837 
L 237.548856 342.311174 
L 242.389711 338.983279 
L 247.049243 335.220279 
L 251.423236 330.913635 
L 255.356686 325.968162 
L 258.642276 320.339591 
L 260.970541 314.409365 
L 262.398608 308.459391 
L 263.124992 302.556548 
L 263.315304 296.715401 
L 263.100119 290.934798 
L 262.584353 285.216077 
L 261.856662 279.569641 
L 260.075305 268.587346 
L 258.326197 258.276249 
L 257.623171 253.507472 
L 257.106463 249.091865 
L 256.813251 245.117294 
L 256.755131 241.682157 
L 256.903106 238.881816 
L 257.468954 235.300206 
L 258.173788 233.736446 
L 259.709499 231.704223 
L 261.736308 229.564834 
L 264.229965 227.378685 
L 267.152609 225.196083 
L 270.459551 223.057247 
L 274.103178 220.99398 
L 278.03496 219.03157 
L 282.206366 217.190433 
L 286.569189 215.487358 
L 291.075537 213.936424 
L 295.677669 212.549626 
L 300.32771 211.337272 
L 304.97729 210.308202 
L 309.577095 209.46981 
L 314.076294 208.827879 
L 318.421821 208.386138 
L 322.557461 208.145417 
L 326.422708 208.102156 
L 329.899934 208.240009 
L 333.26084 208.593721 
L 336.76001 209.210386 
L 340.380339 210.086178 
L 344.103 211.213839 
L 347.908608 212.583139 
L 351.777948 214.181439 
L 355.692383 215.994228 
L 359.634046 218.005581 
L 363.585889 220.198534 
L 367.53166 222.555363 
L 371.455842 225.057798 
L 375.343566 227.68718 
L 382.952895 233.250791 
L 390.25044 239.092383 
L 397.132158 245.055792 
L 403.261604 250.801921 
L 406.176129 253.805711 
L 409.032012 256.946062 
L 411.827923 260.215067 
L 414.562649 263.604525 
L 417.235122 267.10599 
L 422.389814 274.410258 
L 427.286595 282.057215 
L 431.922484 289.974835 
L 436.296653 298.090447 
L 440.410102 306.331212 
L 444.265357 314.624438 
L 458.385199 346.851825 
L 462.148797 356.375131 
L 463.827692 361.035498 
L 465.33007 365.578381 
L 466.627066 369.961775 
L 467.692982 374.139186 
L 468.50743 378.059043 
L 469.058638 381.664806 
L 469.348159 384.896965 
L 469.396543 387.699163 
L 469.247321 390.031666 
L 468.962374 391.894113 
L 468.616235 393.318923 
L 468.015974 394.70753 
L 466.923355 396.278735 
L 465.264622 397.998629 
L 463.026615 399.805681 
L 460.238077 401.643583 
L 456.94957 403.472577 
L 453.220182 405.269693 
L 449.110504 407.025406 
L 444.679474 408.740029 
L 435.074628 412.080258 
L 414.270482 418.868871 
L 408.989168 420.721053 
L 403.749968 422.694527 
L 398.58467 424.828275 
L 394.1904 426.842922 
L 394.1904 426.842922 
" style="fill:none;stroke:#ffffff;stroke-linecap:square;"/>
   </g>
   <g id="patch_3">
    <path d="M 135 640.8 
L 135 86.4 
" style="fill:none;stroke:#000000;stroke-linecap:square;stroke-linejoin:miter;stroke-width:0.8;"/>
   </g>
   <g id="patch_4">
    <path d="M 515.454545 640.8 
L 515.454545 86.4 
" style="fill:none;stroke:#000000;stroke-linecap:square;stroke-linejoin:miter;stroke-width:0.8;"/>
   </g>
   <g id="patch_5">
    <path d="M 135 640.8 
L 515.454545 640.8 
" style="fill:none;stroke:#000000;stroke-linecap:square;stroke-linejoin:miter;stroke-width:0.8;"/>
   </g>
   <g id="patch_6">
    <path d="M 135 86.4 
L 515.454545 86.4 
" style="fill:none;stroke:#000000;stroke-linecap:square;stroke-linejoin:miter;stroke-width:0.8;"/>
   </g>
   <g id="text_14">
    <!-- dist to bound ~ -0.17 -->
    <g transform="translate(261.176335 80.4)scale(0.12 -0.12)">
     <defs>
      <path d="M 45.40625 46.390625 
L 45.40625 75.984375 
L 54.390625 75.984375 
L 54.390625 0 
L 45.40625 0 
L 45.40625 8.203125 
Q 42.578125 3.328125 38.25 0.953125 
Q 33.9375 -1.421875 27.875 -1.421875 
Q 17.96875 -1.421875 11.734375 6.484375 
Q 5.515625 14.40625 5.515625 27.296875 
Q 5.515625 40.1875 11.734375 48.09375 
Q 17.96875 56 27.875 56 
Q 33.9375 56 38.25 53.625 
Q 42.578125 51.265625 45.40625 46.390625 
z
M 14.796875 27.296875 
Q 14.796875 17.390625 18.875 11.75 
Q 22.953125 6.109375 30.078125 6.109375 
Q 37.203125 6.109375 41.296875 11.75 
Q 45.40625 17.390625 45.40625 27.296875 
Q 45.40625 37.203125 41.296875 42.84375 
Q 37.203125 48.484375 30.078125 48.484375 
Q 22.953125 48.484375 18.875 42.84375 
Q 14.796875 37.203125 14.796875 27.296875 
z
" id="DejaVuSans-100"/>
      <path d="M 9.421875 54.6875 
L 18.40625 54.6875 
L 18.40625 0 
L 9.421875 0 
z
M 9.421875 75.984375 
L 18.40625 75.984375 
L 18.40625 64.59375 
L 9.421875 64.59375 
z
" id="DejaVuSans-105"/>
      <path d="M 44.28125 53.078125 
L 44.28125 44.578125 
Q 40.484375 46.53125 36.375 47.5 
Q 32.28125 48.484375 27.875 48.484375 
Q 21.1875 48.484375 17.84375 46.4375 
Q 14.5 44.390625 14.5 40.28125 
Q 14.5 37.15625 16.890625 35.375 
Q 19.28125 33.59375 26.515625 31.984375 
L 29.59375 31.296875 
Q 39.15625 29.25 43.1875 25.515625 
Q 47.21875 21.78125 47.21875 15.09375 
Q 47.21875 7.46875 41.1875 3.015625 
Q 35.15625 -1.421875 24.609375 -1.421875 
Q 20.21875 -1.421875 15.453125 -0.5625 
Q 10.6875 0.296875 5.421875 2 
L 5.421875 11.28125 
Q 10.40625 8.6875 15.234375 7.390625 
Q 20.0625 6.109375 24.8125 6.109375 
Q 31.15625 6.109375 34.5625 8.28125 
Q 37.984375 10.453125 37.984375 14.40625 
Q 37.984375 18.0625 35.515625 20.015625 
Q 33.0625 21.96875 24.703125 23.78125 
L 21.578125 24.515625 
Q 13.234375 26.265625 9.515625 29.90625 
Q 5.8125 33.546875 5.8125 39.890625 
Q 5.8125 47.609375 11.28125 51.796875 
Q 16.75 56 26.8125 56 
Q 31.78125 56 36.171875 55.265625 
Q 40.578125 54.546875 44.28125 53.078125 
z
" id="DejaVuSans-115"/>
      <path d="M 18.3125 70.21875 
L 18.3125 54.6875 
L 36.8125 54.6875 
L 36.8125 47.703125 
L 18.3125 47.703125 
L 18.3125 18.015625 
Q 18.3125 11.328125 20.140625 9.421875 
Q 21.96875 7.515625 27.59375 7.515625 
L 36.8125 7.515625 
L 36.8125 0 
L 27.59375 0 
Q 17.1875 0 13.234375 3.875 
Q 9.28125 7.765625 9.28125 18.015625 
L 9.28125 47.703125 
L 2.6875 47.703125 
L 2.6875 54.6875 
L 9.28125 54.6875 
L 9.28125 70.21875 
z
" id="DejaVuSans-116"/>
      <path id="DejaVuSans-32"/>
      <path d="M 30.609375 48.390625 
Q 23.390625 48.390625 19.1875 42.75 
Q 14.984375 37.109375 14.984375 27.296875 
Q 14.984375 17.484375 19.15625 11.84375 
Q 23.34375 6.203125 30.609375 6.203125 
Q 37.796875 6.203125 41.984375 11.859375 
Q 46.1875 17.53125 46.1875 27.296875 
Q 46.1875 37.015625 41.984375 42.703125 
Q 37.796875 48.390625 30.609375 48.390625 
z
M 30.609375 56 
Q 42.328125 56 49.015625 48.375 
Q 55.71875 40.765625 55.71875 27.296875 
Q 55.71875 13.875 49.015625 6.21875 
Q 42.328125 -1.421875 30.609375 -1.421875 
Q 18.84375 -1.421875 12.171875 6.21875 
Q 5.515625 13.875 5.515625 27.296875 
Q 5.515625 40.765625 12.171875 48.375 
Q 18.84375 56 30.609375 56 
z
" id="DejaVuSans-111"/>
      <path d="M 48.6875 27.296875 
Q 48.6875 37.203125 44.609375 42.84375 
Q 40.53125 48.484375 33.40625 48.484375 
Q 26.265625 48.484375 22.1875 42.84375 
Q 18.109375 37.203125 18.109375 27.296875 
Q 18.109375 17.390625 22.1875 11.75 
Q 26.265625 6.109375 33.40625 6.109375 
Q 40.53125 6.109375 44.609375 11.75 
Q 48.6875 17.390625 48.6875 27.296875 
z
M 18.109375 46.390625 
Q 20.953125 51.265625 25.265625 53.625 
Q 29.59375 56 35.59375 56 
Q 45.5625 56 51.78125 48.09375 
Q 58.015625 40.1875 58.015625 27.296875 
Q 58.015625 14.40625 51.78125 6.484375 
Q 45.5625 -1.421875 35.59375 -1.421875 
Q 29.59375 -1.421875 25.265625 0.953125 
Q 20.953125 3.328125 18.109375 8.203125 
L 18.109375 0 
L 9.078125 0 
L 9.078125 75.984375 
L 18.109375 75.984375 
z
" id="DejaVuSans-98"/>
      <path d="M 8.5 21.578125 
L 8.5 54.6875 
L 17.484375 54.6875 
L 17.484375 21.921875 
Q 17.484375 14.15625 20.5 10.265625 
Q 23.53125 6.390625 29.59375 6.390625 
Q 36.859375 6.390625 41.078125 11.03125 
Q 45.3125 15.671875 45.3125 23.6875 
L 45.3125 54.6875 
L 54.296875 54.6875 
L 54.296875 0 
L 45.3125 0 
L 45.3125 8.40625 
Q 42.046875 3.421875 37.71875 1 
Q 33.40625 -1.421875 27.6875 -1.421875 
Q 18.265625 -1.421875 13.375 4.4375 
Q 8.5 10.296875 8.5 21.578125 
z
M 31.109375 56 
z
" id="DejaVuSans-117"/>
      <path d="M 54.890625 33.015625 
L 54.890625 0 
L 45.90625 0 
L 45.90625 32.71875 
Q 45.90625 40.484375 42.875 44.328125 
Q 39.84375 48.1875 33.796875 48.1875 
Q 26.515625 48.1875 22.3125 43.546875 
Q 18.109375 38.921875 18.109375 30.90625 
L 18.109375 0 
L 9.078125 0 
L 9.078125 54.6875 
L 18.109375 54.6875 
L 18.109375 46.1875 
Q 21.34375 51.125 25.703125 53.5625 
Q 30.078125 56 35.796875 56 
Q 45.21875 56 50.046875 50.171875 
Q 54.890625 44.34375 54.890625 33.015625 
z
" id="DejaVuSans-110"/>
      <path d="M 73.1875 39.890625 
L 73.1875 31.203125 
Q 68.0625 27.34375 63.6875 25.6875 
Q 59.328125 24.03125 54.59375 24.03125 
Q 49.21875 24.03125 42.09375 26.90625 
Q 41.546875 27.09375 41.3125 27.203125 
Q 40.96875 27.34375 40.234375 27.59375 
Q 32.671875 30.609375 28.078125 30.609375 
Q 23.78125 30.609375 19.578125 28.734375 
Q 15.375 26.859375 10.59375 22.796875 
L 10.59375 31.5 
Q 15.71875 35.359375 20.09375 37.03125 
Q 24.46875 38.71875 29.203125 38.71875 
Q 34.578125 38.71875 41.75 35.796875 
Q 42.234375 35.59375 42.484375 35.5 
Q 42.875 35.359375 43.5625 35.109375 
Q 51.125 32.078125 55.71875 32.078125 
Q 59.90625 32.078125 64.03125 33.9375 
Q 68.171875 35.796875 73.1875 39.890625 
z
" id="DejaVuSans-126"/>
      <path d="M 4.890625 31.390625 
L 31.203125 31.390625 
L 31.203125 23.390625 
L 4.890625 23.390625 
z
" id="DejaVuSans-45"/>
      <path d="M 10.6875 12.40625 
L 21 12.40625 
L 21 0 
L 10.6875 0 
z
" id="DejaVuSans-46"/>
      <path d="M 8.203125 72.90625 
L 55.078125 72.90625 
L 55.078125 68.703125 
L 28.609375 0 
L 18.3125 0 
L 43.21875 64.59375 
L 8.203125 64.59375 
z
" id="DejaVuSans-55"/>
     </defs>
     <use xlink:href="#DejaVuSans-100"/>
     <use x="63.476562" xlink:href="#DejaVuSans-105"/>
     <use x="91.259766" xlink:href="#DejaVuSans-115"/>
     <use x="143.359375" xlink:href="#DejaVuSans-116"/>
     <use x="182.568359" xlink:href="#DejaVuSans-32"/>
     <use x="214.355469" xlink:href="#DejaVuSans-116"/>
     <use x="253.564453" xlink:href="#DejaVuSans-111"/>
     <use x="314.746094" xlink:href="#DejaVuSans-32"/>
     <use x="346.533203" xlink:href="#DejaVuSans-98"/>
     <use x="410.009766" xlink:href="#DejaVuSans-111"/>
     <use x="471.191406" xlink:href="#DejaVuSans-117"/>
     <use x="534.570312" xlink:href="#DejaVuSans-110"/>
     <use x="597.949219" xlink:href="#DejaVuSans-100"/>
     <use x="661.425781" xlink:href="#DejaVuSans-32"/>
     <use x="693.212891" xlink:href="#DejaVuSans-126"/>
     <use x="777.001953" xlink:href="#DejaVuSans-32"/>
     <use x="808.789062" xlink:href="#DejaVuSans-45"/>
     <use x="844.873047" xlink:href="#DejaVuSans-48"/>
     <use x="908.496094" xlink:href="#DejaVuSans-46"/>
     <use x="940.283203" xlink:href="#DejaVuSans-49"/>
     <use x="1003.90625" xlink:href="#DejaVuSans-55"/>
    </g>
   </g>
  </g>
  <g id="axes_2">
   <g id="patch_7">
    <path d="M 591.545455 640.8 
L 972 640.8 
L 972 86.4 
L 591.545455 86.4 
z
" style="fill:#7d9051;"/>
   </g>
   <g id="matplotlib.axis_3">
    <g id="xtick_6">
     <g id="line2d_17">
      <g>
       <use style="stroke:#000000;stroke-width:0.8;" x="625.918245" xlink:href="#m149e0db8da" y="640.8"/>
      </g>
     </g>
     <g id="text_15">
      <!-- 0 -->
      <g transform="translate(622.736995 655.398438)scale(0.1 -0.1)">
       <use xlink:href="#DejaVuSans-48"/>
      </g>
     </g>
    </g>
    <g id="xtick_7">
     <g id="line2d_18">
      <g>
       <use style="stroke:#000000;stroke-width:0.8;" x="697.95289" xlink:href="#m149e0db8da" y="640.8"/>
      </g>
     </g>
     <g id="text_16">
      <!-- 20 -->
      <g transform="translate(691.59039 655.398438)scale(0.1 -0.1)">
       <use xlink:href="#DejaVuSans-50"/>
       <use x="63.623047" xlink:href="#DejaVuSans-48"/>
      </g>
     </g>
    </g>
    <g id="xtick_8">
     <g id="line2d_19">
      <g>
       <use style="stroke:#000000;stroke-width:0.8;" x="769.987534" xlink:href="#m149e0db8da" y="640.8"/>
      </g>
     </g>
     <g id="text_17">
      <!-- 40 -->
      <g transform="translate(763.625034 655.398438)scale(0.1 -0.1)">
       <use xlink:href="#DejaVuSans-52"/>
       <use x="63.623047" xlink:href="#DejaVuSans-48"/>
      </g>
     </g>
    </g>
    <g id="xtick_9">
     <g id="line2d_20">
      <g>
       <use style="stroke:#000000;stroke-width:0.8;" x="842.022178" xlink:href="#m149e0db8da" y="640.8"/>
      </g>
     </g>
     <g id="text_18">
      <!-- 60 -->
      <g transform="translate(835.659678 655.398438)scale(0.1 -0.1)">
       <use xlink:href="#DejaVuSans-54"/>
       <use x="63.623047" xlink:href="#DejaVuSans-48"/>
      </g>
     </g>
    </g>
    <g id="xtick_10">
     <g id="line2d_21">
      <g>
       <use style="stroke:#000000;stroke-width:0.8;" x="914.056822" xlink:href="#m149e0db8da" y="640.8"/>
      </g>
     </g>
     <g id="text_19">
      <!-- 80 -->
      <g transform="translate(907.694322 655.398438)scale(0.1 -0.1)">
       <use xlink:href="#DejaVuSans-56"/>
       <use x="63.623047" xlink:href="#DejaVuSans-48"/>
      </g>
     </g>
    </g>
   </g>
   <g id="matplotlib.axis_4">
    <g id="ytick_9">
     <g id="line2d_22">
      <g>
       <use style="stroke:#000000;stroke-width:0.8;" x="591.545455" xlink:href="#m622d6a54be" y="619.773686"/>
      </g>
     </g>
     <g id="text_20">
      <!-- −20 -->
      <g transform="translate(563.440767 623.572905)scale(0.1 -0.1)">
       <use xlink:href="#DejaVuSans-8722"/>
       <use x="83.789062" xlink:href="#DejaVuSans-50"/>
       <use x="147.412109" xlink:href="#DejaVuSans-48"/>
      </g>
     </g>
    </g>
    <g id="ytick_10">
     <g id="line2d_23">
      <g>
       <use style="stroke:#000000;stroke-width:0.8;" x="591.545455" xlink:href="#m622d6a54be" y="547.739042"/>
      </g>
     </g>
     <g id="text_21">
      <!-- 0 -->
      <g transform="translate(578.182955 551.538261)scale(0.1 -0.1)">
       <use xlink:href="#DejaVuSans-48"/>
      </g>
     </g>
    </g>
    <g id="ytick_11">
     <g id="line2d_24">
      <g>
       <use style="stroke:#000000;stroke-width:0.8;" x="591.545455" xlink:href="#m622d6a54be" y="475.704398"/>
      </g>
     </g>
     <g id="text_22">
      <!-- 20 -->
      <g transform="translate(571.820455 479.503616)scale(0.1 -0.1)">
       <use xlink:href="#DejaVuSans-50"/>
       <use x="63.623047" xlink:href="#DejaVuSans-48"/>
      </g>
     </g>
    </g>
    <g id="ytick_12">
     <g id="line2d_25">
      <g>
       <use style="stroke:#000000;stroke-width:0.8;" x="591.545455" xlink:href="#m622d6a54be" y="403.669753"/>
      </g>
     </g>
     <g id="text_23">
      <!-- 40 -->
      <g transform="translate(571.820455 407.468972)scale(0.1 -0.1)">
       <use xlink:href="#DejaVuSans-52"/>
       <use x="63.623047" xlink:href="#DejaVuSans-48"/>
      </g>
     </g>
    </g>
    <g id="ytick_13">
     <g id="line2d_26">
      <g>
       <use style="stroke:#000000;stroke-width:0.8;" x="591.545455" xlink:href="#m622d6a54be" y="331.635109"/>
      </g>
     </g>
     <g id="text_24">
      <!-- 60 -->
      <g transform="translate(571.820455 335.434328)scale(0.1 -0.1)">
       <use xlink:href="#DejaVuSans-54"/>
       <use x="63.623047" xlink:href="#DejaVuSans-48"/>
      </g>
     </g>
    </g>
    <g id="ytick_14">
     <g id="line2d_27">
      <g>
       <use style="stroke:#000000;stroke-width:0.8;" x="591.545455" xlink:href="#m622d6a54be" y="259.600465"/>
      </g>
     </g>
     <g id="text_25">
      <!-- 80 -->
      <g transform="translate(571.820455 263.399684)scale(0.1 -0.1)">
       <use xlink:href="#DejaVuSans-56"/>
       <use x="63.623047" xlink:href="#DejaVuSans-48"/>
      </g>
     </g>
    </g>
    <g id="ytick_15">
     <g id="line2d_28">
      <g>
       <use style="stroke:#000000;stroke-width:0.8;" x="591.545455" xlink:href="#m622d6a54be" y="187.565821"/>
      </g>
     </g>
     <g id="text_26">
      <!-- 100 -->
      <g transform="translate(565.457955 191.365039)scale(0.1 -0.1)">
       <use xlink:href="#DejaVuSans-49"/>
       <use x="63.623047" xlink:href="#DejaVuSans-48"/>
       <use x="127.246094" xlink:href="#DejaVuSans-48"/>
      </g>
     </g>
    </g>
    <g id="ytick_16">
     <g id="line2d_29">
      <g>
       <use style="stroke:#000000;stroke-width:0.8;" x="591.545455" xlink:href="#m622d6a54be" y="115.531176"/>
      </g>
     </g>
     <g id="text_27">
      <!-- 120 -->
      <g transform="translate(565.457955 119.330395)scale(0.1 -0.1)">
       <use xlink:href="#DejaVuSans-49"/>
       <use x="63.623047" xlink:href="#DejaVuSans-50"/>
       <use x="127.246094" xlink:href="#DejaVuSans-48"/>
      </g>
     </g>
    </g>
   </g>
   <g id="line2d_30">
    <path clip-path="url(#pd5e4b720d0)" d="M 625.918245 547.739042 
L 626.29834 519.307631 
L 627.478903 452.922366 
L 627.301826 448.04873 
L 626.573577 438.106718 
L 625.013589 422.950273 
L 624.025554 412.873025 
L 623.370046 402.968879 
L 623.244926 398.12229 
L 623.29646 393.367662 
L 623.555824 388.721223 
L 624.054192 384.199202 
L 624.822738 379.817826 
L 625.892637 375.593325 
L 627.295063 371.541927 
L 629.06119 367.679859 
L 631.305325 364.066627 
L 634.079425 360.729277 
L 637.32114 357.635352 
L 640.968124 354.752396 
L 644.958025 352.047952 
L 649.228497 349.489564 
L 653.717189 347.044774 
L 663.099841 342.366163 
L 672.607191 337.752466 
L 677.251755 335.388818 
L 681.740447 332.944028 
L 686.010919 330.385639 
L 690.00082 327.681196 
L 693.647804 324.79824 
L 696.88952 321.704315 
L 699.663619 318.366965 
L 701.907754 314.753732 
L 703.564919 310.813943 
L 704.664671 306.546649 
L 705.274506 301.993987 
L 705.461918 297.198093 
L 705.294404 292.201103 
L 704.839458 287.045152 
L 704.164576 281.772376 
L 702.424983 271.044892 
L 700.615589 260.355738 
L 699.853453 255.130874 
L 699.276353 250.041999 
L 698.951784 245.131251 
L 698.94724 240.440763 
L 699.330217 236.012672 
L 700.16821 231.889115 
L 701.528715 228.112226 
L 703.479227 224.724141 
L 705.978907 221.606576 
L 708.915998 218.617594 
L 712.251617 215.76385 
L 715.946881 213.051999 
L 719.962904 210.488699 
L 724.260805 208.080605 
L 728.801699 205.834372 
L 733.546703 203.756656 
L 738.456932 201.854114 
L 743.493504 200.133401 
L 748.617534 198.601174 
L 753.79014 197.264087 
L 758.972437 196.128797 
L 764.125542 195.201959 
L 769.210571 194.49023 
L 774.18864 194.000266 
L 779.020867 193.738721 
L 783.668367 193.712253 
L 788.092256 193.927517 
L 792.414563 194.424863 
L 796.77628 195.227788 
L 801.166977 196.317664 
L 805.576218 197.675865 
L 809.993573 199.283763 
L 814.408607 201.12273 
L 818.810887 203.174141 
L 823.189981 205.419368 
L 827.535456 207.839784 
L 831.836879 210.416761 
L 836.083817 213.131673 
L 840.265837 215.965894 
L 844.372506 218.900794 
L 852.318059 224.99813 
L 859.837014 231.274663 
L 866.845906 237.581377 
L 870.164551 240.787833 
L 873.395164 244.12923 
L 876.538817 247.596816 
L 879.596585 251.18184 
L 882.569542 254.875549 
L 885.458761 258.66919 
L 888.265315 262.554011 
L 893.634727 270.562184 
L 898.686367 278.830049 
L 903.428825 287.287587 
L 907.87069 295.864778 
L 912.020554 304.491605 
L 915.887004 313.098048 
L 928.284965 341.446092 
L 932.253613 351.506525 
L 934.058672 356.533722 
L 935.700216 361.524062 
L 937.145243 366.451414 
L 938.360749 371.289643 
L 939.313732 376.012618 
L 939.971187 380.594205 
L 940.300113 385.008272 
L 940.267505 389.228686 
L 939.840361 393.229314 
L 938.985678 396.984024 
L 937.670452 400.466682 
L 935.836915 403.675418 
L 933.479251 406.639751 
L 930.642387 409.380628 
L 927.371246 411.918998 
L 923.710753 414.275811 
L 919.705835 416.472016 
L 915.401416 418.528561 
L 910.842421 420.466396 
L 906.073775 422.306469 
L 896.087233 425.777125 
L 875.575046 432.46705 
L 870.59675 434.209361 
L 865.768204 436.021502 
L 861.134334 437.924422 
L 856.740065 439.939069 
L 856.740065 439.939069 
" style="fill:none;stroke:#fea952;stroke-linecap:square;"/>
   </g>
   <g id="line2d_31">
    <path clip-path="url(#pd5e4b720d0)" d="M 611.511983 547.600434 
L 611.893642 519.054106 
L 613.081475 453.445479 
L 612.92353 448.956591 
L 612.234044 439.498614 
L 610.682371 424.425325 
L 609.661434 413.982829 
L 609.255439 408.682016 
L 608.967916 403.340686 
L 608.838843 397.966145 
L 608.911924 392.564718 
L 609.2356 387.143004 
L 609.863922 381.710057 
L 610.856744 376.280794 
L 612.278309 370.880611 
L 614.193112 365.550392 
L 616.822669 360.078662 
L 620.226154 354.857307 
L 624.132531 350.307237 
L 628.386796 346.333269 
L 632.884732 342.826861 
L 637.55401 339.689143 
L 642.337503 336.837536 
L 647.182893 334.204892 
L 656.844538 329.388075 
L 666.072894 324.912584 
L 670.360762 322.73679 
L 674.336432 320.585219 
L 677.927527 318.460105 
L 681.066476 316.379113 
L 683.70091 314.376201 
L 685.810349 312.494995 
L 687.425098 310.765768 
L 688.627777 309.167874 
L 689.613842 307.21852 
L 690.38528 304.633907 
L 690.878564 301.431427 
L 691.063078 297.680786 
L 690.943234 293.467408 
L 690.549109 288.874227 
L 689.927035 283.975111 
L 688.229207 273.502438 
L 686.359526 262.435227 
L 685.538281 256.754275 
L 684.900789 250.992134 
L 684.544862 245.145207 
L 684.593894 239.19937 
L 685.211874 233.143529 
L 686.613856 227.006588 
L 689.043022 220.924245 
L 692.239211 215.711836 
L 695.70286 211.50893 
L 699.550234 207.670354 
L 703.727815 204.149014 
L 708.195698 200.907916 
L 712.920803 197.920151 
L 717.872977 195.16723 
L 723.022984 192.637173 
L 728.341584 190.32288 
L 733.799221 188.220871 
L 739.366016 186.330379 
L 745.011945 184.652721 
L 750.707115 183.190901 
L 756.422129 181.949391 
L 762.128534 180.934109 
L 767.799393 180.152581 
L 773.410005 179.614393 
L 778.938818 179.332026 
L 784.36857 179.32235 
L 789.739124 179.615025 
L 795.022831 180.256005 
L 800.247097 181.245191 
L 805.40816 182.549151 
L 810.503982 184.137891 
L 815.533083 185.984386 
L 820.493811 188.064021 
L 825.383936 190.354054 
L 830.200462 192.833155 
L 834.93957 195.481033 
L 839.596644 198.27816 
L 844.166338 201.205549 
L 848.642654 204.244607 
L 853.01903 207.377027 
L 857.288432 210.584707 
L 865.476262 217.154237 
L 873.143255 223.81133 
L 876.856507 227.220516 
L 880.522043 230.773744 
L 884.068743 234.452748 
L 887.500167 238.24757 
L 890.819793 242.148612 
L 894.03098 246.146572 
L 897.136945 250.232389 
L 900.140748 254.397192 
L 903.045291 258.632261 
L 908.567414 267.278847 
L 913.723475 276.104135 
L 918.531483 285.040757 
L 923.007615 294.021515 
L 927.166526 302.979063 
L 939.465001 330.87366 
L 943.766557 341.301683 
L 945.812974 346.637919 
L 947.744197 352.031945 
L 949.524908 357.469744 
L 951.117965 362.941053 
L 952.483062 368.440101 
L 953.574578 373.966193 
L 954.338282 379.523604 
L 954.706612 385.119579 
L 954.593012 390.758209 
L 953.887946 396.426962 
L 952.463527 402.073934 
L 950.179214 407.614441 
L 947.112401 412.643306 
L 943.489693 417.000767 
L 939.474697 420.762627 
L 935.170422 424.032315 
L 930.637976 426.90804 
L 925.916646 429.471456 
L 921.037196 431.787429 
L 916.028883 433.907386 
L 910.922622 435.872908 
L 900.554383 439.473992 
L 875.658878 447.69767 
L 871.240986 449.348477 
L 867.138544 451.020568 
L 862.744275 453.035216 
L 862.744275 453.035216 
" style="fill:none;stroke:#ffffff;stroke-linecap:square;"/>
   </g>
   <g id="line2d_32">
    <path clip-path="url(#pd5e4b720d0)" d="M 640.324507 547.87765 
L 640.703038 519.561156 
L 641.876332 452.399253 
L 641.680121 447.140869 
L 640.913111 436.714822 
L 639.344807 421.475222 
L 638.389674 411.76322 
L 637.772176 402.597071 
L 637.651008 398.278435 
L 637.680996 394.170606 
L 637.876049 390.299442 
L 638.244462 386.688346 
L 638.788733 383.354859 
L 639.506965 380.30604 
L 640.397013 377.533461 
L 641.299711 375.281056 
L 642.384496 373.275947 
L 644.026318 371.151316 
L 646.255485 368.937435 
L 649.051515 366.677931 
L 652.36204 364.406761 
L 656.11949 362.141592 
L 660.251486 359.884656 
L 669.355144 355.344252 
L 679.141487 350.592348 
L 684.142748 348.040845 
L 689.144462 345.302837 
L 694.09431 342.311174 
L 698.935165 338.983279 
L 703.594698 335.220279 
L 707.968691 330.913635 
L 711.902141 325.968162 
L 715.187731 320.339591 
L 717.515995 314.409365 
L 718.944062 308.459391 
L 719.670447 302.556548 
L 719.860759 296.715401 
L 719.645574 290.934798 
L 719.129807 285.216077 
L 718.402116 279.569641 
L 716.62076 268.587346 
L 714.871651 258.276249 
L 714.168626 253.507472 
L 713.651918 249.091865 
L 713.358706 245.117294 
L 713.300586 241.682157 
L 713.44856 238.881816 
L 714.014408 235.300206 
L 714.719242 233.736446 
L 716.254953 231.704223 
L 718.281762 229.564834 
L 720.775419 227.378685 
L 723.698063 225.196083 
L 727.005006 223.057247 
L 730.648633 220.99398 
L 734.580414 219.03157 
L 738.751821 217.190433 
L 743.114643 215.487358 
L 747.620992 213.936424 
L 752.223124 212.549626 
L 756.873164 211.337272 
L 761.522745 210.308202 
L 766.122549 209.46981 
L 770.621748 208.827879 
L 774.967276 208.386138 
L 779.102915 208.145417 
L 782.968163 208.102156 
L 786.445388 208.240009 
L 789.806295 208.593721 
L 793.305464 209.210386 
L 796.925794 210.086178 
L 800.648455 211.213839 
L 804.454062 212.583139 
L 808.323402 214.181439 
L 812.237838 215.994228 
L 816.179501 218.005581 
L 820.131343 220.198534 
L 824.077115 222.555363 
L 828.001296 225.057798 
L 831.889021 227.68718 
L 839.49835 233.250791 
L 846.795894 239.092383 
L 853.677612 245.055792 
L 859.807059 250.801921 
L 862.721584 253.805711 
L 865.577467 256.946062 
L 868.373377 260.215067 
L 871.108103 263.604525 
L 873.780576 267.10599 
L 878.935268 274.410258 
L 883.83205 282.057215 
L 888.467939 289.974835 
L 892.842107 298.090447 
L 896.955556 306.331212 
L 900.810812 314.624438 
L 914.930653 346.851825 
L 918.694252 356.375131 
L 920.373146 361.035498 
L 921.875524 365.578381 
L 923.172521 369.961775 
L 924.238437 374.139186 
L 925.052885 378.059043 
L 925.604092 381.664806 
L 925.893614 384.896965 
L 925.941998 387.699163 
L 925.792776 390.031666 
L 925.507829 391.894113 
L 925.161689 393.318923 
L 924.561429 394.70753 
L 923.46881 396.278735 
L 921.810077 397.998629 
L 919.572069 399.805681 
L 916.783531 401.643583 
L 913.495024 403.472577 
L 909.765636 405.269693 
L 905.655959 407.025406 
L 901.224929 408.740029 
L 891.620083 412.080258 
L 870.815937 418.868871 
L 865.534622 420.721053 
L 860.295422 422.694527 
L 855.130124 424.828275 
L 850.735855 426.842922 
L 850.735855 426.842922 
" style="fill:none;stroke:#ffffff;stroke-linecap:square;"/>
   </g>
   <g id="patch_8">
    <path d="M 591.545455 640.8 
L 591.545455 86.4 
" style="fill:none;stroke:#000000;stroke-linecap:square;stroke-linejoin:miter;stroke-width:0.8;"/>
   </g>
   <g id="patch_9">
    <path d="M 972 640.8 
L 972 86.4 
" style="fill:none;stroke:#000000;stroke-linecap:square;stroke-linejoin:miter;stroke-width:0.8;"/>
   </g>
   <g id="patch_10">
    <path d="M 591.545455 640.8 
L 972 640.8 
" style="fill:none;stroke:#000000;stroke-linecap:square;stroke-linejoin:miter;stroke-width:0.8;"/>
   </g>
   <g id="patch_11">
    <path d="M 591.545455 86.4 
L 972 86.4 
" style="fill:none;stroke:#000000;stroke-linecap:square;stroke-linejoin:miter;stroke-width:0.8;"/>
   </g>
   <g id="text_28">
    <!-- dist to bound ~ 1.21 -->
    <g transform="translate(719.886477 80.4)scale(0.12 -0.12)">
     <use xlink:href="#DejaVuSans-100"/>
     <use x="63.476562" xlink:href="#DejaVuSans-105"/>
     <use x="91.259766" xlink:href="#DejaVuSans-115"/>
     <use x="143.359375" xlink:href="#DejaVuSans-116"/>
     <use x="182.568359" xlink:href="#DejaVuSans-32"/>
     <use x="214.355469" xlink:href="#DejaVuSans-116"/>
     <use x="253.564453" xlink:href="#DejaVuSans-111"/>
     <use x="314.746094" xlink:href="#DejaVuSans-32"/>
     <use x="346.533203" xlink:href="#DejaVuSans-98"/>
     <use x="410.009766" xlink:href="#DejaVuSans-111"/>
     <use x="471.191406" xlink:href="#DejaVuSans-117"/>
     <use x="534.570312" xlink:href="#DejaVuSans-110"/>
     <use x="597.949219" xlink:href="#DejaVuSans-100"/>
     <use x="661.425781" xlink:href="#DejaVuSans-32"/>
     <use x="693.212891" xlink:href="#DejaVuSans-126"/>
     <use x="777.001953" xlink:href="#DejaVuSans-32"/>
     <use x="808.789062" xlink:href="#DejaVuSans-49"/>
     <use x="872.412109" xlink:href="#DejaVuSans-46"/>
     <use x="904.199219" xlink:href="#DejaVuSans-50"/>
     <use x="967.822266" xlink:href="#DejaVuSans-49"/>
    </g>
   </g>
  </g>
  <g id="text_29">
   <!-- members distance = 0.5 ; oob_ff = -0.1 -->
   <g transform="translate(421.052813 23.518125)scale(0.12 -0.12)">
    <defs>
     <path d="M 52 44.1875 
Q 55.375 50.25 60.0625 53.125 
Q 64.75 56 71.09375 56 
Q 79.640625 56 84.28125 50.015625 
Q 88.921875 44.046875 88.921875 33.015625 
L 88.921875 0 
L 79.890625 0 
L 79.890625 32.71875 
Q 79.890625 40.578125 77.09375 44.375 
Q 74.3125 48.1875 68.609375 48.1875 
Q 61.625 48.1875 57.5625 43.546875 
Q 53.515625 38.921875 53.515625 30.90625 
L 53.515625 0 
L 44.484375 0 
L 44.484375 32.71875 
Q 44.484375 40.625 41.703125 44.40625 
Q 38.921875 48.1875 33.109375 48.1875 
Q 26.21875 48.1875 22.15625 43.53125 
Q 18.109375 38.875 18.109375 30.90625 
L 18.109375 0 
L 9.078125 0 
L 9.078125 54.6875 
L 18.109375 54.6875 
L 18.109375 46.1875 
Q 21.1875 51.21875 25.484375 53.609375 
Q 29.78125 56 35.6875 56 
Q 41.65625 56 45.828125 52.96875 
Q 50 49.953125 52 44.1875 
z
" id="DejaVuSans-109"/>
     <path d="M 56.203125 29.59375 
L 56.203125 25.203125 
L 14.890625 25.203125 
Q 15.484375 15.921875 20.484375 11.0625 
Q 25.484375 6.203125 34.421875 6.203125 
Q 39.59375 6.203125 44.453125 7.46875 
Q 49.3125 8.734375 54.109375 11.28125 
L 54.109375 2.78125 
Q 49.265625 0.734375 44.1875 -0.34375 
Q 39.109375 -1.421875 33.890625 -1.421875 
Q 20.796875 -1.421875 13.15625 6.1875 
Q 5.515625 13.8125 5.515625 26.8125 
Q 5.515625 40.234375 12.765625 48.109375 
Q 20.015625 56 32.328125 56 
Q 43.359375 56 49.78125 48.890625 
Q 56.203125 41.796875 56.203125 29.59375 
z
M 47.21875 32.234375 
Q 47.125 39.59375 43.09375 43.984375 
Q 39.0625 48.390625 32.421875 48.390625 
Q 24.90625 48.390625 20.390625 44.140625 
Q 15.875 39.890625 15.1875 32.171875 
z
" id="DejaVuSans-101"/>
     <path d="M 41.109375 46.296875 
Q 39.59375 47.171875 37.8125 47.578125 
Q 36.03125 48 33.890625 48 
Q 26.265625 48 22.1875 43.046875 
Q 18.109375 38.09375 18.109375 28.8125 
L 18.109375 0 
L 9.078125 0 
L 9.078125 54.6875 
L 18.109375 54.6875 
L 18.109375 46.1875 
Q 20.953125 51.171875 25.484375 53.578125 
Q 30.03125 56 36.53125 56 
Q 37.453125 56 38.578125 55.875 
Q 39.703125 55.765625 41.0625 55.515625 
z
" id="DejaVuSans-114"/>
     <path d="M 34.28125 27.484375 
Q 23.390625 27.484375 19.1875 25 
Q 14.984375 22.515625 14.984375 16.5 
Q 14.984375 11.71875 18.140625 8.90625 
Q 21.296875 6.109375 26.703125 6.109375 
Q 34.1875 6.109375 38.703125 11.40625 
Q 43.21875 16.703125 43.21875 25.484375 
L 43.21875 27.484375 
z
M 52.203125 31.203125 
L 52.203125 0 
L 43.21875 0 
L 43.21875 8.296875 
Q 40.140625 3.328125 35.546875 0.953125 
Q 30.953125 -1.421875 24.3125 -1.421875 
Q 15.921875 -1.421875 10.953125 3.296875 
Q 6 8.015625 6 15.921875 
Q 6 25.140625 12.171875 29.828125 
Q 18.359375 34.515625 30.609375 34.515625 
L 43.21875 34.515625 
L 43.21875 35.40625 
Q 43.21875 41.609375 39.140625 45 
Q 35.0625 48.390625 27.6875 48.390625 
Q 23 48.390625 18.546875 47.265625 
Q 14.109375 46.140625 10.015625 43.890625 
L 10.015625 52.203125 
Q 14.9375 54.109375 19.578125 55.046875 
Q 24.21875 56 28.609375 56 
Q 40.484375 56 46.34375 49.84375 
Q 52.203125 43.703125 52.203125 31.203125 
z
" id="DejaVuSans-97"/>
     <path d="M 48.78125 52.59375 
L 48.78125 44.1875 
Q 44.96875 46.296875 41.140625 47.34375 
Q 37.3125 48.390625 33.40625 48.390625 
Q 24.65625 48.390625 19.8125 42.84375 
Q 14.984375 37.3125 14.984375 27.296875 
Q 14.984375 17.28125 19.8125 11.734375 
Q 24.65625 6.203125 33.40625 6.203125 
Q 37.3125 6.203125 41.140625 7.25 
Q 44.96875 8.296875 48.78125 10.40625 
L 48.78125 2.09375 
Q 45.015625 0.34375 40.984375 -0.53125 
Q 36.96875 -1.421875 32.421875 -1.421875 
Q 20.0625 -1.421875 12.78125 6.34375 
Q 5.515625 14.109375 5.515625 27.296875 
Q 5.515625 40.671875 12.859375 48.328125 
Q 20.21875 56 33.015625 56 
Q 37.15625 56 41.109375 55.140625 
Q 45.0625 54.296875 48.78125 52.59375 
z
" id="DejaVuSans-99"/>
     <path d="M 10.59375 45.40625 
L 73.1875 45.40625 
L 73.1875 37.203125 
L 10.59375 37.203125 
z
M 10.59375 25.484375 
L 73.1875 25.484375 
L 73.1875 17.1875 
L 10.59375 17.1875 
z
" id="DejaVuSans-61"/>
     <path d="M 10.796875 72.90625 
L 49.515625 72.90625 
L 49.515625 64.59375 
L 19.828125 64.59375 
L 19.828125 46.734375 
Q 21.96875 47.46875 24.109375 47.828125 
Q 26.265625 48.1875 28.421875 48.1875 
Q 40.625 48.1875 47.75 41.5 
Q 54.890625 34.8125 54.890625 23.390625 
Q 54.890625 11.625 47.5625 5.09375 
Q 40.234375 -1.421875 26.90625 -1.421875 
Q 22.3125 -1.421875 17.546875 -0.640625 
Q 12.796875 0.140625 7.71875 1.703125 
L 7.71875 11.625 
Q 12.109375 9.234375 16.796875 8.0625 
Q 21.484375 6.890625 26.703125 6.890625 
Q 35.15625 6.890625 40.078125 11.328125 
Q 45.015625 15.765625 45.015625 23.390625 
Q 45.015625 31 40.078125 35.4375 
Q 35.15625 39.890625 26.703125 39.890625 
Q 22.75 39.890625 18.8125 39.015625 
Q 14.890625 38.140625 10.796875 36.28125 
z
" id="DejaVuSans-53"/>
     <path d="M 11.71875 51.703125 
L 22.015625 51.703125 
L 22.015625 39.3125 
L 11.71875 39.3125 
z
M 11.71875 12.40625 
L 22.015625 12.40625 
L 22.015625 4 
L 14.015625 -11.625 
L 7.71875 -11.625 
L 11.71875 4 
z
" id="DejaVuSans-59"/>
     <path d="M 50.984375 -16.609375 
L 50.984375 -23.578125 
L -0.984375 -23.578125 
L -0.984375 -16.609375 
z
" id="DejaVuSans-95"/>
     <path d="M 37.109375 75.984375 
L 37.109375 68.5 
L 28.515625 68.5 
Q 23.6875 68.5 21.796875 66.546875 
Q 19.921875 64.59375 19.921875 59.515625 
L 19.921875 54.6875 
L 34.71875 54.6875 
L 34.71875 47.703125 
L 19.921875 47.703125 
L 19.921875 0 
L 10.890625 0 
L 10.890625 47.703125 
L 2.296875 47.703125 
L 2.296875 54.6875 
L 10.890625 54.6875 
L 10.890625 58.5 
Q 10.890625 67.625 15.140625 71.796875 
Q 19.390625 75.984375 28.609375 75.984375 
z
" id="DejaVuSans-102"/>
    </defs>
    <use xlink:href="#DejaVuSans-109"/>
    <use x="97.412109" xlink:href="#DejaVuSans-101"/>
    <use x="158.935547" xlink:href="#DejaVuSans-109"/>
    <use x="256.347656" xlink:href="#DejaVuSans-98"/>
    <use x="319.824219" xlink:href="#DejaVuSans-101"/>
    <use x="381.347656" xlink:href="#DejaVuSans-114"/>
    <use x="422.460938" xlink:href="#DejaVuSans-115"/>
    <use x="474.560547" xlink:href="#DejaVuSans-32"/>
    <use x="506.347656" xlink:href="#DejaVuSans-100"/>
    <use x="569.824219" xlink:href="#DejaVuSans-105"/>
    <use x="597.607422" xlink:href="#DejaVuSans-115"/>
    <use x="649.707031" xlink:href="#DejaVuSans-116"/>
    <use x="688.916016" xlink:href="#DejaVuSans-97"/>
    <use x="750.195312" xlink:href="#DejaVuSans-110"/>
    <use x="813.574219" xlink:href="#DejaVuSans-99"/>
    <use x="868.554688" xlink:href="#DejaVuSans-101"/>
    <use x="930.078125" xlink:href="#DejaVuSans-32"/>
    <use x="961.865234" xlink:href="#DejaVuSans-61"/>
    <use x="1045.654297" xlink:href="#DejaVuSans-32"/>
    <use x="1077.441406" xlink:href="#DejaVuSans-48"/>
    <use x="1141.064453" xlink:href="#DejaVuSans-46"/>
    <use x="1172.851562" xlink:href="#DejaVuSans-53"/>
    <use x="1236.474609" xlink:href="#DejaVuSans-32"/>
    <use x="1268.261719" xlink:href="#DejaVuSans-59"/>
    <use x="1301.953125" xlink:href="#DejaVuSans-32"/>
    <use x="1333.740234" xlink:href="#DejaVuSans-111"/>
    <use x="1394.921875" xlink:href="#DejaVuSans-111"/>
    <use x="1456.103516" xlink:href="#DejaVuSans-98"/>
    <use x="1519.580078" xlink:href="#DejaVuSans-95"/>
    <use x="1569.580078" xlink:href="#DejaVuSans-102"/>
    <use x="1604.785156" xlink:href="#DejaVuSans-102"/>
    <use x="1639.990234" xlink:href="#DejaVuSans-32"/>
    <use x="1671.777344" xlink:href="#DejaVuSans-61"/>
    <use x="1755.566406" xlink:href="#DejaVuSans-32"/>
    <use x="1787.353516" xlink:href="#DejaVuSans-45"/>
    <use x="1823.4375" xlink:href="#DejaVuSans-48"/>
    <use x="1887.060547" xlink:href="#DejaVuSans-46"/>
    <use x="1918.847656" xlink:href="#DejaVuSans-49"/>
   </g>
  </g>
 </g>
 <defs>
  <clipPath id="pb3315dc745">
   <rect height="554.4" width="380.454545" x="135" y="86.4"/>
  </clipPath>
  <clipPath id="pd5e4b720d0">
   <rect height="554.4" width="380.454545" x="591.545455" y="86.4"/>
  </clipPath>
 </defs>
</svg>
