<?xml version="1.0" encoding="utf-8" standalone="no"?>
<!DOCTYPE svg PUBLIC "-//W3C//DTD SVG 1.1//EN"
  "http://www.w3.org/Graphics/SVG/1.1/DTD/svg11.dtd">
<!-- Created with matplotlib (https://matplotlib.org/) -->
<svg height="345.6pt" version="1.1" viewBox="0 0 460.8 345.6" width="460.8pt" xmlns="http://www.w3.org/2000/svg" xmlns:xlink="http://www.w3.org/1999/xlink">
 <metadata>
  <rdf:RDF xmlns:cc="http://creativecommons.org/ns#" xmlns:dc="http://purl.org/dc/elements/1.1/" xmlns:rdf="http://www.w3.org/1999/02/22-rdf-syntax-ns#">
   <cc:Work>
    <dc:type rdf:resource="http://purl.org/dc/dcmitype/StillImage"/>
    <dc:date>2021-07-08T15:38:19.190340</dc:date>
    <dc:format>image/svg+xml</dc:format>
    <dc:creator>
     <cc:Agent>
      <dc:title>Matplotlib v3.3.3, https://matplotlib.org/</dc:title>
     </cc:Agent>
    </dc:creator>
   </cc:Work>
  </rdf:RDF>
 </metadata>
 <defs>
  <style type="text/css">*{stroke-linecap:butt;stroke-linejoin:round;}</style>
 </defs>
 <g id="figure_1">
  <g id="patch_1">
   <path d="M 0 345.6 
L 460.8 345.6 
L 460.8 0 
L 0 0 
z
" style="fill:#ffffff;"/>
  </g>
  <g id="axes_1">
   <g id="patch_2">
    <path d="M 57.6 307.584 
L 414.72 307.584 
L 414.72 41.472 
L 57.6 41.472 
z
" style="fill:#7d9051;"/>
   </g>
   <g id="matplotlib.axis_1">
    <g id="xtick_1">
     <g id="line2d_1">
      <defs>
       <path d="M 0 0 
L 0 3.5 
" id="m90ee20b421" style="stroke:#000000;stroke-width:0.8;"/>
      </defs>
      <g>
       <use style="stroke:#000000;stroke-width:0.8;" x="97.288805" xlink:href="#m90ee20b421" y="307.584"/>
      </g>
     </g>
     <g id="text_1">
      <!-- −150 -->
      <g transform="translate(83.555211 322.182437)scale(0.1 -0.1)">
       <defs>
        <path d="M 10.59375 35.5 
L 73.1875 35.5 
L 73.1875 27.203125 
L 10.59375 27.203125 
z
" id="DejaVuSans-8722"/>
        <path d="M 12.40625 8.296875 
L 28.515625 8.296875 
L 28.515625 63.921875 
L 10.984375 60.40625 
L 10.984375 69.390625 
L 28.421875 72.90625 
L 38.28125 72.90625 
L 38.28125 8.296875 
L 54.390625 8.296875 
L 54.390625 0 
L 12.40625 0 
z
" id="DejaVuSans-49"/>
        <path d="M 10.796875 72.90625 
L 49.515625 72.90625 
L 49.515625 64.59375 
L 19.828125 64.59375 
L 19.828125 46.734375 
Q 21.96875 47.46875 24.109375 47.828125 
Q 26.265625 48.1875 28.421875 48.1875 
Q 40.625 48.1875 47.75 41.5 
Q 54.890625 34.8125 54.890625 23.390625 
Q 54.890625 11.625 47.5625 5.09375 
Q 40.234375 -1.421875 26.90625 -1.421875 
Q 22.3125 -1.421875 17.546875 -0.640625 
Q 12.796875 0.140625 7.71875 1.703125 
L 7.71875 11.625 
Q 12.109375 9.234375 16.796875 8.0625 
Q 21.484375 6.890625 26.703125 6.890625 
Q 35.15625 6.890625 40.078125 11.328125 
Q 45.015625 15.765625 45.015625 23.390625 
Q 45.015625 31 40.078125 35.4375 
Q 35.15625 39.890625 26.703125 39.890625 
Q 22.75 39.890625 18.8125 39.015625 
Q 14.890625 38.140625 10.796875 36.28125 
z
" id="DejaVuSans-53"/>
        <path d="M 31.78125 66.40625 
Q 24.171875 66.40625 20.328125 58.90625 
Q 16.5 51.421875 16.5 36.375 
Q 16.5 21.390625 20.328125 13.890625 
Q 24.171875 6.390625 31.78125 6.390625 
Q 39.453125 6.390625 43.28125 13.890625 
Q 47.125 21.390625 47.125 36.375 
Q 47.125 51.421875 43.28125 58.90625 
Q 39.453125 66.40625 31.78125 66.40625 
z
M 31.78125 74.21875 
Q 44.046875 74.21875 50.515625 64.515625 
Q 56.984375 54.828125 56.984375 36.375 
Q 56.984375 17.96875 50.515625 8.265625 
Q 44.046875 -1.421875 31.78125 -1.421875 
Q 19.53125 -1.421875 13.0625 8.265625 
Q 6.59375 17.96875 6.59375 36.375 
Q 6.59375 54.828125 13.0625 64.515625 
Q 19.53125 74.21875 31.78125 74.21875 
z
" id="DejaVuSans-48"/>
       </defs>
       <use xlink:href="#DejaVuSans-8722"/>
       <use x="83.789062" xlink:href="#DejaVuSans-49"/>
       <use x="147.412109" xlink:href="#DejaVuSans-53"/>
       <use x="211.035156" xlink:href="#DejaVuSans-48"/>
      </g>
     </g>
    </g>
    <g id="xtick_2">
     <g id="line2d_2">
      <g>
       <use style="stroke:#000000;stroke-width:0.8;" x="167.924172" xlink:href="#m90ee20b421" y="307.584"/>
      </g>
     </g>
     <g id="text_2">
      <!-- −100 -->
      <g transform="translate(154.190579 322.182437)scale(0.1 -0.1)">
       <use xlink:href="#DejaVuSans-8722"/>
       <use x="83.789062" xlink:href="#DejaVuSans-49"/>
       <use x="147.412109" xlink:href="#DejaVuSans-48"/>
       <use x="211.035156" xlink:href="#DejaVuSans-48"/>
      </g>
     </g>
    </g>
    <g id="xtick_3">
     <g id="line2d_3">
      <g>
       <use style="stroke:#000000;stroke-width:0.8;" x="238.55954" xlink:href="#m90ee20b421" y="307.584"/>
      </g>
     </g>
     <g id="text_3">
      <!-- −50 -->
      <g transform="translate(228.007196 322.182437)scale(0.1 -0.1)">
       <use xlink:href="#DejaVuSans-8722"/>
       <use x="83.789062" xlink:href="#DejaVuSans-53"/>
       <use x="147.412109" xlink:href="#DejaVuSans-48"/>
      </g>
     </g>
    </g>
    <g id="xtick_4">
     <g id="line2d_4">
      <g>
       <use style="stroke:#000000;stroke-width:0.8;" x="309.194908" xlink:href="#m90ee20b421" y="307.584"/>
      </g>
     </g>
     <g id="text_4">
      <!-- 0 -->
      <g transform="translate(306.013658 322.182437)scale(0.1 -0.1)">
       <use xlink:href="#DejaVuSans-48"/>
      </g>
     </g>
    </g>
    <g id="xtick_5">
     <g id="line2d_5">
      <g>
       <use style="stroke:#000000;stroke-width:0.8;" x="379.830275" xlink:href="#m90ee20b421" y="307.584"/>
      </g>
     </g>
     <g id="text_5">
      <!-- 50 -->
      <g transform="translate(373.467775 322.182437)scale(0.1 -0.1)">
       <use xlink:href="#DejaVuSans-53"/>
       <use x="63.623047" xlink:href="#DejaVuSans-48"/>
      </g>
     </g>
    </g>
   </g>
   <g id="matplotlib.axis_2">
    <g id="ytick_1">
     <g id="line2d_6">
      <defs>
       <path d="M 0 0 
L -3.5 0 
" id="m3bf7b6c1a0" style="stroke:#000000;stroke-width:0.8;"/>
      </defs>
      <g>
       <use style="stroke:#000000;stroke-width:0.8;" x="57.6" xlink:href="#m3bf7b6c1a0" y="295.433634"/>
      </g>
     </g>
     <g id="text_6">
      <!-- 0 -->
      <g transform="translate(44.2375 299.232852)scale(0.1 -0.1)">
       <use xlink:href="#DejaVuSans-48"/>
      </g>
     </g>
    </g>
    <g id="ytick_2">
     <g id="line2d_7">
      <g>
       <use style="stroke:#000000;stroke-width:0.8;" x="57.6" xlink:href="#m3bf7b6c1a0" y="260.11595"/>
      </g>
     </g>
     <g id="text_7">
      <!-- 25 -->
      <g transform="translate(37.875 263.915169)scale(0.1 -0.1)">
       <defs>
        <path d="M 19.1875 8.296875 
L 53.609375 8.296875 
L 53.609375 0 
L 7.328125 0 
L 7.328125 8.296875 
Q 12.9375 14.109375 22.625 23.890625 
Q 32.328125 33.6875 34.8125 36.53125 
Q 39.546875 41.84375 41.421875 45.53125 
Q 43.3125 49.21875 43.3125 52.78125 
Q 43.3125 58.59375 39.234375 62.25 
Q 35.15625 65.921875 28.609375 65.921875 
Q 23.96875 65.921875 18.8125 64.3125 
Q 13.671875 62.703125 7.8125 59.421875 
L 7.8125 69.390625 
Q 13.765625 71.78125 18.9375 73 
Q 24.125 74.21875 28.421875 74.21875 
Q 39.75 74.21875 46.484375 68.546875 
Q 53.21875 62.890625 53.21875 53.421875 
Q 53.21875 48.921875 51.53125 44.890625 
Q 49.859375 40.875 45.40625 35.40625 
Q 44.1875 33.984375 37.640625 27.21875 
Q 31.109375 20.453125 19.1875 8.296875 
z
" id="DejaVuSans-50"/>
       </defs>
       <use xlink:href="#DejaVuSans-50"/>
       <use x="63.623047" xlink:href="#DejaVuSans-53"/>
      </g>
     </g>
    </g>
    <g id="ytick_3">
     <g id="line2d_8">
      <g>
       <use style="stroke:#000000;stroke-width:0.8;" x="57.6" xlink:href="#m3bf7b6c1a0" y="224.798266"/>
      </g>
     </g>
     <g id="text_8">
      <!-- 50 -->
      <g transform="translate(37.875 228.597485)scale(0.1 -0.1)">
       <use xlink:href="#DejaVuSans-53"/>
       <use x="63.623047" xlink:href="#DejaVuSans-48"/>
      </g>
     </g>
    </g>
    <g id="ytick_4">
     <g id="line2d_9">
      <g>
       <use style="stroke:#000000;stroke-width:0.8;" x="57.6" xlink:href="#m3bf7b6c1a0" y="189.480582"/>
      </g>
     </g>
     <g id="text_9">
      <!-- 75 -->
      <g transform="translate(37.875 193.279801)scale(0.1 -0.1)">
       <defs>
        <path d="M 8.203125 72.90625 
L 55.078125 72.90625 
L 55.078125 68.703125 
L 28.609375 0 
L 18.3125 0 
L 43.21875 64.59375 
L 8.203125 64.59375 
z
" id="DejaVuSans-55"/>
       </defs>
       <use xlink:href="#DejaVuSans-55"/>
       <use x="63.623047" xlink:href="#DejaVuSans-53"/>
      </g>
     </g>
    </g>
    <g id="ytick_5">
     <g id="line2d_10">
      <g>
       <use style="stroke:#000000;stroke-width:0.8;" x="57.6" xlink:href="#m3bf7b6c1a0" y="154.162898"/>
      </g>
     </g>
     <g id="text_10">
      <!-- 100 -->
      <g transform="translate(31.5125 157.962117)scale(0.1 -0.1)">
       <use xlink:href="#DejaVuSans-49"/>
       <use x="63.623047" xlink:href="#DejaVuSans-48"/>
       <use x="127.246094" xlink:href="#DejaVuSans-48"/>
      </g>
     </g>
    </g>
    <g id="ytick_6">
     <g id="line2d_11">
      <g>
       <use style="stroke:#000000;stroke-width:0.8;" x="57.6" xlink:href="#m3bf7b6c1a0" y="118.845215"/>
      </g>
     </g>
     <g id="text_11">
      <!-- 125 -->
      <g transform="translate(31.5125 122.644433)scale(0.1 -0.1)">
       <use xlink:href="#DejaVuSans-49"/>
       <use x="63.623047" xlink:href="#DejaVuSans-50"/>
       <use x="127.246094" xlink:href="#DejaVuSans-53"/>
      </g>
     </g>
    </g>
    <g id="ytick_7">
     <g id="line2d_12">
      <g>
       <use style="stroke:#000000;stroke-width:0.8;" x="57.6" xlink:href="#m3bf7b6c1a0" y="83.527531"/>
      </g>
     </g>
     <g id="text_12">
      <!-- 150 -->
      <g transform="translate(31.5125 87.32675)scale(0.1 -0.1)">
       <use xlink:href="#DejaVuSans-49"/>
       <use x="63.623047" xlink:href="#DejaVuSans-53"/>
       <use x="127.246094" xlink:href="#DejaVuSans-48"/>
      </g>
     </g>
    </g>
    <g id="ytick_8">
     <g id="line2d_13">
      <g>
       <use style="stroke:#000000;stroke-width:0.8;" x="57.6" xlink:href="#m3bf7b6c1a0" y="48.209847"/>
      </g>
     </g>
     <g id="text_13">
      <!-- 175 -->
      <g transform="translate(31.5125 52.009066)scale(0.1 -0.1)">
       <use xlink:href="#DejaVuSans-49"/>
       <use x="63.623047" xlink:href="#DejaVuSans-55"/>
       <use x="127.246094" xlink:href="#DejaVuSans-53"/>
      </g>
     </g>
    </g>
   </g>
   <g id="line2d_14">
    <path clip-path="url(#p3197955728)" d="M 309.194908 295.433634 
L 309.482922 276.847893 
L 309.885827 258.237491 
L 310.245407 254.343333 
L 311.100525 248.312377 
L 312.240682 240.271102 
L 312.558162 236.402241 
L 312.557556 232.724506 
L 312.402887 230.97839 
L 312.126597 229.305352 
L 311.714652 227.713824 
L 311.153019 226.212237 
L 310.427665 224.809024 
L 309.491176 223.534996 
L 308.323307 222.404124 
L 306.950776 221.39958 
L 305.400304 220.504534 
L 303.69861 219.702159 
L 299.948432 218.308102 
L 293.856981 216.491322 
L 289.79695 215.26667 
L 285.987049 213.874177 
L 284.242695 213.072919 
L 282.641032 212.179213 
L 281.208779 211.176233 
L 279.972654 210.047149 
L 278.959378 208.775131 
L 278.186396 207.33924 
L 277.635611 205.743133 
L 277.280424 204.006879 
L 277.094239 202.150548 
L 277.050459 200.194209 
L 277.283726 196.061784 
L 278.635159 183.351535 
L 278.676158 181.398247 
L 278.593593 179.545644 
L 278.360866 177.813797 
L 277.951379 176.222774 
L 277.338537 174.792645 
L 276.495741 173.54348 
L 275.429363 172.486694 
L 274.175879 171.607384 
L 272.753853 170.886132 
L 271.181847 170.303524 
L 269.478425 169.840145 
L 265.751585 169.193412 
L 261.721837 168.790613 
L 253.347636 168.095526 
L 249.300193 167.492597 
L 247.376356 167.059332 
L 245.54386 166.512315 
L 243.821268 165.832128 
L 242.227143 164.999359 
L 239.216597 163.022238 
L 236.290158 160.775589 
L 233.463402 158.293281 
L 230.751905 155.609184 
L 228.171244 152.757167 
L 225.736995 149.771099 
L 223.464735 146.684851 
L 221.370038 143.53229 
L 219.468483 140.347288 
L 217.815702 137.120688 
L 217.160949 135.414551 
L 216.16302 131.819964 
L 215.477087 128.046538 
L 214.761649 122.219728 
L 214.049986 116.424204 
L 213.370763 112.706397 
L 212.382901 109.195236 
L 211.73444 107.541241 
L 210.962271 105.967819 
L 210.050879 104.484607 
L 209.001544 103.096423 
L 207.833652 101.795591 
L 206.558844 100.573011 
L 203.735041 98.3262 
L 200.623265 96.283178 
L 195.619367 93.441476 
L 188.80879 89.686235 
L 185.55359 87.659232 
L 182.522622 85.435557 
L 179.778381 82.963821 
L 177.187119 80.335945 
L 173.49093 76.186014 
L 169.958203 71.857696 
L 158.418557 57.1723 
L 158.418557 57.1723 
" style="fill:none;stroke:#fea952;stroke-linecap:square;"/>
   </g>
   <g id="line2d_15">
    <path clip-path="url(#p3197955728)" d="M 303.54434 295.379267 
L 303.833225 276.734796 
L 304.25187 257.801145 
L 304.640951 253.620873 
L 305.515916 247.449814 
L 306.616789 239.720012 
L 306.909083 236.26162 
L 306.928766 233.223098 
L 306.656049 230.721328 
L 306.133202 228.807099 
L 305.560255 227.59452 
L 304.985886 226.964113 
L 304.125645 226.293505 
L 302.990317 225.615682 
L 301.609725 224.952723 
L 298.258286 223.700251 
L 292.268772 221.914371 
L 287.968113 220.613372 
L 283.628316 219.00918 
L 281.489251 218.007533 
L 279.39962 216.807941 
L 277.397771 215.348534 
L 275.552755 213.567995 
L 273.983711 211.453677 
L 272.844672 209.182566 
L 272.099436 206.875672 
L 271.657804 204.570812 
L 271.444824 202.276973 
L 271.403162 199.99445 
L 271.663677 195.472788 
L 273.030932 181.649839 
L 272.888381 179.222267 
L 272.518096 177.557232 
L 272.184189 177.112786 
L 271.619764 176.647041 
L 270.790102 176.184769 
L 269.698563 175.756206 
L 268.369296 175.381057 
L 265.123409 174.809217 
L 261.292999 174.425146 
L 252.626158 173.700109 
L 248.058673 173.005355 
L 245.760007 172.474061 
L 243.468495 171.768238 
L 241.204787 170.840711 
L 239.21861 169.782725 
L 235.854311 167.563922 
L 232.628616 165.079654 
L 229.545917 162.365772 
L 226.61253 159.455928 
L 223.836515 156.382355 
L 221.227391 153.176292 
L 218.79585 149.868149 
L 216.553528 146.487472 
L 214.512858 143.062736 
L 213.495408 141.187548 
L 212.54002 139.1453 
L 211.760923 137.07936 
L 211.130363 135.003893 
L 210.212209 130.863676 
L 209.601699 126.789695 
L 208.201764 115.66078 
L 207.530661 112.609166 
L 206.661569 110.03079 
L 206.147735 108.926216 
L 205.543024 107.892115 
L 204.796728 106.871525 
L 202.919542 104.895899 
L 200.54718 102.99197 
L 197.744468 101.145728 
L 192.933835 98.413376 
L 185.893733 94.527136 
L 182.316727 92.291142 
L 178.833906 89.716357 
L 175.80119 86.978023 
L 173.035988 84.170001 
L 169.154344 79.808981 
L 165.515017 75.34911 
L 154.066443 60.7766 
L 154.066443 60.7766 
" style="fill:none;stroke:#ffffff;stroke-linecap:square;"/>
   </g>
   <g id="line2d_16">
    <path clip-path="url(#p3197955728)" d="M 314.845476 295.488 
L 315.13262 276.960989 
L 315.519784 258.673836 
L 315.849863 255.065794 
L 316.685134 249.17494 
L 317.864575 240.822192 
L 318.207242 236.542862 
L 318.253557 234.388392 
L 318.186346 232.225914 
L 317.978202 230.057667 
L 317.597144 227.889377 
L 317.007381 225.734205 
L 316.172836 223.617375 
L 314.980767 221.462214 
L 313.422097 219.475472 
L 311.660727 217.844136 
L 309.775908 216.505655 
L 307.810292 215.393386 
L 305.787496 214.451594 
L 301.638579 212.915952 
L 295.445191 211.068273 
L 289.900857 209.335307 
L 286.99614 208.138304 
L 285.019786 207.003932 
L 283.935046 206.096586 
L 283.528121 205.495914 
L 283.171785 204.610593 
L 282.903044 203.442946 
L 282.743654 202.024123 
L 282.756673 198.591322 
L 283.11779 194.602156 
L 284.135064 185.767879 
L 284.284744 183.470121 
L 284.321384 181.146655 
L 284.194081 178.793045 
L 283.83335 176.405327 
L 283.145403 173.997017 
L 282.022899 171.632167 
L 280.473386 169.529727 
L 278.674536 167.860603 
L 276.731994 166.567726 
L 274.717604 165.587495 
L 272.665132 164.850842 
L 270.587555 164.299233 
L 266.379762 163.577607 
L 262.150675 163.156079 
L 254.069114 162.490944 
L 250.541713 161.979839 
L 247.619225 161.256391 
L 246.437749 160.823546 
L 245.235677 160.215992 
L 242.578884 158.480553 
L 239.9517 156.471523 
L 237.380887 154.22079 
L 234.891281 151.76244 
L 232.505974 149.131978 
L 230.2466 146.365906 
L 228.13362 143.501553 
L 226.186549 140.577108 
L 223.694593 136.318861 
L 223.091384 135.096077 
L 222.100092 132.284968 
L 221.365416 129.037897 
L 220.822957 125.444013 
L 219.28063 113.427796 
L 218.315679 109.231168 
L 217.643849 107.132642 
L 216.807311 105.051692 
L 215.776807 103.009422 
L 214.558735 101.077099 
L 213.20636 99.321321 
L 211.744973 97.717179 
L 210.198145 96.250123 
L 208.585403 94.903533 
L 205.224383 92.504506 
L 201.767333 90.394979 
L 194.926344 86.642448 
L 190.217847 83.941428 
L 187.452005 82.099375 
L 184.993836 80.112875 
L 182.537773 77.745202 
L 178.985324 73.908256 
L 175.537899 69.789274 
L 169.852658 62.50072 
L 163.957327 55.000862 
L 162.77067 53.568 
L 162.77067 53.568 
" style="fill:none;stroke:#ffffff;stroke-linecap:square;"/>
   </g>
   <g id="patch_3">
    <path d="M 57.6 307.584 
L 57.6 41.472 
" style="fill:none;stroke:#000000;stroke-linecap:square;stroke-linejoin:miter;stroke-width:0.8;"/>
   </g>
   <g id="patch_4">
    <path d="M 414.72 307.584 
L 414.72 41.472 
" style="fill:none;stroke:#000000;stroke-linecap:square;stroke-linejoin:miter;stroke-width:0.8;"/>
   </g>
   <g id="patch_5">
    <path d="M 57.6 307.584 
L 414.72 307.584 
" style="fill:none;stroke:#000000;stroke-linecap:square;stroke-linejoin:miter;stroke-width:0.8;"/>
   </g>
   <g id="patch_6">
    <path d="M 57.6 41.472 
L 414.72 41.472 
" style="fill:none;stroke:#000000;stroke-linecap:square;stroke-linejoin:miter;stroke-width:0.8;"/>
   </g>
  </g>
 </g>
 <defs>
  <clipPath id="p3197955728">
   <rect height="266.112" width="357.12" x="57.6" y="41.472"/>
  </clipPath>
 </defs>
</svg>
